%TF.GenerationSoftware,KiCad,Pcbnew,10.0.4*%
%TF.CreationDate,2026-07-27T02:29:31-03:00*%
%TF.ProjectId,tkmem128-expansor,746b6d65-6d31-4323-982d-657870616e73,rev?*%
%TF.SameCoordinates,Original*%
%TF.FileFunction,Copper,L1,Top*%
%TF.FilePolarity,Positive*%
%FSLAX46Y46*%
G04 Gerber Fmt 4.6, Leading zero omitted, Abs format (unit mm)*
G04 Created by KiCad (PCBNEW 10.0.4) date 2026-07-27 02:29:31*
%MOMM*%
%LPD*%
G01*
G04 APERTURE LIST*
%TA.AperFunction,ComponentPad*%
%ADD10C,1.600000*%
%TD*%
%TA.AperFunction,SMDPad,CuDef*%
%ADD11R,1.700000X5.000000*%
%TD*%
%TA.AperFunction,SMDPad,CuDef*%
%ADD12R,1.524000X7.620000*%
%TD*%
%TA.AperFunction,ViaPad*%
%ADD13C,0.900000*%
%TD*%
%TA.AperFunction,ViaPad*%
%ADD14C,0.700000*%
%TD*%
%TA.AperFunction,Conductor*%
%ADD15C,0.600000*%
%TD*%
%TA.AperFunction,Conductor*%
%ADD16C,0.250000*%
%TD*%
G04 APERTURE END LIST*
D10*
%TO.P,C1,1*%
%TO.N,+5V*%
X6000000Y-20000000D03*
%TO.P,C1,2*%
%TO.N,GND*%
X11000000Y-20000000D03*
%TD*%
D11*
%TO.P,J1,29*%
%TO.N,BUS_P29*%
X73660000Y-2500000D03*
%TO.P,J1,30*%
%TO.N,A10*%
X71120000Y-2500000D03*
%TO.P,J1,31*%
%TO.N,A8*%
X68580000Y-2500000D03*
%TO.P,J1,32*%
%TO.N,BUS_RFSH*%
X66040000Y-2500000D03*
%TO.P,J1,33*%
%TO.N,BUS_M1*%
X63500000Y-2500000D03*
%TO.P,J1,34*%
%TO.N,BUS_P34*%
X60960000Y-2500000D03*
%TO.P,J1,35*%
%TO.N,BUS_P35*%
X58420000Y-2500000D03*
%TO.P,J1,36*%
%TO.N,BUS_WAIT*%
X55880000Y-2500000D03*
%TO.P,J1,37*%
%TO.N,BUS_P37*%
X53340000Y-2500000D03*
%TO.P,J1,38*%
%TO.N,WR_N*%
X50800000Y-2500000D03*
%TO.P,J1,39*%
%TO.N,RD_N*%
X48260000Y-2500000D03*
%TO.P,J1,40*%
%TO.N,IORQ_N*%
X45720000Y-2500000D03*
%TO.P,J1,41*%
%TO.N,MREQ_N*%
X43180000Y-2500000D03*
%TO.P,J1,42*%
%TO.N,BUS_HALT*%
X40640000Y-2500000D03*
%TO.P,J1,43*%
%TO.N,BUS_NMI*%
X38100000Y-2500000D03*
%TO.P,J1,44*%
%TO.N,BUS_INT*%
X35560000Y-2500000D03*
%TO.P,J1,45*%
%TO.N,D4*%
X33020000Y-2500000D03*
%TO.P,J1,46*%
%TO.N,D3*%
X30480000Y-2500000D03*
%TO.P,J1,47*%
%TO.N,D5*%
X27940000Y-2500000D03*
%TO.P,J1,48*%
%TO.N,D6*%
X25400000Y-2500000D03*
%TO.P,J1,49*%
%TO.N,D2*%
X22860000Y-2500000D03*
%TO.P,J1,50*%
%TO.N,D1*%
X20320000Y-2500000D03*
%TO.P,J1,51*%
%TO.N,D0*%
X17780000Y-2500000D03*
%TO.P,J1,53*%
%TO.N,BUS_SOUNDIN*%
X12700000Y-2500000D03*
%TO.P,J1,54*%
%TO.N,D7*%
X10160000Y-2500000D03*
%TO.P,J1,55*%
%TO.N,A13*%
X7620000Y-2500000D03*
%TO.P,J1,56*%
%TO.N,A15*%
X5080000Y-2500000D03*
%TD*%
D12*
%TO.P,J2,29*%
%TO.N,BUS_P29*%
X73660000Y-41190000D03*
%TO.P,J2,30*%
%TO.N,A10*%
X71120000Y-41190000D03*
%TO.P,J2,31*%
%TO.N,A8*%
X68580000Y-41190000D03*
%TO.P,J2,32*%
%TO.N,BUS_RFSH*%
X66040000Y-41190000D03*
%TO.P,J2,33*%
%TO.N,BUS_M1*%
X63500000Y-41190000D03*
%TO.P,J2,34*%
%TO.N,BUS_P34*%
X60960000Y-41190000D03*
%TO.P,J2,35*%
%TO.N,BUS_P35*%
X58420000Y-41190000D03*
%TO.P,J2,36*%
%TO.N,BUS_WAIT*%
X55880000Y-41190000D03*
%TO.P,J2,37*%
%TO.N,BUS_P37*%
X53340000Y-41190000D03*
%TO.P,J2,38*%
%TO.N,WR_N*%
X50800000Y-41190000D03*
%TO.P,J2,39*%
%TO.N,RD_N*%
X48260000Y-41190000D03*
%TO.P,J2,40*%
%TO.N,IORQ_N*%
X45720000Y-41190000D03*
%TO.P,J2,41*%
%TO.N,MREQ_N*%
X43180000Y-41190000D03*
%TO.P,J2,42*%
%TO.N,BUS_HALT*%
X40640000Y-41190000D03*
%TO.P,J2,43*%
%TO.N,BUS_NMI*%
X38100000Y-41190000D03*
%TO.P,J2,44*%
%TO.N,BUS_INT*%
X35560000Y-41190000D03*
%TO.P,J2,45*%
%TO.N,D4*%
X33020000Y-41190000D03*
%TO.P,J2,46*%
%TO.N,D3*%
X30480000Y-41190000D03*
%TO.P,J2,47*%
%TO.N,D5*%
X27940000Y-41190000D03*
%TO.P,J2,48*%
%TO.N,D6*%
X25400000Y-41190000D03*
%TO.P,J2,49*%
%TO.N,D2*%
X22860000Y-41190000D03*
%TO.P,J2,50*%
%TO.N,D1*%
X20320000Y-41190000D03*
%TO.P,J2,51*%
%TO.N,D0*%
X17780000Y-41190000D03*
%TO.P,J2,53*%
%TO.N,BUS_SOUNDIN*%
X12700000Y-41190000D03*
%TO.P,J2,54*%
%TO.N,D7*%
X10160000Y-41190000D03*
%TO.P,J2,55*%
%TO.N,A13*%
X7620000Y-41190000D03*
%TO.P,J2,56*%
%TO.N,A15*%
X5080000Y-41190000D03*
%TD*%
D13*
%TO.N,GND*%
X37001300Y-22499500D03*
D14*
%TO.N,BUS_P29*%
X72390000Y-39920000D03*
X73660000Y-5531500D03*
%TO.N,A10*%
X70229100Y-36884600D03*
X70979700Y-5505700D03*
%TO.N,A8*%
X68809300Y-36884000D03*
X68580000Y-5505300D03*
%TO.N,BUS_RFSH*%
X66176300Y-5517700D03*
X65230600Y-36859500D03*
%TO.N,BUS_M1*%
X62230000Y-39920000D03*
X63500000Y-5520100D03*
%TO.N,BUS_P34*%
X60777600Y-5525100D03*
X60046400Y-36884600D03*
%TO.N,BUS_P35*%
X58420000Y-5519500D03*
X58653900Y-36879400D03*
%TO.N,BUS_WAIT*%
X55973700Y-5520500D03*
X55047900Y-36859500D03*
%TO.N,BUS_P37*%
X52070000Y-39920000D03*
X53340000Y-5508800D03*
%TO.N,WR_N*%
X50610500Y-5509500D03*
X49863700Y-36884600D03*
%TO.N,RD_N*%
X48720000Y-36880600D03*
X48260000Y-5533700D03*
%TO.N,IORQ_N*%
X46611700Y-36875100D03*
X45748400Y-5500600D03*
%TO.N,MREQ_N*%
X43813200Y-5774800D03*
X43798600Y-36733700D03*
%TO.N,BUS_HALT*%
X41910000Y-39920000D03*
X40387500Y-5506700D03*
%TO.N,BUS_NMI*%
X39370700Y-39919300D03*
X38100000Y-5547900D03*
%TO.N,BUS_INT*%
X35560000Y-5517600D03*
X34682500Y-36859500D03*
%TO.N,D4*%
X31750000Y-39920000D03*
X33020000Y-5540900D03*
%TO.N,D3*%
X30235500Y-5519100D03*
X29465600Y-36909100D03*
%TO.N,D5*%
X27470700Y-36859500D03*
X27940000Y-5503000D03*
%TO.N,D6*%
X24499800Y-36859500D03*
X25400000Y-5563000D03*
%TO.N,D2*%
X22860000Y-5526800D03*
X21590000Y-39920000D03*
%TO.N,D1*%
X20320000Y-36815500D03*
X20057800Y-5514100D03*
%TO.N,D0*%
X17780000Y-5514300D03*
X18959900Y-37083200D03*
%TO.N,BUS_SOUNDIN*%
X11515200Y-5366100D03*
X11544900Y-37075000D03*
%TO.N,D7*%
X9875100Y-5514100D03*
X10160000Y-36842000D03*
%TO.N,A13*%
X7274300Y-5825900D03*
X6464900Y-37075000D03*
%TO.N,A15*%
X5318700Y-36875100D03*
X5080000Y-5508600D03*
%TD*%
%TO.N,GND*%
D15*
X13499500Y-22499500D02*
X11000000Y-20000000D01*
X37001300Y-22499500D02*
X13499500Y-22499500D01*
%TO.N,BUS_P29*%
D16*
X73660000Y-37113300D02*
X72759900Y-37113300D01*
X73660000Y-41190000D02*
X73660000Y-37113300D01*
X73660000Y-5531500D02*
X73660000Y-2500000D01*
X72390100Y-37483100D02*
X72390100Y-39920000D01*
X72759900Y-37113300D02*
X72390100Y-37483100D01*
%TO.N,A10*%
X71120000Y-37113300D02*
X70457800Y-37113300D01*
X70979700Y-5505700D02*
X71120000Y-5365400D01*
X71120000Y-5365400D02*
X71120000Y-2500000D01*
X71120000Y-41190000D02*
X71120000Y-37113300D01*
X70457800Y-37113300D02*
X70229100Y-36884600D01*
%TO.N,A8*%
X68580000Y-41190000D02*
X68580000Y-37113300D01*
X68580000Y-37113300D02*
X68809300Y-36884000D01*
X68580000Y-5505300D02*
X68580000Y-2500000D01*
%TO.N,BUS_RFSH*%
X66040000Y-5381400D02*
X66040000Y-2500000D01*
X66040000Y-41190000D02*
X66040000Y-37113300D01*
X66040000Y-37113300D02*
X65484400Y-37113300D01*
X65484400Y-37113300D02*
X65230600Y-36859500D01*
X66176300Y-5517700D02*
X66040000Y-5381400D01*
%TO.N,BUS_M1*%
X62230100Y-37483100D02*
X62230100Y-39920000D01*
X62599900Y-37113300D02*
X62230100Y-37483100D01*
X63500000Y-5520100D02*
X63500000Y-2500000D01*
X63500000Y-37113300D02*
X62599900Y-37113300D01*
X63500000Y-41190000D02*
X63500000Y-37113300D01*
%TO.N,BUS_P34*%
X60777600Y-5525100D02*
X60960000Y-5342700D01*
X60275100Y-37113300D02*
X60046400Y-36884600D01*
X60960000Y-41190000D02*
X60960000Y-37113300D01*
X60960000Y-5342700D02*
X60960000Y-2500000D01*
X60960000Y-37113300D02*
X60275100Y-37113300D01*
%TO.N,BUS_P35*%
X58420000Y-41190000D02*
X58420000Y-37113300D01*
X58420000Y-5519500D02*
X58420000Y-2500000D01*
X58420000Y-37113300D02*
X58653900Y-36879400D01*
%TO.N,BUS_WAIT*%
X55301700Y-37113300D02*
X55047900Y-36859500D01*
X55880000Y-41190000D02*
X55880000Y-37113300D01*
X55880000Y-5426800D02*
X55880000Y-2500000D01*
X55880000Y-37113300D02*
X55301700Y-37113300D01*
%TO.N,BUS_P37*%
X52070100Y-37483100D02*
X52070100Y-39920000D01*
X53340000Y-37113300D02*
X52439900Y-37113300D01*
X53340000Y-41190000D02*
X53340000Y-37113300D01*
X52439900Y-37113300D02*
X52070100Y-37483100D01*
X53340000Y-5508800D02*
X53340000Y-2500000D01*
%TO.N,WR_N*%
X50800000Y-5320000D02*
X50800000Y-2500000D01*
X50800000Y-37113300D02*
X50092400Y-37113300D01*
X50092400Y-37113300D02*
X49863700Y-36884600D01*
X50800000Y-41190000D02*
X50800000Y-37113300D01*
X50610500Y-5509500D02*
X50800000Y-5320000D01*
%TO.N,RD_N*%
X48260000Y-37113300D02*
X48487300Y-37113300D01*
X48260000Y-5533700D02*
X48260000Y-2500000D01*
X48260000Y-41190000D02*
X48260000Y-37113300D01*
X48487300Y-37113300D02*
X48720000Y-36880600D01*
%TO.N,IORQ_N*%
X45720000Y-37113300D02*
X46373500Y-37113300D01*
X45720000Y-41190000D02*
X45720000Y-37113300D01*
X46373500Y-37113300D02*
X46611700Y-36875100D01*
X45720000Y-5472200D02*
X45720000Y-2500000D01*
%TO.N,MREQ_N*%
X43419000Y-37113300D02*
X43798600Y-36733700D01*
X43180000Y-2500000D02*
X43180000Y-5266700D01*
X43180000Y-41190000D02*
X43180000Y-37113300D01*
X43305100Y-5266700D02*
X43813200Y-5774800D01*
X43180000Y-37113300D02*
X43419000Y-37113300D01*
%TO.N,BUS_HALT*%
X40387500Y-5506700D02*
X40627500Y-5266700D01*
X40640000Y-2500000D02*
X40640000Y-5266700D01*
X40640000Y-41190000D02*
X40640000Y-37113300D01*
X41909900Y-37483100D02*
X41909900Y-39920000D01*
X40640000Y-37113300D02*
X41540100Y-37113300D01*
X41540100Y-37113300D02*
X41909900Y-37483100D01*
%TO.N,BUS_NMI*%
X38100000Y-5547900D02*
X38100000Y-2500000D01*
X38100000Y-37113300D02*
X39000100Y-37113300D01*
X38100000Y-41190000D02*
X38100000Y-37113300D01*
X39000100Y-37113300D02*
X39370600Y-37483800D01*
X39370600Y-37483800D02*
X39370600Y-39919300D01*
%TO.N,BUS_INT*%
X35560000Y-37113300D02*
X34936300Y-37113300D01*
X35560000Y-41190000D02*
X35560000Y-37113300D01*
X35560000Y-5517600D02*
X35560000Y-2500000D01*
X34936300Y-37113300D02*
X34682500Y-36859500D01*
%TO.N,D4*%
X33020000Y-5540900D02*
X33020000Y-2500000D01*
X33020000Y-41190000D02*
X33020000Y-37113300D01*
X33020000Y-37113300D02*
X32119900Y-37113300D01*
X31750100Y-37483100D02*
X31750100Y-39920000D01*
X32119900Y-37113300D02*
X31750100Y-37483100D01*
%TO.N,D3*%
X30480000Y-41190000D02*
X30480000Y-37113300D01*
X30235500Y-5519100D02*
X30480000Y-5274600D01*
X29669800Y-37113300D02*
X29465600Y-36909100D01*
X30480000Y-37113300D02*
X29669800Y-37113300D01*
X30480000Y-5274600D02*
X30480000Y-2500000D01*
%TO.N,D5*%
X27940000Y-37113300D02*
X27724500Y-37113300D01*
X27940000Y-5503000D02*
X27940000Y-2500000D01*
X27724500Y-37113300D02*
X27470700Y-36859500D01*
X27940000Y-41190000D02*
X27940000Y-37113300D01*
%TO.N,D6*%
X25400000Y-37113300D02*
X24753600Y-37113300D01*
X25400000Y-41190000D02*
X25400000Y-37113300D01*
X24753600Y-37113300D02*
X24499800Y-36859500D01*
X25400000Y-5563000D02*
X25400000Y-2500000D01*
%TO.N,D2*%
X22860000Y-37113300D02*
X21959900Y-37113300D01*
X21959900Y-37113300D02*
X21590100Y-37483100D01*
X22860000Y-41190000D02*
X22860000Y-37113300D01*
X22860000Y-5526800D02*
X22860000Y-2500000D01*
X21590100Y-37483100D02*
X21590100Y-39920000D01*
%TO.N,D1*%
X20057800Y-5514100D02*
X20305200Y-5266700D01*
X20320000Y-2500000D02*
X20320000Y-5266700D01*
X20320000Y-41190000D02*
X20320000Y-36815500D01*
%TO.N,D0*%
X17780000Y-5514300D02*
X17780000Y-2500000D01*
X17780000Y-37113300D02*
X18929800Y-37113300D01*
X17780000Y-41190000D02*
X17780000Y-37113300D01*
%TO.N,BUS_SOUNDIN*%
X12700000Y-37113300D02*
X11583200Y-37113300D01*
X12700000Y-41190000D02*
X12700000Y-37113300D01*
X12700000Y-5266700D02*
X11614600Y-5266700D01*
X12700000Y-2500000D02*
X12700000Y-5266700D01*
%TO.N,D7*%
X10160000Y-2500000D02*
X10160000Y-5266700D01*
X10122500Y-5266700D02*
X9875100Y-5514100D01*
X10160000Y-41190000D02*
X10160000Y-36842000D01*
%TO.N,A13*%
X7620000Y-5480200D02*
X7274300Y-5825900D01*
X7620000Y-2500000D02*
X7620000Y-5480200D01*
X7620000Y-37113300D02*
X6503200Y-37113300D01*
X7620000Y-41190000D02*
X7620000Y-37113300D01*
%TO.N,A15*%
X5080000Y-41190000D02*
X5080000Y-37113300D01*
X5080000Y-5508600D02*
X5080000Y-2500000D01*
X5080500Y-37113300D02*
X5318700Y-36875100D01*
%TD*%
%TA.AperFunction,Conductor*%
%TO.N,GND*%
G36*
X3872539Y-320185D02*
G01*
X3918294Y-372989D01*
X3929500Y-424500D01*
X3929500Y-5044856D01*
X3929502Y-5044882D01*
X3932413Y-5069987D01*
X3932415Y-5069991D01*
X3977793Y-5172764D01*
X3977794Y-5172765D01*
X4057235Y-5252206D01*
X4160009Y-5297585D01*
X4185135Y-5300500D01*
X4307054Y-5300499D01*
X4374093Y-5320183D01*
X4419848Y-5372987D01*
X4429251Y-5438382D01*
X4430097Y-5438466D01*
X4429757Y-5441908D01*
X4429792Y-5442145D01*
X4429656Y-5442936D01*
X4429500Y-5444528D01*
X4429500Y-5444531D01*
X4429500Y-5572669D01*
X4429500Y-5572671D01*
X4429499Y-5572671D01*
X4454497Y-5698338D01*
X4454499Y-5698344D01*
X4503533Y-5816724D01*
X4503538Y-5816733D01*
X4574723Y-5923268D01*
X4574726Y-5923272D01*
X4665327Y-6013873D01*
X4665331Y-6013876D01*
X4771866Y-6085061D01*
X4771875Y-6085066D01*
X4797222Y-6095565D01*
X4890256Y-6134101D01*
X4890260Y-6134101D01*
X4890261Y-6134102D01*
X5015928Y-6159100D01*
X5015931Y-6159100D01*
X5144071Y-6159100D01*
X5265214Y-6135002D01*
X5269744Y-6134101D01*
X5388127Y-6085065D01*
X5494669Y-6013876D01*
X5585276Y-5923269D01*
X5656465Y-5816727D01*
X5705501Y-5698344D01*
X5717872Y-5636155D01*
X5730500Y-5572671D01*
X5730500Y-5444528D01*
X5729903Y-5438466D01*
X5732262Y-5438233D01*
X5737556Y-5379097D01*
X5780420Y-5323920D01*
X5846310Y-5300677D01*
X5852945Y-5300499D01*
X5974856Y-5300499D01*
X5974864Y-5300499D01*
X5974879Y-5300497D01*
X5974882Y-5300497D01*
X5999987Y-5297586D01*
X5999988Y-5297585D01*
X5999991Y-5297585D01*
X6102765Y-5252206D01*
X6182206Y-5172765D01*
X6227585Y-5069991D01*
X6227585Y-5069988D01*
X6230033Y-5060993D01*
X6233071Y-5061819D01*
X6254082Y-5012237D01*
X6311795Y-4972856D01*
X6381639Y-4970928D01*
X6441436Y-5007067D01*
X6468126Y-5061487D01*
X6469965Y-5060987D01*
X6472415Y-5069991D01*
X6517793Y-5172764D01*
X6517794Y-5172765D01*
X6597235Y-5252206D01*
X6676930Y-5287394D01*
X6730303Y-5332478D01*
X6750831Y-5399264D01*
X6731993Y-5466546D01*
X6729944Y-5469717D01*
X6697837Y-5517768D01*
X6697833Y-5517775D01*
X6648799Y-5636155D01*
X6648797Y-5636161D01*
X6623800Y-5761828D01*
X6623800Y-5761831D01*
X6623800Y-5889969D01*
X6623800Y-5889971D01*
X6623799Y-5889971D01*
X6648797Y-6015638D01*
X6648798Y-6015642D01*
X6648799Y-6015644D01*
X6661445Y-6046173D01*
X6697833Y-6134024D01*
X6697838Y-6134033D01*
X6769023Y-6240568D01*
X6769026Y-6240572D01*
X6859627Y-6331173D01*
X6859631Y-6331176D01*
X6966166Y-6402361D01*
X6966172Y-6402364D01*
X6966173Y-6402365D01*
X7084556Y-6451401D01*
X7084560Y-6451401D01*
X7084561Y-6451402D01*
X7210228Y-6476400D01*
X7210231Y-6476400D01*
X7338371Y-6476400D01*
X7422915Y-6459582D01*
X7464044Y-6451401D01*
X7582427Y-6402365D01*
X7688969Y-6331176D01*
X7779576Y-6240569D01*
X7850765Y-6134027D01*
X7899801Y-6015644D01*
X7913183Y-5948369D01*
X7924800Y-5889971D01*
X7924800Y-5828510D01*
X7944485Y-5761471D01*
X7958016Y-5744678D01*
X7960476Y-5741471D01*
X7960485Y-5741463D01*
X8016503Y-5644437D01*
X8045500Y-5536218D01*
X8045500Y-5424499D01*
X8065185Y-5357460D01*
X8117989Y-5311705D01*
X8169500Y-5300499D01*
X8514856Y-5300499D01*
X8514864Y-5300499D01*
X8514879Y-5300497D01*
X8514882Y-5300497D01*
X8539987Y-5297586D01*
X8539988Y-5297585D01*
X8539991Y-5297585D01*
X8642765Y-5252206D01*
X8722206Y-5172765D01*
X8767585Y-5069991D01*
X8767585Y-5069988D01*
X8770033Y-5060993D01*
X8773071Y-5061819D01*
X8794082Y-5012237D01*
X8851795Y-4972856D01*
X8921639Y-4970928D01*
X8981436Y-5007067D01*
X9008126Y-5061487D01*
X9009965Y-5060987D01*
X9012415Y-5069991D01*
X9057793Y-5172764D01*
X9057794Y-5172765D01*
X9137235Y-5252206D01*
X9162798Y-5263493D01*
X9216174Y-5308579D01*
X9236701Y-5375365D01*
X9234329Y-5401117D01*
X9225767Y-5444166D01*
X9224600Y-5450031D01*
X9224600Y-5578169D01*
X9224600Y-5578171D01*
X9224599Y-5578171D01*
X9249597Y-5703838D01*
X9249599Y-5703844D01*
X9298633Y-5822224D01*
X9298638Y-5822233D01*
X9369823Y-5928768D01*
X9369826Y-5928772D01*
X9460427Y-6019373D01*
X9460431Y-6019376D01*
X9566966Y-6090561D01*
X9566975Y-6090566D01*
X9582414Y-6096961D01*
X9685356Y-6139601D01*
X9685360Y-6139601D01*
X9685361Y-6139602D01*
X9811028Y-6164600D01*
X9811031Y-6164600D01*
X9939171Y-6164600D01*
X10046751Y-6143200D01*
X10064844Y-6139601D01*
X10183227Y-6090565D01*
X10289769Y-6019376D01*
X10380376Y-5928769D01*
X10451565Y-5822227D01*
X10500601Y-5703844D01*
X10521701Y-5597771D01*
X10525600Y-5578171D01*
X10525600Y-5517688D01*
X10534353Y-5471927D01*
X10537691Y-5463519D01*
X10556503Y-5430937D01*
X10568693Y-5385440D01*
X10571355Y-5378738D01*
X10588609Y-5356669D01*
X10603192Y-5332745D01*
X10609838Y-5329516D01*
X10614390Y-5323695D01*
X10640838Y-5314457D01*
X10666039Y-5302216D01*
X10678982Y-5301135D01*
X10680352Y-5300657D01*
X10681478Y-5300926D01*
X10686602Y-5300499D01*
X10740700Y-5300499D01*
X10807739Y-5320184D01*
X10853494Y-5372988D01*
X10864700Y-5424499D01*
X10864700Y-5430169D01*
X10864700Y-5430171D01*
X10864699Y-5430171D01*
X10889697Y-5555838D01*
X10889699Y-5555844D01*
X10938733Y-5674224D01*
X10938738Y-5674233D01*
X11009923Y-5780768D01*
X11009926Y-5780772D01*
X11100527Y-5871373D01*
X11100531Y-5871376D01*
X11207066Y-5942561D01*
X11207075Y-5942566D01*
X11221085Y-5948369D01*
X11325456Y-5991601D01*
X11325460Y-5991601D01*
X11325461Y-5991602D01*
X11451128Y-6016600D01*
X11451131Y-6016600D01*
X11579271Y-6016600D01*
X11663815Y-5999782D01*
X11704944Y-5991601D01*
X11823327Y-5942565D01*
X11929869Y-5871376D01*
X12020476Y-5780769D01*
X12042833Y-5747308D01*
X12096444Y-5702505D01*
X12145935Y-5692200D01*
X12756016Y-5692200D01*
X12756018Y-5692200D01*
X12864237Y-5663203D01*
X12961263Y-5607185D01*
X13040485Y-5527963D01*
X13096503Y-5430937D01*
X13106827Y-5392403D01*
X13143192Y-5332745D01*
X13206039Y-5302216D01*
X13226602Y-5300499D01*
X13594856Y-5300499D01*
X13594864Y-5300499D01*
X13594879Y-5300497D01*
X13594882Y-5300497D01*
X13619987Y-5297586D01*
X13619988Y-5297585D01*
X13619991Y-5297585D01*
X13722765Y-5252206D01*
X13802206Y-5172765D01*
X13847585Y-5069991D01*
X13850500Y-5044865D01*
X13850499Y-424499D01*
X13870184Y-357461D01*
X13922988Y-311706D01*
X13974499Y-300500D01*
X16505500Y-300500D01*
X16572539Y-320185D01*
X16618294Y-372989D01*
X16629500Y-424500D01*
X16629500Y-5044856D01*
X16629502Y-5044882D01*
X16632413Y-5069987D01*
X16632415Y-5069991D01*
X16677793Y-5172764D01*
X16677794Y-5172765D01*
X16757235Y-5252206D01*
X16860009Y-5297585D01*
X16885135Y-5300500D01*
X17008188Y-5300499D01*
X17075227Y-5320183D01*
X17120982Y-5372987D01*
X17130926Y-5442145D01*
X17129808Y-5448677D01*
X17129500Y-5450224D01*
X17129500Y-5450231D01*
X17129500Y-5578369D01*
X17129500Y-5578371D01*
X17129499Y-5578371D01*
X17154497Y-5704038D01*
X17154499Y-5704044D01*
X17203533Y-5822424D01*
X17203538Y-5822433D01*
X17274723Y-5928968D01*
X17274726Y-5928972D01*
X17365327Y-6019573D01*
X17365331Y-6019576D01*
X17471866Y-6090761D01*
X17471875Y-6090766D01*
X17484417Y-6095961D01*
X17590256Y-6139801D01*
X17590260Y-6139801D01*
X17590261Y-6139802D01*
X17715928Y-6164800D01*
X17715931Y-6164800D01*
X17844071Y-6164800D01*
X17940591Y-6145600D01*
X17969744Y-6139801D01*
X18088127Y-6090765D01*
X18194669Y-6019576D01*
X18285276Y-5928969D01*
X18356465Y-5822427D01*
X18405501Y-5704044D01*
X18413682Y-5662915D01*
X18430500Y-5578371D01*
X18430500Y-5450231D01*
X18430194Y-5448693D01*
X18430267Y-5447869D01*
X18429903Y-5444166D01*
X18430605Y-5444096D01*
X18436420Y-5379101D01*
X18479282Y-5323923D01*
X18545171Y-5300677D01*
X18551811Y-5300499D01*
X18674856Y-5300499D01*
X18674864Y-5300499D01*
X18674879Y-5300497D01*
X18674882Y-5300497D01*
X18699987Y-5297586D01*
X18699988Y-5297585D01*
X18699991Y-5297585D01*
X18802765Y-5252206D01*
X18882206Y-5172765D01*
X18927585Y-5069991D01*
X18927585Y-5069988D01*
X18930033Y-5060993D01*
X18933071Y-5061819D01*
X18954082Y-5012237D01*
X19011795Y-4972856D01*
X19081639Y-4970928D01*
X19141436Y-5007067D01*
X19168126Y-5061487D01*
X19169965Y-5060987D01*
X19172415Y-5069991D01*
X19217793Y-5172764D01*
X19297235Y-5252206D01*
X19343665Y-5272707D01*
X19397042Y-5317793D01*
X19417569Y-5384579D01*
X19415196Y-5410332D01*
X19407300Y-5450026D01*
X19407300Y-5450031D01*
X19407300Y-5578169D01*
X19407300Y-5578171D01*
X19407299Y-5578171D01*
X19432297Y-5703838D01*
X19432299Y-5703844D01*
X19481333Y-5822224D01*
X19481338Y-5822233D01*
X19552523Y-5928768D01*
X19552526Y-5928772D01*
X19643127Y-6019373D01*
X19643131Y-6019376D01*
X19749666Y-6090561D01*
X19749675Y-6090566D01*
X19765114Y-6096961D01*
X19868056Y-6139601D01*
X19868060Y-6139601D01*
X19868061Y-6139602D01*
X19993728Y-6164600D01*
X19993731Y-6164600D01*
X20121871Y-6164600D01*
X20229451Y-6143200D01*
X20247544Y-6139601D01*
X20365927Y-6090565D01*
X20472469Y-6019376D01*
X20563076Y-5928769D01*
X20634265Y-5822227D01*
X20683301Y-5703844D01*
X20704401Y-5597771D01*
X20708300Y-5578171D01*
X20708300Y-5475405D01*
X20712922Y-5441866D01*
X20715508Y-5432659D01*
X20716503Y-5430937D01*
X20727023Y-5391672D01*
X20727224Y-5390960D01*
X20745381Y-5361964D01*
X20763192Y-5332745D01*
X20763892Y-5332404D01*
X20764307Y-5331743D01*
X20795288Y-5317153D01*
X20826039Y-5302216D01*
X20827218Y-5302117D01*
X20827519Y-5301976D01*
X20828059Y-5302047D01*
X20846602Y-5300499D01*
X21214856Y-5300499D01*
X21214864Y-5300499D01*
X21214879Y-5300497D01*
X21214882Y-5300497D01*
X21239987Y-5297586D01*
X21239988Y-5297585D01*
X21239991Y-5297585D01*
X21342765Y-5252206D01*
X21422206Y-5172765D01*
X21467585Y-5069991D01*
X21467585Y-5069988D01*
X21470033Y-5060993D01*
X21473071Y-5061819D01*
X21494082Y-5012237D01*
X21551795Y-4972856D01*
X21621639Y-4970928D01*
X21681436Y-5007067D01*
X21708126Y-5061487D01*
X21709965Y-5060987D01*
X21712415Y-5069991D01*
X21757793Y-5172764D01*
X21757794Y-5172765D01*
X21837235Y-5252206D01*
X21940009Y-5297585D01*
X21965135Y-5300500D01*
X22090675Y-5300499D01*
X22157714Y-5320183D01*
X22203469Y-5372987D01*
X22213413Y-5442145D01*
X22212293Y-5448689D01*
X22210753Y-5456431D01*
X22209500Y-5462731D01*
X22209500Y-5590869D01*
X22209500Y-5590871D01*
X22209499Y-5590871D01*
X22234497Y-5716538D01*
X22234499Y-5716544D01*
X22283533Y-5834924D01*
X22283538Y-5834933D01*
X22354723Y-5941468D01*
X22354726Y-5941472D01*
X22445327Y-6032073D01*
X22445331Y-6032076D01*
X22551866Y-6103261D01*
X22551872Y-6103264D01*
X22551873Y-6103265D01*
X22670256Y-6152301D01*
X22670260Y-6152301D01*
X22670261Y-6152302D01*
X22795928Y-6177300D01*
X22795931Y-6177300D01*
X22924071Y-6177300D01*
X23011040Y-6160000D01*
X23049744Y-6152301D01*
X23168127Y-6103265D01*
X23274669Y-6032076D01*
X23365276Y-5941469D01*
X23436465Y-5834927D01*
X23485501Y-5716544D01*
X23493919Y-5674224D01*
X23510500Y-5590871D01*
X23510500Y-5462731D01*
X23507707Y-5448689D01*
X23513936Y-5379097D01*
X23556799Y-5323921D01*
X23622689Y-5300677D01*
X23629325Y-5300499D01*
X23754856Y-5300499D01*
X23754864Y-5300499D01*
X23754879Y-5300497D01*
X23754882Y-5300497D01*
X23779987Y-5297586D01*
X23779988Y-5297585D01*
X23779991Y-5297585D01*
X23882765Y-5252206D01*
X23962206Y-5172765D01*
X24007585Y-5069991D01*
X24007585Y-5069988D01*
X24010033Y-5060993D01*
X24013071Y-5061819D01*
X24034082Y-5012237D01*
X24091795Y-4972856D01*
X24161639Y-4970928D01*
X24221436Y-5007067D01*
X24248126Y-5061487D01*
X24249965Y-5060987D01*
X24252415Y-5069991D01*
X24297793Y-5172764D01*
X24297794Y-5172765D01*
X24377235Y-5252206D01*
X24480009Y-5297585D01*
X24505135Y-5300500D01*
X24637876Y-5300499D01*
X24704915Y-5320183D01*
X24750670Y-5372987D01*
X24760614Y-5442145D01*
X24759493Y-5448690D01*
X24749500Y-5498926D01*
X24749500Y-5498931D01*
X24749500Y-5627069D01*
X24749500Y-5627071D01*
X24749499Y-5627071D01*
X24774497Y-5752738D01*
X24774499Y-5752744D01*
X24823533Y-5871124D01*
X24823538Y-5871133D01*
X24894723Y-5977668D01*
X24894726Y-5977672D01*
X24985327Y-6068273D01*
X24985331Y-6068276D01*
X25091866Y-6139461D01*
X25091875Y-6139466D01*
X25118692Y-6150574D01*
X25210256Y-6188501D01*
X25210260Y-6188501D01*
X25210261Y-6188502D01*
X25335928Y-6213500D01*
X25335931Y-6213500D01*
X25464071Y-6213500D01*
X25575170Y-6191400D01*
X25589744Y-6188501D01*
X25708127Y-6139465D01*
X25814669Y-6068276D01*
X25905276Y-5977669D01*
X25976465Y-5871127D01*
X26025501Y-5752744D01*
X26034155Y-5709238D01*
X26050500Y-5627071D01*
X26050500Y-5498928D01*
X26050499Y-5498926D01*
X26040507Y-5448690D01*
X26046734Y-5379099D01*
X26089597Y-5323922D01*
X26155487Y-5300677D01*
X26162124Y-5300499D01*
X26294856Y-5300499D01*
X26294864Y-5300499D01*
X26294879Y-5300497D01*
X26294882Y-5300497D01*
X26319987Y-5297586D01*
X26319988Y-5297585D01*
X26319991Y-5297585D01*
X26422765Y-5252206D01*
X26502206Y-5172765D01*
X26547585Y-5069991D01*
X26547585Y-5069988D01*
X26550033Y-5060993D01*
X26553071Y-5061819D01*
X26574082Y-5012237D01*
X26631795Y-4972856D01*
X26701639Y-4970928D01*
X26761436Y-5007067D01*
X26788126Y-5061487D01*
X26789965Y-5060987D01*
X26792415Y-5069991D01*
X26837793Y-5172764D01*
X26837794Y-5172765D01*
X26917235Y-5252206D01*
X27020009Y-5297585D01*
X27045135Y-5300500D01*
X27166321Y-5300499D01*
X27233360Y-5320183D01*
X27279115Y-5372987D01*
X27289090Y-5432839D01*
X27289500Y-5432839D01*
X27289500Y-5435297D01*
X27289725Y-5436647D01*
X27289500Y-5438930D01*
X27289500Y-5438931D01*
X27289500Y-5567069D01*
X27289500Y-5567071D01*
X27289499Y-5567071D01*
X27314497Y-5692738D01*
X27314499Y-5692744D01*
X27363533Y-5811124D01*
X27363538Y-5811133D01*
X27434723Y-5917668D01*
X27434726Y-5917672D01*
X27525327Y-6008273D01*
X27525331Y-6008276D01*
X27631866Y-6079461D01*
X27631875Y-6079466D01*
X27645395Y-6085066D01*
X27750256Y-6128501D01*
X27750260Y-6128501D01*
X27750261Y-6128502D01*
X27875928Y-6153500D01*
X27875931Y-6153500D01*
X28004071Y-6153500D01*
X28100591Y-6134300D01*
X28129744Y-6128501D01*
X28248127Y-6079465D01*
X28354669Y-6008276D01*
X28445276Y-5917669D01*
X28516465Y-5811127D01*
X28565501Y-5692744D01*
X28584393Y-5597769D01*
X28590500Y-5567071D01*
X28590500Y-5438932D01*
X28590275Y-5436647D01*
X28590500Y-5435461D01*
X28590500Y-5432839D01*
X28590997Y-5432839D01*
X28603298Y-5368002D01*
X28651365Y-5317294D01*
X28713679Y-5300499D01*
X28834856Y-5300499D01*
X28834864Y-5300499D01*
X28834879Y-5300497D01*
X28834882Y-5300497D01*
X28859987Y-5297586D01*
X28859988Y-5297585D01*
X28859991Y-5297585D01*
X28962765Y-5252206D01*
X29042206Y-5172765D01*
X29087585Y-5069991D01*
X29087585Y-5069988D01*
X29090033Y-5060993D01*
X29093071Y-5061819D01*
X29114082Y-5012237D01*
X29171795Y-4972856D01*
X29241639Y-4970928D01*
X29301436Y-5007067D01*
X29328126Y-5061487D01*
X29329965Y-5060987D01*
X29332415Y-5069991D01*
X29377793Y-5172764D01*
X29457235Y-5252206D01*
X29520850Y-5280295D01*
X29574227Y-5325381D01*
X29594754Y-5392167D01*
X29592381Y-5417920D01*
X29585000Y-5455026D01*
X29585000Y-5455031D01*
X29585000Y-5583169D01*
X29585000Y-5583171D01*
X29584999Y-5583171D01*
X29609997Y-5708838D01*
X29609999Y-5708844D01*
X29659033Y-5827224D01*
X29659038Y-5827233D01*
X29730223Y-5933768D01*
X29730226Y-5933772D01*
X29820827Y-6024373D01*
X29820831Y-6024376D01*
X29927366Y-6095561D01*
X29927375Y-6095566D01*
X29945953Y-6103261D01*
X30045756Y-6144601D01*
X30045760Y-6144601D01*
X30045761Y-6144602D01*
X30171428Y-6169600D01*
X30171431Y-6169600D01*
X30299571Y-6169600D01*
X30384115Y-6152782D01*
X30425244Y-6144601D01*
X30543627Y-6095565D01*
X30650169Y-6024376D01*
X30740776Y-5933769D01*
X30811965Y-5827227D01*
X30861001Y-5708844D01*
X30881223Y-5607185D01*
X30886000Y-5583171D01*
X30886000Y-5455035D01*
X30886000Y-5455031D01*
X30885746Y-5453754D01*
X30885778Y-5452779D01*
X30885403Y-5448973D01*
X30885904Y-5448923D01*
X30886159Y-5441138D01*
X30883397Y-5432490D01*
X30887593Y-5397446D01*
X30888950Y-5392385D01*
X30925324Y-5332731D01*
X30988177Y-5302212D01*
X31008719Y-5300499D01*
X31374856Y-5300499D01*
X31374864Y-5300499D01*
X31374879Y-5300497D01*
X31374882Y-5300497D01*
X31399987Y-5297586D01*
X31399988Y-5297585D01*
X31399991Y-5297585D01*
X31502765Y-5252206D01*
X31582206Y-5172765D01*
X31627585Y-5069991D01*
X31627585Y-5069988D01*
X31630033Y-5060993D01*
X31633071Y-5061819D01*
X31654082Y-5012237D01*
X31711795Y-4972856D01*
X31781639Y-4970928D01*
X31841436Y-5007067D01*
X31868126Y-5061487D01*
X31869965Y-5060987D01*
X31872415Y-5069991D01*
X31917793Y-5172764D01*
X31917794Y-5172765D01*
X31997235Y-5252206D01*
X32100009Y-5297585D01*
X32125135Y-5300500D01*
X32253480Y-5300499D01*
X32320519Y-5320183D01*
X32366274Y-5372987D01*
X32376218Y-5442145D01*
X32375097Y-5448691D01*
X32369500Y-5476828D01*
X32369500Y-5476831D01*
X32369500Y-5604969D01*
X32369500Y-5604971D01*
X32369499Y-5604971D01*
X32394497Y-5730638D01*
X32394499Y-5730644D01*
X32443533Y-5849024D01*
X32443538Y-5849033D01*
X32514723Y-5955568D01*
X32514726Y-5955572D01*
X32605327Y-6046173D01*
X32605331Y-6046176D01*
X32711866Y-6117361D01*
X32711873Y-6117365D01*
X32830256Y-6166401D01*
X32830260Y-6166401D01*
X32830261Y-6166402D01*
X32955928Y-6191400D01*
X32955931Y-6191400D01*
X33084071Y-6191400D01*
X33168615Y-6174582D01*
X33209744Y-6166401D01*
X33328127Y-6117365D01*
X33434669Y-6046176D01*
X33525276Y-5955569D01*
X33596465Y-5849027D01*
X33645501Y-5730644D01*
X33658916Y-5663203D01*
X33670500Y-5604971D01*
X33670500Y-5476828D01*
X33664903Y-5448691D01*
X33671130Y-5379099D01*
X33713993Y-5323922D01*
X33779883Y-5300677D01*
X33786520Y-5300499D01*
X33914856Y-5300499D01*
X33914864Y-5300499D01*
X33914879Y-5300497D01*
X33914882Y-5300497D01*
X33939987Y-5297586D01*
X33939988Y-5297585D01*
X33939991Y-5297585D01*
X34042765Y-5252206D01*
X34122206Y-5172765D01*
X34167585Y-5069991D01*
X34167585Y-5069988D01*
X34170033Y-5060993D01*
X34173071Y-5061819D01*
X34194082Y-5012237D01*
X34251795Y-4972856D01*
X34321639Y-4970928D01*
X34381436Y-5007067D01*
X34408126Y-5061487D01*
X34409965Y-5060987D01*
X34412415Y-5069991D01*
X34457793Y-5172764D01*
X34457794Y-5172765D01*
X34537235Y-5252206D01*
X34640009Y-5297585D01*
X34665135Y-5300500D01*
X34788845Y-5300499D01*
X34855884Y-5320183D01*
X34901639Y-5372987D01*
X34911583Y-5442145D01*
X34910463Y-5448688D01*
X34909650Y-5452779D01*
X34909500Y-5453531D01*
X34909500Y-5581669D01*
X34909500Y-5581671D01*
X34909499Y-5581671D01*
X34934497Y-5707338D01*
X34934499Y-5707344D01*
X34983533Y-5825724D01*
X34983538Y-5825733D01*
X35054723Y-5932268D01*
X35054726Y-5932272D01*
X35145327Y-6022873D01*
X35145331Y-6022876D01*
X35251866Y-6094061D01*
X35251875Y-6094066D01*
X35269982Y-6101566D01*
X35370256Y-6143101D01*
X35370260Y-6143101D01*
X35370261Y-6143102D01*
X35495928Y-6168100D01*
X35495931Y-6168100D01*
X35624071Y-6168100D01*
X35712045Y-6150600D01*
X35749744Y-6143101D01*
X35868127Y-6094065D01*
X35974669Y-6022876D01*
X36065276Y-5932269D01*
X36136465Y-5825727D01*
X36185501Y-5707344D01*
X36201469Y-5627069D01*
X36210500Y-5581671D01*
X36210500Y-5453529D01*
X36209537Y-5448688D01*
X36215766Y-5379096D01*
X36258630Y-5323920D01*
X36324521Y-5300677D01*
X36331155Y-5300499D01*
X36454856Y-5300499D01*
X36454864Y-5300499D01*
X36454879Y-5300497D01*
X36454882Y-5300497D01*
X36479987Y-5297586D01*
X36479988Y-5297585D01*
X36479991Y-5297585D01*
X36582765Y-5252206D01*
X36662206Y-5172765D01*
X36707585Y-5069991D01*
X36707585Y-5069988D01*
X36710033Y-5060993D01*
X36713071Y-5061819D01*
X36734082Y-5012237D01*
X36791795Y-4972856D01*
X36861639Y-4970928D01*
X36921436Y-5007067D01*
X36948126Y-5061487D01*
X36949965Y-5060987D01*
X36952415Y-5069991D01*
X36997793Y-5172764D01*
X36997794Y-5172765D01*
X37077235Y-5252206D01*
X37180009Y-5297585D01*
X37205135Y-5300500D01*
X37334872Y-5300499D01*
X37401911Y-5320183D01*
X37447666Y-5372987D01*
X37457610Y-5442145D01*
X37456490Y-5448689D01*
X37451868Y-5471927D01*
X37449500Y-5483831D01*
X37449500Y-5611969D01*
X37449500Y-5611971D01*
X37449499Y-5611971D01*
X37474497Y-5737638D01*
X37474499Y-5737644D01*
X37523533Y-5856024D01*
X37523538Y-5856033D01*
X37594723Y-5962568D01*
X37594726Y-5962572D01*
X37685327Y-6053173D01*
X37685331Y-6053176D01*
X37791866Y-6124361D01*
X37791875Y-6124366D01*
X37815375Y-6134100D01*
X37910256Y-6173401D01*
X37910260Y-6173401D01*
X37910261Y-6173402D01*
X38035928Y-6198400D01*
X38035931Y-6198400D01*
X38164071Y-6198400D01*
X38248615Y-6181582D01*
X38289744Y-6173401D01*
X38408127Y-6124365D01*
X38514669Y-6053176D01*
X38605276Y-5962569D01*
X38676465Y-5856027D01*
X38725501Y-5737644D01*
X38747496Y-5627071D01*
X38750500Y-5611971D01*
X38750500Y-5483831D01*
X38743510Y-5448689D01*
X38749739Y-5379098D01*
X38792602Y-5323921D01*
X38858492Y-5300677D01*
X38865128Y-5300499D01*
X38994856Y-5300499D01*
X38994864Y-5300499D01*
X38994879Y-5300497D01*
X38994882Y-5300497D01*
X39019987Y-5297586D01*
X39019988Y-5297585D01*
X39019991Y-5297585D01*
X39122765Y-5252206D01*
X39202206Y-5172765D01*
X39247585Y-5069991D01*
X39247585Y-5069988D01*
X39250033Y-5060993D01*
X39253071Y-5061819D01*
X39274082Y-5012237D01*
X39331795Y-4972856D01*
X39401639Y-4970928D01*
X39461436Y-5007067D01*
X39488126Y-5061487D01*
X39489965Y-5060987D01*
X39492415Y-5069991D01*
X39537793Y-5172764D01*
X39537794Y-5172765D01*
X39617235Y-5252206D01*
X39671230Y-5276047D01*
X39724604Y-5321131D01*
X39745132Y-5387917D01*
X39742760Y-5413669D01*
X39737096Y-5442146D01*
X39737000Y-5442631D01*
X39737000Y-5570769D01*
X39737000Y-5570771D01*
X39736999Y-5570771D01*
X39761997Y-5696438D01*
X39761999Y-5696444D01*
X39811033Y-5814824D01*
X39811038Y-5814833D01*
X39882223Y-5921368D01*
X39882226Y-5921372D01*
X39972827Y-6011973D01*
X39972831Y-6011976D01*
X40079366Y-6083161D01*
X40079375Y-6083166D01*
X40097711Y-6090761D01*
X40197756Y-6132201D01*
X40197760Y-6132201D01*
X40197761Y-6132202D01*
X40323428Y-6157200D01*
X40323431Y-6157200D01*
X40451571Y-6157200D01*
X40540726Y-6139465D01*
X40577244Y-6132201D01*
X40695627Y-6083165D01*
X40802169Y-6011976D01*
X40892776Y-5921369D01*
X40963965Y-5814827D01*
X41013001Y-5696444D01*
X41032629Y-5597769D01*
X41038000Y-5570771D01*
X41038000Y-5441674D01*
X41042225Y-5409581D01*
X41044990Y-5399264D01*
X41046827Y-5392405D01*
X41083192Y-5332745D01*
X41146039Y-5302216D01*
X41166602Y-5300499D01*
X41534856Y-5300499D01*
X41534864Y-5300499D01*
X41534879Y-5300497D01*
X41534882Y-5300497D01*
X41559987Y-5297586D01*
X41559988Y-5297585D01*
X41559991Y-5297585D01*
X41662765Y-5252206D01*
X41742206Y-5172765D01*
X41787585Y-5069991D01*
X41787585Y-5069988D01*
X41790033Y-5060993D01*
X41793071Y-5061819D01*
X41814082Y-5012237D01*
X41871795Y-4972856D01*
X41941639Y-4970928D01*
X42001436Y-5007067D01*
X42028126Y-5061487D01*
X42029965Y-5060987D01*
X42032415Y-5069991D01*
X42077793Y-5172764D01*
X42077794Y-5172765D01*
X42157235Y-5252206D01*
X42260009Y-5297585D01*
X42285135Y-5300500D01*
X42653398Y-5300499D01*
X42720437Y-5320183D01*
X42766192Y-5372987D01*
X42773170Y-5392399D01*
X42783497Y-5430937D01*
X42783498Y-5430938D01*
X42783498Y-5430939D01*
X42796542Y-5453531D01*
X42839515Y-5527963D01*
X42918737Y-5607185D01*
X43015763Y-5663203D01*
X43070794Y-5677948D01*
X43130453Y-5714311D01*
X43160983Y-5777157D01*
X43162700Y-5797722D01*
X43162700Y-5838869D01*
X43162700Y-5838871D01*
X43162699Y-5838871D01*
X43187697Y-5964538D01*
X43187699Y-5964544D01*
X43236733Y-6082924D01*
X43236738Y-6082933D01*
X43307923Y-6189468D01*
X43307926Y-6189472D01*
X43398527Y-6280073D01*
X43398531Y-6280076D01*
X43505066Y-6351261D01*
X43505072Y-6351264D01*
X43505073Y-6351265D01*
X43623456Y-6400301D01*
X43623460Y-6400301D01*
X43623461Y-6400302D01*
X43749128Y-6425300D01*
X43749131Y-6425300D01*
X43877271Y-6425300D01*
X43961815Y-6408482D01*
X44002944Y-6400301D01*
X44121327Y-6351265D01*
X44227869Y-6280076D01*
X44318476Y-6189469D01*
X44389665Y-6082927D01*
X44438701Y-5964544D01*
X44457234Y-5871376D01*
X44463700Y-5838871D01*
X44463700Y-5710728D01*
X44438702Y-5585061D01*
X44438701Y-5585060D01*
X44438701Y-5585056D01*
X44400774Y-5493492D01*
X44389666Y-5466675D01*
X44389661Y-5466666D01*
X44318476Y-5360131D01*
X44318473Y-5360127D01*
X44293590Y-5335244D01*
X44260105Y-5273921D01*
X44265089Y-5204229D01*
X44267709Y-5197767D01*
X44275912Y-5179058D01*
X44282206Y-5172765D01*
X44327585Y-5069991D01*
X44328969Y-5058058D01*
X44336437Y-5041028D01*
X44347420Y-5027957D01*
X44354082Y-5012237D01*
X44369431Y-5001762D01*
X44381386Y-4987537D01*
X44397692Y-4982479D01*
X44411795Y-4972856D01*
X44430370Y-4972343D01*
X44448119Y-4966838D01*
X44464571Y-4971399D01*
X44481639Y-4970928D01*
X44497543Y-4980540D01*
X44515449Y-4985504D01*
X44526823Y-4998235D01*
X44541436Y-5007067D01*
X44549619Y-5023751D01*
X44561999Y-5037609D01*
X44564684Y-5054468D01*
X44568126Y-5061487D01*
X44569965Y-5060987D01*
X44572415Y-5069991D01*
X44617793Y-5172764D01*
X44617794Y-5172765D01*
X44697235Y-5252206D01*
X44800009Y-5297585D01*
X44825135Y-5300500D01*
X44974484Y-5300499D01*
X45041523Y-5320183D01*
X45087278Y-5372987D01*
X45096856Y-5430439D01*
X45097900Y-5430439D01*
X45097900Y-5436531D01*
X45097900Y-5564669D01*
X45097900Y-5564671D01*
X45097899Y-5564671D01*
X45122897Y-5690338D01*
X45122899Y-5690344D01*
X45171933Y-5808724D01*
X45171938Y-5808733D01*
X45243123Y-5915268D01*
X45243126Y-5915272D01*
X45333727Y-6005873D01*
X45333731Y-6005876D01*
X45440266Y-6077061D01*
X45440275Y-6077066D01*
X45455002Y-6083166D01*
X45558656Y-6126101D01*
X45558660Y-6126101D01*
X45558661Y-6126102D01*
X45684328Y-6151100D01*
X45684331Y-6151100D01*
X45812471Y-6151100D01*
X45914521Y-6130800D01*
X45938144Y-6126101D01*
X46056527Y-6077065D01*
X46163069Y-6005876D01*
X46253676Y-5915269D01*
X46324865Y-5808727D01*
X46373901Y-5690344D01*
X46390443Y-5607185D01*
X46398900Y-5564671D01*
X46398900Y-5430439D01*
X46400090Y-5430439D01*
X46411931Y-5368006D01*
X46459996Y-5317296D01*
X46522315Y-5300499D01*
X46614856Y-5300499D01*
X46614864Y-5300499D01*
X46614879Y-5300497D01*
X46614882Y-5300497D01*
X46639987Y-5297586D01*
X46639988Y-5297585D01*
X46639991Y-5297585D01*
X46742765Y-5252206D01*
X46822206Y-5172765D01*
X46867585Y-5069991D01*
X46867585Y-5069988D01*
X46870033Y-5060993D01*
X46873071Y-5061819D01*
X46894082Y-5012237D01*
X46951795Y-4972856D01*
X47021639Y-4970928D01*
X47081436Y-5007067D01*
X47108126Y-5061487D01*
X47109965Y-5060987D01*
X47112415Y-5069991D01*
X47157793Y-5172764D01*
X47157794Y-5172765D01*
X47237235Y-5252206D01*
X47340009Y-5297585D01*
X47365135Y-5300500D01*
X47492047Y-5300499D01*
X47559086Y-5320183D01*
X47604841Y-5372987D01*
X47614785Y-5442145D01*
X47613665Y-5448687D01*
X47609500Y-5469628D01*
X47609500Y-5469631D01*
X47609500Y-5597769D01*
X47609500Y-5597771D01*
X47609499Y-5597771D01*
X47634497Y-5723438D01*
X47634499Y-5723444D01*
X47683533Y-5841824D01*
X47683538Y-5841833D01*
X47754723Y-5948368D01*
X47754726Y-5948372D01*
X47845327Y-6038973D01*
X47845331Y-6038976D01*
X47951866Y-6110161D01*
X47951875Y-6110166D01*
X47969255Y-6117365D01*
X48070256Y-6159201D01*
X48070260Y-6159201D01*
X48070261Y-6159202D01*
X48195928Y-6184200D01*
X48195931Y-6184200D01*
X48324071Y-6184200D01*
X48413553Y-6166400D01*
X48449744Y-6159201D01*
X48568127Y-6110165D01*
X48674669Y-6038976D01*
X48765276Y-5948369D01*
X48836465Y-5841827D01*
X48885501Y-5723444D01*
X48902864Y-5636156D01*
X48910500Y-5597771D01*
X48910500Y-5469628D01*
X48906335Y-5448691D01*
X48912562Y-5379100D01*
X48955424Y-5323922D01*
X49021314Y-5300677D01*
X49027952Y-5300499D01*
X49154856Y-5300499D01*
X49154864Y-5300499D01*
X49154879Y-5300497D01*
X49154882Y-5300497D01*
X49179987Y-5297586D01*
X49179988Y-5297585D01*
X49179991Y-5297585D01*
X49282765Y-5252206D01*
X49362206Y-5172765D01*
X49407585Y-5069991D01*
X49407585Y-5069988D01*
X49410033Y-5060993D01*
X49413071Y-5061819D01*
X49434082Y-5012237D01*
X49491795Y-4972856D01*
X49561639Y-4970928D01*
X49621436Y-5007067D01*
X49648126Y-5061487D01*
X49649965Y-5060987D01*
X49652415Y-5069991D01*
X49697793Y-5172764D01*
X49697794Y-5172765D01*
X49777235Y-5252206D01*
X49840851Y-5280295D01*
X49888542Y-5301353D01*
X49887092Y-5304636D01*
X49931654Y-5332017D01*
X49961959Y-5394973D01*
X49961222Y-5439282D01*
X49960000Y-5445426D01*
X49960000Y-5445431D01*
X49960000Y-5573569D01*
X49960000Y-5573571D01*
X49959999Y-5573571D01*
X49984997Y-5699238D01*
X49984999Y-5699244D01*
X50034033Y-5817624D01*
X50034038Y-5817633D01*
X50105223Y-5924168D01*
X50105226Y-5924172D01*
X50195827Y-6014773D01*
X50195831Y-6014776D01*
X50302366Y-6085961D01*
X50302375Y-6085966D01*
X50321918Y-6094061D01*
X50420756Y-6135001D01*
X50420760Y-6135001D01*
X50420761Y-6135002D01*
X50546428Y-6160000D01*
X50546431Y-6160000D01*
X50674571Y-6160000D01*
X50776118Y-6139800D01*
X50800244Y-6135001D01*
X50918627Y-6085965D01*
X51025169Y-6014776D01*
X51115776Y-5924169D01*
X51186965Y-5817627D01*
X51236001Y-5699244D01*
X51248551Y-5636155D01*
X51261000Y-5573571D01*
X51261000Y-5445428D01*
X51260403Y-5439366D01*
X51262500Y-5439159D01*
X51267877Y-5379097D01*
X51310741Y-5323920D01*
X51376631Y-5300677D01*
X51383266Y-5300499D01*
X51694856Y-5300499D01*
X51694864Y-5300499D01*
X51694879Y-5300497D01*
X51694882Y-5300497D01*
X51719987Y-5297586D01*
X51719988Y-5297585D01*
X51719991Y-5297585D01*
X51822765Y-5252206D01*
X51902206Y-5172765D01*
X51947585Y-5069991D01*
X51947585Y-5069988D01*
X51950033Y-5060993D01*
X51953071Y-5061819D01*
X51974082Y-5012237D01*
X52031795Y-4972856D01*
X52101639Y-4970928D01*
X52161436Y-5007067D01*
X52188126Y-5061487D01*
X52189965Y-5060987D01*
X52192415Y-5069991D01*
X52237793Y-5172764D01*
X52237794Y-5172765D01*
X52317235Y-5252206D01*
X52420009Y-5297585D01*
X52445135Y-5300500D01*
X52567094Y-5300499D01*
X52634133Y-5320183D01*
X52679888Y-5372987D01*
X52689320Y-5438589D01*
X52690097Y-5438666D01*
X52689785Y-5441824D01*
X52689832Y-5442145D01*
X52689649Y-5443215D01*
X52689500Y-5444728D01*
X52689500Y-5444731D01*
X52689500Y-5572869D01*
X52689500Y-5572871D01*
X52689499Y-5572871D01*
X52714497Y-5698538D01*
X52714499Y-5698544D01*
X52763533Y-5816924D01*
X52763538Y-5816933D01*
X52834723Y-5923468D01*
X52834726Y-5923472D01*
X52925327Y-6014073D01*
X52925331Y-6014076D01*
X53031866Y-6085261D01*
X53031875Y-6085266D01*
X53053108Y-6094061D01*
X53150256Y-6134301D01*
X53150260Y-6134301D01*
X53150261Y-6134302D01*
X53275928Y-6159300D01*
X53275931Y-6159300D01*
X53404071Y-6159300D01*
X53502099Y-6139800D01*
X53529744Y-6134301D01*
X53648127Y-6085265D01*
X53754669Y-6014076D01*
X53845276Y-5923469D01*
X53916465Y-5816927D01*
X53965501Y-5698544D01*
X53973682Y-5657415D01*
X53990500Y-5572871D01*
X53990500Y-5444728D01*
X53989903Y-5438666D01*
X53992207Y-5438439D01*
X53997511Y-5379109D01*
X54040369Y-5323928D01*
X54106257Y-5300677D01*
X54112905Y-5300499D01*
X54234856Y-5300499D01*
X54234864Y-5300499D01*
X54234879Y-5300497D01*
X54234882Y-5300497D01*
X54259987Y-5297586D01*
X54259988Y-5297585D01*
X54259991Y-5297585D01*
X54362765Y-5252206D01*
X54442206Y-5172765D01*
X54487585Y-5069991D01*
X54487585Y-5069988D01*
X54490033Y-5060993D01*
X54493071Y-5061819D01*
X54514082Y-5012237D01*
X54571795Y-4972856D01*
X54641639Y-4970928D01*
X54701436Y-5007067D01*
X54728126Y-5061487D01*
X54729965Y-5060987D01*
X54732415Y-5069991D01*
X54777793Y-5172764D01*
X54777794Y-5172765D01*
X54857235Y-5252206D01*
X54960009Y-5297585D01*
X54985135Y-5300500D01*
X55203122Y-5300499D01*
X55270161Y-5320183D01*
X55315916Y-5372987D01*
X55325860Y-5442145D01*
X55324742Y-5448677D01*
X55323200Y-5456431D01*
X55323200Y-5584569D01*
X55323200Y-5584571D01*
X55323199Y-5584571D01*
X55348197Y-5710238D01*
X55348199Y-5710244D01*
X55397233Y-5828624D01*
X55397238Y-5828633D01*
X55468423Y-5935168D01*
X55468426Y-5935172D01*
X55559027Y-6025773D01*
X55559031Y-6025776D01*
X55665566Y-6096961D01*
X55665575Y-6096966D01*
X55676678Y-6101565D01*
X55783956Y-6146001D01*
X55783960Y-6146001D01*
X55783961Y-6146002D01*
X55909628Y-6171000D01*
X55909631Y-6171000D01*
X56037771Y-6171000D01*
X56125745Y-6153500D01*
X56163444Y-6146001D01*
X56281827Y-6096965D01*
X56388369Y-6025776D01*
X56478976Y-5935169D01*
X56550165Y-5828627D01*
X56599201Y-5710244D01*
X56608558Y-5663203D01*
X56624200Y-5584571D01*
X56624200Y-5456431D01*
X56622660Y-5448689D01*
X56628888Y-5379098D01*
X56671752Y-5323921D01*
X56737642Y-5300677D01*
X56744278Y-5300499D01*
X56774856Y-5300499D01*
X56774864Y-5300499D01*
X56774879Y-5300497D01*
X56774882Y-5300497D01*
X56799987Y-5297586D01*
X56799988Y-5297585D01*
X56799991Y-5297585D01*
X56902765Y-5252206D01*
X56982206Y-5172765D01*
X57027585Y-5069991D01*
X57027585Y-5069988D01*
X57030033Y-5060993D01*
X57033071Y-5061819D01*
X57054082Y-5012237D01*
X57111795Y-4972856D01*
X57181639Y-4970928D01*
X57241436Y-5007067D01*
X57268126Y-5061487D01*
X57269965Y-5060987D01*
X57272415Y-5069991D01*
X57317793Y-5172764D01*
X57317794Y-5172765D01*
X57397235Y-5252206D01*
X57500009Y-5297585D01*
X57525135Y-5300500D01*
X57649223Y-5300499D01*
X57716262Y-5320183D01*
X57762017Y-5372987D01*
X57771961Y-5442145D01*
X57770841Y-5448689D01*
X57769878Y-5453529D01*
X57769500Y-5455431D01*
X57769500Y-5583569D01*
X57769500Y-5583571D01*
X57769499Y-5583571D01*
X57794497Y-5709238D01*
X57794499Y-5709244D01*
X57843533Y-5827624D01*
X57843538Y-5827633D01*
X57914723Y-5934168D01*
X57914726Y-5934172D01*
X58005327Y-6024773D01*
X58005331Y-6024776D01*
X58111866Y-6095961D01*
X58111875Y-6095966D01*
X58125395Y-6101566D01*
X58230256Y-6145001D01*
X58230260Y-6145001D01*
X58230261Y-6145002D01*
X58355928Y-6170000D01*
X58355931Y-6170000D01*
X58484071Y-6170000D01*
X58579083Y-6151100D01*
X58609744Y-6145001D01*
X58728127Y-6095965D01*
X58834669Y-6024776D01*
X58925276Y-5934169D01*
X58996465Y-5827627D01*
X59045501Y-5709244D01*
X59058392Y-5644437D01*
X59070500Y-5583571D01*
X59070500Y-5455431D01*
X59069159Y-5448689D01*
X59075388Y-5379097D01*
X59118252Y-5323920D01*
X59184142Y-5300677D01*
X59190777Y-5300499D01*
X59314856Y-5300499D01*
X59314864Y-5300499D01*
X59314879Y-5300497D01*
X59314882Y-5300497D01*
X59339987Y-5297586D01*
X59339988Y-5297585D01*
X59339991Y-5297585D01*
X59442765Y-5252206D01*
X59522206Y-5172765D01*
X59567585Y-5069991D01*
X59567585Y-5069988D01*
X59570033Y-5060993D01*
X59573071Y-5061819D01*
X59594082Y-5012237D01*
X59651795Y-4972856D01*
X59721639Y-4970928D01*
X59781436Y-5007067D01*
X59808126Y-5061487D01*
X59809965Y-5060987D01*
X59812415Y-5069991D01*
X59857793Y-5172764D01*
X59857794Y-5172765D01*
X59937235Y-5252206D01*
X60040009Y-5297585D01*
X60040014Y-5297585D01*
X60041837Y-5298082D01*
X60043628Y-5299183D01*
X60048542Y-5301353D01*
X60048246Y-5302022D01*
X60101357Y-5334676D01*
X60131644Y-5397640D01*
X60130900Y-5441925D01*
X60127100Y-5461028D01*
X60127100Y-5461031D01*
X60127100Y-5589169D01*
X60127100Y-5589171D01*
X60127099Y-5589171D01*
X60152097Y-5714838D01*
X60152099Y-5714844D01*
X60201133Y-5833224D01*
X60201138Y-5833233D01*
X60272323Y-5939768D01*
X60272326Y-5939772D01*
X60362927Y-6030373D01*
X60362931Y-6030376D01*
X60469466Y-6101561D01*
X60469475Y-6101566D01*
X60496292Y-6112674D01*
X60587856Y-6150601D01*
X60587860Y-6150601D01*
X60587861Y-6150602D01*
X60713528Y-6175600D01*
X60713531Y-6175600D01*
X60841671Y-6175600D01*
X60926215Y-6158782D01*
X60967344Y-6150601D01*
X61085727Y-6101565D01*
X61192269Y-6030376D01*
X61282876Y-5939769D01*
X61354065Y-5833227D01*
X61403101Y-5714844D01*
X61417106Y-5644437D01*
X61428100Y-5589171D01*
X61428100Y-5461028D01*
X61428099Y-5461026D01*
X61425646Y-5448690D01*
X61431873Y-5379098D01*
X61474737Y-5323921D01*
X61540627Y-5300677D01*
X61547263Y-5300499D01*
X61854856Y-5300499D01*
X61854864Y-5300499D01*
X61854879Y-5300497D01*
X61854882Y-5300497D01*
X61879987Y-5297586D01*
X61879988Y-5297585D01*
X61879991Y-5297585D01*
X61982765Y-5252206D01*
X62062206Y-5172765D01*
X62107585Y-5069991D01*
X62107585Y-5069988D01*
X62110033Y-5060993D01*
X62113071Y-5061819D01*
X62134082Y-5012237D01*
X62191795Y-4972856D01*
X62261639Y-4970928D01*
X62321436Y-5007067D01*
X62348126Y-5061487D01*
X62349965Y-5060987D01*
X62352415Y-5069991D01*
X62397793Y-5172764D01*
X62397794Y-5172765D01*
X62477235Y-5252206D01*
X62580009Y-5297585D01*
X62605135Y-5300500D01*
X62729342Y-5300499D01*
X62796381Y-5320183D01*
X62842136Y-5372987D01*
X62852080Y-5442145D01*
X62850960Y-5448686D01*
X62849500Y-5456026D01*
X62849500Y-5456031D01*
X62849500Y-5584169D01*
X62849500Y-5584171D01*
X62849499Y-5584171D01*
X62874497Y-5709838D01*
X62874499Y-5709844D01*
X62923533Y-5828224D01*
X62923538Y-5828233D01*
X62994723Y-5934768D01*
X62994726Y-5934772D01*
X63085327Y-6025373D01*
X63085331Y-6025376D01*
X63191866Y-6096561D01*
X63191875Y-6096566D01*
X63218692Y-6107674D01*
X63310256Y-6145601D01*
X63310260Y-6145601D01*
X63310261Y-6145602D01*
X63435928Y-6170600D01*
X63435931Y-6170600D01*
X63564071Y-6170600D01*
X63664613Y-6150600D01*
X63689744Y-6145601D01*
X63808127Y-6096565D01*
X63914669Y-6025376D01*
X64005276Y-5934769D01*
X64076465Y-5828227D01*
X64125501Y-5709844D01*
X64141966Y-5627071D01*
X64150500Y-5584171D01*
X64150500Y-5456032D01*
X64150499Y-5456026D01*
X64149040Y-5448689D01*
X64155266Y-5379103D01*
X64198127Y-5323924D01*
X64264016Y-5300677D01*
X64270657Y-5300499D01*
X64394856Y-5300499D01*
X64394864Y-5300499D01*
X64394879Y-5300497D01*
X64394882Y-5300497D01*
X64419987Y-5297586D01*
X64419988Y-5297585D01*
X64419991Y-5297585D01*
X64522765Y-5252206D01*
X64602206Y-5172765D01*
X64647585Y-5069991D01*
X64647585Y-5069988D01*
X64650033Y-5060993D01*
X64653071Y-5061819D01*
X64674082Y-5012237D01*
X64731795Y-4972856D01*
X64801639Y-4970928D01*
X64861436Y-5007067D01*
X64888126Y-5061487D01*
X64889965Y-5060987D01*
X64892415Y-5069991D01*
X64937793Y-5172764D01*
X64937794Y-5172765D01*
X65017235Y-5252206D01*
X65120009Y-5297585D01*
X65145135Y-5300500D01*
X65405166Y-5300499D01*
X65472204Y-5320183D01*
X65517959Y-5372987D01*
X65527903Y-5442146D01*
X65526783Y-5448689D01*
X65526727Y-5448973D01*
X65525800Y-5453631D01*
X65525800Y-5581769D01*
X65525800Y-5581771D01*
X65525799Y-5581771D01*
X65550797Y-5707438D01*
X65550799Y-5707444D01*
X65599833Y-5825824D01*
X65599838Y-5825833D01*
X65671023Y-5932368D01*
X65671026Y-5932372D01*
X65761627Y-6022973D01*
X65761631Y-6022976D01*
X65868166Y-6094161D01*
X65868175Y-6094166D01*
X65890133Y-6103261D01*
X65986556Y-6143201D01*
X65986560Y-6143201D01*
X65986561Y-6143202D01*
X66112228Y-6168200D01*
X66112231Y-6168200D01*
X66240371Y-6168200D01*
X66328848Y-6150600D01*
X66366044Y-6143201D01*
X66484427Y-6094165D01*
X66590969Y-6022976D01*
X66681576Y-5932369D01*
X66752765Y-5825827D01*
X66801801Y-5707444D01*
X66814334Y-5644437D01*
X66826800Y-5581771D01*
X66826800Y-5453629D01*
X66825817Y-5448688D01*
X66825697Y-5448086D01*
X66831919Y-5378495D01*
X66874777Y-5323314D01*
X66933029Y-5300711D01*
X66934857Y-5300499D01*
X66934864Y-5300499D01*
X66959991Y-5297585D01*
X67062765Y-5252206D01*
X67142206Y-5172765D01*
X67187585Y-5069991D01*
X67187585Y-5069988D01*
X67190033Y-5060993D01*
X67193071Y-5061819D01*
X67214082Y-5012237D01*
X67271795Y-4972856D01*
X67341639Y-4970928D01*
X67401436Y-5007067D01*
X67428126Y-5061487D01*
X67429965Y-5060987D01*
X67432415Y-5069991D01*
X67477793Y-5172764D01*
X67477794Y-5172765D01*
X67557235Y-5252206D01*
X67660009Y-5297585D01*
X67685135Y-5300500D01*
X67806547Y-5300499D01*
X67873586Y-5320183D01*
X67919341Y-5372987D01*
X67929951Y-5436642D01*
X67929500Y-5441225D01*
X67929500Y-5441231D01*
X67929500Y-5569369D01*
X67929500Y-5569371D01*
X67929499Y-5569371D01*
X67954497Y-5695038D01*
X67954499Y-5695044D01*
X68003533Y-5813424D01*
X68003538Y-5813433D01*
X68074723Y-5919968D01*
X68074726Y-5919972D01*
X68165327Y-6010573D01*
X68165331Y-6010576D01*
X68271866Y-6081761D01*
X68271875Y-6081766D01*
X68282015Y-6085966D01*
X68390256Y-6130801D01*
X68390260Y-6130801D01*
X68390261Y-6130802D01*
X68515928Y-6155800D01*
X68515931Y-6155800D01*
X68644071Y-6155800D01*
X68728615Y-6138982D01*
X68769744Y-6130801D01*
X68888127Y-6081765D01*
X68994669Y-6010576D01*
X69085276Y-5919969D01*
X69156465Y-5813427D01*
X69205501Y-5695044D01*
X69219022Y-5627071D01*
X69230500Y-5569371D01*
X69230500Y-5441232D01*
X69230049Y-5436654D01*
X69243068Y-5368008D01*
X69291132Y-5317297D01*
X69353452Y-5300499D01*
X69474856Y-5300499D01*
X69474864Y-5300499D01*
X69474879Y-5300497D01*
X69474882Y-5300497D01*
X69499987Y-5297586D01*
X69499988Y-5297585D01*
X69499991Y-5297585D01*
X69602765Y-5252206D01*
X69682206Y-5172765D01*
X69727585Y-5069991D01*
X69727585Y-5069988D01*
X69730033Y-5060993D01*
X69733071Y-5061819D01*
X69754082Y-5012237D01*
X69811795Y-4972856D01*
X69881639Y-4970928D01*
X69941436Y-5007067D01*
X69968126Y-5061487D01*
X69969965Y-5060987D01*
X69972415Y-5069991D01*
X70017793Y-5172764D01*
X70017794Y-5172765D01*
X70097235Y-5252206D01*
X70200009Y-5297585D01*
X70220732Y-5299989D01*
X70285057Y-5327268D01*
X70324422Y-5384993D01*
X70327449Y-5435334D01*
X70329797Y-5435566D01*
X70329200Y-5441628D01*
X70329200Y-5441631D01*
X70329200Y-5569769D01*
X70329200Y-5569771D01*
X70329199Y-5569771D01*
X70354197Y-5695438D01*
X70354199Y-5695444D01*
X70403233Y-5813824D01*
X70403238Y-5813833D01*
X70474423Y-5920368D01*
X70474426Y-5920372D01*
X70565027Y-6010973D01*
X70565031Y-6010976D01*
X70671566Y-6082161D01*
X70671575Y-6082166D01*
X70698392Y-6093274D01*
X70789956Y-6131201D01*
X70789960Y-6131201D01*
X70789961Y-6131202D01*
X70915628Y-6156200D01*
X70915631Y-6156200D01*
X71043771Y-6156200D01*
X71128315Y-6139382D01*
X71169444Y-6131201D01*
X71287827Y-6082165D01*
X71394369Y-6010976D01*
X71484976Y-5920369D01*
X71556165Y-5813827D01*
X71605201Y-5695444D01*
X71615347Y-5644436D01*
X71630200Y-5569771D01*
X71630200Y-5441625D01*
X71629710Y-5436649D01*
X71642731Y-5368004D01*
X71690797Y-5317295D01*
X71753113Y-5300499D01*
X72014856Y-5300499D01*
X72014864Y-5300499D01*
X72014879Y-5300497D01*
X72014882Y-5300497D01*
X72039987Y-5297586D01*
X72039988Y-5297585D01*
X72039991Y-5297585D01*
X72142765Y-5252206D01*
X72222206Y-5172765D01*
X72267585Y-5069991D01*
X72267585Y-5069988D01*
X72270033Y-5060993D01*
X72273071Y-5061819D01*
X72294082Y-5012237D01*
X72351795Y-4972856D01*
X72421639Y-4970928D01*
X72481436Y-5007067D01*
X72508126Y-5061487D01*
X72509965Y-5060987D01*
X72512415Y-5069991D01*
X72557793Y-5172764D01*
X72557794Y-5172765D01*
X72637235Y-5252206D01*
X72740009Y-5297585D01*
X72765135Y-5300500D01*
X72891610Y-5300499D01*
X72958649Y-5320183D01*
X73004404Y-5372987D01*
X73014348Y-5442145D01*
X73013227Y-5448690D01*
X73009500Y-5467426D01*
X73009500Y-5467431D01*
X73009500Y-5595569D01*
X73009500Y-5595571D01*
X73009499Y-5595571D01*
X73034497Y-5721238D01*
X73034499Y-5721244D01*
X73083533Y-5839624D01*
X73083538Y-5839633D01*
X73154723Y-5946168D01*
X73154726Y-5946172D01*
X73245327Y-6036773D01*
X73245331Y-6036776D01*
X73351866Y-6107961D01*
X73351875Y-6107966D01*
X73378692Y-6119074D01*
X73470256Y-6157001D01*
X73470260Y-6157001D01*
X73470261Y-6157002D01*
X73595928Y-6182000D01*
X73595931Y-6182000D01*
X73724071Y-6182000D01*
X73838186Y-6159300D01*
X73849744Y-6157001D01*
X73968127Y-6107965D01*
X74074669Y-6036776D01*
X74165276Y-5946169D01*
X74236465Y-5839627D01*
X74285501Y-5721244D01*
X74300779Y-5644437D01*
X74310500Y-5595571D01*
X74310500Y-5467428D01*
X74310499Y-5467426D01*
X74306773Y-5448690D01*
X74313000Y-5379098D01*
X74355864Y-5323921D01*
X74421754Y-5300677D01*
X74428390Y-5300499D01*
X74554856Y-5300499D01*
X74554864Y-5300499D01*
X74554879Y-5300497D01*
X74554882Y-5300497D01*
X74579987Y-5297586D01*
X74579988Y-5297585D01*
X74579991Y-5297585D01*
X74682765Y-5252206D01*
X74762206Y-5172765D01*
X74807585Y-5069991D01*
X74810500Y-5044865D01*
X74810499Y-424499D01*
X74830184Y-357461D01*
X74882988Y-311706D01*
X74934499Y-300500D01*
X78315500Y-300500D01*
X78382539Y-320185D01*
X78428294Y-372989D01*
X78439500Y-424500D01*
X78439500Y-35876000D01*
X78419815Y-35943039D01*
X78367011Y-35988794D01*
X78315500Y-36000000D01*
X424500Y-36000000D01*
X357461Y-35980315D01*
X311706Y-35927511D01*
X300500Y-35876000D01*
X300500Y-19913389D01*
X4899500Y-19913389D01*
X4899500Y-20086611D01*
X4926598Y-20257701D01*
X4980127Y-20422445D01*
X5058768Y-20576788D01*
X5160586Y-20716928D01*
X5283072Y-20839414D01*
X5423212Y-20941232D01*
X5577555Y-21019873D01*
X5742299Y-21073402D01*
X5913389Y-21100500D01*
X5913390Y-21100500D01*
X6086610Y-21100500D01*
X6086611Y-21100500D01*
X6257701Y-21073402D01*
X6422445Y-21019873D01*
X6576788Y-20941232D01*
X6716928Y-20839414D01*
X6839414Y-20716928D01*
X6941232Y-20576788D01*
X7019873Y-20422445D01*
X7073402Y-20257701D01*
X7100500Y-20086611D01*
X7100500Y-19913389D01*
X7099259Y-19905552D01*
X9800000Y-19905552D01*
X9800000Y-20094447D01*
X9829548Y-20281002D01*
X9887914Y-20460637D01*
X9973666Y-20628933D01*
X9992116Y-20654328D01*
X10600000Y-20046445D01*
X10600000Y-20052661D01*
X10627259Y-20154394D01*
X10679920Y-20245606D01*
X10754394Y-20320080D01*
X10845606Y-20372741D01*
X10947339Y-20400000D01*
X10953554Y-20400000D01*
X10345669Y-21007882D01*
X10345670Y-21007883D01*
X10371059Y-21026329D01*
X10539362Y-21112085D01*
X10718997Y-21170451D01*
X10905553Y-21200000D01*
X11094447Y-21200000D01*
X11281002Y-21170451D01*
X11460637Y-21112085D01*
X11628937Y-21026331D01*
X11654328Y-21007883D01*
X11654328Y-21007882D01*
X11046447Y-20400000D01*
X11052661Y-20400000D01*
X11154394Y-20372741D01*
X11245606Y-20320080D01*
X11320080Y-20245606D01*
X11372741Y-20154394D01*
X11400000Y-20052661D01*
X11400000Y-20046446D01*
X12007882Y-20654328D01*
X12007883Y-20654328D01*
X12026331Y-20628937D01*
X12112085Y-20460637D01*
X12170451Y-20281002D01*
X12200000Y-20094447D01*
X12200000Y-19905552D01*
X12170451Y-19718997D01*
X12112085Y-19539362D01*
X12026329Y-19371059D01*
X12007883Y-19345670D01*
X12007882Y-19345669D01*
X11400000Y-19953552D01*
X11400000Y-19947339D01*
X11372741Y-19845606D01*
X11320080Y-19754394D01*
X11245606Y-19679920D01*
X11154394Y-19627259D01*
X11052661Y-19600000D01*
X11046447Y-19600000D01*
X11654328Y-18992116D01*
X11628933Y-18973666D01*
X11460637Y-18887914D01*
X11281002Y-18829548D01*
X11094447Y-18800000D01*
X10905553Y-18800000D01*
X10718997Y-18829548D01*
X10539362Y-18887914D01*
X10371060Y-18973669D01*
X10345670Y-18992116D01*
X10345669Y-18992116D01*
X10953554Y-19600000D01*
X10947339Y-19600000D01*
X10845606Y-19627259D01*
X10754394Y-19679920D01*
X10679920Y-19754394D01*
X10627259Y-19845606D01*
X10600000Y-19947339D01*
X10600000Y-19953553D01*
X9992116Y-19345669D01*
X9992116Y-19345670D01*
X9973669Y-19371060D01*
X9887914Y-19539362D01*
X9829548Y-19718997D01*
X9800000Y-19905552D01*
X7099259Y-19905552D01*
X7073402Y-19742299D01*
X7019873Y-19577555D01*
X6941232Y-19423212D01*
X6839414Y-19283072D01*
X6716928Y-19160586D01*
X6715325Y-19159421D01*
X6688194Y-19139708D01*
X6688171Y-19139693D01*
X6576788Y-19058768D01*
X6422447Y-18980128D01*
X6422446Y-18980127D01*
X6422445Y-18980127D01*
X6257701Y-18926598D01*
X6257699Y-18926597D01*
X6257698Y-18926597D01*
X6126271Y-18905781D01*
X6086611Y-18899500D01*
X5913389Y-18899500D01*
X5873728Y-18905781D01*
X5742302Y-18926597D01*
X5577552Y-18980128D01*
X5423211Y-19058768D01*
X5343256Y-19116859D01*
X5283072Y-19160586D01*
X5283070Y-19160588D01*
X5283069Y-19160588D01*
X5160588Y-19283069D01*
X5160588Y-19283070D01*
X5160586Y-19283072D01*
X5116859Y-19343256D01*
X5058768Y-19423211D01*
X4980128Y-19577552D01*
X4926597Y-19742302D01*
X4924682Y-19754394D01*
X4899500Y-19913389D01*
X300500Y-19913389D01*
X300500Y-424500D01*
X320185Y-357461D01*
X372989Y-311706D01*
X424500Y-300500D01*
X3805500Y-300500D01*
X3872539Y-320185D01*
G37*
%TD.AperFunction*%
%TD*%
M02*
