%TF.GenerationSoftware,KiCad,Pcbnew,10.0.4*%
%TF.CreationDate,2026-07-30T22:02:38-03:00*%
%TF.ProjectId,tkmem128-ii-expansor,746b6d65-6d31-4323-982d-69692d657870,rev?*%
%TF.SameCoordinates,Original*%
%TF.FileFunction,Copper,L1,Top*%
%TF.FilePolarity,Positive*%
%FSLAX46Y46*%
G04 Gerber Fmt 4.6, Leading zero omitted, Abs format (unit mm)*
G04 Created by KiCad (PCBNEW 10.0.4) date 2026-07-30 22:02:38*
%MOMM*%
%LPD*%
G01*
G04 APERTURE LIST*
%TA.AperFunction,SMDPad,CuDef*%
%ADD10R,1.524000X7.620000*%
%TD*%
%TA.AperFunction,SMDPad,CuDef*%
%ADD11R,1.700000X5.000000*%
%TD*%
%TA.AperFunction,Conductor*%
%ADD12C,1.500000*%
%TD*%
G04 APERTURE END LIST*
D10*
%TO.P,J2,29*%
%TO.N,BUS_P29*%
X5080000Y-41190000D03*
%TO.P,J2,30*%
%TO.N,A10*%
X7620000Y-41190000D03*
%TO.P,J2,31*%
%TO.N,A8*%
X10160000Y-41190000D03*
%TO.P,J2,32*%
%TO.N,BUS_RFSH*%
X12700000Y-41190000D03*
%TO.P,J2,33*%
%TO.N,BUS_M1*%
X15240000Y-41190000D03*
%TO.P,J2,34*%
%TO.N,BUS_P34*%
X17780000Y-41190000D03*
%TO.P,J2,35*%
%TO.N,BUS_P35*%
X20320000Y-41190000D03*
%TO.P,J2,36*%
%TO.N,BUS_WAIT*%
X22860000Y-41190000D03*
%TO.P,J2,37*%
%TO.N,BUS_P37*%
X25400000Y-41190000D03*
%TO.P,J2,38*%
%TO.N,WR_N*%
X27940000Y-41190000D03*
%TO.P,J2,39*%
%TO.N,RD_N*%
X30480000Y-41190000D03*
%TO.P,J2,40*%
%TO.N,IORQ_N*%
X33020000Y-41190000D03*
%TO.P,J2,41*%
%TO.N,MREQ_N*%
X35560000Y-41190000D03*
%TO.P,J2,42*%
%TO.N,BUS_HALT*%
X38100000Y-41190000D03*
%TO.P,J2,43*%
%TO.N,BUS_NMI*%
X40640000Y-41190000D03*
%TO.P,J2,44*%
%TO.N,BUS_INT*%
X43180000Y-41190000D03*
%TO.P,J2,45*%
%TO.N,D4*%
X45720000Y-41190000D03*
%TO.P,J2,46*%
%TO.N,D3*%
X48260000Y-41190000D03*
%TO.P,J2,47*%
%TO.N,D5*%
X50800000Y-41190000D03*
%TO.P,J2,48*%
%TO.N,D6*%
X53340000Y-41190000D03*
%TO.P,J2,49*%
%TO.N,D2*%
X55880000Y-41190000D03*
%TO.P,J2,50*%
%TO.N,D1*%
X58420000Y-41190000D03*
%TO.P,J2,51*%
%TO.N,D0*%
X60960000Y-41190000D03*
%TO.P,J2,53*%
%TO.N,BUS_SOUNDIN*%
X66040000Y-41190000D03*
%TO.P,J2,54*%
%TO.N,D7*%
X68580000Y-41190000D03*
%TO.P,J2,55*%
%TO.N,A13*%
X71120000Y-41190000D03*
%TO.P,J2,56*%
%TO.N,A15*%
X73660000Y-41190000D03*
%TD*%
D11*
%TO.P,J1,29*%
%TO.N,BUS_P29*%
X5080000Y-2500000D03*
%TO.P,J1,30*%
%TO.N,A10*%
X7620000Y-2500000D03*
%TO.P,J1,31*%
%TO.N,A8*%
X10160000Y-2500000D03*
%TO.P,J1,32*%
%TO.N,BUS_RFSH*%
X12700000Y-2500000D03*
%TO.P,J1,33*%
%TO.N,BUS_M1*%
X15240000Y-2500000D03*
%TO.P,J1,34*%
%TO.N,BUS_P34*%
X17780000Y-2500000D03*
%TO.P,J1,35*%
%TO.N,BUS_P35*%
X20320000Y-2500000D03*
%TO.P,J1,36*%
%TO.N,BUS_WAIT*%
X22860000Y-2500000D03*
%TO.P,J1,37*%
%TO.N,BUS_P37*%
X25400000Y-2500000D03*
%TO.P,J1,38*%
%TO.N,WR_N*%
X27940000Y-2500000D03*
%TO.P,J1,39*%
%TO.N,RD_N*%
X30480000Y-2500000D03*
%TO.P,J1,40*%
%TO.N,IORQ_N*%
X33020000Y-2500000D03*
%TO.P,J1,41*%
%TO.N,MREQ_N*%
X35560000Y-2500000D03*
%TO.P,J1,42*%
%TO.N,BUS_HALT*%
X38100000Y-2500000D03*
%TO.P,J1,43*%
%TO.N,BUS_NMI*%
X40640000Y-2500000D03*
%TO.P,J1,44*%
%TO.N,BUS_INT*%
X43180000Y-2500000D03*
%TO.P,J1,45*%
%TO.N,D4*%
X45720000Y-2500000D03*
%TO.P,J1,46*%
%TO.N,D3*%
X48260000Y-2500000D03*
%TO.P,J1,47*%
%TO.N,D5*%
X50800000Y-2500000D03*
%TO.P,J1,48*%
%TO.N,D6*%
X53340000Y-2500000D03*
%TO.P,J1,49*%
%TO.N,D2*%
X55880000Y-2500000D03*
%TO.P,J1,50*%
%TO.N,D1*%
X58420000Y-2500000D03*
%TO.P,J1,51*%
%TO.N,D0*%
X60960000Y-2500000D03*
%TO.P,J1,53*%
%TO.N,BUS_SOUNDIN*%
X66040000Y-2500000D03*
%TO.P,J1,54*%
%TO.N,D7*%
X68580000Y-2500000D03*
%TO.P,J1,55*%
%TO.N,A13*%
X71120000Y-2500000D03*
%TO.P,J1,56*%
%TO.N,A15*%
X73660000Y-2500000D03*
%TD*%
%TO.N,BUS_P29*%
D12*
X5080000Y-2500000D02*
X5080000Y-41190000D01*
%TO.N,A10*%
X7620000Y-2500000D02*
X7620000Y-41190000D01*
%TO.N,A8*%
X10160000Y-2500000D02*
X10160000Y-41190000D01*
%TO.N,BUS_RFSH*%
X12700000Y-2500000D02*
X12700000Y-41190000D01*
%TO.N,BUS_M1*%
X15240000Y-2500000D02*
X15240000Y-41190000D01*
%TO.N,BUS_P34*%
X17780000Y-2500000D02*
X17780000Y-41190000D01*
%TO.N,BUS_P35*%
X20320000Y-2500000D02*
X20320000Y-41190000D01*
%TO.N,BUS_WAIT*%
X22860000Y-2500000D02*
X22860000Y-41190000D01*
%TO.N,BUS_P37*%
X25400000Y-2500000D02*
X25400000Y-41190000D01*
%TO.N,WR_N*%
X27940000Y-2500000D02*
X27940000Y-41190000D01*
%TO.N,RD_N*%
X30480000Y-2500000D02*
X30480000Y-41190000D01*
%TO.N,IORQ_N*%
X33020000Y-2500000D02*
X33020000Y-41190000D01*
%TO.N,MREQ_N*%
X35560000Y-2500000D02*
X35560000Y-41190000D01*
%TO.N,BUS_HALT*%
X38100000Y-2500000D02*
X38100000Y-41190000D01*
%TO.N,BUS_NMI*%
X40640000Y-2500000D02*
X40640000Y-41190000D01*
%TO.N,BUS_INT*%
X43180000Y-2500000D02*
X43180000Y-41190000D01*
%TO.N,D4*%
X45720000Y-2500000D02*
X45720000Y-41190000D01*
%TO.N,D3*%
X48260000Y-2500000D02*
X48260000Y-41190000D01*
%TO.N,D5*%
X50800000Y-2500000D02*
X50800000Y-41190000D01*
%TO.N,D6*%
X53340000Y-2500000D02*
X53340000Y-41190000D01*
%TO.N,D2*%
X55880000Y-2500000D02*
X55880000Y-41190000D01*
%TO.N,D1*%
X58420000Y-2500000D02*
X58420000Y-41190000D01*
%TO.N,D0*%
X60960000Y-2500000D02*
X60960000Y-41190000D01*
%TO.N,BUS_SOUNDIN*%
X66040000Y-2500000D02*
X66040000Y-41190000D01*
%TO.N,D7*%
X68580000Y-2500000D02*
X68580000Y-41190000D01*
%TO.N,A13*%
X71120000Y-2500000D02*
X71120000Y-41190000D01*
%TO.N,A15*%
X73660000Y-2500000D02*
X73660000Y-41190000D01*
%TD*%
M02*
