%TF.GenerationSoftware,KiCad,Pcbnew,10.0.4*%
%TF.CreationDate,2026-07-27T01:33:33-03:00*%
%TF.ProjectId,tkmem128-expansor,746b6d65-6d31-4323-982d-657870616e73,rev?*%
%TF.SameCoordinates,Original*%
%TF.FileFunction,Drillmap*%
%TF.FilePolarity,Positive*%
%FSLAX45Y45*%
G04 Gerber Fmt 4.5, Leading zero omitted, Abs format (unit mm)*
G04 Created by KiCad (PCBNEW 10.0.4) date 2026-07-27 01:33:33*
%MOMM*%
%LPD*%
G01*
G04 APERTURE LIST*
%ADD10C,0.100000*%
%ADD11C,0.200000*%
G04 APERTURE END LIST*
D10*
X0Y0D02*
X0Y-4500000D01*
X0Y0D02*
X7874000Y0D01*
X0Y-4500000D02*
X1434000Y-4500000D01*
X1434000Y-4000000D02*
X1614000Y-4000000D01*
X1434000Y-4500000D02*
X1434000Y-4000000D01*
X1614000Y-4000000D02*
X1614000Y-4500000D01*
X1614000Y-4500000D02*
X7874000Y-4500000D01*
X7874000Y0D02*
X7874000Y-4500000D01*
D11*
D10*
X183090Y-870000D02*
X218090Y-905000D01*
X218090Y-870000D02*
X183090Y-905000D01*
X490500Y-554520D02*
X525500Y-589520D01*
X525500Y-554520D02*
X490500Y-589520D01*
X490500Y-3669250D02*
X525500Y-3704250D01*
X525500Y-3669250D02*
X490500Y-3704250D01*
X628860Y-3689540D02*
X663860Y-3724540D01*
X663860Y-3689540D02*
X628860Y-3724540D01*
X679900Y-550200D02*
X714900Y-585200D01*
X714900Y-550200D02*
X679900Y-585200D01*
X744500Y-1038930D02*
X779500Y-1073930D01*
X779500Y-1038930D02*
X744500Y-1073930D01*
X998500Y-3665460D02*
X1033500Y-3700460D01*
X1033500Y-3665460D02*
X998500Y-3700460D01*
X1005350Y-550830D02*
X1040350Y-585830D01*
X1040350Y-550830D02*
X1005350Y-585830D01*
X1136850Y-3689540D02*
X1171850Y-3724540D01*
X1171850Y-3689540D02*
X1136850Y-3724540D01*
X1223420Y-553880D02*
X1258420Y-588880D01*
X1258420Y-553880D02*
X1223420Y-588880D01*
X1252500Y-1035670D02*
X1287500Y-1070670D01*
X1287500Y-1035670D02*
X1252500Y-1070670D01*
X1760500Y-549800D02*
X1795500Y-584800D01*
X1795500Y-549800D02*
X1760500Y-584800D01*
X1887500Y-3974500D02*
X1922500Y-4009500D01*
X1922500Y-3974500D02*
X1887500Y-4009500D01*
X1951000Y-3638500D02*
X1986000Y-3673500D01*
X1986000Y-3638500D02*
X1951000Y-3673500D01*
X2075190Y-1037560D02*
X2110190Y-1072560D01*
X2110190Y-1037560D02*
X2075190Y-1072560D01*
X2107840Y-537990D02*
X2142840Y-572990D01*
X2142840Y-537990D02*
X2107840Y-572990D01*
X2152860Y-3689540D02*
X2187860Y-3724540D01*
X2187860Y-3689540D02*
X2152860Y-3724540D01*
X2268500Y-549790D02*
X2303500Y-584790D01*
X2303500Y-549790D02*
X2268500Y-584790D01*
X2268500Y-1037300D02*
X2303500Y-1072300D01*
X2303500Y-1037300D02*
X2268500Y-1072300D01*
X2457710Y-1077090D02*
X2492710Y-1112090D01*
X2492710Y-1077090D02*
X2457710Y-1112090D01*
X2522500Y-551680D02*
X2557500Y-586680D01*
X2557500Y-551680D02*
X2522500Y-586680D01*
X2545890Y-3669940D02*
X2580890Y-3704940D01*
X2580890Y-3669940D02*
X2545890Y-3704940D01*
X2659360Y-3690040D02*
X2694360Y-3725040D01*
X2694360Y-3690040D02*
X2659360Y-3725040D01*
X2776500Y-554350D02*
X2811500Y-589350D01*
X2811500Y-554350D02*
X2776500Y-589350D01*
X2819730Y-1037040D02*
X2854730Y-1072040D01*
X2854730Y-1037040D02*
X2819730Y-1072040D01*
X2945520Y-1046880D02*
X2980520Y-1081880D01*
X2980520Y-1046880D02*
X2945520Y-1081880D01*
X3008310Y-3668250D02*
X3043310Y-3703250D01*
X3043310Y-3668250D02*
X3008310Y-3703250D01*
X3041630Y-550570D02*
X3076630Y-585570D01*
X3076630Y-550570D02*
X3041630Y-585570D01*
X3261260Y-3670510D02*
X3296260Y-3705510D01*
X3296260Y-3670510D02*
X3261260Y-3705510D01*
X3284500Y-551240D02*
X3319500Y-586240D01*
X3319500Y-551240D02*
X3284500Y-586240D01*
X3326850Y-1073270D02*
X3361850Y-1108270D01*
X3361850Y-1073270D02*
X3326850Y-1108270D01*
X3510680Y-1051690D02*
X3545680Y-1086690D01*
X3545680Y-1051690D02*
X3510680Y-1086690D01*
X3538500Y-552670D02*
X3573500Y-587670D01*
X3573500Y-552670D02*
X3538500Y-587670D01*
X3576130Y-3670510D02*
X3611130Y-3705510D01*
X3611130Y-3670510D02*
X3576130Y-3705510D01*
X3675360Y-3690040D02*
X3710360Y-3725040D01*
X3710360Y-3690040D02*
X3675360Y-3725040D01*
X3792500Y-550530D02*
X3827500Y-585530D01*
X3827500Y-550530D02*
X3792500Y-585530D01*
X4027910Y-3669580D02*
X4062910Y-3704580D01*
X4062910Y-3669580D02*
X4027910Y-3704580D01*
X4061910Y-552580D02*
X4096910Y-587580D01*
X4096910Y-552580D02*
X4061910Y-587580D01*
X4116610Y-1036820D02*
X4151610Y-1071820D01*
X4151610Y-1036820D02*
X4116610Y-1071820D01*
X4173510Y-3729870D02*
X4208510Y-3764870D01*
X4208510Y-3729870D02*
X4173510Y-3764870D01*
X4300500Y-553220D02*
X4335500Y-588220D01*
X4335500Y-553220D02*
X4300500Y-588220D01*
X4300500Y-1036090D02*
X4335500Y-1071090D01*
X4335500Y-1036090D02*
X4300500Y-1071090D01*
X4533720Y-1042830D02*
X4568720Y-1077830D01*
X4568720Y-1042830D02*
X4533720Y-1077830D01*
X4554500Y-553380D02*
X4589500Y-588380D01*
X4589500Y-553380D02*
X4554500Y-588380D01*
X4596670Y-3670510D02*
X4631670Y-3705510D01*
X4631670Y-3670510D02*
X4596670Y-3705510D01*
X4691360Y-3690040D02*
X4726360Y-3725040D01*
X4726360Y-3690040D02*
X4691360Y-3725040D01*
X4808500Y-554490D02*
X4843500Y-589490D01*
X4843500Y-554490D02*
X4808500Y-589490D01*
X4853180Y-1034940D02*
X4888180Y-1069940D01*
X4888180Y-1034940D02*
X4853180Y-1069940D01*
X4984100Y-1054630D02*
X5019100Y-1089630D01*
X5019100Y-1054630D02*
X4984100Y-1089630D01*
X5046730Y-551490D02*
X5081730Y-586490D01*
X5081730Y-551490D02*
X5046730Y-586490D01*
X5047360Y-3670760D02*
X5082360Y-3705760D01*
X5082360Y-3670760D02*
X5047360Y-3705760D01*
X5294540Y-3667250D02*
X5329540Y-3702250D01*
X5329540Y-3667250D02*
X5294540Y-3702250D01*
X5316500Y-550050D02*
X5351500Y-585050D01*
X5351500Y-550050D02*
X5316500Y-585050D01*
X5357930Y-1069930D02*
X5392930Y-1104930D01*
X5392930Y-1069930D02*
X5357930Y-1104930D01*
X5570500Y-1036360D02*
X5605500Y-1071360D01*
X5605500Y-1036360D02*
X5570500Y-1071360D01*
X5573620Y-551960D02*
X5608620Y-586960D01*
X5608620Y-551960D02*
X5573620Y-586960D01*
X5697500Y-3974500D02*
X5732500Y-4009500D01*
X5732500Y-3974500D02*
X5697500Y-4009500D01*
X5801280Y-1045240D02*
X5836280Y-1080240D01*
X5836280Y-1045240D02*
X5801280Y-1080240D01*
X5824500Y-552500D02*
X5859500Y-587500D01*
X5859500Y-552500D02*
X5824500Y-587500D01*
X5879200Y-3670450D02*
X5914200Y-3705450D01*
X5914200Y-3670450D02*
X5879200Y-3705450D01*
X6025730Y-3670510D02*
X6060730Y-3705510D01*
X6060730Y-3670510D02*
X6025730Y-3705510D01*
X6063300Y-553190D02*
X6098300Y-588190D01*
X6098300Y-553190D02*
X6063300Y-588190D01*
X6164140Y-1033500D02*
X6199140Y-1068500D01*
X6199140Y-1033500D02*
X6164140Y-1068500D01*
X6312810Y-3667250D02*
X6347810Y-3702250D01*
X6347810Y-3667250D02*
X6312810Y-3702250D01*
X6332500Y-551220D02*
X6367500Y-586220D01*
X6367500Y-551220D02*
X6332500Y-586220D01*
X6376620Y-1061140D02*
X6411620Y-1096140D01*
X6411620Y-1061140D02*
X6376620Y-1096140D01*
X6586500Y-1039430D02*
X6621500Y-1074430D01*
X6621500Y-1039430D02*
X6586500Y-1074430D01*
X6593310Y-551110D02*
X6628310Y-586110D01*
X6628310Y-551110D02*
X6593310Y-586110D01*
X6713500Y-3974500D02*
X6748500Y-4009500D01*
X6748500Y-3974500D02*
X6713500Y-4009500D01*
X6840500Y-550520D02*
X6875500Y-585520D01*
X6875500Y-550520D02*
X6840500Y-585520D01*
X6899740Y-3670450D02*
X6934740Y-3705450D01*
X6934740Y-3670450D02*
X6899740Y-3705450D01*
X6940140Y-1019250D02*
X6975140Y-1054250D01*
X6975140Y-1019250D02*
X6940140Y-1054250D01*
X7046270Y-3670510D02*
X7081270Y-3705510D01*
X7081270Y-3670510D02*
X7046270Y-3705510D01*
X7083520Y-551240D02*
X7118520Y-586240D01*
X7118520Y-551240D02*
X7083520Y-586240D01*
X7112050Y-1039470D02*
X7147050Y-1074470D01*
X7147050Y-1039470D02*
X7112050Y-1074470D01*
X7331080Y-3667250D02*
X7366080Y-3702250D01*
X7366080Y-3667250D02*
X7331080Y-3702250D01*
X7348500Y-553140D02*
X7383500Y-588140D01*
X7383500Y-553140D02*
X7348500Y-588140D01*
X7655980Y-870000D02*
X7690980Y-905000D01*
X7690980Y-870000D02*
X7655980Y-905000D01*
X3832500Y-1067430D02*
G75*
G02*
X3787500Y-1067430I-22500J0D01*
G01*
X3787500Y-1067430D02*
G75*
G02*
X3832500Y-1067430I22500J0D01*
G01*
X600000Y-1960000D02*
X600000Y-2040000D01*
X560000Y-2000000D02*
X640000Y-2000000D01*
X1100000Y-1960000D02*
X1100000Y-2040000D01*
X1060000Y-2000000D02*
X1140000Y-2000000D01*
D11*
X255777Y-4816484D02*
X255777Y-4616484D01*
X255777Y-4616484D02*
X303396Y-4616484D01*
X303396Y-4616484D02*
X331967Y-4626008D01*
X331967Y-4626008D02*
X351015Y-4645055D01*
X351015Y-4645055D02*
X360539Y-4664103D01*
X360539Y-4664103D02*
X370062Y-4702198D01*
X370062Y-4702198D02*
X370062Y-4730770D01*
X370062Y-4730770D02*
X360539Y-4768865D01*
X360539Y-4768865D02*
X351015Y-4787912D01*
X351015Y-4787912D02*
X331967Y-4806960D01*
X331967Y-4806960D02*
X303396Y-4816484D01*
X303396Y-4816484D02*
X255777Y-4816484D01*
X455777Y-4816484D02*
X455777Y-4683150D01*
X455777Y-4721246D02*
X465301Y-4702198D01*
X465301Y-4702198D02*
X474824Y-4692674D01*
X474824Y-4692674D02*
X493872Y-4683150D01*
X493872Y-4683150D02*
X512920Y-4683150D01*
X579586Y-4816484D02*
X579586Y-4683150D01*
X579586Y-4616484D02*
X570063Y-4626008D01*
X570063Y-4626008D02*
X579586Y-4635531D01*
X579586Y-4635531D02*
X589110Y-4626008D01*
X589110Y-4626008D02*
X579586Y-4616484D01*
X579586Y-4616484D02*
X579586Y-4635531D01*
X703396Y-4816484D02*
X684348Y-4806960D01*
X684348Y-4806960D02*
X674824Y-4787912D01*
X674824Y-4787912D02*
X674824Y-4616484D01*
X808158Y-4816484D02*
X789110Y-4806960D01*
X789110Y-4806960D02*
X779586Y-4787912D01*
X779586Y-4787912D02*
X779586Y-4616484D01*
X1036729Y-4816484D02*
X1036729Y-4616484D01*
X1036729Y-4616484D02*
X1103396Y-4759341D01*
X1103396Y-4759341D02*
X1170063Y-4616484D01*
X1170063Y-4616484D02*
X1170063Y-4816484D01*
X1351015Y-4816484D02*
X1351015Y-4711722D01*
X1351015Y-4711722D02*
X1341491Y-4692674D01*
X1341491Y-4692674D02*
X1322444Y-4683150D01*
X1322444Y-4683150D02*
X1284348Y-4683150D01*
X1284348Y-4683150D02*
X1265301Y-4692674D01*
X1351015Y-4806960D02*
X1331967Y-4816484D01*
X1331967Y-4816484D02*
X1284348Y-4816484D01*
X1284348Y-4816484D02*
X1265301Y-4806960D01*
X1265301Y-4806960D02*
X1255777Y-4787912D01*
X1255777Y-4787912D02*
X1255777Y-4768865D01*
X1255777Y-4768865D02*
X1265301Y-4749817D01*
X1265301Y-4749817D02*
X1284348Y-4740293D01*
X1284348Y-4740293D02*
X1331967Y-4740293D01*
X1331967Y-4740293D02*
X1351015Y-4730770D01*
X1446253Y-4683150D02*
X1446253Y-4883150D01*
X1446253Y-4692674D02*
X1465301Y-4683150D01*
X1465301Y-4683150D02*
X1503396Y-4683150D01*
X1503396Y-4683150D02*
X1522443Y-4692674D01*
X1522443Y-4692674D02*
X1531967Y-4702198D01*
X1531967Y-4702198D02*
X1541491Y-4721246D01*
X1541491Y-4721246D02*
X1541491Y-4778389D01*
X1541491Y-4778389D02*
X1531967Y-4797436D01*
X1531967Y-4797436D02*
X1522443Y-4806960D01*
X1522443Y-4806960D02*
X1503396Y-4816484D01*
X1503396Y-4816484D02*
X1465301Y-4816484D01*
X1465301Y-4816484D02*
X1446253Y-4806960D01*
X1627205Y-4797436D02*
X1636729Y-4806960D01*
X1636729Y-4806960D02*
X1627205Y-4816484D01*
X1627205Y-4816484D02*
X1617682Y-4806960D01*
X1617682Y-4806960D02*
X1627205Y-4797436D01*
X1627205Y-4797436D02*
X1627205Y-4816484D01*
X1627205Y-4692674D02*
X1636729Y-4702198D01*
X1636729Y-4702198D02*
X1627205Y-4711722D01*
X1627205Y-4711722D02*
X1617682Y-4702198D01*
X1617682Y-4702198D02*
X1627205Y-4692674D01*
X1627205Y-4692674D02*
X1627205Y-4711722D01*
D10*
X-40000Y-5127500D02*
X-5000Y-5162500D01*
X-5000Y-5127500D02*
X-40000Y-5162500D01*
D11*
X293872Y-5036484D02*
X312920Y-5036484D01*
X312920Y-5036484D02*
X331967Y-5046008D01*
X331967Y-5046008D02*
X341491Y-5055531D01*
X341491Y-5055531D02*
X351015Y-5074579D01*
X351015Y-5074579D02*
X360539Y-5112674D01*
X360539Y-5112674D02*
X360539Y-5160293D01*
X360539Y-5160293D02*
X351015Y-5198389D01*
X351015Y-5198389D02*
X341491Y-5217436D01*
X341491Y-5217436D02*
X331967Y-5226960D01*
X331967Y-5226960D02*
X312920Y-5236484D01*
X312920Y-5236484D02*
X293872Y-5236484D01*
X293872Y-5236484D02*
X274824Y-5226960D01*
X274824Y-5226960D02*
X265301Y-5217436D01*
X265301Y-5217436D02*
X255777Y-5198389D01*
X255777Y-5198389D02*
X246253Y-5160293D01*
X246253Y-5160293D02*
X246253Y-5112674D01*
X246253Y-5112674D02*
X255777Y-5074579D01*
X255777Y-5074579D02*
X265301Y-5055531D01*
X265301Y-5055531D02*
X274824Y-5046008D01*
X274824Y-5046008D02*
X293872Y-5036484D01*
X455777Y-5226960D02*
X455777Y-5236484D01*
X455777Y-5236484D02*
X446253Y-5255531D01*
X446253Y-5255531D02*
X436729Y-5265055D01*
X522443Y-5036484D02*
X646253Y-5036484D01*
X646253Y-5036484D02*
X579586Y-5112674D01*
X579586Y-5112674D02*
X608158Y-5112674D01*
X608158Y-5112674D02*
X627205Y-5122198D01*
X627205Y-5122198D02*
X636729Y-5131722D01*
X636729Y-5131722D02*
X646253Y-5150770D01*
X646253Y-5150770D02*
X646253Y-5198389D01*
X646253Y-5198389D02*
X636729Y-5217436D01*
X636729Y-5217436D02*
X627205Y-5226960D01*
X627205Y-5226960D02*
X608158Y-5236484D01*
X608158Y-5236484D02*
X551015Y-5236484D01*
X551015Y-5236484D02*
X531967Y-5226960D01*
X531967Y-5226960D02*
X522443Y-5217436D01*
X827205Y-5036484D02*
X731967Y-5036484D01*
X731967Y-5036484D02*
X722443Y-5131722D01*
X722443Y-5131722D02*
X731967Y-5122198D01*
X731967Y-5122198D02*
X751015Y-5112674D01*
X751015Y-5112674D02*
X798634Y-5112674D01*
X798634Y-5112674D02*
X817682Y-5122198D01*
X817682Y-5122198D02*
X827205Y-5131722D01*
X827205Y-5131722D02*
X836729Y-5150770D01*
X836729Y-5150770D02*
X836729Y-5198389D01*
X836729Y-5198389D02*
X827205Y-5217436D01*
X827205Y-5217436D02*
X817682Y-5226960D01*
X817682Y-5226960D02*
X798634Y-5236484D01*
X798634Y-5236484D02*
X751015Y-5236484D01*
X751015Y-5236484D02*
X731967Y-5226960D01*
X731967Y-5226960D02*
X722443Y-5217436D01*
X960539Y-5036484D02*
X979586Y-5036484D01*
X979586Y-5036484D02*
X998634Y-5046008D01*
X998634Y-5046008D02*
X1008158Y-5055531D01*
X1008158Y-5055531D02*
X1017682Y-5074579D01*
X1017682Y-5074579D02*
X1027205Y-5112674D01*
X1027205Y-5112674D02*
X1027205Y-5160293D01*
X1027205Y-5160293D02*
X1017682Y-5198389D01*
X1017682Y-5198389D02*
X1008158Y-5217436D01*
X1008158Y-5217436D02*
X998634Y-5226960D01*
X998634Y-5226960D02*
X979586Y-5236484D01*
X979586Y-5236484D02*
X960539Y-5236484D01*
X960539Y-5236484D02*
X941491Y-5226960D01*
X941491Y-5226960D02*
X931967Y-5217436D01*
X931967Y-5217436D02*
X922443Y-5198389D01*
X922443Y-5198389D02*
X912920Y-5160293D01*
X912920Y-5160293D02*
X912920Y-5112674D01*
X912920Y-5112674D02*
X922443Y-5074579D01*
X922443Y-5074579D02*
X931967Y-5055531D01*
X931967Y-5055531D02*
X941491Y-5046008D01*
X941491Y-5046008D02*
X960539Y-5036484D01*
X1112920Y-5236484D02*
X1112920Y-5103150D01*
X1112920Y-5122198D02*
X1122444Y-5112674D01*
X1122444Y-5112674D02*
X1141491Y-5103150D01*
X1141491Y-5103150D02*
X1170063Y-5103150D01*
X1170063Y-5103150D02*
X1189110Y-5112674D01*
X1189110Y-5112674D02*
X1198634Y-5131722D01*
X1198634Y-5131722D02*
X1198634Y-5236484D01*
X1198634Y-5131722D02*
X1208158Y-5112674D01*
X1208158Y-5112674D02*
X1227205Y-5103150D01*
X1227205Y-5103150D02*
X1255777Y-5103150D01*
X1255777Y-5103150D02*
X1274825Y-5112674D01*
X1274825Y-5112674D02*
X1284348Y-5131722D01*
X1284348Y-5131722D02*
X1284348Y-5236484D01*
X1379586Y-5236484D02*
X1379586Y-5103150D01*
X1379586Y-5122198D02*
X1389110Y-5112674D01*
X1389110Y-5112674D02*
X1408158Y-5103150D01*
X1408158Y-5103150D02*
X1436729Y-5103150D01*
X1436729Y-5103150D02*
X1455777Y-5112674D01*
X1455777Y-5112674D02*
X1465301Y-5131722D01*
X1465301Y-5131722D02*
X1465301Y-5236484D01*
X1465301Y-5131722D02*
X1474824Y-5112674D01*
X1474824Y-5112674D02*
X1493872Y-5103150D01*
X1493872Y-5103150D02*
X1522443Y-5103150D01*
X1522443Y-5103150D02*
X1541491Y-5112674D01*
X1541491Y-5112674D02*
X1551015Y-5131722D01*
X1551015Y-5131722D02*
X1551015Y-5236484D01*
X1941491Y-5026960D02*
X1770063Y-5284103D01*
X2198634Y-5036484D02*
X2217682Y-5036484D01*
X2217682Y-5036484D02*
X2236729Y-5046008D01*
X2236729Y-5046008D02*
X2246253Y-5055531D01*
X2246253Y-5055531D02*
X2255777Y-5074579D01*
X2255777Y-5074579D02*
X2265301Y-5112674D01*
X2265301Y-5112674D02*
X2265301Y-5160293D01*
X2265301Y-5160293D02*
X2255777Y-5198389D01*
X2255777Y-5198389D02*
X2246253Y-5217436D01*
X2246253Y-5217436D02*
X2236729Y-5226960D01*
X2236729Y-5226960D02*
X2217682Y-5236484D01*
X2217682Y-5236484D02*
X2198634Y-5236484D01*
X2198634Y-5236484D02*
X2179587Y-5226960D01*
X2179587Y-5226960D02*
X2170063Y-5217436D01*
X2170063Y-5217436D02*
X2160539Y-5198389D01*
X2160539Y-5198389D02*
X2151015Y-5160293D01*
X2151015Y-5160293D02*
X2151015Y-5112674D01*
X2151015Y-5112674D02*
X2160539Y-5074579D01*
X2160539Y-5074579D02*
X2170063Y-5055531D01*
X2170063Y-5055531D02*
X2179587Y-5046008D01*
X2179587Y-5046008D02*
X2198634Y-5036484D01*
X2360539Y-5226960D02*
X2360539Y-5236484D01*
X2360539Y-5236484D02*
X2351015Y-5255531D01*
X2351015Y-5255531D02*
X2341491Y-5265055D01*
X2484348Y-5036484D02*
X2503396Y-5036484D01*
X2503396Y-5036484D02*
X2522444Y-5046008D01*
X2522444Y-5046008D02*
X2531968Y-5055531D01*
X2531968Y-5055531D02*
X2541491Y-5074579D01*
X2541491Y-5074579D02*
X2551015Y-5112674D01*
X2551015Y-5112674D02*
X2551015Y-5160293D01*
X2551015Y-5160293D02*
X2541491Y-5198389D01*
X2541491Y-5198389D02*
X2531968Y-5217436D01*
X2531968Y-5217436D02*
X2522444Y-5226960D01*
X2522444Y-5226960D02*
X2503396Y-5236484D01*
X2503396Y-5236484D02*
X2484348Y-5236484D01*
X2484348Y-5236484D02*
X2465301Y-5226960D01*
X2465301Y-5226960D02*
X2455777Y-5217436D01*
X2455777Y-5217436D02*
X2446253Y-5198389D01*
X2446253Y-5198389D02*
X2436729Y-5160293D01*
X2436729Y-5160293D02*
X2436729Y-5112674D01*
X2436729Y-5112674D02*
X2446253Y-5074579D01*
X2446253Y-5074579D02*
X2455777Y-5055531D01*
X2455777Y-5055531D02*
X2465301Y-5046008D01*
X2465301Y-5046008D02*
X2484348Y-5036484D01*
X2741491Y-5236484D02*
X2627206Y-5236484D01*
X2684348Y-5236484D02*
X2684348Y-5036484D01*
X2684348Y-5036484D02*
X2665301Y-5065055D01*
X2665301Y-5065055D02*
X2646253Y-5084103D01*
X2646253Y-5084103D02*
X2627206Y-5093627D01*
X2808158Y-5036484D02*
X2931967Y-5036484D01*
X2931967Y-5036484D02*
X2865301Y-5112674D01*
X2865301Y-5112674D02*
X2893872Y-5112674D01*
X2893872Y-5112674D02*
X2912920Y-5122198D01*
X2912920Y-5122198D02*
X2922444Y-5131722D01*
X2922444Y-5131722D02*
X2931967Y-5150770D01*
X2931967Y-5150770D02*
X2931967Y-5198389D01*
X2931967Y-5198389D02*
X2922444Y-5217436D01*
X2922444Y-5217436D02*
X2912920Y-5226960D01*
X2912920Y-5226960D02*
X2893872Y-5236484D01*
X2893872Y-5236484D02*
X2836729Y-5236484D01*
X2836729Y-5236484D02*
X2817682Y-5226960D01*
X2817682Y-5226960D02*
X2808158Y-5217436D01*
X3046253Y-5122198D02*
X3027206Y-5112674D01*
X3027206Y-5112674D02*
X3017682Y-5103150D01*
X3017682Y-5103150D02*
X3008158Y-5084103D01*
X3008158Y-5084103D02*
X3008158Y-5074579D01*
X3008158Y-5074579D02*
X3017682Y-5055531D01*
X3017682Y-5055531D02*
X3027206Y-5046008D01*
X3027206Y-5046008D02*
X3046253Y-5036484D01*
X3046253Y-5036484D02*
X3084348Y-5036484D01*
X3084348Y-5036484D02*
X3103396Y-5046008D01*
X3103396Y-5046008D02*
X3112920Y-5055531D01*
X3112920Y-5055531D02*
X3122444Y-5074579D01*
X3122444Y-5074579D02*
X3122444Y-5084103D01*
X3122444Y-5084103D02*
X3112920Y-5103150D01*
X3112920Y-5103150D02*
X3103396Y-5112674D01*
X3103396Y-5112674D02*
X3084348Y-5122198D01*
X3084348Y-5122198D02*
X3046253Y-5122198D01*
X3046253Y-5122198D02*
X3027206Y-5131722D01*
X3027206Y-5131722D02*
X3017682Y-5141246D01*
X3017682Y-5141246D02*
X3008158Y-5160293D01*
X3008158Y-5160293D02*
X3008158Y-5198389D01*
X3008158Y-5198389D02*
X3017682Y-5217436D01*
X3017682Y-5217436D02*
X3027206Y-5226960D01*
X3027206Y-5226960D02*
X3046253Y-5236484D01*
X3046253Y-5236484D02*
X3084348Y-5236484D01*
X3084348Y-5236484D02*
X3103396Y-5226960D01*
X3103396Y-5226960D02*
X3112920Y-5217436D01*
X3112920Y-5217436D02*
X3122444Y-5198389D01*
X3122444Y-5198389D02*
X3122444Y-5160293D01*
X3122444Y-5160293D02*
X3112920Y-5141246D01*
X3112920Y-5141246D02*
X3103396Y-5131722D01*
X3103396Y-5131722D02*
X3084348Y-5122198D01*
X3198634Y-5036484D02*
X3198634Y-5074579D01*
X3274825Y-5036484D02*
X3274825Y-5074579D01*
X3570063Y-5312674D02*
X3560539Y-5303150D01*
X3560539Y-5303150D02*
X3541491Y-5274579D01*
X3541491Y-5274579D02*
X3531968Y-5255531D01*
X3531968Y-5255531D02*
X3522444Y-5226960D01*
X3522444Y-5226960D02*
X3512920Y-5179341D01*
X3512920Y-5179341D02*
X3512920Y-5141246D01*
X3512920Y-5141246D02*
X3522444Y-5093627D01*
X3522444Y-5093627D02*
X3531968Y-5065055D01*
X3531968Y-5065055D02*
X3541491Y-5046008D01*
X3541491Y-5046008D02*
X3560539Y-5017436D01*
X3560539Y-5017436D02*
X3570063Y-5007912D01*
X3627206Y-5036484D02*
X3760539Y-5036484D01*
X3760539Y-5036484D02*
X3674825Y-5236484D01*
X3865301Y-5122198D02*
X3846253Y-5112674D01*
X3846253Y-5112674D02*
X3836729Y-5103150D01*
X3836729Y-5103150D02*
X3827206Y-5084103D01*
X3827206Y-5084103D02*
X3827206Y-5074579D01*
X3827206Y-5074579D02*
X3836729Y-5055531D01*
X3836729Y-5055531D02*
X3846253Y-5046008D01*
X3846253Y-5046008D02*
X3865301Y-5036484D01*
X3865301Y-5036484D02*
X3903396Y-5036484D01*
X3903396Y-5036484D02*
X3922444Y-5046008D01*
X3922444Y-5046008D02*
X3931968Y-5055531D01*
X3931968Y-5055531D02*
X3941491Y-5074579D01*
X3941491Y-5074579D02*
X3941491Y-5084103D01*
X3941491Y-5084103D02*
X3931968Y-5103150D01*
X3931968Y-5103150D02*
X3922444Y-5112674D01*
X3922444Y-5112674D02*
X3903396Y-5122198D01*
X3903396Y-5122198D02*
X3865301Y-5122198D01*
X3865301Y-5122198D02*
X3846253Y-5131722D01*
X3846253Y-5131722D02*
X3836729Y-5141246D01*
X3836729Y-5141246D02*
X3827206Y-5160293D01*
X3827206Y-5160293D02*
X3827206Y-5198389D01*
X3827206Y-5198389D02*
X3836729Y-5217436D01*
X3836729Y-5217436D02*
X3846253Y-5226960D01*
X3846253Y-5226960D02*
X3865301Y-5236484D01*
X3865301Y-5236484D02*
X3903396Y-5236484D01*
X3903396Y-5236484D02*
X3922444Y-5226960D01*
X3922444Y-5226960D02*
X3931968Y-5217436D01*
X3931968Y-5217436D02*
X3941491Y-5198389D01*
X3941491Y-5198389D02*
X3941491Y-5160293D01*
X3941491Y-5160293D02*
X3931968Y-5141246D01*
X3931968Y-5141246D02*
X3922444Y-5131722D01*
X3922444Y-5131722D02*
X3903396Y-5122198D01*
X4179587Y-5236484D02*
X4179587Y-5036484D01*
X4265301Y-5236484D02*
X4265301Y-5131722D01*
X4265301Y-5131722D02*
X4255777Y-5112674D01*
X4255777Y-5112674D02*
X4236730Y-5103150D01*
X4236730Y-5103150D02*
X4208158Y-5103150D01*
X4208158Y-5103150D02*
X4189110Y-5112674D01*
X4189110Y-5112674D02*
X4179587Y-5122198D01*
X4389111Y-5236484D02*
X4370063Y-5226960D01*
X4370063Y-5226960D02*
X4360539Y-5217436D01*
X4360539Y-5217436D02*
X4351015Y-5198389D01*
X4351015Y-5198389D02*
X4351015Y-5141246D01*
X4351015Y-5141246D02*
X4360539Y-5122198D01*
X4360539Y-5122198D02*
X4370063Y-5112674D01*
X4370063Y-5112674D02*
X4389111Y-5103150D01*
X4389111Y-5103150D02*
X4417682Y-5103150D01*
X4417682Y-5103150D02*
X4436730Y-5112674D01*
X4436730Y-5112674D02*
X4446253Y-5122198D01*
X4446253Y-5122198D02*
X4455777Y-5141246D01*
X4455777Y-5141246D02*
X4455777Y-5198389D01*
X4455777Y-5198389D02*
X4446253Y-5217436D01*
X4446253Y-5217436D02*
X4436730Y-5226960D01*
X4436730Y-5226960D02*
X4417682Y-5236484D01*
X4417682Y-5236484D02*
X4389111Y-5236484D01*
X4570063Y-5236484D02*
X4551015Y-5226960D01*
X4551015Y-5226960D02*
X4541492Y-5207912D01*
X4541492Y-5207912D02*
X4541492Y-5036484D01*
X4722444Y-5226960D02*
X4703396Y-5236484D01*
X4703396Y-5236484D02*
X4665301Y-5236484D01*
X4665301Y-5236484D02*
X4646253Y-5226960D01*
X4646253Y-5226960D02*
X4636730Y-5207912D01*
X4636730Y-5207912D02*
X4636730Y-5131722D01*
X4636730Y-5131722D02*
X4646253Y-5112674D01*
X4646253Y-5112674D02*
X4665301Y-5103150D01*
X4665301Y-5103150D02*
X4703396Y-5103150D01*
X4703396Y-5103150D02*
X4722444Y-5112674D01*
X4722444Y-5112674D02*
X4731968Y-5131722D01*
X4731968Y-5131722D02*
X4731968Y-5150770D01*
X4731968Y-5150770D02*
X4636730Y-5169817D01*
X4808158Y-5226960D02*
X4827206Y-5236484D01*
X4827206Y-5236484D02*
X4865301Y-5236484D01*
X4865301Y-5236484D02*
X4884349Y-5226960D01*
X4884349Y-5226960D02*
X4893873Y-5207912D01*
X4893873Y-5207912D02*
X4893873Y-5198389D01*
X4893873Y-5198389D02*
X4884349Y-5179341D01*
X4884349Y-5179341D02*
X4865301Y-5169817D01*
X4865301Y-5169817D02*
X4836730Y-5169817D01*
X4836730Y-5169817D02*
X4817682Y-5160293D01*
X4817682Y-5160293D02*
X4808158Y-5141246D01*
X4808158Y-5141246D02*
X4808158Y-5131722D01*
X4808158Y-5131722D02*
X4817682Y-5112674D01*
X4817682Y-5112674D02*
X4836730Y-5103150D01*
X4836730Y-5103150D02*
X4865301Y-5103150D01*
X4865301Y-5103150D02*
X4884349Y-5112674D01*
X4960539Y-5312674D02*
X4970063Y-5303150D01*
X4970063Y-5303150D02*
X4989111Y-5274579D01*
X4989111Y-5274579D02*
X4998634Y-5255531D01*
X4998634Y-5255531D02*
X5008158Y-5226960D01*
X5008158Y-5226960D02*
X5017682Y-5179341D01*
X5017682Y-5179341D02*
X5017682Y-5141246D01*
X5017682Y-5141246D02*
X5008158Y-5093627D01*
X5008158Y-5093627D02*
X4998634Y-5065055D01*
X4998634Y-5065055D02*
X4989111Y-5046008D01*
X4989111Y-5046008D02*
X4970063Y-5017436D01*
X4970063Y-5017436D02*
X4960539Y-5007912D01*
D10*
X-5000Y-5409000D02*
G75*
G02*
X-50000Y-5409000I-22500J0D01*
G01*
X-50000Y-5409000D02*
G75*
G02*
X-5000Y-5409000I22500J0D01*
G01*
D11*
X293872Y-5300484D02*
X312920Y-5300484D01*
X312920Y-5300484D02*
X331967Y-5310008D01*
X331967Y-5310008D02*
X341491Y-5319531D01*
X341491Y-5319531D02*
X351015Y-5338579D01*
X351015Y-5338579D02*
X360539Y-5376674D01*
X360539Y-5376674D02*
X360539Y-5424293D01*
X360539Y-5424293D02*
X351015Y-5462389D01*
X351015Y-5462389D02*
X341491Y-5481436D01*
X341491Y-5481436D02*
X331967Y-5490960D01*
X331967Y-5490960D02*
X312920Y-5500484D01*
X312920Y-5500484D02*
X293872Y-5500484D01*
X293872Y-5500484D02*
X274824Y-5490960D01*
X274824Y-5490960D02*
X265301Y-5481436D01*
X265301Y-5481436D02*
X255777Y-5462389D01*
X255777Y-5462389D02*
X246253Y-5424293D01*
X246253Y-5424293D02*
X246253Y-5376674D01*
X246253Y-5376674D02*
X255777Y-5338579D01*
X255777Y-5338579D02*
X265301Y-5319531D01*
X265301Y-5319531D02*
X274824Y-5310008D01*
X274824Y-5310008D02*
X293872Y-5300484D01*
X455777Y-5490960D02*
X455777Y-5500484D01*
X455777Y-5500484D02*
X446253Y-5519531D01*
X446253Y-5519531D02*
X436729Y-5529055D01*
X627205Y-5367150D02*
X627205Y-5500484D01*
X579586Y-5290960D02*
X531967Y-5433817D01*
X531967Y-5433817D02*
X655777Y-5433817D01*
X827205Y-5300484D02*
X731967Y-5300484D01*
X731967Y-5300484D02*
X722443Y-5395722D01*
X722443Y-5395722D02*
X731967Y-5386198D01*
X731967Y-5386198D02*
X751015Y-5376674D01*
X751015Y-5376674D02*
X798634Y-5376674D01*
X798634Y-5376674D02*
X817682Y-5386198D01*
X817682Y-5386198D02*
X827205Y-5395722D01*
X827205Y-5395722D02*
X836729Y-5414770D01*
X836729Y-5414770D02*
X836729Y-5462389D01*
X836729Y-5462389D02*
X827205Y-5481436D01*
X827205Y-5481436D02*
X817682Y-5490960D01*
X817682Y-5490960D02*
X798634Y-5500484D01*
X798634Y-5500484D02*
X751015Y-5500484D01*
X751015Y-5500484D02*
X731967Y-5490960D01*
X731967Y-5490960D02*
X722443Y-5481436D01*
X960539Y-5300484D02*
X979586Y-5300484D01*
X979586Y-5300484D02*
X998634Y-5310008D01*
X998634Y-5310008D02*
X1008158Y-5319531D01*
X1008158Y-5319531D02*
X1017682Y-5338579D01*
X1017682Y-5338579D02*
X1027205Y-5376674D01*
X1027205Y-5376674D02*
X1027205Y-5424293D01*
X1027205Y-5424293D02*
X1017682Y-5462389D01*
X1017682Y-5462389D02*
X1008158Y-5481436D01*
X1008158Y-5481436D02*
X998634Y-5490960D01*
X998634Y-5490960D02*
X979586Y-5500484D01*
X979586Y-5500484D02*
X960539Y-5500484D01*
X960539Y-5500484D02*
X941491Y-5490960D01*
X941491Y-5490960D02*
X931967Y-5481436D01*
X931967Y-5481436D02*
X922443Y-5462389D01*
X922443Y-5462389D02*
X912920Y-5424293D01*
X912920Y-5424293D02*
X912920Y-5376674D01*
X912920Y-5376674D02*
X922443Y-5338579D01*
X922443Y-5338579D02*
X931967Y-5319531D01*
X931967Y-5319531D02*
X941491Y-5310008D01*
X941491Y-5310008D02*
X960539Y-5300484D01*
X1112920Y-5500484D02*
X1112920Y-5367150D01*
X1112920Y-5386198D02*
X1122444Y-5376674D01*
X1122444Y-5376674D02*
X1141491Y-5367150D01*
X1141491Y-5367150D02*
X1170063Y-5367150D01*
X1170063Y-5367150D02*
X1189110Y-5376674D01*
X1189110Y-5376674D02*
X1198634Y-5395722D01*
X1198634Y-5395722D02*
X1198634Y-5500484D01*
X1198634Y-5395722D02*
X1208158Y-5376674D01*
X1208158Y-5376674D02*
X1227205Y-5367150D01*
X1227205Y-5367150D02*
X1255777Y-5367150D01*
X1255777Y-5367150D02*
X1274825Y-5376674D01*
X1274825Y-5376674D02*
X1284348Y-5395722D01*
X1284348Y-5395722D02*
X1284348Y-5500484D01*
X1379586Y-5500484D02*
X1379586Y-5367150D01*
X1379586Y-5386198D02*
X1389110Y-5376674D01*
X1389110Y-5376674D02*
X1408158Y-5367150D01*
X1408158Y-5367150D02*
X1436729Y-5367150D01*
X1436729Y-5367150D02*
X1455777Y-5376674D01*
X1455777Y-5376674D02*
X1465301Y-5395722D01*
X1465301Y-5395722D02*
X1465301Y-5500484D01*
X1465301Y-5395722D02*
X1474824Y-5376674D01*
X1474824Y-5376674D02*
X1493872Y-5367150D01*
X1493872Y-5367150D02*
X1522443Y-5367150D01*
X1522443Y-5367150D02*
X1541491Y-5376674D01*
X1541491Y-5376674D02*
X1551015Y-5395722D01*
X1551015Y-5395722D02*
X1551015Y-5500484D01*
X1941491Y-5290960D02*
X1770063Y-5548103D01*
X2198634Y-5300484D02*
X2217682Y-5300484D01*
X2217682Y-5300484D02*
X2236729Y-5310008D01*
X2236729Y-5310008D02*
X2246253Y-5319531D01*
X2246253Y-5319531D02*
X2255777Y-5338579D01*
X2255777Y-5338579D02*
X2265301Y-5376674D01*
X2265301Y-5376674D02*
X2265301Y-5424293D01*
X2265301Y-5424293D02*
X2255777Y-5462389D01*
X2255777Y-5462389D02*
X2246253Y-5481436D01*
X2246253Y-5481436D02*
X2236729Y-5490960D01*
X2236729Y-5490960D02*
X2217682Y-5500484D01*
X2217682Y-5500484D02*
X2198634Y-5500484D01*
X2198634Y-5500484D02*
X2179587Y-5490960D01*
X2179587Y-5490960D02*
X2170063Y-5481436D01*
X2170063Y-5481436D02*
X2160539Y-5462389D01*
X2160539Y-5462389D02*
X2151015Y-5424293D01*
X2151015Y-5424293D02*
X2151015Y-5376674D01*
X2151015Y-5376674D02*
X2160539Y-5338579D01*
X2160539Y-5338579D02*
X2170063Y-5319531D01*
X2170063Y-5319531D02*
X2179587Y-5310008D01*
X2179587Y-5310008D02*
X2198634Y-5300484D01*
X2360539Y-5490960D02*
X2360539Y-5500484D01*
X2360539Y-5500484D02*
X2351015Y-5519531D01*
X2351015Y-5519531D02*
X2341491Y-5529055D01*
X2484348Y-5300484D02*
X2503396Y-5300484D01*
X2503396Y-5300484D02*
X2522444Y-5310008D01*
X2522444Y-5310008D02*
X2531968Y-5319531D01*
X2531968Y-5319531D02*
X2541491Y-5338579D01*
X2541491Y-5338579D02*
X2551015Y-5376674D01*
X2551015Y-5376674D02*
X2551015Y-5424293D01*
X2551015Y-5424293D02*
X2541491Y-5462389D01*
X2541491Y-5462389D02*
X2531968Y-5481436D01*
X2531968Y-5481436D02*
X2522444Y-5490960D01*
X2522444Y-5490960D02*
X2503396Y-5500484D01*
X2503396Y-5500484D02*
X2484348Y-5500484D01*
X2484348Y-5500484D02*
X2465301Y-5490960D01*
X2465301Y-5490960D02*
X2455777Y-5481436D01*
X2455777Y-5481436D02*
X2446253Y-5462389D01*
X2446253Y-5462389D02*
X2436729Y-5424293D01*
X2436729Y-5424293D02*
X2436729Y-5376674D01*
X2436729Y-5376674D02*
X2446253Y-5338579D01*
X2446253Y-5338579D02*
X2455777Y-5319531D01*
X2455777Y-5319531D02*
X2465301Y-5310008D01*
X2465301Y-5310008D02*
X2484348Y-5300484D01*
X2741491Y-5500484D02*
X2627206Y-5500484D01*
X2684348Y-5500484D02*
X2684348Y-5300484D01*
X2684348Y-5300484D02*
X2665301Y-5329055D01*
X2665301Y-5329055D02*
X2646253Y-5348103D01*
X2646253Y-5348103D02*
X2627206Y-5357627D01*
X2808158Y-5300484D02*
X2941491Y-5300484D01*
X2941491Y-5300484D02*
X2855777Y-5500484D01*
X2998634Y-5300484D02*
X3131967Y-5300484D01*
X3131967Y-5300484D02*
X3046253Y-5500484D01*
X3198634Y-5300484D02*
X3198634Y-5338579D01*
X3274825Y-5300484D02*
X3274825Y-5338579D01*
X3570063Y-5576674D02*
X3560539Y-5567150D01*
X3560539Y-5567150D02*
X3541491Y-5538579D01*
X3541491Y-5538579D02*
X3531968Y-5519531D01*
X3531968Y-5519531D02*
X3522444Y-5490960D01*
X3522444Y-5490960D02*
X3512920Y-5443341D01*
X3512920Y-5443341D02*
X3512920Y-5405246D01*
X3512920Y-5405246D02*
X3522444Y-5357627D01*
X3522444Y-5357627D02*
X3531968Y-5329055D01*
X3531968Y-5329055D02*
X3541491Y-5310008D01*
X3541491Y-5310008D02*
X3560539Y-5281436D01*
X3560539Y-5281436D02*
X3570063Y-5271912D01*
X3751015Y-5500484D02*
X3636729Y-5500484D01*
X3693872Y-5500484D02*
X3693872Y-5300484D01*
X3693872Y-5300484D02*
X3674825Y-5329055D01*
X3674825Y-5329055D02*
X3655777Y-5348103D01*
X3655777Y-5348103D02*
X3636729Y-5357627D01*
X3989110Y-5500484D02*
X3989110Y-5300484D01*
X4074825Y-5500484D02*
X4074825Y-5395722D01*
X4074825Y-5395722D02*
X4065301Y-5376674D01*
X4065301Y-5376674D02*
X4046253Y-5367150D01*
X4046253Y-5367150D02*
X4017682Y-5367150D01*
X4017682Y-5367150D02*
X3998634Y-5376674D01*
X3998634Y-5376674D02*
X3989110Y-5386198D01*
X4198634Y-5500484D02*
X4179587Y-5490960D01*
X4179587Y-5490960D02*
X4170063Y-5481436D01*
X4170063Y-5481436D02*
X4160539Y-5462389D01*
X4160539Y-5462389D02*
X4160539Y-5405246D01*
X4160539Y-5405246D02*
X4170063Y-5386198D01*
X4170063Y-5386198D02*
X4179587Y-5376674D01*
X4179587Y-5376674D02*
X4198634Y-5367150D01*
X4198634Y-5367150D02*
X4227206Y-5367150D01*
X4227206Y-5367150D02*
X4246253Y-5376674D01*
X4246253Y-5376674D02*
X4255777Y-5386198D01*
X4255777Y-5386198D02*
X4265301Y-5405246D01*
X4265301Y-5405246D02*
X4265301Y-5462389D01*
X4265301Y-5462389D02*
X4255777Y-5481436D01*
X4255777Y-5481436D02*
X4246253Y-5490960D01*
X4246253Y-5490960D02*
X4227206Y-5500484D01*
X4227206Y-5500484D02*
X4198634Y-5500484D01*
X4379587Y-5500484D02*
X4360539Y-5490960D01*
X4360539Y-5490960D02*
X4351015Y-5471912D01*
X4351015Y-5471912D02*
X4351015Y-5300484D01*
X4531968Y-5490960D02*
X4512920Y-5500484D01*
X4512920Y-5500484D02*
X4474825Y-5500484D01*
X4474825Y-5500484D02*
X4455777Y-5490960D01*
X4455777Y-5490960D02*
X4446253Y-5471912D01*
X4446253Y-5471912D02*
X4446253Y-5395722D01*
X4446253Y-5395722D02*
X4455777Y-5376674D01*
X4455777Y-5376674D02*
X4474825Y-5367150D01*
X4474825Y-5367150D02*
X4512920Y-5367150D01*
X4512920Y-5367150D02*
X4531968Y-5376674D01*
X4531968Y-5376674D02*
X4541492Y-5395722D01*
X4541492Y-5395722D02*
X4541492Y-5414770D01*
X4541492Y-5414770D02*
X4446253Y-5433817D01*
X4608158Y-5576674D02*
X4617682Y-5567150D01*
X4617682Y-5567150D02*
X4636730Y-5538579D01*
X4636730Y-5538579D02*
X4646253Y-5519531D01*
X4646253Y-5519531D02*
X4655777Y-5490960D01*
X4655777Y-5490960D02*
X4665301Y-5443341D01*
X4665301Y-5443341D02*
X4665301Y-5405246D01*
X4665301Y-5405246D02*
X4655777Y-5357627D01*
X4655777Y-5357627D02*
X4646253Y-5329055D01*
X4646253Y-5329055D02*
X4636730Y-5310008D01*
X4636730Y-5310008D02*
X4617682Y-5281436D01*
X4617682Y-5281436D02*
X4608158Y-5271912D01*
D10*
X-45000Y-5633000D02*
X-45000Y-5713000D01*
X-85000Y-5673000D02*
X-5000Y-5673000D01*
D11*
X293872Y-5564484D02*
X312920Y-5564484D01*
X312920Y-5564484D02*
X331967Y-5574008D01*
X331967Y-5574008D02*
X341491Y-5583531D01*
X341491Y-5583531D02*
X351015Y-5602579D01*
X351015Y-5602579D02*
X360539Y-5640674D01*
X360539Y-5640674D02*
X360539Y-5688293D01*
X360539Y-5688293D02*
X351015Y-5726388D01*
X351015Y-5726388D02*
X341491Y-5745436D01*
X341491Y-5745436D02*
X331967Y-5754960D01*
X331967Y-5754960D02*
X312920Y-5764484D01*
X312920Y-5764484D02*
X293872Y-5764484D01*
X293872Y-5764484D02*
X274824Y-5754960D01*
X274824Y-5754960D02*
X265301Y-5745436D01*
X265301Y-5745436D02*
X255777Y-5726388D01*
X255777Y-5726388D02*
X246253Y-5688293D01*
X246253Y-5688293D02*
X246253Y-5640674D01*
X246253Y-5640674D02*
X255777Y-5602579D01*
X255777Y-5602579D02*
X265301Y-5583531D01*
X265301Y-5583531D02*
X274824Y-5574008D01*
X274824Y-5574008D02*
X293872Y-5564484D01*
X455777Y-5754960D02*
X455777Y-5764484D01*
X455777Y-5764484D02*
X446253Y-5783531D01*
X446253Y-5783531D02*
X436729Y-5793055D01*
X570063Y-5650198D02*
X551015Y-5640674D01*
X551015Y-5640674D02*
X541491Y-5631150D01*
X541491Y-5631150D02*
X531967Y-5612103D01*
X531967Y-5612103D02*
X531967Y-5602579D01*
X531967Y-5602579D02*
X541491Y-5583531D01*
X541491Y-5583531D02*
X551015Y-5574008D01*
X551015Y-5574008D02*
X570063Y-5564484D01*
X570063Y-5564484D02*
X608158Y-5564484D01*
X608158Y-5564484D02*
X627205Y-5574008D01*
X627205Y-5574008D02*
X636729Y-5583531D01*
X636729Y-5583531D02*
X646253Y-5602579D01*
X646253Y-5602579D02*
X646253Y-5612103D01*
X646253Y-5612103D02*
X636729Y-5631150D01*
X636729Y-5631150D02*
X627205Y-5640674D01*
X627205Y-5640674D02*
X608158Y-5650198D01*
X608158Y-5650198D02*
X570063Y-5650198D01*
X570063Y-5650198D02*
X551015Y-5659722D01*
X551015Y-5659722D02*
X541491Y-5669246D01*
X541491Y-5669246D02*
X531967Y-5688293D01*
X531967Y-5688293D02*
X531967Y-5726388D01*
X531967Y-5726388D02*
X541491Y-5745436D01*
X541491Y-5745436D02*
X551015Y-5754960D01*
X551015Y-5754960D02*
X570063Y-5764484D01*
X570063Y-5764484D02*
X608158Y-5764484D01*
X608158Y-5764484D02*
X627205Y-5754960D01*
X627205Y-5754960D02*
X636729Y-5745436D01*
X636729Y-5745436D02*
X646253Y-5726388D01*
X646253Y-5726388D02*
X646253Y-5688293D01*
X646253Y-5688293D02*
X636729Y-5669246D01*
X636729Y-5669246D02*
X627205Y-5659722D01*
X627205Y-5659722D02*
X608158Y-5650198D01*
X770062Y-5564484D02*
X789110Y-5564484D01*
X789110Y-5564484D02*
X808158Y-5574008D01*
X808158Y-5574008D02*
X817682Y-5583531D01*
X817682Y-5583531D02*
X827205Y-5602579D01*
X827205Y-5602579D02*
X836729Y-5640674D01*
X836729Y-5640674D02*
X836729Y-5688293D01*
X836729Y-5688293D02*
X827205Y-5726388D01*
X827205Y-5726388D02*
X817682Y-5745436D01*
X817682Y-5745436D02*
X808158Y-5754960D01*
X808158Y-5754960D02*
X789110Y-5764484D01*
X789110Y-5764484D02*
X770062Y-5764484D01*
X770062Y-5764484D02*
X751015Y-5754960D01*
X751015Y-5754960D02*
X741491Y-5745436D01*
X741491Y-5745436D02*
X731967Y-5726388D01*
X731967Y-5726388D02*
X722443Y-5688293D01*
X722443Y-5688293D02*
X722443Y-5640674D01*
X722443Y-5640674D02*
X731967Y-5602579D01*
X731967Y-5602579D02*
X741491Y-5583531D01*
X741491Y-5583531D02*
X751015Y-5574008D01*
X751015Y-5574008D02*
X770062Y-5564484D01*
X960539Y-5564484D02*
X979586Y-5564484D01*
X979586Y-5564484D02*
X998634Y-5574008D01*
X998634Y-5574008D02*
X1008158Y-5583531D01*
X1008158Y-5583531D02*
X1017682Y-5602579D01*
X1017682Y-5602579D02*
X1027205Y-5640674D01*
X1027205Y-5640674D02*
X1027205Y-5688293D01*
X1027205Y-5688293D02*
X1017682Y-5726388D01*
X1017682Y-5726388D02*
X1008158Y-5745436D01*
X1008158Y-5745436D02*
X998634Y-5754960D01*
X998634Y-5754960D02*
X979586Y-5764484D01*
X979586Y-5764484D02*
X960539Y-5764484D01*
X960539Y-5764484D02*
X941491Y-5754960D01*
X941491Y-5754960D02*
X931967Y-5745436D01*
X931967Y-5745436D02*
X922443Y-5726388D01*
X922443Y-5726388D02*
X912920Y-5688293D01*
X912920Y-5688293D02*
X912920Y-5640674D01*
X912920Y-5640674D02*
X922443Y-5602579D01*
X922443Y-5602579D02*
X931967Y-5583531D01*
X931967Y-5583531D02*
X941491Y-5574008D01*
X941491Y-5574008D02*
X960539Y-5564484D01*
X1112920Y-5764484D02*
X1112920Y-5631150D01*
X1112920Y-5650198D02*
X1122444Y-5640674D01*
X1122444Y-5640674D02*
X1141491Y-5631150D01*
X1141491Y-5631150D02*
X1170063Y-5631150D01*
X1170063Y-5631150D02*
X1189110Y-5640674D01*
X1189110Y-5640674D02*
X1198634Y-5659722D01*
X1198634Y-5659722D02*
X1198634Y-5764484D01*
X1198634Y-5659722D02*
X1208158Y-5640674D01*
X1208158Y-5640674D02*
X1227205Y-5631150D01*
X1227205Y-5631150D02*
X1255777Y-5631150D01*
X1255777Y-5631150D02*
X1274825Y-5640674D01*
X1274825Y-5640674D02*
X1284348Y-5659722D01*
X1284348Y-5659722D02*
X1284348Y-5764484D01*
X1379586Y-5764484D02*
X1379586Y-5631150D01*
X1379586Y-5650198D02*
X1389110Y-5640674D01*
X1389110Y-5640674D02*
X1408158Y-5631150D01*
X1408158Y-5631150D02*
X1436729Y-5631150D01*
X1436729Y-5631150D02*
X1455777Y-5640674D01*
X1455777Y-5640674D02*
X1465301Y-5659722D01*
X1465301Y-5659722D02*
X1465301Y-5764484D01*
X1465301Y-5659722D02*
X1474824Y-5640674D01*
X1474824Y-5640674D02*
X1493872Y-5631150D01*
X1493872Y-5631150D02*
X1522443Y-5631150D01*
X1522443Y-5631150D02*
X1541491Y-5640674D01*
X1541491Y-5640674D02*
X1551015Y-5659722D01*
X1551015Y-5659722D02*
X1551015Y-5764484D01*
X1941491Y-5554960D02*
X1770063Y-5812103D01*
X2198634Y-5564484D02*
X2217682Y-5564484D01*
X2217682Y-5564484D02*
X2236729Y-5574008D01*
X2236729Y-5574008D02*
X2246253Y-5583531D01*
X2246253Y-5583531D02*
X2255777Y-5602579D01*
X2255777Y-5602579D02*
X2265301Y-5640674D01*
X2265301Y-5640674D02*
X2265301Y-5688293D01*
X2265301Y-5688293D02*
X2255777Y-5726388D01*
X2255777Y-5726388D02*
X2246253Y-5745436D01*
X2246253Y-5745436D02*
X2236729Y-5754960D01*
X2236729Y-5754960D02*
X2217682Y-5764484D01*
X2217682Y-5764484D02*
X2198634Y-5764484D01*
X2198634Y-5764484D02*
X2179587Y-5754960D01*
X2179587Y-5754960D02*
X2170063Y-5745436D01*
X2170063Y-5745436D02*
X2160539Y-5726388D01*
X2160539Y-5726388D02*
X2151015Y-5688293D01*
X2151015Y-5688293D02*
X2151015Y-5640674D01*
X2151015Y-5640674D02*
X2160539Y-5602579D01*
X2160539Y-5602579D02*
X2170063Y-5583531D01*
X2170063Y-5583531D02*
X2179587Y-5574008D01*
X2179587Y-5574008D02*
X2198634Y-5564484D01*
X2360539Y-5754960D02*
X2360539Y-5764484D01*
X2360539Y-5764484D02*
X2351015Y-5783531D01*
X2351015Y-5783531D02*
X2341491Y-5793055D01*
X2484348Y-5564484D02*
X2503396Y-5564484D01*
X2503396Y-5564484D02*
X2522444Y-5574008D01*
X2522444Y-5574008D02*
X2531968Y-5583531D01*
X2531968Y-5583531D02*
X2541491Y-5602579D01*
X2541491Y-5602579D02*
X2551015Y-5640674D01*
X2551015Y-5640674D02*
X2551015Y-5688293D01*
X2551015Y-5688293D02*
X2541491Y-5726388D01*
X2541491Y-5726388D02*
X2531968Y-5745436D01*
X2531968Y-5745436D02*
X2522444Y-5754960D01*
X2522444Y-5754960D02*
X2503396Y-5764484D01*
X2503396Y-5764484D02*
X2484348Y-5764484D01*
X2484348Y-5764484D02*
X2465301Y-5754960D01*
X2465301Y-5754960D02*
X2455777Y-5745436D01*
X2455777Y-5745436D02*
X2446253Y-5726388D01*
X2446253Y-5726388D02*
X2436729Y-5688293D01*
X2436729Y-5688293D02*
X2436729Y-5640674D01*
X2436729Y-5640674D02*
X2446253Y-5602579D01*
X2446253Y-5602579D02*
X2455777Y-5583531D01*
X2455777Y-5583531D02*
X2465301Y-5574008D01*
X2465301Y-5574008D02*
X2484348Y-5564484D01*
X2617682Y-5564484D02*
X2741491Y-5564484D01*
X2741491Y-5564484D02*
X2674825Y-5640674D01*
X2674825Y-5640674D02*
X2703396Y-5640674D01*
X2703396Y-5640674D02*
X2722444Y-5650198D01*
X2722444Y-5650198D02*
X2731968Y-5659722D01*
X2731968Y-5659722D02*
X2741491Y-5678769D01*
X2741491Y-5678769D02*
X2741491Y-5726388D01*
X2741491Y-5726388D02*
X2731968Y-5745436D01*
X2731968Y-5745436D02*
X2722444Y-5754960D01*
X2722444Y-5754960D02*
X2703396Y-5764484D01*
X2703396Y-5764484D02*
X2646253Y-5764484D01*
X2646253Y-5764484D02*
X2627206Y-5754960D01*
X2627206Y-5754960D02*
X2617682Y-5745436D01*
X2931967Y-5764484D02*
X2817682Y-5764484D01*
X2874825Y-5764484D02*
X2874825Y-5564484D01*
X2874825Y-5564484D02*
X2855777Y-5593055D01*
X2855777Y-5593055D02*
X2836729Y-5612103D01*
X2836729Y-5612103D02*
X2817682Y-5621627D01*
X3112920Y-5564484D02*
X3017682Y-5564484D01*
X3017682Y-5564484D02*
X3008158Y-5659722D01*
X3008158Y-5659722D02*
X3017682Y-5650198D01*
X3017682Y-5650198D02*
X3036729Y-5640674D01*
X3036729Y-5640674D02*
X3084348Y-5640674D01*
X3084348Y-5640674D02*
X3103396Y-5650198D01*
X3103396Y-5650198D02*
X3112920Y-5659722D01*
X3112920Y-5659722D02*
X3122444Y-5678769D01*
X3122444Y-5678769D02*
X3122444Y-5726388D01*
X3122444Y-5726388D02*
X3112920Y-5745436D01*
X3112920Y-5745436D02*
X3103396Y-5754960D01*
X3103396Y-5754960D02*
X3084348Y-5764484D01*
X3084348Y-5764484D02*
X3036729Y-5764484D01*
X3036729Y-5764484D02*
X3017682Y-5754960D01*
X3017682Y-5754960D02*
X3008158Y-5745436D01*
X3198634Y-5564484D02*
X3198634Y-5602579D01*
X3274825Y-5564484D02*
X3274825Y-5602579D01*
X3570063Y-5840674D02*
X3560539Y-5831150D01*
X3560539Y-5831150D02*
X3541491Y-5802579D01*
X3541491Y-5802579D02*
X3531968Y-5783531D01*
X3531968Y-5783531D02*
X3522444Y-5754960D01*
X3522444Y-5754960D02*
X3512920Y-5707341D01*
X3512920Y-5707341D02*
X3512920Y-5669246D01*
X3512920Y-5669246D02*
X3522444Y-5621627D01*
X3522444Y-5621627D02*
X3531968Y-5593055D01*
X3531968Y-5593055D02*
X3541491Y-5574008D01*
X3541491Y-5574008D02*
X3560539Y-5545436D01*
X3560539Y-5545436D02*
X3570063Y-5535912D01*
X3636729Y-5583531D02*
X3646253Y-5574008D01*
X3646253Y-5574008D02*
X3665301Y-5564484D01*
X3665301Y-5564484D02*
X3712920Y-5564484D01*
X3712920Y-5564484D02*
X3731968Y-5574008D01*
X3731968Y-5574008D02*
X3741491Y-5583531D01*
X3741491Y-5583531D02*
X3751015Y-5602579D01*
X3751015Y-5602579D02*
X3751015Y-5621627D01*
X3751015Y-5621627D02*
X3741491Y-5650198D01*
X3741491Y-5650198D02*
X3627206Y-5764484D01*
X3627206Y-5764484D02*
X3751015Y-5764484D01*
X3989110Y-5764484D02*
X3989110Y-5564484D01*
X4074825Y-5764484D02*
X4074825Y-5659722D01*
X4074825Y-5659722D02*
X4065301Y-5640674D01*
X4065301Y-5640674D02*
X4046253Y-5631150D01*
X4046253Y-5631150D02*
X4017682Y-5631150D01*
X4017682Y-5631150D02*
X3998634Y-5640674D01*
X3998634Y-5640674D02*
X3989110Y-5650198D01*
X4198634Y-5764484D02*
X4179587Y-5754960D01*
X4179587Y-5754960D02*
X4170063Y-5745436D01*
X4170063Y-5745436D02*
X4160539Y-5726388D01*
X4160539Y-5726388D02*
X4160539Y-5669246D01*
X4160539Y-5669246D02*
X4170063Y-5650198D01*
X4170063Y-5650198D02*
X4179587Y-5640674D01*
X4179587Y-5640674D02*
X4198634Y-5631150D01*
X4198634Y-5631150D02*
X4227206Y-5631150D01*
X4227206Y-5631150D02*
X4246253Y-5640674D01*
X4246253Y-5640674D02*
X4255777Y-5650198D01*
X4255777Y-5650198D02*
X4265301Y-5669246D01*
X4265301Y-5669246D02*
X4265301Y-5726388D01*
X4265301Y-5726388D02*
X4255777Y-5745436D01*
X4255777Y-5745436D02*
X4246253Y-5754960D01*
X4246253Y-5754960D02*
X4227206Y-5764484D01*
X4227206Y-5764484D02*
X4198634Y-5764484D01*
X4379587Y-5764484D02*
X4360539Y-5754960D01*
X4360539Y-5754960D02*
X4351015Y-5735912D01*
X4351015Y-5735912D02*
X4351015Y-5564484D01*
X4531968Y-5754960D02*
X4512920Y-5764484D01*
X4512920Y-5764484D02*
X4474825Y-5764484D01*
X4474825Y-5764484D02*
X4455777Y-5754960D01*
X4455777Y-5754960D02*
X4446253Y-5735912D01*
X4446253Y-5735912D02*
X4446253Y-5659722D01*
X4446253Y-5659722D02*
X4455777Y-5640674D01*
X4455777Y-5640674D02*
X4474825Y-5631150D01*
X4474825Y-5631150D02*
X4512920Y-5631150D01*
X4512920Y-5631150D02*
X4531968Y-5640674D01*
X4531968Y-5640674D02*
X4541492Y-5659722D01*
X4541492Y-5659722D02*
X4541492Y-5678769D01*
X4541492Y-5678769D02*
X4446253Y-5697817D01*
X4617682Y-5754960D02*
X4636730Y-5764484D01*
X4636730Y-5764484D02*
X4674825Y-5764484D01*
X4674825Y-5764484D02*
X4693873Y-5754960D01*
X4693873Y-5754960D02*
X4703396Y-5735912D01*
X4703396Y-5735912D02*
X4703396Y-5726388D01*
X4703396Y-5726388D02*
X4693873Y-5707341D01*
X4693873Y-5707341D02*
X4674825Y-5697817D01*
X4674825Y-5697817D02*
X4646253Y-5697817D01*
X4646253Y-5697817D02*
X4627206Y-5688293D01*
X4627206Y-5688293D02*
X4617682Y-5669246D01*
X4617682Y-5669246D02*
X4617682Y-5659722D01*
X4617682Y-5659722D02*
X4627206Y-5640674D01*
X4627206Y-5640674D02*
X4646253Y-5631150D01*
X4646253Y-5631150D02*
X4674825Y-5631150D01*
X4674825Y-5631150D02*
X4693873Y-5640674D01*
X4770063Y-5840674D02*
X4779587Y-5831150D01*
X4779587Y-5831150D02*
X4798634Y-5802579D01*
X4798634Y-5802579D02*
X4808158Y-5783531D01*
X4808158Y-5783531D02*
X4817682Y-5754960D01*
X4817682Y-5754960D02*
X4827206Y-5707341D01*
X4827206Y-5707341D02*
X4827206Y-5669246D01*
X4827206Y-5669246D02*
X4817682Y-5621627D01*
X4817682Y-5621627D02*
X4808158Y-5593055D01*
X4808158Y-5593055D02*
X4798634Y-5574008D01*
X4798634Y-5574008D02*
X4779587Y-5545436D01*
X4779587Y-5545436D02*
X4770063Y-5535912D01*
M02*
