%TF.GenerationSoftware,KiCad,Pcbnew,10.0.4*%
%TF.CreationDate,2026-07-28T20:20:51-03:00*%
%TF.ProjectId,tkmem128-expansor,746b6d65-6d31-4323-982d-657870616e73,rev?*%
%TF.SameCoordinates,Original*%
%TF.FileFunction,Copper,L2,Bot*%
%TF.FilePolarity,Positive*%
%FSLAX46Y46*%
G04 Gerber Fmt 4.6, Leading zero omitted, Abs format (unit mm)*
G04 Created by KiCad (PCBNEW 10.0.4) date 2026-07-28 20:20:51*
%MOMM*%
%LPD*%
G01*
G04 APERTURE LIST*
%TA.AperFunction,SMDPad,CuDef*%
%ADD10R,1.524000X7.620000*%
%TD*%
%TA.AperFunction,SMDPad,CuDef*%
%ADD11R,1.700000X5.000000*%
%TD*%
%TA.AperFunction,SMDPad,CuDef*%
%ADD12R,1.500000X2.500000*%
%TD*%
%TA.AperFunction,Conductor*%
%ADD13C,1.500000*%
%TD*%
G04 APERTURE END LIST*
D10*
%TO.P,J2,1*%
%TO.N,A14*%
X73660000Y-41190000D03*
%TO.P,J2,2*%
%TO.N,A12*%
X71120000Y-41190000D03*
%TO.P,J2,3*%
%TO.N,+5V*%
X68580000Y-41190000D03*
%TO.P,J2,4*%
%TO.N,BUS_9V*%
X66040000Y-41190000D03*
%TO.P,J2,6*%
%TO.N,GND*%
X60960000Y-41190000D03*
%TO.P,J2,7*%
%TO.N,BUS_P07*%
X58420000Y-41190000D03*
%TO.P,J2,8*%
%TO.N,BUS_CLK*%
X55880000Y-41190000D03*
%TO.P,J2,9*%
%TO.N,A0*%
X53340000Y-41190000D03*
%TO.P,J2,10*%
%TO.N,A1*%
X50800000Y-41190000D03*
%TO.P,J2,11*%
%TO.N,A2*%
X48260000Y-41190000D03*
%TO.P,J2,12*%
%TO.N,A3*%
X45720000Y-41190000D03*
%TO.P,J2,13*%
%TO.N,BUS_IORQGE*%
X43180000Y-41190000D03*
%TO.P,J2,14*%
%TO.N,GND*%
X40640000Y-41190000D03*
%TO.P,J2,15*%
%TO.N,BUS_P15*%
X38100000Y-41190000D03*
%TO.P,J2,16*%
%TO.N,BUS_P16*%
X35560000Y-41190000D03*
%TO.P,J2,17*%
%TO.N,RAMDIS*%
X33020000Y-41190000D03*
%TO.P,J2,18*%
%TO.N,BUS_P18*%
X30480000Y-41190000D03*
%TO.P,J2,19*%
%TO.N,BUS_BUSREQ*%
X27940000Y-41190000D03*
%TO.P,J2,20*%
%TO.N,RESET_N*%
X25400000Y-41190000D03*
%TO.P,J2,21*%
%TO.N,A7*%
X22860000Y-41190000D03*
%TO.P,J2,22*%
%TO.N,A6*%
X20320000Y-41190000D03*
%TO.P,J2,23*%
%TO.N,A5*%
X17780000Y-41190000D03*
%TO.P,J2,24*%
%TO.N,A4*%
X15240000Y-41190000D03*
%TO.P,J2,25*%
%TO.N,ROMCS_BUS*%
X12700000Y-41190000D03*
%TO.P,J2,26*%
%TO.N,BUS_BUSACK*%
X10160000Y-41190000D03*
%TO.P,J2,27*%
%TO.N,A9*%
X7620000Y-41190000D03*
%TO.P,J2,28*%
%TO.N,A11*%
X5080000Y-41190000D03*
%TD*%
D11*
%TO.P,J1,1*%
%TO.N,A14*%
X73660000Y-2500000D03*
%TO.P,J1,2*%
%TO.N,A12*%
X71120000Y-2500000D03*
%TO.P,J1,3*%
%TO.N,+5V*%
X68580000Y-2500000D03*
%TO.P,J1,4*%
%TO.N,BUS_9V*%
X66040000Y-2500000D03*
%TO.P,J1,6*%
%TO.N,GND*%
X60960000Y-2500000D03*
%TO.P,J1,7*%
%TO.N,BUS_P07*%
X58420000Y-2500000D03*
%TO.P,J1,8*%
%TO.N,BUS_CLK*%
X55880000Y-2500000D03*
%TO.P,J1,9*%
%TO.N,A0*%
X53340000Y-2500000D03*
%TO.P,J1,10*%
%TO.N,A1*%
X50800000Y-2500000D03*
%TO.P,J1,11*%
%TO.N,A2*%
X48260000Y-2500000D03*
%TO.P,J1,12*%
%TO.N,A3*%
X45720000Y-2500000D03*
%TO.P,J1,13*%
%TO.N,BUS_IORQGE*%
X43180000Y-2500000D03*
%TO.P,J1,14*%
%TO.N,GND*%
X40640000Y-2500000D03*
%TO.P,J1,15*%
%TO.N,BUS_P15*%
X38100000Y-2500000D03*
%TO.P,J1,16*%
%TO.N,BUS_P16*%
X35560000Y-2500000D03*
%TO.P,J1,17*%
%TO.N,RAMDIS*%
X33020000Y-2500000D03*
%TO.P,J1,18*%
%TO.N,BUS_P18*%
X30480000Y-2500000D03*
%TO.P,J1,19*%
%TO.N,BUS_BUSREQ*%
X27940000Y-2500000D03*
%TO.P,J1,20*%
%TO.N,RESET_N*%
X25400000Y-2500000D03*
%TO.P,J1,21*%
%TO.N,A7*%
X22860000Y-2500000D03*
%TO.P,J1,22*%
%TO.N,A6*%
X20320000Y-2500000D03*
%TO.P,J1,23*%
%TO.N,A5*%
X17780000Y-2500000D03*
%TO.P,J1,24*%
%TO.N,A4*%
X15240000Y-2500000D03*
%TO.P,J1,25*%
%TO.N,ROMCS_BUS*%
X12700000Y-2500000D03*
%TO.P,J1,26*%
%TO.N,BUS_BUSACK*%
X10160000Y-2500000D03*
%TO.P,J1,27*%
%TO.N,A9*%
X7620000Y-2500000D03*
%TO.P,J1,28*%
%TO.N,A11*%
X5080000Y-2500000D03*
%TD*%
D12*
%TO.P,W1,1*%
%TO.N,GND*%
X40640000Y-33000000D03*
X60960000Y-33000000D03*
%TD*%
%TO.N,A14*%
D13*
X73660000Y-2500000D02*
X73660000Y-41190000D01*
%TO.N,A12*%
X71120000Y-2500000D02*
X71120000Y-41190000D01*
%TO.N,+5V*%
X68580000Y-2500000D02*
X68580000Y-41190000D01*
%TO.N,BUS_9V*%
X66040000Y-2500000D02*
X66040000Y-41190000D01*
%TO.N,GND*%
X60960000Y-2500000D02*
X60960000Y-41190000D01*
X40640000Y-2500000D02*
X40640000Y-41190000D01*
%TO.N,BUS_P07*%
X58420000Y-2500000D02*
X58420000Y-41190000D01*
%TO.N,BUS_CLK*%
X55880000Y-2500000D02*
X55880000Y-41190000D01*
%TO.N,A0*%
X53340000Y-2500000D02*
X53340000Y-41190000D01*
%TO.N,A1*%
X50800000Y-2500000D02*
X50800000Y-41190000D01*
%TO.N,A2*%
X48260000Y-2500000D02*
X48260000Y-41190000D01*
%TO.N,A3*%
X45720000Y-2500000D02*
X45720000Y-41190000D01*
%TO.N,BUS_IORQGE*%
X43180000Y-2500000D02*
X43180000Y-41190000D01*
%TO.N,BUS_P15*%
X38100000Y-2500000D02*
X38100000Y-41190000D01*
%TO.N,BUS_P16*%
X35560000Y-2500000D02*
X35560000Y-41190000D01*
%TO.N,RAMDIS*%
X33020000Y-2500000D02*
X33020000Y-41190000D01*
%TO.N,BUS_P18*%
X30480000Y-2500000D02*
X30480000Y-41190000D01*
%TO.N,BUS_BUSREQ*%
X27940000Y-2500000D02*
X27940000Y-41190000D01*
%TO.N,RESET_N*%
X25400000Y-2500000D02*
X25400000Y-41190000D01*
%TO.N,A7*%
X22860000Y-2500000D02*
X22860000Y-41190000D01*
%TO.N,A6*%
X20320000Y-2500000D02*
X20320000Y-41190000D01*
%TO.N,A5*%
X17780000Y-2500000D02*
X17780000Y-41190000D01*
%TO.N,A4*%
X15240000Y-2500000D02*
X15240000Y-41190000D01*
%TO.N,ROMCS_BUS*%
X12700000Y-2500000D02*
X12700000Y-41190000D01*
%TO.N,BUS_BUSACK*%
X10160000Y-2500000D02*
X10160000Y-41190000D01*
%TO.N,A9*%
X7620000Y-2500000D02*
X7620000Y-41190000D01*
%TO.N,A11*%
X5080000Y-2500000D02*
X5080000Y-41190000D01*
%TD*%
M02*
