%TF.GenerationSoftware,KiCad,Pcbnew,10.0.4*%
%TF.CreationDate,2026-07-27T02:29:31-03:00*%
%TF.ProjectId,tkmem128-expansor,746b6d65-6d31-4323-982d-657870616e73,rev?*%
%TF.SameCoordinates,Original*%
%TF.FileFunction,Legend,Top*%
%TF.FilePolarity,Positive*%
%FSLAX46Y46*%
G04 Gerber Fmt 4.6, Leading zero omitted, Abs format (unit mm)*
G04 Created by KiCad (PCBNEW 10.0.4) date 2026-07-27 02:29:31*
%MOMM*%
%LPD*%
G01*
G04 APERTURE LIST*
%ADD10C,0.200000*%
%ADD11C,0.150000*%
%ADD12C,0.120000*%
%ADD13C,1.600000*%
%ADD14R,1.700000X5.000000*%
%ADD15R,1.524000X7.620000*%
G04 APERTURE END LIST*
D10*
X3000000Y-30000000D02*
X75700000Y-30000000D01*
D11*
X22360471Y-10362295D02*
X22360471Y-9828961D01*
X22360471Y-9562295D02*
X22322375Y-9600390D01*
X22322375Y-9600390D02*
X22360471Y-9638485D01*
X22360471Y-9638485D02*
X22398566Y-9600390D01*
X22398566Y-9600390D02*
X22360471Y-9562295D01*
X22360471Y-9562295D02*
X22360471Y-9638485D01*
X22855708Y-10362295D02*
X22779518Y-10324200D01*
X22779518Y-10324200D02*
X22741423Y-10248009D01*
X22741423Y-10248009D02*
X22741423Y-9562295D01*
X23160471Y-10362295D02*
X23160471Y-9562295D01*
X23503328Y-10362295D02*
X23503328Y-9943247D01*
X23503328Y-9943247D02*
X23465233Y-9867057D01*
X23465233Y-9867057D02*
X23389042Y-9828961D01*
X23389042Y-9828961D02*
X23274756Y-9828961D01*
X23274756Y-9828961D02*
X23198566Y-9867057D01*
X23198566Y-9867057D02*
X23160471Y-9905152D01*
X24227138Y-10362295D02*
X24227138Y-9943247D01*
X24227138Y-9943247D02*
X24189043Y-9867057D01*
X24189043Y-9867057D02*
X24112852Y-9828961D01*
X24112852Y-9828961D02*
X23960471Y-9828961D01*
X23960471Y-9828961D02*
X23884281Y-9867057D01*
X24227138Y-10324200D02*
X24150947Y-10362295D01*
X24150947Y-10362295D02*
X23960471Y-10362295D01*
X23960471Y-10362295D02*
X23884281Y-10324200D01*
X23884281Y-10324200D02*
X23846185Y-10248009D01*
X23846185Y-10248009D02*
X23846185Y-10171819D01*
X23846185Y-10171819D02*
X23884281Y-10095628D01*
X23884281Y-10095628D02*
X23960471Y-10057533D01*
X23960471Y-10057533D02*
X24150947Y-10057533D01*
X24150947Y-10057533D02*
X24227138Y-10019438D01*
X24569995Y-10324200D02*
X24646186Y-10362295D01*
X24646186Y-10362295D02*
X24798567Y-10362295D01*
X24798567Y-10362295D02*
X24874757Y-10324200D01*
X24874757Y-10324200D02*
X24912853Y-10248009D01*
X24912853Y-10248009D02*
X24912853Y-10209914D01*
X24912853Y-10209914D02*
X24874757Y-10133723D01*
X24874757Y-10133723D02*
X24798567Y-10095628D01*
X24798567Y-10095628D02*
X24684281Y-10095628D01*
X24684281Y-10095628D02*
X24608091Y-10057533D01*
X24608091Y-10057533D02*
X24569995Y-9981342D01*
X24569995Y-9981342D02*
X24569995Y-9943247D01*
X24569995Y-9943247D02*
X24608091Y-9867057D01*
X24608091Y-9867057D02*
X24684281Y-9828961D01*
X24684281Y-9828961D02*
X24798567Y-9828961D01*
X24798567Y-9828961D02*
X24874757Y-9867057D01*
X26208091Y-10362295D02*
X26208091Y-9943247D01*
X26208091Y-9943247D02*
X26169996Y-9867057D01*
X26169996Y-9867057D02*
X26093805Y-9828961D01*
X26093805Y-9828961D02*
X25941424Y-9828961D01*
X25941424Y-9828961D02*
X25865234Y-9867057D01*
X26208091Y-10324200D02*
X26131900Y-10362295D01*
X26131900Y-10362295D02*
X25941424Y-10362295D01*
X25941424Y-10362295D02*
X25865234Y-10324200D01*
X25865234Y-10324200D02*
X25827138Y-10248009D01*
X25827138Y-10248009D02*
X25827138Y-10171819D01*
X25827138Y-10171819D02*
X25865234Y-10095628D01*
X25865234Y-10095628D02*
X25941424Y-10057533D01*
X25941424Y-10057533D02*
X26131900Y-10057533D01*
X26131900Y-10057533D02*
X26208091Y-10019438D01*
X26474758Y-9828961D02*
X26779520Y-9828961D01*
X26589044Y-9562295D02*
X26589044Y-10248009D01*
X26589044Y-10248009D02*
X26627139Y-10324200D01*
X26627139Y-10324200D02*
X26703329Y-10362295D01*
X26703329Y-10362295D02*
X26779520Y-10362295D01*
X27350949Y-10324200D02*
X27274758Y-10362295D01*
X27274758Y-10362295D02*
X27122377Y-10362295D01*
X27122377Y-10362295D02*
X27046187Y-10324200D01*
X27046187Y-10324200D02*
X27008091Y-10248009D01*
X27008091Y-10248009D02*
X27008091Y-9943247D01*
X27008091Y-9943247D02*
X27046187Y-9867057D01*
X27046187Y-9867057D02*
X27122377Y-9828961D01*
X27122377Y-9828961D02*
X27274758Y-9828961D01*
X27274758Y-9828961D02*
X27350949Y-9867057D01*
X27350949Y-9867057D02*
X27389044Y-9943247D01*
X27389044Y-9943247D02*
X27389044Y-10019438D01*
X27389044Y-10019438D02*
X27008091Y-10095628D01*
X28684282Y-10362295D02*
X28684282Y-9943247D01*
X28684282Y-9943247D02*
X28646187Y-9867057D01*
X28646187Y-9867057D02*
X28569996Y-9828961D01*
X28569996Y-9828961D02*
X28417615Y-9828961D01*
X28417615Y-9828961D02*
X28341425Y-9867057D01*
X28684282Y-10324200D02*
X28608091Y-10362295D01*
X28608091Y-10362295D02*
X28417615Y-10362295D01*
X28417615Y-10362295D02*
X28341425Y-10324200D01*
X28341425Y-10324200D02*
X28303329Y-10248009D01*
X28303329Y-10248009D02*
X28303329Y-10171819D01*
X28303329Y-10171819D02*
X28341425Y-10095628D01*
X28341425Y-10095628D02*
X28417615Y-10057533D01*
X28417615Y-10057533D02*
X28608091Y-10057533D01*
X28608091Y-10057533D02*
X28684282Y-10019438D01*
X29674759Y-10362295D02*
X29674759Y-9562295D01*
X29674759Y-9867057D02*
X29750949Y-9828961D01*
X29750949Y-9828961D02*
X29903330Y-9828961D01*
X29903330Y-9828961D02*
X29979521Y-9867057D01*
X29979521Y-9867057D02*
X30017616Y-9905152D01*
X30017616Y-9905152D02*
X30055711Y-9981342D01*
X30055711Y-9981342D02*
X30055711Y-10209914D01*
X30055711Y-10209914D02*
X30017616Y-10286104D01*
X30017616Y-10286104D02*
X29979521Y-10324200D01*
X29979521Y-10324200D02*
X29903330Y-10362295D01*
X29903330Y-10362295D02*
X29750949Y-10362295D01*
X29750949Y-10362295D02*
X29674759Y-10324200D01*
X30512854Y-10362295D02*
X30436664Y-10324200D01*
X30436664Y-10324200D02*
X30398569Y-10286104D01*
X30398569Y-10286104D02*
X30360473Y-10209914D01*
X30360473Y-10209914D02*
X30360473Y-9981342D01*
X30360473Y-9981342D02*
X30398569Y-9905152D01*
X30398569Y-9905152D02*
X30436664Y-9867057D01*
X30436664Y-9867057D02*
X30512854Y-9828961D01*
X30512854Y-9828961D02*
X30627140Y-9828961D01*
X30627140Y-9828961D02*
X30703331Y-9867057D01*
X30703331Y-9867057D02*
X30741426Y-9905152D01*
X30741426Y-9905152D02*
X30779521Y-9981342D01*
X30779521Y-9981342D02*
X30779521Y-10209914D01*
X30779521Y-10209914D02*
X30741426Y-10286104D01*
X30741426Y-10286104D02*
X30703331Y-10324200D01*
X30703331Y-10324200D02*
X30627140Y-10362295D01*
X30627140Y-10362295D02*
X30512854Y-10362295D01*
X31122379Y-10362295D02*
X31122379Y-9828961D01*
X31122379Y-9981342D02*
X31160474Y-9905152D01*
X31160474Y-9905152D02*
X31198569Y-9867057D01*
X31198569Y-9867057D02*
X31274760Y-9828961D01*
X31274760Y-9828961D02*
X31350950Y-9828961D01*
X31960474Y-10362295D02*
X31960474Y-9562295D01*
X31960474Y-10324200D02*
X31884283Y-10362295D01*
X31884283Y-10362295D02*
X31731902Y-10362295D01*
X31731902Y-10362295D02*
X31655712Y-10324200D01*
X31655712Y-10324200D02*
X31617617Y-10286104D01*
X31617617Y-10286104D02*
X31579521Y-10209914D01*
X31579521Y-10209914D02*
X31579521Y-9981342D01*
X31579521Y-9981342D02*
X31617617Y-9905152D01*
X31617617Y-9905152D02*
X31655712Y-9867057D01*
X31655712Y-9867057D02*
X31731902Y-9828961D01*
X31731902Y-9828961D02*
X31884283Y-9828961D01*
X31884283Y-9828961D02*
X31960474Y-9867057D01*
X32684284Y-10362295D02*
X32684284Y-9943247D01*
X32684284Y-9943247D02*
X32646189Y-9867057D01*
X32646189Y-9867057D02*
X32569998Y-9828961D01*
X32569998Y-9828961D02*
X32417617Y-9828961D01*
X32417617Y-9828961D02*
X32341427Y-9867057D01*
X32684284Y-10324200D02*
X32608093Y-10362295D01*
X32608093Y-10362295D02*
X32417617Y-10362295D01*
X32417617Y-10362295D02*
X32341427Y-10324200D01*
X32341427Y-10324200D02*
X32303331Y-10248009D01*
X32303331Y-10248009D02*
X32303331Y-10171819D01*
X32303331Y-10171819D02*
X32341427Y-10095628D01*
X32341427Y-10095628D02*
X32417617Y-10057533D01*
X32417617Y-10057533D02*
X32608093Y-10057533D01*
X32608093Y-10057533D02*
X32684284Y-10019438D01*
X33065237Y-10286104D02*
X33103332Y-10324200D01*
X33103332Y-10324200D02*
X33065237Y-10362295D01*
X33065237Y-10362295D02*
X33027141Y-10324200D01*
X33027141Y-10324200D02*
X33065237Y-10286104D01*
X33065237Y-10286104D02*
X33065237Y-10362295D01*
X33065237Y-9867057D02*
X33103332Y-9905152D01*
X33103332Y-9905152D02*
X33065237Y-9943247D01*
X33065237Y-9943247D02*
X33027141Y-9905152D01*
X33027141Y-9905152D02*
X33065237Y-9867057D01*
X33065237Y-9867057D02*
X33065237Y-9943247D01*
X34017617Y-10324200D02*
X34093808Y-10362295D01*
X34093808Y-10362295D02*
X34246189Y-10362295D01*
X34246189Y-10362295D02*
X34322379Y-10324200D01*
X34322379Y-10324200D02*
X34360475Y-10248009D01*
X34360475Y-10248009D02*
X34360475Y-10209914D01*
X34360475Y-10209914D02*
X34322379Y-10133723D01*
X34322379Y-10133723D02*
X34246189Y-10095628D01*
X34246189Y-10095628D02*
X34131903Y-10095628D01*
X34131903Y-10095628D02*
X34055713Y-10057533D01*
X34055713Y-10057533D02*
X34017617Y-9981342D01*
X34017617Y-9981342D02*
X34017617Y-9943247D01*
X34017617Y-9943247D02*
X34055713Y-9867057D01*
X34055713Y-9867057D02*
X34131903Y-9828961D01*
X34131903Y-9828961D02*
X34246189Y-9828961D01*
X34246189Y-9828961D02*
X34322379Y-9867057D01*
X35008094Y-10324200D02*
X34931903Y-10362295D01*
X34931903Y-10362295D02*
X34779522Y-10362295D01*
X34779522Y-10362295D02*
X34703332Y-10324200D01*
X34703332Y-10324200D02*
X34665236Y-10248009D01*
X34665236Y-10248009D02*
X34665236Y-9943247D01*
X34665236Y-9943247D02*
X34703332Y-9867057D01*
X34703332Y-9867057D02*
X34779522Y-9828961D01*
X34779522Y-9828961D02*
X34931903Y-9828961D01*
X34931903Y-9828961D02*
X35008094Y-9867057D01*
X35008094Y-9867057D02*
X35046189Y-9943247D01*
X35046189Y-9943247D02*
X35046189Y-10019438D01*
X35046189Y-10019438D02*
X34665236Y-10095628D01*
X35389046Y-10362295D02*
X35389046Y-9828961D01*
X35389046Y-9981342D02*
X35427141Y-9905152D01*
X35427141Y-9905152D02*
X35465236Y-9867057D01*
X35465236Y-9867057D02*
X35541427Y-9828961D01*
X35541427Y-9828961D02*
X35617617Y-9828961D01*
X35808093Y-9828961D02*
X35998569Y-10362295D01*
X35998569Y-10362295D02*
X36189046Y-9828961D01*
X36798570Y-10324200D02*
X36722379Y-10362295D01*
X36722379Y-10362295D02*
X36569998Y-10362295D01*
X36569998Y-10362295D02*
X36493808Y-10324200D01*
X36493808Y-10324200D02*
X36455712Y-10248009D01*
X36455712Y-10248009D02*
X36455712Y-9943247D01*
X36455712Y-9943247D02*
X36493808Y-9867057D01*
X36493808Y-9867057D02*
X36569998Y-9828961D01*
X36569998Y-9828961D02*
X36722379Y-9828961D01*
X36722379Y-9828961D02*
X36798570Y-9867057D01*
X36798570Y-9867057D02*
X36836665Y-9943247D01*
X36836665Y-9943247D02*
X36836665Y-10019438D01*
X36836665Y-10019438D02*
X36455712Y-10095628D01*
X37179522Y-10362295D02*
X37179522Y-9828961D01*
X37179522Y-9905152D02*
X37217617Y-9867057D01*
X37217617Y-9867057D02*
X37293807Y-9828961D01*
X37293807Y-9828961D02*
X37408093Y-9828961D01*
X37408093Y-9828961D02*
X37484284Y-9867057D01*
X37484284Y-9867057D02*
X37522379Y-9943247D01*
X37522379Y-9943247D02*
X37522379Y-10362295D01*
X37522379Y-9943247D02*
X37560474Y-9867057D01*
X37560474Y-9867057D02*
X37636665Y-9828961D01*
X37636665Y-9828961D02*
X37750950Y-9828961D01*
X37750950Y-9828961D02*
X37827141Y-9867057D01*
X37827141Y-9867057D02*
X37865236Y-9943247D01*
X37865236Y-9943247D02*
X37865236Y-10362295D01*
X38855713Y-9828961D02*
X38855713Y-10628961D01*
X38855713Y-9867057D02*
X38931903Y-9828961D01*
X38931903Y-9828961D02*
X39084284Y-9828961D01*
X39084284Y-9828961D02*
X39160475Y-9867057D01*
X39160475Y-9867057D02*
X39198570Y-9905152D01*
X39198570Y-9905152D02*
X39236665Y-9981342D01*
X39236665Y-9981342D02*
X39236665Y-10209914D01*
X39236665Y-10209914D02*
X39198570Y-10286104D01*
X39198570Y-10286104D02*
X39160475Y-10324200D01*
X39160475Y-10324200D02*
X39084284Y-10362295D01*
X39084284Y-10362295D02*
X38931903Y-10362295D01*
X38931903Y-10362295D02*
X38855713Y-10324200D01*
X39922380Y-10362295D02*
X39922380Y-9943247D01*
X39922380Y-9943247D02*
X39884285Y-9867057D01*
X39884285Y-9867057D02*
X39808094Y-9828961D01*
X39808094Y-9828961D02*
X39655713Y-9828961D01*
X39655713Y-9828961D02*
X39579523Y-9867057D01*
X39922380Y-10324200D02*
X39846189Y-10362295D01*
X39846189Y-10362295D02*
X39655713Y-10362295D01*
X39655713Y-10362295D02*
X39579523Y-10324200D01*
X39579523Y-10324200D02*
X39541427Y-10248009D01*
X39541427Y-10248009D02*
X39541427Y-10171819D01*
X39541427Y-10171819D02*
X39579523Y-10095628D01*
X39579523Y-10095628D02*
X39655713Y-10057533D01*
X39655713Y-10057533D02*
X39846189Y-10057533D01*
X39846189Y-10057533D02*
X39922380Y-10019438D01*
X40303333Y-10362295D02*
X40303333Y-9828961D01*
X40303333Y-9981342D02*
X40341428Y-9905152D01*
X40341428Y-9905152D02*
X40379523Y-9867057D01*
X40379523Y-9867057D02*
X40455714Y-9828961D01*
X40455714Y-9828961D02*
X40531904Y-9828961D01*
X41141428Y-10362295D02*
X41141428Y-9943247D01*
X41141428Y-9943247D02*
X41103333Y-9867057D01*
X41103333Y-9867057D02*
X41027142Y-9828961D01*
X41027142Y-9828961D02*
X40874761Y-9828961D01*
X40874761Y-9828961D02*
X40798571Y-9867057D01*
X41141428Y-10324200D02*
X41065237Y-10362295D01*
X41065237Y-10362295D02*
X40874761Y-10362295D01*
X40874761Y-10362295D02*
X40798571Y-10324200D01*
X40798571Y-10324200D02*
X40760475Y-10248009D01*
X40760475Y-10248009D02*
X40760475Y-10171819D01*
X40760475Y-10171819D02*
X40798571Y-10095628D01*
X40798571Y-10095628D02*
X40874761Y-10057533D01*
X40874761Y-10057533D02*
X41065237Y-10057533D01*
X41065237Y-10057533D02*
X41141428Y-10019438D01*
X42017619Y-9828961D02*
X42322381Y-9828961D01*
X42131905Y-9562295D02*
X42131905Y-10248009D01*
X42131905Y-10248009D02*
X42170000Y-10324200D01*
X42170000Y-10324200D02*
X42246190Y-10362295D01*
X42246190Y-10362295D02*
X42322381Y-10362295D01*
X42893810Y-10324200D02*
X42817619Y-10362295D01*
X42817619Y-10362295D02*
X42665238Y-10362295D01*
X42665238Y-10362295D02*
X42589048Y-10324200D01*
X42589048Y-10324200D02*
X42550952Y-10248009D01*
X42550952Y-10248009D02*
X42550952Y-9943247D01*
X42550952Y-9943247D02*
X42589048Y-9867057D01*
X42589048Y-9867057D02*
X42665238Y-9828961D01*
X42665238Y-9828961D02*
X42817619Y-9828961D01*
X42817619Y-9828961D02*
X42893810Y-9867057D01*
X42893810Y-9867057D02*
X42931905Y-9943247D01*
X42931905Y-9943247D02*
X42931905Y-10019438D01*
X42931905Y-10019438D02*
X42550952Y-10095628D01*
X43274762Y-10362295D02*
X43274762Y-9828961D01*
X43274762Y-9981342D02*
X43312857Y-9905152D01*
X43312857Y-9905152D02*
X43350952Y-9867057D01*
X43350952Y-9867057D02*
X43427143Y-9828961D01*
X43427143Y-9828961D02*
X43503333Y-9828961D01*
X43770000Y-10362295D02*
X43770000Y-9828961D01*
X43770000Y-9905152D02*
X43808095Y-9867057D01*
X43808095Y-9867057D02*
X43884285Y-9828961D01*
X43884285Y-9828961D02*
X43998571Y-9828961D01*
X43998571Y-9828961D02*
X44074762Y-9867057D01*
X44074762Y-9867057D02*
X44112857Y-9943247D01*
X44112857Y-9943247D02*
X44112857Y-10362295D01*
X44112857Y-9943247D02*
X44150952Y-9867057D01*
X44150952Y-9867057D02*
X44227143Y-9828961D01*
X44227143Y-9828961D02*
X44341428Y-9828961D01*
X44341428Y-9828961D02*
X44417619Y-9867057D01*
X44417619Y-9867057D02*
X44455714Y-9943247D01*
X44455714Y-9943247D02*
X44455714Y-10362295D01*
X44836667Y-10362295D02*
X44836667Y-9828961D01*
X44836667Y-9562295D02*
X44798571Y-9600390D01*
X44798571Y-9600390D02*
X44836667Y-9638485D01*
X44836667Y-9638485D02*
X44874762Y-9600390D01*
X44874762Y-9600390D02*
X44836667Y-9562295D01*
X44836667Y-9562295D02*
X44836667Y-9638485D01*
X45217619Y-9828961D02*
X45217619Y-10362295D01*
X45217619Y-9905152D02*
X45255714Y-9867057D01*
X45255714Y-9867057D02*
X45331904Y-9828961D01*
X45331904Y-9828961D02*
X45446190Y-9828961D01*
X45446190Y-9828961D02*
X45522381Y-9867057D01*
X45522381Y-9867057D02*
X45560476Y-9943247D01*
X45560476Y-9943247D02*
X45560476Y-10362295D01*
X46284286Y-10362295D02*
X46284286Y-9943247D01*
X46284286Y-9943247D02*
X46246191Y-9867057D01*
X46246191Y-9867057D02*
X46170000Y-9828961D01*
X46170000Y-9828961D02*
X46017619Y-9828961D01*
X46017619Y-9828961D02*
X45941429Y-9867057D01*
X46284286Y-10324200D02*
X46208095Y-10362295D01*
X46208095Y-10362295D02*
X46017619Y-10362295D01*
X46017619Y-10362295D02*
X45941429Y-10324200D01*
X45941429Y-10324200D02*
X45903333Y-10248009D01*
X45903333Y-10248009D02*
X45903333Y-10171819D01*
X45903333Y-10171819D02*
X45941429Y-10095628D01*
X45941429Y-10095628D02*
X46017619Y-10057533D01*
X46017619Y-10057533D02*
X46208095Y-10057533D01*
X46208095Y-10057533D02*
X46284286Y-10019438D01*
X46779524Y-10362295D02*
X46703334Y-10324200D01*
X46703334Y-10324200D02*
X46665239Y-10248009D01*
X46665239Y-10248009D02*
X46665239Y-9562295D01*
X48036668Y-10324200D02*
X47960477Y-10362295D01*
X47960477Y-10362295D02*
X47808096Y-10362295D01*
X47808096Y-10362295D02*
X47731906Y-10324200D01*
X47731906Y-10324200D02*
X47693811Y-10286104D01*
X47693811Y-10286104D02*
X47655715Y-10209914D01*
X47655715Y-10209914D02*
X47655715Y-9981342D01*
X47655715Y-9981342D02*
X47693811Y-9905152D01*
X47693811Y-9905152D02*
X47731906Y-9867057D01*
X47731906Y-9867057D02*
X47808096Y-9828961D01*
X47808096Y-9828961D02*
X47960477Y-9828961D01*
X47960477Y-9828961D02*
X48036668Y-9867057D01*
X48722382Y-9828961D02*
X48722382Y-10362295D01*
X48379525Y-9828961D02*
X48379525Y-10248009D01*
X48379525Y-10248009D02*
X48417620Y-10324200D01*
X48417620Y-10324200D02*
X48493810Y-10362295D01*
X48493810Y-10362295D02*
X48608096Y-10362295D01*
X48608096Y-10362295D02*
X48684287Y-10324200D01*
X48684287Y-10324200D02*
X48722382Y-10286104D01*
X49103335Y-10362295D02*
X49103335Y-9828961D01*
X49103335Y-9981342D02*
X49141430Y-9905152D01*
X49141430Y-9905152D02*
X49179525Y-9867057D01*
X49179525Y-9867057D02*
X49255716Y-9828961D01*
X49255716Y-9828961D02*
X49331906Y-9828961D01*
X49484287Y-9828961D02*
X49789049Y-9828961D01*
X49598573Y-9562295D02*
X49598573Y-10248009D01*
X49598573Y-10248009D02*
X49636668Y-10324200D01*
X49636668Y-10324200D02*
X49712858Y-10362295D01*
X49712858Y-10362295D02*
X49789049Y-10362295D01*
X50170001Y-10362295D02*
X50093811Y-10324200D01*
X50093811Y-10324200D02*
X50055716Y-10286104D01*
X50055716Y-10286104D02*
X50017620Y-10209914D01*
X50017620Y-10209914D02*
X50017620Y-9981342D01*
X50017620Y-9981342D02*
X50055716Y-9905152D01*
X50055716Y-9905152D02*
X50093811Y-9867057D01*
X50093811Y-9867057D02*
X50170001Y-9828961D01*
X50170001Y-9828961D02*
X50284287Y-9828961D01*
X50284287Y-9828961D02*
X50360478Y-9867057D01*
X50360478Y-9867057D02*
X50398573Y-9905152D01*
X50398573Y-9905152D02*
X50436668Y-9981342D01*
X50436668Y-9981342D02*
X50436668Y-10209914D01*
X50436668Y-10209914D02*
X50398573Y-10286104D01*
X50398573Y-10286104D02*
X50360478Y-10324200D01*
X50360478Y-10324200D02*
X50284287Y-10362295D01*
X50284287Y-10362295D02*
X50170001Y-10362295D01*
X51503335Y-10362295D02*
X51427145Y-10324200D01*
X51427145Y-10324200D02*
X51389050Y-10286104D01*
X51389050Y-10286104D02*
X51350954Y-10209914D01*
X51350954Y-10209914D02*
X51350954Y-9981342D01*
X51350954Y-9981342D02*
X51389050Y-9905152D01*
X51389050Y-9905152D02*
X51427145Y-9867057D01*
X51427145Y-9867057D02*
X51503335Y-9828961D01*
X51503335Y-9828961D02*
X51617621Y-9828961D01*
X51617621Y-9828961D02*
X51693812Y-9867057D01*
X51693812Y-9867057D02*
X51731907Y-9905152D01*
X51731907Y-9905152D02*
X51770002Y-9981342D01*
X51770002Y-9981342D02*
X51770002Y-10209914D01*
X51770002Y-10209914D02*
X51731907Y-10286104D01*
X51731907Y-10286104D02*
X51693812Y-10324200D01*
X51693812Y-10324200D02*
X51617621Y-10362295D01*
X51617621Y-10362295D02*
X51503335Y-10362295D01*
X52455717Y-9828961D02*
X52455717Y-10362295D01*
X52112860Y-9828961D02*
X52112860Y-10248009D01*
X52112860Y-10248009D02*
X52150955Y-10324200D01*
X52150955Y-10324200D02*
X52227145Y-10362295D01*
X52227145Y-10362295D02*
X52341431Y-10362295D01*
X52341431Y-10362295D02*
X52417622Y-10324200D01*
X52417622Y-10324200D02*
X52455717Y-10286104D01*
X53560479Y-10362295D02*
X53484289Y-10324200D01*
X53484289Y-10324200D02*
X53446194Y-10248009D01*
X53446194Y-10248009D02*
X53446194Y-9562295D01*
X53979527Y-10362295D02*
X53903337Y-10324200D01*
X53903337Y-10324200D02*
X53865242Y-10286104D01*
X53865242Y-10286104D02*
X53827146Y-10209914D01*
X53827146Y-10209914D02*
X53827146Y-9981342D01*
X53827146Y-9981342D02*
X53865242Y-9905152D01*
X53865242Y-9905152D02*
X53903337Y-9867057D01*
X53903337Y-9867057D02*
X53979527Y-9828961D01*
X53979527Y-9828961D02*
X54093813Y-9828961D01*
X54093813Y-9828961D02*
X54170004Y-9867057D01*
X54170004Y-9867057D02*
X54208099Y-9905152D01*
X54208099Y-9905152D02*
X54246194Y-9981342D01*
X54246194Y-9981342D02*
X54246194Y-10209914D01*
X54246194Y-10209914D02*
X54208099Y-10286104D01*
X54208099Y-10286104D02*
X54170004Y-10324200D01*
X54170004Y-10324200D02*
X54093813Y-10362295D01*
X54093813Y-10362295D02*
X53979527Y-10362295D01*
X54589052Y-9828961D02*
X54589052Y-10362295D01*
X54589052Y-9905152D02*
X54627147Y-9867057D01*
X54627147Y-9867057D02*
X54703337Y-9828961D01*
X54703337Y-9828961D02*
X54817623Y-9828961D01*
X54817623Y-9828961D02*
X54893814Y-9867057D01*
X54893814Y-9867057D02*
X54931909Y-9943247D01*
X54931909Y-9943247D02*
X54931909Y-10362295D01*
X55655719Y-9828961D02*
X55655719Y-10476580D01*
X55655719Y-10476580D02*
X55617624Y-10552771D01*
X55617624Y-10552771D02*
X55579528Y-10590866D01*
X55579528Y-10590866D02*
X55503338Y-10628961D01*
X55503338Y-10628961D02*
X55389052Y-10628961D01*
X55389052Y-10628961D02*
X55312862Y-10590866D01*
X55655719Y-10324200D02*
X55579528Y-10362295D01*
X55579528Y-10362295D02*
X55427147Y-10362295D01*
X55427147Y-10362295D02*
X55350957Y-10324200D01*
X55350957Y-10324200D02*
X55312862Y-10286104D01*
X55312862Y-10286104D02*
X55274766Y-10209914D01*
X55274766Y-10209914D02*
X55274766Y-9981342D01*
X55274766Y-9981342D02*
X55312862Y-9905152D01*
X55312862Y-9905152D02*
X55350957Y-9867057D01*
X55350957Y-9867057D02*
X55427147Y-9828961D01*
X55427147Y-9828961D02*
X55579528Y-9828961D01*
X55579528Y-9828961D02*
X55655719Y-9867057D01*
X56150957Y-10362295D02*
X56074767Y-10324200D01*
X56074767Y-10324200D02*
X56036672Y-10286104D01*
X56036672Y-10286104D02*
X55998576Y-10209914D01*
X55998576Y-10209914D02*
X55998576Y-9981342D01*
X55998576Y-9981342D02*
X56036672Y-9905152D01*
X56036672Y-9905152D02*
X56074767Y-9867057D01*
X56074767Y-9867057D02*
X56150957Y-9828961D01*
X56150957Y-9828961D02*
X56265243Y-9828961D01*
X56265243Y-9828961D02*
X56341434Y-9867057D01*
X56341434Y-9867057D02*
X56379529Y-9905152D01*
X56379529Y-9905152D02*
X56417624Y-9981342D01*
X56417624Y-9981342D02*
X56417624Y-10209914D01*
X56417624Y-10209914D02*
X56379529Y-10286104D01*
X56379529Y-10286104D02*
X56341434Y-10324200D01*
X56341434Y-10324200D02*
X56265243Y-10362295D01*
X56265243Y-10362295D02*
X56150957Y-10362295D01*
X12329761Y-28418760D02*
X12329761Y-29268760D01*
X12329761Y-28459236D02*
X12410714Y-28418760D01*
X12410714Y-28418760D02*
X12572619Y-28418760D01*
X12572619Y-28418760D02*
X12653571Y-28459236D01*
X12653571Y-28459236D02*
X12694047Y-28499712D01*
X12694047Y-28499712D02*
X12734523Y-28580665D01*
X12734523Y-28580665D02*
X12734523Y-28823522D01*
X12734523Y-28823522D02*
X12694047Y-28904474D01*
X12694047Y-28904474D02*
X12653571Y-28944951D01*
X12653571Y-28944951D02*
X12572619Y-28985427D01*
X12572619Y-28985427D02*
X12410714Y-28985427D01*
X12410714Y-28985427D02*
X12329761Y-28944951D01*
X13463095Y-28985427D02*
X13463095Y-28540189D01*
X13463095Y-28540189D02*
X13422619Y-28459236D01*
X13422619Y-28459236D02*
X13341667Y-28418760D01*
X13341667Y-28418760D02*
X13179762Y-28418760D01*
X13179762Y-28418760D02*
X13098809Y-28459236D01*
X13463095Y-28944951D02*
X13382143Y-28985427D01*
X13382143Y-28985427D02*
X13179762Y-28985427D01*
X13179762Y-28985427D02*
X13098809Y-28944951D01*
X13098809Y-28944951D02*
X13058333Y-28863998D01*
X13058333Y-28863998D02*
X13058333Y-28783046D01*
X13058333Y-28783046D02*
X13098809Y-28702093D01*
X13098809Y-28702093D02*
X13179762Y-28661617D01*
X13179762Y-28661617D02*
X13382143Y-28661617D01*
X13382143Y-28661617D02*
X13463095Y-28621141D01*
X13867857Y-28985427D02*
X13867857Y-28418760D01*
X13867857Y-28580665D02*
X13908334Y-28499712D01*
X13908334Y-28499712D02*
X13948810Y-28459236D01*
X13948810Y-28459236D02*
X14029762Y-28418760D01*
X14029762Y-28418760D02*
X14110715Y-28418760D01*
X14717857Y-28944951D02*
X14636905Y-28985427D01*
X14636905Y-28985427D02*
X14475000Y-28985427D01*
X14475000Y-28985427D02*
X14394047Y-28944951D01*
X14394047Y-28944951D02*
X14353571Y-28863998D01*
X14353571Y-28863998D02*
X14353571Y-28540189D01*
X14353571Y-28540189D02*
X14394047Y-28459236D01*
X14394047Y-28459236D02*
X14475000Y-28418760D01*
X14475000Y-28418760D02*
X14636905Y-28418760D01*
X14636905Y-28418760D02*
X14717857Y-28459236D01*
X14717857Y-28459236D02*
X14758333Y-28540189D01*
X14758333Y-28540189D02*
X14758333Y-28621141D01*
X14758333Y-28621141D02*
X14353571Y-28702093D01*
X15486904Y-28985427D02*
X15486904Y-28135427D01*
X15486904Y-28944951D02*
X15405952Y-28985427D01*
X15405952Y-28985427D02*
X15244047Y-28985427D01*
X15244047Y-28985427D02*
X15163095Y-28944951D01*
X15163095Y-28944951D02*
X15122618Y-28904474D01*
X15122618Y-28904474D02*
X15082142Y-28823522D01*
X15082142Y-28823522D02*
X15082142Y-28580665D01*
X15082142Y-28580665D02*
X15122618Y-28499712D01*
X15122618Y-28499712D02*
X15163095Y-28459236D01*
X15163095Y-28459236D02*
X15244047Y-28418760D01*
X15244047Y-28418760D02*
X15405952Y-28418760D01*
X15405952Y-28418760D02*
X15486904Y-28459236D01*
X16215476Y-28944951D02*
X16134524Y-28985427D01*
X16134524Y-28985427D02*
X15972619Y-28985427D01*
X15972619Y-28985427D02*
X15891666Y-28944951D01*
X15891666Y-28944951D02*
X15851190Y-28863998D01*
X15851190Y-28863998D02*
X15851190Y-28540189D01*
X15851190Y-28540189D02*
X15891666Y-28459236D01*
X15891666Y-28459236D02*
X15972619Y-28418760D01*
X15972619Y-28418760D02*
X16134524Y-28418760D01*
X16134524Y-28418760D02*
X16215476Y-28459236D01*
X16215476Y-28459236D02*
X16255952Y-28540189D01*
X16255952Y-28540189D02*
X16255952Y-28621141D01*
X16255952Y-28621141D02*
X15851190Y-28702093D01*
X17632142Y-28985427D02*
X17632142Y-28135427D01*
X17632142Y-28944951D02*
X17551190Y-28985427D01*
X17551190Y-28985427D02*
X17389285Y-28985427D01*
X17389285Y-28985427D02*
X17308333Y-28944951D01*
X17308333Y-28944951D02*
X17267856Y-28904474D01*
X17267856Y-28904474D02*
X17227380Y-28823522D01*
X17227380Y-28823522D02*
X17227380Y-28580665D01*
X17227380Y-28580665D02*
X17267856Y-28499712D01*
X17267856Y-28499712D02*
X17308333Y-28459236D01*
X17308333Y-28459236D02*
X17389285Y-28418760D01*
X17389285Y-28418760D02*
X17551190Y-28418760D01*
X17551190Y-28418760D02*
X17632142Y-28459236D01*
X18360714Y-28944951D02*
X18279762Y-28985427D01*
X18279762Y-28985427D02*
X18117857Y-28985427D01*
X18117857Y-28985427D02*
X18036904Y-28944951D01*
X18036904Y-28944951D02*
X17996428Y-28863998D01*
X17996428Y-28863998D02*
X17996428Y-28540189D01*
X17996428Y-28540189D02*
X18036904Y-28459236D01*
X18036904Y-28459236D02*
X18117857Y-28418760D01*
X18117857Y-28418760D02*
X18279762Y-28418760D01*
X18279762Y-28418760D02*
X18360714Y-28459236D01*
X18360714Y-28459236D02*
X18401190Y-28540189D01*
X18401190Y-28540189D02*
X18401190Y-28621141D01*
X18401190Y-28621141D02*
X17996428Y-28702093D01*
X19291666Y-28418760D02*
X19615475Y-28418760D01*
X19413094Y-28135427D02*
X19413094Y-28863998D01*
X19413094Y-28863998D02*
X19453571Y-28944951D01*
X19453571Y-28944951D02*
X19534523Y-28985427D01*
X19534523Y-28985427D02*
X19615475Y-28985427D01*
X19898808Y-28985427D02*
X19898808Y-28418760D01*
X19898808Y-28580665D02*
X19939285Y-28499712D01*
X19939285Y-28499712D02*
X19979761Y-28459236D01*
X19979761Y-28459236D02*
X20060713Y-28418760D01*
X20060713Y-28418760D02*
X20141666Y-28418760D01*
X20789284Y-28985427D02*
X20789284Y-28540189D01*
X20789284Y-28540189D02*
X20748808Y-28459236D01*
X20748808Y-28459236D02*
X20667856Y-28418760D01*
X20667856Y-28418760D02*
X20505951Y-28418760D01*
X20505951Y-28418760D02*
X20424998Y-28459236D01*
X20789284Y-28944951D02*
X20708332Y-28985427D01*
X20708332Y-28985427D02*
X20505951Y-28985427D01*
X20505951Y-28985427D02*
X20424998Y-28944951D01*
X20424998Y-28944951D02*
X20384522Y-28863998D01*
X20384522Y-28863998D02*
X20384522Y-28783046D01*
X20384522Y-28783046D02*
X20424998Y-28702093D01*
X20424998Y-28702093D02*
X20505951Y-28661617D01*
X20505951Y-28661617D02*
X20708332Y-28661617D01*
X20708332Y-28661617D02*
X20789284Y-28621141D01*
X21153570Y-28944951D02*
X21234523Y-28985427D01*
X21234523Y-28985427D02*
X21396427Y-28985427D01*
X21396427Y-28985427D02*
X21477380Y-28944951D01*
X21477380Y-28944951D02*
X21517856Y-28863998D01*
X21517856Y-28863998D02*
X21517856Y-28823522D01*
X21517856Y-28823522D02*
X21477380Y-28742570D01*
X21477380Y-28742570D02*
X21396427Y-28702093D01*
X21396427Y-28702093D02*
X21274999Y-28702093D01*
X21274999Y-28702093D02*
X21194046Y-28661617D01*
X21194046Y-28661617D02*
X21153570Y-28580665D01*
X21153570Y-28580665D02*
X21153570Y-28540189D01*
X21153570Y-28540189D02*
X21194046Y-28459236D01*
X21194046Y-28459236D02*
X21274999Y-28418760D01*
X21274999Y-28418760D02*
X21396427Y-28418760D01*
X21396427Y-28418760D02*
X21477380Y-28459236D01*
X22894046Y-28985427D02*
X22894046Y-28135427D01*
X22894046Y-28944951D02*
X22813094Y-28985427D01*
X22813094Y-28985427D02*
X22651189Y-28985427D01*
X22651189Y-28985427D02*
X22570237Y-28944951D01*
X22570237Y-28944951D02*
X22529760Y-28904474D01*
X22529760Y-28904474D02*
X22489284Y-28823522D01*
X22489284Y-28823522D02*
X22489284Y-28580665D01*
X22489284Y-28580665D02*
X22529760Y-28499712D01*
X22529760Y-28499712D02*
X22570237Y-28459236D01*
X22570237Y-28459236D02*
X22651189Y-28418760D01*
X22651189Y-28418760D02*
X22813094Y-28418760D01*
X22813094Y-28418760D02*
X22894046Y-28459236D01*
X23663094Y-28985427D02*
X23663094Y-28540189D01*
X23663094Y-28540189D02*
X23622618Y-28459236D01*
X23622618Y-28459236D02*
X23541666Y-28418760D01*
X23541666Y-28418760D02*
X23379761Y-28418760D01*
X23379761Y-28418760D02*
X23298808Y-28459236D01*
X23663094Y-28944951D02*
X23582142Y-28985427D01*
X23582142Y-28985427D02*
X23379761Y-28985427D01*
X23379761Y-28985427D02*
X23298808Y-28944951D01*
X23298808Y-28944951D02*
X23258332Y-28863998D01*
X23258332Y-28863998D02*
X23258332Y-28783046D01*
X23258332Y-28783046D02*
X23298808Y-28702093D01*
X23298808Y-28702093D02*
X23379761Y-28661617D01*
X23379761Y-28661617D02*
X23582142Y-28661617D01*
X23582142Y-28661617D02*
X23663094Y-28621141D01*
X25079761Y-28944951D02*
X24998809Y-28985427D01*
X24998809Y-28985427D02*
X24836904Y-28985427D01*
X24836904Y-28985427D02*
X24755952Y-28944951D01*
X24755952Y-28944951D02*
X24715475Y-28904474D01*
X24715475Y-28904474D02*
X24674999Y-28823522D01*
X24674999Y-28823522D02*
X24674999Y-28580665D01*
X24674999Y-28580665D02*
X24715475Y-28499712D01*
X24715475Y-28499712D02*
X24755952Y-28459236D01*
X24755952Y-28459236D02*
X24836904Y-28418760D01*
X24836904Y-28418760D02*
X24998809Y-28418760D01*
X24998809Y-28418760D02*
X25079761Y-28459236D01*
X25808332Y-28985427D02*
X25808332Y-28540189D01*
X25808332Y-28540189D02*
X25767856Y-28459236D01*
X25767856Y-28459236D02*
X25686904Y-28418760D01*
X25686904Y-28418760D02*
X25524999Y-28418760D01*
X25524999Y-28418760D02*
X25444046Y-28459236D01*
X25808332Y-28944951D02*
X25727380Y-28985427D01*
X25727380Y-28985427D02*
X25524999Y-28985427D01*
X25524999Y-28985427D02*
X25444046Y-28944951D01*
X25444046Y-28944951D02*
X25403570Y-28863998D01*
X25403570Y-28863998D02*
X25403570Y-28783046D01*
X25403570Y-28783046D02*
X25444046Y-28702093D01*
X25444046Y-28702093D02*
X25524999Y-28661617D01*
X25524999Y-28661617D02*
X25727380Y-28661617D01*
X25727380Y-28661617D02*
X25808332Y-28621141D01*
X26213094Y-28985427D02*
X26213094Y-28418760D01*
X26213094Y-28135427D02*
X26172618Y-28175903D01*
X26172618Y-28175903D02*
X26213094Y-28216379D01*
X26213094Y-28216379D02*
X26253571Y-28175903D01*
X26253571Y-28175903D02*
X26213094Y-28135427D01*
X26213094Y-28135427D02*
X26213094Y-28216379D01*
X26536904Y-28985427D02*
X26982142Y-28418760D01*
X26536904Y-28418760D02*
X26982142Y-28985427D01*
X27670237Y-28985427D02*
X27670237Y-28540189D01*
X27670237Y-28540189D02*
X27629761Y-28459236D01*
X27629761Y-28459236D02*
X27548809Y-28418760D01*
X27548809Y-28418760D02*
X27386904Y-28418760D01*
X27386904Y-28418760D02*
X27305951Y-28459236D01*
X27670237Y-28944951D02*
X27589285Y-28985427D01*
X27589285Y-28985427D02*
X27386904Y-28985427D01*
X27386904Y-28985427D02*
X27305951Y-28944951D01*
X27305951Y-28944951D02*
X27265475Y-28863998D01*
X27265475Y-28863998D02*
X27265475Y-28783046D01*
X27265475Y-28783046D02*
X27305951Y-28702093D01*
X27305951Y-28702093D02*
X27386904Y-28661617D01*
X27386904Y-28661617D02*
X27589285Y-28661617D01*
X27589285Y-28661617D02*
X27670237Y-28621141D01*
X34036666Y-16954819D02*
X34608094Y-16954819D01*
X34322380Y-17954819D02*
X34322380Y-16954819D01*
X34941428Y-17954819D02*
X34941428Y-16954819D01*
X35512856Y-17954819D02*
X35084285Y-17383390D01*
X35512856Y-16954819D02*
X34941428Y-17526247D01*
X35989047Y-17954819D02*
X36179523Y-17954819D01*
X36179523Y-17954819D02*
X36274761Y-17907200D01*
X36274761Y-17907200D02*
X36322380Y-17859580D01*
X36322380Y-17859580D02*
X36417618Y-17716723D01*
X36417618Y-17716723D02*
X36465237Y-17526247D01*
X36465237Y-17526247D02*
X36465237Y-17145295D01*
X36465237Y-17145295D02*
X36417618Y-17050057D01*
X36417618Y-17050057D02*
X36369999Y-17002438D01*
X36369999Y-17002438D02*
X36274761Y-16954819D01*
X36274761Y-16954819D02*
X36084285Y-16954819D01*
X36084285Y-16954819D02*
X35989047Y-17002438D01*
X35989047Y-17002438D02*
X35941428Y-17050057D01*
X35941428Y-17050057D02*
X35893809Y-17145295D01*
X35893809Y-17145295D02*
X35893809Y-17383390D01*
X35893809Y-17383390D02*
X35941428Y-17478628D01*
X35941428Y-17478628D02*
X35989047Y-17526247D01*
X35989047Y-17526247D02*
X36084285Y-17573866D01*
X36084285Y-17573866D02*
X36274761Y-17573866D01*
X36274761Y-17573866D02*
X36369999Y-17526247D01*
X36369999Y-17526247D02*
X36417618Y-17478628D01*
X36417618Y-17478628D02*
X36465237Y-17383390D01*
X37084285Y-16954819D02*
X37179523Y-16954819D01*
X37179523Y-16954819D02*
X37274761Y-17002438D01*
X37274761Y-17002438D02*
X37322380Y-17050057D01*
X37322380Y-17050057D02*
X37369999Y-17145295D01*
X37369999Y-17145295D02*
X37417618Y-17335771D01*
X37417618Y-17335771D02*
X37417618Y-17573866D01*
X37417618Y-17573866D02*
X37369999Y-17764342D01*
X37369999Y-17764342D02*
X37322380Y-17859580D01*
X37322380Y-17859580D02*
X37274761Y-17907200D01*
X37274761Y-17907200D02*
X37179523Y-17954819D01*
X37179523Y-17954819D02*
X37084285Y-17954819D01*
X37084285Y-17954819D02*
X36989047Y-17907200D01*
X36989047Y-17907200D02*
X36941428Y-17859580D01*
X36941428Y-17859580D02*
X36893809Y-17764342D01*
X36893809Y-17764342D02*
X36846190Y-17573866D01*
X36846190Y-17573866D02*
X36846190Y-17335771D01*
X36846190Y-17335771D02*
X36893809Y-17145295D01*
X36893809Y-17145295D02*
X36941428Y-17050057D01*
X36941428Y-17050057D02*
X36989047Y-17002438D01*
X36989047Y-17002438D02*
X37084285Y-16954819D01*
X37750952Y-16954819D02*
X38417618Y-17954819D01*
X38417618Y-16954819D02*
X37750952Y-17954819D01*
X40274761Y-16907200D02*
X39417619Y-18192914D01*
X41227143Y-16954819D02*
X41798571Y-16954819D01*
X41512857Y-17954819D02*
X41512857Y-16954819D01*
X42131905Y-17954819D02*
X42131905Y-16954819D01*
X42703333Y-17954819D02*
X42274762Y-17383390D01*
X42703333Y-16954819D02*
X42131905Y-17526247D01*
X43179524Y-17954819D02*
X43370000Y-17954819D01*
X43370000Y-17954819D02*
X43465238Y-17907200D01*
X43465238Y-17907200D02*
X43512857Y-17859580D01*
X43512857Y-17859580D02*
X43608095Y-17716723D01*
X43608095Y-17716723D02*
X43655714Y-17526247D01*
X43655714Y-17526247D02*
X43655714Y-17145295D01*
X43655714Y-17145295D02*
X43608095Y-17050057D01*
X43608095Y-17050057D02*
X43560476Y-17002438D01*
X43560476Y-17002438D02*
X43465238Y-16954819D01*
X43465238Y-16954819D02*
X43274762Y-16954819D01*
X43274762Y-16954819D02*
X43179524Y-17002438D01*
X43179524Y-17002438D02*
X43131905Y-17050057D01*
X43131905Y-17050057D02*
X43084286Y-17145295D01*
X43084286Y-17145295D02*
X43084286Y-17383390D01*
X43084286Y-17383390D02*
X43131905Y-17478628D01*
X43131905Y-17478628D02*
X43179524Y-17526247D01*
X43179524Y-17526247D02*
X43274762Y-17573866D01*
X43274762Y-17573866D02*
X43465238Y-17573866D01*
X43465238Y-17573866D02*
X43560476Y-17526247D01*
X43560476Y-17526247D02*
X43608095Y-17478628D01*
X43608095Y-17478628D02*
X43655714Y-17383390D01*
X44560476Y-16954819D02*
X44084286Y-16954819D01*
X44084286Y-16954819D02*
X44036667Y-17431009D01*
X44036667Y-17431009D02*
X44084286Y-17383390D01*
X44084286Y-17383390D02*
X44179524Y-17335771D01*
X44179524Y-17335771D02*
X44417619Y-17335771D01*
X44417619Y-17335771D02*
X44512857Y-17383390D01*
X44512857Y-17383390D02*
X44560476Y-17431009D01*
X44560476Y-17431009D02*
X44608095Y-17526247D01*
X44608095Y-17526247D02*
X44608095Y-17764342D01*
X44608095Y-17764342D02*
X44560476Y-17859580D01*
X44560476Y-17859580D02*
X44512857Y-17907200D01*
X44512857Y-17907200D02*
X44417619Y-17954819D01*
X44417619Y-17954819D02*
X44179524Y-17954819D01*
X44179524Y-17954819D02*
X44084286Y-17907200D01*
X44084286Y-17907200D02*
X44036667Y-17859580D01*
X18627143Y-14401080D02*
X19255715Y-14401080D01*
X18941429Y-15501080D02*
X18941429Y-14401080D01*
X19622381Y-15501080D02*
X19622381Y-14401080D01*
X20250953Y-15501080D02*
X19779524Y-14872509D01*
X20250953Y-14401080D02*
X19622381Y-15029652D01*
X20722381Y-15501080D02*
X20722381Y-14401080D01*
X20722381Y-14401080D02*
X21089048Y-15186795D01*
X21089048Y-15186795D02*
X21455715Y-14401080D01*
X21455715Y-14401080D02*
X21455715Y-15501080D01*
X21979524Y-14924890D02*
X22346191Y-14924890D01*
X22503334Y-15501080D02*
X21979524Y-15501080D01*
X21979524Y-15501080D02*
X21979524Y-14401080D01*
X21979524Y-14401080D02*
X22503334Y-14401080D01*
X22974762Y-15501080D02*
X22974762Y-14401080D01*
X22974762Y-14401080D02*
X23341429Y-15186795D01*
X23341429Y-15186795D02*
X23708096Y-14401080D01*
X23708096Y-14401080D02*
X23708096Y-15501080D01*
X24231905Y-15082033D02*
X25070001Y-15082033D01*
X26170001Y-15501080D02*
X25541429Y-15501080D01*
X25855715Y-15501080D02*
X25855715Y-14401080D01*
X25855715Y-14401080D02*
X25750953Y-14558223D01*
X25750953Y-14558223D02*
X25646191Y-14662985D01*
X25646191Y-14662985D02*
X25541429Y-14715366D01*
X26589048Y-14505842D02*
X26641429Y-14453461D01*
X26641429Y-14453461D02*
X26746191Y-14401080D01*
X26746191Y-14401080D02*
X27008096Y-14401080D01*
X27008096Y-14401080D02*
X27112858Y-14453461D01*
X27112858Y-14453461D02*
X27165239Y-14505842D01*
X27165239Y-14505842D02*
X27217620Y-14610604D01*
X27217620Y-14610604D02*
X27217620Y-14715366D01*
X27217620Y-14715366D02*
X27165239Y-14872509D01*
X27165239Y-14872509D02*
X26536667Y-15501080D01*
X26536667Y-15501080D02*
X27217620Y-15501080D01*
X27846191Y-14872509D02*
X27741429Y-14820128D01*
X27741429Y-14820128D02*
X27689048Y-14767747D01*
X27689048Y-14767747D02*
X27636667Y-14662985D01*
X27636667Y-14662985D02*
X27636667Y-14610604D01*
X27636667Y-14610604D02*
X27689048Y-14505842D01*
X27689048Y-14505842D02*
X27741429Y-14453461D01*
X27741429Y-14453461D02*
X27846191Y-14401080D01*
X27846191Y-14401080D02*
X28055715Y-14401080D01*
X28055715Y-14401080D02*
X28160477Y-14453461D01*
X28160477Y-14453461D02*
X28212858Y-14505842D01*
X28212858Y-14505842D02*
X28265239Y-14610604D01*
X28265239Y-14610604D02*
X28265239Y-14662985D01*
X28265239Y-14662985D02*
X28212858Y-14767747D01*
X28212858Y-14767747D02*
X28160477Y-14820128D01*
X28160477Y-14820128D02*
X28055715Y-14872509D01*
X28055715Y-14872509D02*
X27846191Y-14872509D01*
X27846191Y-14872509D02*
X27741429Y-14924890D01*
X27741429Y-14924890D02*
X27689048Y-14977271D01*
X27689048Y-14977271D02*
X27636667Y-15082033D01*
X27636667Y-15082033D02*
X27636667Y-15291557D01*
X27636667Y-15291557D02*
X27689048Y-15396319D01*
X27689048Y-15396319D02*
X27741429Y-15448700D01*
X27741429Y-15448700D02*
X27846191Y-15501080D01*
X27846191Y-15501080D02*
X28055715Y-15501080D01*
X28055715Y-15501080D02*
X28160477Y-15448700D01*
X28160477Y-15448700D02*
X28212858Y-15396319D01*
X28212858Y-15396319D02*
X28265239Y-15291557D01*
X28265239Y-15291557D02*
X28265239Y-15082033D01*
X28265239Y-15082033D02*
X28212858Y-14977271D01*
X28212858Y-14977271D02*
X28160477Y-14924890D01*
X28160477Y-14924890D02*
X28055715Y-14872509D01*
X30255714Y-14401080D02*
X30884286Y-14401080D01*
X30570000Y-15501080D02*
X30570000Y-14401080D01*
X31250952Y-15501080D02*
X31250952Y-14401080D01*
X32403334Y-15501080D02*
X32036667Y-14977271D01*
X31774762Y-15501080D02*
X31774762Y-14401080D01*
X31774762Y-14401080D02*
X32193810Y-14401080D01*
X32193810Y-14401080D02*
X32298572Y-14453461D01*
X32298572Y-14453461D02*
X32350953Y-14505842D01*
X32350953Y-14505842D02*
X32403334Y-14610604D01*
X32403334Y-14610604D02*
X32403334Y-14767747D01*
X32403334Y-14767747D02*
X32350953Y-14872509D01*
X32350953Y-14872509D02*
X32298572Y-14924890D01*
X32298572Y-14924890D02*
X32193810Y-14977271D01*
X32193810Y-14977271D02*
X31774762Y-14977271D01*
X32822381Y-15186795D02*
X33346191Y-15186795D01*
X32717619Y-15501080D02*
X33084286Y-14401080D01*
X33084286Y-14401080D02*
X33450953Y-15501080D01*
X34655714Y-15501080D02*
X34655714Y-14401080D01*
X34655714Y-14401080D02*
X34917619Y-14401080D01*
X34917619Y-14401080D02*
X35074762Y-14453461D01*
X35074762Y-14453461D02*
X35179524Y-14558223D01*
X35179524Y-14558223D02*
X35231905Y-14662985D01*
X35231905Y-14662985D02*
X35284286Y-14872509D01*
X35284286Y-14872509D02*
X35284286Y-15029652D01*
X35284286Y-15029652D02*
X35231905Y-15239176D01*
X35231905Y-15239176D02*
X35179524Y-15343938D01*
X35179524Y-15343938D02*
X35074762Y-15448700D01*
X35074762Y-15448700D02*
X34917619Y-15501080D01*
X34917619Y-15501080D02*
X34655714Y-15501080D01*
X35755714Y-14924890D02*
X36122381Y-14924890D01*
X36279524Y-15501080D02*
X35755714Y-15501080D01*
X35755714Y-15501080D02*
X35755714Y-14401080D01*
X35755714Y-14401080D02*
X36279524Y-14401080D01*
X37589047Y-14924890D02*
X37955714Y-14924890D01*
X38112857Y-15501080D02*
X37589047Y-15501080D01*
X37589047Y-15501080D02*
X37589047Y-14401080D01*
X37589047Y-14401080D02*
X38112857Y-14401080D01*
X38479523Y-14401080D02*
X39212857Y-15501080D01*
X39212857Y-14401080D02*
X38479523Y-15501080D01*
X39631904Y-15501080D02*
X39631904Y-14401080D01*
X39631904Y-14401080D02*
X40050952Y-14401080D01*
X40050952Y-14401080D02*
X40155714Y-14453461D01*
X40155714Y-14453461D02*
X40208095Y-14505842D01*
X40208095Y-14505842D02*
X40260476Y-14610604D01*
X40260476Y-14610604D02*
X40260476Y-14767747D01*
X40260476Y-14767747D02*
X40208095Y-14872509D01*
X40208095Y-14872509D02*
X40155714Y-14924890D01*
X40155714Y-14924890D02*
X40050952Y-14977271D01*
X40050952Y-14977271D02*
X39631904Y-14977271D01*
X40679523Y-15186795D02*
X41203333Y-15186795D01*
X40574761Y-15501080D02*
X40941428Y-14401080D01*
X40941428Y-14401080D02*
X41308095Y-15501080D01*
X41674761Y-15501080D02*
X41674761Y-14401080D01*
X41674761Y-14401080D02*
X42303333Y-15501080D01*
X42303333Y-15501080D02*
X42303333Y-14401080D01*
X42774761Y-15448700D02*
X42931904Y-15501080D01*
X42931904Y-15501080D02*
X43193809Y-15501080D01*
X43193809Y-15501080D02*
X43298571Y-15448700D01*
X43298571Y-15448700D02*
X43350952Y-15396319D01*
X43350952Y-15396319D02*
X43403333Y-15291557D01*
X43403333Y-15291557D02*
X43403333Y-15186795D01*
X43403333Y-15186795D02*
X43350952Y-15082033D01*
X43350952Y-15082033D02*
X43298571Y-15029652D01*
X43298571Y-15029652D02*
X43193809Y-14977271D01*
X43193809Y-14977271D02*
X42984285Y-14924890D01*
X42984285Y-14924890D02*
X42879523Y-14872509D01*
X42879523Y-14872509D02*
X42827142Y-14820128D01*
X42827142Y-14820128D02*
X42774761Y-14715366D01*
X42774761Y-14715366D02*
X42774761Y-14610604D01*
X42774761Y-14610604D02*
X42827142Y-14505842D01*
X42827142Y-14505842D02*
X42879523Y-14453461D01*
X42879523Y-14453461D02*
X42984285Y-14401080D01*
X42984285Y-14401080D02*
X43246190Y-14401080D01*
X43246190Y-14401080D02*
X43403333Y-14453461D01*
X43822380Y-15186795D02*
X44346190Y-15186795D01*
X43717618Y-15501080D02*
X44084285Y-14401080D01*
X44084285Y-14401080D02*
X44450952Y-15501080D01*
X45027142Y-14401080D02*
X45236666Y-14401080D01*
X45236666Y-14401080D02*
X45341428Y-14453461D01*
X45341428Y-14453461D02*
X45446190Y-14558223D01*
X45446190Y-14558223D02*
X45498571Y-14767747D01*
X45498571Y-14767747D02*
X45498571Y-15134414D01*
X45498571Y-15134414D02*
X45446190Y-15343938D01*
X45446190Y-15343938D02*
X45341428Y-15448700D01*
X45341428Y-15448700D02*
X45236666Y-15501080D01*
X45236666Y-15501080D02*
X45027142Y-15501080D01*
X45027142Y-15501080D02*
X44922380Y-15448700D01*
X44922380Y-15448700D02*
X44817618Y-15343938D01*
X44817618Y-15343938D02*
X44765237Y-15134414D01*
X44765237Y-15134414D02*
X44765237Y-14767747D01*
X44765237Y-14767747D02*
X44817618Y-14558223D01*
X44817618Y-14558223D02*
X44922380Y-14453461D01*
X44922380Y-14453461D02*
X45027142Y-14401080D01*
X46808094Y-15501080D02*
X46808094Y-14401080D01*
X46808094Y-14401080D02*
X47069999Y-14401080D01*
X47069999Y-14401080D02*
X47227142Y-14453461D01*
X47227142Y-14453461D02*
X47331904Y-14558223D01*
X47331904Y-14558223D02*
X47384285Y-14662985D01*
X47384285Y-14662985D02*
X47436666Y-14872509D01*
X47436666Y-14872509D02*
X47436666Y-15029652D01*
X47436666Y-15029652D02*
X47384285Y-15239176D01*
X47384285Y-15239176D02*
X47331904Y-15343938D01*
X47331904Y-15343938D02*
X47227142Y-15448700D01*
X47227142Y-15448700D02*
X47069999Y-15501080D01*
X47069999Y-15501080D02*
X46808094Y-15501080D01*
X48117618Y-14401080D02*
X48327142Y-14401080D01*
X48327142Y-14401080D02*
X48431904Y-14453461D01*
X48431904Y-14453461D02*
X48536666Y-14558223D01*
X48536666Y-14558223D02*
X48589047Y-14767747D01*
X48589047Y-14767747D02*
X48589047Y-15134414D01*
X48589047Y-15134414D02*
X48536666Y-15343938D01*
X48536666Y-15343938D02*
X48431904Y-15448700D01*
X48431904Y-15448700D02*
X48327142Y-15501080D01*
X48327142Y-15501080D02*
X48117618Y-15501080D01*
X48117618Y-15501080D02*
X48012856Y-15448700D01*
X48012856Y-15448700D02*
X47908094Y-15343938D01*
X47908094Y-15343938D02*
X47855713Y-15134414D01*
X47855713Y-15134414D02*
X47855713Y-14767747D01*
X47855713Y-14767747D02*
X47908094Y-14558223D01*
X47908094Y-14558223D02*
X48012856Y-14453461D01*
X48012856Y-14453461D02*
X48117618Y-14401080D01*
X50265237Y-14924890D02*
X50422380Y-14977271D01*
X50422380Y-14977271D02*
X50474761Y-15029652D01*
X50474761Y-15029652D02*
X50527142Y-15134414D01*
X50527142Y-15134414D02*
X50527142Y-15291557D01*
X50527142Y-15291557D02*
X50474761Y-15396319D01*
X50474761Y-15396319D02*
X50422380Y-15448700D01*
X50422380Y-15448700D02*
X50317618Y-15501080D01*
X50317618Y-15501080D02*
X49898570Y-15501080D01*
X49898570Y-15501080D02*
X49898570Y-14401080D01*
X49898570Y-14401080D02*
X50265237Y-14401080D01*
X50265237Y-14401080D02*
X50369999Y-14453461D01*
X50369999Y-14453461D02*
X50422380Y-14505842D01*
X50422380Y-14505842D02*
X50474761Y-14610604D01*
X50474761Y-14610604D02*
X50474761Y-14715366D01*
X50474761Y-14715366D02*
X50422380Y-14820128D01*
X50422380Y-14820128D02*
X50369999Y-14872509D01*
X50369999Y-14872509D02*
X50265237Y-14924890D01*
X50265237Y-14924890D02*
X49898570Y-14924890D01*
X50946189Y-15186795D02*
X51469999Y-15186795D01*
X50841427Y-15501080D02*
X51208094Y-14401080D01*
X51208094Y-14401080D02*
X51574761Y-15501080D01*
X52569999Y-15501080D02*
X52203332Y-14977271D01*
X51941427Y-15501080D02*
X51941427Y-14401080D01*
X51941427Y-14401080D02*
X52360475Y-14401080D01*
X52360475Y-14401080D02*
X52465237Y-14453461D01*
X52465237Y-14453461D02*
X52517618Y-14505842D01*
X52517618Y-14505842D02*
X52569999Y-14610604D01*
X52569999Y-14610604D02*
X52569999Y-14767747D01*
X52569999Y-14767747D02*
X52517618Y-14872509D01*
X52517618Y-14872509D02*
X52465237Y-14924890D01*
X52465237Y-14924890D02*
X52360475Y-14977271D01*
X52360475Y-14977271D02*
X51941427Y-14977271D01*
X53669999Y-15501080D02*
X53303332Y-14977271D01*
X53041427Y-15501080D02*
X53041427Y-14401080D01*
X53041427Y-14401080D02*
X53460475Y-14401080D01*
X53460475Y-14401080D02*
X53565237Y-14453461D01*
X53565237Y-14453461D02*
X53617618Y-14505842D01*
X53617618Y-14505842D02*
X53669999Y-14610604D01*
X53669999Y-14610604D02*
X53669999Y-14767747D01*
X53669999Y-14767747D02*
X53617618Y-14872509D01*
X53617618Y-14872509D02*
X53565237Y-14924890D01*
X53565237Y-14924890D02*
X53460475Y-14977271D01*
X53460475Y-14977271D02*
X53041427Y-14977271D01*
X54089046Y-15186795D02*
X54612856Y-15186795D01*
X53984284Y-15501080D02*
X54350951Y-14401080D01*
X54350951Y-14401080D02*
X54717618Y-15501080D01*
X55084284Y-15501080D02*
X55084284Y-14401080D01*
X55084284Y-14401080D02*
X55450951Y-15186795D01*
X55450951Y-15186795D02*
X55817618Y-14401080D01*
X55817618Y-14401080D02*
X55817618Y-15501080D01*
X56341427Y-14924890D02*
X56708094Y-14924890D01*
X56865237Y-15501080D02*
X56341427Y-15501080D01*
X56341427Y-15501080D02*
X56341427Y-14401080D01*
X56341427Y-14401080D02*
X56865237Y-14401080D01*
X57336665Y-15501080D02*
X57336665Y-14401080D01*
X57336665Y-14401080D02*
X57965237Y-15501080D01*
X57965237Y-15501080D02*
X57965237Y-14401080D01*
X58331903Y-14401080D02*
X58960475Y-14401080D01*
X58646189Y-15501080D02*
X58646189Y-14401080D01*
X59536665Y-14401080D02*
X59746189Y-14401080D01*
X59746189Y-14401080D02*
X59850951Y-14453461D01*
X59850951Y-14453461D02*
X59955713Y-14558223D01*
X59955713Y-14558223D02*
X60008094Y-14767747D01*
X60008094Y-14767747D02*
X60008094Y-15134414D01*
X60008094Y-15134414D02*
X59955713Y-15343938D01*
X59955713Y-15343938D02*
X59850951Y-15448700D01*
X59850951Y-15448700D02*
X59746189Y-15501080D01*
X59746189Y-15501080D02*
X59536665Y-15501080D01*
X59536665Y-15501080D02*
X59431903Y-15448700D01*
X59431903Y-15448700D02*
X59327141Y-15343938D01*
X59327141Y-15343938D02*
X59274760Y-15134414D01*
X59274760Y-15134414D02*
X59274760Y-14767747D01*
X59274760Y-14767747D02*
X59327141Y-14558223D01*
X59327141Y-14558223D02*
X59431903Y-14453461D01*
X59431903Y-14453461D02*
X59536665Y-14401080D01*
X53742858Y-34547342D02*
X53742858Y-33347342D01*
X53742858Y-33347342D02*
X54200001Y-33347342D01*
X54200001Y-33347342D02*
X54314286Y-33404485D01*
X54314286Y-33404485D02*
X54371429Y-33461628D01*
X54371429Y-33461628D02*
X54428572Y-33575914D01*
X54428572Y-33575914D02*
X54428572Y-33747342D01*
X54428572Y-33747342D02*
X54371429Y-33861628D01*
X54371429Y-33861628D02*
X54314286Y-33918771D01*
X54314286Y-33918771D02*
X54200001Y-33975914D01*
X54200001Y-33975914D02*
X53742858Y-33975914D01*
X54885715Y-34204485D02*
X55457144Y-34204485D01*
X54771429Y-34547342D02*
X55171429Y-33347342D01*
X55171429Y-33347342D02*
X55571429Y-34547342D01*
X55914286Y-34490200D02*
X56085715Y-34547342D01*
X56085715Y-34547342D02*
X56371429Y-34547342D01*
X56371429Y-34547342D02*
X56485715Y-34490200D01*
X56485715Y-34490200D02*
X56542857Y-34433057D01*
X56542857Y-34433057D02*
X56600000Y-34318771D01*
X56600000Y-34318771D02*
X56600000Y-34204485D01*
X56600000Y-34204485D02*
X56542857Y-34090200D01*
X56542857Y-34090200D02*
X56485715Y-34033057D01*
X56485715Y-34033057D02*
X56371429Y-33975914D01*
X56371429Y-33975914D02*
X56142857Y-33918771D01*
X56142857Y-33918771D02*
X56028572Y-33861628D01*
X56028572Y-33861628D02*
X55971429Y-33804485D01*
X55971429Y-33804485D02*
X55914286Y-33690200D01*
X55914286Y-33690200D02*
X55914286Y-33575914D01*
X55914286Y-33575914D02*
X55971429Y-33461628D01*
X55971429Y-33461628D02*
X56028572Y-33404485D01*
X56028572Y-33404485D02*
X56142857Y-33347342D01*
X56142857Y-33347342D02*
X56428572Y-33347342D01*
X56428572Y-33347342D02*
X56600000Y-33404485D01*
X57057143Y-34490200D02*
X57228572Y-34547342D01*
X57228572Y-34547342D02*
X57514286Y-34547342D01*
X57514286Y-34547342D02*
X57628572Y-34490200D01*
X57628572Y-34490200D02*
X57685714Y-34433057D01*
X57685714Y-34433057D02*
X57742857Y-34318771D01*
X57742857Y-34318771D02*
X57742857Y-34204485D01*
X57742857Y-34204485D02*
X57685714Y-34090200D01*
X57685714Y-34090200D02*
X57628572Y-34033057D01*
X57628572Y-34033057D02*
X57514286Y-33975914D01*
X57514286Y-33975914D02*
X57285714Y-33918771D01*
X57285714Y-33918771D02*
X57171429Y-33861628D01*
X57171429Y-33861628D02*
X57114286Y-33804485D01*
X57114286Y-33804485D02*
X57057143Y-33690200D01*
X57057143Y-33690200D02*
X57057143Y-33575914D01*
X57057143Y-33575914D02*
X57114286Y-33461628D01*
X57114286Y-33461628D02*
X57171429Y-33404485D01*
X57171429Y-33404485D02*
X57285714Y-33347342D01*
X57285714Y-33347342D02*
X57571429Y-33347342D01*
X57571429Y-33347342D02*
X57742857Y-33404485D01*
X58200000Y-34204485D02*
X58771429Y-34204485D01*
X58085714Y-34547342D02*
X58485714Y-33347342D01*
X58485714Y-33347342D02*
X58885714Y-34547342D01*
X59914285Y-33404485D02*
X59800000Y-33347342D01*
X59800000Y-33347342D02*
X59628571Y-33347342D01*
X59628571Y-33347342D02*
X59457142Y-33404485D01*
X59457142Y-33404485D02*
X59342857Y-33518771D01*
X59342857Y-33518771D02*
X59285714Y-33633057D01*
X59285714Y-33633057D02*
X59228571Y-33861628D01*
X59228571Y-33861628D02*
X59228571Y-34033057D01*
X59228571Y-34033057D02*
X59285714Y-34261628D01*
X59285714Y-34261628D02*
X59342857Y-34375914D01*
X59342857Y-34375914D02*
X59457142Y-34490200D01*
X59457142Y-34490200D02*
X59628571Y-34547342D01*
X59628571Y-34547342D02*
X59742857Y-34547342D01*
X59742857Y-34547342D02*
X59914285Y-34490200D01*
X59914285Y-34490200D02*
X59971428Y-34433057D01*
X59971428Y-34433057D02*
X59971428Y-34033057D01*
X59971428Y-34033057D02*
X59742857Y-34033057D01*
X60485714Y-33918771D02*
X60885714Y-33918771D01*
X61057142Y-34547342D02*
X60485714Y-34547342D01*
X60485714Y-34547342D02*
X60485714Y-33347342D01*
X60485714Y-33347342D02*
X61057142Y-33347342D01*
X61571428Y-34547342D02*
X61571428Y-33347342D01*
X61571428Y-33347342D02*
X61971428Y-34204485D01*
X61971428Y-34204485D02*
X62371428Y-33347342D01*
X62371428Y-33347342D02*
X62371428Y-34547342D01*
X63857143Y-34090200D02*
X64771429Y-34090200D01*
X65342857Y-33747342D02*
X66257143Y-34090200D01*
X66257143Y-34090200D02*
X65342857Y-34433057D01*
X8333333Y-23359580D02*
X8285714Y-23407200D01*
X8285714Y-23407200D02*
X8142857Y-23454819D01*
X8142857Y-23454819D02*
X8047619Y-23454819D01*
X8047619Y-23454819D02*
X7904762Y-23407200D01*
X7904762Y-23407200D02*
X7809524Y-23311961D01*
X7809524Y-23311961D02*
X7761905Y-23216723D01*
X7761905Y-23216723D02*
X7714286Y-23026247D01*
X7714286Y-23026247D02*
X7714286Y-22883390D01*
X7714286Y-22883390D02*
X7761905Y-22692914D01*
X7761905Y-22692914D02*
X7809524Y-22597676D01*
X7809524Y-22597676D02*
X7904762Y-22502438D01*
X7904762Y-22502438D02*
X8047619Y-22454819D01*
X8047619Y-22454819D02*
X8142857Y-22454819D01*
X8142857Y-22454819D02*
X8285714Y-22502438D01*
X8285714Y-22502438D02*
X8333333Y-22550057D01*
X9285714Y-23454819D02*
X8714286Y-23454819D01*
X9000000Y-23454819D02*
X9000000Y-22454819D01*
X9000000Y-22454819D02*
X8904762Y-22597676D01*
X8904762Y-22597676D02*
X8809524Y-22692914D01*
X8809524Y-22692914D02*
X8714286Y-22740533D01*
X39036666Y3545180D02*
X39036666Y2830895D01*
X39036666Y2830895D02*
X38989047Y2688038D01*
X38989047Y2688038D02*
X38893809Y2592800D01*
X38893809Y2592800D02*
X38750952Y2545180D01*
X38750952Y2545180D02*
X38655714Y2545180D01*
X40036666Y2545180D02*
X39465238Y2545180D01*
X39750952Y2545180D02*
X39750952Y3545180D01*
X39750952Y3545180D02*
X39655714Y3402323D01*
X39655714Y3402323D02*
X39560476Y3307085D01*
X39560476Y3307085D02*
X39465238Y3259466D01*
X5337143Y-6808557D02*
X4822857Y-6808557D01*
X5080000Y-6808557D02*
X5080000Y-5908557D01*
X5080000Y-5908557D02*
X4994286Y-6037128D01*
X4994286Y-6037128D02*
X4908571Y-6122842D01*
X4908571Y-6122842D02*
X4822857Y-6165700D01*
X30948572Y-6765700D02*
X31077144Y-6808557D01*
X31077144Y-6808557D02*
X31291429Y-6808557D01*
X31291429Y-6808557D02*
X31377144Y-6765700D01*
X31377144Y-6765700D02*
X31420001Y-6722842D01*
X31420001Y-6722842D02*
X31462858Y-6637128D01*
X31462858Y-6637128D02*
X31462858Y-6551414D01*
X31462858Y-6551414D02*
X31420001Y-6465700D01*
X31420001Y-6465700D02*
X31377144Y-6422842D01*
X31377144Y-6422842D02*
X31291429Y-6379985D01*
X31291429Y-6379985D02*
X31120001Y-6337128D01*
X31120001Y-6337128D02*
X31034286Y-6294271D01*
X31034286Y-6294271D02*
X30991429Y-6251414D01*
X30991429Y-6251414D02*
X30948572Y-6165700D01*
X30948572Y-6165700D02*
X30948572Y-6079985D01*
X30948572Y-6079985D02*
X30991429Y-5994271D01*
X30991429Y-5994271D02*
X31034286Y-5951414D01*
X31034286Y-5951414D02*
X31120001Y-5908557D01*
X31120001Y-5908557D02*
X31334286Y-5908557D01*
X31334286Y-5908557D02*
X31462858Y-5951414D01*
X32020001Y-5908557D02*
X32191429Y-5908557D01*
X32191429Y-5908557D02*
X32277144Y-5951414D01*
X32277144Y-5951414D02*
X32362858Y-6037128D01*
X32362858Y-6037128D02*
X32405715Y-6208557D01*
X32405715Y-6208557D02*
X32405715Y-6508557D01*
X32405715Y-6508557D02*
X32362858Y-6679985D01*
X32362858Y-6679985D02*
X32277144Y-6765700D01*
X32277144Y-6765700D02*
X32191429Y-6808557D01*
X32191429Y-6808557D02*
X32020001Y-6808557D01*
X32020001Y-6808557D02*
X31934287Y-6765700D01*
X31934287Y-6765700D02*
X31848572Y-6679985D01*
X31848572Y-6679985D02*
X31805715Y-6508557D01*
X31805715Y-6508557D02*
X31805715Y-6208557D01*
X31805715Y-6208557D02*
X31848572Y-6037128D01*
X31848572Y-6037128D02*
X31934287Y-5951414D01*
X31934287Y-5951414D02*
X32020001Y-5908557D01*
X33220001Y-6808557D02*
X32791429Y-6808557D01*
X32791429Y-6808557D02*
X32791429Y-5908557D01*
X33520000Y-6808557D02*
X33520000Y-5908557D01*
X33520000Y-5908557D02*
X33734286Y-5908557D01*
X33734286Y-5908557D02*
X33862857Y-5951414D01*
X33862857Y-5951414D02*
X33948572Y-6037128D01*
X33948572Y-6037128D02*
X33991429Y-6122842D01*
X33991429Y-6122842D02*
X34034286Y-6294271D01*
X34034286Y-6294271D02*
X34034286Y-6422842D01*
X34034286Y-6422842D02*
X33991429Y-6594271D01*
X33991429Y-6594271D02*
X33948572Y-6679985D01*
X33948572Y-6679985D02*
X33862857Y-6765700D01*
X33862857Y-6765700D02*
X33734286Y-6808557D01*
X33734286Y-6808557D02*
X33520000Y-6808557D01*
X34377143Y-6551414D02*
X34805715Y-6551414D01*
X34291429Y-6808557D02*
X34591429Y-5908557D01*
X34591429Y-5908557D02*
X34891429Y-6808557D01*
X35705715Y-6808557D02*
X35405715Y-6379985D01*
X35191429Y-6808557D02*
X35191429Y-5908557D01*
X35191429Y-5908557D02*
X35534286Y-5908557D01*
X35534286Y-5908557D02*
X35620001Y-5951414D01*
X35620001Y-5951414D02*
X35662858Y-5994271D01*
X35662858Y-5994271D02*
X35705715Y-6079985D01*
X35705715Y-6079985D02*
X35705715Y-6208557D01*
X35705715Y-6208557D02*
X35662858Y-6294271D01*
X35662858Y-6294271D02*
X35620001Y-6337128D01*
X35620001Y-6337128D02*
X35534286Y-6379985D01*
X35534286Y-6379985D02*
X35191429Y-6379985D01*
X36777143Y-6808557D02*
X36777143Y-5908557D01*
X36777143Y-5908557D02*
X36991429Y-5908557D01*
X36991429Y-5908557D02*
X37120000Y-5951414D01*
X37120000Y-5951414D02*
X37205715Y-6037128D01*
X37205715Y-6037128D02*
X37248572Y-6122842D01*
X37248572Y-6122842D02*
X37291429Y-6294271D01*
X37291429Y-6294271D02*
X37291429Y-6422842D01*
X37291429Y-6422842D02*
X37248572Y-6594271D01*
X37248572Y-6594271D02*
X37205715Y-6679985D01*
X37205715Y-6679985D02*
X37120000Y-6765700D01*
X37120000Y-6765700D02*
X36991429Y-6808557D01*
X36991429Y-6808557D02*
X36777143Y-6808557D01*
X37848572Y-5908557D02*
X38020000Y-5908557D01*
X38020000Y-5908557D02*
X38105715Y-5951414D01*
X38105715Y-5951414D02*
X38191429Y-6037128D01*
X38191429Y-6037128D02*
X38234286Y-6208557D01*
X38234286Y-6208557D02*
X38234286Y-6508557D01*
X38234286Y-6508557D02*
X38191429Y-6679985D01*
X38191429Y-6679985D02*
X38105715Y-6765700D01*
X38105715Y-6765700D02*
X38020000Y-6808557D01*
X38020000Y-6808557D02*
X37848572Y-6808557D01*
X37848572Y-6808557D02*
X37762858Y-6765700D01*
X37762858Y-6765700D02*
X37677143Y-6679985D01*
X37677143Y-6679985D02*
X37634286Y-6508557D01*
X37634286Y-6508557D02*
X37634286Y-6208557D01*
X37634286Y-6208557D02*
X37677143Y-6037128D01*
X37677143Y-6037128D02*
X37762858Y-5951414D01*
X37762858Y-5951414D02*
X37848572Y-5908557D01*
X38577143Y-6765700D02*
X38705715Y-6808557D01*
X38705715Y-6808557D02*
X38920000Y-6808557D01*
X38920000Y-6808557D02*
X39005715Y-6765700D01*
X39005715Y-6765700D02*
X39048572Y-6722842D01*
X39048572Y-6722842D02*
X39091429Y-6637128D01*
X39091429Y-6637128D02*
X39091429Y-6551414D01*
X39091429Y-6551414D02*
X39048572Y-6465700D01*
X39048572Y-6465700D02*
X39005715Y-6422842D01*
X39005715Y-6422842D02*
X38920000Y-6379985D01*
X38920000Y-6379985D02*
X38748572Y-6337128D01*
X38748572Y-6337128D02*
X38662857Y-6294271D01*
X38662857Y-6294271D02*
X38620000Y-6251414D01*
X38620000Y-6251414D02*
X38577143Y-6165700D01*
X38577143Y-6165700D02*
X38577143Y-6079985D01*
X38577143Y-6079985D02*
X38620000Y-5994271D01*
X38620000Y-5994271D02*
X38662857Y-5951414D01*
X38662857Y-5951414D02*
X38748572Y-5908557D01*
X38748572Y-5908557D02*
X38962857Y-5908557D01*
X38962857Y-5908557D02*
X39091429Y-5951414D01*
X40162857Y-6808557D02*
X40162857Y-5908557D01*
X40162857Y-5908557D02*
X40377143Y-5908557D01*
X40377143Y-5908557D02*
X40505714Y-5951414D01*
X40505714Y-5951414D02*
X40591429Y-6037128D01*
X40591429Y-6037128D02*
X40634286Y-6122842D01*
X40634286Y-6122842D02*
X40677143Y-6294271D01*
X40677143Y-6294271D02*
X40677143Y-6422842D01*
X40677143Y-6422842D02*
X40634286Y-6594271D01*
X40634286Y-6594271D02*
X40591429Y-6679985D01*
X40591429Y-6679985D02*
X40505714Y-6765700D01*
X40505714Y-6765700D02*
X40377143Y-6808557D01*
X40377143Y-6808557D02*
X40162857Y-6808557D01*
X41234286Y-5908557D02*
X41405714Y-5908557D01*
X41405714Y-5908557D02*
X41491429Y-5951414D01*
X41491429Y-5951414D02*
X41577143Y-6037128D01*
X41577143Y-6037128D02*
X41620000Y-6208557D01*
X41620000Y-6208557D02*
X41620000Y-6508557D01*
X41620000Y-6508557D02*
X41577143Y-6679985D01*
X41577143Y-6679985D02*
X41491429Y-6765700D01*
X41491429Y-6765700D02*
X41405714Y-6808557D01*
X41405714Y-6808557D02*
X41234286Y-6808557D01*
X41234286Y-6808557D02*
X41148572Y-6765700D01*
X41148572Y-6765700D02*
X41062857Y-6679985D01*
X41062857Y-6679985D02*
X41020000Y-6508557D01*
X41020000Y-6508557D02*
X41020000Y-6208557D01*
X41020000Y-6208557D02*
X41062857Y-6037128D01*
X41062857Y-6037128D02*
X41148572Y-5951414D01*
X41148572Y-5951414D02*
X41234286Y-5908557D01*
X42005714Y-6808557D02*
X42005714Y-5908557D01*
X42391428Y-6765700D02*
X42520000Y-6808557D01*
X42520000Y-6808557D02*
X42734285Y-6808557D01*
X42734285Y-6808557D02*
X42820000Y-6765700D01*
X42820000Y-6765700D02*
X42862857Y-6722842D01*
X42862857Y-6722842D02*
X42905714Y-6637128D01*
X42905714Y-6637128D02*
X42905714Y-6551414D01*
X42905714Y-6551414D02*
X42862857Y-6465700D01*
X42862857Y-6465700D02*
X42820000Y-6422842D01*
X42820000Y-6422842D02*
X42734285Y-6379985D01*
X42734285Y-6379985D02*
X42562857Y-6337128D01*
X42562857Y-6337128D02*
X42477142Y-6294271D01*
X42477142Y-6294271D02*
X42434285Y-6251414D01*
X42434285Y-6251414D02*
X42391428Y-6165700D01*
X42391428Y-6165700D02*
X42391428Y-6079985D01*
X42391428Y-6079985D02*
X42434285Y-5994271D01*
X42434285Y-5994271D02*
X42477142Y-5951414D01*
X42477142Y-5951414D02*
X42562857Y-5908557D01*
X42562857Y-5908557D02*
X42777142Y-5908557D01*
X42777142Y-5908557D02*
X42905714Y-5951414D01*
X44405714Y-6808557D02*
X43977142Y-6808557D01*
X43977142Y-6808557D02*
X43977142Y-5908557D01*
X44662856Y-6551414D02*
X45091428Y-6551414D01*
X44577142Y-6808557D02*
X44877142Y-5908557D01*
X44877142Y-5908557D02*
X45177142Y-6808557D01*
X45477142Y-6808557D02*
X45477142Y-5908557D01*
X45477142Y-5908557D02*
X45691428Y-5908557D01*
X45691428Y-5908557D02*
X45819999Y-5951414D01*
X45819999Y-5951414D02*
X45905714Y-6037128D01*
X45905714Y-6037128D02*
X45948571Y-6122842D01*
X45948571Y-6122842D02*
X45991428Y-6294271D01*
X45991428Y-6294271D02*
X45991428Y-6422842D01*
X45991428Y-6422842D02*
X45948571Y-6594271D01*
X45948571Y-6594271D02*
X45905714Y-6679985D01*
X45905714Y-6679985D02*
X45819999Y-6765700D01*
X45819999Y-6765700D02*
X45691428Y-6808557D01*
X45691428Y-6808557D02*
X45477142Y-6808557D01*
X46548571Y-5908557D02*
X46719999Y-5908557D01*
X46719999Y-5908557D02*
X46805714Y-5951414D01*
X46805714Y-5951414D02*
X46891428Y-6037128D01*
X46891428Y-6037128D02*
X46934285Y-6208557D01*
X46934285Y-6208557D02*
X46934285Y-6508557D01*
X46934285Y-6508557D02*
X46891428Y-6679985D01*
X46891428Y-6679985D02*
X46805714Y-6765700D01*
X46805714Y-6765700D02*
X46719999Y-6808557D01*
X46719999Y-6808557D02*
X46548571Y-6808557D01*
X46548571Y-6808557D02*
X46462857Y-6765700D01*
X46462857Y-6765700D02*
X46377142Y-6679985D01*
X46377142Y-6679985D02*
X46334285Y-6508557D01*
X46334285Y-6508557D02*
X46334285Y-6208557D01*
X46334285Y-6208557D02*
X46377142Y-6037128D01*
X46377142Y-6037128D02*
X46462857Y-5951414D01*
X46462857Y-5951414D02*
X46548571Y-5908557D01*
X47277142Y-6765700D02*
X47405714Y-6808557D01*
X47405714Y-6808557D02*
X47619999Y-6808557D01*
X47619999Y-6808557D02*
X47705714Y-6765700D01*
X47705714Y-6765700D02*
X47748571Y-6722842D01*
X47748571Y-6722842D02*
X47791428Y-6637128D01*
X47791428Y-6637128D02*
X47791428Y-6551414D01*
X47791428Y-6551414D02*
X47748571Y-6465700D01*
X47748571Y-6465700D02*
X47705714Y-6422842D01*
X47705714Y-6422842D02*
X47619999Y-6379985D01*
X47619999Y-6379985D02*
X47448571Y-6337128D01*
X47448571Y-6337128D02*
X47362856Y-6294271D01*
X47362856Y-6294271D02*
X47319999Y-6251414D01*
X47319999Y-6251414D02*
X47277142Y-6165700D01*
X47277142Y-6165700D02*
X47277142Y-6079985D01*
X47277142Y-6079985D02*
X47319999Y-5994271D01*
X47319999Y-5994271D02*
X47362856Y-5951414D01*
X47362856Y-5951414D02*
X47448571Y-5908557D01*
X47448571Y-5908557D02*
X47662856Y-5908557D01*
X47662856Y-5908557D02*
X47791428Y-5951414D01*
X72974285Y-5994271D02*
X73017142Y-5951414D01*
X73017142Y-5951414D02*
X73102857Y-5908557D01*
X73102857Y-5908557D02*
X73317142Y-5908557D01*
X73317142Y-5908557D02*
X73402857Y-5951414D01*
X73402857Y-5951414D02*
X73445714Y-5994271D01*
X73445714Y-5994271D02*
X73488571Y-6079985D01*
X73488571Y-6079985D02*
X73488571Y-6165700D01*
X73488571Y-6165700D02*
X73445714Y-6294271D01*
X73445714Y-6294271D02*
X72931428Y-6808557D01*
X72931428Y-6808557D02*
X73488571Y-6808557D01*
X74002857Y-6294271D02*
X73917142Y-6251414D01*
X73917142Y-6251414D02*
X73874285Y-6208557D01*
X73874285Y-6208557D02*
X73831428Y-6122842D01*
X73831428Y-6122842D02*
X73831428Y-6079985D01*
X73831428Y-6079985D02*
X73874285Y-5994271D01*
X73874285Y-5994271D02*
X73917142Y-5951414D01*
X73917142Y-5951414D02*
X74002857Y-5908557D01*
X74002857Y-5908557D02*
X74174285Y-5908557D01*
X74174285Y-5908557D02*
X74260000Y-5951414D01*
X74260000Y-5951414D02*
X74302857Y-5994271D01*
X74302857Y-5994271D02*
X74345714Y-6079985D01*
X74345714Y-6079985D02*
X74345714Y-6122842D01*
X74345714Y-6122842D02*
X74302857Y-6208557D01*
X74302857Y-6208557D02*
X74260000Y-6251414D01*
X74260000Y-6251414D02*
X74174285Y-6294271D01*
X74174285Y-6294271D02*
X74002857Y-6294271D01*
X74002857Y-6294271D02*
X73917142Y-6337128D01*
X73917142Y-6337128D02*
X73874285Y-6379985D01*
X73874285Y-6379985D02*
X73831428Y-6465700D01*
X73831428Y-6465700D02*
X73831428Y-6637128D01*
X73831428Y-6637128D02*
X73874285Y-6722842D01*
X73874285Y-6722842D02*
X73917142Y-6765700D01*
X73917142Y-6765700D02*
X74002857Y-6808557D01*
X74002857Y-6808557D02*
X74174285Y-6808557D01*
X74174285Y-6808557D02*
X74260000Y-6765700D01*
X74260000Y-6765700D02*
X74302857Y-6722842D01*
X74302857Y-6722842D02*
X74345714Y-6637128D01*
X74345714Y-6637128D02*
X74345714Y-6465700D01*
X74345714Y-6465700D02*
X74302857Y-6379985D01*
X74302857Y-6379985D02*
X74260000Y-6337128D01*
X74260000Y-6337128D02*
X74174285Y-6294271D01*
X39036666Y-34144819D02*
X39036666Y-34859104D01*
X39036666Y-34859104D02*
X38989047Y-35001961D01*
X38989047Y-35001961D02*
X38893809Y-35097200D01*
X38893809Y-35097200D02*
X38750952Y-35144819D01*
X38750952Y-35144819D02*
X38655714Y-35144819D01*
X39465238Y-34240057D02*
X39512857Y-34192438D01*
X39512857Y-34192438D02*
X39608095Y-34144819D01*
X39608095Y-34144819D02*
X39846190Y-34144819D01*
X39846190Y-34144819D02*
X39941428Y-34192438D01*
X39941428Y-34192438D02*
X39989047Y-34240057D01*
X39989047Y-34240057D02*
X40036666Y-34335295D01*
X40036666Y-34335295D02*
X40036666Y-34430533D01*
X40036666Y-34430533D02*
X39989047Y-34573390D01*
X39989047Y-34573390D02*
X39417619Y-35144819D01*
X39417619Y-35144819D02*
X40036666Y-35144819D01*
X4841904Y-35244819D02*
X4365714Y-35244819D01*
X4365714Y-35244819D02*
X4318095Y-35721009D01*
X4318095Y-35721009D02*
X4365714Y-35673390D01*
X4365714Y-35673390D02*
X4460952Y-35625771D01*
X4460952Y-35625771D02*
X4699047Y-35625771D01*
X4699047Y-35625771D02*
X4794285Y-35673390D01*
X4794285Y-35673390D02*
X4841904Y-35721009D01*
X4841904Y-35721009D02*
X4889523Y-35816247D01*
X4889523Y-35816247D02*
X4889523Y-36054342D01*
X4889523Y-36054342D02*
X4841904Y-36149580D01*
X4841904Y-36149580D02*
X4794285Y-36197200D01*
X4794285Y-36197200D02*
X4699047Y-36244819D01*
X4699047Y-36244819D02*
X4460952Y-36244819D01*
X4460952Y-36244819D02*
X4365714Y-36197200D01*
X4365714Y-36197200D02*
X4318095Y-36149580D01*
X5746666Y-35244819D02*
X5556190Y-35244819D01*
X5556190Y-35244819D02*
X5460952Y-35292438D01*
X5460952Y-35292438D02*
X5413333Y-35340057D01*
X5413333Y-35340057D02*
X5318095Y-35482914D01*
X5318095Y-35482914D02*
X5270476Y-35673390D01*
X5270476Y-35673390D02*
X5270476Y-36054342D01*
X5270476Y-36054342D02*
X5318095Y-36149580D01*
X5318095Y-36149580D02*
X5365714Y-36197200D01*
X5365714Y-36197200D02*
X5460952Y-36244819D01*
X5460952Y-36244819D02*
X5651428Y-36244819D01*
X5651428Y-36244819D02*
X5746666Y-36197200D01*
X5746666Y-36197200D02*
X5794285Y-36149580D01*
X5794285Y-36149580D02*
X5841904Y-36054342D01*
X5841904Y-36054342D02*
X5841904Y-35816247D01*
X5841904Y-35816247D02*
X5794285Y-35721009D01*
X5794285Y-35721009D02*
X5746666Y-35673390D01*
X5746666Y-35673390D02*
X5651428Y-35625771D01*
X5651428Y-35625771D02*
X5460952Y-35625771D01*
X5460952Y-35625771D02*
X5365714Y-35673390D01*
X5365714Y-35673390D02*
X5318095Y-35721009D01*
X5318095Y-35721009D02*
X5270476Y-35816247D01*
X72898095Y-35340057D02*
X72945714Y-35292438D01*
X72945714Y-35292438D02*
X73040952Y-35244819D01*
X73040952Y-35244819D02*
X73279047Y-35244819D01*
X73279047Y-35244819D02*
X73374285Y-35292438D01*
X73374285Y-35292438D02*
X73421904Y-35340057D01*
X73421904Y-35340057D02*
X73469523Y-35435295D01*
X73469523Y-35435295D02*
X73469523Y-35530533D01*
X73469523Y-35530533D02*
X73421904Y-35673390D01*
X73421904Y-35673390D02*
X72850476Y-36244819D01*
X72850476Y-36244819D02*
X73469523Y-36244819D01*
X73945714Y-36244819D02*
X74136190Y-36244819D01*
X74136190Y-36244819D02*
X74231428Y-36197200D01*
X74231428Y-36197200D02*
X74279047Y-36149580D01*
X74279047Y-36149580D02*
X74374285Y-36006723D01*
X74374285Y-36006723D02*
X74421904Y-35816247D01*
X74421904Y-35816247D02*
X74421904Y-35435295D01*
X74421904Y-35435295D02*
X74374285Y-35340057D01*
X74374285Y-35340057D02*
X74326666Y-35292438D01*
X74326666Y-35292438D02*
X74231428Y-35244819D01*
X74231428Y-35244819D02*
X74040952Y-35244819D01*
X74040952Y-35244819D02*
X73945714Y-35292438D01*
X73945714Y-35292438D02*
X73898095Y-35340057D01*
X73898095Y-35340057D02*
X73850476Y-35435295D01*
X73850476Y-35435295D02*
X73850476Y-35673390D01*
X73850476Y-35673390D02*
X73898095Y-35768628D01*
X73898095Y-35768628D02*
X73945714Y-35816247D01*
X73945714Y-35816247D02*
X74040952Y-35863866D01*
X74040952Y-35863866D02*
X74231428Y-35863866D01*
X74231428Y-35863866D02*
X74326666Y-35816247D01*
X74326666Y-35816247D02*
X74374285Y-35768628D01*
X74374285Y-35768628D02*
X74421904Y-35673390D01*
%TO.C,C1*%
D12*
X5880000Y-18630000D02*
X11120000Y-18630000D01*
X5880000Y-18967000D02*
X5880000Y-18630000D01*
X5880000Y-21370000D02*
X5880000Y-21033000D01*
X11120000Y-18630000D02*
X11120000Y-18967000D01*
X11120000Y-21033000D02*
X11120000Y-21370000D01*
X11120000Y-21370000D02*
X5880000Y-21370000D01*
%TO.C,J1*%
D11*
X3080000Y0D02*
X75660000Y0D01*
X3080000Y-5400000D02*
X3080000Y0D01*
X15240000Y0D02*
X15240000Y-5400000D01*
X75660000Y0D02*
X75660000Y-5400000D01*
X75660000Y-5400000D02*
X3080000Y-5400000D01*
%TD*%
%LPC*%
D13*
%TO.C,C1*%
X6000000Y-20000000D03*
X11000000Y-20000000D03*
%TD*%
D14*
%TO.C,J1*%
X73660000Y-2500000D03*
X71120000Y-2500000D03*
X68580000Y-2500000D03*
X66040000Y-2500000D03*
X63500000Y-2500000D03*
X60960000Y-2500000D03*
X58420000Y-2500000D03*
X55880000Y-2500000D03*
X53340000Y-2500000D03*
X50800000Y-2500000D03*
X48260000Y-2500000D03*
X45720000Y-2500000D03*
X43180000Y-2500000D03*
X40640000Y-2500000D03*
X38100000Y-2500000D03*
X35560000Y-2500000D03*
X33020000Y-2500000D03*
X30480000Y-2500000D03*
X27940000Y-2500000D03*
X25400000Y-2500000D03*
X22860000Y-2500000D03*
X20320000Y-2500000D03*
X17780000Y-2500000D03*
X12700000Y-2500000D03*
X10160000Y-2500000D03*
X7620000Y-2500000D03*
X5080000Y-2500000D03*
%TD*%
D15*
%TO.C,J2*%
X73660000Y-41190000D03*
X71120000Y-41190000D03*
X68580000Y-41190000D03*
X66040000Y-41190000D03*
X63500000Y-41190000D03*
X60960000Y-41190000D03*
X58420000Y-41190000D03*
X55880000Y-41190000D03*
X53340000Y-41190000D03*
X50800000Y-41190000D03*
X48260000Y-41190000D03*
X45720000Y-41190000D03*
X43180000Y-41190000D03*
X40640000Y-41190000D03*
X38100000Y-41190000D03*
X35560000Y-41190000D03*
X33020000Y-41190000D03*
X30480000Y-41190000D03*
X27940000Y-41190000D03*
X25400000Y-41190000D03*
X22860000Y-41190000D03*
X20320000Y-41190000D03*
X17780000Y-41190000D03*
X12700000Y-41190000D03*
X10160000Y-41190000D03*
X7620000Y-41190000D03*
X5080000Y-41190000D03*
%TD*%
%LPD*%
M02*
