%TF.GenerationSoftware,KiCad,Pcbnew,10.0.4*%
%TF.CreationDate,2026-07-27T22:45:45-03:00*%
%TF.ProjectId,tkmem128-expansor,746b6d65-6d31-4323-982d-657870616e73,rev?*%
%TF.SameCoordinates,Original*%
%TF.FileFunction,Legend,Top*%
%TF.FilePolarity,Positive*%
%FSLAX46Y46*%
G04 Gerber Fmt 4.6, Leading zero omitted, Abs format (unit mm)*
G04 Created by KiCad (PCBNEW 10.0.4) date 2026-07-27 22:45:45*
%MOMM*%
%LPD*%
G01*
G04 APERTURE LIST*
%ADD10C,0.200000*%
%ADD11C,0.150000*%
%ADD12C,0.120000*%
G04 APERTURE END LIST*
D10*
X3000000Y-30000000D02*
X75700000Y-30000000D01*
D11*
X12329761Y-28418760D02*
X12329761Y-29268760D01*
X12329761Y-28459236D02*
X12410714Y-28418760D01*
X12410714Y-28418760D02*
X12572619Y-28418760D01*
X12572619Y-28418760D02*
X12653571Y-28459236D01*
X12653571Y-28459236D02*
X12694047Y-28499712D01*
X12694047Y-28499712D02*
X12734523Y-28580665D01*
X12734523Y-28580665D02*
X12734523Y-28823522D01*
X12734523Y-28823522D02*
X12694047Y-28904474D01*
X12694047Y-28904474D02*
X12653571Y-28944951D01*
X12653571Y-28944951D02*
X12572619Y-28985427D01*
X12572619Y-28985427D02*
X12410714Y-28985427D01*
X12410714Y-28985427D02*
X12329761Y-28944951D01*
X13463095Y-28985427D02*
X13463095Y-28540189D01*
X13463095Y-28540189D02*
X13422619Y-28459236D01*
X13422619Y-28459236D02*
X13341667Y-28418760D01*
X13341667Y-28418760D02*
X13179762Y-28418760D01*
X13179762Y-28418760D02*
X13098809Y-28459236D01*
X13463095Y-28944951D02*
X13382143Y-28985427D01*
X13382143Y-28985427D02*
X13179762Y-28985427D01*
X13179762Y-28985427D02*
X13098809Y-28944951D01*
X13098809Y-28944951D02*
X13058333Y-28863998D01*
X13058333Y-28863998D02*
X13058333Y-28783046D01*
X13058333Y-28783046D02*
X13098809Y-28702093D01*
X13098809Y-28702093D02*
X13179762Y-28661617D01*
X13179762Y-28661617D02*
X13382143Y-28661617D01*
X13382143Y-28661617D02*
X13463095Y-28621141D01*
X13867857Y-28985427D02*
X13867857Y-28418760D01*
X13867857Y-28580665D02*
X13908334Y-28499712D01*
X13908334Y-28499712D02*
X13948810Y-28459236D01*
X13948810Y-28459236D02*
X14029762Y-28418760D01*
X14029762Y-28418760D02*
X14110715Y-28418760D01*
X14717857Y-28944951D02*
X14636905Y-28985427D01*
X14636905Y-28985427D02*
X14475000Y-28985427D01*
X14475000Y-28985427D02*
X14394047Y-28944951D01*
X14394047Y-28944951D02*
X14353571Y-28863998D01*
X14353571Y-28863998D02*
X14353571Y-28540189D01*
X14353571Y-28540189D02*
X14394047Y-28459236D01*
X14394047Y-28459236D02*
X14475000Y-28418760D01*
X14475000Y-28418760D02*
X14636905Y-28418760D01*
X14636905Y-28418760D02*
X14717857Y-28459236D01*
X14717857Y-28459236D02*
X14758333Y-28540189D01*
X14758333Y-28540189D02*
X14758333Y-28621141D01*
X14758333Y-28621141D02*
X14353571Y-28702093D01*
X15486904Y-28985427D02*
X15486904Y-28135427D01*
X15486904Y-28944951D02*
X15405952Y-28985427D01*
X15405952Y-28985427D02*
X15244047Y-28985427D01*
X15244047Y-28985427D02*
X15163095Y-28944951D01*
X15163095Y-28944951D02*
X15122618Y-28904474D01*
X15122618Y-28904474D02*
X15082142Y-28823522D01*
X15082142Y-28823522D02*
X15082142Y-28580665D01*
X15082142Y-28580665D02*
X15122618Y-28499712D01*
X15122618Y-28499712D02*
X15163095Y-28459236D01*
X15163095Y-28459236D02*
X15244047Y-28418760D01*
X15244047Y-28418760D02*
X15405952Y-28418760D01*
X15405952Y-28418760D02*
X15486904Y-28459236D01*
X16215476Y-28944951D02*
X16134524Y-28985427D01*
X16134524Y-28985427D02*
X15972619Y-28985427D01*
X15972619Y-28985427D02*
X15891666Y-28944951D01*
X15891666Y-28944951D02*
X15851190Y-28863998D01*
X15851190Y-28863998D02*
X15851190Y-28540189D01*
X15851190Y-28540189D02*
X15891666Y-28459236D01*
X15891666Y-28459236D02*
X15972619Y-28418760D01*
X15972619Y-28418760D02*
X16134524Y-28418760D01*
X16134524Y-28418760D02*
X16215476Y-28459236D01*
X16215476Y-28459236D02*
X16255952Y-28540189D01*
X16255952Y-28540189D02*
X16255952Y-28621141D01*
X16255952Y-28621141D02*
X15851190Y-28702093D01*
X17632142Y-28985427D02*
X17632142Y-28135427D01*
X17632142Y-28944951D02*
X17551190Y-28985427D01*
X17551190Y-28985427D02*
X17389285Y-28985427D01*
X17389285Y-28985427D02*
X17308333Y-28944951D01*
X17308333Y-28944951D02*
X17267856Y-28904474D01*
X17267856Y-28904474D02*
X17227380Y-28823522D01*
X17227380Y-28823522D02*
X17227380Y-28580665D01*
X17227380Y-28580665D02*
X17267856Y-28499712D01*
X17267856Y-28499712D02*
X17308333Y-28459236D01*
X17308333Y-28459236D02*
X17389285Y-28418760D01*
X17389285Y-28418760D02*
X17551190Y-28418760D01*
X17551190Y-28418760D02*
X17632142Y-28459236D01*
X18360714Y-28944951D02*
X18279762Y-28985427D01*
X18279762Y-28985427D02*
X18117857Y-28985427D01*
X18117857Y-28985427D02*
X18036904Y-28944951D01*
X18036904Y-28944951D02*
X17996428Y-28863998D01*
X17996428Y-28863998D02*
X17996428Y-28540189D01*
X17996428Y-28540189D02*
X18036904Y-28459236D01*
X18036904Y-28459236D02*
X18117857Y-28418760D01*
X18117857Y-28418760D02*
X18279762Y-28418760D01*
X18279762Y-28418760D02*
X18360714Y-28459236D01*
X18360714Y-28459236D02*
X18401190Y-28540189D01*
X18401190Y-28540189D02*
X18401190Y-28621141D01*
X18401190Y-28621141D02*
X17996428Y-28702093D01*
X19291666Y-28418760D02*
X19615475Y-28418760D01*
X19413094Y-28135427D02*
X19413094Y-28863998D01*
X19413094Y-28863998D02*
X19453571Y-28944951D01*
X19453571Y-28944951D02*
X19534523Y-28985427D01*
X19534523Y-28985427D02*
X19615475Y-28985427D01*
X19898808Y-28985427D02*
X19898808Y-28418760D01*
X19898808Y-28580665D02*
X19939285Y-28499712D01*
X19939285Y-28499712D02*
X19979761Y-28459236D01*
X19979761Y-28459236D02*
X20060713Y-28418760D01*
X20060713Y-28418760D02*
X20141666Y-28418760D01*
X20789284Y-28985427D02*
X20789284Y-28540189D01*
X20789284Y-28540189D02*
X20748808Y-28459236D01*
X20748808Y-28459236D02*
X20667856Y-28418760D01*
X20667856Y-28418760D02*
X20505951Y-28418760D01*
X20505951Y-28418760D02*
X20424998Y-28459236D01*
X20789284Y-28944951D02*
X20708332Y-28985427D01*
X20708332Y-28985427D02*
X20505951Y-28985427D01*
X20505951Y-28985427D02*
X20424998Y-28944951D01*
X20424998Y-28944951D02*
X20384522Y-28863998D01*
X20384522Y-28863998D02*
X20384522Y-28783046D01*
X20384522Y-28783046D02*
X20424998Y-28702093D01*
X20424998Y-28702093D02*
X20505951Y-28661617D01*
X20505951Y-28661617D02*
X20708332Y-28661617D01*
X20708332Y-28661617D02*
X20789284Y-28621141D01*
X21153570Y-28944951D02*
X21234523Y-28985427D01*
X21234523Y-28985427D02*
X21396427Y-28985427D01*
X21396427Y-28985427D02*
X21477380Y-28944951D01*
X21477380Y-28944951D02*
X21517856Y-28863998D01*
X21517856Y-28863998D02*
X21517856Y-28823522D01*
X21517856Y-28823522D02*
X21477380Y-28742570D01*
X21477380Y-28742570D02*
X21396427Y-28702093D01*
X21396427Y-28702093D02*
X21274999Y-28702093D01*
X21274999Y-28702093D02*
X21194046Y-28661617D01*
X21194046Y-28661617D02*
X21153570Y-28580665D01*
X21153570Y-28580665D02*
X21153570Y-28540189D01*
X21153570Y-28540189D02*
X21194046Y-28459236D01*
X21194046Y-28459236D02*
X21274999Y-28418760D01*
X21274999Y-28418760D02*
X21396427Y-28418760D01*
X21396427Y-28418760D02*
X21477380Y-28459236D01*
X22894046Y-28985427D02*
X22894046Y-28135427D01*
X22894046Y-28944951D02*
X22813094Y-28985427D01*
X22813094Y-28985427D02*
X22651189Y-28985427D01*
X22651189Y-28985427D02*
X22570237Y-28944951D01*
X22570237Y-28944951D02*
X22529760Y-28904474D01*
X22529760Y-28904474D02*
X22489284Y-28823522D01*
X22489284Y-28823522D02*
X22489284Y-28580665D01*
X22489284Y-28580665D02*
X22529760Y-28499712D01*
X22529760Y-28499712D02*
X22570237Y-28459236D01*
X22570237Y-28459236D02*
X22651189Y-28418760D01*
X22651189Y-28418760D02*
X22813094Y-28418760D01*
X22813094Y-28418760D02*
X22894046Y-28459236D01*
X23663094Y-28985427D02*
X23663094Y-28540189D01*
X23663094Y-28540189D02*
X23622618Y-28459236D01*
X23622618Y-28459236D02*
X23541666Y-28418760D01*
X23541666Y-28418760D02*
X23379761Y-28418760D01*
X23379761Y-28418760D02*
X23298808Y-28459236D01*
X23663094Y-28944951D02*
X23582142Y-28985427D01*
X23582142Y-28985427D02*
X23379761Y-28985427D01*
X23379761Y-28985427D02*
X23298808Y-28944951D01*
X23298808Y-28944951D02*
X23258332Y-28863998D01*
X23258332Y-28863998D02*
X23258332Y-28783046D01*
X23258332Y-28783046D02*
X23298808Y-28702093D01*
X23298808Y-28702093D02*
X23379761Y-28661617D01*
X23379761Y-28661617D02*
X23582142Y-28661617D01*
X23582142Y-28661617D02*
X23663094Y-28621141D01*
X25079761Y-28944951D02*
X24998809Y-28985427D01*
X24998809Y-28985427D02*
X24836904Y-28985427D01*
X24836904Y-28985427D02*
X24755952Y-28944951D01*
X24755952Y-28944951D02*
X24715475Y-28904474D01*
X24715475Y-28904474D02*
X24674999Y-28823522D01*
X24674999Y-28823522D02*
X24674999Y-28580665D01*
X24674999Y-28580665D02*
X24715475Y-28499712D01*
X24715475Y-28499712D02*
X24755952Y-28459236D01*
X24755952Y-28459236D02*
X24836904Y-28418760D01*
X24836904Y-28418760D02*
X24998809Y-28418760D01*
X24998809Y-28418760D02*
X25079761Y-28459236D01*
X25808332Y-28985427D02*
X25808332Y-28540189D01*
X25808332Y-28540189D02*
X25767856Y-28459236D01*
X25767856Y-28459236D02*
X25686904Y-28418760D01*
X25686904Y-28418760D02*
X25524999Y-28418760D01*
X25524999Y-28418760D02*
X25444046Y-28459236D01*
X25808332Y-28944951D02*
X25727380Y-28985427D01*
X25727380Y-28985427D02*
X25524999Y-28985427D01*
X25524999Y-28985427D02*
X25444046Y-28944951D01*
X25444046Y-28944951D02*
X25403570Y-28863998D01*
X25403570Y-28863998D02*
X25403570Y-28783046D01*
X25403570Y-28783046D02*
X25444046Y-28702093D01*
X25444046Y-28702093D02*
X25524999Y-28661617D01*
X25524999Y-28661617D02*
X25727380Y-28661617D01*
X25727380Y-28661617D02*
X25808332Y-28621141D01*
X26213094Y-28985427D02*
X26213094Y-28418760D01*
X26213094Y-28135427D02*
X26172618Y-28175903D01*
X26172618Y-28175903D02*
X26213094Y-28216379D01*
X26213094Y-28216379D02*
X26253571Y-28175903D01*
X26253571Y-28175903D02*
X26213094Y-28135427D01*
X26213094Y-28135427D02*
X26213094Y-28216379D01*
X26536904Y-28985427D02*
X26982142Y-28418760D01*
X26536904Y-28418760D02*
X26982142Y-28985427D01*
X27670237Y-28985427D02*
X27670237Y-28540189D01*
X27670237Y-28540189D02*
X27629761Y-28459236D01*
X27629761Y-28459236D02*
X27548809Y-28418760D01*
X27548809Y-28418760D02*
X27386904Y-28418760D01*
X27386904Y-28418760D02*
X27305951Y-28459236D01*
X27670237Y-28944951D02*
X27589285Y-28985427D01*
X27589285Y-28985427D02*
X27386904Y-28985427D01*
X27386904Y-28985427D02*
X27305951Y-28944951D01*
X27305951Y-28944951D02*
X27265475Y-28863998D01*
X27265475Y-28863998D02*
X27265475Y-28783046D01*
X27265475Y-28783046D02*
X27305951Y-28702093D01*
X27305951Y-28702093D02*
X27386904Y-28661617D01*
X27386904Y-28661617D02*
X27589285Y-28661617D01*
X27589285Y-28661617D02*
X27670237Y-28621141D01*
X34036666Y-16954819D02*
X34608094Y-16954819D01*
X34322380Y-17954819D02*
X34322380Y-16954819D01*
X34941428Y-17954819D02*
X34941428Y-16954819D01*
X35512856Y-17954819D02*
X35084285Y-17383390D01*
X35512856Y-16954819D02*
X34941428Y-17526247D01*
X35989047Y-17954819D02*
X36179523Y-17954819D01*
X36179523Y-17954819D02*
X36274761Y-17907200D01*
X36274761Y-17907200D02*
X36322380Y-17859580D01*
X36322380Y-17859580D02*
X36417618Y-17716723D01*
X36417618Y-17716723D02*
X36465237Y-17526247D01*
X36465237Y-17526247D02*
X36465237Y-17145295D01*
X36465237Y-17145295D02*
X36417618Y-17050057D01*
X36417618Y-17050057D02*
X36369999Y-17002438D01*
X36369999Y-17002438D02*
X36274761Y-16954819D01*
X36274761Y-16954819D02*
X36084285Y-16954819D01*
X36084285Y-16954819D02*
X35989047Y-17002438D01*
X35989047Y-17002438D02*
X35941428Y-17050057D01*
X35941428Y-17050057D02*
X35893809Y-17145295D01*
X35893809Y-17145295D02*
X35893809Y-17383390D01*
X35893809Y-17383390D02*
X35941428Y-17478628D01*
X35941428Y-17478628D02*
X35989047Y-17526247D01*
X35989047Y-17526247D02*
X36084285Y-17573866D01*
X36084285Y-17573866D02*
X36274761Y-17573866D01*
X36274761Y-17573866D02*
X36369999Y-17526247D01*
X36369999Y-17526247D02*
X36417618Y-17478628D01*
X36417618Y-17478628D02*
X36465237Y-17383390D01*
X37084285Y-16954819D02*
X37179523Y-16954819D01*
X37179523Y-16954819D02*
X37274761Y-17002438D01*
X37274761Y-17002438D02*
X37322380Y-17050057D01*
X37322380Y-17050057D02*
X37369999Y-17145295D01*
X37369999Y-17145295D02*
X37417618Y-17335771D01*
X37417618Y-17335771D02*
X37417618Y-17573866D01*
X37417618Y-17573866D02*
X37369999Y-17764342D01*
X37369999Y-17764342D02*
X37322380Y-17859580D01*
X37322380Y-17859580D02*
X37274761Y-17907200D01*
X37274761Y-17907200D02*
X37179523Y-17954819D01*
X37179523Y-17954819D02*
X37084285Y-17954819D01*
X37084285Y-17954819D02*
X36989047Y-17907200D01*
X36989047Y-17907200D02*
X36941428Y-17859580D01*
X36941428Y-17859580D02*
X36893809Y-17764342D01*
X36893809Y-17764342D02*
X36846190Y-17573866D01*
X36846190Y-17573866D02*
X36846190Y-17335771D01*
X36846190Y-17335771D02*
X36893809Y-17145295D01*
X36893809Y-17145295D02*
X36941428Y-17050057D01*
X36941428Y-17050057D02*
X36989047Y-17002438D01*
X36989047Y-17002438D02*
X37084285Y-16954819D01*
X37750952Y-16954819D02*
X38417618Y-17954819D01*
X38417618Y-16954819D02*
X37750952Y-17954819D01*
X40274761Y-16907200D02*
X39417619Y-18192914D01*
X41227143Y-16954819D02*
X41798571Y-16954819D01*
X41512857Y-17954819D02*
X41512857Y-16954819D01*
X42131905Y-17954819D02*
X42131905Y-16954819D01*
X42703333Y-17954819D02*
X42274762Y-17383390D01*
X42703333Y-16954819D02*
X42131905Y-17526247D01*
X43179524Y-17954819D02*
X43370000Y-17954819D01*
X43370000Y-17954819D02*
X43465238Y-17907200D01*
X43465238Y-17907200D02*
X43512857Y-17859580D01*
X43512857Y-17859580D02*
X43608095Y-17716723D01*
X43608095Y-17716723D02*
X43655714Y-17526247D01*
X43655714Y-17526247D02*
X43655714Y-17145295D01*
X43655714Y-17145295D02*
X43608095Y-17050057D01*
X43608095Y-17050057D02*
X43560476Y-17002438D01*
X43560476Y-17002438D02*
X43465238Y-16954819D01*
X43465238Y-16954819D02*
X43274762Y-16954819D01*
X43274762Y-16954819D02*
X43179524Y-17002438D01*
X43179524Y-17002438D02*
X43131905Y-17050057D01*
X43131905Y-17050057D02*
X43084286Y-17145295D01*
X43084286Y-17145295D02*
X43084286Y-17383390D01*
X43084286Y-17383390D02*
X43131905Y-17478628D01*
X43131905Y-17478628D02*
X43179524Y-17526247D01*
X43179524Y-17526247D02*
X43274762Y-17573866D01*
X43274762Y-17573866D02*
X43465238Y-17573866D01*
X43465238Y-17573866D02*
X43560476Y-17526247D01*
X43560476Y-17526247D02*
X43608095Y-17478628D01*
X43608095Y-17478628D02*
X43655714Y-17383390D01*
X44560476Y-16954819D02*
X44084286Y-16954819D01*
X44084286Y-16954819D02*
X44036667Y-17431009D01*
X44036667Y-17431009D02*
X44084286Y-17383390D01*
X44084286Y-17383390D02*
X44179524Y-17335771D01*
X44179524Y-17335771D02*
X44417619Y-17335771D01*
X44417619Y-17335771D02*
X44512857Y-17383390D01*
X44512857Y-17383390D02*
X44560476Y-17431009D01*
X44560476Y-17431009D02*
X44608095Y-17526247D01*
X44608095Y-17526247D02*
X44608095Y-17764342D01*
X44608095Y-17764342D02*
X44560476Y-17859580D01*
X44560476Y-17859580D02*
X44512857Y-17907200D01*
X44512857Y-17907200D02*
X44417619Y-17954819D01*
X44417619Y-17954819D02*
X44179524Y-17954819D01*
X44179524Y-17954819D02*
X44084286Y-17907200D01*
X44084286Y-17907200D02*
X44036667Y-17859580D01*
X18627143Y-14401080D02*
X19255715Y-14401080D01*
X18941429Y-15501080D02*
X18941429Y-14401080D01*
X19622381Y-15501080D02*
X19622381Y-14401080D01*
X20250953Y-15501080D02*
X19779524Y-14872509D01*
X20250953Y-14401080D02*
X19622381Y-15029652D01*
X20722381Y-15501080D02*
X20722381Y-14401080D01*
X20722381Y-14401080D02*
X21089048Y-15186795D01*
X21089048Y-15186795D02*
X21455715Y-14401080D01*
X21455715Y-14401080D02*
X21455715Y-15501080D01*
X21979524Y-14924890D02*
X22346191Y-14924890D01*
X22503334Y-15501080D02*
X21979524Y-15501080D01*
X21979524Y-15501080D02*
X21979524Y-14401080D01*
X21979524Y-14401080D02*
X22503334Y-14401080D01*
X22974762Y-15501080D02*
X22974762Y-14401080D01*
X22974762Y-14401080D02*
X23341429Y-15186795D01*
X23341429Y-15186795D02*
X23708096Y-14401080D01*
X23708096Y-14401080D02*
X23708096Y-15501080D01*
X24231905Y-15082033D02*
X25070001Y-15082033D01*
X26170001Y-15501080D02*
X25541429Y-15501080D01*
X25855715Y-15501080D02*
X25855715Y-14401080D01*
X25855715Y-14401080D02*
X25750953Y-14558223D01*
X25750953Y-14558223D02*
X25646191Y-14662985D01*
X25646191Y-14662985D02*
X25541429Y-14715366D01*
X26589048Y-14505842D02*
X26641429Y-14453461D01*
X26641429Y-14453461D02*
X26746191Y-14401080D01*
X26746191Y-14401080D02*
X27008096Y-14401080D01*
X27008096Y-14401080D02*
X27112858Y-14453461D01*
X27112858Y-14453461D02*
X27165239Y-14505842D01*
X27165239Y-14505842D02*
X27217620Y-14610604D01*
X27217620Y-14610604D02*
X27217620Y-14715366D01*
X27217620Y-14715366D02*
X27165239Y-14872509D01*
X27165239Y-14872509D02*
X26536667Y-15501080D01*
X26536667Y-15501080D02*
X27217620Y-15501080D01*
X27846191Y-14872509D02*
X27741429Y-14820128D01*
X27741429Y-14820128D02*
X27689048Y-14767747D01*
X27689048Y-14767747D02*
X27636667Y-14662985D01*
X27636667Y-14662985D02*
X27636667Y-14610604D01*
X27636667Y-14610604D02*
X27689048Y-14505842D01*
X27689048Y-14505842D02*
X27741429Y-14453461D01*
X27741429Y-14453461D02*
X27846191Y-14401080D01*
X27846191Y-14401080D02*
X28055715Y-14401080D01*
X28055715Y-14401080D02*
X28160477Y-14453461D01*
X28160477Y-14453461D02*
X28212858Y-14505842D01*
X28212858Y-14505842D02*
X28265239Y-14610604D01*
X28265239Y-14610604D02*
X28265239Y-14662985D01*
X28265239Y-14662985D02*
X28212858Y-14767747D01*
X28212858Y-14767747D02*
X28160477Y-14820128D01*
X28160477Y-14820128D02*
X28055715Y-14872509D01*
X28055715Y-14872509D02*
X27846191Y-14872509D01*
X27846191Y-14872509D02*
X27741429Y-14924890D01*
X27741429Y-14924890D02*
X27689048Y-14977271D01*
X27689048Y-14977271D02*
X27636667Y-15082033D01*
X27636667Y-15082033D02*
X27636667Y-15291557D01*
X27636667Y-15291557D02*
X27689048Y-15396319D01*
X27689048Y-15396319D02*
X27741429Y-15448700D01*
X27741429Y-15448700D02*
X27846191Y-15501080D01*
X27846191Y-15501080D02*
X28055715Y-15501080D01*
X28055715Y-15501080D02*
X28160477Y-15448700D01*
X28160477Y-15448700D02*
X28212858Y-15396319D01*
X28212858Y-15396319D02*
X28265239Y-15291557D01*
X28265239Y-15291557D02*
X28265239Y-15082033D01*
X28265239Y-15082033D02*
X28212858Y-14977271D01*
X28212858Y-14977271D02*
X28160477Y-14924890D01*
X28160477Y-14924890D02*
X28055715Y-14872509D01*
X30255714Y-14401080D02*
X30884286Y-14401080D01*
X30570000Y-15501080D02*
X30570000Y-14401080D01*
X31250952Y-15501080D02*
X31250952Y-14401080D01*
X32403334Y-15501080D02*
X32036667Y-14977271D01*
X31774762Y-15501080D02*
X31774762Y-14401080D01*
X31774762Y-14401080D02*
X32193810Y-14401080D01*
X32193810Y-14401080D02*
X32298572Y-14453461D01*
X32298572Y-14453461D02*
X32350953Y-14505842D01*
X32350953Y-14505842D02*
X32403334Y-14610604D01*
X32403334Y-14610604D02*
X32403334Y-14767747D01*
X32403334Y-14767747D02*
X32350953Y-14872509D01*
X32350953Y-14872509D02*
X32298572Y-14924890D01*
X32298572Y-14924890D02*
X32193810Y-14977271D01*
X32193810Y-14977271D02*
X31774762Y-14977271D01*
X32822381Y-15186795D02*
X33346191Y-15186795D01*
X32717619Y-15501080D02*
X33084286Y-14401080D01*
X33084286Y-14401080D02*
X33450953Y-15501080D01*
X34655714Y-15501080D02*
X34655714Y-14401080D01*
X34655714Y-14401080D02*
X34917619Y-14401080D01*
X34917619Y-14401080D02*
X35074762Y-14453461D01*
X35074762Y-14453461D02*
X35179524Y-14558223D01*
X35179524Y-14558223D02*
X35231905Y-14662985D01*
X35231905Y-14662985D02*
X35284286Y-14872509D01*
X35284286Y-14872509D02*
X35284286Y-15029652D01*
X35284286Y-15029652D02*
X35231905Y-15239176D01*
X35231905Y-15239176D02*
X35179524Y-15343938D01*
X35179524Y-15343938D02*
X35074762Y-15448700D01*
X35074762Y-15448700D02*
X34917619Y-15501080D01*
X34917619Y-15501080D02*
X34655714Y-15501080D01*
X35755714Y-14924890D02*
X36122381Y-14924890D01*
X36279524Y-15501080D02*
X35755714Y-15501080D01*
X35755714Y-15501080D02*
X35755714Y-14401080D01*
X35755714Y-14401080D02*
X36279524Y-14401080D01*
X37589047Y-14924890D02*
X37955714Y-14924890D01*
X38112857Y-15501080D02*
X37589047Y-15501080D01*
X37589047Y-15501080D02*
X37589047Y-14401080D01*
X37589047Y-14401080D02*
X38112857Y-14401080D01*
X38479523Y-14401080D02*
X39212857Y-15501080D01*
X39212857Y-14401080D02*
X38479523Y-15501080D01*
X39631904Y-15501080D02*
X39631904Y-14401080D01*
X39631904Y-14401080D02*
X40050952Y-14401080D01*
X40050952Y-14401080D02*
X40155714Y-14453461D01*
X40155714Y-14453461D02*
X40208095Y-14505842D01*
X40208095Y-14505842D02*
X40260476Y-14610604D01*
X40260476Y-14610604D02*
X40260476Y-14767747D01*
X40260476Y-14767747D02*
X40208095Y-14872509D01*
X40208095Y-14872509D02*
X40155714Y-14924890D01*
X40155714Y-14924890D02*
X40050952Y-14977271D01*
X40050952Y-14977271D02*
X39631904Y-14977271D01*
X40679523Y-15186795D02*
X41203333Y-15186795D01*
X40574761Y-15501080D02*
X40941428Y-14401080D01*
X40941428Y-14401080D02*
X41308095Y-15501080D01*
X41674761Y-15501080D02*
X41674761Y-14401080D01*
X41674761Y-14401080D02*
X42303333Y-15501080D01*
X42303333Y-15501080D02*
X42303333Y-14401080D01*
X42774761Y-15448700D02*
X42931904Y-15501080D01*
X42931904Y-15501080D02*
X43193809Y-15501080D01*
X43193809Y-15501080D02*
X43298571Y-15448700D01*
X43298571Y-15448700D02*
X43350952Y-15396319D01*
X43350952Y-15396319D02*
X43403333Y-15291557D01*
X43403333Y-15291557D02*
X43403333Y-15186795D01*
X43403333Y-15186795D02*
X43350952Y-15082033D01*
X43350952Y-15082033D02*
X43298571Y-15029652D01*
X43298571Y-15029652D02*
X43193809Y-14977271D01*
X43193809Y-14977271D02*
X42984285Y-14924890D01*
X42984285Y-14924890D02*
X42879523Y-14872509D01*
X42879523Y-14872509D02*
X42827142Y-14820128D01*
X42827142Y-14820128D02*
X42774761Y-14715366D01*
X42774761Y-14715366D02*
X42774761Y-14610604D01*
X42774761Y-14610604D02*
X42827142Y-14505842D01*
X42827142Y-14505842D02*
X42879523Y-14453461D01*
X42879523Y-14453461D02*
X42984285Y-14401080D01*
X42984285Y-14401080D02*
X43246190Y-14401080D01*
X43246190Y-14401080D02*
X43403333Y-14453461D01*
X43822380Y-15186795D02*
X44346190Y-15186795D01*
X43717618Y-15501080D02*
X44084285Y-14401080D01*
X44084285Y-14401080D02*
X44450952Y-15501080D01*
X43822380Y-14139176D02*
X43874761Y-14086795D01*
X43874761Y-14086795D02*
X43979523Y-14034414D01*
X43979523Y-14034414D02*
X44189047Y-14139176D01*
X44189047Y-14139176D02*
X44293809Y-14086795D01*
X44293809Y-14086795D02*
X44346190Y-14034414D01*
X45027142Y-14401080D02*
X45236666Y-14401080D01*
X45236666Y-14401080D02*
X45341428Y-14453461D01*
X45341428Y-14453461D02*
X45446190Y-14558223D01*
X45446190Y-14558223D02*
X45498571Y-14767747D01*
X45498571Y-14767747D02*
X45498571Y-15134414D01*
X45498571Y-15134414D02*
X45446190Y-15343938D01*
X45446190Y-15343938D02*
X45341428Y-15448700D01*
X45341428Y-15448700D02*
X45236666Y-15501080D01*
X45236666Y-15501080D02*
X45027142Y-15501080D01*
X45027142Y-15501080D02*
X44922380Y-15448700D01*
X44922380Y-15448700D02*
X44817618Y-15343938D01*
X44817618Y-15343938D02*
X44765237Y-15134414D01*
X44765237Y-15134414D02*
X44765237Y-14767747D01*
X44765237Y-14767747D02*
X44817618Y-14558223D01*
X44817618Y-14558223D02*
X44922380Y-14453461D01*
X44922380Y-14453461D02*
X45027142Y-14401080D01*
X46808094Y-15501080D02*
X46808094Y-14401080D01*
X46808094Y-14401080D02*
X47069999Y-14401080D01*
X47069999Y-14401080D02*
X47227142Y-14453461D01*
X47227142Y-14453461D02*
X47331904Y-14558223D01*
X47331904Y-14558223D02*
X47384285Y-14662985D01*
X47384285Y-14662985D02*
X47436666Y-14872509D01*
X47436666Y-14872509D02*
X47436666Y-15029652D01*
X47436666Y-15029652D02*
X47384285Y-15239176D01*
X47384285Y-15239176D02*
X47331904Y-15343938D01*
X47331904Y-15343938D02*
X47227142Y-15448700D01*
X47227142Y-15448700D02*
X47069999Y-15501080D01*
X47069999Y-15501080D02*
X46808094Y-15501080D01*
X48117618Y-14401080D02*
X48327142Y-14401080D01*
X48327142Y-14401080D02*
X48431904Y-14453461D01*
X48431904Y-14453461D02*
X48536666Y-14558223D01*
X48536666Y-14558223D02*
X48589047Y-14767747D01*
X48589047Y-14767747D02*
X48589047Y-15134414D01*
X48589047Y-15134414D02*
X48536666Y-15343938D01*
X48536666Y-15343938D02*
X48431904Y-15448700D01*
X48431904Y-15448700D02*
X48327142Y-15501080D01*
X48327142Y-15501080D02*
X48117618Y-15501080D01*
X48117618Y-15501080D02*
X48012856Y-15448700D01*
X48012856Y-15448700D02*
X47908094Y-15343938D01*
X47908094Y-15343938D02*
X47855713Y-15134414D01*
X47855713Y-15134414D02*
X47855713Y-14767747D01*
X47855713Y-14767747D02*
X47908094Y-14558223D01*
X47908094Y-14558223D02*
X48012856Y-14453461D01*
X48012856Y-14453461D02*
X48117618Y-14401080D01*
X50265237Y-14924890D02*
X50422380Y-14977271D01*
X50422380Y-14977271D02*
X50474761Y-15029652D01*
X50474761Y-15029652D02*
X50527142Y-15134414D01*
X50527142Y-15134414D02*
X50527142Y-15291557D01*
X50527142Y-15291557D02*
X50474761Y-15396319D01*
X50474761Y-15396319D02*
X50422380Y-15448700D01*
X50422380Y-15448700D02*
X50317618Y-15501080D01*
X50317618Y-15501080D02*
X49898570Y-15501080D01*
X49898570Y-15501080D02*
X49898570Y-14401080D01*
X49898570Y-14401080D02*
X50265237Y-14401080D01*
X50265237Y-14401080D02*
X50369999Y-14453461D01*
X50369999Y-14453461D02*
X50422380Y-14505842D01*
X50422380Y-14505842D02*
X50474761Y-14610604D01*
X50474761Y-14610604D02*
X50474761Y-14715366D01*
X50474761Y-14715366D02*
X50422380Y-14820128D01*
X50422380Y-14820128D02*
X50369999Y-14872509D01*
X50369999Y-14872509D02*
X50265237Y-14924890D01*
X50265237Y-14924890D02*
X49898570Y-14924890D01*
X50946189Y-15186795D02*
X51469999Y-15186795D01*
X50841427Y-15501080D02*
X51208094Y-14401080D01*
X51208094Y-14401080D02*
X51574761Y-15501080D01*
X52569999Y-15501080D02*
X52203332Y-14977271D01*
X51941427Y-15501080D02*
X51941427Y-14401080D01*
X51941427Y-14401080D02*
X52360475Y-14401080D01*
X52360475Y-14401080D02*
X52465237Y-14453461D01*
X52465237Y-14453461D02*
X52517618Y-14505842D01*
X52517618Y-14505842D02*
X52569999Y-14610604D01*
X52569999Y-14610604D02*
X52569999Y-14767747D01*
X52569999Y-14767747D02*
X52517618Y-14872509D01*
X52517618Y-14872509D02*
X52465237Y-14924890D01*
X52465237Y-14924890D02*
X52360475Y-14977271D01*
X52360475Y-14977271D02*
X51941427Y-14977271D01*
X53669999Y-15501080D02*
X53303332Y-14977271D01*
X53041427Y-15501080D02*
X53041427Y-14401080D01*
X53041427Y-14401080D02*
X53460475Y-14401080D01*
X53460475Y-14401080D02*
X53565237Y-14453461D01*
X53565237Y-14453461D02*
X53617618Y-14505842D01*
X53617618Y-14505842D02*
X53669999Y-14610604D01*
X53669999Y-14610604D02*
X53669999Y-14767747D01*
X53669999Y-14767747D02*
X53617618Y-14872509D01*
X53617618Y-14872509D02*
X53565237Y-14924890D01*
X53565237Y-14924890D02*
X53460475Y-14977271D01*
X53460475Y-14977271D02*
X53041427Y-14977271D01*
X54089046Y-15186795D02*
X54612856Y-15186795D01*
X53984284Y-15501080D02*
X54350951Y-14401080D01*
X54350951Y-14401080D02*
X54717618Y-15501080D01*
X55084284Y-15501080D02*
X55084284Y-14401080D01*
X55084284Y-14401080D02*
X55450951Y-15186795D01*
X55450951Y-15186795D02*
X55817618Y-14401080D01*
X55817618Y-14401080D02*
X55817618Y-15501080D01*
X56341427Y-14924890D02*
X56708094Y-14924890D01*
X56865237Y-15501080D02*
X56341427Y-15501080D01*
X56341427Y-15501080D02*
X56341427Y-14401080D01*
X56341427Y-14401080D02*
X56865237Y-14401080D01*
X57336665Y-15501080D02*
X57336665Y-14401080D01*
X57336665Y-14401080D02*
X57965237Y-15501080D01*
X57965237Y-15501080D02*
X57965237Y-14401080D01*
X58331903Y-14401080D02*
X58960475Y-14401080D01*
X58646189Y-15501080D02*
X58646189Y-14401080D01*
X59536665Y-14401080D02*
X59746189Y-14401080D01*
X59746189Y-14401080D02*
X59850951Y-14453461D01*
X59850951Y-14453461D02*
X59955713Y-14558223D01*
X59955713Y-14558223D02*
X60008094Y-14767747D01*
X60008094Y-14767747D02*
X60008094Y-15134414D01*
X60008094Y-15134414D02*
X59955713Y-15343938D01*
X59955713Y-15343938D02*
X59850951Y-15448700D01*
X59850951Y-15448700D02*
X59746189Y-15501080D01*
X59746189Y-15501080D02*
X59536665Y-15501080D01*
X59536665Y-15501080D02*
X59431903Y-15448700D01*
X59431903Y-15448700D02*
X59327141Y-15343938D01*
X59327141Y-15343938D02*
X59274760Y-15134414D01*
X59274760Y-15134414D02*
X59274760Y-14767747D01*
X59274760Y-14767747D02*
X59327141Y-14558223D01*
X59327141Y-14558223D02*
X59431903Y-14453461D01*
X59431903Y-14453461D02*
X59536665Y-14401080D01*
X27227143Y-34547342D02*
X27227143Y-33347342D01*
X27227143Y-33347342D02*
X27684286Y-33347342D01*
X27684286Y-33347342D02*
X27798571Y-33404485D01*
X27798571Y-33404485D02*
X27855714Y-33461628D01*
X27855714Y-33461628D02*
X27912857Y-33575914D01*
X27912857Y-33575914D02*
X27912857Y-33747342D01*
X27912857Y-33747342D02*
X27855714Y-33861628D01*
X27855714Y-33861628D02*
X27798571Y-33918771D01*
X27798571Y-33918771D02*
X27684286Y-33975914D01*
X27684286Y-33975914D02*
X27227143Y-33975914D01*
X28370000Y-34204485D02*
X28941429Y-34204485D01*
X28255714Y-34547342D02*
X28655714Y-33347342D01*
X28655714Y-33347342D02*
X29055714Y-34547342D01*
X30141428Y-34547342D02*
X29741428Y-33975914D01*
X29455714Y-34547342D02*
X29455714Y-33347342D01*
X29455714Y-33347342D02*
X29912857Y-33347342D01*
X29912857Y-33347342D02*
X30027142Y-33404485D01*
X30027142Y-33404485D02*
X30084285Y-33461628D01*
X30084285Y-33461628D02*
X30141428Y-33575914D01*
X30141428Y-33575914D02*
X30141428Y-33747342D01*
X30141428Y-33747342D02*
X30084285Y-33861628D01*
X30084285Y-33861628D02*
X30027142Y-33918771D01*
X30027142Y-33918771D02*
X29912857Y-33975914D01*
X29912857Y-33975914D02*
X29455714Y-33975914D01*
X30598571Y-34204485D02*
X31170000Y-34204485D01*
X30484285Y-34547342D02*
X30884285Y-33347342D01*
X30884285Y-33347342D02*
X31284285Y-34547342D01*
X32827142Y-33347342D02*
X33055714Y-33347342D01*
X33055714Y-33347342D02*
X33169999Y-33404485D01*
X33169999Y-33404485D02*
X33284285Y-33518771D01*
X33284285Y-33518771D02*
X33341428Y-33747342D01*
X33341428Y-33747342D02*
X33341428Y-34147342D01*
X33341428Y-34147342D02*
X33284285Y-34375914D01*
X33284285Y-34375914D02*
X33169999Y-34490200D01*
X33169999Y-34490200D02*
X33055714Y-34547342D01*
X33055714Y-34547342D02*
X32827142Y-34547342D01*
X32827142Y-34547342D02*
X32712857Y-34490200D01*
X32712857Y-34490200D02*
X32598571Y-34375914D01*
X32598571Y-34375914D02*
X32541428Y-34147342D01*
X32541428Y-34147342D02*
X32541428Y-33747342D01*
X32541428Y-33747342D02*
X32598571Y-33518771D01*
X32598571Y-33518771D02*
X32712857Y-33404485D01*
X32712857Y-33404485D02*
X32827142Y-33347342D01*
X33855714Y-33347342D02*
X33855714Y-34318771D01*
X33855714Y-34318771D02*
X33912857Y-34433057D01*
X33912857Y-34433057D02*
X33970000Y-34490200D01*
X33970000Y-34490200D02*
X34084285Y-34547342D01*
X34084285Y-34547342D02*
X34312857Y-34547342D01*
X34312857Y-34547342D02*
X34427142Y-34490200D01*
X34427142Y-34490200D02*
X34484285Y-34433057D01*
X34484285Y-34433057D02*
X34541428Y-34318771D01*
X34541428Y-34318771D02*
X34541428Y-33347342D01*
X34941428Y-33347342D02*
X35627143Y-33347342D01*
X35284285Y-34547342D02*
X35284285Y-33347342D01*
X36712857Y-34547342D02*
X36312857Y-33975914D01*
X36027143Y-34547342D02*
X36027143Y-33347342D01*
X36027143Y-33347342D02*
X36484286Y-33347342D01*
X36484286Y-33347342D02*
X36598571Y-33404485D01*
X36598571Y-33404485D02*
X36655714Y-33461628D01*
X36655714Y-33461628D02*
X36712857Y-33575914D01*
X36712857Y-33575914D02*
X36712857Y-33747342D01*
X36712857Y-33747342D02*
X36655714Y-33861628D01*
X36655714Y-33861628D02*
X36598571Y-33918771D01*
X36598571Y-33918771D02*
X36484286Y-33975914D01*
X36484286Y-33975914D02*
X36027143Y-33975914D01*
X37455714Y-33347342D02*
X37684286Y-33347342D01*
X37684286Y-33347342D02*
X37798571Y-33404485D01*
X37798571Y-33404485D02*
X37912857Y-33518771D01*
X37912857Y-33518771D02*
X37970000Y-33747342D01*
X37970000Y-33747342D02*
X37970000Y-34147342D01*
X37970000Y-34147342D02*
X37912857Y-34375914D01*
X37912857Y-34375914D02*
X37798571Y-34490200D01*
X37798571Y-34490200D02*
X37684286Y-34547342D01*
X37684286Y-34547342D02*
X37455714Y-34547342D01*
X37455714Y-34547342D02*
X37341429Y-34490200D01*
X37341429Y-34490200D02*
X37227143Y-34375914D01*
X37227143Y-34375914D02*
X37170000Y-34147342D01*
X37170000Y-34147342D02*
X37170000Y-33747342D01*
X37170000Y-33747342D02*
X37227143Y-33518771D01*
X37227143Y-33518771D02*
X37341429Y-33404485D01*
X37341429Y-33404485D02*
X37455714Y-33347342D01*
X38427143Y-34490200D02*
X38598572Y-34547342D01*
X38598572Y-34547342D02*
X38884286Y-34547342D01*
X38884286Y-34547342D02*
X38998572Y-34490200D01*
X38998572Y-34490200D02*
X39055714Y-34433057D01*
X39055714Y-34433057D02*
X39112857Y-34318771D01*
X39112857Y-34318771D02*
X39112857Y-34204485D01*
X39112857Y-34204485D02*
X39055714Y-34090200D01*
X39055714Y-34090200D02*
X38998572Y-34033057D01*
X38998572Y-34033057D02*
X38884286Y-33975914D01*
X38884286Y-33975914D02*
X38655714Y-33918771D01*
X38655714Y-33918771D02*
X38541429Y-33861628D01*
X38541429Y-33861628D02*
X38484286Y-33804485D01*
X38484286Y-33804485D02*
X38427143Y-33690200D01*
X38427143Y-33690200D02*
X38427143Y-33575914D01*
X38427143Y-33575914D02*
X38484286Y-33461628D01*
X38484286Y-33461628D02*
X38541429Y-33404485D01*
X38541429Y-33404485D02*
X38655714Y-33347342D01*
X38655714Y-33347342D02*
X38941429Y-33347342D01*
X38941429Y-33347342D02*
X39112857Y-33404485D01*
X40541429Y-34547342D02*
X40541429Y-33347342D01*
X40541429Y-33347342D02*
X40998572Y-33347342D01*
X40998572Y-33347342D02*
X41112857Y-33404485D01*
X41112857Y-33404485D02*
X41170000Y-33461628D01*
X41170000Y-33461628D02*
X41227143Y-33575914D01*
X41227143Y-33575914D02*
X41227143Y-33747342D01*
X41227143Y-33747342D02*
X41170000Y-33861628D01*
X41170000Y-33861628D02*
X41112857Y-33918771D01*
X41112857Y-33918771D02*
X40998572Y-33975914D01*
X40998572Y-33975914D02*
X40541429Y-33975914D01*
X41741429Y-33918771D02*
X42141429Y-33918771D01*
X42312857Y-34547342D02*
X41741429Y-34547342D01*
X41741429Y-34547342D02*
X41741429Y-33347342D01*
X41741429Y-33347342D02*
X42312857Y-33347342D01*
X43512857Y-34547342D02*
X43112857Y-33975914D01*
X42827143Y-34547342D02*
X42827143Y-33347342D01*
X42827143Y-33347342D02*
X43284286Y-33347342D01*
X43284286Y-33347342D02*
X43398571Y-33404485D01*
X43398571Y-33404485D02*
X43455714Y-33461628D01*
X43455714Y-33461628D02*
X43512857Y-33575914D01*
X43512857Y-33575914D02*
X43512857Y-33747342D01*
X43512857Y-33747342D02*
X43455714Y-33861628D01*
X43455714Y-33861628D02*
X43398571Y-33918771D01*
X43398571Y-33918771D02*
X43284286Y-33975914D01*
X43284286Y-33975914D02*
X42827143Y-33975914D01*
X44027143Y-34547342D02*
X44027143Y-33347342D01*
X44998572Y-33918771D02*
X44598572Y-33918771D01*
X44598572Y-34547342D02*
X44598572Y-33347342D01*
X44598572Y-33347342D02*
X45170000Y-33347342D01*
X45627143Y-33918771D02*
X46027143Y-33918771D01*
X46198571Y-34547342D02*
X45627143Y-34547342D01*
X45627143Y-34547342D02*
X45627143Y-33347342D01*
X45627143Y-33347342D02*
X46198571Y-33347342D01*
X47398571Y-34547342D02*
X46998571Y-33975914D01*
X46712857Y-34547342D02*
X46712857Y-33347342D01*
X46712857Y-33347342D02*
X47170000Y-33347342D01*
X47170000Y-33347342D02*
X47284285Y-33404485D01*
X47284285Y-33404485D02*
X47341428Y-33461628D01*
X47341428Y-33461628D02*
X47398571Y-33575914D01*
X47398571Y-33575914D02*
X47398571Y-33747342D01*
X47398571Y-33747342D02*
X47341428Y-33861628D01*
X47341428Y-33861628D02*
X47284285Y-33918771D01*
X47284285Y-33918771D02*
X47170000Y-33975914D01*
X47170000Y-33975914D02*
X46712857Y-33975914D01*
X47912857Y-34547342D02*
X47912857Y-33347342D01*
X49170000Y-34433057D02*
X49112857Y-34490200D01*
X49112857Y-34490200D02*
X48941429Y-34547342D01*
X48941429Y-34547342D02*
X48827143Y-34547342D01*
X48827143Y-34547342D02*
X48655714Y-34490200D01*
X48655714Y-34490200D02*
X48541429Y-34375914D01*
X48541429Y-34375914D02*
X48484286Y-34261628D01*
X48484286Y-34261628D02*
X48427143Y-34033057D01*
X48427143Y-34033057D02*
X48427143Y-33861628D01*
X48427143Y-33861628D02*
X48484286Y-33633057D01*
X48484286Y-33633057D02*
X48541429Y-33518771D01*
X48541429Y-33518771D02*
X48655714Y-33404485D01*
X48655714Y-33404485D02*
X48827143Y-33347342D01*
X48827143Y-33347342D02*
X48941429Y-33347342D01*
X48941429Y-33347342D02*
X49112857Y-33404485D01*
X49112857Y-33404485D02*
X49170000Y-33461628D01*
X49912857Y-33347342D02*
X50141429Y-33347342D01*
X50141429Y-33347342D02*
X50255714Y-33404485D01*
X50255714Y-33404485D02*
X50370000Y-33518771D01*
X50370000Y-33518771D02*
X50427143Y-33747342D01*
X50427143Y-33747342D02*
X50427143Y-34147342D01*
X50427143Y-34147342D02*
X50370000Y-34375914D01*
X50370000Y-34375914D02*
X50255714Y-34490200D01*
X50255714Y-34490200D02*
X50141429Y-34547342D01*
X50141429Y-34547342D02*
X49912857Y-34547342D01*
X49912857Y-34547342D02*
X49798572Y-34490200D01*
X49798572Y-34490200D02*
X49684286Y-34375914D01*
X49684286Y-34375914D02*
X49627143Y-34147342D01*
X49627143Y-34147342D02*
X49627143Y-33747342D01*
X49627143Y-33747342D02*
X49684286Y-33518771D01*
X49684286Y-33518771D02*
X49798572Y-33404485D01*
X49798572Y-33404485D02*
X49912857Y-33347342D01*
X50884286Y-34490200D02*
X51055715Y-34547342D01*
X51055715Y-34547342D02*
X51341429Y-34547342D01*
X51341429Y-34547342D02*
X51455715Y-34490200D01*
X51455715Y-34490200D02*
X51512857Y-34433057D01*
X51512857Y-34433057D02*
X51570000Y-34318771D01*
X51570000Y-34318771D02*
X51570000Y-34204485D01*
X51570000Y-34204485D02*
X51512857Y-34090200D01*
X51512857Y-34090200D02*
X51455715Y-34033057D01*
X51455715Y-34033057D02*
X51341429Y-33975914D01*
X51341429Y-33975914D02*
X51112857Y-33918771D01*
X51112857Y-33918771D02*
X50998572Y-33861628D01*
X50998572Y-33861628D02*
X50941429Y-33804485D01*
X50941429Y-33804485D02*
X50884286Y-33690200D01*
X50884286Y-33690200D02*
X50884286Y-33575914D01*
X50884286Y-33575914D02*
X50941429Y-33461628D01*
X50941429Y-33461628D02*
X50998572Y-33404485D01*
X50998572Y-33404485D02*
X51112857Y-33347342D01*
X51112857Y-33347342D02*
X51398572Y-33347342D01*
X51398572Y-33347342D02*
X51570000Y-33404485D01*
X39036666Y-35454819D02*
X39036666Y-36169104D01*
X39036666Y-36169104D02*
X38989047Y-36311961D01*
X38989047Y-36311961D02*
X38893809Y-36407200D01*
X38893809Y-36407200D02*
X38750952Y-36454819D01*
X38750952Y-36454819D02*
X38655714Y-36454819D01*
X39465238Y-35550057D02*
X39512857Y-35502438D01*
X39512857Y-35502438D02*
X39608095Y-35454819D01*
X39608095Y-35454819D02*
X39846190Y-35454819D01*
X39846190Y-35454819D02*
X39941428Y-35502438D01*
X39941428Y-35502438D02*
X39989047Y-35550057D01*
X39989047Y-35550057D02*
X40036666Y-35645295D01*
X40036666Y-35645295D02*
X40036666Y-35740533D01*
X40036666Y-35740533D02*
X39989047Y-35883390D01*
X39989047Y-35883390D02*
X39417619Y-36454819D01*
X39417619Y-36454819D02*
X40036666Y-36454819D01*
X1738095Y-37550057D02*
X1785714Y-37502438D01*
X1785714Y-37502438D02*
X1880952Y-37454819D01*
X1880952Y-37454819D02*
X2119047Y-37454819D01*
X2119047Y-37454819D02*
X2214285Y-37502438D01*
X2214285Y-37502438D02*
X2261904Y-37550057D01*
X2261904Y-37550057D02*
X2309523Y-37645295D01*
X2309523Y-37645295D02*
X2309523Y-37740533D01*
X2309523Y-37740533D02*
X2261904Y-37883390D01*
X2261904Y-37883390D02*
X1690476Y-38454819D01*
X1690476Y-38454819D02*
X2309523Y-38454819D01*
X2785714Y-38454819D02*
X2976190Y-38454819D01*
X2976190Y-38454819D02*
X3071428Y-38407200D01*
X3071428Y-38407200D02*
X3119047Y-38359580D01*
X3119047Y-38359580D02*
X3214285Y-38216723D01*
X3214285Y-38216723D02*
X3261904Y-38026247D01*
X3261904Y-38026247D02*
X3261904Y-37645295D01*
X3261904Y-37645295D02*
X3214285Y-37550057D01*
X3214285Y-37550057D02*
X3166666Y-37502438D01*
X3166666Y-37502438D02*
X3071428Y-37454819D01*
X3071428Y-37454819D02*
X2880952Y-37454819D01*
X2880952Y-37454819D02*
X2785714Y-37502438D01*
X2785714Y-37502438D02*
X2738095Y-37550057D01*
X2738095Y-37550057D02*
X2690476Y-37645295D01*
X2690476Y-37645295D02*
X2690476Y-37883390D01*
X2690476Y-37883390D02*
X2738095Y-37978628D01*
X2738095Y-37978628D02*
X2785714Y-38026247D01*
X2785714Y-38026247D02*
X2880952Y-38073866D01*
X2880952Y-38073866D02*
X3071428Y-38073866D01*
X3071428Y-38073866D02*
X3166666Y-38026247D01*
X3166666Y-38026247D02*
X3214285Y-37978628D01*
X3214285Y-37978628D02*
X3261904Y-37883390D01*
X76261904Y-37454819D02*
X75785714Y-37454819D01*
X75785714Y-37454819D02*
X75738095Y-37931009D01*
X75738095Y-37931009D02*
X75785714Y-37883390D01*
X75785714Y-37883390D02*
X75880952Y-37835771D01*
X75880952Y-37835771D02*
X76119047Y-37835771D01*
X76119047Y-37835771D02*
X76214285Y-37883390D01*
X76214285Y-37883390D02*
X76261904Y-37931009D01*
X76261904Y-37931009D02*
X76309523Y-38026247D01*
X76309523Y-38026247D02*
X76309523Y-38264342D01*
X76309523Y-38264342D02*
X76261904Y-38359580D01*
X76261904Y-38359580D02*
X76214285Y-38407200D01*
X76214285Y-38407200D02*
X76119047Y-38454819D01*
X76119047Y-38454819D02*
X75880952Y-38454819D01*
X75880952Y-38454819D02*
X75785714Y-38407200D01*
X75785714Y-38407200D02*
X75738095Y-38359580D01*
X77166666Y-37454819D02*
X76976190Y-37454819D01*
X76976190Y-37454819D02*
X76880952Y-37502438D01*
X76880952Y-37502438D02*
X76833333Y-37550057D01*
X76833333Y-37550057D02*
X76738095Y-37692914D01*
X76738095Y-37692914D02*
X76690476Y-37883390D01*
X76690476Y-37883390D02*
X76690476Y-38264342D01*
X76690476Y-38264342D02*
X76738095Y-38359580D01*
X76738095Y-38359580D02*
X76785714Y-38407200D01*
X76785714Y-38407200D02*
X76880952Y-38454819D01*
X76880952Y-38454819D02*
X77071428Y-38454819D01*
X77071428Y-38454819D02*
X77166666Y-38407200D01*
X77166666Y-38407200D02*
X77214285Y-38359580D01*
X77214285Y-38359580D02*
X77261904Y-38264342D01*
X77261904Y-38264342D02*
X77261904Y-38026247D01*
X77261904Y-38026247D02*
X77214285Y-37931009D01*
X77214285Y-37931009D02*
X77166666Y-37883390D01*
X77166666Y-37883390D02*
X77071428Y-37835771D01*
X77071428Y-37835771D02*
X76880952Y-37835771D01*
X76880952Y-37835771D02*
X76785714Y-37883390D01*
X76785714Y-37883390D02*
X76738095Y-37931009D01*
X76738095Y-37931009D02*
X76690476Y-38026247D01*
X39036666Y-5954819D02*
X39036666Y-6669104D01*
X39036666Y-6669104D02*
X38989047Y-6811961D01*
X38989047Y-6811961D02*
X38893809Y-6907200D01*
X38893809Y-6907200D02*
X38750952Y-6954819D01*
X38750952Y-6954819D02*
X38655714Y-6954819D01*
X40036666Y-6954819D02*
X39465238Y-6954819D01*
X39750952Y-6954819D02*
X39750952Y-5954819D01*
X39750952Y-5954819D02*
X39655714Y-6097676D01*
X39655714Y-6097676D02*
X39560476Y-6192914D01*
X39560476Y-6192914D02*
X39465238Y-6240533D01*
X814285Y-4094271D02*
X857142Y-4051414D01*
X857142Y-4051414D02*
X942857Y-4008557D01*
X942857Y-4008557D02*
X1157142Y-4008557D01*
X1157142Y-4008557D02*
X1242857Y-4051414D01*
X1242857Y-4051414D02*
X1285714Y-4094271D01*
X1285714Y-4094271D02*
X1328571Y-4179985D01*
X1328571Y-4179985D02*
X1328571Y-4265700D01*
X1328571Y-4265700D02*
X1285714Y-4394271D01*
X1285714Y-4394271D02*
X771428Y-4908557D01*
X771428Y-4908557D02*
X1328571Y-4908557D01*
X1757142Y-4908557D02*
X1928571Y-4908557D01*
X1928571Y-4908557D02*
X2014285Y-4865700D01*
X2014285Y-4865700D02*
X2057142Y-4822842D01*
X2057142Y-4822842D02*
X2142857Y-4694271D01*
X2142857Y-4694271D02*
X2185714Y-4522842D01*
X2185714Y-4522842D02*
X2185714Y-4179985D01*
X2185714Y-4179985D02*
X2142857Y-4094271D01*
X2142857Y-4094271D02*
X2100000Y-4051414D01*
X2100000Y-4051414D02*
X2014285Y-4008557D01*
X2014285Y-4008557D02*
X1842857Y-4008557D01*
X1842857Y-4008557D02*
X1757142Y-4051414D01*
X1757142Y-4051414D02*
X1714285Y-4094271D01*
X1714285Y-4094271D02*
X1671428Y-4179985D01*
X1671428Y-4179985D02*
X1671428Y-4394271D01*
X1671428Y-4394271D02*
X1714285Y-4479985D01*
X1714285Y-4479985D02*
X1757142Y-4522842D01*
X1757142Y-4522842D02*
X1842857Y-4565700D01*
X1842857Y-4565700D02*
X2014285Y-4565700D01*
X2014285Y-4565700D02*
X2100000Y-4522842D01*
X2100000Y-4522842D02*
X2142857Y-4479985D01*
X2142857Y-4479985D02*
X2185714Y-4394271D01*
X31578572Y-9365700D02*
X31707144Y-9408557D01*
X31707144Y-9408557D02*
X31921429Y-9408557D01*
X31921429Y-9408557D02*
X32007144Y-9365700D01*
X32007144Y-9365700D02*
X32050001Y-9322842D01*
X32050001Y-9322842D02*
X32092858Y-9237128D01*
X32092858Y-9237128D02*
X32092858Y-9151414D01*
X32092858Y-9151414D02*
X32050001Y-9065700D01*
X32050001Y-9065700D02*
X32007144Y-9022842D01*
X32007144Y-9022842D02*
X31921429Y-8979985D01*
X31921429Y-8979985D02*
X31750001Y-8937128D01*
X31750001Y-8937128D02*
X31664286Y-8894271D01*
X31664286Y-8894271D02*
X31621429Y-8851414D01*
X31621429Y-8851414D02*
X31578572Y-8765700D01*
X31578572Y-8765700D02*
X31578572Y-8679985D01*
X31578572Y-8679985D02*
X31621429Y-8594271D01*
X31621429Y-8594271D02*
X31664286Y-8551414D01*
X31664286Y-8551414D02*
X31750001Y-8508557D01*
X31750001Y-8508557D02*
X31964286Y-8508557D01*
X31964286Y-8508557D02*
X32092858Y-8551414D01*
X32650001Y-8508557D02*
X32821429Y-8508557D01*
X32821429Y-8508557D02*
X32907144Y-8551414D01*
X32907144Y-8551414D02*
X32992858Y-8637128D01*
X32992858Y-8637128D02*
X33035715Y-8808557D01*
X33035715Y-8808557D02*
X33035715Y-9108557D01*
X33035715Y-9108557D02*
X32992858Y-9279985D01*
X32992858Y-9279985D02*
X32907144Y-9365700D01*
X32907144Y-9365700D02*
X32821429Y-9408557D01*
X32821429Y-9408557D02*
X32650001Y-9408557D01*
X32650001Y-9408557D02*
X32564287Y-9365700D01*
X32564287Y-9365700D02*
X32478572Y-9279985D01*
X32478572Y-9279985D02*
X32435715Y-9108557D01*
X32435715Y-9108557D02*
X32435715Y-8808557D01*
X32435715Y-8808557D02*
X32478572Y-8637128D01*
X32478572Y-8637128D02*
X32564287Y-8551414D01*
X32564287Y-8551414D02*
X32650001Y-8508557D01*
X33850001Y-9408557D02*
X33421429Y-9408557D01*
X33421429Y-9408557D02*
X33421429Y-8508557D01*
X34150000Y-9408557D02*
X34150000Y-8508557D01*
X34150000Y-8508557D02*
X34364286Y-8508557D01*
X34364286Y-8508557D02*
X34492857Y-8551414D01*
X34492857Y-8551414D02*
X34578572Y-8637128D01*
X34578572Y-8637128D02*
X34621429Y-8722842D01*
X34621429Y-8722842D02*
X34664286Y-8894271D01*
X34664286Y-8894271D02*
X34664286Y-9022842D01*
X34664286Y-9022842D02*
X34621429Y-9194271D01*
X34621429Y-9194271D02*
X34578572Y-9279985D01*
X34578572Y-9279985D02*
X34492857Y-9365700D01*
X34492857Y-9365700D02*
X34364286Y-9408557D01*
X34364286Y-9408557D02*
X34150000Y-9408557D01*
X35007143Y-9151414D02*
X35435715Y-9151414D01*
X34921429Y-9408557D02*
X35221429Y-8508557D01*
X35221429Y-8508557D02*
X35521429Y-9408557D01*
X36335715Y-9408557D02*
X36035715Y-8979985D01*
X35821429Y-9408557D02*
X35821429Y-8508557D01*
X35821429Y-8508557D02*
X36164286Y-8508557D01*
X36164286Y-8508557D02*
X36250001Y-8551414D01*
X36250001Y-8551414D02*
X36292858Y-8594271D01*
X36292858Y-8594271D02*
X36335715Y-8679985D01*
X36335715Y-8679985D02*
X36335715Y-8808557D01*
X36335715Y-8808557D02*
X36292858Y-8894271D01*
X36292858Y-8894271D02*
X36250001Y-8937128D01*
X36250001Y-8937128D02*
X36164286Y-8979985D01*
X36164286Y-8979985D02*
X35821429Y-8979985D01*
X37407143Y-9408557D02*
X37407143Y-8508557D01*
X37407143Y-8508557D02*
X37621429Y-8508557D01*
X37621429Y-8508557D02*
X37750000Y-8551414D01*
X37750000Y-8551414D02*
X37835715Y-8637128D01*
X37835715Y-8637128D02*
X37878572Y-8722842D01*
X37878572Y-8722842D02*
X37921429Y-8894271D01*
X37921429Y-8894271D02*
X37921429Y-9022842D01*
X37921429Y-9022842D02*
X37878572Y-9194271D01*
X37878572Y-9194271D02*
X37835715Y-9279985D01*
X37835715Y-9279985D02*
X37750000Y-9365700D01*
X37750000Y-9365700D02*
X37621429Y-9408557D01*
X37621429Y-9408557D02*
X37407143Y-9408557D01*
X38478572Y-8508557D02*
X38650000Y-8508557D01*
X38650000Y-8508557D02*
X38735715Y-8551414D01*
X38735715Y-8551414D02*
X38821429Y-8637128D01*
X38821429Y-8637128D02*
X38864286Y-8808557D01*
X38864286Y-8808557D02*
X38864286Y-9108557D01*
X38864286Y-9108557D02*
X38821429Y-9279985D01*
X38821429Y-9279985D02*
X38735715Y-9365700D01*
X38735715Y-9365700D02*
X38650000Y-9408557D01*
X38650000Y-9408557D02*
X38478572Y-9408557D01*
X38478572Y-9408557D02*
X38392858Y-9365700D01*
X38392858Y-9365700D02*
X38307143Y-9279985D01*
X38307143Y-9279985D02*
X38264286Y-9108557D01*
X38264286Y-9108557D02*
X38264286Y-8808557D01*
X38264286Y-8808557D02*
X38307143Y-8637128D01*
X38307143Y-8637128D02*
X38392858Y-8551414D01*
X38392858Y-8551414D02*
X38478572Y-8508557D01*
X39207143Y-9365700D02*
X39335715Y-9408557D01*
X39335715Y-9408557D02*
X39550000Y-9408557D01*
X39550000Y-9408557D02*
X39635715Y-9365700D01*
X39635715Y-9365700D02*
X39678572Y-9322842D01*
X39678572Y-9322842D02*
X39721429Y-9237128D01*
X39721429Y-9237128D02*
X39721429Y-9151414D01*
X39721429Y-9151414D02*
X39678572Y-9065700D01*
X39678572Y-9065700D02*
X39635715Y-9022842D01*
X39635715Y-9022842D02*
X39550000Y-8979985D01*
X39550000Y-8979985D02*
X39378572Y-8937128D01*
X39378572Y-8937128D02*
X39292857Y-8894271D01*
X39292857Y-8894271D02*
X39250000Y-8851414D01*
X39250000Y-8851414D02*
X39207143Y-8765700D01*
X39207143Y-8765700D02*
X39207143Y-8679985D01*
X39207143Y-8679985D02*
X39250000Y-8594271D01*
X39250000Y-8594271D02*
X39292857Y-8551414D01*
X39292857Y-8551414D02*
X39378572Y-8508557D01*
X39378572Y-8508557D02*
X39592857Y-8508557D01*
X39592857Y-8508557D02*
X39721429Y-8551414D01*
X40792857Y-9408557D02*
X40792857Y-8508557D01*
X40792857Y-8508557D02*
X41007143Y-8508557D01*
X41007143Y-8508557D02*
X41135714Y-8551414D01*
X41135714Y-8551414D02*
X41221429Y-8637128D01*
X41221429Y-8637128D02*
X41264286Y-8722842D01*
X41264286Y-8722842D02*
X41307143Y-8894271D01*
X41307143Y-8894271D02*
X41307143Y-9022842D01*
X41307143Y-9022842D02*
X41264286Y-9194271D01*
X41264286Y-9194271D02*
X41221429Y-9279985D01*
X41221429Y-9279985D02*
X41135714Y-9365700D01*
X41135714Y-9365700D02*
X41007143Y-9408557D01*
X41007143Y-9408557D02*
X40792857Y-9408557D01*
X41864286Y-8508557D02*
X42035714Y-8508557D01*
X42035714Y-8508557D02*
X42121429Y-8551414D01*
X42121429Y-8551414D02*
X42207143Y-8637128D01*
X42207143Y-8637128D02*
X42250000Y-8808557D01*
X42250000Y-8808557D02*
X42250000Y-9108557D01*
X42250000Y-9108557D02*
X42207143Y-9279985D01*
X42207143Y-9279985D02*
X42121429Y-9365700D01*
X42121429Y-9365700D02*
X42035714Y-9408557D01*
X42035714Y-9408557D02*
X41864286Y-9408557D01*
X41864286Y-9408557D02*
X41778572Y-9365700D01*
X41778572Y-9365700D02*
X41692857Y-9279985D01*
X41692857Y-9279985D02*
X41650000Y-9108557D01*
X41650000Y-9108557D02*
X41650000Y-8808557D01*
X41650000Y-8808557D02*
X41692857Y-8637128D01*
X41692857Y-8637128D02*
X41778572Y-8551414D01*
X41778572Y-8551414D02*
X41864286Y-8508557D01*
X42635714Y-9408557D02*
X42635714Y-8508557D01*
X43021428Y-9365700D02*
X43150000Y-9408557D01*
X43150000Y-9408557D02*
X43364285Y-9408557D01*
X43364285Y-9408557D02*
X43450000Y-9365700D01*
X43450000Y-9365700D02*
X43492857Y-9322842D01*
X43492857Y-9322842D02*
X43535714Y-9237128D01*
X43535714Y-9237128D02*
X43535714Y-9151414D01*
X43535714Y-9151414D02*
X43492857Y-9065700D01*
X43492857Y-9065700D02*
X43450000Y-9022842D01*
X43450000Y-9022842D02*
X43364285Y-8979985D01*
X43364285Y-8979985D02*
X43192857Y-8937128D01*
X43192857Y-8937128D02*
X43107142Y-8894271D01*
X43107142Y-8894271D02*
X43064285Y-8851414D01*
X43064285Y-8851414D02*
X43021428Y-8765700D01*
X43021428Y-8765700D02*
X43021428Y-8679985D01*
X43021428Y-8679985D02*
X43064285Y-8594271D01*
X43064285Y-8594271D02*
X43107142Y-8551414D01*
X43107142Y-8551414D02*
X43192857Y-8508557D01*
X43192857Y-8508557D02*
X43407142Y-8508557D01*
X43407142Y-8508557D02*
X43535714Y-8551414D01*
X45035714Y-9408557D02*
X44607142Y-9408557D01*
X44607142Y-9408557D02*
X44607142Y-8508557D01*
X45292856Y-9151414D02*
X45721428Y-9151414D01*
X45207142Y-9408557D02*
X45507142Y-8508557D01*
X45507142Y-8508557D02*
X45807142Y-9408557D01*
X46107142Y-9408557D02*
X46107142Y-8508557D01*
X46107142Y-8508557D02*
X46321428Y-8508557D01*
X46321428Y-8508557D02*
X46449999Y-8551414D01*
X46449999Y-8551414D02*
X46535714Y-8637128D01*
X46535714Y-8637128D02*
X46578571Y-8722842D01*
X46578571Y-8722842D02*
X46621428Y-8894271D01*
X46621428Y-8894271D02*
X46621428Y-9022842D01*
X46621428Y-9022842D02*
X46578571Y-9194271D01*
X46578571Y-9194271D02*
X46535714Y-9279985D01*
X46535714Y-9279985D02*
X46449999Y-9365700D01*
X46449999Y-9365700D02*
X46321428Y-9408557D01*
X46321428Y-9408557D02*
X46107142Y-9408557D01*
X47178571Y-8508557D02*
X47349999Y-8508557D01*
X47349999Y-8508557D02*
X47435714Y-8551414D01*
X47435714Y-8551414D02*
X47521428Y-8637128D01*
X47521428Y-8637128D02*
X47564285Y-8808557D01*
X47564285Y-8808557D02*
X47564285Y-9108557D01*
X47564285Y-9108557D02*
X47521428Y-9279985D01*
X47521428Y-9279985D02*
X47435714Y-9365700D01*
X47435714Y-9365700D02*
X47349999Y-9408557D01*
X47349999Y-9408557D02*
X47178571Y-9408557D01*
X47178571Y-9408557D02*
X47092857Y-9365700D01*
X47092857Y-9365700D02*
X47007142Y-9279985D01*
X47007142Y-9279985D02*
X46964285Y-9108557D01*
X46964285Y-9108557D02*
X46964285Y-8808557D01*
X46964285Y-8808557D02*
X47007142Y-8637128D01*
X47007142Y-8637128D02*
X47092857Y-8551414D01*
X47092857Y-8551414D02*
X47178571Y-8508557D01*
X47907142Y-9365700D02*
X48035714Y-9408557D01*
X48035714Y-9408557D02*
X48249999Y-9408557D01*
X48249999Y-9408557D02*
X48335714Y-9365700D01*
X48335714Y-9365700D02*
X48378571Y-9322842D01*
X48378571Y-9322842D02*
X48421428Y-9237128D01*
X48421428Y-9237128D02*
X48421428Y-9151414D01*
X48421428Y-9151414D02*
X48378571Y-9065700D01*
X48378571Y-9065700D02*
X48335714Y-9022842D01*
X48335714Y-9022842D02*
X48249999Y-8979985D01*
X48249999Y-8979985D02*
X48078571Y-8937128D01*
X48078571Y-8937128D02*
X47992856Y-8894271D01*
X47992856Y-8894271D02*
X47949999Y-8851414D01*
X47949999Y-8851414D02*
X47907142Y-8765700D01*
X47907142Y-8765700D02*
X47907142Y-8679985D01*
X47907142Y-8679985D02*
X47949999Y-8594271D01*
X47949999Y-8594271D02*
X47992856Y-8551414D01*
X47992856Y-8551414D02*
X48078571Y-8508557D01*
X48078571Y-8508557D02*
X48292856Y-8508557D01*
X48292856Y-8508557D02*
X48421428Y-8551414D01*
X76785714Y-4008557D02*
X76357142Y-4008557D01*
X76357142Y-4008557D02*
X76314285Y-4437128D01*
X76314285Y-4437128D02*
X76357142Y-4394271D01*
X76357142Y-4394271D02*
X76442857Y-4351414D01*
X76442857Y-4351414D02*
X76657142Y-4351414D01*
X76657142Y-4351414D02*
X76742857Y-4394271D01*
X76742857Y-4394271D02*
X76785714Y-4437128D01*
X76785714Y-4437128D02*
X76828571Y-4522842D01*
X76828571Y-4522842D02*
X76828571Y-4737128D01*
X76828571Y-4737128D02*
X76785714Y-4822842D01*
X76785714Y-4822842D02*
X76742857Y-4865700D01*
X76742857Y-4865700D02*
X76657142Y-4908557D01*
X76657142Y-4908557D02*
X76442857Y-4908557D01*
X76442857Y-4908557D02*
X76357142Y-4865700D01*
X76357142Y-4865700D02*
X76314285Y-4822842D01*
X77600000Y-4008557D02*
X77428571Y-4008557D01*
X77428571Y-4008557D02*
X77342857Y-4051414D01*
X77342857Y-4051414D02*
X77300000Y-4094271D01*
X77300000Y-4094271D02*
X77214285Y-4222842D01*
X77214285Y-4222842D02*
X77171428Y-4394271D01*
X77171428Y-4394271D02*
X77171428Y-4737128D01*
X77171428Y-4737128D02*
X77214285Y-4822842D01*
X77214285Y-4822842D02*
X77257142Y-4865700D01*
X77257142Y-4865700D02*
X77342857Y-4908557D01*
X77342857Y-4908557D02*
X77514285Y-4908557D01*
X77514285Y-4908557D02*
X77600000Y-4865700D01*
X77600000Y-4865700D02*
X77642857Y-4822842D01*
X77642857Y-4822842D02*
X77685714Y-4737128D01*
X77685714Y-4737128D02*
X77685714Y-4522842D01*
X77685714Y-4522842D02*
X77642857Y-4437128D01*
X77642857Y-4437128D02*
X77600000Y-4394271D01*
X77600000Y-4394271D02*
X77514285Y-4351414D01*
X77514285Y-4351414D02*
X77342857Y-4351414D01*
X77342857Y-4351414D02*
X77257142Y-4394271D01*
X77257142Y-4394271D02*
X77214285Y-4437128D01*
X77214285Y-4437128D02*
X77171428Y-4522842D01*
X8333333Y-23359580D02*
X8285714Y-23407200D01*
X8285714Y-23407200D02*
X8142857Y-23454819D01*
X8142857Y-23454819D02*
X8047619Y-23454819D01*
X8047619Y-23454819D02*
X7904762Y-23407200D01*
X7904762Y-23407200D02*
X7809524Y-23311961D01*
X7809524Y-23311961D02*
X7761905Y-23216723D01*
X7761905Y-23216723D02*
X7714286Y-23026247D01*
X7714286Y-23026247D02*
X7714286Y-22883390D01*
X7714286Y-22883390D02*
X7761905Y-22692914D01*
X7761905Y-22692914D02*
X7809524Y-22597676D01*
X7809524Y-22597676D02*
X7904762Y-22502438D01*
X7904762Y-22502438D02*
X8047619Y-22454819D01*
X8047619Y-22454819D02*
X8142857Y-22454819D01*
X8142857Y-22454819D02*
X8285714Y-22502438D01*
X8285714Y-22502438D02*
X8333333Y-22550057D01*
X9285714Y-23454819D02*
X8714286Y-23454819D01*
X9000000Y-23454819D02*
X9000000Y-22454819D01*
X9000000Y-22454819D02*
X8904762Y-22597676D01*
X8904762Y-22597676D02*
X8809524Y-22692914D01*
X8809524Y-22692914D02*
X8714286Y-22740533D01*
%TO.C,J1*%
X3080000Y-5300000D02*
X3080000Y-300000D01*
X3080000Y-5300000D02*
X75660000Y-5300000D01*
X63500000Y-5300000D02*
X63500000Y-300000D01*
X75660000Y-5300000D02*
X75660000Y-300000D01*
%TO.C,C1*%
D12*
X5880000Y-18630000D02*
X11120000Y-18630000D01*
X5880000Y-18967000D02*
X5880000Y-18630000D01*
X5880000Y-21370000D02*
X5880000Y-21033000D01*
X11120000Y-18630000D02*
X11120000Y-18967000D01*
X11120000Y-21033000D02*
X11120000Y-21370000D01*
X11120000Y-21370000D02*
X5880000Y-21370000D01*
%TD*%
M02*
