%TF.GenerationSoftware,KiCad,Pcbnew,10.0.4*%
%TF.CreationDate,2026-07-29T19:46:42-03:00*%
%TF.ProjectId,tkmem128-expansor,746b6d65-6d31-4323-982d-657870616e73,rev?*%
%TF.SameCoordinates,Original*%
%TF.FileFunction,Legend,Bot*%
%TF.FilePolarity,Positive*%
%FSLAX46Y46*%
G04 Gerber Fmt 4.6, Leading zero omitted, Abs format (unit mm)*
G04 Created by KiCad (PCBNEW 10.0.4) date 2026-07-29 19:46:42*
%MOMM*%
%LPD*%
G01*
G04 APERTURE LIST*
%ADD10C,0.180000*%
%ADD11C,0.200000*%
%ADD12C,0.150000*%
G04 APERTURE END LIST*
D10*
X58634286Y-22321282D02*
X58677143Y-22364140D01*
X58677143Y-22364140D02*
X58805715Y-22406997D01*
X58805715Y-22406997D02*
X58891429Y-22406997D01*
X58891429Y-22406997D02*
X59020000Y-22364140D01*
X59020000Y-22364140D02*
X59105715Y-22278425D01*
X59105715Y-22278425D02*
X59148572Y-22192711D01*
X59148572Y-22192711D02*
X59191429Y-22021282D01*
X59191429Y-22021282D02*
X59191429Y-21892711D01*
X59191429Y-21892711D02*
X59148572Y-21721282D01*
X59148572Y-21721282D02*
X59105715Y-21635568D01*
X59105715Y-21635568D02*
X59020000Y-21549854D01*
X59020000Y-21549854D02*
X58891429Y-21506997D01*
X58891429Y-21506997D02*
X58805715Y-21506997D01*
X58805715Y-21506997D02*
X58677143Y-21549854D01*
X58677143Y-21549854D02*
X58634286Y-21592711D01*
X58248572Y-21935568D02*
X57948572Y-21935568D01*
X57820000Y-22406997D02*
X58248572Y-22406997D01*
X58248572Y-22406997D02*
X58248572Y-21506997D01*
X58248572Y-21506997D02*
X57820000Y-21506997D01*
X56920000Y-22406997D02*
X57220000Y-21978425D01*
X57434286Y-22406997D02*
X57434286Y-21506997D01*
X57434286Y-21506997D02*
X57091429Y-21506997D01*
X57091429Y-21506997D02*
X57005714Y-21549854D01*
X57005714Y-21549854D02*
X56962857Y-21592711D01*
X56962857Y-21592711D02*
X56920000Y-21678425D01*
X56920000Y-21678425D02*
X56920000Y-21806997D01*
X56920000Y-21806997D02*
X56962857Y-21892711D01*
X56962857Y-21892711D02*
X57005714Y-21935568D01*
X57005714Y-21935568D02*
X57091429Y-21978425D01*
X57091429Y-21978425D02*
X57434286Y-21978425D01*
X56534286Y-22406997D02*
X56534286Y-21506997D01*
X56534286Y-21506997D02*
X56020000Y-22406997D01*
X56020000Y-22406997D02*
X56020000Y-21506997D01*
X55591429Y-22064140D02*
X54905715Y-22064140D01*
X54305714Y-21506997D02*
X54134286Y-21506997D01*
X54134286Y-21506997D02*
X54048571Y-21549854D01*
X54048571Y-21549854D02*
X53962857Y-21635568D01*
X53962857Y-21635568D02*
X53920000Y-21806997D01*
X53920000Y-21806997D02*
X53920000Y-22106997D01*
X53920000Y-22106997D02*
X53962857Y-22278425D01*
X53962857Y-22278425D02*
X54048571Y-22364140D01*
X54048571Y-22364140D02*
X54134286Y-22406997D01*
X54134286Y-22406997D02*
X54305714Y-22406997D01*
X54305714Y-22406997D02*
X54391429Y-22364140D01*
X54391429Y-22364140D02*
X54477143Y-22278425D01*
X54477143Y-22278425D02*
X54520000Y-22106997D01*
X54520000Y-22106997D02*
X54520000Y-21806997D01*
X54520000Y-21806997D02*
X54477143Y-21635568D01*
X54477143Y-21635568D02*
X54391429Y-21549854D01*
X54391429Y-21549854D02*
X54305714Y-21506997D01*
X53534286Y-22406997D02*
X53534286Y-21506997D01*
X53534286Y-21935568D02*
X53020000Y-21935568D01*
X53020000Y-22406997D02*
X53020000Y-21506997D01*
X52162857Y-22406997D02*
X52591429Y-22406997D01*
X52591429Y-22406997D02*
X52591429Y-21506997D01*
X51862858Y-22064140D02*
X51177144Y-22064140D01*
X50791429Y-22364140D02*
X50662858Y-22406997D01*
X50662858Y-22406997D02*
X50448572Y-22406997D01*
X50448572Y-22406997D02*
X50362858Y-22364140D01*
X50362858Y-22364140D02*
X50320000Y-22321282D01*
X50320000Y-22321282D02*
X50277143Y-22235568D01*
X50277143Y-22235568D02*
X50277143Y-22149854D01*
X50277143Y-22149854D02*
X50320000Y-22064140D01*
X50320000Y-22064140D02*
X50362858Y-22021282D01*
X50362858Y-22021282D02*
X50448572Y-21978425D01*
X50448572Y-21978425D02*
X50620000Y-21935568D01*
X50620000Y-21935568D02*
X50705715Y-21892711D01*
X50705715Y-21892711D02*
X50748572Y-21849854D01*
X50748572Y-21849854D02*
X50791429Y-21764140D01*
X50791429Y-21764140D02*
X50791429Y-21678425D01*
X50791429Y-21678425D02*
X50748572Y-21592711D01*
X50748572Y-21592711D02*
X50705715Y-21549854D01*
X50705715Y-21549854D02*
X50620000Y-21506997D01*
X50620000Y-21506997D02*
X50405715Y-21506997D01*
X50405715Y-21506997D02*
X50277143Y-21549854D01*
X49291429Y-21806997D02*
X49077143Y-22406997D01*
X49077143Y-22406997D02*
X48862858Y-21806997D01*
X48562858Y-21592711D02*
X48520001Y-21549854D01*
X48520001Y-21549854D02*
X48434287Y-21506997D01*
X48434287Y-21506997D02*
X48220001Y-21506997D01*
X48220001Y-21506997D02*
X48134287Y-21549854D01*
X48134287Y-21549854D02*
X48091429Y-21592711D01*
X48091429Y-21592711D02*
X48048572Y-21678425D01*
X48048572Y-21678425D02*
X48048572Y-21764140D01*
X48048572Y-21764140D02*
X48091429Y-21892711D01*
X48091429Y-21892711D02*
X48605715Y-22406997D01*
X48605715Y-22406997D02*
X48048572Y-22406997D01*
X46077144Y-22706997D02*
X46077144Y-21421282D01*
X43677145Y-21806997D02*
X43677145Y-22535568D01*
X43677145Y-22535568D02*
X43720002Y-22621282D01*
X43720002Y-22621282D02*
X43762859Y-22664140D01*
X43762859Y-22664140D02*
X43848573Y-22706997D01*
X43848573Y-22706997D02*
X43977145Y-22706997D01*
X43977145Y-22706997D02*
X44062859Y-22664140D01*
X43677145Y-22364140D02*
X43762859Y-22406997D01*
X43762859Y-22406997D02*
X43934287Y-22406997D01*
X43934287Y-22406997D02*
X44020002Y-22364140D01*
X44020002Y-22364140D02*
X44062859Y-22321282D01*
X44062859Y-22321282D02*
X44105716Y-22235568D01*
X44105716Y-22235568D02*
X44105716Y-21978425D01*
X44105716Y-21978425D02*
X44062859Y-21892711D01*
X44062859Y-21892711D02*
X44020002Y-21849854D01*
X44020002Y-21849854D02*
X43934287Y-21806997D01*
X43934287Y-21806997D02*
X43762859Y-21806997D01*
X43762859Y-21806997D02*
X43677145Y-21849854D01*
X43248573Y-22406997D02*
X43248573Y-21806997D01*
X43248573Y-21506997D02*
X43291430Y-21549854D01*
X43291430Y-21549854D02*
X43248573Y-21592711D01*
X43248573Y-21592711D02*
X43205716Y-21549854D01*
X43205716Y-21549854D02*
X43248573Y-21506997D01*
X43248573Y-21506997D02*
X43248573Y-21592711D01*
X42948573Y-21806997D02*
X42605716Y-21806997D01*
X42820002Y-21506997D02*
X42820002Y-22278425D01*
X42820002Y-22278425D02*
X42777145Y-22364140D01*
X42777145Y-22364140D02*
X42691430Y-22406997D01*
X42691430Y-22406997D02*
X42605716Y-22406997D01*
X42305716Y-22406997D02*
X42305716Y-21506997D01*
X41920002Y-22406997D02*
X41920002Y-21935568D01*
X41920002Y-21935568D02*
X41962859Y-21849854D01*
X41962859Y-21849854D02*
X42048573Y-21806997D01*
X42048573Y-21806997D02*
X42177144Y-21806997D01*
X42177144Y-21806997D02*
X42262859Y-21849854D01*
X42262859Y-21849854D02*
X42305716Y-21892711D01*
X41105716Y-21806997D02*
X41105716Y-22406997D01*
X41491430Y-21806997D02*
X41491430Y-22278425D01*
X41491430Y-22278425D02*
X41448573Y-22364140D01*
X41448573Y-22364140D02*
X41362858Y-22406997D01*
X41362858Y-22406997D02*
X41234287Y-22406997D01*
X41234287Y-22406997D02*
X41148573Y-22364140D01*
X41148573Y-22364140D02*
X41105716Y-22321282D01*
X40677144Y-22406997D02*
X40677144Y-21506997D01*
X40677144Y-21849854D02*
X40591430Y-21806997D01*
X40591430Y-21806997D02*
X40420001Y-21806997D01*
X40420001Y-21806997D02*
X40334287Y-21849854D01*
X40334287Y-21849854D02*
X40291430Y-21892711D01*
X40291430Y-21892711D02*
X40248572Y-21978425D01*
X40248572Y-21978425D02*
X40248572Y-22235568D01*
X40248572Y-22235568D02*
X40291430Y-22321282D01*
X40291430Y-22321282D02*
X40334287Y-22364140D01*
X40334287Y-22364140D02*
X40420001Y-22406997D01*
X40420001Y-22406997D02*
X40591430Y-22406997D01*
X40591430Y-22406997D02*
X40677144Y-22364140D01*
X39862858Y-22321282D02*
X39820001Y-22364140D01*
X39820001Y-22364140D02*
X39862858Y-22406997D01*
X39862858Y-22406997D02*
X39905715Y-22364140D01*
X39905715Y-22364140D02*
X39862858Y-22321282D01*
X39862858Y-22321282D02*
X39862858Y-22406997D01*
X39048573Y-22364140D02*
X39134287Y-22406997D01*
X39134287Y-22406997D02*
X39305715Y-22406997D01*
X39305715Y-22406997D02*
X39391430Y-22364140D01*
X39391430Y-22364140D02*
X39434287Y-22321282D01*
X39434287Y-22321282D02*
X39477144Y-22235568D01*
X39477144Y-22235568D02*
X39477144Y-21978425D01*
X39477144Y-21978425D02*
X39434287Y-21892711D01*
X39434287Y-21892711D02*
X39391430Y-21849854D01*
X39391430Y-21849854D02*
X39305715Y-21806997D01*
X39305715Y-21806997D02*
X39134287Y-21806997D01*
X39134287Y-21806997D02*
X39048573Y-21849854D01*
X38534286Y-22406997D02*
X38620001Y-22364140D01*
X38620001Y-22364140D02*
X38662858Y-22321282D01*
X38662858Y-22321282D02*
X38705715Y-22235568D01*
X38705715Y-22235568D02*
X38705715Y-21978425D01*
X38705715Y-21978425D02*
X38662858Y-21892711D01*
X38662858Y-21892711D02*
X38620001Y-21849854D01*
X38620001Y-21849854D02*
X38534286Y-21806997D01*
X38534286Y-21806997D02*
X38405715Y-21806997D01*
X38405715Y-21806997D02*
X38320001Y-21849854D01*
X38320001Y-21849854D02*
X38277144Y-21892711D01*
X38277144Y-21892711D02*
X38234286Y-21978425D01*
X38234286Y-21978425D02*
X38234286Y-22235568D01*
X38234286Y-22235568D02*
X38277144Y-22321282D01*
X38277144Y-22321282D02*
X38320001Y-22364140D01*
X38320001Y-22364140D02*
X38405715Y-22406997D01*
X38405715Y-22406997D02*
X38534286Y-22406997D01*
X37848572Y-22406997D02*
X37848572Y-21806997D01*
X37848572Y-21892711D02*
X37805715Y-21849854D01*
X37805715Y-21849854D02*
X37720000Y-21806997D01*
X37720000Y-21806997D02*
X37591429Y-21806997D01*
X37591429Y-21806997D02*
X37505715Y-21849854D01*
X37505715Y-21849854D02*
X37462858Y-21935568D01*
X37462858Y-21935568D02*
X37462858Y-22406997D01*
X37462858Y-21935568D02*
X37420000Y-21849854D01*
X37420000Y-21849854D02*
X37334286Y-21806997D01*
X37334286Y-21806997D02*
X37205715Y-21806997D01*
X37205715Y-21806997D02*
X37120000Y-21849854D01*
X37120000Y-21849854D02*
X37077143Y-21935568D01*
X37077143Y-21935568D02*
X37077143Y-22406997D01*
X36005715Y-21464140D02*
X36777143Y-22621282D01*
X35577143Y-22406997D02*
X35662858Y-22364140D01*
X35662858Y-22364140D02*
X35705715Y-22278425D01*
X35705715Y-22278425D02*
X35705715Y-21506997D01*
X35234286Y-22406997D02*
X35234286Y-21806997D01*
X35234286Y-21978425D02*
X35191429Y-21892711D01*
X35191429Y-21892711D02*
X35148572Y-21849854D01*
X35148572Y-21849854D02*
X35062857Y-21806997D01*
X35062857Y-21806997D02*
X34977143Y-21806997D01*
X34677143Y-22406997D02*
X34677143Y-21806997D01*
X34677143Y-21978425D02*
X34634286Y-21892711D01*
X34634286Y-21892711D02*
X34591429Y-21849854D01*
X34591429Y-21849854D02*
X34505714Y-21806997D01*
X34505714Y-21806997D02*
X34420000Y-21806997D01*
X33991428Y-22406997D02*
X34077143Y-22364140D01*
X34077143Y-22364140D02*
X34120000Y-22321282D01*
X34120000Y-22321282D02*
X34162857Y-22235568D01*
X34162857Y-22235568D02*
X34162857Y-21978425D01*
X34162857Y-21978425D02*
X34120000Y-21892711D01*
X34120000Y-21892711D02*
X34077143Y-21849854D01*
X34077143Y-21849854D02*
X33991428Y-21806997D01*
X33991428Y-21806997D02*
X33862857Y-21806997D01*
X33862857Y-21806997D02*
X33777143Y-21849854D01*
X33777143Y-21849854D02*
X33734286Y-21892711D01*
X33734286Y-21892711D02*
X33691428Y-21978425D01*
X33691428Y-21978425D02*
X33691428Y-22235568D01*
X33691428Y-22235568D02*
X33734286Y-22321282D01*
X33734286Y-22321282D02*
X33777143Y-22364140D01*
X33777143Y-22364140D02*
X33862857Y-22406997D01*
X33862857Y-22406997D02*
X33991428Y-22406997D01*
X33348571Y-22364140D02*
X33262857Y-22406997D01*
X33262857Y-22406997D02*
X33091428Y-22406997D01*
X33091428Y-22406997D02*
X33005714Y-22364140D01*
X33005714Y-22364140D02*
X32962857Y-22278425D01*
X32962857Y-22278425D02*
X32962857Y-22235568D01*
X32962857Y-22235568D02*
X33005714Y-22149854D01*
X33005714Y-22149854D02*
X33091428Y-22106997D01*
X33091428Y-22106997D02*
X33220000Y-22106997D01*
X33220000Y-22106997D02*
X33305714Y-22064140D01*
X33305714Y-22064140D02*
X33348571Y-21978425D01*
X33348571Y-21978425D02*
X33348571Y-21935568D01*
X33348571Y-21935568D02*
X33305714Y-21849854D01*
X33305714Y-21849854D02*
X33220000Y-21806997D01*
X33220000Y-21806997D02*
X33091428Y-21806997D01*
X33091428Y-21806997D02*
X33005714Y-21849854D01*
X32191429Y-22406997D02*
X32191429Y-21935568D01*
X32191429Y-21935568D02*
X32234286Y-21849854D01*
X32234286Y-21849854D02*
X32320000Y-21806997D01*
X32320000Y-21806997D02*
X32491429Y-21806997D01*
X32491429Y-21806997D02*
X32577143Y-21849854D01*
X32191429Y-22364140D02*
X32277143Y-22406997D01*
X32277143Y-22406997D02*
X32491429Y-22406997D01*
X32491429Y-22406997D02*
X32577143Y-22364140D01*
X32577143Y-22364140D02*
X32620000Y-22278425D01*
X32620000Y-22278425D02*
X32620000Y-22192711D01*
X32620000Y-22192711D02*
X32577143Y-22106997D01*
X32577143Y-22106997D02*
X32491429Y-22064140D01*
X32491429Y-22064140D02*
X32277143Y-22064140D01*
X32277143Y-22064140D02*
X32191429Y-22021282D01*
X31120000Y-21464140D02*
X31891428Y-22621282D01*
X30948571Y-21806997D02*
X30605714Y-21806997D01*
X30820000Y-21506997D02*
X30820000Y-22278425D01*
X30820000Y-22278425D02*
X30777143Y-22364140D01*
X30777143Y-22364140D02*
X30691428Y-22406997D01*
X30691428Y-22406997D02*
X30605714Y-22406997D01*
X30305714Y-22406997D02*
X30305714Y-21506997D01*
X30220000Y-22064140D02*
X29962857Y-22406997D01*
X29962857Y-21806997D02*
X30305714Y-22149854D01*
X29577143Y-22406997D02*
X29577143Y-21806997D01*
X29577143Y-21892711D02*
X29534286Y-21849854D01*
X29534286Y-21849854D02*
X29448571Y-21806997D01*
X29448571Y-21806997D02*
X29320000Y-21806997D01*
X29320000Y-21806997D02*
X29234286Y-21849854D01*
X29234286Y-21849854D02*
X29191429Y-21935568D01*
X29191429Y-21935568D02*
X29191429Y-22406997D01*
X29191429Y-21935568D02*
X29148571Y-21849854D01*
X29148571Y-21849854D02*
X29062857Y-21806997D01*
X29062857Y-21806997D02*
X28934286Y-21806997D01*
X28934286Y-21806997D02*
X28848571Y-21849854D01*
X28848571Y-21849854D02*
X28805714Y-21935568D01*
X28805714Y-21935568D02*
X28805714Y-22406997D01*
X28034286Y-22364140D02*
X28120000Y-22406997D01*
X28120000Y-22406997D02*
X28291429Y-22406997D01*
X28291429Y-22406997D02*
X28377143Y-22364140D01*
X28377143Y-22364140D02*
X28420000Y-22278425D01*
X28420000Y-22278425D02*
X28420000Y-21935568D01*
X28420000Y-21935568D02*
X28377143Y-21849854D01*
X28377143Y-21849854D02*
X28291429Y-21806997D01*
X28291429Y-21806997D02*
X28120000Y-21806997D01*
X28120000Y-21806997D02*
X28034286Y-21849854D01*
X28034286Y-21849854D02*
X27991429Y-21935568D01*
X27991429Y-21935568D02*
X27991429Y-22021282D01*
X27991429Y-22021282D02*
X28420000Y-22106997D01*
X27605714Y-22406997D02*
X27605714Y-21806997D01*
X27605714Y-21892711D02*
X27562857Y-21849854D01*
X27562857Y-21849854D02*
X27477142Y-21806997D01*
X27477142Y-21806997D02*
X27348571Y-21806997D01*
X27348571Y-21806997D02*
X27262857Y-21849854D01*
X27262857Y-21849854D02*
X27220000Y-21935568D01*
X27220000Y-21935568D02*
X27220000Y-22406997D01*
X27220000Y-21935568D02*
X27177142Y-21849854D01*
X27177142Y-21849854D02*
X27091428Y-21806997D01*
X27091428Y-21806997D02*
X26962857Y-21806997D01*
X26962857Y-21806997D02*
X26877142Y-21849854D01*
X26877142Y-21849854D02*
X26834285Y-21935568D01*
X26834285Y-21935568D02*
X26834285Y-22406997D01*
X25934285Y-22406997D02*
X26448571Y-22406997D01*
X26191428Y-22406997D02*
X26191428Y-21506997D01*
X26191428Y-21506997D02*
X26277142Y-21635568D01*
X26277142Y-21635568D02*
X26362857Y-21721282D01*
X26362857Y-21721282D02*
X26448571Y-21764140D01*
X25591428Y-21592711D02*
X25548571Y-21549854D01*
X25548571Y-21549854D02*
X25462857Y-21506997D01*
X25462857Y-21506997D02*
X25248571Y-21506997D01*
X25248571Y-21506997D02*
X25162857Y-21549854D01*
X25162857Y-21549854D02*
X25119999Y-21592711D01*
X25119999Y-21592711D02*
X25077142Y-21678425D01*
X25077142Y-21678425D02*
X25077142Y-21764140D01*
X25077142Y-21764140D02*
X25119999Y-21892711D01*
X25119999Y-21892711D02*
X25634285Y-22406997D01*
X25634285Y-22406997D02*
X25077142Y-22406997D01*
X24562856Y-21892711D02*
X24648571Y-21849854D01*
X24648571Y-21849854D02*
X24691428Y-21806997D01*
X24691428Y-21806997D02*
X24734285Y-21721282D01*
X24734285Y-21721282D02*
X24734285Y-21678425D01*
X24734285Y-21678425D02*
X24691428Y-21592711D01*
X24691428Y-21592711D02*
X24648571Y-21549854D01*
X24648571Y-21549854D02*
X24562856Y-21506997D01*
X24562856Y-21506997D02*
X24391428Y-21506997D01*
X24391428Y-21506997D02*
X24305714Y-21549854D01*
X24305714Y-21549854D02*
X24262856Y-21592711D01*
X24262856Y-21592711D02*
X24219999Y-21678425D01*
X24219999Y-21678425D02*
X24219999Y-21721282D01*
X24219999Y-21721282D02*
X24262856Y-21806997D01*
X24262856Y-21806997D02*
X24305714Y-21849854D01*
X24305714Y-21849854D02*
X24391428Y-21892711D01*
X24391428Y-21892711D02*
X24562856Y-21892711D01*
X24562856Y-21892711D02*
X24648571Y-21935568D01*
X24648571Y-21935568D02*
X24691428Y-21978425D01*
X24691428Y-21978425D02*
X24734285Y-22064140D01*
X24734285Y-22064140D02*
X24734285Y-22235568D01*
X24734285Y-22235568D02*
X24691428Y-22321282D01*
X24691428Y-22321282D02*
X24648571Y-22364140D01*
X24648571Y-22364140D02*
X24562856Y-22406997D01*
X24562856Y-22406997D02*
X24391428Y-22406997D01*
X24391428Y-22406997D02*
X24305714Y-22364140D01*
X24305714Y-22364140D02*
X24262856Y-22321282D01*
X24262856Y-22321282D02*
X24219999Y-22235568D01*
X24219999Y-22235568D02*
X24219999Y-22064140D01*
X24219999Y-22064140D02*
X24262856Y-21978425D01*
X24262856Y-21978425D02*
X24305714Y-21935568D01*
X24305714Y-21935568D02*
X24391428Y-21892711D01*
X23834285Y-22064140D02*
X23148571Y-22064140D01*
X22719999Y-22406997D02*
X22719999Y-21506997D01*
X22634285Y-22064140D02*
X22377142Y-22406997D01*
X22377142Y-21806997D02*
X22719999Y-22149854D01*
X21991428Y-22406997D02*
X21991428Y-21806997D01*
X21991428Y-21506997D02*
X22034285Y-21549854D01*
X22034285Y-21549854D02*
X21991428Y-21592711D01*
X21991428Y-21592711D02*
X21948571Y-21549854D01*
X21948571Y-21549854D02*
X21991428Y-21506997D01*
X21991428Y-21506997D02*
X21991428Y-21592711D01*
X21177143Y-22364140D02*
X21262857Y-22406997D01*
X21262857Y-22406997D02*
X21434285Y-22406997D01*
X21434285Y-22406997D02*
X21520000Y-22364140D01*
X21520000Y-22364140D02*
X21562857Y-22321282D01*
X21562857Y-22321282D02*
X21605714Y-22235568D01*
X21605714Y-22235568D02*
X21605714Y-21978425D01*
X21605714Y-21978425D02*
X21562857Y-21892711D01*
X21562857Y-21892711D02*
X21520000Y-21849854D01*
X21520000Y-21849854D02*
X21434285Y-21806997D01*
X21434285Y-21806997D02*
X21262857Y-21806997D01*
X21262857Y-21806997D02*
X21177143Y-21849854D01*
X20405714Y-22406997D02*
X20405714Y-21935568D01*
X20405714Y-21935568D02*
X20448571Y-21849854D01*
X20448571Y-21849854D02*
X20534285Y-21806997D01*
X20534285Y-21806997D02*
X20705714Y-21806997D01*
X20705714Y-21806997D02*
X20791428Y-21849854D01*
X20405714Y-22364140D02*
X20491428Y-22406997D01*
X20491428Y-22406997D02*
X20705714Y-22406997D01*
X20705714Y-22406997D02*
X20791428Y-22364140D01*
X20791428Y-22364140D02*
X20834285Y-22278425D01*
X20834285Y-22278425D02*
X20834285Y-22192711D01*
X20834285Y-22192711D02*
X20791428Y-22106997D01*
X20791428Y-22106997D02*
X20705714Y-22064140D01*
X20705714Y-22064140D02*
X20491428Y-22064140D01*
X20491428Y-22064140D02*
X20405714Y-22021282D01*
X19591428Y-22406997D02*
X19591428Y-21506997D01*
X19591428Y-22364140D02*
X19677142Y-22406997D01*
X19677142Y-22406997D02*
X19848570Y-22406997D01*
X19848570Y-22406997D02*
X19934285Y-22364140D01*
X19934285Y-22364140D02*
X19977142Y-22321282D01*
X19977142Y-22321282D02*
X20019999Y-22235568D01*
X20019999Y-22235568D02*
X20019999Y-21978425D01*
X20019999Y-21978425D02*
X19977142Y-21892711D01*
X19977142Y-21892711D02*
X19934285Y-21849854D01*
X19934285Y-21849854D02*
X19848570Y-21806997D01*
X19848570Y-21806997D02*
X19677142Y-21806997D01*
X19677142Y-21806997D02*
X19591428Y-21849854D01*
X57434288Y-25406997D02*
X57434288Y-24506997D01*
X57434288Y-24506997D02*
X57220002Y-24506997D01*
X57220002Y-24506997D02*
X57091431Y-24549854D01*
X57091431Y-24549854D02*
X57005716Y-24635568D01*
X57005716Y-24635568D02*
X56962859Y-24721282D01*
X56962859Y-24721282D02*
X56920002Y-24892711D01*
X56920002Y-24892711D02*
X56920002Y-25021282D01*
X56920002Y-25021282D02*
X56962859Y-25192711D01*
X56962859Y-25192711D02*
X57005716Y-25278425D01*
X57005716Y-25278425D02*
X57091431Y-25364140D01*
X57091431Y-25364140D02*
X57220002Y-25406997D01*
X57220002Y-25406997D02*
X57434288Y-25406997D01*
X56191431Y-25364140D02*
X56277145Y-25406997D01*
X56277145Y-25406997D02*
X56448574Y-25406997D01*
X56448574Y-25406997D02*
X56534288Y-25364140D01*
X56534288Y-25364140D02*
X56577145Y-25278425D01*
X56577145Y-25278425D02*
X56577145Y-24935568D01*
X56577145Y-24935568D02*
X56534288Y-24849854D01*
X56534288Y-24849854D02*
X56448574Y-24806997D01*
X56448574Y-24806997D02*
X56277145Y-24806997D01*
X56277145Y-24806997D02*
X56191431Y-24849854D01*
X56191431Y-24849854D02*
X56148574Y-24935568D01*
X56148574Y-24935568D02*
X56148574Y-25021282D01*
X56148574Y-25021282D02*
X56577145Y-25106997D01*
X55762859Y-25406997D02*
X55762859Y-24806997D01*
X55762859Y-24978425D02*
X55720002Y-24892711D01*
X55720002Y-24892711D02*
X55677145Y-24849854D01*
X55677145Y-24849854D02*
X55591430Y-24806997D01*
X55591430Y-24806997D02*
X55505716Y-24806997D01*
X55205716Y-25406997D02*
X55205716Y-24806997D01*
X55205716Y-24506997D02*
X55248573Y-24549854D01*
X55248573Y-24549854D02*
X55205716Y-24592711D01*
X55205716Y-24592711D02*
X55162859Y-24549854D01*
X55162859Y-24549854D02*
X55205716Y-24506997D01*
X55205716Y-24506997D02*
X55205716Y-24592711D01*
X54862859Y-24806997D02*
X54648573Y-25406997D01*
X54648573Y-25406997D02*
X54434288Y-24806997D01*
X53705717Y-25406997D02*
X53705717Y-24935568D01*
X53705717Y-24935568D02*
X53748574Y-24849854D01*
X53748574Y-24849854D02*
X53834288Y-24806997D01*
X53834288Y-24806997D02*
X54005717Y-24806997D01*
X54005717Y-24806997D02*
X54091431Y-24849854D01*
X53705717Y-25364140D02*
X53791431Y-25406997D01*
X53791431Y-25406997D02*
X54005717Y-25406997D01*
X54005717Y-25406997D02*
X54091431Y-25364140D01*
X54091431Y-25364140D02*
X54134288Y-25278425D01*
X54134288Y-25278425D02*
X54134288Y-25192711D01*
X54134288Y-25192711D02*
X54091431Y-25106997D01*
X54091431Y-25106997D02*
X54005717Y-25064140D01*
X54005717Y-25064140D02*
X53791431Y-25064140D01*
X53791431Y-25064140D02*
X53705717Y-25021282D01*
X52891431Y-25406997D02*
X52891431Y-24506997D01*
X52891431Y-25364140D02*
X52977145Y-25406997D01*
X52977145Y-25406997D02*
X53148573Y-25406997D01*
X53148573Y-25406997D02*
X53234288Y-25364140D01*
X53234288Y-25364140D02*
X53277145Y-25321282D01*
X53277145Y-25321282D02*
X53320002Y-25235568D01*
X53320002Y-25235568D02*
X53320002Y-24978425D01*
X53320002Y-24978425D02*
X53277145Y-24892711D01*
X53277145Y-24892711D02*
X53234288Y-24849854D01*
X53234288Y-24849854D02*
X53148573Y-24806997D01*
X53148573Y-24806997D02*
X52977145Y-24806997D01*
X52977145Y-24806997D02*
X52891431Y-24849854D01*
X52334287Y-25406997D02*
X52420002Y-25364140D01*
X52420002Y-25364140D02*
X52462859Y-25321282D01*
X52462859Y-25321282D02*
X52505716Y-25235568D01*
X52505716Y-25235568D02*
X52505716Y-24978425D01*
X52505716Y-24978425D02*
X52462859Y-24892711D01*
X52462859Y-24892711D02*
X52420002Y-24849854D01*
X52420002Y-24849854D02*
X52334287Y-24806997D01*
X52334287Y-24806997D02*
X52205716Y-24806997D01*
X52205716Y-24806997D02*
X52120002Y-24849854D01*
X52120002Y-24849854D02*
X52077145Y-24892711D01*
X52077145Y-24892711D02*
X52034287Y-24978425D01*
X52034287Y-24978425D02*
X52034287Y-25235568D01*
X52034287Y-25235568D02*
X52077145Y-25321282D01*
X52077145Y-25321282D02*
X52120002Y-25364140D01*
X52120002Y-25364140D02*
X52205716Y-25406997D01*
X52205716Y-25406997D02*
X52334287Y-25406997D01*
X50577145Y-25406997D02*
X50577145Y-24506997D01*
X50577145Y-25364140D02*
X50662859Y-25406997D01*
X50662859Y-25406997D02*
X50834287Y-25406997D01*
X50834287Y-25406997D02*
X50920002Y-25364140D01*
X50920002Y-25364140D02*
X50962859Y-25321282D01*
X50962859Y-25321282D02*
X51005716Y-25235568D01*
X51005716Y-25235568D02*
X51005716Y-24978425D01*
X51005716Y-24978425D02*
X50962859Y-24892711D01*
X50962859Y-24892711D02*
X50920002Y-24849854D01*
X50920002Y-24849854D02*
X50834287Y-24806997D01*
X50834287Y-24806997D02*
X50662859Y-24806997D01*
X50662859Y-24806997D02*
X50577145Y-24849854D01*
X49805716Y-25364140D02*
X49891430Y-25406997D01*
X49891430Y-25406997D02*
X50062859Y-25406997D01*
X50062859Y-25406997D02*
X50148573Y-25364140D01*
X50148573Y-25364140D02*
X50191430Y-25278425D01*
X50191430Y-25278425D02*
X50191430Y-24935568D01*
X50191430Y-24935568D02*
X50148573Y-24849854D01*
X50148573Y-24849854D02*
X50062859Y-24806997D01*
X50062859Y-24806997D02*
X49891430Y-24806997D01*
X49891430Y-24806997D02*
X49805716Y-24849854D01*
X49805716Y-24849854D02*
X49762859Y-24935568D01*
X49762859Y-24935568D02*
X49762859Y-25021282D01*
X49762859Y-25021282D02*
X50191430Y-25106997D01*
X48820001Y-24506997D02*
X48520001Y-25406997D01*
X48520001Y-25406997D02*
X48220001Y-24506997D01*
X47577144Y-25364140D02*
X47662858Y-25406997D01*
X47662858Y-25406997D02*
X47834287Y-25406997D01*
X47834287Y-25406997D02*
X47920001Y-25364140D01*
X47920001Y-25364140D02*
X47962858Y-25278425D01*
X47962858Y-25278425D02*
X47962858Y-24935568D01*
X47962858Y-24935568D02*
X47920001Y-24849854D01*
X47920001Y-24849854D02*
X47834287Y-24806997D01*
X47834287Y-24806997D02*
X47662858Y-24806997D01*
X47662858Y-24806997D02*
X47577144Y-24849854D01*
X47577144Y-24849854D02*
X47534287Y-24935568D01*
X47534287Y-24935568D02*
X47534287Y-25021282D01*
X47534287Y-25021282D02*
X47962858Y-25106997D01*
X47020000Y-25406997D02*
X47105715Y-25364140D01*
X47105715Y-25364140D02*
X47148572Y-25278425D01*
X47148572Y-25278425D02*
X47148572Y-24506997D01*
X46334286Y-25364140D02*
X46420000Y-25406997D01*
X46420000Y-25406997D02*
X46591429Y-25406997D01*
X46591429Y-25406997D02*
X46677143Y-25364140D01*
X46677143Y-25364140D02*
X46720000Y-25278425D01*
X46720000Y-25278425D02*
X46720000Y-24935568D01*
X46720000Y-24935568D02*
X46677143Y-24849854D01*
X46677143Y-24849854D02*
X46591429Y-24806997D01*
X46591429Y-24806997D02*
X46420000Y-24806997D01*
X46420000Y-24806997D02*
X46334286Y-24849854D01*
X46334286Y-24849854D02*
X46291429Y-24935568D01*
X46291429Y-24935568D02*
X46291429Y-25021282D01*
X46291429Y-25021282D02*
X46720000Y-25106997D01*
X45948571Y-25364140D02*
X45862857Y-25406997D01*
X45862857Y-25406997D02*
X45691428Y-25406997D01*
X45691428Y-25406997D02*
X45605714Y-25364140D01*
X45605714Y-25364140D02*
X45562857Y-25278425D01*
X45562857Y-25278425D02*
X45562857Y-25235568D01*
X45562857Y-25235568D02*
X45605714Y-25149854D01*
X45605714Y-25149854D02*
X45691428Y-25106997D01*
X45691428Y-25106997D02*
X45820000Y-25106997D01*
X45820000Y-25106997D02*
X45905714Y-25064140D01*
X45905714Y-25064140D02*
X45948571Y-24978425D01*
X45948571Y-24978425D02*
X45948571Y-24935568D01*
X45948571Y-24935568D02*
X45905714Y-24849854D01*
X45905714Y-24849854D02*
X45820000Y-24806997D01*
X45820000Y-24806997D02*
X45691428Y-24806997D01*
X45691428Y-24806997D02*
X45605714Y-24849854D01*
X45048571Y-25406997D02*
X45134286Y-25364140D01*
X45134286Y-25364140D02*
X45177143Y-25321282D01*
X45177143Y-25321282D02*
X45220000Y-25235568D01*
X45220000Y-25235568D02*
X45220000Y-24978425D01*
X45220000Y-24978425D02*
X45177143Y-24892711D01*
X45177143Y-24892711D02*
X45134286Y-24849854D01*
X45134286Y-24849854D02*
X45048571Y-24806997D01*
X45048571Y-24806997D02*
X44920000Y-24806997D01*
X44920000Y-24806997D02*
X44834286Y-24849854D01*
X44834286Y-24849854D02*
X44791429Y-24892711D01*
X44791429Y-24892711D02*
X44748571Y-24978425D01*
X44748571Y-24978425D02*
X44748571Y-25235568D01*
X44748571Y-25235568D02*
X44791429Y-25321282D01*
X44791429Y-25321282D02*
X44834286Y-25364140D01*
X44834286Y-25364140D02*
X44920000Y-25406997D01*
X44920000Y-25406997D02*
X45048571Y-25406997D01*
X44491428Y-24806997D02*
X44148571Y-24806997D01*
X44362857Y-25406997D02*
X44362857Y-24635568D01*
X44362857Y-24635568D02*
X44320000Y-24549854D01*
X44320000Y-24549854D02*
X44234285Y-24506997D01*
X44234285Y-24506997D02*
X44148571Y-24506997D01*
X43977142Y-24806997D02*
X43634285Y-24806997D01*
X43848571Y-24506997D02*
X43848571Y-25278425D01*
X43848571Y-25278425D02*
X43805714Y-25364140D01*
X43805714Y-25364140D02*
X43719999Y-25406997D01*
X43719999Y-25406997D02*
X43634285Y-25406997D01*
X42691428Y-24592711D02*
X42648571Y-24549854D01*
X42648571Y-24549854D02*
X42562857Y-24506997D01*
X42562857Y-24506997D02*
X42348571Y-24506997D01*
X42348571Y-24506997D02*
X42262857Y-24549854D01*
X42262857Y-24549854D02*
X42219999Y-24592711D01*
X42219999Y-24592711D02*
X42177142Y-24678425D01*
X42177142Y-24678425D02*
X42177142Y-24764140D01*
X42177142Y-24764140D02*
X42219999Y-24892711D01*
X42219999Y-24892711D02*
X42734285Y-25406997D01*
X42734285Y-25406997D02*
X42177142Y-25406997D01*
X41619999Y-24506997D02*
X41534285Y-24506997D01*
X41534285Y-24506997D02*
X41448571Y-24549854D01*
X41448571Y-24549854D02*
X41405714Y-24592711D01*
X41405714Y-24592711D02*
X41362856Y-24678425D01*
X41362856Y-24678425D02*
X41319999Y-24849854D01*
X41319999Y-24849854D02*
X41319999Y-25064140D01*
X41319999Y-25064140D02*
X41362856Y-25235568D01*
X41362856Y-25235568D02*
X41405714Y-25321282D01*
X41405714Y-25321282D02*
X41448571Y-25364140D01*
X41448571Y-25364140D02*
X41534285Y-25406997D01*
X41534285Y-25406997D02*
X41619999Y-25406997D01*
X41619999Y-25406997D02*
X41705714Y-25364140D01*
X41705714Y-25364140D02*
X41748571Y-25321282D01*
X41748571Y-25321282D02*
X41791428Y-25235568D01*
X41791428Y-25235568D02*
X41834285Y-25064140D01*
X41834285Y-25064140D02*
X41834285Y-24849854D01*
X41834285Y-24849854D02*
X41791428Y-24678425D01*
X41791428Y-24678425D02*
X41748571Y-24592711D01*
X41748571Y-24592711D02*
X41705714Y-24549854D01*
X41705714Y-24549854D02*
X41619999Y-24506997D01*
X40762856Y-24506997D02*
X40677142Y-24506997D01*
X40677142Y-24506997D02*
X40591428Y-24549854D01*
X40591428Y-24549854D02*
X40548571Y-24592711D01*
X40548571Y-24592711D02*
X40505713Y-24678425D01*
X40505713Y-24678425D02*
X40462856Y-24849854D01*
X40462856Y-24849854D02*
X40462856Y-25064140D01*
X40462856Y-25064140D02*
X40505713Y-25235568D01*
X40505713Y-25235568D02*
X40548571Y-25321282D01*
X40548571Y-25321282D02*
X40591428Y-25364140D01*
X40591428Y-25364140D02*
X40677142Y-25406997D01*
X40677142Y-25406997D02*
X40762856Y-25406997D01*
X40762856Y-25406997D02*
X40848571Y-25364140D01*
X40848571Y-25364140D02*
X40891428Y-25321282D01*
X40891428Y-25321282D02*
X40934285Y-25235568D01*
X40934285Y-25235568D02*
X40977142Y-25064140D01*
X40977142Y-25064140D02*
X40977142Y-24849854D01*
X40977142Y-24849854D02*
X40934285Y-24678425D01*
X40934285Y-24678425D02*
X40891428Y-24592711D01*
X40891428Y-24592711D02*
X40848571Y-24549854D01*
X40848571Y-24549854D02*
X40762856Y-24506997D01*
X40034285Y-25406997D02*
X39862856Y-25406997D01*
X39862856Y-25406997D02*
X39777142Y-25364140D01*
X39777142Y-25364140D02*
X39734285Y-25321282D01*
X39734285Y-25321282D02*
X39648570Y-25192711D01*
X39648570Y-25192711D02*
X39605713Y-25021282D01*
X39605713Y-25021282D02*
X39605713Y-24678425D01*
X39605713Y-24678425D02*
X39648570Y-24592711D01*
X39648570Y-24592711D02*
X39691428Y-24549854D01*
X39691428Y-24549854D02*
X39777142Y-24506997D01*
X39777142Y-24506997D02*
X39948570Y-24506997D01*
X39948570Y-24506997D02*
X40034285Y-24549854D01*
X40034285Y-24549854D02*
X40077142Y-24592711D01*
X40077142Y-24592711D02*
X40119999Y-24678425D01*
X40119999Y-24678425D02*
X40119999Y-24892711D01*
X40119999Y-24892711D02*
X40077142Y-24978425D01*
X40077142Y-24978425D02*
X40034285Y-25021282D01*
X40034285Y-25021282D02*
X39948570Y-25064140D01*
X39948570Y-25064140D02*
X39777142Y-25064140D01*
X39777142Y-25064140D02*
X39691428Y-25021282D01*
X39691428Y-25021282D02*
X39648570Y-24978425D01*
X39648570Y-24978425D02*
X39605713Y-24892711D01*
X38191428Y-25364140D02*
X38277142Y-25406997D01*
X38277142Y-25406997D02*
X38448571Y-25406997D01*
X38448571Y-25406997D02*
X38534285Y-25364140D01*
X38534285Y-25364140D02*
X38577142Y-25278425D01*
X38577142Y-25278425D02*
X38577142Y-24935568D01*
X38577142Y-24935568D02*
X38534285Y-24849854D01*
X38534285Y-24849854D02*
X38448571Y-24806997D01*
X38448571Y-24806997D02*
X38277142Y-24806997D01*
X38277142Y-24806997D02*
X38191428Y-24849854D01*
X38191428Y-24849854D02*
X38148571Y-24935568D01*
X38148571Y-24935568D02*
X38148571Y-25021282D01*
X38148571Y-25021282D02*
X38577142Y-25106997D01*
X36648570Y-25406997D02*
X37077142Y-25406997D01*
X37077142Y-25406997D02*
X37077142Y-24506997D01*
X35962857Y-24806997D02*
X35962857Y-25406997D01*
X36348571Y-24806997D02*
X36348571Y-25278425D01*
X36348571Y-25278425D02*
X36305714Y-25364140D01*
X36305714Y-25364140D02*
X36219999Y-25406997D01*
X36219999Y-25406997D02*
X36091428Y-25406997D01*
X36091428Y-25406997D02*
X36005714Y-25364140D01*
X36005714Y-25364140D02*
X35962857Y-25321282D01*
X35148571Y-25364140D02*
X35234285Y-25406997D01*
X35234285Y-25406997D02*
X35405713Y-25406997D01*
X35405713Y-25406997D02*
X35491428Y-25364140D01*
X35491428Y-25364140D02*
X35534285Y-25321282D01*
X35534285Y-25321282D02*
X35577142Y-25235568D01*
X35577142Y-25235568D02*
X35577142Y-24978425D01*
X35577142Y-24978425D02*
X35534285Y-24892711D01*
X35534285Y-24892711D02*
X35491428Y-24849854D01*
X35491428Y-24849854D02*
X35405713Y-24806997D01*
X35405713Y-24806997D02*
X35234285Y-24806997D01*
X35234285Y-24806997D02*
X35148571Y-24849854D01*
X34377142Y-25364140D02*
X34462856Y-25406997D01*
X34462856Y-25406997D02*
X34634284Y-25406997D01*
X34634284Y-25406997D02*
X34719999Y-25364140D01*
X34719999Y-25364140D02*
X34762856Y-25321282D01*
X34762856Y-25321282D02*
X34805713Y-25235568D01*
X34805713Y-25235568D02*
X34805713Y-24978425D01*
X34805713Y-24978425D02*
X34762856Y-24892711D01*
X34762856Y-24892711D02*
X34719999Y-24849854D01*
X34719999Y-24849854D02*
X34634284Y-24806997D01*
X34634284Y-24806997D02*
X34462856Y-24806997D01*
X34462856Y-24806997D02*
X34377142Y-24849854D01*
X33605713Y-25406997D02*
X33605713Y-24935568D01*
X33605713Y-24935568D02*
X33648570Y-24849854D01*
X33648570Y-24849854D02*
X33734284Y-24806997D01*
X33734284Y-24806997D02*
X33905713Y-24806997D01*
X33905713Y-24806997D02*
X33991427Y-24849854D01*
X33605713Y-25364140D02*
X33691427Y-25406997D01*
X33691427Y-25406997D02*
X33905713Y-25406997D01*
X33905713Y-25406997D02*
X33991427Y-25364140D01*
X33991427Y-25364140D02*
X34034284Y-25278425D01*
X34034284Y-25278425D02*
X34034284Y-25192711D01*
X34034284Y-25192711D02*
X33991427Y-25106997D01*
X33991427Y-25106997D02*
X33905713Y-25064140D01*
X33905713Y-25064140D02*
X33691427Y-25064140D01*
X33691427Y-25064140D02*
X33605713Y-25021282D01*
X33219998Y-25364140D02*
X33134284Y-25406997D01*
X33134284Y-25406997D02*
X32962855Y-25406997D01*
X32962855Y-25406997D02*
X32877141Y-25364140D01*
X32877141Y-25364140D02*
X32834284Y-25278425D01*
X32834284Y-25278425D02*
X32834284Y-25235568D01*
X32834284Y-25235568D02*
X32877141Y-25149854D01*
X32877141Y-25149854D02*
X32962855Y-25106997D01*
X32962855Y-25106997D02*
X33091427Y-25106997D01*
X33091427Y-25106997D02*
X33177141Y-25064140D01*
X33177141Y-25064140D02*
X33219998Y-24978425D01*
X33219998Y-24978425D02*
X33219998Y-24935568D01*
X33219998Y-24935568D02*
X33177141Y-24849854D01*
X33177141Y-24849854D02*
X33091427Y-24806997D01*
X33091427Y-24806997D02*
X32962855Y-24806997D01*
X32962855Y-24806997D02*
X32877141Y-24849854D01*
X31762856Y-24935568D02*
X31462856Y-24935568D01*
X31334284Y-25406997D02*
X31762856Y-25406997D01*
X31762856Y-25406997D02*
X31762856Y-24506997D01*
X31762856Y-24506997D02*
X31334284Y-24506997D01*
X30819998Y-25406997D02*
X30905713Y-25364140D01*
X30905713Y-25364140D02*
X30948570Y-25278425D01*
X30948570Y-25278425D02*
X30948570Y-24506997D01*
X30134284Y-25364140D02*
X30219998Y-25406997D01*
X30219998Y-25406997D02*
X30391427Y-25406997D01*
X30391427Y-25406997D02*
X30477141Y-25364140D01*
X30477141Y-25364140D02*
X30519998Y-25278425D01*
X30519998Y-25278425D02*
X30519998Y-24935568D01*
X30519998Y-24935568D02*
X30477141Y-24849854D01*
X30477141Y-24849854D02*
X30391427Y-24806997D01*
X30391427Y-24806997D02*
X30219998Y-24806997D01*
X30219998Y-24806997D02*
X30134284Y-24849854D01*
X30134284Y-24849854D02*
X30091427Y-24935568D01*
X30091427Y-24935568D02*
X30091427Y-25021282D01*
X30091427Y-25021282D02*
X30519998Y-25106997D01*
X29834283Y-24806997D02*
X29491426Y-24806997D01*
X29705712Y-24506997D02*
X29705712Y-25278425D01*
X29705712Y-25278425D02*
X29662855Y-25364140D01*
X29662855Y-25364140D02*
X29577140Y-25406997D01*
X29577140Y-25406997D02*
X29491426Y-25406997D01*
X29191426Y-25406997D02*
X29191426Y-24806997D01*
X29191426Y-24978425D02*
X29148569Y-24892711D01*
X29148569Y-24892711D02*
X29105712Y-24849854D01*
X29105712Y-24849854D02*
X29019997Y-24806997D01*
X29019997Y-24806997D02*
X28934283Y-24806997D01*
X28505711Y-25406997D02*
X28591426Y-25364140D01*
X28591426Y-25364140D02*
X28634283Y-25321282D01*
X28634283Y-25321282D02*
X28677140Y-25235568D01*
X28677140Y-25235568D02*
X28677140Y-24978425D01*
X28677140Y-24978425D02*
X28634283Y-24892711D01*
X28634283Y-24892711D02*
X28591426Y-24849854D01*
X28591426Y-24849854D02*
X28505711Y-24806997D01*
X28505711Y-24806997D02*
X28377140Y-24806997D01*
X28377140Y-24806997D02*
X28291426Y-24849854D01*
X28291426Y-24849854D02*
X28248569Y-24892711D01*
X28248569Y-24892711D02*
X28205711Y-24978425D01*
X28205711Y-24978425D02*
X28205711Y-25235568D01*
X28205711Y-25235568D02*
X28248569Y-25321282D01*
X28248569Y-25321282D02*
X28291426Y-25364140D01*
X28291426Y-25364140D02*
X28377140Y-25406997D01*
X28377140Y-25406997D02*
X28505711Y-25406997D01*
X28591426Y-24592711D02*
X28419997Y-24464140D01*
X28419997Y-24464140D02*
X28248569Y-24592711D01*
X27819997Y-24806997D02*
X27819997Y-25406997D01*
X27819997Y-24892711D02*
X27777140Y-24849854D01*
X27777140Y-24849854D02*
X27691425Y-24806997D01*
X27691425Y-24806997D02*
X27562854Y-24806997D01*
X27562854Y-24806997D02*
X27477140Y-24849854D01*
X27477140Y-24849854D02*
X27434283Y-24935568D01*
X27434283Y-24935568D02*
X27434283Y-25406997D01*
X27005711Y-25406997D02*
X27005711Y-24806997D01*
X27005711Y-24506997D02*
X27048568Y-24549854D01*
X27048568Y-24549854D02*
X27005711Y-24592711D01*
X27005711Y-24592711D02*
X26962854Y-24549854D01*
X26962854Y-24549854D02*
X27005711Y-24506997D01*
X27005711Y-24506997D02*
X27005711Y-24592711D01*
X26191426Y-25364140D02*
X26277140Y-25406997D01*
X26277140Y-25406997D02*
X26448568Y-25406997D01*
X26448568Y-25406997D02*
X26534283Y-25364140D01*
X26534283Y-25364140D02*
X26577140Y-25321282D01*
X26577140Y-25321282D02*
X26619997Y-25235568D01*
X26619997Y-25235568D02*
X26619997Y-24978425D01*
X26619997Y-24978425D02*
X26577140Y-24892711D01*
X26577140Y-24892711D02*
X26534283Y-24849854D01*
X26534283Y-24849854D02*
X26448568Y-24806997D01*
X26448568Y-24806997D02*
X26277140Y-24806997D01*
X26277140Y-24806997D02*
X26191426Y-24849854D01*
X25419997Y-25406997D02*
X25419997Y-24935568D01*
X25419997Y-24935568D02*
X25462854Y-24849854D01*
X25462854Y-24849854D02*
X25548568Y-24806997D01*
X25548568Y-24806997D02*
X25719997Y-24806997D01*
X25719997Y-24806997D02*
X25805711Y-24849854D01*
X25419997Y-25364140D02*
X25505711Y-25406997D01*
X25505711Y-25406997D02*
X25719997Y-25406997D01*
X25719997Y-25406997D02*
X25805711Y-25364140D01*
X25805711Y-25364140D02*
X25848568Y-25278425D01*
X25848568Y-25278425D02*
X25848568Y-25192711D01*
X25848568Y-25192711D02*
X25805711Y-25106997D01*
X25805711Y-25106997D02*
X25719997Y-25064140D01*
X25719997Y-25064140D02*
X25505711Y-25064140D01*
X25505711Y-25064140D02*
X25419997Y-25021282D01*
X24348568Y-24592711D02*
X24305711Y-24549854D01*
X24305711Y-24549854D02*
X24219997Y-24506997D01*
X24219997Y-24506997D02*
X24005711Y-24506997D01*
X24005711Y-24506997D02*
X23919997Y-24549854D01*
X23919997Y-24549854D02*
X23877139Y-24592711D01*
X23877139Y-24592711D02*
X23834282Y-24678425D01*
X23834282Y-24678425D02*
X23834282Y-24764140D01*
X23834282Y-24764140D02*
X23877139Y-24892711D01*
X23877139Y-24892711D02*
X24391425Y-25406997D01*
X24391425Y-25406997D02*
X23834282Y-25406997D01*
X23277139Y-24506997D02*
X23191425Y-24506997D01*
X23191425Y-24506997D02*
X23105711Y-24549854D01*
X23105711Y-24549854D02*
X23062854Y-24592711D01*
X23062854Y-24592711D02*
X23019996Y-24678425D01*
X23019996Y-24678425D02*
X22977139Y-24849854D01*
X22977139Y-24849854D02*
X22977139Y-25064140D01*
X22977139Y-25064140D02*
X23019996Y-25235568D01*
X23019996Y-25235568D02*
X23062854Y-25321282D01*
X23062854Y-25321282D02*
X23105711Y-25364140D01*
X23105711Y-25364140D02*
X23191425Y-25406997D01*
X23191425Y-25406997D02*
X23277139Y-25406997D01*
X23277139Y-25406997D02*
X23362854Y-25364140D01*
X23362854Y-25364140D02*
X23405711Y-25321282D01*
X23405711Y-25321282D02*
X23448568Y-25235568D01*
X23448568Y-25235568D02*
X23491425Y-25064140D01*
X23491425Y-25064140D02*
X23491425Y-24849854D01*
X23491425Y-24849854D02*
X23448568Y-24678425D01*
X23448568Y-24678425D02*
X23405711Y-24592711D01*
X23405711Y-24592711D02*
X23362854Y-24549854D01*
X23362854Y-24549854D02*
X23277139Y-24506997D01*
X22119996Y-25406997D02*
X22634282Y-25406997D01*
X22377139Y-25406997D02*
X22377139Y-24506997D01*
X22377139Y-24506997D02*
X22462853Y-24635568D01*
X22462853Y-24635568D02*
X22548568Y-24721282D01*
X22548568Y-24721282D02*
X22634282Y-24764140D01*
X21777139Y-24592711D02*
X21734282Y-24549854D01*
X21734282Y-24549854D02*
X21648568Y-24506997D01*
X21648568Y-24506997D02*
X21434282Y-24506997D01*
X21434282Y-24506997D02*
X21348568Y-24549854D01*
X21348568Y-24549854D02*
X21305710Y-24592711D01*
X21305710Y-24592711D02*
X21262853Y-24678425D01*
X21262853Y-24678425D02*
X21262853Y-24764140D01*
X21262853Y-24764140D02*
X21305710Y-24892711D01*
X21305710Y-24892711D02*
X21819996Y-25406997D01*
X21819996Y-25406997D02*
X21262853Y-25406997D01*
D11*
X3261904Y-37547457D02*
X3214285Y-37499838D01*
X3214285Y-37499838D02*
X3119047Y-37452219D01*
X3119047Y-37452219D02*
X2880952Y-37452219D01*
X2880952Y-37452219D02*
X2785714Y-37499838D01*
X2785714Y-37499838D02*
X2738095Y-37547457D01*
X2738095Y-37547457D02*
X2690476Y-37642695D01*
X2690476Y-37642695D02*
X2690476Y-37737933D01*
X2690476Y-37737933D02*
X2738095Y-37880790D01*
X2738095Y-37880790D02*
X3309523Y-38452219D01*
X3309523Y-38452219D02*
X2690476Y-38452219D01*
X2119047Y-37880790D02*
X2214285Y-37833171D01*
X2214285Y-37833171D02*
X2261904Y-37785552D01*
X2261904Y-37785552D02*
X2309523Y-37690314D01*
X2309523Y-37690314D02*
X2309523Y-37642695D01*
X2309523Y-37642695D02*
X2261904Y-37547457D01*
X2261904Y-37547457D02*
X2214285Y-37499838D01*
X2214285Y-37499838D02*
X2119047Y-37452219D01*
X2119047Y-37452219D02*
X1928571Y-37452219D01*
X1928571Y-37452219D02*
X1833333Y-37499838D01*
X1833333Y-37499838D02*
X1785714Y-37547457D01*
X1785714Y-37547457D02*
X1738095Y-37642695D01*
X1738095Y-37642695D02*
X1738095Y-37690314D01*
X1738095Y-37690314D02*
X1785714Y-37785552D01*
X1785714Y-37785552D02*
X1833333Y-37833171D01*
X1833333Y-37833171D02*
X1928571Y-37880790D01*
X1928571Y-37880790D02*
X2119047Y-37880790D01*
X2119047Y-37880790D02*
X2214285Y-37928409D01*
X2214285Y-37928409D02*
X2261904Y-37976028D01*
X2261904Y-37976028D02*
X2309523Y-38071266D01*
X2309523Y-38071266D02*
X2309523Y-38261742D01*
X2309523Y-38261742D02*
X2261904Y-38356980D01*
X2261904Y-38356980D02*
X2214285Y-38404600D01*
X2214285Y-38404600D02*
X2119047Y-38452219D01*
X2119047Y-38452219D02*
X1928571Y-38452219D01*
X1928571Y-38452219D02*
X1833333Y-38404600D01*
X1833333Y-38404600D02*
X1785714Y-38356980D01*
X1785714Y-38356980D02*
X1738095Y-38261742D01*
X1738095Y-38261742D02*
X1738095Y-38071266D01*
X1738095Y-38071266D02*
X1785714Y-37976028D01*
X1785714Y-37976028D02*
X1833333Y-37928409D01*
X1833333Y-37928409D02*
X1928571Y-37880790D01*
X76214285Y-38452219D02*
X76785713Y-38452219D01*
X76499999Y-38452219D02*
X76499999Y-37452219D01*
X76499999Y-37452219D02*
X76595237Y-37595076D01*
X76595237Y-37595076D02*
X76690475Y-37690314D01*
X76690475Y-37690314D02*
X76785713Y-37737933D01*
D10*
X2185714Y-4092711D02*
X2142857Y-4049854D01*
X2142857Y-4049854D02*
X2057143Y-4006997D01*
X2057143Y-4006997D02*
X1842857Y-4006997D01*
X1842857Y-4006997D02*
X1757143Y-4049854D01*
X1757143Y-4049854D02*
X1714285Y-4092711D01*
X1714285Y-4092711D02*
X1671428Y-4178425D01*
X1671428Y-4178425D02*
X1671428Y-4264140D01*
X1671428Y-4264140D02*
X1714285Y-4392711D01*
X1714285Y-4392711D02*
X2228571Y-4906997D01*
X2228571Y-4906997D02*
X1671428Y-4906997D01*
X1157142Y-4392711D02*
X1242857Y-4349854D01*
X1242857Y-4349854D02*
X1285714Y-4306997D01*
X1285714Y-4306997D02*
X1328571Y-4221282D01*
X1328571Y-4221282D02*
X1328571Y-4178425D01*
X1328571Y-4178425D02*
X1285714Y-4092711D01*
X1285714Y-4092711D02*
X1242857Y-4049854D01*
X1242857Y-4049854D02*
X1157142Y-4006997D01*
X1157142Y-4006997D02*
X985714Y-4006997D01*
X985714Y-4006997D02*
X900000Y-4049854D01*
X900000Y-4049854D02*
X857142Y-4092711D01*
X857142Y-4092711D02*
X814285Y-4178425D01*
X814285Y-4178425D02*
X814285Y-4221282D01*
X814285Y-4221282D02*
X857142Y-4306997D01*
X857142Y-4306997D02*
X900000Y-4349854D01*
X900000Y-4349854D02*
X985714Y-4392711D01*
X985714Y-4392711D02*
X1157142Y-4392711D01*
X1157142Y-4392711D02*
X1242857Y-4435568D01*
X1242857Y-4435568D02*
X1285714Y-4478425D01*
X1285714Y-4478425D02*
X1328571Y-4564140D01*
X1328571Y-4564140D02*
X1328571Y-4735568D01*
X1328571Y-4735568D02*
X1285714Y-4821282D01*
X1285714Y-4821282D02*
X1242857Y-4864140D01*
X1242857Y-4864140D02*
X1157142Y-4906997D01*
X1157142Y-4906997D02*
X985714Y-4906997D01*
X985714Y-4906997D02*
X900000Y-4864140D01*
X900000Y-4864140D02*
X857142Y-4821282D01*
X857142Y-4821282D02*
X814285Y-4735568D01*
X814285Y-4735568D02*
X814285Y-4564140D01*
X814285Y-4564140D02*
X857142Y-4478425D01*
X857142Y-4478425D02*
X900000Y-4435568D01*
X900000Y-4435568D02*
X985714Y-4392711D01*
X48421427Y-9364140D02*
X48292856Y-9406997D01*
X48292856Y-9406997D02*
X48078570Y-9406997D01*
X48078570Y-9406997D02*
X47992856Y-9364140D01*
X47992856Y-9364140D02*
X47949998Y-9321282D01*
X47949998Y-9321282D02*
X47907141Y-9235568D01*
X47907141Y-9235568D02*
X47907141Y-9149854D01*
X47907141Y-9149854D02*
X47949998Y-9064140D01*
X47949998Y-9064140D02*
X47992856Y-9021282D01*
X47992856Y-9021282D02*
X48078570Y-8978425D01*
X48078570Y-8978425D02*
X48249998Y-8935568D01*
X48249998Y-8935568D02*
X48335713Y-8892711D01*
X48335713Y-8892711D02*
X48378570Y-8849854D01*
X48378570Y-8849854D02*
X48421427Y-8764140D01*
X48421427Y-8764140D02*
X48421427Y-8678425D01*
X48421427Y-8678425D02*
X48378570Y-8592711D01*
X48378570Y-8592711D02*
X48335713Y-8549854D01*
X48335713Y-8549854D02*
X48249998Y-8506997D01*
X48249998Y-8506997D02*
X48035713Y-8506997D01*
X48035713Y-8506997D02*
X47907141Y-8549854D01*
X47349998Y-8506997D02*
X47178570Y-8506997D01*
X47178570Y-8506997D02*
X47092855Y-8549854D01*
X47092855Y-8549854D02*
X47007141Y-8635568D01*
X47007141Y-8635568D02*
X46964284Y-8806997D01*
X46964284Y-8806997D02*
X46964284Y-9106997D01*
X46964284Y-9106997D02*
X47007141Y-9278425D01*
X47007141Y-9278425D02*
X47092855Y-9364140D01*
X47092855Y-9364140D02*
X47178570Y-9406997D01*
X47178570Y-9406997D02*
X47349998Y-9406997D01*
X47349998Y-9406997D02*
X47435713Y-9364140D01*
X47435713Y-9364140D02*
X47521427Y-9278425D01*
X47521427Y-9278425D02*
X47564284Y-9106997D01*
X47564284Y-9106997D02*
X47564284Y-8806997D01*
X47564284Y-8806997D02*
X47521427Y-8635568D01*
X47521427Y-8635568D02*
X47435713Y-8549854D01*
X47435713Y-8549854D02*
X47349998Y-8506997D01*
X46149998Y-9406997D02*
X46578570Y-9406997D01*
X46578570Y-9406997D02*
X46578570Y-8506997D01*
X45849999Y-9406997D02*
X45849999Y-8506997D01*
X45849999Y-8506997D02*
X45635713Y-8506997D01*
X45635713Y-8506997D02*
X45507142Y-8549854D01*
X45507142Y-8549854D02*
X45421427Y-8635568D01*
X45421427Y-8635568D02*
X45378570Y-8721282D01*
X45378570Y-8721282D02*
X45335713Y-8892711D01*
X45335713Y-8892711D02*
X45335713Y-9021282D01*
X45335713Y-9021282D02*
X45378570Y-9192711D01*
X45378570Y-9192711D02*
X45421427Y-9278425D01*
X45421427Y-9278425D02*
X45507142Y-9364140D01*
X45507142Y-9364140D02*
X45635713Y-9406997D01*
X45635713Y-9406997D02*
X45849999Y-9406997D01*
X44992856Y-9149854D02*
X44564285Y-9149854D01*
X45078570Y-9406997D02*
X44778570Y-8506997D01*
X44778570Y-8506997D02*
X44478570Y-9406997D01*
X43664284Y-9406997D02*
X43964284Y-8978425D01*
X44178570Y-9406997D02*
X44178570Y-8506997D01*
X44178570Y-8506997D02*
X43835713Y-8506997D01*
X43835713Y-8506997D02*
X43749998Y-8549854D01*
X43749998Y-8549854D02*
X43707141Y-8592711D01*
X43707141Y-8592711D02*
X43664284Y-8678425D01*
X43664284Y-8678425D02*
X43664284Y-8806997D01*
X43664284Y-8806997D02*
X43707141Y-8892711D01*
X43707141Y-8892711D02*
X43749998Y-8935568D01*
X43749998Y-8935568D02*
X43835713Y-8978425D01*
X43835713Y-8978425D02*
X44178570Y-8978425D01*
X42592856Y-9406997D02*
X42592856Y-8506997D01*
X42592856Y-8506997D02*
X42378570Y-8506997D01*
X42378570Y-8506997D02*
X42249999Y-8549854D01*
X42249999Y-8549854D02*
X42164284Y-8635568D01*
X42164284Y-8635568D02*
X42121427Y-8721282D01*
X42121427Y-8721282D02*
X42078570Y-8892711D01*
X42078570Y-8892711D02*
X42078570Y-9021282D01*
X42078570Y-9021282D02*
X42121427Y-9192711D01*
X42121427Y-9192711D02*
X42164284Y-9278425D01*
X42164284Y-9278425D02*
X42249999Y-9364140D01*
X42249999Y-9364140D02*
X42378570Y-9406997D01*
X42378570Y-9406997D02*
X42592856Y-9406997D01*
X41521427Y-8506997D02*
X41349999Y-8506997D01*
X41349999Y-8506997D02*
X41264284Y-8549854D01*
X41264284Y-8549854D02*
X41178570Y-8635568D01*
X41178570Y-8635568D02*
X41135713Y-8806997D01*
X41135713Y-8806997D02*
X41135713Y-9106997D01*
X41135713Y-9106997D02*
X41178570Y-9278425D01*
X41178570Y-9278425D02*
X41264284Y-9364140D01*
X41264284Y-9364140D02*
X41349999Y-9406997D01*
X41349999Y-9406997D02*
X41521427Y-9406997D01*
X41521427Y-9406997D02*
X41607142Y-9364140D01*
X41607142Y-9364140D02*
X41692856Y-9278425D01*
X41692856Y-9278425D02*
X41735713Y-9106997D01*
X41735713Y-9106997D02*
X41735713Y-8806997D01*
X41735713Y-8806997D02*
X41692856Y-8635568D01*
X41692856Y-8635568D02*
X41607142Y-8549854D01*
X41607142Y-8549854D02*
X41521427Y-8506997D01*
X40792856Y-9364140D02*
X40664285Y-9406997D01*
X40664285Y-9406997D02*
X40449999Y-9406997D01*
X40449999Y-9406997D02*
X40364285Y-9364140D01*
X40364285Y-9364140D02*
X40321427Y-9321282D01*
X40321427Y-9321282D02*
X40278570Y-9235568D01*
X40278570Y-9235568D02*
X40278570Y-9149854D01*
X40278570Y-9149854D02*
X40321427Y-9064140D01*
X40321427Y-9064140D02*
X40364285Y-9021282D01*
X40364285Y-9021282D02*
X40449999Y-8978425D01*
X40449999Y-8978425D02*
X40621427Y-8935568D01*
X40621427Y-8935568D02*
X40707142Y-8892711D01*
X40707142Y-8892711D02*
X40749999Y-8849854D01*
X40749999Y-8849854D02*
X40792856Y-8764140D01*
X40792856Y-8764140D02*
X40792856Y-8678425D01*
X40792856Y-8678425D02*
X40749999Y-8592711D01*
X40749999Y-8592711D02*
X40707142Y-8549854D01*
X40707142Y-8549854D02*
X40621427Y-8506997D01*
X40621427Y-8506997D02*
X40407142Y-8506997D01*
X40407142Y-8506997D02*
X40278570Y-8549854D01*
X39207142Y-9406997D02*
X39207142Y-8506997D01*
X39207142Y-8506997D02*
X38992856Y-8506997D01*
X38992856Y-8506997D02*
X38864285Y-8549854D01*
X38864285Y-8549854D02*
X38778570Y-8635568D01*
X38778570Y-8635568D02*
X38735713Y-8721282D01*
X38735713Y-8721282D02*
X38692856Y-8892711D01*
X38692856Y-8892711D02*
X38692856Y-9021282D01*
X38692856Y-9021282D02*
X38735713Y-9192711D01*
X38735713Y-9192711D02*
X38778570Y-9278425D01*
X38778570Y-9278425D02*
X38864285Y-9364140D01*
X38864285Y-9364140D02*
X38992856Y-9406997D01*
X38992856Y-9406997D02*
X39207142Y-9406997D01*
X38135713Y-8506997D02*
X37964285Y-8506997D01*
X37964285Y-8506997D02*
X37878570Y-8549854D01*
X37878570Y-8549854D02*
X37792856Y-8635568D01*
X37792856Y-8635568D02*
X37749999Y-8806997D01*
X37749999Y-8806997D02*
X37749999Y-9106997D01*
X37749999Y-9106997D02*
X37792856Y-9278425D01*
X37792856Y-9278425D02*
X37878570Y-9364140D01*
X37878570Y-9364140D02*
X37964285Y-9406997D01*
X37964285Y-9406997D02*
X38135713Y-9406997D01*
X38135713Y-9406997D02*
X38221428Y-9364140D01*
X38221428Y-9364140D02*
X38307142Y-9278425D01*
X38307142Y-9278425D02*
X38349999Y-9106997D01*
X38349999Y-9106997D02*
X38349999Y-8806997D01*
X38349999Y-8806997D02*
X38307142Y-8635568D01*
X38307142Y-8635568D02*
X38221428Y-8549854D01*
X38221428Y-8549854D02*
X38135713Y-8506997D01*
X37364285Y-9406997D02*
X37364285Y-8506997D01*
X36978571Y-9364140D02*
X36850000Y-9406997D01*
X36850000Y-9406997D02*
X36635714Y-9406997D01*
X36635714Y-9406997D02*
X36550000Y-9364140D01*
X36550000Y-9364140D02*
X36507142Y-9321282D01*
X36507142Y-9321282D02*
X36464285Y-9235568D01*
X36464285Y-9235568D02*
X36464285Y-9149854D01*
X36464285Y-9149854D02*
X36507142Y-9064140D01*
X36507142Y-9064140D02*
X36550000Y-9021282D01*
X36550000Y-9021282D02*
X36635714Y-8978425D01*
X36635714Y-8978425D02*
X36807142Y-8935568D01*
X36807142Y-8935568D02*
X36892857Y-8892711D01*
X36892857Y-8892711D02*
X36935714Y-8849854D01*
X36935714Y-8849854D02*
X36978571Y-8764140D01*
X36978571Y-8764140D02*
X36978571Y-8678425D01*
X36978571Y-8678425D02*
X36935714Y-8592711D01*
X36935714Y-8592711D02*
X36892857Y-8549854D01*
X36892857Y-8549854D02*
X36807142Y-8506997D01*
X36807142Y-8506997D02*
X36592857Y-8506997D01*
X36592857Y-8506997D02*
X36464285Y-8549854D01*
X34964285Y-9406997D02*
X35392857Y-9406997D01*
X35392857Y-9406997D02*
X35392857Y-8506997D01*
X34707143Y-9149854D02*
X34278572Y-9149854D01*
X34792857Y-9406997D02*
X34492857Y-8506997D01*
X34492857Y-8506997D02*
X34192857Y-9406997D01*
X33892857Y-9406997D02*
X33892857Y-8506997D01*
X33892857Y-8506997D02*
X33678571Y-8506997D01*
X33678571Y-8506997D02*
X33550000Y-8549854D01*
X33550000Y-8549854D02*
X33464285Y-8635568D01*
X33464285Y-8635568D02*
X33421428Y-8721282D01*
X33421428Y-8721282D02*
X33378571Y-8892711D01*
X33378571Y-8892711D02*
X33378571Y-9021282D01*
X33378571Y-9021282D02*
X33421428Y-9192711D01*
X33421428Y-9192711D02*
X33464285Y-9278425D01*
X33464285Y-9278425D02*
X33550000Y-9364140D01*
X33550000Y-9364140D02*
X33678571Y-9406997D01*
X33678571Y-9406997D02*
X33892857Y-9406997D01*
X32821428Y-8506997D02*
X32650000Y-8506997D01*
X32650000Y-8506997D02*
X32564285Y-8549854D01*
X32564285Y-8549854D02*
X32478571Y-8635568D01*
X32478571Y-8635568D02*
X32435714Y-8806997D01*
X32435714Y-8806997D02*
X32435714Y-9106997D01*
X32435714Y-9106997D02*
X32478571Y-9278425D01*
X32478571Y-9278425D02*
X32564285Y-9364140D01*
X32564285Y-9364140D02*
X32650000Y-9406997D01*
X32650000Y-9406997D02*
X32821428Y-9406997D01*
X32821428Y-9406997D02*
X32907143Y-9364140D01*
X32907143Y-9364140D02*
X32992857Y-9278425D01*
X32992857Y-9278425D02*
X33035714Y-9106997D01*
X33035714Y-9106997D02*
X33035714Y-8806997D01*
X33035714Y-8806997D02*
X32992857Y-8635568D01*
X32992857Y-8635568D02*
X32907143Y-8549854D01*
X32907143Y-8549854D02*
X32821428Y-8506997D01*
X32092857Y-9364140D02*
X31964286Y-9406997D01*
X31964286Y-9406997D02*
X31750000Y-9406997D01*
X31750000Y-9406997D02*
X31664286Y-9364140D01*
X31664286Y-9364140D02*
X31621428Y-9321282D01*
X31621428Y-9321282D02*
X31578571Y-9235568D01*
X31578571Y-9235568D02*
X31578571Y-9149854D01*
X31578571Y-9149854D02*
X31621428Y-9064140D01*
X31621428Y-9064140D02*
X31664286Y-9021282D01*
X31664286Y-9021282D02*
X31750000Y-8978425D01*
X31750000Y-8978425D02*
X31921428Y-8935568D01*
X31921428Y-8935568D02*
X32007143Y-8892711D01*
X32007143Y-8892711D02*
X32050000Y-8849854D01*
X32050000Y-8849854D02*
X32092857Y-8764140D01*
X32092857Y-8764140D02*
X32092857Y-8678425D01*
X32092857Y-8678425D02*
X32050000Y-8592711D01*
X32050000Y-8592711D02*
X32007143Y-8549854D01*
X32007143Y-8549854D02*
X31921428Y-8506997D01*
X31921428Y-8506997D02*
X31707143Y-8506997D01*
X31707143Y-8506997D02*
X31578571Y-8549854D01*
X76742856Y-4906997D02*
X77257142Y-4906997D01*
X76999999Y-4906997D02*
X76999999Y-4006997D01*
X76999999Y-4006997D02*
X77085713Y-4135568D01*
X77085713Y-4135568D02*
X77171428Y-4221282D01*
X77171428Y-4221282D02*
X77257142Y-4264140D01*
D12*
X56928570Y-29901414D02*
X57014285Y-29858557D01*
X57014285Y-29858557D02*
X57142856Y-29858557D01*
X57142856Y-29858557D02*
X57271427Y-29901414D01*
X57271427Y-29901414D02*
X57357142Y-29987128D01*
X57357142Y-29987128D02*
X57399999Y-30072842D01*
X57399999Y-30072842D02*
X57442856Y-30244271D01*
X57442856Y-30244271D02*
X57442856Y-30372842D01*
X57442856Y-30372842D02*
X57399999Y-30544271D01*
X57399999Y-30544271D02*
X57357142Y-30629985D01*
X57357142Y-30629985D02*
X57271427Y-30715700D01*
X57271427Y-30715700D02*
X57142856Y-30758557D01*
X57142856Y-30758557D02*
X57057142Y-30758557D01*
X57057142Y-30758557D02*
X56928570Y-30715700D01*
X56928570Y-30715700D02*
X56885713Y-30672842D01*
X56885713Y-30672842D02*
X56885713Y-30372842D01*
X56885713Y-30372842D02*
X57057142Y-30372842D01*
X56499999Y-30758557D02*
X56499999Y-29858557D01*
X56499999Y-29858557D02*
X55985713Y-30758557D01*
X55985713Y-30758557D02*
X55985713Y-29858557D01*
X55557142Y-30758557D02*
X55557142Y-29858557D01*
X55557142Y-29858557D02*
X55342856Y-29858557D01*
X55342856Y-29858557D02*
X55214285Y-29901414D01*
X55214285Y-29901414D02*
X55128570Y-29987128D01*
X55128570Y-29987128D02*
X55085713Y-30072842D01*
X55085713Y-30072842D02*
X55042856Y-30244271D01*
X55042856Y-30244271D02*
X55042856Y-30372842D01*
X55042856Y-30372842D02*
X55085713Y-30544271D01*
X55085713Y-30544271D02*
X55128570Y-30629985D01*
X55128570Y-30629985D02*
X55214285Y-30715700D01*
X55214285Y-30715700D02*
X55342856Y-30758557D01*
X55342856Y-30758557D02*
X55557142Y-30758557D01*
X53971428Y-30415700D02*
X53285714Y-30415700D01*
X51871428Y-30287128D02*
X52171428Y-30287128D01*
X52171428Y-30758557D02*
X52171428Y-29858557D01*
X52171428Y-29858557D02*
X51742856Y-29858557D01*
X51399999Y-30758557D02*
X51399999Y-29858557D01*
X50799999Y-29858557D02*
X50628571Y-29858557D01*
X50628571Y-29858557D02*
X50542856Y-29901414D01*
X50542856Y-29901414D02*
X50457142Y-29987128D01*
X50457142Y-29987128D02*
X50414285Y-30158557D01*
X50414285Y-30158557D02*
X50414285Y-30458557D01*
X50414285Y-30458557D02*
X50457142Y-30629985D01*
X50457142Y-30629985D02*
X50542856Y-30715700D01*
X50542856Y-30715700D02*
X50628571Y-30758557D01*
X50628571Y-30758557D02*
X50799999Y-30758557D01*
X50799999Y-30758557D02*
X50885714Y-30715700D01*
X50885714Y-30715700D02*
X50971428Y-30629985D01*
X50971428Y-30629985D02*
X51014285Y-30458557D01*
X51014285Y-30458557D02*
X51014285Y-30158557D01*
X51014285Y-30158557D02*
X50971428Y-29987128D01*
X50971428Y-29987128D02*
X50885714Y-29901414D01*
X50885714Y-29901414D02*
X50799999Y-29858557D01*
X49342857Y-30758557D02*
X49342857Y-29858557D01*
X48957143Y-30715700D02*
X48828572Y-30758557D01*
X48828572Y-30758557D02*
X48614286Y-30758557D01*
X48614286Y-30758557D02*
X48528572Y-30715700D01*
X48528572Y-30715700D02*
X48485714Y-30672842D01*
X48485714Y-30672842D02*
X48442857Y-30587128D01*
X48442857Y-30587128D02*
X48442857Y-30501414D01*
X48442857Y-30501414D02*
X48485714Y-30415700D01*
X48485714Y-30415700D02*
X48528572Y-30372842D01*
X48528572Y-30372842D02*
X48614286Y-30329985D01*
X48614286Y-30329985D02*
X48785714Y-30287128D01*
X48785714Y-30287128D02*
X48871429Y-30244271D01*
X48871429Y-30244271D02*
X48914286Y-30201414D01*
X48914286Y-30201414D02*
X48957143Y-30115700D01*
X48957143Y-30115700D02*
X48957143Y-30029985D01*
X48957143Y-30029985D02*
X48914286Y-29944271D01*
X48914286Y-29944271D02*
X48871429Y-29901414D01*
X48871429Y-29901414D02*
X48785714Y-29858557D01*
X48785714Y-29858557D02*
X48571429Y-29858557D01*
X48571429Y-29858557D02*
X48442857Y-29901414D01*
X47885714Y-29858557D02*
X47714286Y-29858557D01*
X47714286Y-29858557D02*
X47628571Y-29901414D01*
X47628571Y-29901414D02*
X47542857Y-29987128D01*
X47542857Y-29987128D02*
X47500000Y-30158557D01*
X47500000Y-30158557D02*
X47500000Y-30458557D01*
X47500000Y-30458557D02*
X47542857Y-30629985D01*
X47542857Y-30629985D02*
X47628571Y-30715700D01*
X47628571Y-30715700D02*
X47714286Y-30758557D01*
X47714286Y-30758557D02*
X47885714Y-30758557D01*
X47885714Y-30758557D02*
X47971429Y-30715700D01*
X47971429Y-30715700D02*
X48057143Y-30629985D01*
X48057143Y-30629985D02*
X48100000Y-30458557D01*
X48100000Y-30458557D02*
X48100000Y-30158557D01*
X48100000Y-30158557D02*
X48057143Y-29987128D01*
X48057143Y-29987128D02*
X47971429Y-29901414D01*
X47971429Y-29901414D02*
X47885714Y-29858557D01*
X46685714Y-30758557D02*
X47114286Y-30758557D01*
X47114286Y-30758557D02*
X47114286Y-29858557D01*
X46428572Y-30501414D02*
X46000001Y-30501414D01*
X46514286Y-30758557D02*
X46214286Y-29858557D01*
X46214286Y-29858557D02*
X45914286Y-30758557D01*
X45614286Y-30758557D02*
X45614286Y-29858557D01*
X45614286Y-29858557D02*
X45400000Y-29858557D01*
X45400000Y-29858557D02*
X45271429Y-29901414D01*
X45271429Y-29901414D02*
X45185714Y-29987128D01*
X45185714Y-29987128D02*
X45142857Y-30072842D01*
X45142857Y-30072842D02*
X45100000Y-30244271D01*
X45100000Y-30244271D02*
X45100000Y-30372842D01*
X45100000Y-30372842D02*
X45142857Y-30544271D01*
X45142857Y-30544271D02*
X45185714Y-30629985D01*
X45185714Y-30629985D02*
X45271429Y-30715700D01*
X45271429Y-30715700D02*
X45400000Y-30758557D01*
X45400000Y-30758557D02*
X45614286Y-30758557D01*
X44542857Y-29858557D02*
X44371429Y-29858557D01*
X44371429Y-29858557D02*
X44285714Y-29901414D01*
X44285714Y-29901414D02*
X44200000Y-29987128D01*
X44200000Y-29987128D02*
X44157143Y-30158557D01*
X44157143Y-30158557D02*
X44157143Y-30458557D01*
X44157143Y-30458557D02*
X44200000Y-30629985D01*
X44200000Y-30629985D02*
X44285714Y-30715700D01*
X44285714Y-30715700D02*
X44371429Y-30758557D01*
X44371429Y-30758557D02*
X44542857Y-30758557D01*
X44542857Y-30758557D02*
X44628572Y-30715700D01*
X44628572Y-30715700D02*
X44714286Y-30629985D01*
X44714286Y-30629985D02*
X44757143Y-30458557D01*
X44757143Y-30458557D02*
X44757143Y-30158557D01*
X44757143Y-30158557D02*
X44714286Y-29987128D01*
X44714286Y-29987128D02*
X44628572Y-29901414D01*
X44628572Y-29901414D02*
X44542857Y-29858557D01*
%TO.C,J1*%
X3080000Y-5300000D02*
X3080000Y-300000D01*
X3080000Y-5300000D02*
X75660000Y-5300000D01*
X63500000Y-5300000D02*
X63500000Y-300000D01*
X75660000Y-5300000D02*
X75660000Y-300000D01*
%TO.C,W1*%
X39440000Y-31350000D02*
X62160000Y-31350000D01*
X39440000Y-34650000D02*
X62160000Y-34650000D01*
%TD*%
M02*
