M48
; DRILL file KiCad 10.0.4 date 2026-07-27T01:33:33
; FORMAT={-:-/ absolute / metric / decimal}
; #@! TF.CreationDate,2026-07-27T01:33:33-03:00
; #@! TF.GenerationSoftware,Kicad,Pcbnew,10.0.4
; #@! TF.FileFunction,MixedPlating,1,2
FMAT,2
METRIC
; #@! TA.AperFunction,Plated,PTH,ViaDrill
T1C0.350
; #@! TA.AperFunction,Plated,PTH,ViaDrill
T2C0.450
; #@! TA.AperFunction,Plated,PTH,ComponentDrill
T3C0.800
%
G90
G05
T1
X2.006Y-8.875
X5.08Y-5.72
X5.08Y-36.867
X6.464Y-37.07
X6.974Y-5.677
X7.62Y-10.564
X10.16Y-36.83
X10.229Y-5.683
X11.543Y-37.07
X12.409Y-5.714
X12.7Y-10.532
X17.78Y-5.673
X19.05Y-39.92
X19.685Y-36.56
X20.927Y-10.551
X21.253Y-5.555
X21.704Y-37.07
X22.86Y-5.673
X22.86Y-10.548
X24.752Y-10.946
X25.4Y-5.692
X25.634Y-36.874
X26.769Y-37.075
X27.94Y-5.718
X28.372Y-10.545
X29.63Y-10.644
X30.258Y-36.858
X30.591Y-5.681
X32.788Y-36.88
X33.02Y-5.687
X33.444Y-10.908
X35.282Y-10.692
X35.56Y-5.702
X35.936Y-36.88
X36.929Y-37.075
X38.1Y-5.68
X40.454Y-36.871
X40.794Y-5.701
X41.341Y-10.543
X41.91Y-37.474
X43.18Y-5.707
X43.18Y-10.536
X45.512Y-10.603
X45.72Y-5.709
X46.142Y-36.88
X47.089Y-37.075
X48.26Y-5.72
X48.707Y-10.524
X50.016Y-10.721
X50.642Y-5.69
X50.649Y-36.883
X53.12Y-36.847
X53.34Y-5.675
X53.754Y-10.874
X55.88Y-10.539
X55.911Y-5.695
X57.15Y-39.92
X58.188Y-10.627
X58.42Y-5.7
X58.967Y-36.88
X60.432Y-36.88
X60.808Y-5.707
X61.816Y-10.51
X63.303Y-36.847
X63.5Y-5.687
X63.941Y-10.786
X66.04Y-10.569
X66.108Y-5.686
X67.31Y-39.92
X68.58Y-5.68
X69.172Y-36.88
X69.576Y-10.367
X70.638Y-36.88
X71.01Y-5.687
X71.295Y-10.57
X73.486Y-36.847
X73.66Y-5.706
X76.735Y-8.875
T2
X38.1Y-10.674
T3
X6.0Y-20.0
X11.0Y-20.0
M30
