%TF.GenerationSoftware,KiCad,Pcbnew,10.0.4*%
%TF.CreationDate,2026-07-27T02:29:31-03:00*%
%TF.ProjectId,tkmem128-expansor,746b6d65-6d31-4323-982d-657870616e73,rev?*%
%TF.SameCoordinates,Original*%
%TF.FileFunction,Legend,Bot*%
%TF.FilePolarity,Positive*%
%FSLAX46Y46*%
G04 Gerber Fmt 4.6, Leading zero omitted, Abs format (unit mm)*
G04 Created by KiCad (PCBNEW 10.0.4) date 2026-07-27 02:29:31*
%MOMM*%
%LPD*%
G01*
G04 APERTURE LIST*
%ADD10C,0.150000*%
%ADD11C,1.600000*%
%ADD12R,1.700000X5.000000*%
%ADD13R,1.524000X7.620000*%
G04 APERTURE END LIST*
D10*
X58634286Y-22322842D02*
X58677143Y-22365700D01*
X58677143Y-22365700D02*
X58805715Y-22408557D01*
X58805715Y-22408557D02*
X58891429Y-22408557D01*
X58891429Y-22408557D02*
X59020000Y-22365700D01*
X59020000Y-22365700D02*
X59105715Y-22279985D01*
X59105715Y-22279985D02*
X59148572Y-22194271D01*
X59148572Y-22194271D02*
X59191429Y-22022842D01*
X59191429Y-22022842D02*
X59191429Y-21894271D01*
X59191429Y-21894271D02*
X59148572Y-21722842D01*
X59148572Y-21722842D02*
X59105715Y-21637128D01*
X59105715Y-21637128D02*
X59020000Y-21551414D01*
X59020000Y-21551414D02*
X58891429Y-21508557D01*
X58891429Y-21508557D02*
X58805715Y-21508557D01*
X58805715Y-21508557D02*
X58677143Y-21551414D01*
X58677143Y-21551414D02*
X58634286Y-21594271D01*
X58248572Y-21937128D02*
X57948572Y-21937128D01*
X57820000Y-22408557D02*
X58248572Y-22408557D01*
X58248572Y-22408557D02*
X58248572Y-21508557D01*
X58248572Y-21508557D02*
X57820000Y-21508557D01*
X56920000Y-22408557D02*
X57220000Y-21979985D01*
X57434286Y-22408557D02*
X57434286Y-21508557D01*
X57434286Y-21508557D02*
X57091429Y-21508557D01*
X57091429Y-21508557D02*
X57005714Y-21551414D01*
X57005714Y-21551414D02*
X56962857Y-21594271D01*
X56962857Y-21594271D02*
X56920000Y-21679985D01*
X56920000Y-21679985D02*
X56920000Y-21808557D01*
X56920000Y-21808557D02*
X56962857Y-21894271D01*
X56962857Y-21894271D02*
X57005714Y-21937128D01*
X57005714Y-21937128D02*
X57091429Y-21979985D01*
X57091429Y-21979985D02*
X57434286Y-21979985D01*
X56534286Y-22408557D02*
X56534286Y-21508557D01*
X56534286Y-21508557D02*
X56020000Y-22408557D01*
X56020000Y-22408557D02*
X56020000Y-21508557D01*
X55591429Y-22065700D02*
X54905715Y-22065700D01*
X54305714Y-21508557D02*
X54134286Y-21508557D01*
X54134286Y-21508557D02*
X54048571Y-21551414D01*
X54048571Y-21551414D02*
X53962857Y-21637128D01*
X53962857Y-21637128D02*
X53920000Y-21808557D01*
X53920000Y-21808557D02*
X53920000Y-22108557D01*
X53920000Y-22108557D02*
X53962857Y-22279985D01*
X53962857Y-22279985D02*
X54048571Y-22365700D01*
X54048571Y-22365700D02*
X54134286Y-22408557D01*
X54134286Y-22408557D02*
X54305714Y-22408557D01*
X54305714Y-22408557D02*
X54391429Y-22365700D01*
X54391429Y-22365700D02*
X54477143Y-22279985D01*
X54477143Y-22279985D02*
X54520000Y-22108557D01*
X54520000Y-22108557D02*
X54520000Y-21808557D01*
X54520000Y-21808557D02*
X54477143Y-21637128D01*
X54477143Y-21637128D02*
X54391429Y-21551414D01*
X54391429Y-21551414D02*
X54305714Y-21508557D01*
X53534286Y-22408557D02*
X53534286Y-21508557D01*
X53534286Y-21937128D02*
X53020000Y-21937128D01*
X53020000Y-22408557D02*
X53020000Y-21508557D01*
X52162857Y-22408557D02*
X52591429Y-22408557D01*
X52591429Y-22408557D02*
X52591429Y-21508557D01*
X51862858Y-22065700D02*
X51177144Y-22065700D01*
X50791429Y-22365700D02*
X50662858Y-22408557D01*
X50662858Y-22408557D02*
X50448572Y-22408557D01*
X50448572Y-22408557D02*
X50362858Y-22365700D01*
X50362858Y-22365700D02*
X50320000Y-22322842D01*
X50320000Y-22322842D02*
X50277143Y-22237128D01*
X50277143Y-22237128D02*
X50277143Y-22151414D01*
X50277143Y-22151414D02*
X50320000Y-22065700D01*
X50320000Y-22065700D02*
X50362858Y-22022842D01*
X50362858Y-22022842D02*
X50448572Y-21979985D01*
X50448572Y-21979985D02*
X50620000Y-21937128D01*
X50620000Y-21937128D02*
X50705715Y-21894271D01*
X50705715Y-21894271D02*
X50748572Y-21851414D01*
X50748572Y-21851414D02*
X50791429Y-21765700D01*
X50791429Y-21765700D02*
X50791429Y-21679985D01*
X50791429Y-21679985D02*
X50748572Y-21594271D01*
X50748572Y-21594271D02*
X50705715Y-21551414D01*
X50705715Y-21551414D02*
X50620000Y-21508557D01*
X50620000Y-21508557D02*
X50405715Y-21508557D01*
X50405715Y-21508557D02*
X50277143Y-21551414D01*
X49291429Y-21808557D02*
X49077143Y-22408557D01*
X49077143Y-22408557D02*
X48862858Y-21808557D01*
X48562858Y-21594271D02*
X48520001Y-21551414D01*
X48520001Y-21551414D02*
X48434287Y-21508557D01*
X48434287Y-21508557D02*
X48220001Y-21508557D01*
X48220001Y-21508557D02*
X48134287Y-21551414D01*
X48134287Y-21551414D02*
X48091429Y-21594271D01*
X48091429Y-21594271D02*
X48048572Y-21679985D01*
X48048572Y-21679985D02*
X48048572Y-21765700D01*
X48048572Y-21765700D02*
X48091429Y-21894271D01*
X48091429Y-21894271D02*
X48605715Y-22408557D01*
X48605715Y-22408557D02*
X48048572Y-22408557D01*
X46077144Y-22708557D02*
X46077144Y-21422842D01*
X43677145Y-21808557D02*
X43677145Y-22537128D01*
X43677145Y-22537128D02*
X43720002Y-22622842D01*
X43720002Y-22622842D02*
X43762859Y-22665700D01*
X43762859Y-22665700D02*
X43848573Y-22708557D01*
X43848573Y-22708557D02*
X43977145Y-22708557D01*
X43977145Y-22708557D02*
X44062859Y-22665700D01*
X43677145Y-22365700D02*
X43762859Y-22408557D01*
X43762859Y-22408557D02*
X43934287Y-22408557D01*
X43934287Y-22408557D02*
X44020002Y-22365700D01*
X44020002Y-22365700D02*
X44062859Y-22322842D01*
X44062859Y-22322842D02*
X44105716Y-22237128D01*
X44105716Y-22237128D02*
X44105716Y-21979985D01*
X44105716Y-21979985D02*
X44062859Y-21894271D01*
X44062859Y-21894271D02*
X44020002Y-21851414D01*
X44020002Y-21851414D02*
X43934287Y-21808557D01*
X43934287Y-21808557D02*
X43762859Y-21808557D01*
X43762859Y-21808557D02*
X43677145Y-21851414D01*
X43248573Y-22408557D02*
X43248573Y-21808557D01*
X43248573Y-21508557D02*
X43291430Y-21551414D01*
X43291430Y-21551414D02*
X43248573Y-21594271D01*
X43248573Y-21594271D02*
X43205716Y-21551414D01*
X43205716Y-21551414D02*
X43248573Y-21508557D01*
X43248573Y-21508557D02*
X43248573Y-21594271D01*
X42948573Y-21808557D02*
X42605716Y-21808557D01*
X42820002Y-21508557D02*
X42820002Y-22279985D01*
X42820002Y-22279985D02*
X42777145Y-22365700D01*
X42777145Y-22365700D02*
X42691430Y-22408557D01*
X42691430Y-22408557D02*
X42605716Y-22408557D01*
X42305716Y-22408557D02*
X42305716Y-21508557D01*
X41920002Y-22408557D02*
X41920002Y-21937128D01*
X41920002Y-21937128D02*
X41962859Y-21851414D01*
X41962859Y-21851414D02*
X42048573Y-21808557D01*
X42048573Y-21808557D02*
X42177144Y-21808557D01*
X42177144Y-21808557D02*
X42262859Y-21851414D01*
X42262859Y-21851414D02*
X42305716Y-21894271D01*
X41105716Y-21808557D02*
X41105716Y-22408557D01*
X41491430Y-21808557D02*
X41491430Y-22279985D01*
X41491430Y-22279985D02*
X41448573Y-22365700D01*
X41448573Y-22365700D02*
X41362858Y-22408557D01*
X41362858Y-22408557D02*
X41234287Y-22408557D01*
X41234287Y-22408557D02*
X41148573Y-22365700D01*
X41148573Y-22365700D02*
X41105716Y-22322842D01*
X40677144Y-22408557D02*
X40677144Y-21508557D01*
X40677144Y-21851414D02*
X40591430Y-21808557D01*
X40591430Y-21808557D02*
X40420001Y-21808557D01*
X40420001Y-21808557D02*
X40334287Y-21851414D01*
X40334287Y-21851414D02*
X40291430Y-21894271D01*
X40291430Y-21894271D02*
X40248572Y-21979985D01*
X40248572Y-21979985D02*
X40248572Y-22237128D01*
X40248572Y-22237128D02*
X40291430Y-22322842D01*
X40291430Y-22322842D02*
X40334287Y-22365700D01*
X40334287Y-22365700D02*
X40420001Y-22408557D01*
X40420001Y-22408557D02*
X40591430Y-22408557D01*
X40591430Y-22408557D02*
X40677144Y-22365700D01*
X39862858Y-22322842D02*
X39820001Y-22365700D01*
X39820001Y-22365700D02*
X39862858Y-22408557D01*
X39862858Y-22408557D02*
X39905715Y-22365700D01*
X39905715Y-22365700D02*
X39862858Y-22322842D01*
X39862858Y-22322842D02*
X39862858Y-22408557D01*
X39048573Y-22365700D02*
X39134287Y-22408557D01*
X39134287Y-22408557D02*
X39305715Y-22408557D01*
X39305715Y-22408557D02*
X39391430Y-22365700D01*
X39391430Y-22365700D02*
X39434287Y-22322842D01*
X39434287Y-22322842D02*
X39477144Y-22237128D01*
X39477144Y-22237128D02*
X39477144Y-21979985D01*
X39477144Y-21979985D02*
X39434287Y-21894271D01*
X39434287Y-21894271D02*
X39391430Y-21851414D01*
X39391430Y-21851414D02*
X39305715Y-21808557D01*
X39305715Y-21808557D02*
X39134287Y-21808557D01*
X39134287Y-21808557D02*
X39048573Y-21851414D01*
X38534286Y-22408557D02*
X38620001Y-22365700D01*
X38620001Y-22365700D02*
X38662858Y-22322842D01*
X38662858Y-22322842D02*
X38705715Y-22237128D01*
X38705715Y-22237128D02*
X38705715Y-21979985D01*
X38705715Y-21979985D02*
X38662858Y-21894271D01*
X38662858Y-21894271D02*
X38620001Y-21851414D01*
X38620001Y-21851414D02*
X38534286Y-21808557D01*
X38534286Y-21808557D02*
X38405715Y-21808557D01*
X38405715Y-21808557D02*
X38320001Y-21851414D01*
X38320001Y-21851414D02*
X38277144Y-21894271D01*
X38277144Y-21894271D02*
X38234286Y-21979985D01*
X38234286Y-21979985D02*
X38234286Y-22237128D01*
X38234286Y-22237128D02*
X38277144Y-22322842D01*
X38277144Y-22322842D02*
X38320001Y-22365700D01*
X38320001Y-22365700D02*
X38405715Y-22408557D01*
X38405715Y-22408557D02*
X38534286Y-22408557D01*
X37848572Y-22408557D02*
X37848572Y-21808557D01*
X37848572Y-21894271D02*
X37805715Y-21851414D01*
X37805715Y-21851414D02*
X37720000Y-21808557D01*
X37720000Y-21808557D02*
X37591429Y-21808557D01*
X37591429Y-21808557D02*
X37505715Y-21851414D01*
X37505715Y-21851414D02*
X37462858Y-21937128D01*
X37462858Y-21937128D02*
X37462858Y-22408557D01*
X37462858Y-21937128D02*
X37420000Y-21851414D01*
X37420000Y-21851414D02*
X37334286Y-21808557D01*
X37334286Y-21808557D02*
X37205715Y-21808557D01*
X37205715Y-21808557D02*
X37120000Y-21851414D01*
X37120000Y-21851414D02*
X37077143Y-21937128D01*
X37077143Y-21937128D02*
X37077143Y-22408557D01*
X36005715Y-21465700D02*
X36777143Y-22622842D01*
X35577143Y-22408557D02*
X35662858Y-22365700D01*
X35662858Y-22365700D02*
X35705715Y-22279985D01*
X35705715Y-22279985D02*
X35705715Y-21508557D01*
X35234286Y-22408557D02*
X35234286Y-21808557D01*
X35234286Y-21979985D02*
X35191429Y-21894271D01*
X35191429Y-21894271D02*
X35148572Y-21851414D01*
X35148572Y-21851414D02*
X35062857Y-21808557D01*
X35062857Y-21808557D02*
X34977143Y-21808557D01*
X34677143Y-22408557D02*
X34677143Y-21808557D01*
X34677143Y-21979985D02*
X34634286Y-21894271D01*
X34634286Y-21894271D02*
X34591429Y-21851414D01*
X34591429Y-21851414D02*
X34505714Y-21808557D01*
X34505714Y-21808557D02*
X34420000Y-21808557D01*
X33991428Y-22408557D02*
X34077143Y-22365700D01*
X34077143Y-22365700D02*
X34120000Y-22322842D01*
X34120000Y-22322842D02*
X34162857Y-22237128D01*
X34162857Y-22237128D02*
X34162857Y-21979985D01*
X34162857Y-21979985D02*
X34120000Y-21894271D01*
X34120000Y-21894271D02*
X34077143Y-21851414D01*
X34077143Y-21851414D02*
X33991428Y-21808557D01*
X33991428Y-21808557D02*
X33862857Y-21808557D01*
X33862857Y-21808557D02*
X33777143Y-21851414D01*
X33777143Y-21851414D02*
X33734286Y-21894271D01*
X33734286Y-21894271D02*
X33691428Y-21979985D01*
X33691428Y-21979985D02*
X33691428Y-22237128D01*
X33691428Y-22237128D02*
X33734286Y-22322842D01*
X33734286Y-22322842D02*
X33777143Y-22365700D01*
X33777143Y-22365700D02*
X33862857Y-22408557D01*
X33862857Y-22408557D02*
X33991428Y-22408557D01*
X33348571Y-22365700D02*
X33262857Y-22408557D01*
X33262857Y-22408557D02*
X33091428Y-22408557D01*
X33091428Y-22408557D02*
X33005714Y-22365700D01*
X33005714Y-22365700D02*
X32962857Y-22279985D01*
X32962857Y-22279985D02*
X32962857Y-22237128D01*
X32962857Y-22237128D02*
X33005714Y-22151414D01*
X33005714Y-22151414D02*
X33091428Y-22108557D01*
X33091428Y-22108557D02*
X33220000Y-22108557D01*
X33220000Y-22108557D02*
X33305714Y-22065700D01*
X33305714Y-22065700D02*
X33348571Y-21979985D01*
X33348571Y-21979985D02*
X33348571Y-21937128D01*
X33348571Y-21937128D02*
X33305714Y-21851414D01*
X33305714Y-21851414D02*
X33220000Y-21808557D01*
X33220000Y-21808557D02*
X33091428Y-21808557D01*
X33091428Y-21808557D02*
X33005714Y-21851414D01*
X32191429Y-22408557D02*
X32191429Y-21937128D01*
X32191429Y-21937128D02*
X32234286Y-21851414D01*
X32234286Y-21851414D02*
X32320000Y-21808557D01*
X32320000Y-21808557D02*
X32491429Y-21808557D01*
X32491429Y-21808557D02*
X32577143Y-21851414D01*
X32191429Y-22365700D02*
X32277143Y-22408557D01*
X32277143Y-22408557D02*
X32491429Y-22408557D01*
X32491429Y-22408557D02*
X32577143Y-22365700D01*
X32577143Y-22365700D02*
X32620000Y-22279985D01*
X32620000Y-22279985D02*
X32620000Y-22194271D01*
X32620000Y-22194271D02*
X32577143Y-22108557D01*
X32577143Y-22108557D02*
X32491429Y-22065700D01*
X32491429Y-22065700D02*
X32277143Y-22065700D01*
X32277143Y-22065700D02*
X32191429Y-22022842D01*
X31120000Y-21465700D02*
X31891428Y-22622842D01*
X30948571Y-21808557D02*
X30605714Y-21808557D01*
X30820000Y-21508557D02*
X30820000Y-22279985D01*
X30820000Y-22279985D02*
X30777143Y-22365700D01*
X30777143Y-22365700D02*
X30691428Y-22408557D01*
X30691428Y-22408557D02*
X30605714Y-22408557D01*
X30305714Y-22408557D02*
X30305714Y-21508557D01*
X30220000Y-22065700D02*
X29962857Y-22408557D01*
X29962857Y-21808557D02*
X30305714Y-22151414D01*
X29577143Y-22408557D02*
X29577143Y-21808557D01*
X29577143Y-21894271D02*
X29534286Y-21851414D01*
X29534286Y-21851414D02*
X29448571Y-21808557D01*
X29448571Y-21808557D02*
X29320000Y-21808557D01*
X29320000Y-21808557D02*
X29234286Y-21851414D01*
X29234286Y-21851414D02*
X29191429Y-21937128D01*
X29191429Y-21937128D02*
X29191429Y-22408557D01*
X29191429Y-21937128D02*
X29148571Y-21851414D01*
X29148571Y-21851414D02*
X29062857Y-21808557D01*
X29062857Y-21808557D02*
X28934286Y-21808557D01*
X28934286Y-21808557D02*
X28848571Y-21851414D01*
X28848571Y-21851414D02*
X28805714Y-21937128D01*
X28805714Y-21937128D02*
X28805714Y-22408557D01*
X28034286Y-22365700D02*
X28120000Y-22408557D01*
X28120000Y-22408557D02*
X28291429Y-22408557D01*
X28291429Y-22408557D02*
X28377143Y-22365700D01*
X28377143Y-22365700D02*
X28420000Y-22279985D01*
X28420000Y-22279985D02*
X28420000Y-21937128D01*
X28420000Y-21937128D02*
X28377143Y-21851414D01*
X28377143Y-21851414D02*
X28291429Y-21808557D01*
X28291429Y-21808557D02*
X28120000Y-21808557D01*
X28120000Y-21808557D02*
X28034286Y-21851414D01*
X28034286Y-21851414D02*
X27991429Y-21937128D01*
X27991429Y-21937128D02*
X27991429Y-22022842D01*
X27991429Y-22022842D02*
X28420000Y-22108557D01*
X27605714Y-22408557D02*
X27605714Y-21808557D01*
X27605714Y-21894271D02*
X27562857Y-21851414D01*
X27562857Y-21851414D02*
X27477142Y-21808557D01*
X27477142Y-21808557D02*
X27348571Y-21808557D01*
X27348571Y-21808557D02*
X27262857Y-21851414D01*
X27262857Y-21851414D02*
X27220000Y-21937128D01*
X27220000Y-21937128D02*
X27220000Y-22408557D01*
X27220000Y-21937128D02*
X27177142Y-21851414D01*
X27177142Y-21851414D02*
X27091428Y-21808557D01*
X27091428Y-21808557D02*
X26962857Y-21808557D01*
X26962857Y-21808557D02*
X26877142Y-21851414D01*
X26877142Y-21851414D02*
X26834285Y-21937128D01*
X26834285Y-21937128D02*
X26834285Y-22408557D01*
X25934285Y-22408557D02*
X26448571Y-22408557D01*
X26191428Y-22408557D02*
X26191428Y-21508557D01*
X26191428Y-21508557D02*
X26277142Y-21637128D01*
X26277142Y-21637128D02*
X26362857Y-21722842D01*
X26362857Y-21722842D02*
X26448571Y-21765700D01*
X25591428Y-21594271D02*
X25548571Y-21551414D01*
X25548571Y-21551414D02*
X25462857Y-21508557D01*
X25462857Y-21508557D02*
X25248571Y-21508557D01*
X25248571Y-21508557D02*
X25162857Y-21551414D01*
X25162857Y-21551414D02*
X25119999Y-21594271D01*
X25119999Y-21594271D02*
X25077142Y-21679985D01*
X25077142Y-21679985D02*
X25077142Y-21765700D01*
X25077142Y-21765700D02*
X25119999Y-21894271D01*
X25119999Y-21894271D02*
X25634285Y-22408557D01*
X25634285Y-22408557D02*
X25077142Y-22408557D01*
X24562856Y-21894271D02*
X24648571Y-21851414D01*
X24648571Y-21851414D02*
X24691428Y-21808557D01*
X24691428Y-21808557D02*
X24734285Y-21722842D01*
X24734285Y-21722842D02*
X24734285Y-21679985D01*
X24734285Y-21679985D02*
X24691428Y-21594271D01*
X24691428Y-21594271D02*
X24648571Y-21551414D01*
X24648571Y-21551414D02*
X24562856Y-21508557D01*
X24562856Y-21508557D02*
X24391428Y-21508557D01*
X24391428Y-21508557D02*
X24305714Y-21551414D01*
X24305714Y-21551414D02*
X24262856Y-21594271D01*
X24262856Y-21594271D02*
X24219999Y-21679985D01*
X24219999Y-21679985D02*
X24219999Y-21722842D01*
X24219999Y-21722842D02*
X24262856Y-21808557D01*
X24262856Y-21808557D02*
X24305714Y-21851414D01*
X24305714Y-21851414D02*
X24391428Y-21894271D01*
X24391428Y-21894271D02*
X24562856Y-21894271D01*
X24562856Y-21894271D02*
X24648571Y-21937128D01*
X24648571Y-21937128D02*
X24691428Y-21979985D01*
X24691428Y-21979985D02*
X24734285Y-22065700D01*
X24734285Y-22065700D02*
X24734285Y-22237128D01*
X24734285Y-22237128D02*
X24691428Y-22322842D01*
X24691428Y-22322842D02*
X24648571Y-22365700D01*
X24648571Y-22365700D02*
X24562856Y-22408557D01*
X24562856Y-22408557D02*
X24391428Y-22408557D01*
X24391428Y-22408557D02*
X24305714Y-22365700D01*
X24305714Y-22365700D02*
X24262856Y-22322842D01*
X24262856Y-22322842D02*
X24219999Y-22237128D01*
X24219999Y-22237128D02*
X24219999Y-22065700D01*
X24219999Y-22065700D02*
X24262856Y-21979985D01*
X24262856Y-21979985D02*
X24305714Y-21937128D01*
X24305714Y-21937128D02*
X24391428Y-21894271D01*
X23834285Y-22065700D02*
X23148571Y-22065700D01*
X22719999Y-22408557D02*
X22719999Y-21508557D01*
X22634285Y-22065700D02*
X22377142Y-22408557D01*
X22377142Y-21808557D02*
X22719999Y-22151414D01*
X21991428Y-22408557D02*
X21991428Y-21808557D01*
X21991428Y-21508557D02*
X22034285Y-21551414D01*
X22034285Y-21551414D02*
X21991428Y-21594271D01*
X21991428Y-21594271D02*
X21948571Y-21551414D01*
X21948571Y-21551414D02*
X21991428Y-21508557D01*
X21991428Y-21508557D02*
X21991428Y-21594271D01*
X21177143Y-22365700D02*
X21262857Y-22408557D01*
X21262857Y-22408557D02*
X21434285Y-22408557D01*
X21434285Y-22408557D02*
X21520000Y-22365700D01*
X21520000Y-22365700D02*
X21562857Y-22322842D01*
X21562857Y-22322842D02*
X21605714Y-22237128D01*
X21605714Y-22237128D02*
X21605714Y-21979985D01*
X21605714Y-21979985D02*
X21562857Y-21894271D01*
X21562857Y-21894271D02*
X21520000Y-21851414D01*
X21520000Y-21851414D02*
X21434285Y-21808557D01*
X21434285Y-21808557D02*
X21262857Y-21808557D01*
X21262857Y-21808557D02*
X21177143Y-21851414D01*
X20405714Y-22408557D02*
X20405714Y-21937128D01*
X20405714Y-21937128D02*
X20448571Y-21851414D01*
X20448571Y-21851414D02*
X20534285Y-21808557D01*
X20534285Y-21808557D02*
X20705714Y-21808557D01*
X20705714Y-21808557D02*
X20791428Y-21851414D01*
X20405714Y-22365700D02*
X20491428Y-22408557D01*
X20491428Y-22408557D02*
X20705714Y-22408557D01*
X20705714Y-22408557D02*
X20791428Y-22365700D01*
X20791428Y-22365700D02*
X20834285Y-22279985D01*
X20834285Y-22279985D02*
X20834285Y-22194271D01*
X20834285Y-22194271D02*
X20791428Y-22108557D01*
X20791428Y-22108557D02*
X20705714Y-22065700D01*
X20705714Y-22065700D02*
X20491428Y-22065700D01*
X20491428Y-22065700D02*
X20405714Y-22022842D01*
X19591428Y-22408557D02*
X19591428Y-21508557D01*
X19591428Y-22365700D02*
X19677142Y-22408557D01*
X19677142Y-22408557D02*
X19848570Y-22408557D01*
X19848570Y-22408557D02*
X19934285Y-22365700D01*
X19934285Y-22365700D02*
X19977142Y-22322842D01*
X19977142Y-22322842D02*
X20019999Y-22237128D01*
X20019999Y-22237128D02*
X20019999Y-21979985D01*
X20019999Y-21979985D02*
X19977142Y-21894271D01*
X19977142Y-21894271D02*
X19934285Y-21851414D01*
X19934285Y-21851414D02*
X19848570Y-21808557D01*
X19848570Y-21808557D02*
X19677142Y-21808557D01*
X19677142Y-21808557D02*
X19591428Y-21851414D01*
X57434288Y-25408557D02*
X57434288Y-24508557D01*
X57434288Y-24508557D02*
X57220002Y-24508557D01*
X57220002Y-24508557D02*
X57091431Y-24551414D01*
X57091431Y-24551414D02*
X57005716Y-24637128D01*
X57005716Y-24637128D02*
X56962859Y-24722842D01*
X56962859Y-24722842D02*
X56920002Y-24894271D01*
X56920002Y-24894271D02*
X56920002Y-25022842D01*
X56920002Y-25022842D02*
X56962859Y-25194271D01*
X56962859Y-25194271D02*
X57005716Y-25279985D01*
X57005716Y-25279985D02*
X57091431Y-25365700D01*
X57091431Y-25365700D02*
X57220002Y-25408557D01*
X57220002Y-25408557D02*
X57434288Y-25408557D01*
X56191431Y-25365700D02*
X56277145Y-25408557D01*
X56277145Y-25408557D02*
X56448574Y-25408557D01*
X56448574Y-25408557D02*
X56534288Y-25365700D01*
X56534288Y-25365700D02*
X56577145Y-25279985D01*
X56577145Y-25279985D02*
X56577145Y-24937128D01*
X56577145Y-24937128D02*
X56534288Y-24851414D01*
X56534288Y-24851414D02*
X56448574Y-24808557D01*
X56448574Y-24808557D02*
X56277145Y-24808557D01*
X56277145Y-24808557D02*
X56191431Y-24851414D01*
X56191431Y-24851414D02*
X56148574Y-24937128D01*
X56148574Y-24937128D02*
X56148574Y-25022842D01*
X56148574Y-25022842D02*
X56577145Y-25108557D01*
X55762859Y-25408557D02*
X55762859Y-24808557D01*
X55762859Y-24979985D02*
X55720002Y-24894271D01*
X55720002Y-24894271D02*
X55677145Y-24851414D01*
X55677145Y-24851414D02*
X55591430Y-24808557D01*
X55591430Y-24808557D02*
X55505716Y-24808557D01*
X55205716Y-25408557D02*
X55205716Y-24808557D01*
X55205716Y-24508557D02*
X55248573Y-24551414D01*
X55248573Y-24551414D02*
X55205716Y-24594271D01*
X55205716Y-24594271D02*
X55162859Y-24551414D01*
X55162859Y-24551414D02*
X55205716Y-24508557D01*
X55205716Y-24508557D02*
X55205716Y-24594271D01*
X54862859Y-24808557D02*
X54648573Y-25408557D01*
X54648573Y-25408557D02*
X54434288Y-24808557D01*
X53705717Y-25408557D02*
X53705717Y-24937128D01*
X53705717Y-24937128D02*
X53748574Y-24851414D01*
X53748574Y-24851414D02*
X53834288Y-24808557D01*
X53834288Y-24808557D02*
X54005717Y-24808557D01*
X54005717Y-24808557D02*
X54091431Y-24851414D01*
X53705717Y-25365700D02*
X53791431Y-25408557D01*
X53791431Y-25408557D02*
X54005717Y-25408557D01*
X54005717Y-25408557D02*
X54091431Y-25365700D01*
X54091431Y-25365700D02*
X54134288Y-25279985D01*
X54134288Y-25279985D02*
X54134288Y-25194271D01*
X54134288Y-25194271D02*
X54091431Y-25108557D01*
X54091431Y-25108557D02*
X54005717Y-25065700D01*
X54005717Y-25065700D02*
X53791431Y-25065700D01*
X53791431Y-25065700D02*
X53705717Y-25022842D01*
X52891431Y-25408557D02*
X52891431Y-24508557D01*
X52891431Y-25365700D02*
X52977145Y-25408557D01*
X52977145Y-25408557D02*
X53148573Y-25408557D01*
X53148573Y-25408557D02*
X53234288Y-25365700D01*
X53234288Y-25365700D02*
X53277145Y-25322842D01*
X53277145Y-25322842D02*
X53320002Y-25237128D01*
X53320002Y-25237128D02*
X53320002Y-24979985D01*
X53320002Y-24979985D02*
X53277145Y-24894271D01*
X53277145Y-24894271D02*
X53234288Y-24851414D01*
X53234288Y-24851414D02*
X53148573Y-24808557D01*
X53148573Y-24808557D02*
X52977145Y-24808557D01*
X52977145Y-24808557D02*
X52891431Y-24851414D01*
X52334287Y-25408557D02*
X52420002Y-25365700D01*
X52420002Y-25365700D02*
X52462859Y-25322842D01*
X52462859Y-25322842D02*
X52505716Y-25237128D01*
X52505716Y-25237128D02*
X52505716Y-24979985D01*
X52505716Y-24979985D02*
X52462859Y-24894271D01*
X52462859Y-24894271D02*
X52420002Y-24851414D01*
X52420002Y-24851414D02*
X52334287Y-24808557D01*
X52334287Y-24808557D02*
X52205716Y-24808557D01*
X52205716Y-24808557D02*
X52120002Y-24851414D01*
X52120002Y-24851414D02*
X52077145Y-24894271D01*
X52077145Y-24894271D02*
X52034287Y-24979985D01*
X52034287Y-24979985D02*
X52034287Y-25237128D01*
X52034287Y-25237128D02*
X52077145Y-25322842D01*
X52077145Y-25322842D02*
X52120002Y-25365700D01*
X52120002Y-25365700D02*
X52205716Y-25408557D01*
X52205716Y-25408557D02*
X52334287Y-25408557D01*
X50577145Y-25408557D02*
X50577145Y-24508557D01*
X50577145Y-25365700D02*
X50662859Y-25408557D01*
X50662859Y-25408557D02*
X50834287Y-25408557D01*
X50834287Y-25408557D02*
X50920002Y-25365700D01*
X50920002Y-25365700D02*
X50962859Y-25322842D01*
X50962859Y-25322842D02*
X51005716Y-25237128D01*
X51005716Y-25237128D02*
X51005716Y-24979985D01*
X51005716Y-24979985D02*
X50962859Y-24894271D01*
X50962859Y-24894271D02*
X50920002Y-24851414D01*
X50920002Y-24851414D02*
X50834287Y-24808557D01*
X50834287Y-24808557D02*
X50662859Y-24808557D01*
X50662859Y-24808557D02*
X50577145Y-24851414D01*
X49805716Y-25365700D02*
X49891430Y-25408557D01*
X49891430Y-25408557D02*
X50062859Y-25408557D01*
X50062859Y-25408557D02*
X50148573Y-25365700D01*
X50148573Y-25365700D02*
X50191430Y-25279985D01*
X50191430Y-25279985D02*
X50191430Y-24937128D01*
X50191430Y-24937128D02*
X50148573Y-24851414D01*
X50148573Y-24851414D02*
X50062859Y-24808557D01*
X50062859Y-24808557D02*
X49891430Y-24808557D01*
X49891430Y-24808557D02*
X49805716Y-24851414D01*
X49805716Y-24851414D02*
X49762859Y-24937128D01*
X49762859Y-24937128D02*
X49762859Y-25022842D01*
X49762859Y-25022842D02*
X50191430Y-25108557D01*
X48820001Y-24508557D02*
X48520001Y-25408557D01*
X48520001Y-25408557D02*
X48220001Y-24508557D01*
X47577144Y-25365700D02*
X47662858Y-25408557D01*
X47662858Y-25408557D02*
X47834287Y-25408557D01*
X47834287Y-25408557D02*
X47920001Y-25365700D01*
X47920001Y-25365700D02*
X47962858Y-25279985D01*
X47962858Y-25279985D02*
X47962858Y-24937128D01*
X47962858Y-24937128D02*
X47920001Y-24851414D01*
X47920001Y-24851414D02*
X47834287Y-24808557D01*
X47834287Y-24808557D02*
X47662858Y-24808557D01*
X47662858Y-24808557D02*
X47577144Y-24851414D01*
X47577144Y-24851414D02*
X47534287Y-24937128D01*
X47534287Y-24937128D02*
X47534287Y-25022842D01*
X47534287Y-25022842D02*
X47962858Y-25108557D01*
X47020000Y-25408557D02*
X47105715Y-25365700D01*
X47105715Y-25365700D02*
X47148572Y-25279985D01*
X47148572Y-25279985D02*
X47148572Y-24508557D01*
X46334286Y-25365700D02*
X46420000Y-25408557D01*
X46420000Y-25408557D02*
X46591429Y-25408557D01*
X46591429Y-25408557D02*
X46677143Y-25365700D01*
X46677143Y-25365700D02*
X46720000Y-25279985D01*
X46720000Y-25279985D02*
X46720000Y-24937128D01*
X46720000Y-24937128D02*
X46677143Y-24851414D01*
X46677143Y-24851414D02*
X46591429Y-24808557D01*
X46591429Y-24808557D02*
X46420000Y-24808557D01*
X46420000Y-24808557D02*
X46334286Y-24851414D01*
X46334286Y-24851414D02*
X46291429Y-24937128D01*
X46291429Y-24937128D02*
X46291429Y-25022842D01*
X46291429Y-25022842D02*
X46720000Y-25108557D01*
X45948571Y-25365700D02*
X45862857Y-25408557D01*
X45862857Y-25408557D02*
X45691428Y-25408557D01*
X45691428Y-25408557D02*
X45605714Y-25365700D01*
X45605714Y-25365700D02*
X45562857Y-25279985D01*
X45562857Y-25279985D02*
X45562857Y-25237128D01*
X45562857Y-25237128D02*
X45605714Y-25151414D01*
X45605714Y-25151414D02*
X45691428Y-25108557D01*
X45691428Y-25108557D02*
X45820000Y-25108557D01*
X45820000Y-25108557D02*
X45905714Y-25065700D01*
X45905714Y-25065700D02*
X45948571Y-24979985D01*
X45948571Y-24979985D02*
X45948571Y-24937128D01*
X45948571Y-24937128D02*
X45905714Y-24851414D01*
X45905714Y-24851414D02*
X45820000Y-24808557D01*
X45820000Y-24808557D02*
X45691428Y-24808557D01*
X45691428Y-24808557D02*
X45605714Y-24851414D01*
X45048571Y-25408557D02*
X45134286Y-25365700D01*
X45134286Y-25365700D02*
X45177143Y-25322842D01*
X45177143Y-25322842D02*
X45220000Y-25237128D01*
X45220000Y-25237128D02*
X45220000Y-24979985D01*
X45220000Y-24979985D02*
X45177143Y-24894271D01*
X45177143Y-24894271D02*
X45134286Y-24851414D01*
X45134286Y-24851414D02*
X45048571Y-24808557D01*
X45048571Y-24808557D02*
X44920000Y-24808557D01*
X44920000Y-24808557D02*
X44834286Y-24851414D01*
X44834286Y-24851414D02*
X44791429Y-24894271D01*
X44791429Y-24894271D02*
X44748571Y-24979985D01*
X44748571Y-24979985D02*
X44748571Y-25237128D01*
X44748571Y-25237128D02*
X44791429Y-25322842D01*
X44791429Y-25322842D02*
X44834286Y-25365700D01*
X44834286Y-25365700D02*
X44920000Y-25408557D01*
X44920000Y-25408557D02*
X45048571Y-25408557D01*
X44491428Y-24808557D02*
X44148571Y-24808557D01*
X44362857Y-25408557D02*
X44362857Y-24637128D01*
X44362857Y-24637128D02*
X44320000Y-24551414D01*
X44320000Y-24551414D02*
X44234285Y-24508557D01*
X44234285Y-24508557D02*
X44148571Y-24508557D01*
X43977142Y-24808557D02*
X43634285Y-24808557D01*
X43848571Y-24508557D02*
X43848571Y-25279985D01*
X43848571Y-25279985D02*
X43805714Y-25365700D01*
X43805714Y-25365700D02*
X43719999Y-25408557D01*
X43719999Y-25408557D02*
X43634285Y-25408557D01*
X42691428Y-24594271D02*
X42648571Y-24551414D01*
X42648571Y-24551414D02*
X42562857Y-24508557D01*
X42562857Y-24508557D02*
X42348571Y-24508557D01*
X42348571Y-24508557D02*
X42262857Y-24551414D01*
X42262857Y-24551414D02*
X42219999Y-24594271D01*
X42219999Y-24594271D02*
X42177142Y-24679985D01*
X42177142Y-24679985D02*
X42177142Y-24765700D01*
X42177142Y-24765700D02*
X42219999Y-24894271D01*
X42219999Y-24894271D02*
X42734285Y-25408557D01*
X42734285Y-25408557D02*
X42177142Y-25408557D01*
X41619999Y-24508557D02*
X41534285Y-24508557D01*
X41534285Y-24508557D02*
X41448571Y-24551414D01*
X41448571Y-24551414D02*
X41405714Y-24594271D01*
X41405714Y-24594271D02*
X41362856Y-24679985D01*
X41362856Y-24679985D02*
X41319999Y-24851414D01*
X41319999Y-24851414D02*
X41319999Y-25065700D01*
X41319999Y-25065700D02*
X41362856Y-25237128D01*
X41362856Y-25237128D02*
X41405714Y-25322842D01*
X41405714Y-25322842D02*
X41448571Y-25365700D01*
X41448571Y-25365700D02*
X41534285Y-25408557D01*
X41534285Y-25408557D02*
X41619999Y-25408557D01*
X41619999Y-25408557D02*
X41705714Y-25365700D01*
X41705714Y-25365700D02*
X41748571Y-25322842D01*
X41748571Y-25322842D02*
X41791428Y-25237128D01*
X41791428Y-25237128D02*
X41834285Y-25065700D01*
X41834285Y-25065700D02*
X41834285Y-24851414D01*
X41834285Y-24851414D02*
X41791428Y-24679985D01*
X41791428Y-24679985D02*
X41748571Y-24594271D01*
X41748571Y-24594271D02*
X41705714Y-24551414D01*
X41705714Y-24551414D02*
X41619999Y-24508557D01*
X40762856Y-24508557D02*
X40677142Y-24508557D01*
X40677142Y-24508557D02*
X40591428Y-24551414D01*
X40591428Y-24551414D02*
X40548571Y-24594271D01*
X40548571Y-24594271D02*
X40505713Y-24679985D01*
X40505713Y-24679985D02*
X40462856Y-24851414D01*
X40462856Y-24851414D02*
X40462856Y-25065700D01*
X40462856Y-25065700D02*
X40505713Y-25237128D01*
X40505713Y-25237128D02*
X40548571Y-25322842D01*
X40548571Y-25322842D02*
X40591428Y-25365700D01*
X40591428Y-25365700D02*
X40677142Y-25408557D01*
X40677142Y-25408557D02*
X40762856Y-25408557D01*
X40762856Y-25408557D02*
X40848571Y-25365700D01*
X40848571Y-25365700D02*
X40891428Y-25322842D01*
X40891428Y-25322842D02*
X40934285Y-25237128D01*
X40934285Y-25237128D02*
X40977142Y-25065700D01*
X40977142Y-25065700D02*
X40977142Y-24851414D01*
X40977142Y-24851414D02*
X40934285Y-24679985D01*
X40934285Y-24679985D02*
X40891428Y-24594271D01*
X40891428Y-24594271D02*
X40848571Y-24551414D01*
X40848571Y-24551414D02*
X40762856Y-24508557D01*
X40034285Y-25408557D02*
X39862856Y-25408557D01*
X39862856Y-25408557D02*
X39777142Y-25365700D01*
X39777142Y-25365700D02*
X39734285Y-25322842D01*
X39734285Y-25322842D02*
X39648570Y-25194271D01*
X39648570Y-25194271D02*
X39605713Y-25022842D01*
X39605713Y-25022842D02*
X39605713Y-24679985D01*
X39605713Y-24679985D02*
X39648570Y-24594271D01*
X39648570Y-24594271D02*
X39691428Y-24551414D01*
X39691428Y-24551414D02*
X39777142Y-24508557D01*
X39777142Y-24508557D02*
X39948570Y-24508557D01*
X39948570Y-24508557D02*
X40034285Y-24551414D01*
X40034285Y-24551414D02*
X40077142Y-24594271D01*
X40077142Y-24594271D02*
X40119999Y-24679985D01*
X40119999Y-24679985D02*
X40119999Y-24894271D01*
X40119999Y-24894271D02*
X40077142Y-24979985D01*
X40077142Y-24979985D02*
X40034285Y-25022842D01*
X40034285Y-25022842D02*
X39948570Y-25065700D01*
X39948570Y-25065700D02*
X39777142Y-25065700D01*
X39777142Y-25065700D02*
X39691428Y-25022842D01*
X39691428Y-25022842D02*
X39648570Y-24979985D01*
X39648570Y-24979985D02*
X39605713Y-24894271D01*
X38191428Y-25365700D02*
X38277142Y-25408557D01*
X38277142Y-25408557D02*
X38448571Y-25408557D01*
X38448571Y-25408557D02*
X38534285Y-25365700D01*
X38534285Y-25365700D02*
X38577142Y-25279985D01*
X38577142Y-25279985D02*
X38577142Y-24937128D01*
X38577142Y-24937128D02*
X38534285Y-24851414D01*
X38534285Y-24851414D02*
X38448571Y-24808557D01*
X38448571Y-24808557D02*
X38277142Y-24808557D01*
X38277142Y-24808557D02*
X38191428Y-24851414D01*
X38191428Y-24851414D02*
X38148571Y-24937128D01*
X38148571Y-24937128D02*
X38148571Y-25022842D01*
X38148571Y-25022842D02*
X38577142Y-25108557D01*
X36648570Y-25408557D02*
X37077142Y-25408557D01*
X37077142Y-25408557D02*
X37077142Y-24508557D01*
X35962857Y-24808557D02*
X35962857Y-25408557D01*
X36348571Y-24808557D02*
X36348571Y-25279985D01*
X36348571Y-25279985D02*
X36305714Y-25365700D01*
X36305714Y-25365700D02*
X36219999Y-25408557D01*
X36219999Y-25408557D02*
X36091428Y-25408557D01*
X36091428Y-25408557D02*
X36005714Y-25365700D01*
X36005714Y-25365700D02*
X35962857Y-25322842D01*
X35148571Y-25365700D02*
X35234285Y-25408557D01*
X35234285Y-25408557D02*
X35405713Y-25408557D01*
X35405713Y-25408557D02*
X35491428Y-25365700D01*
X35491428Y-25365700D02*
X35534285Y-25322842D01*
X35534285Y-25322842D02*
X35577142Y-25237128D01*
X35577142Y-25237128D02*
X35577142Y-24979985D01*
X35577142Y-24979985D02*
X35534285Y-24894271D01*
X35534285Y-24894271D02*
X35491428Y-24851414D01*
X35491428Y-24851414D02*
X35405713Y-24808557D01*
X35405713Y-24808557D02*
X35234285Y-24808557D01*
X35234285Y-24808557D02*
X35148571Y-24851414D01*
X34377142Y-25365700D02*
X34462856Y-25408557D01*
X34462856Y-25408557D02*
X34634284Y-25408557D01*
X34634284Y-25408557D02*
X34719999Y-25365700D01*
X34719999Y-25365700D02*
X34762856Y-25322842D01*
X34762856Y-25322842D02*
X34805713Y-25237128D01*
X34805713Y-25237128D02*
X34805713Y-24979985D01*
X34805713Y-24979985D02*
X34762856Y-24894271D01*
X34762856Y-24894271D02*
X34719999Y-24851414D01*
X34719999Y-24851414D02*
X34634284Y-24808557D01*
X34634284Y-24808557D02*
X34462856Y-24808557D01*
X34462856Y-24808557D02*
X34377142Y-24851414D01*
X33605713Y-25408557D02*
X33605713Y-24937128D01*
X33605713Y-24937128D02*
X33648570Y-24851414D01*
X33648570Y-24851414D02*
X33734284Y-24808557D01*
X33734284Y-24808557D02*
X33905713Y-24808557D01*
X33905713Y-24808557D02*
X33991427Y-24851414D01*
X33605713Y-25365700D02*
X33691427Y-25408557D01*
X33691427Y-25408557D02*
X33905713Y-25408557D01*
X33905713Y-25408557D02*
X33991427Y-25365700D01*
X33991427Y-25365700D02*
X34034284Y-25279985D01*
X34034284Y-25279985D02*
X34034284Y-25194271D01*
X34034284Y-25194271D02*
X33991427Y-25108557D01*
X33991427Y-25108557D02*
X33905713Y-25065700D01*
X33905713Y-25065700D02*
X33691427Y-25065700D01*
X33691427Y-25065700D02*
X33605713Y-25022842D01*
X33219998Y-25365700D02*
X33134284Y-25408557D01*
X33134284Y-25408557D02*
X32962855Y-25408557D01*
X32962855Y-25408557D02*
X32877141Y-25365700D01*
X32877141Y-25365700D02*
X32834284Y-25279985D01*
X32834284Y-25279985D02*
X32834284Y-25237128D01*
X32834284Y-25237128D02*
X32877141Y-25151414D01*
X32877141Y-25151414D02*
X32962855Y-25108557D01*
X32962855Y-25108557D02*
X33091427Y-25108557D01*
X33091427Y-25108557D02*
X33177141Y-25065700D01*
X33177141Y-25065700D02*
X33219998Y-24979985D01*
X33219998Y-24979985D02*
X33219998Y-24937128D01*
X33219998Y-24937128D02*
X33177141Y-24851414D01*
X33177141Y-24851414D02*
X33091427Y-24808557D01*
X33091427Y-24808557D02*
X32962855Y-24808557D01*
X32962855Y-24808557D02*
X32877141Y-24851414D01*
X31762856Y-24937128D02*
X31462856Y-24937128D01*
X31334284Y-25408557D02*
X31762856Y-25408557D01*
X31762856Y-25408557D02*
X31762856Y-24508557D01*
X31762856Y-24508557D02*
X31334284Y-24508557D01*
X30819998Y-25408557D02*
X30905713Y-25365700D01*
X30905713Y-25365700D02*
X30948570Y-25279985D01*
X30948570Y-25279985D02*
X30948570Y-24508557D01*
X30134284Y-25365700D02*
X30219998Y-25408557D01*
X30219998Y-25408557D02*
X30391427Y-25408557D01*
X30391427Y-25408557D02*
X30477141Y-25365700D01*
X30477141Y-25365700D02*
X30519998Y-25279985D01*
X30519998Y-25279985D02*
X30519998Y-24937128D01*
X30519998Y-24937128D02*
X30477141Y-24851414D01*
X30477141Y-24851414D02*
X30391427Y-24808557D01*
X30391427Y-24808557D02*
X30219998Y-24808557D01*
X30219998Y-24808557D02*
X30134284Y-24851414D01*
X30134284Y-24851414D02*
X30091427Y-24937128D01*
X30091427Y-24937128D02*
X30091427Y-25022842D01*
X30091427Y-25022842D02*
X30519998Y-25108557D01*
X29834283Y-24808557D02*
X29491426Y-24808557D01*
X29705712Y-24508557D02*
X29705712Y-25279985D01*
X29705712Y-25279985D02*
X29662855Y-25365700D01*
X29662855Y-25365700D02*
X29577140Y-25408557D01*
X29577140Y-25408557D02*
X29491426Y-25408557D01*
X29191426Y-25408557D02*
X29191426Y-24808557D01*
X29191426Y-24979985D02*
X29148569Y-24894271D01*
X29148569Y-24894271D02*
X29105712Y-24851414D01*
X29105712Y-24851414D02*
X29019997Y-24808557D01*
X29019997Y-24808557D02*
X28934283Y-24808557D01*
X28505711Y-25408557D02*
X28591426Y-25365700D01*
X28591426Y-25365700D02*
X28634283Y-25322842D01*
X28634283Y-25322842D02*
X28677140Y-25237128D01*
X28677140Y-25237128D02*
X28677140Y-24979985D01*
X28677140Y-24979985D02*
X28634283Y-24894271D01*
X28634283Y-24894271D02*
X28591426Y-24851414D01*
X28591426Y-24851414D02*
X28505711Y-24808557D01*
X28505711Y-24808557D02*
X28377140Y-24808557D01*
X28377140Y-24808557D02*
X28291426Y-24851414D01*
X28291426Y-24851414D02*
X28248569Y-24894271D01*
X28248569Y-24894271D02*
X28205711Y-24979985D01*
X28205711Y-24979985D02*
X28205711Y-25237128D01*
X28205711Y-25237128D02*
X28248569Y-25322842D01*
X28248569Y-25322842D02*
X28291426Y-25365700D01*
X28291426Y-25365700D02*
X28377140Y-25408557D01*
X28377140Y-25408557D02*
X28505711Y-25408557D01*
X27819997Y-24808557D02*
X27819997Y-25408557D01*
X27819997Y-24894271D02*
X27777140Y-24851414D01*
X27777140Y-24851414D02*
X27691425Y-24808557D01*
X27691425Y-24808557D02*
X27562854Y-24808557D01*
X27562854Y-24808557D02*
X27477140Y-24851414D01*
X27477140Y-24851414D02*
X27434283Y-24937128D01*
X27434283Y-24937128D02*
X27434283Y-25408557D01*
X27005711Y-25408557D02*
X27005711Y-24808557D01*
X27005711Y-24508557D02*
X27048568Y-24551414D01*
X27048568Y-24551414D02*
X27005711Y-24594271D01*
X27005711Y-24594271D02*
X26962854Y-24551414D01*
X26962854Y-24551414D02*
X27005711Y-24508557D01*
X27005711Y-24508557D02*
X27005711Y-24594271D01*
X26191426Y-25365700D02*
X26277140Y-25408557D01*
X26277140Y-25408557D02*
X26448568Y-25408557D01*
X26448568Y-25408557D02*
X26534283Y-25365700D01*
X26534283Y-25365700D02*
X26577140Y-25322842D01*
X26577140Y-25322842D02*
X26619997Y-25237128D01*
X26619997Y-25237128D02*
X26619997Y-24979985D01*
X26619997Y-24979985D02*
X26577140Y-24894271D01*
X26577140Y-24894271D02*
X26534283Y-24851414D01*
X26534283Y-24851414D02*
X26448568Y-24808557D01*
X26448568Y-24808557D02*
X26277140Y-24808557D01*
X26277140Y-24808557D02*
X26191426Y-24851414D01*
X25419997Y-25408557D02*
X25419997Y-24937128D01*
X25419997Y-24937128D02*
X25462854Y-24851414D01*
X25462854Y-24851414D02*
X25548568Y-24808557D01*
X25548568Y-24808557D02*
X25719997Y-24808557D01*
X25719997Y-24808557D02*
X25805711Y-24851414D01*
X25419997Y-25365700D02*
X25505711Y-25408557D01*
X25505711Y-25408557D02*
X25719997Y-25408557D01*
X25719997Y-25408557D02*
X25805711Y-25365700D01*
X25805711Y-25365700D02*
X25848568Y-25279985D01*
X25848568Y-25279985D02*
X25848568Y-25194271D01*
X25848568Y-25194271D02*
X25805711Y-25108557D01*
X25805711Y-25108557D02*
X25719997Y-25065700D01*
X25719997Y-25065700D02*
X25505711Y-25065700D01*
X25505711Y-25065700D02*
X25419997Y-25022842D01*
X24348568Y-24594271D02*
X24305711Y-24551414D01*
X24305711Y-24551414D02*
X24219997Y-24508557D01*
X24219997Y-24508557D02*
X24005711Y-24508557D01*
X24005711Y-24508557D02*
X23919997Y-24551414D01*
X23919997Y-24551414D02*
X23877139Y-24594271D01*
X23877139Y-24594271D02*
X23834282Y-24679985D01*
X23834282Y-24679985D02*
X23834282Y-24765700D01*
X23834282Y-24765700D02*
X23877139Y-24894271D01*
X23877139Y-24894271D02*
X24391425Y-25408557D01*
X24391425Y-25408557D02*
X23834282Y-25408557D01*
X23277139Y-24508557D02*
X23191425Y-24508557D01*
X23191425Y-24508557D02*
X23105711Y-24551414D01*
X23105711Y-24551414D02*
X23062854Y-24594271D01*
X23062854Y-24594271D02*
X23019996Y-24679985D01*
X23019996Y-24679985D02*
X22977139Y-24851414D01*
X22977139Y-24851414D02*
X22977139Y-25065700D01*
X22977139Y-25065700D02*
X23019996Y-25237128D01*
X23019996Y-25237128D02*
X23062854Y-25322842D01*
X23062854Y-25322842D02*
X23105711Y-25365700D01*
X23105711Y-25365700D02*
X23191425Y-25408557D01*
X23191425Y-25408557D02*
X23277139Y-25408557D01*
X23277139Y-25408557D02*
X23362854Y-25365700D01*
X23362854Y-25365700D02*
X23405711Y-25322842D01*
X23405711Y-25322842D02*
X23448568Y-25237128D01*
X23448568Y-25237128D02*
X23491425Y-25065700D01*
X23491425Y-25065700D02*
X23491425Y-24851414D01*
X23491425Y-24851414D02*
X23448568Y-24679985D01*
X23448568Y-24679985D02*
X23405711Y-24594271D01*
X23405711Y-24594271D02*
X23362854Y-24551414D01*
X23362854Y-24551414D02*
X23277139Y-24508557D01*
X22119996Y-25408557D02*
X22634282Y-25408557D01*
X22377139Y-25408557D02*
X22377139Y-24508557D01*
X22377139Y-24508557D02*
X22462853Y-24637128D01*
X22462853Y-24637128D02*
X22548568Y-24722842D01*
X22548568Y-24722842D02*
X22634282Y-24765700D01*
X21777139Y-24594271D02*
X21734282Y-24551414D01*
X21734282Y-24551414D02*
X21648568Y-24508557D01*
X21648568Y-24508557D02*
X21434282Y-24508557D01*
X21434282Y-24508557D02*
X21348568Y-24551414D01*
X21348568Y-24551414D02*
X21305710Y-24594271D01*
X21305710Y-24594271D02*
X21262853Y-24679985D01*
X21262853Y-24679985D02*
X21262853Y-24765700D01*
X21262853Y-24765700D02*
X21305710Y-24894271D01*
X21305710Y-24894271D02*
X21819996Y-25408557D01*
X21819996Y-25408557D02*
X21262853Y-25408557D01*
%LPC*%
D11*
%TO.C,C1*%
X6000000Y-20000000D03*
X11000000Y-20000000D03*
%TD*%
D12*
%TO.C,J1*%
X5080000Y-2500000D03*
X7620000Y-2500000D03*
X10160000Y-2500000D03*
X12700000Y-2500000D03*
X17780000Y-2500000D03*
X20320000Y-2500000D03*
X22860000Y-2500000D03*
X25400000Y-2500000D03*
X27940000Y-2500000D03*
X30480000Y-2500000D03*
X33020000Y-2500000D03*
X35560000Y-2500000D03*
X38100000Y-2500000D03*
X40640000Y-2500000D03*
X43180000Y-2500000D03*
X45720000Y-2500000D03*
X48260000Y-2500000D03*
X50800000Y-2500000D03*
X53340000Y-2500000D03*
X55880000Y-2500000D03*
X58420000Y-2500000D03*
X60960000Y-2500000D03*
X63500000Y-2500000D03*
X66040000Y-2500000D03*
X68580000Y-2500000D03*
X71120000Y-2500000D03*
X73660000Y-2500000D03*
%TD*%
D13*
%TO.C,J2*%
X5080000Y-41190000D03*
X7620000Y-41190000D03*
X10160000Y-41190000D03*
X12700000Y-41190000D03*
X17780000Y-41190000D03*
X20320000Y-41190000D03*
X22860000Y-41190000D03*
X25400000Y-41190000D03*
X27940000Y-41190000D03*
X30480000Y-41190000D03*
X33020000Y-41190000D03*
X35560000Y-41190000D03*
X38100000Y-41190000D03*
X40640000Y-41190000D03*
X43180000Y-41190000D03*
X45720000Y-41190000D03*
X48260000Y-41190000D03*
X50800000Y-41190000D03*
X53340000Y-41190000D03*
X55880000Y-41190000D03*
X58420000Y-41190000D03*
X60960000Y-41190000D03*
X63500000Y-41190000D03*
X66040000Y-41190000D03*
X68580000Y-41190000D03*
X71120000Y-41190000D03*
X73660000Y-41190000D03*
%TD*%
%LPD*%
M02*
