%TF.GenerationSoftware,KiCad,Pcbnew,10.0.4*%
%TF.CreationDate,2026-07-27T01:33:33-03:00*%
%TF.ProjectId,tkmem128-expansor,746b6d65-6d31-4323-982d-657870616e73,rev?*%
%TF.SameCoordinates,Original*%
%TF.FileFunction,Soldermask,Top*%
%TF.FilePolarity,Negative*%
%FSLAX46Y46*%
G04 Gerber Fmt 4.6, Leading zero omitted, Abs format (unit mm)*
G04 Created by KiCad (PCBNEW 10.0.4) date 2026-07-27 01:33:33*
%MOMM*%
%LPD*%
G01*
G04 APERTURE LIST*
G04 Aperture macros list*
%AMRoundRect*
0 Rectangle with rounded corners*
0 $1 Rounding radius*
0 $2 $3 $4 $5 $6 $7 $8 $9 X,Y pos of 4 corners*
0 Add a 4 corners polygon primitive as box body*
4,1,4,$2,$3,$4,$5,$6,$7,$8,$9,$2,$3,0*
0 Add four circle primitives for the rounded corners*
1,1,$1+$1,$2,$3*
1,1,$1+$1,$4,$5*
1,1,$1+$1,$6,$7*
1,1,$1+$1,$8,$9*
0 Add four rect primitives between the rounded corners*
20,1,$1+$1,$2,$3,$4,$5,0*
20,1,$1+$1,$4,$5,$6,$7,0*
20,1,$1+$1,$6,$7,$8,$9,0*
20,1,$1+$1,$8,$9,$2,$3,0*%
G04 Aperture macros list end*
%ADD10C,1.600000*%
%ADD11RoundRect,0.320000X-0.480000X-0.780000X0.480000X-0.780000X0.480000X0.780000X-0.480000X0.780000X0*%
%ADD12R,1.524000X7.620000*%
G04 APERTURE END LIST*
D10*
%TO.C,C1*%
X6000000Y-20000000D03*
X11000000Y-20000000D03*
%TD*%
D11*
%TO.C,J1*%
X5080000Y-8925000D03*
X7620000Y-8925000D03*
X10160000Y-8925000D03*
X12700000Y-8925000D03*
X15240000Y-8925000D03*
X17780000Y-8925000D03*
X20320000Y-8925000D03*
X22860000Y-8925000D03*
X25400000Y-8925000D03*
X27940000Y-8925000D03*
X30480000Y-8925000D03*
X33020000Y-8925000D03*
X35560000Y-8925000D03*
X38100000Y-8925000D03*
X40640000Y-8925000D03*
X43180000Y-8925000D03*
X45720000Y-8925000D03*
X48260000Y-8925000D03*
X50800000Y-8925000D03*
X53340000Y-8925000D03*
X55880000Y-8925000D03*
X58420000Y-8925000D03*
X60960000Y-8925000D03*
X63500000Y-8925000D03*
X66040000Y-8925000D03*
X68580000Y-8925000D03*
X71120000Y-8925000D03*
X73660000Y-8925000D03*
X73660000Y-4075000D03*
X71120000Y-4075000D03*
X68580000Y-4075000D03*
X66040000Y-4075000D03*
X63500000Y-4075000D03*
X60960000Y-4075000D03*
X58420000Y-4075000D03*
X55880000Y-4075000D03*
X53340000Y-4075000D03*
X50800000Y-4075000D03*
X48260000Y-4075000D03*
X45720000Y-4075000D03*
X43180000Y-4075000D03*
X40640000Y-4075000D03*
X38100000Y-4075000D03*
X35560000Y-4075000D03*
X33020000Y-4075000D03*
X30480000Y-4075000D03*
X27940000Y-4075000D03*
X25400000Y-4075000D03*
X22860000Y-4075000D03*
X20320000Y-4075000D03*
X17780000Y-4075000D03*
X15240000Y-4075000D03*
X12700000Y-4075000D03*
X10160000Y-4075000D03*
X7620000Y-4075000D03*
X5080000Y-4075000D03*
%TD*%
D12*
%TO.C,J2*%
X73660000Y-41190000D03*
X71120000Y-41190000D03*
X68580000Y-41190000D03*
X66040000Y-41190000D03*
X63500000Y-41190000D03*
X60960000Y-41190000D03*
X58420000Y-41190000D03*
X55880000Y-41190000D03*
X53340000Y-41190000D03*
X50800000Y-41190000D03*
X48260000Y-41190000D03*
X45720000Y-41190000D03*
X43180000Y-41190000D03*
X40640000Y-41190000D03*
X38100000Y-41190000D03*
X35560000Y-41190000D03*
X33020000Y-41190000D03*
X30480000Y-41190000D03*
X27940000Y-41190000D03*
X25400000Y-41190000D03*
X22860000Y-41190000D03*
X20320000Y-41190000D03*
X17780000Y-41190000D03*
X12700000Y-41190000D03*
X10160000Y-41190000D03*
X7620000Y-41190000D03*
X5080000Y-41190000D03*
%TD*%
M02*
