%TF.GenerationSoftware,KiCad,Pcbnew,10.0.4*%
%TF.CreationDate,2026-07-27T01:33:33-03:00*%
%TF.ProjectId,tkmem128-expansor,746b6d65-6d31-4323-982d-657870616e73,rev?*%
%TF.SameCoordinates,Original*%
%TF.FileFunction,Legend,Top*%
%TF.FilePolarity,Positive*%
%FSLAX46Y46*%
G04 Gerber Fmt 4.6, Leading zero omitted, Abs format (unit mm)*
G04 Created by KiCad (PCBNEW 10.0.4) date 2026-07-27 01:33:33*
%MOMM*%
%LPD*%
G01*
G04 APERTURE LIST*
G04 Aperture macros list*
%AMRoundRect*
0 Rectangle with rounded corners*
0 $1 Rounding radius*
0 $2 $3 $4 $5 $6 $7 $8 $9 X,Y pos of 4 corners*
0 Add a 4 corners polygon primitive as box body*
4,1,4,$2,$3,$4,$5,$6,$7,$8,$9,$2,$3,0*
0 Add four circle primitives for the rounded corners*
1,1,$1+$1,$2,$3*
1,1,$1+$1,$4,$5*
1,1,$1+$1,$6,$7*
1,1,$1+$1,$8,$9*
0 Add four rect primitives between the rounded corners*
20,1,$1+$1,$2,$3,$4,$5,0*
20,1,$1+$1,$4,$5,$6,$7,0*
20,1,$1+$1,$6,$7,$8,$9,0*
20,1,$1+$1,$8,$9,$2,$3,0*%
G04 Aperture macros list end*
%ADD10C,0.200000*%
%ADD11C,0.150000*%
%ADD12C,0.120000*%
%ADD13C,1.600000*%
%ADD14RoundRect,0.320000X-0.480000X-0.780000X0.480000X-0.780000X0.480000X0.780000X-0.480000X0.780000X0*%
%ADD15R,1.524000X7.620000*%
G04 APERTURE END LIST*
D10*
X3000000Y-30000000D02*
X75700000Y-30000000D01*
D11*
X12329761Y-28418760D02*
X12329761Y-29268760D01*
X12329761Y-28459236D02*
X12410714Y-28418760D01*
X12410714Y-28418760D02*
X12572619Y-28418760D01*
X12572619Y-28418760D02*
X12653571Y-28459236D01*
X12653571Y-28459236D02*
X12694047Y-28499712D01*
X12694047Y-28499712D02*
X12734523Y-28580665D01*
X12734523Y-28580665D02*
X12734523Y-28823522D01*
X12734523Y-28823522D02*
X12694047Y-28904474D01*
X12694047Y-28904474D02*
X12653571Y-28944951D01*
X12653571Y-28944951D02*
X12572619Y-28985427D01*
X12572619Y-28985427D02*
X12410714Y-28985427D01*
X12410714Y-28985427D02*
X12329761Y-28944951D01*
X13463095Y-28985427D02*
X13463095Y-28540189D01*
X13463095Y-28540189D02*
X13422619Y-28459236D01*
X13422619Y-28459236D02*
X13341667Y-28418760D01*
X13341667Y-28418760D02*
X13179762Y-28418760D01*
X13179762Y-28418760D02*
X13098809Y-28459236D01*
X13463095Y-28944951D02*
X13382143Y-28985427D01*
X13382143Y-28985427D02*
X13179762Y-28985427D01*
X13179762Y-28985427D02*
X13098809Y-28944951D01*
X13098809Y-28944951D02*
X13058333Y-28863998D01*
X13058333Y-28863998D02*
X13058333Y-28783046D01*
X13058333Y-28783046D02*
X13098809Y-28702093D01*
X13098809Y-28702093D02*
X13179762Y-28661617D01*
X13179762Y-28661617D02*
X13382143Y-28661617D01*
X13382143Y-28661617D02*
X13463095Y-28621141D01*
X13867857Y-28985427D02*
X13867857Y-28418760D01*
X13867857Y-28580665D02*
X13908334Y-28499712D01*
X13908334Y-28499712D02*
X13948810Y-28459236D01*
X13948810Y-28459236D02*
X14029762Y-28418760D01*
X14029762Y-28418760D02*
X14110715Y-28418760D01*
X14717857Y-28944951D02*
X14636905Y-28985427D01*
X14636905Y-28985427D02*
X14475000Y-28985427D01*
X14475000Y-28985427D02*
X14394047Y-28944951D01*
X14394047Y-28944951D02*
X14353571Y-28863998D01*
X14353571Y-28863998D02*
X14353571Y-28540189D01*
X14353571Y-28540189D02*
X14394047Y-28459236D01*
X14394047Y-28459236D02*
X14475000Y-28418760D01*
X14475000Y-28418760D02*
X14636905Y-28418760D01*
X14636905Y-28418760D02*
X14717857Y-28459236D01*
X14717857Y-28459236D02*
X14758333Y-28540189D01*
X14758333Y-28540189D02*
X14758333Y-28621141D01*
X14758333Y-28621141D02*
X14353571Y-28702093D01*
X15486904Y-28985427D02*
X15486904Y-28135427D01*
X15486904Y-28944951D02*
X15405952Y-28985427D01*
X15405952Y-28985427D02*
X15244047Y-28985427D01*
X15244047Y-28985427D02*
X15163095Y-28944951D01*
X15163095Y-28944951D02*
X15122618Y-28904474D01*
X15122618Y-28904474D02*
X15082142Y-28823522D01*
X15082142Y-28823522D02*
X15082142Y-28580665D01*
X15082142Y-28580665D02*
X15122618Y-28499712D01*
X15122618Y-28499712D02*
X15163095Y-28459236D01*
X15163095Y-28459236D02*
X15244047Y-28418760D01*
X15244047Y-28418760D02*
X15405952Y-28418760D01*
X15405952Y-28418760D02*
X15486904Y-28459236D01*
X16215476Y-28944951D02*
X16134524Y-28985427D01*
X16134524Y-28985427D02*
X15972619Y-28985427D01*
X15972619Y-28985427D02*
X15891666Y-28944951D01*
X15891666Y-28944951D02*
X15851190Y-28863998D01*
X15851190Y-28863998D02*
X15851190Y-28540189D01*
X15851190Y-28540189D02*
X15891666Y-28459236D01*
X15891666Y-28459236D02*
X15972619Y-28418760D01*
X15972619Y-28418760D02*
X16134524Y-28418760D01*
X16134524Y-28418760D02*
X16215476Y-28459236D01*
X16215476Y-28459236D02*
X16255952Y-28540189D01*
X16255952Y-28540189D02*
X16255952Y-28621141D01*
X16255952Y-28621141D02*
X15851190Y-28702093D01*
X17632142Y-28985427D02*
X17632142Y-28135427D01*
X17632142Y-28944951D02*
X17551190Y-28985427D01*
X17551190Y-28985427D02*
X17389285Y-28985427D01*
X17389285Y-28985427D02*
X17308333Y-28944951D01*
X17308333Y-28944951D02*
X17267856Y-28904474D01*
X17267856Y-28904474D02*
X17227380Y-28823522D01*
X17227380Y-28823522D02*
X17227380Y-28580665D01*
X17227380Y-28580665D02*
X17267856Y-28499712D01*
X17267856Y-28499712D02*
X17308333Y-28459236D01*
X17308333Y-28459236D02*
X17389285Y-28418760D01*
X17389285Y-28418760D02*
X17551190Y-28418760D01*
X17551190Y-28418760D02*
X17632142Y-28459236D01*
X18360714Y-28944951D02*
X18279762Y-28985427D01*
X18279762Y-28985427D02*
X18117857Y-28985427D01*
X18117857Y-28985427D02*
X18036904Y-28944951D01*
X18036904Y-28944951D02*
X17996428Y-28863998D01*
X17996428Y-28863998D02*
X17996428Y-28540189D01*
X17996428Y-28540189D02*
X18036904Y-28459236D01*
X18036904Y-28459236D02*
X18117857Y-28418760D01*
X18117857Y-28418760D02*
X18279762Y-28418760D01*
X18279762Y-28418760D02*
X18360714Y-28459236D01*
X18360714Y-28459236D02*
X18401190Y-28540189D01*
X18401190Y-28540189D02*
X18401190Y-28621141D01*
X18401190Y-28621141D02*
X17996428Y-28702093D01*
X19291666Y-28418760D02*
X19615475Y-28418760D01*
X19413094Y-28135427D02*
X19413094Y-28863998D01*
X19413094Y-28863998D02*
X19453571Y-28944951D01*
X19453571Y-28944951D02*
X19534523Y-28985427D01*
X19534523Y-28985427D02*
X19615475Y-28985427D01*
X19898808Y-28985427D02*
X19898808Y-28418760D01*
X19898808Y-28580665D02*
X19939285Y-28499712D01*
X19939285Y-28499712D02*
X19979761Y-28459236D01*
X19979761Y-28459236D02*
X20060713Y-28418760D01*
X20060713Y-28418760D02*
X20141666Y-28418760D01*
X20789284Y-28985427D02*
X20789284Y-28540189D01*
X20789284Y-28540189D02*
X20748808Y-28459236D01*
X20748808Y-28459236D02*
X20667856Y-28418760D01*
X20667856Y-28418760D02*
X20505951Y-28418760D01*
X20505951Y-28418760D02*
X20424998Y-28459236D01*
X20789284Y-28944951D02*
X20708332Y-28985427D01*
X20708332Y-28985427D02*
X20505951Y-28985427D01*
X20505951Y-28985427D02*
X20424998Y-28944951D01*
X20424998Y-28944951D02*
X20384522Y-28863998D01*
X20384522Y-28863998D02*
X20384522Y-28783046D01*
X20384522Y-28783046D02*
X20424998Y-28702093D01*
X20424998Y-28702093D02*
X20505951Y-28661617D01*
X20505951Y-28661617D02*
X20708332Y-28661617D01*
X20708332Y-28661617D02*
X20789284Y-28621141D01*
X21153570Y-28944951D02*
X21234523Y-28985427D01*
X21234523Y-28985427D02*
X21396427Y-28985427D01*
X21396427Y-28985427D02*
X21477380Y-28944951D01*
X21477380Y-28944951D02*
X21517856Y-28863998D01*
X21517856Y-28863998D02*
X21517856Y-28823522D01*
X21517856Y-28823522D02*
X21477380Y-28742570D01*
X21477380Y-28742570D02*
X21396427Y-28702093D01*
X21396427Y-28702093D02*
X21274999Y-28702093D01*
X21274999Y-28702093D02*
X21194046Y-28661617D01*
X21194046Y-28661617D02*
X21153570Y-28580665D01*
X21153570Y-28580665D02*
X21153570Y-28540189D01*
X21153570Y-28540189D02*
X21194046Y-28459236D01*
X21194046Y-28459236D02*
X21274999Y-28418760D01*
X21274999Y-28418760D02*
X21396427Y-28418760D01*
X21396427Y-28418760D02*
X21477380Y-28459236D01*
X22894046Y-28985427D02*
X22894046Y-28135427D01*
X22894046Y-28944951D02*
X22813094Y-28985427D01*
X22813094Y-28985427D02*
X22651189Y-28985427D01*
X22651189Y-28985427D02*
X22570237Y-28944951D01*
X22570237Y-28944951D02*
X22529760Y-28904474D01*
X22529760Y-28904474D02*
X22489284Y-28823522D01*
X22489284Y-28823522D02*
X22489284Y-28580665D01*
X22489284Y-28580665D02*
X22529760Y-28499712D01*
X22529760Y-28499712D02*
X22570237Y-28459236D01*
X22570237Y-28459236D02*
X22651189Y-28418760D01*
X22651189Y-28418760D02*
X22813094Y-28418760D01*
X22813094Y-28418760D02*
X22894046Y-28459236D01*
X23663094Y-28985427D02*
X23663094Y-28540189D01*
X23663094Y-28540189D02*
X23622618Y-28459236D01*
X23622618Y-28459236D02*
X23541666Y-28418760D01*
X23541666Y-28418760D02*
X23379761Y-28418760D01*
X23379761Y-28418760D02*
X23298808Y-28459236D01*
X23663094Y-28944951D02*
X23582142Y-28985427D01*
X23582142Y-28985427D02*
X23379761Y-28985427D01*
X23379761Y-28985427D02*
X23298808Y-28944951D01*
X23298808Y-28944951D02*
X23258332Y-28863998D01*
X23258332Y-28863998D02*
X23258332Y-28783046D01*
X23258332Y-28783046D02*
X23298808Y-28702093D01*
X23298808Y-28702093D02*
X23379761Y-28661617D01*
X23379761Y-28661617D02*
X23582142Y-28661617D01*
X23582142Y-28661617D02*
X23663094Y-28621141D01*
X25079761Y-28944951D02*
X24998809Y-28985427D01*
X24998809Y-28985427D02*
X24836904Y-28985427D01*
X24836904Y-28985427D02*
X24755952Y-28944951D01*
X24755952Y-28944951D02*
X24715475Y-28904474D01*
X24715475Y-28904474D02*
X24674999Y-28823522D01*
X24674999Y-28823522D02*
X24674999Y-28580665D01*
X24674999Y-28580665D02*
X24715475Y-28499712D01*
X24715475Y-28499712D02*
X24755952Y-28459236D01*
X24755952Y-28459236D02*
X24836904Y-28418760D01*
X24836904Y-28418760D02*
X24998809Y-28418760D01*
X24998809Y-28418760D02*
X25079761Y-28459236D01*
X25808332Y-28985427D02*
X25808332Y-28540189D01*
X25808332Y-28540189D02*
X25767856Y-28459236D01*
X25767856Y-28459236D02*
X25686904Y-28418760D01*
X25686904Y-28418760D02*
X25524999Y-28418760D01*
X25524999Y-28418760D02*
X25444046Y-28459236D01*
X25808332Y-28944951D02*
X25727380Y-28985427D01*
X25727380Y-28985427D02*
X25524999Y-28985427D01*
X25524999Y-28985427D02*
X25444046Y-28944951D01*
X25444046Y-28944951D02*
X25403570Y-28863998D01*
X25403570Y-28863998D02*
X25403570Y-28783046D01*
X25403570Y-28783046D02*
X25444046Y-28702093D01*
X25444046Y-28702093D02*
X25524999Y-28661617D01*
X25524999Y-28661617D02*
X25727380Y-28661617D01*
X25727380Y-28661617D02*
X25808332Y-28621141D01*
X26213094Y-28985427D02*
X26213094Y-28418760D01*
X26213094Y-28135427D02*
X26172618Y-28175903D01*
X26172618Y-28175903D02*
X26213094Y-28216379D01*
X26213094Y-28216379D02*
X26253571Y-28175903D01*
X26253571Y-28175903D02*
X26213094Y-28135427D01*
X26213094Y-28135427D02*
X26213094Y-28216379D01*
X26536904Y-28985427D02*
X26982142Y-28418760D01*
X26536904Y-28418760D02*
X26982142Y-28985427D01*
X27670237Y-28985427D02*
X27670237Y-28540189D01*
X27670237Y-28540189D02*
X27629761Y-28459236D01*
X27629761Y-28459236D02*
X27548809Y-28418760D01*
X27548809Y-28418760D02*
X27386904Y-28418760D01*
X27386904Y-28418760D02*
X27305951Y-28459236D01*
X27670237Y-28944951D02*
X27589285Y-28985427D01*
X27589285Y-28985427D02*
X27386904Y-28985427D01*
X27386904Y-28985427D02*
X27305951Y-28944951D01*
X27305951Y-28944951D02*
X27265475Y-28863998D01*
X27265475Y-28863998D02*
X27265475Y-28783046D01*
X27265475Y-28783046D02*
X27305951Y-28702093D01*
X27305951Y-28702093D02*
X27386904Y-28661617D01*
X27386904Y-28661617D02*
X27589285Y-28661617D01*
X27589285Y-28661617D02*
X27670237Y-28621141D01*
X18727142Y-11818760D02*
X18079522Y-12061617D01*
X18079522Y-12061617D02*
X18727142Y-12304474D01*
X19131903Y-12061617D02*
X19779523Y-12061617D01*
X20791427Y-12344951D02*
X20872380Y-12385427D01*
X20872380Y-12385427D02*
X21034284Y-12385427D01*
X21034284Y-12385427D02*
X21115237Y-12344951D01*
X21115237Y-12344951D02*
X21155713Y-12263998D01*
X21155713Y-12263998D02*
X21155713Y-12223522D01*
X21155713Y-12223522D02*
X21115237Y-12142570D01*
X21115237Y-12142570D02*
X21034284Y-12102093D01*
X21034284Y-12102093D02*
X20912856Y-12102093D01*
X20912856Y-12102093D02*
X20831903Y-12061617D01*
X20831903Y-12061617D02*
X20791427Y-11980665D01*
X20791427Y-11980665D02*
X20791427Y-11940189D01*
X20791427Y-11940189D02*
X20831903Y-11859236D01*
X20831903Y-11859236D02*
X20912856Y-11818760D01*
X20912856Y-11818760D02*
X21034284Y-11818760D01*
X21034284Y-11818760D02*
X21115237Y-11859236D01*
X21641427Y-12385427D02*
X21560475Y-12344951D01*
X21560475Y-12344951D02*
X21519998Y-12304474D01*
X21519998Y-12304474D02*
X21479522Y-12223522D01*
X21479522Y-12223522D02*
X21479522Y-11980665D01*
X21479522Y-11980665D02*
X21519998Y-11899712D01*
X21519998Y-11899712D02*
X21560475Y-11859236D01*
X21560475Y-11859236D02*
X21641427Y-11818760D01*
X21641427Y-11818760D02*
X21762856Y-11818760D01*
X21762856Y-11818760D02*
X21843808Y-11859236D01*
X21843808Y-11859236D02*
X21884284Y-11899712D01*
X21884284Y-11899712D02*
X21924760Y-11980665D01*
X21924760Y-11980665D02*
X21924760Y-12223522D01*
X21924760Y-12223522D02*
X21884284Y-12304474D01*
X21884284Y-12304474D02*
X21843808Y-12344951D01*
X21843808Y-12344951D02*
X21762856Y-12385427D01*
X21762856Y-12385427D02*
X21641427Y-12385427D01*
X22410475Y-12385427D02*
X22329523Y-12344951D01*
X22329523Y-12344951D02*
X22289046Y-12263998D01*
X22289046Y-12263998D02*
X22289046Y-11535427D01*
X23098570Y-12385427D02*
X23098570Y-11535427D01*
X23098570Y-12344951D02*
X23017618Y-12385427D01*
X23017618Y-12385427D02*
X22855713Y-12385427D01*
X22855713Y-12385427D02*
X22774761Y-12344951D01*
X22774761Y-12344951D02*
X22734284Y-12304474D01*
X22734284Y-12304474D02*
X22693808Y-12223522D01*
X22693808Y-12223522D02*
X22693808Y-11980665D01*
X22693808Y-11980665D02*
X22734284Y-11899712D01*
X22734284Y-11899712D02*
X22774761Y-11859236D01*
X22774761Y-11859236D02*
X22855713Y-11818760D01*
X22855713Y-11818760D02*
X23017618Y-11818760D01*
X23017618Y-11818760D02*
X23098570Y-11859236D01*
X23867618Y-12385427D02*
X23867618Y-11940189D01*
X23867618Y-11940189D02*
X23827142Y-11859236D01*
X23827142Y-11859236D02*
X23746190Y-11818760D01*
X23746190Y-11818760D02*
X23584285Y-11818760D01*
X23584285Y-11818760D02*
X23503332Y-11859236D01*
X23867618Y-12344951D02*
X23786666Y-12385427D01*
X23786666Y-12385427D02*
X23584285Y-12385427D01*
X23584285Y-12385427D02*
X23503332Y-12344951D01*
X23503332Y-12344951D02*
X23462856Y-12263998D01*
X23462856Y-12263998D02*
X23462856Y-12183046D01*
X23462856Y-12183046D02*
X23503332Y-12102093D01*
X23503332Y-12102093D02*
X23584285Y-12061617D01*
X23584285Y-12061617D02*
X23786666Y-12061617D01*
X23786666Y-12061617D02*
X23867618Y-12021141D01*
X24919999Y-11818760D02*
X24919999Y-12385427D01*
X24919999Y-11899712D02*
X24960476Y-11859236D01*
X24960476Y-11859236D02*
X25041428Y-11818760D01*
X25041428Y-11818760D02*
X25162857Y-11818760D01*
X25162857Y-11818760D02*
X25243809Y-11859236D01*
X25243809Y-11859236D02*
X25284285Y-11940189D01*
X25284285Y-11940189D02*
X25284285Y-12385427D01*
X25810476Y-12385427D02*
X25729524Y-12344951D01*
X25729524Y-12344951D02*
X25689047Y-12304474D01*
X25689047Y-12304474D02*
X25648571Y-12223522D01*
X25648571Y-12223522D02*
X25648571Y-11980665D01*
X25648571Y-11980665D02*
X25689047Y-11899712D01*
X25689047Y-11899712D02*
X25729524Y-11859236D01*
X25729524Y-11859236D02*
X25810476Y-11818760D01*
X25810476Y-11818760D02*
X25931905Y-11818760D01*
X25931905Y-11818760D02*
X26012857Y-11859236D01*
X26012857Y-11859236D02*
X26053333Y-11899712D01*
X26053333Y-11899712D02*
X26093809Y-11980665D01*
X26093809Y-11980665D02*
X26093809Y-12223522D01*
X26093809Y-12223522D02*
X26053333Y-12304474D01*
X26053333Y-12304474D02*
X26012857Y-12344951D01*
X26012857Y-12344951D02*
X25931905Y-12385427D01*
X25931905Y-12385427D02*
X25810476Y-12385427D01*
X26417619Y-12344951D02*
X26498572Y-12385427D01*
X26498572Y-12385427D02*
X26660476Y-12385427D01*
X26660476Y-12385427D02*
X26741429Y-12344951D01*
X26741429Y-12344951D02*
X26781905Y-12263998D01*
X26781905Y-12263998D02*
X26781905Y-12223522D01*
X26781905Y-12223522D02*
X26741429Y-12142570D01*
X26741429Y-12142570D02*
X26660476Y-12102093D01*
X26660476Y-12102093D02*
X26539048Y-12102093D01*
X26539048Y-12102093D02*
X26458095Y-12061617D01*
X26458095Y-12061617D02*
X26417619Y-11980665D01*
X26417619Y-11980665D02*
X26417619Y-11940189D01*
X26417619Y-11940189D02*
X26458095Y-11859236D01*
X26458095Y-11859236D02*
X26539048Y-11818760D01*
X26539048Y-11818760D02*
X26660476Y-11818760D01*
X26660476Y-11818760D02*
X26741429Y-11859236D01*
X27672381Y-11818760D02*
X27996190Y-11818760D01*
X27793809Y-11535427D02*
X27793809Y-12263998D01*
X27793809Y-12263998D02*
X27834286Y-12344951D01*
X27834286Y-12344951D02*
X27915238Y-12385427D01*
X27915238Y-12385427D02*
X27996190Y-12385427D01*
X28603333Y-12344951D02*
X28522381Y-12385427D01*
X28522381Y-12385427D02*
X28360476Y-12385427D01*
X28360476Y-12385427D02*
X28279523Y-12344951D01*
X28279523Y-12344951D02*
X28239047Y-12263998D01*
X28239047Y-12263998D02*
X28239047Y-11940189D01*
X28239047Y-11940189D02*
X28279523Y-11859236D01*
X28279523Y-11859236D02*
X28360476Y-11818760D01*
X28360476Y-11818760D02*
X28522381Y-11818760D01*
X28522381Y-11818760D02*
X28603333Y-11859236D01*
X28603333Y-11859236D02*
X28643809Y-11940189D01*
X28643809Y-11940189D02*
X28643809Y-12021141D01*
X28643809Y-12021141D02*
X28239047Y-12102093D01*
X29008094Y-12385427D02*
X29008094Y-11818760D01*
X29008094Y-11980665D02*
X29048571Y-11899712D01*
X29048571Y-11899712D02*
X29089047Y-11859236D01*
X29089047Y-11859236D02*
X29169999Y-11818760D01*
X29169999Y-11818760D02*
X29250952Y-11818760D01*
X29534284Y-12385427D02*
X29534284Y-11818760D01*
X29534284Y-11899712D02*
X29574761Y-11859236D01*
X29574761Y-11859236D02*
X29655713Y-11818760D01*
X29655713Y-11818760D02*
X29777142Y-11818760D01*
X29777142Y-11818760D02*
X29858094Y-11859236D01*
X29858094Y-11859236D02*
X29898570Y-11940189D01*
X29898570Y-11940189D02*
X29898570Y-12385427D01*
X29898570Y-11940189D02*
X29939046Y-11859236D01*
X29939046Y-11859236D02*
X30019999Y-11818760D01*
X30019999Y-11818760D02*
X30141427Y-11818760D01*
X30141427Y-11818760D02*
X30222380Y-11859236D01*
X30222380Y-11859236D02*
X30262856Y-11940189D01*
X30262856Y-11940189D02*
X30262856Y-12385427D01*
X30667617Y-12385427D02*
X30667617Y-11818760D01*
X30667617Y-11535427D02*
X30627141Y-11575903D01*
X30627141Y-11575903D02*
X30667617Y-11616379D01*
X30667617Y-11616379D02*
X30708094Y-11575903D01*
X30708094Y-11575903D02*
X30667617Y-11535427D01*
X30667617Y-11535427D02*
X30667617Y-11616379D01*
X31072379Y-11818760D02*
X31072379Y-12385427D01*
X31072379Y-11899712D02*
X31112856Y-11859236D01*
X31112856Y-11859236D02*
X31193808Y-11818760D01*
X31193808Y-11818760D02*
X31315237Y-11818760D01*
X31315237Y-11818760D02*
X31396189Y-11859236D01*
X31396189Y-11859236D02*
X31436665Y-11940189D01*
X31436665Y-11940189D02*
X31436665Y-12385427D01*
X32205713Y-12385427D02*
X32205713Y-11940189D01*
X32205713Y-11940189D02*
X32165237Y-11859236D01*
X32165237Y-11859236D02*
X32084285Y-11818760D01*
X32084285Y-11818760D02*
X31922380Y-11818760D01*
X31922380Y-11818760D02*
X31841427Y-11859236D01*
X32205713Y-12344951D02*
X32124761Y-12385427D01*
X32124761Y-12385427D02*
X31922380Y-12385427D01*
X31922380Y-12385427D02*
X31841427Y-12344951D01*
X31841427Y-12344951D02*
X31800951Y-12263998D01*
X31800951Y-12263998D02*
X31800951Y-12183046D01*
X31800951Y-12183046D02*
X31841427Y-12102093D01*
X31841427Y-12102093D02*
X31922380Y-12061617D01*
X31922380Y-12061617D02*
X32124761Y-12061617D01*
X32124761Y-12061617D02*
X32205713Y-12021141D01*
X32610475Y-12385427D02*
X32610475Y-11818760D01*
X32610475Y-11535427D02*
X32569999Y-11575903D01*
X32569999Y-11575903D02*
X32610475Y-11616379D01*
X32610475Y-11616379D02*
X32650952Y-11575903D01*
X32650952Y-11575903D02*
X32610475Y-11535427D01*
X32610475Y-11535427D02*
X32610475Y-11616379D01*
X32974761Y-12344951D02*
X33055714Y-12385427D01*
X33055714Y-12385427D02*
X33217618Y-12385427D01*
X33217618Y-12385427D02*
X33298571Y-12344951D01*
X33298571Y-12344951D02*
X33339047Y-12263998D01*
X33339047Y-12263998D02*
X33339047Y-12223522D01*
X33339047Y-12223522D02*
X33298571Y-12142570D01*
X33298571Y-12142570D02*
X33217618Y-12102093D01*
X33217618Y-12102093D02*
X33096190Y-12102093D01*
X33096190Y-12102093D02*
X33015237Y-12061617D01*
X33015237Y-12061617D02*
X32974761Y-11980665D01*
X32974761Y-11980665D02*
X32974761Y-11940189D01*
X32974761Y-11940189D02*
X33015237Y-11859236D01*
X33015237Y-11859236D02*
X33096190Y-11818760D01*
X33096190Y-11818760D02*
X33217618Y-11818760D01*
X33217618Y-11818760D02*
X33298571Y-11859236D01*
X34715237Y-12385427D02*
X34715237Y-11535427D01*
X34715237Y-12344951D02*
X34634285Y-12385427D01*
X34634285Y-12385427D02*
X34472380Y-12385427D01*
X34472380Y-12385427D02*
X34391428Y-12344951D01*
X34391428Y-12344951D02*
X34350951Y-12304474D01*
X34350951Y-12304474D02*
X34310475Y-12223522D01*
X34310475Y-12223522D02*
X34310475Y-11980665D01*
X34310475Y-11980665D02*
X34350951Y-11899712D01*
X34350951Y-11899712D02*
X34391428Y-11859236D01*
X34391428Y-11859236D02*
X34472380Y-11818760D01*
X34472380Y-11818760D02*
X34634285Y-11818760D01*
X34634285Y-11818760D02*
X34715237Y-11859236D01*
X35241428Y-12385427D02*
X35160476Y-12344951D01*
X35160476Y-12344951D02*
X35119999Y-12304474D01*
X35119999Y-12304474D02*
X35079523Y-12223522D01*
X35079523Y-12223522D02*
X35079523Y-11980665D01*
X35079523Y-11980665D02*
X35119999Y-11899712D01*
X35119999Y-11899712D02*
X35160476Y-11859236D01*
X35160476Y-11859236D02*
X35241428Y-11818760D01*
X35241428Y-11818760D02*
X35362857Y-11818760D01*
X35362857Y-11818760D02*
X35443809Y-11859236D01*
X35443809Y-11859236D02*
X35484285Y-11899712D01*
X35484285Y-11899712D02*
X35524761Y-11980665D01*
X35524761Y-11980665D02*
X35524761Y-12223522D01*
X35524761Y-12223522D02*
X35484285Y-12304474D01*
X35484285Y-12304474D02*
X35443809Y-12344951D01*
X35443809Y-12344951D02*
X35362857Y-12385427D01*
X35362857Y-12385427D02*
X35241428Y-12385427D01*
X36900952Y-12344951D02*
X36820000Y-12385427D01*
X36820000Y-12385427D02*
X36658095Y-12385427D01*
X36658095Y-12385427D02*
X36577143Y-12344951D01*
X36577143Y-12344951D02*
X36536666Y-12304474D01*
X36536666Y-12304474D02*
X36496190Y-12223522D01*
X36496190Y-12223522D02*
X36496190Y-11980665D01*
X36496190Y-11980665D02*
X36536666Y-11899712D01*
X36536666Y-11899712D02*
X36577143Y-11859236D01*
X36577143Y-11859236D02*
X36658095Y-11818760D01*
X36658095Y-11818760D02*
X36820000Y-11818760D01*
X36820000Y-11818760D02*
X36900952Y-11859236D01*
X37386666Y-12385427D02*
X37305714Y-12344951D01*
X37305714Y-12344951D02*
X37265237Y-12304474D01*
X37265237Y-12304474D02*
X37224761Y-12223522D01*
X37224761Y-12223522D02*
X37224761Y-11980665D01*
X37224761Y-11980665D02*
X37265237Y-11899712D01*
X37265237Y-11899712D02*
X37305714Y-11859236D01*
X37305714Y-11859236D02*
X37386666Y-11818760D01*
X37386666Y-11818760D02*
X37508095Y-11818760D01*
X37508095Y-11818760D02*
X37589047Y-11859236D01*
X37589047Y-11859236D02*
X37629523Y-11899712D01*
X37629523Y-11899712D02*
X37669999Y-11980665D01*
X37669999Y-11980665D02*
X37669999Y-12223522D01*
X37669999Y-12223522D02*
X37629523Y-12304474D01*
X37629523Y-12304474D02*
X37589047Y-12344951D01*
X37589047Y-12344951D02*
X37508095Y-12385427D01*
X37508095Y-12385427D02*
X37386666Y-12385427D01*
X38034285Y-11818760D02*
X38034285Y-12385427D01*
X38034285Y-11899712D02*
X38074762Y-11859236D01*
X38074762Y-11859236D02*
X38155714Y-11818760D01*
X38155714Y-11818760D02*
X38277143Y-11818760D01*
X38277143Y-11818760D02*
X38358095Y-11859236D01*
X38358095Y-11859236D02*
X38398571Y-11940189D01*
X38398571Y-11940189D02*
X38398571Y-12385427D01*
X39127143Y-12344951D02*
X39046191Y-12385427D01*
X39046191Y-12385427D02*
X38884286Y-12385427D01*
X38884286Y-12385427D02*
X38803333Y-12344951D01*
X38803333Y-12344951D02*
X38762857Y-12263998D01*
X38762857Y-12263998D02*
X38762857Y-11940189D01*
X38762857Y-11940189D02*
X38803333Y-11859236D01*
X38803333Y-11859236D02*
X38884286Y-11818760D01*
X38884286Y-11818760D02*
X39046191Y-11818760D01*
X39046191Y-11818760D02*
X39127143Y-11859236D01*
X39127143Y-11859236D02*
X39167619Y-11940189D01*
X39167619Y-11940189D02*
X39167619Y-12021141D01*
X39167619Y-12021141D02*
X38762857Y-12102093D01*
X39896190Y-12344951D02*
X39815238Y-12385427D01*
X39815238Y-12385427D02*
X39653333Y-12385427D01*
X39653333Y-12385427D02*
X39572381Y-12344951D01*
X39572381Y-12344951D02*
X39531904Y-12304474D01*
X39531904Y-12304474D02*
X39491428Y-12223522D01*
X39491428Y-12223522D02*
X39491428Y-11980665D01*
X39491428Y-11980665D02*
X39531904Y-11899712D01*
X39531904Y-11899712D02*
X39572381Y-11859236D01*
X39572381Y-11859236D02*
X39653333Y-11818760D01*
X39653333Y-11818760D02*
X39815238Y-11818760D01*
X39815238Y-11818760D02*
X39896190Y-11859236D01*
X40139047Y-11818760D02*
X40462856Y-11818760D01*
X40260475Y-11535427D02*
X40260475Y-12263998D01*
X40260475Y-12263998D02*
X40300952Y-12344951D01*
X40300952Y-12344951D02*
X40381904Y-12385427D01*
X40381904Y-12385427D02*
X40462856Y-12385427D01*
X40867618Y-12385427D02*
X40786666Y-12344951D01*
X40786666Y-12344951D02*
X40746189Y-12304474D01*
X40746189Y-12304474D02*
X40705713Y-12223522D01*
X40705713Y-12223522D02*
X40705713Y-11980665D01*
X40705713Y-11980665D02*
X40746189Y-11899712D01*
X40746189Y-11899712D02*
X40786666Y-11859236D01*
X40786666Y-11859236D02*
X40867618Y-11818760D01*
X40867618Y-11818760D02*
X40989047Y-11818760D01*
X40989047Y-11818760D02*
X41069999Y-11859236D01*
X41069999Y-11859236D02*
X41110475Y-11899712D01*
X41110475Y-11899712D02*
X41150951Y-11980665D01*
X41150951Y-11980665D02*
X41150951Y-12223522D01*
X41150951Y-12223522D02*
X41110475Y-12304474D01*
X41110475Y-12304474D02*
X41069999Y-12344951D01*
X41069999Y-12344951D02*
X40989047Y-12385427D01*
X40989047Y-12385427D02*
X40867618Y-12385427D01*
X41515237Y-12385427D02*
X41515237Y-11818760D01*
X41515237Y-11980665D02*
X41555714Y-11899712D01*
X41555714Y-11899712D02*
X41596190Y-11859236D01*
X41596190Y-11859236D02*
X41677142Y-11818760D01*
X41677142Y-11818760D02*
X41758095Y-11818760D01*
X42081904Y-12344951D02*
X42081904Y-12385427D01*
X42081904Y-12385427D02*
X42041427Y-12466379D01*
X42041427Y-12466379D02*
X42000951Y-12506855D01*
X43093808Y-11818760D02*
X43093808Y-12668760D01*
X43093808Y-11859236D02*
X43174761Y-11818760D01*
X43174761Y-11818760D02*
X43336666Y-11818760D01*
X43336666Y-11818760D02*
X43417618Y-11859236D01*
X43417618Y-11859236D02*
X43458094Y-11899712D01*
X43458094Y-11899712D02*
X43498570Y-11980665D01*
X43498570Y-11980665D02*
X43498570Y-12223522D01*
X43498570Y-12223522D02*
X43458094Y-12304474D01*
X43458094Y-12304474D02*
X43417618Y-12344951D01*
X43417618Y-12344951D02*
X43336666Y-12385427D01*
X43336666Y-12385427D02*
X43174761Y-12385427D01*
X43174761Y-12385427D02*
X43093808Y-12344951D01*
X44186666Y-12344951D02*
X44105714Y-12385427D01*
X44105714Y-12385427D02*
X43943809Y-12385427D01*
X43943809Y-12385427D02*
X43862856Y-12344951D01*
X43862856Y-12344951D02*
X43822380Y-12263998D01*
X43822380Y-12263998D02*
X43822380Y-11940189D01*
X43822380Y-11940189D02*
X43862856Y-11859236D01*
X43862856Y-11859236D02*
X43943809Y-11818760D01*
X43943809Y-11818760D02*
X44105714Y-11818760D01*
X44105714Y-11818760D02*
X44186666Y-11859236D01*
X44186666Y-11859236D02*
X44227142Y-11940189D01*
X44227142Y-11940189D02*
X44227142Y-12021141D01*
X44227142Y-12021141D02*
X43822380Y-12102093D01*
X44712856Y-12385427D02*
X44631904Y-12344951D01*
X44631904Y-12344951D02*
X44591427Y-12263998D01*
X44591427Y-12263998D02*
X44591427Y-11535427D01*
X45158094Y-12385427D02*
X45077142Y-12344951D01*
X45077142Y-12344951D02*
X45036665Y-12304474D01*
X45036665Y-12304474D02*
X44996189Y-12223522D01*
X44996189Y-12223522D02*
X44996189Y-11980665D01*
X44996189Y-11980665D02*
X45036665Y-11899712D01*
X45036665Y-11899712D02*
X45077142Y-11859236D01*
X45077142Y-11859236D02*
X45158094Y-11818760D01*
X45158094Y-11818760D02*
X45279523Y-11818760D01*
X45279523Y-11818760D02*
X45360475Y-11859236D01*
X45360475Y-11859236D02*
X45400951Y-11899712D01*
X45400951Y-11899712D02*
X45441427Y-11980665D01*
X45441427Y-11980665D02*
X45441427Y-12223522D01*
X45441427Y-12223522D02*
X45400951Y-12304474D01*
X45400951Y-12304474D02*
X45360475Y-12344951D01*
X45360475Y-12344951D02*
X45279523Y-12385427D01*
X45279523Y-12385427D02*
X45158094Y-12385427D01*
X46574761Y-12385427D02*
X46493809Y-12344951D01*
X46493809Y-12344951D02*
X46453332Y-12263998D01*
X46453332Y-12263998D02*
X46453332Y-11535427D01*
X47262856Y-12385427D02*
X47262856Y-11940189D01*
X47262856Y-11940189D02*
X47222380Y-11859236D01*
X47222380Y-11859236D02*
X47141428Y-11818760D01*
X47141428Y-11818760D02*
X46979523Y-11818760D01*
X46979523Y-11818760D02*
X46898570Y-11859236D01*
X47262856Y-12344951D02*
X47181904Y-12385427D01*
X47181904Y-12385427D02*
X46979523Y-12385427D01*
X46979523Y-12385427D02*
X46898570Y-12344951D01*
X46898570Y-12344951D02*
X46858094Y-12263998D01*
X46858094Y-12263998D02*
X46858094Y-12183046D01*
X46858094Y-12183046D02*
X46898570Y-12102093D01*
X46898570Y-12102093D02*
X46979523Y-12061617D01*
X46979523Y-12061617D02*
X47181904Y-12061617D01*
X47181904Y-12061617D02*
X47262856Y-12021141D01*
X48031904Y-12385427D02*
X48031904Y-11535427D01*
X48031904Y-12344951D02*
X47950952Y-12385427D01*
X47950952Y-12385427D02*
X47789047Y-12385427D01*
X47789047Y-12385427D02*
X47708095Y-12344951D01*
X47708095Y-12344951D02*
X47667618Y-12304474D01*
X47667618Y-12304474D02*
X47627142Y-12223522D01*
X47627142Y-12223522D02*
X47627142Y-11980665D01*
X47627142Y-11980665D02*
X47667618Y-11899712D01*
X47667618Y-11899712D02*
X47708095Y-11859236D01*
X47708095Y-11859236D02*
X47789047Y-11818760D01*
X47789047Y-11818760D02*
X47950952Y-11818760D01*
X47950952Y-11818760D02*
X48031904Y-11859236D01*
X48558095Y-12385427D02*
X48477143Y-12344951D01*
X48477143Y-12344951D02*
X48436666Y-12304474D01*
X48436666Y-12304474D02*
X48396190Y-12223522D01*
X48396190Y-12223522D02*
X48396190Y-11980665D01*
X48396190Y-11980665D02*
X48436666Y-11899712D01*
X48436666Y-11899712D02*
X48477143Y-11859236D01*
X48477143Y-11859236D02*
X48558095Y-11818760D01*
X48558095Y-11818760D02*
X48679524Y-11818760D01*
X48679524Y-11818760D02*
X48760476Y-11859236D01*
X48760476Y-11859236D02*
X48800952Y-11899712D01*
X48800952Y-11899712D02*
X48841428Y-11980665D01*
X48841428Y-11980665D02*
X48841428Y-12223522D01*
X48841428Y-12223522D02*
X48800952Y-12304474D01*
X48800952Y-12304474D02*
X48760476Y-12344951D01*
X48760476Y-12344951D02*
X48679524Y-12385427D01*
X48679524Y-12385427D02*
X48558095Y-12385427D01*
X50217619Y-12385427D02*
X50217619Y-11535427D01*
X50217619Y-12344951D02*
X50136667Y-12385427D01*
X50136667Y-12385427D02*
X49974762Y-12385427D01*
X49974762Y-12385427D02*
X49893810Y-12344951D01*
X49893810Y-12344951D02*
X49853333Y-12304474D01*
X49853333Y-12304474D02*
X49812857Y-12223522D01*
X49812857Y-12223522D02*
X49812857Y-11980665D01*
X49812857Y-11980665D02*
X49853333Y-11899712D01*
X49853333Y-11899712D02*
X49893810Y-11859236D01*
X49893810Y-11859236D02*
X49974762Y-11818760D01*
X49974762Y-11818760D02*
X50136667Y-11818760D01*
X50136667Y-11818760D02*
X50217619Y-11859236D01*
X50743810Y-12385427D02*
X50662858Y-12344951D01*
X50662858Y-12344951D02*
X50622381Y-12304474D01*
X50622381Y-12304474D02*
X50581905Y-12223522D01*
X50581905Y-12223522D02*
X50581905Y-11980665D01*
X50581905Y-11980665D02*
X50622381Y-11899712D01*
X50622381Y-11899712D02*
X50662858Y-11859236D01*
X50662858Y-11859236D02*
X50743810Y-11818760D01*
X50743810Y-11818760D02*
X50865239Y-11818760D01*
X50865239Y-11818760D02*
X50946191Y-11859236D01*
X50946191Y-11859236D02*
X50986667Y-11899712D01*
X50986667Y-11899712D02*
X51027143Y-11980665D01*
X51027143Y-11980665D02*
X51027143Y-12223522D01*
X51027143Y-12223522D02*
X50986667Y-12304474D01*
X50986667Y-12304474D02*
X50946191Y-12344951D01*
X50946191Y-12344951D02*
X50865239Y-12385427D01*
X50865239Y-12385427D02*
X50743810Y-12385427D01*
X51350953Y-12344951D02*
X51431906Y-12385427D01*
X51431906Y-12385427D02*
X51593810Y-12385427D01*
X51593810Y-12385427D02*
X51674763Y-12344951D01*
X51674763Y-12344951D02*
X51715239Y-12263998D01*
X51715239Y-12263998D02*
X51715239Y-12223522D01*
X51715239Y-12223522D02*
X51674763Y-12142570D01*
X51674763Y-12142570D02*
X51593810Y-12102093D01*
X51593810Y-12102093D02*
X51472382Y-12102093D01*
X51472382Y-12102093D02*
X51391429Y-12061617D01*
X51391429Y-12061617D02*
X51350953Y-11980665D01*
X51350953Y-11980665D02*
X51350953Y-11940189D01*
X51350953Y-11940189D02*
X51391429Y-11859236D01*
X51391429Y-11859236D02*
X51472382Y-11818760D01*
X51472382Y-11818760D02*
X51593810Y-11818760D01*
X51593810Y-11818760D02*
X51674763Y-11859236D01*
X53091429Y-12344951D02*
X53010477Y-12385427D01*
X53010477Y-12385427D02*
X52848572Y-12385427D01*
X52848572Y-12385427D02*
X52767620Y-12344951D01*
X52767620Y-12344951D02*
X52727143Y-12304474D01*
X52727143Y-12304474D02*
X52686667Y-12223522D01*
X52686667Y-12223522D02*
X52686667Y-11980665D01*
X52686667Y-11980665D02*
X52727143Y-11899712D01*
X52727143Y-11899712D02*
X52767620Y-11859236D01*
X52767620Y-11859236D02*
X52848572Y-11818760D01*
X52848572Y-11818760D02*
X53010477Y-11818760D01*
X53010477Y-11818760D02*
X53091429Y-11859236D01*
X53577143Y-12385427D02*
X53496191Y-12344951D01*
X53496191Y-12344951D02*
X53455714Y-12304474D01*
X53455714Y-12304474D02*
X53415238Y-12223522D01*
X53415238Y-12223522D02*
X53415238Y-11980665D01*
X53415238Y-11980665D02*
X53455714Y-11899712D01*
X53455714Y-11899712D02*
X53496191Y-11859236D01*
X53496191Y-11859236D02*
X53577143Y-11818760D01*
X53577143Y-11818760D02*
X53698572Y-11818760D01*
X53698572Y-11818760D02*
X53779524Y-11859236D01*
X53779524Y-11859236D02*
X53820000Y-11899712D01*
X53820000Y-11899712D02*
X53860476Y-11980665D01*
X53860476Y-11980665D02*
X53860476Y-12223522D01*
X53860476Y-12223522D02*
X53820000Y-12304474D01*
X53820000Y-12304474D02*
X53779524Y-12344951D01*
X53779524Y-12344951D02*
X53698572Y-12385427D01*
X53698572Y-12385427D02*
X53577143Y-12385427D01*
X54224762Y-12385427D02*
X54224762Y-11818760D01*
X54224762Y-11899712D02*
X54265239Y-11859236D01*
X54265239Y-11859236D02*
X54346191Y-11818760D01*
X54346191Y-11818760D02*
X54467620Y-11818760D01*
X54467620Y-11818760D02*
X54548572Y-11859236D01*
X54548572Y-11859236D02*
X54589048Y-11940189D01*
X54589048Y-11940189D02*
X54589048Y-12385427D01*
X54589048Y-11940189D02*
X54629524Y-11859236D01*
X54629524Y-11859236D02*
X54710477Y-11818760D01*
X54710477Y-11818760D02*
X54831905Y-11818760D01*
X54831905Y-11818760D02*
X54912858Y-11859236D01*
X54912858Y-11859236D02*
X54953334Y-11940189D01*
X54953334Y-11940189D02*
X54953334Y-12385427D01*
X55358095Y-11818760D02*
X55358095Y-12668760D01*
X55358095Y-11859236D02*
X55439048Y-11818760D01*
X55439048Y-11818760D02*
X55600953Y-11818760D01*
X55600953Y-11818760D02*
X55681905Y-11859236D01*
X55681905Y-11859236D02*
X55722381Y-11899712D01*
X55722381Y-11899712D02*
X55762857Y-11980665D01*
X55762857Y-11980665D02*
X55762857Y-12223522D01*
X55762857Y-12223522D02*
X55722381Y-12304474D01*
X55722381Y-12304474D02*
X55681905Y-12344951D01*
X55681905Y-12344951D02*
X55600953Y-12385427D01*
X55600953Y-12385427D02*
X55439048Y-12385427D01*
X55439048Y-12385427D02*
X55358095Y-12344951D01*
X56248572Y-12385427D02*
X56167620Y-12344951D01*
X56167620Y-12344951D02*
X56127143Y-12304474D01*
X56127143Y-12304474D02*
X56086667Y-12223522D01*
X56086667Y-12223522D02*
X56086667Y-11980665D01*
X56086667Y-11980665D02*
X56127143Y-11899712D01*
X56127143Y-11899712D02*
X56167620Y-11859236D01*
X56167620Y-11859236D02*
X56248572Y-11818760D01*
X56248572Y-11818760D02*
X56370001Y-11818760D01*
X56370001Y-11818760D02*
X56450953Y-11859236D01*
X56450953Y-11859236D02*
X56491429Y-11899712D01*
X56491429Y-11899712D02*
X56531905Y-11980665D01*
X56531905Y-11980665D02*
X56531905Y-12223522D01*
X56531905Y-12223522D02*
X56491429Y-12304474D01*
X56491429Y-12304474D02*
X56450953Y-12344951D01*
X56450953Y-12344951D02*
X56370001Y-12385427D01*
X56370001Y-12385427D02*
X56248572Y-12385427D01*
X56896191Y-11818760D02*
X56896191Y-12385427D01*
X56896191Y-11899712D02*
X56936668Y-11859236D01*
X56936668Y-11859236D02*
X57017620Y-11818760D01*
X57017620Y-11818760D02*
X57139049Y-11818760D01*
X57139049Y-11818760D02*
X57220001Y-11859236D01*
X57220001Y-11859236D02*
X57260477Y-11940189D01*
X57260477Y-11940189D02*
X57260477Y-12385427D01*
X57989049Y-12344951D02*
X57908097Y-12385427D01*
X57908097Y-12385427D02*
X57746192Y-12385427D01*
X57746192Y-12385427D02*
X57665239Y-12344951D01*
X57665239Y-12344951D02*
X57624763Y-12263998D01*
X57624763Y-12263998D02*
X57624763Y-11940189D01*
X57624763Y-11940189D02*
X57665239Y-11859236D01*
X57665239Y-11859236D02*
X57746192Y-11818760D01*
X57746192Y-11818760D02*
X57908097Y-11818760D01*
X57908097Y-11818760D02*
X57989049Y-11859236D01*
X57989049Y-11859236D02*
X58029525Y-11940189D01*
X58029525Y-11940189D02*
X58029525Y-12021141D01*
X58029525Y-12021141D02*
X57624763Y-12102093D01*
X58393810Y-11818760D02*
X58393810Y-12385427D01*
X58393810Y-11899712D02*
X58434287Y-11859236D01*
X58434287Y-11859236D02*
X58515239Y-11818760D01*
X58515239Y-11818760D02*
X58636668Y-11818760D01*
X58636668Y-11818760D02*
X58717620Y-11859236D01*
X58717620Y-11859236D02*
X58758096Y-11940189D01*
X58758096Y-11940189D02*
X58758096Y-12385427D01*
X59041430Y-11818760D02*
X59365239Y-11818760D01*
X59162858Y-11535427D02*
X59162858Y-12263998D01*
X59162858Y-12263998D02*
X59203335Y-12344951D01*
X59203335Y-12344951D02*
X59284287Y-12385427D01*
X59284287Y-12385427D02*
X59365239Y-12385427D01*
X59972382Y-12344951D02*
X59891430Y-12385427D01*
X59891430Y-12385427D02*
X59729525Y-12385427D01*
X59729525Y-12385427D02*
X59648572Y-12344951D01*
X59648572Y-12344951D02*
X59608096Y-12263998D01*
X59608096Y-12263998D02*
X59608096Y-11940189D01*
X59608096Y-11940189D02*
X59648572Y-11859236D01*
X59648572Y-11859236D02*
X59729525Y-11818760D01*
X59729525Y-11818760D02*
X59891430Y-11818760D01*
X59891430Y-11818760D02*
X59972382Y-11859236D01*
X59972382Y-11859236D02*
X60012858Y-11940189D01*
X60012858Y-11940189D02*
X60012858Y-12021141D01*
X60012858Y-12021141D02*
X59608096Y-12102093D01*
X60336667Y-12344951D02*
X60417620Y-12385427D01*
X60417620Y-12385427D02*
X60579524Y-12385427D01*
X60579524Y-12385427D02*
X60660477Y-12344951D01*
X60660477Y-12344951D02*
X60700953Y-12263998D01*
X60700953Y-12263998D02*
X60700953Y-12223522D01*
X60700953Y-12223522D02*
X60660477Y-12142570D01*
X60660477Y-12142570D02*
X60579524Y-12102093D01*
X60579524Y-12102093D02*
X60458096Y-12102093D01*
X60458096Y-12102093D02*
X60377143Y-12061617D01*
X60377143Y-12061617D02*
X60336667Y-11980665D01*
X60336667Y-11980665D02*
X60336667Y-11940189D01*
X60336667Y-11940189D02*
X60377143Y-11859236D01*
X60377143Y-11859236D02*
X60458096Y-11818760D01*
X60458096Y-11818760D02*
X60579524Y-11818760D01*
X60579524Y-11818760D02*
X60660477Y-11859236D01*
X34036666Y-16954819D02*
X34608094Y-16954819D01*
X34322380Y-17954819D02*
X34322380Y-16954819D01*
X34941428Y-17954819D02*
X34941428Y-16954819D01*
X35512856Y-17954819D02*
X35084285Y-17383390D01*
X35512856Y-16954819D02*
X34941428Y-17526247D01*
X35989047Y-17954819D02*
X36179523Y-17954819D01*
X36179523Y-17954819D02*
X36274761Y-17907200D01*
X36274761Y-17907200D02*
X36322380Y-17859580D01*
X36322380Y-17859580D02*
X36417618Y-17716723D01*
X36417618Y-17716723D02*
X36465237Y-17526247D01*
X36465237Y-17526247D02*
X36465237Y-17145295D01*
X36465237Y-17145295D02*
X36417618Y-17050057D01*
X36417618Y-17050057D02*
X36369999Y-17002438D01*
X36369999Y-17002438D02*
X36274761Y-16954819D01*
X36274761Y-16954819D02*
X36084285Y-16954819D01*
X36084285Y-16954819D02*
X35989047Y-17002438D01*
X35989047Y-17002438D02*
X35941428Y-17050057D01*
X35941428Y-17050057D02*
X35893809Y-17145295D01*
X35893809Y-17145295D02*
X35893809Y-17383390D01*
X35893809Y-17383390D02*
X35941428Y-17478628D01*
X35941428Y-17478628D02*
X35989047Y-17526247D01*
X35989047Y-17526247D02*
X36084285Y-17573866D01*
X36084285Y-17573866D02*
X36274761Y-17573866D01*
X36274761Y-17573866D02*
X36369999Y-17526247D01*
X36369999Y-17526247D02*
X36417618Y-17478628D01*
X36417618Y-17478628D02*
X36465237Y-17383390D01*
X37084285Y-16954819D02*
X37179523Y-16954819D01*
X37179523Y-16954819D02*
X37274761Y-17002438D01*
X37274761Y-17002438D02*
X37322380Y-17050057D01*
X37322380Y-17050057D02*
X37369999Y-17145295D01*
X37369999Y-17145295D02*
X37417618Y-17335771D01*
X37417618Y-17335771D02*
X37417618Y-17573866D01*
X37417618Y-17573866D02*
X37369999Y-17764342D01*
X37369999Y-17764342D02*
X37322380Y-17859580D01*
X37322380Y-17859580D02*
X37274761Y-17907200D01*
X37274761Y-17907200D02*
X37179523Y-17954819D01*
X37179523Y-17954819D02*
X37084285Y-17954819D01*
X37084285Y-17954819D02*
X36989047Y-17907200D01*
X36989047Y-17907200D02*
X36941428Y-17859580D01*
X36941428Y-17859580D02*
X36893809Y-17764342D01*
X36893809Y-17764342D02*
X36846190Y-17573866D01*
X36846190Y-17573866D02*
X36846190Y-17335771D01*
X36846190Y-17335771D02*
X36893809Y-17145295D01*
X36893809Y-17145295D02*
X36941428Y-17050057D01*
X36941428Y-17050057D02*
X36989047Y-17002438D01*
X36989047Y-17002438D02*
X37084285Y-16954819D01*
X37750952Y-16954819D02*
X38417618Y-17954819D01*
X38417618Y-16954819D02*
X37750952Y-17954819D01*
X40274761Y-16907200D02*
X39417619Y-18192914D01*
X41227143Y-16954819D02*
X41798571Y-16954819D01*
X41512857Y-17954819D02*
X41512857Y-16954819D01*
X42131905Y-17954819D02*
X42131905Y-16954819D01*
X42703333Y-17954819D02*
X42274762Y-17383390D01*
X42703333Y-16954819D02*
X42131905Y-17526247D01*
X43179524Y-17954819D02*
X43370000Y-17954819D01*
X43370000Y-17954819D02*
X43465238Y-17907200D01*
X43465238Y-17907200D02*
X43512857Y-17859580D01*
X43512857Y-17859580D02*
X43608095Y-17716723D01*
X43608095Y-17716723D02*
X43655714Y-17526247D01*
X43655714Y-17526247D02*
X43655714Y-17145295D01*
X43655714Y-17145295D02*
X43608095Y-17050057D01*
X43608095Y-17050057D02*
X43560476Y-17002438D01*
X43560476Y-17002438D02*
X43465238Y-16954819D01*
X43465238Y-16954819D02*
X43274762Y-16954819D01*
X43274762Y-16954819D02*
X43179524Y-17002438D01*
X43179524Y-17002438D02*
X43131905Y-17050057D01*
X43131905Y-17050057D02*
X43084286Y-17145295D01*
X43084286Y-17145295D02*
X43084286Y-17383390D01*
X43084286Y-17383390D02*
X43131905Y-17478628D01*
X43131905Y-17478628D02*
X43179524Y-17526247D01*
X43179524Y-17526247D02*
X43274762Y-17573866D01*
X43274762Y-17573866D02*
X43465238Y-17573866D01*
X43465238Y-17573866D02*
X43560476Y-17526247D01*
X43560476Y-17526247D02*
X43608095Y-17478628D01*
X43608095Y-17478628D02*
X43655714Y-17383390D01*
X44560476Y-16954819D02*
X44084286Y-16954819D01*
X44084286Y-16954819D02*
X44036667Y-17431009D01*
X44036667Y-17431009D02*
X44084286Y-17383390D01*
X44084286Y-17383390D02*
X44179524Y-17335771D01*
X44179524Y-17335771D02*
X44417619Y-17335771D01*
X44417619Y-17335771D02*
X44512857Y-17383390D01*
X44512857Y-17383390D02*
X44560476Y-17431009D01*
X44560476Y-17431009D02*
X44608095Y-17526247D01*
X44608095Y-17526247D02*
X44608095Y-17764342D01*
X44608095Y-17764342D02*
X44560476Y-17859580D01*
X44560476Y-17859580D02*
X44512857Y-17907200D01*
X44512857Y-17907200D02*
X44417619Y-17954819D01*
X44417619Y-17954819D02*
X44179524Y-17954819D01*
X44179524Y-17954819D02*
X44084286Y-17907200D01*
X44084286Y-17907200D02*
X44036667Y-17859580D01*
X18627143Y-14401080D02*
X19255715Y-14401080D01*
X18941429Y-15501080D02*
X18941429Y-14401080D01*
X19622381Y-15501080D02*
X19622381Y-14401080D01*
X20250953Y-15501080D02*
X19779524Y-14872509D01*
X20250953Y-14401080D02*
X19622381Y-15029652D01*
X20722381Y-15501080D02*
X20722381Y-14401080D01*
X20722381Y-14401080D02*
X21089048Y-15186795D01*
X21089048Y-15186795D02*
X21455715Y-14401080D01*
X21455715Y-14401080D02*
X21455715Y-15501080D01*
X21979524Y-14924890D02*
X22346191Y-14924890D01*
X22503334Y-15501080D02*
X21979524Y-15501080D01*
X21979524Y-15501080D02*
X21979524Y-14401080D01*
X21979524Y-14401080D02*
X22503334Y-14401080D01*
X22974762Y-15501080D02*
X22974762Y-14401080D01*
X22974762Y-14401080D02*
X23341429Y-15186795D01*
X23341429Y-15186795D02*
X23708096Y-14401080D01*
X23708096Y-14401080D02*
X23708096Y-15501080D01*
X24231905Y-15082033D02*
X25070001Y-15082033D01*
X26170001Y-15501080D02*
X25541429Y-15501080D01*
X25855715Y-15501080D02*
X25855715Y-14401080D01*
X25855715Y-14401080D02*
X25750953Y-14558223D01*
X25750953Y-14558223D02*
X25646191Y-14662985D01*
X25646191Y-14662985D02*
X25541429Y-14715366D01*
X26589048Y-14505842D02*
X26641429Y-14453461D01*
X26641429Y-14453461D02*
X26746191Y-14401080D01*
X26746191Y-14401080D02*
X27008096Y-14401080D01*
X27008096Y-14401080D02*
X27112858Y-14453461D01*
X27112858Y-14453461D02*
X27165239Y-14505842D01*
X27165239Y-14505842D02*
X27217620Y-14610604D01*
X27217620Y-14610604D02*
X27217620Y-14715366D01*
X27217620Y-14715366D02*
X27165239Y-14872509D01*
X27165239Y-14872509D02*
X26536667Y-15501080D01*
X26536667Y-15501080D02*
X27217620Y-15501080D01*
X27846191Y-14872509D02*
X27741429Y-14820128D01*
X27741429Y-14820128D02*
X27689048Y-14767747D01*
X27689048Y-14767747D02*
X27636667Y-14662985D01*
X27636667Y-14662985D02*
X27636667Y-14610604D01*
X27636667Y-14610604D02*
X27689048Y-14505842D01*
X27689048Y-14505842D02*
X27741429Y-14453461D01*
X27741429Y-14453461D02*
X27846191Y-14401080D01*
X27846191Y-14401080D02*
X28055715Y-14401080D01*
X28055715Y-14401080D02*
X28160477Y-14453461D01*
X28160477Y-14453461D02*
X28212858Y-14505842D01*
X28212858Y-14505842D02*
X28265239Y-14610604D01*
X28265239Y-14610604D02*
X28265239Y-14662985D01*
X28265239Y-14662985D02*
X28212858Y-14767747D01*
X28212858Y-14767747D02*
X28160477Y-14820128D01*
X28160477Y-14820128D02*
X28055715Y-14872509D01*
X28055715Y-14872509D02*
X27846191Y-14872509D01*
X27846191Y-14872509D02*
X27741429Y-14924890D01*
X27741429Y-14924890D02*
X27689048Y-14977271D01*
X27689048Y-14977271D02*
X27636667Y-15082033D01*
X27636667Y-15082033D02*
X27636667Y-15291557D01*
X27636667Y-15291557D02*
X27689048Y-15396319D01*
X27689048Y-15396319D02*
X27741429Y-15448700D01*
X27741429Y-15448700D02*
X27846191Y-15501080D01*
X27846191Y-15501080D02*
X28055715Y-15501080D01*
X28055715Y-15501080D02*
X28160477Y-15448700D01*
X28160477Y-15448700D02*
X28212858Y-15396319D01*
X28212858Y-15396319D02*
X28265239Y-15291557D01*
X28265239Y-15291557D02*
X28265239Y-15082033D01*
X28265239Y-15082033D02*
X28212858Y-14977271D01*
X28212858Y-14977271D02*
X28160477Y-14924890D01*
X28160477Y-14924890D02*
X28055715Y-14872509D01*
X30255714Y-14401080D02*
X30884286Y-14401080D01*
X30570000Y-15501080D02*
X30570000Y-14401080D01*
X31250952Y-15501080D02*
X31250952Y-14401080D01*
X32403334Y-15501080D02*
X32036667Y-14977271D01*
X31774762Y-15501080D02*
X31774762Y-14401080D01*
X31774762Y-14401080D02*
X32193810Y-14401080D01*
X32193810Y-14401080D02*
X32298572Y-14453461D01*
X32298572Y-14453461D02*
X32350953Y-14505842D01*
X32350953Y-14505842D02*
X32403334Y-14610604D01*
X32403334Y-14610604D02*
X32403334Y-14767747D01*
X32403334Y-14767747D02*
X32350953Y-14872509D01*
X32350953Y-14872509D02*
X32298572Y-14924890D01*
X32298572Y-14924890D02*
X32193810Y-14977271D01*
X32193810Y-14977271D02*
X31774762Y-14977271D01*
X32822381Y-15186795D02*
X33346191Y-15186795D01*
X32717619Y-15501080D02*
X33084286Y-14401080D01*
X33084286Y-14401080D02*
X33450953Y-15501080D01*
X34655714Y-15501080D02*
X34655714Y-14401080D01*
X34655714Y-14401080D02*
X34917619Y-14401080D01*
X34917619Y-14401080D02*
X35074762Y-14453461D01*
X35074762Y-14453461D02*
X35179524Y-14558223D01*
X35179524Y-14558223D02*
X35231905Y-14662985D01*
X35231905Y-14662985D02*
X35284286Y-14872509D01*
X35284286Y-14872509D02*
X35284286Y-15029652D01*
X35284286Y-15029652D02*
X35231905Y-15239176D01*
X35231905Y-15239176D02*
X35179524Y-15343938D01*
X35179524Y-15343938D02*
X35074762Y-15448700D01*
X35074762Y-15448700D02*
X34917619Y-15501080D01*
X34917619Y-15501080D02*
X34655714Y-15501080D01*
X35755714Y-14924890D02*
X36122381Y-14924890D01*
X36279524Y-15501080D02*
X35755714Y-15501080D01*
X35755714Y-15501080D02*
X35755714Y-14401080D01*
X35755714Y-14401080D02*
X36279524Y-14401080D01*
X37589047Y-14924890D02*
X37955714Y-14924890D01*
X38112857Y-15501080D02*
X37589047Y-15501080D01*
X37589047Y-15501080D02*
X37589047Y-14401080D01*
X37589047Y-14401080D02*
X38112857Y-14401080D01*
X38479523Y-14401080D02*
X39212857Y-15501080D01*
X39212857Y-14401080D02*
X38479523Y-15501080D01*
X39631904Y-15501080D02*
X39631904Y-14401080D01*
X39631904Y-14401080D02*
X40050952Y-14401080D01*
X40050952Y-14401080D02*
X40155714Y-14453461D01*
X40155714Y-14453461D02*
X40208095Y-14505842D01*
X40208095Y-14505842D02*
X40260476Y-14610604D01*
X40260476Y-14610604D02*
X40260476Y-14767747D01*
X40260476Y-14767747D02*
X40208095Y-14872509D01*
X40208095Y-14872509D02*
X40155714Y-14924890D01*
X40155714Y-14924890D02*
X40050952Y-14977271D01*
X40050952Y-14977271D02*
X39631904Y-14977271D01*
X40679523Y-15186795D02*
X41203333Y-15186795D01*
X40574761Y-15501080D02*
X40941428Y-14401080D01*
X40941428Y-14401080D02*
X41308095Y-15501080D01*
X41674761Y-15501080D02*
X41674761Y-14401080D01*
X41674761Y-14401080D02*
X42303333Y-15501080D01*
X42303333Y-15501080D02*
X42303333Y-14401080D01*
X42774761Y-15448700D02*
X42931904Y-15501080D01*
X42931904Y-15501080D02*
X43193809Y-15501080D01*
X43193809Y-15501080D02*
X43298571Y-15448700D01*
X43298571Y-15448700D02*
X43350952Y-15396319D01*
X43350952Y-15396319D02*
X43403333Y-15291557D01*
X43403333Y-15291557D02*
X43403333Y-15186795D01*
X43403333Y-15186795D02*
X43350952Y-15082033D01*
X43350952Y-15082033D02*
X43298571Y-15029652D01*
X43298571Y-15029652D02*
X43193809Y-14977271D01*
X43193809Y-14977271D02*
X42984285Y-14924890D01*
X42984285Y-14924890D02*
X42879523Y-14872509D01*
X42879523Y-14872509D02*
X42827142Y-14820128D01*
X42827142Y-14820128D02*
X42774761Y-14715366D01*
X42774761Y-14715366D02*
X42774761Y-14610604D01*
X42774761Y-14610604D02*
X42827142Y-14505842D01*
X42827142Y-14505842D02*
X42879523Y-14453461D01*
X42879523Y-14453461D02*
X42984285Y-14401080D01*
X42984285Y-14401080D02*
X43246190Y-14401080D01*
X43246190Y-14401080D02*
X43403333Y-14453461D01*
X43822380Y-15186795D02*
X44346190Y-15186795D01*
X43717618Y-15501080D02*
X44084285Y-14401080D01*
X44084285Y-14401080D02*
X44450952Y-15501080D01*
X45027142Y-14401080D02*
X45236666Y-14401080D01*
X45236666Y-14401080D02*
X45341428Y-14453461D01*
X45341428Y-14453461D02*
X45446190Y-14558223D01*
X45446190Y-14558223D02*
X45498571Y-14767747D01*
X45498571Y-14767747D02*
X45498571Y-15134414D01*
X45498571Y-15134414D02*
X45446190Y-15343938D01*
X45446190Y-15343938D02*
X45341428Y-15448700D01*
X45341428Y-15448700D02*
X45236666Y-15501080D01*
X45236666Y-15501080D02*
X45027142Y-15501080D01*
X45027142Y-15501080D02*
X44922380Y-15448700D01*
X44922380Y-15448700D02*
X44817618Y-15343938D01*
X44817618Y-15343938D02*
X44765237Y-15134414D01*
X44765237Y-15134414D02*
X44765237Y-14767747D01*
X44765237Y-14767747D02*
X44817618Y-14558223D01*
X44817618Y-14558223D02*
X44922380Y-14453461D01*
X44922380Y-14453461D02*
X45027142Y-14401080D01*
X46808094Y-15501080D02*
X46808094Y-14401080D01*
X46808094Y-14401080D02*
X47069999Y-14401080D01*
X47069999Y-14401080D02*
X47227142Y-14453461D01*
X47227142Y-14453461D02*
X47331904Y-14558223D01*
X47331904Y-14558223D02*
X47384285Y-14662985D01*
X47384285Y-14662985D02*
X47436666Y-14872509D01*
X47436666Y-14872509D02*
X47436666Y-15029652D01*
X47436666Y-15029652D02*
X47384285Y-15239176D01*
X47384285Y-15239176D02*
X47331904Y-15343938D01*
X47331904Y-15343938D02*
X47227142Y-15448700D01*
X47227142Y-15448700D02*
X47069999Y-15501080D01*
X47069999Y-15501080D02*
X46808094Y-15501080D01*
X48117618Y-14401080D02*
X48327142Y-14401080D01*
X48327142Y-14401080D02*
X48431904Y-14453461D01*
X48431904Y-14453461D02*
X48536666Y-14558223D01*
X48536666Y-14558223D02*
X48589047Y-14767747D01*
X48589047Y-14767747D02*
X48589047Y-15134414D01*
X48589047Y-15134414D02*
X48536666Y-15343938D01*
X48536666Y-15343938D02*
X48431904Y-15448700D01*
X48431904Y-15448700D02*
X48327142Y-15501080D01*
X48327142Y-15501080D02*
X48117618Y-15501080D01*
X48117618Y-15501080D02*
X48012856Y-15448700D01*
X48012856Y-15448700D02*
X47908094Y-15343938D01*
X47908094Y-15343938D02*
X47855713Y-15134414D01*
X47855713Y-15134414D02*
X47855713Y-14767747D01*
X47855713Y-14767747D02*
X47908094Y-14558223D01*
X47908094Y-14558223D02*
X48012856Y-14453461D01*
X48012856Y-14453461D02*
X48117618Y-14401080D01*
X50265237Y-14924890D02*
X50422380Y-14977271D01*
X50422380Y-14977271D02*
X50474761Y-15029652D01*
X50474761Y-15029652D02*
X50527142Y-15134414D01*
X50527142Y-15134414D02*
X50527142Y-15291557D01*
X50527142Y-15291557D02*
X50474761Y-15396319D01*
X50474761Y-15396319D02*
X50422380Y-15448700D01*
X50422380Y-15448700D02*
X50317618Y-15501080D01*
X50317618Y-15501080D02*
X49898570Y-15501080D01*
X49898570Y-15501080D02*
X49898570Y-14401080D01*
X49898570Y-14401080D02*
X50265237Y-14401080D01*
X50265237Y-14401080D02*
X50369999Y-14453461D01*
X50369999Y-14453461D02*
X50422380Y-14505842D01*
X50422380Y-14505842D02*
X50474761Y-14610604D01*
X50474761Y-14610604D02*
X50474761Y-14715366D01*
X50474761Y-14715366D02*
X50422380Y-14820128D01*
X50422380Y-14820128D02*
X50369999Y-14872509D01*
X50369999Y-14872509D02*
X50265237Y-14924890D01*
X50265237Y-14924890D02*
X49898570Y-14924890D01*
X50946189Y-15186795D02*
X51469999Y-15186795D01*
X50841427Y-15501080D02*
X51208094Y-14401080D01*
X51208094Y-14401080D02*
X51574761Y-15501080D01*
X52569999Y-15501080D02*
X52203332Y-14977271D01*
X51941427Y-15501080D02*
X51941427Y-14401080D01*
X51941427Y-14401080D02*
X52360475Y-14401080D01*
X52360475Y-14401080D02*
X52465237Y-14453461D01*
X52465237Y-14453461D02*
X52517618Y-14505842D01*
X52517618Y-14505842D02*
X52569999Y-14610604D01*
X52569999Y-14610604D02*
X52569999Y-14767747D01*
X52569999Y-14767747D02*
X52517618Y-14872509D01*
X52517618Y-14872509D02*
X52465237Y-14924890D01*
X52465237Y-14924890D02*
X52360475Y-14977271D01*
X52360475Y-14977271D02*
X51941427Y-14977271D01*
X53669999Y-15501080D02*
X53303332Y-14977271D01*
X53041427Y-15501080D02*
X53041427Y-14401080D01*
X53041427Y-14401080D02*
X53460475Y-14401080D01*
X53460475Y-14401080D02*
X53565237Y-14453461D01*
X53565237Y-14453461D02*
X53617618Y-14505842D01*
X53617618Y-14505842D02*
X53669999Y-14610604D01*
X53669999Y-14610604D02*
X53669999Y-14767747D01*
X53669999Y-14767747D02*
X53617618Y-14872509D01*
X53617618Y-14872509D02*
X53565237Y-14924890D01*
X53565237Y-14924890D02*
X53460475Y-14977271D01*
X53460475Y-14977271D02*
X53041427Y-14977271D01*
X54089046Y-15186795D02*
X54612856Y-15186795D01*
X53984284Y-15501080D02*
X54350951Y-14401080D01*
X54350951Y-14401080D02*
X54717618Y-15501080D01*
X55084284Y-15501080D02*
X55084284Y-14401080D01*
X55084284Y-14401080D02*
X55450951Y-15186795D01*
X55450951Y-15186795D02*
X55817618Y-14401080D01*
X55817618Y-14401080D02*
X55817618Y-15501080D01*
X56341427Y-14924890D02*
X56708094Y-14924890D01*
X56865237Y-15501080D02*
X56341427Y-15501080D01*
X56341427Y-15501080D02*
X56341427Y-14401080D01*
X56341427Y-14401080D02*
X56865237Y-14401080D01*
X57336665Y-15501080D02*
X57336665Y-14401080D01*
X57336665Y-14401080D02*
X57965237Y-15501080D01*
X57965237Y-15501080D02*
X57965237Y-14401080D01*
X58331903Y-14401080D02*
X58960475Y-14401080D01*
X58646189Y-15501080D02*
X58646189Y-14401080D01*
X59536665Y-14401080D02*
X59746189Y-14401080D01*
X59746189Y-14401080D02*
X59850951Y-14453461D01*
X59850951Y-14453461D02*
X59955713Y-14558223D01*
X59955713Y-14558223D02*
X60008094Y-14767747D01*
X60008094Y-14767747D02*
X60008094Y-15134414D01*
X60008094Y-15134414D02*
X59955713Y-15343938D01*
X59955713Y-15343938D02*
X59850951Y-15448700D01*
X59850951Y-15448700D02*
X59746189Y-15501080D01*
X59746189Y-15501080D02*
X59536665Y-15501080D01*
X59536665Y-15501080D02*
X59431903Y-15448700D01*
X59431903Y-15448700D02*
X59327141Y-15343938D01*
X59327141Y-15343938D02*
X59274760Y-15134414D01*
X59274760Y-15134414D02*
X59274760Y-14767747D01*
X59274760Y-14767747D02*
X59327141Y-14558223D01*
X59327141Y-14558223D02*
X59431903Y-14453461D01*
X59431903Y-14453461D02*
X59536665Y-14401080D01*
X53742858Y-34547342D02*
X53742858Y-33347342D01*
X53742858Y-33347342D02*
X54200001Y-33347342D01*
X54200001Y-33347342D02*
X54314286Y-33404485D01*
X54314286Y-33404485D02*
X54371429Y-33461628D01*
X54371429Y-33461628D02*
X54428572Y-33575914D01*
X54428572Y-33575914D02*
X54428572Y-33747342D01*
X54428572Y-33747342D02*
X54371429Y-33861628D01*
X54371429Y-33861628D02*
X54314286Y-33918771D01*
X54314286Y-33918771D02*
X54200001Y-33975914D01*
X54200001Y-33975914D02*
X53742858Y-33975914D01*
X54885715Y-34204485D02*
X55457144Y-34204485D01*
X54771429Y-34547342D02*
X55171429Y-33347342D01*
X55171429Y-33347342D02*
X55571429Y-34547342D01*
X55914286Y-34490200D02*
X56085715Y-34547342D01*
X56085715Y-34547342D02*
X56371429Y-34547342D01*
X56371429Y-34547342D02*
X56485715Y-34490200D01*
X56485715Y-34490200D02*
X56542857Y-34433057D01*
X56542857Y-34433057D02*
X56600000Y-34318771D01*
X56600000Y-34318771D02*
X56600000Y-34204485D01*
X56600000Y-34204485D02*
X56542857Y-34090200D01*
X56542857Y-34090200D02*
X56485715Y-34033057D01*
X56485715Y-34033057D02*
X56371429Y-33975914D01*
X56371429Y-33975914D02*
X56142857Y-33918771D01*
X56142857Y-33918771D02*
X56028572Y-33861628D01*
X56028572Y-33861628D02*
X55971429Y-33804485D01*
X55971429Y-33804485D02*
X55914286Y-33690200D01*
X55914286Y-33690200D02*
X55914286Y-33575914D01*
X55914286Y-33575914D02*
X55971429Y-33461628D01*
X55971429Y-33461628D02*
X56028572Y-33404485D01*
X56028572Y-33404485D02*
X56142857Y-33347342D01*
X56142857Y-33347342D02*
X56428572Y-33347342D01*
X56428572Y-33347342D02*
X56600000Y-33404485D01*
X57057143Y-34490200D02*
X57228572Y-34547342D01*
X57228572Y-34547342D02*
X57514286Y-34547342D01*
X57514286Y-34547342D02*
X57628572Y-34490200D01*
X57628572Y-34490200D02*
X57685714Y-34433057D01*
X57685714Y-34433057D02*
X57742857Y-34318771D01*
X57742857Y-34318771D02*
X57742857Y-34204485D01*
X57742857Y-34204485D02*
X57685714Y-34090200D01*
X57685714Y-34090200D02*
X57628572Y-34033057D01*
X57628572Y-34033057D02*
X57514286Y-33975914D01*
X57514286Y-33975914D02*
X57285714Y-33918771D01*
X57285714Y-33918771D02*
X57171429Y-33861628D01*
X57171429Y-33861628D02*
X57114286Y-33804485D01*
X57114286Y-33804485D02*
X57057143Y-33690200D01*
X57057143Y-33690200D02*
X57057143Y-33575914D01*
X57057143Y-33575914D02*
X57114286Y-33461628D01*
X57114286Y-33461628D02*
X57171429Y-33404485D01*
X57171429Y-33404485D02*
X57285714Y-33347342D01*
X57285714Y-33347342D02*
X57571429Y-33347342D01*
X57571429Y-33347342D02*
X57742857Y-33404485D01*
X58200000Y-34204485D02*
X58771429Y-34204485D01*
X58085714Y-34547342D02*
X58485714Y-33347342D01*
X58485714Y-33347342D02*
X58885714Y-34547342D01*
X59914285Y-33404485D02*
X59800000Y-33347342D01*
X59800000Y-33347342D02*
X59628571Y-33347342D01*
X59628571Y-33347342D02*
X59457142Y-33404485D01*
X59457142Y-33404485D02*
X59342857Y-33518771D01*
X59342857Y-33518771D02*
X59285714Y-33633057D01*
X59285714Y-33633057D02*
X59228571Y-33861628D01*
X59228571Y-33861628D02*
X59228571Y-34033057D01*
X59228571Y-34033057D02*
X59285714Y-34261628D01*
X59285714Y-34261628D02*
X59342857Y-34375914D01*
X59342857Y-34375914D02*
X59457142Y-34490200D01*
X59457142Y-34490200D02*
X59628571Y-34547342D01*
X59628571Y-34547342D02*
X59742857Y-34547342D01*
X59742857Y-34547342D02*
X59914285Y-34490200D01*
X59914285Y-34490200D02*
X59971428Y-34433057D01*
X59971428Y-34433057D02*
X59971428Y-34033057D01*
X59971428Y-34033057D02*
X59742857Y-34033057D01*
X60485714Y-33918771D02*
X60885714Y-33918771D01*
X61057142Y-34547342D02*
X60485714Y-34547342D01*
X60485714Y-34547342D02*
X60485714Y-33347342D01*
X60485714Y-33347342D02*
X61057142Y-33347342D01*
X61571428Y-34547342D02*
X61571428Y-33347342D01*
X61571428Y-33347342D02*
X61971428Y-34204485D01*
X61971428Y-34204485D02*
X62371428Y-33347342D01*
X62371428Y-33347342D02*
X62371428Y-34547342D01*
X63857143Y-34090200D02*
X64771429Y-34090200D01*
X65342857Y-33747342D02*
X66257143Y-34090200D01*
X66257143Y-34090200D02*
X65342857Y-34433057D01*
X8333333Y-23359580D02*
X8285714Y-23407200D01*
X8285714Y-23407200D02*
X8142857Y-23454819D01*
X8142857Y-23454819D02*
X8047619Y-23454819D01*
X8047619Y-23454819D02*
X7904762Y-23407200D01*
X7904762Y-23407200D02*
X7809524Y-23311961D01*
X7809524Y-23311961D02*
X7761905Y-23216723D01*
X7761905Y-23216723D02*
X7714286Y-23026247D01*
X7714286Y-23026247D02*
X7714286Y-22883390D01*
X7714286Y-22883390D02*
X7761905Y-22692914D01*
X7761905Y-22692914D02*
X7809524Y-22597676D01*
X7809524Y-22597676D02*
X7904762Y-22502438D01*
X7904762Y-22502438D02*
X8047619Y-22454819D01*
X8047619Y-22454819D02*
X8142857Y-22454819D01*
X8142857Y-22454819D02*
X8285714Y-22502438D01*
X8285714Y-22502438D02*
X8333333Y-22550057D01*
X9285714Y-23454819D02*
X8714286Y-23454819D01*
X9000000Y-23454819D02*
X9000000Y-22454819D01*
X9000000Y-22454819D02*
X8904762Y-22597676D01*
X8904762Y-22597676D02*
X8809524Y-22692914D01*
X8809524Y-22692914D02*
X8714286Y-22740533D01*
X39036666Y45180D02*
X39036666Y-669104D01*
X39036666Y-669104D02*
X38989047Y-811961D01*
X38989047Y-811961D02*
X38893809Y-907200D01*
X38893809Y-907200D02*
X38750952Y-954819D01*
X38750952Y-954819D02*
X38655714Y-954819D01*
X40036666Y-954819D02*
X39465238Y-954819D01*
X39750952Y-954819D02*
X39750952Y45180D01*
X39750952Y45180D02*
X39655714Y-97676D01*
X39655714Y-97676D02*
X39560476Y-192914D01*
X39560476Y-192914D02*
X39465238Y-240533D01*
X4865714Y-808557D02*
X4437142Y-808557D01*
X4437142Y-808557D02*
X4394285Y-1237128D01*
X4394285Y-1237128D02*
X4437142Y-1194271D01*
X4437142Y-1194271D02*
X4522857Y-1151414D01*
X4522857Y-1151414D02*
X4737142Y-1151414D01*
X4737142Y-1151414D02*
X4822857Y-1194271D01*
X4822857Y-1194271D02*
X4865714Y-1237128D01*
X4865714Y-1237128D02*
X4908571Y-1322842D01*
X4908571Y-1322842D02*
X4908571Y-1537128D01*
X4908571Y-1537128D02*
X4865714Y-1622842D01*
X4865714Y-1622842D02*
X4822857Y-1665700D01*
X4822857Y-1665700D02*
X4737142Y-1708557D01*
X4737142Y-1708557D02*
X4522857Y-1708557D01*
X4522857Y-1708557D02*
X4437142Y-1665700D01*
X4437142Y-1665700D02*
X4394285Y-1622842D01*
X5680000Y-808557D02*
X5508571Y-808557D01*
X5508571Y-808557D02*
X5422857Y-851414D01*
X5422857Y-851414D02*
X5380000Y-894271D01*
X5380000Y-894271D02*
X5294285Y-1022842D01*
X5294285Y-1022842D02*
X5251428Y-1194271D01*
X5251428Y-1194271D02*
X5251428Y-1537128D01*
X5251428Y-1537128D02*
X5294285Y-1622842D01*
X5294285Y-1622842D02*
X5337142Y-1665700D01*
X5337142Y-1665700D02*
X5422857Y-1708557D01*
X5422857Y-1708557D02*
X5594285Y-1708557D01*
X5594285Y-1708557D02*
X5680000Y-1665700D01*
X5680000Y-1665700D02*
X5722857Y-1622842D01*
X5722857Y-1622842D02*
X5765714Y-1537128D01*
X5765714Y-1537128D02*
X5765714Y-1322842D01*
X5765714Y-1322842D02*
X5722857Y-1237128D01*
X5722857Y-1237128D02*
X5680000Y-1194271D01*
X5680000Y-1194271D02*
X5594285Y-1151414D01*
X5594285Y-1151414D02*
X5422857Y-1151414D01*
X5422857Y-1151414D02*
X5337142Y-1194271D01*
X5337142Y-1194271D02*
X5294285Y-1237128D01*
X5294285Y-1237128D02*
X5251428Y-1322842D01*
X5337143Y-12108557D02*
X4822857Y-12108557D01*
X5080000Y-12108557D02*
X5080000Y-11208557D01*
X5080000Y-11208557D02*
X4994286Y-11337128D01*
X4994286Y-11337128D02*
X4908571Y-11422842D01*
X4908571Y-11422842D02*
X4822857Y-11465700D01*
X72974285Y-894271D02*
X73017142Y-851414D01*
X73017142Y-851414D02*
X73102857Y-808557D01*
X73102857Y-808557D02*
X73317142Y-808557D01*
X73317142Y-808557D02*
X73402857Y-851414D01*
X73402857Y-851414D02*
X73445714Y-894271D01*
X73445714Y-894271D02*
X73488571Y-979985D01*
X73488571Y-979985D02*
X73488571Y-1065700D01*
X73488571Y-1065700D02*
X73445714Y-1194271D01*
X73445714Y-1194271D02*
X72931428Y-1708557D01*
X72931428Y-1708557D02*
X73488571Y-1708557D01*
X73917142Y-1708557D02*
X74088571Y-1708557D01*
X74088571Y-1708557D02*
X74174285Y-1665700D01*
X74174285Y-1665700D02*
X74217142Y-1622842D01*
X74217142Y-1622842D02*
X74302857Y-1494271D01*
X74302857Y-1494271D02*
X74345714Y-1322842D01*
X74345714Y-1322842D02*
X74345714Y-979985D01*
X74345714Y-979985D02*
X74302857Y-894271D01*
X74302857Y-894271D02*
X74260000Y-851414D01*
X74260000Y-851414D02*
X74174285Y-808557D01*
X74174285Y-808557D02*
X74002857Y-808557D01*
X74002857Y-808557D02*
X73917142Y-851414D01*
X73917142Y-851414D02*
X73874285Y-894271D01*
X73874285Y-894271D02*
X73831428Y-979985D01*
X73831428Y-979985D02*
X73831428Y-1194271D01*
X73831428Y-1194271D02*
X73874285Y-1279985D01*
X73874285Y-1279985D02*
X73917142Y-1322842D01*
X73917142Y-1322842D02*
X74002857Y-1365700D01*
X74002857Y-1365700D02*
X74174285Y-1365700D01*
X74174285Y-1365700D02*
X74260000Y-1322842D01*
X74260000Y-1322842D02*
X74302857Y-1279985D01*
X74302857Y-1279985D02*
X74345714Y-1194271D01*
X72974285Y-11294271D02*
X73017142Y-11251414D01*
X73017142Y-11251414D02*
X73102857Y-11208557D01*
X73102857Y-11208557D02*
X73317142Y-11208557D01*
X73317142Y-11208557D02*
X73402857Y-11251414D01*
X73402857Y-11251414D02*
X73445714Y-11294271D01*
X73445714Y-11294271D02*
X73488571Y-11379985D01*
X73488571Y-11379985D02*
X73488571Y-11465700D01*
X73488571Y-11465700D02*
X73445714Y-11594271D01*
X73445714Y-11594271D02*
X72931428Y-12108557D01*
X72931428Y-12108557D02*
X73488571Y-12108557D01*
X74002857Y-11594271D02*
X73917142Y-11551414D01*
X73917142Y-11551414D02*
X73874285Y-11508557D01*
X73874285Y-11508557D02*
X73831428Y-11422842D01*
X73831428Y-11422842D02*
X73831428Y-11379985D01*
X73831428Y-11379985D02*
X73874285Y-11294271D01*
X73874285Y-11294271D02*
X73917142Y-11251414D01*
X73917142Y-11251414D02*
X74002857Y-11208557D01*
X74002857Y-11208557D02*
X74174285Y-11208557D01*
X74174285Y-11208557D02*
X74260000Y-11251414D01*
X74260000Y-11251414D02*
X74302857Y-11294271D01*
X74302857Y-11294271D02*
X74345714Y-11379985D01*
X74345714Y-11379985D02*
X74345714Y-11422842D01*
X74345714Y-11422842D02*
X74302857Y-11508557D01*
X74302857Y-11508557D02*
X74260000Y-11551414D01*
X74260000Y-11551414D02*
X74174285Y-11594271D01*
X74174285Y-11594271D02*
X74002857Y-11594271D01*
X74002857Y-11594271D02*
X73917142Y-11637128D01*
X73917142Y-11637128D02*
X73874285Y-11679985D01*
X73874285Y-11679985D02*
X73831428Y-11765700D01*
X73831428Y-11765700D02*
X73831428Y-11937128D01*
X73831428Y-11937128D02*
X73874285Y-12022842D01*
X73874285Y-12022842D02*
X73917142Y-12065700D01*
X73917142Y-12065700D02*
X74002857Y-12108557D01*
X74002857Y-12108557D02*
X74174285Y-12108557D01*
X74174285Y-12108557D02*
X74260000Y-12065700D01*
X74260000Y-12065700D02*
X74302857Y-12022842D01*
X74302857Y-12022842D02*
X74345714Y-11937128D01*
X74345714Y-11937128D02*
X74345714Y-11765700D01*
X74345714Y-11765700D02*
X74302857Y-11679985D01*
X74302857Y-11679985D02*
X74260000Y-11637128D01*
X74260000Y-11637128D02*
X74174285Y-11594271D01*
X39036666Y-34144819D02*
X39036666Y-34859104D01*
X39036666Y-34859104D02*
X38989047Y-35001961D01*
X38989047Y-35001961D02*
X38893809Y-35097200D01*
X38893809Y-35097200D02*
X38750952Y-35144819D01*
X38750952Y-35144819D02*
X38655714Y-35144819D01*
X39465238Y-34240057D02*
X39512857Y-34192438D01*
X39512857Y-34192438D02*
X39608095Y-34144819D01*
X39608095Y-34144819D02*
X39846190Y-34144819D01*
X39846190Y-34144819D02*
X39941428Y-34192438D01*
X39941428Y-34192438D02*
X39989047Y-34240057D01*
X39989047Y-34240057D02*
X40036666Y-34335295D01*
X40036666Y-34335295D02*
X40036666Y-34430533D01*
X40036666Y-34430533D02*
X39989047Y-34573390D01*
X39989047Y-34573390D02*
X39417619Y-35144819D01*
X39417619Y-35144819D02*
X40036666Y-35144819D01*
X4841904Y-35244819D02*
X4365714Y-35244819D01*
X4365714Y-35244819D02*
X4318095Y-35721009D01*
X4318095Y-35721009D02*
X4365714Y-35673390D01*
X4365714Y-35673390D02*
X4460952Y-35625771D01*
X4460952Y-35625771D02*
X4699047Y-35625771D01*
X4699047Y-35625771D02*
X4794285Y-35673390D01*
X4794285Y-35673390D02*
X4841904Y-35721009D01*
X4841904Y-35721009D02*
X4889523Y-35816247D01*
X4889523Y-35816247D02*
X4889523Y-36054342D01*
X4889523Y-36054342D02*
X4841904Y-36149580D01*
X4841904Y-36149580D02*
X4794285Y-36197200D01*
X4794285Y-36197200D02*
X4699047Y-36244819D01*
X4699047Y-36244819D02*
X4460952Y-36244819D01*
X4460952Y-36244819D02*
X4365714Y-36197200D01*
X4365714Y-36197200D02*
X4318095Y-36149580D01*
X5746666Y-35244819D02*
X5556190Y-35244819D01*
X5556190Y-35244819D02*
X5460952Y-35292438D01*
X5460952Y-35292438D02*
X5413333Y-35340057D01*
X5413333Y-35340057D02*
X5318095Y-35482914D01*
X5318095Y-35482914D02*
X5270476Y-35673390D01*
X5270476Y-35673390D02*
X5270476Y-36054342D01*
X5270476Y-36054342D02*
X5318095Y-36149580D01*
X5318095Y-36149580D02*
X5365714Y-36197200D01*
X5365714Y-36197200D02*
X5460952Y-36244819D01*
X5460952Y-36244819D02*
X5651428Y-36244819D01*
X5651428Y-36244819D02*
X5746666Y-36197200D01*
X5746666Y-36197200D02*
X5794285Y-36149580D01*
X5794285Y-36149580D02*
X5841904Y-36054342D01*
X5841904Y-36054342D02*
X5841904Y-35816247D01*
X5841904Y-35816247D02*
X5794285Y-35721009D01*
X5794285Y-35721009D02*
X5746666Y-35673390D01*
X5746666Y-35673390D02*
X5651428Y-35625771D01*
X5651428Y-35625771D02*
X5460952Y-35625771D01*
X5460952Y-35625771D02*
X5365714Y-35673390D01*
X5365714Y-35673390D02*
X5318095Y-35721009D01*
X5318095Y-35721009D02*
X5270476Y-35816247D01*
X72898095Y-35340057D02*
X72945714Y-35292438D01*
X72945714Y-35292438D02*
X73040952Y-35244819D01*
X73040952Y-35244819D02*
X73279047Y-35244819D01*
X73279047Y-35244819D02*
X73374285Y-35292438D01*
X73374285Y-35292438D02*
X73421904Y-35340057D01*
X73421904Y-35340057D02*
X73469523Y-35435295D01*
X73469523Y-35435295D02*
X73469523Y-35530533D01*
X73469523Y-35530533D02*
X73421904Y-35673390D01*
X73421904Y-35673390D02*
X72850476Y-36244819D01*
X72850476Y-36244819D02*
X73469523Y-36244819D01*
X73945714Y-36244819D02*
X74136190Y-36244819D01*
X74136190Y-36244819D02*
X74231428Y-36197200D01*
X74231428Y-36197200D02*
X74279047Y-36149580D01*
X74279047Y-36149580D02*
X74374285Y-36006723D01*
X74374285Y-36006723D02*
X74421904Y-35816247D01*
X74421904Y-35816247D02*
X74421904Y-35435295D01*
X74421904Y-35435295D02*
X74374285Y-35340057D01*
X74374285Y-35340057D02*
X74326666Y-35292438D01*
X74326666Y-35292438D02*
X74231428Y-35244819D01*
X74231428Y-35244819D02*
X74040952Y-35244819D01*
X74040952Y-35244819D02*
X73945714Y-35292438D01*
X73945714Y-35292438D02*
X73898095Y-35340057D01*
X73898095Y-35340057D02*
X73850476Y-35435295D01*
X73850476Y-35435295D02*
X73850476Y-35673390D01*
X73850476Y-35673390D02*
X73898095Y-35768628D01*
X73898095Y-35768628D02*
X73945714Y-35816247D01*
X73945714Y-35816247D02*
X74040952Y-35863866D01*
X74040952Y-35863866D02*
X74231428Y-35863866D01*
X74231428Y-35863866D02*
X74326666Y-35816247D01*
X74326666Y-35816247D02*
X74374285Y-35768628D01*
X74374285Y-35768628D02*
X74421904Y-35673390D01*
%TO.C,C1*%
D12*
X5880000Y-18630000D02*
X11120000Y-18630000D01*
X5880000Y-18967000D02*
X5880000Y-18630000D01*
X5880000Y-21370000D02*
X5880000Y-21033000D01*
X11120000Y-18630000D02*
X11120000Y-18967000D01*
X11120000Y-21033000D02*
X11120000Y-21370000D01*
X11120000Y-21370000D02*
X5880000Y-21370000D01*
%TO.C,J1*%
D11*
X3080000Y-2300000D02*
X75660000Y-2300000D01*
X3080000Y-10700000D02*
X3080000Y-2300000D01*
X75660000Y-2300000D02*
X75660000Y-10700000D01*
X75660000Y-10700000D02*
X3080000Y-10700000D01*
%TD*%
%LPC*%
D13*
%TO.C,C1*%
X6000000Y-20000000D03*
X11000000Y-20000000D03*
%TD*%
D14*
%TO.C,J1*%
X5080000Y-8925000D03*
X7620000Y-8925000D03*
X10160000Y-8925000D03*
X12700000Y-8925000D03*
X15240000Y-8925000D03*
X17780000Y-8925000D03*
X20320000Y-8925000D03*
X22860000Y-8925000D03*
X25400000Y-8925000D03*
X27940000Y-8925000D03*
X30480000Y-8925000D03*
X33020000Y-8925000D03*
X35560000Y-8925000D03*
X38100000Y-8925000D03*
X40640000Y-8925000D03*
X43180000Y-8925000D03*
X45720000Y-8925000D03*
X48260000Y-8925000D03*
X50800000Y-8925000D03*
X53340000Y-8925000D03*
X55880000Y-8925000D03*
X58420000Y-8925000D03*
X60960000Y-8925000D03*
X63500000Y-8925000D03*
X66040000Y-8925000D03*
X68580000Y-8925000D03*
X71120000Y-8925000D03*
X73660000Y-8925000D03*
X73660000Y-4075000D03*
X71120000Y-4075000D03*
X68580000Y-4075000D03*
X66040000Y-4075000D03*
X63500000Y-4075000D03*
X60960000Y-4075000D03*
X58420000Y-4075000D03*
X55880000Y-4075000D03*
X53340000Y-4075000D03*
X50800000Y-4075000D03*
X48260000Y-4075000D03*
X45720000Y-4075000D03*
X43180000Y-4075000D03*
X40640000Y-4075000D03*
X38100000Y-4075000D03*
X35560000Y-4075000D03*
X33020000Y-4075000D03*
X30480000Y-4075000D03*
X27940000Y-4075000D03*
X25400000Y-4075000D03*
X22860000Y-4075000D03*
X20320000Y-4075000D03*
X17780000Y-4075000D03*
X15240000Y-4075000D03*
X12700000Y-4075000D03*
X10160000Y-4075000D03*
X7620000Y-4075000D03*
X5080000Y-4075000D03*
%TD*%
D15*
%TO.C,J2*%
X73660000Y-41190000D03*
X71120000Y-41190000D03*
X68580000Y-41190000D03*
X66040000Y-41190000D03*
X63500000Y-41190000D03*
X60960000Y-41190000D03*
X58420000Y-41190000D03*
X55880000Y-41190000D03*
X53340000Y-41190000D03*
X50800000Y-41190000D03*
X48260000Y-41190000D03*
X45720000Y-41190000D03*
X43180000Y-41190000D03*
X40640000Y-41190000D03*
X38100000Y-41190000D03*
X35560000Y-41190000D03*
X33020000Y-41190000D03*
X30480000Y-41190000D03*
X27940000Y-41190000D03*
X25400000Y-41190000D03*
X22860000Y-41190000D03*
X20320000Y-41190000D03*
X17780000Y-41190000D03*
X12700000Y-41190000D03*
X10160000Y-41190000D03*
X7620000Y-41190000D03*
X5080000Y-41190000D03*
%TD*%
%LPD*%
M02*
