%TF.GenerationSoftware,KiCad,Pcbnew,10.0.4*%
%TF.CreationDate,2026-07-27T02:29:32-03:00*%
%TF.ProjectId,tkmem128-expansor,746b6d65-6d31-4323-982d-657870616e73,rev?*%
%TF.SameCoordinates,Original*%
%TF.FileFunction,Drillmap*%
%TF.FilePolarity,Positive*%
%FSLAX45Y45*%
G04 Gerber Fmt 4.5, Leading zero omitted, Abs format (unit mm)*
G04 Created by KiCad (PCBNEW 10.0.4) date 2026-07-27 02:29:32*
%MOMM*%
%LPD*%
G01*
G04 APERTURE LIST*
%ADD10C,0.100000*%
%ADD11C,0.200000*%
G04 APERTURE END LIST*
D10*
X0Y0D02*
X0Y-4500000D01*
X0Y0D02*
X7874000Y0D01*
X0Y-4500000D02*
X1434000Y-4500000D01*
X1434000Y-4000000D02*
X1614000Y-4000000D01*
X1434000Y-4500000D02*
X1434000Y-4000000D01*
X1614000Y-4000000D02*
X1614000Y-4500000D01*
X1614000Y-4500000D02*
X7874000Y-4500000D01*
X7874000Y0D02*
X7874000Y-4500000D01*
D11*
D10*
X490500Y-533360D02*
X525500Y-568360D01*
X525500Y-533360D02*
X490500Y-568360D01*
X514370Y-3670010D02*
X549370Y-3705010D01*
X549370Y-3670010D02*
X514370Y-3705010D01*
X628990Y-3690000D02*
X663990Y-3725000D01*
X663990Y-3690000D02*
X628990Y-3725000D01*
X709930Y-565090D02*
X744930Y-600090D01*
X744930Y-565090D02*
X709930Y-600090D01*
X970010Y-533910D02*
X1005010Y-568910D01*
X1005010Y-533910D02*
X970010Y-568910D01*
X998500Y-3666700D02*
X1033500Y-3701700D01*
X1033500Y-3666700D02*
X998500Y-3701700D01*
X1134020Y-519110D02*
X1169020Y-554110D01*
X1169020Y-519110D02*
X1134020Y-554110D01*
X1136990Y-3690000D02*
X1171990Y-3725000D01*
X1171990Y-3690000D02*
X1136990Y-3725000D01*
X1760500Y-533930D02*
X1795500Y-568930D01*
X1795500Y-533930D02*
X1760500Y-568930D01*
X1878490Y-3690820D02*
X1913490Y-3725820D01*
X1913490Y-3690820D02*
X1878490Y-3725820D01*
X1988280Y-533910D02*
X2023280Y-568910D01*
X2023280Y-533910D02*
X1988280Y-568910D01*
X2014500Y-3664050D02*
X2049500Y-3699050D01*
X2049500Y-3664050D02*
X2014500Y-3699050D01*
X2141500Y-3974500D02*
X2176500Y-4009500D01*
X2176500Y-3974500D02*
X2141500Y-4009500D01*
X2268500Y-535180D02*
X2303500Y-570180D01*
X2303500Y-535180D02*
X2268500Y-570180D01*
X2432480Y-3668450D02*
X2467480Y-3703450D01*
X2467480Y-3668450D02*
X2432480Y-3703450D01*
X2522500Y-538800D02*
X2557500Y-573800D01*
X2557500Y-538800D02*
X2522500Y-573800D01*
X2729570Y-3668450D02*
X2764570Y-3703450D01*
X2764570Y-3668450D02*
X2729570Y-3703450D01*
X2776500Y-532800D02*
X2811500Y-567800D01*
X2811500Y-532800D02*
X2776500Y-567800D01*
X2929060Y-3673410D02*
X2964060Y-3708410D01*
X2964060Y-3673410D02*
X2929060Y-3708410D01*
X3006050Y-534410D02*
X3041050Y-569410D01*
X3041050Y-534410D02*
X3006050Y-569410D01*
X3157500Y-3974500D02*
X3192500Y-4009500D01*
X3192500Y-3974500D02*
X3157500Y-4009500D01*
X3284500Y-536590D02*
X3319500Y-571590D01*
X3319500Y-536590D02*
X3284500Y-571590D01*
X3450750Y-3668450D02*
X3485750Y-3703450D01*
X3485750Y-3668450D02*
X3450750Y-3703450D01*
X3538500Y-534260D02*
X3573500Y-569260D01*
X3573500Y-534260D02*
X3538500Y-569260D01*
X3792500Y-537290D02*
X3827500Y-572290D01*
X3827500Y-537290D02*
X3792500Y-572290D01*
X3919570Y-3974430D02*
X3954570Y-4009430D01*
X3954570Y-3974430D02*
X3919570Y-4009430D01*
X4021250Y-533170D02*
X4056250Y-568170D01*
X4056250Y-533170D02*
X4021250Y-568170D01*
X4173500Y-3974500D02*
X4208500Y-4009500D01*
X4208500Y-3974500D02*
X4173500Y-4009500D01*
X4362360Y-3655870D02*
X4397360Y-3690870D01*
X4397360Y-3655870D02*
X4362360Y-3690870D01*
X4363820Y-559980D02*
X4398820Y-594980D01*
X4398820Y-559980D02*
X4363820Y-594980D01*
X4557340Y-532560D02*
X4592340Y-567560D01*
X4592340Y-532560D02*
X4557340Y-567560D01*
X4643670Y-3670010D02*
X4678670Y-3705010D01*
X4678670Y-3670010D02*
X4643670Y-3705010D01*
X4808500Y-535870D02*
X4843500Y-570870D01*
X4843500Y-535870D02*
X4808500Y-570870D01*
X4854500Y-3670560D02*
X4889500Y-3705560D01*
X4889500Y-3670560D02*
X4854500Y-3705560D01*
X4968870Y-3670960D02*
X5003870Y-3705960D01*
X5003870Y-3670960D02*
X4968870Y-3705960D01*
X5043550Y-533450D02*
X5078550Y-568450D01*
X5078550Y-533450D02*
X5043550Y-568450D01*
X5189500Y-3974500D02*
X5224500Y-4009500D01*
X5224500Y-3974500D02*
X5189500Y-4009500D01*
X5316500Y-533380D02*
X5351500Y-568380D01*
X5351500Y-533380D02*
X5316500Y-568380D01*
X5487290Y-3668450D02*
X5522290Y-3703450D01*
X5522290Y-3668450D02*
X5487290Y-3703450D01*
X5579870Y-534550D02*
X5614870Y-569550D01*
X5614870Y-534550D02*
X5579870Y-569550D01*
X5824500Y-534450D02*
X5859500Y-569450D01*
X5859500Y-534450D02*
X5824500Y-569450D01*
X5847890Y-3670440D02*
X5882890Y-3705440D01*
X5882890Y-3670440D02*
X5847890Y-3705440D01*
X5987140Y-3670960D02*
X6022140Y-3705960D01*
X6022140Y-3670960D02*
X5987140Y-3705960D01*
X6060260Y-535010D02*
X6095260Y-570010D01*
X6095260Y-535010D02*
X6060260Y-570010D01*
X6205500Y-3974500D02*
X6240500Y-4009500D01*
X6240500Y-3974500D02*
X6205500Y-4009500D01*
X6332500Y-534510D02*
X6367500Y-569510D01*
X6367500Y-534510D02*
X6332500Y-569510D01*
X6505560Y-3668450D02*
X6540560Y-3703450D01*
X6540560Y-3668450D02*
X6505560Y-3703450D01*
X6600130Y-534270D02*
X6635130Y-569270D01*
X6635130Y-534270D02*
X6600130Y-569270D01*
X6840500Y-533030D02*
X6875500Y-568030D01*
X6875500Y-533030D02*
X6840500Y-568030D01*
X6863430Y-3670900D02*
X6898430Y-3705900D01*
X6898430Y-3670900D02*
X6863430Y-3705900D01*
X7005410Y-3670960D02*
X7040410Y-3705960D01*
X7040410Y-3670960D02*
X7005410Y-3705960D01*
X7080470Y-533070D02*
X7115470Y-568070D01*
X7115470Y-533070D02*
X7080470Y-568070D01*
X7221500Y-3974500D02*
X7256500Y-4009500D01*
X7256500Y-3974500D02*
X7221500Y-4009500D01*
X7348500Y-535650D02*
X7383500Y-570650D01*
X7383500Y-535650D02*
X7348500Y-570650D01*
X3722630Y-2249950D02*
G75*
G02*
X3677630Y-2249950I-22500J0D01*
G01*
X3677630Y-2249950D02*
G75*
G02*
X3722630Y-2249950I22500J0D01*
G01*
X600000Y-1960000D02*
X600000Y-2040000D01*
X560000Y-2000000D02*
X640000Y-2000000D01*
X1100000Y-1960000D02*
X1100000Y-2040000D01*
X1060000Y-2000000D02*
X1140000Y-2000000D01*
D11*
X255777Y-4816484D02*
X255777Y-4616484D01*
X255777Y-4616484D02*
X303396Y-4616484D01*
X303396Y-4616484D02*
X331967Y-4626008D01*
X331967Y-4626008D02*
X351015Y-4645055D01*
X351015Y-4645055D02*
X360539Y-4664103D01*
X360539Y-4664103D02*
X370062Y-4702198D01*
X370062Y-4702198D02*
X370062Y-4730770D01*
X370062Y-4730770D02*
X360539Y-4768865D01*
X360539Y-4768865D02*
X351015Y-4787912D01*
X351015Y-4787912D02*
X331967Y-4806960D01*
X331967Y-4806960D02*
X303396Y-4816484D01*
X303396Y-4816484D02*
X255777Y-4816484D01*
X455777Y-4816484D02*
X455777Y-4683150D01*
X455777Y-4721246D02*
X465301Y-4702198D01*
X465301Y-4702198D02*
X474824Y-4692674D01*
X474824Y-4692674D02*
X493872Y-4683150D01*
X493872Y-4683150D02*
X512920Y-4683150D01*
X579586Y-4816484D02*
X579586Y-4683150D01*
X579586Y-4616484D02*
X570063Y-4626008D01*
X570063Y-4626008D02*
X579586Y-4635531D01*
X579586Y-4635531D02*
X589110Y-4626008D01*
X589110Y-4626008D02*
X579586Y-4616484D01*
X579586Y-4616484D02*
X579586Y-4635531D01*
X703396Y-4816484D02*
X684348Y-4806960D01*
X684348Y-4806960D02*
X674824Y-4787912D01*
X674824Y-4787912D02*
X674824Y-4616484D01*
X808158Y-4816484D02*
X789110Y-4806960D01*
X789110Y-4806960D02*
X779586Y-4787912D01*
X779586Y-4787912D02*
X779586Y-4616484D01*
X1036729Y-4816484D02*
X1036729Y-4616484D01*
X1036729Y-4616484D02*
X1103396Y-4759341D01*
X1103396Y-4759341D02*
X1170063Y-4616484D01*
X1170063Y-4616484D02*
X1170063Y-4816484D01*
X1351015Y-4816484D02*
X1351015Y-4711722D01*
X1351015Y-4711722D02*
X1341491Y-4692674D01*
X1341491Y-4692674D02*
X1322444Y-4683150D01*
X1322444Y-4683150D02*
X1284348Y-4683150D01*
X1284348Y-4683150D02*
X1265301Y-4692674D01*
X1351015Y-4806960D02*
X1331967Y-4816484D01*
X1331967Y-4816484D02*
X1284348Y-4816484D01*
X1284348Y-4816484D02*
X1265301Y-4806960D01*
X1265301Y-4806960D02*
X1255777Y-4787912D01*
X1255777Y-4787912D02*
X1255777Y-4768865D01*
X1255777Y-4768865D02*
X1265301Y-4749817D01*
X1265301Y-4749817D02*
X1284348Y-4740293D01*
X1284348Y-4740293D02*
X1331967Y-4740293D01*
X1331967Y-4740293D02*
X1351015Y-4730770D01*
X1446253Y-4683150D02*
X1446253Y-4883150D01*
X1446253Y-4692674D02*
X1465301Y-4683150D01*
X1465301Y-4683150D02*
X1503396Y-4683150D01*
X1503396Y-4683150D02*
X1522443Y-4692674D01*
X1522443Y-4692674D02*
X1531967Y-4702198D01*
X1531967Y-4702198D02*
X1541491Y-4721246D01*
X1541491Y-4721246D02*
X1541491Y-4778389D01*
X1541491Y-4778389D02*
X1531967Y-4797436D01*
X1531967Y-4797436D02*
X1522443Y-4806960D01*
X1522443Y-4806960D02*
X1503396Y-4816484D01*
X1503396Y-4816484D02*
X1465301Y-4816484D01*
X1465301Y-4816484D02*
X1446253Y-4806960D01*
X1627205Y-4797436D02*
X1636729Y-4806960D01*
X1636729Y-4806960D02*
X1627205Y-4816484D01*
X1627205Y-4816484D02*
X1617682Y-4806960D01*
X1617682Y-4806960D02*
X1627205Y-4797436D01*
X1627205Y-4797436D02*
X1627205Y-4816484D01*
X1627205Y-4692674D02*
X1636729Y-4702198D01*
X1636729Y-4702198D02*
X1627205Y-4711722D01*
X1627205Y-4711722D02*
X1617682Y-4702198D01*
X1617682Y-4702198D02*
X1627205Y-4692674D01*
X1627205Y-4692674D02*
X1627205Y-4711722D01*
D10*
X-40000Y-5127500D02*
X-5000Y-5162500D01*
X-5000Y-5127500D02*
X-40000Y-5162500D01*
D11*
X293872Y-5036484D02*
X312920Y-5036484D01*
X312920Y-5036484D02*
X331967Y-5046008D01*
X331967Y-5046008D02*
X341491Y-5055531D01*
X341491Y-5055531D02*
X351015Y-5074579D01*
X351015Y-5074579D02*
X360539Y-5112674D01*
X360539Y-5112674D02*
X360539Y-5160293D01*
X360539Y-5160293D02*
X351015Y-5198389D01*
X351015Y-5198389D02*
X341491Y-5217436D01*
X341491Y-5217436D02*
X331967Y-5226960D01*
X331967Y-5226960D02*
X312920Y-5236484D01*
X312920Y-5236484D02*
X293872Y-5236484D01*
X293872Y-5236484D02*
X274824Y-5226960D01*
X274824Y-5226960D02*
X265301Y-5217436D01*
X265301Y-5217436D02*
X255777Y-5198389D01*
X255777Y-5198389D02*
X246253Y-5160293D01*
X246253Y-5160293D02*
X246253Y-5112674D01*
X246253Y-5112674D02*
X255777Y-5074579D01*
X255777Y-5074579D02*
X265301Y-5055531D01*
X265301Y-5055531D02*
X274824Y-5046008D01*
X274824Y-5046008D02*
X293872Y-5036484D01*
X455777Y-5226960D02*
X455777Y-5236484D01*
X455777Y-5236484D02*
X446253Y-5255531D01*
X446253Y-5255531D02*
X436729Y-5265055D01*
X522443Y-5036484D02*
X646253Y-5036484D01*
X646253Y-5036484D02*
X579586Y-5112674D01*
X579586Y-5112674D02*
X608158Y-5112674D01*
X608158Y-5112674D02*
X627205Y-5122198D01*
X627205Y-5122198D02*
X636729Y-5131722D01*
X636729Y-5131722D02*
X646253Y-5150770D01*
X646253Y-5150770D02*
X646253Y-5198389D01*
X646253Y-5198389D02*
X636729Y-5217436D01*
X636729Y-5217436D02*
X627205Y-5226960D01*
X627205Y-5226960D02*
X608158Y-5236484D01*
X608158Y-5236484D02*
X551015Y-5236484D01*
X551015Y-5236484D02*
X531967Y-5226960D01*
X531967Y-5226960D02*
X522443Y-5217436D01*
X827205Y-5036484D02*
X731967Y-5036484D01*
X731967Y-5036484D02*
X722443Y-5131722D01*
X722443Y-5131722D02*
X731967Y-5122198D01*
X731967Y-5122198D02*
X751015Y-5112674D01*
X751015Y-5112674D02*
X798634Y-5112674D01*
X798634Y-5112674D02*
X817682Y-5122198D01*
X817682Y-5122198D02*
X827205Y-5131722D01*
X827205Y-5131722D02*
X836729Y-5150770D01*
X836729Y-5150770D02*
X836729Y-5198389D01*
X836729Y-5198389D02*
X827205Y-5217436D01*
X827205Y-5217436D02*
X817682Y-5226960D01*
X817682Y-5226960D02*
X798634Y-5236484D01*
X798634Y-5236484D02*
X751015Y-5236484D01*
X751015Y-5236484D02*
X731967Y-5226960D01*
X731967Y-5226960D02*
X722443Y-5217436D01*
X960539Y-5036484D02*
X979586Y-5036484D01*
X979586Y-5036484D02*
X998634Y-5046008D01*
X998634Y-5046008D02*
X1008158Y-5055531D01*
X1008158Y-5055531D02*
X1017682Y-5074579D01*
X1017682Y-5074579D02*
X1027205Y-5112674D01*
X1027205Y-5112674D02*
X1027205Y-5160293D01*
X1027205Y-5160293D02*
X1017682Y-5198389D01*
X1017682Y-5198389D02*
X1008158Y-5217436D01*
X1008158Y-5217436D02*
X998634Y-5226960D01*
X998634Y-5226960D02*
X979586Y-5236484D01*
X979586Y-5236484D02*
X960539Y-5236484D01*
X960539Y-5236484D02*
X941491Y-5226960D01*
X941491Y-5226960D02*
X931967Y-5217436D01*
X931967Y-5217436D02*
X922443Y-5198389D01*
X922443Y-5198389D02*
X912920Y-5160293D01*
X912920Y-5160293D02*
X912920Y-5112674D01*
X912920Y-5112674D02*
X922443Y-5074579D01*
X922443Y-5074579D02*
X931967Y-5055531D01*
X931967Y-5055531D02*
X941491Y-5046008D01*
X941491Y-5046008D02*
X960539Y-5036484D01*
X1112920Y-5236484D02*
X1112920Y-5103150D01*
X1112920Y-5122198D02*
X1122444Y-5112674D01*
X1122444Y-5112674D02*
X1141491Y-5103150D01*
X1141491Y-5103150D02*
X1170063Y-5103150D01*
X1170063Y-5103150D02*
X1189110Y-5112674D01*
X1189110Y-5112674D02*
X1198634Y-5131722D01*
X1198634Y-5131722D02*
X1198634Y-5236484D01*
X1198634Y-5131722D02*
X1208158Y-5112674D01*
X1208158Y-5112674D02*
X1227205Y-5103150D01*
X1227205Y-5103150D02*
X1255777Y-5103150D01*
X1255777Y-5103150D02*
X1274825Y-5112674D01*
X1274825Y-5112674D02*
X1284348Y-5131722D01*
X1284348Y-5131722D02*
X1284348Y-5236484D01*
X1379586Y-5236484D02*
X1379586Y-5103150D01*
X1379586Y-5122198D02*
X1389110Y-5112674D01*
X1389110Y-5112674D02*
X1408158Y-5103150D01*
X1408158Y-5103150D02*
X1436729Y-5103150D01*
X1436729Y-5103150D02*
X1455777Y-5112674D01*
X1455777Y-5112674D02*
X1465301Y-5131722D01*
X1465301Y-5131722D02*
X1465301Y-5236484D01*
X1465301Y-5131722D02*
X1474824Y-5112674D01*
X1474824Y-5112674D02*
X1493872Y-5103150D01*
X1493872Y-5103150D02*
X1522443Y-5103150D01*
X1522443Y-5103150D02*
X1541491Y-5112674D01*
X1541491Y-5112674D02*
X1551015Y-5131722D01*
X1551015Y-5131722D02*
X1551015Y-5236484D01*
X1941491Y-5026960D02*
X1770063Y-5284103D01*
X2198634Y-5036484D02*
X2217682Y-5036484D01*
X2217682Y-5036484D02*
X2236729Y-5046008D01*
X2236729Y-5046008D02*
X2246253Y-5055531D01*
X2246253Y-5055531D02*
X2255777Y-5074579D01*
X2255777Y-5074579D02*
X2265301Y-5112674D01*
X2265301Y-5112674D02*
X2265301Y-5160293D01*
X2265301Y-5160293D02*
X2255777Y-5198389D01*
X2255777Y-5198389D02*
X2246253Y-5217436D01*
X2246253Y-5217436D02*
X2236729Y-5226960D01*
X2236729Y-5226960D02*
X2217682Y-5236484D01*
X2217682Y-5236484D02*
X2198634Y-5236484D01*
X2198634Y-5236484D02*
X2179587Y-5226960D01*
X2179587Y-5226960D02*
X2170063Y-5217436D01*
X2170063Y-5217436D02*
X2160539Y-5198389D01*
X2160539Y-5198389D02*
X2151015Y-5160293D01*
X2151015Y-5160293D02*
X2151015Y-5112674D01*
X2151015Y-5112674D02*
X2160539Y-5074579D01*
X2160539Y-5074579D02*
X2170063Y-5055531D01*
X2170063Y-5055531D02*
X2179587Y-5046008D01*
X2179587Y-5046008D02*
X2198634Y-5036484D01*
X2360539Y-5226960D02*
X2360539Y-5236484D01*
X2360539Y-5236484D02*
X2351015Y-5255531D01*
X2351015Y-5255531D02*
X2341491Y-5265055D01*
X2484348Y-5036484D02*
X2503396Y-5036484D01*
X2503396Y-5036484D02*
X2522444Y-5046008D01*
X2522444Y-5046008D02*
X2531968Y-5055531D01*
X2531968Y-5055531D02*
X2541491Y-5074579D01*
X2541491Y-5074579D02*
X2551015Y-5112674D01*
X2551015Y-5112674D02*
X2551015Y-5160293D01*
X2551015Y-5160293D02*
X2541491Y-5198389D01*
X2541491Y-5198389D02*
X2531968Y-5217436D01*
X2531968Y-5217436D02*
X2522444Y-5226960D01*
X2522444Y-5226960D02*
X2503396Y-5236484D01*
X2503396Y-5236484D02*
X2484348Y-5236484D01*
X2484348Y-5236484D02*
X2465301Y-5226960D01*
X2465301Y-5226960D02*
X2455777Y-5217436D01*
X2455777Y-5217436D02*
X2446253Y-5198389D01*
X2446253Y-5198389D02*
X2436729Y-5160293D01*
X2436729Y-5160293D02*
X2436729Y-5112674D01*
X2436729Y-5112674D02*
X2446253Y-5074579D01*
X2446253Y-5074579D02*
X2455777Y-5055531D01*
X2455777Y-5055531D02*
X2465301Y-5046008D01*
X2465301Y-5046008D02*
X2484348Y-5036484D01*
X2741491Y-5236484D02*
X2627206Y-5236484D01*
X2684348Y-5236484D02*
X2684348Y-5036484D01*
X2684348Y-5036484D02*
X2665301Y-5065055D01*
X2665301Y-5065055D02*
X2646253Y-5084103D01*
X2646253Y-5084103D02*
X2627206Y-5093627D01*
X2808158Y-5036484D02*
X2931967Y-5036484D01*
X2931967Y-5036484D02*
X2865301Y-5112674D01*
X2865301Y-5112674D02*
X2893872Y-5112674D01*
X2893872Y-5112674D02*
X2912920Y-5122198D01*
X2912920Y-5122198D02*
X2922444Y-5131722D01*
X2922444Y-5131722D02*
X2931967Y-5150770D01*
X2931967Y-5150770D02*
X2931967Y-5198389D01*
X2931967Y-5198389D02*
X2922444Y-5217436D01*
X2922444Y-5217436D02*
X2912920Y-5226960D01*
X2912920Y-5226960D02*
X2893872Y-5236484D01*
X2893872Y-5236484D02*
X2836729Y-5236484D01*
X2836729Y-5236484D02*
X2817682Y-5226960D01*
X2817682Y-5226960D02*
X2808158Y-5217436D01*
X3046253Y-5122198D02*
X3027206Y-5112674D01*
X3027206Y-5112674D02*
X3017682Y-5103150D01*
X3017682Y-5103150D02*
X3008158Y-5084103D01*
X3008158Y-5084103D02*
X3008158Y-5074579D01*
X3008158Y-5074579D02*
X3017682Y-5055531D01*
X3017682Y-5055531D02*
X3027206Y-5046008D01*
X3027206Y-5046008D02*
X3046253Y-5036484D01*
X3046253Y-5036484D02*
X3084348Y-5036484D01*
X3084348Y-5036484D02*
X3103396Y-5046008D01*
X3103396Y-5046008D02*
X3112920Y-5055531D01*
X3112920Y-5055531D02*
X3122444Y-5074579D01*
X3122444Y-5074579D02*
X3122444Y-5084103D01*
X3122444Y-5084103D02*
X3112920Y-5103150D01*
X3112920Y-5103150D02*
X3103396Y-5112674D01*
X3103396Y-5112674D02*
X3084348Y-5122198D01*
X3084348Y-5122198D02*
X3046253Y-5122198D01*
X3046253Y-5122198D02*
X3027206Y-5131722D01*
X3027206Y-5131722D02*
X3017682Y-5141246D01*
X3017682Y-5141246D02*
X3008158Y-5160293D01*
X3008158Y-5160293D02*
X3008158Y-5198389D01*
X3008158Y-5198389D02*
X3017682Y-5217436D01*
X3017682Y-5217436D02*
X3027206Y-5226960D01*
X3027206Y-5226960D02*
X3046253Y-5236484D01*
X3046253Y-5236484D02*
X3084348Y-5236484D01*
X3084348Y-5236484D02*
X3103396Y-5226960D01*
X3103396Y-5226960D02*
X3112920Y-5217436D01*
X3112920Y-5217436D02*
X3122444Y-5198389D01*
X3122444Y-5198389D02*
X3122444Y-5160293D01*
X3122444Y-5160293D02*
X3112920Y-5141246D01*
X3112920Y-5141246D02*
X3103396Y-5131722D01*
X3103396Y-5131722D02*
X3084348Y-5122198D01*
X3198634Y-5036484D02*
X3198634Y-5074579D01*
X3274825Y-5036484D02*
X3274825Y-5074579D01*
X3570063Y-5312674D02*
X3560539Y-5303150D01*
X3560539Y-5303150D02*
X3541491Y-5274579D01*
X3541491Y-5274579D02*
X3531968Y-5255531D01*
X3531968Y-5255531D02*
X3522444Y-5226960D01*
X3522444Y-5226960D02*
X3512920Y-5179341D01*
X3512920Y-5179341D02*
X3512920Y-5141246D01*
X3512920Y-5141246D02*
X3522444Y-5093627D01*
X3522444Y-5093627D02*
X3531968Y-5065055D01*
X3531968Y-5065055D02*
X3541491Y-5046008D01*
X3541491Y-5046008D02*
X3560539Y-5017436D01*
X3560539Y-5017436D02*
X3570063Y-5007912D01*
X3741491Y-5036484D02*
X3646253Y-5036484D01*
X3646253Y-5036484D02*
X3636729Y-5131722D01*
X3636729Y-5131722D02*
X3646253Y-5122198D01*
X3646253Y-5122198D02*
X3665301Y-5112674D01*
X3665301Y-5112674D02*
X3712920Y-5112674D01*
X3712920Y-5112674D02*
X3731968Y-5122198D01*
X3731968Y-5122198D02*
X3741491Y-5131722D01*
X3741491Y-5131722D02*
X3751015Y-5150770D01*
X3751015Y-5150770D02*
X3751015Y-5198389D01*
X3751015Y-5198389D02*
X3741491Y-5217436D01*
X3741491Y-5217436D02*
X3731968Y-5226960D01*
X3731968Y-5226960D02*
X3712920Y-5236484D01*
X3712920Y-5236484D02*
X3665301Y-5236484D01*
X3665301Y-5236484D02*
X3646253Y-5226960D01*
X3646253Y-5226960D02*
X3636729Y-5217436D01*
X3922444Y-5103150D02*
X3922444Y-5236484D01*
X3874825Y-5026960D02*
X3827206Y-5169817D01*
X3827206Y-5169817D02*
X3951015Y-5169817D01*
X4179587Y-5236484D02*
X4179587Y-5036484D01*
X4265301Y-5236484D02*
X4265301Y-5131722D01*
X4265301Y-5131722D02*
X4255777Y-5112674D01*
X4255777Y-5112674D02*
X4236730Y-5103150D01*
X4236730Y-5103150D02*
X4208158Y-5103150D01*
X4208158Y-5103150D02*
X4189110Y-5112674D01*
X4189110Y-5112674D02*
X4179587Y-5122198D01*
X4389111Y-5236484D02*
X4370063Y-5226960D01*
X4370063Y-5226960D02*
X4360539Y-5217436D01*
X4360539Y-5217436D02*
X4351015Y-5198389D01*
X4351015Y-5198389D02*
X4351015Y-5141246D01*
X4351015Y-5141246D02*
X4360539Y-5122198D01*
X4360539Y-5122198D02*
X4370063Y-5112674D01*
X4370063Y-5112674D02*
X4389111Y-5103150D01*
X4389111Y-5103150D02*
X4417682Y-5103150D01*
X4417682Y-5103150D02*
X4436730Y-5112674D01*
X4436730Y-5112674D02*
X4446253Y-5122198D01*
X4446253Y-5122198D02*
X4455777Y-5141246D01*
X4455777Y-5141246D02*
X4455777Y-5198389D01*
X4455777Y-5198389D02*
X4446253Y-5217436D01*
X4446253Y-5217436D02*
X4436730Y-5226960D01*
X4436730Y-5226960D02*
X4417682Y-5236484D01*
X4417682Y-5236484D02*
X4389111Y-5236484D01*
X4570063Y-5236484D02*
X4551015Y-5226960D01*
X4551015Y-5226960D02*
X4541492Y-5207912D01*
X4541492Y-5207912D02*
X4541492Y-5036484D01*
X4722444Y-5226960D02*
X4703396Y-5236484D01*
X4703396Y-5236484D02*
X4665301Y-5236484D01*
X4665301Y-5236484D02*
X4646253Y-5226960D01*
X4646253Y-5226960D02*
X4636730Y-5207912D01*
X4636730Y-5207912D02*
X4636730Y-5131722D01*
X4636730Y-5131722D02*
X4646253Y-5112674D01*
X4646253Y-5112674D02*
X4665301Y-5103150D01*
X4665301Y-5103150D02*
X4703396Y-5103150D01*
X4703396Y-5103150D02*
X4722444Y-5112674D01*
X4722444Y-5112674D02*
X4731968Y-5131722D01*
X4731968Y-5131722D02*
X4731968Y-5150770D01*
X4731968Y-5150770D02*
X4636730Y-5169817D01*
X4808158Y-5226960D02*
X4827206Y-5236484D01*
X4827206Y-5236484D02*
X4865301Y-5236484D01*
X4865301Y-5236484D02*
X4884349Y-5226960D01*
X4884349Y-5226960D02*
X4893873Y-5207912D01*
X4893873Y-5207912D02*
X4893873Y-5198389D01*
X4893873Y-5198389D02*
X4884349Y-5179341D01*
X4884349Y-5179341D02*
X4865301Y-5169817D01*
X4865301Y-5169817D02*
X4836730Y-5169817D01*
X4836730Y-5169817D02*
X4817682Y-5160293D01*
X4817682Y-5160293D02*
X4808158Y-5141246D01*
X4808158Y-5141246D02*
X4808158Y-5131722D01*
X4808158Y-5131722D02*
X4817682Y-5112674D01*
X4817682Y-5112674D02*
X4836730Y-5103150D01*
X4836730Y-5103150D02*
X4865301Y-5103150D01*
X4865301Y-5103150D02*
X4884349Y-5112674D01*
X4960539Y-5312674D02*
X4970063Y-5303150D01*
X4970063Y-5303150D02*
X4989111Y-5274579D01*
X4989111Y-5274579D02*
X4998634Y-5255531D01*
X4998634Y-5255531D02*
X5008158Y-5226960D01*
X5008158Y-5226960D02*
X5017682Y-5179341D01*
X5017682Y-5179341D02*
X5017682Y-5141246D01*
X5017682Y-5141246D02*
X5008158Y-5093627D01*
X5008158Y-5093627D02*
X4998634Y-5065055D01*
X4998634Y-5065055D02*
X4989111Y-5046008D01*
X4989111Y-5046008D02*
X4970063Y-5017436D01*
X4970063Y-5017436D02*
X4960539Y-5007912D01*
D10*
X-5000Y-5409000D02*
G75*
G02*
X-50000Y-5409000I-22500J0D01*
G01*
X-50000Y-5409000D02*
G75*
G02*
X-5000Y-5409000I22500J0D01*
G01*
D11*
X293872Y-5300484D02*
X312920Y-5300484D01*
X312920Y-5300484D02*
X331967Y-5310008D01*
X331967Y-5310008D02*
X341491Y-5319531D01*
X341491Y-5319531D02*
X351015Y-5338579D01*
X351015Y-5338579D02*
X360539Y-5376674D01*
X360539Y-5376674D02*
X360539Y-5424293D01*
X360539Y-5424293D02*
X351015Y-5462389D01*
X351015Y-5462389D02*
X341491Y-5481436D01*
X341491Y-5481436D02*
X331967Y-5490960D01*
X331967Y-5490960D02*
X312920Y-5500484D01*
X312920Y-5500484D02*
X293872Y-5500484D01*
X293872Y-5500484D02*
X274824Y-5490960D01*
X274824Y-5490960D02*
X265301Y-5481436D01*
X265301Y-5481436D02*
X255777Y-5462389D01*
X255777Y-5462389D02*
X246253Y-5424293D01*
X246253Y-5424293D02*
X246253Y-5376674D01*
X246253Y-5376674D02*
X255777Y-5338579D01*
X255777Y-5338579D02*
X265301Y-5319531D01*
X265301Y-5319531D02*
X274824Y-5310008D01*
X274824Y-5310008D02*
X293872Y-5300484D01*
X455777Y-5490960D02*
X455777Y-5500484D01*
X455777Y-5500484D02*
X446253Y-5519531D01*
X446253Y-5519531D02*
X436729Y-5529055D01*
X627205Y-5367150D02*
X627205Y-5500484D01*
X579586Y-5290960D02*
X531967Y-5433817D01*
X531967Y-5433817D02*
X655777Y-5433817D01*
X827205Y-5300484D02*
X731967Y-5300484D01*
X731967Y-5300484D02*
X722443Y-5395722D01*
X722443Y-5395722D02*
X731967Y-5386198D01*
X731967Y-5386198D02*
X751015Y-5376674D01*
X751015Y-5376674D02*
X798634Y-5376674D01*
X798634Y-5376674D02*
X817682Y-5386198D01*
X817682Y-5386198D02*
X827205Y-5395722D01*
X827205Y-5395722D02*
X836729Y-5414770D01*
X836729Y-5414770D02*
X836729Y-5462389D01*
X836729Y-5462389D02*
X827205Y-5481436D01*
X827205Y-5481436D02*
X817682Y-5490960D01*
X817682Y-5490960D02*
X798634Y-5500484D01*
X798634Y-5500484D02*
X751015Y-5500484D01*
X751015Y-5500484D02*
X731967Y-5490960D01*
X731967Y-5490960D02*
X722443Y-5481436D01*
X960539Y-5300484D02*
X979586Y-5300484D01*
X979586Y-5300484D02*
X998634Y-5310008D01*
X998634Y-5310008D02*
X1008158Y-5319531D01*
X1008158Y-5319531D02*
X1017682Y-5338579D01*
X1017682Y-5338579D02*
X1027205Y-5376674D01*
X1027205Y-5376674D02*
X1027205Y-5424293D01*
X1027205Y-5424293D02*
X1017682Y-5462389D01*
X1017682Y-5462389D02*
X1008158Y-5481436D01*
X1008158Y-5481436D02*
X998634Y-5490960D01*
X998634Y-5490960D02*
X979586Y-5500484D01*
X979586Y-5500484D02*
X960539Y-5500484D01*
X960539Y-5500484D02*
X941491Y-5490960D01*
X941491Y-5490960D02*
X931967Y-5481436D01*
X931967Y-5481436D02*
X922443Y-5462389D01*
X922443Y-5462389D02*
X912920Y-5424293D01*
X912920Y-5424293D02*
X912920Y-5376674D01*
X912920Y-5376674D02*
X922443Y-5338579D01*
X922443Y-5338579D02*
X931967Y-5319531D01*
X931967Y-5319531D02*
X941491Y-5310008D01*
X941491Y-5310008D02*
X960539Y-5300484D01*
X1112920Y-5500484D02*
X1112920Y-5367150D01*
X1112920Y-5386198D02*
X1122444Y-5376674D01*
X1122444Y-5376674D02*
X1141491Y-5367150D01*
X1141491Y-5367150D02*
X1170063Y-5367150D01*
X1170063Y-5367150D02*
X1189110Y-5376674D01*
X1189110Y-5376674D02*
X1198634Y-5395722D01*
X1198634Y-5395722D02*
X1198634Y-5500484D01*
X1198634Y-5395722D02*
X1208158Y-5376674D01*
X1208158Y-5376674D02*
X1227205Y-5367150D01*
X1227205Y-5367150D02*
X1255777Y-5367150D01*
X1255777Y-5367150D02*
X1274825Y-5376674D01*
X1274825Y-5376674D02*
X1284348Y-5395722D01*
X1284348Y-5395722D02*
X1284348Y-5500484D01*
X1379586Y-5500484D02*
X1379586Y-5367150D01*
X1379586Y-5386198D02*
X1389110Y-5376674D01*
X1389110Y-5376674D02*
X1408158Y-5367150D01*
X1408158Y-5367150D02*
X1436729Y-5367150D01*
X1436729Y-5367150D02*
X1455777Y-5376674D01*
X1455777Y-5376674D02*
X1465301Y-5395722D01*
X1465301Y-5395722D02*
X1465301Y-5500484D01*
X1465301Y-5395722D02*
X1474824Y-5376674D01*
X1474824Y-5376674D02*
X1493872Y-5367150D01*
X1493872Y-5367150D02*
X1522443Y-5367150D01*
X1522443Y-5367150D02*
X1541491Y-5376674D01*
X1541491Y-5376674D02*
X1551015Y-5395722D01*
X1551015Y-5395722D02*
X1551015Y-5500484D01*
X1941491Y-5290960D02*
X1770063Y-5548103D01*
X2198634Y-5300484D02*
X2217682Y-5300484D01*
X2217682Y-5300484D02*
X2236729Y-5310008D01*
X2236729Y-5310008D02*
X2246253Y-5319531D01*
X2246253Y-5319531D02*
X2255777Y-5338579D01*
X2255777Y-5338579D02*
X2265301Y-5376674D01*
X2265301Y-5376674D02*
X2265301Y-5424293D01*
X2265301Y-5424293D02*
X2255777Y-5462389D01*
X2255777Y-5462389D02*
X2246253Y-5481436D01*
X2246253Y-5481436D02*
X2236729Y-5490960D01*
X2236729Y-5490960D02*
X2217682Y-5500484D01*
X2217682Y-5500484D02*
X2198634Y-5500484D01*
X2198634Y-5500484D02*
X2179587Y-5490960D01*
X2179587Y-5490960D02*
X2170063Y-5481436D01*
X2170063Y-5481436D02*
X2160539Y-5462389D01*
X2160539Y-5462389D02*
X2151015Y-5424293D01*
X2151015Y-5424293D02*
X2151015Y-5376674D01*
X2151015Y-5376674D02*
X2160539Y-5338579D01*
X2160539Y-5338579D02*
X2170063Y-5319531D01*
X2170063Y-5319531D02*
X2179587Y-5310008D01*
X2179587Y-5310008D02*
X2198634Y-5300484D01*
X2360539Y-5490960D02*
X2360539Y-5500484D01*
X2360539Y-5500484D02*
X2351015Y-5519531D01*
X2351015Y-5519531D02*
X2341491Y-5529055D01*
X2484348Y-5300484D02*
X2503396Y-5300484D01*
X2503396Y-5300484D02*
X2522444Y-5310008D01*
X2522444Y-5310008D02*
X2531968Y-5319531D01*
X2531968Y-5319531D02*
X2541491Y-5338579D01*
X2541491Y-5338579D02*
X2551015Y-5376674D01*
X2551015Y-5376674D02*
X2551015Y-5424293D01*
X2551015Y-5424293D02*
X2541491Y-5462389D01*
X2541491Y-5462389D02*
X2531968Y-5481436D01*
X2531968Y-5481436D02*
X2522444Y-5490960D01*
X2522444Y-5490960D02*
X2503396Y-5500484D01*
X2503396Y-5500484D02*
X2484348Y-5500484D01*
X2484348Y-5500484D02*
X2465301Y-5490960D01*
X2465301Y-5490960D02*
X2455777Y-5481436D01*
X2455777Y-5481436D02*
X2446253Y-5462389D01*
X2446253Y-5462389D02*
X2436729Y-5424293D01*
X2436729Y-5424293D02*
X2436729Y-5376674D01*
X2436729Y-5376674D02*
X2446253Y-5338579D01*
X2446253Y-5338579D02*
X2455777Y-5319531D01*
X2455777Y-5319531D02*
X2465301Y-5310008D01*
X2465301Y-5310008D02*
X2484348Y-5300484D01*
X2741491Y-5500484D02*
X2627206Y-5500484D01*
X2684348Y-5500484D02*
X2684348Y-5300484D01*
X2684348Y-5300484D02*
X2665301Y-5329055D01*
X2665301Y-5329055D02*
X2646253Y-5348103D01*
X2646253Y-5348103D02*
X2627206Y-5357627D01*
X2808158Y-5300484D02*
X2941491Y-5300484D01*
X2941491Y-5300484D02*
X2855777Y-5500484D01*
X2998634Y-5300484D02*
X3131967Y-5300484D01*
X3131967Y-5300484D02*
X3046253Y-5500484D01*
X3198634Y-5300484D02*
X3198634Y-5338579D01*
X3274825Y-5300484D02*
X3274825Y-5338579D01*
X3570063Y-5576674D02*
X3560539Y-5567150D01*
X3560539Y-5567150D02*
X3541491Y-5538579D01*
X3541491Y-5538579D02*
X3531968Y-5519531D01*
X3531968Y-5519531D02*
X3522444Y-5490960D01*
X3522444Y-5490960D02*
X3512920Y-5443341D01*
X3512920Y-5443341D02*
X3512920Y-5405246D01*
X3512920Y-5405246D02*
X3522444Y-5357627D01*
X3522444Y-5357627D02*
X3531968Y-5329055D01*
X3531968Y-5329055D02*
X3541491Y-5310008D01*
X3541491Y-5310008D02*
X3560539Y-5281436D01*
X3560539Y-5281436D02*
X3570063Y-5271912D01*
X3751015Y-5500484D02*
X3636729Y-5500484D01*
X3693872Y-5500484D02*
X3693872Y-5300484D01*
X3693872Y-5300484D02*
X3674825Y-5329055D01*
X3674825Y-5329055D02*
X3655777Y-5348103D01*
X3655777Y-5348103D02*
X3636729Y-5357627D01*
X3989110Y-5500484D02*
X3989110Y-5300484D01*
X4074825Y-5500484D02*
X4074825Y-5395722D01*
X4074825Y-5395722D02*
X4065301Y-5376674D01*
X4065301Y-5376674D02*
X4046253Y-5367150D01*
X4046253Y-5367150D02*
X4017682Y-5367150D01*
X4017682Y-5367150D02*
X3998634Y-5376674D01*
X3998634Y-5376674D02*
X3989110Y-5386198D01*
X4198634Y-5500484D02*
X4179587Y-5490960D01*
X4179587Y-5490960D02*
X4170063Y-5481436D01*
X4170063Y-5481436D02*
X4160539Y-5462389D01*
X4160539Y-5462389D02*
X4160539Y-5405246D01*
X4160539Y-5405246D02*
X4170063Y-5386198D01*
X4170063Y-5386198D02*
X4179587Y-5376674D01*
X4179587Y-5376674D02*
X4198634Y-5367150D01*
X4198634Y-5367150D02*
X4227206Y-5367150D01*
X4227206Y-5367150D02*
X4246253Y-5376674D01*
X4246253Y-5376674D02*
X4255777Y-5386198D01*
X4255777Y-5386198D02*
X4265301Y-5405246D01*
X4265301Y-5405246D02*
X4265301Y-5462389D01*
X4265301Y-5462389D02*
X4255777Y-5481436D01*
X4255777Y-5481436D02*
X4246253Y-5490960D01*
X4246253Y-5490960D02*
X4227206Y-5500484D01*
X4227206Y-5500484D02*
X4198634Y-5500484D01*
X4379587Y-5500484D02*
X4360539Y-5490960D01*
X4360539Y-5490960D02*
X4351015Y-5471912D01*
X4351015Y-5471912D02*
X4351015Y-5300484D01*
X4531968Y-5490960D02*
X4512920Y-5500484D01*
X4512920Y-5500484D02*
X4474825Y-5500484D01*
X4474825Y-5500484D02*
X4455777Y-5490960D01*
X4455777Y-5490960D02*
X4446253Y-5471912D01*
X4446253Y-5471912D02*
X4446253Y-5395722D01*
X4446253Y-5395722D02*
X4455777Y-5376674D01*
X4455777Y-5376674D02*
X4474825Y-5367150D01*
X4474825Y-5367150D02*
X4512920Y-5367150D01*
X4512920Y-5367150D02*
X4531968Y-5376674D01*
X4531968Y-5376674D02*
X4541492Y-5395722D01*
X4541492Y-5395722D02*
X4541492Y-5414770D01*
X4541492Y-5414770D02*
X4446253Y-5433817D01*
X4608158Y-5576674D02*
X4617682Y-5567150D01*
X4617682Y-5567150D02*
X4636730Y-5538579D01*
X4636730Y-5538579D02*
X4646253Y-5519531D01*
X4646253Y-5519531D02*
X4655777Y-5490960D01*
X4655777Y-5490960D02*
X4665301Y-5443341D01*
X4665301Y-5443341D02*
X4665301Y-5405246D01*
X4665301Y-5405246D02*
X4655777Y-5357627D01*
X4655777Y-5357627D02*
X4646253Y-5329055D01*
X4646253Y-5329055D02*
X4636730Y-5310008D01*
X4636730Y-5310008D02*
X4617682Y-5281436D01*
X4617682Y-5281436D02*
X4608158Y-5271912D01*
D10*
X-45000Y-5633000D02*
X-45000Y-5713000D01*
X-85000Y-5673000D02*
X-5000Y-5673000D01*
D11*
X293872Y-5564484D02*
X312920Y-5564484D01*
X312920Y-5564484D02*
X331967Y-5574008D01*
X331967Y-5574008D02*
X341491Y-5583531D01*
X341491Y-5583531D02*
X351015Y-5602579D01*
X351015Y-5602579D02*
X360539Y-5640674D01*
X360539Y-5640674D02*
X360539Y-5688293D01*
X360539Y-5688293D02*
X351015Y-5726388D01*
X351015Y-5726388D02*
X341491Y-5745436D01*
X341491Y-5745436D02*
X331967Y-5754960D01*
X331967Y-5754960D02*
X312920Y-5764484D01*
X312920Y-5764484D02*
X293872Y-5764484D01*
X293872Y-5764484D02*
X274824Y-5754960D01*
X274824Y-5754960D02*
X265301Y-5745436D01*
X265301Y-5745436D02*
X255777Y-5726388D01*
X255777Y-5726388D02*
X246253Y-5688293D01*
X246253Y-5688293D02*
X246253Y-5640674D01*
X246253Y-5640674D02*
X255777Y-5602579D01*
X255777Y-5602579D02*
X265301Y-5583531D01*
X265301Y-5583531D02*
X274824Y-5574008D01*
X274824Y-5574008D02*
X293872Y-5564484D01*
X455777Y-5754960D02*
X455777Y-5764484D01*
X455777Y-5764484D02*
X446253Y-5783531D01*
X446253Y-5783531D02*
X436729Y-5793055D01*
X570063Y-5650198D02*
X551015Y-5640674D01*
X551015Y-5640674D02*
X541491Y-5631150D01*
X541491Y-5631150D02*
X531967Y-5612103D01*
X531967Y-5612103D02*
X531967Y-5602579D01*
X531967Y-5602579D02*
X541491Y-5583531D01*
X541491Y-5583531D02*
X551015Y-5574008D01*
X551015Y-5574008D02*
X570063Y-5564484D01*
X570063Y-5564484D02*
X608158Y-5564484D01*
X608158Y-5564484D02*
X627205Y-5574008D01*
X627205Y-5574008D02*
X636729Y-5583531D01*
X636729Y-5583531D02*
X646253Y-5602579D01*
X646253Y-5602579D02*
X646253Y-5612103D01*
X646253Y-5612103D02*
X636729Y-5631150D01*
X636729Y-5631150D02*
X627205Y-5640674D01*
X627205Y-5640674D02*
X608158Y-5650198D01*
X608158Y-5650198D02*
X570063Y-5650198D01*
X570063Y-5650198D02*
X551015Y-5659722D01*
X551015Y-5659722D02*
X541491Y-5669246D01*
X541491Y-5669246D02*
X531967Y-5688293D01*
X531967Y-5688293D02*
X531967Y-5726388D01*
X531967Y-5726388D02*
X541491Y-5745436D01*
X541491Y-5745436D02*
X551015Y-5754960D01*
X551015Y-5754960D02*
X570063Y-5764484D01*
X570063Y-5764484D02*
X608158Y-5764484D01*
X608158Y-5764484D02*
X627205Y-5754960D01*
X627205Y-5754960D02*
X636729Y-5745436D01*
X636729Y-5745436D02*
X646253Y-5726388D01*
X646253Y-5726388D02*
X646253Y-5688293D01*
X646253Y-5688293D02*
X636729Y-5669246D01*
X636729Y-5669246D02*
X627205Y-5659722D01*
X627205Y-5659722D02*
X608158Y-5650198D01*
X770062Y-5564484D02*
X789110Y-5564484D01*
X789110Y-5564484D02*
X808158Y-5574008D01*
X808158Y-5574008D02*
X817682Y-5583531D01*
X817682Y-5583531D02*
X827205Y-5602579D01*
X827205Y-5602579D02*
X836729Y-5640674D01*
X836729Y-5640674D02*
X836729Y-5688293D01*
X836729Y-5688293D02*
X827205Y-5726388D01*
X827205Y-5726388D02*
X817682Y-5745436D01*
X817682Y-5745436D02*
X808158Y-5754960D01*
X808158Y-5754960D02*
X789110Y-5764484D01*
X789110Y-5764484D02*
X770062Y-5764484D01*
X770062Y-5764484D02*
X751015Y-5754960D01*
X751015Y-5754960D02*
X741491Y-5745436D01*
X741491Y-5745436D02*
X731967Y-5726388D01*
X731967Y-5726388D02*
X722443Y-5688293D01*
X722443Y-5688293D02*
X722443Y-5640674D01*
X722443Y-5640674D02*
X731967Y-5602579D01*
X731967Y-5602579D02*
X741491Y-5583531D01*
X741491Y-5583531D02*
X751015Y-5574008D01*
X751015Y-5574008D02*
X770062Y-5564484D01*
X960539Y-5564484D02*
X979586Y-5564484D01*
X979586Y-5564484D02*
X998634Y-5574008D01*
X998634Y-5574008D02*
X1008158Y-5583531D01*
X1008158Y-5583531D02*
X1017682Y-5602579D01*
X1017682Y-5602579D02*
X1027205Y-5640674D01*
X1027205Y-5640674D02*
X1027205Y-5688293D01*
X1027205Y-5688293D02*
X1017682Y-5726388D01*
X1017682Y-5726388D02*
X1008158Y-5745436D01*
X1008158Y-5745436D02*
X998634Y-5754960D01*
X998634Y-5754960D02*
X979586Y-5764484D01*
X979586Y-5764484D02*
X960539Y-5764484D01*
X960539Y-5764484D02*
X941491Y-5754960D01*
X941491Y-5754960D02*
X931967Y-5745436D01*
X931967Y-5745436D02*
X922443Y-5726388D01*
X922443Y-5726388D02*
X912920Y-5688293D01*
X912920Y-5688293D02*
X912920Y-5640674D01*
X912920Y-5640674D02*
X922443Y-5602579D01*
X922443Y-5602579D02*
X931967Y-5583531D01*
X931967Y-5583531D02*
X941491Y-5574008D01*
X941491Y-5574008D02*
X960539Y-5564484D01*
X1112920Y-5764484D02*
X1112920Y-5631150D01*
X1112920Y-5650198D02*
X1122444Y-5640674D01*
X1122444Y-5640674D02*
X1141491Y-5631150D01*
X1141491Y-5631150D02*
X1170063Y-5631150D01*
X1170063Y-5631150D02*
X1189110Y-5640674D01*
X1189110Y-5640674D02*
X1198634Y-5659722D01*
X1198634Y-5659722D02*
X1198634Y-5764484D01*
X1198634Y-5659722D02*
X1208158Y-5640674D01*
X1208158Y-5640674D02*
X1227205Y-5631150D01*
X1227205Y-5631150D02*
X1255777Y-5631150D01*
X1255777Y-5631150D02*
X1274825Y-5640674D01*
X1274825Y-5640674D02*
X1284348Y-5659722D01*
X1284348Y-5659722D02*
X1284348Y-5764484D01*
X1379586Y-5764484D02*
X1379586Y-5631150D01*
X1379586Y-5650198D02*
X1389110Y-5640674D01*
X1389110Y-5640674D02*
X1408158Y-5631150D01*
X1408158Y-5631150D02*
X1436729Y-5631150D01*
X1436729Y-5631150D02*
X1455777Y-5640674D01*
X1455777Y-5640674D02*
X1465301Y-5659722D01*
X1465301Y-5659722D02*
X1465301Y-5764484D01*
X1465301Y-5659722D02*
X1474824Y-5640674D01*
X1474824Y-5640674D02*
X1493872Y-5631150D01*
X1493872Y-5631150D02*
X1522443Y-5631150D01*
X1522443Y-5631150D02*
X1541491Y-5640674D01*
X1541491Y-5640674D02*
X1551015Y-5659722D01*
X1551015Y-5659722D02*
X1551015Y-5764484D01*
X1941491Y-5554960D02*
X1770063Y-5812103D01*
X2198634Y-5564484D02*
X2217682Y-5564484D01*
X2217682Y-5564484D02*
X2236729Y-5574008D01*
X2236729Y-5574008D02*
X2246253Y-5583531D01*
X2246253Y-5583531D02*
X2255777Y-5602579D01*
X2255777Y-5602579D02*
X2265301Y-5640674D01*
X2265301Y-5640674D02*
X2265301Y-5688293D01*
X2265301Y-5688293D02*
X2255777Y-5726388D01*
X2255777Y-5726388D02*
X2246253Y-5745436D01*
X2246253Y-5745436D02*
X2236729Y-5754960D01*
X2236729Y-5754960D02*
X2217682Y-5764484D01*
X2217682Y-5764484D02*
X2198634Y-5764484D01*
X2198634Y-5764484D02*
X2179587Y-5754960D01*
X2179587Y-5754960D02*
X2170063Y-5745436D01*
X2170063Y-5745436D02*
X2160539Y-5726388D01*
X2160539Y-5726388D02*
X2151015Y-5688293D01*
X2151015Y-5688293D02*
X2151015Y-5640674D01*
X2151015Y-5640674D02*
X2160539Y-5602579D01*
X2160539Y-5602579D02*
X2170063Y-5583531D01*
X2170063Y-5583531D02*
X2179587Y-5574008D01*
X2179587Y-5574008D02*
X2198634Y-5564484D01*
X2360539Y-5754960D02*
X2360539Y-5764484D01*
X2360539Y-5764484D02*
X2351015Y-5783531D01*
X2351015Y-5783531D02*
X2341491Y-5793055D01*
X2484348Y-5564484D02*
X2503396Y-5564484D01*
X2503396Y-5564484D02*
X2522444Y-5574008D01*
X2522444Y-5574008D02*
X2531968Y-5583531D01*
X2531968Y-5583531D02*
X2541491Y-5602579D01*
X2541491Y-5602579D02*
X2551015Y-5640674D01*
X2551015Y-5640674D02*
X2551015Y-5688293D01*
X2551015Y-5688293D02*
X2541491Y-5726388D01*
X2541491Y-5726388D02*
X2531968Y-5745436D01*
X2531968Y-5745436D02*
X2522444Y-5754960D01*
X2522444Y-5754960D02*
X2503396Y-5764484D01*
X2503396Y-5764484D02*
X2484348Y-5764484D01*
X2484348Y-5764484D02*
X2465301Y-5754960D01*
X2465301Y-5754960D02*
X2455777Y-5745436D01*
X2455777Y-5745436D02*
X2446253Y-5726388D01*
X2446253Y-5726388D02*
X2436729Y-5688293D01*
X2436729Y-5688293D02*
X2436729Y-5640674D01*
X2436729Y-5640674D02*
X2446253Y-5602579D01*
X2446253Y-5602579D02*
X2455777Y-5583531D01*
X2455777Y-5583531D02*
X2465301Y-5574008D01*
X2465301Y-5574008D02*
X2484348Y-5564484D01*
X2617682Y-5564484D02*
X2741491Y-5564484D01*
X2741491Y-5564484D02*
X2674825Y-5640674D01*
X2674825Y-5640674D02*
X2703396Y-5640674D01*
X2703396Y-5640674D02*
X2722444Y-5650198D01*
X2722444Y-5650198D02*
X2731968Y-5659722D01*
X2731968Y-5659722D02*
X2741491Y-5678769D01*
X2741491Y-5678769D02*
X2741491Y-5726388D01*
X2741491Y-5726388D02*
X2731968Y-5745436D01*
X2731968Y-5745436D02*
X2722444Y-5754960D01*
X2722444Y-5754960D02*
X2703396Y-5764484D01*
X2703396Y-5764484D02*
X2646253Y-5764484D01*
X2646253Y-5764484D02*
X2627206Y-5754960D01*
X2627206Y-5754960D02*
X2617682Y-5745436D01*
X2931967Y-5764484D02*
X2817682Y-5764484D01*
X2874825Y-5764484D02*
X2874825Y-5564484D01*
X2874825Y-5564484D02*
X2855777Y-5593055D01*
X2855777Y-5593055D02*
X2836729Y-5612103D01*
X2836729Y-5612103D02*
X2817682Y-5621627D01*
X3112920Y-5564484D02*
X3017682Y-5564484D01*
X3017682Y-5564484D02*
X3008158Y-5659722D01*
X3008158Y-5659722D02*
X3017682Y-5650198D01*
X3017682Y-5650198D02*
X3036729Y-5640674D01*
X3036729Y-5640674D02*
X3084348Y-5640674D01*
X3084348Y-5640674D02*
X3103396Y-5650198D01*
X3103396Y-5650198D02*
X3112920Y-5659722D01*
X3112920Y-5659722D02*
X3122444Y-5678769D01*
X3122444Y-5678769D02*
X3122444Y-5726388D01*
X3122444Y-5726388D02*
X3112920Y-5745436D01*
X3112920Y-5745436D02*
X3103396Y-5754960D01*
X3103396Y-5754960D02*
X3084348Y-5764484D01*
X3084348Y-5764484D02*
X3036729Y-5764484D01*
X3036729Y-5764484D02*
X3017682Y-5754960D01*
X3017682Y-5754960D02*
X3008158Y-5745436D01*
X3198634Y-5564484D02*
X3198634Y-5602579D01*
X3274825Y-5564484D02*
X3274825Y-5602579D01*
X3570063Y-5840674D02*
X3560539Y-5831150D01*
X3560539Y-5831150D02*
X3541491Y-5802579D01*
X3541491Y-5802579D02*
X3531968Y-5783531D01*
X3531968Y-5783531D02*
X3522444Y-5754960D01*
X3522444Y-5754960D02*
X3512920Y-5707341D01*
X3512920Y-5707341D02*
X3512920Y-5669246D01*
X3512920Y-5669246D02*
X3522444Y-5621627D01*
X3522444Y-5621627D02*
X3531968Y-5593055D01*
X3531968Y-5593055D02*
X3541491Y-5574008D01*
X3541491Y-5574008D02*
X3560539Y-5545436D01*
X3560539Y-5545436D02*
X3570063Y-5535912D01*
X3636729Y-5583531D02*
X3646253Y-5574008D01*
X3646253Y-5574008D02*
X3665301Y-5564484D01*
X3665301Y-5564484D02*
X3712920Y-5564484D01*
X3712920Y-5564484D02*
X3731968Y-5574008D01*
X3731968Y-5574008D02*
X3741491Y-5583531D01*
X3741491Y-5583531D02*
X3751015Y-5602579D01*
X3751015Y-5602579D02*
X3751015Y-5621627D01*
X3751015Y-5621627D02*
X3741491Y-5650198D01*
X3741491Y-5650198D02*
X3627206Y-5764484D01*
X3627206Y-5764484D02*
X3751015Y-5764484D01*
X3989110Y-5764484D02*
X3989110Y-5564484D01*
X4074825Y-5764484D02*
X4074825Y-5659722D01*
X4074825Y-5659722D02*
X4065301Y-5640674D01*
X4065301Y-5640674D02*
X4046253Y-5631150D01*
X4046253Y-5631150D02*
X4017682Y-5631150D01*
X4017682Y-5631150D02*
X3998634Y-5640674D01*
X3998634Y-5640674D02*
X3989110Y-5650198D01*
X4198634Y-5764484D02*
X4179587Y-5754960D01*
X4179587Y-5754960D02*
X4170063Y-5745436D01*
X4170063Y-5745436D02*
X4160539Y-5726388D01*
X4160539Y-5726388D02*
X4160539Y-5669246D01*
X4160539Y-5669246D02*
X4170063Y-5650198D01*
X4170063Y-5650198D02*
X4179587Y-5640674D01*
X4179587Y-5640674D02*
X4198634Y-5631150D01*
X4198634Y-5631150D02*
X4227206Y-5631150D01*
X4227206Y-5631150D02*
X4246253Y-5640674D01*
X4246253Y-5640674D02*
X4255777Y-5650198D01*
X4255777Y-5650198D02*
X4265301Y-5669246D01*
X4265301Y-5669246D02*
X4265301Y-5726388D01*
X4265301Y-5726388D02*
X4255777Y-5745436D01*
X4255777Y-5745436D02*
X4246253Y-5754960D01*
X4246253Y-5754960D02*
X4227206Y-5764484D01*
X4227206Y-5764484D02*
X4198634Y-5764484D01*
X4379587Y-5764484D02*
X4360539Y-5754960D01*
X4360539Y-5754960D02*
X4351015Y-5735912D01*
X4351015Y-5735912D02*
X4351015Y-5564484D01*
X4531968Y-5754960D02*
X4512920Y-5764484D01*
X4512920Y-5764484D02*
X4474825Y-5764484D01*
X4474825Y-5764484D02*
X4455777Y-5754960D01*
X4455777Y-5754960D02*
X4446253Y-5735912D01*
X4446253Y-5735912D02*
X4446253Y-5659722D01*
X4446253Y-5659722D02*
X4455777Y-5640674D01*
X4455777Y-5640674D02*
X4474825Y-5631150D01*
X4474825Y-5631150D02*
X4512920Y-5631150D01*
X4512920Y-5631150D02*
X4531968Y-5640674D01*
X4531968Y-5640674D02*
X4541492Y-5659722D01*
X4541492Y-5659722D02*
X4541492Y-5678769D01*
X4541492Y-5678769D02*
X4446253Y-5697817D01*
X4617682Y-5754960D02*
X4636730Y-5764484D01*
X4636730Y-5764484D02*
X4674825Y-5764484D01*
X4674825Y-5764484D02*
X4693873Y-5754960D01*
X4693873Y-5754960D02*
X4703396Y-5735912D01*
X4703396Y-5735912D02*
X4703396Y-5726388D01*
X4703396Y-5726388D02*
X4693873Y-5707341D01*
X4693873Y-5707341D02*
X4674825Y-5697817D01*
X4674825Y-5697817D02*
X4646253Y-5697817D01*
X4646253Y-5697817D02*
X4627206Y-5688293D01*
X4627206Y-5688293D02*
X4617682Y-5669246D01*
X4617682Y-5669246D02*
X4617682Y-5659722D01*
X4617682Y-5659722D02*
X4627206Y-5640674D01*
X4627206Y-5640674D02*
X4646253Y-5631150D01*
X4646253Y-5631150D02*
X4674825Y-5631150D01*
X4674825Y-5631150D02*
X4693873Y-5640674D01*
X4770063Y-5840674D02*
X4779587Y-5831150D01*
X4779587Y-5831150D02*
X4798634Y-5802579D01*
X4798634Y-5802579D02*
X4808158Y-5783531D01*
X4808158Y-5783531D02*
X4817682Y-5754960D01*
X4817682Y-5754960D02*
X4827206Y-5707341D01*
X4827206Y-5707341D02*
X4827206Y-5669246D01*
X4827206Y-5669246D02*
X4817682Y-5621627D01*
X4817682Y-5621627D02*
X4808158Y-5593055D01*
X4808158Y-5593055D02*
X4798634Y-5574008D01*
X4798634Y-5574008D02*
X4779587Y-5545436D01*
X4779587Y-5545436D02*
X4770063Y-5535912D01*
M02*
