%TF.GenerationSoftware,KiCad,Pcbnew,10.0.4*%
%TF.CreationDate,2026-08-06T23:16:22-03:00*%
%TF.ProjectId,tkmem128-ii-expansor,746b6d65-6d31-4323-982d-69692d657870,rev?*%
%TF.SameCoordinates,Original*%
%TF.FileFunction,Legend,Top*%
%TF.FilePolarity,Positive*%
%FSLAX46Y46*%
G04 Gerber Fmt 4.6, Leading zero omitted, Abs format (unit mm)*
G04 Created by KiCad (PCBNEW 10.0.4) date 2026-08-06 23:16:22*
%MOMM*%
%LPD*%
G01*
G04 APERTURE LIST*
%ADD10C,0.200000*%
%ADD11C,0.170000*%
%ADD12C,0.220000*%
%ADD13C,0.240000*%
%ADD14C,0.180000*%
%ADD15C,0.150000*%
G04 APERTURE END LIST*
D10*
X3000000Y-30000000D02*
X75700000Y-30000000D01*
D11*
X12329761Y-28417720D02*
X12329761Y-29267720D01*
X12329761Y-28458196D02*
X12410714Y-28417720D01*
X12410714Y-28417720D02*
X12572619Y-28417720D01*
X12572619Y-28417720D02*
X12653571Y-28458196D01*
X12653571Y-28458196D02*
X12694047Y-28498672D01*
X12694047Y-28498672D02*
X12734523Y-28579625D01*
X12734523Y-28579625D02*
X12734523Y-28822482D01*
X12734523Y-28822482D02*
X12694047Y-28903434D01*
X12694047Y-28903434D02*
X12653571Y-28943911D01*
X12653571Y-28943911D02*
X12572619Y-28984387D01*
X12572619Y-28984387D02*
X12410714Y-28984387D01*
X12410714Y-28984387D02*
X12329761Y-28943911D01*
X13463095Y-28984387D02*
X13463095Y-28539149D01*
X13463095Y-28539149D02*
X13422619Y-28458196D01*
X13422619Y-28458196D02*
X13341667Y-28417720D01*
X13341667Y-28417720D02*
X13179762Y-28417720D01*
X13179762Y-28417720D02*
X13098809Y-28458196D01*
X13463095Y-28943911D02*
X13382143Y-28984387D01*
X13382143Y-28984387D02*
X13179762Y-28984387D01*
X13179762Y-28984387D02*
X13098809Y-28943911D01*
X13098809Y-28943911D02*
X13058333Y-28862958D01*
X13058333Y-28862958D02*
X13058333Y-28782006D01*
X13058333Y-28782006D02*
X13098809Y-28701053D01*
X13098809Y-28701053D02*
X13179762Y-28660577D01*
X13179762Y-28660577D02*
X13382143Y-28660577D01*
X13382143Y-28660577D02*
X13463095Y-28620101D01*
X13867857Y-28984387D02*
X13867857Y-28417720D01*
X13867857Y-28579625D02*
X13908334Y-28498672D01*
X13908334Y-28498672D02*
X13948810Y-28458196D01*
X13948810Y-28458196D02*
X14029762Y-28417720D01*
X14029762Y-28417720D02*
X14110715Y-28417720D01*
X14717857Y-28943911D02*
X14636905Y-28984387D01*
X14636905Y-28984387D02*
X14475000Y-28984387D01*
X14475000Y-28984387D02*
X14394047Y-28943911D01*
X14394047Y-28943911D02*
X14353571Y-28862958D01*
X14353571Y-28862958D02*
X14353571Y-28539149D01*
X14353571Y-28539149D02*
X14394047Y-28458196D01*
X14394047Y-28458196D02*
X14475000Y-28417720D01*
X14475000Y-28417720D02*
X14636905Y-28417720D01*
X14636905Y-28417720D02*
X14717857Y-28458196D01*
X14717857Y-28458196D02*
X14758333Y-28539149D01*
X14758333Y-28539149D02*
X14758333Y-28620101D01*
X14758333Y-28620101D02*
X14353571Y-28701053D01*
X15486904Y-28984387D02*
X15486904Y-28134387D01*
X15486904Y-28943911D02*
X15405952Y-28984387D01*
X15405952Y-28984387D02*
X15244047Y-28984387D01*
X15244047Y-28984387D02*
X15163095Y-28943911D01*
X15163095Y-28943911D02*
X15122618Y-28903434D01*
X15122618Y-28903434D02*
X15082142Y-28822482D01*
X15082142Y-28822482D02*
X15082142Y-28579625D01*
X15082142Y-28579625D02*
X15122618Y-28498672D01*
X15122618Y-28498672D02*
X15163095Y-28458196D01*
X15163095Y-28458196D02*
X15244047Y-28417720D01*
X15244047Y-28417720D02*
X15405952Y-28417720D01*
X15405952Y-28417720D02*
X15486904Y-28458196D01*
X16215476Y-28943911D02*
X16134524Y-28984387D01*
X16134524Y-28984387D02*
X15972619Y-28984387D01*
X15972619Y-28984387D02*
X15891666Y-28943911D01*
X15891666Y-28943911D02*
X15851190Y-28862958D01*
X15851190Y-28862958D02*
X15851190Y-28539149D01*
X15851190Y-28539149D02*
X15891666Y-28458196D01*
X15891666Y-28458196D02*
X15972619Y-28417720D01*
X15972619Y-28417720D02*
X16134524Y-28417720D01*
X16134524Y-28417720D02*
X16215476Y-28458196D01*
X16215476Y-28458196D02*
X16255952Y-28539149D01*
X16255952Y-28539149D02*
X16255952Y-28620101D01*
X16255952Y-28620101D02*
X15851190Y-28701053D01*
X17632142Y-28984387D02*
X17632142Y-28134387D01*
X17632142Y-28943911D02*
X17551190Y-28984387D01*
X17551190Y-28984387D02*
X17389285Y-28984387D01*
X17389285Y-28984387D02*
X17308333Y-28943911D01*
X17308333Y-28943911D02*
X17267856Y-28903434D01*
X17267856Y-28903434D02*
X17227380Y-28822482D01*
X17227380Y-28822482D02*
X17227380Y-28579625D01*
X17227380Y-28579625D02*
X17267856Y-28498672D01*
X17267856Y-28498672D02*
X17308333Y-28458196D01*
X17308333Y-28458196D02*
X17389285Y-28417720D01*
X17389285Y-28417720D02*
X17551190Y-28417720D01*
X17551190Y-28417720D02*
X17632142Y-28458196D01*
X18360714Y-28943911D02*
X18279762Y-28984387D01*
X18279762Y-28984387D02*
X18117857Y-28984387D01*
X18117857Y-28984387D02*
X18036904Y-28943911D01*
X18036904Y-28943911D02*
X17996428Y-28862958D01*
X17996428Y-28862958D02*
X17996428Y-28539149D01*
X17996428Y-28539149D02*
X18036904Y-28458196D01*
X18036904Y-28458196D02*
X18117857Y-28417720D01*
X18117857Y-28417720D02*
X18279762Y-28417720D01*
X18279762Y-28417720D02*
X18360714Y-28458196D01*
X18360714Y-28458196D02*
X18401190Y-28539149D01*
X18401190Y-28539149D02*
X18401190Y-28620101D01*
X18401190Y-28620101D02*
X17996428Y-28701053D01*
X19291666Y-28417720D02*
X19615475Y-28417720D01*
X19413094Y-28134387D02*
X19413094Y-28862958D01*
X19413094Y-28862958D02*
X19453571Y-28943911D01*
X19453571Y-28943911D02*
X19534523Y-28984387D01*
X19534523Y-28984387D02*
X19615475Y-28984387D01*
X19898808Y-28984387D02*
X19898808Y-28417720D01*
X19898808Y-28579625D02*
X19939285Y-28498672D01*
X19939285Y-28498672D02*
X19979761Y-28458196D01*
X19979761Y-28458196D02*
X20060713Y-28417720D01*
X20060713Y-28417720D02*
X20141666Y-28417720D01*
X20789284Y-28984387D02*
X20789284Y-28539149D01*
X20789284Y-28539149D02*
X20748808Y-28458196D01*
X20748808Y-28458196D02*
X20667856Y-28417720D01*
X20667856Y-28417720D02*
X20505951Y-28417720D01*
X20505951Y-28417720D02*
X20424998Y-28458196D01*
X20789284Y-28943911D02*
X20708332Y-28984387D01*
X20708332Y-28984387D02*
X20505951Y-28984387D01*
X20505951Y-28984387D02*
X20424998Y-28943911D01*
X20424998Y-28943911D02*
X20384522Y-28862958D01*
X20384522Y-28862958D02*
X20384522Y-28782006D01*
X20384522Y-28782006D02*
X20424998Y-28701053D01*
X20424998Y-28701053D02*
X20505951Y-28660577D01*
X20505951Y-28660577D02*
X20708332Y-28660577D01*
X20708332Y-28660577D02*
X20789284Y-28620101D01*
X20667856Y-28093911D02*
X20546427Y-28215339D01*
X21153570Y-28943911D02*
X21234523Y-28984387D01*
X21234523Y-28984387D02*
X21396427Y-28984387D01*
X21396427Y-28984387D02*
X21477380Y-28943911D01*
X21477380Y-28943911D02*
X21517856Y-28862958D01*
X21517856Y-28862958D02*
X21517856Y-28822482D01*
X21517856Y-28822482D02*
X21477380Y-28741530D01*
X21477380Y-28741530D02*
X21396427Y-28701053D01*
X21396427Y-28701053D02*
X21274999Y-28701053D01*
X21274999Y-28701053D02*
X21194046Y-28660577D01*
X21194046Y-28660577D02*
X21153570Y-28579625D01*
X21153570Y-28579625D02*
X21153570Y-28539149D01*
X21153570Y-28539149D02*
X21194046Y-28458196D01*
X21194046Y-28458196D02*
X21274999Y-28417720D01*
X21274999Y-28417720D02*
X21396427Y-28417720D01*
X21396427Y-28417720D02*
X21477380Y-28458196D01*
X22894046Y-28984387D02*
X22894046Y-28134387D01*
X22894046Y-28943911D02*
X22813094Y-28984387D01*
X22813094Y-28984387D02*
X22651189Y-28984387D01*
X22651189Y-28984387D02*
X22570237Y-28943911D01*
X22570237Y-28943911D02*
X22529760Y-28903434D01*
X22529760Y-28903434D02*
X22489284Y-28822482D01*
X22489284Y-28822482D02*
X22489284Y-28579625D01*
X22489284Y-28579625D02*
X22529760Y-28498672D01*
X22529760Y-28498672D02*
X22570237Y-28458196D01*
X22570237Y-28458196D02*
X22651189Y-28417720D01*
X22651189Y-28417720D02*
X22813094Y-28417720D01*
X22813094Y-28417720D02*
X22894046Y-28458196D01*
X23663094Y-28984387D02*
X23663094Y-28539149D01*
X23663094Y-28539149D02*
X23622618Y-28458196D01*
X23622618Y-28458196D02*
X23541666Y-28417720D01*
X23541666Y-28417720D02*
X23379761Y-28417720D01*
X23379761Y-28417720D02*
X23298808Y-28458196D01*
X23663094Y-28943911D02*
X23582142Y-28984387D01*
X23582142Y-28984387D02*
X23379761Y-28984387D01*
X23379761Y-28984387D02*
X23298808Y-28943911D01*
X23298808Y-28943911D02*
X23258332Y-28862958D01*
X23258332Y-28862958D02*
X23258332Y-28782006D01*
X23258332Y-28782006D02*
X23298808Y-28701053D01*
X23298808Y-28701053D02*
X23379761Y-28660577D01*
X23379761Y-28660577D02*
X23582142Y-28660577D01*
X23582142Y-28660577D02*
X23663094Y-28620101D01*
X25079761Y-28943911D02*
X24998809Y-28984387D01*
X24998809Y-28984387D02*
X24836904Y-28984387D01*
X24836904Y-28984387D02*
X24755952Y-28943911D01*
X24755952Y-28943911D02*
X24715475Y-28903434D01*
X24715475Y-28903434D02*
X24674999Y-28822482D01*
X24674999Y-28822482D02*
X24674999Y-28579625D01*
X24674999Y-28579625D02*
X24715475Y-28498672D01*
X24715475Y-28498672D02*
X24755952Y-28458196D01*
X24755952Y-28458196D02*
X24836904Y-28417720D01*
X24836904Y-28417720D02*
X24998809Y-28417720D01*
X24998809Y-28417720D02*
X25079761Y-28458196D01*
X25808332Y-28984387D02*
X25808332Y-28539149D01*
X25808332Y-28539149D02*
X25767856Y-28458196D01*
X25767856Y-28458196D02*
X25686904Y-28417720D01*
X25686904Y-28417720D02*
X25524999Y-28417720D01*
X25524999Y-28417720D02*
X25444046Y-28458196D01*
X25808332Y-28943911D02*
X25727380Y-28984387D01*
X25727380Y-28984387D02*
X25524999Y-28984387D01*
X25524999Y-28984387D02*
X25444046Y-28943911D01*
X25444046Y-28943911D02*
X25403570Y-28862958D01*
X25403570Y-28862958D02*
X25403570Y-28782006D01*
X25403570Y-28782006D02*
X25444046Y-28701053D01*
X25444046Y-28701053D02*
X25524999Y-28660577D01*
X25524999Y-28660577D02*
X25727380Y-28660577D01*
X25727380Y-28660577D02*
X25808332Y-28620101D01*
X26213094Y-28984387D02*
X26213094Y-28417720D01*
X26213094Y-28134387D02*
X26172618Y-28174863D01*
X26172618Y-28174863D02*
X26213094Y-28215339D01*
X26213094Y-28215339D02*
X26253571Y-28174863D01*
X26253571Y-28174863D02*
X26213094Y-28134387D01*
X26213094Y-28134387D02*
X26213094Y-28215339D01*
X26536904Y-28984387D02*
X26982142Y-28417720D01*
X26536904Y-28417720D02*
X26982142Y-28984387D01*
X27670237Y-28984387D02*
X27670237Y-28539149D01*
X27670237Y-28539149D02*
X27629761Y-28458196D01*
X27629761Y-28458196D02*
X27548809Y-28417720D01*
X27548809Y-28417720D02*
X27386904Y-28417720D01*
X27386904Y-28417720D02*
X27305951Y-28458196D01*
X27670237Y-28943911D02*
X27589285Y-28984387D01*
X27589285Y-28984387D02*
X27386904Y-28984387D01*
X27386904Y-28984387D02*
X27305951Y-28943911D01*
X27305951Y-28943911D02*
X27265475Y-28862958D01*
X27265475Y-28862958D02*
X27265475Y-28782006D01*
X27265475Y-28782006D02*
X27305951Y-28701053D01*
X27305951Y-28701053D02*
X27386904Y-28660577D01*
X27386904Y-28660577D02*
X27589285Y-28660577D01*
X27589285Y-28660577D02*
X27670237Y-28620101D01*
D10*
X34036666Y-16952219D02*
X34608094Y-16952219D01*
X34322380Y-17952219D02*
X34322380Y-16952219D01*
X34941428Y-17952219D02*
X34941428Y-16952219D01*
X35512856Y-17952219D02*
X35084285Y-17380790D01*
X35512856Y-16952219D02*
X34941428Y-17523647D01*
X35989047Y-17952219D02*
X36179523Y-17952219D01*
X36179523Y-17952219D02*
X36274761Y-17904600D01*
X36274761Y-17904600D02*
X36322380Y-17856980D01*
X36322380Y-17856980D02*
X36417618Y-17714123D01*
X36417618Y-17714123D02*
X36465237Y-17523647D01*
X36465237Y-17523647D02*
X36465237Y-17142695D01*
X36465237Y-17142695D02*
X36417618Y-17047457D01*
X36417618Y-17047457D02*
X36369999Y-16999838D01*
X36369999Y-16999838D02*
X36274761Y-16952219D01*
X36274761Y-16952219D02*
X36084285Y-16952219D01*
X36084285Y-16952219D02*
X35989047Y-16999838D01*
X35989047Y-16999838D02*
X35941428Y-17047457D01*
X35941428Y-17047457D02*
X35893809Y-17142695D01*
X35893809Y-17142695D02*
X35893809Y-17380790D01*
X35893809Y-17380790D02*
X35941428Y-17476028D01*
X35941428Y-17476028D02*
X35989047Y-17523647D01*
X35989047Y-17523647D02*
X36084285Y-17571266D01*
X36084285Y-17571266D02*
X36274761Y-17571266D01*
X36274761Y-17571266D02*
X36369999Y-17523647D01*
X36369999Y-17523647D02*
X36417618Y-17476028D01*
X36417618Y-17476028D02*
X36465237Y-17380790D01*
X37084285Y-16952219D02*
X37179523Y-16952219D01*
X37179523Y-16952219D02*
X37274761Y-16999838D01*
X37274761Y-16999838D02*
X37322380Y-17047457D01*
X37322380Y-17047457D02*
X37369999Y-17142695D01*
X37369999Y-17142695D02*
X37417618Y-17333171D01*
X37417618Y-17333171D02*
X37417618Y-17571266D01*
X37417618Y-17571266D02*
X37369999Y-17761742D01*
X37369999Y-17761742D02*
X37322380Y-17856980D01*
X37322380Y-17856980D02*
X37274761Y-17904600D01*
X37274761Y-17904600D02*
X37179523Y-17952219D01*
X37179523Y-17952219D02*
X37084285Y-17952219D01*
X37084285Y-17952219D02*
X36989047Y-17904600D01*
X36989047Y-17904600D02*
X36941428Y-17856980D01*
X36941428Y-17856980D02*
X36893809Y-17761742D01*
X36893809Y-17761742D02*
X36846190Y-17571266D01*
X36846190Y-17571266D02*
X36846190Y-17333171D01*
X36846190Y-17333171D02*
X36893809Y-17142695D01*
X36893809Y-17142695D02*
X36941428Y-17047457D01*
X36941428Y-17047457D02*
X36989047Y-16999838D01*
X36989047Y-16999838D02*
X37084285Y-16952219D01*
X37750952Y-16952219D02*
X38417618Y-17952219D01*
X38417618Y-16952219D02*
X37750952Y-17952219D01*
X40274761Y-16904600D02*
X39417619Y-18190314D01*
X41227143Y-16952219D02*
X41798571Y-16952219D01*
X41512857Y-17952219D02*
X41512857Y-16952219D01*
X42131905Y-17952219D02*
X42131905Y-16952219D01*
X42703333Y-17952219D02*
X42274762Y-17380790D01*
X42703333Y-16952219D02*
X42131905Y-17523647D01*
X43179524Y-17952219D02*
X43370000Y-17952219D01*
X43370000Y-17952219D02*
X43465238Y-17904600D01*
X43465238Y-17904600D02*
X43512857Y-17856980D01*
X43512857Y-17856980D02*
X43608095Y-17714123D01*
X43608095Y-17714123D02*
X43655714Y-17523647D01*
X43655714Y-17523647D02*
X43655714Y-17142695D01*
X43655714Y-17142695D02*
X43608095Y-17047457D01*
X43608095Y-17047457D02*
X43560476Y-16999838D01*
X43560476Y-16999838D02*
X43465238Y-16952219D01*
X43465238Y-16952219D02*
X43274762Y-16952219D01*
X43274762Y-16952219D02*
X43179524Y-16999838D01*
X43179524Y-16999838D02*
X43131905Y-17047457D01*
X43131905Y-17047457D02*
X43084286Y-17142695D01*
X43084286Y-17142695D02*
X43084286Y-17380790D01*
X43084286Y-17380790D02*
X43131905Y-17476028D01*
X43131905Y-17476028D02*
X43179524Y-17523647D01*
X43179524Y-17523647D02*
X43274762Y-17571266D01*
X43274762Y-17571266D02*
X43465238Y-17571266D01*
X43465238Y-17571266D02*
X43560476Y-17523647D01*
X43560476Y-17523647D02*
X43608095Y-17476028D01*
X43608095Y-17476028D02*
X43655714Y-17380790D01*
X44560476Y-16952219D02*
X44084286Y-16952219D01*
X44084286Y-16952219D02*
X44036667Y-17428409D01*
X44036667Y-17428409D02*
X44084286Y-17380790D01*
X44084286Y-17380790D02*
X44179524Y-17333171D01*
X44179524Y-17333171D02*
X44417619Y-17333171D01*
X44417619Y-17333171D02*
X44512857Y-17380790D01*
X44512857Y-17380790D02*
X44560476Y-17428409D01*
X44560476Y-17428409D02*
X44608095Y-17523647D01*
X44608095Y-17523647D02*
X44608095Y-17761742D01*
X44608095Y-17761742D02*
X44560476Y-17856980D01*
X44560476Y-17856980D02*
X44512857Y-17904600D01*
X44512857Y-17904600D02*
X44417619Y-17952219D01*
X44417619Y-17952219D02*
X44179524Y-17952219D01*
X44179524Y-17952219D02*
X44084286Y-17904600D01*
X44084286Y-17904600D02*
X44036667Y-17856980D01*
D12*
X17684286Y-14397440D02*
X18312858Y-14397440D01*
X17998572Y-15497440D02*
X17998572Y-14397440D01*
X18679524Y-15497440D02*
X18679524Y-14397440D01*
X19308096Y-15497440D02*
X18836667Y-14868869D01*
X19308096Y-14397440D02*
X18679524Y-15026012D01*
X19779524Y-15497440D02*
X19779524Y-14397440D01*
X19779524Y-14397440D02*
X20146191Y-15183155D01*
X20146191Y-15183155D02*
X20512858Y-14397440D01*
X20512858Y-14397440D02*
X20512858Y-15497440D01*
X21036667Y-14921250D02*
X21403334Y-14921250D01*
X21560477Y-15497440D02*
X21036667Y-15497440D01*
X21036667Y-15497440D02*
X21036667Y-14397440D01*
X21036667Y-14397440D02*
X21560477Y-14397440D01*
X22031905Y-15497440D02*
X22031905Y-14397440D01*
X22031905Y-14397440D02*
X22398572Y-15183155D01*
X22398572Y-15183155D02*
X22765239Y-14397440D01*
X22765239Y-14397440D02*
X22765239Y-15497440D01*
X23289048Y-15078393D02*
X24127144Y-15078393D01*
X25227144Y-15497440D02*
X24598572Y-15497440D01*
X24912858Y-15497440D02*
X24912858Y-14397440D01*
X24912858Y-14397440D02*
X24808096Y-14554583D01*
X24808096Y-14554583D02*
X24703334Y-14659345D01*
X24703334Y-14659345D02*
X24598572Y-14711726D01*
X25646191Y-14502202D02*
X25698572Y-14449821D01*
X25698572Y-14449821D02*
X25803334Y-14397440D01*
X25803334Y-14397440D02*
X26065239Y-14397440D01*
X26065239Y-14397440D02*
X26170001Y-14449821D01*
X26170001Y-14449821D02*
X26222382Y-14502202D01*
X26222382Y-14502202D02*
X26274763Y-14606964D01*
X26274763Y-14606964D02*
X26274763Y-14711726D01*
X26274763Y-14711726D02*
X26222382Y-14868869D01*
X26222382Y-14868869D02*
X25593810Y-15497440D01*
X25593810Y-15497440D02*
X26274763Y-15497440D01*
X26903334Y-14868869D02*
X26798572Y-14816488D01*
X26798572Y-14816488D02*
X26746191Y-14764107D01*
X26746191Y-14764107D02*
X26693810Y-14659345D01*
X26693810Y-14659345D02*
X26693810Y-14606964D01*
X26693810Y-14606964D02*
X26746191Y-14502202D01*
X26746191Y-14502202D02*
X26798572Y-14449821D01*
X26798572Y-14449821D02*
X26903334Y-14397440D01*
X26903334Y-14397440D02*
X27112858Y-14397440D01*
X27112858Y-14397440D02*
X27217620Y-14449821D01*
X27217620Y-14449821D02*
X27270001Y-14502202D01*
X27270001Y-14502202D02*
X27322382Y-14606964D01*
X27322382Y-14606964D02*
X27322382Y-14659345D01*
X27322382Y-14659345D02*
X27270001Y-14764107D01*
X27270001Y-14764107D02*
X27217620Y-14816488D01*
X27217620Y-14816488D02*
X27112858Y-14868869D01*
X27112858Y-14868869D02*
X26903334Y-14868869D01*
X26903334Y-14868869D02*
X26798572Y-14921250D01*
X26798572Y-14921250D02*
X26746191Y-14973631D01*
X26746191Y-14973631D02*
X26693810Y-15078393D01*
X26693810Y-15078393D02*
X26693810Y-15287917D01*
X26693810Y-15287917D02*
X26746191Y-15392679D01*
X26746191Y-15392679D02*
X26798572Y-15445060D01*
X26798572Y-15445060D02*
X26903334Y-15497440D01*
X26903334Y-15497440D02*
X27112858Y-15497440D01*
X27112858Y-15497440D02*
X27217620Y-15445060D01*
X27217620Y-15445060D02*
X27270001Y-15392679D01*
X27270001Y-15392679D02*
X27322382Y-15287917D01*
X27322382Y-15287917D02*
X27322382Y-15078393D01*
X27322382Y-15078393D02*
X27270001Y-14973631D01*
X27270001Y-14973631D02*
X27217620Y-14921250D01*
X27217620Y-14921250D02*
X27112858Y-14868869D01*
X28631905Y-15497440D02*
X28631905Y-14397440D01*
X29155715Y-15497440D02*
X29155715Y-14397440D01*
X31198572Y-14397440D02*
X31827144Y-14397440D01*
X31512858Y-15497440D02*
X31512858Y-14397440D01*
X32193810Y-15497440D02*
X32193810Y-14397440D01*
X33346192Y-15497440D02*
X32979525Y-14973631D01*
X32717620Y-15497440D02*
X32717620Y-14397440D01*
X32717620Y-14397440D02*
X33136668Y-14397440D01*
X33136668Y-14397440D02*
X33241430Y-14449821D01*
X33241430Y-14449821D02*
X33293811Y-14502202D01*
X33293811Y-14502202D02*
X33346192Y-14606964D01*
X33346192Y-14606964D02*
X33346192Y-14764107D01*
X33346192Y-14764107D02*
X33293811Y-14868869D01*
X33293811Y-14868869D02*
X33241430Y-14921250D01*
X33241430Y-14921250D02*
X33136668Y-14973631D01*
X33136668Y-14973631D02*
X32717620Y-14973631D01*
X33765239Y-15183155D02*
X34289049Y-15183155D01*
X33660477Y-15497440D02*
X34027144Y-14397440D01*
X34027144Y-14397440D02*
X34393811Y-15497440D01*
X35598572Y-15497440D02*
X35598572Y-14397440D01*
X35598572Y-14397440D02*
X35860477Y-14397440D01*
X35860477Y-14397440D02*
X36017620Y-14449821D01*
X36017620Y-14449821D02*
X36122382Y-14554583D01*
X36122382Y-14554583D02*
X36174763Y-14659345D01*
X36174763Y-14659345D02*
X36227144Y-14868869D01*
X36227144Y-14868869D02*
X36227144Y-15026012D01*
X36227144Y-15026012D02*
X36174763Y-15235536D01*
X36174763Y-15235536D02*
X36122382Y-15340298D01*
X36122382Y-15340298D02*
X36017620Y-15445060D01*
X36017620Y-15445060D02*
X35860477Y-15497440D01*
X35860477Y-15497440D02*
X35598572Y-15497440D01*
X36698572Y-14921250D02*
X37065239Y-14921250D01*
X37222382Y-15497440D02*
X36698572Y-15497440D01*
X36698572Y-15497440D02*
X36698572Y-14397440D01*
X36698572Y-14397440D02*
X37222382Y-14397440D01*
X38531905Y-14921250D02*
X38898572Y-14921250D01*
X39055715Y-15497440D02*
X38531905Y-15497440D01*
X38531905Y-15497440D02*
X38531905Y-14397440D01*
X38531905Y-14397440D02*
X39055715Y-14397440D01*
X39422381Y-14397440D02*
X40155715Y-15497440D01*
X40155715Y-14397440D02*
X39422381Y-15497440D01*
X40574762Y-15497440D02*
X40574762Y-14397440D01*
X40574762Y-14397440D02*
X40993810Y-14397440D01*
X40993810Y-14397440D02*
X41098572Y-14449821D01*
X41098572Y-14449821D02*
X41150953Y-14502202D01*
X41150953Y-14502202D02*
X41203334Y-14606964D01*
X41203334Y-14606964D02*
X41203334Y-14764107D01*
X41203334Y-14764107D02*
X41150953Y-14868869D01*
X41150953Y-14868869D02*
X41098572Y-14921250D01*
X41098572Y-14921250D02*
X40993810Y-14973631D01*
X40993810Y-14973631D02*
X40574762Y-14973631D01*
X41622381Y-15183155D02*
X42146191Y-15183155D01*
X41517619Y-15497440D02*
X41884286Y-14397440D01*
X41884286Y-14397440D02*
X42250953Y-15497440D01*
X42617619Y-15497440D02*
X42617619Y-14397440D01*
X42617619Y-14397440D02*
X43246191Y-15497440D01*
X43246191Y-15497440D02*
X43246191Y-14397440D01*
X43717619Y-15445060D02*
X43874762Y-15497440D01*
X43874762Y-15497440D02*
X44136667Y-15497440D01*
X44136667Y-15497440D02*
X44241429Y-15445060D01*
X44241429Y-15445060D02*
X44293810Y-15392679D01*
X44293810Y-15392679D02*
X44346191Y-15287917D01*
X44346191Y-15287917D02*
X44346191Y-15183155D01*
X44346191Y-15183155D02*
X44293810Y-15078393D01*
X44293810Y-15078393D02*
X44241429Y-15026012D01*
X44241429Y-15026012D02*
X44136667Y-14973631D01*
X44136667Y-14973631D02*
X43927143Y-14921250D01*
X43927143Y-14921250D02*
X43822381Y-14868869D01*
X43822381Y-14868869D02*
X43770000Y-14816488D01*
X43770000Y-14816488D02*
X43717619Y-14711726D01*
X43717619Y-14711726D02*
X43717619Y-14606964D01*
X43717619Y-14606964D02*
X43770000Y-14502202D01*
X43770000Y-14502202D02*
X43822381Y-14449821D01*
X43822381Y-14449821D02*
X43927143Y-14397440D01*
X43927143Y-14397440D02*
X44189048Y-14397440D01*
X44189048Y-14397440D02*
X44346191Y-14449821D01*
X44765238Y-15183155D02*
X45289048Y-15183155D01*
X44660476Y-15497440D02*
X45027143Y-14397440D01*
X45027143Y-14397440D02*
X45393810Y-15497440D01*
X44765238Y-14135536D02*
X44817619Y-14083155D01*
X44817619Y-14083155D02*
X44922381Y-14030774D01*
X44922381Y-14030774D02*
X45131905Y-14135536D01*
X45131905Y-14135536D02*
X45236667Y-14083155D01*
X45236667Y-14083155D02*
X45289048Y-14030774D01*
X45970000Y-14397440D02*
X46179524Y-14397440D01*
X46179524Y-14397440D02*
X46284286Y-14449821D01*
X46284286Y-14449821D02*
X46389048Y-14554583D01*
X46389048Y-14554583D02*
X46441429Y-14764107D01*
X46441429Y-14764107D02*
X46441429Y-15130774D01*
X46441429Y-15130774D02*
X46389048Y-15340298D01*
X46389048Y-15340298D02*
X46284286Y-15445060D01*
X46284286Y-15445060D02*
X46179524Y-15497440D01*
X46179524Y-15497440D02*
X45970000Y-15497440D01*
X45970000Y-15497440D02*
X45865238Y-15445060D01*
X45865238Y-15445060D02*
X45760476Y-15340298D01*
X45760476Y-15340298D02*
X45708095Y-15130774D01*
X45708095Y-15130774D02*
X45708095Y-14764107D01*
X45708095Y-14764107D02*
X45760476Y-14554583D01*
X45760476Y-14554583D02*
X45865238Y-14449821D01*
X45865238Y-14449821D02*
X45970000Y-14397440D01*
X47750952Y-15497440D02*
X47750952Y-14397440D01*
X47750952Y-14397440D02*
X48012857Y-14397440D01*
X48012857Y-14397440D02*
X48170000Y-14449821D01*
X48170000Y-14449821D02*
X48274762Y-14554583D01*
X48274762Y-14554583D02*
X48327143Y-14659345D01*
X48327143Y-14659345D02*
X48379524Y-14868869D01*
X48379524Y-14868869D02*
X48379524Y-15026012D01*
X48379524Y-15026012D02*
X48327143Y-15235536D01*
X48327143Y-15235536D02*
X48274762Y-15340298D01*
X48274762Y-15340298D02*
X48170000Y-15445060D01*
X48170000Y-15445060D02*
X48012857Y-15497440D01*
X48012857Y-15497440D02*
X47750952Y-15497440D01*
X49060476Y-14397440D02*
X49270000Y-14397440D01*
X49270000Y-14397440D02*
X49374762Y-14449821D01*
X49374762Y-14449821D02*
X49479524Y-14554583D01*
X49479524Y-14554583D02*
X49531905Y-14764107D01*
X49531905Y-14764107D02*
X49531905Y-15130774D01*
X49531905Y-15130774D02*
X49479524Y-15340298D01*
X49479524Y-15340298D02*
X49374762Y-15445060D01*
X49374762Y-15445060D02*
X49270000Y-15497440D01*
X49270000Y-15497440D02*
X49060476Y-15497440D01*
X49060476Y-15497440D02*
X48955714Y-15445060D01*
X48955714Y-15445060D02*
X48850952Y-15340298D01*
X48850952Y-15340298D02*
X48798571Y-15130774D01*
X48798571Y-15130774D02*
X48798571Y-14764107D01*
X48798571Y-14764107D02*
X48850952Y-14554583D01*
X48850952Y-14554583D02*
X48955714Y-14449821D01*
X48955714Y-14449821D02*
X49060476Y-14397440D01*
X51208095Y-14921250D02*
X51365238Y-14973631D01*
X51365238Y-14973631D02*
X51417619Y-15026012D01*
X51417619Y-15026012D02*
X51470000Y-15130774D01*
X51470000Y-15130774D02*
X51470000Y-15287917D01*
X51470000Y-15287917D02*
X51417619Y-15392679D01*
X51417619Y-15392679D02*
X51365238Y-15445060D01*
X51365238Y-15445060D02*
X51260476Y-15497440D01*
X51260476Y-15497440D02*
X50841428Y-15497440D01*
X50841428Y-15497440D02*
X50841428Y-14397440D01*
X50841428Y-14397440D02*
X51208095Y-14397440D01*
X51208095Y-14397440D02*
X51312857Y-14449821D01*
X51312857Y-14449821D02*
X51365238Y-14502202D01*
X51365238Y-14502202D02*
X51417619Y-14606964D01*
X51417619Y-14606964D02*
X51417619Y-14711726D01*
X51417619Y-14711726D02*
X51365238Y-14816488D01*
X51365238Y-14816488D02*
X51312857Y-14868869D01*
X51312857Y-14868869D02*
X51208095Y-14921250D01*
X51208095Y-14921250D02*
X50841428Y-14921250D01*
X51889047Y-15183155D02*
X52412857Y-15183155D01*
X51784285Y-15497440D02*
X52150952Y-14397440D01*
X52150952Y-14397440D02*
X52517619Y-15497440D01*
X53512857Y-15497440D02*
X53146190Y-14973631D01*
X52884285Y-15497440D02*
X52884285Y-14397440D01*
X52884285Y-14397440D02*
X53303333Y-14397440D01*
X53303333Y-14397440D02*
X53408095Y-14449821D01*
X53408095Y-14449821D02*
X53460476Y-14502202D01*
X53460476Y-14502202D02*
X53512857Y-14606964D01*
X53512857Y-14606964D02*
X53512857Y-14764107D01*
X53512857Y-14764107D02*
X53460476Y-14868869D01*
X53460476Y-14868869D02*
X53408095Y-14921250D01*
X53408095Y-14921250D02*
X53303333Y-14973631D01*
X53303333Y-14973631D02*
X52884285Y-14973631D01*
X54612857Y-15497440D02*
X54246190Y-14973631D01*
X53984285Y-15497440D02*
X53984285Y-14397440D01*
X53984285Y-14397440D02*
X54403333Y-14397440D01*
X54403333Y-14397440D02*
X54508095Y-14449821D01*
X54508095Y-14449821D02*
X54560476Y-14502202D01*
X54560476Y-14502202D02*
X54612857Y-14606964D01*
X54612857Y-14606964D02*
X54612857Y-14764107D01*
X54612857Y-14764107D02*
X54560476Y-14868869D01*
X54560476Y-14868869D02*
X54508095Y-14921250D01*
X54508095Y-14921250D02*
X54403333Y-14973631D01*
X54403333Y-14973631D02*
X53984285Y-14973631D01*
X55031904Y-15183155D02*
X55555714Y-15183155D01*
X54927142Y-15497440D02*
X55293809Y-14397440D01*
X55293809Y-14397440D02*
X55660476Y-15497440D01*
X56027142Y-15497440D02*
X56027142Y-14397440D01*
X56027142Y-14397440D02*
X56393809Y-15183155D01*
X56393809Y-15183155D02*
X56760476Y-14397440D01*
X56760476Y-14397440D02*
X56760476Y-15497440D01*
X57284285Y-14921250D02*
X57650952Y-14921250D01*
X57808095Y-15497440D02*
X57284285Y-15497440D01*
X57284285Y-15497440D02*
X57284285Y-14397440D01*
X57284285Y-14397440D02*
X57808095Y-14397440D01*
X58279523Y-15497440D02*
X58279523Y-14397440D01*
X58279523Y-14397440D02*
X58908095Y-15497440D01*
X58908095Y-15497440D02*
X58908095Y-14397440D01*
X59274761Y-14397440D02*
X59903333Y-14397440D01*
X59589047Y-15497440D02*
X59589047Y-14397440D01*
X60479523Y-14397440D02*
X60689047Y-14397440D01*
X60689047Y-14397440D02*
X60793809Y-14449821D01*
X60793809Y-14449821D02*
X60898571Y-14554583D01*
X60898571Y-14554583D02*
X60950952Y-14764107D01*
X60950952Y-14764107D02*
X60950952Y-15130774D01*
X60950952Y-15130774D02*
X60898571Y-15340298D01*
X60898571Y-15340298D02*
X60793809Y-15445060D01*
X60793809Y-15445060D02*
X60689047Y-15497440D01*
X60689047Y-15497440D02*
X60479523Y-15497440D01*
X60479523Y-15497440D02*
X60374761Y-15445060D01*
X60374761Y-15445060D02*
X60269999Y-15340298D01*
X60269999Y-15340298D02*
X60217618Y-15130774D01*
X60217618Y-15130774D02*
X60217618Y-14764107D01*
X60217618Y-14764107D02*
X60269999Y-14554583D01*
X60269999Y-14554583D02*
X60374761Y-14449821D01*
X60374761Y-14449821D02*
X60479523Y-14397440D01*
D13*
X27227143Y-34542662D02*
X27227143Y-33342662D01*
X27227143Y-33342662D02*
X27684286Y-33342662D01*
X27684286Y-33342662D02*
X27798571Y-33399805D01*
X27798571Y-33399805D02*
X27855714Y-33456948D01*
X27855714Y-33456948D02*
X27912857Y-33571234D01*
X27912857Y-33571234D02*
X27912857Y-33742662D01*
X27912857Y-33742662D02*
X27855714Y-33856948D01*
X27855714Y-33856948D02*
X27798571Y-33914091D01*
X27798571Y-33914091D02*
X27684286Y-33971234D01*
X27684286Y-33971234D02*
X27227143Y-33971234D01*
X28370000Y-34199805D02*
X28941429Y-34199805D01*
X28255714Y-34542662D02*
X28655714Y-33342662D01*
X28655714Y-33342662D02*
X29055714Y-34542662D01*
X30141428Y-34542662D02*
X29741428Y-33971234D01*
X29455714Y-34542662D02*
X29455714Y-33342662D01*
X29455714Y-33342662D02*
X29912857Y-33342662D01*
X29912857Y-33342662D02*
X30027142Y-33399805D01*
X30027142Y-33399805D02*
X30084285Y-33456948D01*
X30084285Y-33456948D02*
X30141428Y-33571234D01*
X30141428Y-33571234D02*
X30141428Y-33742662D01*
X30141428Y-33742662D02*
X30084285Y-33856948D01*
X30084285Y-33856948D02*
X30027142Y-33914091D01*
X30027142Y-33914091D02*
X29912857Y-33971234D01*
X29912857Y-33971234D02*
X29455714Y-33971234D01*
X30598571Y-34199805D02*
X31170000Y-34199805D01*
X30484285Y-34542662D02*
X30884285Y-33342662D01*
X30884285Y-33342662D02*
X31284285Y-34542662D01*
X32827142Y-33342662D02*
X33055714Y-33342662D01*
X33055714Y-33342662D02*
X33169999Y-33399805D01*
X33169999Y-33399805D02*
X33284285Y-33514091D01*
X33284285Y-33514091D02*
X33341428Y-33742662D01*
X33341428Y-33742662D02*
X33341428Y-34142662D01*
X33341428Y-34142662D02*
X33284285Y-34371234D01*
X33284285Y-34371234D02*
X33169999Y-34485520D01*
X33169999Y-34485520D02*
X33055714Y-34542662D01*
X33055714Y-34542662D02*
X32827142Y-34542662D01*
X32827142Y-34542662D02*
X32712857Y-34485520D01*
X32712857Y-34485520D02*
X32598571Y-34371234D01*
X32598571Y-34371234D02*
X32541428Y-34142662D01*
X32541428Y-34142662D02*
X32541428Y-33742662D01*
X32541428Y-33742662D02*
X32598571Y-33514091D01*
X32598571Y-33514091D02*
X32712857Y-33399805D01*
X32712857Y-33399805D02*
X32827142Y-33342662D01*
X33855714Y-33342662D02*
X33855714Y-34314091D01*
X33855714Y-34314091D02*
X33912857Y-34428377D01*
X33912857Y-34428377D02*
X33970000Y-34485520D01*
X33970000Y-34485520D02*
X34084285Y-34542662D01*
X34084285Y-34542662D02*
X34312857Y-34542662D01*
X34312857Y-34542662D02*
X34427142Y-34485520D01*
X34427142Y-34485520D02*
X34484285Y-34428377D01*
X34484285Y-34428377D02*
X34541428Y-34314091D01*
X34541428Y-34314091D02*
X34541428Y-33342662D01*
X34941428Y-33342662D02*
X35627143Y-33342662D01*
X35284285Y-34542662D02*
X35284285Y-33342662D01*
X36712857Y-34542662D02*
X36312857Y-33971234D01*
X36027143Y-34542662D02*
X36027143Y-33342662D01*
X36027143Y-33342662D02*
X36484286Y-33342662D01*
X36484286Y-33342662D02*
X36598571Y-33399805D01*
X36598571Y-33399805D02*
X36655714Y-33456948D01*
X36655714Y-33456948D02*
X36712857Y-33571234D01*
X36712857Y-33571234D02*
X36712857Y-33742662D01*
X36712857Y-33742662D02*
X36655714Y-33856948D01*
X36655714Y-33856948D02*
X36598571Y-33914091D01*
X36598571Y-33914091D02*
X36484286Y-33971234D01*
X36484286Y-33971234D02*
X36027143Y-33971234D01*
X37455714Y-33342662D02*
X37684286Y-33342662D01*
X37684286Y-33342662D02*
X37798571Y-33399805D01*
X37798571Y-33399805D02*
X37912857Y-33514091D01*
X37912857Y-33514091D02*
X37970000Y-33742662D01*
X37970000Y-33742662D02*
X37970000Y-34142662D01*
X37970000Y-34142662D02*
X37912857Y-34371234D01*
X37912857Y-34371234D02*
X37798571Y-34485520D01*
X37798571Y-34485520D02*
X37684286Y-34542662D01*
X37684286Y-34542662D02*
X37455714Y-34542662D01*
X37455714Y-34542662D02*
X37341429Y-34485520D01*
X37341429Y-34485520D02*
X37227143Y-34371234D01*
X37227143Y-34371234D02*
X37170000Y-34142662D01*
X37170000Y-34142662D02*
X37170000Y-33742662D01*
X37170000Y-33742662D02*
X37227143Y-33514091D01*
X37227143Y-33514091D02*
X37341429Y-33399805D01*
X37341429Y-33399805D02*
X37455714Y-33342662D01*
X38427143Y-34485520D02*
X38598572Y-34542662D01*
X38598572Y-34542662D02*
X38884286Y-34542662D01*
X38884286Y-34542662D02*
X38998572Y-34485520D01*
X38998572Y-34485520D02*
X39055714Y-34428377D01*
X39055714Y-34428377D02*
X39112857Y-34314091D01*
X39112857Y-34314091D02*
X39112857Y-34199805D01*
X39112857Y-34199805D02*
X39055714Y-34085520D01*
X39055714Y-34085520D02*
X38998572Y-34028377D01*
X38998572Y-34028377D02*
X38884286Y-33971234D01*
X38884286Y-33971234D02*
X38655714Y-33914091D01*
X38655714Y-33914091D02*
X38541429Y-33856948D01*
X38541429Y-33856948D02*
X38484286Y-33799805D01*
X38484286Y-33799805D02*
X38427143Y-33685520D01*
X38427143Y-33685520D02*
X38427143Y-33571234D01*
X38427143Y-33571234D02*
X38484286Y-33456948D01*
X38484286Y-33456948D02*
X38541429Y-33399805D01*
X38541429Y-33399805D02*
X38655714Y-33342662D01*
X38655714Y-33342662D02*
X38941429Y-33342662D01*
X38941429Y-33342662D02*
X39112857Y-33399805D01*
X40541429Y-34542662D02*
X40541429Y-33342662D01*
X40541429Y-33342662D02*
X40998572Y-33342662D01*
X40998572Y-33342662D02*
X41112857Y-33399805D01*
X41112857Y-33399805D02*
X41170000Y-33456948D01*
X41170000Y-33456948D02*
X41227143Y-33571234D01*
X41227143Y-33571234D02*
X41227143Y-33742662D01*
X41227143Y-33742662D02*
X41170000Y-33856948D01*
X41170000Y-33856948D02*
X41112857Y-33914091D01*
X41112857Y-33914091D02*
X40998572Y-33971234D01*
X40998572Y-33971234D02*
X40541429Y-33971234D01*
X41741429Y-33914091D02*
X42141429Y-33914091D01*
X42312857Y-34542662D02*
X41741429Y-34542662D01*
X41741429Y-34542662D02*
X41741429Y-33342662D01*
X41741429Y-33342662D02*
X42312857Y-33342662D01*
X43512857Y-34542662D02*
X43112857Y-33971234D01*
X42827143Y-34542662D02*
X42827143Y-33342662D01*
X42827143Y-33342662D02*
X43284286Y-33342662D01*
X43284286Y-33342662D02*
X43398571Y-33399805D01*
X43398571Y-33399805D02*
X43455714Y-33456948D01*
X43455714Y-33456948D02*
X43512857Y-33571234D01*
X43512857Y-33571234D02*
X43512857Y-33742662D01*
X43512857Y-33742662D02*
X43455714Y-33856948D01*
X43455714Y-33856948D02*
X43398571Y-33914091D01*
X43398571Y-33914091D02*
X43284286Y-33971234D01*
X43284286Y-33971234D02*
X42827143Y-33971234D01*
X44027143Y-34542662D02*
X44027143Y-33342662D01*
X44998572Y-33914091D02*
X44598572Y-33914091D01*
X44598572Y-34542662D02*
X44598572Y-33342662D01*
X44598572Y-33342662D02*
X45170000Y-33342662D01*
X45627143Y-33914091D02*
X46027143Y-33914091D01*
X46198571Y-34542662D02*
X45627143Y-34542662D01*
X45627143Y-34542662D02*
X45627143Y-33342662D01*
X45627143Y-33342662D02*
X46198571Y-33342662D01*
X46027143Y-32885520D02*
X45855714Y-33056948D01*
X47398571Y-34542662D02*
X46998571Y-33971234D01*
X46712857Y-34542662D02*
X46712857Y-33342662D01*
X46712857Y-33342662D02*
X47170000Y-33342662D01*
X47170000Y-33342662D02*
X47284285Y-33399805D01*
X47284285Y-33399805D02*
X47341428Y-33456948D01*
X47341428Y-33456948D02*
X47398571Y-33571234D01*
X47398571Y-33571234D02*
X47398571Y-33742662D01*
X47398571Y-33742662D02*
X47341428Y-33856948D01*
X47341428Y-33856948D02*
X47284285Y-33914091D01*
X47284285Y-33914091D02*
X47170000Y-33971234D01*
X47170000Y-33971234D02*
X46712857Y-33971234D01*
X47912857Y-34542662D02*
X47912857Y-33342662D01*
X49170000Y-34428377D02*
X49112857Y-34485520D01*
X49112857Y-34485520D02*
X48941429Y-34542662D01*
X48941429Y-34542662D02*
X48827143Y-34542662D01*
X48827143Y-34542662D02*
X48655714Y-34485520D01*
X48655714Y-34485520D02*
X48541429Y-34371234D01*
X48541429Y-34371234D02*
X48484286Y-34256948D01*
X48484286Y-34256948D02*
X48427143Y-34028377D01*
X48427143Y-34028377D02*
X48427143Y-33856948D01*
X48427143Y-33856948D02*
X48484286Y-33628377D01*
X48484286Y-33628377D02*
X48541429Y-33514091D01*
X48541429Y-33514091D02*
X48655714Y-33399805D01*
X48655714Y-33399805D02*
X48827143Y-33342662D01*
X48827143Y-33342662D02*
X48941429Y-33342662D01*
X48941429Y-33342662D02*
X49112857Y-33399805D01*
X49112857Y-33399805D02*
X49170000Y-33456948D01*
X49912857Y-33342662D02*
X50141429Y-33342662D01*
X50141429Y-33342662D02*
X50255714Y-33399805D01*
X50255714Y-33399805D02*
X50370000Y-33514091D01*
X50370000Y-33514091D02*
X50427143Y-33742662D01*
X50427143Y-33742662D02*
X50427143Y-34142662D01*
X50427143Y-34142662D02*
X50370000Y-34371234D01*
X50370000Y-34371234D02*
X50255714Y-34485520D01*
X50255714Y-34485520D02*
X50141429Y-34542662D01*
X50141429Y-34542662D02*
X49912857Y-34542662D01*
X49912857Y-34542662D02*
X49798572Y-34485520D01*
X49798572Y-34485520D02*
X49684286Y-34371234D01*
X49684286Y-34371234D02*
X49627143Y-34142662D01*
X49627143Y-34142662D02*
X49627143Y-33742662D01*
X49627143Y-33742662D02*
X49684286Y-33514091D01*
X49684286Y-33514091D02*
X49798572Y-33399805D01*
X49798572Y-33399805D02*
X49912857Y-33342662D01*
X50884286Y-34485520D02*
X51055715Y-34542662D01*
X51055715Y-34542662D02*
X51341429Y-34542662D01*
X51341429Y-34542662D02*
X51455715Y-34485520D01*
X51455715Y-34485520D02*
X51512857Y-34428377D01*
X51512857Y-34428377D02*
X51570000Y-34314091D01*
X51570000Y-34314091D02*
X51570000Y-34199805D01*
X51570000Y-34199805D02*
X51512857Y-34085520D01*
X51512857Y-34085520D02*
X51455715Y-34028377D01*
X51455715Y-34028377D02*
X51341429Y-33971234D01*
X51341429Y-33971234D02*
X51112857Y-33914091D01*
X51112857Y-33914091D02*
X50998572Y-33856948D01*
X50998572Y-33856948D02*
X50941429Y-33799805D01*
X50941429Y-33799805D02*
X50884286Y-33685520D01*
X50884286Y-33685520D02*
X50884286Y-33571234D01*
X50884286Y-33571234D02*
X50941429Y-33456948D01*
X50941429Y-33456948D02*
X50998572Y-33399805D01*
X50998572Y-33399805D02*
X51112857Y-33342662D01*
X51112857Y-33342662D02*
X51398572Y-33342662D01*
X51398572Y-33342662D02*
X51570000Y-33399805D01*
D10*
X39036666Y-35452219D02*
X39036666Y-36166504D01*
X39036666Y-36166504D02*
X38989047Y-36309361D01*
X38989047Y-36309361D02*
X38893809Y-36404600D01*
X38893809Y-36404600D02*
X38750952Y-36452219D01*
X38750952Y-36452219D02*
X38655714Y-36452219D01*
X39465238Y-35547457D02*
X39512857Y-35499838D01*
X39512857Y-35499838D02*
X39608095Y-35452219D01*
X39608095Y-35452219D02*
X39846190Y-35452219D01*
X39846190Y-35452219D02*
X39941428Y-35499838D01*
X39941428Y-35499838D02*
X39989047Y-35547457D01*
X39989047Y-35547457D02*
X40036666Y-35642695D01*
X40036666Y-35642695D02*
X40036666Y-35737933D01*
X40036666Y-35737933D02*
X39989047Y-35880790D01*
X39989047Y-35880790D02*
X39417619Y-36452219D01*
X39417619Y-36452219D02*
X40036666Y-36452219D01*
X1738095Y-37547457D02*
X1785714Y-37499838D01*
X1785714Y-37499838D02*
X1880952Y-37452219D01*
X1880952Y-37452219D02*
X2119047Y-37452219D01*
X2119047Y-37452219D02*
X2214285Y-37499838D01*
X2214285Y-37499838D02*
X2261904Y-37547457D01*
X2261904Y-37547457D02*
X2309523Y-37642695D01*
X2309523Y-37642695D02*
X2309523Y-37737933D01*
X2309523Y-37737933D02*
X2261904Y-37880790D01*
X2261904Y-37880790D02*
X1690476Y-38452219D01*
X1690476Y-38452219D02*
X2309523Y-38452219D01*
X2785714Y-38452219D02*
X2976190Y-38452219D01*
X2976190Y-38452219D02*
X3071428Y-38404600D01*
X3071428Y-38404600D02*
X3119047Y-38356980D01*
X3119047Y-38356980D02*
X3214285Y-38214123D01*
X3214285Y-38214123D02*
X3261904Y-38023647D01*
X3261904Y-38023647D02*
X3261904Y-37642695D01*
X3261904Y-37642695D02*
X3214285Y-37547457D01*
X3214285Y-37547457D02*
X3166666Y-37499838D01*
X3166666Y-37499838D02*
X3071428Y-37452219D01*
X3071428Y-37452219D02*
X2880952Y-37452219D01*
X2880952Y-37452219D02*
X2785714Y-37499838D01*
X2785714Y-37499838D02*
X2738095Y-37547457D01*
X2738095Y-37547457D02*
X2690476Y-37642695D01*
X2690476Y-37642695D02*
X2690476Y-37880790D01*
X2690476Y-37880790D02*
X2738095Y-37976028D01*
X2738095Y-37976028D02*
X2785714Y-38023647D01*
X2785714Y-38023647D02*
X2880952Y-38071266D01*
X2880952Y-38071266D02*
X3071428Y-38071266D01*
X3071428Y-38071266D02*
X3166666Y-38023647D01*
X3166666Y-38023647D02*
X3214285Y-37976028D01*
X3214285Y-37976028D02*
X3261904Y-37880790D01*
X76261904Y-37452219D02*
X75785714Y-37452219D01*
X75785714Y-37452219D02*
X75738095Y-37928409D01*
X75738095Y-37928409D02*
X75785714Y-37880790D01*
X75785714Y-37880790D02*
X75880952Y-37833171D01*
X75880952Y-37833171D02*
X76119047Y-37833171D01*
X76119047Y-37833171D02*
X76214285Y-37880790D01*
X76214285Y-37880790D02*
X76261904Y-37928409D01*
X76261904Y-37928409D02*
X76309523Y-38023647D01*
X76309523Y-38023647D02*
X76309523Y-38261742D01*
X76309523Y-38261742D02*
X76261904Y-38356980D01*
X76261904Y-38356980D02*
X76214285Y-38404600D01*
X76214285Y-38404600D02*
X76119047Y-38452219D01*
X76119047Y-38452219D02*
X75880952Y-38452219D01*
X75880952Y-38452219D02*
X75785714Y-38404600D01*
X75785714Y-38404600D02*
X75738095Y-38356980D01*
X77166666Y-37452219D02*
X76976190Y-37452219D01*
X76976190Y-37452219D02*
X76880952Y-37499838D01*
X76880952Y-37499838D02*
X76833333Y-37547457D01*
X76833333Y-37547457D02*
X76738095Y-37690314D01*
X76738095Y-37690314D02*
X76690476Y-37880790D01*
X76690476Y-37880790D02*
X76690476Y-38261742D01*
X76690476Y-38261742D02*
X76738095Y-38356980D01*
X76738095Y-38356980D02*
X76785714Y-38404600D01*
X76785714Y-38404600D02*
X76880952Y-38452219D01*
X76880952Y-38452219D02*
X77071428Y-38452219D01*
X77071428Y-38452219D02*
X77166666Y-38404600D01*
X77166666Y-38404600D02*
X77214285Y-38356980D01*
X77214285Y-38356980D02*
X77261904Y-38261742D01*
X77261904Y-38261742D02*
X77261904Y-38023647D01*
X77261904Y-38023647D02*
X77214285Y-37928409D01*
X77214285Y-37928409D02*
X77166666Y-37880790D01*
X77166666Y-37880790D02*
X77071428Y-37833171D01*
X77071428Y-37833171D02*
X76880952Y-37833171D01*
X76880952Y-37833171D02*
X76785714Y-37880790D01*
X76785714Y-37880790D02*
X76738095Y-37928409D01*
X76738095Y-37928409D02*
X76690476Y-38023647D01*
X39036666Y-5952219D02*
X39036666Y-6666504D01*
X39036666Y-6666504D02*
X38989047Y-6809361D01*
X38989047Y-6809361D02*
X38893809Y-6904600D01*
X38893809Y-6904600D02*
X38750952Y-6952219D01*
X38750952Y-6952219D02*
X38655714Y-6952219D01*
X40036666Y-6952219D02*
X39465238Y-6952219D01*
X39750952Y-6952219D02*
X39750952Y-5952219D01*
X39750952Y-5952219D02*
X39655714Y-6095076D01*
X39655714Y-6095076D02*
X39560476Y-6190314D01*
X39560476Y-6190314D02*
X39465238Y-6237933D01*
D14*
X814285Y-4092711D02*
X857142Y-4049854D01*
X857142Y-4049854D02*
X942857Y-4006997D01*
X942857Y-4006997D02*
X1157142Y-4006997D01*
X1157142Y-4006997D02*
X1242857Y-4049854D01*
X1242857Y-4049854D02*
X1285714Y-4092711D01*
X1285714Y-4092711D02*
X1328571Y-4178425D01*
X1328571Y-4178425D02*
X1328571Y-4264140D01*
X1328571Y-4264140D02*
X1285714Y-4392711D01*
X1285714Y-4392711D02*
X771428Y-4906997D01*
X771428Y-4906997D02*
X1328571Y-4906997D01*
X1757142Y-4906997D02*
X1928571Y-4906997D01*
X1928571Y-4906997D02*
X2014285Y-4864140D01*
X2014285Y-4864140D02*
X2057142Y-4821282D01*
X2057142Y-4821282D02*
X2142857Y-4692711D01*
X2142857Y-4692711D02*
X2185714Y-4521282D01*
X2185714Y-4521282D02*
X2185714Y-4178425D01*
X2185714Y-4178425D02*
X2142857Y-4092711D01*
X2142857Y-4092711D02*
X2100000Y-4049854D01*
X2100000Y-4049854D02*
X2014285Y-4006997D01*
X2014285Y-4006997D02*
X1842857Y-4006997D01*
X1842857Y-4006997D02*
X1757142Y-4049854D01*
X1757142Y-4049854D02*
X1714285Y-4092711D01*
X1714285Y-4092711D02*
X1671428Y-4178425D01*
X1671428Y-4178425D02*
X1671428Y-4392711D01*
X1671428Y-4392711D02*
X1714285Y-4478425D01*
X1714285Y-4478425D02*
X1757142Y-4521282D01*
X1757142Y-4521282D02*
X1842857Y-4564140D01*
X1842857Y-4564140D02*
X2014285Y-4564140D01*
X2014285Y-4564140D02*
X2100000Y-4521282D01*
X2100000Y-4521282D02*
X2142857Y-4478425D01*
X2142857Y-4478425D02*
X2185714Y-4392711D01*
X31578572Y-9364140D02*
X31707144Y-9406997D01*
X31707144Y-9406997D02*
X31921429Y-9406997D01*
X31921429Y-9406997D02*
X32007144Y-9364140D01*
X32007144Y-9364140D02*
X32050001Y-9321282D01*
X32050001Y-9321282D02*
X32092858Y-9235568D01*
X32092858Y-9235568D02*
X32092858Y-9149854D01*
X32092858Y-9149854D02*
X32050001Y-9064140D01*
X32050001Y-9064140D02*
X32007144Y-9021282D01*
X32007144Y-9021282D02*
X31921429Y-8978425D01*
X31921429Y-8978425D02*
X31750001Y-8935568D01*
X31750001Y-8935568D02*
X31664286Y-8892711D01*
X31664286Y-8892711D02*
X31621429Y-8849854D01*
X31621429Y-8849854D02*
X31578572Y-8764140D01*
X31578572Y-8764140D02*
X31578572Y-8678425D01*
X31578572Y-8678425D02*
X31621429Y-8592711D01*
X31621429Y-8592711D02*
X31664286Y-8549854D01*
X31664286Y-8549854D02*
X31750001Y-8506997D01*
X31750001Y-8506997D02*
X31964286Y-8506997D01*
X31964286Y-8506997D02*
X32092858Y-8549854D01*
X32650001Y-8506997D02*
X32821429Y-8506997D01*
X32821429Y-8506997D02*
X32907144Y-8549854D01*
X32907144Y-8549854D02*
X32992858Y-8635568D01*
X32992858Y-8635568D02*
X33035715Y-8806997D01*
X33035715Y-8806997D02*
X33035715Y-9106997D01*
X33035715Y-9106997D02*
X32992858Y-9278425D01*
X32992858Y-9278425D02*
X32907144Y-9364140D01*
X32907144Y-9364140D02*
X32821429Y-9406997D01*
X32821429Y-9406997D02*
X32650001Y-9406997D01*
X32650001Y-9406997D02*
X32564287Y-9364140D01*
X32564287Y-9364140D02*
X32478572Y-9278425D01*
X32478572Y-9278425D02*
X32435715Y-9106997D01*
X32435715Y-9106997D02*
X32435715Y-8806997D01*
X32435715Y-8806997D02*
X32478572Y-8635568D01*
X32478572Y-8635568D02*
X32564287Y-8549854D01*
X32564287Y-8549854D02*
X32650001Y-8506997D01*
X33850001Y-9406997D02*
X33421429Y-9406997D01*
X33421429Y-9406997D02*
X33421429Y-8506997D01*
X34150000Y-9406997D02*
X34150000Y-8506997D01*
X34150000Y-8506997D02*
X34364286Y-8506997D01*
X34364286Y-8506997D02*
X34492857Y-8549854D01*
X34492857Y-8549854D02*
X34578572Y-8635568D01*
X34578572Y-8635568D02*
X34621429Y-8721282D01*
X34621429Y-8721282D02*
X34664286Y-8892711D01*
X34664286Y-8892711D02*
X34664286Y-9021282D01*
X34664286Y-9021282D02*
X34621429Y-9192711D01*
X34621429Y-9192711D02*
X34578572Y-9278425D01*
X34578572Y-9278425D02*
X34492857Y-9364140D01*
X34492857Y-9364140D02*
X34364286Y-9406997D01*
X34364286Y-9406997D02*
X34150000Y-9406997D01*
X35007143Y-9149854D02*
X35435715Y-9149854D01*
X34921429Y-9406997D02*
X35221429Y-8506997D01*
X35221429Y-8506997D02*
X35521429Y-9406997D01*
X36335715Y-9406997D02*
X36035715Y-8978425D01*
X35821429Y-9406997D02*
X35821429Y-8506997D01*
X35821429Y-8506997D02*
X36164286Y-8506997D01*
X36164286Y-8506997D02*
X36250001Y-8549854D01*
X36250001Y-8549854D02*
X36292858Y-8592711D01*
X36292858Y-8592711D02*
X36335715Y-8678425D01*
X36335715Y-8678425D02*
X36335715Y-8806997D01*
X36335715Y-8806997D02*
X36292858Y-8892711D01*
X36292858Y-8892711D02*
X36250001Y-8935568D01*
X36250001Y-8935568D02*
X36164286Y-8978425D01*
X36164286Y-8978425D02*
X35821429Y-8978425D01*
X37407143Y-9406997D02*
X37407143Y-8506997D01*
X37407143Y-8506997D02*
X37621429Y-8506997D01*
X37621429Y-8506997D02*
X37750000Y-8549854D01*
X37750000Y-8549854D02*
X37835715Y-8635568D01*
X37835715Y-8635568D02*
X37878572Y-8721282D01*
X37878572Y-8721282D02*
X37921429Y-8892711D01*
X37921429Y-8892711D02*
X37921429Y-9021282D01*
X37921429Y-9021282D02*
X37878572Y-9192711D01*
X37878572Y-9192711D02*
X37835715Y-9278425D01*
X37835715Y-9278425D02*
X37750000Y-9364140D01*
X37750000Y-9364140D02*
X37621429Y-9406997D01*
X37621429Y-9406997D02*
X37407143Y-9406997D01*
X38478572Y-8506997D02*
X38650000Y-8506997D01*
X38650000Y-8506997D02*
X38735715Y-8549854D01*
X38735715Y-8549854D02*
X38821429Y-8635568D01*
X38821429Y-8635568D02*
X38864286Y-8806997D01*
X38864286Y-8806997D02*
X38864286Y-9106997D01*
X38864286Y-9106997D02*
X38821429Y-9278425D01*
X38821429Y-9278425D02*
X38735715Y-9364140D01*
X38735715Y-9364140D02*
X38650000Y-9406997D01*
X38650000Y-9406997D02*
X38478572Y-9406997D01*
X38478572Y-9406997D02*
X38392858Y-9364140D01*
X38392858Y-9364140D02*
X38307143Y-9278425D01*
X38307143Y-9278425D02*
X38264286Y-9106997D01*
X38264286Y-9106997D02*
X38264286Y-8806997D01*
X38264286Y-8806997D02*
X38307143Y-8635568D01*
X38307143Y-8635568D02*
X38392858Y-8549854D01*
X38392858Y-8549854D02*
X38478572Y-8506997D01*
X39207143Y-9364140D02*
X39335715Y-9406997D01*
X39335715Y-9406997D02*
X39550000Y-9406997D01*
X39550000Y-9406997D02*
X39635715Y-9364140D01*
X39635715Y-9364140D02*
X39678572Y-9321282D01*
X39678572Y-9321282D02*
X39721429Y-9235568D01*
X39721429Y-9235568D02*
X39721429Y-9149854D01*
X39721429Y-9149854D02*
X39678572Y-9064140D01*
X39678572Y-9064140D02*
X39635715Y-9021282D01*
X39635715Y-9021282D02*
X39550000Y-8978425D01*
X39550000Y-8978425D02*
X39378572Y-8935568D01*
X39378572Y-8935568D02*
X39292857Y-8892711D01*
X39292857Y-8892711D02*
X39250000Y-8849854D01*
X39250000Y-8849854D02*
X39207143Y-8764140D01*
X39207143Y-8764140D02*
X39207143Y-8678425D01*
X39207143Y-8678425D02*
X39250000Y-8592711D01*
X39250000Y-8592711D02*
X39292857Y-8549854D01*
X39292857Y-8549854D02*
X39378572Y-8506997D01*
X39378572Y-8506997D02*
X39592857Y-8506997D01*
X39592857Y-8506997D02*
X39721429Y-8549854D01*
X40792857Y-9406997D02*
X40792857Y-8506997D01*
X40792857Y-8506997D02*
X41007143Y-8506997D01*
X41007143Y-8506997D02*
X41135714Y-8549854D01*
X41135714Y-8549854D02*
X41221429Y-8635568D01*
X41221429Y-8635568D02*
X41264286Y-8721282D01*
X41264286Y-8721282D02*
X41307143Y-8892711D01*
X41307143Y-8892711D02*
X41307143Y-9021282D01*
X41307143Y-9021282D02*
X41264286Y-9192711D01*
X41264286Y-9192711D02*
X41221429Y-9278425D01*
X41221429Y-9278425D02*
X41135714Y-9364140D01*
X41135714Y-9364140D02*
X41007143Y-9406997D01*
X41007143Y-9406997D02*
X40792857Y-9406997D01*
X41864286Y-8506997D02*
X42035714Y-8506997D01*
X42035714Y-8506997D02*
X42121429Y-8549854D01*
X42121429Y-8549854D02*
X42207143Y-8635568D01*
X42207143Y-8635568D02*
X42250000Y-8806997D01*
X42250000Y-8806997D02*
X42250000Y-9106997D01*
X42250000Y-9106997D02*
X42207143Y-9278425D01*
X42207143Y-9278425D02*
X42121429Y-9364140D01*
X42121429Y-9364140D02*
X42035714Y-9406997D01*
X42035714Y-9406997D02*
X41864286Y-9406997D01*
X41864286Y-9406997D02*
X41778572Y-9364140D01*
X41778572Y-9364140D02*
X41692857Y-9278425D01*
X41692857Y-9278425D02*
X41650000Y-9106997D01*
X41650000Y-9106997D02*
X41650000Y-8806997D01*
X41650000Y-8806997D02*
X41692857Y-8635568D01*
X41692857Y-8635568D02*
X41778572Y-8549854D01*
X41778572Y-8549854D02*
X41864286Y-8506997D01*
X42635714Y-9406997D02*
X42635714Y-8506997D01*
X43021428Y-9364140D02*
X43150000Y-9406997D01*
X43150000Y-9406997D02*
X43364285Y-9406997D01*
X43364285Y-9406997D02*
X43450000Y-9364140D01*
X43450000Y-9364140D02*
X43492857Y-9321282D01*
X43492857Y-9321282D02*
X43535714Y-9235568D01*
X43535714Y-9235568D02*
X43535714Y-9149854D01*
X43535714Y-9149854D02*
X43492857Y-9064140D01*
X43492857Y-9064140D02*
X43450000Y-9021282D01*
X43450000Y-9021282D02*
X43364285Y-8978425D01*
X43364285Y-8978425D02*
X43192857Y-8935568D01*
X43192857Y-8935568D02*
X43107142Y-8892711D01*
X43107142Y-8892711D02*
X43064285Y-8849854D01*
X43064285Y-8849854D02*
X43021428Y-8764140D01*
X43021428Y-8764140D02*
X43021428Y-8678425D01*
X43021428Y-8678425D02*
X43064285Y-8592711D01*
X43064285Y-8592711D02*
X43107142Y-8549854D01*
X43107142Y-8549854D02*
X43192857Y-8506997D01*
X43192857Y-8506997D02*
X43407142Y-8506997D01*
X43407142Y-8506997D02*
X43535714Y-8549854D01*
X45035714Y-9406997D02*
X44607142Y-9406997D01*
X44607142Y-9406997D02*
X44607142Y-8506997D01*
X45292856Y-9149854D02*
X45721428Y-9149854D01*
X45207142Y-9406997D02*
X45507142Y-8506997D01*
X45507142Y-8506997D02*
X45807142Y-9406997D01*
X46107142Y-9406997D02*
X46107142Y-8506997D01*
X46107142Y-8506997D02*
X46321428Y-8506997D01*
X46321428Y-8506997D02*
X46449999Y-8549854D01*
X46449999Y-8549854D02*
X46535714Y-8635568D01*
X46535714Y-8635568D02*
X46578571Y-8721282D01*
X46578571Y-8721282D02*
X46621428Y-8892711D01*
X46621428Y-8892711D02*
X46621428Y-9021282D01*
X46621428Y-9021282D02*
X46578571Y-9192711D01*
X46578571Y-9192711D02*
X46535714Y-9278425D01*
X46535714Y-9278425D02*
X46449999Y-9364140D01*
X46449999Y-9364140D02*
X46321428Y-9406997D01*
X46321428Y-9406997D02*
X46107142Y-9406997D01*
X47178571Y-8506997D02*
X47349999Y-8506997D01*
X47349999Y-8506997D02*
X47435714Y-8549854D01*
X47435714Y-8549854D02*
X47521428Y-8635568D01*
X47521428Y-8635568D02*
X47564285Y-8806997D01*
X47564285Y-8806997D02*
X47564285Y-9106997D01*
X47564285Y-9106997D02*
X47521428Y-9278425D01*
X47521428Y-9278425D02*
X47435714Y-9364140D01*
X47435714Y-9364140D02*
X47349999Y-9406997D01*
X47349999Y-9406997D02*
X47178571Y-9406997D01*
X47178571Y-9406997D02*
X47092857Y-9364140D01*
X47092857Y-9364140D02*
X47007142Y-9278425D01*
X47007142Y-9278425D02*
X46964285Y-9106997D01*
X46964285Y-9106997D02*
X46964285Y-8806997D01*
X46964285Y-8806997D02*
X47007142Y-8635568D01*
X47007142Y-8635568D02*
X47092857Y-8549854D01*
X47092857Y-8549854D02*
X47178571Y-8506997D01*
X47907142Y-9364140D02*
X48035714Y-9406997D01*
X48035714Y-9406997D02*
X48249999Y-9406997D01*
X48249999Y-9406997D02*
X48335714Y-9364140D01*
X48335714Y-9364140D02*
X48378571Y-9321282D01*
X48378571Y-9321282D02*
X48421428Y-9235568D01*
X48421428Y-9235568D02*
X48421428Y-9149854D01*
X48421428Y-9149854D02*
X48378571Y-9064140D01*
X48378571Y-9064140D02*
X48335714Y-9021282D01*
X48335714Y-9021282D02*
X48249999Y-8978425D01*
X48249999Y-8978425D02*
X48078571Y-8935568D01*
X48078571Y-8935568D02*
X47992856Y-8892711D01*
X47992856Y-8892711D02*
X47949999Y-8849854D01*
X47949999Y-8849854D02*
X47907142Y-8764140D01*
X47907142Y-8764140D02*
X47907142Y-8678425D01*
X47907142Y-8678425D02*
X47949999Y-8592711D01*
X47949999Y-8592711D02*
X47992856Y-8549854D01*
X47992856Y-8549854D02*
X48078571Y-8506997D01*
X48078571Y-8506997D02*
X48292856Y-8506997D01*
X48292856Y-8506997D02*
X48421428Y-8549854D01*
X76785714Y-4006997D02*
X76357142Y-4006997D01*
X76357142Y-4006997D02*
X76314285Y-4435568D01*
X76314285Y-4435568D02*
X76357142Y-4392711D01*
X76357142Y-4392711D02*
X76442857Y-4349854D01*
X76442857Y-4349854D02*
X76657142Y-4349854D01*
X76657142Y-4349854D02*
X76742857Y-4392711D01*
X76742857Y-4392711D02*
X76785714Y-4435568D01*
X76785714Y-4435568D02*
X76828571Y-4521282D01*
X76828571Y-4521282D02*
X76828571Y-4735568D01*
X76828571Y-4735568D02*
X76785714Y-4821282D01*
X76785714Y-4821282D02*
X76742857Y-4864140D01*
X76742857Y-4864140D02*
X76657142Y-4906997D01*
X76657142Y-4906997D02*
X76442857Y-4906997D01*
X76442857Y-4906997D02*
X76357142Y-4864140D01*
X76357142Y-4864140D02*
X76314285Y-4821282D01*
X77600000Y-4006997D02*
X77428571Y-4006997D01*
X77428571Y-4006997D02*
X77342857Y-4049854D01*
X77342857Y-4049854D02*
X77300000Y-4092711D01*
X77300000Y-4092711D02*
X77214285Y-4221282D01*
X77214285Y-4221282D02*
X77171428Y-4392711D01*
X77171428Y-4392711D02*
X77171428Y-4735568D01*
X77171428Y-4735568D02*
X77214285Y-4821282D01*
X77214285Y-4821282D02*
X77257142Y-4864140D01*
X77257142Y-4864140D02*
X77342857Y-4906997D01*
X77342857Y-4906997D02*
X77514285Y-4906997D01*
X77514285Y-4906997D02*
X77600000Y-4864140D01*
X77600000Y-4864140D02*
X77642857Y-4821282D01*
X77642857Y-4821282D02*
X77685714Y-4735568D01*
X77685714Y-4735568D02*
X77685714Y-4521282D01*
X77685714Y-4521282D02*
X77642857Y-4435568D01*
X77642857Y-4435568D02*
X77600000Y-4392711D01*
X77600000Y-4392711D02*
X77514285Y-4349854D01*
X77514285Y-4349854D02*
X77342857Y-4349854D01*
X77342857Y-4349854D02*
X77257142Y-4392711D01*
X77257142Y-4392711D02*
X77214285Y-4435568D01*
X77214285Y-4435568D02*
X77171428Y-4521282D01*
D15*
X49895238Y-28454819D02*
X50133333Y-29454819D01*
X50133333Y-29454819D02*
X50323809Y-28740533D01*
X50323809Y-28740533D02*
X50514285Y-29454819D01*
X50514285Y-29454819D02*
X50752381Y-28454819D01*
X51657142Y-29454819D02*
X51085714Y-29454819D01*
X51371428Y-29454819D02*
X51371428Y-28454819D01*
X51371428Y-28454819D02*
X51276190Y-28597676D01*
X51276190Y-28597676D02*
X51180952Y-28692914D01*
X51180952Y-28692914D02*
X51085714Y-28740533D01*
%TO.C,J1*%
X3080000Y-5300000D02*
X3080000Y-300000D01*
X3080000Y-5300000D02*
X75660000Y-5300000D01*
X63500000Y-5300000D02*
X63500000Y-300000D01*
X75660000Y-5300000D02*
X75660000Y-300000D01*
%TD*%
M02*
