%TF.GenerationSoftware,KiCad,Pcbnew,10.0.4*%
%TF.CreationDate,2026-07-27T01:33:33-03:00*%
%TF.ProjectId,tkmem128-expansor,746b6d65-6d31-4323-982d-657870616e73,rev?*%
%TF.SameCoordinates,Original*%
%TF.FileFunction,Copper,L1,Top*%
%TF.FilePolarity,Positive*%
%FSLAX46Y46*%
G04 Gerber Fmt 4.6, Leading zero omitted, Abs format (unit mm)*
G04 Created by KiCad (PCBNEW 10.0.4) date 2026-07-27 01:33:33*
%MOMM*%
%LPD*%
G01*
G04 APERTURE LIST*
G04 Aperture macros list*
%AMRoundRect*
0 Rectangle with rounded corners*
0 $1 Rounding radius*
0 $2 $3 $4 $5 $6 $7 $8 $9 X,Y pos of 4 corners*
0 Add a 4 corners polygon primitive as box body*
4,1,4,$2,$3,$4,$5,$6,$7,$8,$9,$2,$3,0*
0 Add four circle primitives for the rounded corners*
1,1,$1+$1,$2,$3*
1,1,$1+$1,$4,$5*
1,1,$1+$1,$6,$7*
1,1,$1+$1,$8,$9*
0 Add four rect primitives between the rounded corners*
20,1,$1+$1,$2,$3,$4,$5,0*
20,1,$1+$1,$4,$5,$6,$7,0*
20,1,$1+$1,$6,$7,$8,$9,0*
20,1,$1+$1,$8,$9,$2,$3,0*%
G04 Aperture macros list end*
%TA.AperFunction,ComponentPad*%
%ADD10C,1.600000*%
%TD*%
%TA.AperFunction,SMDPad,CuDef*%
%ADD11RoundRect,0.320000X-0.480000X-0.780000X0.480000X-0.780000X0.480000X0.780000X-0.480000X0.780000X0*%
%TD*%
%TA.AperFunction,SMDPad,CuDef*%
%ADD12R,1.524000X7.620000*%
%TD*%
%TA.AperFunction,ViaPad*%
%ADD13C,0.900000*%
%TD*%
%TA.AperFunction,ViaPad*%
%ADD14C,0.700000*%
%TD*%
%TA.AperFunction,Conductor*%
%ADD15C,0.600000*%
%TD*%
%TA.AperFunction,Conductor*%
%ADD16C,0.250000*%
%TD*%
G04 APERTURE END LIST*
D10*
%TO.P,C1,1*%
%TO.N,+5V*%
X6000000Y-20000000D03*
%TO.P,C1,2*%
%TO.N,GND*%
X11000000Y-20000000D03*
%TD*%
D11*
%TO.P,J1,1*%
%TO.N,A14*%
X5080000Y-8925000D03*
%TO.P,J1,2*%
%TO.N,A12*%
X7620000Y-8925000D03*
%TO.P,J1,3*%
%TO.N,+5V*%
X10160000Y-8925000D03*
%TO.P,J1,4*%
%TO.N,BUS_9V*%
X12700000Y-8925000D03*
%TO.P,J1,5*%
%TO.N,GND*%
X15240000Y-8925000D03*
%TO.P,J1,6*%
X17780000Y-8925000D03*
%TO.P,J1,7*%
%TO.N,BUS_P07*%
X20320000Y-8925000D03*
%TO.P,J1,8*%
%TO.N,BUS_CLK*%
X22860000Y-8925000D03*
%TO.P,J1,9*%
%TO.N,A0*%
X25400000Y-8925000D03*
%TO.P,J1,10*%
%TO.N,A1*%
X27940000Y-8925000D03*
%TO.P,J1,11*%
%TO.N,A2*%
X30480000Y-8925000D03*
%TO.P,J1,12*%
%TO.N,A3*%
X33020000Y-8925000D03*
%TO.P,J1,13*%
%TO.N,BUS_IORQGE*%
X35560000Y-8925000D03*
%TO.P,J1,14*%
%TO.N,GND*%
X38100000Y-8925000D03*
%TO.P,J1,15*%
%TO.N,BUS_P15*%
X40640000Y-8925000D03*
%TO.P,J1,16*%
%TO.N,BUS_P16*%
X43180000Y-8925000D03*
%TO.P,J1,17*%
%TO.N,RAMDIS*%
X45720000Y-8925000D03*
%TO.P,J1,18*%
%TO.N,BUS_P18*%
X48260000Y-8925000D03*
%TO.P,J1,19*%
%TO.N,BUS_BUSREQ*%
X50800000Y-8925000D03*
%TO.P,J1,20*%
%TO.N,RESET_N*%
X53340000Y-8925000D03*
%TO.P,J1,21*%
%TO.N,A7*%
X55880000Y-8925000D03*
%TO.P,J1,22*%
%TO.N,A6*%
X58420000Y-8925000D03*
%TO.P,J1,23*%
%TO.N,A5*%
X60960000Y-8925000D03*
%TO.P,J1,24*%
%TO.N,A4*%
X63500000Y-8925000D03*
%TO.P,J1,25*%
%TO.N,ROMCS_BUS*%
X66040000Y-8925000D03*
%TO.P,J1,26*%
%TO.N,BUS_BUSACK*%
X68580000Y-8925000D03*
%TO.P,J1,27*%
%TO.N,A9*%
X71120000Y-8925000D03*
%TO.P,J1,28*%
%TO.N,A11*%
X73660000Y-8925000D03*
%TO.P,J1,29*%
%TO.N,BUS_P29*%
X73660000Y-4075000D03*
%TO.P,J1,30*%
%TO.N,A10*%
X71120000Y-4075000D03*
%TO.P,J1,31*%
%TO.N,A8*%
X68580000Y-4075000D03*
%TO.P,J1,32*%
%TO.N,BUS_RFSH*%
X66040000Y-4075000D03*
%TO.P,J1,33*%
%TO.N,BUS_M1*%
X63500000Y-4075000D03*
%TO.P,J1,34*%
%TO.N,BUS_P34*%
X60960000Y-4075000D03*
%TO.P,J1,35*%
%TO.N,BUS_P35*%
X58420000Y-4075000D03*
%TO.P,J1,36*%
%TO.N,BUS_WAIT*%
X55880000Y-4075000D03*
%TO.P,J1,37*%
%TO.N,BUS_P37*%
X53340000Y-4075000D03*
%TO.P,J1,38*%
%TO.N,WR_N*%
X50800000Y-4075000D03*
%TO.P,J1,39*%
%TO.N,RD_N*%
X48260000Y-4075000D03*
%TO.P,J1,40*%
%TO.N,IORQ_N*%
X45720000Y-4075000D03*
%TO.P,J1,41*%
%TO.N,MREQ_N*%
X43180000Y-4075000D03*
%TO.P,J1,42*%
%TO.N,BUS_HALT*%
X40640000Y-4075000D03*
%TO.P,J1,43*%
%TO.N,BUS_NMI*%
X38100000Y-4075000D03*
%TO.P,J1,44*%
%TO.N,BUS_INT*%
X35560000Y-4075000D03*
%TO.P,J1,45*%
%TO.N,D4*%
X33020000Y-4075000D03*
%TO.P,J1,46*%
%TO.N,D3*%
X30480000Y-4075000D03*
%TO.P,J1,47*%
%TO.N,D5*%
X27940000Y-4075000D03*
%TO.P,J1,48*%
%TO.N,D6*%
X25400000Y-4075000D03*
%TO.P,J1,49*%
%TO.N,D2*%
X22860000Y-4075000D03*
%TO.P,J1,50*%
%TO.N,D1*%
X20320000Y-4075000D03*
%TO.P,J1,51*%
%TO.N,D0*%
X17780000Y-4075000D03*
%TO.P,J1,52*%
%TO.N,GND*%
X15240000Y-4075000D03*
%TO.P,J1,53*%
%TO.N,BUS_SOUNDIN*%
X12700000Y-4075000D03*
%TO.P,J1,54*%
%TO.N,D7*%
X10160000Y-4075000D03*
%TO.P,J1,55*%
%TO.N,A13*%
X7620000Y-4075000D03*
%TO.P,J1,56*%
%TO.N,A15*%
X5080000Y-4075000D03*
%TD*%
D12*
%TO.P,J2,29*%
%TO.N,BUS_P29*%
X73660000Y-41190000D03*
%TO.P,J2,30*%
%TO.N,A10*%
X71120000Y-41190000D03*
%TO.P,J2,31*%
%TO.N,A8*%
X68580000Y-41190000D03*
%TO.P,J2,32*%
%TO.N,BUS_RFSH*%
X66040000Y-41190000D03*
%TO.P,J2,33*%
%TO.N,BUS_M1*%
X63500000Y-41190000D03*
%TO.P,J2,34*%
%TO.N,BUS_P34*%
X60960000Y-41190000D03*
%TO.P,J2,35*%
%TO.N,BUS_P35*%
X58420000Y-41190000D03*
%TO.P,J2,36*%
%TO.N,BUS_WAIT*%
X55880000Y-41190000D03*
%TO.P,J2,37*%
%TO.N,BUS_P37*%
X53340000Y-41190000D03*
%TO.P,J2,38*%
%TO.N,WR_N*%
X50800000Y-41190000D03*
%TO.P,J2,39*%
%TO.N,RD_N*%
X48260000Y-41190000D03*
%TO.P,J2,40*%
%TO.N,IORQ_N*%
X45720000Y-41190000D03*
%TO.P,J2,41*%
%TO.N,MREQ_N*%
X43180000Y-41190000D03*
%TO.P,J2,42*%
%TO.N,BUS_HALT*%
X40640000Y-41190000D03*
%TO.P,J2,43*%
%TO.N,BUS_NMI*%
X38100000Y-41190000D03*
%TO.P,J2,44*%
%TO.N,BUS_INT*%
X35560000Y-41190000D03*
%TO.P,J2,45*%
%TO.N,D4*%
X33020000Y-41190000D03*
%TO.P,J2,46*%
%TO.N,D3*%
X30480000Y-41190000D03*
%TO.P,J2,47*%
%TO.N,D5*%
X27940000Y-41190000D03*
%TO.P,J2,48*%
%TO.N,D6*%
X25400000Y-41190000D03*
%TO.P,J2,49*%
%TO.N,D2*%
X22860000Y-41190000D03*
%TO.P,J2,50*%
%TO.N,D1*%
X20320000Y-41190000D03*
%TO.P,J2,51*%
%TO.N,D0*%
X17780000Y-41190000D03*
%TO.P,J2,53*%
%TO.N,BUS_SOUNDIN*%
X12700000Y-41190000D03*
%TO.P,J2,54*%
%TO.N,D7*%
X10160000Y-41190000D03*
%TO.P,J2,55*%
%TO.N,A13*%
X7620000Y-41190000D03*
%TO.P,J2,56*%
%TO.N,A15*%
X5080000Y-41190000D03*
%TD*%
D13*
%TO.N,GND*%
X38100000Y-10674300D03*
D14*
%TO.N,A14*%
X2005900Y-8875000D03*
%TO.N,A12*%
X7620000Y-10564300D03*
%TO.N,BUS_9V*%
X12700000Y-10531700D03*
%TO.N,BUS_P07*%
X20926900Y-10550600D03*
%TO.N,BUS_CLK*%
X22860000Y-10548000D03*
%TO.N,A0*%
X24752100Y-10945900D03*
%TO.N,A1*%
X28372300Y-10545400D03*
%TO.N,A2*%
X29630200Y-10643800D03*
%TO.N,A3*%
X33443500Y-10907700D03*
%TO.N,BUS_IORQGE*%
X35281800Y-10691900D03*
%TO.N,BUS_P15*%
X41341100Y-10543200D03*
%TO.N,BUS_P16*%
X43180000Y-10535900D03*
%TO.N,RAMDIS*%
X45512200Y-10603300D03*
%TO.N,BUS_P18*%
X48706800Y-10524400D03*
%TO.N,BUS_BUSREQ*%
X50016000Y-10721300D03*
%TO.N,RESET_N*%
X53754300Y-10874300D03*
%TO.N,A7*%
X55880000Y-10538600D03*
%TO.N,A6*%
X58187800Y-10627400D03*
%TO.N,A5*%
X61816400Y-10510000D03*
%TO.N,A4*%
X63941200Y-10786400D03*
%TO.N,ROMCS_BUS*%
X66040000Y-10569300D03*
%TO.N,BUS_BUSACK*%
X69576400Y-10367500D03*
%TO.N,A9*%
X71295500Y-10569700D03*
%TO.N,A11*%
X76734800Y-8875000D03*
%TO.N,BUS_P29*%
X73485800Y-36847500D03*
X73660000Y-5706400D03*
%TO.N,A10*%
X70637700Y-36880100D03*
X71010200Y-5687400D03*
%TO.N,A8*%
X68580000Y-5680200D03*
X69172400Y-36879500D03*
%TO.N,BUS_RFSH*%
X67310000Y-39920000D03*
X66108100Y-5686100D03*
%TO.N,BUS_M1*%
X63500000Y-5687200D03*
X63303100Y-36847500D03*
%TO.N,BUS_P34*%
X60432300Y-36880100D03*
X60808000Y-5706900D03*
%TO.N,BUS_P35*%
X58967000Y-36879500D03*
X58420000Y-5700000D03*
%TO.N,BUS_WAIT*%
X57150000Y-39920000D03*
X55911200Y-5694600D03*
%TO.N,BUS_P37*%
X53120400Y-36847500D03*
X53340000Y-5675500D03*
%TO.N,WR_N*%
X50648600Y-36882600D03*
X50642300Y-5689900D03*
%TO.N,RD_N*%
X47088600Y-37075400D03*
X48260000Y-5719900D03*
%TO.N,IORQ_N*%
X46141700Y-36880100D03*
X45720000Y-5708800D03*
%TO.N,MREQ_N*%
X43180000Y-5707200D03*
X41910100Y-37473700D03*
%TO.N,BUS_HALT*%
X40794100Y-5700800D03*
X40454100Y-36870800D03*
%TO.N,BUS_NMI*%
X36928600Y-37075400D03*
X38100000Y-5680300D03*
%TO.N,BUS_INT*%
X35560000Y-5701700D03*
X35936300Y-36880100D03*
%TO.N,D4*%
X32787600Y-36880100D03*
X33020000Y-5687400D03*
%TO.N,D3*%
X30591300Y-5680700D03*
X30258100Y-36857500D03*
%TO.N,D5*%
X26768600Y-37075400D03*
X27940000Y-5718500D03*
%TO.N,D6*%
X25400000Y-5691800D03*
X25633900Y-36874400D03*
%TO.N,D2*%
X21703600Y-37070400D03*
X22860000Y-5672900D03*
%TO.N,D1*%
X21253400Y-5554900D03*
X19685000Y-36560000D03*
%TO.N,D0*%
X17780000Y-5673000D03*
X19050000Y-39920000D03*
%TO.N,BUS_SOUNDIN*%
X11543500Y-37070400D03*
X12409200Y-5713800D03*
%TO.N,D7*%
X10228500Y-5683300D03*
X10160000Y-36829600D03*
%TO.N,A13*%
X6974000Y-5677000D03*
X6463600Y-37070400D03*
%TO.N,A15*%
X5080000Y-36867500D03*
X5080000Y-5720200D03*
%TD*%
%TO.N,+5V*%
D15*
X10160000Y-8925000D02*
X10160000Y-15840000D01*
X10160000Y-15840000D02*
X6000000Y-20000000D01*
%TO.N,GND*%
X36535800Y-7360800D02*
X19344200Y-7360800D01*
X17780000Y-8925000D02*
X15240000Y-8925000D01*
X15240000Y-4075000D02*
X15240000Y-8925000D01*
X15240000Y-15760000D02*
X11000000Y-20000000D01*
X38100000Y-8925000D02*
X36535800Y-7360800D01*
X15240000Y-8925000D02*
X15240000Y-15760000D01*
X38100000Y-10674300D02*
X38100000Y-8925000D01*
X19344200Y-7360800D02*
X17780000Y-8925000D01*
%TO.N,A14*%
D16*
X2005900Y-8875000D02*
X5030000Y-8875000D01*
%TO.N,A12*%
X7620000Y-10564300D02*
X7620000Y-8925000D01*
%TO.N,BUS_9V*%
X12700000Y-10531700D02*
X12700000Y-8925000D01*
%TO.N,BUS_P07*%
X20926900Y-10550600D02*
X20320000Y-9943700D01*
X20320000Y-9943700D02*
X20320000Y-8925000D01*
%TO.N,BUS_CLK*%
X22860000Y-8925000D02*
X22860000Y-10548000D01*
%TO.N,A0*%
X25400000Y-10298000D02*
X24752100Y-10945900D01*
X25400000Y-8925000D02*
X25400000Y-10298000D01*
%TO.N,A1*%
X28372300Y-10545400D02*
X27940000Y-10113100D01*
X27940000Y-10113100D02*
X27940000Y-8925000D01*
%TO.N,A2*%
X30480000Y-9794000D02*
X29630200Y-10643800D01*
X30480000Y-8925000D02*
X30480000Y-9794000D01*
%TO.N,A3*%
X33020000Y-10484200D02*
X33443500Y-10907700D01*
X33020000Y-8925000D02*
X33020000Y-10484200D01*
%TO.N,BUS_IORQGE*%
X35560000Y-8925000D02*
X35560000Y-10413700D01*
X35560000Y-10413700D02*
X35281800Y-10691900D01*
%TO.N,BUS_P15*%
X41341100Y-10543200D02*
X40640000Y-9842100D01*
X40640000Y-9842100D02*
X40640000Y-8925000D01*
%TO.N,BUS_P16*%
X43180000Y-10535900D02*
X43180000Y-8925000D01*
%TO.N,RAMDIS*%
X45720000Y-8925000D02*
X45720000Y-10395500D01*
X45720000Y-10395500D02*
X45512200Y-10603300D01*
%TO.N,BUS_P18*%
X48260000Y-10077600D02*
X48260000Y-8925000D01*
X48706800Y-10524400D02*
X48260000Y-10077600D01*
%TO.N,BUS_BUSREQ*%
X50800000Y-9937300D02*
X50016000Y-10721300D01*
X50800000Y-8925000D02*
X50800000Y-9937300D01*
%TO.N,RESET_N*%
X53340000Y-8925000D02*
X53340000Y-10460000D01*
X53340000Y-10460000D02*
X53754300Y-10874300D01*
%TO.N,A7*%
X55880000Y-10538600D02*
X55880000Y-8925000D01*
%TO.N,A6*%
X58420000Y-10395200D02*
X58420000Y-8925000D01*
X58187800Y-10627400D02*
X58420000Y-10395200D01*
%TO.N,A5*%
X60960000Y-9653600D02*
X60960000Y-8925000D01*
X61816400Y-10510000D02*
X60960000Y-9653600D01*
%TO.N,A4*%
X63500000Y-8925000D02*
X63500000Y-10345200D01*
X63500000Y-10345200D02*
X63941200Y-10786400D01*
%TO.N,ROMCS_BUS*%
X66040000Y-10569300D02*
X66040000Y-8925000D01*
%TO.N,BUS_BUSACK*%
X68580000Y-9371100D02*
X68580000Y-8925000D01*
X69576400Y-10367500D02*
X68580000Y-9371100D01*
%TO.N,A9*%
X71120000Y-10394200D02*
X71295500Y-10569700D01*
X71120000Y-8925000D02*
X71120000Y-10394200D01*
%TO.N,A11*%
X76734800Y-8875000D02*
X73710000Y-8875000D01*
%TO.N,BUS_P29*%
X73660000Y-5706400D02*
X73660000Y-4075000D01*
X73660000Y-37108300D02*
X73485800Y-36934100D01*
X73660000Y-41190000D02*
X73660000Y-37108300D01*
%TO.N,A10*%
X71120000Y-5577600D02*
X71120000Y-4075000D01*
X71120000Y-41190000D02*
X71120000Y-37108300D01*
X71010200Y-5687400D02*
X71120000Y-5577600D01*
X70865900Y-37108300D02*
X70637700Y-36880100D01*
X71120000Y-37108300D02*
X70865900Y-37108300D01*
%TO.N,A8*%
X68580000Y-41190000D02*
X68580000Y-37108300D01*
X68580000Y-37108300D02*
X68943600Y-37108300D01*
X68580000Y-5680200D02*
X68580000Y-4075000D01*
X68943600Y-37108300D02*
X69172400Y-36879500D01*
%TO.N,BUS_RFSH*%
X66040000Y-41190000D02*
X66040000Y-37108300D01*
X66944500Y-37108300D02*
X67309900Y-37473700D01*
X67309900Y-37473700D02*
X67309900Y-39920000D01*
X66040000Y-5618000D02*
X66040000Y-4075000D01*
X66040000Y-37108300D02*
X66944500Y-37108300D01*
%TO.N,BUS_M1*%
X63500000Y-41190000D02*
X63500000Y-37108300D01*
X63500000Y-5687200D02*
X63500000Y-4075000D01*
X63500000Y-37108300D02*
X63303100Y-36911400D01*
%TO.N,BUS_P34*%
X60960000Y-5554900D02*
X60960000Y-4075000D01*
X60660500Y-37108300D02*
X60432300Y-36880100D01*
X60808000Y-5706900D02*
X60960000Y-5554900D01*
X60960000Y-41190000D02*
X60960000Y-37108300D01*
X60960000Y-37108300D02*
X60660500Y-37108300D01*
%TO.N,BUS_P35*%
X58738200Y-37108300D02*
X58967000Y-36879500D01*
X58420000Y-41190000D02*
X58420000Y-37108300D01*
X58420000Y-5700000D02*
X58420000Y-4075000D01*
X58420000Y-37108300D02*
X58738200Y-37108300D01*
%TO.N,BUS_WAIT*%
X57149900Y-37473700D02*
X57149900Y-39920000D01*
X56784500Y-37108300D02*
X57149900Y-37473700D01*
X55880000Y-41190000D02*
X55880000Y-37108300D01*
X55880000Y-37108300D02*
X56784500Y-37108300D01*
X55880000Y-5663400D02*
X55880000Y-4075000D01*
%TO.N,BUS_P37*%
X53340000Y-37108300D02*
X53120400Y-36888700D01*
X53340000Y-5675500D02*
X53340000Y-4075000D01*
X53340000Y-41190000D02*
X53340000Y-37108300D01*
%TO.N,WR_N*%
X50800000Y-41190000D02*
X50800000Y-37034000D01*
X50800000Y-37034000D02*
X50648600Y-36882600D01*
X50800000Y-5532200D02*
X50800000Y-4075000D01*
X50642300Y-5689900D02*
X50800000Y-5532200D01*
%TO.N,RD_N*%
X48260000Y-37108300D02*
X47121500Y-37108300D01*
X48260000Y-5719900D02*
X48260000Y-4075000D01*
X48260000Y-41190000D02*
X48260000Y-37108300D01*
%TO.N,IORQ_N*%
X45720000Y-41190000D02*
X45720000Y-37108300D01*
X45913500Y-37108300D02*
X46141700Y-36880100D01*
X45720000Y-37108300D02*
X45913500Y-37108300D01*
X45720000Y-5708800D02*
X45720000Y-4075000D01*
%TO.N,MREQ_N*%
X42275500Y-37108300D02*
X41910100Y-37473700D01*
X43180000Y-37108300D02*
X42275500Y-37108300D01*
X43180000Y-5707200D02*
X43180000Y-4075000D01*
X43180000Y-41190000D02*
X43180000Y-37108300D01*
%TO.N,BUS_HALT*%
X40640000Y-5546700D02*
X40640000Y-4075000D01*
X40794100Y-5700800D02*
X40640000Y-5546700D01*
X40640000Y-37056700D02*
X40454100Y-36870800D01*
X40640000Y-41190000D02*
X40640000Y-37056700D01*
%TO.N,BUS_NMI*%
X38100000Y-41190000D02*
X38100000Y-37108300D01*
X38100000Y-37108300D02*
X36961500Y-37108300D01*
X38100000Y-5680300D02*
X38100000Y-4075000D01*
%TO.N,BUS_INT*%
X35708100Y-37108300D02*
X35936300Y-36880100D01*
X35560000Y-5701700D02*
X35560000Y-4075000D01*
X35560000Y-41190000D02*
X35560000Y-37108300D01*
%TO.N,D4*%
X33015800Y-37108300D02*
X32787600Y-36880100D01*
X33020000Y-41190000D02*
X33020000Y-37108300D01*
X33020000Y-5687400D02*
X33020000Y-4075000D01*
%TO.N,D3*%
X30480000Y-41190000D02*
X30480000Y-37079400D01*
X30591300Y-5680700D02*
X30480000Y-5569400D01*
X30480000Y-37079400D02*
X30258100Y-36857500D01*
X30480000Y-5569400D02*
X30480000Y-4075000D01*
%TO.N,D5*%
X27940000Y-5718500D02*
X27940000Y-4075000D01*
X27940000Y-41190000D02*
X27940000Y-37108300D01*
X27940000Y-37108300D02*
X26801500Y-37108300D01*
%TO.N,D6*%
X25400000Y-41190000D02*
X25400000Y-37108300D01*
X25400000Y-37108300D02*
X25633900Y-36874400D01*
X25400000Y-5691800D02*
X25400000Y-4075000D01*
%TO.N,D2*%
X22860000Y-37108300D02*
X21741500Y-37108300D01*
X22860000Y-41190000D02*
X22860000Y-37108300D01*
X22860000Y-4075000D02*
X22860000Y-5672900D01*
%TO.N,D1*%
X21253400Y-5554900D02*
X20320000Y-4621500D01*
X20233300Y-37108300D02*
X19685000Y-36560000D01*
X20320000Y-41190000D02*
X20320000Y-37108300D01*
X20320000Y-4621500D02*
X20320000Y-4075000D01*
%TO.N,D0*%
X17780000Y-37108300D02*
X18684500Y-37108300D01*
X19049900Y-37473700D02*
X19049900Y-39920000D01*
X17780000Y-41190000D02*
X17780000Y-37108300D01*
X17780000Y-5673000D02*
X17780000Y-4075000D01*
X18684500Y-37108300D02*
X19049900Y-37473700D01*
%TO.N,BUS_SOUNDIN*%
X12700000Y-41190000D02*
X12700000Y-37108300D01*
X12700000Y-4075000D02*
X12409200Y-4365800D01*
X12700000Y-37108300D02*
X11581400Y-37108300D01*
X12409200Y-4365800D02*
X12409200Y-5713800D01*
%TO.N,D7*%
X10160000Y-5614800D02*
X10160000Y-4075000D01*
X10160000Y-41190000D02*
X10160000Y-36829600D01*
%TO.N,A13*%
X7620000Y-4075000D02*
X7620000Y-5031000D01*
X7620000Y-37108300D02*
X6501500Y-37108300D01*
X7620000Y-41190000D02*
X7620000Y-37108300D01*
X7620000Y-5031000D02*
X6974000Y-5677000D01*
%TO.N,A15*%
X5080000Y-5720200D02*
X5080000Y-4075000D01*
X5080000Y-41190000D02*
X5080000Y-36867500D01*
%TD*%
%TA.AperFunction,Conductor*%
%TO.N,GND*%
G36*
X78382539Y-320185D02*
G01*
X78428294Y-372989D01*
X78439500Y-424500D01*
X78439500Y-35876000D01*
X78419815Y-35943039D01*
X78367011Y-35988794D01*
X78315500Y-36000000D01*
X20054991Y-36000000D01*
X19996534Y-35985356D01*
X19993127Y-35983534D01*
X19874744Y-35934499D01*
X19874738Y-35934497D01*
X19749071Y-35909500D01*
X19749069Y-35909500D01*
X19620931Y-35909500D01*
X19620929Y-35909500D01*
X19495261Y-35934497D01*
X19495255Y-35934499D01*
X19376872Y-35983534D01*
X19373466Y-35985356D01*
X19315009Y-36000000D01*
X424500Y-36000000D01*
X357461Y-35980315D01*
X311706Y-35927511D01*
X300500Y-35876000D01*
X300500Y-19913389D01*
X4899500Y-19913389D01*
X4899500Y-20086611D01*
X4926598Y-20257701D01*
X4980127Y-20422445D01*
X5058768Y-20576788D01*
X5160586Y-20716928D01*
X5283072Y-20839414D01*
X5423212Y-20941232D01*
X5577555Y-21019873D01*
X5742299Y-21073402D01*
X5913389Y-21100500D01*
X5913390Y-21100500D01*
X6086610Y-21100500D01*
X6086611Y-21100500D01*
X6257701Y-21073402D01*
X6422445Y-21019873D01*
X6576788Y-20941232D01*
X6716928Y-20839414D01*
X6839414Y-20716928D01*
X6941232Y-20576788D01*
X7019873Y-20422445D01*
X7073402Y-20257701D01*
X7100500Y-20086611D01*
X7100500Y-19913389D01*
X7099259Y-19905552D01*
X9800000Y-19905552D01*
X9800000Y-20094447D01*
X9829548Y-20281002D01*
X9887914Y-20460637D01*
X9973666Y-20628933D01*
X9992116Y-20654328D01*
X10600000Y-20046445D01*
X10600000Y-20052661D01*
X10627259Y-20154394D01*
X10679920Y-20245606D01*
X10754394Y-20320080D01*
X10845606Y-20372741D01*
X10947339Y-20400000D01*
X10953554Y-20400000D01*
X10345669Y-21007882D01*
X10345670Y-21007883D01*
X10371059Y-21026329D01*
X10539362Y-21112085D01*
X10718997Y-21170451D01*
X10905553Y-21200000D01*
X11094447Y-21200000D01*
X11281002Y-21170451D01*
X11460637Y-21112085D01*
X11628937Y-21026331D01*
X11654328Y-21007883D01*
X11654328Y-21007882D01*
X11046447Y-20400000D01*
X11052661Y-20400000D01*
X11154394Y-20372741D01*
X11245606Y-20320080D01*
X11320080Y-20245606D01*
X11372741Y-20154394D01*
X11400000Y-20052661D01*
X11400000Y-20046446D01*
X12007882Y-20654328D01*
X12007883Y-20654328D01*
X12026331Y-20628937D01*
X12112085Y-20460637D01*
X12170451Y-20281002D01*
X12200000Y-20094447D01*
X12200000Y-19905552D01*
X12170451Y-19718997D01*
X12112085Y-19539362D01*
X12026329Y-19371059D01*
X12007883Y-19345670D01*
X12007882Y-19345669D01*
X11400000Y-19953552D01*
X11400000Y-19947339D01*
X11372741Y-19845606D01*
X11320080Y-19754394D01*
X11245606Y-19679920D01*
X11154394Y-19627259D01*
X11052661Y-19600000D01*
X11046447Y-19600000D01*
X11654328Y-18992116D01*
X11628933Y-18973666D01*
X11460637Y-18887914D01*
X11281002Y-18829548D01*
X11094447Y-18800000D01*
X10905553Y-18800000D01*
X10718997Y-18829548D01*
X10539362Y-18887914D01*
X10371060Y-18973669D01*
X10345670Y-18992116D01*
X10345669Y-18992116D01*
X10953554Y-19600000D01*
X10947339Y-19600000D01*
X10845606Y-19627259D01*
X10754394Y-19679920D01*
X10679920Y-19754394D01*
X10627259Y-19845606D01*
X10600000Y-19947339D01*
X10600000Y-19953553D01*
X9992116Y-19345669D01*
X9992116Y-19345670D01*
X9973669Y-19371060D01*
X9887914Y-19539362D01*
X9829548Y-19718997D01*
X9800000Y-19905552D01*
X7099259Y-19905552D01*
X7087837Y-19833440D01*
X7092361Y-19798895D01*
X7096824Y-19764358D01*
X7096898Y-19764249D01*
X7096909Y-19764166D01*
X7097151Y-19763878D01*
X7122659Y-19726574D01*
X10518506Y-16330728D01*
X10518511Y-16330724D01*
X10528714Y-16320520D01*
X10528716Y-16320520D01*
X10640520Y-16208716D01*
X10719577Y-16071784D01*
X10760500Y-15919057D01*
X10760500Y-10409249D01*
X10780185Y-10342210D01*
X10832989Y-10296455D01*
X10849894Y-10290176D01*
X10888389Y-10278993D01*
X11023332Y-10199188D01*
X11134188Y-10088332D01*
X11213993Y-9953389D01*
X11257732Y-9802839D01*
X11260500Y-9767668D01*
X11260500Y-8082332D01*
X11260499Y-8082324D01*
X11599500Y-8082324D01*
X11599500Y-9767675D01*
X11602267Y-9802837D01*
X11602268Y-9802843D01*
X11646005Y-9953384D01*
X11646006Y-9953387D01*
X11646007Y-9953389D01*
X11664343Y-9984394D01*
X11725810Y-10088329D01*
X11725816Y-10088337D01*
X11836662Y-10199183D01*
X11836666Y-10199186D01*
X11836668Y-10199188D01*
X11971611Y-10278993D01*
X11971614Y-10278993D01*
X11978774Y-10282093D01*
X11978260Y-10283278D01*
X12030387Y-10316561D01*
X12059598Y-10380031D01*
X12058530Y-10422230D01*
X12049500Y-10467626D01*
X12049500Y-10467630D01*
X12049500Y-10467631D01*
X12049500Y-10595769D01*
X12049500Y-10595771D01*
X12049499Y-10595771D01*
X12074497Y-10721438D01*
X12074499Y-10721444D01*
X12123533Y-10839824D01*
X12123538Y-10839833D01*
X12194723Y-10946368D01*
X12194726Y-10946372D01*
X12285327Y-11036973D01*
X12285331Y-11036976D01*
X12391866Y-11108161D01*
X12391875Y-11108166D01*
X12402015Y-11112366D01*
X12510256Y-11157201D01*
X12510260Y-11157201D01*
X12510261Y-11157202D01*
X12635928Y-11182200D01*
X12635931Y-11182200D01*
X12764071Y-11182200D01*
X12855061Y-11164100D01*
X12889744Y-11157201D01*
X13008127Y-11108165D01*
X13114669Y-11036976D01*
X13205276Y-10946369D01*
X13276465Y-10839827D01*
X13325501Y-10721444D01*
X13336257Y-10667371D01*
X13350500Y-10595771D01*
X13350500Y-10467630D01*
X13346859Y-10449327D01*
X13341469Y-10422230D01*
X13347695Y-10352641D01*
X13390558Y-10297463D01*
X13421375Y-10282435D01*
X13421227Y-10282092D01*
X13428381Y-10278995D01*
X13428389Y-10278993D01*
X13563332Y-10199188D01*
X13674188Y-10088332D01*
X13753993Y-9953389D01*
X13797732Y-9802839D01*
X13797772Y-9802332D01*
X13797872Y-9802067D01*
X13798871Y-9796603D01*
X13799884Y-9796788D01*
X13822655Y-9737044D01*
X13878886Y-9695572D01*
X13948611Y-9691085D01*
X14009694Y-9725006D01*
X14042741Y-9786567D01*
X14044748Y-9799457D01*
X14050073Y-9851584D01*
X14103015Y-10011354D01*
X14103020Y-10011365D01*
X14191373Y-10154606D01*
X14191376Y-10154610D01*
X14310389Y-10273623D01*
X14310393Y-10273626D01*
X14453634Y-10361979D01*
X14453645Y-10361984D01*
X14613416Y-10414926D01*
X14613413Y-10414926D01*
X14712010Y-10424999D01*
X14712023Y-10425000D01*
X14990000Y-10425000D01*
X15490000Y-10425000D01*
X15767977Y-10425000D01*
X15767989Y-10424999D01*
X15866584Y-10414926D01*
X16026354Y-10361984D01*
X16026365Y-10361979D01*
X16169606Y-10273626D01*
X16169610Y-10273623D01*
X16288623Y-10154610D01*
X16288626Y-10154606D01*
X16376979Y-10011365D01*
X16376985Y-10011352D01*
X16392294Y-9965153D01*
X16432066Y-9907708D01*
X16496582Y-9880884D01*
X16565358Y-9893199D01*
X16616558Y-9940741D01*
X16627706Y-9965153D01*
X16643014Y-10011352D01*
X16643020Y-10011365D01*
X16731373Y-10154606D01*
X16731376Y-10154610D01*
X16850389Y-10273623D01*
X16850393Y-10273626D01*
X16993634Y-10361979D01*
X16993645Y-10361984D01*
X17153416Y-10414926D01*
X17153413Y-10414926D01*
X17252010Y-10424999D01*
X17252023Y-10425000D01*
X17530000Y-10425000D01*
X18030000Y-10425000D01*
X18307977Y-10425000D01*
X18307989Y-10424999D01*
X18406584Y-10414926D01*
X18566354Y-10361984D01*
X18566365Y-10361979D01*
X18709606Y-10273626D01*
X18709610Y-10273623D01*
X18828623Y-10154610D01*
X18828626Y-10154606D01*
X18916979Y-10011365D01*
X18916984Y-10011354D01*
X18969926Y-9851584D01*
X18975251Y-9799459D01*
X19001646Y-9734767D01*
X19058826Y-9694615D01*
X19128637Y-9691751D01*
X19188914Y-9727084D01*
X19220520Y-9789396D01*
X19222225Y-9802314D01*
X19222265Y-9802823D01*
X19222268Y-9802843D01*
X19266005Y-9953384D01*
X19266006Y-9953387D01*
X19266007Y-9953389D01*
X19284343Y-9984394D01*
X19345810Y-10088329D01*
X19345816Y-10088337D01*
X19456662Y-10199183D01*
X19456666Y-10199186D01*
X19456668Y-10199188D01*
X19591611Y-10278993D01*
X19621849Y-10287778D01*
X19742156Y-10322731D01*
X19742159Y-10322731D01*
X19742161Y-10322732D01*
X19777332Y-10325500D01*
X20048690Y-10325500D01*
X20078133Y-10334145D01*
X20108116Y-10340668D01*
X20113131Y-10344422D01*
X20115729Y-10345185D01*
X20136366Y-10361814D01*
X20240082Y-10465529D01*
X20273566Y-10526850D01*
X20276400Y-10553209D01*
X20276400Y-10614669D01*
X20276400Y-10614671D01*
X20276399Y-10614671D01*
X20301397Y-10740338D01*
X20301399Y-10740344D01*
X20350433Y-10858724D01*
X20350438Y-10858733D01*
X20421623Y-10965268D01*
X20421626Y-10965272D01*
X20512227Y-11055873D01*
X20512231Y-11055876D01*
X20618766Y-11127061D01*
X20618772Y-11127064D01*
X20618773Y-11127065D01*
X20737156Y-11176101D01*
X20737160Y-11176101D01*
X20737161Y-11176102D01*
X20862828Y-11201100D01*
X20862831Y-11201100D01*
X20990971Y-11201100D01*
X21098244Y-11179761D01*
X21116644Y-11176101D01*
X21235027Y-11127065D01*
X21341569Y-11055876D01*
X21432176Y-10965269D01*
X21503365Y-10858727D01*
X21552401Y-10740344D01*
X21572806Y-10637766D01*
X21577400Y-10614671D01*
X21577400Y-10486528D01*
X21552402Y-10360861D01*
X21552401Y-10360860D01*
X21552401Y-10360856D01*
X21508381Y-10254583D01*
X21503366Y-10242475D01*
X21503361Y-10242466D01*
X21432176Y-10135931D01*
X21432173Y-10135927D01*
X21395791Y-10099545D01*
X21362306Y-10038222D01*
X21367290Y-9968530D01*
X21371067Y-9960622D01*
X21370895Y-9960548D01*
X21373990Y-9953393D01*
X21373993Y-9953389D01*
X21417732Y-9802839D01*
X21420500Y-9767668D01*
X21420500Y-8082332D01*
X21420499Y-8082324D01*
X21759500Y-8082324D01*
X21759500Y-9767675D01*
X21762267Y-9802837D01*
X21762268Y-9802843D01*
X21806005Y-9953384D01*
X21806006Y-9953387D01*
X21806007Y-9953389D01*
X21824343Y-9984394D01*
X21885810Y-10088329D01*
X21885816Y-10088337D01*
X21996662Y-10199183D01*
X21996666Y-10199186D01*
X21996668Y-10199188D01*
X22131611Y-10278993D01*
X22134571Y-10279853D01*
X22136616Y-10281159D01*
X22138774Y-10282093D01*
X22138623Y-10282440D01*
X22193457Y-10317459D01*
X22222665Y-10380931D01*
X22221595Y-10423121D01*
X22209500Y-10483926D01*
X22209500Y-10483929D01*
X22209500Y-10483931D01*
X22209500Y-10612069D01*
X22209500Y-10612071D01*
X22209499Y-10612071D01*
X22234497Y-10737738D01*
X22234499Y-10737744D01*
X22283533Y-10856124D01*
X22283538Y-10856133D01*
X22354723Y-10962668D01*
X22354726Y-10962672D01*
X22445327Y-11053273D01*
X22445331Y-11053276D01*
X22551866Y-11124461D01*
X22551872Y-11124464D01*
X22551873Y-11124465D01*
X22670256Y-11173501D01*
X22670260Y-11173501D01*
X22670261Y-11173502D01*
X22795928Y-11198500D01*
X22795931Y-11198500D01*
X22924071Y-11198500D01*
X23008615Y-11181682D01*
X23049744Y-11173501D01*
X23168127Y-11124465D01*
X23274669Y-11053276D01*
X23317974Y-11009971D01*
X24101599Y-11009971D01*
X24126597Y-11135638D01*
X24126599Y-11135644D01*
X24175633Y-11254024D01*
X24175638Y-11254033D01*
X24246823Y-11360568D01*
X24246826Y-11360572D01*
X24337427Y-11451173D01*
X24337431Y-11451176D01*
X24443966Y-11522361D01*
X24443975Y-11522366D01*
X24470131Y-11533200D01*
X24562356Y-11571401D01*
X24562360Y-11571401D01*
X24562361Y-11571402D01*
X24688028Y-11596400D01*
X24688031Y-11596400D01*
X24816171Y-11596400D01*
X24900715Y-11579582D01*
X24941844Y-11571401D01*
X25060227Y-11522365D01*
X25166769Y-11451176D01*
X25257376Y-11360569D01*
X25328565Y-11254027D01*
X25377601Y-11135644D01*
X25392952Y-11058472D01*
X25402600Y-11009971D01*
X25402600Y-10948510D01*
X25422285Y-10881471D01*
X25438919Y-10860829D01*
X25585610Y-10714138D01*
X25740485Y-10559263D01*
X25796503Y-10462237D01*
X25808515Y-10417404D01*
X25844880Y-10357746D01*
X25907727Y-10327217D01*
X25928290Y-10325500D01*
X25942660Y-10325500D01*
X25942668Y-10325500D01*
X25977839Y-10322732D01*
X25977841Y-10322731D01*
X25977843Y-10322731D01*
X26057256Y-10299659D01*
X26128389Y-10278993D01*
X26263332Y-10199188D01*
X26374188Y-10088332D01*
X26453993Y-9953389D01*
X26497732Y-9802839D01*
X26500500Y-9767668D01*
X26500500Y-8082332D01*
X26500499Y-8082324D01*
X26839500Y-8082324D01*
X26839500Y-9767675D01*
X26842267Y-9802837D01*
X26842268Y-9802843D01*
X26886005Y-9953384D01*
X26886006Y-9953387D01*
X26886007Y-9953389D01*
X26904343Y-9984394D01*
X26965810Y-10088329D01*
X26965816Y-10088337D01*
X27076662Y-10199183D01*
X27076666Y-10199186D01*
X27076668Y-10199188D01*
X27211611Y-10278993D01*
X27241849Y-10287778D01*
X27362156Y-10322731D01*
X27362159Y-10322731D01*
X27362161Y-10322732D01*
X27397332Y-10325500D01*
X27500871Y-10325500D01*
X27530768Y-10334279D01*
X27561176Y-10341152D01*
X27564785Y-10344267D01*
X27567910Y-10345185D01*
X27589259Y-10362531D01*
X27597546Y-10370953D01*
X27599515Y-10374363D01*
X27685881Y-10460729D01*
X27686188Y-10461041D01*
X27702465Y-10491433D01*
X27718966Y-10521652D01*
X27719045Y-10522391D01*
X27719175Y-10522633D01*
X27719130Y-10523186D01*
X27721800Y-10548010D01*
X27721800Y-10609469D01*
X27721800Y-10609471D01*
X27721799Y-10609471D01*
X27746797Y-10735138D01*
X27746799Y-10735144D01*
X27795833Y-10853524D01*
X27795838Y-10853533D01*
X27867023Y-10960068D01*
X27867026Y-10960072D01*
X27957627Y-11050673D01*
X27957631Y-11050676D01*
X28064166Y-11121861D01*
X28064172Y-11121864D01*
X28064173Y-11121865D01*
X28182556Y-11170901D01*
X28182560Y-11170901D01*
X28182561Y-11170902D01*
X28308228Y-11195900D01*
X28308231Y-11195900D01*
X28436371Y-11195900D01*
X28520915Y-11179082D01*
X28562044Y-11170901D01*
X28680427Y-11121865D01*
X28786969Y-11050676D01*
X28877576Y-10960069D01*
X28877578Y-10960065D01*
X28879596Y-10958048D01*
X28940919Y-10924563D01*
X29010611Y-10929547D01*
X29066545Y-10971418D01*
X29070380Y-10976839D01*
X29124920Y-11058464D01*
X29124926Y-11058472D01*
X29215527Y-11149073D01*
X29215531Y-11149076D01*
X29322066Y-11220261D01*
X29322072Y-11220264D01*
X29322073Y-11220265D01*
X29440456Y-11269301D01*
X29440460Y-11269301D01*
X29440461Y-11269302D01*
X29566128Y-11294300D01*
X29566131Y-11294300D01*
X29694271Y-11294300D01*
X29778815Y-11277482D01*
X29819944Y-11269301D01*
X29938327Y-11220265D01*
X30044869Y-11149076D01*
X30135476Y-11058469D01*
X30206665Y-10951927D01*
X30255701Y-10833544D01*
X30264560Y-10789010D01*
X30280700Y-10707871D01*
X30280700Y-10646410D01*
X30300385Y-10579371D01*
X30317019Y-10558729D01*
X30513929Y-10361819D01*
X30575252Y-10328334D01*
X30601610Y-10325500D01*
X31022660Y-10325500D01*
X31022668Y-10325500D01*
X31057839Y-10322732D01*
X31057841Y-10322731D01*
X31057843Y-10322731D01*
X31137256Y-10299659D01*
X31208389Y-10278993D01*
X31343332Y-10199188D01*
X31454188Y-10088332D01*
X31533993Y-9953389D01*
X31577732Y-9802839D01*
X31580500Y-9767668D01*
X31580500Y-8082332D01*
X31580499Y-8082324D01*
X31919500Y-8082324D01*
X31919500Y-9767675D01*
X31922267Y-9802837D01*
X31922268Y-9802843D01*
X31966005Y-9953384D01*
X31966006Y-9953387D01*
X31966007Y-9953389D01*
X31984343Y-9984394D01*
X32045810Y-10088329D01*
X32045816Y-10088337D01*
X32156662Y-10199183D01*
X32156666Y-10199186D01*
X32156668Y-10199188D01*
X32291611Y-10278993D01*
X32321849Y-10287778D01*
X32442156Y-10322731D01*
X32442159Y-10322731D01*
X32442161Y-10322732D01*
X32477332Y-10325500D01*
X32479759Y-10325691D01*
X32479664Y-10326898D01*
X32541491Y-10347659D01*
X32585187Y-10402179D01*
X32594500Y-10449327D01*
X32594500Y-10540218D01*
X32619568Y-10633771D01*
X32623497Y-10648436D01*
X32623498Y-10648439D01*
X32637417Y-10672548D01*
X32679515Y-10745463D01*
X32679517Y-10745465D01*
X32756681Y-10822629D01*
X32790166Y-10883952D01*
X32793000Y-10910310D01*
X32793000Y-10971769D01*
X32793000Y-10971771D01*
X32792999Y-10971771D01*
X32817997Y-11097438D01*
X32817999Y-11097444D01*
X32867033Y-11215824D01*
X32867038Y-11215833D01*
X32938223Y-11322368D01*
X32938226Y-11322372D01*
X33028827Y-11412973D01*
X33028831Y-11412976D01*
X33135366Y-11484161D01*
X33135372Y-11484164D01*
X33135373Y-11484165D01*
X33253756Y-11533201D01*
X33253760Y-11533201D01*
X33253761Y-11533202D01*
X33379428Y-11558200D01*
X33379431Y-11558200D01*
X33507571Y-11558200D01*
X33592115Y-11541382D01*
X33633244Y-11533201D01*
X33751627Y-11484165D01*
X33858169Y-11412976D01*
X33948776Y-11322369D01*
X34019965Y-11215827D01*
X34069001Y-11097444D01*
X34079657Y-11043873D01*
X34094000Y-10971771D01*
X34094000Y-10843628D01*
X34069002Y-10717961D01*
X34069001Y-10717960D01*
X34069001Y-10717956D01*
X34021248Y-10602671D01*
X34019966Y-10599575D01*
X34019961Y-10599566D01*
X33948776Y-10493031D01*
X33948773Y-10493027D01*
X33853862Y-10398116D01*
X33855609Y-10396368D01*
X33822391Y-10347568D01*
X33820542Y-10277723D01*
X33856749Y-10217966D01*
X33877282Y-10202765D01*
X33883332Y-10199188D01*
X33994188Y-10088332D01*
X34073993Y-9953389D01*
X34117732Y-9802839D01*
X34120500Y-9767668D01*
X34120500Y-8082332D01*
X34120499Y-8082324D01*
X34459500Y-8082324D01*
X34459500Y-9767675D01*
X34462267Y-9802837D01*
X34462268Y-9802843D01*
X34506005Y-9953384D01*
X34506006Y-9953387D01*
X34506007Y-9953389D01*
X34524343Y-9984394D01*
X34585810Y-10088329D01*
X34585816Y-10088337D01*
X34702184Y-10204705D01*
X34700183Y-10206705D01*
X34733226Y-10252452D01*
X34737020Y-10322219D01*
X34719424Y-10362685D01*
X34705340Y-10383763D01*
X34705333Y-10383775D01*
X34656299Y-10502155D01*
X34656297Y-10502161D01*
X34631300Y-10627828D01*
X34631300Y-10755969D01*
X34656297Y-10881638D01*
X34656299Y-10881644D01*
X34705333Y-11000024D01*
X34705338Y-11000033D01*
X34776523Y-11106568D01*
X34776526Y-11106572D01*
X34867127Y-11197173D01*
X34867131Y-11197176D01*
X34973666Y-11268361D01*
X34973675Y-11268366D01*
X34975935Y-11269302D01*
X35092056Y-11317401D01*
X35092060Y-11317401D01*
X35092061Y-11317402D01*
X35217728Y-11342400D01*
X35217731Y-11342400D01*
X35345871Y-11342400D01*
X35430415Y-11325582D01*
X35471544Y-11317401D01*
X35589927Y-11268365D01*
X35696469Y-11197176D01*
X35787076Y-11106569D01*
X35858265Y-11000027D01*
X35907301Y-10881644D01*
X35932300Y-10755969D01*
X35932300Y-10653082D01*
X35936322Y-10621756D01*
X35940547Y-10605571D01*
X35956503Y-10577937D01*
X35974813Y-10509603D01*
X35985500Y-10469719D01*
X35985500Y-10433405D01*
X35989522Y-10418001D01*
X35999647Y-10401147D01*
X36005185Y-10382288D01*
X36017267Y-10371818D01*
X36025504Y-10358109D01*
X36043134Y-10349404D01*
X36057989Y-10336533D01*
X36079622Y-10331390D01*
X36088154Y-10327178D01*
X36094379Y-10327881D01*
X36100302Y-10326473D01*
X36100241Y-10325691D01*
X36102668Y-10325500D01*
X36137839Y-10322732D01*
X36137841Y-10322731D01*
X36137843Y-10322731D01*
X36217256Y-10299659D01*
X36288389Y-10278993D01*
X36423332Y-10199188D01*
X36534188Y-10088332D01*
X36613993Y-9953389D01*
X36657732Y-9802839D01*
X36657772Y-9802332D01*
X36657872Y-9802067D01*
X36658871Y-9796603D01*
X36659884Y-9796788D01*
X36682655Y-9737044D01*
X36738886Y-9695572D01*
X36808611Y-9691085D01*
X36869694Y-9725006D01*
X36902741Y-9786567D01*
X36904748Y-9799457D01*
X36910073Y-9851584D01*
X36963015Y-10011354D01*
X36963020Y-10011365D01*
X37051373Y-10154606D01*
X37051376Y-10154610D01*
X37170389Y-10273623D01*
X37170393Y-10273626D01*
X37313634Y-10361979D01*
X37313645Y-10361984D01*
X37473416Y-10414926D01*
X37473413Y-10414926D01*
X37572010Y-10424999D01*
X37572023Y-10425000D01*
X37850000Y-10425000D01*
X38350000Y-10425000D01*
X38627977Y-10425000D01*
X38627989Y-10424999D01*
X38726584Y-10414926D01*
X38886354Y-10361984D01*
X38886365Y-10361979D01*
X39029606Y-10273626D01*
X39029610Y-10273623D01*
X39148623Y-10154610D01*
X39148626Y-10154606D01*
X39236979Y-10011365D01*
X39236984Y-10011354D01*
X39289926Y-9851584D01*
X39295251Y-9799459D01*
X39321646Y-9734767D01*
X39378826Y-9694615D01*
X39448637Y-9691751D01*
X39508914Y-9727084D01*
X39540520Y-9789396D01*
X39542225Y-9802314D01*
X39542265Y-9802823D01*
X39542268Y-9802843D01*
X39586005Y-9953384D01*
X39586006Y-9953387D01*
X39586007Y-9953389D01*
X39604343Y-9984394D01*
X39665810Y-10088329D01*
X39665816Y-10088337D01*
X39776662Y-10199183D01*
X39776666Y-10199186D01*
X39776668Y-10199188D01*
X39911611Y-10278993D01*
X39941849Y-10287778D01*
X40062156Y-10322731D01*
X40062159Y-10322731D01*
X40062161Y-10322732D01*
X40097332Y-10325500D01*
X40470290Y-10325500D01*
X40499730Y-10334144D01*
X40529717Y-10340668D01*
X40534732Y-10344422D01*
X40537329Y-10345185D01*
X40557970Y-10361818D01*
X40654281Y-10458129D01*
X40687766Y-10519452D01*
X40690600Y-10545810D01*
X40690600Y-10607269D01*
X40690600Y-10607271D01*
X40690599Y-10607271D01*
X40715597Y-10732938D01*
X40715599Y-10732944D01*
X40764633Y-10851324D01*
X40764638Y-10851333D01*
X40835823Y-10957868D01*
X40835826Y-10957872D01*
X40926427Y-11048473D01*
X40926431Y-11048476D01*
X41032966Y-11119661D01*
X41032975Y-11119666D01*
X41059792Y-11130774D01*
X41151356Y-11168701D01*
X41151360Y-11168701D01*
X41151361Y-11168702D01*
X41277028Y-11193700D01*
X41277031Y-11193700D01*
X41405171Y-11193700D01*
X41506718Y-11173500D01*
X41530844Y-11168701D01*
X41649227Y-11119665D01*
X41755769Y-11048476D01*
X41846376Y-10957869D01*
X41917565Y-10851327D01*
X41966601Y-10732944D01*
X41985534Y-10637766D01*
X41991600Y-10607271D01*
X41991600Y-10479128D01*
X41966602Y-10353461D01*
X41966601Y-10353460D01*
X41966601Y-10353456D01*
X41924547Y-10251928D01*
X41917566Y-10235075D01*
X41917561Y-10235066D01*
X41846376Y-10128531D01*
X41846373Y-10128527D01*
X41755772Y-10037926D01*
X41751061Y-10034060D01*
X41752497Y-10032310D01*
X41714182Y-9986444D01*
X41705489Y-9917117D01*
X41708812Y-9902383D01*
X41737731Y-9802843D01*
X41737732Y-9802837D01*
X41738790Y-9789396D01*
X41740500Y-9767668D01*
X41740500Y-8082332D01*
X41740499Y-8082324D01*
X42079500Y-8082324D01*
X42079500Y-9767675D01*
X42082267Y-9802837D01*
X42082268Y-9802843D01*
X42126005Y-9953384D01*
X42126006Y-9953387D01*
X42126007Y-9953389D01*
X42144343Y-9984394D01*
X42205810Y-10088329D01*
X42205816Y-10088337D01*
X42316662Y-10199183D01*
X42316666Y-10199186D01*
X42316668Y-10199188D01*
X42451611Y-10278993D01*
X42451960Y-10279094D01*
X42452295Y-10279192D01*
X42452766Y-10279492D01*
X42458774Y-10282093D01*
X42458354Y-10283061D01*
X42511182Y-10316797D01*
X42540390Y-10380268D01*
X42539320Y-10422461D01*
X42529500Y-10471828D01*
X42529500Y-10471830D01*
X42529500Y-10471831D01*
X42529500Y-10599969D01*
X42529500Y-10599971D01*
X42529499Y-10599971D01*
X42554497Y-10725638D01*
X42554499Y-10725644D01*
X42603533Y-10844024D01*
X42603538Y-10844033D01*
X42674723Y-10950568D01*
X42674726Y-10950572D01*
X42765327Y-11041173D01*
X42765331Y-11041176D01*
X42871866Y-11112361D01*
X42871875Y-11112366D01*
X42889487Y-11119661D01*
X42990256Y-11161401D01*
X42990260Y-11161401D01*
X42990261Y-11161402D01*
X43115928Y-11186400D01*
X43115931Y-11186400D01*
X43244071Y-11186400D01*
X43333050Y-11168700D01*
X43369744Y-11161401D01*
X43488127Y-11112365D01*
X43594669Y-11041176D01*
X43685276Y-10950569D01*
X43756465Y-10844027D01*
X43805501Y-10725644D01*
X43819935Y-10653082D01*
X43830500Y-10599971D01*
X43830500Y-10471830D01*
X43826400Y-10451219D01*
X43820679Y-10422459D01*
X43826905Y-10352870D01*
X43869767Y-10297692D01*
X43901319Y-10282306D01*
X43901227Y-10282092D01*
X43905959Y-10280044D01*
X43907710Y-10279190D01*
X43908389Y-10278993D01*
X44043332Y-10199188D01*
X44154188Y-10088332D01*
X44233993Y-9953389D01*
X44277732Y-9802839D01*
X44280500Y-9767668D01*
X44280500Y-8082332D01*
X44280499Y-8082324D01*
X44619500Y-8082324D01*
X44619500Y-9767675D01*
X44622267Y-9802837D01*
X44622268Y-9802843D01*
X44666005Y-9953384D01*
X44666006Y-9953387D01*
X44666007Y-9953389D01*
X44684343Y-9984394D01*
X44745810Y-10088329D01*
X44745816Y-10088337D01*
X44856662Y-10199183D01*
X44856668Y-10199188D01*
X44859494Y-10200859D01*
X44861256Y-10202747D01*
X44862831Y-10203968D01*
X44862634Y-10204221D01*
X44907178Y-10251928D01*
X44919682Y-10320670D01*
X44910935Y-10355044D01*
X44886700Y-10413551D01*
X44886697Y-10413561D01*
X44861700Y-10539228D01*
X44861700Y-10539230D01*
X44861700Y-10539231D01*
X44861700Y-10667369D01*
X44861700Y-10667371D01*
X44861699Y-10667371D01*
X44886697Y-10793038D01*
X44886699Y-10793044D01*
X44935733Y-10911424D01*
X44935738Y-10911433D01*
X45006923Y-11017968D01*
X45006926Y-11017972D01*
X45097527Y-11108573D01*
X45097531Y-11108576D01*
X45204066Y-11179761D01*
X45204075Y-11179766D01*
X45210514Y-11182433D01*
X45322456Y-11228801D01*
X45322460Y-11228801D01*
X45322461Y-11228802D01*
X45448128Y-11253800D01*
X45448131Y-11253800D01*
X45576271Y-11253800D01*
X45660815Y-11236982D01*
X45701944Y-11228801D01*
X45820327Y-11179765D01*
X45926869Y-11108576D01*
X46017476Y-11017969D01*
X46088665Y-10911427D01*
X46137701Y-10793044D01*
X46151980Y-10721259D01*
X46162700Y-10667371D01*
X46162700Y-10539230D01*
X46156015Y-10505626D01*
X46149605Y-10473403D01*
X46155831Y-10403812D01*
X46198693Y-10348634D01*
X46261495Y-10325592D01*
X46262664Y-10325500D01*
X46262668Y-10325500D01*
X46297839Y-10322732D01*
X46297841Y-10322731D01*
X46297843Y-10322731D01*
X46377256Y-10299659D01*
X46448389Y-10278993D01*
X46583332Y-10199188D01*
X46694188Y-10088332D01*
X46773993Y-9953389D01*
X46817732Y-9802839D01*
X46820500Y-9767668D01*
X46820500Y-8082332D01*
X46820499Y-8082324D01*
X47159500Y-8082324D01*
X47159500Y-9767675D01*
X47162267Y-9802837D01*
X47162268Y-9802843D01*
X47206005Y-9953384D01*
X47206006Y-9953387D01*
X47206007Y-9953389D01*
X47224343Y-9984394D01*
X47285810Y-10088329D01*
X47285816Y-10088337D01*
X47396662Y-10199183D01*
X47396666Y-10199186D01*
X47396668Y-10199188D01*
X47531611Y-10278993D01*
X47561849Y-10287778D01*
X47682156Y-10322731D01*
X47682159Y-10322731D01*
X47682161Y-10322732D01*
X47717332Y-10325500D01*
X47854790Y-10325500D01*
X47884230Y-10334144D01*
X47914217Y-10340668D01*
X47919232Y-10344422D01*
X47921829Y-10345185D01*
X47942470Y-10361818D01*
X48019981Y-10439329D01*
X48053466Y-10500652D01*
X48056300Y-10527010D01*
X48056300Y-10588469D01*
X48056300Y-10588471D01*
X48056299Y-10588471D01*
X48081297Y-10714138D01*
X48081299Y-10714144D01*
X48130333Y-10832524D01*
X48130338Y-10832533D01*
X48201523Y-10939068D01*
X48201526Y-10939072D01*
X48292127Y-11029673D01*
X48292131Y-11029676D01*
X48398666Y-11100861D01*
X48398675Y-11100866D01*
X48412451Y-11106572D01*
X48517056Y-11149901D01*
X48517060Y-11149901D01*
X48517061Y-11149902D01*
X48642728Y-11174900D01*
X48642731Y-11174900D01*
X48770871Y-11174900D01*
X48859850Y-11157200D01*
X48896544Y-11149901D01*
X49014927Y-11100865D01*
X49121469Y-11029676D01*
X49212076Y-10939069D01*
X49212078Y-10939065D01*
X49215223Y-10935921D01*
X49276546Y-10902436D01*
X49346238Y-10907420D01*
X49402172Y-10949291D01*
X49417466Y-10976149D01*
X49439533Y-11029423D01*
X49439538Y-11029433D01*
X49510723Y-11135968D01*
X49510726Y-11135972D01*
X49601327Y-11226573D01*
X49601331Y-11226576D01*
X49707866Y-11297761D01*
X49707872Y-11297764D01*
X49707873Y-11297765D01*
X49826256Y-11346801D01*
X49826260Y-11346801D01*
X49826261Y-11346802D01*
X49951928Y-11371800D01*
X49951931Y-11371800D01*
X50080071Y-11371800D01*
X50164615Y-11354982D01*
X50205744Y-11346801D01*
X50324127Y-11297765D01*
X50430669Y-11226576D01*
X50521276Y-11135969D01*
X50592465Y-11029427D01*
X50641501Y-10911044D01*
X50653550Y-10850471D01*
X50666500Y-10785371D01*
X50666500Y-10723910D01*
X50686185Y-10656871D01*
X50702819Y-10636229D01*
X50977229Y-10361819D01*
X51038552Y-10328334D01*
X51064910Y-10325500D01*
X51342660Y-10325500D01*
X51342668Y-10325500D01*
X51377839Y-10322732D01*
X51377841Y-10322731D01*
X51377843Y-10322731D01*
X51457256Y-10299659D01*
X51528389Y-10278993D01*
X51663332Y-10199188D01*
X51774188Y-10088332D01*
X51853993Y-9953389D01*
X51897732Y-9802839D01*
X51900500Y-9767668D01*
X51900500Y-8082332D01*
X51900499Y-8082324D01*
X52239500Y-8082324D01*
X52239500Y-9767675D01*
X52242267Y-9802837D01*
X52242268Y-9802843D01*
X52286005Y-9953384D01*
X52286006Y-9953387D01*
X52286007Y-9953389D01*
X52304343Y-9984394D01*
X52365810Y-10088329D01*
X52365816Y-10088337D01*
X52476662Y-10199183D01*
X52476666Y-10199186D01*
X52476668Y-10199188D01*
X52611611Y-10278993D01*
X52641849Y-10287778D01*
X52762156Y-10322731D01*
X52762159Y-10322731D01*
X52762161Y-10322732D01*
X52797332Y-10325500D01*
X52799759Y-10325691D01*
X52799664Y-10326898D01*
X52861491Y-10347659D01*
X52905187Y-10402179D01*
X52914500Y-10449327D01*
X52914500Y-10516018D01*
X52940934Y-10614669D01*
X52943497Y-10624236D01*
X52943498Y-10624239D01*
X52951308Y-10637766D01*
X52999515Y-10721263D01*
X52999517Y-10721265D01*
X53067481Y-10789229D01*
X53100966Y-10850552D01*
X53103800Y-10876910D01*
X53103800Y-10938369D01*
X53103800Y-10938371D01*
X53103799Y-10938371D01*
X53128797Y-11064038D01*
X53128799Y-11064044D01*
X53177833Y-11182424D01*
X53177838Y-11182433D01*
X53249023Y-11288968D01*
X53249026Y-11288972D01*
X53339627Y-11379573D01*
X53339631Y-11379576D01*
X53446166Y-11450761D01*
X53446172Y-11450764D01*
X53446173Y-11450765D01*
X53564556Y-11499801D01*
X53564560Y-11499801D01*
X53564561Y-11499802D01*
X53690228Y-11524800D01*
X53690231Y-11524800D01*
X53818371Y-11524800D01*
X53902915Y-11507982D01*
X53944044Y-11499801D01*
X54062427Y-11450765D01*
X54168969Y-11379576D01*
X54259576Y-11288969D01*
X54330765Y-11182427D01*
X54379801Y-11064044D01*
X54390557Y-11009971D01*
X54404800Y-10938371D01*
X54404800Y-10810228D01*
X54379802Y-10684561D01*
X54379801Y-10684560D01*
X54379801Y-10684556D01*
X54335638Y-10577937D01*
X54330766Y-10566175D01*
X54330761Y-10566166D01*
X54259576Y-10459631D01*
X54259573Y-10459627D01*
X54187789Y-10387843D01*
X54154304Y-10326520D01*
X54159288Y-10256828D01*
X54199480Y-10202175D01*
X54203325Y-10199191D01*
X54203332Y-10199188D01*
X54314188Y-10088332D01*
X54393993Y-9953389D01*
X54437732Y-9802839D01*
X54440500Y-9767668D01*
X54440500Y-8082332D01*
X54440499Y-8082324D01*
X54779500Y-8082324D01*
X54779500Y-9767675D01*
X54782267Y-9802837D01*
X54782268Y-9802843D01*
X54826005Y-9953384D01*
X54826006Y-9953387D01*
X54826007Y-9953389D01*
X54844343Y-9984394D01*
X54905810Y-10088329D01*
X54905816Y-10088337D01*
X55016662Y-10199183D01*
X55016666Y-10199186D01*
X55016668Y-10199188D01*
X55151611Y-10278993D01*
X55152799Y-10279338D01*
X55152802Y-10279339D01*
X55153623Y-10279863D01*
X55158773Y-10282092D01*
X55158413Y-10282922D01*
X55211689Y-10316944D01*
X55240897Y-10380416D01*
X55239828Y-10422606D01*
X55230457Y-10469719D01*
X55229500Y-10474531D01*
X55229500Y-10602669D01*
X55229500Y-10602671D01*
X55229499Y-10602671D01*
X55254497Y-10728338D01*
X55254499Y-10728344D01*
X55303533Y-10846724D01*
X55303538Y-10846733D01*
X55374723Y-10953268D01*
X55374726Y-10953272D01*
X55465327Y-11043873D01*
X55465331Y-11043876D01*
X55571866Y-11115061D01*
X55571875Y-11115066D01*
X55594569Y-11124466D01*
X55690256Y-11164101D01*
X55690260Y-11164101D01*
X55690261Y-11164102D01*
X55815928Y-11189100D01*
X55815931Y-11189100D01*
X55944071Y-11189100D01*
X56035564Y-11170900D01*
X56069744Y-11164101D01*
X56188127Y-11115065D01*
X56294669Y-11043876D01*
X56385276Y-10953269D01*
X56456465Y-10846727D01*
X56505501Y-10728344D01*
X56523519Y-10637766D01*
X56530500Y-10602671D01*
X56530500Y-10474528D01*
X56520172Y-10422608D01*
X56526399Y-10353016D01*
X56569262Y-10297839D01*
X56601283Y-10282223D01*
X56601227Y-10282092D01*
X56604127Y-10280836D01*
X56607201Y-10279338D01*
X56608389Y-10278993D01*
X56743332Y-10199188D01*
X56854188Y-10088332D01*
X56933993Y-9953389D01*
X56977732Y-9802839D01*
X56980500Y-9767668D01*
X56980500Y-8082332D01*
X56980499Y-8082324D01*
X57319500Y-8082324D01*
X57319500Y-9767675D01*
X57322267Y-9802837D01*
X57322268Y-9802843D01*
X57366005Y-9953384D01*
X57366006Y-9953387D01*
X57366007Y-9953389D01*
X57384343Y-9984394D01*
X57445810Y-10088329D01*
X57445816Y-10088337D01*
X57556666Y-10199187D01*
X57560910Y-10202479D01*
X57601818Y-10259121D01*
X57605608Y-10328887D01*
X57599472Y-10347911D01*
X57562300Y-10437651D01*
X57562297Y-10437661D01*
X57537300Y-10563328D01*
X57537300Y-10563331D01*
X57537300Y-10691469D01*
X57537300Y-10691471D01*
X57537299Y-10691471D01*
X57562297Y-10817138D01*
X57562299Y-10817144D01*
X57611333Y-10935524D01*
X57611338Y-10935533D01*
X57682523Y-11042068D01*
X57682526Y-11042072D01*
X57773127Y-11132673D01*
X57773131Y-11132676D01*
X57879666Y-11203861D01*
X57879672Y-11203864D01*
X57879673Y-11203865D01*
X57998056Y-11252901D01*
X57998060Y-11252901D01*
X57998061Y-11252902D01*
X58123728Y-11277900D01*
X58123731Y-11277900D01*
X58251871Y-11277900D01*
X58336415Y-11261082D01*
X58377544Y-11252901D01*
X58495927Y-11203865D01*
X58602469Y-11132676D01*
X58693076Y-11042069D01*
X58764265Y-10935527D01*
X58813301Y-10817144D01*
X58827560Y-10745463D01*
X58838300Y-10691471D01*
X58838300Y-10563331D01*
X58837490Y-10559259D01*
X58834208Y-10542765D01*
X58834203Y-10534525D01*
X58832335Y-10529797D01*
X58834184Y-10508240D01*
X58834175Y-10494551D01*
X58834976Y-10490491D01*
X58845500Y-10451219D01*
X58845500Y-10437200D01*
X58847849Y-10425305D01*
X58858621Y-10404641D01*
X58865185Y-10382288D01*
X58874468Y-10374244D01*
X58880148Y-10363349D01*
X58900382Y-10351789D01*
X58917989Y-10336533D01*
X58933571Y-10332828D01*
X58940816Y-10328690D01*
X58949150Y-10329125D01*
X58960302Y-10326473D01*
X58960241Y-10325691D01*
X58962668Y-10325500D01*
X58997839Y-10322732D01*
X58997841Y-10322731D01*
X58997843Y-10322731D01*
X59077256Y-10299659D01*
X59148389Y-10278993D01*
X59283332Y-10199188D01*
X59394188Y-10088332D01*
X59473993Y-9953389D01*
X59517732Y-9802839D01*
X59520500Y-9767668D01*
X59520500Y-8082332D01*
X59520499Y-8082324D01*
X59859500Y-8082324D01*
X59859500Y-9767675D01*
X59862267Y-9802837D01*
X59862268Y-9802843D01*
X59906005Y-9953384D01*
X59906006Y-9953387D01*
X59906007Y-9953389D01*
X59924343Y-9984394D01*
X59985810Y-10088329D01*
X59985816Y-10088337D01*
X60096662Y-10199183D01*
X60096666Y-10199186D01*
X60096668Y-10199188D01*
X60231611Y-10278993D01*
X60261849Y-10287778D01*
X60382156Y-10322731D01*
X60382159Y-10322731D01*
X60382161Y-10322732D01*
X60417332Y-10325500D01*
X60978790Y-10325500D01*
X61008230Y-10334144D01*
X61038217Y-10340668D01*
X61043232Y-10344422D01*
X61045829Y-10345185D01*
X61066470Y-10361818D01*
X61129581Y-10424929D01*
X61163066Y-10486252D01*
X61165900Y-10512610D01*
X61165900Y-10574069D01*
X61165900Y-10574071D01*
X61165899Y-10574071D01*
X61190897Y-10699738D01*
X61190899Y-10699744D01*
X61239933Y-10818124D01*
X61239938Y-10818133D01*
X61311123Y-10924668D01*
X61311126Y-10924672D01*
X61401727Y-11015273D01*
X61401731Y-11015276D01*
X61508266Y-11086461D01*
X61508272Y-11086464D01*
X61508273Y-11086465D01*
X61626656Y-11135501D01*
X61626660Y-11135501D01*
X61626661Y-11135502D01*
X61752328Y-11160500D01*
X61752331Y-11160500D01*
X61880471Y-11160500D01*
X61965015Y-11143682D01*
X62006144Y-11135501D01*
X62124527Y-11086465D01*
X62231069Y-11015276D01*
X62321676Y-10924669D01*
X62392865Y-10818127D01*
X62441901Y-10699744D01*
X62451183Y-10653082D01*
X62466900Y-10574071D01*
X62466900Y-10445928D01*
X62442681Y-10324175D01*
X62448908Y-10254583D01*
X62491771Y-10199406D01*
X62557660Y-10176161D01*
X62625657Y-10192229D01*
X62631520Y-10196144D01*
X62665134Y-10216023D01*
X62771611Y-10278993D01*
X62801849Y-10287778D01*
X62922156Y-10322731D01*
X62922159Y-10322731D01*
X62922161Y-10322732D01*
X62957332Y-10325500D01*
X62959063Y-10325500D01*
X62959328Y-10325578D01*
X62959760Y-10325595D01*
X62959756Y-10325690D01*
X62959759Y-10325691D01*
X62959757Y-10325704D01*
X63026102Y-10345185D01*
X63071857Y-10397989D01*
X63078836Y-10417400D01*
X63103497Y-10509437D01*
X63103498Y-10509438D01*
X63103498Y-10509439D01*
X63109279Y-10519452D01*
X63159515Y-10606463D01*
X63159517Y-10606465D01*
X63254381Y-10701329D01*
X63287866Y-10762652D01*
X63290700Y-10789010D01*
X63290700Y-10850469D01*
X63290700Y-10850471D01*
X63290699Y-10850471D01*
X63315697Y-10976138D01*
X63315699Y-10976144D01*
X63364733Y-11094524D01*
X63364738Y-11094533D01*
X63435923Y-11201068D01*
X63435926Y-11201072D01*
X63526527Y-11291673D01*
X63526531Y-11291676D01*
X63633066Y-11362861D01*
X63633072Y-11362864D01*
X63633073Y-11362865D01*
X63751456Y-11411901D01*
X63751460Y-11411901D01*
X63751461Y-11411902D01*
X63877128Y-11436900D01*
X63877131Y-11436900D01*
X64005271Y-11436900D01*
X64089815Y-11420082D01*
X64130944Y-11411901D01*
X64249327Y-11362865D01*
X64355869Y-11291676D01*
X64446476Y-11201069D01*
X64517665Y-11094527D01*
X64566701Y-10976144D01*
X64576940Y-10924669D01*
X64591700Y-10850471D01*
X64591700Y-10722328D01*
X64566702Y-10596661D01*
X64566701Y-10596660D01*
X64566701Y-10596656D01*
X64520007Y-10483926D01*
X64517666Y-10478275D01*
X64517661Y-10478266D01*
X64446476Y-10371731D01*
X64446473Y-10371727D01*
X64406314Y-10331568D01*
X64372829Y-10270245D01*
X64377813Y-10200553D01*
X64406312Y-10156207D01*
X64474188Y-10088332D01*
X64553993Y-9953389D01*
X64597732Y-9802839D01*
X64600500Y-9767668D01*
X64600500Y-8082332D01*
X64600499Y-8082324D01*
X64939500Y-8082324D01*
X64939500Y-9767675D01*
X64942267Y-9802837D01*
X64942268Y-9802843D01*
X64986005Y-9953384D01*
X64986006Y-9953387D01*
X64986007Y-9953389D01*
X65004343Y-9984394D01*
X65065810Y-10088329D01*
X65065816Y-10088337D01*
X65176662Y-10199183D01*
X65176666Y-10199186D01*
X65176668Y-10199188D01*
X65311611Y-10278993D01*
X65318574Y-10281016D01*
X65377461Y-10318619D01*
X65406670Y-10382090D01*
X65405601Y-10424285D01*
X65389500Y-10505228D01*
X65389500Y-10505229D01*
X65389500Y-10505231D01*
X65389500Y-10633369D01*
X65389500Y-10633371D01*
X65389499Y-10633371D01*
X65414497Y-10759038D01*
X65414499Y-10759044D01*
X65463533Y-10877424D01*
X65463538Y-10877433D01*
X65534723Y-10983968D01*
X65534726Y-10983972D01*
X65625327Y-11074573D01*
X65625331Y-11074576D01*
X65731866Y-11145761D01*
X65731875Y-11145766D01*
X65758692Y-11156874D01*
X65850256Y-11194801D01*
X65850260Y-11194801D01*
X65850261Y-11194802D01*
X65975928Y-11219800D01*
X65975931Y-11219800D01*
X66104071Y-11219800D01*
X66188615Y-11202982D01*
X66229744Y-11194801D01*
X66348127Y-11145765D01*
X66454669Y-11074576D01*
X66545276Y-10983969D01*
X66616465Y-10877427D01*
X66665501Y-10759044D01*
X66677298Y-10699738D01*
X66690500Y-10633371D01*
X66690500Y-10505229D01*
X66683856Y-10471828D01*
X66674398Y-10424283D01*
X66680625Y-10354694D01*
X66723487Y-10299516D01*
X66761421Y-10281017D01*
X66768389Y-10278993D01*
X66903332Y-10199188D01*
X67014188Y-10088332D01*
X67093993Y-9953389D01*
X67137732Y-9802839D01*
X67140500Y-9767668D01*
X67140500Y-8082332D01*
X67140499Y-8082324D01*
X67479500Y-8082324D01*
X67479500Y-9767675D01*
X67482267Y-9802837D01*
X67482268Y-9802843D01*
X67526005Y-9953384D01*
X67526006Y-9953387D01*
X67526007Y-9953389D01*
X67544343Y-9984394D01*
X67605810Y-10088329D01*
X67605816Y-10088337D01*
X67716662Y-10199183D01*
X67716666Y-10199186D01*
X67716668Y-10199188D01*
X67851611Y-10278993D01*
X67881849Y-10287778D01*
X68002156Y-10322731D01*
X68002159Y-10322731D01*
X68002161Y-10322732D01*
X68037332Y-10325500D01*
X68803066Y-10325500D01*
X68870105Y-10345185D01*
X68915860Y-10397989D01*
X68923364Y-10425861D01*
X68924711Y-10425594D01*
X68950897Y-10557238D01*
X68950899Y-10557244D01*
X68999933Y-10675624D01*
X68999938Y-10675633D01*
X69071123Y-10782168D01*
X69071126Y-10782172D01*
X69161727Y-10872773D01*
X69161731Y-10872776D01*
X69268266Y-10943961D01*
X69268275Y-10943966D01*
X69287488Y-10951924D01*
X69386656Y-10993001D01*
X69386660Y-10993001D01*
X69386661Y-10993002D01*
X69512328Y-11018000D01*
X69512331Y-11018000D01*
X69640471Y-11018000D01*
X69730838Y-11000024D01*
X69766144Y-10993001D01*
X69884527Y-10943965D01*
X69991069Y-10872776D01*
X70081676Y-10782169D01*
X70152865Y-10675627D01*
X70201901Y-10557244D01*
X70210422Y-10514408D01*
X70226900Y-10431571D01*
X70226900Y-10396292D01*
X70234101Y-10371766D01*
X70237373Y-10346417D01*
X70243781Y-10338801D01*
X70246585Y-10329253D01*
X70265899Y-10312516D01*
X70282359Y-10292957D01*
X70291868Y-10290014D01*
X70299389Y-10283498D01*
X70324687Y-10279860D01*
X70349107Y-10272305D01*
X70363615Y-10274263D01*
X70368547Y-10273554D01*
X70384111Y-10276822D01*
X70391336Y-10278830D01*
X70391611Y-10278993D01*
X70542161Y-10322732D01*
X70552067Y-10323511D01*
X70563605Y-10326719D01*
X70583498Y-10339101D01*
X70605396Y-10347443D01*
X70612609Y-10357220D01*
X70622923Y-10363640D01*
X70632964Y-10384812D01*
X70646875Y-10403668D01*
X70647837Y-10416171D01*
X70652864Y-10426769D01*
X70650226Y-10447203D01*
X70652011Y-10470380D01*
X70645000Y-10505626D01*
X70645000Y-10505631D01*
X70645000Y-10633769D01*
X70645000Y-10633771D01*
X70644999Y-10633771D01*
X70669997Y-10759438D01*
X70669999Y-10759444D01*
X70719033Y-10877824D01*
X70719038Y-10877833D01*
X70790223Y-10984368D01*
X70790226Y-10984372D01*
X70880827Y-11074973D01*
X70880831Y-11074976D01*
X70987366Y-11146161D01*
X70987375Y-11146166D01*
X70996390Y-11149900D01*
X71105756Y-11195201D01*
X71105760Y-11195201D01*
X71105761Y-11195202D01*
X71231428Y-11220200D01*
X71231431Y-11220200D01*
X71359571Y-11220200D01*
X71444115Y-11203382D01*
X71485244Y-11195201D01*
X71603627Y-11146165D01*
X71710169Y-11074976D01*
X71800776Y-10984369D01*
X71871965Y-10877827D01*
X71921001Y-10759444D01*
X71934522Y-10691471D01*
X71946000Y-10633771D01*
X71946000Y-10505628D01*
X71921002Y-10379960D01*
X71921001Y-10379958D01*
X71921001Y-10379956D01*
X71914299Y-10363778D01*
X71906830Y-10294311D01*
X71938103Y-10231831D01*
X71965741Y-10209591D01*
X71970621Y-10206705D01*
X71983332Y-10199188D01*
X72094188Y-10088332D01*
X72173993Y-9953389D01*
X72217732Y-9802839D01*
X72220500Y-9767668D01*
X72220500Y-8082332D01*
X72220499Y-8082324D01*
X72559500Y-8082324D01*
X72559500Y-9767675D01*
X72562267Y-9802837D01*
X72562268Y-9802843D01*
X72606005Y-9953384D01*
X72606006Y-9953387D01*
X72606007Y-9953389D01*
X72624343Y-9984394D01*
X72685810Y-10088329D01*
X72685816Y-10088337D01*
X72796662Y-10199183D01*
X72796666Y-10199186D01*
X72796668Y-10199188D01*
X72931611Y-10278993D01*
X72961849Y-10287778D01*
X73082156Y-10322731D01*
X73082159Y-10322731D01*
X73082161Y-10322732D01*
X73117332Y-10325500D01*
X73117340Y-10325500D01*
X74202660Y-10325500D01*
X74202668Y-10325500D01*
X74237839Y-10322732D01*
X74237841Y-10322731D01*
X74237843Y-10322731D01*
X74317256Y-10299659D01*
X74388389Y-10278993D01*
X74523332Y-10199188D01*
X74634188Y-10088332D01*
X74713993Y-9953389D01*
X74757732Y-9802839D01*
X74760500Y-9767668D01*
X74760500Y-9424500D01*
X74780185Y-9357461D01*
X74832989Y-9311706D01*
X74884500Y-9300500D01*
X76188993Y-9300500D01*
X76256032Y-9320185D01*
X76276675Y-9336820D01*
X76320127Y-9380273D01*
X76320131Y-9380276D01*
X76426666Y-9451461D01*
X76426672Y-9451464D01*
X76426673Y-9451465D01*
X76545056Y-9500501D01*
X76545060Y-9500501D01*
X76545061Y-9500502D01*
X76670728Y-9525500D01*
X76670731Y-9525500D01*
X76798871Y-9525500D01*
X76883415Y-9508682D01*
X76924544Y-9500501D01*
X77042927Y-9451465D01*
X77149469Y-9380276D01*
X77240076Y-9289669D01*
X77311265Y-9183127D01*
X77360301Y-9064744D01*
X77385300Y-8939069D01*
X77385300Y-8810931D01*
X77385300Y-8810928D01*
X77360302Y-8685261D01*
X77360301Y-8685260D01*
X77360301Y-8685256D01*
X77311265Y-8566873D01*
X77311264Y-8566872D01*
X77311261Y-8566866D01*
X77240076Y-8460331D01*
X77240073Y-8460327D01*
X77149472Y-8369726D01*
X77149468Y-8369723D01*
X77042933Y-8298538D01*
X77042924Y-8298533D01*
X76924544Y-8249499D01*
X76924538Y-8249497D01*
X76798871Y-8224500D01*
X76798869Y-8224500D01*
X76670731Y-8224500D01*
X76670729Y-8224500D01*
X76545061Y-8249497D01*
X76545055Y-8249499D01*
X76426675Y-8298533D01*
X76426666Y-8298538D01*
X76320131Y-8369723D01*
X76320127Y-8369726D01*
X76276675Y-8413180D01*
X76215352Y-8446666D01*
X76188993Y-8449500D01*
X74884500Y-8449500D01*
X74817461Y-8429815D01*
X74771706Y-8377011D01*
X74760500Y-8325500D01*
X74760500Y-8082339D01*
X74760499Y-8082324D01*
X74758789Y-8060600D01*
X74757732Y-8047161D01*
X74735057Y-7969115D01*
X74713994Y-7896615D01*
X74713993Y-7896612D01*
X74713993Y-7896611D01*
X74634188Y-7761668D01*
X74634186Y-7761666D01*
X74634183Y-7761662D01*
X74523337Y-7650816D01*
X74523329Y-7650810D01*
X74388387Y-7571006D01*
X74388384Y-7571005D01*
X74237843Y-7527268D01*
X74237837Y-7527267D01*
X74202675Y-7524500D01*
X74202668Y-7524500D01*
X73117332Y-7524500D01*
X73117324Y-7524500D01*
X73082162Y-7527267D01*
X73082156Y-7527268D01*
X72931615Y-7571005D01*
X72931612Y-7571006D01*
X72796670Y-7650810D01*
X72796662Y-7650816D01*
X72685816Y-7761662D01*
X72685810Y-7761670D01*
X72606006Y-7896612D01*
X72606005Y-7896615D01*
X72562268Y-8047156D01*
X72562267Y-8047162D01*
X72559500Y-8082324D01*
X72220499Y-8082324D01*
X72217732Y-8047161D01*
X72195057Y-7969115D01*
X72173994Y-7896615D01*
X72173993Y-7896612D01*
X72173993Y-7896611D01*
X72094188Y-7761668D01*
X72094186Y-7761666D01*
X72094183Y-7761662D01*
X71983337Y-7650816D01*
X71983329Y-7650810D01*
X71848387Y-7571006D01*
X71848384Y-7571005D01*
X71697843Y-7527268D01*
X71697837Y-7527267D01*
X71662675Y-7524500D01*
X71662668Y-7524500D01*
X70577332Y-7524500D01*
X70577324Y-7524500D01*
X70542162Y-7527267D01*
X70542156Y-7527268D01*
X70391615Y-7571005D01*
X70391612Y-7571006D01*
X70256670Y-7650810D01*
X70256662Y-7650816D01*
X70145816Y-7761662D01*
X70145810Y-7761670D01*
X70066006Y-7896612D01*
X70066005Y-7896615D01*
X70022268Y-8047156D01*
X70022267Y-8047162D01*
X70019500Y-8082324D01*
X70019500Y-9661363D01*
X70010319Y-9692627D01*
X70002370Y-9724251D01*
X70000526Y-9725980D01*
X69999815Y-9728402D01*
X69975199Y-9749731D01*
X69951405Y-9772046D01*
X69948918Y-9772503D01*
X69947011Y-9774157D01*
X69914759Y-9778794D01*
X69882690Y-9784700D01*
X69879430Y-9783874D01*
X69877853Y-9784101D01*
X69848461Y-9776095D01*
X69848241Y-9776005D01*
X69766144Y-9741999D01*
X69764500Y-9741672D01*
X69757461Y-9738786D01*
X69734568Y-9720473D01*
X69710051Y-9704400D01*
X69707599Y-9698900D01*
X69702900Y-9695141D01*
X69693542Y-9667362D01*
X69681607Y-9640583D01*
X69680883Y-9629780D01*
X69680596Y-9628927D01*
X69680777Y-9628203D01*
X69680500Y-9624054D01*
X69680500Y-8082339D01*
X69680499Y-8082324D01*
X69678789Y-8060600D01*
X69677732Y-8047161D01*
X69655057Y-7969115D01*
X69633994Y-7896615D01*
X69633993Y-7896612D01*
X69633993Y-7896611D01*
X69554188Y-7761668D01*
X69554186Y-7761666D01*
X69554183Y-7761662D01*
X69443337Y-7650816D01*
X69443329Y-7650810D01*
X69308387Y-7571006D01*
X69308384Y-7571005D01*
X69157843Y-7527268D01*
X69157837Y-7527267D01*
X69122675Y-7524500D01*
X69122668Y-7524500D01*
X68037332Y-7524500D01*
X68037324Y-7524500D01*
X68002162Y-7527267D01*
X68002156Y-7527268D01*
X67851615Y-7571005D01*
X67851612Y-7571006D01*
X67716670Y-7650810D01*
X67716662Y-7650816D01*
X67605816Y-7761662D01*
X67605810Y-7761670D01*
X67526006Y-7896612D01*
X67526005Y-7896615D01*
X67482268Y-8047156D01*
X67482267Y-8047162D01*
X67479500Y-8082324D01*
X67140499Y-8082324D01*
X67137732Y-8047161D01*
X67115057Y-7969115D01*
X67093994Y-7896615D01*
X67093993Y-7896612D01*
X67093993Y-7896611D01*
X67014188Y-7761668D01*
X67014186Y-7761666D01*
X67014183Y-7761662D01*
X66903337Y-7650816D01*
X66903329Y-7650810D01*
X66768387Y-7571006D01*
X66768384Y-7571005D01*
X66617843Y-7527268D01*
X66617837Y-7527267D01*
X66582675Y-7524500D01*
X66582668Y-7524500D01*
X65497332Y-7524500D01*
X65497324Y-7524500D01*
X65462162Y-7527267D01*
X65462156Y-7527268D01*
X65311615Y-7571005D01*
X65311612Y-7571006D01*
X65176670Y-7650810D01*
X65176662Y-7650816D01*
X65065816Y-7761662D01*
X65065810Y-7761670D01*
X64986006Y-7896612D01*
X64986005Y-7896615D01*
X64942268Y-8047156D01*
X64942267Y-8047162D01*
X64939500Y-8082324D01*
X64600499Y-8082324D01*
X64597732Y-8047161D01*
X64575057Y-7969115D01*
X64553994Y-7896615D01*
X64553993Y-7896612D01*
X64553993Y-7896611D01*
X64474188Y-7761668D01*
X64474186Y-7761666D01*
X64474183Y-7761662D01*
X64363337Y-7650816D01*
X64363329Y-7650810D01*
X64228387Y-7571006D01*
X64228384Y-7571005D01*
X64077843Y-7527268D01*
X64077837Y-7527267D01*
X64042675Y-7524500D01*
X64042668Y-7524500D01*
X62957332Y-7524500D01*
X62957324Y-7524500D01*
X62922162Y-7527267D01*
X62922156Y-7527268D01*
X62771615Y-7571005D01*
X62771612Y-7571006D01*
X62636670Y-7650810D01*
X62636662Y-7650816D01*
X62525816Y-7761662D01*
X62525810Y-7761670D01*
X62446006Y-7896612D01*
X62446005Y-7896615D01*
X62402268Y-8047156D01*
X62402267Y-8047162D01*
X62399500Y-8082324D01*
X62399500Y-9767675D01*
X62402267Y-9802837D01*
X62421369Y-9868586D01*
X62421291Y-9895538D01*
X62424816Y-9922253D01*
X62421193Y-9929947D01*
X62421169Y-9938455D01*
X62406532Y-9961087D01*
X62395054Y-9985467D01*
X62387845Y-9989982D01*
X62383226Y-9997125D01*
X62358678Y-10008250D01*
X62335841Y-10022555D01*
X62327336Y-10022456D01*
X62319588Y-10025968D01*
X62292924Y-10022056D01*
X62265976Y-10021743D01*
X62254874Y-10016473D01*
X62250458Y-10015826D01*
X62234044Y-10006709D01*
X62231138Y-10004793D01*
X62231069Y-10004724D01*
X62124527Y-9933535D01*
X62120533Y-9931880D01*
X62111913Y-9926198D01*
X62092879Y-9903708D01*
X62071862Y-9883062D01*
X62070564Y-9877342D01*
X62066775Y-9872865D01*
X62062921Y-9843656D01*
X62056403Y-9814924D01*
X62057463Y-9806250D01*
X62057659Y-9803764D01*
X62057637Y-9803596D01*
X62057679Y-9803505D01*
X62057731Y-9802841D01*
X62057732Y-9802839D01*
X62060500Y-9767668D01*
X62060500Y-8082332D01*
X62057732Y-8047161D01*
X62035057Y-7969115D01*
X62013994Y-7896615D01*
X62013993Y-7896612D01*
X62013993Y-7896611D01*
X61934188Y-7761668D01*
X61934186Y-7761666D01*
X61934183Y-7761662D01*
X61823337Y-7650816D01*
X61823329Y-7650810D01*
X61688387Y-7571006D01*
X61688384Y-7571005D01*
X61537843Y-7527268D01*
X61537837Y-7527267D01*
X61502675Y-7524500D01*
X61502668Y-7524500D01*
X60417332Y-7524500D01*
X60417324Y-7524500D01*
X60382162Y-7527267D01*
X60382156Y-7527268D01*
X60231615Y-7571005D01*
X60231612Y-7571006D01*
X60096670Y-7650810D01*
X60096662Y-7650816D01*
X59985816Y-7761662D01*
X59985810Y-7761670D01*
X59906006Y-7896612D01*
X59906005Y-7896615D01*
X59862268Y-8047156D01*
X59862267Y-8047162D01*
X59859500Y-8082324D01*
X59520499Y-8082324D01*
X59517732Y-8047161D01*
X59495057Y-7969115D01*
X59473994Y-7896615D01*
X59473993Y-7896612D01*
X59473993Y-7896611D01*
X59394188Y-7761668D01*
X59394186Y-7761666D01*
X59394183Y-7761662D01*
X59283337Y-7650816D01*
X59283329Y-7650810D01*
X59148387Y-7571006D01*
X59148384Y-7571005D01*
X58997843Y-7527268D01*
X58997837Y-7527267D01*
X58962675Y-7524500D01*
X58962668Y-7524500D01*
X57877332Y-7524500D01*
X57877324Y-7524500D01*
X57842162Y-7527267D01*
X57842156Y-7527268D01*
X57691615Y-7571005D01*
X57691612Y-7571006D01*
X57556670Y-7650810D01*
X57556662Y-7650816D01*
X57445816Y-7761662D01*
X57445810Y-7761670D01*
X57366006Y-7896612D01*
X57366005Y-7896615D01*
X57322268Y-8047156D01*
X57322267Y-8047162D01*
X57319500Y-8082324D01*
X56980499Y-8082324D01*
X56977732Y-8047161D01*
X56955057Y-7969115D01*
X56933994Y-7896615D01*
X56933993Y-7896612D01*
X56933993Y-7896611D01*
X56854188Y-7761668D01*
X56854186Y-7761666D01*
X56854183Y-7761662D01*
X56743337Y-7650816D01*
X56743329Y-7650810D01*
X56608387Y-7571006D01*
X56608384Y-7571005D01*
X56457843Y-7527268D01*
X56457837Y-7527267D01*
X56422675Y-7524500D01*
X56422668Y-7524500D01*
X55337332Y-7524500D01*
X55337324Y-7524500D01*
X55302162Y-7527267D01*
X55302156Y-7527268D01*
X55151615Y-7571005D01*
X55151612Y-7571006D01*
X55016670Y-7650810D01*
X55016662Y-7650816D01*
X54905816Y-7761662D01*
X54905810Y-7761670D01*
X54826006Y-7896612D01*
X54826005Y-7896615D01*
X54782268Y-8047156D01*
X54782267Y-8047162D01*
X54779500Y-8082324D01*
X54440499Y-8082324D01*
X54437732Y-8047161D01*
X54415057Y-7969115D01*
X54393994Y-7896615D01*
X54393993Y-7896612D01*
X54393993Y-7896611D01*
X54314188Y-7761668D01*
X54314186Y-7761666D01*
X54314183Y-7761662D01*
X54203337Y-7650816D01*
X54203329Y-7650810D01*
X54068387Y-7571006D01*
X54068384Y-7571005D01*
X53917843Y-7527268D01*
X53917837Y-7527267D01*
X53882675Y-7524500D01*
X53882668Y-7524500D01*
X52797332Y-7524500D01*
X52797324Y-7524500D01*
X52762162Y-7527267D01*
X52762156Y-7527268D01*
X52611615Y-7571005D01*
X52611612Y-7571006D01*
X52476670Y-7650810D01*
X52476662Y-7650816D01*
X52365816Y-7761662D01*
X52365810Y-7761670D01*
X52286006Y-7896612D01*
X52286005Y-7896615D01*
X52242268Y-8047156D01*
X52242267Y-8047162D01*
X52239500Y-8082324D01*
X51900499Y-8082324D01*
X51897732Y-8047161D01*
X51875057Y-7969115D01*
X51853994Y-7896615D01*
X51853993Y-7896612D01*
X51853993Y-7896611D01*
X51774188Y-7761668D01*
X51774186Y-7761666D01*
X51774183Y-7761662D01*
X51663337Y-7650816D01*
X51663329Y-7650810D01*
X51528387Y-7571006D01*
X51528384Y-7571005D01*
X51377843Y-7527268D01*
X51377837Y-7527267D01*
X51342675Y-7524500D01*
X51342668Y-7524500D01*
X50257332Y-7524500D01*
X50257324Y-7524500D01*
X50222162Y-7527267D01*
X50222156Y-7527268D01*
X50071615Y-7571005D01*
X50071612Y-7571006D01*
X49936670Y-7650810D01*
X49936662Y-7650816D01*
X49825816Y-7761662D01*
X49825810Y-7761670D01*
X49746006Y-7896612D01*
X49746005Y-7896615D01*
X49702268Y-8047156D01*
X49702267Y-8047162D01*
X49699500Y-8082324D01*
X49699500Y-9767675D01*
X49702267Y-9802837D01*
X49702268Y-9802843D01*
X49746004Y-9953384D01*
X49746006Y-9953387D01*
X49746007Y-9953389D01*
X49756966Y-9971920D01*
X49774149Y-10039642D01*
X49751989Y-10105905D01*
X49712591Y-10140931D01*
X49712938Y-10141450D01*
X49709198Y-10143948D01*
X49708701Y-10144391D01*
X49707877Y-10144831D01*
X49601331Y-10216023D01*
X49507575Y-10309779D01*
X49483218Y-10323077D01*
X49460641Y-10339211D01*
X49452980Y-10339588D01*
X49446251Y-10343263D01*
X49418572Y-10341283D01*
X49390856Y-10342649D01*
X49384209Y-10338826D01*
X49376560Y-10338279D01*
X49354346Y-10321649D01*
X49330290Y-10307813D01*
X49324972Y-10299659D01*
X49320627Y-10296407D01*
X49309771Y-10279096D01*
X49307348Y-10274416D01*
X49283265Y-10216273D01*
X49256592Y-10176355D01*
X49253412Y-10170210D01*
X49248010Y-10142429D01*
X49239555Y-10115425D01*
X49241400Y-10108433D01*
X49240077Y-10101625D01*
X49249325Y-10078415D01*
X49256801Y-10050094D01*
X49313993Y-9953389D01*
X49330801Y-9895538D01*
X49357731Y-9802843D01*
X49357732Y-9802837D01*
X49358790Y-9789396D01*
X49360500Y-9767668D01*
X49360500Y-8082332D01*
X49357732Y-8047161D01*
X49335057Y-7969115D01*
X49313994Y-7896615D01*
X49313993Y-7896612D01*
X49313993Y-7896611D01*
X49234188Y-7761668D01*
X49234186Y-7761666D01*
X49234183Y-7761662D01*
X49123337Y-7650816D01*
X49123329Y-7650810D01*
X48988387Y-7571006D01*
X48988384Y-7571005D01*
X48837843Y-7527268D01*
X48837837Y-7527267D01*
X48802675Y-7524500D01*
X48802668Y-7524500D01*
X47717332Y-7524500D01*
X47717324Y-7524500D01*
X47682162Y-7527267D01*
X47682156Y-7527268D01*
X47531615Y-7571005D01*
X47531612Y-7571006D01*
X47396670Y-7650810D01*
X47396662Y-7650816D01*
X47285816Y-7761662D01*
X47285810Y-7761670D01*
X47206006Y-7896612D01*
X47206005Y-7896615D01*
X47162268Y-8047156D01*
X47162267Y-8047162D01*
X47159500Y-8082324D01*
X46820499Y-8082324D01*
X46817732Y-8047161D01*
X46795057Y-7969115D01*
X46773994Y-7896615D01*
X46773993Y-7896612D01*
X46773993Y-7896611D01*
X46694188Y-7761668D01*
X46694186Y-7761666D01*
X46694183Y-7761662D01*
X46583337Y-7650816D01*
X46583329Y-7650810D01*
X46448387Y-7571006D01*
X46448384Y-7571005D01*
X46297843Y-7527268D01*
X46297837Y-7527267D01*
X46262675Y-7524500D01*
X46262668Y-7524500D01*
X45177332Y-7524500D01*
X45177324Y-7524500D01*
X45142162Y-7527267D01*
X45142156Y-7527268D01*
X44991615Y-7571005D01*
X44991612Y-7571006D01*
X44856670Y-7650810D01*
X44856662Y-7650816D01*
X44745816Y-7761662D01*
X44745810Y-7761670D01*
X44666006Y-7896612D01*
X44666005Y-7896615D01*
X44622268Y-8047156D01*
X44622267Y-8047162D01*
X44619500Y-8082324D01*
X44280499Y-8082324D01*
X44277732Y-8047161D01*
X44255057Y-7969115D01*
X44233994Y-7896615D01*
X44233993Y-7896612D01*
X44233993Y-7896611D01*
X44154188Y-7761668D01*
X44154186Y-7761666D01*
X44154183Y-7761662D01*
X44043337Y-7650816D01*
X44043329Y-7650810D01*
X43908387Y-7571006D01*
X43908384Y-7571005D01*
X43757843Y-7527268D01*
X43757837Y-7527267D01*
X43722675Y-7524500D01*
X43722668Y-7524500D01*
X42637332Y-7524500D01*
X42637324Y-7524500D01*
X42602162Y-7527267D01*
X42602156Y-7527268D01*
X42451615Y-7571005D01*
X42451612Y-7571006D01*
X42316670Y-7650810D01*
X42316662Y-7650816D01*
X42205816Y-7761662D01*
X42205810Y-7761670D01*
X42126006Y-7896612D01*
X42126005Y-7896615D01*
X42082268Y-8047156D01*
X42082267Y-8047162D01*
X42079500Y-8082324D01*
X41740499Y-8082324D01*
X41737732Y-8047161D01*
X41715057Y-7969115D01*
X41693994Y-7896615D01*
X41693993Y-7896612D01*
X41693993Y-7896611D01*
X41614188Y-7761668D01*
X41614186Y-7761666D01*
X41614183Y-7761662D01*
X41503337Y-7650816D01*
X41503329Y-7650810D01*
X41368387Y-7571006D01*
X41368384Y-7571005D01*
X41217843Y-7527268D01*
X41217837Y-7527267D01*
X41182675Y-7524500D01*
X41182668Y-7524500D01*
X40097332Y-7524500D01*
X40097324Y-7524500D01*
X40062162Y-7527267D01*
X40062156Y-7527268D01*
X39911615Y-7571005D01*
X39911612Y-7571006D01*
X39776670Y-7650810D01*
X39776662Y-7650816D01*
X39665816Y-7761662D01*
X39665810Y-7761670D01*
X39586006Y-7896612D01*
X39586005Y-7896615D01*
X39542268Y-8047156D01*
X39542265Y-8047176D01*
X39542225Y-8047686D01*
X39542123Y-8047952D01*
X39541129Y-8053397D01*
X39540117Y-8053212D01*
X39517332Y-8112971D01*
X39461095Y-8154434D01*
X39391369Y-8158910D01*
X39330291Y-8124979D01*
X39297254Y-8063413D01*
X39295251Y-8050540D01*
X39289926Y-7998415D01*
X39236984Y-7838645D01*
X39236979Y-7838634D01*
X39148626Y-7695393D01*
X39148623Y-7695389D01*
X39029610Y-7576376D01*
X39029606Y-7576373D01*
X38886365Y-7488020D01*
X38886354Y-7488015D01*
X38726583Y-7435073D01*
X38726586Y-7435073D01*
X38627989Y-7425000D01*
X38350000Y-7425000D01*
X38350000Y-10425000D01*
X37850000Y-10425000D01*
X37850000Y-7425000D01*
X37572010Y-7425000D01*
X37473415Y-7435073D01*
X37313645Y-7488015D01*
X37313634Y-7488020D01*
X37170393Y-7576373D01*
X37170389Y-7576376D01*
X37051376Y-7695389D01*
X37051373Y-7695393D01*
X36963020Y-7838634D01*
X36963015Y-7838645D01*
X36910073Y-7998415D01*
X36904748Y-8050542D01*
X36878352Y-8115234D01*
X36821171Y-8155385D01*
X36751360Y-8158248D01*
X36691083Y-8122913D01*
X36659478Y-8060600D01*
X36657772Y-8047668D01*
X36657732Y-8047162D01*
X36657731Y-8047156D01*
X36613994Y-7896615D01*
X36613993Y-7896612D01*
X36613993Y-7896611D01*
X36534188Y-7761668D01*
X36534186Y-7761666D01*
X36534183Y-7761662D01*
X36423337Y-7650816D01*
X36423329Y-7650810D01*
X36288387Y-7571006D01*
X36288384Y-7571005D01*
X36137843Y-7527268D01*
X36137837Y-7527267D01*
X36102675Y-7524500D01*
X36102668Y-7524500D01*
X35017332Y-7524500D01*
X35017324Y-7524500D01*
X34982162Y-7527267D01*
X34982156Y-7527268D01*
X34831615Y-7571005D01*
X34831612Y-7571006D01*
X34696670Y-7650810D01*
X34696662Y-7650816D01*
X34585816Y-7761662D01*
X34585810Y-7761670D01*
X34506006Y-7896612D01*
X34506005Y-7896615D01*
X34462268Y-8047156D01*
X34462267Y-8047162D01*
X34459500Y-8082324D01*
X34120499Y-8082324D01*
X34117732Y-8047161D01*
X34095057Y-7969115D01*
X34073994Y-7896615D01*
X34073993Y-7896612D01*
X34073993Y-7896611D01*
X33994188Y-7761668D01*
X33994186Y-7761666D01*
X33994183Y-7761662D01*
X33883337Y-7650816D01*
X33883329Y-7650810D01*
X33748387Y-7571006D01*
X33748384Y-7571005D01*
X33597843Y-7527268D01*
X33597837Y-7527267D01*
X33562675Y-7524500D01*
X33562668Y-7524500D01*
X32477332Y-7524500D01*
X32477324Y-7524500D01*
X32442162Y-7527267D01*
X32442156Y-7527268D01*
X32291615Y-7571005D01*
X32291612Y-7571006D01*
X32156670Y-7650810D01*
X32156662Y-7650816D01*
X32045816Y-7761662D01*
X32045810Y-7761670D01*
X31966006Y-7896612D01*
X31966005Y-7896615D01*
X31922268Y-8047156D01*
X31922267Y-8047162D01*
X31919500Y-8082324D01*
X31580499Y-8082324D01*
X31577732Y-8047161D01*
X31555057Y-7969115D01*
X31533994Y-7896615D01*
X31533993Y-7896612D01*
X31533993Y-7896611D01*
X31454188Y-7761668D01*
X31454186Y-7761666D01*
X31454183Y-7761662D01*
X31343337Y-7650816D01*
X31343329Y-7650810D01*
X31208387Y-7571006D01*
X31208384Y-7571005D01*
X31057843Y-7527268D01*
X31057837Y-7527267D01*
X31022675Y-7524500D01*
X31022668Y-7524500D01*
X29937332Y-7524500D01*
X29937324Y-7524500D01*
X29902162Y-7527267D01*
X29902156Y-7527268D01*
X29751615Y-7571005D01*
X29751612Y-7571006D01*
X29616670Y-7650810D01*
X29616662Y-7650816D01*
X29505816Y-7761662D01*
X29505810Y-7761670D01*
X29426006Y-7896612D01*
X29426005Y-7896615D01*
X29382268Y-8047156D01*
X29382267Y-8047162D01*
X29379500Y-8082324D01*
X29379500Y-9767675D01*
X29382267Y-9802837D01*
X29382268Y-9802843D01*
X29413405Y-9910014D01*
X29413206Y-9979883D01*
X29375264Y-10038553D01*
X29341786Y-10059168D01*
X29322080Y-10067330D01*
X29322066Y-10067338D01*
X29215531Y-10138523D01*
X29122902Y-10231152D01*
X29104406Y-10241251D01*
X29088729Y-10255331D01*
X29074356Y-10257658D01*
X29061578Y-10264636D01*
X29040559Y-10263132D01*
X29019758Y-10266502D01*
X29006410Y-10260690D01*
X28991887Y-10259652D01*
X28975015Y-10247022D01*
X28955697Y-10238611D01*
X28939110Y-10220142D01*
X28935954Y-10217780D01*
X28932114Y-10212353D01*
X28927032Y-10204746D01*
X28906159Y-10138067D01*
X28923405Y-10072745D01*
X28993993Y-9953389D01*
X28993993Y-9953385D01*
X28993995Y-9953384D01*
X29037731Y-9802843D01*
X29037732Y-9802837D01*
X29038790Y-9789396D01*
X29040500Y-9767668D01*
X29040500Y-8082332D01*
X29037732Y-8047161D01*
X29015057Y-7969115D01*
X28993994Y-7896615D01*
X28993993Y-7896612D01*
X28993993Y-7896611D01*
X28914188Y-7761668D01*
X28914186Y-7761666D01*
X28914183Y-7761662D01*
X28803337Y-7650816D01*
X28803329Y-7650810D01*
X28668387Y-7571006D01*
X28668384Y-7571005D01*
X28517843Y-7527268D01*
X28517837Y-7527267D01*
X28482675Y-7524500D01*
X28482668Y-7524500D01*
X27397332Y-7524500D01*
X27397324Y-7524500D01*
X27362162Y-7527267D01*
X27362156Y-7527268D01*
X27211615Y-7571005D01*
X27211612Y-7571006D01*
X27076670Y-7650810D01*
X27076662Y-7650816D01*
X26965816Y-7761662D01*
X26965810Y-7761670D01*
X26886006Y-7896612D01*
X26886005Y-7896615D01*
X26842268Y-8047156D01*
X26842267Y-8047162D01*
X26839500Y-8082324D01*
X26500499Y-8082324D01*
X26497732Y-8047161D01*
X26475057Y-7969115D01*
X26453994Y-7896615D01*
X26453993Y-7896612D01*
X26453993Y-7896611D01*
X26374188Y-7761668D01*
X26374186Y-7761666D01*
X26374183Y-7761662D01*
X26263337Y-7650816D01*
X26263329Y-7650810D01*
X26128387Y-7571006D01*
X26128384Y-7571005D01*
X25977843Y-7527268D01*
X25977837Y-7527267D01*
X25942675Y-7524500D01*
X25942668Y-7524500D01*
X24857332Y-7524500D01*
X24857324Y-7524500D01*
X24822162Y-7527267D01*
X24822156Y-7527268D01*
X24671615Y-7571005D01*
X24671612Y-7571006D01*
X24536670Y-7650810D01*
X24536662Y-7650816D01*
X24425816Y-7761662D01*
X24425810Y-7761670D01*
X24346006Y-7896612D01*
X24346005Y-7896615D01*
X24302268Y-8047156D01*
X24302267Y-8047162D01*
X24299500Y-8082324D01*
X24299500Y-9767675D01*
X24302267Y-9802837D01*
X24302268Y-9802843D01*
X24346005Y-9953384D01*
X24346006Y-9953387D01*
X24346007Y-9953389D01*
X24364343Y-9984394D01*
X24425810Y-10088329D01*
X24425816Y-10088337D01*
X24498676Y-10161197D01*
X24532161Y-10222520D01*
X24527177Y-10292212D01*
X24485305Y-10348145D01*
X24458448Y-10363439D01*
X24443976Y-10369433D01*
X24443966Y-10369438D01*
X24337431Y-10440623D01*
X24337427Y-10440626D01*
X24246826Y-10531227D01*
X24246823Y-10531231D01*
X24175638Y-10637766D01*
X24175633Y-10637775D01*
X24126599Y-10756155D01*
X24126597Y-10756161D01*
X24101600Y-10881828D01*
X24101600Y-10881831D01*
X24101600Y-11009969D01*
X24101600Y-11009971D01*
X24101599Y-11009971D01*
X23317974Y-11009971D01*
X23365276Y-10962669D01*
X23436465Y-10856127D01*
X23436466Y-10856124D01*
X23436468Y-10856121D01*
X23447997Y-10828287D01*
X23447997Y-10828286D01*
X23450340Y-10822629D01*
X23485501Y-10737744D01*
X23498470Y-10672548D01*
X23510500Y-10612071D01*
X23510500Y-10483929D01*
X23500084Y-10431569D01*
X23498404Y-10423121D01*
X23504631Y-10353531D01*
X23547493Y-10298353D01*
X23585429Y-10279852D01*
X23588389Y-10278993D01*
X23723332Y-10199188D01*
X23834188Y-10088332D01*
X23913993Y-9953389D01*
X23957732Y-9802839D01*
X23960500Y-9767668D01*
X23960500Y-8082332D01*
X23957732Y-8047161D01*
X23935057Y-7969115D01*
X23913994Y-7896615D01*
X23913993Y-7896612D01*
X23913993Y-7896611D01*
X23834188Y-7761668D01*
X23834186Y-7761666D01*
X23834183Y-7761662D01*
X23723337Y-7650816D01*
X23723329Y-7650810D01*
X23588387Y-7571006D01*
X23588384Y-7571005D01*
X23437843Y-7527268D01*
X23437837Y-7527267D01*
X23402675Y-7524500D01*
X23402668Y-7524500D01*
X22317332Y-7524500D01*
X22317324Y-7524500D01*
X22282162Y-7527267D01*
X22282156Y-7527268D01*
X22131615Y-7571005D01*
X22131612Y-7571006D01*
X21996670Y-7650810D01*
X21996662Y-7650816D01*
X21885816Y-7761662D01*
X21885810Y-7761670D01*
X21806006Y-7896612D01*
X21806005Y-7896615D01*
X21762268Y-8047156D01*
X21762267Y-8047162D01*
X21759500Y-8082324D01*
X21420499Y-8082324D01*
X21417732Y-8047161D01*
X21395057Y-7969115D01*
X21373994Y-7896615D01*
X21373993Y-7896612D01*
X21373993Y-7896611D01*
X21294188Y-7761668D01*
X21294186Y-7761666D01*
X21294183Y-7761662D01*
X21183337Y-7650816D01*
X21183329Y-7650810D01*
X21048387Y-7571006D01*
X21048384Y-7571005D01*
X20897843Y-7527268D01*
X20897837Y-7527267D01*
X20862675Y-7524500D01*
X20862668Y-7524500D01*
X19777332Y-7524500D01*
X19777324Y-7524500D01*
X19742162Y-7527267D01*
X19742156Y-7527268D01*
X19591615Y-7571005D01*
X19591612Y-7571006D01*
X19456670Y-7650810D01*
X19456662Y-7650816D01*
X19345816Y-7761662D01*
X19345810Y-7761670D01*
X19266006Y-7896612D01*
X19266005Y-7896615D01*
X19222268Y-8047156D01*
X19222265Y-8047176D01*
X19222225Y-8047686D01*
X19222123Y-8047952D01*
X19221129Y-8053397D01*
X19220117Y-8053212D01*
X19197332Y-8112971D01*
X19141095Y-8154434D01*
X19071369Y-8158910D01*
X19010291Y-8124979D01*
X18977254Y-8063413D01*
X18975251Y-8050540D01*
X18969926Y-7998415D01*
X18916984Y-7838645D01*
X18916979Y-7838634D01*
X18828626Y-7695393D01*
X18828623Y-7695389D01*
X18709610Y-7576376D01*
X18709606Y-7576373D01*
X18566365Y-7488020D01*
X18566354Y-7488015D01*
X18406583Y-7435073D01*
X18406586Y-7435073D01*
X18307989Y-7425000D01*
X18030000Y-7425000D01*
X18030000Y-10425000D01*
X17530000Y-10425000D01*
X17530000Y-9175000D01*
X16565301Y-9175000D01*
X16536358Y-9190804D01*
X16466666Y-9185820D01*
X16449830Y-9175000D01*
X15490000Y-9175000D01*
X15490000Y-10425000D01*
X14990000Y-10425000D01*
X14990000Y-8675000D01*
X15490000Y-8675000D01*
X16454699Y-8675000D01*
X16483642Y-8659196D01*
X16553334Y-8664180D01*
X16570170Y-8675000D01*
X17530000Y-8675000D01*
X17530000Y-7425000D01*
X17252010Y-7425000D01*
X17153415Y-7435073D01*
X16993645Y-7488015D01*
X16993634Y-7488020D01*
X16850393Y-7576373D01*
X16850389Y-7576376D01*
X16731376Y-7695389D01*
X16731373Y-7695393D01*
X16643020Y-7838634D01*
X16643015Y-7838645D01*
X16627706Y-7884847D01*
X16587933Y-7942292D01*
X16523418Y-7969115D01*
X16454642Y-7956800D01*
X16403442Y-7909257D01*
X16392294Y-7884847D01*
X16376984Y-7838645D01*
X16376979Y-7838634D01*
X16288626Y-7695393D01*
X16288623Y-7695389D01*
X16169610Y-7576376D01*
X16169606Y-7576373D01*
X16026365Y-7488020D01*
X16026354Y-7488015D01*
X15866583Y-7435073D01*
X15866586Y-7435073D01*
X15767989Y-7425000D01*
X15490000Y-7425000D01*
X15490000Y-8675000D01*
X14990000Y-8675000D01*
X14990000Y-7425000D01*
X14712010Y-7425000D01*
X14613415Y-7435073D01*
X14453645Y-7488015D01*
X14453634Y-7488020D01*
X14310393Y-7576373D01*
X14310389Y-7576376D01*
X14191376Y-7695389D01*
X14191373Y-7695393D01*
X14103020Y-7838634D01*
X14103015Y-7838645D01*
X14050073Y-7998415D01*
X14044748Y-8050542D01*
X14018352Y-8115234D01*
X13961171Y-8155385D01*
X13891360Y-8158248D01*
X13831083Y-8122913D01*
X13799478Y-8060600D01*
X13797772Y-8047668D01*
X13797732Y-8047162D01*
X13797731Y-8047156D01*
X13753994Y-7896615D01*
X13753993Y-7896612D01*
X13753993Y-7896611D01*
X13674188Y-7761668D01*
X13674186Y-7761666D01*
X13674183Y-7761662D01*
X13563337Y-7650816D01*
X13563329Y-7650810D01*
X13428387Y-7571006D01*
X13428384Y-7571005D01*
X13277843Y-7527268D01*
X13277837Y-7527267D01*
X13242675Y-7524500D01*
X13242668Y-7524500D01*
X12157332Y-7524500D01*
X12157324Y-7524500D01*
X12122162Y-7527267D01*
X12122156Y-7527268D01*
X11971615Y-7571005D01*
X11971612Y-7571006D01*
X11836670Y-7650810D01*
X11836662Y-7650816D01*
X11725816Y-7761662D01*
X11725810Y-7761670D01*
X11646006Y-7896612D01*
X11646005Y-7896615D01*
X11602268Y-8047156D01*
X11602267Y-8047162D01*
X11599500Y-8082324D01*
X11260499Y-8082324D01*
X11257732Y-8047161D01*
X11235057Y-7969115D01*
X11213994Y-7896615D01*
X11213993Y-7896612D01*
X11213993Y-7896611D01*
X11134188Y-7761668D01*
X11134186Y-7761666D01*
X11134183Y-7761662D01*
X11023337Y-7650816D01*
X11023329Y-7650810D01*
X10888387Y-7571006D01*
X10888384Y-7571005D01*
X10737843Y-7527268D01*
X10737837Y-7527267D01*
X10702675Y-7524500D01*
X10702668Y-7524500D01*
X9617332Y-7524500D01*
X9617324Y-7524500D01*
X9582162Y-7527267D01*
X9582156Y-7527268D01*
X9431615Y-7571005D01*
X9431612Y-7571006D01*
X9296670Y-7650810D01*
X9296662Y-7650816D01*
X9185816Y-7761662D01*
X9185810Y-7761670D01*
X9106006Y-7896612D01*
X9106005Y-7896615D01*
X9062268Y-8047156D01*
X9062267Y-8047162D01*
X9059500Y-8082324D01*
X9059500Y-9767675D01*
X9062267Y-9802837D01*
X9062268Y-9802843D01*
X9106005Y-9953384D01*
X9106006Y-9953387D01*
X9106007Y-9953389D01*
X9124343Y-9984394D01*
X9185810Y-10088329D01*
X9185816Y-10088337D01*
X9296662Y-10199183D01*
X9296666Y-10199186D01*
X9296668Y-10199188D01*
X9431611Y-10278993D01*
X9470095Y-10290173D01*
X9528979Y-10327777D01*
X9558187Y-10391249D01*
X9559500Y-10409249D01*
X9559500Y-15539902D01*
X9539815Y-15606941D01*
X9523181Y-15627583D01*
X6273427Y-18877336D01*
X6212104Y-18910821D01*
X6166349Y-18912128D01*
X6086617Y-18899500D01*
X6086611Y-18899500D01*
X5913389Y-18899500D01*
X5873728Y-18905781D01*
X5742302Y-18926597D01*
X5577552Y-18980128D01*
X5423211Y-19058768D01*
X5343256Y-19116859D01*
X5283072Y-19160586D01*
X5283070Y-19160588D01*
X5283069Y-19160588D01*
X5160588Y-19283069D01*
X5160588Y-19283070D01*
X5160586Y-19283072D01*
X5116859Y-19343256D01*
X5058768Y-19423211D01*
X4980128Y-19577552D01*
X4926597Y-19742302D01*
X4923121Y-19764249D01*
X4899500Y-19913389D01*
X300500Y-19913389D01*
X300500Y-8939071D01*
X1355399Y-8939071D01*
X1380397Y-9064738D01*
X1380399Y-9064744D01*
X1429433Y-9183124D01*
X1429438Y-9183133D01*
X1500623Y-9289668D01*
X1500626Y-9289672D01*
X1591227Y-9380273D01*
X1591231Y-9380276D01*
X1697766Y-9451461D01*
X1697772Y-9451464D01*
X1697773Y-9451465D01*
X1816156Y-9500501D01*
X1816160Y-9500501D01*
X1816161Y-9500502D01*
X1941828Y-9525500D01*
X1941831Y-9525500D01*
X2069971Y-9525500D01*
X2154515Y-9508682D01*
X2195644Y-9500501D01*
X2314027Y-9451465D01*
X2420569Y-9380276D01*
X2464025Y-9336820D01*
X2525348Y-9303334D01*
X2551707Y-9300500D01*
X3855500Y-9300500D01*
X3922539Y-9320185D01*
X3968294Y-9372989D01*
X3979500Y-9424500D01*
X3979500Y-9767675D01*
X3982267Y-9802837D01*
X3982268Y-9802843D01*
X4026005Y-9953384D01*
X4026006Y-9953387D01*
X4026007Y-9953389D01*
X4044343Y-9984394D01*
X4105810Y-10088329D01*
X4105816Y-10088337D01*
X4216662Y-10199183D01*
X4216666Y-10199186D01*
X4216668Y-10199188D01*
X4351611Y-10278993D01*
X4381849Y-10287778D01*
X4502156Y-10322731D01*
X4502159Y-10322731D01*
X4502161Y-10322732D01*
X4537332Y-10325500D01*
X4537340Y-10325500D01*
X5622660Y-10325500D01*
X5622668Y-10325500D01*
X5657839Y-10322732D01*
X5657841Y-10322731D01*
X5657843Y-10322731D01*
X5737256Y-10299659D01*
X5808389Y-10278993D01*
X5943332Y-10199188D01*
X6054188Y-10088332D01*
X6133993Y-9953389D01*
X6177732Y-9802839D01*
X6180500Y-9767668D01*
X6180500Y-8082332D01*
X6180499Y-8082324D01*
X6519500Y-8082324D01*
X6519500Y-9767675D01*
X6522267Y-9802837D01*
X6522268Y-9802843D01*
X6566005Y-9953384D01*
X6566006Y-9953387D01*
X6566007Y-9953389D01*
X6584343Y-9984394D01*
X6645810Y-10088329D01*
X6645816Y-10088337D01*
X6756662Y-10199183D01*
X6756666Y-10199186D01*
X6756668Y-10199188D01*
X6891611Y-10278993D01*
X6897635Y-10280743D01*
X6956522Y-10318348D01*
X6985730Y-10381820D01*
X6984660Y-10424011D01*
X6969500Y-10500226D01*
X6969500Y-10500231D01*
X6969500Y-10628369D01*
X6969500Y-10628371D01*
X6969499Y-10628371D01*
X6994497Y-10754038D01*
X6994499Y-10754044D01*
X7043533Y-10872424D01*
X7043538Y-10872433D01*
X7114723Y-10978968D01*
X7114726Y-10978972D01*
X7205327Y-11069573D01*
X7205331Y-11069576D01*
X7311866Y-11140761D01*
X7311875Y-11140766D01*
X7324912Y-11146166D01*
X7430256Y-11189801D01*
X7430260Y-11189801D01*
X7430261Y-11189802D01*
X7555928Y-11214800D01*
X7555931Y-11214800D01*
X7684071Y-11214800D01*
X7784613Y-11194800D01*
X7809744Y-11189801D01*
X7928127Y-11140765D01*
X8034669Y-11069576D01*
X8125276Y-10978969D01*
X8196465Y-10872427D01*
X8245501Y-10754044D01*
X8257948Y-10691469D01*
X8270500Y-10628371D01*
X8270500Y-10500228D01*
X8255339Y-10424012D01*
X8261566Y-10354420D01*
X8304429Y-10299243D01*
X8342361Y-10280743D01*
X8348389Y-10278993D01*
X8483332Y-10199188D01*
X8594188Y-10088332D01*
X8673993Y-9953389D01*
X8717732Y-9802839D01*
X8720500Y-9767668D01*
X8720500Y-8082332D01*
X8717732Y-8047161D01*
X8695057Y-7969115D01*
X8673994Y-7896615D01*
X8673993Y-7896612D01*
X8673993Y-7896611D01*
X8594188Y-7761668D01*
X8594186Y-7761666D01*
X8594183Y-7761662D01*
X8483337Y-7650816D01*
X8483329Y-7650810D01*
X8348387Y-7571006D01*
X8348384Y-7571005D01*
X8197843Y-7527268D01*
X8197837Y-7527267D01*
X8162675Y-7524500D01*
X8162668Y-7524500D01*
X7077332Y-7524500D01*
X7077324Y-7524500D01*
X7042162Y-7527267D01*
X7042156Y-7527268D01*
X6891615Y-7571005D01*
X6891612Y-7571006D01*
X6756670Y-7650810D01*
X6756662Y-7650816D01*
X6645816Y-7761662D01*
X6645810Y-7761670D01*
X6566006Y-7896612D01*
X6566005Y-7896615D01*
X6522268Y-8047156D01*
X6522267Y-8047162D01*
X6519500Y-8082324D01*
X6180499Y-8082324D01*
X6177732Y-8047161D01*
X6155057Y-7969115D01*
X6133994Y-7896615D01*
X6133993Y-7896612D01*
X6133993Y-7896611D01*
X6054188Y-7761668D01*
X6054186Y-7761666D01*
X6054183Y-7761662D01*
X5943337Y-7650816D01*
X5943329Y-7650810D01*
X5808387Y-7571006D01*
X5808384Y-7571005D01*
X5657843Y-7527268D01*
X5657837Y-7527267D01*
X5622675Y-7524500D01*
X5622668Y-7524500D01*
X4537332Y-7524500D01*
X4537324Y-7524500D01*
X4502162Y-7527267D01*
X4502156Y-7527268D01*
X4351615Y-7571005D01*
X4351612Y-7571006D01*
X4216670Y-7650810D01*
X4216662Y-7650816D01*
X4105816Y-7761662D01*
X4105810Y-7761670D01*
X4026006Y-7896612D01*
X4026005Y-7896615D01*
X3982268Y-8047156D01*
X3982267Y-8047162D01*
X3979500Y-8082324D01*
X3979500Y-8325500D01*
X3959815Y-8392539D01*
X3907011Y-8438294D01*
X3855500Y-8449500D01*
X2551707Y-8449500D01*
X2484668Y-8429815D01*
X2464025Y-8413180D01*
X2420572Y-8369726D01*
X2420568Y-8369723D01*
X2314033Y-8298538D01*
X2314024Y-8298533D01*
X2195644Y-8249499D01*
X2195638Y-8249497D01*
X2069971Y-8224500D01*
X2069969Y-8224500D01*
X1941831Y-8224500D01*
X1941829Y-8224500D01*
X1816161Y-8249497D01*
X1816155Y-8249499D01*
X1697775Y-8298533D01*
X1697766Y-8298538D01*
X1591231Y-8369723D01*
X1591227Y-8369726D01*
X1500626Y-8460327D01*
X1500623Y-8460331D01*
X1429438Y-8566866D01*
X1429433Y-8566875D01*
X1380399Y-8685255D01*
X1380397Y-8685261D01*
X1355400Y-8810928D01*
X1355400Y-8810931D01*
X1355400Y-8939069D01*
X1355400Y-8939071D01*
X1355399Y-8939071D01*
X300500Y-8939071D01*
X300500Y-3232324D01*
X3979500Y-3232324D01*
X3979500Y-4917675D01*
X3982267Y-4952837D01*
X3982268Y-4952843D01*
X4026005Y-5103384D01*
X4026006Y-5103387D01*
X4105810Y-5238329D01*
X4105816Y-5238337D01*
X4216662Y-5349183D01*
X4216666Y-5349186D01*
X4216668Y-5349188D01*
X4351611Y-5428993D01*
X4358744Y-5431065D01*
X4417629Y-5468667D01*
X4446839Y-5532138D01*
X4445770Y-5574333D01*
X4429500Y-5656126D01*
X4429500Y-5656131D01*
X4429500Y-5784269D01*
X4429500Y-5784271D01*
X4429499Y-5784271D01*
X4454497Y-5909938D01*
X4454499Y-5909944D01*
X4503533Y-6028324D01*
X4503538Y-6028333D01*
X4574723Y-6134868D01*
X4574726Y-6134872D01*
X4665327Y-6225473D01*
X4665331Y-6225476D01*
X4771866Y-6296661D01*
X4771875Y-6296666D01*
X4782341Y-6301001D01*
X4890256Y-6345701D01*
X4890260Y-6345701D01*
X4890261Y-6345702D01*
X5015928Y-6370700D01*
X5015931Y-6370700D01*
X5144071Y-6370700D01*
X5237072Y-6352200D01*
X5269744Y-6345701D01*
X5388127Y-6296665D01*
X5494669Y-6225476D01*
X5585276Y-6134869D01*
X5656465Y-6028327D01*
X5705501Y-5909944D01*
X5730500Y-5784269D01*
X5730500Y-5741071D01*
X6323499Y-5741071D01*
X6348497Y-5866738D01*
X6348499Y-5866744D01*
X6397533Y-5985124D01*
X6397538Y-5985133D01*
X6468723Y-6091668D01*
X6468726Y-6091672D01*
X6559327Y-6182273D01*
X6559331Y-6182276D01*
X6665866Y-6253461D01*
X6665875Y-6253466D01*
X6674808Y-6257166D01*
X6784256Y-6302501D01*
X6784260Y-6302501D01*
X6784261Y-6302502D01*
X6909928Y-6327500D01*
X6909931Y-6327500D01*
X7038071Y-6327500D01*
X7122615Y-6310682D01*
X7163744Y-6302501D01*
X7282127Y-6253465D01*
X7388669Y-6182276D01*
X7479276Y-6091669D01*
X7550465Y-5985127D01*
X7599501Y-5866744D01*
X7607682Y-5825615D01*
X7624500Y-5741071D01*
X7624500Y-5679610D01*
X7633144Y-5650169D01*
X7639668Y-5620183D01*
X7643422Y-5615167D01*
X7644185Y-5612571D01*
X7660819Y-5591929D01*
X7740929Y-5511819D01*
X7802252Y-5478334D01*
X7828610Y-5475500D01*
X8162660Y-5475500D01*
X8162668Y-5475500D01*
X8197839Y-5472732D01*
X8197841Y-5472731D01*
X8197843Y-5472731D01*
X8262638Y-5453906D01*
X8348389Y-5428993D01*
X8483332Y-5349188D01*
X8594188Y-5238332D01*
X8673993Y-5103389D01*
X8717732Y-4952839D01*
X8720500Y-4917668D01*
X8720500Y-3232332D01*
X8720499Y-3232324D01*
X9059500Y-3232324D01*
X9059500Y-4917675D01*
X9062267Y-4952837D01*
X9062268Y-4952843D01*
X9106005Y-5103384D01*
X9106006Y-5103387D01*
X9185810Y-5238329D01*
X9185816Y-5238337D01*
X9296662Y-5349183D01*
X9296666Y-5349186D01*
X9296668Y-5349188D01*
X9431611Y-5428993D01*
X9496567Y-5447864D01*
X9555451Y-5485469D01*
X9584658Y-5548941D01*
X9583589Y-5591129D01*
X9578000Y-5619229D01*
X9578000Y-5619231D01*
X9578000Y-5747369D01*
X9578000Y-5747371D01*
X9577999Y-5747371D01*
X9602997Y-5873038D01*
X9602999Y-5873044D01*
X9652033Y-5991424D01*
X9652038Y-5991433D01*
X9723223Y-6097968D01*
X9723226Y-6097972D01*
X9813827Y-6188573D01*
X9813831Y-6188576D01*
X9920366Y-6259761D01*
X9920375Y-6259766D01*
X9936297Y-6266361D01*
X10038756Y-6308801D01*
X10038760Y-6308801D01*
X10038761Y-6308802D01*
X10164428Y-6333800D01*
X10164431Y-6333800D01*
X10292571Y-6333800D01*
X10385064Y-6315401D01*
X10418244Y-6308801D01*
X10536627Y-6259765D01*
X10643169Y-6188576D01*
X10733776Y-6097969D01*
X10804965Y-5991427D01*
X10854001Y-5873044D01*
X10873928Y-5772869D01*
X10879000Y-5747371D01*
X10879000Y-5619229D01*
X10869850Y-5573231D01*
X10863274Y-5540174D01*
X10869501Y-5470584D01*
X10912363Y-5415406D01*
X10921761Y-5409256D01*
X11023332Y-5349188D01*
X11134188Y-5238332D01*
X11213993Y-5103389D01*
X11257732Y-4952839D01*
X11260500Y-4917668D01*
X11260500Y-3232332D01*
X11260499Y-3232324D01*
X11599500Y-3232324D01*
X11599500Y-4917675D01*
X11602267Y-4952837D01*
X11602268Y-4952843D01*
X11646005Y-5103384D01*
X11646006Y-5103387D01*
X11725810Y-5238329D01*
X11725816Y-5238337D01*
X11791843Y-5304364D01*
X11825328Y-5365687D01*
X11820344Y-5435379D01*
X11818724Y-5439496D01*
X11783699Y-5524056D01*
X11783697Y-5524061D01*
X11758700Y-5649728D01*
X11758700Y-5649731D01*
X11758700Y-5777869D01*
X11758700Y-5777871D01*
X11758699Y-5777871D01*
X11783697Y-5903538D01*
X11783699Y-5903544D01*
X11832733Y-6021924D01*
X11832738Y-6021933D01*
X11903923Y-6128468D01*
X11903926Y-6128472D01*
X11994527Y-6219073D01*
X11994531Y-6219076D01*
X12101066Y-6290261D01*
X12101075Y-6290266D01*
X12126992Y-6301001D01*
X12219456Y-6339301D01*
X12219460Y-6339301D01*
X12219461Y-6339302D01*
X12345128Y-6364300D01*
X12345131Y-6364300D01*
X12473271Y-6364300D01*
X12583867Y-6342300D01*
X12598944Y-6339301D01*
X12717327Y-6290265D01*
X12823869Y-6219076D01*
X12914476Y-6128469D01*
X12985665Y-6021927D01*
X13034701Y-5903544D01*
X13058427Y-5784269D01*
X13059700Y-5777871D01*
X13059700Y-5649728D01*
X13059699Y-5649726D01*
X13054521Y-5623691D01*
X13060748Y-5554100D01*
X13103611Y-5498922D01*
X13169501Y-5475678D01*
X13176138Y-5475500D01*
X13242660Y-5475500D01*
X13242668Y-5475500D01*
X13277839Y-5472732D01*
X13277841Y-5472731D01*
X13277843Y-5472731D01*
X13342638Y-5453906D01*
X13428389Y-5428993D01*
X13563332Y-5349188D01*
X13674188Y-5238332D01*
X13753993Y-5103389D01*
X13797732Y-4952839D01*
X13797772Y-4952332D01*
X13797872Y-4952067D01*
X13798871Y-4946603D01*
X13799884Y-4946788D01*
X13822655Y-4887044D01*
X13878886Y-4845572D01*
X13948611Y-4841085D01*
X14009694Y-4875006D01*
X14042741Y-4936567D01*
X14044748Y-4949457D01*
X14050073Y-5001584D01*
X14103015Y-5161354D01*
X14103020Y-5161365D01*
X14191373Y-5304606D01*
X14191376Y-5304610D01*
X14310389Y-5423623D01*
X14310393Y-5423626D01*
X14453634Y-5511979D01*
X14453645Y-5511984D01*
X14613416Y-5564926D01*
X14613413Y-5564926D01*
X14712010Y-5574999D01*
X14712023Y-5575000D01*
X14990000Y-5575000D01*
X15490000Y-5575000D01*
X15767977Y-5575000D01*
X15767989Y-5574999D01*
X15866584Y-5564926D01*
X16026354Y-5511984D01*
X16026365Y-5511979D01*
X16169606Y-5423626D01*
X16169610Y-5423623D01*
X16288623Y-5304610D01*
X16288626Y-5304606D01*
X16376979Y-5161365D01*
X16376984Y-5161354D01*
X16429926Y-5001584D01*
X16435251Y-4949459D01*
X16461646Y-4884767D01*
X16518826Y-4844615D01*
X16588637Y-4841751D01*
X16648914Y-4877084D01*
X16680520Y-4939396D01*
X16682225Y-4952314D01*
X16682265Y-4952823D01*
X16682268Y-4952843D01*
X16726005Y-5103384D01*
X16726006Y-5103387D01*
X16805810Y-5238329D01*
X16805816Y-5238337D01*
X16916662Y-5349183D01*
X16916666Y-5349186D01*
X16916668Y-5349188D01*
X17051611Y-5428993D01*
X17051614Y-5428994D01*
X17058773Y-5432092D01*
X17058067Y-5433722D01*
X17108756Y-5466092D01*
X17137964Y-5529564D01*
X17136894Y-5571755D01*
X17129500Y-5608926D01*
X17129500Y-5608931D01*
X17129500Y-5737069D01*
X17129500Y-5737071D01*
X17129499Y-5737071D01*
X17154497Y-5862738D01*
X17154499Y-5862744D01*
X17203533Y-5981124D01*
X17203538Y-5981133D01*
X17274723Y-6087668D01*
X17274726Y-6087672D01*
X17365327Y-6178273D01*
X17365331Y-6178276D01*
X17471866Y-6249461D01*
X17471875Y-6249466D01*
X17489255Y-6256665D01*
X17590256Y-6298501D01*
X17590260Y-6298501D01*
X17590261Y-6298502D01*
X17715928Y-6323500D01*
X17715931Y-6323500D01*
X17844071Y-6323500D01*
X17928615Y-6306682D01*
X17969744Y-6298501D01*
X18088127Y-6249465D01*
X18194669Y-6178276D01*
X18285276Y-6087669D01*
X18356465Y-5981127D01*
X18405501Y-5862744D01*
X18421111Y-5784269D01*
X18430500Y-5737071D01*
X18430500Y-5608931D01*
X18425044Y-5581503D01*
X18423105Y-5571755D01*
X18429331Y-5502166D01*
X18472193Y-5446988D01*
X18501490Y-5432700D01*
X18501227Y-5432092D01*
X18508381Y-5428995D01*
X18508389Y-5428993D01*
X18643332Y-5349188D01*
X18754188Y-5238332D01*
X18833993Y-5103389D01*
X18877732Y-4952839D01*
X18880500Y-4917668D01*
X18880500Y-3232332D01*
X18880499Y-3232324D01*
X19219500Y-3232324D01*
X19219500Y-4917675D01*
X19222267Y-4952837D01*
X19222268Y-4952843D01*
X19266005Y-5103384D01*
X19266006Y-5103387D01*
X19345810Y-5238329D01*
X19345816Y-5238337D01*
X19456662Y-5349183D01*
X19456666Y-5349186D01*
X19456668Y-5349188D01*
X19591611Y-5428993D01*
X19624300Y-5438490D01*
X19742156Y-5472731D01*
X19742159Y-5472731D01*
X19742161Y-5472732D01*
X19777332Y-5475500D01*
X20478900Y-5475500D01*
X20545939Y-5495185D01*
X20591694Y-5547989D01*
X20602900Y-5599500D01*
X20602900Y-5618969D01*
X20602900Y-5618971D01*
X20602899Y-5618971D01*
X20627897Y-5744638D01*
X20627899Y-5744644D01*
X20676933Y-5863024D01*
X20676938Y-5863033D01*
X20748123Y-5969568D01*
X20748126Y-5969572D01*
X20838727Y-6060173D01*
X20838731Y-6060176D01*
X20945266Y-6131361D01*
X20945275Y-6131366D01*
X20972092Y-6142474D01*
X21063656Y-6180401D01*
X21063660Y-6180401D01*
X21063661Y-6180402D01*
X21189328Y-6205400D01*
X21189331Y-6205400D01*
X21317471Y-6205400D01*
X21417646Y-6185473D01*
X21443144Y-6180401D01*
X21561527Y-6131365D01*
X21668069Y-6060176D01*
X21758676Y-5969569D01*
X21829865Y-5863027D01*
X21878901Y-5744644D01*
X21887082Y-5703515D01*
X21903900Y-5618971D01*
X21903900Y-5511720D01*
X21904992Y-5507997D01*
X21904127Y-5504215D01*
X21914760Y-5474733D01*
X21923585Y-5444681D01*
X21926516Y-5442141D01*
X21927833Y-5438490D01*
X21952716Y-5419438D01*
X21976389Y-5398926D01*
X21980229Y-5398373D01*
X21983310Y-5396015D01*
X22014535Y-5393440D01*
X22045547Y-5388982D01*
X22050196Y-5390501D01*
X22052943Y-5390275D01*
X22071814Y-5397566D01*
X22086144Y-5402250D01*
X22088605Y-5403559D01*
X22131611Y-5428993D01*
X22142177Y-5432062D01*
X22153502Y-5438088D01*
X22169667Y-5453906D01*
X22188731Y-5466079D01*
X22194159Y-5477873D01*
X22203440Y-5486955D01*
X22208487Y-5509004D01*
X22217943Y-5529549D01*
X22217470Y-5548245D01*
X22219031Y-5555063D01*
X22217167Y-5560230D01*
X22216876Y-5571748D01*
X22214936Y-5581503D01*
X22209500Y-5608831D01*
X22209500Y-5736969D01*
X22209500Y-5736971D01*
X22209499Y-5736971D01*
X22234497Y-5862638D01*
X22234499Y-5862644D01*
X22283533Y-5981024D01*
X22283538Y-5981033D01*
X22354723Y-6087568D01*
X22354726Y-6087572D01*
X22445327Y-6178173D01*
X22445331Y-6178176D01*
X22551866Y-6249361D01*
X22551875Y-6249366D01*
X22570694Y-6257161D01*
X22670256Y-6298401D01*
X22670260Y-6298401D01*
X22670261Y-6298402D01*
X22795928Y-6323400D01*
X22795931Y-6323400D01*
X22924071Y-6323400D01*
X23029132Y-6302501D01*
X23049744Y-6298401D01*
X23168127Y-6249365D01*
X23274669Y-6178176D01*
X23365276Y-6087569D01*
X23436465Y-5981027D01*
X23485501Y-5862644D01*
X23501091Y-5784269D01*
X23510500Y-5736971D01*
X23510500Y-5608829D01*
X23503635Y-5574318D01*
X23503124Y-5571748D01*
X23509351Y-5502159D01*
X23552213Y-5446981D01*
X23581492Y-5432704D01*
X23581227Y-5432092D01*
X23588381Y-5428995D01*
X23588389Y-5428993D01*
X23723332Y-5349188D01*
X23834188Y-5238332D01*
X23913993Y-5103389D01*
X23957732Y-4952839D01*
X23960500Y-4917668D01*
X23960500Y-3232332D01*
X23960499Y-3232324D01*
X24299500Y-3232324D01*
X24299500Y-4917675D01*
X24302267Y-4952837D01*
X24302268Y-4952843D01*
X24346005Y-5103384D01*
X24346006Y-5103387D01*
X24425810Y-5238329D01*
X24425816Y-5238337D01*
X24536662Y-5349183D01*
X24536666Y-5349186D01*
X24536668Y-5349188D01*
X24671611Y-5428993D01*
X24673402Y-5429513D01*
X24674641Y-5430304D01*
X24678774Y-5432093D01*
X24678485Y-5432759D01*
X24732289Y-5467117D01*
X24761498Y-5530588D01*
X24760430Y-5572782D01*
X24756622Y-5591929D01*
X24749500Y-5627731D01*
X24749500Y-5755869D01*
X24749500Y-5755871D01*
X24749499Y-5755871D01*
X24774497Y-5881538D01*
X24774499Y-5881544D01*
X24823533Y-5999924D01*
X24823538Y-5999933D01*
X24894723Y-6106468D01*
X24894726Y-6106472D01*
X24985327Y-6197073D01*
X24985331Y-6197076D01*
X25091866Y-6268261D01*
X25091875Y-6268266D01*
X25098635Y-6271066D01*
X25210256Y-6317301D01*
X25210260Y-6317301D01*
X25210261Y-6317302D01*
X25335928Y-6342300D01*
X25335931Y-6342300D01*
X25464071Y-6342300D01*
X25559083Y-6323400D01*
X25589744Y-6317301D01*
X25708127Y-6268265D01*
X25814669Y-6197076D01*
X25905276Y-6106469D01*
X25976465Y-5999927D01*
X26025501Y-5881544D01*
X26033682Y-5840415D01*
X26050500Y-5755871D01*
X26050500Y-5627728D01*
X26039570Y-5572783D01*
X26045797Y-5503192D01*
X26088659Y-5448014D01*
X26121241Y-5432124D01*
X26121227Y-5432092D01*
X26121950Y-5431778D01*
X26126593Y-5429514D01*
X26128389Y-5428993D01*
X26263332Y-5349188D01*
X26374188Y-5238332D01*
X26453993Y-5103389D01*
X26497732Y-4952839D01*
X26500500Y-4917668D01*
X26500500Y-3232332D01*
X26500499Y-3232324D01*
X26839500Y-3232324D01*
X26839500Y-4917675D01*
X26842267Y-4952837D01*
X26842268Y-4952843D01*
X26886005Y-5103384D01*
X26886006Y-5103387D01*
X26965810Y-5238329D01*
X26965816Y-5238337D01*
X27076662Y-5349183D01*
X27076666Y-5349186D01*
X27076668Y-5349188D01*
X27211611Y-5428993D01*
X27218427Y-5430973D01*
X27277313Y-5468579D01*
X27306520Y-5532051D01*
X27305450Y-5574241D01*
X27289500Y-5654426D01*
X27289500Y-5654431D01*
X27289500Y-5782569D01*
X27289500Y-5782571D01*
X27289499Y-5782571D01*
X27314497Y-5908238D01*
X27314499Y-5908244D01*
X27363533Y-6026624D01*
X27363538Y-6026633D01*
X27434723Y-6133168D01*
X27434726Y-6133172D01*
X27525327Y-6223773D01*
X27525331Y-6223776D01*
X27631866Y-6294961D01*
X27631875Y-6294966D01*
X27657792Y-6305701D01*
X27750256Y-6344001D01*
X27750260Y-6344001D01*
X27750261Y-6344002D01*
X27875928Y-6369000D01*
X27875931Y-6369000D01*
X28004071Y-6369000D01*
X28097072Y-6350500D01*
X28129744Y-6344001D01*
X28248127Y-6294965D01*
X28354669Y-6223776D01*
X28445276Y-6133169D01*
X28516465Y-6026627D01*
X28565501Y-5908244D01*
X28574573Y-5862638D01*
X28590500Y-5782571D01*
X28590500Y-5654428D01*
X28574549Y-5574242D01*
X28580776Y-5504651D01*
X28623638Y-5449473D01*
X28661574Y-5430973D01*
X28662158Y-5430802D01*
X28668389Y-5428993D01*
X28803332Y-5349188D01*
X28914188Y-5238332D01*
X28993993Y-5103389D01*
X29037732Y-4952839D01*
X29040500Y-4917668D01*
X29040500Y-3232332D01*
X29040499Y-3232324D01*
X29379500Y-3232324D01*
X29379500Y-4917675D01*
X29382267Y-4952837D01*
X29382268Y-4952843D01*
X29426005Y-5103384D01*
X29426006Y-5103387D01*
X29505810Y-5238329D01*
X29505816Y-5238337D01*
X29616662Y-5349183D01*
X29616666Y-5349186D01*
X29616668Y-5349188D01*
X29751611Y-5428993D01*
X29764574Y-5432759D01*
X29856539Y-5459478D01*
X29915425Y-5497084D01*
X29944631Y-5560556D01*
X29943562Y-5602743D01*
X29940800Y-5616629D01*
X29940800Y-5616631D01*
X29940800Y-5744769D01*
X29940800Y-5744771D01*
X29940799Y-5744771D01*
X29965797Y-5870438D01*
X29965799Y-5870444D01*
X30014833Y-5988824D01*
X30014838Y-5988833D01*
X30086023Y-6095368D01*
X30086026Y-6095372D01*
X30176627Y-6185973D01*
X30176631Y-6185976D01*
X30283166Y-6257161D01*
X30283175Y-6257166D01*
X30305374Y-6266361D01*
X30401556Y-6306201D01*
X30401560Y-6306201D01*
X30401561Y-6306202D01*
X30527228Y-6331200D01*
X30527231Y-6331200D01*
X30655371Y-6331200D01*
X30767978Y-6308800D01*
X30781044Y-6306201D01*
X30899427Y-6257165D01*
X31005969Y-6185976D01*
X31096576Y-6095369D01*
X31167765Y-5988827D01*
X31216801Y-5870444D01*
X31224982Y-5829315D01*
X31241800Y-5744771D01*
X31241800Y-5616629D01*
X31224990Y-5532126D01*
X31222032Y-5517253D01*
X31228259Y-5447663D01*
X31271121Y-5392485D01*
X31280528Y-5386330D01*
X31343332Y-5349188D01*
X31454188Y-5238332D01*
X31533993Y-5103389D01*
X31577732Y-4952839D01*
X31580500Y-4917668D01*
X31580500Y-3232332D01*
X31580499Y-3232324D01*
X31919500Y-3232324D01*
X31919500Y-4917675D01*
X31922267Y-4952837D01*
X31922268Y-4952843D01*
X31966005Y-5103384D01*
X31966006Y-5103387D01*
X32045810Y-5238329D01*
X32045816Y-5238337D01*
X32156662Y-5349183D01*
X32156666Y-5349186D01*
X32156668Y-5349188D01*
X32291611Y-5428993D01*
X32292572Y-5429272D01*
X32293235Y-5429695D01*
X32298773Y-5432092D01*
X32298386Y-5432984D01*
X32351458Y-5466871D01*
X32380670Y-5530341D01*
X32379602Y-5572541D01*
X32369500Y-5623326D01*
X32369500Y-5623329D01*
X32369500Y-5623331D01*
X32369500Y-5751469D01*
X32369500Y-5751471D01*
X32369499Y-5751471D01*
X32394497Y-5877138D01*
X32394499Y-5877144D01*
X32443533Y-5995524D01*
X32443538Y-5995533D01*
X32514723Y-6102068D01*
X32514726Y-6102072D01*
X32605327Y-6192673D01*
X32605331Y-6192676D01*
X32711866Y-6263861D01*
X32711875Y-6263866D01*
X32729255Y-6271065D01*
X32830256Y-6312901D01*
X32830260Y-6312901D01*
X32830261Y-6312902D01*
X32955928Y-6337900D01*
X32955931Y-6337900D01*
X33084071Y-6337900D01*
X33187629Y-6317300D01*
X33209744Y-6312901D01*
X33328127Y-6263865D01*
X33434669Y-6192676D01*
X33525276Y-6102069D01*
X33596465Y-5995527D01*
X33645501Y-5877144D01*
X33663975Y-5784271D01*
X33670500Y-5751471D01*
X33670500Y-5623329D01*
X33664094Y-5591129D01*
X33660397Y-5572541D01*
X33666623Y-5502951D01*
X33709486Y-5447773D01*
X33741299Y-5432260D01*
X33741227Y-5432092D01*
X33744938Y-5430485D01*
X33747426Y-5429272D01*
X33748389Y-5428993D01*
X33883332Y-5349188D01*
X33994188Y-5238332D01*
X34073993Y-5103389D01*
X34117732Y-4952839D01*
X34120500Y-4917668D01*
X34120500Y-3232332D01*
X34120499Y-3232324D01*
X34459500Y-3232324D01*
X34459500Y-4917675D01*
X34462267Y-4952837D01*
X34462268Y-4952843D01*
X34506005Y-5103384D01*
X34506006Y-5103387D01*
X34585810Y-5238329D01*
X34585816Y-5238337D01*
X34696662Y-5349183D01*
X34696666Y-5349186D01*
X34696668Y-5349188D01*
X34831611Y-5428993D01*
X34835269Y-5430055D01*
X34837794Y-5431668D01*
X34838773Y-5432092D01*
X34838704Y-5432249D01*
X34894154Y-5467661D01*
X34923361Y-5531134D01*
X34922291Y-5573323D01*
X34909500Y-5637626D01*
X34909500Y-5637629D01*
X34909500Y-5637631D01*
X34909500Y-5765769D01*
X34909500Y-5765771D01*
X34909499Y-5765771D01*
X34934497Y-5891438D01*
X34934499Y-5891444D01*
X34983533Y-6009824D01*
X34983538Y-6009833D01*
X35054723Y-6116368D01*
X35054726Y-6116372D01*
X35145327Y-6206973D01*
X35145331Y-6206976D01*
X35251866Y-6278161D01*
X35251875Y-6278166D01*
X35269004Y-6285261D01*
X35370256Y-6327201D01*
X35370260Y-6327201D01*
X35370261Y-6327202D01*
X35495928Y-6352200D01*
X35495931Y-6352200D01*
X35624071Y-6352200D01*
X35714056Y-6334300D01*
X35749744Y-6327201D01*
X35868127Y-6278165D01*
X35974669Y-6206976D01*
X36065276Y-6116369D01*
X36136465Y-6009827D01*
X36185501Y-5891444D01*
X36206820Y-5784269D01*
X36210500Y-5765771D01*
X36210500Y-5637629D01*
X36199335Y-5581503D01*
X36197708Y-5573323D01*
X36203935Y-5503733D01*
X36246797Y-5448555D01*
X36284734Y-5430055D01*
X36285585Y-5429807D01*
X36288389Y-5428993D01*
X36423332Y-5349188D01*
X36534188Y-5238332D01*
X36613993Y-5103389D01*
X36657732Y-4952839D01*
X36660500Y-4917668D01*
X36660500Y-3232332D01*
X36660499Y-3232324D01*
X36999500Y-3232324D01*
X36999500Y-4917675D01*
X37002267Y-4952837D01*
X37002268Y-4952843D01*
X37046005Y-5103384D01*
X37046006Y-5103387D01*
X37125810Y-5238329D01*
X37125816Y-5238337D01*
X37236662Y-5349183D01*
X37236666Y-5349186D01*
X37236668Y-5349188D01*
X37371611Y-5428993D01*
X37371614Y-5428994D01*
X37378773Y-5432092D01*
X37378229Y-5433347D01*
X37430131Y-5466493D01*
X37459337Y-5529965D01*
X37458267Y-5572155D01*
X37449500Y-5616228D01*
X37449500Y-5616231D01*
X37449500Y-5744369D01*
X37449500Y-5744371D01*
X37449499Y-5744371D01*
X37474497Y-5870038D01*
X37474499Y-5870044D01*
X37523533Y-5988424D01*
X37523538Y-5988433D01*
X37594723Y-6094968D01*
X37594726Y-6094972D01*
X37685327Y-6185573D01*
X37685331Y-6185576D01*
X37791866Y-6256761D01*
X37791875Y-6256766D01*
X37799118Y-6259766D01*
X37910256Y-6305801D01*
X37910260Y-6305801D01*
X37910261Y-6305802D01*
X38035928Y-6330800D01*
X38035931Y-6330800D01*
X38164071Y-6330800D01*
X38274667Y-6308800D01*
X38289744Y-6305801D01*
X38408127Y-6256765D01*
X38514669Y-6185576D01*
X38605276Y-6094969D01*
X38676465Y-5988427D01*
X38725501Y-5870044D01*
X38742563Y-5784269D01*
X38750500Y-5744371D01*
X38750500Y-5616231D01*
X38749028Y-5608831D01*
X38741732Y-5572153D01*
X38747958Y-5502564D01*
X38790820Y-5447386D01*
X38821394Y-5432478D01*
X38821227Y-5432092D01*
X38828381Y-5428995D01*
X38828389Y-5428993D01*
X38963332Y-5349188D01*
X39074188Y-5238332D01*
X39153993Y-5103389D01*
X39197732Y-4952839D01*
X39200500Y-4917668D01*
X39200500Y-3232332D01*
X39200499Y-3232324D01*
X39539500Y-3232324D01*
X39539500Y-4917675D01*
X39542267Y-4952837D01*
X39542268Y-4952843D01*
X39586005Y-5103384D01*
X39586006Y-5103387D01*
X39665810Y-5238329D01*
X39665816Y-5238337D01*
X39776662Y-5349183D01*
X39776666Y-5349186D01*
X39776668Y-5349188D01*
X39911611Y-5428993D01*
X39956867Y-5442141D01*
X40060780Y-5472331D01*
X40119666Y-5509937D01*
X40148872Y-5573409D01*
X40147803Y-5615594D01*
X40143600Y-5636726D01*
X40143600Y-5636731D01*
X40143600Y-5764869D01*
X40143600Y-5764871D01*
X40143599Y-5764871D01*
X40168597Y-5890538D01*
X40168599Y-5890544D01*
X40217633Y-6008924D01*
X40217638Y-6008933D01*
X40288823Y-6115468D01*
X40288826Y-6115472D01*
X40379427Y-6206073D01*
X40379431Y-6206076D01*
X40485966Y-6277261D01*
X40485975Y-6277266D01*
X40501414Y-6283661D01*
X40604356Y-6326301D01*
X40604360Y-6326301D01*
X40604361Y-6326302D01*
X40730028Y-6351300D01*
X40730031Y-6351300D01*
X40858171Y-6351300D01*
X40953183Y-6332400D01*
X40983844Y-6326301D01*
X41102227Y-6277265D01*
X41208769Y-6206076D01*
X41299376Y-6115469D01*
X41370565Y-6008927D01*
X41419601Y-5890544D01*
X41440741Y-5784269D01*
X41444600Y-5764871D01*
X41444600Y-5636728D01*
X41423310Y-5529704D01*
X41419601Y-5511056D01*
X41419597Y-5511048D01*
X41418969Y-5508974D01*
X41418958Y-5507823D01*
X41418413Y-5505081D01*
X41418932Y-5504977D01*
X41418338Y-5439108D01*
X41455581Y-5379991D01*
X41474501Y-5366237D01*
X41503332Y-5349188D01*
X41614188Y-5238332D01*
X41693993Y-5103389D01*
X41737732Y-4952839D01*
X41740500Y-4917668D01*
X41740500Y-3232332D01*
X41740499Y-3232324D01*
X42079500Y-3232324D01*
X42079500Y-4917675D01*
X42082267Y-4952837D01*
X42082268Y-4952843D01*
X42126005Y-5103384D01*
X42126006Y-5103387D01*
X42205810Y-5238329D01*
X42205816Y-5238337D01*
X42316662Y-5349183D01*
X42316666Y-5349186D01*
X42316668Y-5349188D01*
X42451611Y-5428993D01*
X42456300Y-5430355D01*
X42515186Y-5467958D01*
X42544394Y-5531430D01*
X42543325Y-5573623D01*
X42529500Y-5643126D01*
X42529500Y-5643131D01*
X42529500Y-5771269D01*
X42529500Y-5771271D01*
X42529499Y-5771271D01*
X42554497Y-5896938D01*
X42554499Y-5896944D01*
X42603533Y-6015324D01*
X42603538Y-6015333D01*
X42674723Y-6121868D01*
X42674726Y-6121872D01*
X42765327Y-6212473D01*
X42765331Y-6212476D01*
X42871866Y-6283661D01*
X42871875Y-6283666D01*
X42875738Y-6285266D01*
X42990256Y-6332701D01*
X42990260Y-6332701D01*
X42990261Y-6332702D01*
X43115928Y-6357700D01*
X43115931Y-6357700D01*
X43244071Y-6357700D01*
X43336564Y-6339301D01*
X43369744Y-6332701D01*
X43488127Y-6283665D01*
X43594669Y-6212476D01*
X43685276Y-6121869D01*
X43756465Y-6015327D01*
X43805501Y-5896944D01*
X43827914Y-5784269D01*
X43830500Y-5771271D01*
X43830500Y-5643128D01*
X43816674Y-5573624D01*
X43822901Y-5504033D01*
X43865763Y-5448855D01*
X43903700Y-5430354D01*
X43908389Y-5428993D01*
X44043332Y-5349188D01*
X44154188Y-5238332D01*
X44233993Y-5103389D01*
X44277732Y-4952839D01*
X44280500Y-4917668D01*
X44280500Y-3232332D01*
X44280499Y-3232324D01*
X44619500Y-3232324D01*
X44619500Y-4917675D01*
X44622267Y-4952837D01*
X44622268Y-4952843D01*
X44666005Y-5103384D01*
X44666006Y-5103387D01*
X44745810Y-5238329D01*
X44745816Y-5238337D01*
X44856662Y-5349183D01*
X44856666Y-5349186D01*
X44856668Y-5349188D01*
X44991611Y-5428993D01*
X44996123Y-5430304D01*
X44996602Y-5430443D01*
X45055488Y-5468048D01*
X45084696Y-5531520D01*
X45083626Y-5573711D01*
X45069500Y-5644726D01*
X45069500Y-5644729D01*
X45069500Y-5644731D01*
X45069500Y-5772869D01*
X45069500Y-5772871D01*
X45069499Y-5772871D01*
X45094497Y-5898538D01*
X45094499Y-5898544D01*
X45143533Y-6016924D01*
X45143538Y-6016933D01*
X45214723Y-6123468D01*
X45214726Y-6123472D01*
X45305327Y-6214073D01*
X45305331Y-6214076D01*
X45411866Y-6285261D01*
X45411872Y-6285264D01*
X45411873Y-6285265D01*
X45530256Y-6334301D01*
X45530260Y-6334301D01*
X45530261Y-6334302D01*
X45655928Y-6359300D01*
X45655931Y-6359300D01*
X45784071Y-6359300D01*
X45891651Y-6337900D01*
X45909744Y-6334301D01*
X46028127Y-6285265D01*
X46134669Y-6214076D01*
X46225276Y-6123469D01*
X46296465Y-6016927D01*
X46345501Y-5898544D01*
X46368232Y-5784271D01*
X46370500Y-5772871D01*
X46370500Y-5644729D01*
X46356497Y-5574334D01*
X46356373Y-5573711D01*
X46362600Y-5504121D01*
X46405462Y-5448943D01*
X46443395Y-5430443D01*
X46448389Y-5428993D01*
X46583332Y-5349188D01*
X46694188Y-5238332D01*
X46773993Y-5103389D01*
X46817732Y-4952839D01*
X46820500Y-4917668D01*
X46820500Y-3232332D01*
X46820499Y-3232324D01*
X47159500Y-3232324D01*
X47159500Y-4917675D01*
X47162267Y-4952837D01*
X47162268Y-4952843D01*
X47206005Y-5103384D01*
X47206006Y-5103387D01*
X47285810Y-5238329D01*
X47285816Y-5238337D01*
X47396662Y-5349183D01*
X47396666Y-5349186D01*
X47396668Y-5349188D01*
X47531611Y-5428993D01*
X47538689Y-5431049D01*
X47597575Y-5468654D01*
X47626783Y-5532126D01*
X47625713Y-5574317D01*
X47609500Y-5655826D01*
X47609500Y-5655831D01*
X47609500Y-5783969D01*
X47609500Y-5783971D01*
X47609499Y-5783971D01*
X47634497Y-5909638D01*
X47634499Y-5909644D01*
X47683533Y-6028024D01*
X47683538Y-6028033D01*
X47754723Y-6134568D01*
X47754726Y-6134572D01*
X47845327Y-6225173D01*
X47845331Y-6225176D01*
X47951866Y-6296361D01*
X47951875Y-6296366D01*
X47978692Y-6307474D01*
X48070256Y-6345401D01*
X48070260Y-6345401D01*
X48070261Y-6345402D01*
X48195928Y-6370400D01*
X48195931Y-6370400D01*
X48324071Y-6370400D01*
X48415564Y-6352200D01*
X48449744Y-6345401D01*
X48568127Y-6296365D01*
X48674669Y-6225176D01*
X48765276Y-6134569D01*
X48836465Y-6028027D01*
X48885501Y-5909644D01*
X48910440Y-5784271D01*
X48910500Y-5783971D01*
X48910500Y-5655828D01*
X48894286Y-5574318D01*
X48900513Y-5504726D01*
X48943376Y-5449549D01*
X48981306Y-5431050D01*
X48988389Y-5428993D01*
X49123332Y-5349188D01*
X49234188Y-5238332D01*
X49313993Y-5103389D01*
X49357732Y-4952839D01*
X49360500Y-4917668D01*
X49360500Y-3232332D01*
X49360499Y-3232324D01*
X49699500Y-3232324D01*
X49699500Y-4917675D01*
X49702267Y-4952837D01*
X49702268Y-4952843D01*
X49746005Y-5103384D01*
X49746006Y-5103387D01*
X49825810Y-5238329D01*
X49825816Y-5238337D01*
X49936662Y-5349183D01*
X49936671Y-5349190D01*
X49959636Y-5362771D01*
X50007321Y-5413839D01*
X50019826Y-5482581D01*
X50017497Y-5494084D01*
X50017987Y-5494182D01*
X49991800Y-5625828D01*
X49991800Y-5625831D01*
X49991800Y-5753969D01*
X49991800Y-5753971D01*
X49991799Y-5753971D01*
X50016797Y-5879638D01*
X50016799Y-5879644D01*
X50065833Y-5998024D01*
X50065838Y-5998033D01*
X50137023Y-6104568D01*
X50137026Y-6104572D01*
X50227627Y-6195173D01*
X50227631Y-6195176D01*
X50334166Y-6266361D01*
X50334172Y-6266364D01*
X50334173Y-6266365D01*
X50452556Y-6315401D01*
X50452560Y-6315401D01*
X50452561Y-6315402D01*
X50578228Y-6340400D01*
X50578231Y-6340400D01*
X50706371Y-6340400D01*
X50822497Y-6317300D01*
X50832044Y-6315401D01*
X50950427Y-6266365D01*
X51056969Y-6195176D01*
X51147576Y-6104569D01*
X51218765Y-5998027D01*
X51267801Y-5879644D01*
X51275982Y-5838515D01*
X51292800Y-5753971D01*
X51292800Y-5625831D01*
X51292043Y-5622026D01*
X51290843Y-5615993D01*
X51297069Y-5546402D01*
X51339931Y-5491224D01*
X51377860Y-5472725D01*
X51528389Y-5428993D01*
X51663332Y-5349188D01*
X51774188Y-5238332D01*
X51853993Y-5103389D01*
X51897732Y-4952839D01*
X51900500Y-4917668D01*
X51900500Y-3232332D01*
X51900499Y-3232324D01*
X52239500Y-3232324D01*
X52239500Y-4917675D01*
X52242267Y-4952837D01*
X52242268Y-4952843D01*
X52286005Y-5103384D01*
X52286006Y-5103387D01*
X52365810Y-5238329D01*
X52365816Y-5238337D01*
X52476662Y-5349183D01*
X52476666Y-5349186D01*
X52476668Y-5349188D01*
X52611611Y-5428993D01*
X52611614Y-5428993D01*
X52618774Y-5432093D01*
X52618124Y-5433594D01*
X52669228Y-5466232D01*
X52698434Y-5529704D01*
X52697364Y-5571892D01*
X52689500Y-5611426D01*
X52689500Y-5611429D01*
X52689500Y-5611431D01*
X52689500Y-5739569D01*
X52689500Y-5739571D01*
X52689499Y-5739571D01*
X52714497Y-5865238D01*
X52714499Y-5865244D01*
X52763533Y-5983624D01*
X52763538Y-5983633D01*
X52834723Y-6090168D01*
X52834726Y-6090172D01*
X52925327Y-6180773D01*
X52925331Y-6180776D01*
X53031866Y-6251961D01*
X53031875Y-6251966D01*
X53044417Y-6257161D01*
X53150256Y-6301001D01*
X53150260Y-6301001D01*
X53150261Y-6301002D01*
X53275928Y-6326000D01*
X53275931Y-6326000D01*
X53404071Y-6326000D01*
X53490537Y-6308800D01*
X53529744Y-6301001D01*
X53648127Y-6251965D01*
X53754669Y-6180776D01*
X53845276Y-6090169D01*
X53916465Y-5983627D01*
X53965501Y-5865244D01*
X53981608Y-5784271D01*
X53990500Y-5739571D01*
X53990500Y-5611429D01*
X53983121Y-5574334D01*
X53982635Y-5571892D01*
X53988862Y-5502301D01*
X54031724Y-5447123D01*
X54061457Y-5432625D01*
X54061227Y-5432092D01*
X54068381Y-5428995D01*
X54068389Y-5428993D01*
X54203332Y-5349188D01*
X54314188Y-5238332D01*
X54393993Y-5103389D01*
X54437732Y-4952839D01*
X54440500Y-4917668D01*
X54440500Y-3232332D01*
X54440499Y-3232324D01*
X54779500Y-3232324D01*
X54779500Y-4917675D01*
X54782267Y-4952837D01*
X54782268Y-4952843D01*
X54826005Y-5103384D01*
X54826006Y-5103387D01*
X54905810Y-5238329D01*
X54905816Y-5238337D01*
X55016662Y-5349183D01*
X55016666Y-5349186D01*
X55016668Y-5349188D01*
X55151611Y-5428993D01*
X55183429Y-5438237D01*
X55242314Y-5475842D01*
X55271521Y-5539315D01*
X55270452Y-5581503D01*
X55261635Y-5625831D01*
X55260700Y-5630531D01*
X55260700Y-5758669D01*
X55260700Y-5758671D01*
X55260699Y-5758671D01*
X55285697Y-5884338D01*
X55285699Y-5884344D01*
X55334733Y-6002724D01*
X55334738Y-6002733D01*
X55405923Y-6109268D01*
X55405926Y-6109272D01*
X55496527Y-6199873D01*
X55496531Y-6199876D01*
X55603066Y-6271061D01*
X55603075Y-6271066D01*
X55616112Y-6276466D01*
X55721456Y-6320101D01*
X55721460Y-6320101D01*
X55721461Y-6320102D01*
X55847128Y-6345100D01*
X55847131Y-6345100D01*
X55975271Y-6345100D01*
X56069780Y-6326300D01*
X56100944Y-6320101D01*
X56219327Y-6271065D01*
X56325869Y-6199876D01*
X56416476Y-6109269D01*
X56487665Y-6002727D01*
X56536701Y-5884344D01*
X56544882Y-5843215D01*
X56561700Y-5758671D01*
X56561700Y-5630529D01*
X56550380Y-5573623D01*
X56547889Y-5561100D01*
X56554116Y-5491510D01*
X56596978Y-5436332D01*
X56606386Y-5430177D01*
X56608387Y-5428993D01*
X56608389Y-5428993D01*
X56710043Y-5368875D01*
X56743326Y-5349192D01*
X56743327Y-5349190D01*
X56743332Y-5349188D01*
X56854188Y-5238332D01*
X56933993Y-5103389D01*
X56977732Y-4952839D01*
X56980500Y-4917668D01*
X56980500Y-3232332D01*
X56980499Y-3232324D01*
X57319500Y-3232324D01*
X57319500Y-4917675D01*
X57322267Y-4952837D01*
X57322268Y-4952843D01*
X57366005Y-5103384D01*
X57366006Y-5103387D01*
X57445810Y-5238329D01*
X57445816Y-5238337D01*
X57556662Y-5349183D01*
X57556666Y-5349186D01*
X57556668Y-5349188D01*
X57691611Y-5428993D01*
X57694949Y-5429962D01*
X57697253Y-5431434D01*
X57698773Y-5432092D01*
X57698666Y-5432337D01*
X57753834Y-5467568D01*
X57783041Y-5531040D01*
X57781971Y-5573230D01*
X57769500Y-5635926D01*
X57769500Y-5635931D01*
X57769500Y-5764069D01*
X57769500Y-5764071D01*
X57769499Y-5764071D01*
X57794497Y-5889738D01*
X57794499Y-5889744D01*
X57843533Y-6008124D01*
X57843538Y-6008133D01*
X57914723Y-6114668D01*
X57914726Y-6114672D01*
X58005327Y-6205273D01*
X58005331Y-6205276D01*
X58111866Y-6276461D01*
X58111875Y-6276466D01*
X58129255Y-6283665D01*
X58230256Y-6325501D01*
X58230260Y-6325501D01*
X58230261Y-6325502D01*
X58355928Y-6350500D01*
X58355931Y-6350500D01*
X58484071Y-6350500D01*
X58583105Y-6330800D01*
X58609744Y-6325501D01*
X58728127Y-6276465D01*
X58834669Y-6205276D01*
X58925276Y-6114669D01*
X58996465Y-6008127D01*
X59045501Y-5889744D01*
X59053682Y-5848615D01*
X59070500Y-5764071D01*
X59070500Y-5635928D01*
X59058028Y-5573231D01*
X59064255Y-5503640D01*
X59107117Y-5448462D01*
X59145049Y-5429963D01*
X59148389Y-5428993D01*
X59283332Y-5349188D01*
X59394188Y-5238332D01*
X59473993Y-5103389D01*
X59517732Y-4952839D01*
X59520500Y-4917668D01*
X59520500Y-3232332D01*
X59520499Y-3232324D01*
X59859500Y-3232324D01*
X59859500Y-4917675D01*
X59862267Y-4952837D01*
X59862268Y-4952843D01*
X59906005Y-5103384D01*
X59906006Y-5103387D01*
X59985810Y-5238329D01*
X59985816Y-5238337D01*
X60096662Y-5349183D01*
X60096666Y-5349186D01*
X60096668Y-5349188D01*
X60096675Y-5349192D01*
X60128878Y-5368237D01*
X60176561Y-5419306D01*
X60189065Y-5488048D01*
X60183230Y-5511018D01*
X60184266Y-5511333D01*
X60182497Y-5517162D01*
X60157500Y-5642828D01*
X60157500Y-5642831D01*
X60157500Y-5770969D01*
X60157500Y-5770971D01*
X60157499Y-5770971D01*
X60182497Y-5896638D01*
X60182499Y-5896644D01*
X60231533Y-6015024D01*
X60231538Y-6015033D01*
X60302723Y-6121568D01*
X60302726Y-6121572D01*
X60393327Y-6212173D01*
X60393331Y-6212176D01*
X60499866Y-6283361D01*
X60499873Y-6283365D01*
X60618256Y-6332401D01*
X60618260Y-6332401D01*
X60618261Y-6332402D01*
X60743928Y-6357400D01*
X60743931Y-6357400D01*
X60872071Y-6357400D01*
X60971105Y-6337700D01*
X60997744Y-6332401D01*
X61116127Y-6283365D01*
X61222669Y-6212176D01*
X61313276Y-6121569D01*
X61384465Y-6015027D01*
X61433501Y-5896644D01*
X61455854Y-5784271D01*
X61458500Y-5770971D01*
X61458500Y-5642828D01*
X61453035Y-5615355D01*
X61459262Y-5545763D01*
X61502125Y-5490586D01*
X61540051Y-5472089D01*
X61688389Y-5428993D01*
X61823332Y-5349188D01*
X61934188Y-5238332D01*
X62013993Y-5103389D01*
X62057732Y-4952839D01*
X62060500Y-4917668D01*
X62060500Y-3232332D01*
X62060499Y-3232324D01*
X62399500Y-3232324D01*
X62399500Y-4917675D01*
X62402267Y-4952837D01*
X62402268Y-4952843D01*
X62446005Y-5103384D01*
X62446006Y-5103387D01*
X62525810Y-5238329D01*
X62525816Y-5238337D01*
X62636662Y-5349183D01*
X62636666Y-5349186D01*
X62636668Y-5349188D01*
X62771611Y-5428993D01*
X62772534Y-5429261D01*
X62773171Y-5429667D01*
X62778773Y-5432092D01*
X62778382Y-5432995D01*
X62831420Y-5466861D01*
X62860632Y-5530331D01*
X62859565Y-5572529D01*
X62850793Y-5616629D01*
X62849500Y-5623131D01*
X62849500Y-5751269D01*
X62849500Y-5751271D01*
X62849499Y-5751271D01*
X62874497Y-5876938D01*
X62874499Y-5876944D01*
X62923533Y-5995324D01*
X62923538Y-5995333D01*
X62994723Y-6101868D01*
X62994726Y-6101872D01*
X63085327Y-6192473D01*
X63085331Y-6192476D01*
X63191866Y-6263661D01*
X63191875Y-6263666D01*
X63218692Y-6274774D01*
X63310256Y-6312701D01*
X63310260Y-6312701D01*
X63310261Y-6312702D01*
X63435928Y-6337700D01*
X63435931Y-6337700D01*
X63564071Y-6337700D01*
X63652548Y-6320100D01*
X63689744Y-6312701D01*
X63808127Y-6263665D01*
X63914669Y-6192476D01*
X64005276Y-6101869D01*
X64076465Y-5995327D01*
X64125501Y-5876944D01*
X64133682Y-5835815D01*
X64150500Y-5751271D01*
X64150500Y-5623128D01*
X64140435Y-5572531D01*
X64146662Y-5502940D01*
X64189524Y-5447762D01*
X64221302Y-5432266D01*
X64221227Y-5432092D01*
X64225075Y-5430426D01*
X64227464Y-5429261D01*
X64228389Y-5428993D01*
X64363332Y-5349188D01*
X64474188Y-5238332D01*
X64553993Y-5103389D01*
X64597732Y-4952839D01*
X64600500Y-4917668D01*
X64600500Y-3232332D01*
X64600499Y-3232324D01*
X64939500Y-3232324D01*
X64939500Y-4917675D01*
X64942267Y-4952837D01*
X64942268Y-4952843D01*
X64986005Y-5103384D01*
X64986006Y-5103387D01*
X65065810Y-5238329D01*
X65065816Y-5238337D01*
X65176662Y-5349183D01*
X65176666Y-5349186D01*
X65176668Y-5349188D01*
X65311611Y-5428993D01*
X65324371Y-5432700D01*
X65376715Y-5447908D01*
X65435601Y-5485514D01*
X65464807Y-5548986D01*
X65463737Y-5591175D01*
X65457600Y-5622026D01*
X65457600Y-5622029D01*
X65457600Y-5622031D01*
X65457600Y-5750169D01*
X65457600Y-5750171D01*
X65457599Y-5750171D01*
X65482597Y-5875838D01*
X65482599Y-5875844D01*
X65531633Y-5994224D01*
X65531638Y-5994233D01*
X65602823Y-6100768D01*
X65602826Y-6100772D01*
X65693427Y-6191373D01*
X65693431Y-6191376D01*
X65799966Y-6262561D01*
X65799975Y-6262566D01*
X65803111Y-6263865D01*
X65918356Y-6311601D01*
X65918360Y-6311601D01*
X65918361Y-6311602D01*
X66044028Y-6336600D01*
X66044031Y-6336600D01*
X66172171Y-6336600D01*
X66269194Y-6317300D01*
X66297844Y-6311601D01*
X66416227Y-6262565D01*
X66522769Y-6191376D01*
X66613376Y-6100769D01*
X66684565Y-5994227D01*
X66733601Y-5875844D01*
X66754085Y-5772869D01*
X66758600Y-5750171D01*
X66758600Y-5622029D01*
X66746480Y-5561102D01*
X66742418Y-5540681D01*
X66748645Y-5471090D01*
X66791507Y-5415912D01*
X66800915Y-5409757D01*
X66819230Y-5398926D01*
X66870043Y-5368875D01*
X66903326Y-5349192D01*
X66903327Y-5349190D01*
X66903332Y-5349188D01*
X67014188Y-5238332D01*
X67093993Y-5103389D01*
X67137732Y-4952839D01*
X67140500Y-4917668D01*
X67140500Y-3232332D01*
X67140499Y-3232324D01*
X67479500Y-3232324D01*
X67479500Y-4917675D01*
X67482267Y-4952837D01*
X67482268Y-4952843D01*
X67526005Y-5103384D01*
X67526006Y-5103387D01*
X67605810Y-5238329D01*
X67605816Y-5238337D01*
X67716662Y-5349183D01*
X67716666Y-5349186D01*
X67716668Y-5349188D01*
X67851611Y-5428993D01*
X67851614Y-5428993D01*
X67858774Y-5432093D01*
X67858227Y-5433355D01*
X67910103Y-5466478D01*
X67939316Y-5529947D01*
X67938248Y-5572148D01*
X67929500Y-5616126D01*
X67929500Y-5616130D01*
X67929500Y-5616131D01*
X67929500Y-5744269D01*
X67929500Y-5744271D01*
X67929499Y-5744271D01*
X67954497Y-5869938D01*
X67954499Y-5869944D01*
X68003533Y-5988324D01*
X68003538Y-5988333D01*
X68074723Y-6094868D01*
X68074726Y-6094872D01*
X68165327Y-6185473D01*
X68165331Y-6185476D01*
X68271866Y-6256661D01*
X68271875Y-6256666D01*
X68289255Y-6263865D01*
X68390256Y-6305701D01*
X68390260Y-6305701D01*
X68390261Y-6305702D01*
X68515928Y-6330700D01*
X68515931Y-6330700D01*
X68644071Y-6330700D01*
X68733553Y-6312900D01*
X68769744Y-6305701D01*
X68888127Y-6256665D01*
X68994669Y-6185476D01*
X69085276Y-6094869D01*
X69156465Y-5988327D01*
X69205501Y-5869944D01*
X69222881Y-5782571D01*
X69230500Y-5744271D01*
X69230500Y-5616130D01*
X69222318Y-5574999D01*
X69221751Y-5572148D01*
X69227977Y-5502559D01*
X69270839Y-5447381D01*
X69301394Y-5432482D01*
X69301226Y-5432093D01*
X69308382Y-5428994D01*
X69308389Y-5428993D01*
X69443332Y-5349188D01*
X69554188Y-5238332D01*
X69633993Y-5103389D01*
X69677732Y-4952839D01*
X69680500Y-4917668D01*
X69680500Y-3232332D01*
X69680499Y-3232324D01*
X70019500Y-3232324D01*
X70019500Y-4917675D01*
X70022267Y-4952837D01*
X70022268Y-4952843D01*
X70066005Y-5103384D01*
X70066006Y-5103387D01*
X70145810Y-5238329D01*
X70145816Y-5238337D01*
X70256662Y-5349183D01*
X70256665Y-5349185D01*
X70256668Y-5349188D01*
X70322007Y-5387829D01*
X70369689Y-5438896D01*
X70382193Y-5507638D01*
X70380502Y-5518752D01*
X70359700Y-5623328D01*
X70359700Y-5623329D01*
X70359700Y-5623331D01*
X70359700Y-5751469D01*
X70359700Y-5751471D01*
X70359699Y-5751471D01*
X70384697Y-5877138D01*
X70384699Y-5877144D01*
X70433733Y-5995524D01*
X70433738Y-5995533D01*
X70504923Y-6102068D01*
X70504926Y-6102072D01*
X70595527Y-6192673D01*
X70595531Y-6192676D01*
X70702066Y-6263861D01*
X70702075Y-6263866D01*
X70719455Y-6271065D01*
X70820456Y-6312901D01*
X70820460Y-6312901D01*
X70820461Y-6312902D01*
X70946128Y-6337900D01*
X70946131Y-6337900D01*
X71074271Y-6337900D01*
X71177829Y-6317300D01*
X71199944Y-6312901D01*
X71318327Y-6263865D01*
X71424869Y-6192676D01*
X71515476Y-6102069D01*
X71586665Y-5995527D01*
X71635701Y-5877144D01*
X71654175Y-5784271D01*
X71660700Y-5751471D01*
X71660700Y-5623331D01*
X71659268Y-5616131D01*
X71656596Y-5602700D01*
X71662822Y-5533111D01*
X71705684Y-5477932D01*
X71743615Y-5459432D01*
X71848389Y-5428993D01*
X71983332Y-5349188D01*
X72094188Y-5238332D01*
X72173993Y-5103389D01*
X72217732Y-4952839D01*
X72220500Y-4917668D01*
X72220500Y-3232332D01*
X72220499Y-3232324D01*
X72559500Y-3232324D01*
X72559500Y-4917675D01*
X72562267Y-4952837D01*
X72562268Y-4952843D01*
X72606005Y-5103384D01*
X72606006Y-5103387D01*
X72685810Y-5238329D01*
X72685816Y-5238337D01*
X72796662Y-5349183D01*
X72796666Y-5349186D01*
X72796668Y-5349188D01*
X72931611Y-5428993D01*
X72936148Y-5430311D01*
X72995033Y-5467911D01*
X73024244Y-5531382D01*
X73023175Y-5573579D01*
X73009500Y-5642326D01*
X73009500Y-5642329D01*
X73009500Y-5642331D01*
X73009500Y-5770469D01*
X73009500Y-5770471D01*
X73009499Y-5770471D01*
X73034497Y-5896138D01*
X73034499Y-5896144D01*
X73083533Y-6014524D01*
X73083538Y-6014533D01*
X73154723Y-6121068D01*
X73154726Y-6121072D01*
X73245327Y-6211673D01*
X73245331Y-6211676D01*
X73351866Y-6282861D01*
X73351875Y-6282866D01*
X73378692Y-6293974D01*
X73470256Y-6331901D01*
X73470260Y-6331901D01*
X73470261Y-6331902D01*
X73595928Y-6356900D01*
X73595931Y-6356900D01*
X73724071Y-6356900D01*
X73826121Y-6336600D01*
X73849744Y-6331901D01*
X73968127Y-6282865D01*
X74074669Y-6211676D01*
X74165276Y-6121069D01*
X74236465Y-6014527D01*
X74285501Y-5896144D01*
X74307755Y-5784269D01*
X74310500Y-5770471D01*
X74310500Y-5642329D01*
X74298400Y-5581503D01*
X74296824Y-5573579D01*
X74303051Y-5503989D01*
X74345913Y-5448811D01*
X74383848Y-5430312D01*
X74388389Y-5428993D01*
X74523332Y-5349188D01*
X74634188Y-5238332D01*
X74713993Y-5103389D01*
X74757732Y-4952839D01*
X74760500Y-4917668D01*
X74760500Y-3232332D01*
X74757732Y-3197161D01*
X74713993Y-3046611D01*
X74634188Y-2911668D01*
X74634186Y-2911666D01*
X74634183Y-2911662D01*
X74523337Y-2800816D01*
X74523329Y-2800810D01*
X74388387Y-2721006D01*
X74388384Y-2721005D01*
X74237843Y-2677268D01*
X74237837Y-2677267D01*
X74202675Y-2674500D01*
X74202668Y-2674500D01*
X73117332Y-2674500D01*
X73117324Y-2674500D01*
X73082162Y-2677267D01*
X73082156Y-2677268D01*
X72931615Y-2721005D01*
X72931612Y-2721006D01*
X72796670Y-2800810D01*
X72796662Y-2800816D01*
X72685816Y-2911662D01*
X72685810Y-2911670D01*
X72606006Y-3046612D01*
X72606005Y-3046615D01*
X72562268Y-3197156D01*
X72562267Y-3197162D01*
X72559500Y-3232324D01*
X72220499Y-3232324D01*
X72217732Y-3197161D01*
X72173993Y-3046611D01*
X72094188Y-2911668D01*
X72094186Y-2911666D01*
X72094183Y-2911662D01*
X71983337Y-2800816D01*
X71983329Y-2800810D01*
X71848387Y-2721006D01*
X71848384Y-2721005D01*
X71697843Y-2677268D01*
X71697837Y-2677267D01*
X71662675Y-2674500D01*
X71662668Y-2674500D01*
X70577332Y-2674500D01*
X70577324Y-2674500D01*
X70542162Y-2677267D01*
X70542156Y-2677268D01*
X70391615Y-2721005D01*
X70391612Y-2721006D01*
X70256670Y-2800810D01*
X70256662Y-2800816D01*
X70145816Y-2911662D01*
X70145810Y-2911670D01*
X70066006Y-3046612D01*
X70066005Y-3046615D01*
X70022268Y-3197156D01*
X70022267Y-3197162D01*
X70019500Y-3232324D01*
X69680499Y-3232324D01*
X69677732Y-3197161D01*
X69633993Y-3046611D01*
X69554188Y-2911668D01*
X69554186Y-2911666D01*
X69554183Y-2911662D01*
X69443337Y-2800816D01*
X69443329Y-2800810D01*
X69308387Y-2721006D01*
X69308384Y-2721005D01*
X69157843Y-2677268D01*
X69157837Y-2677267D01*
X69122675Y-2674500D01*
X69122668Y-2674500D01*
X68037332Y-2674500D01*
X68037324Y-2674500D01*
X68002162Y-2677267D01*
X68002156Y-2677268D01*
X67851615Y-2721005D01*
X67851612Y-2721006D01*
X67716670Y-2800810D01*
X67716662Y-2800816D01*
X67605816Y-2911662D01*
X67605810Y-2911670D01*
X67526006Y-3046612D01*
X67526005Y-3046615D01*
X67482268Y-3197156D01*
X67482267Y-3197162D01*
X67479500Y-3232324D01*
X67140499Y-3232324D01*
X67137732Y-3197161D01*
X67093993Y-3046611D01*
X67014188Y-2911668D01*
X67014186Y-2911666D01*
X67014183Y-2911662D01*
X66903337Y-2800816D01*
X66903329Y-2800810D01*
X66768387Y-2721006D01*
X66768384Y-2721005D01*
X66617843Y-2677268D01*
X66617837Y-2677267D01*
X66582675Y-2674500D01*
X66582668Y-2674500D01*
X65497332Y-2674500D01*
X65497324Y-2674500D01*
X65462162Y-2677267D01*
X65462156Y-2677268D01*
X65311615Y-2721005D01*
X65311612Y-2721006D01*
X65176670Y-2800810D01*
X65176662Y-2800816D01*
X65065816Y-2911662D01*
X65065810Y-2911670D01*
X64986006Y-3046612D01*
X64986005Y-3046615D01*
X64942268Y-3197156D01*
X64942267Y-3197162D01*
X64939500Y-3232324D01*
X64600499Y-3232324D01*
X64597732Y-3197161D01*
X64553993Y-3046611D01*
X64474188Y-2911668D01*
X64474186Y-2911666D01*
X64474183Y-2911662D01*
X64363337Y-2800816D01*
X64363329Y-2800810D01*
X64228387Y-2721006D01*
X64228384Y-2721005D01*
X64077843Y-2677268D01*
X64077837Y-2677267D01*
X64042675Y-2674500D01*
X64042668Y-2674500D01*
X62957332Y-2674500D01*
X62957324Y-2674500D01*
X62922162Y-2677267D01*
X62922156Y-2677268D01*
X62771615Y-2721005D01*
X62771612Y-2721006D01*
X62636670Y-2800810D01*
X62636662Y-2800816D01*
X62525816Y-2911662D01*
X62525810Y-2911670D01*
X62446006Y-3046612D01*
X62446005Y-3046615D01*
X62402268Y-3197156D01*
X62402267Y-3197162D01*
X62399500Y-3232324D01*
X62060499Y-3232324D01*
X62057732Y-3197161D01*
X62013993Y-3046611D01*
X61934188Y-2911668D01*
X61934186Y-2911666D01*
X61934183Y-2911662D01*
X61823337Y-2800816D01*
X61823329Y-2800810D01*
X61688387Y-2721006D01*
X61688384Y-2721005D01*
X61537843Y-2677268D01*
X61537837Y-2677267D01*
X61502675Y-2674500D01*
X61502668Y-2674500D01*
X60417332Y-2674500D01*
X60417324Y-2674500D01*
X60382162Y-2677267D01*
X60382156Y-2677268D01*
X60231615Y-2721005D01*
X60231612Y-2721006D01*
X60096670Y-2800810D01*
X60096662Y-2800816D01*
X59985816Y-2911662D01*
X59985810Y-2911670D01*
X59906006Y-3046612D01*
X59906005Y-3046615D01*
X59862268Y-3197156D01*
X59862267Y-3197162D01*
X59859500Y-3232324D01*
X59520499Y-3232324D01*
X59517732Y-3197161D01*
X59473993Y-3046611D01*
X59394188Y-2911668D01*
X59394186Y-2911666D01*
X59394183Y-2911662D01*
X59283337Y-2800816D01*
X59283329Y-2800810D01*
X59148387Y-2721006D01*
X59148384Y-2721005D01*
X58997843Y-2677268D01*
X58997837Y-2677267D01*
X58962675Y-2674500D01*
X58962668Y-2674500D01*
X57877332Y-2674500D01*
X57877324Y-2674500D01*
X57842162Y-2677267D01*
X57842156Y-2677268D01*
X57691615Y-2721005D01*
X57691612Y-2721006D01*
X57556670Y-2800810D01*
X57556662Y-2800816D01*
X57445816Y-2911662D01*
X57445810Y-2911670D01*
X57366006Y-3046612D01*
X57366005Y-3046615D01*
X57322268Y-3197156D01*
X57322267Y-3197162D01*
X57319500Y-3232324D01*
X56980499Y-3232324D01*
X56977732Y-3197161D01*
X56933993Y-3046611D01*
X56854188Y-2911668D01*
X56854186Y-2911666D01*
X56854183Y-2911662D01*
X56743337Y-2800816D01*
X56743329Y-2800810D01*
X56608387Y-2721006D01*
X56608384Y-2721005D01*
X56457843Y-2677268D01*
X56457837Y-2677267D01*
X56422675Y-2674500D01*
X56422668Y-2674500D01*
X55337332Y-2674500D01*
X55337324Y-2674500D01*
X55302162Y-2677267D01*
X55302156Y-2677268D01*
X55151615Y-2721005D01*
X55151612Y-2721006D01*
X55016670Y-2800810D01*
X55016662Y-2800816D01*
X54905816Y-2911662D01*
X54905810Y-2911670D01*
X54826006Y-3046612D01*
X54826005Y-3046615D01*
X54782268Y-3197156D01*
X54782267Y-3197162D01*
X54779500Y-3232324D01*
X54440499Y-3232324D01*
X54437732Y-3197161D01*
X54393993Y-3046611D01*
X54314188Y-2911668D01*
X54314186Y-2911666D01*
X54314183Y-2911662D01*
X54203337Y-2800816D01*
X54203329Y-2800810D01*
X54068387Y-2721006D01*
X54068384Y-2721005D01*
X53917843Y-2677268D01*
X53917837Y-2677267D01*
X53882675Y-2674500D01*
X53882668Y-2674500D01*
X52797332Y-2674500D01*
X52797324Y-2674500D01*
X52762162Y-2677267D01*
X52762156Y-2677268D01*
X52611615Y-2721005D01*
X52611612Y-2721006D01*
X52476670Y-2800810D01*
X52476662Y-2800816D01*
X52365816Y-2911662D01*
X52365810Y-2911670D01*
X52286006Y-3046612D01*
X52286005Y-3046615D01*
X52242268Y-3197156D01*
X52242267Y-3197162D01*
X52239500Y-3232324D01*
X51900499Y-3232324D01*
X51897732Y-3197161D01*
X51853993Y-3046611D01*
X51774188Y-2911668D01*
X51774186Y-2911666D01*
X51774183Y-2911662D01*
X51663337Y-2800816D01*
X51663329Y-2800810D01*
X51528387Y-2721006D01*
X51528384Y-2721005D01*
X51377843Y-2677268D01*
X51377837Y-2677267D01*
X51342675Y-2674500D01*
X51342668Y-2674500D01*
X50257332Y-2674500D01*
X50257324Y-2674500D01*
X50222162Y-2677267D01*
X50222156Y-2677268D01*
X50071615Y-2721005D01*
X50071612Y-2721006D01*
X49936670Y-2800810D01*
X49936662Y-2800816D01*
X49825816Y-2911662D01*
X49825810Y-2911670D01*
X49746006Y-3046612D01*
X49746005Y-3046615D01*
X49702268Y-3197156D01*
X49702267Y-3197162D01*
X49699500Y-3232324D01*
X49360499Y-3232324D01*
X49357732Y-3197161D01*
X49313993Y-3046611D01*
X49234188Y-2911668D01*
X49234186Y-2911666D01*
X49234183Y-2911662D01*
X49123337Y-2800816D01*
X49123329Y-2800810D01*
X48988387Y-2721006D01*
X48988384Y-2721005D01*
X48837843Y-2677268D01*
X48837837Y-2677267D01*
X48802675Y-2674500D01*
X48802668Y-2674500D01*
X47717332Y-2674500D01*
X47717324Y-2674500D01*
X47682162Y-2677267D01*
X47682156Y-2677268D01*
X47531615Y-2721005D01*
X47531612Y-2721006D01*
X47396670Y-2800810D01*
X47396662Y-2800816D01*
X47285816Y-2911662D01*
X47285810Y-2911670D01*
X47206006Y-3046612D01*
X47206005Y-3046615D01*
X47162268Y-3197156D01*
X47162267Y-3197162D01*
X47159500Y-3232324D01*
X46820499Y-3232324D01*
X46817732Y-3197161D01*
X46773993Y-3046611D01*
X46694188Y-2911668D01*
X46694186Y-2911666D01*
X46694183Y-2911662D01*
X46583337Y-2800816D01*
X46583329Y-2800810D01*
X46448387Y-2721006D01*
X46448384Y-2721005D01*
X46297843Y-2677268D01*
X46297837Y-2677267D01*
X46262675Y-2674500D01*
X46262668Y-2674500D01*
X45177332Y-2674500D01*
X45177324Y-2674500D01*
X45142162Y-2677267D01*
X45142156Y-2677268D01*
X44991615Y-2721005D01*
X44991612Y-2721006D01*
X44856670Y-2800810D01*
X44856662Y-2800816D01*
X44745816Y-2911662D01*
X44745810Y-2911670D01*
X44666006Y-3046612D01*
X44666005Y-3046615D01*
X44622268Y-3197156D01*
X44622267Y-3197162D01*
X44619500Y-3232324D01*
X44280499Y-3232324D01*
X44277732Y-3197161D01*
X44233993Y-3046611D01*
X44154188Y-2911668D01*
X44154186Y-2911666D01*
X44154183Y-2911662D01*
X44043337Y-2800816D01*
X44043329Y-2800810D01*
X43908387Y-2721006D01*
X43908384Y-2721005D01*
X43757843Y-2677268D01*
X43757837Y-2677267D01*
X43722675Y-2674500D01*
X43722668Y-2674500D01*
X42637332Y-2674500D01*
X42637324Y-2674500D01*
X42602162Y-2677267D01*
X42602156Y-2677268D01*
X42451615Y-2721005D01*
X42451612Y-2721006D01*
X42316670Y-2800810D01*
X42316662Y-2800816D01*
X42205816Y-2911662D01*
X42205810Y-2911670D01*
X42126006Y-3046612D01*
X42126005Y-3046615D01*
X42082268Y-3197156D01*
X42082267Y-3197162D01*
X42079500Y-3232324D01*
X41740499Y-3232324D01*
X41737732Y-3197161D01*
X41693993Y-3046611D01*
X41614188Y-2911668D01*
X41614186Y-2911666D01*
X41614183Y-2911662D01*
X41503337Y-2800816D01*
X41503329Y-2800810D01*
X41368387Y-2721006D01*
X41368384Y-2721005D01*
X41217843Y-2677268D01*
X41217837Y-2677267D01*
X41182675Y-2674500D01*
X41182668Y-2674500D01*
X40097332Y-2674500D01*
X40097324Y-2674500D01*
X40062162Y-2677267D01*
X40062156Y-2677268D01*
X39911615Y-2721005D01*
X39911612Y-2721006D01*
X39776670Y-2800810D01*
X39776662Y-2800816D01*
X39665816Y-2911662D01*
X39665810Y-2911670D01*
X39586006Y-3046612D01*
X39586005Y-3046615D01*
X39542268Y-3197156D01*
X39542267Y-3197162D01*
X39539500Y-3232324D01*
X39200499Y-3232324D01*
X39197732Y-3197161D01*
X39153993Y-3046611D01*
X39074188Y-2911668D01*
X39074186Y-2911666D01*
X39074183Y-2911662D01*
X38963337Y-2800816D01*
X38963329Y-2800810D01*
X38828387Y-2721006D01*
X38828384Y-2721005D01*
X38677843Y-2677268D01*
X38677837Y-2677267D01*
X38642675Y-2674500D01*
X38642668Y-2674500D01*
X37557332Y-2674500D01*
X37557324Y-2674500D01*
X37522162Y-2677267D01*
X37522156Y-2677268D01*
X37371615Y-2721005D01*
X37371612Y-2721006D01*
X37236670Y-2800810D01*
X37236662Y-2800816D01*
X37125816Y-2911662D01*
X37125810Y-2911670D01*
X37046006Y-3046612D01*
X37046005Y-3046615D01*
X37002268Y-3197156D01*
X37002267Y-3197162D01*
X36999500Y-3232324D01*
X36660499Y-3232324D01*
X36657732Y-3197161D01*
X36613993Y-3046611D01*
X36534188Y-2911668D01*
X36534186Y-2911666D01*
X36534183Y-2911662D01*
X36423337Y-2800816D01*
X36423329Y-2800810D01*
X36288387Y-2721006D01*
X36288384Y-2721005D01*
X36137843Y-2677268D01*
X36137837Y-2677267D01*
X36102675Y-2674500D01*
X36102668Y-2674500D01*
X35017332Y-2674500D01*
X35017324Y-2674500D01*
X34982162Y-2677267D01*
X34982156Y-2677268D01*
X34831615Y-2721005D01*
X34831612Y-2721006D01*
X34696670Y-2800810D01*
X34696662Y-2800816D01*
X34585816Y-2911662D01*
X34585810Y-2911670D01*
X34506006Y-3046612D01*
X34506005Y-3046615D01*
X34462268Y-3197156D01*
X34462267Y-3197162D01*
X34459500Y-3232324D01*
X34120499Y-3232324D01*
X34117732Y-3197161D01*
X34073993Y-3046611D01*
X33994188Y-2911668D01*
X33994186Y-2911666D01*
X33994183Y-2911662D01*
X33883337Y-2800816D01*
X33883329Y-2800810D01*
X33748387Y-2721006D01*
X33748384Y-2721005D01*
X33597843Y-2677268D01*
X33597837Y-2677267D01*
X33562675Y-2674500D01*
X33562668Y-2674500D01*
X32477332Y-2674500D01*
X32477324Y-2674500D01*
X32442162Y-2677267D01*
X32442156Y-2677268D01*
X32291615Y-2721005D01*
X32291612Y-2721006D01*
X32156670Y-2800810D01*
X32156662Y-2800816D01*
X32045816Y-2911662D01*
X32045810Y-2911670D01*
X31966006Y-3046612D01*
X31966005Y-3046615D01*
X31922268Y-3197156D01*
X31922267Y-3197162D01*
X31919500Y-3232324D01*
X31580499Y-3232324D01*
X31577732Y-3197161D01*
X31533993Y-3046611D01*
X31454188Y-2911668D01*
X31454186Y-2911666D01*
X31454183Y-2911662D01*
X31343337Y-2800816D01*
X31343329Y-2800810D01*
X31208387Y-2721006D01*
X31208384Y-2721005D01*
X31057843Y-2677268D01*
X31057837Y-2677267D01*
X31022675Y-2674500D01*
X31022668Y-2674500D01*
X29937332Y-2674500D01*
X29937324Y-2674500D01*
X29902162Y-2677267D01*
X29902156Y-2677268D01*
X29751615Y-2721005D01*
X29751612Y-2721006D01*
X29616670Y-2800810D01*
X29616662Y-2800816D01*
X29505816Y-2911662D01*
X29505810Y-2911670D01*
X29426006Y-3046612D01*
X29426005Y-3046615D01*
X29382268Y-3197156D01*
X29382267Y-3197162D01*
X29379500Y-3232324D01*
X29040499Y-3232324D01*
X29037732Y-3197161D01*
X28993993Y-3046611D01*
X28914188Y-2911668D01*
X28914186Y-2911666D01*
X28914183Y-2911662D01*
X28803337Y-2800816D01*
X28803329Y-2800810D01*
X28668387Y-2721006D01*
X28668384Y-2721005D01*
X28517843Y-2677268D01*
X28517837Y-2677267D01*
X28482675Y-2674500D01*
X28482668Y-2674500D01*
X27397332Y-2674500D01*
X27397324Y-2674500D01*
X27362162Y-2677267D01*
X27362156Y-2677268D01*
X27211615Y-2721005D01*
X27211612Y-2721006D01*
X27076670Y-2800810D01*
X27076662Y-2800816D01*
X26965816Y-2911662D01*
X26965810Y-2911670D01*
X26886006Y-3046612D01*
X26886005Y-3046615D01*
X26842268Y-3197156D01*
X26842267Y-3197162D01*
X26839500Y-3232324D01*
X26500499Y-3232324D01*
X26497732Y-3197161D01*
X26453993Y-3046611D01*
X26374188Y-2911668D01*
X26374186Y-2911666D01*
X26374183Y-2911662D01*
X26263337Y-2800816D01*
X26263329Y-2800810D01*
X26128387Y-2721006D01*
X26128384Y-2721005D01*
X25977843Y-2677268D01*
X25977837Y-2677267D01*
X25942675Y-2674500D01*
X25942668Y-2674500D01*
X24857332Y-2674500D01*
X24857324Y-2674500D01*
X24822162Y-2677267D01*
X24822156Y-2677268D01*
X24671615Y-2721005D01*
X24671612Y-2721006D01*
X24536670Y-2800810D01*
X24536662Y-2800816D01*
X24425816Y-2911662D01*
X24425810Y-2911670D01*
X24346006Y-3046612D01*
X24346005Y-3046615D01*
X24302268Y-3197156D01*
X24302267Y-3197162D01*
X24299500Y-3232324D01*
X23960499Y-3232324D01*
X23957732Y-3197161D01*
X23913993Y-3046611D01*
X23834188Y-2911668D01*
X23834186Y-2911666D01*
X23834183Y-2911662D01*
X23723337Y-2800816D01*
X23723329Y-2800810D01*
X23588387Y-2721006D01*
X23588384Y-2721005D01*
X23437843Y-2677268D01*
X23437837Y-2677267D01*
X23402675Y-2674500D01*
X23402668Y-2674500D01*
X22317332Y-2674500D01*
X22317324Y-2674500D01*
X22282162Y-2677267D01*
X22282156Y-2677268D01*
X22131615Y-2721005D01*
X22131612Y-2721006D01*
X21996670Y-2800810D01*
X21996662Y-2800816D01*
X21885816Y-2911662D01*
X21885810Y-2911670D01*
X21806006Y-3046612D01*
X21806005Y-3046615D01*
X21762268Y-3197156D01*
X21762267Y-3197162D01*
X21759500Y-3232324D01*
X21759500Y-4878728D01*
X21739815Y-4945767D01*
X21687011Y-4991522D01*
X21617853Y-5001466D01*
X21583984Y-4991520D01*
X21574902Y-4987372D01*
X21561527Y-4978435D01*
X21495017Y-4950885D01*
X21492984Y-4949957D01*
X21468195Y-4928475D01*
X21442644Y-4907885D01*
X21441918Y-4905704D01*
X21440182Y-4904200D01*
X21430939Y-4872717D01*
X21420579Y-4841590D01*
X21420500Y-4837165D01*
X21420500Y-3232339D01*
X21420499Y-3232324D01*
X21418789Y-3210600D01*
X21417732Y-3197161D01*
X21373993Y-3046611D01*
X21294188Y-2911668D01*
X21294186Y-2911666D01*
X21294183Y-2911662D01*
X21183337Y-2800816D01*
X21183329Y-2800810D01*
X21048387Y-2721006D01*
X21048384Y-2721005D01*
X20897843Y-2677268D01*
X20897837Y-2677267D01*
X20862675Y-2674500D01*
X20862668Y-2674500D01*
X19777332Y-2674500D01*
X19777324Y-2674500D01*
X19742162Y-2677267D01*
X19742156Y-2677268D01*
X19591615Y-2721005D01*
X19591612Y-2721006D01*
X19456670Y-2800810D01*
X19456662Y-2800816D01*
X19345816Y-2911662D01*
X19345810Y-2911670D01*
X19266006Y-3046612D01*
X19266005Y-3046615D01*
X19222268Y-3197156D01*
X19222267Y-3197162D01*
X19219500Y-3232324D01*
X18880499Y-3232324D01*
X18877732Y-3197161D01*
X18833993Y-3046611D01*
X18754188Y-2911668D01*
X18754186Y-2911666D01*
X18754183Y-2911662D01*
X18643337Y-2800816D01*
X18643329Y-2800810D01*
X18508387Y-2721006D01*
X18508384Y-2721005D01*
X18357843Y-2677268D01*
X18357837Y-2677267D01*
X18322675Y-2674500D01*
X18322668Y-2674500D01*
X17237332Y-2674500D01*
X17237324Y-2674500D01*
X17202162Y-2677267D01*
X17202156Y-2677268D01*
X17051615Y-2721005D01*
X17051612Y-2721006D01*
X16916670Y-2800810D01*
X16916662Y-2800816D01*
X16805816Y-2911662D01*
X16805810Y-2911670D01*
X16726006Y-3046612D01*
X16726005Y-3046615D01*
X16682268Y-3197156D01*
X16682265Y-3197176D01*
X16682225Y-3197686D01*
X16682123Y-3197952D01*
X16681129Y-3203397D01*
X16680117Y-3203212D01*
X16657332Y-3262971D01*
X16601095Y-3304434D01*
X16531369Y-3308910D01*
X16470291Y-3274979D01*
X16437254Y-3213413D01*
X16435251Y-3200540D01*
X16429926Y-3148415D01*
X16376984Y-2988645D01*
X16376979Y-2988634D01*
X16288626Y-2845393D01*
X16288623Y-2845389D01*
X16169610Y-2726376D01*
X16169606Y-2726373D01*
X16026365Y-2638020D01*
X16026354Y-2638015D01*
X15866583Y-2585073D01*
X15866586Y-2585073D01*
X15767989Y-2575000D01*
X15490000Y-2575000D01*
X15490000Y-5575000D01*
X14990000Y-5575000D01*
X14990000Y-2575000D01*
X14712010Y-2575000D01*
X14613415Y-2585073D01*
X14453645Y-2638015D01*
X14453634Y-2638020D01*
X14310393Y-2726373D01*
X14310389Y-2726376D01*
X14191376Y-2845389D01*
X14191373Y-2845393D01*
X14103020Y-2988634D01*
X14103015Y-2988645D01*
X14050073Y-3148415D01*
X14044748Y-3200542D01*
X14018352Y-3265234D01*
X13961171Y-3305385D01*
X13891360Y-3308248D01*
X13831083Y-3272913D01*
X13799478Y-3210600D01*
X13797772Y-3197668D01*
X13797732Y-3197162D01*
X13797731Y-3197156D01*
X13753994Y-3046615D01*
X13753993Y-3046612D01*
X13753993Y-3046611D01*
X13674188Y-2911668D01*
X13674186Y-2911666D01*
X13674183Y-2911662D01*
X13563337Y-2800816D01*
X13563329Y-2800810D01*
X13428387Y-2721006D01*
X13428384Y-2721005D01*
X13277843Y-2677268D01*
X13277837Y-2677267D01*
X13242675Y-2674500D01*
X13242668Y-2674500D01*
X12157332Y-2674500D01*
X12157324Y-2674500D01*
X12122162Y-2677267D01*
X12122156Y-2677268D01*
X11971615Y-2721005D01*
X11971612Y-2721006D01*
X11836670Y-2800810D01*
X11836662Y-2800816D01*
X11725816Y-2911662D01*
X11725810Y-2911670D01*
X11646006Y-3046612D01*
X11646005Y-3046615D01*
X11602268Y-3197156D01*
X11602267Y-3197162D01*
X11599500Y-3232324D01*
X11260499Y-3232324D01*
X11257732Y-3197161D01*
X11213993Y-3046611D01*
X11134188Y-2911668D01*
X11134186Y-2911666D01*
X11134183Y-2911662D01*
X11023337Y-2800816D01*
X11023329Y-2800810D01*
X10888387Y-2721006D01*
X10888384Y-2721005D01*
X10737843Y-2677268D01*
X10737837Y-2677267D01*
X10702675Y-2674500D01*
X10702668Y-2674500D01*
X9617332Y-2674500D01*
X9617324Y-2674500D01*
X9582162Y-2677267D01*
X9582156Y-2677268D01*
X9431615Y-2721005D01*
X9431612Y-2721006D01*
X9296670Y-2800810D01*
X9296662Y-2800816D01*
X9185816Y-2911662D01*
X9185810Y-2911670D01*
X9106006Y-3046612D01*
X9106005Y-3046615D01*
X9062268Y-3197156D01*
X9062267Y-3197162D01*
X9059500Y-3232324D01*
X8720499Y-3232324D01*
X8717732Y-3197161D01*
X8673993Y-3046611D01*
X8594188Y-2911668D01*
X8594186Y-2911666D01*
X8594183Y-2911662D01*
X8483337Y-2800816D01*
X8483329Y-2800810D01*
X8348387Y-2721006D01*
X8348384Y-2721005D01*
X8197843Y-2677268D01*
X8197837Y-2677267D01*
X8162675Y-2674500D01*
X8162668Y-2674500D01*
X7077332Y-2674500D01*
X7077324Y-2674500D01*
X7042162Y-2677267D01*
X7042156Y-2677268D01*
X6891615Y-2721005D01*
X6891612Y-2721006D01*
X6756670Y-2800810D01*
X6756662Y-2800816D01*
X6645816Y-2911662D01*
X6645810Y-2911670D01*
X6566006Y-3046612D01*
X6566005Y-3046615D01*
X6522268Y-3197156D01*
X6522267Y-3197162D01*
X6519500Y-3232324D01*
X6519500Y-4917675D01*
X6522267Y-4952837D01*
X6522268Y-4952843D01*
X6559428Y-5080745D01*
X6559229Y-5150614D01*
X6528033Y-5203021D01*
X6468726Y-5262327D01*
X6468723Y-5262331D01*
X6397538Y-5368866D01*
X6397533Y-5368875D01*
X6348499Y-5487255D01*
X6348497Y-5487261D01*
X6323500Y-5612928D01*
X6323500Y-5612931D01*
X6323500Y-5741069D01*
X6323500Y-5741071D01*
X6323499Y-5741071D01*
X5730500Y-5741071D01*
X5730500Y-5656131D01*
X5714229Y-5574333D01*
X5720456Y-5504742D01*
X5763319Y-5449565D01*
X5801251Y-5431066D01*
X5808389Y-5428993D01*
X5943332Y-5349188D01*
X6054188Y-5238332D01*
X6133993Y-5103389D01*
X6177732Y-4952839D01*
X6180500Y-4917668D01*
X6180500Y-3232332D01*
X6177732Y-3197161D01*
X6133993Y-3046611D01*
X6054188Y-2911668D01*
X6054186Y-2911666D01*
X6054183Y-2911662D01*
X5943337Y-2800816D01*
X5943329Y-2800810D01*
X5808387Y-2721006D01*
X5808384Y-2721005D01*
X5657843Y-2677268D01*
X5657837Y-2677267D01*
X5622675Y-2674500D01*
X5622668Y-2674500D01*
X4537332Y-2674500D01*
X4537324Y-2674500D01*
X4502162Y-2677267D01*
X4502156Y-2677268D01*
X4351615Y-2721005D01*
X4351612Y-2721006D01*
X4216670Y-2800810D01*
X4216662Y-2800816D01*
X4105816Y-2911662D01*
X4105810Y-2911670D01*
X4026006Y-3046612D01*
X4026005Y-3046615D01*
X3982268Y-3197156D01*
X3982267Y-3197162D01*
X3979500Y-3232324D01*
X300500Y-3232324D01*
X300500Y-424500D01*
X320185Y-357461D01*
X372989Y-311706D01*
X424500Y-300500D01*
X78315500Y-300500D01*
X78382539Y-320185D01*
G37*
%TD.AperFunction*%
%TD*%
M02*
