M48
; DRILL file KiCad 10.0.4 date 2026-07-26T01:16:44
; FORMAT={-:-/ absolute / metric / decimal}
; #@! TF.CreationDate,2026-07-26T01:16:44-03:00
; #@! TF.GenerationSoftware,Kicad,Pcbnew,10.0.4
; #@! TF.FileFunction,MixedPlating,1,2
FMAT,2
METRIC
; #@! TA.AperFunction,Plated,PTH,ViaDrill
T1C0.350
; #@! TA.AperFunction,Plated,PTH,ViaDrill
T2C0.450
; #@! TA.AperFunction,Plated,PTH,ComponentDrill
T3C0.800
; #@! TA.AperFunction,Plated,PTH,ComponentDrill
T4C1.000
%
G90
G05
T1
X9.741Y-36.824
X12.91Y-36.815
X17.139Y-36.806
X20.553Y-36.065
X23.524Y-36.729
X26.082Y-36.477
X28.623Y-36.652
X30.538Y-36.797
X33.706Y-36.315
X36.994Y-36.943
X73.486Y-36.806
T2
X5.612Y-24.231
T3
X6.0Y-29.0
X11.0Y-29.0
T4
X5.08Y-2.96
X5.08Y-8.04
X5.08Y-18.73
X5.08Y-21.27
X7.62Y-2.96
X7.62Y-8.04
X7.62Y-18.73
X7.62Y-21.27
X10.16Y-2.96
X10.16Y-8.04
X10.16Y-18.73
X10.16Y-21.27
X12.7Y-2.96
X12.7Y-8.04
X12.7Y-18.73
X12.7Y-21.27
X15.24Y-18.73
X15.24Y-21.27
X17.78Y-2.96
X17.78Y-8.04
X17.78Y-18.73
X17.78Y-21.27
X20.32Y-2.96
X20.32Y-8.04
X20.32Y-18.73
X20.32Y-21.27
X22.86Y-2.96
X22.86Y-8.04
X22.86Y-18.73
X22.86Y-21.27
X25.4Y-2.96
X25.4Y-8.04
X25.4Y-18.73
X25.4Y-21.27
X27.94Y-2.96
X27.94Y-8.04
X27.94Y-18.73
X27.94Y-21.27
X30.48Y-2.96
X30.48Y-8.04
X30.48Y-18.73
X30.48Y-21.27
X33.02Y-2.96
X33.02Y-8.04
X33.02Y-18.73
X33.02Y-21.27
X35.56Y-2.96
X35.56Y-8.04
X35.56Y-18.73
X35.56Y-21.27
X38.1Y-2.96
X38.1Y-8.04
X38.1Y-18.73
X38.1Y-21.27
X40.64Y-2.96
X40.64Y-8.04
X40.64Y-18.73
X40.64Y-21.27
X43.18Y-2.96
X43.18Y-8.04
X43.18Y-18.73
X43.18Y-21.27
X45.72Y-2.96
X45.72Y-8.04
X45.72Y-18.73
X45.72Y-21.27
X48.26Y-2.96
X48.26Y-8.04
X48.26Y-18.73
X48.26Y-21.27
X50.8Y-2.96
X50.8Y-8.04
X50.8Y-18.73
X50.8Y-21.27
X53.34Y-2.96
X53.34Y-8.04
X53.34Y-18.73
X53.34Y-21.27
X55.88Y-2.96
X55.88Y-8.04
X55.88Y-18.73
X55.88Y-21.27
X58.42Y-2.96
X58.42Y-8.04
X58.42Y-18.73
X58.42Y-21.27
X60.96Y-2.96
X60.96Y-8.04
X60.96Y-18.73
X60.96Y-21.27
X63.5Y-2.96
X63.5Y-8.04
X63.5Y-18.73
X63.5Y-21.27
X66.04Y-2.96
X66.04Y-8.04
X66.04Y-18.73
X66.04Y-21.27
X68.58Y-2.96
X68.58Y-8.04
X68.58Y-18.73
X68.58Y-21.27
X71.12Y-2.96
X71.12Y-8.04
X71.12Y-18.73
X71.12Y-21.27
X73.66Y-2.96
X73.66Y-8.04
X73.66Y-18.73
X73.66Y-21.27
M30
