%TF.GenerationSoftware,KiCad,Pcbnew,10.0.4*%
%TF.CreationDate,2026-07-26T01:16:44-03:00*%
%TF.ProjectId,tkmem128-expansor,746b6d65-6d31-4323-982d-657870616e73,rev?*%
%TF.SameCoordinates,Original*%
%TF.FileFunction,Drillmap*%
%TF.FilePolarity,Positive*%
%FSLAX45Y45*%
G04 Gerber Fmt 4.5, Leading zero omitted, Abs format (unit mm)*
G04 Created by KiCad (PCBNEW 10.0.4) date 2026-07-26 01:16:44*
%MOMM*%
%LPD*%
G01*
G04 APERTURE LIST*
%ADD10C,0.100000*%
%ADD11C,0.200000*%
G04 APERTURE END LIST*
D10*
X0Y0D02*
X0Y-4500000D01*
X0Y0D02*
X7874000Y0D01*
X0Y-4500000D02*
X1434000Y-4500000D01*
X1434000Y-4000000D02*
X1614000Y-4000000D01*
X1434000Y-4500000D02*
X1434000Y-4000000D01*
X1614000Y-4000000D02*
X1614000Y-4500000D01*
X1614000Y-4500000D02*
X7874000Y-4500000D01*
X7874000Y0D02*
X7874000Y-4500000D01*
D11*
D10*
X956560Y-3664930D02*
X991560Y-3699930D01*
X991560Y-3664930D02*
X956560Y-3699930D01*
X1273490Y-3663970D02*
X1308490Y-3698970D01*
X1308490Y-3663970D02*
X1273490Y-3698970D01*
X1696350Y-3663120D02*
X1731350Y-3698120D01*
X1731350Y-3663120D02*
X1696350Y-3698120D01*
X2037790Y-3589000D02*
X2072790Y-3624000D01*
X2072790Y-3589000D02*
X2037790Y-3624000D01*
X2334880Y-3655380D02*
X2369880Y-3690380D01*
X2369880Y-3655380D02*
X2334880Y-3690380D01*
X2590720Y-3630250D02*
X2625720Y-3665250D01*
X2625720Y-3630250D02*
X2590720Y-3665250D01*
X2844800Y-3647700D02*
X2879800Y-3682700D01*
X2879800Y-3647700D02*
X2844800Y-3682700D01*
X3036300Y-3662200D02*
X3071300Y-3697200D01*
X3071300Y-3662200D02*
X3036300Y-3697200D01*
X3353150Y-3614020D02*
X3388150Y-3649020D01*
X3388150Y-3614020D02*
X3353150Y-3649020D01*
X3681940Y-3676760D02*
X3716940Y-3711760D01*
X3716940Y-3676760D02*
X3681940Y-3711760D01*
X7331080Y-3663120D02*
X7366080Y-3698120D01*
X7366080Y-3663120D02*
X7331080Y-3698120D01*
X583720Y-2423080D02*
G75*
G02*
X538720Y-2423080I-22500J0D01*
G01*
X538720Y-2423080D02*
G75*
G02*
X583720Y-2423080I22500J0D01*
G01*
X600000Y-2860000D02*
X600000Y-2940000D01*
X560000Y-2900000D02*
X640000Y-2900000D01*
X1100000Y-2860000D02*
X1100000Y-2940000D01*
X1060000Y-2900000D02*
X1140000Y-2900000D01*
X543356Y-331356D02*
X543356Y-260644D01*
X472644Y-260644D01*
X472644Y-331356D01*
X543356Y-331356D01*
X543356Y-839356D02*
X543356Y-768644D01*
X472644Y-768644D01*
X472644Y-839356D01*
X543356Y-839356D01*
X543356Y-1908356D02*
X543356Y-1837644D01*
X472644Y-1837644D01*
X472644Y-1908356D01*
X543356Y-1908356D01*
X543356Y-2162356D02*
X543356Y-2091644D01*
X472644Y-2091644D01*
X472644Y-2162356D01*
X543356Y-2162356D01*
X797356Y-331356D02*
X797356Y-260644D01*
X726644Y-260644D01*
X726644Y-331356D01*
X797356Y-331356D01*
X797356Y-839356D02*
X797356Y-768644D01*
X726644Y-768644D01*
X726644Y-839356D01*
X797356Y-839356D01*
X797356Y-1908356D02*
X797356Y-1837644D01*
X726644Y-1837644D01*
X726644Y-1908356D01*
X797356Y-1908356D01*
X797356Y-2162356D02*
X797356Y-2091644D01*
X726644Y-2091644D01*
X726644Y-2162356D01*
X797356Y-2162356D01*
X1051356Y-331356D02*
X1051356Y-260644D01*
X980644Y-260644D01*
X980644Y-331356D01*
X1051356Y-331356D01*
X1051356Y-839356D02*
X1051356Y-768644D01*
X980644Y-768644D01*
X980644Y-839356D01*
X1051356Y-839356D01*
X1051356Y-1908356D02*
X1051356Y-1837644D01*
X980644Y-1837644D01*
X980644Y-1908356D01*
X1051356Y-1908356D01*
X1051356Y-2162356D02*
X1051356Y-2091644D01*
X980644Y-2091644D01*
X980644Y-2162356D01*
X1051356Y-2162356D01*
X1305356Y-331356D02*
X1305356Y-260644D01*
X1234644Y-260644D01*
X1234644Y-331356D01*
X1305356Y-331356D01*
X1305356Y-839356D02*
X1305356Y-768644D01*
X1234644Y-768644D01*
X1234644Y-839356D01*
X1305356Y-839356D01*
X1305356Y-1908356D02*
X1305356Y-1837644D01*
X1234644Y-1837644D01*
X1234644Y-1908356D01*
X1305356Y-1908356D01*
X1305356Y-2162356D02*
X1305356Y-2091644D01*
X1234644Y-2091644D01*
X1234644Y-2162356D01*
X1305356Y-2162356D01*
X1559356Y-1908356D02*
X1559356Y-1837644D01*
X1488644Y-1837644D01*
X1488644Y-1908356D01*
X1559356Y-1908356D01*
X1559356Y-2162356D02*
X1559356Y-2091644D01*
X1488644Y-2091644D01*
X1488644Y-2162356D01*
X1559356Y-2162356D01*
X1813356Y-331356D02*
X1813356Y-260644D01*
X1742644Y-260644D01*
X1742644Y-331356D01*
X1813356Y-331356D01*
X1813356Y-839356D02*
X1813356Y-768644D01*
X1742644Y-768644D01*
X1742644Y-839356D01*
X1813356Y-839356D01*
X1813356Y-1908356D02*
X1813356Y-1837644D01*
X1742644Y-1837644D01*
X1742644Y-1908356D01*
X1813356Y-1908356D01*
X1813356Y-2162356D02*
X1813356Y-2091644D01*
X1742644Y-2091644D01*
X1742644Y-2162356D01*
X1813356Y-2162356D01*
X2067356Y-331356D02*
X2067356Y-260644D01*
X1996644Y-260644D01*
X1996644Y-331356D01*
X2067356Y-331356D01*
X2067356Y-839356D02*
X2067356Y-768644D01*
X1996644Y-768644D01*
X1996644Y-839356D01*
X2067356Y-839356D01*
X2067356Y-1908356D02*
X2067356Y-1837644D01*
X1996644Y-1837644D01*
X1996644Y-1908356D01*
X2067356Y-1908356D01*
X2067356Y-2162356D02*
X2067356Y-2091644D01*
X1996644Y-2091644D01*
X1996644Y-2162356D01*
X2067356Y-2162356D01*
X2321356Y-331356D02*
X2321356Y-260644D01*
X2250644Y-260644D01*
X2250644Y-331356D01*
X2321356Y-331356D01*
X2321356Y-839356D02*
X2321356Y-768644D01*
X2250644Y-768644D01*
X2250644Y-839356D01*
X2321356Y-839356D01*
X2321356Y-1908356D02*
X2321356Y-1837644D01*
X2250644Y-1837644D01*
X2250644Y-1908356D01*
X2321356Y-1908356D01*
X2321356Y-2162356D02*
X2321356Y-2091644D01*
X2250644Y-2091644D01*
X2250644Y-2162356D01*
X2321356Y-2162356D01*
X2575356Y-331356D02*
X2575356Y-260644D01*
X2504644Y-260644D01*
X2504644Y-331356D01*
X2575356Y-331356D01*
X2575356Y-839356D02*
X2575356Y-768644D01*
X2504644Y-768644D01*
X2504644Y-839356D01*
X2575356Y-839356D01*
X2575356Y-1908356D02*
X2575356Y-1837644D01*
X2504644Y-1837644D01*
X2504644Y-1908356D01*
X2575356Y-1908356D01*
X2575356Y-2162356D02*
X2575356Y-2091644D01*
X2504644Y-2091644D01*
X2504644Y-2162356D01*
X2575356Y-2162356D01*
X2829356Y-331356D02*
X2829356Y-260644D01*
X2758644Y-260644D01*
X2758644Y-331356D01*
X2829356Y-331356D01*
X2829356Y-839356D02*
X2829356Y-768644D01*
X2758644Y-768644D01*
X2758644Y-839356D01*
X2829356Y-839356D01*
X2829356Y-1908356D02*
X2829356Y-1837644D01*
X2758644Y-1837644D01*
X2758644Y-1908356D01*
X2829356Y-1908356D01*
X2829356Y-2162356D02*
X2829356Y-2091644D01*
X2758644Y-2091644D01*
X2758644Y-2162356D01*
X2829356Y-2162356D01*
X3083356Y-331356D02*
X3083356Y-260644D01*
X3012644Y-260644D01*
X3012644Y-331356D01*
X3083356Y-331356D01*
X3083356Y-839356D02*
X3083356Y-768644D01*
X3012644Y-768644D01*
X3012644Y-839356D01*
X3083356Y-839356D01*
X3083356Y-1908356D02*
X3083356Y-1837644D01*
X3012644Y-1837644D01*
X3012644Y-1908356D01*
X3083356Y-1908356D01*
X3083356Y-2162356D02*
X3083356Y-2091644D01*
X3012644Y-2091644D01*
X3012644Y-2162356D01*
X3083356Y-2162356D01*
X3337356Y-331356D02*
X3337356Y-260644D01*
X3266644Y-260644D01*
X3266644Y-331356D01*
X3337356Y-331356D01*
X3337356Y-839356D02*
X3337356Y-768644D01*
X3266644Y-768644D01*
X3266644Y-839356D01*
X3337356Y-839356D01*
X3337356Y-1908356D02*
X3337356Y-1837644D01*
X3266644Y-1837644D01*
X3266644Y-1908356D01*
X3337356Y-1908356D01*
X3337356Y-2162356D02*
X3337356Y-2091644D01*
X3266644Y-2091644D01*
X3266644Y-2162356D01*
X3337356Y-2162356D01*
X3591356Y-331356D02*
X3591356Y-260644D01*
X3520644Y-260644D01*
X3520644Y-331356D01*
X3591356Y-331356D01*
X3591356Y-839356D02*
X3591356Y-768644D01*
X3520644Y-768644D01*
X3520644Y-839356D01*
X3591356Y-839356D01*
X3591356Y-1908356D02*
X3591356Y-1837644D01*
X3520644Y-1837644D01*
X3520644Y-1908356D01*
X3591356Y-1908356D01*
X3591356Y-2162356D02*
X3591356Y-2091644D01*
X3520644Y-2091644D01*
X3520644Y-2162356D01*
X3591356Y-2162356D01*
X3845356Y-331356D02*
X3845356Y-260644D01*
X3774644Y-260644D01*
X3774644Y-331356D01*
X3845356Y-331356D01*
X3845356Y-839356D02*
X3845356Y-768644D01*
X3774644Y-768644D01*
X3774644Y-839356D01*
X3845356Y-839356D01*
X3845356Y-1908356D02*
X3845356Y-1837644D01*
X3774644Y-1837644D01*
X3774644Y-1908356D01*
X3845356Y-1908356D01*
X3845356Y-2162356D02*
X3845356Y-2091644D01*
X3774644Y-2091644D01*
X3774644Y-2162356D01*
X3845356Y-2162356D01*
X4099356Y-331356D02*
X4099356Y-260644D01*
X4028644Y-260644D01*
X4028644Y-331356D01*
X4099356Y-331356D01*
X4099356Y-839356D02*
X4099356Y-768644D01*
X4028644Y-768644D01*
X4028644Y-839356D01*
X4099356Y-839356D01*
X4099356Y-1908356D02*
X4099356Y-1837644D01*
X4028644Y-1837644D01*
X4028644Y-1908356D01*
X4099356Y-1908356D01*
X4099356Y-2162356D02*
X4099356Y-2091644D01*
X4028644Y-2091644D01*
X4028644Y-2162356D01*
X4099356Y-2162356D01*
X4353356Y-331356D02*
X4353356Y-260644D01*
X4282644Y-260644D01*
X4282644Y-331356D01*
X4353356Y-331356D01*
X4353356Y-839356D02*
X4353356Y-768644D01*
X4282644Y-768644D01*
X4282644Y-839356D01*
X4353356Y-839356D01*
X4353356Y-1908356D02*
X4353356Y-1837644D01*
X4282644Y-1837644D01*
X4282644Y-1908356D01*
X4353356Y-1908356D01*
X4353356Y-2162356D02*
X4353356Y-2091644D01*
X4282644Y-2091644D01*
X4282644Y-2162356D01*
X4353356Y-2162356D01*
X4607356Y-331356D02*
X4607356Y-260644D01*
X4536644Y-260644D01*
X4536644Y-331356D01*
X4607356Y-331356D01*
X4607356Y-839356D02*
X4607356Y-768644D01*
X4536644Y-768644D01*
X4536644Y-839356D01*
X4607356Y-839356D01*
X4607356Y-1908356D02*
X4607356Y-1837644D01*
X4536644Y-1837644D01*
X4536644Y-1908356D01*
X4607356Y-1908356D01*
X4607356Y-2162356D02*
X4607356Y-2091644D01*
X4536644Y-2091644D01*
X4536644Y-2162356D01*
X4607356Y-2162356D01*
X4861356Y-331356D02*
X4861356Y-260644D01*
X4790644Y-260644D01*
X4790644Y-331356D01*
X4861356Y-331356D01*
X4861356Y-839356D02*
X4861356Y-768644D01*
X4790644Y-768644D01*
X4790644Y-839356D01*
X4861356Y-839356D01*
X4861356Y-1908356D02*
X4861356Y-1837644D01*
X4790644Y-1837644D01*
X4790644Y-1908356D01*
X4861356Y-1908356D01*
X4861356Y-2162356D02*
X4861356Y-2091644D01*
X4790644Y-2091644D01*
X4790644Y-2162356D01*
X4861356Y-2162356D01*
X5115356Y-331356D02*
X5115356Y-260644D01*
X5044644Y-260644D01*
X5044644Y-331356D01*
X5115356Y-331356D01*
X5115356Y-839356D02*
X5115356Y-768644D01*
X5044644Y-768644D01*
X5044644Y-839356D01*
X5115356Y-839356D01*
X5115356Y-1908356D02*
X5115356Y-1837644D01*
X5044644Y-1837644D01*
X5044644Y-1908356D01*
X5115356Y-1908356D01*
X5115356Y-2162356D02*
X5115356Y-2091644D01*
X5044644Y-2091644D01*
X5044644Y-2162356D01*
X5115356Y-2162356D01*
X5369356Y-331356D02*
X5369356Y-260644D01*
X5298644Y-260644D01*
X5298644Y-331356D01*
X5369356Y-331356D01*
X5369356Y-839356D02*
X5369356Y-768644D01*
X5298644Y-768644D01*
X5298644Y-839356D01*
X5369356Y-839356D01*
X5369356Y-1908356D02*
X5369356Y-1837644D01*
X5298644Y-1837644D01*
X5298644Y-1908356D01*
X5369356Y-1908356D01*
X5369356Y-2162356D02*
X5369356Y-2091644D01*
X5298644Y-2091644D01*
X5298644Y-2162356D01*
X5369356Y-2162356D01*
X5623356Y-331356D02*
X5623356Y-260644D01*
X5552644Y-260644D01*
X5552644Y-331356D01*
X5623356Y-331356D01*
X5623356Y-839356D02*
X5623356Y-768644D01*
X5552644Y-768644D01*
X5552644Y-839356D01*
X5623356Y-839356D01*
X5623356Y-1908356D02*
X5623356Y-1837644D01*
X5552644Y-1837644D01*
X5552644Y-1908356D01*
X5623356Y-1908356D01*
X5623356Y-2162356D02*
X5623356Y-2091644D01*
X5552644Y-2091644D01*
X5552644Y-2162356D01*
X5623356Y-2162356D01*
X5877356Y-331356D02*
X5877356Y-260644D01*
X5806644Y-260644D01*
X5806644Y-331356D01*
X5877356Y-331356D01*
X5877356Y-839356D02*
X5877356Y-768644D01*
X5806644Y-768644D01*
X5806644Y-839356D01*
X5877356Y-839356D01*
X5877356Y-1908356D02*
X5877356Y-1837644D01*
X5806644Y-1837644D01*
X5806644Y-1908356D01*
X5877356Y-1908356D01*
X5877356Y-2162356D02*
X5877356Y-2091644D01*
X5806644Y-2091644D01*
X5806644Y-2162356D01*
X5877356Y-2162356D01*
X6131356Y-331356D02*
X6131356Y-260644D01*
X6060644Y-260644D01*
X6060644Y-331356D01*
X6131356Y-331356D01*
X6131356Y-839356D02*
X6131356Y-768644D01*
X6060644Y-768644D01*
X6060644Y-839356D01*
X6131356Y-839356D01*
X6131356Y-1908356D02*
X6131356Y-1837644D01*
X6060644Y-1837644D01*
X6060644Y-1908356D01*
X6131356Y-1908356D01*
X6131356Y-2162356D02*
X6131356Y-2091644D01*
X6060644Y-2091644D01*
X6060644Y-2162356D01*
X6131356Y-2162356D01*
X6385356Y-331356D02*
X6385356Y-260644D01*
X6314644Y-260644D01*
X6314644Y-331356D01*
X6385356Y-331356D01*
X6385356Y-839356D02*
X6385356Y-768644D01*
X6314644Y-768644D01*
X6314644Y-839356D01*
X6385356Y-839356D01*
X6385356Y-1908356D02*
X6385356Y-1837644D01*
X6314644Y-1837644D01*
X6314644Y-1908356D01*
X6385356Y-1908356D01*
X6385356Y-2162356D02*
X6385356Y-2091644D01*
X6314644Y-2091644D01*
X6314644Y-2162356D01*
X6385356Y-2162356D01*
X6639356Y-331356D02*
X6639356Y-260644D01*
X6568644Y-260644D01*
X6568644Y-331356D01*
X6639356Y-331356D01*
X6639356Y-839356D02*
X6639356Y-768644D01*
X6568644Y-768644D01*
X6568644Y-839356D01*
X6639356Y-839356D01*
X6639356Y-1908356D02*
X6639356Y-1837644D01*
X6568644Y-1837644D01*
X6568644Y-1908356D01*
X6639356Y-1908356D01*
X6639356Y-2162356D02*
X6639356Y-2091644D01*
X6568644Y-2091644D01*
X6568644Y-2162356D01*
X6639356Y-2162356D01*
X6893356Y-331356D02*
X6893356Y-260644D01*
X6822644Y-260644D01*
X6822644Y-331356D01*
X6893356Y-331356D01*
X6893356Y-839356D02*
X6893356Y-768644D01*
X6822644Y-768644D01*
X6822644Y-839356D01*
X6893356Y-839356D01*
X6893356Y-1908356D02*
X6893356Y-1837644D01*
X6822644Y-1837644D01*
X6822644Y-1908356D01*
X6893356Y-1908356D01*
X6893356Y-2162356D02*
X6893356Y-2091644D01*
X6822644Y-2091644D01*
X6822644Y-2162356D01*
X6893356Y-2162356D01*
X7147356Y-331356D02*
X7147356Y-260644D01*
X7076644Y-260644D01*
X7076644Y-331356D01*
X7147356Y-331356D01*
X7147356Y-839356D02*
X7147356Y-768644D01*
X7076644Y-768644D01*
X7076644Y-839356D01*
X7147356Y-839356D01*
X7147356Y-1908356D02*
X7147356Y-1837644D01*
X7076644Y-1837644D01*
X7076644Y-1908356D01*
X7147356Y-1908356D01*
X7147356Y-2162356D02*
X7147356Y-2091644D01*
X7076644Y-2091644D01*
X7076644Y-2162356D01*
X7147356Y-2162356D01*
X7401356Y-331356D02*
X7401356Y-260644D01*
X7330644Y-260644D01*
X7330644Y-331356D01*
X7401356Y-331356D01*
X7401356Y-839356D02*
X7401356Y-768644D01*
X7330644Y-768644D01*
X7330644Y-839356D01*
X7401356Y-839356D01*
X7401356Y-1908356D02*
X7401356Y-1837644D01*
X7330644Y-1837644D01*
X7330644Y-1908356D01*
X7401356Y-1908356D01*
X7401356Y-2162356D02*
X7401356Y-2091644D01*
X7330644Y-2091644D01*
X7330644Y-2162356D01*
X7401356Y-2162356D01*
D11*
X255777Y-4816484D02*
X255777Y-4616484D01*
X255777Y-4616484D02*
X303396Y-4616484D01*
X303396Y-4616484D02*
X331967Y-4626008D01*
X331967Y-4626008D02*
X351015Y-4645055D01*
X351015Y-4645055D02*
X360539Y-4664103D01*
X360539Y-4664103D02*
X370062Y-4702198D01*
X370062Y-4702198D02*
X370062Y-4730770D01*
X370062Y-4730770D02*
X360539Y-4768865D01*
X360539Y-4768865D02*
X351015Y-4787912D01*
X351015Y-4787912D02*
X331967Y-4806960D01*
X331967Y-4806960D02*
X303396Y-4816484D01*
X303396Y-4816484D02*
X255777Y-4816484D01*
X455777Y-4816484D02*
X455777Y-4683150D01*
X455777Y-4721246D02*
X465301Y-4702198D01*
X465301Y-4702198D02*
X474824Y-4692674D01*
X474824Y-4692674D02*
X493872Y-4683150D01*
X493872Y-4683150D02*
X512920Y-4683150D01*
X579586Y-4816484D02*
X579586Y-4683150D01*
X579586Y-4616484D02*
X570063Y-4626008D01*
X570063Y-4626008D02*
X579586Y-4635531D01*
X579586Y-4635531D02*
X589110Y-4626008D01*
X589110Y-4626008D02*
X579586Y-4616484D01*
X579586Y-4616484D02*
X579586Y-4635531D01*
X703396Y-4816484D02*
X684348Y-4806960D01*
X684348Y-4806960D02*
X674824Y-4787912D01*
X674824Y-4787912D02*
X674824Y-4616484D01*
X808158Y-4816484D02*
X789110Y-4806960D01*
X789110Y-4806960D02*
X779586Y-4787912D01*
X779586Y-4787912D02*
X779586Y-4616484D01*
X1036729Y-4816484D02*
X1036729Y-4616484D01*
X1036729Y-4616484D02*
X1103396Y-4759341D01*
X1103396Y-4759341D02*
X1170063Y-4616484D01*
X1170063Y-4616484D02*
X1170063Y-4816484D01*
X1351015Y-4816484D02*
X1351015Y-4711722D01*
X1351015Y-4711722D02*
X1341491Y-4692674D01*
X1341491Y-4692674D02*
X1322444Y-4683150D01*
X1322444Y-4683150D02*
X1284348Y-4683150D01*
X1284348Y-4683150D02*
X1265301Y-4692674D01*
X1351015Y-4806960D02*
X1331967Y-4816484D01*
X1331967Y-4816484D02*
X1284348Y-4816484D01*
X1284348Y-4816484D02*
X1265301Y-4806960D01*
X1265301Y-4806960D02*
X1255777Y-4787912D01*
X1255777Y-4787912D02*
X1255777Y-4768865D01*
X1255777Y-4768865D02*
X1265301Y-4749817D01*
X1265301Y-4749817D02*
X1284348Y-4740293D01*
X1284348Y-4740293D02*
X1331967Y-4740293D01*
X1331967Y-4740293D02*
X1351015Y-4730770D01*
X1446253Y-4683150D02*
X1446253Y-4883150D01*
X1446253Y-4692674D02*
X1465301Y-4683150D01*
X1465301Y-4683150D02*
X1503396Y-4683150D01*
X1503396Y-4683150D02*
X1522443Y-4692674D01*
X1522443Y-4692674D02*
X1531967Y-4702198D01*
X1531967Y-4702198D02*
X1541491Y-4721246D01*
X1541491Y-4721246D02*
X1541491Y-4778389D01*
X1541491Y-4778389D02*
X1531967Y-4797436D01*
X1531967Y-4797436D02*
X1522443Y-4806960D01*
X1522443Y-4806960D02*
X1503396Y-4816484D01*
X1503396Y-4816484D02*
X1465301Y-4816484D01*
X1465301Y-4816484D02*
X1446253Y-4806960D01*
X1627205Y-4797436D02*
X1636729Y-4806960D01*
X1636729Y-4806960D02*
X1627205Y-4816484D01*
X1627205Y-4816484D02*
X1617682Y-4806960D01*
X1617682Y-4806960D02*
X1627205Y-4797436D01*
X1627205Y-4797436D02*
X1627205Y-4816484D01*
X1627205Y-4692674D02*
X1636729Y-4702198D01*
X1636729Y-4702198D02*
X1627205Y-4711722D01*
X1627205Y-4711722D02*
X1617682Y-4702198D01*
X1617682Y-4702198D02*
X1627205Y-4692674D01*
X1627205Y-4692674D02*
X1627205Y-4711722D01*
D10*
X-40000Y-5127500D02*
X-5000Y-5162500D01*
X-5000Y-5127500D02*
X-40000Y-5162500D01*
D11*
X293872Y-5036484D02*
X312920Y-5036484D01*
X312920Y-5036484D02*
X331967Y-5046008D01*
X331967Y-5046008D02*
X341491Y-5055531D01*
X341491Y-5055531D02*
X351015Y-5074579D01*
X351015Y-5074579D02*
X360539Y-5112674D01*
X360539Y-5112674D02*
X360539Y-5160293D01*
X360539Y-5160293D02*
X351015Y-5198389D01*
X351015Y-5198389D02*
X341491Y-5217436D01*
X341491Y-5217436D02*
X331967Y-5226960D01*
X331967Y-5226960D02*
X312920Y-5236484D01*
X312920Y-5236484D02*
X293872Y-5236484D01*
X293872Y-5236484D02*
X274824Y-5226960D01*
X274824Y-5226960D02*
X265301Y-5217436D01*
X265301Y-5217436D02*
X255777Y-5198389D01*
X255777Y-5198389D02*
X246253Y-5160293D01*
X246253Y-5160293D02*
X246253Y-5112674D01*
X246253Y-5112674D02*
X255777Y-5074579D01*
X255777Y-5074579D02*
X265301Y-5055531D01*
X265301Y-5055531D02*
X274824Y-5046008D01*
X274824Y-5046008D02*
X293872Y-5036484D01*
X455777Y-5226960D02*
X455777Y-5236484D01*
X455777Y-5236484D02*
X446253Y-5255531D01*
X446253Y-5255531D02*
X436729Y-5265055D01*
X522443Y-5036484D02*
X646253Y-5036484D01*
X646253Y-5036484D02*
X579586Y-5112674D01*
X579586Y-5112674D02*
X608158Y-5112674D01*
X608158Y-5112674D02*
X627205Y-5122198D01*
X627205Y-5122198D02*
X636729Y-5131722D01*
X636729Y-5131722D02*
X646253Y-5150770D01*
X646253Y-5150770D02*
X646253Y-5198389D01*
X646253Y-5198389D02*
X636729Y-5217436D01*
X636729Y-5217436D02*
X627205Y-5226960D01*
X627205Y-5226960D02*
X608158Y-5236484D01*
X608158Y-5236484D02*
X551015Y-5236484D01*
X551015Y-5236484D02*
X531967Y-5226960D01*
X531967Y-5226960D02*
X522443Y-5217436D01*
X827205Y-5036484D02*
X731967Y-5036484D01*
X731967Y-5036484D02*
X722443Y-5131722D01*
X722443Y-5131722D02*
X731967Y-5122198D01*
X731967Y-5122198D02*
X751015Y-5112674D01*
X751015Y-5112674D02*
X798634Y-5112674D01*
X798634Y-5112674D02*
X817682Y-5122198D01*
X817682Y-5122198D02*
X827205Y-5131722D01*
X827205Y-5131722D02*
X836729Y-5150770D01*
X836729Y-5150770D02*
X836729Y-5198389D01*
X836729Y-5198389D02*
X827205Y-5217436D01*
X827205Y-5217436D02*
X817682Y-5226960D01*
X817682Y-5226960D02*
X798634Y-5236484D01*
X798634Y-5236484D02*
X751015Y-5236484D01*
X751015Y-5236484D02*
X731967Y-5226960D01*
X731967Y-5226960D02*
X722443Y-5217436D01*
X960539Y-5036484D02*
X979586Y-5036484D01*
X979586Y-5036484D02*
X998634Y-5046008D01*
X998634Y-5046008D02*
X1008158Y-5055531D01*
X1008158Y-5055531D02*
X1017682Y-5074579D01*
X1017682Y-5074579D02*
X1027205Y-5112674D01*
X1027205Y-5112674D02*
X1027205Y-5160293D01*
X1027205Y-5160293D02*
X1017682Y-5198389D01*
X1017682Y-5198389D02*
X1008158Y-5217436D01*
X1008158Y-5217436D02*
X998634Y-5226960D01*
X998634Y-5226960D02*
X979586Y-5236484D01*
X979586Y-5236484D02*
X960539Y-5236484D01*
X960539Y-5236484D02*
X941491Y-5226960D01*
X941491Y-5226960D02*
X931967Y-5217436D01*
X931967Y-5217436D02*
X922443Y-5198389D01*
X922443Y-5198389D02*
X912920Y-5160293D01*
X912920Y-5160293D02*
X912920Y-5112674D01*
X912920Y-5112674D02*
X922443Y-5074579D01*
X922443Y-5074579D02*
X931967Y-5055531D01*
X931967Y-5055531D02*
X941491Y-5046008D01*
X941491Y-5046008D02*
X960539Y-5036484D01*
X1112920Y-5236484D02*
X1112920Y-5103150D01*
X1112920Y-5122198D02*
X1122444Y-5112674D01*
X1122444Y-5112674D02*
X1141491Y-5103150D01*
X1141491Y-5103150D02*
X1170063Y-5103150D01*
X1170063Y-5103150D02*
X1189110Y-5112674D01*
X1189110Y-5112674D02*
X1198634Y-5131722D01*
X1198634Y-5131722D02*
X1198634Y-5236484D01*
X1198634Y-5131722D02*
X1208158Y-5112674D01*
X1208158Y-5112674D02*
X1227205Y-5103150D01*
X1227205Y-5103150D02*
X1255777Y-5103150D01*
X1255777Y-5103150D02*
X1274825Y-5112674D01*
X1274825Y-5112674D02*
X1284348Y-5131722D01*
X1284348Y-5131722D02*
X1284348Y-5236484D01*
X1379586Y-5236484D02*
X1379586Y-5103150D01*
X1379586Y-5122198D02*
X1389110Y-5112674D01*
X1389110Y-5112674D02*
X1408158Y-5103150D01*
X1408158Y-5103150D02*
X1436729Y-5103150D01*
X1436729Y-5103150D02*
X1455777Y-5112674D01*
X1455777Y-5112674D02*
X1465301Y-5131722D01*
X1465301Y-5131722D02*
X1465301Y-5236484D01*
X1465301Y-5131722D02*
X1474824Y-5112674D01*
X1474824Y-5112674D02*
X1493872Y-5103150D01*
X1493872Y-5103150D02*
X1522443Y-5103150D01*
X1522443Y-5103150D02*
X1541491Y-5112674D01*
X1541491Y-5112674D02*
X1551015Y-5131722D01*
X1551015Y-5131722D02*
X1551015Y-5236484D01*
X1941491Y-5026960D02*
X1770063Y-5284103D01*
X2198634Y-5036484D02*
X2217682Y-5036484D01*
X2217682Y-5036484D02*
X2236729Y-5046008D01*
X2236729Y-5046008D02*
X2246253Y-5055531D01*
X2246253Y-5055531D02*
X2255777Y-5074579D01*
X2255777Y-5074579D02*
X2265301Y-5112674D01*
X2265301Y-5112674D02*
X2265301Y-5160293D01*
X2265301Y-5160293D02*
X2255777Y-5198389D01*
X2255777Y-5198389D02*
X2246253Y-5217436D01*
X2246253Y-5217436D02*
X2236729Y-5226960D01*
X2236729Y-5226960D02*
X2217682Y-5236484D01*
X2217682Y-5236484D02*
X2198634Y-5236484D01*
X2198634Y-5236484D02*
X2179587Y-5226960D01*
X2179587Y-5226960D02*
X2170063Y-5217436D01*
X2170063Y-5217436D02*
X2160539Y-5198389D01*
X2160539Y-5198389D02*
X2151015Y-5160293D01*
X2151015Y-5160293D02*
X2151015Y-5112674D01*
X2151015Y-5112674D02*
X2160539Y-5074579D01*
X2160539Y-5074579D02*
X2170063Y-5055531D01*
X2170063Y-5055531D02*
X2179587Y-5046008D01*
X2179587Y-5046008D02*
X2198634Y-5036484D01*
X2360539Y-5226960D02*
X2360539Y-5236484D01*
X2360539Y-5236484D02*
X2351015Y-5255531D01*
X2351015Y-5255531D02*
X2341491Y-5265055D01*
X2484348Y-5036484D02*
X2503396Y-5036484D01*
X2503396Y-5036484D02*
X2522444Y-5046008D01*
X2522444Y-5046008D02*
X2531968Y-5055531D01*
X2531968Y-5055531D02*
X2541491Y-5074579D01*
X2541491Y-5074579D02*
X2551015Y-5112674D01*
X2551015Y-5112674D02*
X2551015Y-5160293D01*
X2551015Y-5160293D02*
X2541491Y-5198389D01*
X2541491Y-5198389D02*
X2531968Y-5217436D01*
X2531968Y-5217436D02*
X2522444Y-5226960D01*
X2522444Y-5226960D02*
X2503396Y-5236484D01*
X2503396Y-5236484D02*
X2484348Y-5236484D01*
X2484348Y-5236484D02*
X2465301Y-5226960D01*
X2465301Y-5226960D02*
X2455777Y-5217436D01*
X2455777Y-5217436D02*
X2446253Y-5198389D01*
X2446253Y-5198389D02*
X2436729Y-5160293D01*
X2436729Y-5160293D02*
X2436729Y-5112674D01*
X2436729Y-5112674D02*
X2446253Y-5074579D01*
X2446253Y-5074579D02*
X2455777Y-5055531D01*
X2455777Y-5055531D02*
X2465301Y-5046008D01*
X2465301Y-5046008D02*
X2484348Y-5036484D01*
X2741491Y-5236484D02*
X2627206Y-5236484D01*
X2684348Y-5236484D02*
X2684348Y-5036484D01*
X2684348Y-5036484D02*
X2665301Y-5065055D01*
X2665301Y-5065055D02*
X2646253Y-5084103D01*
X2646253Y-5084103D02*
X2627206Y-5093627D01*
X2808158Y-5036484D02*
X2931967Y-5036484D01*
X2931967Y-5036484D02*
X2865301Y-5112674D01*
X2865301Y-5112674D02*
X2893872Y-5112674D01*
X2893872Y-5112674D02*
X2912920Y-5122198D01*
X2912920Y-5122198D02*
X2922444Y-5131722D01*
X2922444Y-5131722D02*
X2931967Y-5150770D01*
X2931967Y-5150770D02*
X2931967Y-5198389D01*
X2931967Y-5198389D02*
X2922444Y-5217436D01*
X2922444Y-5217436D02*
X2912920Y-5226960D01*
X2912920Y-5226960D02*
X2893872Y-5236484D01*
X2893872Y-5236484D02*
X2836729Y-5236484D01*
X2836729Y-5236484D02*
X2817682Y-5226960D01*
X2817682Y-5226960D02*
X2808158Y-5217436D01*
X3046253Y-5122198D02*
X3027206Y-5112674D01*
X3027206Y-5112674D02*
X3017682Y-5103150D01*
X3017682Y-5103150D02*
X3008158Y-5084103D01*
X3008158Y-5084103D02*
X3008158Y-5074579D01*
X3008158Y-5074579D02*
X3017682Y-5055531D01*
X3017682Y-5055531D02*
X3027206Y-5046008D01*
X3027206Y-5046008D02*
X3046253Y-5036484D01*
X3046253Y-5036484D02*
X3084348Y-5036484D01*
X3084348Y-5036484D02*
X3103396Y-5046008D01*
X3103396Y-5046008D02*
X3112920Y-5055531D01*
X3112920Y-5055531D02*
X3122444Y-5074579D01*
X3122444Y-5074579D02*
X3122444Y-5084103D01*
X3122444Y-5084103D02*
X3112920Y-5103150D01*
X3112920Y-5103150D02*
X3103396Y-5112674D01*
X3103396Y-5112674D02*
X3084348Y-5122198D01*
X3084348Y-5122198D02*
X3046253Y-5122198D01*
X3046253Y-5122198D02*
X3027206Y-5131722D01*
X3027206Y-5131722D02*
X3017682Y-5141246D01*
X3017682Y-5141246D02*
X3008158Y-5160293D01*
X3008158Y-5160293D02*
X3008158Y-5198389D01*
X3008158Y-5198389D02*
X3017682Y-5217436D01*
X3017682Y-5217436D02*
X3027206Y-5226960D01*
X3027206Y-5226960D02*
X3046253Y-5236484D01*
X3046253Y-5236484D02*
X3084348Y-5236484D01*
X3084348Y-5236484D02*
X3103396Y-5226960D01*
X3103396Y-5226960D02*
X3112920Y-5217436D01*
X3112920Y-5217436D02*
X3122444Y-5198389D01*
X3122444Y-5198389D02*
X3122444Y-5160293D01*
X3122444Y-5160293D02*
X3112920Y-5141246D01*
X3112920Y-5141246D02*
X3103396Y-5131722D01*
X3103396Y-5131722D02*
X3084348Y-5122198D01*
X3198634Y-5036484D02*
X3198634Y-5074579D01*
X3274825Y-5036484D02*
X3274825Y-5074579D01*
X3570063Y-5312674D02*
X3560539Y-5303150D01*
X3560539Y-5303150D02*
X3541491Y-5274579D01*
X3541491Y-5274579D02*
X3531968Y-5255531D01*
X3531968Y-5255531D02*
X3522444Y-5226960D01*
X3522444Y-5226960D02*
X3512920Y-5179341D01*
X3512920Y-5179341D02*
X3512920Y-5141246D01*
X3512920Y-5141246D02*
X3522444Y-5093627D01*
X3522444Y-5093627D02*
X3531968Y-5065055D01*
X3531968Y-5065055D02*
X3541491Y-5046008D01*
X3541491Y-5046008D02*
X3560539Y-5017436D01*
X3560539Y-5017436D02*
X3570063Y-5007912D01*
X3751015Y-5236484D02*
X3636729Y-5236484D01*
X3693872Y-5236484D02*
X3693872Y-5036484D01*
X3693872Y-5036484D02*
X3674825Y-5065055D01*
X3674825Y-5065055D02*
X3655777Y-5084103D01*
X3655777Y-5084103D02*
X3636729Y-5093627D01*
X3941491Y-5236484D02*
X3827206Y-5236484D01*
X3884348Y-5236484D02*
X3884348Y-5036484D01*
X3884348Y-5036484D02*
X3865301Y-5065055D01*
X3865301Y-5065055D02*
X3846253Y-5084103D01*
X3846253Y-5084103D02*
X3827206Y-5093627D01*
X4179587Y-5236484D02*
X4179587Y-5036484D01*
X4265301Y-5236484D02*
X4265301Y-5131722D01*
X4265301Y-5131722D02*
X4255777Y-5112674D01*
X4255777Y-5112674D02*
X4236730Y-5103150D01*
X4236730Y-5103150D02*
X4208158Y-5103150D01*
X4208158Y-5103150D02*
X4189110Y-5112674D01*
X4189110Y-5112674D02*
X4179587Y-5122198D01*
X4389111Y-5236484D02*
X4370063Y-5226960D01*
X4370063Y-5226960D02*
X4360539Y-5217436D01*
X4360539Y-5217436D02*
X4351015Y-5198389D01*
X4351015Y-5198389D02*
X4351015Y-5141246D01*
X4351015Y-5141246D02*
X4360539Y-5122198D01*
X4360539Y-5122198D02*
X4370063Y-5112674D01*
X4370063Y-5112674D02*
X4389111Y-5103150D01*
X4389111Y-5103150D02*
X4417682Y-5103150D01*
X4417682Y-5103150D02*
X4436730Y-5112674D01*
X4436730Y-5112674D02*
X4446253Y-5122198D01*
X4446253Y-5122198D02*
X4455777Y-5141246D01*
X4455777Y-5141246D02*
X4455777Y-5198389D01*
X4455777Y-5198389D02*
X4446253Y-5217436D01*
X4446253Y-5217436D02*
X4436730Y-5226960D01*
X4436730Y-5226960D02*
X4417682Y-5236484D01*
X4417682Y-5236484D02*
X4389111Y-5236484D01*
X4570063Y-5236484D02*
X4551015Y-5226960D01*
X4551015Y-5226960D02*
X4541492Y-5207912D01*
X4541492Y-5207912D02*
X4541492Y-5036484D01*
X4722444Y-5226960D02*
X4703396Y-5236484D01*
X4703396Y-5236484D02*
X4665301Y-5236484D01*
X4665301Y-5236484D02*
X4646253Y-5226960D01*
X4646253Y-5226960D02*
X4636730Y-5207912D01*
X4636730Y-5207912D02*
X4636730Y-5131722D01*
X4636730Y-5131722D02*
X4646253Y-5112674D01*
X4646253Y-5112674D02*
X4665301Y-5103150D01*
X4665301Y-5103150D02*
X4703396Y-5103150D01*
X4703396Y-5103150D02*
X4722444Y-5112674D01*
X4722444Y-5112674D02*
X4731968Y-5131722D01*
X4731968Y-5131722D02*
X4731968Y-5150770D01*
X4731968Y-5150770D02*
X4636730Y-5169817D01*
X4808158Y-5226960D02*
X4827206Y-5236484D01*
X4827206Y-5236484D02*
X4865301Y-5236484D01*
X4865301Y-5236484D02*
X4884349Y-5226960D01*
X4884349Y-5226960D02*
X4893873Y-5207912D01*
X4893873Y-5207912D02*
X4893873Y-5198389D01*
X4893873Y-5198389D02*
X4884349Y-5179341D01*
X4884349Y-5179341D02*
X4865301Y-5169817D01*
X4865301Y-5169817D02*
X4836730Y-5169817D01*
X4836730Y-5169817D02*
X4817682Y-5160293D01*
X4817682Y-5160293D02*
X4808158Y-5141246D01*
X4808158Y-5141246D02*
X4808158Y-5131722D01*
X4808158Y-5131722D02*
X4817682Y-5112674D01*
X4817682Y-5112674D02*
X4836730Y-5103150D01*
X4836730Y-5103150D02*
X4865301Y-5103150D01*
X4865301Y-5103150D02*
X4884349Y-5112674D01*
X4960539Y-5312674D02*
X4970063Y-5303150D01*
X4970063Y-5303150D02*
X4989111Y-5274579D01*
X4989111Y-5274579D02*
X4998634Y-5255531D01*
X4998634Y-5255531D02*
X5008158Y-5226960D01*
X5008158Y-5226960D02*
X5017682Y-5179341D01*
X5017682Y-5179341D02*
X5017682Y-5141246D01*
X5017682Y-5141246D02*
X5008158Y-5093627D01*
X5008158Y-5093627D02*
X4998634Y-5065055D01*
X4998634Y-5065055D02*
X4989111Y-5046008D01*
X4989111Y-5046008D02*
X4970063Y-5017436D01*
X4970063Y-5017436D02*
X4960539Y-5007912D01*
D10*
X-5000Y-5409000D02*
G75*
G02*
X-50000Y-5409000I-22500J0D01*
G01*
X-50000Y-5409000D02*
G75*
G02*
X-5000Y-5409000I22500J0D01*
G01*
D11*
X293872Y-5300484D02*
X312920Y-5300484D01*
X312920Y-5300484D02*
X331967Y-5310008D01*
X331967Y-5310008D02*
X341491Y-5319531D01*
X341491Y-5319531D02*
X351015Y-5338579D01*
X351015Y-5338579D02*
X360539Y-5376674D01*
X360539Y-5376674D02*
X360539Y-5424293D01*
X360539Y-5424293D02*
X351015Y-5462389D01*
X351015Y-5462389D02*
X341491Y-5481436D01*
X341491Y-5481436D02*
X331967Y-5490960D01*
X331967Y-5490960D02*
X312920Y-5500484D01*
X312920Y-5500484D02*
X293872Y-5500484D01*
X293872Y-5500484D02*
X274824Y-5490960D01*
X274824Y-5490960D02*
X265301Y-5481436D01*
X265301Y-5481436D02*
X255777Y-5462389D01*
X255777Y-5462389D02*
X246253Y-5424293D01*
X246253Y-5424293D02*
X246253Y-5376674D01*
X246253Y-5376674D02*
X255777Y-5338579D01*
X255777Y-5338579D02*
X265301Y-5319531D01*
X265301Y-5319531D02*
X274824Y-5310008D01*
X274824Y-5310008D02*
X293872Y-5300484D01*
X455777Y-5490960D02*
X455777Y-5500484D01*
X455777Y-5500484D02*
X446253Y-5519531D01*
X446253Y-5519531D02*
X436729Y-5529055D01*
X627205Y-5367150D02*
X627205Y-5500484D01*
X579586Y-5290960D02*
X531967Y-5433817D01*
X531967Y-5433817D02*
X655777Y-5433817D01*
X827205Y-5300484D02*
X731967Y-5300484D01*
X731967Y-5300484D02*
X722443Y-5395722D01*
X722443Y-5395722D02*
X731967Y-5386198D01*
X731967Y-5386198D02*
X751015Y-5376674D01*
X751015Y-5376674D02*
X798634Y-5376674D01*
X798634Y-5376674D02*
X817682Y-5386198D01*
X817682Y-5386198D02*
X827205Y-5395722D01*
X827205Y-5395722D02*
X836729Y-5414770D01*
X836729Y-5414770D02*
X836729Y-5462389D01*
X836729Y-5462389D02*
X827205Y-5481436D01*
X827205Y-5481436D02*
X817682Y-5490960D01*
X817682Y-5490960D02*
X798634Y-5500484D01*
X798634Y-5500484D02*
X751015Y-5500484D01*
X751015Y-5500484D02*
X731967Y-5490960D01*
X731967Y-5490960D02*
X722443Y-5481436D01*
X960539Y-5300484D02*
X979586Y-5300484D01*
X979586Y-5300484D02*
X998634Y-5310008D01*
X998634Y-5310008D02*
X1008158Y-5319531D01*
X1008158Y-5319531D02*
X1017682Y-5338579D01*
X1017682Y-5338579D02*
X1027205Y-5376674D01*
X1027205Y-5376674D02*
X1027205Y-5424293D01*
X1027205Y-5424293D02*
X1017682Y-5462389D01*
X1017682Y-5462389D02*
X1008158Y-5481436D01*
X1008158Y-5481436D02*
X998634Y-5490960D01*
X998634Y-5490960D02*
X979586Y-5500484D01*
X979586Y-5500484D02*
X960539Y-5500484D01*
X960539Y-5500484D02*
X941491Y-5490960D01*
X941491Y-5490960D02*
X931967Y-5481436D01*
X931967Y-5481436D02*
X922443Y-5462389D01*
X922443Y-5462389D02*
X912920Y-5424293D01*
X912920Y-5424293D02*
X912920Y-5376674D01*
X912920Y-5376674D02*
X922443Y-5338579D01*
X922443Y-5338579D02*
X931967Y-5319531D01*
X931967Y-5319531D02*
X941491Y-5310008D01*
X941491Y-5310008D02*
X960539Y-5300484D01*
X1112920Y-5500484D02*
X1112920Y-5367150D01*
X1112920Y-5386198D02*
X1122444Y-5376674D01*
X1122444Y-5376674D02*
X1141491Y-5367150D01*
X1141491Y-5367150D02*
X1170063Y-5367150D01*
X1170063Y-5367150D02*
X1189110Y-5376674D01*
X1189110Y-5376674D02*
X1198634Y-5395722D01*
X1198634Y-5395722D02*
X1198634Y-5500484D01*
X1198634Y-5395722D02*
X1208158Y-5376674D01*
X1208158Y-5376674D02*
X1227205Y-5367150D01*
X1227205Y-5367150D02*
X1255777Y-5367150D01*
X1255777Y-5367150D02*
X1274825Y-5376674D01*
X1274825Y-5376674D02*
X1284348Y-5395722D01*
X1284348Y-5395722D02*
X1284348Y-5500484D01*
X1379586Y-5500484D02*
X1379586Y-5367150D01*
X1379586Y-5386198D02*
X1389110Y-5376674D01*
X1389110Y-5376674D02*
X1408158Y-5367150D01*
X1408158Y-5367150D02*
X1436729Y-5367150D01*
X1436729Y-5367150D02*
X1455777Y-5376674D01*
X1455777Y-5376674D02*
X1465301Y-5395722D01*
X1465301Y-5395722D02*
X1465301Y-5500484D01*
X1465301Y-5395722D02*
X1474824Y-5376674D01*
X1474824Y-5376674D02*
X1493872Y-5367150D01*
X1493872Y-5367150D02*
X1522443Y-5367150D01*
X1522443Y-5367150D02*
X1541491Y-5376674D01*
X1541491Y-5376674D02*
X1551015Y-5395722D01*
X1551015Y-5395722D02*
X1551015Y-5500484D01*
X1941491Y-5290960D02*
X1770063Y-5548103D01*
X2198634Y-5300484D02*
X2217682Y-5300484D01*
X2217682Y-5300484D02*
X2236729Y-5310008D01*
X2236729Y-5310008D02*
X2246253Y-5319531D01*
X2246253Y-5319531D02*
X2255777Y-5338579D01*
X2255777Y-5338579D02*
X2265301Y-5376674D01*
X2265301Y-5376674D02*
X2265301Y-5424293D01*
X2265301Y-5424293D02*
X2255777Y-5462389D01*
X2255777Y-5462389D02*
X2246253Y-5481436D01*
X2246253Y-5481436D02*
X2236729Y-5490960D01*
X2236729Y-5490960D02*
X2217682Y-5500484D01*
X2217682Y-5500484D02*
X2198634Y-5500484D01*
X2198634Y-5500484D02*
X2179587Y-5490960D01*
X2179587Y-5490960D02*
X2170063Y-5481436D01*
X2170063Y-5481436D02*
X2160539Y-5462389D01*
X2160539Y-5462389D02*
X2151015Y-5424293D01*
X2151015Y-5424293D02*
X2151015Y-5376674D01*
X2151015Y-5376674D02*
X2160539Y-5338579D01*
X2160539Y-5338579D02*
X2170063Y-5319531D01*
X2170063Y-5319531D02*
X2179587Y-5310008D01*
X2179587Y-5310008D02*
X2198634Y-5300484D01*
X2360539Y-5490960D02*
X2360539Y-5500484D01*
X2360539Y-5500484D02*
X2351015Y-5519531D01*
X2351015Y-5519531D02*
X2341491Y-5529055D01*
X2484348Y-5300484D02*
X2503396Y-5300484D01*
X2503396Y-5300484D02*
X2522444Y-5310008D01*
X2522444Y-5310008D02*
X2531968Y-5319531D01*
X2531968Y-5319531D02*
X2541491Y-5338579D01*
X2541491Y-5338579D02*
X2551015Y-5376674D01*
X2551015Y-5376674D02*
X2551015Y-5424293D01*
X2551015Y-5424293D02*
X2541491Y-5462389D01*
X2541491Y-5462389D02*
X2531968Y-5481436D01*
X2531968Y-5481436D02*
X2522444Y-5490960D01*
X2522444Y-5490960D02*
X2503396Y-5500484D01*
X2503396Y-5500484D02*
X2484348Y-5500484D01*
X2484348Y-5500484D02*
X2465301Y-5490960D01*
X2465301Y-5490960D02*
X2455777Y-5481436D01*
X2455777Y-5481436D02*
X2446253Y-5462389D01*
X2446253Y-5462389D02*
X2436729Y-5424293D01*
X2436729Y-5424293D02*
X2436729Y-5376674D01*
X2436729Y-5376674D02*
X2446253Y-5338579D01*
X2446253Y-5338579D02*
X2455777Y-5319531D01*
X2455777Y-5319531D02*
X2465301Y-5310008D01*
X2465301Y-5310008D02*
X2484348Y-5300484D01*
X2741491Y-5500484D02*
X2627206Y-5500484D01*
X2684348Y-5500484D02*
X2684348Y-5300484D01*
X2684348Y-5300484D02*
X2665301Y-5329055D01*
X2665301Y-5329055D02*
X2646253Y-5348103D01*
X2646253Y-5348103D02*
X2627206Y-5357627D01*
X2808158Y-5300484D02*
X2941491Y-5300484D01*
X2941491Y-5300484D02*
X2855777Y-5500484D01*
X2998634Y-5300484D02*
X3131967Y-5300484D01*
X3131967Y-5300484D02*
X3046253Y-5500484D01*
X3198634Y-5300484D02*
X3198634Y-5338579D01*
X3274825Y-5300484D02*
X3274825Y-5338579D01*
X3570063Y-5576674D02*
X3560539Y-5567150D01*
X3560539Y-5567150D02*
X3541491Y-5538579D01*
X3541491Y-5538579D02*
X3531968Y-5519531D01*
X3531968Y-5519531D02*
X3522444Y-5490960D01*
X3522444Y-5490960D02*
X3512920Y-5443341D01*
X3512920Y-5443341D02*
X3512920Y-5405246D01*
X3512920Y-5405246D02*
X3522444Y-5357627D01*
X3522444Y-5357627D02*
X3531968Y-5329055D01*
X3531968Y-5329055D02*
X3541491Y-5310008D01*
X3541491Y-5310008D02*
X3560539Y-5281436D01*
X3560539Y-5281436D02*
X3570063Y-5271912D01*
X3751015Y-5500484D02*
X3636729Y-5500484D01*
X3693872Y-5500484D02*
X3693872Y-5300484D01*
X3693872Y-5300484D02*
X3674825Y-5329055D01*
X3674825Y-5329055D02*
X3655777Y-5348103D01*
X3655777Y-5348103D02*
X3636729Y-5357627D01*
X3989110Y-5500484D02*
X3989110Y-5300484D01*
X4074825Y-5500484D02*
X4074825Y-5395722D01*
X4074825Y-5395722D02*
X4065301Y-5376674D01*
X4065301Y-5376674D02*
X4046253Y-5367150D01*
X4046253Y-5367150D02*
X4017682Y-5367150D01*
X4017682Y-5367150D02*
X3998634Y-5376674D01*
X3998634Y-5376674D02*
X3989110Y-5386198D01*
X4198634Y-5500484D02*
X4179587Y-5490960D01*
X4179587Y-5490960D02*
X4170063Y-5481436D01*
X4170063Y-5481436D02*
X4160539Y-5462389D01*
X4160539Y-5462389D02*
X4160539Y-5405246D01*
X4160539Y-5405246D02*
X4170063Y-5386198D01*
X4170063Y-5386198D02*
X4179587Y-5376674D01*
X4179587Y-5376674D02*
X4198634Y-5367150D01*
X4198634Y-5367150D02*
X4227206Y-5367150D01*
X4227206Y-5367150D02*
X4246253Y-5376674D01*
X4246253Y-5376674D02*
X4255777Y-5386198D01*
X4255777Y-5386198D02*
X4265301Y-5405246D01*
X4265301Y-5405246D02*
X4265301Y-5462389D01*
X4265301Y-5462389D02*
X4255777Y-5481436D01*
X4255777Y-5481436D02*
X4246253Y-5490960D01*
X4246253Y-5490960D02*
X4227206Y-5500484D01*
X4227206Y-5500484D02*
X4198634Y-5500484D01*
X4379587Y-5500484D02*
X4360539Y-5490960D01*
X4360539Y-5490960D02*
X4351015Y-5471912D01*
X4351015Y-5471912D02*
X4351015Y-5300484D01*
X4531968Y-5490960D02*
X4512920Y-5500484D01*
X4512920Y-5500484D02*
X4474825Y-5500484D01*
X4474825Y-5500484D02*
X4455777Y-5490960D01*
X4455777Y-5490960D02*
X4446253Y-5471912D01*
X4446253Y-5471912D02*
X4446253Y-5395722D01*
X4446253Y-5395722D02*
X4455777Y-5376674D01*
X4455777Y-5376674D02*
X4474825Y-5367150D01*
X4474825Y-5367150D02*
X4512920Y-5367150D01*
X4512920Y-5367150D02*
X4531968Y-5376674D01*
X4531968Y-5376674D02*
X4541492Y-5395722D01*
X4541492Y-5395722D02*
X4541492Y-5414770D01*
X4541492Y-5414770D02*
X4446253Y-5433817D01*
X4608158Y-5576674D02*
X4617682Y-5567150D01*
X4617682Y-5567150D02*
X4636730Y-5538579D01*
X4636730Y-5538579D02*
X4646253Y-5519531D01*
X4646253Y-5519531D02*
X4655777Y-5490960D01*
X4655777Y-5490960D02*
X4665301Y-5443341D01*
X4665301Y-5443341D02*
X4665301Y-5405246D01*
X4665301Y-5405246D02*
X4655777Y-5357627D01*
X4655777Y-5357627D02*
X4646253Y-5329055D01*
X4646253Y-5329055D02*
X4636730Y-5310008D01*
X4636730Y-5310008D02*
X4617682Y-5281436D01*
X4617682Y-5281436D02*
X4608158Y-5271912D01*
D10*
X-45000Y-5633000D02*
X-45000Y-5713000D01*
X-85000Y-5673000D02*
X-5000Y-5673000D01*
D11*
X293872Y-5564484D02*
X312920Y-5564484D01*
X312920Y-5564484D02*
X331967Y-5574008D01*
X331967Y-5574008D02*
X341491Y-5583531D01*
X341491Y-5583531D02*
X351015Y-5602579D01*
X351015Y-5602579D02*
X360539Y-5640674D01*
X360539Y-5640674D02*
X360539Y-5688293D01*
X360539Y-5688293D02*
X351015Y-5726388D01*
X351015Y-5726388D02*
X341491Y-5745436D01*
X341491Y-5745436D02*
X331967Y-5754960D01*
X331967Y-5754960D02*
X312920Y-5764484D01*
X312920Y-5764484D02*
X293872Y-5764484D01*
X293872Y-5764484D02*
X274824Y-5754960D01*
X274824Y-5754960D02*
X265301Y-5745436D01*
X265301Y-5745436D02*
X255777Y-5726388D01*
X255777Y-5726388D02*
X246253Y-5688293D01*
X246253Y-5688293D02*
X246253Y-5640674D01*
X246253Y-5640674D02*
X255777Y-5602579D01*
X255777Y-5602579D02*
X265301Y-5583531D01*
X265301Y-5583531D02*
X274824Y-5574008D01*
X274824Y-5574008D02*
X293872Y-5564484D01*
X455777Y-5754960D02*
X455777Y-5764484D01*
X455777Y-5764484D02*
X446253Y-5783531D01*
X446253Y-5783531D02*
X436729Y-5793055D01*
X570063Y-5650198D02*
X551015Y-5640674D01*
X551015Y-5640674D02*
X541491Y-5631150D01*
X541491Y-5631150D02*
X531967Y-5612103D01*
X531967Y-5612103D02*
X531967Y-5602579D01*
X531967Y-5602579D02*
X541491Y-5583531D01*
X541491Y-5583531D02*
X551015Y-5574008D01*
X551015Y-5574008D02*
X570063Y-5564484D01*
X570063Y-5564484D02*
X608158Y-5564484D01*
X608158Y-5564484D02*
X627205Y-5574008D01*
X627205Y-5574008D02*
X636729Y-5583531D01*
X636729Y-5583531D02*
X646253Y-5602579D01*
X646253Y-5602579D02*
X646253Y-5612103D01*
X646253Y-5612103D02*
X636729Y-5631150D01*
X636729Y-5631150D02*
X627205Y-5640674D01*
X627205Y-5640674D02*
X608158Y-5650198D01*
X608158Y-5650198D02*
X570063Y-5650198D01*
X570063Y-5650198D02*
X551015Y-5659722D01*
X551015Y-5659722D02*
X541491Y-5669246D01*
X541491Y-5669246D02*
X531967Y-5688293D01*
X531967Y-5688293D02*
X531967Y-5726388D01*
X531967Y-5726388D02*
X541491Y-5745436D01*
X541491Y-5745436D02*
X551015Y-5754960D01*
X551015Y-5754960D02*
X570063Y-5764484D01*
X570063Y-5764484D02*
X608158Y-5764484D01*
X608158Y-5764484D02*
X627205Y-5754960D01*
X627205Y-5754960D02*
X636729Y-5745436D01*
X636729Y-5745436D02*
X646253Y-5726388D01*
X646253Y-5726388D02*
X646253Y-5688293D01*
X646253Y-5688293D02*
X636729Y-5669246D01*
X636729Y-5669246D02*
X627205Y-5659722D01*
X627205Y-5659722D02*
X608158Y-5650198D01*
X770062Y-5564484D02*
X789110Y-5564484D01*
X789110Y-5564484D02*
X808158Y-5574008D01*
X808158Y-5574008D02*
X817682Y-5583531D01*
X817682Y-5583531D02*
X827205Y-5602579D01*
X827205Y-5602579D02*
X836729Y-5640674D01*
X836729Y-5640674D02*
X836729Y-5688293D01*
X836729Y-5688293D02*
X827205Y-5726388D01*
X827205Y-5726388D02*
X817682Y-5745436D01*
X817682Y-5745436D02*
X808158Y-5754960D01*
X808158Y-5754960D02*
X789110Y-5764484D01*
X789110Y-5764484D02*
X770062Y-5764484D01*
X770062Y-5764484D02*
X751015Y-5754960D01*
X751015Y-5754960D02*
X741491Y-5745436D01*
X741491Y-5745436D02*
X731967Y-5726388D01*
X731967Y-5726388D02*
X722443Y-5688293D01*
X722443Y-5688293D02*
X722443Y-5640674D01*
X722443Y-5640674D02*
X731967Y-5602579D01*
X731967Y-5602579D02*
X741491Y-5583531D01*
X741491Y-5583531D02*
X751015Y-5574008D01*
X751015Y-5574008D02*
X770062Y-5564484D01*
X960539Y-5564484D02*
X979586Y-5564484D01*
X979586Y-5564484D02*
X998634Y-5574008D01*
X998634Y-5574008D02*
X1008158Y-5583531D01*
X1008158Y-5583531D02*
X1017682Y-5602579D01*
X1017682Y-5602579D02*
X1027205Y-5640674D01*
X1027205Y-5640674D02*
X1027205Y-5688293D01*
X1027205Y-5688293D02*
X1017682Y-5726388D01*
X1017682Y-5726388D02*
X1008158Y-5745436D01*
X1008158Y-5745436D02*
X998634Y-5754960D01*
X998634Y-5754960D02*
X979586Y-5764484D01*
X979586Y-5764484D02*
X960539Y-5764484D01*
X960539Y-5764484D02*
X941491Y-5754960D01*
X941491Y-5754960D02*
X931967Y-5745436D01*
X931967Y-5745436D02*
X922443Y-5726388D01*
X922443Y-5726388D02*
X912920Y-5688293D01*
X912920Y-5688293D02*
X912920Y-5640674D01*
X912920Y-5640674D02*
X922443Y-5602579D01*
X922443Y-5602579D02*
X931967Y-5583531D01*
X931967Y-5583531D02*
X941491Y-5574008D01*
X941491Y-5574008D02*
X960539Y-5564484D01*
X1112920Y-5764484D02*
X1112920Y-5631150D01*
X1112920Y-5650198D02*
X1122444Y-5640674D01*
X1122444Y-5640674D02*
X1141491Y-5631150D01*
X1141491Y-5631150D02*
X1170063Y-5631150D01*
X1170063Y-5631150D02*
X1189110Y-5640674D01*
X1189110Y-5640674D02*
X1198634Y-5659722D01*
X1198634Y-5659722D02*
X1198634Y-5764484D01*
X1198634Y-5659722D02*
X1208158Y-5640674D01*
X1208158Y-5640674D02*
X1227205Y-5631150D01*
X1227205Y-5631150D02*
X1255777Y-5631150D01*
X1255777Y-5631150D02*
X1274825Y-5640674D01*
X1274825Y-5640674D02*
X1284348Y-5659722D01*
X1284348Y-5659722D02*
X1284348Y-5764484D01*
X1379586Y-5764484D02*
X1379586Y-5631150D01*
X1379586Y-5650198D02*
X1389110Y-5640674D01*
X1389110Y-5640674D02*
X1408158Y-5631150D01*
X1408158Y-5631150D02*
X1436729Y-5631150D01*
X1436729Y-5631150D02*
X1455777Y-5640674D01*
X1455777Y-5640674D02*
X1465301Y-5659722D01*
X1465301Y-5659722D02*
X1465301Y-5764484D01*
X1465301Y-5659722D02*
X1474824Y-5640674D01*
X1474824Y-5640674D02*
X1493872Y-5631150D01*
X1493872Y-5631150D02*
X1522443Y-5631150D01*
X1522443Y-5631150D02*
X1541491Y-5640674D01*
X1541491Y-5640674D02*
X1551015Y-5659722D01*
X1551015Y-5659722D02*
X1551015Y-5764484D01*
X1941491Y-5554960D02*
X1770063Y-5812103D01*
X2198634Y-5564484D02*
X2217682Y-5564484D01*
X2217682Y-5564484D02*
X2236729Y-5574008D01*
X2236729Y-5574008D02*
X2246253Y-5583531D01*
X2246253Y-5583531D02*
X2255777Y-5602579D01*
X2255777Y-5602579D02*
X2265301Y-5640674D01*
X2265301Y-5640674D02*
X2265301Y-5688293D01*
X2265301Y-5688293D02*
X2255777Y-5726388D01*
X2255777Y-5726388D02*
X2246253Y-5745436D01*
X2246253Y-5745436D02*
X2236729Y-5754960D01*
X2236729Y-5754960D02*
X2217682Y-5764484D01*
X2217682Y-5764484D02*
X2198634Y-5764484D01*
X2198634Y-5764484D02*
X2179587Y-5754960D01*
X2179587Y-5754960D02*
X2170063Y-5745436D01*
X2170063Y-5745436D02*
X2160539Y-5726388D01*
X2160539Y-5726388D02*
X2151015Y-5688293D01*
X2151015Y-5688293D02*
X2151015Y-5640674D01*
X2151015Y-5640674D02*
X2160539Y-5602579D01*
X2160539Y-5602579D02*
X2170063Y-5583531D01*
X2170063Y-5583531D02*
X2179587Y-5574008D01*
X2179587Y-5574008D02*
X2198634Y-5564484D01*
X2360539Y-5754960D02*
X2360539Y-5764484D01*
X2360539Y-5764484D02*
X2351015Y-5783531D01*
X2351015Y-5783531D02*
X2341491Y-5793055D01*
X2484348Y-5564484D02*
X2503396Y-5564484D01*
X2503396Y-5564484D02*
X2522444Y-5574008D01*
X2522444Y-5574008D02*
X2531968Y-5583531D01*
X2531968Y-5583531D02*
X2541491Y-5602579D01*
X2541491Y-5602579D02*
X2551015Y-5640674D01*
X2551015Y-5640674D02*
X2551015Y-5688293D01*
X2551015Y-5688293D02*
X2541491Y-5726388D01*
X2541491Y-5726388D02*
X2531968Y-5745436D01*
X2531968Y-5745436D02*
X2522444Y-5754960D01*
X2522444Y-5754960D02*
X2503396Y-5764484D01*
X2503396Y-5764484D02*
X2484348Y-5764484D01*
X2484348Y-5764484D02*
X2465301Y-5754960D01*
X2465301Y-5754960D02*
X2455777Y-5745436D01*
X2455777Y-5745436D02*
X2446253Y-5726388D01*
X2446253Y-5726388D02*
X2436729Y-5688293D01*
X2436729Y-5688293D02*
X2436729Y-5640674D01*
X2436729Y-5640674D02*
X2446253Y-5602579D01*
X2446253Y-5602579D02*
X2455777Y-5583531D01*
X2455777Y-5583531D02*
X2465301Y-5574008D01*
X2465301Y-5574008D02*
X2484348Y-5564484D01*
X2617682Y-5564484D02*
X2741491Y-5564484D01*
X2741491Y-5564484D02*
X2674825Y-5640674D01*
X2674825Y-5640674D02*
X2703396Y-5640674D01*
X2703396Y-5640674D02*
X2722444Y-5650198D01*
X2722444Y-5650198D02*
X2731968Y-5659722D01*
X2731968Y-5659722D02*
X2741491Y-5678769D01*
X2741491Y-5678769D02*
X2741491Y-5726388D01*
X2741491Y-5726388D02*
X2731968Y-5745436D01*
X2731968Y-5745436D02*
X2722444Y-5754960D01*
X2722444Y-5754960D02*
X2703396Y-5764484D01*
X2703396Y-5764484D02*
X2646253Y-5764484D01*
X2646253Y-5764484D02*
X2627206Y-5754960D01*
X2627206Y-5754960D02*
X2617682Y-5745436D01*
X2931967Y-5764484D02*
X2817682Y-5764484D01*
X2874825Y-5764484D02*
X2874825Y-5564484D01*
X2874825Y-5564484D02*
X2855777Y-5593055D01*
X2855777Y-5593055D02*
X2836729Y-5612103D01*
X2836729Y-5612103D02*
X2817682Y-5621627D01*
X3112920Y-5564484D02*
X3017682Y-5564484D01*
X3017682Y-5564484D02*
X3008158Y-5659722D01*
X3008158Y-5659722D02*
X3017682Y-5650198D01*
X3017682Y-5650198D02*
X3036729Y-5640674D01*
X3036729Y-5640674D02*
X3084348Y-5640674D01*
X3084348Y-5640674D02*
X3103396Y-5650198D01*
X3103396Y-5650198D02*
X3112920Y-5659722D01*
X3112920Y-5659722D02*
X3122444Y-5678769D01*
X3122444Y-5678769D02*
X3122444Y-5726388D01*
X3122444Y-5726388D02*
X3112920Y-5745436D01*
X3112920Y-5745436D02*
X3103396Y-5754960D01*
X3103396Y-5754960D02*
X3084348Y-5764484D01*
X3084348Y-5764484D02*
X3036729Y-5764484D01*
X3036729Y-5764484D02*
X3017682Y-5754960D01*
X3017682Y-5754960D02*
X3008158Y-5745436D01*
X3198634Y-5564484D02*
X3198634Y-5602579D01*
X3274825Y-5564484D02*
X3274825Y-5602579D01*
X3570063Y-5840674D02*
X3560539Y-5831150D01*
X3560539Y-5831150D02*
X3541491Y-5802579D01*
X3541491Y-5802579D02*
X3531968Y-5783531D01*
X3531968Y-5783531D02*
X3522444Y-5754960D01*
X3522444Y-5754960D02*
X3512920Y-5707341D01*
X3512920Y-5707341D02*
X3512920Y-5669246D01*
X3512920Y-5669246D02*
X3522444Y-5621627D01*
X3522444Y-5621627D02*
X3531968Y-5593055D01*
X3531968Y-5593055D02*
X3541491Y-5574008D01*
X3541491Y-5574008D02*
X3560539Y-5545436D01*
X3560539Y-5545436D02*
X3570063Y-5535912D01*
X3636729Y-5583531D02*
X3646253Y-5574008D01*
X3646253Y-5574008D02*
X3665301Y-5564484D01*
X3665301Y-5564484D02*
X3712920Y-5564484D01*
X3712920Y-5564484D02*
X3731968Y-5574008D01*
X3731968Y-5574008D02*
X3741491Y-5583531D01*
X3741491Y-5583531D02*
X3751015Y-5602579D01*
X3751015Y-5602579D02*
X3751015Y-5621627D01*
X3751015Y-5621627D02*
X3741491Y-5650198D01*
X3741491Y-5650198D02*
X3627206Y-5764484D01*
X3627206Y-5764484D02*
X3751015Y-5764484D01*
X3989110Y-5764484D02*
X3989110Y-5564484D01*
X4074825Y-5764484D02*
X4074825Y-5659722D01*
X4074825Y-5659722D02*
X4065301Y-5640674D01*
X4065301Y-5640674D02*
X4046253Y-5631150D01*
X4046253Y-5631150D02*
X4017682Y-5631150D01*
X4017682Y-5631150D02*
X3998634Y-5640674D01*
X3998634Y-5640674D02*
X3989110Y-5650198D01*
X4198634Y-5764484D02*
X4179587Y-5754960D01*
X4179587Y-5754960D02*
X4170063Y-5745436D01*
X4170063Y-5745436D02*
X4160539Y-5726388D01*
X4160539Y-5726388D02*
X4160539Y-5669246D01*
X4160539Y-5669246D02*
X4170063Y-5650198D01*
X4170063Y-5650198D02*
X4179587Y-5640674D01*
X4179587Y-5640674D02*
X4198634Y-5631150D01*
X4198634Y-5631150D02*
X4227206Y-5631150D01*
X4227206Y-5631150D02*
X4246253Y-5640674D01*
X4246253Y-5640674D02*
X4255777Y-5650198D01*
X4255777Y-5650198D02*
X4265301Y-5669246D01*
X4265301Y-5669246D02*
X4265301Y-5726388D01*
X4265301Y-5726388D02*
X4255777Y-5745436D01*
X4255777Y-5745436D02*
X4246253Y-5754960D01*
X4246253Y-5754960D02*
X4227206Y-5764484D01*
X4227206Y-5764484D02*
X4198634Y-5764484D01*
X4379587Y-5764484D02*
X4360539Y-5754960D01*
X4360539Y-5754960D02*
X4351015Y-5735912D01*
X4351015Y-5735912D02*
X4351015Y-5564484D01*
X4531968Y-5754960D02*
X4512920Y-5764484D01*
X4512920Y-5764484D02*
X4474825Y-5764484D01*
X4474825Y-5764484D02*
X4455777Y-5754960D01*
X4455777Y-5754960D02*
X4446253Y-5735912D01*
X4446253Y-5735912D02*
X4446253Y-5659722D01*
X4446253Y-5659722D02*
X4455777Y-5640674D01*
X4455777Y-5640674D02*
X4474825Y-5631150D01*
X4474825Y-5631150D02*
X4512920Y-5631150D01*
X4512920Y-5631150D02*
X4531968Y-5640674D01*
X4531968Y-5640674D02*
X4541492Y-5659722D01*
X4541492Y-5659722D02*
X4541492Y-5678769D01*
X4541492Y-5678769D02*
X4446253Y-5697817D01*
X4617682Y-5754960D02*
X4636730Y-5764484D01*
X4636730Y-5764484D02*
X4674825Y-5764484D01*
X4674825Y-5764484D02*
X4693873Y-5754960D01*
X4693873Y-5754960D02*
X4703396Y-5735912D01*
X4703396Y-5735912D02*
X4703396Y-5726388D01*
X4703396Y-5726388D02*
X4693873Y-5707341D01*
X4693873Y-5707341D02*
X4674825Y-5697817D01*
X4674825Y-5697817D02*
X4646253Y-5697817D01*
X4646253Y-5697817D02*
X4627206Y-5688293D01*
X4627206Y-5688293D02*
X4617682Y-5669246D01*
X4617682Y-5669246D02*
X4617682Y-5659722D01*
X4617682Y-5659722D02*
X4627206Y-5640674D01*
X4627206Y-5640674D02*
X4646253Y-5631150D01*
X4646253Y-5631150D02*
X4674825Y-5631150D01*
X4674825Y-5631150D02*
X4693873Y-5640674D01*
X4770063Y-5840674D02*
X4779587Y-5831150D01*
X4779587Y-5831150D02*
X4798634Y-5802579D01*
X4798634Y-5802579D02*
X4808158Y-5783531D01*
X4808158Y-5783531D02*
X4817682Y-5754960D01*
X4817682Y-5754960D02*
X4827206Y-5707341D01*
X4827206Y-5707341D02*
X4827206Y-5669246D01*
X4827206Y-5669246D02*
X4817682Y-5621627D01*
X4817682Y-5621627D02*
X4808158Y-5593055D01*
X4808158Y-5593055D02*
X4798634Y-5574008D01*
X4798634Y-5574008D02*
X4779587Y-5545436D01*
X4779587Y-5545436D02*
X4770063Y-5535912D01*
D10*
X-19644Y-5972356D02*
X-19644Y-5901644D01*
X-90356Y-5901644D01*
X-90356Y-5972356D01*
X-19644Y-5972356D01*
D11*
X360539Y-6028484D02*
X246253Y-6028484D01*
X303396Y-6028484D02*
X303396Y-5828484D01*
X303396Y-5828484D02*
X284348Y-5857055D01*
X284348Y-5857055D02*
X265301Y-5876103D01*
X265301Y-5876103D02*
X246253Y-5885627D01*
X455777Y-6018960D02*
X455777Y-6028484D01*
X455777Y-6028484D02*
X446253Y-6047531D01*
X446253Y-6047531D02*
X436729Y-6057055D01*
X579586Y-5828484D02*
X598634Y-5828484D01*
X598634Y-5828484D02*
X617682Y-5838008D01*
X617682Y-5838008D02*
X627205Y-5847531D01*
X627205Y-5847531D02*
X636729Y-5866579D01*
X636729Y-5866579D02*
X646253Y-5904674D01*
X646253Y-5904674D02*
X646253Y-5952293D01*
X646253Y-5952293D02*
X636729Y-5990388D01*
X636729Y-5990388D02*
X627205Y-6009436D01*
X627205Y-6009436D02*
X617682Y-6018960D01*
X617682Y-6018960D02*
X598634Y-6028484D01*
X598634Y-6028484D02*
X579586Y-6028484D01*
X579586Y-6028484D02*
X560539Y-6018960D01*
X560539Y-6018960D02*
X551015Y-6009436D01*
X551015Y-6009436D02*
X541491Y-5990388D01*
X541491Y-5990388D02*
X531967Y-5952293D01*
X531967Y-5952293D02*
X531967Y-5904674D01*
X531967Y-5904674D02*
X541491Y-5866579D01*
X541491Y-5866579D02*
X551015Y-5847531D01*
X551015Y-5847531D02*
X560539Y-5838008D01*
X560539Y-5838008D02*
X579586Y-5828484D01*
X770062Y-5828484D02*
X789110Y-5828484D01*
X789110Y-5828484D02*
X808158Y-5838008D01*
X808158Y-5838008D02*
X817682Y-5847531D01*
X817682Y-5847531D02*
X827205Y-5866579D01*
X827205Y-5866579D02*
X836729Y-5904674D01*
X836729Y-5904674D02*
X836729Y-5952293D01*
X836729Y-5952293D02*
X827205Y-5990388D01*
X827205Y-5990388D02*
X817682Y-6009436D01*
X817682Y-6009436D02*
X808158Y-6018960D01*
X808158Y-6018960D02*
X789110Y-6028484D01*
X789110Y-6028484D02*
X770062Y-6028484D01*
X770062Y-6028484D02*
X751015Y-6018960D01*
X751015Y-6018960D02*
X741491Y-6009436D01*
X741491Y-6009436D02*
X731967Y-5990388D01*
X731967Y-5990388D02*
X722443Y-5952293D01*
X722443Y-5952293D02*
X722443Y-5904674D01*
X722443Y-5904674D02*
X731967Y-5866579D01*
X731967Y-5866579D02*
X741491Y-5847531D01*
X741491Y-5847531D02*
X751015Y-5838008D01*
X751015Y-5838008D02*
X770062Y-5828484D01*
X960539Y-5828484D02*
X979586Y-5828484D01*
X979586Y-5828484D02*
X998634Y-5838008D01*
X998634Y-5838008D02*
X1008158Y-5847531D01*
X1008158Y-5847531D02*
X1017682Y-5866579D01*
X1017682Y-5866579D02*
X1027205Y-5904674D01*
X1027205Y-5904674D02*
X1027205Y-5952293D01*
X1027205Y-5952293D02*
X1017682Y-5990388D01*
X1017682Y-5990388D02*
X1008158Y-6009436D01*
X1008158Y-6009436D02*
X998634Y-6018960D01*
X998634Y-6018960D02*
X979586Y-6028484D01*
X979586Y-6028484D02*
X960539Y-6028484D01*
X960539Y-6028484D02*
X941491Y-6018960D01*
X941491Y-6018960D02*
X931967Y-6009436D01*
X931967Y-6009436D02*
X922443Y-5990388D01*
X922443Y-5990388D02*
X912920Y-5952293D01*
X912920Y-5952293D02*
X912920Y-5904674D01*
X912920Y-5904674D02*
X922443Y-5866579D01*
X922443Y-5866579D02*
X931967Y-5847531D01*
X931967Y-5847531D02*
X941491Y-5838008D01*
X941491Y-5838008D02*
X960539Y-5828484D01*
X1112920Y-6028484D02*
X1112920Y-5895150D01*
X1112920Y-5914198D02*
X1122444Y-5904674D01*
X1122444Y-5904674D02*
X1141491Y-5895150D01*
X1141491Y-5895150D02*
X1170063Y-5895150D01*
X1170063Y-5895150D02*
X1189110Y-5904674D01*
X1189110Y-5904674D02*
X1198634Y-5923722D01*
X1198634Y-5923722D02*
X1198634Y-6028484D01*
X1198634Y-5923722D02*
X1208158Y-5904674D01*
X1208158Y-5904674D02*
X1227205Y-5895150D01*
X1227205Y-5895150D02*
X1255777Y-5895150D01*
X1255777Y-5895150D02*
X1274825Y-5904674D01*
X1274825Y-5904674D02*
X1284348Y-5923722D01*
X1284348Y-5923722D02*
X1284348Y-6028484D01*
X1379586Y-6028484D02*
X1379586Y-5895150D01*
X1379586Y-5914198D02*
X1389110Y-5904674D01*
X1389110Y-5904674D02*
X1408158Y-5895150D01*
X1408158Y-5895150D02*
X1436729Y-5895150D01*
X1436729Y-5895150D02*
X1455777Y-5904674D01*
X1455777Y-5904674D02*
X1465301Y-5923722D01*
X1465301Y-5923722D02*
X1465301Y-6028484D01*
X1465301Y-5923722D02*
X1474824Y-5904674D01*
X1474824Y-5904674D02*
X1493872Y-5895150D01*
X1493872Y-5895150D02*
X1522443Y-5895150D01*
X1522443Y-5895150D02*
X1541491Y-5904674D01*
X1541491Y-5904674D02*
X1551015Y-5923722D01*
X1551015Y-5923722D02*
X1551015Y-6028484D01*
X1941491Y-5818960D02*
X1770063Y-6076103D01*
X2198634Y-5828484D02*
X2217682Y-5828484D01*
X2217682Y-5828484D02*
X2236729Y-5838008D01*
X2236729Y-5838008D02*
X2246253Y-5847531D01*
X2246253Y-5847531D02*
X2255777Y-5866579D01*
X2255777Y-5866579D02*
X2265301Y-5904674D01*
X2265301Y-5904674D02*
X2265301Y-5952293D01*
X2265301Y-5952293D02*
X2255777Y-5990388D01*
X2255777Y-5990388D02*
X2246253Y-6009436D01*
X2246253Y-6009436D02*
X2236729Y-6018960D01*
X2236729Y-6018960D02*
X2217682Y-6028484D01*
X2217682Y-6028484D02*
X2198634Y-6028484D01*
X2198634Y-6028484D02*
X2179587Y-6018960D01*
X2179587Y-6018960D02*
X2170063Y-6009436D01*
X2170063Y-6009436D02*
X2160539Y-5990388D01*
X2160539Y-5990388D02*
X2151015Y-5952293D01*
X2151015Y-5952293D02*
X2151015Y-5904674D01*
X2151015Y-5904674D02*
X2160539Y-5866579D01*
X2160539Y-5866579D02*
X2170063Y-5847531D01*
X2170063Y-5847531D02*
X2179587Y-5838008D01*
X2179587Y-5838008D02*
X2198634Y-5828484D01*
X2360539Y-6018960D02*
X2360539Y-6028484D01*
X2360539Y-6028484D02*
X2351015Y-6047531D01*
X2351015Y-6047531D02*
X2341491Y-6057055D01*
X2484348Y-5828484D02*
X2503396Y-5828484D01*
X2503396Y-5828484D02*
X2522444Y-5838008D01*
X2522444Y-5838008D02*
X2531968Y-5847531D01*
X2531968Y-5847531D02*
X2541491Y-5866579D01*
X2541491Y-5866579D02*
X2551015Y-5904674D01*
X2551015Y-5904674D02*
X2551015Y-5952293D01*
X2551015Y-5952293D02*
X2541491Y-5990388D01*
X2541491Y-5990388D02*
X2531968Y-6009436D01*
X2531968Y-6009436D02*
X2522444Y-6018960D01*
X2522444Y-6018960D02*
X2503396Y-6028484D01*
X2503396Y-6028484D02*
X2484348Y-6028484D01*
X2484348Y-6028484D02*
X2465301Y-6018960D01*
X2465301Y-6018960D02*
X2455777Y-6009436D01*
X2455777Y-6009436D02*
X2446253Y-5990388D01*
X2446253Y-5990388D02*
X2436729Y-5952293D01*
X2436729Y-5952293D02*
X2436729Y-5904674D01*
X2436729Y-5904674D02*
X2446253Y-5866579D01*
X2446253Y-5866579D02*
X2455777Y-5847531D01*
X2455777Y-5847531D02*
X2465301Y-5838008D01*
X2465301Y-5838008D02*
X2484348Y-5828484D01*
X2617682Y-5828484D02*
X2741491Y-5828484D01*
X2741491Y-5828484D02*
X2674825Y-5904674D01*
X2674825Y-5904674D02*
X2703396Y-5904674D01*
X2703396Y-5904674D02*
X2722444Y-5914198D01*
X2722444Y-5914198D02*
X2731968Y-5923722D01*
X2731968Y-5923722D02*
X2741491Y-5942769D01*
X2741491Y-5942769D02*
X2741491Y-5990388D01*
X2741491Y-5990388D02*
X2731968Y-6009436D01*
X2731968Y-6009436D02*
X2722444Y-6018960D01*
X2722444Y-6018960D02*
X2703396Y-6028484D01*
X2703396Y-6028484D02*
X2646253Y-6028484D01*
X2646253Y-6028484D02*
X2627206Y-6018960D01*
X2627206Y-6018960D02*
X2617682Y-6009436D01*
X2836729Y-6028484D02*
X2874825Y-6028484D01*
X2874825Y-6028484D02*
X2893872Y-6018960D01*
X2893872Y-6018960D02*
X2903396Y-6009436D01*
X2903396Y-6009436D02*
X2922444Y-5980865D01*
X2922444Y-5980865D02*
X2931967Y-5942769D01*
X2931967Y-5942769D02*
X2931967Y-5866579D01*
X2931967Y-5866579D02*
X2922444Y-5847531D01*
X2922444Y-5847531D02*
X2912920Y-5838008D01*
X2912920Y-5838008D02*
X2893872Y-5828484D01*
X2893872Y-5828484D02*
X2855777Y-5828484D01*
X2855777Y-5828484D02*
X2836729Y-5838008D01*
X2836729Y-5838008D02*
X2827206Y-5847531D01*
X2827206Y-5847531D02*
X2817682Y-5866579D01*
X2817682Y-5866579D02*
X2817682Y-5914198D01*
X2817682Y-5914198D02*
X2827206Y-5933246D01*
X2827206Y-5933246D02*
X2836729Y-5942769D01*
X2836729Y-5942769D02*
X2855777Y-5952293D01*
X2855777Y-5952293D02*
X2893872Y-5952293D01*
X2893872Y-5952293D02*
X2912920Y-5942769D01*
X2912920Y-5942769D02*
X2922444Y-5933246D01*
X2922444Y-5933246D02*
X2931967Y-5914198D01*
X3103396Y-5895150D02*
X3103396Y-6028484D01*
X3055777Y-5818960D02*
X3008158Y-5961817D01*
X3008158Y-5961817D02*
X3131967Y-5961817D01*
X3198634Y-5828484D02*
X3198634Y-5866579D01*
X3274825Y-5828484D02*
X3274825Y-5866579D01*
X3570063Y-6104674D02*
X3560539Y-6095150D01*
X3560539Y-6095150D02*
X3541491Y-6066579D01*
X3541491Y-6066579D02*
X3531968Y-6047531D01*
X3531968Y-6047531D02*
X3522444Y-6018960D01*
X3522444Y-6018960D02*
X3512920Y-5971341D01*
X3512920Y-5971341D02*
X3512920Y-5933246D01*
X3512920Y-5933246D02*
X3522444Y-5885627D01*
X3522444Y-5885627D02*
X3531968Y-5857055D01*
X3531968Y-5857055D02*
X3541491Y-5838008D01*
X3541491Y-5838008D02*
X3560539Y-5809436D01*
X3560539Y-5809436D02*
X3570063Y-5799912D01*
X3751015Y-6028484D02*
X3636729Y-6028484D01*
X3693872Y-6028484D02*
X3693872Y-5828484D01*
X3693872Y-5828484D02*
X3674825Y-5857055D01*
X3674825Y-5857055D02*
X3655777Y-5876103D01*
X3655777Y-5876103D02*
X3636729Y-5885627D01*
X3941491Y-6028484D02*
X3827206Y-6028484D01*
X3884348Y-6028484D02*
X3884348Y-5828484D01*
X3884348Y-5828484D02*
X3865301Y-5857055D01*
X3865301Y-5857055D02*
X3846253Y-5876103D01*
X3846253Y-5876103D02*
X3827206Y-5885627D01*
X4065301Y-5828484D02*
X4084349Y-5828484D01*
X4084349Y-5828484D02*
X4103396Y-5838008D01*
X4103396Y-5838008D02*
X4112920Y-5847531D01*
X4112920Y-5847531D02*
X4122444Y-5866579D01*
X4122444Y-5866579D02*
X4131968Y-5904674D01*
X4131968Y-5904674D02*
X4131968Y-5952293D01*
X4131968Y-5952293D02*
X4122444Y-5990388D01*
X4122444Y-5990388D02*
X4112920Y-6009436D01*
X4112920Y-6009436D02*
X4103396Y-6018960D01*
X4103396Y-6018960D02*
X4084349Y-6028484D01*
X4084349Y-6028484D02*
X4065301Y-6028484D01*
X4065301Y-6028484D02*
X4046253Y-6018960D01*
X4046253Y-6018960D02*
X4036729Y-6009436D01*
X4036729Y-6009436D02*
X4027206Y-5990388D01*
X4027206Y-5990388D02*
X4017682Y-5952293D01*
X4017682Y-5952293D02*
X4017682Y-5904674D01*
X4017682Y-5904674D02*
X4027206Y-5866579D01*
X4027206Y-5866579D02*
X4036729Y-5847531D01*
X4036729Y-5847531D02*
X4046253Y-5838008D01*
X4046253Y-5838008D02*
X4065301Y-5828484D01*
X4370063Y-6028484D02*
X4370063Y-5828484D01*
X4455777Y-6028484D02*
X4455777Y-5923722D01*
X4455777Y-5923722D02*
X4446253Y-5904674D01*
X4446253Y-5904674D02*
X4427206Y-5895150D01*
X4427206Y-5895150D02*
X4398634Y-5895150D01*
X4398634Y-5895150D02*
X4379587Y-5904674D01*
X4379587Y-5904674D02*
X4370063Y-5914198D01*
X4579587Y-6028484D02*
X4560539Y-6018960D01*
X4560539Y-6018960D02*
X4551015Y-6009436D01*
X4551015Y-6009436D02*
X4541492Y-5990388D01*
X4541492Y-5990388D02*
X4541492Y-5933246D01*
X4541492Y-5933246D02*
X4551015Y-5914198D01*
X4551015Y-5914198D02*
X4560539Y-5904674D01*
X4560539Y-5904674D02*
X4579587Y-5895150D01*
X4579587Y-5895150D02*
X4608158Y-5895150D01*
X4608158Y-5895150D02*
X4627206Y-5904674D01*
X4627206Y-5904674D02*
X4636730Y-5914198D01*
X4636730Y-5914198D02*
X4646253Y-5933246D01*
X4646253Y-5933246D02*
X4646253Y-5990388D01*
X4646253Y-5990388D02*
X4636730Y-6009436D01*
X4636730Y-6009436D02*
X4627206Y-6018960D01*
X4627206Y-6018960D02*
X4608158Y-6028484D01*
X4608158Y-6028484D02*
X4579587Y-6028484D01*
X4760539Y-6028484D02*
X4741492Y-6018960D01*
X4741492Y-6018960D02*
X4731968Y-5999912D01*
X4731968Y-5999912D02*
X4731968Y-5828484D01*
X4912920Y-6018960D02*
X4893873Y-6028484D01*
X4893873Y-6028484D02*
X4855777Y-6028484D01*
X4855777Y-6028484D02*
X4836730Y-6018960D01*
X4836730Y-6018960D02*
X4827206Y-5999912D01*
X4827206Y-5999912D02*
X4827206Y-5923722D01*
X4827206Y-5923722D02*
X4836730Y-5904674D01*
X4836730Y-5904674D02*
X4855777Y-5895150D01*
X4855777Y-5895150D02*
X4893873Y-5895150D01*
X4893873Y-5895150D02*
X4912920Y-5904674D01*
X4912920Y-5904674D02*
X4922444Y-5923722D01*
X4922444Y-5923722D02*
X4922444Y-5942769D01*
X4922444Y-5942769D02*
X4827206Y-5961817D01*
X4998634Y-6018960D02*
X5017682Y-6028484D01*
X5017682Y-6028484D02*
X5055777Y-6028484D01*
X5055777Y-6028484D02*
X5074825Y-6018960D01*
X5074825Y-6018960D02*
X5084349Y-5999912D01*
X5084349Y-5999912D02*
X5084349Y-5990388D01*
X5084349Y-5990388D02*
X5074825Y-5971341D01*
X5074825Y-5971341D02*
X5055777Y-5961817D01*
X5055777Y-5961817D02*
X5027206Y-5961817D01*
X5027206Y-5961817D02*
X5008158Y-5952293D01*
X5008158Y-5952293D02*
X4998634Y-5933246D01*
X4998634Y-5933246D02*
X4998634Y-5923722D01*
X4998634Y-5923722D02*
X5008158Y-5904674D01*
X5008158Y-5904674D02*
X5027206Y-5895150D01*
X5027206Y-5895150D02*
X5055777Y-5895150D01*
X5055777Y-5895150D02*
X5074825Y-5904674D01*
X5151015Y-6104674D02*
X5160539Y-6095150D01*
X5160539Y-6095150D02*
X5179587Y-6066579D01*
X5179587Y-6066579D02*
X5189111Y-6047531D01*
X5189111Y-6047531D02*
X5198634Y-6018960D01*
X5198634Y-6018960D02*
X5208158Y-5971341D01*
X5208158Y-5971341D02*
X5208158Y-5933246D01*
X5208158Y-5933246D02*
X5198634Y-5885627D01*
X5198634Y-5885627D02*
X5189111Y-5857055D01*
X5189111Y-5857055D02*
X5179587Y-5838008D01*
X5179587Y-5838008D02*
X5160539Y-5809436D01*
X5160539Y-5809436D02*
X5151015Y-5799912D01*
M02*
