%TF.GenerationSoftware,KiCad,Pcbnew,10.0.4*%
%TF.CreationDate,2026-07-26T01:16:43-03:00*%
%TF.ProjectId,tkmem128-expansor,746b6d65-6d31-4323-982d-657870616e73,rev?*%
%TF.SameCoordinates,Original*%
%TF.FileFunction,Legend,Bot*%
%TF.FilePolarity,Positive*%
%FSLAX46Y46*%
G04 Gerber Fmt 4.6, Leading zero omitted, Abs format (unit mm)*
G04 Created by KiCad (PCBNEW 10.0.4) date 2026-07-26 01:16:43*
%MOMM*%
%LPD*%
G01*
G04 APERTURE LIST*
%ADD10C,0.150000*%
%ADD11C,1.600000*%
%ADD12R,1.524000X7.620000*%
%ADD13R,1.700000X1.700000*%
%ADD14C,1.700000*%
%ADD15R,1.800000X1.800000*%
%ADD16C,1.800000*%
G04 APERTURE END LIST*
D10*
X58634286Y-27322842D02*
X58677143Y-27365700D01*
X58677143Y-27365700D02*
X58805715Y-27408557D01*
X58805715Y-27408557D02*
X58891429Y-27408557D01*
X58891429Y-27408557D02*
X59020000Y-27365700D01*
X59020000Y-27365700D02*
X59105715Y-27279985D01*
X59105715Y-27279985D02*
X59148572Y-27194271D01*
X59148572Y-27194271D02*
X59191429Y-27022842D01*
X59191429Y-27022842D02*
X59191429Y-26894271D01*
X59191429Y-26894271D02*
X59148572Y-26722842D01*
X59148572Y-26722842D02*
X59105715Y-26637128D01*
X59105715Y-26637128D02*
X59020000Y-26551414D01*
X59020000Y-26551414D02*
X58891429Y-26508557D01*
X58891429Y-26508557D02*
X58805715Y-26508557D01*
X58805715Y-26508557D02*
X58677143Y-26551414D01*
X58677143Y-26551414D02*
X58634286Y-26594271D01*
X58248572Y-26937128D02*
X57948572Y-26937128D01*
X57820000Y-27408557D02*
X58248572Y-27408557D01*
X58248572Y-27408557D02*
X58248572Y-26508557D01*
X58248572Y-26508557D02*
X57820000Y-26508557D01*
X56920000Y-27408557D02*
X57220000Y-26979985D01*
X57434286Y-27408557D02*
X57434286Y-26508557D01*
X57434286Y-26508557D02*
X57091429Y-26508557D01*
X57091429Y-26508557D02*
X57005714Y-26551414D01*
X57005714Y-26551414D02*
X56962857Y-26594271D01*
X56962857Y-26594271D02*
X56920000Y-26679985D01*
X56920000Y-26679985D02*
X56920000Y-26808557D01*
X56920000Y-26808557D02*
X56962857Y-26894271D01*
X56962857Y-26894271D02*
X57005714Y-26937128D01*
X57005714Y-26937128D02*
X57091429Y-26979985D01*
X57091429Y-26979985D02*
X57434286Y-26979985D01*
X56534286Y-27408557D02*
X56534286Y-26508557D01*
X56534286Y-26508557D02*
X56020000Y-27408557D01*
X56020000Y-27408557D02*
X56020000Y-26508557D01*
X55591429Y-27065700D02*
X54905715Y-27065700D01*
X54305714Y-26508557D02*
X54134286Y-26508557D01*
X54134286Y-26508557D02*
X54048571Y-26551414D01*
X54048571Y-26551414D02*
X53962857Y-26637128D01*
X53962857Y-26637128D02*
X53920000Y-26808557D01*
X53920000Y-26808557D02*
X53920000Y-27108557D01*
X53920000Y-27108557D02*
X53962857Y-27279985D01*
X53962857Y-27279985D02*
X54048571Y-27365700D01*
X54048571Y-27365700D02*
X54134286Y-27408557D01*
X54134286Y-27408557D02*
X54305714Y-27408557D01*
X54305714Y-27408557D02*
X54391429Y-27365700D01*
X54391429Y-27365700D02*
X54477143Y-27279985D01*
X54477143Y-27279985D02*
X54520000Y-27108557D01*
X54520000Y-27108557D02*
X54520000Y-26808557D01*
X54520000Y-26808557D02*
X54477143Y-26637128D01*
X54477143Y-26637128D02*
X54391429Y-26551414D01*
X54391429Y-26551414D02*
X54305714Y-26508557D01*
X53534286Y-27408557D02*
X53534286Y-26508557D01*
X53534286Y-26937128D02*
X53020000Y-26937128D01*
X53020000Y-27408557D02*
X53020000Y-26508557D01*
X52162857Y-27408557D02*
X52591429Y-27408557D01*
X52591429Y-27408557D02*
X52591429Y-26508557D01*
X51862858Y-27065700D02*
X51177144Y-27065700D01*
X50791429Y-27365700D02*
X50662858Y-27408557D01*
X50662858Y-27408557D02*
X50448572Y-27408557D01*
X50448572Y-27408557D02*
X50362858Y-27365700D01*
X50362858Y-27365700D02*
X50320000Y-27322842D01*
X50320000Y-27322842D02*
X50277143Y-27237128D01*
X50277143Y-27237128D02*
X50277143Y-27151414D01*
X50277143Y-27151414D02*
X50320000Y-27065700D01*
X50320000Y-27065700D02*
X50362858Y-27022842D01*
X50362858Y-27022842D02*
X50448572Y-26979985D01*
X50448572Y-26979985D02*
X50620000Y-26937128D01*
X50620000Y-26937128D02*
X50705715Y-26894271D01*
X50705715Y-26894271D02*
X50748572Y-26851414D01*
X50748572Y-26851414D02*
X50791429Y-26765700D01*
X50791429Y-26765700D02*
X50791429Y-26679985D01*
X50791429Y-26679985D02*
X50748572Y-26594271D01*
X50748572Y-26594271D02*
X50705715Y-26551414D01*
X50705715Y-26551414D02*
X50620000Y-26508557D01*
X50620000Y-26508557D02*
X50405715Y-26508557D01*
X50405715Y-26508557D02*
X50277143Y-26551414D01*
X49291429Y-26808557D02*
X49077143Y-27408557D01*
X49077143Y-27408557D02*
X48862858Y-26808557D01*
X48562858Y-26594271D02*
X48520001Y-26551414D01*
X48520001Y-26551414D02*
X48434287Y-26508557D01*
X48434287Y-26508557D02*
X48220001Y-26508557D01*
X48220001Y-26508557D02*
X48134287Y-26551414D01*
X48134287Y-26551414D02*
X48091429Y-26594271D01*
X48091429Y-26594271D02*
X48048572Y-26679985D01*
X48048572Y-26679985D02*
X48048572Y-26765700D01*
X48048572Y-26765700D02*
X48091429Y-26894271D01*
X48091429Y-26894271D02*
X48605715Y-27408557D01*
X48605715Y-27408557D02*
X48048572Y-27408557D01*
X46077144Y-27708557D02*
X46077144Y-26422842D01*
X43677145Y-26808557D02*
X43677145Y-27537128D01*
X43677145Y-27537128D02*
X43720002Y-27622842D01*
X43720002Y-27622842D02*
X43762859Y-27665700D01*
X43762859Y-27665700D02*
X43848573Y-27708557D01*
X43848573Y-27708557D02*
X43977145Y-27708557D01*
X43977145Y-27708557D02*
X44062859Y-27665700D01*
X43677145Y-27365700D02*
X43762859Y-27408557D01*
X43762859Y-27408557D02*
X43934287Y-27408557D01*
X43934287Y-27408557D02*
X44020002Y-27365700D01*
X44020002Y-27365700D02*
X44062859Y-27322842D01*
X44062859Y-27322842D02*
X44105716Y-27237128D01*
X44105716Y-27237128D02*
X44105716Y-26979985D01*
X44105716Y-26979985D02*
X44062859Y-26894271D01*
X44062859Y-26894271D02*
X44020002Y-26851414D01*
X44020002Y-26851414D02*
X43934287Y-26808557D01*
X43934287Y-26808557D02*
X43762859Y-26808557D01*
X43762859Y-26808557D02*
X43677145Y-26851414D01*
X43248573Y-27408557D02*
X43248573Y-26808557D01*
X43248573Y-26508557D02*
X43291430Y-26551414D01*
X43291430Y-26551414D02*
X43248573Y-26594271D01*
X43248573Y-26594271D02*
X43205716Y-26551414D01*
X43205716Y-26551414D02*
X43248573Y-26508557D01*
X43248573Y-26508557D02*
X43248573Y-26594271D01*
X42948573Y-26808557D02*
X42605716Y-26808557D01*
X42820002Y-26508557D02*
X42820002Y-27279985D01*
X42820002Y-27279985D02*
X42777145Y-27365700D01*
X42777145Y-27365700D02*
X42691430Y-27408557D01*
X42691430Y-27408557D02*
X42605716Y-27408557D01*
X42305716Y-27408557D02*
X42305716Y-26508557D01*
X41920002Y-27408557D02*
X41920002Y-26937128D01*
X41920002Y-26937128D02*
X41962859Y-26851414D01*
X41962859Y-26851414D02*
X42048573Y-26808557D01*
X42048573Y-26808557D02*
X42177144Y-26808557D01*
X42177144Y-26808557D02*
X42262859Y-26851414D01*
X42262859Y-26851414D02*
X42305716Y-26894271D01*
X41105716Y-26808557D02*
X41105716Y-27408557D01*
X41491430Y-26808557D02*
X41491430Y-27279985D01*
X41491430Y-27279985D02*
X41448573Y-27365700D01*
X41448573Y-27365700D02*
X41362858Y-27408557D01*
X41362858Y-27408557D02*
X41234287Y-27408557D01*
X41234287Y-27408557D02*
X41148573Y-27365700D01*
X41148573Y-27365700D02*
X41105716Y-27322842D01*
X40677144Y-27408557D02*
X40677144Y-26508557D01*
X40677144Y-26851414D02*
X40591430Y-26808557D01*
X40591430Y-26808557D02*
X40420001Y-26808557D01*
X40420001Y-26808557D02*
X40334287Y-26851414D01*
X40334287Y-26851414D02*
X40291430Y-26894271D01*
X40291430Y-26894271D02*
X40248572Y-26979985D01*
X40248572Y-26979985D02*
X40248572Y-27237128D01*
X40248572Y-27237128D02*
X40291430Y-27322842D01*
X40291430Y-27322842D02*
X40334287Y-27365700D01*
X40334287Y-27365700D02*
X40420001Y-27408557D01*
X40420001Y-27408557D02*
X40591430Y-27408557D01*
X40591430Y-27408557D02*
X40677144Y-27365700D01*
X39862858Y-27322842D02*
X39820001Y-27365700D01*
X39820001Y-27365700D02*
X39862858Y-27408557D01*
X39862858Y-27408557D02*
X39905715Y-27365700D01*
X39905715Y-27365700D02*
X39862858Y-27322842D01*
X39862858Y-27322842D02*
X39862858Y-27408557D01*
X39048573Y-27365700D02*
X39134287Y-27408557D01*
X39134287Y-27408557D02*
X39305715Y-27408557D01*
X39305715Y-27408557D02*
X39391430Y-27365700D01*
X39391430Y-27365700D02*
X39434287Y-27322842D01*
X39434287Y-27322842D02*
X39477144Y-27237128D01*
X39477144Y-27237128D02*
X39477144Y-26979985D01*
X39477144Y-26979985D02*
X39434287Y-26894271D01*
X39434287Y-26894271D02*
X39391430Y-26851414D01*
X39391430Y-26851414D02*
X39305715Y-26808557D01*
X39305715Y-26808557D02*
X39134287Y-26808557D01*
X39134287Y-26808557D02*
X39048573Y-26851414D01*
X38534286Y-27408557D02*
X38620001Y-27365700D01*
X38620001Y-27365700D02*
X38662858Y-27322842D01*
X38662858Y-27322842D02*
X38705715Y-27237128D01*
X38705715Y-27237128D02*
X38705715Y-26979985D01*
X38705715Y-26979985D02*
X38662858Y-26894271D01*
X38662858Y-26894271D02*
X38620001Y-26851414D01*
X38620001Y-26851414D02*
X38534286Y-26808557D01*
X38534286Y-26808557D02*
X38405715Y-26808557D01*
X38405715Y-26808557D02*
X38320001Y-26851414D01*
X38320001Y-26851414D02*
X38277144Y-26894271D01*
X38277144Y-26894271D02*
X38234286Y-26979985D01*
X38234286Y-26979985D02*
X38234286Y-27237128D01*
X38234286Y-27237128D02*
X38277144Y-27322842D01*
X38277144Y-27322842D02*
X38320001Y-27365700D01*
X38320001Y-27365700D02*
X38405715Y-27408557D01*
X38405715Y-27408557D02*
X38534286Y-27408557D01*
X37848572Y-27408557D02*
X37848572Y-26808557D01*
X37848572Y-26894271D02*
X37805715Y-26851414D01*
X37805715Y-26851414D02*
X37720000Y-26808557D01*
X37720000Y-26808557D02*
X37591429Y-26808557D01*
X37591429Y-26808557D02*
X37505715Y-26851414D01*
X37505715Y-26851414D02*
X37462858Y-26937128D01*
X37462858Y-26937128D02*
X37462858Y-27408557D01*
X37462858Y-26937128D02*
X37420000Y-26851414D01*
X37420000Y-26851414D02*
X37334286Y-26808557D01*
X37334286Y-26808557D02*
X37205715Y-26808557D01*
X37205715Y-26808557D02*
X37120000Y-26851414D01*
X37120000Y-26851414D02*
X37077143Y-26937128D01*
X37077143Y-26937128D02*
X37077143Y-27408557D01*
X36005715Y-26465700D02*
X36777143Y-27622842D01*
X35577143Y-27408557D02*
X35662858Y-27365700D01*
X35662858Y-27365700D02*
X35705715Y-27279985D01*
X35705715Y-27279985D02*
X35705715Y-26508557D01*
X35234286Y-27408557D02*
X35234286Y-26808557D01*
X35234286Y-26979985D02*
X35191429Y-26894271D01*
X35191429Y-26894271D02*
X35148572Y-26851414D01*
X35148572Y-26851414D02*
X35062857Y-26808557D01*
X35062857Y-26808557D02*
X34977143Y-26808557D01*
X34677143Y-27408557D02*
X34677143Y-26808557D01*
X34677143Y-26979985D02*
X34634286Y-26894271D01*
X34634286Y-26894271D02*
X34591429Y-26851414D01*
X34591429Y-26851414D02*
X34505714Y-26808557D01*
X34505714Y-26808557D02*
X34420000Y-26808557D01*
X33991428Y-27408557D02*
X34077143Y-27365700D01*
X34077143Y-27365700D02*
X34120000Y-27322842D01*
X34120000Y-27322842D02*
X34162857Y-27237128D01*
X34162857Y-27237128D02*
X34162857Y-26979985D01*
X34162857Y-26979985D02*
X34120000Y-26894271D01*
X34120000Y-26894271D02*
X34077143Y-26851414D01*
X34077143Y-26851414D02*
X33991428Y-26808557D01*
X33991428Y-26808557D02*
X33862857Y-26808557D01*
X33862857Y-26808557D02*
X33777143Y-26851414D01*
X33777143Y-26851414D02*
X33734286Y-26894271D01*
X33734286Y-26894271D02*
X33691428Y-26979985D01*
X33691428Y-26979985D02*
X33691428Y-27237128D01*
X33691428Y-27237128D02*
X33734286Y-27322842D01*
X33734286Y-27322842D02*
X33777143Y-27365700D01*
X33777143Y-27365700D02*
X33862857Y-27408557D01*
X33862857Y-27408557D02*
X33991428Y-27408557D01*
X33348571Y-27365700D02*
X33262857Y-27408557D01*
X33262857Y-27408557D02*
X33091428Y-27408557D01*
X33091428Y-27408557D02*
X33005714Y-27365700D01*
X33005714Y-27365700D02*
X32962857Y-27279985D01*
X32962857Y-27279985D02*
X32962857Y-27237128D01*
X32962857Y-27237128D02*
X33005714Y-27151414D01*
X33005714Y-27151414D02*
X33091428Y-27108557D01*
X33091428Y-27108557D02*
X33220000Y-27108557D01*
X33220000Y-27108557D02*
X33305714Y-27065700D01*
X33305714Y-27065700D02*
X33348571Y-26979985D01*
X33348571Y-26979985D02*
X33348571Y-26937128D01*
X33348571Y-26937128D02*
X33305714Y-26851414D01*
X33305714Y-26851414D02*
X33220000Y-26808557D01*
X33220000Y-26808557D02*
X33091428Y-26808557D01*
X33091428Y-26808557D02*
X33005714Y-26851414D01*
X32191429Y-27408557D02*
X32191429Y-26937128D01*
X32191429Y-26937128D02*
X32234286Y-26851414D01*
X32234286Y-26851414D02*
X32320000Y-26808557D01*
X32320000Y-26808557D02*
X32491429Y-26808557D01*
X32491429Y-26808557D02*
X32577143Y-26851414D01*
X32191429Y-27365700D02*
X32277143Y-27408557D01*
X32277143Y-27408557D02*
X32491429Y-27408557D01*
X32491429Y-27408557D02*
X32577143Y-27365700D01*
X32577143Y-27365700D02*
X32620000Y-27279985D01*
X32620000Y-27279985D02*
X32620000Y-27194271D01*
X32620000Y-27194271D02*
X32577143Y-27108557D01*
X32577143Y-27108557D02*
X32491429Y-27065700D01*
X32491429Y-27065700D02*
X32277143Y-27065700D01*
X32277143Y-27065700D02*
X32191429Y-27022842D01*
X31120000Y-26465700D02*
X31891428Y-27622842D01*
X30948571Y-26808557D02*
X30605714Y-26808557D01*
X30820000Y-26508557D02*
X30820000Y-27279985D01*
X30820000Y-27279985D02*
X30777143Y-27365700D01*
X30777143Y-27365700D02*
X30691428Y-27408557D01*
X30691428Y-27408557D02*
X30605714Y-27408557D01*
X30305714Y-27408557D02*
X30305714Y-26508557D01*
X30220000Y-27065700D02*
X29962857Y-27408557D01*
X29962857Y-26808557D02*
X30305714Y-27151414D01*
X29577143Y-27408557D02*
X29577143Y-26808557D01*
X29577143Y-26894271D02*
X29534286Y-26851414D01*
X29534286Y-26851414D02*
X29448571Y-26808557D01*
X29448571Y-26808557D02*
X29320000Y-26808557D01*
X29320000Y-26808557D02*
X29234286Y-26851414D01*
X29234286Y-26851414D02*
X29191429Y-26937128D01*
X29191429Y-26937128D02*
X29191429Y-27408557D01*
X29191429Y-26937128D02*
X29148571Y-26851414D01*
X29148571Y-26851414D02*
X29062857Y-26808557D01*
X29062857Y-26808557D02*
X28934286Y-26808557D01*
X28934286Y-26808557D02*
X28848571Y-26851414D01*
X28848571Y-26851414D02*
X28805714Y-26937128D01*
X28805714Y-26937128D02*
X28805714Y-27408557D01*
X28034286Y-27365700D02*
X28120000Y-27408557D01*
X28120000Y-27408557D02*
X28291429Y-27408557D01*
X28291429Y-27408557D02*
X28377143Y-27365700D01*
X28377143Y-27365700D02*
X28420000Y-27279985D01*
X28420000Y-27279985D02*
X28420000Y-26937128D01*
X28420000Y-26937128D02*
X28377143Y-26851414D01*
X28377143Y-26851414D02*
X28291429Y-26808557D01*
X28291429Y-26808557D02*
X28120000Y-26808557D01*
X28120000Y-26808557D02*
X28034286Y-26851414D01*
X28034286Y-26851414D02*
X27991429Y-26937128D01*
X27991429Y-26937128D02*
X27991429Y-27022842D01*
X27991429Y-27022842D02*
X28420000Y-27108557D01*
X27605714Y-27408557D02*
X27605714Y-26808557D01*
X27605714Y-26894271D02*
X27562857Y-26851414D01*
X27562857Y-26851414D02*
X27477142Y-26808557D01*
X27477142Y-26808557D02*
X27348571Y-26808557D01*
X27348571Y-26808557D02*
X27262857Y-26851414D01*
X27262857Y-26851414D02*
X27220000Y-26937128D01*
X27220000Y-26937128D02*
X27220000Y-27408557D01*
X27220000Y-26937128D02*
X27177142Y-26851414D01*
X27177142Y-26851414D02*
X27091428Y-26808557D01*
X27091428Y-26808557D02*
X26962857Y-26808557D01*
X26962857Y-26808557D02*
X26877142Y-26851414D01*
X26877142Y-26851414D02*
X26834285Y-26937128D01*
X26834285Y-26937128D02*
X26834285Y-27408557D01*
X25934285Y-27408557D02*
X26448571Y-27408557D01*
X26191428Y-27408557D02*
X26191428Y-26508557D01*
X26191428Y-26508557D02*
X26277142Y-26637128D01*
X26277142Y-26637128D02*
X26362857Y-26722842D01*
X26362857Y-26722842D02*
X26448571Y-26765700D01*
X25591428Y-26594271D02*
X25548571Y-26551414D01*
X25548571Y-26551414D02*
X25462857Y-26508557D01*
X25462857Y-26508557D02*
X25248571Y-26508557D01*
X25248571Y-26508557D02*
X25162857Y-26551414D01*
X25162857Y-26551414D02*
X25119999Y-26594271D01*
X25119999Y-26594271D02*
X25077142Y-26679985D01*
X25077142Y-26679985D02*
X25077142Y-26765700D01*
X25077142Y-26765700D02*
X25119999Y-26894271D01*
X25119999Y-26894271D02*
X25634285Y-27408557D01*
X25634285Y-27408557D02*
X25077142Y-27408557D01*
X24562856Y-26894271D02*
X24648571Y-26851414D01*
X24648571Y-26851414D02*
X24691428Y-26808557D01*
X24691428Y-26808557D02*
X24734285Y-26722842D01*
X24734285Y-26722842D02*
X24734285Y-26679985D01*
X24734285Y-26679985D02*
X24691428Y-26594271D01*
X24691428Y-26594271D02*
X24648571Y-26551414D01*
X24648571Y-26551414D02*
X24562856Y-26508557D01*
X24562856Y-26508557D02*
X24391428Y-26508557D01*
X24391428Y-26508557D02*
X24305714Y-26551414D01*
X24305714Y-26551414D02*
X24262856Y-26594271D01*
X24262856Y-26594271D02*
X24219999Y-26679985D01*
X24219999Y-26679985D02*
X24219999Y-26722842D01*
X24219999Y-26722842D02*
X24262856Y-26808557D01*
X24262856Y-26808557D02*
X24305714Y-26851414D01*
X24305714Y-26851414D02*
X24391428Y-26894271D01*
X24391428Y-26894271D02*
X24562856Y-26894271D01*
X24562856Y-26894271D02*
X24648571Y-26937128D01*
X24648571Y-26937128D02*
X24691428Y-26979985D01*
X24691428Y-26979985D02*
X24734285Y-27065700D01*
X24734285Y-27065700D02*
X24734285Y-27237128D01*
X24734285Y-27237128D02*
X24691428Y-27322842D01*
X24691428Y-27322842D02*
X24648571Y-27365700D01*
X24648571Y-27365700D02*
X24562856Y-27408557D01*
X24562856Y-27408557D02*
X24391428Y-27408557D01*
X24391428Y-27408557D02*
X24305714Y-27365700D01*
X24305714Y-27365700D02*
X24262856Y-27322842D01*
X24262856Y-27322842D02*
X24219999Y-27237128D01*
X24219999Y-27237128D02*
X24219999Y-27065700D01*
X24219999Y-27065700D02*
X24262856Y-26979985D01*
X24262856Y-26979985D02*
X24305714Y-26937128D01*
X24305714Y-26937128D02*
X24391428Y-26894271D01*
X23834285Y-27065700D02*
X23148571Y-27065700D01*
X22719999Y-27408557D02*
X22719999Y-26508557D01*
X22634285Y-27065700D02*
X22377142Y-27408557D01*
X22377142Y-26808557D02*
X22719999Y-27151414D01*
X21991428Y-27408557D02*
X21991428Y-26808557D01*
X21991428Y-26508557D02*
X22034285Y-26551414D01*
X22034285Y-26551414D02*
X21991428Y-26594271D01*
X21991428Y-26594271D02*
X21948571Y-26551414D01*
X21948571Y-26551414D02*
X21991428Y-26508557D01*
X21991428Y-26508557D02*
X21991428Y-26594271D01*
X21177143Y-27365700D02*
X21262857Y-27408557D01*
X21262857Y-27408557D02*
X21434285Y-27408557D01*
X21434285Y-27408557D02*
X21520000Y-27365700D01*
X21520000Y-27365700D02*
X21562857Y-27322842D01*
X21562857Y-27322842D02*
X21605714Y-27237128D01*
X21605714Y-27237128D02*
X21605714Y-26979985D01*
X21605714Y-26979985D02*
X21562857Y-26894271D01*
X21562857Y-26894271D02*
X21520000Y-26851414D01*
X21520000Y-26851414D02*
X21434285Y-26808557D01*
X21434285Y-26808557D02*
X21262857Y-26808557D01*
X21262857Y-26808557D02*
X21177143Y-26851414D01*
X20405714Y-27408557D02*
X20405714Y-26937128D01*
X20405714Y-26937128D02*
X20448571Y-26851414D01*
X20448571Y-26851414D02*
X20534285Y-26808557D01*
X20534285Y-26808557D02*
X20705714Y-26808557D01*
X20705714Y-26808557D02*
X20791428Y-26851414D01*
X20405714Y-27365700D02*
X20491428Y-27408557D01*
X20491428Y-27408557D02*
X20705714Y-27408557D01*
X20705714Y-27408557D02*
X20791428Y-27365700D01*
X20791428Y-27365700D02*
X20834285Y-27279985D01*
X20834285Y-27279985D02*
X20834285Y-27194271D01*
X20834285Y-27194271D02*
X20791428Y-27108557D01*
X20791428Y-27108557D02*
X20705714Y-27065700D01*
X20705714Y-27065700D02*
X20491428Y-27065700D01*
X20491428Y-27065700D02*
X20405714Y-27022842D01*
X19591428Y-27408557D02*
X19591428Y-26508557D01*
X19591428Y-27365700D02*
X19677142Y-27408557D01*
X19677142Y-27408557D02*
X19848570Y-27408557D01*
X19848570Y-27408557D02*
X19934285Y-27365700D01*
X19934285Y-27365700D02*
X19977142Y-27322842D01*
X19977142Y-27322842D02*
X20019999Y-27237128D01*
X20019999Y-27237128D02*
X20019999Y-26979985D01*
X20019999Y-26979985D02*
X19977142Y-26894271D01*
X19977142Y-26894271D02*
X19934285Y-26851414D01*
X19934285Y-26851414D02*
X19848570Y-26808557D01*
X19848570Y-26808557D02*
X19677142Y-26808557D01*
X19677142Y-26808557D02*
X19591428Y-26851414D01*
X57434288Y-30408557D02*
X57434288Y-29508557D01*
X57434288Y-29508557D02*
X57220002Y-29508557D01*
X57220002Y-29508557D02*
X57091431Y-29551414D01*
X57091431Y-29551414D02*
X57005716Y-29637128D01*
X57005716Y-29637128D02*
X56962859Y-29722842D01*
X56962859Y-29722842D02*
X56920002Y-29894271D01*
X56920002Y-29894271D02*
X56920002Y-30022842D01*
X56920002Y-30022842D02*
X56962859Y-30194271D01*
X56962859Y-30194271D02*
X57005716Y-30279985D01*
X57005716Y-30279985D02*
X57091431Y-30365700D01*
X57091431Y-30365700D02*
X57220002Y-30408557D01*
X57220002Y-30408557D02*
X57434288Y-30408557D01*
X56191431Y-30365700D02*
X56277145Y-30408557D01*
X56277145Y-30408557D02*
X56448574Y-30408557D01*
X56448574Y-30408557D02*
X56534288Y-30365700D01*
X56534288Y-30365700D02*
X56577145Y-30279985D01*
X56577145Y-30279985D02*
X56577145Y-29937128D01*
X56577145Y-29937128D02*
X56534288Y-29851414D01*
X56534288Y-29851414D02*
X56448574Y-29808557D01*
X56448574Y-29808557D02*
X56277145Y-29808557D01*
X56277145Y-29808557D02*
X56191431Y-29851414D01*
X56191431Y-29851414D02*
X56148574Y-29937128D01*
X56148574Y-29937128D02*
X56148574Y-30022842D01*
X56148574Y-30022842D02*
X56577145Y-30108557D01*
X55762859Y-30408557D02*
X55762859Y-29808557D01*
X55762859Y-29979985D02*
X55720002Y-29894271D01*
X55720002Y-29894271D02*
X55677145Y-29851414D01*
X55677145Y-29851414D02*
X55591430Y-29808557D01*
X55591430Y-29808557D02*
X55505716Y-29808557D01*
X55205716Y-30408557D02*
X55205716Y-29808557D01*
X55205716Y-29508557D02*
X55248573Y-29551414D01*
X55248573Y-29551414D02*
X55205716Y-29594271D01*
X55205716Y-29594271D02*
X55162859Y-29551414D01*
X55162859Y-29551414D02*
X55205716Y-29508557D01*
X55205716Y-29508557D02*
X55205716Y-29594271D01*
X54862859Y-29808557D02*
X54648573Y-30408557D01*
X54648573Y-30408557D02*
X54434288Y-29808557D01*
X53705717Y-30408557D02*
X53705717Y-29937128D01*
X53705717Y-29937128D02*
X53748574Y-29851414D01*
X53748574Y-29851414D02*
X53834288Y-29808557D01*
X53834288Y-29808557D02*
X54005717Y-29808557D01*
X54005717Y-29808557D02*
X54091431Y-29851414D01*
X53705717Y-30365700D02*
X53791431Y-30408557D01*
X53791431Y-30408557D02*
X54005717Y-30408557D01*
X54005717Y-30408557D02*
X54091431Y-30365700D01*
X54091431Y-30365700D02*
X54134288Y-30279985D01*
X54134288Y-30279985D02*
X54134288Y-30194271D01*
X54134288Y-30194271D02*
X54091431Y-30108557D01*
X54091431Y-30108557D02*
X54005717Y-30065700D01*
X54005717Y-30065700D02*
X53791431Y-30065700D01*
X53791431Y-30065700D02*
X53705717Y-30022842D01*
X52891431Y-30408557D02*
X52891431Y-29508557D01*
X52891431Y-30365700D02*
X52977145Y-30408557D01*
X52977145Y-30408557D02*
X53148573Y-30408557D01*
X53148573Y-30408557D02*
X53234288Y-30365700D01*
X53234288Y-30365700D02*
X53277145Y-30322842D01*
X53277145Y-30322842D02*
X53320002Y-30237128D01*
X53320002Y-30237128D02*
X53320002Y-29979985D01*
X53320002Y-29979985D02*
X53277145Y-29894271D01*
X53277145Y-29894271D02*
X53234288Y-29851414D01*
X53234288Y-29851414D02*
X53148573Y-29808557D01*
X53148573Y-29808557D02*
X52977145Y-29808557D01*
X52977145Y-29808557D02*
X52891431Y-29851414D01*
X52334287Y-30408557D02*
X52420002Y-30365700D01*
X52420002Y-30365700D02*
X52462859Y-30322842D01*
X52462859Y-30322842D02*
X52505716Y-30237128D01*
X52505716Y-30237128D02*
X52505716Y-29979985D01*
X52505716Y-29979985D02*
X52462859Y-29894271D01*
X52462859Y-29894271D02*
X52420002Y-29851414D01*
X52420002Y-29851414D02*
X52334287Y-29808557D01*
X52334287Y-29808557D02*
X52205716Y-29808557D01*
X52205716Y-29808557D02*
X52120002Y-29851414D01*
X52120002Y-29851414D02*
X52077145Y-29894271D01*
X52077145Y-29894271D02*
X52034287Y-29979985D01*
X52034287Y-29979985D02*
X52034287Y-30237128D01*
X52034287Y-30237128D02*
X52077145Y-30322842D01*
X52077145Y-30322842D02*
X52120002Y-30365700D01*
X52120002Y-30365700D02*
X52205716Y-30408557D01*
X52205716Y-30408557D02*
X52334287Y-30408557D01*
X50577145Y-30408557D02*
X50577145Y-29508557D01*
X50577145Y-30365700D02*
X50662859Y-30408557D01*
X50662859Y-30408557D02*
X50834287Y-30408557D01*
X50834287Y-30408557D02*
X50920002Y-30365700D01*
X50920002Y-30365700D02*
X50962859Y-30322842D01*
X50962859Y-30322842D02*
X51005716Y-30237128D01*
X51005716Y-30237128D02*
X51005716Y-29979985D01*
X51005716Y-29979985D02*
X50962859Y-29894271D01*
X50962859Y-29894271D02*
X50920002Y-29851414D01*
X50920002Y-29851414D02*
X50834287Y-29808557D01*
X50834287Y-29808557D02*
X50662859Y-29808557D01*
X50662859Y-29808557D02*
X50577145Y-29851414D01*
X49805716Y-30365700D02*
X49891430Y-30408557D01*
X49891430Y-30408557D02*
X50062859Y-30408557D01*
X50062859Y-30408557D02*
X50148573Y-30365700D01*
X50148573Y-30365700D02*
X50191430Y-30279985D01*
X50191430Y-30279985D02*
X50191430Y-29937128D01*
X50191430Y-29937128D02*
X50148573Y-29851414D01*
X50148573Y-29851414D02*
X50062859Y-29808557D01*
X50062859Y-29808557D02*
X49891430Y-29808557D01*
X49891430Y-29808557D02*
X49805716Y-29851414D01*
X49805716Y-29851414D02*
X49762859Y-29937128D01*
X49762859Y-29937128D02*
X49762859Y-30022842D01*
X49762859Y-30022842D02*
X50191430Y-30108557D01*
X48820001Y-29508557D02*
X48520001Y-30408557D01*
X48520001Y-30408557D02*
X48220001Y-29508557D01*
X47577144Y-30365700D02*
X47662858Y-30408557D01*
X47662858Y-30408557D02*
X47834287Y-30408557D01*
X47834287Y-30408557D02*
X47920001Y-30365700D01*
X47920001Y-30365700D02*
X47962858Y-30279985D01*
X47962858Y-30279985D02*
X47962858Y-29937128D01*
X47962858Y-29937128D02*
X47920001Y-29851414D01*
X47920001Y-29851414D02*
X47834287Y-29808557D01*
X47834287Y-29808557D02*
X47662858Y-29808557D01*
X47662858Y-29808557D02*
X47577144Y-29851414D01*
X47577144Y-29851414D02*
X47534287Y-29937128D01*
X47534287Y-29937128D02*
X47534287Y-30022842D01*
X47534287Y-30022842D02*
X47962858Y-30108557D01*
X47020000Y-30408557D02*
X47105715Y-30365700D01*
X47105715Y-30365700D02*
X47148572Y-30279985D01*
X47148572Y-30279985D02*
X47148572Y-29508557D01*
X46334286Y-30365700D02*
X46420000Y-30408557D01*
X46420000Y-30408557D02*
X46591429Y-30408557D01*
X46591429Y-30408557D02*
X46677143Y-30365700D01*
X46677143Y-30365700D02*
X46720000Y-30279985D01*
X46720000Y-30279985D02*
X46720000Y-29937128D01*
X46720000Y-29937128D02*
X46677143Y-29851414D01*
X46677143Y-29851414D02*
X46591429Y-29808557D01*
X46591429Y-29808557D02*
X46420000Y-29808557D01*
X46420000Y-29808557D02*
X46334286Y-29851414D01*
X46334286Y-29851414D02*
X46291429Y-29937128D01*
X46291429Y-29937128D02*
X46291429Y-30022842D01*
X46291429Y-30022842D02*
X46720000Y-30108557D01*
X45948571Y-30365700D02*
X45862857Y-30408557D01*
X45862857Y-30408557D02*
X45691428Y-30408557D01*
X45691428Y-30408557D02*
X45605714Y-30365700D01*
X45605714Y-30365700D02*
X45562857Y-30279985D01*
X45562857Y-30279985D02*
X45562857Y-30237128D01*
X45562857Y-30237128D02*
X45605714Y-30151414D01*
X45605714Y-30151414D02*
X45691428Y-30108557D01*
X45691428Y-30108557D02*
X45820000Y-30108557D01*
X45820000Y-30108557D02*
X45905714Y-30065700D01*
X45905714Y-30065700D02*
X45948571Y-29979985D01*
X45948571Y-29979985D02*
X45948571Y-29937128D01*
X45948571Y-29937128D02*
X45905714Y-29851414D01*
X45905714Y-29851414D02*
X45820000Y-29808557D01*
X45820000Y-29808557D02*
X45691428Y-29808557D01*
X45691428Y-29808557D02*
X45605714Y-29851414D01*
X45048571Y-30408557D02*
X45134286Y-30365700D01*
X45134286Y-30365700D02*
X45177143Y-30322842D01*
X45177143Y-30322842D02*
X45220000Y-30237128D01*
X45220000Y-30237128D02*
X45220000Y-29979985D01*
X45220000Y-29979985D02*
X45177143Y-29894271D01*
X45177143Y-29894271D02*
X45134286Y-29851414D01*
X45134286Y-29851414D02*
X45048571Y-29808557D01*
X45048571Y-29808557D02*
X44920000Y-29808557D01*
X44920000Y-29808557D02*
X44834286Y-29851414D01*
X44834286Y-29851414D02*
X44791429Y-29894271D01*
X44791429Y-29894271D02*
X44748571Y-29979985D01*
X44748571Y-29979985D02*
X44748571Y-30237128D01*
X44748571Y-30237128D02*
X44791429Y-30322842D01*
X44791429Y-30322842D02*
X44834286Y-30365700D01*
X44834286Y-30365700D02*
X44920000Y-30408557D01*
X44920000Y-30408557D02*
X45048571Y-30408557D01*
X44491428Y-29808557D02*
X44148571Y-29808557D01*
X44362857Y-30408557D02*
X44362857Y-29637128D01*
X44362857Y-29637128D02*
X44320000Y-29551414D01*
X44320000Y-29551414D02*
X44234285Y-29508557D01*
X44234285Y-29508557D02*
X44148571Y-29508557D01*
X43977142Y-29808557D02*
X43634285Y-29808557D01*
X43848571Y-29508557D02*
X43848571Y-30279985D01*
X43848571Y-30279985D02*
X43805714Y-30365700D01*
X43805714Y-30365700D02*
X43719999Y-30408557D01*
X43719999Y-30408557D02*
X43634285Y-30408557D01*
X42691428Y-29594271D02*
X42648571Y-29551414D01*
X42648571Y-29551414D02*
X42562857Y-29508557D01*
X42562857Y-29508557D02*
X42348571Y-29508557D01*
X42348571Y-29508557D02*
X42262857Y-29551414D01*
X42262857Y-29551414D02*
X42219999Y-29594271D01*
X42219999Y-29594271D02*
X42177142Y-29679985D01*
X42177142Y-29679985D02*
X42177142Y-29765700D01*
X42177142Y-29765700D02*
X42219999Y-29894271D01*
X42219999Y-29894271D02*
X42734285Y-30408557D01*
X42734285Y-30408557D02*
X42177142Y-30408557D01*
X41619999Y-29508557D02*
X41534285Y-29508557D01*
X41534285Y-29508557D02*
X41448571Y-29551414D01*
X41448571Y-29551414D02*
X41405714Y-29594271D01*
X41405714Y-29594271D02*
X41362856Y-29679985D01*
X41362856Y-29679985D02*
X41319999Y-29851414D01*
X41319999Y-29851414D02*
X41319999Y-30065700D01*
X41319999Y-30065700D02*
X41362856Y-30237128D01*
X41362856Y-30237128D02*
X41405714Y-30322842D01*
X41405714Y-30322842D02*
X41448571Y-30365700D01*
X41448571Y-30365700D02*
X41534285Y-30408557D01*
X41534285Y-30408557D02*
X41619999Y-30408557D01*
X41619999Y-30408557D02*
X41705714Y-30365700D01*
X41705714Y-30365700D02*
X41748571Y-30322842D01*
X41748571Y-30322842D02*
X41791428Y-30237128D01*
X41791428Y-30237128D02*
X41834285Y-30065700D01*
X41834285Y-30065700D02*
X41834285Y-29851414D01*
X41834285Y-29851414D02*
X41791428Y-29679985D01*
X41791428Y-29679985D02*
X41748571Y-29594271D01*
X41748571Y-29594271D02*
X41705714Y-29551414D01*
X41705714Y-29551414D02*
X41619999Y-29508557D01*
X40762856Y-29508557D02*
X40677142Y-29508557D01*
X40677142Y-29508557D02*
X40591428Y-29551414D01*
X40591428Y-29551414D02*
X40548571Y-29594271D01*
X40548571Y-29594271D02*
X40505713Y-29679985D01*
X40505713Y-29679985D02*
X40462856Y-29851414D01*
X40462856Y-29851414D02*
X40462856Y-30065700D01*
X40462856Y-30065700D02*
X40505713Y-30237128D01*
X40505713Y-30237128D02*
X40548571Y-30322842D01*
X40548571Y-30322842D02*
X40591428Y-30365700D01*
X40591428Y-30365700D02*
X40677142Y-30408557D01*
X40677142Y-30408557D02*
X40762856Y-30408557D01*
X40762856Y-30408557D02*
X40848571Y-30365700D01*
X40848571Y-30365700D02*
X40891428Y-30322842D01*
X40891428Y-30322842D02*
X40934285Y-30237128D01*
X40934285Y-30237128D02*
X40977142Y-30065700D01*
X40977142Y-30065700D02*
X40977142Y-29851414D01*
X40977142Y-29851414D02*
X40934285Y-29679985D01*
X40934285Y-29679985D02*
X40891428Y-29594271D01*
X40891428Y-29594271D02*
X40848571Y-29551414D01*
X40848571Y-29551414D02*
X40762856Y-29508557D01*
X40034285Y-30408557D02*
X39862856Y-30408557D01*
X39862856Y-30408557D02*
X39777142Y-30365700D01*
X39777142Y-30365700D02*
X39734285Y-30322842D01*
X39734285Y-30322842D02*
X39648570Y-30194271D01*
X39648570Y-30194271D02*
X39605713Y-30022842D01*
X39605713Y-30022842D02*
X39605713Y-29679985D01*
X39605713Y-29679985D02*
X39648570Y-29594271D01*
X39648570Y-29594271D02*
X39691428Y-29551414D01*
X39691428Y-29551414D02*
X39777142Y-29508557D01*
X39777142Y-29508557D02*
X39948570Y-29508557D01*
X39948570Y-29508557D02*
X40034285Y-29551414D01*
X40034285Y-29551414D02*
X40077142Y-29594271D01*
X40077142Y-29594271D02*
X40119999Y-29679985D01*
X40119999Y-29679985D02*
X40119999Y-29894271D01*
X40119999Y-29894271D02*
X40077142Y-29979985D01*
X40077142Y-29979985D02*
X40034285Y-30022842D01*
X40034285Y-30022842D02*
X39948570Y-30065700D01*
X39948570Y-30065700D02*
X39777142Y-30065700D01*
X39777142Y-30065700D02*
X39691428Y-30022842D01*
X39691428Y-30022842D02*
X39648570Y-29979985D01*
X39648570Y-29979985D02*
X39605713Y-29894271D01*
X38191428Y-30365700D02*
X38277142Y-30408557D01*
X38277142Y-30408557D02*
X38448571Y-30408557D01*
X38448571Y-30408557D02*
X38534285Y-30365700D01*
X38534285Y-30365700D02*
X38577142Y-30279985D01*
X38577142Y-30279985D02*
X38577142Y-29937128D01*
X38577142Y-29937128D02*
X38534285Y-29851414D01*
X38534285Y-29851414D02*
X38448571Y-29808557D01*
X38448571Y-29808557D02*
X38277142Y-29808557D01*
X38277142Y-29808557D02*
X38191428Y-29851414D01*
X38191428Y-29851414D02*
X38148571Y-29937128D01*
X38148571Y-29937128D02*
X38148571Y-30022842D01*
X38148571Y-30022842D02*
X38577142Y-30108557D01*
X36648570Y-30408557D02*
X37077142Y-30408557D01*
X37077142Y-30408557D02*
X37077142Y-29508557D01*
X35962857Y-29808557D02*
X35962857Y-30408557D01*
X36348571Y-29808557D02*
X36348571Y-30279985D01*
X36348571Y-30279985D02*
X36305714Y-30365700D01*
X36305714Y-30365700D02*
X36219999Y-30408557D01*
X36219999Y-30408557D02*
X36091428Y-30408557D01*
X36091428Y-30408557D02*
X36005714Y-30365700D01*
X36005714Y-30365700D02*
X35962857Y-30322842D01*
X35148571Y-30365700D02*
X35234285Y-30408557D01*
X35234285Y-30408557D02*
X35405713Y-30408557D01*
X35405713Y-30408557D02*
X35491428Y-30365700D01*
X35491428Y-30365700D02*
X35534285Y-30322842D01*
X35534285Y-30322842D02*
X35577142Y-30237128D01*
X35577142Y-30237128D02*
X35577142Y-29979985D01*
X35577142Y-29979985D02*
X35534285Y-29894271D01*
X35534285Y-29894271D02*
X35491428Y-29851414D01*
X35491428Y-29851414D02*
X35405713Y-29808557D01*
X35405713Y-29808557D02*
X35234285Y-29808557D01*
X35234285Y-29808557D02*
X35148571Y-29851414D01*
X34377142Y-30365700D02*
X34462856Y-30408557D01*
X34462856Y-30408557D02*
X34634284Y-30408557D01*
X34634284Y-30408557D02*
X34719999Y-30365700D01*
X34719999Y-30365700D02*
X34762856Y-30322842D01*
X34762856Y-30322842D02*
X34805713Y-30237128D01*
X34805713Y-30237128D02*
X34805713Y-29979985D01*
X34805713Y-29979985D02*
X34762856Y-29894271D01*
X34762856Y-29894271D02*
X34719999Y-29851414D01*
X34719999Y-29851414D02*
X34634284Y-29808557D01*
X34634284Y-29808557D02*
X34462856Y-29808557D01*
X34462856Y-29808557D02*
X34377142Y-29851414D01*
X33605713Y-30408557D02*
X33605713Y-29937128D01*
X33605713Y-29937128D02*
X33648570Y-29851414D01*
X33648570Y-29851414D02*
X33734284Y-29808557D01*
X33734284Y-29808557D02*
X33905713Y-29808557D01*
X33905713Y-29808557D02*
X33991427Y-29851414D01*
X33605713Y-30365700D02*
X33691427Y-30408557D01*
X33691427Y-30408557D02*
X33905713Y-30408557D01*
X33905713Y-30408557D02*
X33991427Y-30365700D01*
X33991427Y-30365700D02*
X34034284Y-30279985D01*
X34034284Y-30279985D02*
X34034284Y-30194271D01*
X34034284Y-30194271D02*
X33991427Y-30108557D01*
X33991427Y-30108557D02*
X33905713Y-30065700D01*
X33905713Y-30065700D02*
X33691427Y-30065700D01*
X33691427Y-30065700D02*
X33605713Y-30022842D01*
X33219998Y-30365700D02*
X33134284Y-30408557D01*
X33134284Y-30408557D02*
X32962855Y-30408557D01*
X32962855Y-30408557D02*
X32877141Y-30365700D01*
X32877141Y-30365700D02*
X32834284Y-30279985D01*
X32834284Y-30279985D02*
X32834284Y-30237128D01*
X32834284Y-30237128D02*
X32877141Y-30151414D01*
X32877141Y-30151414D02*
X32962855Y-30108557D01*
X32962855Y-30108557D02*
X33091427Y-30108557D01*
X33091427Y-30108557D02*
X33177141Y-30065700D01*
X33177141Y-30065700D02*
X33219998Y-29979985D01*
X33219998Y-29979985D02*
X33219998Y-29937128D01*
X33219998Y-29937128D02*
X33177141Y-29851414D01*
X33177141Y-29851414D02*
X33091427Y-29808557D01*
X33091427Y-29808557D02*
X32962855Y-29808557D01*
X32962855Y-29808557D02*
X32877141Y-29851414D01*
X31762856Y-29937128D02*
X31462856Y-29937128D01*
X31334284Y-30408557D02*
X31762856Y-30408557D01*
X31762856Y-30408557D02*
X31762856Y-29508557D01*
X31762856Y-29508557D02*
X31334284Y-29508557D01*
X30819998Y-30408557D02*
X30905713Y-30365700D01*
X30905713Y-30365700D02*
X30948570Y-30279985D01*
X30948570Y-30279985D02*
X30948570Y-29508557D01*
X30134284Y-30365700D02*
X30219998Y-30408557D01*
X30219998Y-30408557D02*
X30391427Y-30408557D01*
X30391427Y-30408557D02*
X30477141Y-30365700D01*
X30477141Y-30365700D02*
X30519998Y-30279985D01*
X30519998Y-30279985D02*
X30519998Y-29937128D01*
X30519998Y-29937128D02*
X30477141Y-29851414D01*
X30477141Y-29851414D02*
X30391427Y-29808557D01*
X30391427Y-29808557D02*
X30219998Y-29808557D01*
X30219998Y-29808557D02*
X30134284Y-29851414D01*
X30134284Y-29851414D02*
X30091427Y-29937128D01*
X30091427Y-29937128D02*
X30091427Y-30022842D01*
X30091427Y-30022842D02*
X30519998Y-30108557D01*
X29834283Y-29808557D02*
X29491426Y-29808557D01*
X29705712Y-29508557D02*
X29705712Y-30279985D01*
X29705712Y-30279985D02*
X29662855Y-30365700D01*
X29662855Y-30365700D02*
X29577140Y-30408557D01*
X29577140Y-30408557D02*
X29491426Y-30408557D01*
X29191426Y-30408557D02*
X29191426Y-29808557D01*
X29191426Y-29979985D02*
X29148569Y-29894271D01*
X29148569Y-29894271D02*
X29105712Y-29851414D01*
X29105712Y-29851414D02*
X29019997Y-29808557D01*
X29019997Y-29808557D02*
X28934283Y-29808557D01*
X28505711Y-30408557D02*
X28591426Y-30365700D01*
X28591426Y-30365700D02*
X28634283Y-30322842D01*
X28634283Y-30322842D02*
X28677140Y-30237128D01*
X28677140Y-30237128D02*
X28677140Y-29979985D01*
X28677140Y-29979985D02*
X28634283Y-29894271D01*
X28634283Y-29894271D02*
X28591426Y-29851414D01*
X28591426Y-29851414D02*
X28505711Y-29808557D01*
X28505711Y-29808557D02*
X28377140Y-29808557D01*
X28377140Y-29808557D02*
X28291426Y-29851414D01*
X28291426Y-29851414D02*
X28248569Y-29894271D01*
X28248569Y-29894271D02*
X28205711Y-29979985D01*
X28205711Y-29979985D02*
X28205711Y-30237128D01*
X28205711Y-30237128D02*
X28248569Y-30322842D01*
X28248569Y-30322842D02*
X28291426Y-30365700D01*
X28291426Y-30365700D02*
X28377140Y-30408557D01*
X28377140Y-30408557D02*
X28505711Y-30408557D01*
X27819997Y-29808557D02*
X27819997Y-30408557D01*
X27819997Y-29894271D02*
X27777140Y-29851414D01*
X27777140Y-29851414D02*
X27691425Y-29808557D01*
X27691425Y-29808557D02*
X27562854Y-29808557D01*
X27562854Y-29808557D02*
X27477140Y-29851414D01*
X27477140Y-29851414D02*
X27434283Y-29937128D01*
X27434283Y-29937128D02*
X27434283Y-30408557D01*
X27005711Y-30408557D02*
X27005711Y-29808557D01*
X27005711Y-29508557D02*
X27048568Y-29551414D01*
X27048568Y-29551414D02*
X27005711Y-29594271D01*
X27005711Y-29594271D02*
X26962854Y-29551414D01*
X26962854Y-29551414D02*
X27005711Y-29508557D01*
X27005711Y-29508557D02*
X27005711Y-29594271D01*
X26191426Y-30365700D02*
X26277140Y-30408557D01*
X26277140Y-30408557D02*
X26448568Y-30408557D01*
X26448568Y-30408557D02*
X26534283Y-30365700D01*
X26534283Y-30365700D02*
X26577140Y-30322842D01*
X26577140Y-30322842D02*
X26619997Y-30237128D01*
X26619997Y-30237128D02*
X26619997Y-29979985D01*
X26619997Y-29979985D02*
X26577140Y-29894271D01*
X26577140Y-29894271D02*
X26534283Y-29851414D01*
X26534283Y-29851414D02*
X26448568Y-29808557D01*
X26448568Y-29808557D02*
X26277140Y-29808557D01*
X26277140Y-29808557D02*
X26191426Y-29851414D01*
X25419997Y-30408557D02*
X25419997Y-29937128D01*
X25419997Y-29937128D02*
X25462854Y-29851414D01*
X25462854Y-29851414D02*
X25548568Y-29808557D01*
X25548568Y-29808557D02*
X25719997Y-29808557D01*
X25719997Y-29808557D02*
X25805711Y-29851414D01*
X25419997Y-30365700D02*
X25505711Y-30408557D01*
X25505711Y-30408557D02*
X25719997Y-30408557D01*
X25719997Y-30408557D02*
X25805711Y-30365700D01*
X25805711Y-30365700D02*
X25848568Y-30279985D01*
X25848568Y-30279985D02*
X25848568Y-30194271D01*
X25848568Y-30194271D02*
X25805711Y-30108557D01*
X25805711Y-30108557D02*
X25719997Y-30065700D01*
X25719997Y-30065700D02*
X25505711Y-30065700D01*
X25505711Y-30065700D02*
X25419997Y-30022842D01*
X24348568Y-29594271D02*
X24305711Y-29551414D01*
X24305711Y-29551414D02*
X24219997Y-29508557D01*
X24219997Y-29508557D02*
X24005711Y-29508557D01*
X24005711Y-29508557D02*
X23919997Y-29551414D01*
X23919997Y-29551414D02*
X23877139Y-29594271D01*
X23877139Y-29594271D02*
X23834282Y-29679985D01*
X23834282Y-29679985D02*
X23834282Y-29765700D01*
X23834282Y-29765700D02*
X23877139Y-29894271D01*
X23877139Y-29894271D02*
X24391425Y-30408557D01*
X24391425Y-30408557D02*
X23834282Y-30408557D01*
X23277139Y-29508557D02*
X23191425Y-29508557D01*
X23191425Y-29508557D02*
X23105711Y-29551414D01*
X23105711Y-29551414D02*
X23062854Y-29594271D01*
X23062854Y-29594271D02*
X23019996Y-29679985D01*
X23019996Y-29679985D02*
X22977139Y-29851414D01*
X22977139Y-29851414D02*
X22977139Y-30065700D01*
X22977139Y-30065700D02*
X23019996Y-30237128D01*
X23019996Y-30237128D02*
X23062854Y-30322842D01*
X23062854Y-30322842D02*
X23105711Y-30365700D01*
X23105711Y-30365700D02*
X23191425Y-30408557D01*
X23191425Y-30408557D02*
X23277139Y-30408557D01*
X23277139Y-30408557D02*
X23362854Y-30365700D01*
X23362854Y-30365700D02*
X23405711Y-30322842D01*
X23405711Y-30322842D02*
X23448568Y-30237128D01*
X23448568Y-30237128D02*
X23491425Y-30065700D01*
X23491425Y-30065700D02*
X23491425Y-29851414D01*
X23491425Y-29851414D02*
X23448568Y-29679985D01*
X23448568Y-29679985D02*
X23405711Y-29594271D01*
X23405711Y-29594271D02*
X23362854Y-29551414D01*
X23362854Y-29551414D02*
X23277139Y-29508557D01*
X22119996Y-30408557D02*
X22634282Y-30408557D01*
X22377139Y-30408557D02*
X22377139Y-29508557D01*
X22377139Y-29508557D02*
X22462853Y-29637128D01*
X22462853Y-29637128D02*
X22548568Y-29722842D01*
X22548568Y-29722842D02*
X22634282Y-29765700D01*
X21777139Y-29594271D02*
X21734282Y-29551414D01*
X21734282Y-29551414D02*
X21648568Y-29508557D01*
X21648568Y-29508557D02*
X21434282Y-29508557D01*
X21434282Y-29508557D02*
X21348568Y-29551414D01*
X21348568Y-29551414D02*
X21305710Y-29594271D01*
X21305710Y-29594271D02*
X21262853Y-29679985D01*
X21262853Y-29679985D02*
X21262853Y-29765700D01*
X21262853Y-29765700D02*
X21305710Y-29894271D01*
X21305710Y-29894271D02*
X21819996Y-30408557D01*
X21819996Y-30408557D02*
X21262853Y-30408557D01*
%LPC*%
D11*
%TO.C,C1*%
X6000000Y-29000000D03*
X11000000Y-29000000D03*
%TD*%
D12*
%TO.C,J2*%
X5080000Y-41190000D03*
X7620000Y-41190000D03*
X10160000Y-41190000D03*
X12700000Y-41190000D03*
X17780000Y-41190000D03*
X20320000Y-41190000D03*
X22860000Y-41190000D03*
X25400000Y-41190000D03*
X27940000Y-41190000D03*
X30480000Y-41190000D03*
X33020000Y-41190000D03*
X35560000Y-41190000D03*
X38100000Y-41190000D03*
X40640000Y-41190000D03*
X43180000Y-41190000D03*
X45720000Y-41190000D03*
X48260000Y-41190000D03*
X50800000Y-41190000D03*
X53340000Y-41190000D03*
X55880000Y-41190000D03*
X58420000Y-41190000D03*
X60960000Y-41190000D03*
X63500000Y-41190000D03*
X66040000Y-41190000D03*
X68580000Y-41190000D03*
X71120000Y-41190000D03*
X73660000Y-41190000D03*
%TD*%
D13*
%TO.C,J3*%
X5080000Y-21270000D03*
D14*
X7620000Y-21270000D03*
X10160000Y-21270000D03*
X12700000Y-21270000D03*
X15240000Y-21270000D03*
X17780000Y-21270000D03*
X20320000Y-21270000D03*
X22860000Y-21270000D03*
X25400000Y-21270000D03*
X27940000Y-21270000D03*
X30480000Y-21270000D03*
X33020000Y-21270000D03*
X35560000Y-21270000D03*
X38100000Y-21270000D03*
X40640000Y-21270000D03*
X43180000Y-21270000D03*
X45720000Y-21270000D03*
X48260000Y-21270000D03*
X50800000Y-21270000D03*
X53340000Y-21270000D03*
X55880000Y-21270000D03*
X58420000Y-21270000D03*
X60960000Y-21270000D03*
X63500000Y-21270000D03*
X66040000Y-21270000D03*
X68580000Y-21270000D03*
X71120000Y-21270000D03*
X73660000Y-21270000D03*
X73660000Y-18730000D03*
X71120000Y-18730000D03*
X68580000Y-18730000D03*
X66040000Y-18730000D03*
X63500000Y-18730000D03*
X60960000Y-18730000D03*
X58420000Y-18730000D03*
X55880000Y-18730000D03*
X53340000Y-18730000D03*
X50800000Y-18730000D03*
X48260000Y-18730000D03*
X45720000Y-18730000D03*
X43180000Y-18730000D03*
X40640000Y-18730000D03*
X38100000Y-18730000D03*
X35560000Y-18730000D03*
X33020000Y-18730000D03*
X30480000Y-18730000D03*
X27940000Y-18730000D03*
X25400000Y-18730000D03*
X22860000Y-18730000D03*
X20320000Y-18730000D03*
X17780000Y-18730000D03*
X15240000Y-18730000D03*
X12700000Y-18730000D03*
X10160000Y-18730000D03*
X7620000Y-18730000D03*
X5080000Y-18730000D03*
%TD*%
D15*
%TO.C,J1*%
X5080000Y-2960000D03*
D16*
X7620000Y-2960000D03*
X10160000Y-2960000D03*
X12700000Y-2960000D03*
X17780000Y-2960000D03*
X20320000Y-2960000D03*
X22860000Y-2960000D03*
X25400000Y-2960000D03*
X27940000Y-2960000D03*
X30480000Y-2960000D03*
X33020000Y-2960000D03*
X35560000Y-2960000D03*
X38100000Y-2960000D03*
X40640000Y-2960000D03*
X43180000Y-2960000D03*
X45720000Y-2960000D03*
X48260000Y-2960000D03*
X50800000Y-2960000D03*
X53340000Y-2960000D03*
X55880000Y-2960000D03*
X58420000Y-2960000D03*
X60960000Y-2960000D03*
X63500000Y-2960000D03*
X66040000Y-2960000D03*
X68580000Y-2960000D03*
X71120000Y-2960000D03*
X73660000Y-2960000D03*
X73660000Y-8040000D03*
X71120000Y-8040000D03*
X68580000Y-8040000D03*
X66040000Y-8040000D03*
X63500000Y-8040000D03*
X60960000Y-8040000D03*
X58420000Y-8040000D03*
X55880000Y-8040000D03*
X53340000Y-8040000D03*
X50800000Y-8040000D03*
X48260000Y-8040000D03*
X45720000Y-8040000D03*
X43180000Y-8040000D03*
X40640000Y-8040000D03*
X38100000Y-8040000D03*
X35560000Y-8040000D03*
X33020000Y-8040000D03*
X30480000Y-8040000D03*
X27940000Y-8040000D03*
X25400000Y-8040000D03*
X22860000Y-8040000D03*
X20320000Y-8040000D03*
X17780000Y-8040000D03*
X12700000Y-8040000D03*
X10160000Y-8040000D03*
X7620000Y-8040000D03*
X5080000Y-8040000D03*
%TD*%
%LPD*%
M02*
