M48
; DRILL file KiCad 10.0.4 date 2026-07-26T22:00:27
; FORMAT={-:-/ absolute / metric / decimal}
; #@! TF.CreationDate,2026-07-26T22:00:27-03:00
; #@! TF.GenerationSoftware,Kicad,Pcbnew,10.0.4
; #@! TF.FileFunction,MixedPlating,1,2
FMAT,2
METRIC
; #@! TA.AperFunction,Plated,PTH,ViaDrill
T1C0.350
; #@! TA.AperFunction,Plated,PTH,ComponentDrill
T2C0.800
; #@! TA.AperFunction,Plated,PTH,ComponentDrill
T3C1.000
%
G90
G05
T1
X4.397Y-61.823
X13.892Y-61.972
X16.589Y-61.972
X21.525Y-61.997
X24.065Y-61.998
X26.582Y-61.971
X29.14Y-61.971
X31.674Y-61.964
X34.239Y-61.367
X36.793Y-62.053
X72.453Y-61.969
T2
X6.0Y-45.0
X11.0Y-45.0
T3
X5.08Y-3.46
X5.08Y-8.54
X5.08Y-33.73
X5.08Y-36.27
X7.62Y-3.46
X7.62Y-8.54
X7.62Y-33.73
X7.62Y-36.27
X10.16Y-3.46
X10.16Y-8.54
X10.16Y-33.73
X10.16Y-36.27
X12.7Y-3.46
X12.7Y-8.54
X12.7Y-33.73
X12.7Y-36.27
X15.24Y-33.73
X15.24Y-36.27
X17.78Y-3.46
X17.78Y-8.54
X17.78Y-33.73
X17.78Y-36.27
X20.32Y-3.46
X20.32Y-8.54
X20.32Y-33.73
X20.32Y-36.27
X22.86Y-3.46
X22.86Y-8.54
X22.86Y-33.73
X22.86Y-36.27
X25.4Y-3.46
X25.4Y-8.54
X25.4Y-33.73
X25.4Y-36.27
X27.94Y-3.46
X27.94Y-8.54
X27.94Y-33.73
X27.94Y-36.27
X30.48Y-3.46
X30.48Y-8.54
X30.48Y-33.73
X30.48Y-36.27
X33.02Y-3.46
X33.02Y-8.54
X33.02Y-33.73
X33.02Y-36.27
X35.56Y-3.46
X35.56Y-8.54
X35.56Y-33.73
X35.56Y-36.27
X38.1Y-3.46
X38.1Y-8.54
X38.1Y-33.73
X38.1Y-36.27
X40.64Y-3.46
X40.64Y-8.54
X40.64Y-33.73
X40.64Y-36.27
X43.18Y-3.46
X43.18Y-8.54
X43.18Y-33.73
X43.18Y-36.27
X45.72Y-3.46
X45.72Y-8.54
X45.72Y-33.73
X45.72Y-36.27
X48.26Y-3.46
X48.26Y-8.54
X48.26Y-33.73
X48.26Y-36.27
X50.8Y-3.46
X50.8Y-8.54
X50.8Y-33.73
X50.8Y-36.27
X53.34Y-3.46
X53.34Y-8.54
X53.34Y-33.73
X53.34Y-36.27
X55.88Y-3.46
X55.88Y-8.54
X55.88Y-33.73
X55.88Y-36.27
X58.42Y-3.46
X58.42Y-8.54
X58.42Y-33.73
X58.42Y-36.27
X60.96Y-3.46
X60.96Y-8.54
X60.96Y-33.73
X60.96Y-36.27
X63.5Y-3.46
X63.5Y-8.54
X63.5Y-33.73
X63.5Y-36.27
X66.04Y-3.46
X66.04Y-8.54
X66.04Y-33.73
X66.04Y-36.27
X68.58Y-3.46
X68.58Y-8.54
X68.58Y-33.73
X68.58Y-36.27
X71.12Y-3.46
X71.12Y-8.54
X71.12Y-33.73
X71.12Y-36.27
X73.66Y-3.46
X73.66Y-8.54
X73.66Y-33.73
X73.66Y-36.27
M30
