%TF.GenerationSoftware,KiCad,Pcbnew,10.0.4*%
%TF.CreationDate,2026-07-26T22:00:27-03:00*%
%TF.ProjectId,tkmem128-expansor,746b6d65-6d31-4323-982d-657870616e73,rev?*%
%TF.SameCoordinates,Original*%
%TF.FileFunction,Legend,Top*%
%TF.FilePolarity,Positive*%
%FSLAX46Y46*%
G04 Gerber Fmt 4.6, Leading zero omitted, Abs format (unit mm)*
G04 Created by KiCad (PCBNEW 10.0.4) date 2026-07-26 22:00:27*
%MOMM*%
%LPD*%
G01*
G04 APERTURE LIST*
%ADD10C,0.200000*%
%ADD11C,0.150000*%
%ADD12C,0.120000*%
%ADD13C,1.600000*%
%ADD14R,1.700000X1.700000*%
%ADD15C,1.700000*%
%ADD16R,1.800000X1.800000*%
%ADD17C,1.800000*%
%ADD18R,1.524000X7.620000*%
G04 APERTURE END LIST*
D10*
X3000000Y-19000000D02*
X75700000Y-19000000D01*
X3000000Y-51000000D02*
X75700000Y-51000000D01*
D11*
X14960713Y-17418760D02*
X14960713Y-18268760D01*
X14960713Y-17459236D02*
X15041666Y-17418760D01*
X15041666Y-17418760D02*
X15203571Y-17418760D01*
X15203571Y-17418760D02*
X15284523Y-17459236D01*
X15284523Y-17459236D02*
X15324999Y-17499712D01*
X15324999Y-17499712D02*
X15365475Y-17580665D01*
X15365475Y-17580665D02*
X15365475Y-17823522D01*
X15365475Y-17823522D02*
X15324999Y-17904474D01*
X15324999Y-17904474D02*
X15284523Y-17944951D01*
X15284523Y-17944951D02*
X15203571Y-17985427D01*
X15203571Y-17985427D02*
X15041666Y-17985427D01*
X15041666Y-17985427D02*
X14960713Y-17944951D01*
X16094047Y-17985427D02*
X16094047Y-17540189D01*
X16094047Y-17540189D02*
X16053571Y-17459236D01*
X16053571Y-17459236D02*
X15972619Y-17418760D01*
X15972619Y-17418760D02*
X15810714Y-17418760D01*
X15810714Y-17418760D02*
X15729761Y-17459236D01*
X16094047Y-17944951D02*
X16013095Y-17985427D01*
X16013095Y-17985427D02*
X15810714Y-17985427D01*
X15810714Y-17985427D02*
X15729761Y-17944951D01*
X15729761Y-17944951D02*
X15689285Y-17863998D01*
X15689285Y-17863998D02*
X15689285Y-17783046D01*
X15689285Y-17783046D02*
X15729761Y-17702093D01*
X15729761Y-17702093D02*
X15810714Y-17661617D01*
X15810714Y-17661617D02*
X16013095Y-17661617D01*
X16013095Y-17661617D02*
X16094047Y-17621141D01*
X16498809Y-17985427D02*
X16498809Y-17418760D01*
X16498809Y-17580665D02*
X16539286Y-17499712D01*
X16539286Y-17499712D02*
X16579762Y-17459236D01*
X16579762Y-17459236D02*
X16660714Y-17418760D01*
X16660714Y-17418760D02*
X16741667Y-17418760D01*
X17348809Y-17944951D02*
X17267857Y-17985427D01*
X17267857Y-17985427D02*
X17105952Y-17985427D01*
X17105952Y-17985427D02*
X17024999Y-17944951D01*
X17024999Y-17944951D02*
X16984523Y-17863998D01*
X16984523Y-17863998D02*
X16984523Y-17540189D01*
X16984523Y-17540189D02*
X17024999Y-17459236D01*
X17024999Y-17459236D02*
X17105952Y-17418760D01*
X17105952Y-17418760D02*
X17267857Y-17418760D01*
X17267857Y-17418760D02*
X17348809Y-17459236D01*
X17348809Y-17459236D02*
X17389285Y-17540189D01*
X17389285Y-17540189D02*
X17389285Y-17621141D01*
X17389285Y-17621141D02*
X16984523Y-17702093D01*
X18117856Y-17985427D02*
X18117856Y-17135427D01*
X18117856Y-17944951D02*
X18036904Y-17985427D01*
X18036904Y-17985427D02*
X17874999Y-17985427D01*
X17874999Y-17985427D02*
X17794047Y-17944951D01*
X17794047Y-17944951D02*
X17753570Y-17904474D01*
X17753570Y-17904474D02*
X17713094Y-17823522D01*
X17713094Y-17823522D02*
X17713094Y-17580665D01*
X17713094Y-17580665D02*
X17753570Y-17499712D01*
X17753570Y-17499712D02*
X17794047Y-17459236D01*
X17794047Y-17459236D02*
X17874999Y-17418760D01*
X17874999Y-17418760D02*
X18036904Y-17418760D01*
X18036904Y-17418760D02*
X18117856Y-17459236D01*
X18846428Y-17944951D02*
X18765476Y-17985427D01*
X18765476Y-17985427D02*
X18603571Y-17985427D01*
X18603571Y-17985427D02*
X18522618Y-17944951D01*
X18522618Y-17944951D02*
X18482142Y-17863998D01*
X18482142Y-17863998D02*
X18482142Y-17540189D01*
X18482142Y-17540189D02*
X18522618Y-17459236D01*
X18522618Y-17459236D02*
X18603571Y-17418760D01*
X18603571Y-17418760D02*
X18765476Y-17418760D01*
X18765476Y-17418760D02*
X18846428Y-17459236D01*
X18846428Y-17459236D02*
X18886904Y-17540189D01*
X18886904Y-17540189D02*
X18886904Y-17621141D01*
X18886904Y-17621141D02*
X18482142Y-17702093D01*
X20263094Y-17985427D02*
X20263094Y-17135427D01*
X20263094Y-17944951D02*
X20182142Y-17985427D01*
X20182142Y-17985427D02*
X20020237Y-17985427D01*
X20020237Y-17985427D02*
X19939285Y-17944951D01*
X19939285Y-17944951D02*
X19898808Y-17904474D01*
X19898808Y-17904474D02*
X19858332Y-17823522D01*
X19858332Y-17823522D02*
X19858332Y-17580665D01*
X19858332Y-17580665D02*
X19898808Y-17499712D01*
X19898808Y-17499712D02*
X19939285Y-17459236D01*
X19939285Y-17459236D02*
X20020237Y-17418760D01*
X20020237Y-17418760D02*
X20182142Y-17418760D01*
X20182142Y-17418760D02*
X20263094Y-17459236D01*
X21032142Y-17985427D02*
X21032142Y-17540189D01*
X21032142Y-17540189D02*
X20991666Y-17459236D01*
X20991666Y-17459236D02*
X20910714Y-17418760D01*
X20910714Y-17418760D02*
X20748809Y-17418760D01*
X20748809Y-17418760D02*
X20667856Y-17459236D01*
X21032142Y-17944951D02*
X20951190Y-17985427D01*
X20951190Y-17985427D02*
X20748809Y-17985427D01*
X20748809Y-17985427D02*
X20667856Y-17944951D01*
X20667856Y-17944951D02*
X20627380Y-17863998D01*
X20627380Y-17863998D02*
X20627380Y-17783046D01*
X20627380Y-17783046D02*
X20667856Y-17702093D01*
X20667856Y-17702093D02*
X20748809Y-17661617D01*
X20748809Y-17661617D02*
X20951190Y-17661617D01*
X20951190Y-17661617D02*
X21032142Y-17621141D01*
X22448809Y-17944951D02*
X22367857Y-17985427D01*
X22367857Y-17985427D02*
X22205952Y-17985427D01*
X22205952Y-17985427D02*
X22125000Y-17944951D01*
X22125000Y-17944951D02*
X22084523Y-17904474D01*
X22084523Y-17904474D02*
X22044047Y-17823522D01*
X22044047Y-17823522D02*
X22044047Y-17580665D01*
X22044047Y-17580665D02*
X22084523Y-17499712D01*
X22084523Y-17499712D02*
X22125000Y-17459236D01*
X22125000Y-17459236D02*
X22205952Y-17418760D01*
X22205952Y-17418760D02*
X22367857Y-17418760D01*
X22367857Y-17418760D02*
X22448809Y-17459236D01*
X23177380Y-17985427D02*
X23177380Y-17540189D01*
X23177380Y-17540189D02*
X23136904Y-17459236D01*
X23136904Y-17459236D02*
X23055952Y-17418760D01*
X23055952Y-17418760D02*
X22894047Y-17418760D01*
X22894047Y-17418760D02*
X22813094Y-17459236D01*
X23177380Y-17944951D02*
X23096428Y-17985427D01*
X23096428Y-17985427D02*
X22894047Y-17985427D01*
X22894047Y-17985427D02*
X22813094Y-17944951D01*
X22813094Y-17944951D02*
X22772618Y-17863998D01*
X22772618Y-17863998D02*
X22772618Y-17783046D01*
X22772618Y-17783046D02*
X22813094Y-17702093D01*
X22813094Y-17702093D02*
X22894047Y-17661617D01*
X22894047Y-17661617D02*
X23096428Y-17661617D01*
X23096428Y-17661617D02*
X23177380Y-17621141D01*
X23582142Y-17985427D02*
X23582142Y-17418760D01*
X23582142Y-17135427D02*
X23541666Y-17175903D01*
X23541666Y-17175903D02*
X23582142Y-17216379D01*
X23582142Y-17216379D02*
X23622619Y-17175903D01*
X23622619Y-17175903D02*
X23582142Y-17135427D01*
X23582142Y-17135427D02*
X23582142Y-17216379D01*
X23905952Y-17985427D02*
X24351190Y-17418760D01*
X23905952Y-17418760D02*
X24351190Y-17985427D01*
X25039285Y-17985427D02*
X25039285Y-17540189D01*
X25039285Y-17540189D02*
X24998809Y-17459236D01*
X24998809Y-17459236D02*
X24917857Y-17418760D01*
X24917857Y-17418760D02*
X24755952Y-17418760D01*
X24755952Y-17418760D02*
X24674999Y-17459236D01*
X25039285Y-17944951D02*
X24958333Y-17985427D01*
X24958333Y-17985427D02*
X24755952Y-17985427D01*
X24755952Y-17985427D02*
X24674999Y-17944951D01*
X24674999Y-17944951D02*
X24634523Y-17863998D01*
X24634523Y-17863998D02*
X24634523Y-17783046D01*
X24634523Y-17783046D02*
X24674999Y-17702093D01*
X24674999Y-17702093D02*
X24755952Y-17661617D01*
X24755952Y-17661617D02*
X24958333Y-17661617D01*
X24958333Y-17661617D02*
X25039285Y-17621141D01*
X14960713Y-52618760D02*
X14960713Y-53468760D01*
X14960713Y-52659236D02*
X15041666Y-52618760D01*
X15041666Y-52618760D02*
X15203571Y-52618760D01*
X15203571Y-52618760D02*
X15284523Y-52659236D01*
X15284523Y-52659236D02*
X15324999Y-52699712D01*
X15324999Y-52699712D02*
X15365475Y-52780665D01*
X15365475Y-52780665D02*
X15365475Y-53023522D01*
X15365475Y-53023522D02*
X15324999Y-53104474D01*
X15324999Y-53104474D02*
X15284523Y-53144951D01*
X15284523Y-53144951D02*
X15203571Y-53185427D01*
X15203571Y-53185427D02*
X15041666Y-53185427D01*
X15041666Y-53185427D02*
X14960713Y-53144951D01*
X16094047Y-53185427D02*
X16094047Y-52740189D01*
X16094047Y-52740189D02*
X16053571Y-52659236D01*
X16053571Y-52659236D02*
X15972619Y-52618760D01*
X15972619Y-52618760D02*
X15810714Y-52618760D01*
X15810714Y-52618760D02*
X15729761Y-52659236D01*
X16094047Y-53144951D02*
X16013095Y-53185427D01*
X16013095Y-53185427D02*
X15810714Y-53185427D01*
X15810714Y-53185427D02*
X15729761Y-53144951D01*
X15729761Y-53144951D02*
X15689285Y-53063998D01*
X15689285Y-53063998D02*
X15689285Y-52983046D01*
X15689285Y-52983046D02*
X15729761Y-52902093D01*
X15729761Y-52902093D02*
X15810714Y-52861617D01*
X15810714Y-52861617D02*
X16013095Y-52861617D01*
X16013095Y-52861617D02*
X16094047Y-52821141D01*
X16498809Y-53185427D02*
X16498809Y-52618760D01*
X16498809Y-52780665D02*
X16539286Y-52699712D01*
X16539286Y-52699712D02*
X16579762Y-52659236D01*
X16579762Y-52659236D02*
X16660714Y-52618760D01*
X16660714Y-52618760D02*
X16741667Y-52618760D01*
X17348809Y-53144951D02*
X17267857Y-53185427D01*
X17267857Y-53185427D02*
X17105952Y-53185427D01*
X17105952Y-53185427D02*
X17024999Y-53144951D01*
X17024999Y-53144951D02*
X16984523Y-53063998D01*
X16984523Y-53063998D02*
X16984523Y-52740189D01*
X16984523Y-52740189D02*
X17024999Y-52659236D01*
X17024999Y-52659236D02*
X17105952Y-52618760D01*
X17105952Y-52618760D02*
X17267857Y-52618760D01*
X17267857Y-52618760D02*
X17348809Y-52659236D01*
X17348809Y-52659236D02*
X17389285Y-52740189D01*
X17389285Y-52740189D02*
X17389285Y-52821141D01*
X17389285Y-52821141D02*
X16984523Y-52902093D01*
X18117856Y-53185427D02*
X18117856Y-52335427D01*
X18117856Y-53144951D02*
X18036904Y-53185427D01*
X18036904Y-53185427D02*
X17874999Y-53185427D01*
X17874999Y-53185427D02*
X17794047Y-53144951D01*
X17794047Y-53144951D02*
X17753570Y-53104474D01*
X17753570Y-53104474D02*
X17713094Y-53023522D01*
X17713094Y-53023522D02*
X17713094Y-52780665D01*
X17713094Y-52780665D02*
X17753570Y-52699712D01*
X17753570Y-52699712D02*
X17794047Y-52659236D01*
X17794047Y-52659236D02*
X17874999Y-52618760D01*
X17874999Y-52618760D02*
X18036904Y-52618760D01*
X18036904Y-52618760D02*
X18117856Y-52659236D01*
X18846428Y-53144951D02*
X18765476Y-53185427D01*
X18765476Y-53185427D02*
X18603571Y-53185427D01*
X18603571Y-53185427D02*
X18522618Y-53144951D01*
X18522618Y-53144951D02*
X18482142Y-53063998D01*
X18482142Y-53063998D02*
X18482142Y-52740189D01*
X18482142Y-52740189D02*
X18522618Y-52659236D01*
X18522618Y-52659236D02*
X18603571Y-52618760D01*
X18603571Y-52618760D02*
X18765476Y-52618760D01*
X18765476Y-52618760D02*
X18846428Y-52659236D01*
X18846428Y-52659236D02*
X18886904Y-52740189D01*
X18886904Y-52740189D02*
X18886904Y-52821141D01*
X18886904Y-52821141D02*
X18482142Y-52902093D01*
X20263094Y-53185427D02*
X20263094Y-52335427D01*
X20263094Y-53144951D02*
X20182142Y-53185427D01*
X20182142Y-53185427D02*
X20020237Y-53185427D01*
X20020237Y-53185427D02*
X19939285Y-53144951D01*
X19939285Y-53144951D02*
X19898808Y-53104474D01*
X19898808Y-53104474D02*
X19858332Y-53023522D01*
X19858332Y-53023522D02*
X19858332Y-52780665D01*
X19858332Y-52780665D02*
X19898808Y-52699712D01*
X19898808Y-52699712D02*
X19939285Y-52659236D01*
X19939285Y-52659236D02*
X20020237Y-52618760D01*
X20020237Y-52618760D02*
X20182142Y-52618760D01*
X20182142Y-52618760D02*
X20263094Y-52659236D01*
X21032142Y-53185427D02*
X21032142Y-52740189D01*
X21032142Y-52740189D02*
X20991666Y-52659236D01*
X20991666Y-52659236D02*
X20910714Y-52618760D01*
X20910714Y-52618760D02*
X20748809Y-52618760D01*
X20748809Y-52618760D02*
X20667856Y-52659236D01*
X21032142Y-53144951D02*
X20951190Y-53185427D01*
X20951190Y-53185427D02*
X20748809Y-53185427D01*
X20748809Y-53185427D02*
X20667856Y-53144951D01*
X20667856Y-53144951D02*
X20627380Y-53063998D01*
X20627380Y-53063998D02*
X20627380Y-52983046D01*
X20627380Y-52983046D02*
X20667856Y-52902093D01*
X20667856Y-52902093D02*
X20748809Y-52861617D01*
X20748809Y-52861617D02*
X20951190Y-52861617D01*
X20951190Y-52861617D02*
X21032142Y-52821141D01*
X22448809Y-53144951D02*
X22367857Y-53185427D01*
X22367857Y-53185427D02*
X22205952Y-53185427D01*
X22205952Y-53185427D02*
X22125000Y-53144951D01*
X22125000Y-53144951D02*
X22084523Y-53104474D01*
X22084523Y-53104474D02*
X22044047Y-53023522D01*
X22044047Y-53023522D02*
X22044047Y-52780665D01*
X22044047Y-52780665D02*
X22084523Y-52699712D01*
X22084523Y-52699712D02*
X22125000Y-52659236D01*
X22125000Y-52659236D02*
X22205952Y-52618760D01*
X22205952Y-52618760D02*
X22367857Y-52618760D01*
X22367857Y-52618760D02*
X22448809Y-52659236D01*
X23177380Y-53185427D02*
X23177380Y-52740189D01*
X23177380Y-52740189D02*
X23136904Y-52659236D01*
X23136904Y-52659236D02*
X23055952Y-52618760D01*
X23055952Y-52618760D02*
X22894047Y-52618760D01*
X22894047Y-52618760D02*
X22813094Y-52659236D01*
X23177380Y-53144951D02*
X23096428Y-53185427D01*
X23096428Y-53185427D02*
X22894047Y-53185427D01*
X22894047Y-53185427D02*
X22813094Y-53144951D01*
X22813094Y-53144951D02*
X22772618Y-53063998D01*
X22772618Y-53063998D02*
X22772618Y-52983046D01*
X22772618Y-52983046D02*
X22813094Y-52902093D01*
X22813094Y-52902093D02*
X22894047Y-52861617D01*
X22894047Y-52861617D02*
X23096428Y-52861617D01*
X23096428Y-52861617D02*
X23177380Y-52821141D01*
X23582142Y-53185427D02*
X23582142Y-52618760D01*
X23582142Y-52335427D02*
X23541666Y-52375903D01*
X23541666Y-52375903D02*
X23582142Y-52416379D01*
X23582142Y-52416379D02*
X23622619Y-52375903D01*
X23622619Y-52375903D02*
X23582142Y-52335427D01*
X23582142Y-52335427D02*
X23582142Y-52416379D01*
X23905952Y-53185427D02*
X24351190Y-52618760D01*
X23905952Y-52618760D02*
X24351190Y-53185427D01*
X25039285Y-53185427D02*
X25039285Y-52740189D01*
X25039285Y-52740189D02*
X24998809Y-52659236D01*
X24998809Y-52659236D02*
X24917857Y-52618760D01*
X24917857Y-52618760D02*
X24755952Y-52618760D01*
X24755952Y-52618760D02*
X24674999Y-52659236D01*
X25039285Y-53144951D02*
X24958333Y-53185427D01*
X24958333Y-53185427D02*
X24755952Y-53185427D01*
X24755952Y-53185427D02*
X24674999Y-53144951D01*
X24674999Y-53144951D02*
X24634523Y-53063998D01*
X24634523Y-53063998D02*
X24634523Y-52983046D01*
X24634523Y-52983046D02*
X24674999Y-52902093D01*
X24674999Y-52902093D02*
X24755952Y-52861617D01*
X24755952Y-52861617D02*
X24958333Y-52861617D01*
X24958333Y-52861617D02*
X25039285Y-52821141D01*
X31870000Y-32208557D02*
X31870000Y-31308557D01*
X31870000Y-31308557D02*
X32212857Y-31308557D01*
X32212857Y-31308557D02*
X32298572Y-31351414D01*
X32298572Y-31351414D02*
X32341429Y-31394271D01*
X32341429Y-31394271D02*
X32384286Y-31479985D01*
X32384286Y-31479985D02*
X32384286Y-31608557D01*
X32384286Y-31608557D02*
X32341429Y-31694271D01*
X32341429Y-31694271D02*
X32298572Y-31737128D01*
X32298572Y-31737128D02*
X32212857Y-31779985D01*
X32212857Y-31779985D02*
X31870000Y-31779985D01*
X33198572Y-32208557D02*
X32770000Y-32208557D01*
X32770000Y-32208557D02*
X32770000Y-31308557D01*
X33455714Y-31951414D02*
X33884286Y-31951414D01*
X33370000Y-32208557D02*
X33670000Y-31308557D01*
X33670000Y-31308557D02*
X33970000Y-32208557D01*
X34784286Y-32122842D02*
X34741429Y-32165700D01*
X34741429Y-32165700D02*
X34612857Y-32208557D01*
X34612857Y-32208557D02*
X34527143Y-32208557D01*
X34527143Y-32208557D02*
X34398572Y-32165700D01*
X34398572Y-32165700D02*
X34312857Y-32079985D01*
X34312857Y-32079985D02*
X34270000Y-31994271D01*
X34270000Y-31994271D02*
X34227143Y-31822842D01*
X34227143Y-31822842D02*
X34227143Y-31694271D01*
X34227143Y-31694271D02*
X34270000Y-31522842D01*
X34270000Y-31522842D02*
X34312857Y-31437128D01*
X34312857Y-31437128D02*
X34398572Y-31351414D01*
X34398572Y-31351414D02*
X34527143Y-31308557D01*
X34527143Y-31308557D02*
X34612857Y-31308557D01*
X34612857Y-31308557D02*
X34741429Y-31351414D01*
X34741429Y-31351414D02*
X34784286Y-31394271D01*
X35127143Y-31951414D02*
X35555715Y-31951414D01*
X35041429Y-32208557D02*
X35341429Y-31308557D01*
X35341429Y-31308557D02*
X35641429Y-32208557D01*
X36627143Y-32208557D02*
X36627143Y-31308557D01*
X36627143Y-31308557D02*
X36970000Y-31308557D01*
X36970000Y-31308557D02*
X37055715Y-31351414D01*
X37055715Y-31351414D02*
X37098572Y-31394271D01*
X37098572Y-31394271D02*
X37141429Y-31479985D01*
X37141429Y-31479985D02*
X37141429Y-31608557D01*
X37141429Y-31608557D02*
X37098572Y-31694271D01*
X37098572Y-31694271D02*
X37055715Y-31737128D01*
X37055715Y-31737128D02*
X36970000Y-31779985D01*
X36970000Y-31779985D02*
X36627143Y-31779985D01*
X38041429Y-32208557D02*
X37741429Y-31779985D01*
X37527143Y-32208557D02*
X37527143Y-31308557D01*
X37527143Y-31308557D02*
X37870000Y-31308557D01*
X37870000Y-31308557D02*
X37955715Y-31351414D01*
X37955715Y-31351414D02*
X37998572Y-31394271D01*
X37998572Y-31394271D02*
X38041429Y-31479985D01*
X38041429Y-31479985D02*
X38041429Y-31608557D01*
X38041429Y-31608557D02*
X37998572Y-31694271D01*
X37998572Y-31694271D02*
X37955715Y-31737128D01*
X37955715Y-31737128D02*
X37870000Y-31779985D01*
X37870000Y-31779985D02*
X37527143Y-31779985D01*
X38427143Y-32208557D02*
X38427143Y-31308557D01*
X38855714Y-32208557D02*
X38855714Y-31308557D01*
X38855714Y-31308557D02*
X39370000Y-32208557D01*
X39370000Y-32208557D02*
X39370000Y-31308557D01*
X40312857Y-32122842D02*
X40270000Y-32165700D01*
X40270000Y-32165700D02*
X40141428Y-32208557D01*
X40141428Y-32208557D02*
X40055714Y-32208557D01*
X40055714Y-32208557D02*
X39927143Y-32165700D01*
X39927143Y-32165700D02*
X39841428Y-32079985D01*
X39841428Y-32079985D02*
X39798571Y-31994271D01*
X39798571Y-31994271D02*
X39755714Y-31822842D01*
X39755714Y-31822842D02*
X39755714Y-31694271D01*
X39755714Y-31694271D02*
X39798571Y-31522842D01*
X39798571Y-31522842D02*
X39841428Y-31437128D01*
X39841428Y-31437128D02*
X39927143Y-31351414D01*
X39927143Y-31351414D02*
X40055714Y-31308557D01*
X40055714Y-31308557D02*
X40141428Y-31308557D01*
X40141428Y-31308557D02*
X40270000Y-31351414D01*
X40270000Y-31351414D02*
X40312857Y-31394271D01*
X40698571Y-32208557D02*
X40698571Y-31308557D01*
X41127142Y-32208557D02*
X41127142Y-31308557D01*
X41127142Y-31308557D02*
X41469999Y-31308557D01*
X41469999Y-31308557D02*
X41555714Y-31351414D01*
X41555714Y-31351414D02*
X41598571Y-31394271D01*
X41598571Y-31394271D02*
X41641428Y-31479985D01*
X41641428Y-31479985D02*
X41641428Y-31608557D01*
X41641428Y-31608557D02*
X41598571Y-31694271D01*
X41598571Y-31694271D02*
X41555714Y-31737128D01*
X41555714Y-31737128D02*
X41469999Y-31779985D01*
X41469999Y-31779985D02*
X41127142Y-31779985D01*
X41984285Y-31951414D02*
X42412857Y-31951414D01*
X41898571Y-32208557D02*
X42198571Y-31308557D01*
X42198571Y-31308557D02*
X42498571Y-32208557D01*
X43227143Y-32208557D02*
X42798571Y-32208557D01*
X42798571Y-32208557D02*
X42798571Y-31308557D01*
X44169999Y-31951414D02*
X44598571Y-31951414D01*
X44084285Y-32208557D02*
X44384285Y-31308557D01*
X44384285Y-31308557D02*
X44684285Y-32208557D01*
X45584285Y-32294271D02*
X45498571Y-32251414D01*
X45498571Y-32251414D02*
X45412857Y-32165700D01*
X45412857Y-32165700D02*
X45284285Y-32037128D01*
X45284285Y-32037128D02*
X45198571Y-31994271D01*
X45198571Y-31994271D02*
X45112857Y-31994271D01*
X45155714Y-32208557D02*
X45070000Y-32165700D01*
X45070000Y-32165700D02*
X44984285Y-32079985D01*
X44984285Y-32079985D02*
X44941428Y-31908557D01*
X44941428Y-31908557D02*
X44941428Y-31608557D01*
X44941428Y-31608557D02*
X44984285Y-31437128D01*
X44984285Y-31437128D02*
X45070000Y-31351414D01*
X45070000Y-31351414D02*
X45155714Y-31308557D01*
X45155714Y-31308557D02*
X45327142Y-31308557D01*
X45327142Y-31308557D02*
X45412857Y-31351414D01*
X45412857Y-31351414D02*
X45498571Y-31437128D01*
X45498571Y-31437128D02*
X45541428Y-31608557D01*
X45541428Y-31608557D02*
X45541428Y-31908557D01*
X45541428Y-31908557D02*
X45498571Y-32079985D01*
X45498571Y-32079985D02*
X45412857Y-32165700D01*
X45412857Y-32165700D02*
X45327142Y-32208557D01*
X45327142Y-32208557D02*
X45155714Y-32208557D01*
X45927142Y-31308557D02*
X45927142Y-32037128D01*
X45927142Y-32037128D02*
X45969999Y-32122842D01*
X45969999Y-32122842D02*
X46012857Y-32165700D01*
X46012857Y-32165700D02*
X46098571Y-32208557D01*
X46098571Y-32208557D02*
X46269999Y-32208557D01*
X46269999Y-32208557D02*
X46355714Y-32165700D01*
X46355714Y-32165700D02*
X46398571Y-32122842D01*
X46398571Y-32122842D02*
X46441428Y-32037128D01*
X46441428Y-32037128D02*
X46441428Y-31308557D01*
X46869999Y-32208557D02*
X46869999Y-31308557D01*
X56171429Y-38508557D02*
X56171429Y-39151414D01*
X56171429Y-39151414D02*
X56128572Y-39279985D01*
X56128572Y-39279985D02*
X56042858Y-39365700D01*
X56042858Y-39365700D02*
X55914286Y-39408557D01*
X55914286Y-39408557D02*
X55828572Y-39408557D01*
X56514286Y-38508557D02*
X57071429Y-38508557D01*
X57071429Y-38508557D02*
X56771429Y-38851414D01*
X56771429Y-38851414D02*
X56900000Y-38851414D01*
X56900000Y-38851414D02*
X56985715Y-38894271D01*
X56985715Y-38894271D02*
X57028572Y-38937128D01*
X57028572Y-38937128D02*
X57071429Y-39022842D01*
X57071429Y-39022842D02*
X57071429Y-39237128D01*
X57071429Y-39237128D02*
X57028572Y-39322842D01*
X57028572Y-39322842D02*
X56985715Y-39365700D01*
X56985715Y-39365700D02*
X56900000Y-39408557D01*
X56900000Y-39408557D02*
X56642857Y-39408557D01*
X56642857Y-39408557D02*
X56557143Y-39365700D01*
X56557143Y-39365700D02*
X56514286Y-39322842D01*
X57457143Y-39322842D02*
X57500000Y-39365700D01*
X57500000Y-39365700D02*
X57457143Y-39408557D01*
X57457143Y-39408557D02*
X57414286Y-39365700D01*
X57414286Y-39365700D02*
X57457143Y-39322842D01*
X57457143Y-39322842D02*
X57457143Y-39408557D01*
X57457143Y-38851414D02*
X57500000Y-38894271D01*
X57500000Y-38894271D02*
X57457143Y-38937128D01*
X57457143Y-38937128D02*
X57414286Y-38894271D01*
X57414286Y-38894271D02*
X57457143Y-38851414D01*
X57457143Y-38851414D02*
X57457143Y-38937128D01*
X59000000Y-38508557D02*
X58571428Y-38508557D01*
X58571428Y-38508557D02*
X58528571Y-38937128D01*
X58528571Y-38937128D02*
X58571428Y-38894271D01*
X58571428Y-38894271D02*
X58657143Y-38851414D01*
X58657143Y-38851414D02*
X58871428Y-38851414D01*
X58871428Y-38851414D02*
X58957143Y-38894271D01*
X58957143Y-38894271D02*
X59000000Y-38937128D01*
X59000000Y-38937128D02*
X59042857Y-39022842D01*
X59042857Y-39022842D02*
X59042857Y-39237128D01*
X59042857Y-39237128D02*
X59000000Y-39322842D01*
X59000000Y-39322842D02*
X58957143Y-39365700D01*
X58957143Y-39365700D02*
X58871428Y-39408557D01*
X58871428Y-39408557D02*
X58657143Y-39408557D01*
X58657143Y-39408557D02*
X58571428Y-39365700D01*
X58571428Y-39365700D02*
X58528571Y-39322842D01*
X60457142Y-39365700D02*
X60371428Y-39408557D01*
X60371428Y-39408557D02*
X60200000Y-39408557D01*
X60200000Y-39408557D02*
X60114285Y-39365700D01*
X60114285Y-39365700D02*
X60071428Y-39279985D01*
X60071428Y-39279985D02*
X60071428Y-38937128D01*
X60071428Y-38937128D02*
X60114285Y-38851414D01*
X60114285Y-38851414D02*
X60200000Y-38808557D01*
X60200000Y-38808557D02*
X60371428Y-38808557D01*
X60371428Y-38808557D02*
X60457142Y-38851414D01*
X60457142Y-38851414D02*
X60500000Y-38937128D01*
X60500000Y-38937128D02*
X60500000Y-39022842D01*
X60500000Y-39022842D02*
X60071428Y-39108557D01*
X62000000Y-38508557D02*
X61571428Y-38508557D01*
X61571428Y-38508557D02*
X61528571Y-38937128D01*
X61528571Y-38937128D02*
X61571428Y-38894271D01*
X61571428Y-38894271D02*
X61657143Y-38851414D01*
X61657143Y-38851414D02*
X61871428Y-38851414D01*
X61871428Y-38851414D02*
X61957143Y-38894271D01*
X61957143Y-38894271D02*
X62000000Y-38937128D01*
X62000000Y-38937128D02*
X62042857Y-39022842D01*
X62042857Y-39022842D02*
X62042857Y-39237128D01*
X62042857Y-39237128D02*
X62000000Y-39322842D01*
X62000000Y-39322842D02*
X61957143Y-39365700D01*
X61957143Y-39365700D02*
X61871428Y-39408557D01*
X61871428Y-39408557D02*
X61657143Y-39408557D01*
X61657143Y-39408557D02*
X61571428Y-39365700D01*
X61571428Y-39365700D02*
X61528571Y-39322842D01*
X62385714Y-38594271D02*
X62428571Y-38551414D01*
X62428571Y-38551414D02*
X62514286Y-38508557D01*
X62514286Y-38508557D02*
X62728571Y-38508557D01*
X62728571Y-38508557D02*
X62814286Y-38551414D01*
X62814286Y-38551414D02*
X62857143Y-38594271D01*
X62857143Y-38594271D02*
X62900000Y-38679985D01*
X62900000Y-38679985D02*
X62900000Y-38765700D01*
X62900000Y-38765700D02*
X62857143Y-38894271D01*
X62857143Y-38894271D02*
X62342857Y-39408557D01*
X62342857Y-39408557D02*
X62900000Y-39408557D01*
X63971428Y-38937128D02*
X64657143Y-38937128D01*
X64657143Y-39194271D02*
X63971428Y-39194271D01*
X66242857Y-38551414D02*
X66157143Y-38508557D01*
X66157143Y-38508557D02*
X66028571Y-38508557D01*
X66028571Y-38508557D02*
X65900000Y-38551414D01*
X65900000Y-38551414D02*
X65814285Y-38637128D01*
X65814285Y-38637128D02*
X65771428Y-38722842D01*
X65771428Y-38722842D02*
X65728571Y-38894271D01*
X65728571Y-38894271D02*
X65728571Y-39022842D01*
X65728571Y-39022842D02*
X65771428Y-39194271D01*
X65771428Y-39194271D02*
X65814285Y-39279985D01*
X65814285Y-39279985D02*
X65900000Y-39365700D01*
X65900000Y-39365700D02*
X66028571Y-39408557D01*
X66028571Y-39408557D02*
X66114285Y-39408557D01*
X66114285Y-39408557D02*
X66242857Y-39365700D01*
X66242857Y-39365700D02*
X66285714Y-39322842D01*
X66285714Y-39322842D02*
X66285714Y-39022842D01*
X66285714Y-39022842D02*
X66114285Y-39022842D01*
X66671428Y-39408557D02*
X66671428Y-38508557D01*
X66671428Y-38508557D02*
X67185714Y-39408557D01*
X67185714Y-39408557D02*
X67185714Y-38508557D01*
X67614285Y-39408557D02*
X67614285Y-38508557D01*
X67614285Y-38508557D02*
X67828571Y-38508557D01*
X67828571Y-38508557D02*
X67957142Y-38551414D01*
X67957142Y-38551414D02*
X68042857Y-38637128D01*
X68042857Y-38637128D02*
X68085714Y-38722842D01*
X68085714Y-38722842D02*
X68128571Y-38894271D01*
X68128571Y-38894271D02*
X68128571Y-39022842D01*
X68128571Y-39022842D02*
X68085714Y-39194271D01*
X68085714Y-39194271D02*
X68042857Y-39279985D01*
X68042857Y-39279985D02*
X67957142Y-39365700D01*
X67957142Y-39365700D02*
X67828571Y-39408557D01*
X67828571Y-39408557D02*
X67614285Y-39408557D01*
X34036666Y-28954819D02*
X34608094Y-28954819D01*
X34322380Y-29954819D02*
X34322380Y-28954819D01*
X34941428Y-29954819D02*
X34941428Y-28954819D01*
X35512856Y-29954819D02*
X35084285Y-29383390D01*
X35512856Y-28954819D02*
X34941428Y-29526247D01*
X35989047Y-29954819D02*
X36179523Y-29954819D01*
X36179523Y-29954819D02*
X36274761Y-29907200D01*
X36274761Y-29907200D02*
X36322380Y-29859580D01*
X36322380Y-29859580D02*
X36417618Y-29716723D01*
X36417618Y-29716723D02*
X36465237Y-29526247D01*
X36465237Y-29526247D02*
X36465237Y-29145295D01*
X36465237Y-29145295D02*
X36417618Y-29050057D01*
X36417618Y-29050057D02*
X36369999Y-29002438D01*
X36369999Y-29002438D02*
X36274761Y-28954819D01*
X36274761Y-28954819D02*
X36084285Y-28954819D01*
X36084285Y-28954819D02*
X35989047Y-29002438D01*
X35989047Y-29002438D02*
X35941428Y-29050057D01*
X35941428Y-29050057D02*
X35893809Y-29145295D01*
X35893809Y-29145295D02*
X35893809Y-29383390D01*
X35893809Y-29383390D02*
X35941428Y-29478628D01*
X35941428Y-29478628D02*
X35989047Y-29526247D01*
X35989047Y-29526247D02*
X36084285Y-29573866D01*
X36084285Y-29573866D02*
X36274761Y-29573866D01*
X36274761Y-29573866D02*
X36369999Y-29526247D01*
X36369999Y-29526247D02*
X36417618Y-29478628D01*
X36417618Y-29478628D02*
X36465237Y-29383390D01*
X37084285Y-28954819D02*
X37179523Y-28954819D01*
X37179523Y-28954819D02*
X37274761Y-29002438D01*
X37274761Y-29002438D02*
X37322380Y-29050057D01*
X37322380Y-29050057D02*
X37369999Y-29145295D01*
X37369999Y-29145295D02*
X37417618Y-29335771D01*
X37417618Y-29335771D02*
X37417618Y-29573866D01*
X37417618Y-29573866D02*
X37369999Y-29764342D01*
X37369999Y-29764342D02*
X37322380Y-29859580D01*
X37322380Y-29859580D02*
X37274761Y-29907200D01*
X37274761Y-29907200D02*
X37179523Y-29954819D01*
X37179523Y-29954819D02*
X37084285Y-29954819D01*
X37084285Y-29954819D02*
X36989047Y-29907200D01*
X36989047Y-29907200D02*
X36941428Y-29859580D01*
X36941428Y-29859580D02*
X36893809Y-29764342D01*
X36893809Y-29764342D02*
X36846190Y-29573866D01*
X36846190Y-29573866D02*
X36846190Y-29335771D01*
X36846190Y-29335771D02*
X36893809Y-29145295D01*
X36893809Y-29145295D02*
X36941428Y-29050057D01*
X36941428Y-29050057D02*
X36989047Y-29002438D01*
X36989047Y-29002438D02*
X37084285Y-28954819D01*
X37750952Y-28954819D02*
X38417618Y-29954819D01*
X38417618Y-28954819D02*
X37750952Y-29954819D01*
X40274761Y-28907200D02*
X39417619Y-30192914D01*
X41227143Y-28954819D02*
X41798571Y-28954819D01*
X41512857Y-29954819D02*
X41512857Y-28954819D01*
X42131905Y-29954819D02*
X42131905Y-28954819D01*
X42703333Y-29954819D02*
X42274762Y-29383390D01*
X42703333Y-28954819D02*
X42131905Y-29526247D01*
X43179524Y-29954819D02*
X43370000Y-29954819D01*
X43370000Y-29954819D02*
X43465238Y-29907200D01*
X43465238Y-29907200D02*
X43512857Y-29859580D01*
X43512857Y-29859580D02*
X43608095Y-29716723D01*
X43608095Y-29716723D02*
X43655714Y-29526247D01*
X43655714Y-29526247D02*
X43655714Y-29145295D01*
X43655714Y-29145295D02*
X43608095Y-29050057D01*
X43608095Y-29050057D02*
X43560476Y-29002438D01*
X43560476Y-29002438D02*
X43465238Y-28954819D01*
X43465238Y-28954819D02*
X43274762Y-28954819D01*
X43274762Y-28954819D02*
X43179524Y-29002438D01*
X43179524Y-29002438D02*
X43131905Y-29050057D01*
X43131905Y-29050057D02*
X43084286Y-29145295D01*
X43084286Y-29145295D02*
X43084286Y-29383390D01*
X43084286Y-29383390D02*
X43131905Y-29478628D01*
X43131905Y-29478628D02*
X43179524Y-29526247D01*
X43179524Y-29526247D02*
X43274762Y-29573866D01*
X43274762Y-29573866D02*
X43465238Y-29573866D01*
X43465238Y-29573866D02*
X43560476Y-29526247D01*
X43560476Y-29526247D02*
X43608095Y-29478628D01*
X43608095Y-29478628D02*
X43655714Y-29383390D01*
X44560476Y-28954819D02*
X44084286Y-28954819D01*
X44084286Y-28954819D02*
X44036667Y-29431009D01*
X44036667Y-29431009D02*
X44084286Y-29383390D01*
X44084286Y-29383390D02*
X44179524Y-29335771D01*
X44179524Y-29335771D02*
X44417619Y-29335771D01*
X44417619Y-29335771D02*
X44512857Y-29383390D01*
X44512857Y-29383390D02*
X44560476Y-29431009D01*
X44560476Y-29431009D02*
X44608095Y-29526247D01*
X44608095Y-29526247D02*
X44608095Y-29764342D01*
X44608095Y-29764342D02*
X44560476Y-29859580D01*
X44560476Y-29859580D02*
X44512857Y-29907200D01*
X44512857Y-29907200D02*
X44417619Y-29954819D01*
X44417619Y-29954819D02*
X44179524Y-29954819D01*
X44179524Y-29954819D02*
X44084286Y-29907200D01*
X44084286Y-29907200D02*
X44036667Y-29859580D01*
X22136667Y-26401080D02*
X22765239Y-26401080D01*
X22450953Y-27501080D02*
X22450953Y-26401080D01*
X23131905Y-27501080D02*
X23131905Y-26401080D01*
X23760477Y-27501080D02*
X23289048Y-26872509D01*
X23760477Y-26401080D02*
X23131905Y-27029652D01*
X24231905Y-27501080D02*
X24231905Y-26401080D01*
X24231905Y-26401080D02*
X24598572Y-27186795D01*
X24598572Y-27186795D02*
X24965239Y-26401080D01*
X24965239Y-26401080D02*
X24965239Y-27501080D01*
X25489048Y-26924890D02*
X25855715Y-26924890D01*
X26012858Y-27501080D02*
X25489048Y-27501080D01*
X25489048Y-27501080D02*
X25489048Y-26401080D01*
X25489048Y-26401080D02*
X26012858Y-26401080D01*
X26484286Y-27501080D02*
X26484286Y-26401080D01*
X26484286Y-26401080D02*
X26850953Y-27186795D01*
X26850953Y-27186795D02*
X27217620Y-26401080D01*
X27217620Y-26401080D02*
X27217620Y-27501080D01*
X27741429Y-27082033D02*
X28579525Y-27082033D01*
X29679525Y-27501080D02*
X29050953Y-27501080D01*
X29365239Y-27501080D02*
X29365239Y-26401080D01*
X29365239Y-26401080D02*
X29260477Y-26558223D01*
X29260477Y-26558223D02*
X29155715Y-26662985D01*
X29155715Y-26662985D02*
X29050953Y-26715366D01*
X30098572Y-26505842D02*
X30150953Y-26453461D01*
X30150953Y-26453461D02*
X30255715Y-26401080D01*
X30255715Y-26401080D02*
X30517620Y-26401080D01*
X30517620Y-26401080D02*
X30622382Y-26453461D01*
X30622382Y-26453461D02*
X30674763Y-26505842D01*
X30674763Y-26505842D02*
X30727144Y-26610604D01*
X30727144Y-26610604D02*
X30727144Y-26715366D01*
X30727144Y-26715366D02*
X30674763Y-26872509D01*
X30674763Y-26872509D02*
X30046191Y-27501080D01*
X30046191Y-27501080D02*
X30727144Y-27501080D01*
X31355715Y-26872509D02*
X31250953Y-26820128D01*
X31250953Y-26820128D02*
X31198572Y-26767747D01*
X31198572Y-26767747D02*
X31146191Y-26662985D01*
X31146191Y-26662985D02*
X31146191Y-26610604D01*
X31146191Y-26610604D02*
X31198572Y-26505842D01*
X31198572Y-26505842D02*
X31250953Y-26453461D01*
X31250953Y-26453461D02*
X31355715Y-26401080D01*
X31355715Y-26401080D02*
X31565239Y-26401080D01*
X31565239Y-26401080D02*
X31670001Y-26453461D01*
X31670001Y-26453461D02*
X31722382Y-26505842D01*
X31722382Y-26505842D02*
X31774763Y-26610604D01*
X31774763Y-26610604D02*
X31774763Y-26662985D01*
X31774763Y-26662985D02*
X31722382Y-26767747D01*
X31722382Y-26767747D02*
X31670001Y-26820128D01*
X31670001Y-26820128D02*
X31565239Y-26872509D01*
X31565239Y-26872509D02*
X31355715Y-26872509D01*
X31355715Y-26872509D02*
X31250953Y-26924890D01*
X31250953Y-26924890D02*
X31198572Y-26977271D01*
X31198572Y-26977271D02*
X31146191Y-27082033D01*
X31146191Y-27082033D02*
X31146191Y-27291557D01*
X31146191Y-27291557D02*
X31198572Y-27396319D01*
X31198572Y-27396319D02*
X31250953Y-27448700D01*
X31250953Y-27448700D02*
X31355715Y-27501080D01*
X31355715Y-27501080D02*
X31565239Y-27501080D01*
X31565239Y-27501080D02*
X31670001Y-27448700D01*
X31670001Y-27448700D02*
X31722382Y-27396319D01*
X31722382Y-27396319D02*
X31774763Y-27291557D01*
X31774763Y-27291557D02*
X31774763Y-27082033D01*
X31774763Y-27082033D02*
X31722382Y-26977271D01*
X31722382Y-26977271D02*
X31670001Y-26924890D01*
X31670001Y-26924890D02*
X31565239Y-26872509D01*
X33922381Y-26924890D02*
X34289048Y-26924890D01*
X34446191Y-27501080D02*
X33922381Y-27501080D01*
X33922381Y-27501080D02*
X33922381Y-26401080D01*
X33922381Y-26401080D02*
X34446191Y-26401080D01*
X34812857Y-26401080D02*
X35546191Y-27501080D01*
X35546191Y-26401080D02*
X34812857Y-27501080D01*
X35965238Y-27501080D02*
X35965238Y-26401080D01*
X35965238Y-26401080D02*
X36384286Y-26401080D01*
X36384286Y-26401080D02*
X36489048Y-26453461D01*
X36489048Y-26453461D02*
X36541429Y-26505842D01*
X36541429Y-26505842D02*
X36593810Y-26610604D01*
X36593810Y-26610604D02*
X36593810Y-26767747D01*
X36593810Y-26767747D02*
X36541429Y-26872509D01*
X36541429Y-26872509D02*
X36489048Y-26924890D01*
X36489048Y-26924890D02*
X36384286Y-26977271D01*
X36384286Y-26977271D02*
X35965238Y-26977271D01*
X37012857Y-27186795D02*
X37536667Y-27186795D01*
X36908095Y-27501080D02*
X37274762Y-26401080D01*
X37274762Y-26401080D02*
X37641429Y-27501080D01*
X38008095Y-27501080D02*
X38008095Y-26401080D01*
X38008095Y-26401080D02*
X38636667Y-27501080D01*
X38636667Y-27501080D02*
X38636667Y-26401080D01*
X39108095Y-27448700D02*
X39265238Y-27501080D01*
X39265238Y-27501080D02*
X39527143Y-27501080D01*
X39527143Y-27501080D02*
X39631905Y-27448700D01*
X39631905Y-27448700D02*
X39684286Y-27396319D01*
X39684286Y-27396319D02*
X39736667Y-27291557D01*
X39736667Y-27291557D02*
X39736667Y-27186795D01*
X39736667Y-27186795D02*
X39684286Y-27082033D01*
X39684286Y-27082033D02*
X39631905Y-27029652D01*
X39631905Y-27029652D02*
X39527143Y-26977271D01*
X39527143Y-26977271D02*
X39317619Y-26924890D01*
X39317619Y-26924890D02*
X39212857Y-26872509D01*
X39212857Y-26872509D02*
X39160476Y-26820128D01*
X39160476Y-26820128D02*
X39108095Y-26715366D01*
X39108095Y-26715366D02*
X39108095Y-26610604D01*
X39108095Y-26610604D02*
X39160476Y-26505842D01*
X39160476Y-26505842D02*
X39212857Y-26453461D01*
X39212857Y-26453461D02*
X39317619Y-26401080D01*
X39317619Y-26401080D02*
X39579524Y-26401080D01*
X39579524Y-26401080D02*
X39736667Y-26453461D01*
X40417619Y-26401080D02*
X40627143Y-26401080D01*
X40627143Y-26401080D02*
X40731905Y-26453461D01*
X40731905Y-26453461D02*
X40836667Y-26558223D01*
X40836667Y-26558223D02*
X40889048Y-26767747D01*
X40889048Y-26767747D02*
X40889048Y-27134414D01*
X40889048Y-27134414D02*
X40836667Y-27343938D01*
X40836667Y-27343938D02*
X40731905Y-27448700D01*
X40731905Y-27448700D02*
X40627143Y-27501080D01*
X40627143Y-27501080D02*
X40417619Y-27501080D01*
X40417619Y-27501080D02*
X40312857Y-27448700D01*
X40312857Y-27448700D02*
X40208095Y-27343938D01*
X40208095Y-27343938D02*
X40155714Y-27134414D01*
X40155714Y-27134414D02*
X40155714Y-26767747D01*
X40155714Y-26767747D02*
X40208095Y-26558223D01*
X40208095Y-26558223D02*
X40312857Y-26453461D01*
X40312857Y-26453461D02*
X40417619Y-26401080D01*
X41989048Y-27501080D02*
X41622381Y-26977271D01*
X41360476Y-27501080D02*
X41360476Y-26401080D01*
X41360476Y-26401080D02*
X41779524Y-26401080D01*
X41779524Y-26401080D02*
X41884286Y-26453461D01*
X41884286Y-26453461D02*
X41936667Y-26505842D01*
X41936667Y-26505842D02*
X41989048Y-26610604D01*
X41989048Y-26610604D02*
X41989048Y-26767747D01*
X41989048Y-26767747D02*
X41936667Y-26872509D01*
X41936667Y-26872509D02*
X41884286Y-26924890D01*
X41884286Y-26924890D02*
X41779524Y-26977271D01*
X41779524Y-26977271D02*
X41360476Y-26977271D01*
X43298571Y-27501080D02*
X43298571Y-26401080D01*
X43298571Y-26401080D02*
X43560476Y-26401080D01*
X43560476Y-26401080D02*
X43717619Y-26453461D01*
X43717619Y-26453461D02*
X43822381Y-26558223D01*
X43822381Y-26558223D02*
X43874762Y-26662985D01*
X43874762Y-26662985D02*
X43927143Y-26872509D01*
X43927143Y-26872509D02*
X43927143Y-27029652D01*
X43927143Y-27029652D02*
X43874762Y-27239176D01*
X43874762Y-27239176D02*
X43822381Y-27343938D01*
X43822381Y-27343938D02*
X43717619Y-27448700D01*
X43717619Y-27448700D02*
X43560476Y-27501080D01*
X43560476Y-27501080D02*
X43298571Y-27501080D01*
X44608095Y-26401080D02*
X44817619Y-26401080D01*
X44817619Y-26401080D02*
X44922381Y-26453461D01*
X44922381Y-26453461D02*
X45027143Y-26558223D01*
X45027143Y-26558223D02*
X45079524Y-26767747D01*
X45079524Y-26767747D02*
X45079524Y-27134414D01*
X45079524Y-27134414D02*
X45027143Y-27343938D01*
X45027143Y-27343938D02*
X44922381Y-27448700D01*
X44922381Y-27448700D02*
X44817619Y-27501080D01*
X44817619Y-27501080D02*
X44608095Y-27501080D01*
X44608095Y-27501080D02*
X44503333Y-27448700D01*
X44503333Y-27448700D02*
X44398571Y-27343938D01*
X44398571Y-27343938D02*
X44346190Y-27134414D01*
X44346190Y-27134414D02*
X44346190Y-26767747D01*
X44346190Y-26767747D02*
X44398571Y-26558223D01*
X44398571Y-26558223D02*
X44503333Y-26453461D01*
X44503333Y-26453461D02*
X44608095Y-26401080D01*
X46755714Y-26924890D02*
X46912857Y-26977271D01*
X46912857Y-26977271D02*
X46965238Y-27029652D01*
X46965238Y-27029652D02*
X47017619Y-27134414D01*
X47017619Y-27134414D02*
X47017619Y-27291557D01*
X47017619Y-27291557D02*
X46965238Y-27396319D01*
X46965238Y-27396319D02*
X46912857Y-27448700D01*
X46912857Y-27448700D02*
X46808095Y-27501080D01*
X46808095Y-27501080D02*
X46389047Y-27501080D01*
X46389047Y-27501080D02*
X46389047Y-26401080D01*
X46389047Y-26401080D02*
X46755714Y-26401080D01*
X46755714Y-26401080D02*
X46860476Y-26453461D01*
X46860476Y-26453461D02*
X46912857Y-26505842D01*
X46912857Y-26505842D02*
X46965238Y-26610604D01*
X46965238Y-26610604D02*
X46965238Y-26715366D01*
X46965238Y-26715366D02*
X46912857Y-26820128D01*
X46912857Y-26820128D02*
X46860476Y-26872509D01*
X46860476Y-26872509D02*
X46755714Y-26924890D01*
X46755714Y-26924890D02*
X46389047Y-26924890D01*
X47436666Y-27186795D02*
X47960476Y-27186795D01*
X47331904Y-27501080D02*
X47698571Y-26401080D01*
X47698571Y-26401080D02*
X48065238Y-27501080D01*
X49060476Y-27501080D02*
X48693809Y-26977271D01*
X48431904Y-27501080D02*
X48431904Y-26401080D01*
X48431904Y-26401080D02*
X48850952Y-26401080D01*
X48850952Y-26401080D02*
X48955714Y-26453461D01*
X48955714Y-26453461D02*
X49008095Y-26505842D01*
X49008095Y-26505842D02*
X49060476Y-26610604D01*
X49060476Y-26610604D02*
X49060476Y-26767747D01*
X49060476Y-26767747D02*
X49008095Y-26872509D01*
X49008095Y-26872509D02*
X48955714Y-26924890D01*
X48955714Y-26924890D02*
X48850952Y-26977271D01*
X48850952Y-26977271D02*
X48431904Y-26977271D01*
X50160476Y-27501080D02*
X49793809Y-26977271D01*
X49531904Y-27501080D02*
X49531904Y-26401080D01*
X49531904Y-26401080D02*
X49950952Y-26401080D01*
X49950952Y-26401080D02*
X50055714Y-26453461D01*
X50055714Y-26453461D02*
X50108095Y-26505842D01*
X50108095Y-26505842D02*
X50160476Y-26610604D01*
X50160476Y-26610604D02*
X50160476Y-26767747D01*
X50160476Y-26767747D02*
X50108095Y-26872509D01*
X50108095Y-26872509D02*
X50055714Y-26924890D01*
X50055714Y-26924890D02*
X49950952Y-26977271D01*
X49950952Y-26977271D02*
X49531904Y-26977271D01*
X50579523Y-27186795D02*
X51103333Y-27186795D01*
X50474761Y-27501080D02*
X50841428Y-26401080D01*
X50841428Y-26401080D02*
X51208095Y-27501080D01*
X51574761Y-27501080D02*
X51574761Y-26401080D01*
X51574761Y-26401080D02*
X51941428Y-27186795D01*
X51941428Y-27186795D02*
X52308095Y-26401080D01*
X52308095Y-26401080D02*
X52308095Y-27501080D01*
X52831904Y-26924890D02*
X53198571Y-26924890D01*
X53355714Y-27501080D02*
X52831904Y-27501080D01*
X52831904Y-27501080D02*
X52831904Y-26401080D01*
X52831904Y-26401080D02*
X53355714Y-26401080D01*
X53827142Y-27501080D02*
X53827142Y-26401080D01*
X53827142Y-26401080D02*
X54455714Y-27501080D01*
X54455714Y-27501080D02*
X54455714Y-26401080D01*
X54822380Y-26401080D02*
X55450952Y-26401080D01*
X55136666Y-27501080D02*
X55136666Y-26401080D01*
X56027142Y-26401080D02*
X56236666Y-26401080D01*
X56236666Y-26401080D02*
X56341428Y-26453461D01*
X56341428Y-26453461D02*
X56446190Y-26558223D01*
X56446190Y-26558223D02*
X56498571Y-26767747D01*
X56498571Y-26767747D02*
X56498571Y-27134414D01*
X56498571Y-27134414D02*
X56446190Y-27343938D01*
X56446190Y-27343938D02*
X56341428Y-27448700D01*
X56341428Y-27448700D02*
X56236666Y-27501080D01*
X56236666Y-27501080D02*
X56027142Y-27501080D01*
X56027142Y-27501080D02*
X55922380Y-27448700D01*
X55922380Y-27448700D02*
X55817618Y-27343938D01*
X55817618Y-27343938D02*
X55765237Y-27134414D01*
X55765237Y-27134414D02*
X55765237Y-26767747D01*
X55765237Y-26767747D02*
X55817618Y-26558223D01*
X55817618Y-26558223D02*
X55922380Y-26453461D01*
X55922380Y-26453461D02*
X56027142Y-26401080D01*
X6200000Y-14747342D02*
X5285714Y-15090200D01*
X5285714Y-15090200D02*
X6200000Y-15433057D01*
X6771428Y-15090200D02*
X7685714Y-15090200D01*
X8999999Y-14347342D02*
X9685714Y-14347342D01*
X9342856Y-15547342D02*
X9342856Y-14347342D01*
X10085714Y-15547342D02*
X10085714Y-14347342D01*
X10771428Y-15547342D02*
X10257142Y-14861628D01*
X10771428Y-14347342D02*
X10085714Y-15033057D01*
X53742858Y-55547342D02*
X53742858Y-54347342D01*
X53742858Y-54347342D02*
X54200001Y-54347342D01*
X54200001Y-54347342D02*
X54314286Y-54404485D01*
X54314286Y-54404485D02*
X54371429Y-54461628D01*
X54371429Y-54461628D02*
X54428572Y-54575914D01*
X54428572Y-54575914D02*
X54428572Y-54747342D01*
X54428572Y-54747342D02*
X54371429Y-54861628D01*
X54371429Y-54861628D02*
X54314286Y-54918771D01*
X54314286Y-54918771D02*
X54200001Y-54975914D01*
X54200001Y-54975914D02*
X53742858Y-54975914D01*
X54885715Y-55204485D02*
X55457144Y-55204485D01*
X54771429Y-55547342D02*
X55171429Y-54347342D01*
X55171429Y-54347342D02*
X55571429Y-55547342D01*
X55914286Y-55490200D02*
X56085715Y-55547342D01*
X56085715Y-55547342D02*
X56371429Y-55547342D01*
X56371429Y-55547342D02*
X56485715Y-55490200D01*
X56485715Y-55490200D02*
X56542857Y-55433057D01*
X56542857Y-55433057D02*
X56600000Y-55318771D01*
X56600000Y-55318771D02*
X56600000Y-55204485D01*
X56600000Y-55204485D02*
X56542857Y-55090200D01*
X56542857Y-55090200D02*
X56485715Y-55033057D01*
X56485715Y-55033057D02*
X56371429Y-54975914D01*
X56371429Y-54975914D02*
X56142857Y-54918771D01*
X56142857Y-54918771D02*
X56028572Y-54861628D01*
X56028572Y-54861628D02*
X55971429Y-54804485D01*
X55971429Y-54804485D02*
X55914286Y-54690200D01*
X55914286Y-54690200D02*
X55914286Y-54575914D01*
X55914286Y-54575914D02*
X55971429Y-54461628D01*
X55971429Y-54461628D02*
X56028572Y-54404485D01*
X56028572Y-54404485D02*
X56142857Y-54347342D01*
X56142857Y-54347342D02*
X56428572Y-54347342D01*
X56428572Y-54347342D02*
X56600000Y-54404485D01*
X57057143Y-55490200D02*
X57228572Y-55547342D01*
X57228572Y-55547342D02*
X57514286Y-55547342D01*
X57514286Y-55547342D02*
X57628572Y-55490200D01*
X57628572Y-55490200D02*
X57685714Y-55433057D01*
X57685714Y-55433057D02*
X57742857Y-55318771D01*
X57742857Y-55318771D02*
X57742857Y-55204485D01*
X57742857Y-55204485D02*
X57685714Y-55090200D01*
X57685714Y-55090200D02*
X57628572Y-55033057D01*
X57628572Y-55033057D02*
X57514286Y-54975914D01*
X57514286Y-54975914D02*
X57285714Y-54918771D01*
X57285714Y-54918771D02*
X57171429Y-54861628D01*
X57171429Y-54861628D02*
X57114286Y-54804485D01*
X57114286Y-54804485D02*
X57057143Y-54690200D01*
X57057143Y-54690200D02*
X57057143Y-54575914D01*
X57057143Y-54575914D02*
X57114286Y-54461628D01*
X57114286Y-54461628D02*
X57171429Y-54404485D01*
X57171429Y-54404485D02*
X57285714Y-54347342D01*
X57285714Y-54347342D02*
X57571429Y-54347342D01*
X57571429Y-54347342D02*
X57742857Y-54404485D01*
X58200000Y-55204485D02*
X58771429Y-55204485D01*
X58085714Y-55547342D02*
X58485714Y-54347342D01*
X58485714Y-54347342D02*
X58885714Y-55547342D01*
X59914285Y-54404485D02*
X59800000Y-54347342D01*
X59800000Y-54347342D02*
X59628571Y-54347342D01*
X59628571Y-54347342D02*
X59457142Y-54404485D01*
X59457142Y-54404485D02*
X59342857Y-54518771D01*
X59342857Y-54518771D02*
X59285714Y-54633057D01*
X59285714Y-54633057D02*
X59228571Y-54861628D01*
X59228571Y-54861628D02*
X59228571Y-55033057D01*
X59228571Y-55033057D02*
X59285714Y-55261628D01*
X59285714Y-55261628D02*
X59342857Y-55375914D01*
X59342857Y-55375914D02*
X59457142Y-55490200D01*
X59457142Y-55490200D02*
X59628571Y-55547342D01*
X59628571Y-55547342D02*
X59742857Y-55547342D01*
X59742857Y-55547342D02*
X59914285Y-55490200D01*
X59914285Y-55490200D02*
X59971428Y-55433057D01*
X59971428Y-55433057D02*
X59971428Y-55033057D01*
X59971428Y-55033057D02*
X59742857Y-55033057D01*
X60485714Y-54918771D02*
X60885714Y-54918771D01*
X61057142Y-55547342D02*
X60485714Y-55547342D01*
X60485714Y-55547342D02*
X60485714Y-54347342D01*
X60485714Y-54347342D02*
X61057142Y-54347342D01*
X61571428Y-55547342D02*
X61571428Y-54347342D01*
X61571428Y-54347342D02*
X61971428Y-55204485D01*
X61971428Y-55204485D02*
X62371428Y-54347342D01*
X62371428Y-54347342D02*
X62371428Y-55547342D01*
X63857143Y-55090200D02*
X64771429Y-55090200D01*
X65342857Y-54747342D02*
X66257143Y-55090200D01*
X66257143Y-55090200D02*
X65342857Y-55433057D01*
X8333333Y-48359580D02*
X8285714Y-48407200D01*
X8285714Y-48407200D02*
X8142857Y-48454819D01*
X8142857Y-48454819D02*
X8047619Y-48454819D01*
X8047619Y-48454819D02*
X7904762Y-48407200D01*
X7904762Y-48407200D02*
X7809524Y-48311961D01*
X7809524Y-48311961D02*
X7761905Y-48216723D01*
X7761905Y-48216723D02*
X7714286Y-48026247D01*
X7714286Y-48026247D02*
X7714286Y-47883390D01*
X7714286Y-47883390D02*
X7761905Y-47692914D01*
X7761905Y-47692914D02*
X7809524Y-47597676D01*
X7809524Y-47597676D02*
X7904762Y-47502438D01*
X7904762Y-47502438D02*
X8047619Y-47454819D01*
X8047619Y-47454819D02*
X8142857Y-47454819D01*
X8142857Y-47454819D02*
X8285714Y-47502438D01*
X8285714Y-47502438D02*
X8333333Y-47550057D01*
X9285714Y-48454819D02*
X8714286Y-48454819D01*
X9000000Y-48454819D02*
X9000000Y-47454819D01*
X9000000Y-47454819D02*
X8904762Y-47597676D01*
X8904762Y-47597676D02*
X8809524Y-47692914D01*
X8809524Y-47692914D02*
X8714286Y-47740533D01*
X39036666Y-39454819D02*
X39036666Y-40169104D01*
X39036666Y-40169104D02*
X38989047Y-40311961D01*
X38989047Y-40311961D02*
X38893809Y-40407200D01*
X38893809Y-40407200D02*
X38750952Y-40454819D01*
X38750952Y-40454819D02*
X38655714Y-40454819D01*
X39417619Y-39454819D02*
X40036666Y-39454819D01*
X40036666Y-39454819D02*
X39703333Y-39835771D01*
X39703333Y-39835771D02*
X39846190Y-39835771D01*
X39846190Y-39835771D02*
X39941428Y-39883390D01*
X39941428Y-39883390D02*
X39989047Y-39931009D01*
X39989047Y-39931009D02*
X40036666Y-40026247D01*
X40036666Y-40026247D02*
X40036666Y-40264342D01*
X40036666Y-40264342D02*
X39989047Y-40359580D01*
X39989047Y-40359580D02*
X39941428Y-40407200D01*
X39941428Y-40407200D02*
X39846190Y-40454819D01*
X39846190Y-40454819D02*
X39560476Y-40454819D01*
X39560476Y-40454819D02*
X39465238Y-40407200D01*
X39465238Y-40407200D02*
X39417619Y-40359580D01*
X5337143Y-31208557D02*
X4822857Y-31208557D01*
X5080000Y-31208557D02*
X5080000Y-30308557D01*
X5080000Y-30308557D02*
X4994286Y-30437128D01*
X4994286Y-30437128D02*
X4908571Y-30522842D01*
X4908571Y-30522842D02*
X4822857Y-30565700D01*
X9945714Y-30308557D02*
X9517142Y-30308557D01*
X9517142Y-30308557D02*
X9474285Y-30737128D01*
X9474285Y-30737128D02*
X9517142Y-30694271D01*
X9517142Y-30694271D02*
X9602857Y-30651414D01*
X9602857Y-30651414D02*
X9817142Y-30651414D01*
X9817142Y-30651414D02*
X9902857Y-30694271D01*
X9902857Y-30694271D02*
X9945714Y-30737128D01*
X9945714Y-30737128D02*
X9988571Y-30822842D01*
X9988571Y-30822842D02*
X9988571Y-31037128D01*
X9988571Y-31037128D02*
X9945714Y-31122842D01*
X9945714Y-31122842D02*
X9902857Y-31165700D01*
X9902857Y-31165700D02*
X9817142Y-31208557D01*
X9817142Y-31208557D02*
X9602857Y-31208557D01*
X9602857Y-31208557D02*
X9517142Y-31165700D01*
X9517142Y-31165700D02*
X9474285Y-31122842D01*
X10760000Y-30308557D02*
X10588571Y-30308557D01*
X10588571Y-30308557D02*
X10502857Y-30351414D01*
X10502857Y-30351414D02*
X10460000Y-30394271D01*
X10460000Y-30394271D02*
X10374285Y-30522842D01*
X10374285Y-30522842D02*
X10331428Y-30694271D01*
X10331428Y-30694271D02*
X10331428Y-31037128D01*
X10331428Y-31037128D02*
X10374285Y-31122842D01*
X10374285Y-31122842D02*
X10417142Y-31165700D01*
X10417142Y-31165700D02*
X10502857Y-31208557D01*
X10502857Y-31208557D02*
X10674285Y-31208557D01*
X10674285Y-31208557D02*
X10760000Y-31165700D01*
X10760000Y-31165700D02*
X10802857Y-31122842D01*
X10802857Y-31122842D02*
X10845714Y-31037128D01*
X10845714Y-31037128D02*
X10845714Y-30822842D01*
X10845714Y-30822842D02*
X10802857Y-30737128D01*
X10802857Y-30737128D02*
X10760000Y-30694271D01*
X10760000Y-30694271D02*
X10674285Y-30651414D01*
X10674285Y-30651414D02*
X10502857Y-30651414D01*
X10502857Y-30651414D02*
X10417142Y-30694271D01*
X10417142Y-30694271D02*
X10374285Y-30737128D01*
X10374285Y-30737128D02*
X10331428Y-30822842D01*
X67894285Y-30394271D02*
X67937142Y-30351414D01*
X67937142Y-30351414D02*
X68022857Y-30308557D01*
X68022857Y-30308557D02*
X68237142Y-30308557D01*
X68237142Y-30308557D02*
X68322857Y-30351414D01*
X68322857Y-30351414D02*
X68365714Y-30394271D01*
X68365714Y-30394271D02*
X68408571Y-30479985D01*
X68408571Y-30479985D02*
X68408571Y-30565700D01*
X68408571Y-30565700D02*
X68365714Y-30694271D01*
X68365714Y-30694271D02*
X67851428Y-31208557D01*
X67851428Y-31208557D02*
X68408571Y-31208557D01*
X68837142Y-31208557D02*
X69008571Y-31208557D01*
X69008571Y-31208557D02*
X69094285Y-31165700D01*
X69094285Y-31165700D02*
X69137142Y-31122842D01*
X69137142Y-31122842D02*
X69222857Y-30994271D01*
X69222857Y-30994271D02*
X69265714Y-30822842D01*
X69265714Y-30822842D02*
X69265714Y-30479985D01*
X69265714Y-30479985D02*
X69222857Y-30394271D01*
X69222857Y-30394271D02*
X69180000Y-30351414D01*
X69180000Y-30351414D02*
X69094285Y-30308557D01*
X69094285Y-30308557D02*
X68922857Y-30308557D01*
X68922857Y-30308557D02*
X68837142Y-30351414D01*
X68837142Y-30351414D02*
X68794285Y-30394271D01*
X68794285Y-30394271D02*
X68751428Y-30479985D01*
X68751428Y-30479985D02*
X68751428Y-30694271D01*
X68751428Y-30694271D02*
X68794285Y-30779985D01*
X68794285Y-30779985D02*
X68837142Y-30822842D01*
X68837142Y-30822842D02*
X68922857Y-30865700D01*
X68922857Y-30865700D02*
X69094285Y-30865700D01*
X69094285Y-30865700D02*
X69180000Y-30822842D01*
X69180000Y-30822842D02*
X69222857Y-30779985D01*
X69222857Y-30779985D02*
X69265714Y-30694271D01*
X72974285Y-30394271D02*
X73017142Y-30351414D01*
X73017142Y-30351414D02*
X73102857Y-30308557D01*
X73102857Y-30308557D02*
X73317142Y-30308557D01*
X73317142Y-30308557D02*
X73402857Y-30351414D01*
X73402857Y-30351414D02*
X73445714Y-30394271D01*
X73445714Y-30394271D02*
X73488571Y-30479985D01*
X73488571Y-30479985D02*
X73488571Y-30565700D01*
X73488571Y-30565700D02*
X73445714Y-30694271D01*
X73445714Y-30694271D02*
X72931428Y-31208557D01*
X72931428Y-31208557D02*
X73488571Y-31208557D01*
X74002857Y-30694271D02*
X73917142Y-30651414D01*
X73917142Y-30651414D02*
X73874285Y-30608557D01*
X73874285Y-30608557D02*
X73831428Y-30522842D01*
X73831428Y-30522842D02*
X73831428Y-30479985D01*
X73831428Y-30479985D02*
X73874285Y-30394271D01*
X73874285Y-30394271D02*
X73917142Y-30351414D01*
X73917142Y-30351414D02*
X74002857Y-30308557D01*
X74002857Y-30308557D02*
X74174285Y-30308557D01*
X74174285Y-30308557D02*
X74260000Y-30351414D01*
X74260000Y-30351414D02*
X74302857Y-30394271D01*
X74302857Y-30394271D02*
X74345714Y-30479985D01*
X74345714Y-30479985D02*
X74345714Y-30522842D01*
X74345714Y-30522842D02*
X74302857Y-30608557D01*
X74302857Y-30608557D02*
X74260000Y-30651414D01*
X74260000Y-30651414D02*
X74174285Y-30694271D01*
X74174285Y-30694271D02*
X74002857Y-30694271D01*
X74002857Y-30694271D02*
X73917142Y-30737128D01*
X73917142Y-30737128D02*
X73874285Y-30779985D01*
X73874285Y-30779985D02*
X73831428Y-30865700D01*
X73831428Y-30865700D02*
X73831428Y-31037128D01*
X73831428Y-31037128D02*
X73874285Y-31122842D01*
X73874285Y-31122842D02*
X73917142Y-31165700D01*
X73917142Y-31165700D02*
X74002857Y-31208557D01*
X74002857Y-31208557D02*
X74174285Y-31208557D01*
X74174285Y-31208557D02*
X74260000Y-31165700D01*
X74260000Y-31165700D02*
X74302857Y-31122842D01*
X74302857Y-31122842D02*
X74345714Y-31037128D01*
X74345714Y-31037128D02*
X74345714Y-30865700D01*
X74345714Y-30865700D02*
X74302857Y-30779985D01*
X74302857Y-30779985D02*
X74260000Y-30737128D01*
X74260000Y-30737128D02*
X74174285Y-30694271D01*
X39036666Y1045180D02*
X39036666Y330895D01*
X39036666Y330895D02*
X38989047Y188038D01*
X38989047Y188038D02*
X38893809Y92800D01*
X38893809Y92800D02*
X38750952Y45180D01*
X38750952Y45180D02*
X38655714Y45180D01*
X40036666Y45180D02*
X39465238Y45180D01*
X39750952Y45180D02*
X39750952Y1045180D01*
X39750952Y1045180D02*
X39655714Y902323D01*
X39655714Y902323D02*
X39560476Y807085D01*
X39560476Y807085D02*
X39465238Y759466D01*
X5365714Y-254819D02*
X4794286Y-254819D01*
X5080000Y-254819D02*
X5080000Y745180D01*
X5080000Y745180D02*
X4984762Y602323D01*
X4984762Y602323D02*
X4889524Y507085D01*
X4889524Y507085D02*
X4794286Y459466D01*
X4841904Y-11654819D02*
X4365714Y-11654819D01*
X4365714Y-11654819D02*
X4318095Y-12131009D01*
X4318095Y-12131009D02*
X4365714Y-12083390D01*
X4365714Y-12083390D02*
X4460952Y-12035771D01*
X4460952Y-12035771D02*
X4699047Y-12035771D01*
X4699047Y-12035771D02*
X4794285Y-12083390D01*
X4794285Y-12083390D02*
X4841904Y-12131009D01*
X4841904Y-12131009D02*
X4889523Y-12226247D01*
X4889523Y-12226247D02*
X4889523Y-12464342D01*
X4889523Y-12464342D02*
X4841904Y-12559580D01*
X4841904Y-12559580D02*
X4794285Y-12607200D01*
X4794285Y-12607200D02*
X4699047Y-12654819D01*
X4699047Y-12654819D02*
X4460952Y-12654819D01*
X4460952Y-12654819D02*
X4365714Y-12607200D01*
X4365714Y-12607200D02*
X4318095Y-12559580D01*
X5746666Y-11654819D02*
X5556190Y-11654819D01*
X5556190Y-11654819D02*
X5460952Y-11702438D01*
X5460952Y-11702438D02*
X5413333Y-11750057D01*
X5413333Y-11750057D02*
X5318095Y-11892914D01*
X5318095Y-11892914D02*
X5270476Y-12083390D01*
X5270476Y-12083390D02*
X5270476Y-12464342D01*
X5270476Y-12464342D02*
X5318095Y-12559580D01*
X5318095Y-12559580D02*
X5365714Y-12607200D01*
X5365714Y-12607200D02*
X5460952Y-12654819D01*
X5460952Y-12654819D02*
X5651428Y-12654819D01*
X5651428Y-12654819D02*
X5746666Y-12607200D01*
X5746666Y-12607200D02*
X5794285Y-12559580D01*
X5794285Y-12559580D02*
X5841904Y-12464342D01*
X5841904Y-12464342D02*
X5841904Y-12226247D01*
X5841904Y-12226247D02*
X5794285Y-12131009D01*
X5794285Y-12131009D02*
X5746666Y-12083390D01*
X5746666Y-12083390D02*
X5651428Y-12035771D01*
X5651428Y-12035771D02*
X5460952Y-12035771D01*
X5460952Y-12035771D02*
X5365714Y-12083390D01*
X5365714Y-12083390D02*
X5318095Y-12131009D01*
X5318095Y-12131009D02*
X5270476Y-12226247D01*
X17904286Y-5551414D02*
X17818572Y-5508557D01*
X17818572Y-5508557D02*
X17690000Y-5508557D01*
X17690000Y-5508557D02*
X17561429Y-5551414D01*
X17561429Y-5551414D02*
X17475714Y-5637128D01*
X17475714Y-5637128D02*
X17432857Y-5722842D01*
X17432857Y-5722842D02*
X17390000Y-5894271D01*
X17390000Y-5894271D02*
X17390000Y-6022842D01*
X17390000Y-6022842D02*
X17432857Y-6194271D01*
X17432857Y-6194271D02*
X17475714Y-6279985D01*
X17475714Y-6279985D02*
X17561429Y-6365700D01*
X17561429Y-6365700D02*
X17690000Y-6408557D01*
X17690000Y-6408557D02*
X17775714Y-6408557D01*
X17775714Y-6408557D02*
X17904286Y-6365700D01*
X17904286Y-6365700D02*
X17947143Y-6322842D01*
X17947143Y-6322842D02*
X17947143Y-6022842D01*
X17947143Y-6022842D02*
X17775714Y-6022842D01*
X18332857Y-5508557D02*
X18332857Y-6237128D01*
X18332857Y-6237128D02*
X18375714Y-6322842D01*
X18375714Y-6322842D02*
X18418572Y-6365700D01*
X18418572Y-6365700D02*
X18504286Y-6408557D01*
X18504286Y-6408557D02*
X18675714Y-6408557D01*
X18675714Y-6408557D02*
X18761429Y-6365700D01*
X18761429Y-6365700D02*
X18804286Y-6322842D01*
X18804286Y-6322842D02*
X18847143Y-6237128D01*
X18847143Y-6237128D02*
X18847143Y-5508557D01*
X19275714Y-6408557D02*
X19275714Y-5508557D01*
X19661428Y-6151414D02*
X20090000Y-6151414D01*
X19575714Y-6408557D02*
X19875714Y-5508557D01*
X19875714Y-5508557D02*
X20175714Y-6408557D01*
X72898095Y649942D02*
X72945714Y697561D01*
X72945714Y697561D02*
X73040952Y745180D01*
X73040952Y745180D02*
X73279047Y745180D01*
X73279047Y745180D02*
X73374285Y697561D01*
X73374285Y697561D02*
X73421904Y649942D01*
X73421904Y649942D02*
X73469523Y554704D01*
X73469523Y554704D02*
X73469523Y459466D01*
X73469523Y459466D02*
X73421904Y316609D01*
X73421904Y316609D02*
X72850476Y-254819D01*
X72850476Y-254819D02*
X73469523Y-254819D01*
X74040952Y316609D02*
X73945714Y364228D01*
X73945714Y364228D02*
X73898095Y411847D01*
X73898095Y411847D02*
X73850476Y507085D01*
X73850476Y507085D02*
X73850476Y554704D01*
X73850476Y554704D02*
X73898095Y649942D01*
X73898095Y649942D02*
X73945714Y697561D01*
X73945714Y697561D02*
X74040952Y745180D01*
X74040952Y745180D02*
X74231428Y745180D01*
X74231428Y745180D02*
X74326666Y697561D01*
X74326666Y697561D02*
X74374285Y649942D01*
X74374285Y649942D02*
X74421904Y554704D01*
X74421904Y554704D02*
X74421904Y507085D01*
X74421904Y507085D02*
X74374285Y411847D01*
X74374285Y411847D02*
X74326666Y364228D01*
X74326666Y364228D02*
X74231428Y316609D01*
X74231428Y316609D02*
X74040952Y316609D01*
X74040952Y316609D02*
X73945714Y268990D01*
X73945714Y268990D02*
X73898095Y221371D01*
X73898095Y221371D02*
X73850476Y126133D01*
X73850476Y126133D02*
X73850476Y-64342D01*
X73850476Y-64342D02*
X73898095Y-159580D01*
X73898095Y-159580D02*
X73945714Y-207200D01*
X73945714Y-207200D02*
X74040952Y-254819D01*
X74040952Y-254819D02*
X74231428Y-254819D01*
X74231428Y-254819D02*
X74326666Y-207200D01*
X74326666Y-207200D02*
X74374285Y-159580D01*
X74374285Y-159580D02*
X74421904Y-64342D01*
X74421904Y-64342D02*
X74421904Y126133D01*
X74421904Y126133D02*
X74374285Y221371D01*
X74374285Y221371D02*
X74326666Y268990D01*
X74326666Y268990D02*
X74231428Y316609D01*
X72898095Y-11750057D02*
X72945714Y-11702438D01*
X72945714Y-11702438D02*
X73040952Y-11654819D01*
X73040952Y-11654819D02*
X73279047Y-11654819D01*
X73279047Y-11654819D02*
X73374285Y-11702438D01*
X73374285Y-11702438D02*
X73421904Y-11750057D01*
X73421904Y-11750057D02*
X73469523Y-11845295D01*
X73469523Y-11845295D02*
X73469523Y-11940533D01*
X73469523Y-11940533D02*
X73421904Y-12083390D01*
X73421904Y-12083390D02*
X72850476Y-12654819D01*
X72850476Y-12654819D02*
X73469523Y-12654819D01*
X73945714Y-12654819D02*
X74136190Y-12654819D01*
X74136190Y-12654819D02*
X74231428Y-12607200D01*
X74231428Y-12607200D02*
X74279047Y-12559580D01*
X74279047Y-12559580D02*
X74374285Y-12416723D01*
X74374285Y-12416723D02*
X74421904Y-12226247D01*
X74421904Y-12226247D02*
X74421904Y-11845295D01*
X74421904Y-11845295D02*
X74374285Y-11750057D01*
X74374285Y-11750057D02*
X74326666Y-11702438D01*
X74326666Y-11702438D02*
X74231428Y-11654819D01*
X74231428Y-11654819D02*
X74040952Y-11654819D01*
X74040952Y-11654819D02*
X73945714Y-11702438D01*
X73945714Y-11702438D02*
X73898095Y-11750057D01*
X73898095Y-11750057D02*
X73850476Y-11845295D01*
X73850476Y-11845295D02*
X73850476Y-12083390D01*
X73850476Y-12083390D02*
X73898095Y-12178628D01*
X73898095Y-12178628D02*
X73945714Y-12226247D01*
X73945714Y-12226247D02*
X74040952Y-12273866D01*
X74040952Y-12273866D02*
X74231428Y-12273866D01*
X74231428Y-12273866D02*
X74326666Y-12226247D01*
X74326666Y-12226247D02*
X74374285Y-12178628D01*
X74374285Y-12178628D02*
X74421904Y-12083390D01*
X39036666Y-59144819D02*
X39036666Y-59859104D01*
X39036666Y-59859104D02*
X38989047Y-60001961D01*
X38989047Y-60001961D02*
X38893809Y-60097200D01*
X38893809Y-60097200D02*
X38750952Y-60144819D01*
X38750952Y-60144819D02*
X38655714Y-60144819D01*
X39465238Y-59240057D02*
X39512857Y-59192438D01*
X39512857Y-59192438D02*
X39608095Y-59144819D01*
X39608095Y-59144819D02*
X39846190Y-59144819D01*
X39846190Y-59144819D02*
X39941428Y-59192438D01*
X39941428Y-59192438D02*
X39989047Y-59240057D01*
X39989047Y-59240057D02*
X40036666Y-59335295D01*
X40036666Y-59335295D02*
X40036666Y-59430533D01*
X40036666Y-59430533D02*
X39989047Y-59573390D01*
X39989047Y-59573390D02*
X39417619Y-60144819D01*
X39417619Y-60144819D02*
X40036666Y-60144819D01*
X4841904Y-60244819D02*
X4365714Y-60244819D01*
X4365714Y-60244819D02*
X4318095Y-60721009D01*
X4318095Y-60721009D02*
X4365714Y-60673390D01*
X4365714Y-60673390D02*
X4460952Y-60625771D01*
X4460952Y-60625771D02*
X4699047Y-60625771D01*
X4699047Y-60625771D02*
X4794285Y-60673390D01*
X4794285Y-60673390D02*
X4841904Y-60721009D01*
X4841904Y-60721009D02*
X4889523Y-60816247D01*
X4889523Y-60816247D02*
X4889523Y-61054342D01*
X4889523Y-61054342D02*
X4841904Y-61149580D01*
X4841904Y-61149580D02*
X4794285Y-61197200D01*
X4794285Y-61197200D02*
X4699047Y-61244819D01*
X4699047Y-61244819D02*
X4460952Y-61244819D01*
X4460952Y-61244819D02*
X4365714Y-61197200D01*
X4365714Y-61197200D02*
X4318095Y-61149580D01*
X5746666Y-60244819D02*
X5556190Y-60244819D01*
X5556190Y-60244819D02*
X5460952Y-60292438D01*
X5460952Y-60292438D02*
X5413333Y-60340057D01*
X5413333Y-60340057D02*
X5318095Y-60482914D01*
X5318095Y-60482914D02*
X5270476Y-60673390D01*
X5270476Y-60673390D02*
X5270476Y-61054342D01*
X5270476Y-61054342D02*
X5318095Y-61149580D01*
X5318095Y-61149580D02*
X5365714Y-61197200D01*
X5365714Y-61197200D02*
X5460952Y-61244819D01*
X5460952Y-61244819D02*
X5651428Y-61244819D01*
X5651428Y-61244819D02*
X5746666Y-61197200D01*
X5746666Y-61197200D02*
X5794285Y-61149580D01*
X5794285Y-61149580D02*
X5841904Y-61054342D01*
X5841904Y-61054342D02*
X5841904Y-60816247D01*
X5841904Y-60816247D02*
X5794285Y-60721009D01*
X5794285Y-60721009D02*
X5746666Y-60673390D01*
X5746666Y-60673390D02*
X5651428Y-60625771D01*
X5651428Y-60625771D02*
X5460952Y-60625771D01*
X5460952Y-60625771D02*
X5365714Y-60673390D01*
X5365714Y-60673390D02*
X5318095Y-60721009D01*
X5318095Y-60721009D02*
X5270476Y-60816247D01*
X72898095Y-60340057D02*
X72945714Y-60292438D01*
X72945714Y-60292438D02*
X73040952Y-60244819D01*
X73040952Y-60244819D02*
X73279047Y-60244819D01*
X73279047Y-60244819D02*
X73374285Y-60292438D01*
X73374285Y-60292438D02*
X73421904Y-60340057D01*
X73421904Y-60340057D02*
X73469523Y-60435295D01*
X73469523Y-60435295D02*
X73469523Y-60530533D01*
X73469523Y-60530533D02*
X73421904Y-60673390D01*
X73421904Y-60673390D02*
X72850476Y-61244819D01*
X72850476Y-61244819D02*
X73469523Y-61244819D01*
X73945714Y-61244819D02*
X74136190Y-61244819D01*
X74136190Y-61244819D02*
X74231428Y-61197200D01*
X74231428Y-61197200D02*
X74279047Y-61149580D01*
X74279047Y-61149580D02*
X74374285Y-61006723D01*
X74374285Y-61006723D02*
X74421904Y-60816247D01*
X74421904Y-60816247D02*
X74421904Y-60435295D01*
X74421904Y-60435295D02*
X74374285Y-60340057D01*
X74374285Y-60340057D02*
X74326666Y-60292438D01*
X74326666Y-60292438D02*
X74231428Y-60244819D01*
X74231428Y-60244819D02*
X74040952Y-60244819D01*
X74040952Y-60244819D02*
X73945714Y-60292438D01*
X73945714Y-60292438D02*
X73898095Y-60340057D01*
X73898095Y-60340057D02*
X73850476Y-60435295D01*
X73850476Y-60435295D02*
X73850476Y-60673390D01*
X73850476Y-60673390D02*
X73898095Y-60768628D01*
X73898095Y-60768628D02*
X73945714Y-60816247D01*
X73945714Y-60816247D02*
X74040952Y-60863866D01*
X74040952Y-60863866D02*
X74231428Y-60863866D01*
X74231428Y-60863866D02*
X74326666Y-60816247D01*
X74326666Y-60816247D02*
X74374285Y-60768628D01*
X74374285Y-60768628D02*
X74421904Y-60673390D01*
%TO.C,C1*%
D12*
X5880000Y-43630000D02*
X11120000Y-43630000D01*
X5880000Y-43967000D02*
X5880000Y-43630000D01*
X5880000Y-46370000D02*
X5880000Y-46033000D01*
X11120000Y-43630000D02*
X11120000Y-43967000D01*
X11120000Y-46033000D02*
X11120000Y-46370000D01*
X11120000Y-46370000D02*
X5880000Y-46370000D01*
%TO.C,J3*%
D11*
X3180000Y-31800000D02*
X75560000Y-31800000D01*
X3180000Y-38200000D02*
X3180000Y-31800000D01*
X75560000Y-31800000D02*
X75560000Y-38200000D01*
X75560000Y-38200000D02*
X3180000Y-38200000D01*
%TO.C,J1*%
X2880000Y-1000000D02*
X75860000Y-1000000D01*
X2880000Y-11000000D02*
X2880000Y-1000000D01*
X15240000Y-1000000D02*
X15240000Y-11000000D01*
X75860000Y-1000000D02*
X75860000Y-11000000D01*
X75860000Y-11000000D02*
X2880000Y-11000000D01*
%TD*%
%LPC*%
D13*
%TO.C,C1*%
X6000000Y-45000000D03*
X11000000Y-45000000D03*
%TD*%
D14*
%TO.C,J3*%
X5080000Y-36270000D03*
D15*
X7620000Y-36270000D03*
X10160000Y-36270000D03*
X12700000Y-36270000D03*
X15240000Y-36270000D03*
X17780000Y-36270000D03*
X20320000Y-36270000D03*
X22860000Y-36270000D03*
X25400000Y-36270000D03*
X27940000Y-36270000D03*
X30480000Y-36270000D03*
X33020000Y-36270000D03*
X35560000Y-36270000D03*
X38100000Y-36270000D03*
X40640000Y-36270000D03*
X43180000Y-36270000D03*
X45720000Y-36270000D03*
X48260000Y-36270000D03*
X50800000Y-36270000D03*
X53340000Y-36270000D03*
X55880000Y-36270000D03*
X58420000Y-36270000D03*
X60960000Y-36270000D03*
X63500000Y-36270000D03*
X66040000Y-36270000D03*
X68580000Y-36270000D03*
X71120000Y-36270000D03*
X73660000Y-36270000D03*
X73660000Y-33730000D03*
X71120000Y-33730000D03*
X68580000Y-33730000D03*
X66040000Y-33730000D03*
X63500000Y-33730000D03*
X60960000Y-33730000D03*
X58420000Y-33730000D03*
X55880000Y-33730000D03*
X53340000Y-33730000D03*
X50800000Y-33730000D03*
X48260000Y-33730000D03*
X45720000Y-33730000D03*
X43180000Y-33730000D03*
X40640000Y-33730000D03*
X38100000Y-33730000D03*
X35560000Y-33730000D03*
X33020000Y-33730000D03*
X30480000Y-33730000D03*
X27940000Y-33730000D03*
X25400000Y-33730000D03*
X22860000Y-33730000D03*
X20320000Y-33730000D03*
X17780000Y-33730000D03*
X15240000Y-33730000D03*
X12700000Y-33730000D03*
X10160000Y-33730000D03*
X7620000Y-33730000D03*
X5080000Y-33730000D03*
%TD*%
D16*
%TO.C,J1*%
X5080000Y-3460000D03*
D17*
X7620000Y-3460000D03*
X10160000Y-3460000D03*
X12700000Y-3460000D03*
X17780000Y-3460000D03*
X20320000Y-3460000D03*
X22860000Y-3460000D03*
X25400000Y-3460000D03*
X27940000Y-3460000D03*
X30480000Y-3460000D03*
X33020000Y-3460000D03*
X35560000Y-3460000D03*
X38100000Y-3460000D03*
X40640000Y-3460000D03*
X43180000Y-3460000D03*
X45720000Y-3460000D03*
X48260000Y-3460000D03*
X50800000Y-3460000D03*
X53340000Y-3460000D03*
X55880000Y-3460000D03*
X58420000Y-3460000D03*
X60960000Y-3460000D03*
X63500000Y-3460000D03*
X66040000Y-3460000D03*
X68580000Y-3460000D03*
X71120000Y-3460000D03*
X73660000Y-3460000D03*
X73660000Y-8540000D03*
X71120000Y-8540000D03*
X68580000Y-8540000D03*
X66040000Y-8540000D03*
X63500000Y-8540000D03*
X60960000Y-8540000D03*
X58420000Y-8540000D03*
X55880000Y-8540000D03*
X53340000Y-8540000D03*
X50800000Y-8540000D03*
X48260000Y-8540000D03*
X45720000Y-8540000D03*
X43180000Y-8540000D03*
X40640000Y-8540000D03*
X38100000Y-8540000D03*
X35560000Y-8540000D03*
X33020000Y-8540000D03*
X30480000Y-8540000D03*
X27940000Y-8540000D03*
X25400000Y-8540000D03*
X22860000Y-8540000D03*
X20320000Y-8540000D03*
X17780000Y-8540000D03*
X12700000Y-8540000D03*
X10160000Y-8540000D03*
X7620000Y-8540000D03*
X5080000Y-8540000D03*
%TD*%
D18*
%TO.C,J2*%
X73660000Y-66190000D03*
X71120000Y-66190000D03*
X68580000Y-66190000D03*
X66040000Y-66190000D03*
X63500000Y-66190000D03*
X60960000Y-66190000D03*
X58420000Y-66190000D03*
X55880000Y-66190000D03*
X53340000Y-66190000D03*
X50800000Y-66190000D03*
X48260000Y-66190000D03*
X45720000Y-66190000D03*
X43180000Y-66190000D03*
X40640000Y-66190000D03*
X38100000Y-66190000D03*
X35560000Y-66190000D03*
X33020000Y-66190000D03*
X30480000Y-66190000D03*
X27940000Y-66190000D03*
X25400000Y-66190000D03*
X22860000Y-66190000D03*
X20320000Y-66190000D03*
X17780000Y-66190000D03*
X12700000Y-66190000D03*
X10160000Y-66190000D03*
X7620000Y-66190000D03*
X5080000Y-66190000D03*
%TD*%
%LPD*%
M02*
