%TF.GenerationSoftware,KiCad,Pcbnew,10.0.4*%
%TF.CreationDate,2026-07-26T01:16:43-03:00*%
%TF.ProjectId,tkmem128-expansor,746b6d65-6d31-4323-982d-657870616e73,rev?*%
%TF.SameCoordinates,Original*%
%TF.FileFunction,Legend,Top*%
%TF.FilePolarity,Positive*%
%FSLAX46Y46*%
G04 Gerber Fmt 4.6, Leading zero omitted, Abs format (unit mm)*
G04 Created by KiCad (PCBNEW 10.0.4) date 2026-07-26 01:16:43*
%MOMM*%
%LPD*%
G01*
G04 APERTURE LIST*
%ADD10C,0.150000*%
%ADD11C,0.120000*%
%ADD12C,1.600000*%
%ADD13R,1.524000X7.620000*%
%ADD14R,1.700000X1.700000*%
%ADD15C,1.700000*%
%ADD16R,1.800000X1.800000*%
%ADD17C,1.800000*%
G04 APERTURE END LIST*
D10*
X31870000Y-12908557D02*
X31870000Y-12008557D01*
X31870000Y-12008557D02*
X32212857Y-12008557D01*
X32212857Y-12008557D02*
X32298572Y-12051414D01*
X32298572Y-12051414D02*
X32341429Y-12094271D01*
X32341429Y-12094271D02*
X32384286Y-12179985D01*
X32384286Y-12179985D02*
X32384286Y-12308557D01*
X32384286Y-12308557D02*
X32341429Y-12394271D01*
X32341429Y-12394271D02*
X32298572Y-12437128D01*
X32298572Y-12437128D02*
X32212857Y-12479985D01*
X32212857Y-12479985D02*
X31870000Y-12479985D01*
X33198572Y-12908557D02*
X32770000Y-12908557D01*
X32770000Y-12908557D02*
X32770000Y-12008557D01*
X33455714Y-12651414D02*
X33884286Y-12651414D01*
X33370000Y-12908557D02*
X33670000Y-12008557D01*
X33670000Y-12008557D02*
X33970000Y-12908557D01*
X34784286Y-12822842D02*
X34741429Y-12865700D01*
X34741429Y-12865700D02*
X34612857Y-12908557D01*
X34612857Y-12908557D02*
X34527143Y-12908557D01*
X34527143Y-12908557D02*
X34398572Y-12865700D01*
X34398572Y-12865700D02*
X34312857Y-12779985D01*
X34312857Y-12779985D02*
X34270000Y-12694271D01*
X34270000Y-12694271D02*
X34227143Y-12522842D01*
X34227143Y-12522842D02*
X34227143Y-12394271D01*
X34227143Y-12394271D02*
X34270000Y-12222842D01*
X34270000Y-12222842D02*
X34312857Y-12137128D01*
X34312857Y-12137128D02*
X34398572Y-12051414D01*
X34398572Y-12051414D02*
X34527143Y-12008557D01*
X34527143Y-12008557D02*
X34612857Y-12008557D01*
X34612857Y-12008557D02*
X34741429Y-12051414D01*
X34741429Y-12051414D02*
X34784286Y-12094271D01*
X35127143Y-12651414D02*
X35555715Y-12651414D01*
X35041429Y-12908557D02*
X35341429Y-12008557D01*
X35341429Y-12008557D02*
X35641429Y-12908557D01*
X36627143Y-12908557D02*
X36627143Y-12008557D01*
X36627143Y-12008557D02*
X36970000Y-12008557D01*
X36970000Y-12008557D02*
X37055715Y-12051414D01*
X37055715Y-12051414D02*
X37098572Y-12094271D01*
X37098572Y-12094271D02*
X37141429Y-12179985D01*
X37141429Y-12179985D02*
X37141429Y-12308557D01*
X37141429Y-12308557D02*
X37098572Y-12394271D01*
X37098572Y-12394271D02*
X37055715Y-12437128D01*
X37055715Y-12437128D02*
X36970000Y-12479985D01*
X36970000Y-12479985D02*
X36627143Y-12479985D01*
X38041429Y-12908557D02*
X37741429Y-12479985D01*
X37527143Y-12908557D02*
X37527143Y-12008557D01*
X37527143Y-12008557D02*
X37870000Y-12008557D01*
X37870000Y-12008557D02*
X37955715Y-12051414D01*
X37955715Y-12051414D02*
X37998572Y-12094271D01*
X37998572Y-12094271D02*
X38041429Y-12179985D01*
X38041429Y-12179985D02*
X38041429Y-12308557D01*
X38041429Y-12308557D02*
X37998572Y-12394271D01*
X37998572Y-12394271D02*
X37955715Y-12437128D01*
X37955715Y-12437128D02*
X37870000Y-12479985D01*
X37870000Y-12479985D02*
X37527143Y-12479985D01*
X38427143Y-12908557D02*
X38427143Y-12008557D01*
X38855714Y-12908557D02*
X38855714Y-12008557D01*
X38855714Y-12008557D02*
X39370000Y-12908557D01*
X39370000Y-12908557D02*
X39370000Y-12008557D01*
X40312857Y-12822842D02*
X40270000Y-12865700D01*
X40270000Y-12865700D02*
X40141428Y-12908557D01*
X40141428Y-12908557D02*
X40055714Y-12908557D01*
X40055714Y-12908557D02*
X39927143Y-12865700D01*
X39927143Y-12865700D02*
X39841428Y-12779985D01*
X39841428Y-12779985D02*
X39798571Y-12694271D01*
X39798571Y-12694271D02*
X39755714Y-12522842D01*
X39755714Y-12522842D02*
X39755714Y-12394271D01*
X39755714Y-12394271D02*
X39798571Y-12222842D01*
X39798571Y-12222842D02*
X39841428Y-12137128D01*
X39841428Y-12137128D02*
X39927143Y-12051414D01*
X39927143Y-12051414D02*
X40055714Y-12008557D01*
X40055714Y-12008557D02*
X40141428Y-12008557D01*
X40141428Y-12008557D02*
X40270000Y-12051414D01*
X40270000Y-12051414D02*
X40312857Y-12094271D01*
X40698571Y-12908557D02*
X40698571Y-12008557D01*
X41127142Y-12908557D02*
X41127142Y-12008557D01*
X41127142Y-12008557D02*
X41469999Y-12008557D01*
X41469999Y-12008557D02*
X41555714Y-12051414D01*
X41555714Y-12051414D02*
X41598571Y-12094271D01*
X41598571Y-12094271D02*
X41641428Y-12179985D01*
X41641428Y-12179985D02*
X41641428Y-12308557D01*
X41641428Y-12308557D02*
X41598571Y-12394271D01*
X41598571Y-12394271D02*
X41555714Y-12437128D01*
X41555714Y-12437128D02*
X41469999Y-12479985D01*
X41469999Y-12479985D02*
X41127142Y-12479985D01*
X41984285Y-12651414D02*
X42412857Y-12651414D01*
X41898571Y-12908557D02*
X42198571Y-12008557D01*
X42198571Y-12008557D02*
X42498571Y-12908557D01*
X43227143Y-12908557D02*
X42798571Y-12908557D01*
X42798571Y-12908557D02*
X42798571Y-12008557D01*
X44169999Y-12651414D02*
X44598571Y-12651414D01*
X44084285Y-12908557D02*
X44384285Y-12008557D01*
X44384285Y-12008557D02*
X44684285Y-12908557D01*
X45584285Y-12994271D02*
X45498571Y-12951414D01*
X45498571Y-12951414D02*
X45412857Y-12865700D01*
X45412857Y-12865700D02*
X45284285Y-12737128D01*
X45284285Y-12737128D02*
X45198571Y-12694271D01*
X45198571Y-12694271D02*
X45112857Y-12694271D01*
X45155714Y-12908557D02*
X45070000Y-12865700D01*
X45070000Y-12865700D02*
X44984285Y-12779985D01*
X44984285Y-12779985D02*
X44941428Y-12608557D01*
X44941428Y-12608557D02*
X44941428Y-12308557D01*
X44941428Y-12308557D02*
X44984285Y-12137128D01*
X44984285Y-12137128D02*
X45070000Y-12051414D01*
X45070000Y-12051414D02*
X45155714Y-12008557D01*
X45155714Y-12008557D02*
X45327142Y-12008557D01*
X45327142Y-12008557D02*
X45412857Y-12051414D01*
X45412857Y-12051414D02*
X45498571Y-12137128D01*
X45498571Y-12137128D02*
X45541428Y-12308557D01*
X45541428Y-12308557D02*
X45541428Y-12608557D01*
X45541428Y-12608557D02*
X45498571Y-12779985D01*
X45498571Y-12779985D02*
X45412857Y-12865700D01*
X45412857Y-12865700D02*
X45327142Y-12908557D01*
X45327142Y-12908557D02*
X45155714Y-12908557D01*
X45927142Y-12008557D02*
X45927142Y-12737128D01*
X45927142Y-12737128D02*
X45969999Y-12822842D01*
X45969999Y-12822842D02*
X46012857Y-12865700D01*
X46012857Y-12865700D02*
X46098571Y-12908557D01*
X46098571Y-12908557D02*
X46269999Y-12908557D01*
X46269999Y-12908557D02*
X46355714Y-12865700D01*
X46355714Y-12865700D02*
X46398571Y-12822842D01*
X46398571Y-12822842D02*
X46441428Y-12737128D01*
X46441428Y-12737128D02*
X46441428Y-12008557D01*
X46869999Y-12908557D02*
X46869999Y-12008557D01*
X56171429Y-23508557D02*
X56171429Y-24151414D01*
X56171429Y-24151414D02*
X56128572Y-24279985D01*
X56128572Y-24279985D02*
X56042858Y-24365700D01*
X56042858Y-24365700D02*
X55914286Y-24408557D01*
X55914286Y-24408557D02*
X55828572Y-24408557D01*
X56514286Y-23508557D02*
X57071429Y-23508557D01*
X57071429Y-23508557D02*
X56771429Y-23851414D01*
X56771429Y-23851414D02*
X56900000Y-23851414D01*
X56900000Y-23851414D02*
X56985715Y-23894271D01*
X56985715Y-23894271D02*
X57028572Y-23937128D01*
X57028572Y-23937128D02*
X57071429Y-24022842D01*
X57071429Y-24022842D02*
X57071429Y-24237128D01*
X57071429Y-24237128D02*
X57028572Y-24322842D01*
X57028572Y-24322842D02*
X56985715Y-24365700D01*
X56985715Y-24365700D02*
X56900000Y-24408557D01*
X56900000Y-24408557D02*
X56642857Y-24408557D01*
X56642857Y-24408557D02*
X56557143Y-24365700D01*
X56557143Y-24365700D02*
X56514286Y-24322842D01*
X57457143Y-24322842D02*
X57500000Y-24365700D01*
X57500000Y-24365700D02*
X57457143Y-24408557D01*
X57457143Y-24408557D02*
X57414286Y-24365700D01*
X57414286Y-24365700D02*
X57457143Y-24322842D01*
X57457143Y-24322842D02*
X57457143Y-24408557D01*
X57457143Y-23851414D02*
X57500000Y-23894271D01*
X57500000Y-23894271D02*
X57457143Y-23937128D01*
X57457143Y-23937128D02*
X57414286Y-23894271D01*
X57414286Y-23894271D02*
X57457143Y-23851414D01*
X57457143Y-23851414D02*
X57457143Y-23937128D01*
X59000000Y-23508557D02*
X58571428Y-23508557D01*
X58571428Y-23508557D02*
X58528571Y-23937128D01*
X58528571Y-23937128D02*
X58571428Y-23894271D01*
X58571428Y-23894271D02*
X58657143Y-23851414D01*
X58657143Y-23851414D02*
X58871428Y-23851414D01*
X58871428Y-23851414D02*
X58957143Y-23894271D01*
X58957143Y-23894271D02*
X59000000Y-23937128D01*
X59000000Y-23937128D02*
X59042857Y-24022842D01*
X59042857Y-24022842D02*
X59042857Y-24237128D01*
X59042857Y-24237128D02*
X59000000Y-24322842D01*
X59000000Y-24322842D02*
X58957143Y-24365700D01*
X58957143Y-24365700D02*
X58871428Y-24408557D01*
X58871428Y-24408557D02*
X58657143Y-24408557D01*
X58657143Y-24408557D02*
X58571428Y-24365700D01*
X58571428Y-24365700D02*
X58528571Y-24322842D01*
X60457142Y-24365700D02*
X60371428Y-24408557D01*
X60371428Y-24408557D02*
X60200000Y-24408557D01*
X60200000Y-24408557D02*
X60114285Y-24365700D01*
X60114285Y-24365700D02*
X60071428Y-24279985D01*
X60071428Y-24279985D02*
X60071428Y-23937128D01*
X60071428Y-23937128D02*
X60114285Y-23851414D01*
X60114285Y-23851414D02*
X60200000Y-23808557D01*
X60200000Y-23808557D02*
X60371428Y-23808557D01*
X60371428Y-23808557D02*
X60457142Y-23851414D01*
X60457142Y-23851414D02*
X60500000Y-23937128D01*
X60500000Y-23937128D02*
X60500000Y-24022842D01*
X60500000Y-24022842D02*
X60071428Y-24108557D01*
X62000000Y-23508557D02*
X61571428Y-23508557D01*
X61571428Y-23508557D02*
X61528571Y-23937128D01*
X61528571Y-23937128D02*
X61571428Y-23894271D01*
X61571428Y-23894271D02*
X61657143Y-23851414D01*
X61657143Y-23851414D02*
X61871428Y-23851414D01*
X61871428Y-23851414D02*
X61957143Y-23894271D01*
X61957143Y-23894271D02*
X62000000Y-23937128D01*
X62000000Y-23937128D02*
X62042857Y-24022842D01*
X62042857Y-24022842D02*
X62042857Y-24237128D01*
X62042857Y-24237128D02*
X62000000Y-24322842D01*
X62000000Y-24322842D02*
X61957143Y-24365700D01*
X61957143Y-24365700D02*
X61871428Y-24408557D01*
X61871428Y-24408557D02*
X61657143Y-24408557D01*
X61657143Y-24408557D02*
X61571428Y-24365700D01*
X61571428Y-24365700D02*
X61528571Y-24322842D01*
X62385714Y-23594271D02*
X62428571Y-23551414D01*
X62428571Y-23551414D02*
X62514286Y-23508557D01*
X62514286Y-23508557D02*
X62728571Y-23508557D01*
X62728571Y-23508557D02*
X62814286Y-23551414D01*
X62814286Y-23551414D02*
X62857143Y-23594271D01*
X62857143Y-23594271D02*
X62900000Y-23679985D01*
X62900000Y-23679985D02*
X62900000Y-23765700D01*
X62900000Y-23765700D02*
X62857143Y-23894271D01*
X62857143Y-23894271D02*
X62342857Y-24408557D01*
X62342857Y-24408557D02*
X62900000Y-24408557D01*
X63971428Y-23937128D02*
X64657143Y-23937128D01*
X64657143Y-24194271D02*
X63971428Y-24194271D01*
X66242857Y-23551414D02*
X66157143Y-23508557D01*
X66157143Y-23508557D02*
X66028571Y-23508557D01*
X66028571Y-23508557D02*
X65900000Y-23551414D01*
X65900000Y-23551414D02*
X65814285Y-23637128D01*
X65814285Y-23637128D02*
X65771428Y-23722842D01*
X65771428Y-23722842D02*
X65728571Y-23894271D01*
X65728571Y-23894271D02*
X65728571Y-24022842D01*
X65728571Y-24022842D02*
X65771428Y-24194271D01*
X65771428Y-24194271D02*
X65814285Y-24279985D01*
X65814285Y-24279985D02*
X65900000Y-24365700D01*
X65900000Y-24365700D02*
X66028571Y-24408557D01*
X66028571Y-24408557D02*
X66114285Y-24408557D01*
X66114285Y-24408557D02*
X66242857Y-24365700D01*
X66242857Y-24365700D02*
X66285714Y-24322842D01*
X66285714Y-24322842D02*
X66285714Y-24022842D01*
X66285714Y-24022842D02*
X66114285Y-24022842D01*
X66671428Y-24408557D02*
X66671428Y-23508557D01*
X66671428Y-23508557D02*
X67185714Y-24408557D01*
X67185714Y-24408557D02*
X67185714Y-23508557D01*
X67614285Y-24408557D02*
X67614285Y-23508557D01*
X67614285Y-23508557D02*
X67828571Y-23508557D01*
X67828571Y-23508557D02*
X67957142Y-23551414D01*
X67957142Y-23551414D02*
X68042857Y-23637128D01*
X68042857Y-23637128D02*
X68085714Y-23722842D01*
X68085714Y-23722842D02*
X68128571Y-23894271D01*
X68128571Y-23894271D02*
X68128571Y-24022842D01*
X68128571Y-24022842D02*
X68085714Y-24194271D01*
X68085714Y-24194271D02*
X68042857Y-24279985D01*
X68042857Y-24279985D02*
X67957142Y-24365700D01*
X67957142Y-24365700D02*
X67828571Y-24408557D01*
X67828571Y-24408557D02*
X67614285Y-24408557D01*
X34036666Y-29454819D02*
X34608094Y-29454819D01*
X34322380Y-30454819D02*
X34322380Y-29454819D01*
X34941428Y-30454819D02*
X34941428Y-29454819D01*
X35512856Y-30454819D02*
X35084285Y-29883390D01*
X35512856Y-29454819D02*
X34941428Y-30026247D01*
X35989047Y-30454819D02*
X36179523Y-30454819D01*
X36179523Y-30454819D02*
X36274761Y-30407200D01*
X36274761Y-30407200D02*
X36322380Y-30359580D01*
X36322380Y-30359580D02*
X36417618Y-30216723D01*
X36417618Y-30216723D02*
X36465237Y-30026247D01*
X36465237Y-30026247D02*
X36465237Y-29645295D01*
X36465237Y-29645295D02*
X36417618Y-29550057D01*
X36417618Y-29550057D02*
X36369999Y-29502438D01*
X36369999Y-29502438D02*
X36274761Y-29454819D01*
X36274761Y-29454819D02*
X36084285Y-29454819D01*
X36084285Y-29454819D02*
X35989047Y-29502438D01*
X35989047Y-29502438D02*
X35941428Y-29550057D01*
X35941428Y-29550057D02*
X35893809Y-29645295D01*
X35893809Y-29645295D02*
X35893809Y-29883390D01*
X35893809Y-29883390D02*
X35941428Y-29978628D01*
X35941428Y-29978628D02*
X35989047Y-30026247D01*
X35989047Y-30026247D02*
X36084285Y-30073866D01*
X36084285Y-30073866D02*
X36274761Y-30073866D01*
X36274761Y-30073866D02*
X36369999Y-30026247D01*
X36369999Y-30026247D02*
X36417618Y-29978628D01*
X36417618Y-29978628D02*
X36465237Y-29883390D01*
X37084285Y-29454819D02*
X37179523Y-29454819D01*
X37179523Y-29454819D02*
X37274761Y-29502438D01*
X37274761Y-29502438D02*
X37322380Y-29550057D01*
X37322380Y-29550057D02*
X37369999Y-29645295D01*
X37369999Y-29645295D02*
X37417618Y-29835771D01*
X37417618Y-29835771D02*
X37417618Y-30073866D01*
X37417618Y-30073866D02*
X37369999Y-30264342D01*
X37369999Y-30264342D02*
X37322380Y-30359580D01*
X37322380Y-30359580D02*
X37274761Y-30407200D01*
X37274761Y-30407200D02*
X37179523Y-30454819D01*
X37179523Y-30454819D02*
X37084285Y-30454819D01*
X37084285Y-30454819D02*
X36989047Y-30407200D01*
X36989047Y-30407200D02*
X36941428Y-30359580D01*
X36941428Y-30359580D02*
X36893809Y-30264342D01*
X36893809Y-30264342D02*
X36846190Y-30073866D01*
X36846190Y-30073866D02*
X36846190Y-29835771D01*
X36846190Y-29835771D02*
X36893809Y-29645295D01*
X36893809Y-29645295D02*
X36941428Y-29550057D01*
X36941428Y-29550057D02*
X36989047Y-29502438D01*
X36989047Y-29502438D02*
X37084285Y-29454819D01*
X37750952Y-29454819D02*
X38417618Y-30454819D01*
X38417618Y-29454819D02*
X37750952Y-30454819D01*
X40274761Y-29407200D02*
X39417619Y-30692914D01*
X41227143Y-29454819D02*
X41798571Y-29454819D01*
X41512857Y-30454819D02*
X41512857Y-29454819D01*
X42131905Y-30454819D02*
X42131905Y-29454819D01*
X42703333Y-30454819D02*
X42274762Y-29883390D01*
X42703333Y-29454819D02*
X42131905Y-30026247D01*
X43179524Y-30454819D02*
X43370000Y-30454819D01*
X43370000Y-30454819D02*
X43465238Y-30407200D01*
X43465238Y-30407200D02*
X43512857Y-30359580D01*
X43512857Y-30359580D02*
X43608095Y-30216723D01*
X43608095Y-30216723D02*
X43655714Y-30026247D01*
X43655714Y-30026247D02*
X43655714Y-29645295D01*
X43655714Y-29645295D02*
X43608095Y-29550057D01*
X43608095Y-29550057D02*
X43560476Y-29502438D01*
X43560476Y-29502438D02*
X43465238Y-29454819D01*
X43465238Y-29454819D02*
X43274762Y-29454819D01*
X43274762Y-29454819D02*
X43179524Y-29502438D01*
X43179524Y-29502438D02*
X43131905Y-29550057D01*
X43131905Y-29550057D02*
X43084286Y-29645295D01*
X43084286Y-29645295D02*
X43084286Y-29883390D01*
X43084286Y-29883390D02*
X43131905Y-29978628D01*
X43131905Y-29978628D02*
X43179524Y-30026247D01*
X43179524Y-30026247D02*
X43274762Y-30073866D01*
X43274762Y-30073866D02*
X43465238Y-30073866D01*
X43465238Y-30073866D02*
X43560476Y-30026247D01*
X43560476Y-30026247D02*
X43608095Y-29978628D01*
X43608095Y-29978628D02*
X43655714Y-29883390D01*
X44560476Y-29454819D02*
X44084286Y-29454819D01*
X44084286Y-29454819D02*
X44036667Y-29931009D01*
X44036667Y-29931009D02*
X44084286Y-29883390D01*
X44084286Y-29883390D02*
X44179524Y-29835771D01*
X44179524Y-29835771D02*
X44417619Y-29835771D01*
X44417619Y-29835771D02*
X44512857Y-29883390D01*
X44512857Y-29883390D02*
X44560476Y-29931009D01*
X44560476Y-29931009D02*
X44608095Y-30026247D01*
X44608095Y-30026247D02*
X44608095Y-30264342D01*
X44608095Y-30264342D02*
X44560476Y-30359580D01*
X44560476Y-30359580D02*
X44512857Y-30407200D01*
X44512857Y-30407200D02*
X44417619Y-30454819D01*
X44417619Y-30454819D02*
X44179524Y-30454819D01*
X44179524Y-30454819D02*
X44084286Y-30407200D01*
X44084286Y-30407200D02*
X44036667Y-30359580D01*
X54785714Y-33454819D02*
X54785714Y-32454819D01*
X54785714Y-32454819D02*
X55166666Y-32454819D01*
X55166666Y-32454819D02*
X55261904Y-32502438D01*
X55261904Y-32502438D02*
X55309523Y-32550057D01*
X55309523Y-32550057D02*
X55357142Y-32645295D01*
X55357142Y-32645295D02*
X55357142Y-32788152D01*
X55357142Y-32788152D02*
X55309523Y-32883390D01*
X55309523Y-32883390D02*
X55261904Y-32931009D01*
X55261904Y-32931009D02*
X55166666Y-32978628D01*
X55166666Y-32978628D02*
X54785714Y-32978628D01*
X55738095Y-33169104D02*
X56214285Y-33169104D01*
X55642857Y-33454819D02*
X55976190Y-32454819D01*
X55976190Y-32454819D02*
X56309523Y-33454819D01*
X56595238Y-33407200D02*
X56738095Y-33454819D01*
X56738095Y-33454819D02*
X56976190Y-33454819D01*
X56976190Y-33454819D02*
X57071428Y-33407200D01*
X57071428Y-33407200D02*
X57119047Y-33359580D01*
X57119047Y-33359580D02*
X57166666Y-33264342D01*
X57166666Y-33264342D02*
X57166666Y-33169104D01*
X57166666Y-33169104D02*
X57119047Y-33073866D01*
X57119047Y-33073866D02*
X57071428Y-33026247D01*
X57071428Y-33026247D02*
X56976190Y-32978628D01*
X56976190Y-32978628D02*
X56785714Y-32931009D01*
X56785714Y-32931009D02*
X56690476Y-32883390D01*
X56690476Y-32883390D02*
X56642857Y-32835771D01*
X56642857Y-32835771D02*
X56595238Y-32740533D01*
X56595238Y-32740533D02*
X56595238Y-32645295D01*
X56595238Y-32645295D02*
X56642857Y-32550057D01*
X56642857Y-32550057D02*
X56690476Y-32502438D01*
X56690476Y-32502438D02*
X56785714Y-32454819D01*
X56785714Y-32454819D02*
X57023809Y-32454819D01*
X57023809Y-32454819D02*
X57166666Y-32502438D01*
X57547619Y-33407200D02*
X57690476Y-33454819D01*
X57690476Y-33454819D02*
X57928571Y-33454819D01*
X57928571Y-33454819D02*
X58023809Y-33407200D01*
X58023809Y-33407200D02*
X58071428Y-33359580D01*
X58071428Y-33359580D02*
X58119047Y-33264342D01*
X58119047Y-33264342D02*
X58119047Y-33169104D01*
X58119047Y-33169104D02*
X58071428Y-33073866D01*
X58071428Y-33073866D02*
X58023809Y-33026247D01*
X58023809Y-33026247D02*
X57928571Y-32978628D01*
X57928571Y-32978628D02*
X57738095Y-32931009D01*
X57738095Y-32931009D02*
X57642857Y-32883390D01*
X57642857Y-32883390D02*
X57595238Y-32835771D01*
X57595238Y-32835771D02*
X57547619Y-32740533D01*
X57547619Y-32740533D02*
X57547619Y-32645295D01*
X57547619Y-32645295D02*
X57595238Y-32550057D01*
X57595238Y-32550057D02*
X57642857Y-32502438D01*
X57642857Y-32502438D02*
X57738095Y-32454819D01*
X57738095Y-32454819D02*
X57976190Y-32454819D01*
X57976190Y-32454819D02*
X58119047Y-32502438D01*
X58500000Y-33169104D02*
X58976190Y-33169104D01*
X58404762Y-33454819D02*
X58738095Y-32454819D01*
X58738095Y-32454819D02*
X59071428Y-33454819D01*
X59928571Y-32502438D02*
X59833333Y-32454819D01*
X59833333Y-32454819D02*
X59690476Y-32454819D01*
X59690476Y-32454819D02*
X59547619Y-32502438D01*
X59547619Y-32502438D02*
X59452381Y-32597676D01*
X59452381Y-32597676D02*
X59404762Y-32692914D01*
X59404762Y-32692914D02*
X59357143Y-32883390D01*
X59357143Y-32883390D02*
X59357143Y-33026247D01*
X59357143Y-33026247D02*
X59404762Y-33216723D01*
X59404762Y-33216723D02*
X59452381Y-33311961D01*
X59452381Y-33311961D02*
X59547619Y-33407200D01*
X59547619Y-33407200D02*
X59690476Y-33454819D01*
X59690476Y-33454819D02*
X59785714Y-33454819D01*
X59785714Y-33454819D02*
X59928571Y-33407200D01*
X59928571Y-33407200D02*
X59976190Y-33359580D01*
X59976190Y-33359580D02*
X59976190Y-33026247D01*
X59976190Y-33026247D02*
X59785714Y-33026247D01*
X60404762Y-32931009D02*
X60738095Y-32931009D01*
X60880952Y-33454819D02*
X60404762Y-33454819D01*
X60404762Y-33454819D02*
X60404762Y-32454819D01*
X60404762Y-32454819D02*
X60880952Y-32454819D01*
X61309524Y-33454819D02*
X61309524Y-32454819D01*
X61309524Y-32454819D02*
X61642857Y-33169104D01*
X61642857Y-33169104D02*
X61976190Y-32454819D01*
X61976190Y-32454819D02*
X61976190Y-33454819D01*
X63214286Y-33073866D02*
X63976191Y-33073866D01*
X64452381Y-32788152D02*
X65214286Y-33073866D01*
X65214286Y-33073866D02*
X64452381Y-33359580D01*
X22136667Y-26901080D02*
X22765239Y-26901080D01*
X22450953Y-28001080D02*
X22450953Y-26901080D01*
X23131905Y-28001080D02*
X23131905Y-26901080D01*
X23760477Y-28001080D02*
X23289048Y-27372509D01*
X23760477Y-26901080D02*
X23131905Y-27529652D01*
X24231905Y-28001080D02*
X24231905Y-26901080D01*
X24231905Y-26901080D02*
X24598572Y-27686795D01*
X24598572Y-27686795D02*
X24965239Y-26901080D01*
X24965239Y-26901080D02*
X24965239Y-28001080D01*
X25489048Y-27424890D02*
X25855715Y-27424890D01*
X26012858Y-28001080D02*
X25489048Y-28001080D01*
X25489048Y-28001080D02*
X25489048Y-26901080D01*
X25489048Y-26901080D02*
X26012858Y-26901080D01*
X26484286Y-28001080D02*
X26484286Y-26901080D01*
X26484286Y-26901080D02*
X26850953Y-27686795D01*
X26850953Y-27686795D02*
X27217620Y-26901080D01*
X27217620Y-26901080D02*
X27217620Y-28001080D01*
X27741429Y-27582033D02*
X28579525Y-27582033D01*
X29679525Y-28001080D02*
X29050953Y-28001080D01*
X29365239Y-28001080D02*
X29365239Y-26901080D01*
X29365239Y-26901080D02*
X29260477Y-27058223D01*
X29260477Y-27058223D02*
X29155715Y-27162985D01*
X29155715Y-27162985D02*
X29050953Y-27215366D01*
X30098572Y-27005842D02*
X30150953Y-26953461D01*
X30150953Y-26953461D02*
X30255715Y-26901080D01*
X30255715Y-26901080D02*
X30517620Y-26901080D01*
X30517620Y-26901080D02*
X30622382Y-26953461D01*
X30622382Y-26953461D02*
X30674763Y-27005842D01*
X30674763Y-27005842D02*
X30727144Y-27110604D01*
X30727144Y-27110604D02*
X30727144Y-27215366D01*
X30727144Y-27215366D02*
X30674763Y-27372509D01*
X30674763Y-27372509D02*
X30046191Y-28001080D01*
X30046191Y-28001080D02*
X30727144Y-28001080D01*
X31355715Y-27372509D02*
X31250953Y-27320128D01*
X31250953Y-27320128D02*
X31198572Y-27267747D01*
X31198572Y-27267747D02*
X31146191Y-27162985D01*
X31146191Y-27162985D02*
X31146191Y-27110604D01*
X31146191Y-27110604D02*
X31198572Y-27005842D01*
X31198572Y-27005842D02*
X31250953Y-26953461D01*
X31250953Y-26953461D02*
X31355715Y-26901080D01*
X31355715Y-26901080D02*
X31565239Y-26901080D01*
X31565239Y-26901080D02*
X31670001Y-26953461D01*
X31670001Y-26953461D02*
X31722382Y-27005842D01*
X31722382Y-27005842D02*
X31774763Y-27110604D01*
X31774763Y-27110604D02*
X31774763Y-27162985D01*
X31774763Y-27162985D02*
X31722382Y-27267747D01*
X31722382Y-27267747D02*
X31670001Y-27320128D01*
X31670001Y-27320128D02*
X31565239Y-27372509D01*
X31565239Y-27372509D02*
X31355715Y-27372509D01*
X31355715Y-27372509D02*
X31250953Y-27424890D01*
X31250953Y-27424890D02*
X31198572Y-27477271D01*
X31198572Y-27477271D02*
X31146191Y-27582033D01*
X31146191Y-27582033D02*
X31146191Y-27791557D01*
X31146191Y-27791557D02*
X31198572Y-27896319D01*
X31198572Y-27896319D02*
X31250953Y-27948700D01*
X31250953Y-27948700D02*
X31355715Y-28001080D01*
X31355715Y-28001080D02*
X31565239Y-28001080D01*
X31565239Y-28001080D02*
X31670001Y-27948700D01*
X31670001Y-27948700D02*
X31722382Y-27896319D01*
X31722382Y-27896319D02*
X31774763Y-27791557D01*
X31774763Y-27791557D02*
X31774763Y-27582033D01*
X31774763Y-27582033D02*
X31722382Y-27477271D01*
X31722382Y-27477271D02*
X31670001Y-27424890D01*
X31670001Y-27424890D02*
X31565239Y-27372509D01*
X33922381Y-27424890D02*
X34289048Y-27424890D01*
X34446191Y-28001080D02*
X33922381Y-28001080D01*
X33922381Y-28001080D02*
X33922381Y-26901080D01*
X33922381Y-26901080D02*
X34446191Y-26901080D01*
X34812857Y-26901080D02*
X35546191Y-28001080D01*
X35546191Y-26901080D02*
X34812857Y-28001080D01*
X35965238Y-28001080D02*
X35965238Y-26901080D01*
X35965238Y-26901080D02*
X36384286Y-26901080D01*
X36384286Y-26901080D02*
X36489048Y-26953461D01*
X36489048Y-26953461D02*
X36541429Y-27005842D01*
X36541429Y-27005842D02*
X36593810Y-27110604D01*
X36593810Y-27110604D02*
X36593810Y-27267747D01*
X36593810Y-27267747D02*
X36541429Y-27372509D01*
X36541429Y-27372509D02*
X36489048Y-27424890D01*
X36489048Y-27424890D02*
X36384286Y-27477271D01*
X36384286Y-27477271D02*
X35965238Y-27477271D01*
X37012857Y-27686795D02*
X37536667Y-27686795D01*
X36908095Y-28001080D02*
X37274762Y-26901080D01*
X37274762Y-26901080D02*
X37641429Y-28001080D01*
X38008095Y-28001080D02*
X38008095Y-26901080D01*
X38008095Y-26901080D02*
X38636667Y-28001080D01*
X38636667Y-28001080D02*
X38636667Y-26901080D01*
X39108095Y-27948700D02*
X39265238Y-28001080D01*
X39265238Y-28001080D02*
X39527143Y-28001080D01*
X39527143Y-28001080D02*
X39631905Y-27948700D01*
X39631905Y-27948700D02*
X39684286Y-27896319D01*
X39684286Y-27896319D02*
X39736667Y-27791557D01*
X39736667Y-27791557D02*
X39736667Y-27686795D01*
X39736667Y-27686795D02*
X39684286Y-27582033D01*
X39684286Y-27582033D02*
X39631905Y-27529652D01*
X39631905Y-27529652D02*
X39527143Y-27477271D01*
X39527143Y-27477271D02*
X39317619Y-27424890D01*
X39317619Y-27424890D02*
X39212857Y-27372509D01*
X39212857Y-27372509D02*
X39160476Y-27320128D01*
X39160476Y-27320128D02*
X39108095Y-27215366D01*
X39108095Y-27215366D02*
X39108095Y-27110604D01*
X39108095Y-27110604D02*
X39160476Y-27005842D01*
X39160476Y-27005842D02*
X39212857Y-26953461D01*
X39212857Y-26953461D02*
X39317619Y-26901080D01*
X39317619Y-26901080D02*
X39579524Y-26901080D01*
X39579524Y-26901080D02*
X39736667Y-26953461D01*
X40417619Y-26901080D02*
X40627143Y-26901080D01*
X40627143Y-26901080D02*
X40731905Y-26953461D01*
X40731905Y-26953461D02*
X40836667Y-27058223D01*
X40836667Y-27058223D02*
X40889048Y-27267747D01*
X40889048Y-27267747D02*
X40889048Y-27634414D01*
X40889048Y-27634414D02*
X40836667Y-27843938D01*
X40836667Y-27843938D02*
X40731905Y-27948700D01*
X40731905Y-27948700D02*
X40627143Y-28001080D01*
X40627143Y-28001080D02*
X40417619Y-28001080D01*
X40417619Y-28001080D02*
X40312857Y-27948700D01*
X40312857Y-27948700D02*
X40208095Y-27843938D01*
X40208095Y-27843938D02*
X40155714Y-27634414D01*
X40155714Y-27634414D02*
X40155714Y-27267747D01*
X40155714Y-27267747D02*
X40208095Y-27058223D01*
X40208095Y-27058223D02*
X40312857Y-26953461D01*
X40312857Y-26953461D02*
X40417619Y-26901080D01*
X41989048Y-28001080D02*
X41622381Y-27477271D01*
X41360476Y-28001080D02*
X41360476Y-26901080D01*
X41360476Y-26901080D02*
X41779524Y-26901080D01*
X41779524Y-26901080D02*
X41884286Y-26953461D01*
X41884286Y-26953461D02*
X41936667Y-27005842D01*
X41936667Y-27005842D02*
X41989048Y-27110604D01*
X41989048Y-27110604D02*
X41989048Y-27267747D01*
X41989048Y-27267747D02*
X41936667Y-27372509D01*
X41936667Y-27372509D02*
X41884286Y-27424890D01*
X41884286Y-27424890D02*
X41779524Y-27477271D01*
X41779524Y-27477271D02*
X41360476Y-27477271D01*
X43298571Y-28001080D02*
X43298571Y-26901080D01*
X43298571Y-26901080D02*
X43560476Y-26901080D01*
X43560476Y-26901080D02*
X43717619Y-26953461D01*
X43717619Y-26953461D02*
X43822381Y-27058223D01*
X43822381Y-27058223D02*
X43874762Y-27162985D01*
X43874762Y-27162985D02*
X43927143Y-27372509D01*
X43927143Y-27372509D02*
X43927143Y-27529652D01*
X43927143Y-27529652D02*
X43874762Y-27739176D01*
X43874762Y-27739176D02*
X43822381Y-27843938D01*
X43822381Y-27843938D02*
X43717619Y-27948700D01*
X43717619Y-27948700D02*
X43560476Y-28001080D01*
X43560476Y-28001080D02*
X43298571Y-28001080D01*
X44608095Y-26901080D02*
X44817619Y-26901080D01*
X44817619Y-26901080D02*
X44922381Y-26953461D01*
X44922381Y-26953461D02*
X45027143Y-27058223D01*
X45027143Y-27058223D02*
X45079524Y-27267747D01*
X45079524Y-27267747D02*
X45079524Y-27634414D01*
X45079524Y-27634414D02*
X45027143Y-27843938D01*
X45027143Y-27843938D02*
X44922381Y-27948700D01*
X44922381Y-27948700D02*
X44817619Y-28001080D01*
X44817619Y-28001080D02*
X44608095Y-28001080D01*
X44608095Y-28001080D02*
X44503333Y-27948700D01*
X44503333Y-27948700D02*
X44398571Y-27843938D01*
X44398571Y-27843938D02*
X44346190Y-27634414D01*
X44346190Y-27634414D02*
X44346190Y-27267747D01*
X44346190Y-27267747D02*
X44398571Y-27058223D01*
X44398571Y-27058223D02*
X44503333Y-26953461D01*
X44503333Y-26953461D02*
X44608095Y-26901080D01*
X46755714Y-27424890D02*
X46912857Y-27477271D01*
X46912857Y-27477271D02*
X46965238Y-27529652D01*
X46965238Y-27529652D02*
X47017619Y-27634414D01*
X47017619Y-27634414D02*
X47017619Y-27791557D01*
X47017619Y-27791557D02*
X46965238Y-27896319D01*
X46965238Y-27896319D02*
X46912857Y-27948700D01*
X46912857Y-27948700D02*
X46808095Y-28001080D01*
X46808095Y-28001080D02*
X46389047Y-28001080D01*
X46389047Y-28001080D02*
X46389047Y-26901080D01*
X46389047Y-26901080D02*
X46755714Y-26901080D01*
X46755714Y-26901080D02*
X46860476Y-26953461D01*
X46860476Y-26953461D02*
X46912857Y-27005842D01*
X46912857Y-27005842D02*
X46965238Y-27110604D01*
X46965238Y-27110604D02*
X46965238Y-27215366D01*
X46965238Y-27215366D02*
X46912857Y-27320128D01*
X46912857Y-27320128D02*
X46860476Y-27372509D01*
X46860476Y-27372509D02*
X46755714Y-27424890D01*
X46755714Y-27424890D02*
X46389047Y-27424890D01*
X47436666Y-27686795D02*
X47960476Y-27686795D01*
X47331904Y-28001080D02*
X47698571Y-26901080D01*
X47698571Y-26901080D02*
X48065238Y-28001080D01*
X49060476Y-28001080D02*
X48693809Y-27477271D01*
X48431904Y-28001080D02*
X48431904Y-26901080D01*
X48431904Y-26901080D02*
X48850952Y-26901080D01*
X48850952Y-26901080D02*
X48955714Y-26953461D01*
X48955714Y-26953461D02*
X49008095Y-27005842D01*
X49008095Y-27005842D02*
X49060476Y-27110604D01*
X49060476Y-27110604D02*
X49060476Y-27267747D01*
X49060476Y-27267747D02*
X49008095Y-27372509D01*
X49008095Y-27372509D02*
X48955714Y-27424890D01*
X48955714Y-27424890D02*
X48850952Y-27477271D01*
X48850952Y-27477271D02*
X48431904Y-27477271D01*
X50160476Y-28001080D02*
X49793809Y-27477271D01*
X49531904Y-28001080D02*
X49531904Y-26901080D01*
X49531904Y-26901080D02*
X49950952Y-26901080D01*
X49950952Y-26901080D02*
X50055714Y-26953461D01*
X50055714Y-26953461D02*
X50108095Y-27005842D01*
X50108095Y-27005842D02*
X50160476Y-27110604D01*
X50160476Y-27110604D02*
X50160476Y-27267747D01*
X50160476Y-27267747D02*
X50108095Y-27372509D01*
X50108095Y-27372509D02*
X50055714Y-27424890D01*
X50055714Y-27424890D02*
X49950952Y-27477271D01*
X49950952Y-27477271D02*
X49531904Y-27477271D01*
X50579523Y-27686795D02*
X51103333Y-27686795D01*
X50474761Y-28001080D02*
X50841428Y-26901080D01*
X50841428Y-26901080D02*
X51208095Y-28001080D01*
X51574761Y-28001080D02*
X51574761Y-26901080D01*
X51574761Y-26901080D02*
X51941428Y-27686795D01*
X51941428Y-27686795D02*
X52308095Y-26901080D01*
X52308095Y-26901080D02*
X52308095Y-28001080D01*
X52831904Y-27424890D02*
X53198571Y-27424890D01*
X53355714Y-28001080D02*
X52831904Y-28001080D01*
X52831904Y-28001080D02*
X52831904Y-26901080D01*
X52831904Y-26901080D02*
X53355714Y-26901080D01*
X53827142Y-28001080D02*
X53827142Y-26901080D01*
X53827142Y-26901080D02*
X54455714Y-28001080D01*
X54455714Y-28001080D02*
X54455714Y-26901080D01*
X54822380Y-26901080D02*
X55450952Y-26901080D01*
X55136666Y-28001080D02*
X55136666Y-26901080D01*
X56027142Y-26901080D02*
X56236666Y-26901080D01*
X56236666Y-26901080D02*
X56341428Y-26953461D01*
X56341428Y-26953461D02*
X56446190Y-27058223D01*
X56446190Y-27058223D02*
X56498571Y-27267747D01*
X56498571Y-27267747D02*
X56498571Y-27634414D01*
X56498571Y-27634414D02*
X56446190Y-27843938D01*
X56446190Y-27843938D02*
X56341428Y-27948700D01*
X56341428Y-27948700D02*
X56236666Y-28001080D01*
X56236666Y-28001080D02*
X56027142Y-28001080D01*
X56027142Y-28001080D02*
X55922380Y-27948700D01*
X55922380Y-27948700D02*
X55817618Y-27843938D01*
X55817618Y-27843938D02*
X55765237Y-27634414D01*
X55765237Y-27634414D02*
X55765237Y-27267747D01*
X55765237Y-27267747D02*
X55817618Y-27058223D01*
X55817618Y-27058223D02*
X55922380Y-26953461D01*
X55922380Y-26953461D02*
X56027142Y-26901080D01*
X8333333Y-32359580D02*
X8285714Y-32407200D01*
X8285714Y-32407200D02*
X8142857Y-32454819D01*
X8142857Y-32454819D02*
X8047619Y-32454819D01*
X8047619Y-32454819D02*
X7904762Y-32407200D01*
X7904762Y-32407200D02*
X7809524Y-32311961D01*
X7809524Y-32311961D02*
X7761905Y-32216723D01*
X7761905Y-32216723D02*
X7714286Y-32026247D01*
X7714286Y-32026247D02*
X7714286Y-31883390D01*
X7714286Y-31883390D02*
X7761905Y-31692914D01*
X7761905Y-31692914D02*
X7809524Y-31597676D01*
X7809524Y-31597676D02*
X7904762Y-31502438D01*
X7904762Y-31502438D02*
X8047619Y-31454819D01*
X8047619Y-31454819D02*
X8142857Y-31454819D01*
X8142857Y-31454819D02*
X8285714Y-31502438D01*
X8285714Y-31502438D02*
X8333333Y-31550057D01*
X9285714Y-32454819D02*
X8714286Y-32454819D01*
X9000000Y-32454819D02*
X9000000Y-31454819D01*
X9000000Y-31454819D02*
X8904762Y-31597676D01*
X8904762Y-31597676D02*
X8809524Y-31692914D01*
X8809524Y-31692914D02*
X8714286Y-31740533D01*
X39036666Y-34144819D02*
X39036666Y-34859104D01*
X39036666Y-34859104D02*
X38989047Y-35001961D01*
X38989047Y-35001961D02*
X38893809Y-35097200D01*
X38893809Y-35097200D02*
X38750952Y-35144819D01*
X38750952Y-35144819D02*
X38655714Y-35144819D01*
X39465238Y-34240057D02*
X39512857Y-34192438D01*
X39512857Y-34192438D02*
X39608095Y-34144819D01*
X39608095Y-34144819D02*
X39846190Y-34144819D01*
X39846190Y-34144819D02*
X39941428Y-34192438D01*
X39941428Y-34192438D02*
X39989047Y-34240057D01*
X39989047Y-34240057D02*
X40036666Y-34335295D01*
X40036666Y-34335295D02*
X40036666Y-34430533D01*
X40036666Y-34430533D02*
X39989047Y-34573390D01*
X39989047Y-34573390D02*
X39417619Y-35144819D01*
X39417619Y-35144819D02*
X40036666Y-35144819D01*
X4841904Y-35244819D02*
X4365714Y-35244819D01*
X4365714Y-35244819D02*
X4318095Y-35721009D01*
X4318095Y-35721009D02*
X4365714Y-35673390D01*
X4365714Y-35673390D02*
X4460952Y-35625771D01*
X4460952Y-35625771D02*
X4699047Y-35625771D01*
X4699047Y-35625771D02*
X4794285Y-35673390D01*
X4794285Y-35673390D02*
X4841904Y-35721009D01*
X4841904Y-35721009D02*
X4889523Y-35816247D01*
X4889523Y-35816247D02*
X4889523Y-36054342D01*
X4889523Y-36054342D02*
X4841904Y-36149580D01*
X4841904Y-36149580D02*
X4794285Y-36197200D01*
X4794285Y-36197200D02*
X4699047Y-36244819D01*
X4699047Y-36244819D02*
X4460952Y-36244819D01*
X4460952Y-36244819D02*
X4365714Y-36197200D01*
X4365714Y-36197200D02*
X4318095Y-36149580D01*
X5746666Y-35244819D02*
X5556190Y-35244819D01*
X5556190Y-35244819D02*
X5460952Y-35292438D01*
X5460952Y-35292438D02*
X5413333Y-35340057D01*
X5413333Y-35340057D02*
X5318095Y-35482914D01*
X5318095Y-35482914D02*
X5270476Y-35673390D01*
X5270476Y-35673390D02*
X5270476Y-36054342D01*
X5270476Y-36054342D02*
X5318095Y-36149580D01*
X5318095Y-36149580D02*
X5365714Y-36197200D01*
X5365714Y-36197200D02*
X5460952Y-36244819D01*
X5460952Y-36244819D02*
X5651428Y-36244819D01*
X5651428Y-36244819D02*
X5746666Y-36197200D01*
X5746666Y-36197200D02*
X5794285Y-36149580D01*
X5794285Y-36149580D02*
X5841904Y-36054342D01*
X5841904Y-36054342D02*
X5841904Y-35816247D01*
X5841904Y-35816247D02*
X5794285Y-35721009D01*
X5794285Y-35721009D02*
X5746666Y-35673390D01*
X5746666Y-35673390D02*
X5651428Y-35625771D01*
X5651428Y-35625771D02*
X5460952Y-35625771D01*
X5460952Y-35625771D02*
X5365714Y-35673390D01*
X5365714Y-35673390D02*
X5318095Y-35721009D01*
X5318095Y-35721009D02*
X5270476Y-35816247D01*
X72898095Y-35340057D02*
X72945714Y-35292438D01*
X72945714Y-35292438D02*
X73040952Y-35244819D01*
X73040952Y-35244819D02*
X73279047Y-35244819D01*
X73279047Y-35244819D02*
X73374285Y-35292438D01*
X73374285Y-35292438D02*
X73421904Y-35340057D01*
X73421904Y-35340057D02*
X73469523Y-35435295D01*
X73469523Y-35435295D02*
X73469523Y-35530533D01*
X73469523Y-35530533D02*
X73421904Y-35673390D01*
X73421904Y-35673390D02*
X72850476Y-36244819D01*
X72850476Y-36244819D02*
X73469523Y-36244819D01*
X73945714Y-36244819D02*
X74136190Y-36244819D01*
X74136190Y-36244819D02*
X74231428Y-36197200D01*
X74231428Y-36197200D02*
X74279047Y-36149580D01*
X74279047Y-36149580D02*
X74374285Y-36006723D01*
X74374285Y-36006723D02*
X74421904Y-35816247D01*
X74421904Y-35816247D02*
X74421904Y-35435295D01*
X74421904Y-35435295D02*
X74374285Y-35340057D01*
X74374285Y-35340057D02*
X74326666Y-35292438D01*
X74326666Y-35292438D02*
X74231428Y-35244819D01*
X74231428Y-35244819D02*
X74040952Y-35244819D01*
X74040952Y-35244819D02*
X73945714Y-35292438D01*
X73945714Y-35292438D02*
X73898095Y-35340057D01*
X73898095Y-35340057D02*
X73850476Y-35435295D01*
X73850476Y-35435295D02*
X73850476Y-35673390D01*
X73850476Y-35673390D02*
X73898095Y-35768628D01*
X73898095Y-35768628D02*
X73945714Y-35816247D01*
X73945714Y-35816247D02*
X74040952Y-35863866D01*
X74040952Y-35863866D02*
X74231428Y-35863866D01*
X74231428Y-35863866D02*
X74326666Y-35816247D01*
X74326666Y-35816247D02*
X74374285Y-35768628D01*
X74374285Y-35768628D02*
X74421904Y-35673390D01*
X39036666Y-24454819D02*
X39036666Y-25169104D01*
X39036666Y-25169104D02*
X38989047Y-25311961D01*
X38989047Y-25311961D02*
X38893809Y-25407200D01*
X38893809Y-25407200D02*
X38750952Y-25454819D01*
X38750952Y-25454819D02*
X38655714Y-25454819D01*
X39417619Y-24454819D02*
X40036666Y-24454819D01*
X40036666Y-24454819D02*
X39703333Y-24835771D01*
X39703333Y-24835771D02*
X39846190Y-24835771D01*
X39846190Y-24835771D02*
X39941428Y-24883390D01*
X39941428Y-24883390D02*
X39989047Y-24931009D01*
X39989047Y-24931009D02*
X40036666Y-25026247D01*
X40036666Y-25026247D02*
X40036666Y-25264342D01*
X40036666Y-25264342D02*
X39989047Y-25359580D01*
X39989047Y-25359580D02*
X39941428Y-25407200D01*
X39941428Y-25407200D02*
X39846190Y-25454819D01*
X39846190Y-25454819D02*
X39560476Y-25454819D01*
X39560476Y-25454819D02*
X39465238Y-25407200D01*
X39465238Y-25407200D02*
X39417619Y-25359580D01*
X5337143Y-16208557D02*
X4822857Y-16208557D01*
X5080000Y-16208557D02*
X5080000Y-15308557D01*
X5080000Y-15308557D02*
X4994286Y-15437128D01*
X4994286Y-15437128D02*
X4908571Y-15522842D01*
X4908571Y-15522842D02*
X4822857Y-15565700D01*
X9945714Y-15308557D02*
X9517142Y-15308557D01*
X9517142Y-15308557D02*
X9474285Y-15737128D01*
X9474285Y-15737128D02*
X9517142Y-15694271D01*
X9517142Y-15694271D02*
X9602857Y-15651414D01*
X9602857Y-15651414D02*
X9817142Y-15651414D01*
X9817142Y-15651414D02*
X9902857Y-15694271D01*
X9902857Y-15694271D02*
X9945714Y-15737128D01*
X9945714Y-15737128D02*
X9988571Y-15822842D01*
X9988571Y-15822842D02*
X9988571Y-16037128D01*
X9988571Y-16037128D02*
X9945714Y-16122842D01*
X9945714Y-16122842D02*
X9902857Y-16165700D01*
X9902857Y-16165700D02*
X9817142Y-16208557D01*
X9817142Y-16208557D02*
X9602857Y-16208557D01*
X9602857Y-16208557D02*
X9517142Y-16165700D01*
X9517142Y-16165700D02*
X9474285Y-16122842D01*
X10760000Y-15308557D02*
X10588571Y-15308557D01*
X10588571Y-15308557D02*
X10502857Y-15351414D01*
X10502857Y-15351414D02*
X10460000Y-15394271D01*
X10460000Y-15394271D02*
X10374285Y-15522842D01*
X10374285Y-15522842D02*
X10331428Y-15694271D01*
X10331428Y-15694271D02*
X10331428Y-16037128D01*
X10331428Y-16037128D02*
X10374285Y-16122842D01*
X10374285Y-16122842D02*
X10417142Y-16165700D01*
X10417142Y-16165700D02*
X10502857Y-16208557D01*
X10502857Y-16208557D02*
X10674285Y-16208557D01*
X10674285Y-16208557D02*
X10760000Y-16165700D01*
X10760000Y-16165700D02*
X10802857Y-16122842D01*
X10802857Y-16122842D02*
X10845714Y-16037128D01*
X10845714Y-16037128D02*
X10845714Y-15822842D01*
X10845714Y-15822842D02*
X10802857Y-15737128D01*
X10802857Y-15737128D02*
X10760000Y-15694271D01*
X10760000Y-15694271D02*
X10674285Y-15651414D01*
X10674285Y-15651414D02*
X10502857Y-15651414D01*
X10502857Y-15651414D02*
X10417142Y-15694271D01*
X10417142Y-15694271D02*
X10374285Y-15737128D01*
X10374285Y-15737128D02*
X10331428Y-15822842D01*
X67894285Y-15394271D02*
X67937142Y-15351414D01*
X67937142Y-15351414D02*
X68022857Y-15308557D01*
X68022857Y-15308557D02*
X68237142Y-15308557D01*
X68237142Y-15308557D02*
X68322857Y-15351414D01*
X68322857Y-15351414D02*
X68365714Y-15394271D01*
X68365714Y-15394271D02*
X68408571Y-15479985D01*
X68408571Y-15479985D02*
X68408571Y-15565700D01*
X68408571Y-15565700D02*
X68365714Y-15694271D01*
X68365714Y-15694271D02*
X67851428Y-16208557D01*
X67851428Y-16208557D02*
X68408571Y-16208557D01*
X68837142Y-16208557D02*
X69008571Y-16208557D01*
X69008571Y-16208557D02*
X69094285Y-16165700D01*
X69094285Y-16165700D02*
X69137142Y-16122842D01*
X69137142Y-16122842D02*
X69222857Y-15994271D01*
X69222857Y-15994271D02*
X69265714Y-15822842D01*
X69265714Y-15822842D02*
X69265714Y-15479985D01*
X69265714Y-15479985D02*
X69222857Y-15394271D01*
X69222857Y-15394271D02*
X69180000Y-15351414D01*
X69180000Y-15351414D02*
X69094285Y-15308557D01*
X69094285Y-15308557D02*
X68922857Y-15308557D01*
X68922857Y-15308557D02*
X68837142Y-15351414D01*
X68837142Y-15351414D02*
X68794285Y-15394271D01*
X68794285Y-15394271D02*
X68751428Y-15479985D01*
X68751428Y-15479985D02*
X68751428Y-15694271D01*
X68751428Y-15694271D02*
X68794285Y-15779985D01*
X68794285Y-15779985D02*
X68837142Y-15822842D01*
X68837142Y-15822842D02*
X68922857Y-15865700D01*
X68922857Y-15865700D02*
X69094285Y-15865700D01*
X69094285Y-15865700D02*
X69180000Y-15822842D01*
X69180000Y-15822842D02*
X69222857Y-15779985D01*
X69222857Y-15779985D02*
X69265714Y-15694271D01*
X72974285Y-15394271D02*
X73017142Y-15351414D01*
X73017142Y-15351414D02*
X73102857Y-15308557D01*
X73102857Y-15308557D02*
X73317142Y-15308557D01*
X73317142Y-15308557D02*
X73402857Y-15351414D01*
X73402857Y-15351414D02*
X73445714Y-15394271D01*
X73445714Y-15394271D02*
X73488571Y-15479985D01*
X73488571Y-15479985D02*
X73488571Y-15565700D01*
X73488571Y-15565700D02*
X73445714Y-15694271D01*
X73445714Y-15694271D02*
X72931428Y-16208557D01*
X72931428Y-16208557D02*
X73488571Y-16208557D01*
X74002857Y-15694271D02*
X73917142Y-15651414D01*
X73917142Y-15651414D02*
X73874285Y-15608557D01*
X73874285Y-15608557D02*
X73831428Y-15522842D01*
X73831428Y-15522842D02*
X73831428Y-15479985D01*
X73831428Y-15479985D02*
X73874285Y-15394271D01*
X73874285Y-15394271D02*
X73917142Y-15351414D01*
X73917142Y-15351414D02*
X74002857Y-15308557D01*
X74002857Y-15308557D02*
X74174285Y-15308557D01*
X74174285Y-15308557D02*
X74260000Y-15351414D01*
X74260000Y-15351414D02*
X74302857Y-15394271D01*
X74302857Y-15394271D02*
X74345714Y-15479985D01*
X74345714Y-15479985D02*
X74345714Y-15522842D01*
X74345714Y-15522842D02*
X74302857Y-15608557D01*
X74302857Y-15608557D02*
X74260000Y-15651414D01*
X74260000Y-15651414D02*
X74174285Y-15694271D01*
X74174285Y-15694271D02*
X74002857Y-15694271D01*
X74002857Y-15694271D02*
X73917142Y-15737128D01*
X73917142Y-15737128D02*
X73874285Y-15779985D01*
X73874285Y-15779985D02*
X73831428Y-15865700D01*
X73831428Y-15865700D02*
X73831428Y-16037128D01*
X73831428Y-16037128D02*
X73874285Y-16122842D01*
X73874285Y-16122842D02*
X73917142Y-16165700D01*
X73917142Y-16165700D02*
X74002857Y-16208557D01*
X74002857Y-16208557D02*
X74174285Y-16208557D01*
X74174285Y-16208557D02*
X74260000Y-16165700D01*
X74260000Y-16165700D02*
X74302857Y-16122842D01*
X74302857Y-16122842D02*
X74345714Y-16037128D01*
X74345714Y-16037128D02*
X74345714Y-15865700D01*
X74345714Y-15865700D02*
X74302857Y-15779985D01*
X74302857Y-15779985D02*
X74260000Y-15737128D01*
X74260000Y-15737128D02*
X74174285Y-15694271D01*
X39036666Y1545180D02*
X39036666Y830895D01*
X39036666Y830895D02*
X38989047Y688038D01*
X38989047Y688038D02*
X38893809Y592800D01*
X38893809Y592800D02*
X38750952Y545180D01*
X38750952Y545180D02*
X38655714Y545180D01*
X40036666Y545180D02*
X39465238Y545180D01*
X39750952Y545180D02*
X39750952Y1545180D01*
X39750952Y1545180D02*
X39655714Y1402323D01*
X39655714Y1402323D02*
X39560476Y1307085D01*
X39560476Y1307085D02*
X39465238Y1259466D01*
X5365714Y245180D02*
X4794286Y245180D01*
X5080000Y245180D02*
X5080000Y1245180D01*
X5080000Y1245180D02*
X4984762Y1102323D01*
X4984762Y1102323D02*
X4889524Y1007085D01*
X4889524Y1007085D02*
X4794286Y959466D01*
X4841904Y-11154819D02*
X4365714Y-11154819D01*
X4365714Y-11154819D02*
X4318095Y-11631009D01*
X4318095Y-11631009D02*
X4365714Y-11583390D01*
X4365714Y-11583390D02*
X4460952Y-11535771D01*
X4460952Y-11535771D02*
X4699047Y-11535771D01*
X4699047Y-11535771D02*
X4794285Y-11583390D01*
X4794285Y-11583390D02*
X4841904Y-11631009D01*
X4841904Y-11631009D02*
X4889523Y-11726247D01*
X4889523Y-11726247D02*
X4889523Y-11964342D01*
X4889523Y-11964342D02*
X4841904Y-12059580D01*
X4841904Y-12059580D02*
X4794285Y-12107200D01*
X4794285Y-12107200D02*
X4699047Y-12154819D01*
X4699047Y-12154819D02*
X4460952Y-12154819D01*
X4460952Y-12154819D02*
X4365714Y-12107200D01*
X4365714Y-12107200D02*
X4318095Y-12059580D01*
X5746666Y-11154819D02*
X5556190Y-11154819D01*
X5556190Y-11154819D02*
X5460952Y-11202438D01*
X5460952Y-11202438D02*
X5413333Y-11250057D01*
X5413333Y-11250057D02*
X5318095Y-11392914D01*
X5318095Y-11392914D02*
X5270476Y-11583390D01*
X5270476Y-11583390D02*
X5270476Y-11964342D01*
X5270476Y-11964342D02*
X5318095Y-12059580D01*
X5318095Y-12059580D02*
X5365714Y-12107200D01*
X5365714Y-12107200D02*
X5460952Y-12154819D01*
X5460952Y-12154819D02*
X5651428Y-12154819D01*
X5651428Y-12154819D02*
X5746666Y-12107200D01*
X5746666Y-12107200D02*
X5794285Y-12059580D01*
X5794285Y-12059580D02*
X5841904Y-11964342D01*
X5841904Y-11964342D02*
X5841904Y-11726247D01*
X5841904Y-11726247D02*
X5794285Y-11631009D01*
X5794285Y-11631009D02*
X5746666Y-11583390D01*
X5746666Y-11583390D02*
X5651428Y-11535771D01*
X5651428Y-11535771D02*
X5460952Y-11535771D01*
X5460952Y-11535771D02*
X5365714Y-11583390D01*
X5365714Y-11583390D02*
X5318095Y-11631009D01*
X5318095Y-11631009D02*
X5270476Y-11726247D01*
X17904286Y-5051414D02*
X17818572Y-5008557D01*
X17818572Y-5008557D02*
X17690000Y-5008557D01*
X17690000Y-5008557D02*
X17561429Y-5051414D01*
X17561429Y-5051414D02*
X17475714Y-5137128D01*
X17475714Y-5137128D02*
X17432857Y-5222842D01*
X17432857Y-5222842D02*
X17390000Y-5394271D01*
X17390000Y-5394271D02*
X17390000Y-5522842D01*
X17390000Y-5522842D02*
X17432857Y-5694271D01*
X17432857Y-5694271D02*
X17475714Y-5779985D01*
X17475714Y-5779985D02*
X17561429Y-5865700D01*
X17561429Y-5865700D02*
X17690000Y-5908557D01*
X17690000Y-5908557D02*
X17775714Y-5908557D01*
X17775714Y-5908557D02*
X17904286Y-5865700D01*
X17904286Y-5865700D02*
X17947143Y-5822842D01*
X17947143Y-5822842D02*
X17947143Y-5522842D01*
X17947143Y-5522842D02*
X17775714Y-5522842D01*
X18332857Y-5008557D02*
X18332857Y-5737128D01*
X18332857Y-5737128D02*
X18375714Y-5822842D01*
X18375714Y-5822842D02*
X18418572Y-5865700D01*
X18418572Y-5865700D02*
X18504286Y-5908557D01*
X18504286Y-5908557D02*
X18675714Y-5908557D01*
X18675714Y-5908557D02*
X18761429Y-5865700D01*
X18761429Y-5865700D02*
X18804286Y-5822842D01*
X18804286Y-5822842D02*
X18847143Y-5737128D01*
X18847143Y-5737128D02*
X18847143Y-5008557D01*
X19275714Y-5908557D02*
X19275714Y-5008557D01*
X19661428Y-5651414D02*
X20090000Y-5651414D01*
X19575714Y-5908557D02*
X19875714Y-5008557D01*
X19875714Y-5008557D02*
X20175714Y-5908557D01*
X72898095Y1149942D02*
X72945714Y1197561D01*
X72945714Y1197561D02*
X73040952Y1245180D01*
X73040952Y1245180D02*
X73279047Y1245180D01*
X73279047Y1245180D02*
X73374285Y1197561D01*
X73374285Y1197561D02*
X73421904Y1149942D01*
X73421904Y1149942D02*
X73469523Y1054704D01*
X73469523Y1054704D02*
X73469523Y959466D01*
X73469523Y959466D02*
X73421904Y816609D01*
X73421904Y816609D02*
X72850476Y245180D01*
X72850476Y245180D02*
X73469523Y245180D01*
X74040952Y816609D02*
X73945714Y864228D01*
X73945714Y864228D02*
X73898095Y911847D01*
X73898095Y911847D02*
X73850476Y1007085D01*
X73850476Y1007085D02*
X73850476Y1054704D01*
X73850476Y1054704D02*
X73898095Y1149942D01*
X73898095Y1149942D02*
X73945714Y1197561D01*
X73945714Y1197561D02*
X74040952Y1245180D01*
X74040952Y1245180D02*
X74231428Y1245180D01*
X74231428Y1245180D02*
X74326666Y1197561D01*
X74326666Y1197561D02*
X74374285Y1149942D01*
X74374285Y1149942D02*
X74421904Y1054704D01*
X74421904Y1054704D02*
X74421904Y1007085D01*
X74421904Y1007085D02*
X74374285Y911847D01*
X74374285Y911847D02*
X74326666Y864228D01*
X74326666Y864228D02*
X74231428Y816609D01*
X74231428Y816609D02*
X74040952Y816609D01*
X74040952Y816609D02*
X73945714Y768990D01*
X73945714Y768990D02*
X73898095Y721371D01*
X73898095Y721371D02*
X73850476Y626133D01*
X73850476Y626133D02*
X73850476Y435657D01*
X73850476Y435657D02*
X73898095Y340419D01*
X73898095Y340419D02*
X73945714Y292800D01*
X73945714Y292800D02*
X74040952Y245180D01*
X74040952Y245180D02*
X74231428Y245180D01*
X74231428Y245180D02*
X74326666Y292800D01*
X74326666Y292800D02*
X74374285Y340419D01*
X74374285Y340419D02*
X74421904Y435657D01*
X74421904Y435657D02*
X74421904Y626133D01*
X74421904Y626133D02*
X74374285Y721371D01*
X74374285Y721371D02*
X74326666Y768990D01*
X74326666Y768990D02*
X74231428Y816609D01*
X72898095Y-11250057D02*
X72945714Y-11202438D01*
X72945714Y-11202438D02*
X73040952Y-11154819D01*
X73040952Y-11154819D02*
X73279047Y-11154819D01*
X73279047Y-11154819D02*
X73374285Y-11202438D01*
X73374285Y-11202438D02*
X73421904Y-11250057D01*
X73421904Y-11250057D02*
X73469523Y-11345295D01*
X73469523Y-11345295D02*
X73469523Y-11440533D01*
X73469523Y-11440533D02*
X73421904Y-11583390D01*
X73421904Y-11583390D02*
X72850476Y-12154819D01*
X72850476Y-12154819D02*
X73469523Y-12154819D01*
X73945714Y-12154819D02*
X74136190Y-12154819D01*
X74136190Y-12154819D02*
X74231428Y-12107200D01*
X74231428Y-12107200D02*
X74279047Y-12059580D01*
X74279047Y-12059580D02*
X74374285Y-11916723D01*
X74374285Y-11916723D02*
X74421904Y-11726247D01*
X74421904Y-11726247D02*
X74421904Y-11345295D01*
X74421904Y-11345295D02*
X74374285Y-11250057D01*
X74374285Y-11250057D02*
X74326666Y-11202438D01*
X74326666Y-11202438D02*
X74231428Y-11154819D01*
X74231428Y-11154819D02*
X74040952Y-11154819D01*
X74040952Y-11154819D02*
X73945714Y-11202438D01*
X73945714Y-11202438D02*
X73898095Y-11250057D01*
X73898095Y-11250057D02*
X73850476Y-11345295D01*
X73850476Y-11345295D02*
X73850476Y-11583390D01*
X73850476Y-11583390D02*
X73898095Y-11678628D01*
X73898095Y-11678628D02*
X73945714Y-11726247D01*
X73945714Y-11726247D02*
X74040952Y-11773866D01*
X74040952Y-11773866D02*
X74231428Y-11773866D01*
X74231428Y-11773866D02*
X74326666Y-11726247D01*
X74326666Y-11726247D02*
X74374285Y-11678628D01*
X74374285Y-11678628D02*
X74421904Y-11583390D01*
%TO.C,C1*%
D11*
X5880000Y-27630000D02*
X11120000Y-27630000D01*
X5880000Y-27967000D02*
X5880000Y-27630000D01*
X5880000Y-30370000D02*
X5880000Y-30033000D01*
X11120000Y-27630000D02*
X11120000Y-27967000D01*
X11120000Y-30033000D02*
X11120000Y-30370000D01*
X11120000Y-30370000D02*
X5880000Y-30370000D01*
%TO.C,J3*%
D10*
X3180000Y-16800000D02*
X75560000Y-16800000D01*
X3180000Y-23200000D02*
X3180000Y-16800000D01*
X75560000Y-16800000D02*
X75560000Y-23200000D01*
X75560000Y-23200000D02*
X3180000Y-23200000D01*
%TO.C,J1*%
X2880000Y-500000D02*
X75860000Y-500000D01*
X2880000Y-10500000D02*
X2880000Y-500000D01*
X15240000Y-500000D02*
X15240000Y-10500000D01*
X75860000Y-500000D02*
X75860000Y-10500000D01*
X75860000Y-10500000D02*
X2880000Y-10500000D01*
%TD*%
%LPC*%
D12*
%TO.C,C1*%
X6000000Y-29000000D03*
X11000000Y-29000000D03*
%TD*%
D13*
%TO.C,J2*%
X73660000Y-41190000D03*
X71120000Y-41190000D03*
X68580000Y-41190000D03*
X66040000Y-41190000D03*
X63500000Y-41190000D03*
X60960000Y-41190000D03*
X58420000Y-41190000D03*
X55880000Y-41190000D03*
X53340000Y-41190000D03*
X50800000Y-41190000D03*
X48260000Y-41190000D03*
X45720000Y-41190000D03*
X43180000Y-41190000D03*
X40640000Y-41190000D03*
X38100000Y-41190000D03*
X35560000Y-41190000D03*
X33020000Y-41190000D03*
X30480000Y-41190000D03*
X27940000Y-41190000D03*
X25400000Y-41190000D03*
X22860000Y-41190000D03*
X20320000Y-41190000D03*
X17780000Y-41190000D03*
X12700000Y-41190000D03*
X10160000Y-41190000D03*
X7620000Y-41190000D03*
X5080000Y-41190000D03*
%TD*%
D14*
%TO.C,J3*%
X5080000Y-21270000D03*
D15*
X7620000Y-21270000D03*
X10160000Y-21270000D03*
X12700000Y-21270000D03*
X15240000Y-21270000D03*
X17780000Y-21270000D03*
X20320000Y-21270000D03*
X22860000Y-21270000D03*
X25400000Y-21270000D03*
X27940000Y-21270000D03*
X30480000Y-21270000D03*
X33020000Y-21270000D03*
X35560000Y-21270000D03*
X38100000Y-21270000D03*
X40640000Y-21270000D03*
X43180000Y-21270000D03*
X45720000Y-21270000D03*
X48260000Y-21270000D03*
X50800000Y-21270000D03*
X53340000Y-21270000D03*
X55880000Y-21270000D03*
X58420000Y-21270000D03*
X60960000Y-21270000D03*
X63500000Y-21270000D03*
X66040000Y-21270000D03*
X68580000Y-21270000D03*
X71120000Y-21270000D03*
X73660000Y-21270000D03*
X73660000Y-18730000D03*
X71120000Y-18730000D03*
X68580000Y-18730000D03*
X66040000Y-18730000D03*
X63500000Y-18730000D03*
X60960000Y-18730000D03*
X58420000Y-18730000D03*
X55880000Y-18730000D03*
X53340000Y-18730000D03*
X50800000Y-18730000D03*
X48260000Y-18730000D03*
X45720000Y-18730000D03*
X43180000Y-18730000D03*
X40640000Y-18730000D03*
X38100000Y-18730000D03*
X35560000Y-18730000D03*
X33020000Y-18730000D03*
X30480000Y-18730000D03*
X27940000Y-18730000D03*
X25400000Y-18730000D03*
X22860000Y-18730000D03*
X20320000Y-18730000D03*
X17780000Y-18730000D03*
X15240000Y-18730000D03*
X12700000Y-18730000D03*
X10160000Y-18730000D03*
X7620000Y-18730000D03*
X5080000Y-18730000D03*
%TD*%
D16*
%TO.C,J1*%
X5080000Y-2960000D03*
D17*
X7620000Y-2960000D03*
X10160000Y-2960000D03*
X12700000Y-2960000D03*
X17780000Y-2960000D03*
X20320000Y-2960000D03*
X22860000Y-2960000D03*
X25400000Y-2960000D03*
X27940000Y-2960000D03*
X30480000Y-2960000D03*
X33020000Y-2960000D03*
X35560000Y-2960000D03*
X38100000Y-2960000D03*
X40640000Y-2960000D03*
X43180000Y-2960000D03*
X45720000Y-2960000D03*
X48260000Y-2960000D03*
X50800000Y-2960000D03*
X53340000Y-2960000D03*
X55880000Y-2960000D03*
X58420000Y-2960000D03*
X60960000Y-2960000D03*
X63500000Y-2960000D03*
X66040000Y-2960000D03*
X68580000Y-2960000D03*
X71120000Y-2960000D03*
X73660000Y-2960000D03*
X73660000Y-8040000D03*
X71120000Y-8040000D03*
X68580000Y-8040000D03*
X66040000Y-8040000D03*
X63500000Y-8040000D03*
X60960000Y-8040000D03*
X58420000Y-8040000D03*
X55880000Y-8040000D03*
X53340000Y-8040000D03*
X50800000Y-8040000D03*
X48260000Y-8040000D03*
X45720000Y-8040000D03*
X43180000Y-8040000D03*
X40640000Y-8040000D03*
X38100000Y-8040000D03*
X35560000Y-8040000D03*
X33020000Y-8040000D03*
X30480000Y-8040000D03*
X27940000Y-8040000D03*
X25400000Y-8040000D03*
X22860000Y-8040000D03*
X20320000Y-8040000D03*
X17780000Y-8040000D03*
X12700000Y-8040000D03*
X10160000Y-8040000D03*
X7620000Y-8040000D03*
X5080000Y-8040000D03*
%TD*%
%LPD*%
M02*
