M48
; DRILL file KiCad 10.0.4 date 2026-07-29T19:19:12
; FORMAT={-:-/ absolute / metric / decimal}
; #@! TF.CreationDate,2026-07-29T19:19:12-03:00
; #@! TF.GenerationSoftware,Kicad,Pcbnew,10.0.4
; #@! TF.FileFunction,MixedPlating,1,4
FMAT,2
METRIC
; #@! TA.AperFunction,Plated,PTH,ViaDrill
T1C0.400
; #@! TA.AperFunction,Plated,PTH,ComponentDrill
T2C0.700
; #@! TA.AperFunction,Plated,PTH,ComponentDrill
T3C0.800
; #@! TA.AperFunction,Plated,PTH,ComponentDrill
T4C0.900
; #@! TA.AperFunction,Plated,PTH,ComponentDrill
T5C1.000
; #@! TA.AperFunction,Plated,PTH,ComponentDrill
T6C1.020
%
G90
G05
T1
X4.669Y-15.767
X5.46Y-30.885
X9.65Y-26.659
X15.44Y-32.563
X15.6Y-54.107
X16.51Y-61.246
X17.252Y-41.179
X17.273Y-26.658
X19.479Y-49.181
X20.133Y-62.548
X23.452Y-54.783
X25.392Y-40.757
X26.16Y-33.982
X28.34Y-47.919
X33.735Y-40.136
X34.69Y-41.002
X35.041Y-24.31
X36.579Y-51.283
X36.678Y-38.389
X37.653Y-23.083
X39.24Y-19.31
X41.571Y-52.471
X42.342Y-35.531
X42.466Y-12.411
X43.678Y-58.383
X44.919Y-62.555
X45.117Y-34.12
X45.4Y-56.229
X46.027Y-28.769
X46.377Y-48.965
X46.704Y-62.535
X48.3Y-50.853
X49.173Y-47.498
X53.919Y-46.505
X54.756Y-37.52
X55.897Y-44.833
X67.453Y-57.662
X71.913Y-62.535
X77.507Y-7.596
T2
X52.0Y-19.5
X56.0Y-19.5
T3
X3.3Y-5.2
X3.3Y-20.44
X3.3Y-24.0
X3.3Y-28.2
X3.3Y-43.44
X5.84Y-5.2
X5.84Y-20.44
X5.84Y-28.2
X5.84Y-43.44
X8.3Y-24.0
X8.38Y-5.2
X8.38Y-20.44
X8.38Y-28.2
X8.38Y-43.44
X10.92Y-5.2
X10.92Y-20.44
X10.92Y-28.2
X10.92Y-43.44
X12.0Y-24.0
X13.46Y-5.2
X13.46Y-20.44
X13.46Y-28.2
X13.46Y-43.44
X16.0Y-5.2
X16.0Y-20.44
X16.0Y-28.2
X16.0Y-43.44
X17.0Y-24.0
X18.54Y-5.2
X18.54Y-20.44
X18.54Y-28.2
X18.54Y-43.44
X21.08Y-5.2
X21.08Y-20.44
X21.08Y-28.2
X21.08Y-43.44
X23.62Y-5.2
X23.62Y-20.44
X23.62Y-28.2
X23.62Y-43.44
X26.16Y-5.2
X26.16Y-20.44
X26.16Y-28.2
X26.16Y-43.44
X28.7Y-5.2
X28.7Y-20.44
X28.7Y-28.2
X28.7Y-43.44
X31.24Y-5.2
X31.24Y-20.44
X31.24Y-28.2
X31.24Y-43.44
X33.78Y-5.2
X33.78Y-20.44
X33.78Y-28.2
X33.78Y-43.44
X36.32Y-5.2
X36.32Y-20.44
X36.32Y-28.2
X36.32Y-43.44
X38.86Y-28.2
X38.86Y-43.44
X41.4Y-28.2
X41.4Y-43.44
X46.5Y-14.5
X47.3Y-53.0
X48.3Y-23.5
X48.3Y-28.2
X48.3Y-35.82
X49.04Y-14.5
X50.8Y-41.7
X50.8Y-49.32
X50.84Y-28.2
X50.84Y-35.82
X52.0Y-14.5
X52.3Y-53.0
X53.3Y-23.5
X53.34Y-41.7
X53.34Y-49.32
X53.38Y-28.2
X53.38Y-35.82
X54.54Y-14.5
X55.88Y-41.7
X55.88Y-49.32
X55.92Y-28.2
X55.92Y-35.82
X57.5Y-14.5
X58.0Y-53.0
X58.42Y-41.7
X58.42Y-49.32
X58.46Y-28.2
X58.46Y-35.82
X60.04Y-14.5
X60.96Y-41.7
X60.96Y-49.32
X61.0Y-28.2
X61.0Y-35.82
X63.0Y-14.5
X63.0Y-53.0
X63.5Y-41.7
X63.5Y-49.32
X63.54Y-28.2
X63.54Y-35.82
X65.54Y-14.5
X66.04Y-41.7
X66.04Y-49.32
X66.08Y-28.2
X66.08Y-35.82
X68.0Y-55.0
X68.58Y-41.7
X68.58Y-49.32
X68.62Y-28.2
X68.62Y-35.82
X70.0Y-55.0
X71.12Y-41.7
X71.12Y-49.32
X71.16Y-28.2
X71.16Y-35.82
X73.66Y-41.7
X73.66Y-49.32
X73.7Y-28.2
X73.7Y-35.82
X76.24Y-28.2
X76.24Y-35.82
T4
X46.5Y-19.5
X49.04Y-19.5
T5
X46.5Y-4.0
X46.5Y-6.54
X46.5Y-9.08
X55.0Y-4.0
X55.0Y-6.54
X55.0Y-9.08
X63.5Y-4.0
X63.5Y-6.54
X70.0Y-4.0
X70.0Y-6.54
T6
X5.08Y-59.805
X5.08Y-64.655
X7.62Y-59.805
X7.62Y-64.655
X10.16Y-59.805
X10.16Y-64.655
X12.7Y-59.805
X12.7Y-64.655
X15.24Y-59.805
X15.24Y-64.655
X17.78Y-59.805
X17.78Y-64.655
X20.32Y-59.805
X20.32Y-64.655
X22.86Y-59.805
X22.86Y-64.655
X25.4Y-59.805
X25.4Y-64.655
X27.94Y-59.805
X27.94Y-64.655
X30.48Y-59.805
X30.48Y-64.655
X33.02Y-59.805
X33.02Y-64.655
X35.56Y-59.805
X35.56Y-64.655
X38.1Y-59.805
X38.1Y-64.655
X40.64Y-59.805
X40.64Y-64.655
X43.18Y-59.805
X43.18Y-64.655
X45.72Y-59.805
X45.72Y-64.655
X48.26Y-59.805
X48.26Y-64.655
X50.8Y-59.805
X50.8Y-64.655
X53.34Y-59.805
X53.34Y-64.655
X55.88Y-59.805
X55.88Y-64.655
X58.42Y-59.805
X58.42Y-64.655
X60.96Y-59.805
X60.96Y-64.655
X66.04Y-59.805
X66.04Y-64.655
X68.58Y-59.805
X68.58Y-64.655
X71.12Y-59.805
X71.12Y-64.655
X73.66Y-59.805
X73.66Y-64.655
M30
