%TF.GenerationSoftware,KiCad,Pcbnew,10.0.4*%
%TF.CreationDate,2026-07-30T22:02:22-03:00*%
%TF.ProjectId,tkmem128-ii,746b6d65-6d31-4323-982d-69692e6b6963,rev?*%
%TF.SameCoordinates,Original*%
%TF.FileFunction,Copper,L1,Top*%
%TF.FilePolarity,Positive*%
%FSLAX46Y46*%
G04 Gerber Fmt 4.6, Leading zero omitted, Abs format (unit mm)*
G04 Created by KiCad (PCBNEW 10.0.4) date 2026-07-30 22:02:22*
%MOMM*%
%LPD*%
G01*
G04 APERTURE LIST*
G04 Aperture macros list*
%AMRoundRect*
0 Rectangle with rounded corners*
0 $1 Rounding radius*
0 $2 $3 $4 $5 $6 $7 $8 $9 X,Y pos of 4 corners*
0 Add a 4 corners polygon primitive as box body*
4,1,4,$2,$3,$4,$5,$6,$7,$8,$9,$2,$3,0*
0 Add four circle primitives for the rounded corners*
1,1,$1+$1,$2,$3*
1,1,$1+$1,$4,$5*
1,1,$1+$1,$6,$7*
1,1,$1+$1,$8,$9*
0 Add four rect primitives between the rounded corners*
20,1,$1+$1,$2,$3,$4,$5,0*
20,1,$1+$1,$4,$5,$6,$7,0*
20,1,$1+$1,$6,$7,$8,$9,0*
20,1,$1+$1,$8,$9,$2,$3,0*%
G04 Aperture macros list end*
%TA.AperFunction,ComponentPad*%
%ADD10RoundRect,0.250000X0.550000X-0.950000X0.550000X0.950000X-0.550000X0.950000X-0.550000X-0.950000X0*%
%TD*%
%TA.AperFunction,ComponentPad*%
%ADD11O,1.600000X2.400000*%
%TD*%
%TA.AperFunction,ComponentPad*%
%ADD12R,1.700000X1.700000*%
%TD*%
%TA.AperFunction,ComponentPad*%
%ADD13C,1.700000*%
%TD*%
%TA.AperFunction,ComponentPad*%
%ADD14C,1.500000*%
%TD*%
%TA.AperFunction,ComponentPad*%
%ADD15C,1.600000*%
%TD*%
%TA.AperFunction,ComponentPad*%
%ADD16RoundRect,0.250000X-0.550000X-0.550000X0.550000X-0.550000X0.550000X0.550000X-0.550000X0.550000X0*%
%TD*%
%TA.AperFunction,ComponentPad*%
%ADD17R,1.800000X1.800000*%
%TD*%
%TA.AperFunction,ComponentPad*%
%ADD18C,1.800000*%
%TD*%
%TA.AperFunction,ComponentPad*%
%ADD19R,1.500000X1.500000*%
%TD*%
%TA.AperFunction,ViaPad*%
%ADD20C,0.800000*%
%TD*%
%TA.AperFunction,Conductor*%
%ADD21C,0.500000*%
%TD*%
G04 APERTURE END LIST*
D10*
%TO.P,U3,1*%
%TO.N,SA18*%
X3300000Y-43440000D03*
D11*
%TO.P,U3,2*%
%TO.N,SA16*%
X5840000Y-43440000D03*
%TO.P,U3,3*%
%TO.N,SA14*%
X8380000Y-43440000D03*
%TO.P,U3,4*%
%TO.N,A12*%
X10920000Y-43440000D03*
%TO.P,U3,5*%
%TO.N,A7*%
X13460000Y-43440000D03*
%TO.P,U3,6*%
%TO.N,A6*%
X16000000Y-43440000D03*
%TO.P,U3,7*%
%TO.N,A5*%
X18540000Y-43440000D03*
%TO.P,U3,8*%
%TO.N,A4*%
X21080000Y-43440000D03*
%TO.P,U3,9*%
%TO.N,A3*%
X23620000Y-43440000D03*
%TO.P,U3,10*%
%TO.N,A2*%
X26160000Y-43440000D03*
%TO.P,U3,11*%
%TO.N,A1*%
X28700000Y-43440000D03*
%TO.P,U3,12*%
%TO.N,A0*%
X31240000Y-43440000D03*
%TO.P,U3,13*%
%TO.N,D0*%
X33780000Y-43440000D03*
%TO.P,U3,14*%
%TO.N,D1*%
X36320000Y-43440000D03*
%TO.P,U3,15*%
%TO.N,D2*%
X38860000Y-43440000D03*
%TO.P,U3,16*%
%TO.N,GND*%
X41400000Y-43440000D03*
%TO.P,U3,17*%
%TO.N,D3*%
X41400000Y-28200000D03*
%TO.P,U3,18*%
%TO.N,D4*%
X38860000Y-28200000D03*
%TO.P,U3,19*%
%TO.N,D5*%
X36320000Y-28200000D03*
%TO.P,U3,20*%
%TO.N,D6*%
X33780000Y-28200000D03*
%TO.P,U3,21*%
%TO.N,D7*%
X31240000Y-28200000D03*
%TO.P,U3,22*%
%TO.N,RAMCS_N*%
X28700000Y-28200000D03*
%TO.P,U3,23*%
%TO.N,A10*%
X26160000Y-28200000D03*
%TO.P,U3,24*%
%TO.N,RD_N*%
X23620000Y-28200000D03*
%TO.P,U3,25*%
%TO.N,A11*%
X21080000Y-28200000D03*
%TO.P,U3,26*%
%TO.N,A9*%
X18540000Y-28200000D03*
%TO.P,U3,27*%
%TO.N,A8*%
X16000000Y-28200000D03*
%TO.P,U3,28*%
%TO.N,A13*%
X13460000Y-28200000D03*
%TO.P,U3,29*%
%TO.N,WR_N*%
X10920000Y-28200000D03*
%TO.P,U3,30*%
%TO.N,SA17_CE2*%
X8380000Y-28200000D03*
%TO.P,U3,31*%
%TO.N,SA15*%
X5840000Y-28200000D03*
%TO.P,U3,32*%
%TO.N,+5V*%
X3300000Y-28200000D03*
%TD*%
D12*
%TO.P,JP2,1*%
%TO.N,ROMCS_N*%
X55000000Y-4000000D03*
D13*
%TO.P,JP2,2*%
%TO.N,ROMCS_DRV*%
X55000000Y-6540000D03*
%TO.P,JP2,3*%
%TO.N,+5V*%
X55000000Y-9080000D03*
%TD*%
D14*
%TO.P,TP2,1*%
%TO.N,CLK7FFD*%
X56000000Y-19500000D03*
%TD*%
D12*
%TO.P,JP1,1*%
%TO.N,ROMCS_N*%
X46500000Y-4000000D03*
D13*
%TO.P,JP1,2*%
%TO.N,ROMCE_N*%
X46500000Y-6540000D03*
%TO.P,JP1,3*%
%TO.N,+5V*%
X46500000Y-9080000D03*
%TD*%
D15*
%TO.P,C5,1*%
%TO.N,+5V*%
X58000000Y-53000000D03*
%TO.P,C5,2*%
%TO.N,GND*%
X63000000Y-53000000D03*
%TD*%
%TO.P,C4,1*%
%TO.N,+5V*%
X12000000Y-24000000D03*
%TO.P,C4,2*%
%TO.N,GND*%
X17000000Y-24000000D03*
%TD*%
D10*
%TO.P,U2,1*%
%TO.N,RESET_N*%
X50800000Y-49320000D03*
D11*
%TO.P,U2,2*%
%TO.N,BANK0*%
X53340000Y-49320000D03*
%TO.P,U2,3*%
%TO.N,D0*%
X55880000Y-49320000D03*
%TO.P,U2,4*%
%TO.N,D1*%
X58420000Y-49320000D03*
%TO.P,U2,5*%
%TO.N,BANK1*%
X60960000Y-49320000D03*
%TO.P,U2,6*%
%TO.N,BANK2*%
X63500000Y-49320000D03*
%TO.P,U2,7*%
%TO.N,D2*%
X66040000Y-49320000D03*
%TO.P,U2,8*%
%TO.N,D3*%
X68580000Y-49320000D03*
%TO.P,U2,9*%
%TO.N,VRAM*%
X71120000Y-49320000D03*
%TO.P,U2,10*%
%TO.N,GND*%
X73660000Y-49320000D03*
%TO.P,U2,11*%
%TO.N,CLK7FFD*%
X73660000Y-41700000D03*
%TO.P,U2,12*%
%TO.N,ROMA14*%
X71120000Y-41700000D03*
%TO.P,U2,13*%
%TO.N,D4*%
X68580000Y-41700000D03*
%TO.P,U2,14*%
%TO.N,D5*%
X66040000Y-41700000D03*
%TO.P,U2,15*%
%TO.N,DIS128*%
X63500000Y-41700000D03*
%TO.P,U2,16*%
%TO.N,BANK3*%
X60960000Y-41700000D03*
%TO.P,U2,17*%
%TO.N,D6*%
X58420000Y-41700000D03*
%TO.P,U2,18*%
%TO.N,D7*%
X55880000Y-41700000D03*
%TO.P,U2,19*%
%TO.N,BANK4*%
X53340000Y-41700000D03*
%TO.P,U2,20*%
%TO.N,+5V*%
X50800000Y-41700000D03*
%TD*%
D15*
%TO.P,R3,1*%
%TO.N,+5V*%
X63000000Y-14500000D03*
%TO.P,R3,2*%
%TO.N,LED_A*%
X65540000Y-14500000D03*
%TD*%
D14*
%TO.P,TP1,1*%
%TO.N,VRAM*%
X52000000Y-19500000D03*
%TD*%
D10*
%TO.P,U4,1*%
%TO.N,+5V*%
X3300000Y-20440000D03*
D11*
%TO.P,U4,2*%
%TO.N,A12*%
X5840000Y-20440000D03*
%TO.P,U4,3*%
%TO.N,A7*%
X8380000Y-20440000D03*
%TO.P,U4,4*%
%TO.N,A6*%
X10920000Y-20440000D03*
%TO.P,U4,5*%
%TO.N,A5*%
X13460000Y-20440000D03*
%TO.P,U4,6*%
%TO.N,A4*%
X16000000Y-20440000D03*
%TO.P,U4,7*%
%TO.N,A3*%
X18540000Y-20440000D03*
%TO.P,U4,8*%
%TO.N,A2*%
X21080000Y-20440000D03*
%TO.P,U4,9*%
%TO.N,A1*%
X23620000Y-20440000D03*
%TO.P,U4,10*%
%TO.N,A0*%
X26160000Y-20440000D03*
%TO.P,U4,11*%
%TO.N,D0*%
X28700000Y-20440000D03*
%TO.P,U4,12*%
%TO.N,D1*%
X31240000Y-20440000D03*
%TO.P,U4,13*%
%TO.N,D2*%
X33780000Y-20440000D03*
%TO.P,U4,14*%
%TO.N,GND*%
X36320000Y-20440000D03*
%TO.P,U4,15*%
%TO.N,D3*%
X36320000Y-5200000D03*
%TO.P,U4,16*%
%TO.N,D4*%
X33780000Y-5200000D03*
%TO.P,U4,17*%
%TO.N,D5*%
X31240000Y-5200000D03*
%TO.P,U4,18*%
%TO.N,D6*%
X28700000Y-5200000D03*
%TO.P,U4,19*%
%TO.N,D7*%
X26160000Y-5200000D03*
%TO.P,U4,20*%
%TO.N,ROMCE_N*%
X23620000Y-5200000D03*
%TO.P,U4,21*%
%TO.N,A10*%
X21080000Y-5200000D03*
%TO.P,U4,22*%
%TO.N,RD_N*%
X18540000Y-5200000D03*
%TO.P,U4,23*%
%TO.N,A11*%
X16000000Y-5200000D03*
%TO.P,U4,24*%
%TO.N,A9*%
X13460000Y-5200000D03*
%TO.P,U4,25*%
%TO.N,A8*%
X10920000Y-5200000D03*
%TO.P,U4,26*%
%TO.N,A13*%
X8380000Y-5200000D03*
%TO.P,U4,27*%
%TO.N,ROMA14*%
X5840000Y-5200000D03*
%TO.P,U4,28*%
%TO.N,+5V*%
X3300000Y-5200000D03*
%TD*%
D15*
%TO.P,C2,1*%
%TO.N,+5V*%
X47300000Y-53000000D03*
%TO.P,C2,2*%
%TO.N,GND*%
X52300000Y-53000000D03*
%TD*%
%TO.P,R5,1*%
%TO.N,ROMCS_DRV*%
X57500000Y-14500000D03*
%TO.P,R5,2*%
%TO.N,ROMCS_BUS*%
X60040000Y-14500000D03*
%TD*%
D16*
%TO.P,C6,1*%
%TO.N,+5V*%
X68000000Y-55000000D03*
D15*
%TO.P,C6,2*%
%TO.N,GND*%
X70000000Y-55000000D03*
%TD*%
D17*
%TO.P,D1,1*%
%TO.N,GND*%
X46500000Y-19500000D03*
D18*
%TO.P,D1,2*%
%TO.N,LED_A*%
X49040000Y-19500000D03*
%TD*%
D10*
%TO.P,U1,1*%
%TO.N,MREQ_N*%
X48300000Y-35820000D03*
D11*
%TO.P,U1,2*%
%TO.N,ZX512*%
X50840000Y-35820000D03*
%TO.P,U1,3*%
%TO.N,A1*%
X53380000Y-35820000D03*
%TO.P,U1,4*%
%TO.N,WR_N*%
X55920000Y-35820000D03*
%TO.P,U1,5*%
%TO.N,DIS128*%
X58460000Y-35820000D03*
%TO.P,U1,6*%
%TO.N,BANK2*%
X61000000Y-35820000D03*
%TO.P,U1,7*%
%TO.N,A5*%
X63540000Y-35820000D03*
%TO.P,U1,8*%
%TO.N,BANK0*%
X66080000Y-35820000D03*
%TO.P,U1,9*%
%TO.N,BANK4*%
X68620000Y-35820000D03*
%TO.P,U1,10*%
%TO.N,BANK3*%
X71160000Y-35820000D03*
%TO.P,U1,11*%
%TO.N,BANK1*%
X73700000Y-35820000D03*
%TO.P,U1,12*%
%TO.N,GND*%
X76240000Y-35820000D03*
%TO.P,U1,13*%
%TO.N,A15*%
X76240000Y-28200000D03*
%TO.P,U1,14*%
%TO.N,A14*%
X73700000Y-28200000D03*
%TO.P,U1,15*%
%TO.N,ROMCS_N*%
X71160000Y-28200000D03*
%TO.P,U1,16*%
%TO.N,CLK7FFD*%
X68620000Y-28200000D03*
%TO.P,U1,17*%
%TO.N,SA18*%
X66080000Y-28200000D03*
%TO.P,U1,18*%
%TO.N,SA17_CE2*%
X63540000Y-28200000D03*
%TO.P,U1,19*%
%TO.N,RAMCS_N*%
X61000000Y-28200000D03*
%TO.P,U1,20*%
%TO.N,SA16*%
X58460000Y-28200000D03*
%TO.P,U1,21*%
%TO.N,SA15*%
X55920000Y-28200000D03*
%TO.P,U1,22*%
%TO.N,SA14*%
X53380000Y-28200000D03*
%TO.P,U1,23*%
%TO.N,IORQ_N*%
X50840000Y-28200000D03*
%TO.P,U1,24*%
%TO.N,+5V*%
X48300000Y-28200000D03*
%TD*%
D15*
%TO.P,C1,1*%
%TO.N,+5V*%
X48300000Y-23500000D03*
%TO.P,C1,2*%
%TO.N,GND*%
X53300000Y-23500000D03*
%TD*%
%TO.P,C3,1*%
%TO.N,+5V*%
X3300000Y-24000000D03*
%TO.P,C3,2*%
%TO.N,GND*%
X8300000Y-24000000D03*
%TD*%
%TO.P,R4,1*%
%TO.N,+5V*%
X4000000Y-52500000D03*
%TO.P,R4,2*%
%TO.N,RAMDIS*%
X6540000Y-52500000D03*
%TD*%
%TO.P,R2,1*%
%TO.N,+5V*%
X46500000Y-14500000D03*
%TO.P,R2,2*%
%TO.N,ZX512*%
X49040000Y-14500000D03*
%TD*%
D12*
%TO.P,JP3,1*%
%TO.N,ZX512*%
X63500000Y-4000000D03*
D13*
%TO.P,JP3,2*%
%TO.N,GND*%
X63500000Y-6540000D03*
%TD*%
D19*
%TO.P,J1,1*%
%TO.N,A14*%
X73660000Y-64655000D03*
D14*
%TO.P,J1,2*%
%TO.N,A12*%
X71120000Y-64655000D03*
%TO.P,J1,3*%
%TO.N,+5V*%
X68580000Y-64655000D03*
%TO.P,J1,4*%
%TO.N,BUS_9V*%
X66040000Y-64655000D03*
%TO.P,J1,6*%
%TO.N,GND*%
X60960000Y-64655000D03*
%TO.P,J1,7*%
%TO.N,BUS_P07*%
X58420000Y-64655000D03*
%TO.P,J1,8*%
%TO.N,BUS_CLK*%
X55880000Y-64655000D03*
%TO.P,J1,9*%
%TO.N,A0*%
X53340000Y-64655000D03*
%TO.P,J1,10*%
%TO.N,A1*%
X50800000Y-64655000D03*
%TO.P,J1,11*%
%TO.N,A2*%
X48260000Y-64655000D03*
%TO.P,J1,12*%
%TO.N,A3*%
X45720000Y-64655000D03*
%TO.P,J1,13*%
%TO.N,BUS_IORQGE*%
X43180000Y-64655000D03*
%TO.P,J1,14*%
%TO.N,GND*%
X40640000Y-64655000D03*
%TO.P,J1,15*%
%TO.N,BUS_P15*%
X38100000Y-64655000D03*
%TO.P,J1,16*%
%TO.N,BUS_P16*%
X35560000Y-64655000D03*
%TO.P,J1,17*%
%TO.N,BUS_P17*%
X33020000Y-64655000D03*
%TO.P,J1,18*%
%TO.N,BUS_P18*%
X30480000Y-64655000D03*
%TO.P,J1,19*%
%TO.N,BUS_BUSREQ*%
X27940000Y-64655000D03*
%TO.P,J1,20*%
%TO.N,RESET_N*%
X25400000Y-64655000D03*
%TO.P,J1,21*%
%TO.N,A7*%
X22860000Y-64655000D03*
%TO.P,J1,22*%
%TO.N,A6*%
X20320000Y-64655000D03*
%TO.P,J1,23*%
%TO.N,A5*%
X17780000Y-64655000D03*
%TO.P,J1,24*%
%TO.N,A4*%
X15240000Y-64655000D03*
%TO.P,J1,25*%
%TO.N,ROMCS_BUS*%
X12700000Y-64655000D03*
%TO.P,J1,26*%
%TO.N,BUS_BUSACK*%
X10160000Y-64655000D03*
%TO.P,J1,27*%
%TO.N,A9*%
X7620000Y-64655000D03*
%TO.P,J1,28*%
%TO.N,A11*%
X5080000Y-64655000D03*
%TO.P,J1,29*%
%TO.N,RAMDIS*%
X5080000Y-59805000D03*
%TO.P,J1,30*%
%TO.N,A10*%
X7620000Y-59805000D03*
%TO.P,J1,31*%
%TO.N,A8*%
X10160000Y-59805000D03*
%TO.P,J1,32*%
%TO.N,BUS_RFSH*%
X12700000Y-59805000D03*
%TO.P,J1,33*%
%TO.N,BUS_M1*%
X15240000Y-59805000D03*
%TO.P,J1,34*%
%TO.N,BUS_P34*%
X17780000Y-59805000D03*
%TO.P,J1,35*%
%TO.N,BUS_P35*%
X20320000Y-59805000D03*
%TO.P,J1,36*%
%TO.N,BUS_WAIT*%
X22860000Y-59805000D03*
%TO.P,J1,37*%
%TO.N,BUS_P37*%
X25400000Y-59805000D03*
%TO.P,J1,38*%
%TO.N,WR_N*%
X27940000Y-59805000D03*
%TO.P,J1,39*%
%TO.N,RD_N*%
X30480000Y-59805000D03*
%TO.P,J1,40*%
%TO.N,IORQ_N*%
X33020000Y-59805000D03*
%TO.P,J1,41*%
%TO.N,MREQ_N*%
X35560000Y-59805000D03*
%TO.P,J1,42*%
%TO.N,BUS_HALT*%
X38100000Y-59805000D03*
%TO.P,J1,43*%
%TO.N,BUS_NMI*%
X40640000Y-59805000D03*
%TO.P,J1,44*%
%TO.N,BUS_INT*%
X43180000Y-59805000D03*
%TO.P,J1,45*%
%TO.N,D4*%
X45720000Y-59805000D03*
%TO.P,J1,46*%
%TO.N,D3*%
X48260000Y-59805000D03*
%TO.P,J1,47*%
%TO.N,D5*%
X50800000Y-59805000D03*
%TO.P,J1,48*%
%TO.N,D6*%
X53340000Y-59805000D03*
%TO.P,J1,49*%
%TO.N,D2*%
X55880000Y-59805000D03*
%TO.P,J1,50*%
%TO.N,D1*%
X58420000Y-59805000D03*
%TO.P,J1,51*%
%TO.N,D0*%
X60960000Y-59805000D03*
%TO.P,J1,53*%
%TO.N,BUS_SOUNDIN*%
X66040000Y-59805000D03*
%TO.P,J1,54*%
%TO.N,D7*%
X68580000Y-59805000D03*
%TO.P,J1,55*%
%TO.N,A13*%
X71120000Y-59805000D03*
%TO.P,J1,56*%
%TO.N,A15*%
X73660000Y-59805000D03*
%TD*%
D20*
%TO.N,SA14*%
X53380000Y-32252100D03*
%TO.N,A12*%
X43340700Y-56966700D03*
X32754400Y-46380400D03*
X14409600Y-53778600D03*
%TO.N,A7*%
X16510000Y-61241800D03*
%TO.N,A5*%
X20133200Y-62548200D03*
%TO.N,A4*%
X16079000Y-52117400D03*
%TO.N,A2*%
X31142000Y-46047500D03*
X41537900Y-48485700D03*
X31142000Y-48485700D03*
X39762900Y-20514000D03*
%TO.N,A1*%
X26387200Y-41578000D03*
X49527000Y-45851700D03*
%TO.N,D0*%
X56435900Y-44622100D03*
X30984800Y-40837100D03*
%TO.N,D1*%
X55172200Y-45483800D03*
%TO.N,D3*%
X47569700Y-54853100D03*
%TO.N,D4*%
X61752700Y-31748800D03*
%TO.N,D5*%
X42714600Y-29742800D03*
%TO.N,D6*%
X37104700Y-38406800D03*
X57476800Y-38330200D03*
X59413200Y-44844800D03*
%TO.N,D7*%
X31240000Y-39644100D03*
%TO.N,A10*%
X26160000Y-34687400D03*
%TO.N,A9*%
X22349600Y-48230500D03*
%TO.N,A8*%
X1985100Y-30328400D03*
%TO.N,A13*%
X13454700Y-23405700D03*
%TO.N,WR_N*%
X13306700Y-39402300D03*
X19175100Y-35314900D03*
%TO.N,ROMA14*%
X58635100Y-21094600D03*
%TO.N,ROMCS_BUS*%
X44114000Y-47429600D03*
%TO.N,MREQ_N*%
X47951900Y-50515000D03*
%TO.N,IORQ_N*%
X48827900Y-47374500D03*
%TD*%
%TO.N,SA18*%
D21*
X66080000Y-29900000D02*
X62657700Y-33322300D01*
X56423300Y-33322300D02*
X56214900Y-33113900D01*
X18376500Y-33113900D02*
X9650000Y-41840400D01*
X9650000Y-41840400D02*
X9650000Y-44430800D01*
X8942400Y-45138400D02*
X4998400Y-45138400D01*
X62657700Y-33322300D02*
X56423300Y-33322300D01*
X4998400Y-45138400D02*
X3300000Y-43440000D01*
X56214900Y-33113900D02*
X18376500Y-33113900D01*
X9650000Y-44430800D02*
X8942400Y-45138400D01*
X66080000Y-28200000D02*
X66080000Y-29900000D01*
%TO.N,SA16*%
X56718200Y-32610600D02*
X55498000Y-31390400D01*
X58460000Y-28200000D02*
X60414900Y-30154900D01*
X62633900Y-31386300D02*
X62633900Y-32087100D01*
X5840000Y-43440000D02*
X5840000Y-41740000D01*
X60414900Y-30154900D02*
X61402500Y-30154900D01*
X6846600Y-41740000D02*
X5840000Y-41740000D01*
X61402500Y-30154900D02*
X62633900Y-31386300D01*
X55498000Y-31390400D02*
X17196200Y-31390400D01*
X17196200Y-31390400D02*
X6846600Y-41740000D01*
X62110400Y-32610600D02*
X56718200Y-32610600D01*
X62633900Y-32087100D02*
X62110400Y-32610600D01*
%TO.N,SA14*%
X53380000Y-32252100D02*
X17867900Y-32252100D01*
X8380000Y-43440000D02*
X8380000Y-41740000D01*
X17867900Y-32252100D02*
X8380000Y-41740000D01*
%TO.N,A12*%
X22927200Y-46403300D02*
X17187200Y-52143300D01*
X68449600Y-61984600D02*
X43614500Y-61984600D01*
X43614500Y-61984600D02*
X41968300Y-60338400D01*
X27710500Y-46909200D02*
X27204600Y-46403300D01*
X32225600Y-46909200D02*
X27710500Y-46909200D01*
X71120000Y-64655000D02*
X68449600Y-61984600D01*
X27204600Y-46403300D02*
X22927200Y-46403300D01*
X32754400Y-46380400D02*
X32225600Y-46909200D01*
X17187200Y-52255300D02*
X15663900Y-53778600D01*
X41968300Y-58339100D02*
X43340700Y-56966700D01*
X15663900Y-53778600D02*
X14409600Y-53778600D01*
X41968300Y-60338400D02*
X41968300Y-58339100D01*
%TO.N,A7*%
X22860000Y-64655000D02*
X22860000Y-64056300D01*
X22860000Y-64056300D02*
X20045500Y-61241800D01*
X20045500Y-61241800D02*
X16510000Y-61241800D01*
%TO.N,A5*%
X18540000Y-43440000D02*
X18540000Y-41740000D01*
X63540000Y-35820000D02*
X63540000Y-37520000D01*
X17780000Y-64655000D02*
X19886800Y-62548200D01*
X19886800Y-62548200D02*
X20133200Y-62548200D01*
X57069900Y-37518500D02*
X22761500Y-37518500D01*
X22761500Y-37518500D02*
X18540000Y-41740000D01*
X63540000Y-37520000D02*
X57885300Y-37520000D01*
X57833800Y-37468500D02*
X57119900Y-37468500D01*
%TO.N,A4*%
X21080000Y-47116400D02*
X16079000Y-52117400D01*
X21080000Y-43440000D02*
X21080000Y-47116400D01*
%TO.N,A2*%
X21080000Y-20440000D02*
X21080000Y-18740000D01*
X37988900Y-18740000D02*
X39762900Y-20514000D01*
X31142000Y-46047500D02*
X27855400Y-46047500D01*
X41537900Y-48485700D02*
X31142000Y-48485700D01*
X27855400Y-46047500D02*
X26947900Y-45140000D01*
X21080000Y-18740000D02*
X37988900Y-18740000D01*
X26947900Y-45140000D02*
X26160000Y-45140000D01*
X26160000Y-43440000D02*
X26160000Y-45140000D01*
%TO.N,A1*%
X32732700Y-45140000D02*
X28700000Y-45140000D01*
X49527000Y-45851700D02*
X33444400Y-45851700D01*
X28700000Y-41740000D02*
X26549200Y-41740000D01*
X28700000Y-43440000D02*
X28700000Y-45140000D01*
X26549200Y-41740000D02*
X26387200Y-41578000D01*
X28700000Y-43440000D02*
X28700000Y-41740000D01*
X33444400Y-45851700D02*
X32732700Y-45140000D01*
%TO.N,D0*%
X31927500Y-41779800D02*
X30984800Y-40837100D01*
X33780000Y-41937500D02*
X33780000Y-41779800D01*
X48655700Y-41740000D02*
X51537800Y-44622100D01*
X33780000Y-41779800D02*
X31927500Y-41779800D01*
X51537800Y-44622100D02*
X56435900Y-44622100D01*
X33780000Y-43440000D02*
X33780000Y-41937500D01*
X33780000Y-41740000D02*
X48655700Y-41740000D01*
%TO.N,D1*%
X51392900Y-45483800D02*
X55172200Y-45483800D01*
X48782900Y-45140000D02*
X48942300Y-44980600D01*
X50889700Y-44980600D02*
X51392900Y-45483800D01*
X36320000Y-43440000D02*
X36320000Y-45140000D01*
X36320000Y-45140000D02*
X48782900Y-45140000D01*
X48942300Y-44980600D02*
X50889700Y-44980600D01*
%TO.N,D2*%
X57415700Y-58269300D02*
X55880000Y-59805000D01*
X66040000Y-49320000D02*
X66040000Y-51750500D01*
X66040000Y-51750500D02*
X59521200Y-58269300D01*
X59521200Y-58269300D02*
X57415700Y-58269300D01*
%TO.N,D3*%
X48260000Y-61066400D02*
X48260000Y-59805000D01*
X61412300Y-61066400D02*
X48260000Y-61066400D01*
X68580000Y-51020000D02*
X62285300Y-57314700D01*
X48260000Y-61066400D02*
X45253000Y-61066400D01*
X62285300Y-60193400D02*
X61412300Y-61066400D01*
X44500200Y-57922600D02*
X47569700Y-54853100D01*
X62285300Y-57314700D02*
X62285300Y-60193400D01*
X45253000Y-61066400D02*
X44500200Y-60313600D01*
X44500200Y-60313600D02*
X44500200Y-57922600D01*
X68580000Y-49320000D02*
X68580000Y-51020000D01*
%TO.N,D4*%
X57190000Y-27253700D02*
X57190000Y-29180000D01*
X59758800Y-31748800D02*
X61752700Y-31748800D01*
X49070700Y-56454300D02*
X45720000Y-59805000D01*
X38860000Y-26500000D02*
X56436300Y-26500000D01*
X54611200Y-48388300D02*
X54611200Y-52527800D01*
X68580000Y-43400000D02*
X59599500Y-43400000D01*
X57190000Y-29180000D02*
X59758800Y-31748800D01*
X50684700Y-56454300D02*
X49070700Y-56454300D01*
X56436300Y-26500000D02*
X57190000Y-27253700D01*
X68580000Y-41700000D02*
X68580000Y-43400000D01*
X54611200Y-52527800D02*
X50684700Y-56454300D01*
X38860000Y-28200000D02*
X38860000Y-26500000D01*
X59599500Y-43400000D02*
X54611200Y-48388300D01*
%TO.N,D5*%
X36320000Y-28200000D02*
X36320000Y-29900000D01*
X36320000Y-29900000D02*
X42557400Y-29900000D01*
X42557400Y-29900000D02*
X42714600Y-29742800D01*
%TO.N,D6*%
X57150000Y-47108000D02*
X59413200Y-44844800D01*
X53340000Y-59805000D02*
X53340000Y-55577600D01*
X57150000Y-51767600D02*
X57150000Y-47108000D01*
X53340000Y-55577600D02*
X57150000Y-51767600D01*
X57476800Y-38330200D02*
X37181300Y-38330200D01*
%TO.N,D7*%
X55880000Y-41700000D02*
X55880000Y-43400000D01*
X50962000Y-39644100D02*
X52070100Y-40752200D01*
X52070100Y-42626000D02*
X52844100Y-43400000D01*
X31240000Y-39644100D02*
X50962000Y-39644100D01*
X52070100Y-40752200D02*
X52070100Y-42626000D01*
X52844100Y-43400000D02*
X55880000Y-43400000D01*
%TO.N,RAMCS_N*%
X29411700Y-25788300D02*
X28700000Y-26500000D01*
X28700000Y-28200000D02*
X28700000Y-26500000D01*
X61000000Y-26500000D02*
X60288300Y-25788300D01*
X60288300Y-25788300D02*
X29411700Y-25788300D01*
X61000000Y-28200000D02*
X61000000Y-26500000D01*
%TO.N,A10*%
X7620000Y-59318200D02*
X7620000Y-59805000D01*
X26160000Y-34687400D02*
X24586100Y-34687400D01*
X17268500Y-42005000D02*
X17268500Y-49669700D01*
X24586100Y-34687400D02*
X17268500Y-42005000D01*
X17268500Y-49669700D02*
X7620000Y-59318200D01*
%TO.N,A11*%
X17178000Y-29900000D02*
X21080000Y-29900000D01*
X21080000Y-28200000D02*
X21080000Y-29900000D01*
X5080000Y-64655000D02*
X1985000Y-61560000D01*
X1985000Y-61560000D02*
X1985000Y-42223800D01*
X12581000Y-31627800D02*
X15450200Y-31627800D01*
X15450200Y-31627800D02*
X17178000Y-29900000D01*
X1985000Y-42223800D02*
X12581000Y-31627800D01*
%TO.N,A9*%
X7620000Y-64655000D02*
X11430000Y-60845000D01*
X11430000Y-60845000D02*
X11430000Y-59150100D01*
X11430000Y-59150100D02*
X22349600Y-48230500D01*
%TO.N,A8*%
X1985100Y-30328400D02*
X2279900Y-30623200D01*
X15276800Y-30623200D02*
X16000000Y-29900000D01*
X2279900Y-30623200D02*
X15276800Y-30623200D01*
X16000000Y-28200000D02*
X16000000Y-29900000D01*
%TO.N,A13*%
X70233100Y-32019800D02*
X72167700Y-32019800D01*
X74970000Y-34822100D02*
X74970000Y-55955000D01*
X72167700Y-32019800D02*
X74970000Y-34822100D01*
X67350000Y-27257500D02*
X67350000Y-29136700D01*
X74970000Y-55955000D02*
X71120000Y-59805000D01*
X62281800Y-22189300D02*
X67350000Y-27257500D01*
X14671100Y-22189300D02*
X62281800Y-22189300D01*
X67350000Y-29136700D02*
X70233100Y-32019800D01*
X13454700Y-23405700D02*
X14671100Y-22189300D01*
%TO.N,WR_N*%
X55920000Y-35820000D02*
X55920000Y-34120000D01*
X55625600Y-33825600D02*
X20664400Y-33825600D01*
X15087700Y-39402300D02*
X19175100Y-35314900D01*
X13306700Y-39402300D02*
X15087700Y-39402300D01*
X55920000Y-34120000D02*
X55625600Y-33825600D01*
X20664400Y-33825600D02*
X19175100Y-35314900D01*
%TO.N,SA17_CE2*%
X63540000Y-28200000D02*
X63540000Y-26500000D01*
X9095900Y-25784100D02*
X17558100Y-25784100D01*
X8380000Y-26500000D02*
X9095900Y-25784100D01*
X8380000Y-28200000D02*
X8380000Y-26500000D01*
X17558100Y-25784100D02*
X18265600Y-25076600D01*
X62116600Y-25076600D02*
X63540000Y-26500000D01*
X18265600Y-25076600D02*
X62116600Y-25076600D01*
%TO.N,SA15*%
X11404400Y-29900000D02*
X12190000Y-29114400D01*
X5840000Y-29900000D02*
X11404400Y-29900000D01*
X12190000Y-27260000D02*
X12911700Y-26538300D01*
X55208300Y-30611700D02*
X55920000Y-29900000D01*
X27430000Y-27269000D02*
X27430000Y-29132500D01*
X26699300Y-26538300D02*
X27430000Y-27269000D01*
X12190000Y-29114400D02*
X12190000Y-27260000D01*
X28909200Y-30611700D02*
X55208300Y-30611700D01*
X5840000Y-28200000D02*
X5840000Y-29900000D01*
X12911700Y-26538300D02*
X26699300Y-26538300D01*
X27430000Y-29132500D02*
X28909200Y-30611700D01*
X55920000Y-28200000D02*
X55920000Y-29900000D01*
%TO.N,ROMCS_N*%
X46500000Y-4000000D02*
X55000000Y-4000000D01*
%TO.N,CLK7FFD*%
X68620000Y-26500000D02*
X61620000Y-19500000D01*
X68620000Y-28200000D02*
X68620000Y-26500000D01*
X61620000Y-19500000D02*
X56000000Y-19500000D01*
%TO.N,ROMCE_N*%
X43460000Y-3500000D02*
X46500000Y-6540000D01*
X23620000Y-5200000D02*
X23620000Y-3500000D01*
X23620000Y-3500000D02*
X43460000Y-3500000D01*
%TO.N,RESET_N*%
X48381700Y-51738300D02*
X46709700Y-51738300D01*
X28780600Y-61274400D02*
X25400000Y-64655000D01*
X39370000Y-59078000D02*
X39370000Y-60277700D01*
X38373300Y-61274400D02*
X28780600Y-61274400D01*
X46709700Y-51738300D02*
X39370000Y-59078000D01*
X39370000Y-60277700D02*
X38373300Y-61274400D01*
X50800000Y-49320000D02*
X48381700Y-51738300D01*
%TO.N,BANK1*%
X73700000Y-35820000D02*
X73700000Y-37520000D01*
X67423000Y-47620000D02*
X72390000Y-42653000D01*
X60960000Y-49320000D02*
X60960000Y-47620000D01*
X72390000Y-42653000D02*
X72390000Y-38830000D01*
X72390000Y-38830000D02*
X73700000Y-37520000D01*
X60960000Y-47620000D02*
X67423000Y-47620000D01*
%TO.N,ROMA14*%
X5840000Y-5200000D02*
X5840000Y-6900000D01*
X42061500Y-21094600D02*
X58635100Y-21094600D01*
X5840000Y-6900000D02*
X27866900Y-6900000D01*
X27866900Y-6900000D02*
X42061500Y-21094600D01*
%TO.N,BANK3*%
X71160000Y-35820000D02*
X71160000Y-37520000D01*
X68680000Y-40000000D02*
X71160000Y-37520000D01*
X60960000Y-41700000D02*
X60960000Y-40000000D01*
X60960000Y-40000000D02*
X68680000Y-40000000D01*
%TO.N,BANK4*%
X68620000Y-35820000D02*
X68620000Y-37520000D01*
X54148100Y-39191900D02*
X66948100Y-39191900D01*
X53340000Y-41700000D02*
X53340000Y-40000000D01*
X66948100Y-39191900D02*
X68620000Y-37520000D01*
X53340000Y-40000000D02*
X54148100Y-39191900D01*
%TO.N,LED_A*%
X51955200Y-16584800D02*
X63455200Y-16584800D01*
X49040000Y-19500000D02*
X51955200Y-16584800D01*
X63455200Y-16584800D02*
X65540000Y-14500000D01*
%TO.N,ROMCS_BUS*%
X25175300Y-48126700D02*
X27204600Y-48126700D01*
X12700000Y-64655000D02*
X13970000Y-63385000D01*
X27204600Y-48126700D02*
X27710400Y-47620900D01*
X13970000Y-63385000D02*
X13970000Y-59332000D01*
X13970000Y-59332000D02*
X25175300Y-48126700D01*
X27710400Y-47620900D02*
X43922700Y-47620900D01*
X43922700Y-47620900D02*
X44114000Y-47429600D01*
%TO.N,MREQ_N*%
X35560000Y-59805000D02*
X44850000Y-50515000D01*
X44850000Y-50515000D02*
X47951900Y-50515000D01*
%TO.N,ZX512*%
X62150000Y-4000000D02*
X51650000Y-14500000D01*
X51650000Y-14500000D02*
X49040000Y-14500000D01*
X63500000Y-4000000D02*
X62150000Y-4000000D01*
%TO.N,A14*%
X73700000Y-24000000D02*
X73700000Y-28200000D01*
X78040000Y-64655000D02*
X78040000Y-24000000D01*
X78040000Y-24000000D02*
X73700000Y-24000000D01*
X73660000Y-64655000D02*
X78040000Y-64655000D01*
%TO.N,IORQ_N*%
X33020000Y-59805000D02*
X45450500Y-47374500D01*
X45450500Y-47374500D02*
X48827900Y-47374500D01*
%TD*%
M02*
