M48
; DRILL file KiCad 10.0.4 date 2026-08-06T21:42:36
; FORMAT={-:-/ absolute / metric / decimal}
; #@! TF.CreationDate,2026-08-06T21:42:36-03:00
; #@! TF.GenerationSoftware,Kicad,Pcbnew,10.0.4
; #@! TF.FileFunction,MixedPlating,1,4
FMAT,2
METRIC
; #@! TA.AperFunction,Plated,PTH,ViaDrill
T1C0.400
; #@! TA.AperFunction,Plated,PTH,ComponentDrill
T2C0.700
; #@! TA.AperFunction,Plated,PTH,ComponentDrill
T3C0.800
; #@! TA.AperFunction,Plated,PTH,ComponentDrill
T4C0.900
; #@! TA.AperFunction,Plated,PTH,ComponentDrill
T5C1.000
; #@! TA.AperFunction,Plated,PTH,ComponentDrill
T6C1.020
; #@! TA.AperFunction,NonPlated,NPTH,ComponentDrill
T7C2.700
%
G90
G05
T1
X4.571Y-15.818
X8.891Y-59.974
X10.92Y-31.505
X12.2Y-49.533
X24.13Y-65.01
X26.194Y-46.047
X26.387Y-33.8
X27.425Y-42.299
X32.41Y-39.072
X33.78Y-35.079
X39.591Y-34.214
X39.649Y-36.777
X39.797Y-31.505
X40.13Y-17.279
X40.449Y-52.506
X40.847Y-40.939
X41.263Y-48.413
X41.377Y-33.982
X42.307Y-6.9
X42.307Y-18.74
X43.786Y-37.436
X44.371Y-26.694
X44.403Y-57.569
X45.763Y-45.14
X46.518Y-34.335
X46.792Y-48.316
X48.722Y-44.476
X52.072Y-38.571
X52.116Y-29.98
X54.61Y-46.752
X57.19Y-33.625
X61.137Y-46.667
X67.191Y-37.941
T2
X52.0Y-19.5
X56.0Y-19.5
T3
X3.3Y-5.2
X3.3Y-20.44
X3.3Y-24.0
X3.3Y-28.2
X3.3Y-43.44
X4.0Y-52.5
X5.84Y-5.2
X5.84Y-20.44
X5.84Y-28.2
X5.84Y-43.44
X6.54Y-52.5
X8.3Y-24.0
X8.38Y-5.2
X8.38Y-20.44
X8.38Y-28.2
X8.38Y-43.44
X10.92Y-5.2
X10.92Y-20.44
X10.92Y-28.2
X10.92Y-43.44
X12.0Y-24.0
X13.46Y-5.2
X13.46Y-20.44
X13.46Y-28.2
X13.46Y-43.44
X16.0Y-5.2
X16.0Y-20.44
X16.0Y-28.2
X16.0Y-43.44
X17.0Y-24.0
X18.54Y-5.2
X18.54Y-20.44
X18.54Y-28.2
X18.54Y-43.44
X21.08Y-5.2
X21.08Y-20.44
X21.08Y-28.2
X21.08Y-43.44
X23.62Y-5.2
X23.62Y-20.44
X23.62Y-28.2
X23.62Y-43.44
X26.16Y-5.2
X26.16Y-20.44
X26.16Y-28.2
X26.16Y-43.44
X28.7Y-5.2
X28.7Y-20.44
X28.7Y-28.2
X28.7Y-43.44
X31.24Y-5.2
X31.24Y-20.44
X31.24Y-28.2
X31.24Y-43.44
X33.78Y-5.2
X33.78Y-20.44
X33.78Y-28.2
X33.78Y-43.44
X36.32Y-5.2
X36.32Y-20.44
X36.32Y-28.2
X36.32Y-43.44
X38.86Y-28.2
X38.86Y-43.44
X41.4Y-28.2
X41.4Y-43.44
X46.5Y-14.5
X47.3Y-53.0
X48.3Y-23.5
X48.3Y-28.2
X48.3Y-35.82
X49.04Y-14.5
X50.8Y-41.7
X50.8Y-49.32
X50.84Y-28.2
X50.84Y-35.82
X52.3Y-53.0
X53.3Y-23.5
X53.34Y-41.7
X53.34Y-49.32
X53.38Y-28.2
X53.38Y-35.82
X55.88Y-41.7
X55.88Y-49.32
X55.92Y-28.2
X55.92Y-35.82
X57.5Y-14.5
X58.0Y-53.0
X58.42Y-41.7
X58.42Y-49.32
X58.46Y-28.2
X58.46Y-35.82
X60.04Y-14.5
X60.96Y-41.7
X60.96Y-49.32
X61.0Y-28.2
X61.0Y-35.82
X63.0Y-14.5
X63.0Y-53.0
X63.5Y-41.7
X63.5Y-49.32
X63.54Y-28.2
X63.54Y-35.82
X65.54Y-14.5
X66.04Y-41.7
X66.04Y-49.32
X66.08Y-28.2
X66.08Y-35.82
X68.0Y-55.0
X68.58Y-41.7
X68.58Y-49.32
X68.62Y-28.2
X68.62Y-35.82
X70.0Y-55.0
X71.12Y-41.7
X71.12Y-49.32
X71.16Y-28.2
X71.16Y-35.82
X73.66Y-41.7
X73.66Y-49.32
X73.7Y-28.2
X73.7Y-35.82
X76.24Y-28.2
X76.24Y-35.82
T4
X46.5Y-19.5
X49.04Y-19.5
T5
X46.5Y-4.0
X46.5Y-6.54
X46.5Y-9.08
X55.0Y-4.0
X55.0Y-6.54
X55.0Y-9.08
X63.5Y-4.0
X63.5Y-6.54
T6
X5.08Y-58.305
X5.08Y-63.155
X7.62Y-58.305
X7.62Y-63.155
X10.16Y-58.305
X10.16Y-63.155
X12.7Y-58.305
X12.7Y-63.155
X15.24Y-58.305
X15.24Y-63.155
X17.78Y-58.305
X17.78Y-63.155
X20.32Y-58.305
X20.32Y-63.155
X22.86Y-58.305
X22.86Y-63.155
X25.4Y-58.305
X25.4Y-63.155
X27.94Y-58.305
X27.94Y-63.155
X30.48Y-58.305
X30.48Y-63.155
X33.02Y-58.305
X33.02Y-63.155
X35.56Y-58.305
X35.56Y-63.155
X38.1Y-58.305
X38.1Y-63.155
X40.64Y-58.305
X40.64Y-63.155
X43.18Y-58.305
X43.18Y-63.155
X45.72Y-58.305
X45.72Y-63.155
X48.26Y-58.305
X48.26Y-63.155
X50.8Y-58.305
X50.8Y-63.155
X53.34Y-58.305
X53.34Y-63.155
X55.88Y-58.305
X55.88Y-63.155
X58.42Y-58.305
X58.42Y-63.155
X60.96Y-58.305
X60.96Y-63.155
X66.04Y-58.305
X66.04Y-63.155
X68.58Y-58.305
X68.58Y-63.155
X71.12Y-58.305
X71.12Y-63.155
X73.66Y-58.305
X73.66Y-63.155
T7
X39.37Y-4.02
M30
