M48
; DRILL file KiCad 10.0.4 date 2026-08-06T21:04:03
; FORMAT={-:-/ absolute / metric / decimal}
; #@! TF.CreationDate,2026-08-06T21:04:03-03:00
; #@! TF.GenerationSoftware,Kicad,Pcbnew,10.0.4
; #@! TF.FileFunction,MixedPlating,1,4
FMAT,2
METRIC
; #@! TA.AperFunction,Plated,PTH,ViaDrill
T1C0.400
; #@! TA.AperFunction,Plated,PTH,ComponentDrill
T2C0.700
; #@! TA.AperFunction,Plated,PTH,ComponentDrill
T3C0.800
; #@! TA.AperFunction,Plated,PTH,ComponentDrill
T4C0.900
; #@! TA.AperFunction,Plated,PTH,ComponentDrill
T5C1.000
; #@! TA.AperFunction,Plated,PTH,ComponentDrill
T6C1.020
%
G90
G05
T1
X1.985Y-30.328
X13.307Y-39.402
X13.455Y-23.406
X14.41Y-53.779
X16.079Y-52.117
X16.51Y-61.242
X19.175Y-35.315
X20.133Y-62.548
X22.35Y-48.23
X26.16Y-34.687
X26.387Y-41.578
X30.985Y-40.837
X31.142Y-46.047
X31.142Y-48.486
X31.24Y-39.644
X32.754Y-46.38
X37.105Y-38.407
X39.763Y-20.514
X41.538Y-48.486
X42.715Y-29.743
X43.341Y-56.967
X44.114Y-47.43
X47.57Y-54.853
X47.952Y-50.515
X48.828Y-47.374
X49.527Y-45.852
X53.38Y-32.252
X55.172Y-45.484
X56.436Y-44.622
X57.477Y-38.33
X58.635Y-21.095
X59.413Y-44.845
X61.753Y-31.749
T2
X52.0Y-19.5
X56.0Y-19.5
T3
X3.3Y-5.2
X3.3Y-20.44
X3.3Y-24.0
X3.3Y-28.2
X3.3Y-43.44
X4.0Y-52.5
X5.84Y-5.2
X5.84Y-20.44
X5.84Y-28.2
X5.84Y-43.44
X6.54Y-52.5
X8.3Y-24.0
X8.38Y-5.2
X8.38Y-20.44
X8.38Y-28.2
X8.38Y-43.44
X10.92Y-5.2
X10.92Y-20.44
X10.92Y-28.2
X10.92Y-43.44
X12.0Y-24.0
X13.46Y-5.2
X13.46Y-20.44
X13.46Y-28.2
X13.46Y-43.44
X16.0Y-5.2
X16.0Y-20.44
X16.0Y-28.2
X16.0Y-43.44
X17.0Y-24.0
X18.54Y-5.2
X18.54Y-20.44
X18.54Y-28.2
X18.54Y-43.44
X21.08Y-5.2
X21.08Y-20.44
X21.08Y-28.2
X21.08Y-43.44
X23.62Y-5.2
X23.62Y-20.44
X23.62Y-28.2
X23.62Y-43.44
X26.16Y-5.2
X26.16Y-20.44
X26.16Y-28.2
X26.16Y-43.44
X28.7Y-5.2
X28.7Y-20.44
X28.7Y-28.2
X28.7Y-43.44
X31.24Y-5.2
X31.24Y-20.44
X31.24Y-28.2
X31.24Y-43.44
X33.78Y-5.2
X33.78Y-20.44
X33.78Y-28.2
X33.78Y-43.44
X36.32Y-5.2
X36.32Y-20.44
X36.32Y-28.2
X36.32Y-43.44
X38.86Y-28.2
X38.86Y-43.44
X41.4Y-28.2
X41.4Y-43.44
X46.5Y-14.5
X47.3Y-53.0
X48.3Y-23.5
X48.3Y-28.2
X48.3Y-35.82
X49.04Y-14.5
X50.8Y-41.7
X50.8Y-49.32
X50.84Y-28.2
X50.84Y-35.82
X52.3Y-53.0
X53.3Y-23.5
X53.34Y-41.7
X53.34Y-49.32
X53.38Y-28.2
X53.38Y-35.82
X55.88Y-41.7
X55.88Y-49.32
X55.92Y-28.2
X55.92Y-35.82
X57.5Y-14.5
X58.0Y-53.0
X58.42Y-41.7
X58.42Y-49.32
X58.46Y-28.2
X58.46Y-35.82
X60.04Y-14.5
X60.96Y-41.7
X60.96Y-49.32
X61.0Y-28.2
X61.0Y-35.82
X63.0Y-14.5
X63.0Y-53.0
X63.5Y-41.7
X63.5Y-49.32
X63.54Y-28.2
X63.54Y-35.82
X65.54Y-14.5
X66.04Y-41.7
X66.04Y-49.32
X66.08Y-28.2
X66.08Y-35.82
X68.0Y-55.0
X68.58Y-41.7
X68.58Y-49.32
X68.62Y-28.2
X68.62Y-35.82
X70.0Y-55.0
X71.12Y-41.7
X71.12Y-49.32
X71.16Y-28.2
X71.16Y-35.82
X73.66Y-41.7
X73.66Y-49.32
X73.7Y-28.2
X73.7Y-35.82
X76.24Y-28.2
X76.24Y-35.82
T4
X46.5Y-19.5
X49.04Y-19.5
T5
X46.5Y-4.0
X46.5Y-6.54
X46.5Y-9.08
X55.0Y-4.0
X55.0Y-6.54
X55.0Y-9.08
X63.5Y-4.0
X63.5Y-6.54
T6
X5.08Y-59.805
X5.08Y-64.655
X7.62Y-59.805
X7.62Y-64.655
X10.16Y-59.805
X10.16Y-64.655
X12.7Y-59.805
X12.7Y-64.655
X15.24Y-59.805
X15.24Y-64.655
X17.78Y-59.805
X17.78Y-64.655
X20.32Y-59.805
X20.32Y-64.655
X22.86Y-59.805
X22.86Y-64.655
X25.4Y-59.805
X25.4Y-64.655
X27.94Y-59.805
X27.94Y-64.655
X30.48Y-59.805
X30.48Y-64.655
X33.02Y-59.805
X33.02Y-64.655
X35.56Y-59.805
X35.56Y-64.655
X38.1Y-59.805
X38.1Y-64.655
X40.64Y-59.805
X40.64Y-64.655
X43.18Y-59.805
X43.18Y-64.655
X45.72Y-59.805
X45.72Y-64.655
X48.26Y-59.805
X48.26Y-64.655
X50.8Y-59.805
X50.8Y-64.655
X53.34Y-59.805
X53.34Y-64.655
X55.88Y-59.805
X55.88Y-64.655
X58.42Y-59.805
X58.42Y-64.655
X60.96Y-59.805
X60.96Y-64.655
X66.04Y-59.805
X66.04Y-64.655
X68.58Y-59.805
X68.58Y-64.655
X71.12Y-59.805
X71.12Y-64.655
X73.66Y-59.805
X73.66Y-64.655
M30
