%TF.GenerationSoftware,KiCad,Pcbnew,10.0.4*%
%TF.CreationDate,2026-07-29T22:06:22-03:00*%
%TF.ProjectId,tkmem128,746b6d65-6d31-4323-982e-6b696361645f,rev?*%
%TF.SameCoordinates,Original*%
%TF.FileFunction,Copper,L4,Bot*%
%TF.FilePolarity,Positive*%
%FSLAX46Y46*%
G04 Gerber Fmt 4.6, Leading zero omitted, Abs format (unit mm)*
G04 Created by KiCad (PCBNEW 10.0.4) date 2026-07-29 22:06:22*
%MOMM*%
%LPD*%
G01*
G04 APERTURE LIST*
G04 Aperture macros list*
%AMRoundRect*
0 Rectangle with rounded corners*
0 $1 Rounding radius*
0 $2 $3 $4 $5 $6 $7 $8 $9 X,Y pos of 4 corners*
0 Add a 4 corners polygon primitive as box body*
4,1,4,$2,$3,$4,$5,$6,$7,$8,$9,$2,$3,0*
0 Add four circle primitives for the rounded corners*
1,1,$1+$1,$2,$3*
1,1,$1+$1,$4,$5*
1,1,$1+$1,$6,$7*
1,1,$1+$1,$8,$9*
0 Add four rect primitives between the rounded corners*
20,1,$1+$1,$2,$3,$4,$5,0*
20,1,$1+$1,$4,$5,$6,$7,0*
20,1,$1+$1,$6,$7,$8,$9,0*
20,1,$1+$1,$8,$9,$2,$3,0*%
G04 Aperture macros list end*
%TA.AperFunction,ComponentPad*%
%ADD10RoundRect,0.250000X0.550000X-0.950000X0.550000X0.950000X-0.550000X0.950000X-0.550000X-0.950000X0*%
%TD*%
%TA.AperFunction,ComponentPad*%
%ADD11O,1.600000X2.400000*%
%TD*%
%TA.AperFunction,ComponentPad*%
%ADD12R,1.700000X1.700000*%
%TD*%
%TA.AperFunction,ComponentPad*%
%ADD13C,1.700000*%
%TD*%
%TA.AperFunction,ComponentPad*%
%ADD14C,1.500000*%
%TD*%
%TA.AperFunction,ComponentPad*%
%ADD15C,1.600000*%
%TD*%
%TA.AperFunction,ComponentPad*%
%ADD16RoundRect,0.250000X-0.550000X-0.550000X0.550000X-0.550000X0.550000X0.550000X-0.550000X0.550000X0*%
%TD*%
%TA.AperFunction,ComponentPad*%
%ADD17R,1.800000X1.800000*%
%TD*%
%TA.AperFunction,ComponentPad*%
%ADD18C,1.800000*%
%TD*%
%TA.AperFunction,ComponentPad*%
%ADD19R,1.500000X1.500000*%
%TD*%
%TA.AperFunction,ViaPad*%
%ADD20C,0.800000*%
%TD*%
%TA.AperFunction,Conductor*%
%ADD21C,0.500000*%
%TD*%
G04 APERTURE END LIST*
D10*
%TO.P,U3,1*%
%TO.N,SA18*%
X3300000Y-43440000D03*
D11*
%TO.P,U3,2*%
%TO.N,SA16*%
X5840000Y-43440000D03*
%TO.P,U3,3*%
%TO.N,SA14*%
X8380000Y-43440000D03*
%TO.P,U3,4*%
%TO.N,A12*%
X10920000Y-43440000D03*
%TO.P,U3,5*%
%TO.N,A7*%
X13460000Y-43440000D03*
%TO.P,U3,6*%
%TO.N,A6*%
X16000000Y-43440000D03*
%TO.P,U3,7*%
%TO.N,A5*%
X18540000Y-43440000D03*
%TO.P,U3,8*%
%TO.N,A4*%
X21080000Y-43440000D03*
%TO.P,U3,9*%
%TO.N,A3*%
X23620000Y-43440000D03*
%TO.P,U3,10*%
%TO.N,A2*%
X26160000Y-43440000D03*
%TO.P,U3,11*%
%TO.N,A1*%
X28700000Y-43440000D03*
%TO.P,U3,12*%
%TO.N,A0*%
X31240000Y-43440000D03*
%TO.P,U3,13*%
%TO.N,D0*%
X33780000Y-43440000D03*
%TO.P,U3,14*%
%TO.N,D1*%
X36320000Y-43440000D03*
%TO.P,U3,15*%
%TO.N,D2*%
X38860000Y-43440000D03*
%TO.P,U3,16*%
%TO.N,GND*%
X41400000Y-43440000D03*
%TO.P,U3,17*%
%TO.N,D3*%
X41400000Y-28200000D03*
%TO.P,U3,18*%
%TO.N,D4*%
X38860000Y-28200000D03*
%TO.P,U3,19*%
%TO.N,D5*%
X36320000Y-28200000D03*
%TO.P,U3,20*%
%TO.N,D6*%
X33780000Y-28200000D03*
%TO.P,U3,21*%
%TO.N,D7*%
X31240000Y-28200000D03*
%TO.P,U3,22*%
%TO.N,RAMCS_N*%
X28700000Y-28200000D03*
%TO.P,U3,23*%
%TO.N,A10*%
X26160000Y-28200000D03*
%TO.P,U3,24*%
%TO.N,RD_N*%
X23620000Y-28200000D03*
%TO.P,U3,25*%
%TO.N,A11*%
X21080000Y-28200000D03*
%TO.P,U3,26*%
%TO.N,A9*%
X18540000Y-28200000D03*
%TO.P,U3,27*%
%TO.N,A8*%
X16000000Y-28200000D03*
%TO.P,U3,28*%
%TO.N,A13*%
X13460000Y-28200000D03*
%TO.P,U3,29*%
%TO.N,WR_N*%
X10920000Y-28200000D03*
%TO.P,U3,30*%
%TO.N,SA17_CE2*%
X8380000Y-28200000D03*
%TO.P,U3,31*%
%TO.N,SA15*%
X5840000Y-28200000D03*
%TO.P,U3,32*%
%TO.N,+5V*%
X3300000Y-28200000D03*
%TD*%
D12*
%TO.P,JP2,1*%
%TO.N,ROMCS_N*%
X55000000Y-4000000D03*
D13*
%TO.P,JP2,2*%
%TO.N,ROMCS_DRV*%
X55000000Y-6540000D03*
%TO.P,JP2,3*%
%TO.N,+5V*%
X55000000Y-9080000D03*
%TD*%
D14*
%TO.P,TP2,1*%
%TO.N,CLK7FFD*%
X56000000Y-19500000D03*
%TD*%
D12*
%TO.P,JP1,1*%
%TO.N,ROMCS_N*%
X46500000Y-4000000D03*
D13*
%TO.P,JP1,2*%
%TO.N,ROMCE_N*%
X46500000Y-6540000D03*
%TO.P,JP1,3*%
%TO.N,+5V*%
X46500000Y-9080000D03*
%TD*%
D15*
%TO.P,C5,1*%
%TO.N,+5V*%
X58000000Y-53000000D03*
%TO.P,C5,2*%
%TO.N,GND*%
X63000000Y-53000000D03*
%TD*%
%TO.P,C4,1*%
%TO.N,+5V*%
X12000000Y-24000000D03*
%TO.P,C4,2*%
%TO.N,GND*%
X17000000Y-24000000D03*
%TD*%
D10*
%TO.P,U2,1*%
%TO.N,RESET_N*%
X50800000Y-49320000D03*
D11*
%TO.P,U2,2*%
%TO.N,BANK0*%
X53340000Y-49320000D03*
%TO.P,U2,3*%
%TO.N,D0*%
X55880000Y-49320000D03*
%TO.P,U2,4*%
%TO.N,D1*%
X58420000Y-49320000D03*
%TO.P,U2,5*%
%TO.N,BANK1*%
X60960000Y-49320000D03*
%TO.P,U2,6*%
%TO.N,BANK2*%
X63500000Y-49320000D03*
%TO.P,U2,7*%
%TO.N,D2*%
X66040000Y-49320000D03*
%TO.P,U2,8*%
%TO.N,D3*%
X68580000Y-49320000D03*
%TO.P,U2,9*%
%TO.N,VRAM*%
X71120000Y-49320000D03*
%TO.P,U2,10*%
%TO.N,GND*%
X73660000Y-49320000D03*
%TO.P,U2,11*%
%TO.N,CLK7FFD*%
X73660000Y-41700000D03*
%TO.P,U2,12*%
%TO.N,ROMA14*%
X71120000Y-41700000D03*
%TO.P,U2,13*%
%TO.N,D4*%
X68580000Y-41700000D03*
%TO.P,U2,14*%
%TO.N,D5*%
X66040000Y-41700000D03*
%TO.P,U2,15*%
%TO.N,DIS128*%
X63500000Y-41700000D03*
%TO.P,U2,16*%
%TO.N,BANK3*%
X60960000Y-41700000D03*
%TO.P,U2,17*%
%TO.N,D6*%
X58420000Y-41700000D03*
%TO.P,U2,18*%
%TO.N,D7*%
X55880000Y-41700000D03*
%TO.P,U2,19*%
%TO.N,BANK4*%
X53340000Y-41700000D03*
%TO.P,U2,20*%
%TO.N,+5V*%
X50800000Y-41700000D03*
%TD*%
D15*
%TO.P,R3,1*%
%TO.N,+5V*%
X63000000Y-14500000D03*
%TO.P,R3,2*%
%TO.N,LED_A*%
X65540000Y-14500000D03*
%TD*%
D14*
%TO.P,TP1,1*%
%TO.N,VRAM*%
X52000000Y-19500000D03*
%TD*%
D10*
%TO.P,U4,1*%
%TO.N,+5V*%
X3300000Y-20440000D03*
D11*
%TO.P,U4,2*%
%TO.N,A12*%
X5840000Y-20440000D03*
%TO.P,U4,3*%
%TO.N,A7*%
X8380000Y-20440000D03*
%TO.P,U4,4*%
%TO.N,A6*%
X10920000Y-20440000D03*
%TO.P,U4,5*%
%TO.N,A5*%
X13460000Y-20440000D03*
%TO.P,U4,6*%
%TO.N,A4*%
X16000000Y-20440000D03*
%TO.P,U4,7*%
%TO.N,A3*%
X18540000Y-20440000D03*
%TO.P,U4,8*%
%TO.N,A2*%
X21080000Y-20440000D03*
%TO.P,U4,9*%
%TO.N,A1*%
X23620000Y-20440000D03*
%TO.P,U4,10*%
%TO.N,A0*%
X26160000Y-20440000D03*
%TO.P,U4,11*%
%TO.N,D0*%
X28700000Y-20440000D03*
%TO.P,U4,12*%
%TO.N,D1*%
X31240000Y-20440000D03*
%TO.P,U4,13*%
%TO.N,D2*%
X33780000Y-20440000D03*
%TO.P,U4,14*%
%TO.N,GND*%
X36320000Y-20440000D03*
%TO.P,U4,15*%
%TO.N,D3*%
X36320000Y-5200000D03*
%TO.P,U4,16*%
%TO.N,D4*%
X33780000Y-5200000D03*
%TO.P,U4,17*%
%TO.N,D5*%
X31240000Y-5200000D03*
%TO.P,U4,18*%
%TO.N,D6*%
X28700000Y-5200000D03*
%TO.P,U4,19*%
%TO.N,D7*%
X26160000Y-5200000D03*
%TO.P,U4,20*%
%TO.N,ROMCE_N*%
X23620000Y-5200000D03*
%TO.P,U4,21*%
%TO.N,A10*%
X21080000Y-5200000D03*
%TO.P,U4,22*%
%TO.N,RD_N*%
X18540000Y-5200000D03*
%TO.P,U4,23*%
%TO.N,A11*%
X16000000Y-5200000D03*
%TO.P,U4,24*%
%TO.N,A9*%
X13460000Y-5200000D03*
%TO.P,U4,25*%
%TO.N,A8*%
X10920000Y-5200000D03*
%TO.P,U4,26*%
%TO.N,A13*%
X8380000Y-5200000D03*
%TO.P,U4,27*%
%TO.N,ROMA14*%
X5840000Y-5200000D03*
%TO.P,U4,28*%
%TO.N,+5V*%
X3300000Y-5200000D03*
%TD*%
D15*
%TO.P,C2,1*%
%TO.N,+5V*%
X47300000Y-53000000D03*
%TO.P,C2,2*%
%TO.N,GND*%
X52300000Y-53000000D03*
%TD*%
%TO.P,R5,1*%
%TO.N,ROMCS_DRV*%
X57500000Y-14500000D03*
%TO.P,R5,2*%
%TO.N,ROMCS_BUS*%
X60040000Y-14500000D03*
%TD*%
D16*
%TO.P,C6,1*%
%TO.N,+5V*%
X68000000Y-55000000D03*
D15*
%TO.P,C6,2*%
%TO.N,GND*%
X70000000Y-55000000D03*
%TD*%
D17*
%TO.P,D1,1*%
%TO.N,GND*%
X46500000Y-19500000D03*
D18*
%TO.P,D1,2*%
%TO.N,LED_A*%
X49040000Y-19500000D03*
%TD*%
D10*
%TO.P,U1,1*%
%TO.N,MREQ_N*%
X48300000Y-35820000D03*
D11*
%TO.P,U1,2*%
%TO.N,ZX512*%
X50840000Y-35820000D03*
%TO.P,U1,3*%
%TO.N,A1*%
X53380000Y-35820000D03*
%TO.P,U1,4*%
%TO.N,WR_N*%
X55920000Y-35820000D03*
%TO.P,U1,5*%
%TO.N,DIS128*%
X58460000Y-35820000D03*
%TO.P,U1,6*%
%TO.N,BANK2*%
X61000000Y-35820000D03*
%TO.P,U1,7*%
%TO.N,A5*%
X63540000Y-35820000D03*
%TO.P,U1,8*%
%TO.N,BANK0*%
X66080000Y-35820000D03*
%TO.P,U1,9*%
%TO.N,BANK4*%
X68620000Y-35820000D03*
%TO.P,U1,10*%
%TO.N,BANK3*%
X71160000Y-35820000D03*
%TO.P,U1,11*%
%TO.N,BANK1*%
X73700000Y-35820000D03*
%TO.P,U1,12*%
%TO.N,GND*%
X76240000Y-35820000D03*
%TO.P,U1,13*%
%TO.N,A15*%
X76240000Y-28200000D03*
%TO.P,U1,14*%
%TO.N,A14*%
X73700000Y-28200000D03*
%TO.P,U1,15*%
%TO.N,ROMCS_N*%
X71160000Y-28200000D03*
%TO.P,U1,16*%
%TO.N,CLK7FFD*%
X68620000Y-28200000D03*
%TO.P,U1,17*%
%TO.N,SA18*%
X66080000Y-28200000D03*
%TO.P,U1,18*%
%TO.N,SA17_CE2*%
X63540000Y-28200000D03*
%TO.P,U1,19*%
%TO.N,RAMCS_N*%
X61000000Y-28200000D03*
%TO.P,U1,20*%
%TO.N,SA16*%
X58460000Y-28200000D03*
%TO.P,U1,21*%
%TO.N,SA15*%
X55920000Y-28200000D03*
%TO.P,U1,22*%
%TO.N,SA14*%
X53380000Y-28200000D03*
%TO.P,U1,23*%
%TO.N,IORQ_N*%
X50840000Y-28200000D03*
%TO.P,U1,24*%
%TO.N,+5V*%
X48300000Y-28200000D03*
%TD*%
D15*
%TO.P,C1,1*%
%TO.N,+5V*%
X48300000Y-23500000D03*
%TO.P,C1,2*%
%TO.N,GND*%
X53300000Y-23500000D03*
%TD*%
%TO.P,C3,1*%
%TO.N,+5V*%
X3300000Y-24000000D03*
%TO.P,C3,2*%
%TO.N,GND*%
X8300000Y-24000000D03*
%TD*%
%TO.P,R4,1*%
%TO.N,+5V*%
X4000000Y-52500000D03*
%TO.P,R4,2*%
%TO.N,RAMDIS*%
X6540000Y-52500000D03*
%TD*%
%TO.P,R2,1*%
%TO.N,+5V*%
X46500000Y-14500000D03*
%TO.P,R2,2*%
%TO.N,ZX512*%
X49040000Y-14500000D03*
%TD*%
D12*
%TO.P,JP3,1*%
%TO.N,ZX512*%
X63500000Y-4000000D03*
D13*
%TO.P,JP3,2*%
%TO.N,GND*%
X63500000Y-6540000D03*
%TD*%
D19*
%TO.P,J1,1*%
%TO.N,A14*%
X73660000Y-64655000D03*
D14*
%TO.P,J1,2*%
%TO.N,A12*%
X71120000Y-64655000D03*
%TO.P,J1,3*%
%TO.N,+5V*%
X68580000Y-64655000D03*
%TO.P,J1,4*%
%TO.N,BUS_9V*%
X66040000Y-64655000D03*
%TO.P,J1,6*%
%TO.N,GND*%
X60960000Y-64655000D03*
%TO.P,J1,7*%
%TO.N,BUS_P07*%
X58420000Y-64655000D03*
%TO.P,J1,8*%
%TO.N,BUS_CLK*%
X55880000Y-64655000D03*
%TO.P,J1,9*%
%TO.N,A0*%
X53340000Y-64655000D03*
%TO.P,J1,10*%
%TO.N,A1*%
X50800000Y-64655000D03*
%TO.P,J1,11*%
%TO.N,A2*%
X48260000Y-64655000D03*
%TO.P,J1,12*%
%TO.N,A3*%
X45720000Y-64655000D03*
%TO.P,J1,13*%
%TO.N,BUS_IORQGE*%
X43180000Y-64655000D03*
%TO.P,J1,14*%
%TO.N,GND*%
X40640000Y-64655000D03*
%TO.P,J1,15*%
%TO.N,BUS_P15*%
X38100000Y-64655000D03*
%TO.P,J1,16*%
%TO.N,BUS_P16*%
X35560000Y-64655000D03*
%TO.P,J1,17*%
%TO.N,BUS_P17*%
X33020000Y-64655000D03*
%TO.P,J1,18*%
%TO.N,BUS_P18*%
X30480000Y-64655000D03*
%TO.P,J1,19*%
%TO.N,BUS_BUSREQ*%
X27940000Y-64655000D03*
%TO.P,J1,20*%
%TO.N,RESET_N*%
X25400000Y-64655000D03*
%TO.P,J1,21*%
%TO.N,A7*%
X22860000Y-64655000D03*
%TO.P,J1,22*%
%TO.N,A6*%
X20320000Y-64655000D03*
%TO.P,J1,23*%
%TO.N,A5*%
X17780000Y-64655000D03*
%TO.P,J1,24*%
%TO.N,A4*%
X15240000Y-64655000D03*
%TO.P,J1,25*%
%TO.N,ROMCS_BUS*%
X12700000Y-64655000D03*
%TO.P,J1,26*%
%TO.N,BUS_BUSACK*%
X10160000Y-64655000D03*
%TO.P,J1,27*%
%TO.N,A9*%
X7620000Y-64655000D03*
%TO.P,J1,28*%
%TO.N,A11*%
X5080000Y-64655000D03*
%TO.P,J1,29*%
%TO.N,RAMDIS*%
X5080000Y-59805000D03*
%TO.P,J1,30*%
%TO.N,A10*%
X7620000Y-59805000D03*
%TO.P,J1,31*%
%TO.N,A8*%
X10160000Y-59805000D03*
%TO.P,J1,32*%
%TO.N,BUS_RFSH*%
X12700000Y-59805000D03*
%TO.P,J1,33*%
%TO.N,BUS_M1*%
X15240000Y-59805000D03*
%TO.P,J1,34*%
%TO.N,BUS_P34*%
X17780000Y-59805000D03*
%TO.P,J1,35*%
%TO.N,BUS_P35*%
X20320000Y-59805000D03*
%TO.P,J1,36*%
%TO.N,BUS_WAIT*%
X22860000Y-59805000D03*
%TO.P,J1,37*%
%TO.N,BUS_P37*%
X25400000Y-59805000D03*
%TO.P,J1,38*%
%TO.N,WR_N*%
X27940000Y-59805000D03*
%TO.P,J1,39*%
%TO.N,RD_N*%
X30480000Y-59805000D03*
%TO.P,J1,40*%
%TO.N,IORQ_N*%
X33020000Y-59805000D03*
%TO.P,J1,41*%
%TO.N,MREQ_N*%
X35560000Y-59805000D03*
%TO.P,J1,42*%
%TO.N,BUS_HALT*%
X38100000Y-59805000D03*
%TO.P,J1,43*%
%TO.N,BUS_NMI*%
X40640000Y-59805000D03*
%TO.P,J1,44*%
%TO.N,BUS_INT*%
X43180000Y-59805000D03*
%TO.P,J1,45*%
%TO.N,D4*%
X45720000Y-59805000D03*
%TO.P,J1,46*%
%TO.N,D3*%
X48260000Y-59805000D03*
%TO.P,J1,47*%
%TO.N,D5*%
X50800000Y-59805000D03*
%TO.P,J1,48*%
%TO.N,D6*%
X53340000Y-59805000D03*
%TO.P,J1,49*%
%TO.N,D2*%
X55880000Y-59805000D03*
%TO.P,J1,50*%
%TO.N,D1*%
X58420000Y-59805000D03*
%TO.P,J1,51*%
%TO.N,D0*%
X60960000Y-59805000D03*
%TO.P,J1,53*%
%TO.N,BUS_SOUNDIN*%
X66040000Y-59805000D03*
%TO.P,J1,54*%
%TO.N,D7*%
X68580000Y-59805000D03*
%TO.P,J1,55*%
%TO.N,A13*%
X71120000Y-59805000D03*
%TO.P,J1,56*%
%TO.N,A15*%
X73660000Y-59805000D03*
%TD*%
D20*
%TO.N,SA14*%
X53380000Y-32252100D03*
%TO.N,A12*%
X43340700Y-56966700D03*
X32754400Y-46380400D03*
X14409600Y-53778600D03*
%TO.N,A7*%
X16510000Y-61241800D03*
%TO.N,A5*%
X20133200Y-62548200D03*
%TO.N,A4*%
X16079000Y-52117400D03*
%TO.N,A2*%
X31142000Y-46047500D03*
X41537900Y-48485700D03*
X31142000Y-48485700D03*
X39762900Y-20514000D03*
%TO.N,A1*%
X26387200Y-41578000D03*
X49527000Y-45851700D03*
%TO.N,D0*%
X56435900Y-44622100D03*
X30984800Y-40837100D03*
%TO.N,D1*%
X55172200Y-45483800D03*
%TO.N,D3*%
X47569700Y-54853100D03*
%TO.N,D4*%
X61752700Y-31748800D03*
%TO.N,D5*%
X42714600Y-29742800D03*
%TO.N,D6*%
X37104700Y-38406800D03*
X57476800Y-38330200D03*
X59413200Y-44844800D03*
%TO.N,D7*%
X31240000Y-39644100D03*
%TO.N,A10*%
X26160000Y-34687400D03*
%TO.N,A9*%
X22349600Y-48230500D03*
%TO.N,A8*%
X1985100Y-30328400D03*
%TO.N,A13*%
X13454700Y-23405700D03*
%TO.N,WR_N*%
X13306700Y-39402300D03*
X19175100Y-35314900D03*
%TO.N,ROMA14*%
X58635100Y-21094600D03*
%TO.N,ROMCS_BUS*%
X44114000Y-47429600D03*
%TO.N,MREQ_N*%
X47951900Y-50515000D03*
%TO.N,IORQ_N*%
X48827900Y-47374500D03*
%TD*%
%TO.N,SA14*%
D21*
X53380000Y-28200000D02*
X53380000Y-32252100D01*
%TO.N,A12*%
X10920000Y-50289000D02*
X10920000Y-43440000D01*
X5840000Y-20440000D02*
X5840000Y-22140000D01*
X4570100Y-35390100D02*
X4570100Y-23409900D01*
X43340700Y-56966700D02*
X32754400Y-46380400D01*
X10920000Y-43440000D02*
X10920000Y-41740000D01*
X4570100Y-23409900D02*
X5840000Y-22140000D01*
X10920000Y-41740000D02*
X4570100Y-35390100D01*
X14409600Y-53778600D02*
X10920000Y-50289000D01*
%TO.N,A7*%
X16940700Y-53229400D02*
X16940700Y-48620700D01*
X7110000Y-25584700D02*
X7110000Y-35390000D01*
X13460000Y-43440000D02*
X13460000Y-41740000D01*
X13460000Y-43440000D02*
X13460000Y-45140000D01*
X16510000Y-53660100D02*
X16940700Y-53229400D01*
X8380000Y-20440000D02*
X8380000Y-22140000D01*
X7110000Y-35390000D02*
X13460000Y-41740000D01*
X16940700Y-48620700D02*
X13460000Y-45140000D01*
X16510000Y-61241800D02*
X16510000Y-53660100D01*
X7003800Y-25478500D02*
X7110000Y-25584700D01*
X7003800Y-23384600D02*
X7003800Y-25478500D01*
X8248400Y-22140000D02*
X7003800Y-23384600D01*
%TO.N,A6*%
X19029000Y-48169000D02*
X19029000Y-63364000D01*
X12190000Y-26026700D02*
X10733000Y-24569700D01*
X10733000Y-24569700D02*
X10733000Y-22327000D01*
X12190000Y-36923500D02*
X12190000Y-26026700D01*
X16000000Y-43440000D02*
X16000000Y-41740000D01*
X19029000Y-63364000D02*
X20320000Y-64655000D01*
X16000000Y-40733500D02*
X12190000Y-36923500D01*
X16000000Y-41740000D02*
X16000000Y-40733500D01*
X16000000Y-43440000D02*
X16000000Y-45140000D01*
X10920000Y-20440000D02*
X10920000Y-22140000D01*
X10733000Y-22327000D02*
X10920000Y-22140000D01*
X16000000Y-45140000D02*
X19029000Y-48169000D01*
%TO.N,A5*%
X21589900Y-61091500D02*
X21589900Y-48747600D01*
X21589900Y-48747600D02*
X18540000Y-45697700D01*
X18540000Y-43440000D02*
X18540000Y-41740000D01*
X20133200Y-62548200D02*
X21589900Y-61091500D01*
X18540000Y-45697700D02*
X18540000Y-43440000D01*
X13460000Y-20440000D02*
X13460000Y-22140000D01*
X14730000Y-37930000D02*
X14730000Y-23410000D01*
X14730000Y-23410000D02*
X13460000Y-22140000D01*
X18540000Y-41740000D02*
X14730000Y-37930000D01*
%TO.N,A4*%
X21080000Y-41675400D02*
X21080000Y-43440000D01*
X16000000Y-20440000D02*
X16000000Y-22140000D01*
X17270000Y-27209400D02*
X17270000Y-33838300D01*
X14026900Y-55380000D02*
X15271300Y-54135600D01*
X16890000Y-37485400D02*
X21080000Y-41675400D01*
X15692500Y-22447500D02*
X15692500Y-25631900D01*
X15240000Y-64655000D02*
X14026900Y-63441900D01*
X15271300Y-52925100D02*
X16079000Y-52117400D01*
X14026900Y-63441900D02*
X14026900Y-55380000D01*
X17270000Y-33838300D02*
X16890000Y-34218300D01*
X15692500Y-25631900D02*
X17270000Y-27209400D01*
X16890000Y-34218300D02*
X16890000Y-37485400D01*
X15271300Y-54135600D02*
X15271300Y-52925100D01*
X16000000Y-22140000D02*
X15692500Y-22447500D01*
%TO.N,A3*%
X26633100Y-59110600D02*
X26633100Y-60249900D01*
X23620000Y-44290000D02*
X23620000Y-43440000D01*
X27657700Y-61274500D02*
X42339500Y-61274500D01*
X23620000Y-43440000D02*
X23620000Y-41740000D01*
X42339500Y-61274500D02*
X45720000Y-64655000D01*
X23620000Y-44290000D02*
X23620000Y-45140000D01*
X23620000Y-45140000D02*
X23620000Y-56097500D01*
X19810200Y-33400200D02*
X19810200Y-23410200D01*
X18313400Y-36433400D02*
X18313400Y-34897000D01*
X18313400Y-34897000D02*
X19810200Y-33400200D01*
X18540000Y-20440000D02*
X18540000Y-22140000D01*
X23620000Y-41740000D02*
X18313400Y-36433400D01*
X26633100Y-60249900D02*
X27657700Y-61274500D01*
X19810200Y-23410200D02*
X18540000Y-22140000D01*
X23620000Y-56097500D02*
X26633100Y-59110600D01*
%TO.N,A2*%
X31142000Y-46047500D02*
X44450000Y-59355500D01*
X40130100Y-20881200D02*
X39762900Y-20514000D01*
X31142000Y-46047500D02*
X31142000Y-48485700D01*
X42678500Y-38413300D02*
X40130100Y-35864900D01*
X41537900Y-45522600D02*
X42678500Y-44382000D01*
X44450000Y-59355500D02*
X44450000Y-60845000D01*
X41537900Y-48485700D02*
X41537900Y-45522600D01*
X42678500Y-44382000D02*
X42678500Y-38413300D01*
X40130100Y-35864900D02*
X40130100Y-20881200D01*
X44450000Y-60845000D02*
X48260000Y-64655000D01*
%TO.N,A1*%
X52070000Y-38830000D02*
X52070000Y-43308700D01*
X50800000Y-64655000D02*
X46990000Y-60845000D01*
X32795700Y-45140000D02*
X28700000Y-45140000D01*
X53380000Y-35820000D02*
X53380000Y-37520000D01*
X23620000Y-20440000D02*
X23620000Y-22140000D01*
X26387200Y-40365300D02*
X26387200Y-41578000D01*
X52070000Y-43308700D02*
X49527000Y-45851700D01*
X23620000Y-22142300D02*
X22350000Y-23412300D01*
X28700000Y-43440000D02*
X28700000Y-45140000D01*
X46990000Y-59334300D02*
X32795700Y-45140000D01*
X22350000Y-23412300D02*
X22350000Y-36328100D01*
X46990000Y-60845000D02*
X46990000Y-59334300D01*
X53380000Y-37520000D02*
X52070000Y-38830000D01*
X22350000Y-36328100D02*
X26387200Y-40365300D01*
%TO.N,A0*%
X24890000Y-35960900D02*
X30669100Y-41740000D01*
X49530000Y-59295200D02*
X49530000Y-60845000D01*
X31240000Y-41740000D02*
X34276600Y-41740000D01*
X46605400Y-57138200D02*
X47373000Y-57138200D01*
X26160000Y-20440000D02*
X26160000Y-24964300D01*
X26160000Y-24964300D02*
X24890000Y-26234300D01*
X47373000Y-57138200D02*
X49530000Y-59295200D01*
X35050000Y-42513400D02*
X35050000Y-45582800D01*
X30669100Y-41740000D02*
X31240000Y-41740000D01*
X49530000Y-60845000D02*
X53340000Y-64655000D01*
X34276600Y-41740000D02*
X35050000Y-42513400D01*
X24890000Y-26234300D02*
X24890000Y-35960900D01*
X31240000Y-43440000D02*
X31240000Y-41740000D01*
X35050000Y-45582800D02*
X46605400Y-57138200D01*
%TO.N,D0*%
X59690000Y-58535000D02*
X59690000Y-54302700D01*
X60960000Y-59805000D02*
X59690000Y-58535000D01*
X55880000Y-52754900D02*
X55880000Y-49320000D01*
X57427800Y-54302700D02*
X55880000Y-52754900D01*
X59690000Y-54302700D02*
X57427800Y-54302700D01*
X28700000Y-20440000D02*
X28700000Y-25643800D01*
X59690000Y-47876200D02*
X56435900Y-44622100D01*
X59690000Y-54302700D02*
X59690000Y-47876200D01*
X29970100Y-26913900D02*
X29970100Y-39822400D01*
X28700000Y-25643800D02*
X29970100Y-26913900D01*
X29970100Y-39822400D02*
X30984800Y-40837100D01*
%TO.N,D1*%
X58420000Y-59805000D02*
X54610000Y-55995000D01*
X55172200Y-47620000D02*
X58420000Y-47620000D01*
X31240000Y-20440000D02*
X31240000Y-24315200D01*
X31240000Y-24315200D02*
X32510100Y-25585300D01*
X58420000Y-49320000D02*
X58420000Y-47620000D01*
X32510100Y-35585900D02*
X36320000Y-39395800D01*
X54610000Y-55995000D02*
X54610000Y-48182200D01*
X54610000Y-48182200D02*
X55172200Y-47620000D01*
X32510100Y-25585300D02*
X32510100Y-35585900D01*
X36320000Y-39395800D02*
X36320000Y-43440000D01*
X55172200Y-47620000D02*
X55172200Y-45483800D01*
%TO.N,D2*%
X47195200Y-55714800D02*
X51789800Y-55714800D01*
X38860000Y-33471400D02*
X37590100Y-32201500D01*
X38860000Y-43440000D02*
X38860000Y-33471400D01*
X38860000Y-45140000D02*
X38860000Y-47379600D01*
X37590100Y-32201500D02*
X37590100Y-25950100D01*
X38860000Y-43440000D02*
X38860000Y-45140000D01*
X33780000Y-20440000D02*
X33780000Y-22140000D01*
X38860000Y-47379600D02*
X47195200Y-55714800D01*
X37590100Y-25950100D02*
X33780000Y-22140000D01*
X51789800Y-55714800D02*
X55880000Y-59805000D01*
%TO.N,D3*%
X41400000Y-28200000D02*
X41400000Y-29900000D01*
X43211100Y-50724100D02*
X43211100Y-44856000D01*
X41400000Y-11980000D02*
X41400000Y-28200000D01*
X36320000Y-5200000D02*
X36320000Y-6900000D01*
X47340100Y-54853100D02*
X43211100Y-50724100D01*
X36320000Y-6900000D02*
X41400000Y-11980000D01*
X43432200Y-31932200D02*
X41400000Y-29900000D01*
X43211100Y-44856000D02*
X43432200Y-44634900D01*
X43432200Y-44634900D02*
X43432200Y-31932200D01*
X47569700Y-54853100D02*
X47340100Y-54853100D01*
%TO.N,D4*%
X64810000Y-36761300D02*
X64810000Y-34806100D01*
X38860000Y-11980000D02*
X38860000Y-28200000D01*
X68048700Y-40000000D02*
X64810000Y-36761300D01*
X68580000Y-41700000D02*
X68580000Y-40000000D01*
X64810000Y-34806100D02*
X61752700Y-31748800D01*
X33780000Y-6900000D02*
X38860000Y-11980000D01*
X33780000Y-5200000D02*
X33780000Y-6900000D01*
X68580000Y-40000000D02*
X68048700Y-40000000D01*
%TO.N,D5*%
X38019600Y-37988600D02*
X36320000Y-36289000D01*
X37590200Y-39254500D02*
X38019600Y-38825100D01*
X69850000Y-60290300D02*
X69086300Y-61054000D01*
X36320000Y-36289000D02*
X36320000Y-28200000D01*
X37590200Y-47116400D02*
X37590200Y-39254500D01*
X50800000Y-59805000D02*
X50800000Y-59499000D01*
X66703800Y-52373800D02*
X66703800Y-56167500D01*
X31240000Y-3500000D02*
X36840300Y-3500000D01*
X38019600Y-38825100D02*
X38019600Y-37988600D01*
X50800000Y-59499000D02*
X47727500Y-56426500D01*
X66040000Y-43400000D02*
X67309900Y-44669900D01*
X31240000Y-5200000D02*
X31240000Y-3500000D01*
X47727500Y-56426500D02*
X46900300Y-56426500D01*
X52049000Y-61054000D02*
X50800000Y-59805000D01*
X66040000Y-41700000D02*
X66040000Y-43400000D01*
X66703800Y-56167500D02*
X69850000Y-59313700D01*
X69086300Y-61054000D02*
X52049000Y-61054000D01*
X67309900Y-51767700D02*
X66703800Y-52373800D01*
X46900300Y-56426500D02*
X37590200Y-47116400D01*
X69850000Y-59313700D02*
X69850000Y-60290300D01*
X36840300Y-3500000D02*
X42714600Y-9374300D01*
X67309900Y-44669900D02*
X67309900Y-51767700D01*
X42714600Y-9374300D02*
X42714600Y-29742800D01*
%TO.N,D6*%
X58420000Y-41700000D02*
X58420000Y-39273400D01*
X59413200Y-44844800D02*
X59413200Y-44393200D01*
X32509900Y-23782300D02*
X33780000Y-25052400D01*
X37104700Y-38406800D02*
X33780000Y-35082100D01*
X28700000Y-5200000D02*
X28700000Y-6900000D01*
X28700000Y-6900000D02*
X32509900Y-10709900D01*
X58420000Y-39273400D02*
X57476800Y-38330200D01*
X32509900Y-10709900D02*
X32509900Y-23782300D01*
X33780000Y-35082100D02*
X33780000Y-28200000D01*
X59413200Y-44393200D02*
X58420000Y-43400000D01*
X58420000Y-41700000D02*
X58420000Y-43400000D01*
X33780000Y-25052400D02*
X33780000Y-28200000D01*
%TO.N,D7*%
X65958600Y-57183600D02*
X68580000Y-59805000D01*
X31240000Y-28200000D02*
X31240000Y-26500000D01*
X26160000Y-6900000D02*
X29968500Y-10708500D01*
X65958600Y-54136900D02*
X65958600Y-57183600D01*
X62230000Y-50408300D02*
X65958600Y-54136900D01*
X29968500Y-10708500D02*
X29968500Y-25228500D01*
X59596200Y-45706500D02*
X62230000Y-48340300D01*
X62230000Y-48340300D02*
X62230000Y-50408300D01*
X59056300Y-45706500D02*
X59596200Y-45706500D01*
X55880000Y-41700000D02*
X55880000Y-43400000D01*
X29968500Y-25228500D02*
X31240000Y-26500000D01*
X31240000Y-28200000D02*
X31240000Y-39644100D01*
X55880000Y-43400000D02*
X56749800Y-43400000D01*
X26160000Y-5200000D02*
X26160000Y-6900000D01*
X56749800Y-43400000D02*
X59056300Y-45706500D01*
%TO.N,A10*%
X21080000Y-6900000D02*
X27429900Y-13249900D01*
X27429900Y-25230100D02*
X26160000Y-26500000D01*
X26160000Y-28200000D02*
X26160000Y-26500000D01*
X26160000Y-28200000D02*
X26160000Y-34687400D01*
X27429900Y-13249900D02*
X27429900Y-25230100D01*
X21080000Y-5200000D02*
X21080000Y-6900000D01*
%TO.N,RD_N*%
X27438300Y-39674400D02*
X23620000Y-35856100D01*
X18540000Y-5200000D02*
X18540000Y-6900000D01*
X30480000Y-59805000D02*
X27438300Y-56763300D01*
X18540000Y-6900000D02*
X24889900Y-13249900D01*
X27438300Y-56763300D02*
X27438300Y-39674400D01*
X23620000Y-28200000D02*
X23620000Y-26500000D01*
X24889900Y-13249900D02*
X24889900Y-25227800D01*
X24889900Y-25227800D02*
X23620000Y-26497700D01*
X23620000Y-35856100D02*
X23620000Y-28200000D01*
%TO.N,A11*%
X22350000Y-22405700D02*
X22350000Y-13344200D01*
X22350000Y-13344200D02*
X16000000Y-6994200D01*
X21080000Y-23675700D02*
X22350000Y-22405700D01*
X21080000Y-28200000D02*
X21080000Y-23675700D01*
X16000000Y-6994200D02*
X16000000Y-5200000D01*
%TO.N,A9*%
X18540000Y-33574900D02*
X17601700Y-34513200D01*
X17270200Y-22177900D02*
X17270200Y-10710200D01*
X17270200Y-10710200D02*
X13460000Y-6900000D01*
X18540000Y-23447700D02*
X17270200Y-22177900D01*
X18540000Y-29900000D02*
X18540000Y-33574900D01*
X17601700Y-34513200D02*
X17601700Y-37190400D01*
X22349600Y-41938300D02*
X22349600Y-48230500D01*
X18540000Y-28200000D02*
X18540000Y-29900000D01*
X13460000Y-5200000D02*
X13460000Y-6900000D01*
X17601700Y-37190400D02*
X22349600Y-41938300D01*
X18540000Y-28200000D02*
X18540000Y-23447700D01*
%TO.N,A8*%
X4578300Y-4273000D02*
X4578300Y-14864900D01*
X1985100Y-17458100D02*
X1985100Y-30328400D01*
X1985200Y-37375200D02*
X1985200Y-30328400D01*
X7109900Y-42499900D02*
X1985200Y-37375200D01*
X10920000Y-3500000D02*
X5351300Y-3500000D01*
X10160000Y-59805000D02*
X10160000Y-52028200D01*
X4578300Y-14864900D02*
X1985100Y-17458100D01*
X5351300Y-3500000D02*
X4578300Y-4273000D01*
X10920000Y-5200000D02*
X10920000Y-3500000D01*
X7109900Y-48978100D02*
X7109900Y-42499900D01*
X10160000Y-52028200D02*
X7109900Y-48978100D01*
%TO.N,A13*%
X12190000Y-22141000D02*
X13454700Y-23405700D01*
X8380000Y-6900000D02*
X12190000Y-10710000D01*
X8380000Y-5200000D02*
X8380000Y-6900000D01*
X13460000Y-28200000D02*
X13460000Y-23411000D01*
X12190000Y-10710000D02*
X12190000Y-22141000D01*
%TO.N,WR_N*%
X27940000Y-59805000D02*
X27940000Y-59055700D01*
X10920000Y-37015600D02*
X13306700Y-39402300D01*
X24890000Y-41029800D02*
X19175100Y-35314900D01*
X10920000Y-28200000D02*
X10920000Y-37015600D01*
X27940000Y-59055700D02*
X24890000Y-56005700D01*
X24890000Y-56005700D02*
X24890000Y-41029800D01*
%TO.N,ROMCS_N*%
X71160000Y-28200000D02*
X71160000Y-18309800D01*
X71160000Y-18309800D02*
X56850200Y-4000000D01*
X56850200Y-4000000D02*
X55000000Y-4000000D01*
%TO.N,ROMCS_DRV*%
X58779600Y-15779600D02*
X60551300Y-15779600D01*
X61338400Y-14992500D02*
X61338400Y-12878400D01*
X57500000Y-14500000D02*
X58779600Y-15779600D01*
X60551300Y-15779600D02*
X61338400Y-14992500D01*
X61338400Y-12878400D02*
X55000000Y-6540000D01*
%TO.N,CLK7FFD*%
X73660000Y-41700000D02*
X73660000Y-40000000D01*
X72429900Y-38769900D02*
X73660000Y-40000000D01*
X72429900Y-33709900D02*
X72429900Y-38769900D01*
X68620000Y-28200000D02*
X68620000Y-29900000D01*
X68620000Y-29900000D02*
X72429900Y-33709900D01*
%TO.N,BANK0*%
X53340000Y-43917100D02*
X54610000Y-42647100D01*
X54650000Y-37785700D02*
X54650000Y-34896400D01*
X54650000Y-34896400D02*
X58691400Y-30855000D01*
X58691400Y-30855000D02*
X62089100Y-30855000D01*
X66080000Y-34845900D02*
X66080000Y-35820000D01*
X53340000Y-49320000D02*
X53340000Y-43917100D01*
X62089100Y-30855000D02*
X66080000Y-34845900D01*
X54610000Y-42647100D02*
X54610000Y-37825700D01*
%TO.N,BANK2*%
X61000000Y-35820000D02*
X61000000Y-37520000D01*
X61000000Y-37520000D02*
X62229900Y-38749900D01*
X63500000Y-46091400D02*
X63500000Y-49320000D01*
X62229900Y-38749900D02*
X62229900Y-44821300D01*
X62229900Y-44821300D02*
X63500000Y-46091400D01*
%TO.N,VRAM*%
X62261700Y-29797300D02*
X67341700Y-34877300D01*
X69850100Y-39278500D02*
X69850100Y-46350100D01*
X69850100Y-46350100D02*
X71120000Y-47620000D01*
X57991300Y-22951400D02*
X62261700Y-27221800D01*
X67341700Y-36770100D02*
X69850100Y-39278500D01*
X71120000Y-49320000D02*
X71120000Y-47620000D01*
X55451400Y-22951400D02*
X57991300Y-22951400D01*
X52000000Y-19500000D02*
X55451400Y-22951400D01*
X62261700Y-27221800D02*
X62261700Y-29797300D01*
X67341700Y-34877300D02*
X67341700Y-36770100D01*
%TO.N,ROMA14*%
X71120000Y-39108400D02*
X69890000Y-37878400D01*
X71120000Y-41700000D02*
X71120000Y-39108400D01*
X64810000Y-29808900D02*
X64810000Y-27269500D01*
X69890000Y-37878400D02*
X69890000Y-34888900D01*
X64810000Y-27269500D02*
X58635100Y-21094600D01*
X69890000Y-34888900D02*
X64810000Y-29808900D01*
%TO.N,DIS128*%
X58460000Y-34120000D02*
X61490100Y-34120000D01*
X58460000Y-35820000D02*
X58460000Y-34120000D01*
X63500000Y-38351300D02*
X63500000Y-41700000D01*
X62270000Y-37121300D02*
X63500000Y-38351300D01*
X61490100Y-34120000D02*
X62270000Y-34899900D01*
X62270000Y-34899900D02*
X62270000Y-37121300D01*
%TO.N,ROMCS_BUS*%
X60040000Y-14500000D02*
X58731200Y-13191200D01*
X44634400Y-46909200D02*
X44114000Y-47429600D01*
X46005600Y-13191200D02*
X44634400Y-14562400D01*
X44634400Y-14562400D02*
X44634400Y-46909200D01*
X58731200Y-13191200D02*
X46005600Y-13191200D01*
%TO.N,MREQ_N*%
X47951900Y-36168100D02*
X47951900Y-50515000D01*
X48300000Y-35820000D02*
X47951900Y-36168100D01*
%TO.N,ZX512*%
X49040000Y-14500000D02*
X50626100Y-16086100D01*
X50626100Y-24190200D02*
X52110000Y-25674100D01*
X52110000Y-32850000D02*
X50840000Y-34120000D01*
X50840000Y-35820000D02*
X50840000Y-34120000D01*
X50626100Y-16086100D02*
X50626100Y-24190200D01*
X52110000Y-25674100D02*
X52110000Y-32850000D01*
%TO.N,A15*%
X73660000Y-59805000D02*
X74970000Y-58495000D01*
X74970000Y-31170000D02*
X76240000Y-29900000D01*
X76240000Y-28200000D02*
X76240000Y-29900000D01*
X74970000Y-58495000D02*
X74970000Y-31170000D01*
%TO.N,IORQ_N*%
X50840000Y-28200000D02*
X50840000Y-29900000D01*
X50840000Y-29900000D02*
X49578300Y-31161700D01*
X48663600Y-41652100D02*
X48663600Y-47210200D01*
X49578300Y-31161700D02*
X49578300Y-40737400D01*
X48663600Y-47210200D02*
X48827900Y-47374500D01*
X49578300Y-40737400D02*
X48663600Y-41652100D01*
%TO.N,RAMDIS*%
X6540000Y-58345000D02*
X6540000Y-52500000D01*
X5080000Y-59805000D02*
X6540000Y-58345000D01*
%TD*%
M02*
