%TF.GenerationSoftware,KiCad,Pcbnew,10.0.4*%
%TF.CreationDate,2026-07-27T01:33:31-03:00*%
%TF.ProjectId,tkmem128,746b6d65-6d31-4323-982e-6b696361645f,rev?*%
%TF.SameCoordinates,Original*%
%TF.FileFunction,Copper,L2,Bot*%
%TF.FilePolarity,Positive*%
%FSLAX46Y46*%
G04 Gerber Fmt 4.6, Leading zero omitted, Abs format (unit mm)*
G04 Created by KiCad (PCBNEW 10.0.4) date 2026-07-27 01:33:31*
%MOMM*%
%LPD*%
G01*
G04 APERTURE LIST*
G04 Aperture macros list*
%AMRoundRect*
0 Rectangle with rounded corners*
0 $1 Rounding radius*
0 $2 $3 $4 $5 $6 $7 $8 $9 X,Y pos of 4 corners*
0 Add a 4 corners polygon primitive as box body*
4,1,4,$2,$3,$4,$5,$6,$7,$8,$9,$2,$3,0*
0 Add four circle primitives for the rounded corners*
1,1,$1+$1,$2,$3*
1,1,$1+$1,$4,$5*
1,1,$1+$1,$6,$7*
1,1,$1+$1,$8,$9*
0 Add four rect primitives between the rounded corners*
20,1,$1+$1,$2,$3,$4,$5,0*
20,1,$1+$1,$4,$5,$6,$7,0*
20,1,$1+$1,$6,$7,$8,$9,0*
20,1,$1+$1,$8,$9,$2,$3,0*%
G04 Aperture macros list end*
%TA.AperFunction,ComponentPad*%
%ADD10RoundRect,0.250000X-0.950000X-0.550000X0.950000X-0.550000X0.950000X0.550000X-0.950000X0.550000X0*%
%TD*%
%TA.AperFunction,ComponentPad*%
%ADD11O,2.400000X1.600000*%
%TD*%
%TA.AperFunction,ComponentPad*%
%ADD12R,1.700000X1.700000*%
%TD*%
%TA.AperFunction,ComponentPad*%
%ADD13C,1.700000*%
%TD*%
%TA.AperFunction,ComponentPad*%
%ADD14C,1.500000*%
%TD*%
%TA.AperFunction,ComponentPad*%
%ADD15C,1.600000*%
%TD*%
%TA.AperFunction,ComponentPad*%
%ADD16R,1.750000X1.750000*%
%TD*%
%TA.AperFunction,ComponentPad*%
%ADD17C,1.750000*%
%TD*%
%TA.AperFunction,ComponentPad*%
%ADD18RoundRect,0.250000X-0.550000X-0.550000X0.550000X-0.550000X0.550000X0.550000X-0.550000X0.550000X0*%
%TD*%
%TA.AperFunction,ComponentPad*%
%ADD19R,1.800000X1.800000*%
%TD*%
%TA.AperFunction,ComponentPad*%
%ADD20C,1.800000*%
%TD*%
%TA.AperFunction,ViaPad*%
%ADD21C,0.700000*%
%TD*%
%TA.AperFunction,ViaPad*%
%ADD22C,0.900000*%
%TD*%
%TA.AperFunction,Conductor*%
%ADD23C,0.250000*%
%TD*%
%TA.AperFunction,Conductor*%
%ADD24C,0.600000*%
%TD*%
G04 APERTURE END LIST*
D10*
%TO.P,U3,1*%
%TO.N,SA18*%
X6350000Y-5080000D03*
D11*
%TO.P,U3,2*%
%TO.N,SA16*%
X6350000Y-7620000D03*
%TO.P,U3,3*%
%TO.N,SA14*%
X6350000Y-10160000D03*
%TO.P,U3,4*%
%TO.N,A12*%
X6350000Y-12700000D03*
%TO.P,U3,5*%
%TO.N,A7*%
X6350000Y-15240000D03*
%TO.P,U3,6*%
%TO.N,A6*%
X6350000Y-17780000D03*
%TO.P,U3,7*%
%TO.N,A5*%
X6350000Y-20320000D03*
%TO.P,U3,8*%
%TO.N,A4*%
X6350000Y-22860000D03*
%TO.P,U3,9*%
%TO.N,A3*%
X6350000Y-25400000D03*
%TO.P,U3,10*%
%TO.N,A2*%
X6350000Y-27940000D03*
%TO.P,U3,11*%
%TO.N,A1*%
X6350000Y-30480000D03*
%TO.P,U3,12*%
%TO.N,A0*%
X6350000Y-33020000D03*
%TO.P,U3,13*%
%TO.N,D0*%
X6350000Y-35560000D03*
%TO.P,U3,14*%
%TO.N,D1*%
X6350000Y-38100000D03*
%TO.P,U3,15*%
%TO.N,D2*%
X6350000Y-40640000D03*
%TO.P,U3,16*%
%TO.N,GND*%
X6350000Y-43180000D03*
%TO.P,U3,17*%
%TO.N,D3*%
X21590000Y-43180000D03*
%TO.P,U3,18*%
%TO.N,D4*%
X21590000Y-40640000D03*
%TO.P,U3,19*%
%TO.N,D5*%
X21590000Y-38100000D03*
%TO.P,U3,20*%
%TO.N,D6*%
X21590000Y-35560000D03*
%TO.P,U3,21*%
%TO.N,D7*%
X21590000Y-33020000D03*
%TO.P,U3,22*%
%TO.N,RAMCS_N*%
X21590000Y-30480000D03*
%TO.P,U3,23*%
%TO.N,A10*%
X21590000Y-27940000D03*
%TO.P,U3,24*%
%TO.N,RD_N*%
X21590000Y-25400000D03*
%TO.P,U3,25*%
%TO.N,A11*%
X21590000Y-22860000D03*
%TO.P,U3,26*%
%TO.N,A9*%
X21590000Y-20320000D03*
%TO.P,U3,27*%
%TO.N,A8*%
X21590000Y-17780000D03*
%TO.P,U3,28*%
%TO.N,A13*%
X21590000Y-15240000D03*
%TO.P,U3,29*%
%TO.N,WR_N*%
X21590000Y-12700000D03*
%TO.P,U3,30*%
%TO.N,SA17_CE2*%
X21590000Y-10160000D03*
%TO.P,U3,31*%
%TO.N,SA15*%
X21590000Y-7620000D03*
%TO.P,U3,32*%
%TO.N,+5V*%
X21590000Y-5080000D03*
%TD*%
D12*
%TO.P,JP2,1*%
%TO.N,ROMCS_N*%
X71500000Y-17000000D03*
D13*
%TO.P,JP2,2*%
%TO.N,ROMCS_DRV*%
X71500000Y-19540000D03*
%TO.P,JP2,3*%
%TO.N,+5V*%
X71500000Y-22080000D03*
%TD*%
D14*
%TO.P,TP2,1*%
%TO.N,CLK7FFD*%
X64000000Y-47200000D03*
%TD*%
D12*
%TO.P,JP1,1*%
%TO.N,ROMCS_N*%
X71500000Y-8000000D03*
D13*
%TO.P,JP1,2*%
%TO.N,ROMCE_N*%
X71500000Y-10540000D03*
%TO.P,JP1,3*%
%TO.N,+5V*%
X71500000Y-13080000D03*
%TD*%
D15*
%TO.P,C5,1*%
%TO.N,+5V*%
X36000000Y-47200000D03*
%TO.P,C5,2*%
%TO.N,GND*%
X41000000Y-47200000D03*
%TD*%
%TO.P,C4,1*%
%TO.N,+5V*%
X12000000Y-47200000D03*
%TO.P,C4,2*%
%TO.N,GND*%
X17000000Y-47200000D03*
%TD*%
D10*
%TO.P,U2,1*%
%TO.N,RESET_N*%
X59690000Y-12700000D03*
D11*
%TO.P,U2,2*%
%TO.N,BANK0*%
X59690000Y-15240000D03*
%TO.P,U2,3*%
%TO.N,D0*%
X59690000Y-17780000D03*
%TO.P,U2,4*%
%TO.N,D1*%
X59690000Y-20320000D03*
%TO.P,U2,5*%
%TO.N,BANK1*%
X59690000Y-22860000D03*
%TO.P,U2,6*%
%TO.N,BANK2*%
X59690000Y-25400000D03*
%TO.P,U2,7*%
%TO.N,D2*%
X59690000Y-27940000D03*
%TO.P,U2,8*%
%TO.N,D3*%
X59690000Y-30480000D03*
%TO.P,U2,9*%
%TO.N,VRAM*%
X59690000Y-33020000D03*
%TO.P,U2,10*%
%TO.N,GND*%
X59690000Y-35560000D03*
%TO.P,U2,11*%
%TO.N,CLK7FFD*%
X67310000Y-35560000D03*
%TO.P,U2,12*%
%TO.N,ROMA14*%
X67310000Y-33020000D03*
%TO.P,U2,13*%
%TO.N,D4*%
X67310000Y-30480000D03*
%TO.P,U2,14*%
%TO.N,D5*%
X67310000Y-27940000D03*
%TO.P,U2,15*%
%TO.N,DIS128*%
X67310000Y-25400000D03*
%TO.P,U2,16*%
%TO.N,BANK3*%
X67310000Y-22860000D03*
%TO.P,U2,17*%
%TO.N,D6*%
X67310000Y-20320000D03*
%TO.P,U2,18*%
%TO.N,D7*%
X67310000Y-17780000D03*
%TO.P,U2,19*%
%TO.N,BANK4*%
X67310000Y-15240000D03*
%TO.P,U2,20*%
%TO.N,+5V*%
X67310000Y-12700000D03*
%TD*%
D15*
%TO.P,R3,1*%
%TO.N,+5V*%
X23000000Y-53300000D03*
%TO.P,R3,2*%
%TO.N,LED_A*%
X25540000Y-53300000D03*
%TD*%
D14*
%TO.P,TP1,1*%
%TO.N,VRAM*%
X60000000Y-47200000D03*
%TD*%
D10*
%TO.P,U4,1*%
%TO.N,+5V*%
X26670000Y-7620000D03*
D11*
%TO.P,U4,2*%
%TO.N,A12*%
X26670000Y-10160000D03*
%TO.P,U4,3*%
%TO.N,A7*%
X26670000Y-12700000D03*
%TO.P,U4,4*%
%TO.N,A6*%
X26670000Y-15240000D03*
%TO.P,U4,5*%
%TO.N,A5*%
X26670000Y-17780000D03*
%TO.P,U4,6*%
%TO.N,A4*%
X26670000Y-20320000D03*
%TO.P,U4,7*%
%TO.N,A3*%
X26670000Y-22860000D03*
%TO.P,U4,8*%
%TO.N,A2*%
X26670000Y-25400000D03*
%TO.P,U4,9*%
%TO.N,A1*%
X26670000Y-27940000D03*
%TO.P,U4,10*%
%TO.N,A0*%
X26670000Y-30480000D03*
%TO.P,U4,11*%
%TO.N,D0*%
X26670000Y-33020000D03*
%TO.P,U4,12*%
%TO.N,D1*%
X26670000Y-35560000D03*
%TO.P,U4,13*%
%TO.N,D2*%
X26670000Y-38100000D03*
%TO.P,U4,14*%
%TO.N,GND*%
X26670000Y-40640000D03*
%TO.P,U4,15*%
%TO.N,D3*%
X41910000Y-40640000D03*
%TO.P,U4,16*%
%TO.N,D4*%
X41910000Y-38100000D03*
%TO.P,U4,17*%
%TO.N,D5*%
X41910000Y-35560000D03*
%TO.P,U4,18*%
%TO.N,D6*%
X41910000Y-33020000D03*
%TO.P,U4,19*%
%TO.N,D7*%
X41910000Y-30480000D03*
%TO.P,U4,20*%
%TO.N,ROMCE_N*%
X41910000Y-27940000D03*
%TO.P,U4,21*%
%TO.N,A10*%
X41910000Y-25400000D03*
%TO.P,U4,22*%
%TO.N,RD_N*%
X41910000Y-22860000D03*
%TO.P,U4,23*%
%TO.N,A11*%
X41910000Y-20320000D03*
%TO.P,U4,24*%
%TO.N,A9*%
X41910000Y-17780000D03*
%TO.P,U4,25*%
%TO.N,A8*%
X41910000Y-15240000D03*
%TO.P,U4,26*%
%TO.N,A13*%
X41910000Y-12700000D03*
%TO.P,U4,27*%
%TO.N,ROMA14*%
X41910000Y-10160000D03*
%TO.P,U4,28*%
%TO.N,+5V*%
X41910000Y-7620000D03*
%TD*%
D15*
%TO.P,C2,1*%
%TO.N,+5V*%
X28000000Y-47200000D03*
%TO.P,C2,2*%
%TO.N,GND*%
X33000000Y-47200000D03*
%TD*%
D12*
%TO.P,JP4,1*%
%TO.N,RAMDIS_DRV*%
X71500000Y-33500000D03*
D13*
%TO.P,JP4,2*%
%TO.N,RAMDIS*%
X71500000Y-36040000D03*
%TD*%
D15*
%TO.P,R5,1*%
%TO.N,ROMCS_DRV*%
X17000000Y-53300000D03*
%TO.P,R5,2*%
%TO.N,ROMCS_BUS*%
X19540000Y-53300000D03*
%TD*%
D16*
%TO.P,J1,1*%
%TO.N,A14*%
X5080000Y-59805000D03*
D17*
%TO.P,J1,2*%
%TO.N,A12*%
X7620000Y-59805000D03*
%TO.P,J1,3*%
%TO.N,+5V*%
X10160000Y-59805000D03*
%TO.P,J1,4*%
%TO.N,BUS_9V*%
X12700000Y-59805000D03*
%TO.P,J1,5*%
%TO.N,GND*%
X15240000Y-59805000D03*
%TO.P,J1,6*%
X17780000Y-59805000D03*
%TO.P,J1,7*%
%TO.N,BUS_P07*%
X20320000Y-59805000D03*
%TO.P,J1,8*%
%TO.N,BUS_CLK*%
X22860000Y-59805000D03*
%TO.P,J1,9*%
%TO.N,A0*%
X25400000Y-59805000D03*
%TO.P,J1,10*%
%TO.N,A1*%
X27940000Y-59805000D03*
%TO.P,J1,11*%
%TO.N,A2*%
X30480000Y-59805000D03*
%TO.P,J1,12*%
%TO.N,A3*%
X33020000Y-59805000D03*
%TO.P,J1,13*%
%TO.N,BUS_IORQGE*%
X35560000Y-59805000D03*
%TO.P,J1,14*%
%TO.N,GND*%
X38100000Y-59805000D03*
%TO.P,J1,15*%
%TO.N,BUS_P15*%
X40640000Y-59805000D03*
%TO.P,J1,16*%
%TO.N,BUS_P16*%
X43180000Y-59805000D03*
%TO.P,J1,17*%
%TO.N,RAMDIS*%
X45720000Y-59805000D03*
%TO.P,J1,18*%
%TO.N,BUS_P18*%
X48260000Y-59805000D03*
%TO.P,J1,19*%
%TO.N,BUS_BUSREQ*%
X50800000Y-59805000D03*
%TO.P,J1,20*%
%TO.N,RESET_N*%
X53340000Y-59805000D03*
%TO.P,J1,21*%
%TO.N,A7*%
X55880000Y-59805000D03*
%TO.P,J1,22*%
%TO.N,A6*%
X58420000Y-59805000D03*
%TO.P,J1,23*%
%TO.N,A5*%
X60960000Y-59805000D03*
%TO.P,J1,24*%
%TO.N,A4*%
X63500000Y-59805000D03*
%TO.P,J1,25*%
%TO.N,ROMCS_BUS*%
X66040000Y-59805000D03*
%TO.P,J1,26*%
%TO.N,BUS_BUSACK*%
X68580000Y-59805000D03*
%TO.P,J1,27*%
%TO.N,A9*%
X71120000Y-59805000D03*
%TO.P,J1,28*%
%TO.N,A11*%
X73660000Y-59805000D03*
%TO.P,J1,29*%
%TO.N,BUS_P29*%
X73660000Y-64655000D03*
%TO.P,J1,30*%
%TO.N,A10*%
X71120000Y-64655000D03*
%TO.P,J1,31*%
%TO.N,A8*%
X68580000Y-64655000D03*
%TO.P,J1,32*%
%TO.N,BUS_RFSH*%
X66040000Y-64655000D03*
%TO.P,J1,33*%
%TO.N,BUS_M1*%
X63500000Y-64655000D03*
%TO.P,J1,34*%
%TO.N,BUS_P34*%
X60960000Y-64655000D03*
%TO.P,J1,35*%
%TO.N,BUS_P35*%
X58420000Y-64655000D03*
%TO.P,J1,36*%
%TO.N,BUS_WAIT*%
X55880000Y-64655000D03*
%TO.P,J1,37*%
%TO.N,BUS_P37*%
X53340000Y-64655000D03*
%TO.P,J1,38*%
%TO.N,WR_N*%
X50800000Y-64655000D03*
%TO.P,J1,39*%
%TO.N,RD_N*%
X48260000Y-64655000D03*
%TO.P,J1,40*%
%TO.N,IORQ_N*%
X45720000Y-64655000D03*
%TO.P,J1,41*%
%TO.N,MREQ_N*%
X43180000Y-64655000D03*
%TO.P,J1,42*%
%TO.N,BUS_HALT*%
X40640000Y-64655000D03*
%TO.P,J1,43*%
%TO.N,BUS_NMI*%
X38100000Y-64655000D03*
%TO.P,J1,44*%
%TO.N,BUS_INT*%
X35560000Y-64655000D03*
%TO.P,J1,45*%
%TO.N,D4*%
X33020000Y-64655000D03*
%TO.P,J1,46*%
%TO.N,D3*%
X30480000Y-64655000D03*
%TO.P,J1,47*%
%TO.N,D5*%
X27940000Y-64655000D03*
%TO.P,J1,48*%
%TO.N,D6*%
X25400000Y-64655000D03*
%TO.P,J1,49*%
%TO.N,D2*%
X22860000Y-64655000D03*
%TO.P,J1,50*%
%TO.N,D1*%
X20320000Y-64655000D03*
%TO.P,J1,51*%
%TO.N,D0*%
X17780000Y-64655000D03*
%TO.P,J1,52*%
%TO.N,GND*%
X15240000Y-64655000D03*
%TO.P,J1,53*%
%TO.N,BUS_SOUNDIN*%
X12700000Y-64655000D03*
%TO.P,J1,54*%
%TO.N,D7*%
X10160000Y-64655000D03*
%TO.P,J1,55*%
%TO.N,A13*%
X7620000Y-64655000D03*
%TO.P,J1,56*%
%TO.N,A15*%
X5080000Y-64655000D03*
%TD*%
D18*
%TO.P,C6,1*%
%TO.N,+5V*%
X44000000Y-47200000D03*
D15*
%TO.P,C6,2*%
%TO.N,GND*%
X46000000Y-47200000D03*
%TD*%
D19*
%TO.P,D1,1*%
%TO.N,GND*%
X52000000Y-47200000D03*
D20*
%TO.P,D1,2*%
%TO.N,LED_A*%
X54540000Y-47200000D03*
%TD*%
D10*
%TO.P,U1,1*%
%TO.N,MREQ_N*%
X46990000Y-10160000D03*
D11*
%TO.P,U1,2*%
%TO.N,ZX512*%
X46990000Y-12700000D03*
%TO.P,U1,3*%
%TO.N,A1*%
X46990000Y-15240000D03*
%TO.P,U1,4*%
%TO.N,WR_N*%
X46990000Y-17780000D03*
%TO.P,U1,5*%
%TO.N,DIS128*%
X46990000Y-20320000D03*
%TO.P,U1,6*%
%TO.N,BANK2*%
X46990000Y-22860000D03*
%TO.P,U1,7*%
%TO.N,A5*%
X46990000Y-25400000D03*
%TO.P,U1,8*%
%TO.N,BANK0*%
X46990000Y-27940000D03*
%TO.P,U1,9*%
%TO.N,BANK4*%
X46990000Y-30480000D03*
%TO.P,U1,10*%
%TO.N,BANK3*%
X46990000Y-33020000D03*
%TO.P,U1,11*%
%TO.N,BANK1*%
X46990000Y-35560000D03*
%TO.P,U1,12*%
%TO.N,GND*%
X46990000Y-38100000D03*
%TO.P,U1,13*%
%TO.N,A15*%
X54610000Y-38100000D03*
%TO.P,U1,14*%
%TO.N,A14*%
X54610000Y-35560000D03*
%TO.P,U1,15*%
%TO.N,ROMCS_N*%
X54610000Y-33020000D03*
%TO.P,U1,16*%
%TO.N,CLK7FFD*%
X54610000Y-30480000D03*
%TO.P,U1,17*%
%TO.N,SA18*%
X54610000Y-27940000D03*
%TO.P,U1,18*%
%TO.N,SA17_CE2*%
X54610000Y-25400000D03*
%TO.P,U1,19*%
%TO.N,RAMCS_N*%
X54610000Y-22860000D03*
%TO.P,U1,20*%
%TO.N,SA16*%
X54610000Y-20320000D03*
%TO.P,U1,21*%
%TO.N,SA15*%
X54610000Y-17780000D03*
%TO.P,U1,22*%
%TO.N,SA14*%
X54610000Y-15240000D03*
%TO.P,U1,23*%
%TO.N,IORQ_N*%
X54610000Y-12700000D03*
%TO.P,U1,24*%
%TO.N,+5V*%
X54610000Y-10160000D03*
%TD*%
D15*
%TO.P,C1,1*%
%TO.N,+5V*%
X20000000Y-47200000D03*
%TO.P,C1,2*%
%TO.N,GND*%
X25000000Y-47200000D03*
%TD*%
%TO.P,C3,1*%
%TO.N,+5V*%
X4000000Y-47200000D03*
%TO.P,C3,2*%
%TO.N,GND*%
X9000000Y-47200000D03*
%TD*%
%TO.P,R4,1*%
%TO.N,+5V*%
X11000000Y-53300000D03*
%TO.P,R4,2*%
%TO.N,RAMDIS_DRV*%
X13540000Y-53300000D03*
%TD*%
%TO.P,R2,1*%
%TO.N,+5V*%
X5000000Y-53300000D03*
%TO.P,R2,2*%
%TO.N,ZX512*%
X7540000Y-53300000D03*
%TD*%
D12*
%TO.P,JP3,1*%
%TO.N,ZX512*%
X71500000Y-26000000D03*
D13*
%TO.P,JP3,2*%
%TO.N,GND*%
X71500000Y-28540000D03*
%TD*%
D21*
%TO.N,SA18*%
X44764700Y-35579400D03*
%TO.N,SA16*%
X60327900Y-7544200D03*
%TO.N,SA14*%
X59694900Y-8120300D03*
%TO.N,A7*%
X36590000Y-54720000D03*
%TO.N,A6*%
X33157500Y-53919000D03*
%TO.N,A5*%
X32021300Y-17889400D03*
X39587400Y-41094400D03*
X52934800Y-42374200D03*
%TO.N,A4*%
X32889600Y-56795300D03*
%TO.N,A1*%
X49279600Y-16057900D03*
X49279600Y-22206300D03*
%TO.N,D0*%
X56617400Y-22369600D03*
%TO.N,D2*%
X57094700Y-30350700D03*
X52626400Y-35726100D03*
%TO.N,D4*%
X42861400Y-43631500D03*
%TO.N,D5*%
X29208400Y-36939500D03*
%TO.N,D6*%
X65391300Y-31542100D03*
X32748200Y-34390000D03*
X16602900Y-62615000D03*
X33139600Y-43547000D03*
%TO.N,D7*%
X64768000Y-32147000D03*
X44758400Y-41785300D03*
%TO.N,A10*%
X29754600Y-57166200D03*
X65446300Y-61400300D03*
X63857700Y-61523500D03*
%TO.N,A9*%
X38891900Y-19186300D03*
%TO.N,A8*%
X31739000Y-62840100D03*
%TO.N,SA17_CE2*%
X31861900Y-14786400D03*
D22*
%TO.N,+5V*%
X36868500Y-45444700D03*
D21*
%TO.N,ROMCS_N*%
X68301900Y-19050000D03*
%TO.N,ROMCE_N*%
X55633100Y-8936500D03*
%TO.N,BANK2*%
X56416500Y-19857000D03*
%TO.N,ROMA14*%
X45263300Y-10969600D03*
%TO.N,BANK3*%
X64662000Y-21385000D03*
X49142300Y-32289700D03*
%TO.N,RAMDIS_DRV*%
X14394700Y-44904300D03*
%TO.N,A14*%
X50524100Y-49846300D03*
X47064400Y-49846300D03*
X36645300Y-62014900D03*
%TO.N,IORQ_N*%
X69889800Y-21382100D03*
X62722100Y-63473900D03*
%TO.N,A15*%
X48176300Y-41140100D03*
X39007500Y-62387200D03*
%TO.N,ZX512*%
X72854600Y-34918300D03*
X9919600Y-45763600D03*
%TD*%
%TO.N,SA18*%
D23*
X23259200Y-4827100D02*
X22427600Y-3995500D01*
X33443900Y-14991100D02*
X27280200Y-8827400D01*
X33443900Y-21414900D02*
X33443900Y-14991100D01*
X42814100Y-29408300D02*
X41437300Y-29408300D01*
X43413100Y-30007300D02*
X42814100Y-29408300D01*
X23259200Y-6454100D02*
X23259200Y-4827100D01*
X27280200Y-8827400D02*
X25632500Y-8827400D01*
X22427600Y-3995500D02*
X7434500Y-3995500D01*
X25632500Y-8827400D02*
X23259200Y-6454100D01*
X41437300Y-29408300D02*
X33443900Y-21414900D01*
X44764700Y-35579400D02*
X43413100Y-34227800D01*
X43413100Y-34227800D02*
X43413100Y-30007300D01*
X7434500Y-3995500D02*
X6350000Y-5080000D01*
%TO.N,SA16*%
X60327900Y-8390000D02*
X57055400Y-11662500D01*
X54813600Y-20523600D02*
X54610000Y-20320000D01*
X57055400Y-20097400D02*
X56629200Y-20523600D01*
X56629200Y-20523600D02*
X54813600Y-20523600D01*
X57055400Y-11662500D02*
X57055400Y-20097400D01*
X60327900Y-7544200D02*
X60327900Y-8390000D01*
%TO.N,SA14*%
X56081700Y-11733500D02*
X56081700Y-15240000D01*
X54610000Y-15240000D02*
X56081700Y-15240000D01*
X59694900Y-8120300D02*
X56081700Y-11733500D01*
%TO.N,A12*%
X7620000Y-59805000D02*
X6438800Y-58623800D01*
X4878300Y-43933000D02*
X4878300Y-12700000D01*
X6438800Y-45493500D02*
X4878300Y-43933000D01*
X6438800Y-58623800D02*
X6438800Y-45493500D01*
X6350000Y-12700000D02*
X4878300Y-12700000D01*
%TO.N,A7*%
X36590000Y-48300200D02*
X43381700Y-41508500D01*
X33047200Y-17605500D02*
X28141700Y-12700000D01*
X33047200Y-31192800D02*
X33047200Y-17605500D01*
X42676300Y-39451900D02*
X41306300Y-39451900D01*
X43381700Y-41508500D02*
X43381700Y-40157300D01*
X41306300Y-39451900D02*
X33047200Y-31192800D01*
X43381700Y-40157300D02*
X42676300Y-39451900D01*
X26670000Y-12700000D02*
X28141700Y-12700000D01*
X36590000Y-54720000D02*
X36590000Y-48300200D01*
%TO.N,A6*%
X31886100Y-52647600D02*
X33157500Y-53919000D01*
X28141700Y-15240000D02*
X31886100Y-18984400D01*
X31886100Y-18984400D02*
X31886100Y-52647600D01*
X26670000Y-15240000D02*
X28141700Y-15240000D01*
%TO.N,A5*%
X50771600Y-44537400D02*
X50771600Y-48271400D01*
X32650500Y-18518600D02*
X32021300Y-17889400D01*
X39587400Y-38294100D02*
X32650500Y-31357200D01*
X60960000Y-58459800D02*
X60960000Y-59805000D01*
X32650500Y-31357200D02*
X32650500Y-18518600D01*
X52934800Y-42374200D02*
X50771600Y-44537400D01*
X50771600Y-48271400D02*
X60960000Y-58459800D01*
X39587400Y-41094400D02*
X39587400Y-38294100D01*
%TO.N,A4*%
X28141700Y-20320000D02*
X31489200Y-23667500D01*
X31489200Y-55394900D02*
X32889600Y-56795300D01*
X26670000Y-20320000D02*
X28141700Y-20320000D01*
X31489200Y-23667500D02*
X31489200Y-55394900D01*
%TO.N,A3*%
X31092500Y-56502600D02*
X31092500Y-25810800D01*
X31092500Y-25810800D02*
X28141700Y-22860000D01*
X33020000Y-58430100D02*
X31092500Y-56502600D01*
X26670000Y-22860000D02*
X28141700Y-22860000D01*
X33020000Y-59805000D02*
X33020000Y-58430100D01*
%TO.N,A2*%
X30480000Y-59805000D02*
X30480000Y-57012300D01*
X30480000Y-57012300D02*
X30299100Y-56831400D01*
X30299100Y-27557400D02*
X28141700Y-25400000D01*
X30299100Y-56831400D02*
X30299100Y-27557400D01*
X26670000Y-25400000D02*
X28141700Y-25400000D01*
%TO.N,A1*%
X26928300Y-47643900D02*
X27940000Y-48655600D01*
X26928300Y-46756100D02*
X26928300Y-47643900D01*
X26670000Y-27940000D02*
X28141700Y-27940000D01*
X27940000Y-48655600D02*
X27940000Y-59805000D01*
X28141700Y-27940000D02*
X28544800Y-28343100D01*
X28544800Y-28343100D02*
X28544800Y-45139600D01*
X49279600Y-16057900D02*
X49279600Y-22206300D01*
X28544800Y-45139600D02*
X26928300Y-46756100D01*
%TO.N,A0*%
X26662500Y-58542500D02*
X25400000Y-59805000D01*
X26531600Y-46591700D02*
X26531600Y-47808300D01*
X26670000Y-30480000D02*
X28141700Y-30480000D01*
X28141700Y-44981600D02*
X26531600Y-46591700D01*
X26662500Y-47939200D02*
X26662500Y-58542500D01*
X26531600Y-47808300D02*
X26662500Y-47939200D01*
X28141700Y-30480000D02*
X28141700Y-44981600D01*
%TO.N,D0*%
X23799200Y-34419100D02*
X23799200Y-45724400D01*
X59690000Y-17780000D02*
X58218300Y-17780000D01*
X56617400Y-22369600D02*
X58218300Y-20768700D01*
X25198300Y-33020000D02*
X23799200Y-34419100D01*
X19050000Y-55736600D02*
X19050000Y-63385000D01*
X21268700Y-48254900D02*
X21268700Y-53517900D01*
X26670000Y-33020000D02*
X25198300Y-33020000D01*
X58218300Y-20768700D02*
X58218300Y-17780000D01*
X23799200Y-45724400D02*
X21268700Y-48254900D01*
X21268700Y-53517900D02*
X19050000Y-55736600D01*
X19050000Y-63385000D02*
X17780000Y-64655000D01*
%TO.N,D1*%
X21731300Y-58518500D02*
X21590000Y-58659800D01*
X24696800Y-45387900D02*
X21731300Y-48353400D01*
X25198300Y-35560000D02*
X24696800Y-36061500D01*
X24696800Y-36061500D02*
X24696800Y-45387900D01*
X21590000Y-58659800D02*
X21590000Y-63385000D01*
X21590000Y-63385000D02*
X20320000Y-64655000D01*
X26670000Y-35560000D02*
X25198300Y-35560000D01*
X21731300Y-48353400D02*
X21731300Y-58518500D01*
%TO.N,D2*%
X25198300Y-38100000D02*
X25198300Y-45447500D01*
X25198300Y-45447500D02*
X23907900Y-46737900D01*
X55399900Y-34150200D02*
X54070900Y-34150200D01*
X57094700Y-32455400D02*
X55399900Y-34150200D01*
X57094700Y-30350700D02*
X57094700Y-32455400D01*
X24074500Y-48274500D02*
X24074500Y-63440500D01*
X26670000Y-38100000D02*
X25198300Y-38100000D01*
X23907900Y-46737900D02*
X23907900Y-48107900D01*
X23907900Y-48107900D02*
X24074500Y-48274500D01*
X54070900Y-34150200D02*
X52626400Y-35594700D01*
X24074500Y-63440500D02*
X22860000Y-64655000D01*
%TO.N,GND*%
D24*
X45343300Y-45949900D02*
X45555100Y-45738100D01*
X9000000Y-47200000D02*
X9000000Y-44183300D01*
X15240000Y-59805000D02*
X15628800Y-59416200D01*
X38100000Y-59805000D02*
X38100000Y-50100000D01*
X45555100Y-40874100D02*
X45343300Y-40662300D01*
X38100000Y-50100000D02*
X41000000Y-47200000D01*
X45555100Y-45738100D02*
X45555100Y-40874100D01*
X46990000Y-38100000D02*
X45343300Y-38100000D01*
X45343300Y-45949900D02*
X45343300Y-46543300D01*
X52000000Y-47200000D02*
X52000000Y-45853300D01*
X45343300Y-45949900D02*
X42250100Y-45949900D01*
X15628800Y-59416200D02*
X15628800Y-48571200D01*
X26670000Y-45530000D02*
X26670000Y-40640000D01*
X45343300Y-40662300D02*
X45343300Y-38100000D01*
X59690000Y-35560000D02*
X59690000Y-38163300D01*
X15628800Y-48571200D02*
X17000000Y-47200000D01*
X6350000Y-43180000D02*
X7996700Y-43180000D01*
X25000000Y-47200000D02*
X26670000Y-45530000D01*
X59690000Y-38163300D02*
X52000000Y-45853300D01*
X9000000Y-44183300D02*
X7996700Y-43180000D01*
X42250100Y-45949900D02*
X41000000Y-47200000D01*
X45343300Y-46543300D02*
X46000000Y-47200000D01*
X15240000Y-64655000D02*
X15240000Y-59805000D01*
%TO.N,D3*%
D23*
X41910000Y-40640000D02*
X40438300Y-40640000D01*
X30480000Y-64655000D02*
X30803400Y-64655000D01*
X34290000Y-46999500D02*
X39573400Y-41716100D01*
X39845000Y-41716100D02*
X40438300Y-41122800D01*
X40438300Y-41122800D02*
X40438300Y-40640000D01*
X30803400Y-64655000D02*
X34290000Y-61168400D01*
X39573400Y-41716100D02*
X39845000Y-41716100D01*
X34290000Y-61168400D02*
X34290000Y-46999500D01*
%TO.N,D4*%
X33020000Y-64655000D02*
X36830000Y-60845000D01*
X41910000Y-38100000D02*
X43381700Y-38100000D01*
X36830000Y-55359300D02*
X37211700Y-54977600D01*
X43778400Y-38496700D02*
X43778400Y-42714500D01*
X36830000Y-60845000D02*
X36830000Y-55359300D01*
X37211700Y-49281200D02*
X42861400Y-43631500D01*
X43381700Y-38100000D02*
X43778400Y-38496700D01*
X37211700Y-54977600D02*
X37211700Y-49281200D01*
X43778400Y-42714500D02*
X42861400Y-43631500D01*
%TO.N,D5*%
X27940000Y-64655000D02*
X29132900Y-63462100D01*
X29132900Y-63462100D02*
X29132900Y-37015000D01*
%TO.N,D6*%
X64115800Y-23514200D02*
X67310000Y-20320000D01*
X65391300Y-32477600D02*
X65048300Y-32820600D01*
X33139600Y-43547000D02*
X33139600Y-34781400D01*
X18360200Y-54641400D02*
X16602900Y-56398700D01*
X64115800Y-32422400D02*
X64115800Y-23514200D01*
X18360200Y-37318100D02*
X18360200Y-54641400D01*
X33139600Y-34781400D02*
X32748200Y-34390000D01*
X21590000Y-35560000D02*
X20118300Y-35560000D01*
X16602900Y-56398700D02*
X16602900Y-62615000D01*
X65048300Y-32820600D02*
X64514000Y-32820600D01*
X20118300Y-35560000D02*
X18360200Y-37318100D01*
X65391300Y-31542100D02*
X65391300Y-32477600D01*
X64514000Y-32820600D02*
X64115800Y-32422400D01*
%TO.N,D7*%
X10160000Y-64655000D02*
X13970000Y-60845000D01*
X13970000Y-54946800D02*
X15057100Y-53859700D01*
X41910000Y-30480000D02*
X40438300Y-30480000D01*
X42490000Y-36631700D02*
X44758400Y-38900100D01*
X15057100Y-53859700D02*
X15057100Y-38081200D01*
X40438300Y-36069900D02*
X41000100Y-36631700D01*
X67310000Y-17780000D02*
X68781700Y-17780000D01*
X15057100Y-38081200D02*
X20118300Y-33020000D01*
X13970000Y-60845000D02*
X13970000Y-54946800D01*
X44758400Y-38900100D02*
X44758400Y-41785300D01*
X64768000Y-23486300D02*
X66510300Y-21744000D01*
X40438300Y-30480000D02*
X40438300Y-36069900D01*
X68941900Y-20658500D02*
X68941900Y-17940200D01*
X41000100Y-36631700D02*
X42490000Y-36631700D01*
X66510300Y-21744000D02*
X67856400Y-21744000D01*
X68941900Y-17940200D02*
X68781700Y-17780000D01*
X67856400Y-21744000D02*
X68941900Y-20658500D01*
X21590000Y-33020000D02*
X20118300Y-33020000D01*
X64768000Y-32147000D02*
X64768000Y-23486300D01*
%TO.N,A10*%
X29830200Y-28997300D02*
X27661700Y-26828800D01*
X27661700Y-26828800D02*
X24172900Y-26828800D01*
X24172900Y-26828800D02*
X23061700Y-27940000D01*
X29830200Y-57090600D02*
X29830200Y-28997300D01*
X65446300Y-61400300D02*
X63980900Y-61400300D01*
X21590000Y-27940000D02*
X23061700Y-27940000D01*
X63980900Y-61400300D02*
X63857700Y-61523500D01*
%TO.N,RD_N*%
X41910000Y-22860000D02*
X43381700Y-22860000D01*
X49450600Y-63464400D02*
X49450600Y-36104000D01*
X44390800Y-23869100D02*
X43381700Y-22860000D01*
X49450600Y-36104000D02*
X47497000Y-34150400D01*
X47497000Y-34150400D02*
X46145900Y-34150400D01*
X46145900Y-34150400D02*
X44390800Y-32395300D01*
X44390800Y-32395300D02*
X44390800Y-23869100D01*
X48260000Y-64655000D02*
X49450600Y-63464400D01*
%TO.N,A11*%
X41910000Y-20320000D02*
X43381700Y-20320000D01*
X55485000Y-11430000D02*
X60089800Y-6825200D01*
X73660000Y-8065700D02*
X73660000Y-59805000D01*
X46519900Y-16311700D02*
X48118200Y-16311700D01*
X60089800Y-6825200D02*
X72419500Y-6825200D01*
X72419500Y-6825200D02*
X73660000Y-8065700D01*
X52999900Y-11430000D02*
X55485000Y-11430000D01*
X43381700Y-19449900D02*
X46519900Y-16311700D01*
X43381700Y-20320000D02*
X43381700Y-19449900D01*
X48118200Y-16311700D02*
X52999900Y-11430000D01*
%TO.N,A9*%
X74841100Y-8650800D02*
X72611600Y-6421300D01*
X74841100Y-60306000D02*
X74841100Y-8650800D01*
X72305800Y-60990800D02*
X74156300Y-60990800D01*
X71120000Y-59805000D02*
X72305800Y-60990800D01*
X41170600Y-6421300D02*
X38891900Y-8700000D01*
X38891900Y-8700000D02*
X38891900Y-19186300D01*
X72611600Y-6421300D02*
X41170600Y-6421300D01*
X74156300Y-60990800D02*
X74841100Y-60306000D01*
%TO.N,A8*%
X23061700Y-17780000D02*
X23061700Y-21173200D01*
X31739000Y-57710200D02*
X31739000Y-62840100D01*
X23061700Y-21173200D02*
X26100400Y-24211900D01*
X26100400Y-24211900D02*
X27573100Y-24211900D01*
X30695800Y-56667000D02*
X31739000Y-57710200D01*
X30695800Y-27334600D02*
X30695800Y-56667000D01*
X27573100Y-24211900D02*
X30695800Y-27334600D01*
X21590000Y-17780000D02*
X23061700Y-17780000D01*
%TO.N,A13*%
X20118300Y-15240000D02*
X13143300Y-22215000D01*
X12130200Y-49171300D02*
X12130200Y-57959600D01*
X21590000Y-15240000D02*
X20118300Y-15240000D01*
X11430000Y-58659800D02*
X11430000Y-60845000D01*
X11430000Y-60845000D02*
X7620000Y-64655000D01*
X13143300Y-48158200D02*
X12130200Y-49171300D01*
X12130200Y-57959600D02*
X11430000Y-58659800D01*
X13143300Y-22215000D02*
X13143300Y-48158200D01*
%TO.N,WR_N*%
X49879500Y-55520000D02*
X51990600Y-57631100D01*
X51990600Y-63464400D02*
X50800000Y-64655000D01*
X46308100Y-31750000D02*
X47659900Y-31750000D01*
X49879500Y-33969600D02*
X49879500Y-55520000D01*
X46990000Y-17780000D02*
X45518300Y-19251700D01*
X45518300Y-30960200D02*
X46308100Y-31750000D01*
X47659900Y-31750000D02*
X49879500Y-33969600D01*
X51990600Y-57631100D02*
X51990600Y-63464400D01*
X45518300Y-19251700D02*
X45518300Y-30960200D01*
%TO.N,SA17_CE2*%
X24471500Y-11569800D02*
X23061700Y-10160000D01*
X21590000Y-10160000D02*
X23061700Y-10160000D01*
X31861900Y-14786400D02*
X28645300Y-11569800D01*
X28645300Y-11569800D02*
X24471500Y-11569800D01*
%TO.N,+5V*%
D24*
X36000000Y-46313200D02*
X36868500Y-45444700D01*
X5000000Y-53300000D02*
X4000000Y-52300000D01*
X10160000Y-54140000D02*
X11000000Y-53300000D01*
X4000000Y-52300000D02*
X4000000Y-47200000D01*
X36000000Y-47200000D02*
X36000000Y-46313200D01*
X10160000Y-59805000D02*
X10160000Y-54140000D01*
X21590000Y-5080000D02*
X19943300Y-5080000D01*
X67310000Y-12700000D02*
X68956700Y-12700000D01*
X71500000Y-21865500D02*
X70157500Y-20523000D01*
X12000000Y-13023300D02*
X19943300Y-5080000D01*
X70157500Y-13080000D02*
X69336700Y-13080000D01*
X69336700Y-13080000D02*
X68956700Y-12700000D01*
X70157500Y-13080000D02*
X71500000Y-13080000D01*
X12000000Y-47200000D02*
X12000000Y-13023300D01*
X70157500Y-20523000D02*
X70157500Y-13080000D01*
X71500000Y-22080000D02*
X71500000Y-21865500D01*
%TO.N,ROMCS_N*%
D23*
X68301900Y-19050000D02*
X66647200Y-19050000D01*
X71500000Y-17000000D02*
X71500000Y-15878300D01*
X70378300Y-11004600D02*
X71035400Y-11661700D01*
X55275600Y-29210000D02*
X53891200Y-29210000D01*
X66647200Y-19050000D02*
X65283800Y-20413400D01*
X71035400Y-11661700D02*
X71734800Y-11661700D01*
X71734800Y-11661700D02*
X72621700Y-12548600D01*
X70378300Y-10075400D02*
X70378300Y-11004600D01*
X65283800Y-20413400D02*
X65283800Y-21750300D01*
X53891200Y-29210000D02*
X53138300Y-29962900D01*
X71500000Y-9121700D02*
X71332000Y-9121700D01*
X53138300Y-29962900D02*
X53138300Y-33020000D01*
X60364100Y-26670000D02*
X57815600Y-26670000D01*
X72621700Y-12548600D02*
X72621700Y-14756600D01*
X54610000Y-33020000D02*
X53138300Y-33020000D01*
X71500000Y-8000000D02*
X71500000Y-9121700D01*
X72621700Y-14756600D02*
X71500000Y-15878300D01*
X71332000Y-9121700D02*
X70378300Y-10075400D01*
X57815600Y-26670000D02*
X55275600Y-29210000D01*
X65283800Y-21750300D02*
X60364100Y-26670000D01*
%TO.N,CLK7FFD*%
X67310000Y-35560000D02*
X65838300Y-35560000D01*
X60577600Y-29379500D02*
X62918400Y-31720300D01*
X67310000Y-35560000D02*
X67310000Y-43890000D01*
X62918400Y-31720300D02*
X62918400Y-32640100D01*
X54610000Y-30480000D02*
X56081700Y-30480000D01*
X62918400Y-32640100D02*
X65838300Y-35560000D01*
X67310000Y-43890000D02*
X64000000Y-47200000D01*
X56081700Y-30480000D02*
X57182200Y-29379500D01*
X57182200Y-29379500D02*
X60577600Y-29379500D01*
%TO.N,ROMCE_N*%
X41207700Y-8936500D02*
X39925700Y-10218500D01*
X55633100Y-8936500D02*
X41207700Y-8936500D01*
X39925700Y-25955700D02*
X41910000Y-27940000D01*
X39925700Y-10218500D02*
X39925700Y-25955700D01*
%TO.N,RESET_N*%
X53340000Y-59805000D02*
X54505500Y-60970500D01*
X61416300Y-60970500D02*
X62230000Y-60156800D01*
X54505500Y-60970500D02*
X61416300Y-60970500D01*
X67963300Y-13970000D02*
X60960000Y-13970000D01*
X62230000Y-59320700D02*
X68943400Y-52607300D01*
X69338600Y-15345300D02*
X67963300Y-13970000D01*
X69338600Y-20822900D02*
X69338600Y-15345300D01*
X68943400Y-52607300D02*
X68943400Y-21218100D01*
X68943400Y-21218100D02*
X69338600Y-20822900D01*
X62230000Y-60156800D02*
X62230000Y-59320700D01*
X60960000Y-13970000D02*
X59690000Y-12700000D01*
%TO.N,BANK0*%
X57551800Y-20162100D02*
X57551800Y-15906500D01*
X57551800Y-15906500D02*
X58218300Y-15240000D01*
X46990000Y-27940000D02*
X48461700Y-27940000D01*
X59690000Y-15240000D02*
X58218300Y-15240000D01*
X53891900Y-21590000D02*
X56123900Y-21590000D01*
X48461700Y-27940000D02*
X48461700Y-27020200D01*
X48461700Y-27020200D02*
X53891900Y-21590000D01*
X56123900Y-21590000D02*
X57551800Y-20162100D01*
%TO.N,BANK2*%
X49825100Y-22860000D02*
X53438600Y-19246500D01*
X55806000Y-19246500D02*
X56416500Y-19857000D01*
X46990000Y-22860000D02*
X48461700Y-22860000D01*
X48461700Y-22860000D02*
X49825100Y-22860000D01*
X53438600Y-19246500D02*
X55806000Y-19246500D01*
%TO.N,VRAM*%
X61161700Y-33020000D02*
X61161700Y-46038300D01*
X61161700Y-46038300D02*
X60000000Y-47200000D01*
X59690000Y-33020000D02*
X61161700Y-33020000D01*
%TO.N,ROMA14*%
X41910000Y-10160000D02*
X44453700Y-10160000D01*
X44453700Y-10160000D02*
X45263300Y-10969600D01*
%TO.N,BANK3*%
X53893300Y-26670000D02*
X49142300Y-31421000D01*
X57870500Y-24130000D02*
X55330500Y-26670000D01*
X64662000Y-21385000D02*
X61917000Y-24130000D01*
X49142300Y-31421000D02*
X49142300Y-32289700D01*
X55330500Y-26670000D02*
X53893300Y-26670000D01*
X61917000Y-24130000D02*
X57870500Y-24130000D01*
%TO.N,BANK4*%
X67310000Y-15240000D02*
X65838300Y-15240000D01*
X58276300Y-21590000D02*
X60433200Y-21590000D01*
X48461700Y-29631000D02*
X53962700Y-24130000D01*
X60433200Y-21590000D02*
X65838300Y-16184900D01*
X46990000Y-30480000D02*
X48461700Y-30480000D01*
X65838300Y-16184900D02*
X65838300Y-15240000D01*
X55736300Y-24130000D02*
X58276300Y-21590000D01*
X48461700Y-30480000D02*
X48461700Y-29631000D01*
X53962700Y-24130000D02*
X55736300Y-24130000D01*
%TO.N,RAMDIS_DRV*%
X14394700Y-44904300D02*
X14394700Y-52445300D01*
X14394700Y-52445300D02*
X13540000Y-53300000D01*
%TO.N,A14*%
X37643100Y-63012700D02*
X36645300Y-62014900D01*
X54610000Y-35560000D02*
X50338200Y-39831800D01*
X41910000Y-60427100D02*
X39324400Y-63012700D01*
X50338200Y-49660400D02*
X50524100Y-49846300D01*
X39324400Y-63012700D02*
X37643100Y-63012700D01*
X41910000Y-55000700D02*
X41910000Y-60427100D01*
X50338200Y-39831800D02*
X50338200Y-49660400D01*
X47064400Y-49846300D02*
X41910000Y-55000700D01*
%TO.N,IORQ_N*%
X64256400Y-63473900D02*
X67310000Y-60420300D01*
X67310000Y-60420300D02*
X67310000Y-59180000D01*
X67310000Y-59180000D02*
X69889800Y-56600200D01*
X69889800Y-56600200D02*
X69889800Y-21382100D01*
X62722100Y-63473900D02*
X64256400Y-63473900D01*
%TO.N,MREQ_N*%
X42601900Y-16510000D02*
X41212000Y-16510000D01*
X43962600Y-33119600D02*
X45401500Y-34558500D01*
X47697400Y-36830000D02*
X48799600Y-37932200D01*
X48799600Y-53340200D02*
X44450000Y-57689800D01*
X41212400Y-24130000D02*
X42567300Y-24130000D01*
X42567300Y-24130000D02*
X43962600Y-25525300D01*
X44450000Y-63385000D02*
X43180000Y-64655000D01*
X46990000Y-10160000D02*
X43796300Y-13353700D01*
X45401500Y-34558500D02*
X45401500Y-35937500D01*
X44450000Y-57689800D02*
X44450000Y-63385000D01*
X48799600Y-37932200D02*
X48799600Y-53340200D01*
X43796300Y-15315600D02*
X42601900Y-16510000D01*
X46294000Y-36830000D02*
X47697400Y-36830000D01*
X40397000Y-17325000D02*
X40397000Y-23314600D01*
X45401500Y-35937500D02*
X46294000Y-36830000D01*
X40397000Y-23314600D02*
X41212400Y-24130000D01*
X41212000Y-16510000D02*
X40397000Y-17325000D01*
X43962600Y-25525300D02*
X43962600Y-33119600D01*
X43796300Y-13353700D02*
X43796300Y-15315600D01*
%TO.N,A15*%
X39288600Y-55427100D02*
X39288600Y-62106100D01*
X48176300Y-46539400D02*
X39288600Y-55427100D01*
X48176300Y-41140100D02*
X48176300Y-46539400D01*
X39288600Y-62106100D02*
X39007500Y-62387200D01*
%TO.N,ZX512*%
X7540000Y-53300000D02*
X10116300Y-50723700D01*
X10116300Y-50723700D02*
X10116300Y-45960300D01*
X71500000Y-27121700D02*
X71780400Y-27121700D01*
X71500000Y-26000000D02*
X71500000Y-27121700D01*
X72854600Y-28195900D02*
X72854600Y-34918300D01*
X10116300Y-45960300D02*
X9919600Y-45763600D01*
X71780400Y-27121700D02*
X72854600Y-28195900D01*
%TD*%
%TA.AperFunction,Conductor*%
%TO.N,GND*%
G36*
X78382539Y-320185D02*
G01*
X78428294Y-372989D01*
X78439500Y-424500D01*
X78439500Y-65615500D01*
X78419815Y-65682539D01*
X78367011Y-65728294D01*
X78315500Y-65739500D01*
X74537270Y-65739500D01*
X74470231Y-65719815D01*
X74424476Y-65667011D01*
X74414532Y-65597853D01*
X74443557Y-65534297D01*
X74449589Y-65527819D01*
X74556621Y-65420787D01*
X74665378Y-65271096D01*
X74749379Y-65106235D01*
X74806555Y-64930264D01*
X74835500Y-64747514D01*
X74835500Y-64562486D01*
X74806555Y-64379736D01*
X74763394Y-64246898D01*
X74749380Y-64203767D01*
X74749379Y-64203764D01*
X74706577Y-64119763D01*
X74665378Y-64038904D01*
X74556621Y-63889213D01*
X74425787Y-63758379D01*
X74276096Y-63649622D01*
X74260737Y-63641796D01*
X74111235Y-63565620D01*
X74111232Y-63565619D01*
X73935265Y-63508445D01*
X73843889Y-63493972D01*
X73752514Y-63479500D01*
X73567486Y-63479500D01*
X73532306Y-63485072D01*
X73384734Y-63508445D01*
X73208767Y-63565619D01*
X73208764Y-63565620D01*
X73043903Y-63649622D01*
X73000845Y-63680906D01*
X72894213Y-63758379D01*
X72894211Y-63758381D01*
X72894210Y-63758381D01*
X72763381Y-63889210D01*
X72763381Y-63889211D01*
X72763379Y-63889213D01*
X72731587Y-63932971D01*
X72654622Y-64038903D01*
X72570620Y-64203764D01*
X72570619Y-64203767D01*
X72513445Y-64379734D01*
X72512473Y-64385872D01*
X72482544Y-64449007D01*
X72423232Y-64485938D01*
X72353370Y-64484940D01*
X72295137Y-64446330D01*
X72267527Y-64385872D01*
X72267356Y-64384798D01*
X72266555Y-64379736D01*
X72223394Y-64246898D01*
X72209380Y-64203767D01*
X72209379Y-64203764D01*
X72166577Y-64119763D01*
X72125378Y-64038904D01*
X72016621Y-63889213D01*
X71885787Y-63758379D01*
X71736096Y-63649622D01*
X71720737Y-63641796D01*
X71571235Y-63565620D01*
X71571232Y-63565619D01*
X71395265Y-63508445D01*
X71303889Y-63493972D01*
X71212514Y-63479500D01*
X71027486Y-63479500D01*
X70992306Y-63485072D01*
X70844734Y-63508445D01*
X70668767Y-63565619D01*
X70668764Y-63565620D01*
X70503903Y-63649622D01*
X70460845Y-63680906D01*
X70354213Y-63758379D01*
X70354211Y-63758381D01*
X70354210Y-63758381D01*
X70223381Y-63889210D01*
X70223381Y-63889211D01*
X70223379Y-63889213D01*
X70191587Y-63932971D01*
X70114622Y-64038903D01*
X70030620Y-64203764D01*
X70030619Y-64203767D01*
X69973445Y-64379734D01*
X69972473Y-64385872D01*
X69942544Y-64449007D01*
X69883232Y-64485938D01*
X69813370Y-64484940D01*
X69755137Y-64446330D01*
X69727527Y-64385872D01*
X69727356Y-64384798D01*
X69726555Y-64379736D01*
X69683394Y-64246898D01*
X69669380Y-64203767D01*
X69669379Y-64203764D01*
X69626577Y-64119763D01*
X69585378Y-64038904D01*
X69476621Y-63889213D01*
X69345787Y-63758379D01*
X69196096Y-63649622D01*
X69180737Y-63641796D01*
X69031235Y-63565620D01*
X69031232Y-63565619D01*
X68855265Y-63508445D01*
X68763889Y-63493972D01*
X68672514Y-63479500D01*
X68487486Y-63479500D01*
X68452306Y-63485072D01*
X68304734Y-63508445D01*
X68128767Y-63565619D01*
X68128764Y-63565620D01*
X67963903Y-63649622D01*
X67920845Y-63680906D01*
X67814213Y-63758379D01*
X67814211Y-63758381D01*
X67814210Y-63758381D01*
X67683381Y-63889210D01*
X67683381Y-63889211D01*
X67683379Y-63889213D01*
X67651587Y-63932971D01*
X67574622Y-64038903D01*
X67490620Y-64203764D01*
X67490619Y-64203767D01*
X67433445Y-64379734D01*
X67432473Y-64385872D01*
X67402544Y-64449007D01*
X67343232Y-64485938D01*
X67273370Y-64484940D01*
X67215137Y-64446330D01*
X67187527Y-64385872D01*
X67187356Y-64384798D01*
X67186555Y-64379736D01*
X67143394Y-64246898D01*
X67129380Y-64203767D01*
X67129379Y-64203764D01*
X67086577Y-64119763D01*
X67045378Y-64038904D01*
X66936621Y-63889213D01*
X66805787Y-63758379D01*
X66656096Y-63649622D01*
X66640737Y-63641796D01*
X66491235Y-63565620D01*
X66491232Y-63565619D01*
X66315265Y-63508445D01*
X66223889Y-63493972D01*
X66132514Y-63479500D01*
X65947486Y-63479500D01*
X65912306Y-63485072D01*
X65764734Y-63508445D01*
X65588767Y-63565619D01*
X65588764Y-63565620D01*
X65423903Y-63649622D01*
X65380845Y-63680906D01*
X65274213Y-63758379D01*
X65274211Y-63758381D01*
X65274210Y-63758381D01*
X65143381Y-63889210D01*
X65143381Y-63889211D01*
X65143379Y-63889213D01*
X65111587Y-63932971D01*
X65034622Y-64038903D01*
X64950620Y-64203764D01*
X64950619Y-64203767D01*
X64893445Y-64379734D01*
X64892473Y-64385872D01*
X64862544Y-64449007D01*
X64803232Y-64485938D01*
X64733370Y-64484940D01*
X64675137Y-64446330D01*
X64647527Y-64385872D01*
X64647356Y-64384798D01*
X64646555Y-64379736D01*
X64603394Y-64246898D01*
X64589380Y-64203767D01*
X64589379Y-64203764D01*
X64546577Y-64119763D01*
X64505378Y-64038904D01*
X64475036Y-63997142D01*
X64451557Y-63931338D01*
X64467382Y-63863284D01*
X64513359Y-63816869D01*
X64517663Y-63814385D01*
X67634639Y-60697409D01*
X67695962Y-60663924D01*
X67765654Y-60668908D01*
X67810001Y-60697409D01*
X67814213Y-60701621D01*
X67963904Y-60810378D01*
X68021454Y-60839701D01*
X68128764Y-60894379D01*
X68128767Y-60894380D01*
X68179661Y-60910916D01*
X68304736Y-60951555D01*
X68487486Y-60980500D01*
X68487487Y-60980500D01*
X68672513Y-60980500D01*
X68672514Y-60980500D01*
X68855264Y-60951555D01*
X69031235Y-60894379D01*
X69196096Y-60810378D01*
X69345787Y-60701621D01*
X69476621Y-60570787D01*
X69585378Y-60421096D01*
X69669379Y-60256235D01*
X69726555Y-60080264D01*
X69727527Y-60074126D01*
X69757455Y-60010994D01*
X69816766Y-59974062D01*
X69886629Y-59975058D01*
X69944862Y-60013667D01*
X69972472Y-60074126D01*
X69973445Y-60080264D01*
X69973446Y-60080269D01*
X70030619Y-60256232D01*
X70030620Y-60256235D01*
X70089138Y-60371081D01*
X70114622Y-60421096D01*
X70223379Y-60570787D01*
X70354213Y-60701621D01*
X70503904Y-60810378D01*
X70561454Y-60839701D01*
X70668764Y-60894379D01*
X70668767Y-60894380D01*
X70719661Y-60910916D01*
X70844736Y-60951555D01*
X71027486Y-60980500D01*
X71027487Y-60980500D01*
X71212513Y-60980500D01*
X71212514Y-60980500D01*
X71395264Y-60951555D01*
X71526439Y-60908933D01*
X71596278Y-60906939D01*
X71652436Y-60939184D01*
X71965315Y-61252063D01*
X72044537Y-61331285D01*
X72141563Y-61387303D01*
X72249781Y-61416300D01*
X72249782Y-61416300D01*
X72249783Y-61416300D01*
X74212316Y-61416300D01*
X74212318Y-61416300D01*
X74320537Y-61387303D01*
X74417563Y-61331285D01*
X75181584Y-60567264D01*
X75189645Y-60553303D01*
X75237603Y-60470237D01*
X75264172Y-60371081D01*
X75264628Y-60369382D01*
X75266599Y-60362024D01*
X75266600Y-60362018D01*
X75266600Y-8594783D01*
X75266600Y-8594782D01*
X75257610Y-8561232D01*
X75237603Y-8486563D01*
X75181585Y-8389537D01*
X72872863Y-6080815D01*
X72775837Y-6024797D01*
X72667618Y-5995800D01*
X41226618Y-5995800D01*
X41114581Y-5995800D01*
X41019667Y-6021232D01*
X41019666Y-6021231D01*
X41006366Y-6024796D01*
X41006360Y-6024798D01*
X40909340Y-6080813D01*
X40909334Y-6080817D01*
X38551417Y-8438734D01*
X38551413Y-8438740D01*
X38495398Y-8535760D01*
X38495397Y-8535763D01*
X38466400Y-8643982D01*
X38466400Y-18640492D01*
X38446715Y-18707531D01*
X38430081Y-18728173D01*
X38386626Y-18771627D01*
X38386623Y-18771631D01*
X38315438Y-18878166D01*
X38315433Y-18878175D01*
X38266399Y-18996555D01*
X38266397Y-18996561D01*
X38241400Y-19122228D01*
X38241400Y-19122231D01*
X38241400Y-19250369D01*
X38241400Y-19250371D01*
X38241399Y-19250371D01*
X38266397Y-19376038D01*
X38266399Y-19376044D01*
X38315433Y-19494424D01*
X38315438Y-19494433D01*
X38386623Y-19600968D01*
X38386626Y-19600972D01*
X38477227Y-19691573D01*
X38477231Y-19691576D01*
X38583766Y-19762761D01*
X38583772Y-19762764D01*
X38583773Y-19762765D01*
X38702156Y-19811801D01*
X38702160Y-19811801D01*
X38702161Y-19811802D01*
X38827828Y-19836800D01*
X38827831Y-19836800D01*
X38955971Y-19836800D01*
X39040515Y-19819982D01*
X39081644Y-19811801D01*
X39200027Y-19762765D01*
X39306569Y-19691576D01*
X39306570Y-19691574D01*
X39307309Y-19691081D01*
X39373986Y-19670203D01*
X39441366Y-19688687D01*
X39488057Y-19740666D01*
X39500200Y-19794183D01*
X39500200Y-25899682D01*
X39500200Y-26011718D01*
X39529197Y-26119937D01*
X39585215Y-26216963D01*
X39585217Y-26216965D01*
X40562344Y-27194092D01*
X40595829Y-27255415D01*
X40590845Y-27325107D01*
X40574988Y-27354649D01*
X40568770Y-27363208D01*
X40490128Y-27517550D01*
X40468828Y-27583106D01*
X40429390Y-27640781D01*
X40365031Y-27667979D01*
X40296184Y-27656064D01*
X40263216Y-27632468D01*
X33905719Y-21274971D01*
X33872234Y-21213648D01*
X33869400Y-21187290D01*
X33869400Y-14935084D01*
X33869400Y-14935082D01*
X33840403Y-14826863D01*
X33784385Y-14729837D01*
X33705163Y-14650615D01*
X27888576Y-8834028D01*
X27855091Y-8772705D01*
X27860075Y-8703013D01*
X27901330Y-8647544D01*
X28012922Y-8562922D01*
X28104361Y-8442342D01*
X28159877Y-8301564D01*
X28170500Y-8213102D01*
X28170500Y-7026898D01*
X28159877Y-6938436D01*
X28104361Y-6797658D01*
X28104360Y-6797657D01*
X28104360Y-6797656D01*
X28012922Y-6677077D01*
X27892343Y-6585639D01*
X27751561Y-6530122D01*
X27705926Y-6524642D01*
X27663102Y-6519500D01*
X25676898Y-6519500D01*
X25637853Y-6524188D01*
X25588438Y-6530122D01*
X25447656Y-6585639D01*
X25327077Y-6677077D01*
X25235639Y-6797656D01*
X25180122Y-6938438D01*
X25174188Y-6987853D01*
X25169500Y-7026898D01*
X25169500Y-7026903D01*
X25169500Y-7463290D01*
X25149815Y-7530329D01*
X25097011Y-7576084D01*
X25027853Y-7586028D01*
X24964297Y-7557003D01*
X24957819Y-7550971D01*
X23721019Y-6314171D01*
X23687534Y-6252848D01*
X23684700Y-6226490D01*
X23684700Y-4771084D01*
X23684700Y-4771082D01*
X23655703Y-4662863D01*
X23599685Y-4565837D01*
X23520463Y-4486615D01*
X22688863Y-3655015D01*
X22591837Y-3598997D01*
X22483618Y-3570000D01*
X7490519Y-3570000D01*
X7378482Y-3570000D01*
X7270263Y-3598997D01*
X7270260Y-3598998D01*
X7173240Y-3655013D01*
X7173234Y-3655017D01*
X6885071Y-3943181D01*
X6823748Y-3976666D01*
X6797390Y-3979500D01*
X5356898Y-3979500D01*
X5317853Y-3984188D01*
X5268438Y-3990122D01*
X5127656Y-4045639D01*
X5007077Y-4137077D01*
X4915639Y-4257656D01*
X4860122Y-4398438D01*
X4854188Y-4447853D01*
X4849500Y-4486898D01*
X4849500Y-5673102D01*
X4854150Y-5711823D01*
X4860122Y-5761561D01*
X4915639Y-5902343D01*
X5007077Y-6022922D01*
X5127656Y-6114360D01*
X5127657Y-6114360D01*
X5127658Y-6114361D01*
X5268436Y-6169877D01*
X5356898Y-6180500D01*
X5356903Y-6180500D01*
X7343097Y-6180500D01*
X7343102Y-6180500D01*
X7431564Y-6169877D01*
X7572342Y-6114361D01*
X7692922Y-6022922D01*
X7784361Y-5902342D01*
X7839877Y-5761564D01*
X7850500Y-5673102D01*
X7850500Y-4545000D01*
X7870185Y-4477961D01*
X7922989Y-4432206D01*
X7974500Y-4421000D01*
X19453702Y-4421000D01*
X19520741Y-4440685D01*
X19566496Y-4493489D01*
X19576440Y-4562647D01*
X19547415Y-4626203D01*
X19541383Y-4632681D01*
X11519481Y-12654582D01*
X11519479Y-12654585D01*
X11486746Y-12711282D01*
X11486745Y-12711284D01*
X11440423Y-12791514D01*
X11440423Y-12791515D01*
X11399499Y-12944243D01*
X11399499Y-12944245D01*
X11399499Y-13112346D01*
X11399500Y-13112359D01*
X11399500Y-46212814D01*
X11379815Y-46279853D01*
X11348387Y-46313131D01*
X11283072Y-46360585D01*
X11160588Y-46483069D01*
X11160588Y-46483070D01*
X11160586Y-46483072D01*
X11116859Y-46543256D01*
X11058768Y-46623211D01*
X10980128Y-46777552D01*
X10926597Y-46942302D01*
X10912045Y-47034180D01*
X10899500Y-47113389D01*
X10899500Y-47286611D01*
X10902170Y-47303466D01*
X10922626Y-47432627D01*
X10926598Y-47457701D01*
X10980127Y-47622445D01*
X11058768Y-47776788D01*
X11160586Y-47916928D01*
X11283072Y-48039414D01*
X11423212Y-48141232D01*
X11577555Y-48219873D01*
X11742299Y-48273402D01*
X11913389Y-48300500D01*
X11913390Y-48300500D01*
X12086604Y-48300500D01*
X12086611Y-48300500D01*
X12086617Y-48300498D01*
X12090868Y-48300164D01*
X12159246Y-48314522D01*
X12209008Y-48363569D01*
X12224353Y-48431732D01*
X12200410Y-48497372D01*
X12188289Y-48511462D01*
X11868937Y-48830815D01*
X11789717Y-48910034D01*
X11789713Y-48910040D01*
X11733698Y-49007060D01*
X11733697Y-49007063D01*
X11704700Y-49115282D01*
X11704700Y-52221593D01*
X11685015Y-52288632D01*
X11632211Y-52334387D01*
X11563053Y-52344331D01*
X11524405Y-52332078D01*
X11521235Y-52330463D01*
X11422445Y-52280127D01*
X11257701Y-52226598D01*
X11257699Y-52226597D01*
X11257698Y-52226597D01*
X11109801Y-52203173D01*
X11086611Y-52199500D01*
X10913389Y-52199500D01*
X10890199Y-52203173D01*
X10742302Y-52226597D01*
X10577552Y-52280128D01*
X10423211Y-52358768D01*
X10353686Y-52409282D01*
X10283072Y-52460586D01*
X10283070Y-52460588D01*
X10283069Y-52460588D01*
X10160588Y-52583069D01*
X10160588Y-52583070D01*
X10160586Y-52583072D01*
X10156801Y-52588282D01*
X10058768Y-52723211D01*
X9980128Y-52877552D01*
X9980127Y-52877554D01*
X9980127Y-52877555D01*
X9961538Y-52934766D01*
X9926597Y-53042302D01*
X9899500Y-53213389D01*
X9899500Y-53386616D01*
X9912128Y-53466349D01*
X9911427Y-53471772D01*
X9913339Y-53476899D01*
X9906996Y-53506057D01*
X9903173Y-53535642D01*
X9899342Y-53541244D01*
X9898488Y-53545172D01*
X9877337Y-53573427D01*
X9791286Y-53659478D01*
X9791285Y-53659478D01*
X9791284Y-53659479D01*
X9679481Y-53771282D01*
X9679477Y-53771287D01*
X9669146Y-53789183D01*
X9660776Y-53803681D01*
X9600423Y-53908215D01*
X9559499Y-54060943D01*
X9559499Y-54060945D01*
X9559499Y-54229046D01*
X9559500Y-54229059D01*
X9559500Y-58725110D01*
X9539815Y-58792149D01*
X9508385Y-58825428D01*
X9394216Y-58908376D01*
X9394210Y-58908381D01*
X9263381Y-59039210D01*
X9263381Y-59039211D01*
X9263379Y-59039213D01*
X9236100Y-59076759D01*
X9154622Y-59188903D01*
X9070620Y-59353764D01*
X9070619Y-59353767D01*
X9013445Y-59529734D01*
X9012473Y-59535872D01*
X8982544Y-59599007D01*
X8923232Y-59635938D01*
X8853370Y-59634940D01*
X8795137Y-59596330D01*
X8767527Y-59535872D01*
X8767356Y-59534798D01*
X8766555Y-59529736D01*
X8709379Y-59353765D01*
X8709379Y-59353764D01*
X8666577Y-59269763D01*
X8625378Y-59188904D01*
X8516621Y-59039213D01*
X8385787Y-58908379D01*
X8236096Y-58799622D01*
X8236092Y-58799620D01*
X8071235Y-58715620D01*
X8071232Y-58715619D01*
X7895265Y-58658445D01*
X7802244Y-58643712D01*
X7712514Y-58629500D01*
X7527486Y-58629500D01*
X7488802Y-58635627D01*
X7344734Y-58658445D01*
X7213562Y-58701065D01*
X7143720Y-58703060D01*
X7087563Y-58670815D01*
X6900619Y-58483871D01*
X6867134Y-58422548D01*
X6864300Y-58396190D01*
X6864300Y-54393183D01*
X6883985Y-54326144D01*
X6936789Y-54280389D01*
X7005947Y-54270445D01*
X7044593Y-54282697D01*
X7117555Y-54319873D01*
X7282299Y-54373402D01*
X7453389Y-54400500D01*
X7453390Y-54400500D01*
X7626610Y-54400500D01*
X7626611Y-54400500D01*
X7797701Y-54373402D01*
X7962445Y-54319873D01*
X8116788Y-54241232D01*
X8256928Y-54139414D01*
X8379414Y-54016928D01*
X8481232Y-53876788D01*
X8559873Y-53722445D01*
X8613402Y-53557701D01*
X8640500Y-53386611D01*
X8640500Y-53213389D01*
X8613402Y-53042299D01*
X8584412Y-52953081D01*
X8582418Y-52883241D01*
X8614661Y-52827085D01*
X10456784Y-50984964D01*
X10512803Y-50887937D01*
X10541800Y-50779719D01*
X10541800Y-50667682D01*
X10541800Y-45982153D01*
X10544183Y-45957961D01*
X10570100Y-45827671D01*
X10570100Y-45699528D01*
X10545102Y-45573861D01*
X10545101Y-45573860D01*
X10545101Y-45573856D01*
X10496065Y-45455473D01*
X10496064Y-45455472D01*
X10496061Y-45455466D01*
X10424876Y-45348931D01*
X10424873Y-45348927D01*
X10334272Y-45258326D01*
X10334268Y-45258323D01*
X10227733Y-45187138D01*
X10227724Y-45187133D01*
X10109344Y-45138099D01*
X10109338Y-45138097D01*
X9983671Y-45113100D01*
X9983669Y-45113100D01*
X9855531Y-45113100D01*
X9855529Y-45113100D01*
X9729861Y-45138097D01*
X9729855Y-45138099D01*
X9611475Y-45187133D01*
X9611466Y-45187138D01*
X9504931Y-45258323D01*
X9504927Y-45258326D01*
X9414326Y-45348927D01*
X9414323Y-45348931D01*
X9343138Y-45455466D01*
X9343133Y-45455475D01*
X9294099Y-45573855D01*
X9294097Y-45573861D01*
X9269100Y-45699528D01*
X9269100Y-45699531D01*
X9269100Y-45827669D01*
X9269100Y-45827671D01*
X9269099Y-45827671D01*
X9275465Y-45859670D01*
X9269238Y-45929262D01*
X9226375Y-45984439D01*
X9160485Y-46007684D01*
X9134452Y-46006336D01*
X9094444Y-46000000D01*
X8905553Y-46000000D01*
X8718997Y-46029548D01*
X8539362Y-46087914D01*
X8371060Y-46173669D01*
X8345670Y-46192116D01*
X8345669Y-46192116D01*
X8953553Y-46800000D01*
X8947339Y-46800000D01*
X8845606Y-46827259D01*
X8754394Y-46879920D01*
X8679920Y-46954394D01*
X8627259Y-47045606D01*
X8600000Y-47147339D01*
X8600000Y-47153553D01*
X7992116Y-46545669D01*
X7992116Y-46545670D01*
X7973669Y-46571060D01*
X7887914Y-46739362D01*
X7829548Y-46918997D01*
X7800000Y-47105552D01*
X7800000Y-47294447D01*
X7829548Y-47481002D01*
X7887914Y-47660637D01*
X7973666Y-47828933D01*
X7992116Y-47854328D01*
X8600000Y-47246445D01*
X8600000Y-47252661D01*
X8627259Y-47354394D01*
X8679920Y-47445606D01*
X8754394Y-47520080D01*
X8845606Y-47572741D01*
X8947339Y-47600000D01*
X8953552Y-47600000D01*
X8345669Y-48207882D01*
X8345670Y-48207883D01*
X8371059Y-48226329D01*
X8539362Y-48312085D01*
X8718997Y-48370451D01*
X8905553Y-48400000D01*
X9094447Y-48400000D01*
X9281002Y-48370451D01*
X9460639Y-48312084D01*
X9510504Y-48286677D01*
X9579173Y-48273780D01*
X9643914Y-48300056D01*
X9684171Y-48357162D01*
X9690800Y-48397161D01*
X9690800Y-50496089D01*
X9671115Y-50563128D01*
X9654481Y-50583770D01*
X8012915Y-52225335D01*
X7951592Y-52258820D01*
X7886916Y-52255585D01*
X7797704Y-52226598D01*
X7649801Y-52203173D01*
X7626611Y-52199500D01*
X7453389Y-52199500D01*
X7430199Y-52203173D01*
X7282302Y-52226597D01*
X7117549Y-52280129D01*
X7044594Y-52317301D01*
X6975925Y-52330197D01*
X6911184Y-52303920D01*
X6870928Y-52246813D01*
X6864300Y-52206816D01*
X6864300Y-45437482D01*
X6860450Y-45423115D01*
X6840572Y-45348927D01*
X6835305Y-45329268D01*
X6835303Y-45329264D01*
X6835303Y-45329263D01*
X6831159Y-45322085D01*
X6829359Y-45318968D01*
X6818899Y-45300851D01*
X6779285Y-45232237D01*
X6700063Y-45153015D01*
X6700062Y-45153014D01*
X6695732Y-45148684D01*
X6695721Y-45148674D01*
X6101204Y-44554157D01*
X6067719Y-44492834D01*
X6072703Y-44423142D01*
X6100000Y-44380668D01*
X6100000Y-43495686D01*
X6104394Y-43500080D01*
X6195606Y-43552741D01*
X6297339Y-43580000D01*
X6402661Y-43580000D01*
X6504394Y-43552741D01*
X6595606Y-43500080D01*
X6600000Y-43495686D01*
X6600000Y-44380000D01*
X6844447Y-44380000D01*
X7031002Y-44350451D01*
X7210637Y-44292085D01*
X7378940Y-44206329D01*
X7531741Y-44095314D01*
X7531746Y-44095310D01*
X7665310Y-43961746D01*
X7665314Y-43961741D01*
X7776329Y-43808940D01*
X7862085Y-43640637D01*
X7920451Y-43461002D01*
X7925362Y-43430000D01*
X6665686Y-43430000D01*
X6670080Y-43425606D01*
X6722741Y-43334394D01*
X6750000Y-43232661D01*
X6750000Y-43127339D01*
X6722741Y-43025606D01*
X6670080Y-42934394D01*
X6665686Y-42930000D01*
X7925362Y-42930000D01*
X7920451Y-42898997D01*
X7862085Y-42719362D01*
X7776329Y-42551059D01*
X7665314Y-42398258D01*
X7665310Y-42398253D01*
X7531746Y-42264689D01*
X7531741Y-42264685D01*
X7378940Y-42153670D01*
X7210637Y-42067914D01*
X7031002Y-42009548D01*
X6857720Y-41982102D01*
X6794586Y-41952172D01*
X6757655Y-41892861D01*
X6758653Y-41822998D01*
X6797263Y-41764766D01*
X6857720Y-41737156D01*
X6958290Y-41721228D01*
X7007696Y-41713403D01*
X7007696Y-41713402D01*
X7007701Y-41713402D01*
X7172445Y-41659873D01*
X7326788Y-41581232D01*
X7466928Y-41479414D01*
X7589414Y-41356928D01*
X7691232Y-41216788D01*
X7769873Y-41062445D01*
X7823402Y-40897701D01*
X7850500Y-40726611D01*
X7850500Y-40553389D01*
X7823402Y-40382299D01*
X7769873Y-40217555D01*
X7691232Y-40063212D01*
X7589414Y-39923072D01*
X7466928Y-39800586D01*
X7326788Y-39698768D01*
X7172445Y-39620127D01*
X7007701Y-39566598D01*
X7007699Y-39566597D01*
X7007698Y-39566597D01*
X6855293Y-39542459D01*
X6836611Y-39539500D01*
X5863389Y-39539500D01*
X5844707Y-39542459D01*
X5692302Y-39566597D01*
X5527551Y-39620128D01*
X5484093Y-39642271D01*
X5415424Y-39655166D01*
X5350684Y-39628889D01*
X5310428Y-39571782D01*
X5303800Y-39531785D01*
X5303800Y-39208214D01*
X5323485Y-39141175D01*
X5376289Y-39095420D01*
X5445447Y-39085476D01*
X5484093Y-39097728D01*
X5527555Y-39119873D01*
X5692299Y-39173402D01*
X5863389Y-39200500D01*
X5863390Y-39200500D01*
X6836610Y-39200500D01*
X6836611Y-39200500D01*
X7007701Y-39173402D01*
X7172445Y-39119873D01*
X7326788Y-39041232D01*
X7466928Y-38939414D01*
X7589414Y-38816928D01*
X7691232Y-38676788D01*
X7769873Y-38522445D01*
X7823402Y-38357701D01*
X7850500Y-38186611D01*
X7850500Y-38013389D01*
X7823402Y-37842299D01*
X7769873Y-37677555D01*
X7691232Y-37523212D01*
X7589414Y-37383072D01*
X7466928Y-37260586D01*
X7326788Y-37158768D01*
X7172445Y-37080127D01*
X7007701Y-37026598D01*
X7007699Y-37026597D01*
X7007698Y-37026597D01*
X6876271Y-37005781D01*
X6836611Y-36999500D01*
X5863389Y-36999500D01*
X5823728Y-37005781D01*
X5692302Y-37026597D01*
X5527551Y-37080128D01*
X5484093Y-37102271D01*
X5415424Y-37115166D01*
X5350684Y-37088889D01*
X5310428Y-37031782D01*
X5303800Y-36991785D01*
X5303800Y-36668214D01*
X5323485Y-36601175D01*
X5376289Y-36555420D01*
X5445447Y-36545476D01*
X5484093Y-36557728D01*
X5527555Y-36579873D01*
X5692299Y-36633402D01*
X5863389Y-36660500D01*
X5863390Y-36660500D01*
X6836610Y-36660500D01*
X6836611Y-36660500D01*
X7007701Y-36633402D01*
X7172445Y-36579873D01*
X7326788Y-36501232D01*
X7466928Y-36399414D01*
X7589414Y-36276928D01*
X7691232Y-36136788D01*
X7769873Y-35982445D01*
X7823402Y-35817701D01*
X7850500Y-35646611D01*
X7850500Y-35473389D01*
X7823402Y-35302299D01*
X7769873Y-35137555D01*
X7691232Y-34983212D01*
X7589414Y-34843072D01*
X7466928Y-34720586D01*
X7326788Y-34618768D01*
X7172445Y-34540127D01*
X7007701Y-34486598D01*
X7007699Y-34486597D01*
X7007698Y-34486597D01*
X6857768Y-34462851D01*
X6836611Y-34459500D01*
X5863389Y-34459500D01*
X5842232Y-34462851D01*
X5692302Y-34486597D01*
X5527551Y-34540128D01*
X5484093Y-34562271D01*
X5415424Y-34575166D01*
X5350684Y-34548889D01*
X5310428Y-34491782D01*
X5303800Y-34451785D01*
X5303800Y-34128214D01*
X5323485Y-34061175D01*
X5376289Y-34015420D01*
X5445447Y-34005476D01*
X5484093Y-34017728D01*
X5527555Y-34039873D01*
X5692299Y-34093402D01*
X5863389Y-34120500D01*
X5863390Y-34120500D01*
X6836610Y-34120500D01*
X6836611Y-34120500D01*
X7007701Y-34093402D01*
X7172445Y-34039873D01*
X7326788Y-33961232D01*
X7466928Y-33859414D01*
X7589414Y-33736928D01*
X7691232Y-33596788D01*
X7769873Y-33442445D01*
X7823402Y-33277701D01*
X7850500Y-33106611D01*
X7850500Y-32933389D01*
X7823402Y-32762299D01*
X7769873Y-32597555D01*
X7691232Y-32443212D01*
X7589414Y-32303072D01*
X7466928Y-32180586D01*
X7326788Y-32078768D01*
X7172445Y-32000127D01*
X7007701Y-31946598D01*
X7007699Y-31946597D01*
X7007698Y-31946597D01*
X6876271Y-31925781D01*
X6836611Y-31919500D01*
X5863389Y-31919500D01*
X5823728Y-31925781D01*
X5692302Y-31946597D01*
X5527551Y-32000128D01*
X5484093Y-32022271D01*
X5415424Y-32035166D01*
X5350684Y-32008889D01*
X5310428Y-31951782D01*
X5303800Y-31911785D01*
X5303800Y-31588214D01*
X5323485Y-31521175D01*
X5376289Y-31475420D01*
X5445447Y-31465476D01*
X5484093Y-31477728D01*
X5527555Y-31499873D01*
X5692299Y-31553402D01*
X5863389Y-31580500D01*
X5863390Y-31580500D01*
X6836610Y-31580500D01*
X6836611Y-31580500D01*
X7007701Y-31553402D01*
X7172445Y-31499873D01*
X7326788Y-31421232D01*
X7466928Y-31319414D01*
X7589414Y-31196928D01*
X7691232Y-31056788D01*
X7769873Y-30902445D01*
X7823402Y-30737701D01*
X7850500Y-30566611D01*
X7850500Y-30393389D01*
X7823402Y-30222299D01*
X7769873Y-30057555D01*
X7691232Y-29903212D01*
X7589414Y-29763072D01*
X7466928Y-29640586D01*
X7326788Y-29538768D01*
X7172445Y-29460127D01*
X7007701Y-29406598D01*
X7007699Y-29406597D01*
X7007698Y-29406597D01*
X6876271Y-29385781D01*
X6836611Y-29379500D01*
X5863389Y-29379500D01*
X5823728Y-29385781D01*
X5692302Y-29406597D01*
X5527551Y-29460128D01*
X5484093Y-29482271D01*
X5415424Y-29495166D01*
X5350684Y-29468889D01*
X5310428Y-29411782D01*
X5303800Y-29371785D01*
X5303800Y-29048214D01*
X5323485Y-28981175D01*
X5376289Y-28935420D01*
X5445447Y-28925476D01*
X5484093Y-28937728D01*
X5527555Y-28959873D01*
X5692299Y-29013402D01*
X5863389Y-29040500D01*
X5863390Y-29040500D01*
X6836610Y-29040500D01*
X6836611Y-29040500D01*
X7007701Y-29013402D01*
X7172445Y-28959873D01*
X7326788Y-28881232D01*
X7466928Y-28779414D01*
X7589414Y-28656928D01*
X7691232Y-28516788D01*
X7769873Y-28362445D01*
X7823402Y-28197701D01*
X7850500Y-28026611D01*
X7850500Y-27853389D01*
X7823402Y-27682299D01*
X7769873Y-27517555D01*
X7691232Y-27363212D01*
X7589414Y-27223072D01*
X7466928Y-27100586D01*
X7326788Y-26998768D01*
X7172445Y-26920127D01*
X7007701Y-26866598D01*
X7007699Y-26866597D01*
X7007698Y-26866597D01*
X6876271Y-26845781D01*
X6836611Y-26839500D01*
X5863389Y-26839500D01*
X5823728Y-26845781D01*
X5692302Y-26866597D01*
X5527551Y-26920128D01*
X5484093Y-26942271D01*
X5415424Y-26955166D01*
X5350684Y-26928889D01*
X5310428Y-26871782D01*
X5303800Y-26831785D01*
X5303800Y-26508214D01*
X5323485Y-26441175D01*
X5376289Y-26395420D01*
X5445447Y-26385476D01*
X5484093Y-26397728D01*
X5527555Y-26419873D01*
X5692299Y-26473402D01*
X5863389Y-26500500D01*
X5863390Y-26500500D01*
X6836610Y-26500500D01*
X6836611Y-26500500D01*
X7007701Y-26473402D01*
X7172445Y-26419873D01*
X7326788Y-26341232D01*
X7466928Y-26239414D01*
X7589414Y-26116928D01*
X7691232Y-25976788D01*
X7769873Y-25822445D01*
X7823402Y-25657701D01*
X7850500Y-25486611D01*
X7850500Y-25313389D01*
X7823402Y-25142299D01*
X7769873Y-24977555D01*
X7691232Y-24823212D01*
X7589414Y-24683072D01*
X7466928Y-24560586D01*
X7326788Y-24458768D01*
X7172445Y-24380127D01*
X7007701Y-24326598D01*
X7007699Y-24326597D01*
X7007698Y-24326597D01*
X6876271Y-24305781D01*
X6836611Y-24299500D01*
X5863389Y-24299500D01*
X5823728Y-24305781D01*
X5692302Y-24326597D01*
X5527551Y-24380128D01*
X5484093Y-24402271D01*
X5415424Y-24415166D01*
X5350684Y-24388889D01*
X5310428Y-24331782D01*
X5303800Y-24291785D01*
X5303800Y-23968214D01*
X5323485Y-23901175D01*
X5376289Y-23855420D01*
X5445447Y-23845476D01*
X5484093Y-23857728D01*
X5527555Y-23879873D01*
X5692299Y-23933402D01*
X5863389Y-23960500D01*
X5863390Y-23960500D01*
X6836610Y-23960500D01*
X6836611Y-23960500D01*
X7007701Y-23933402D01*
X7172445Y-23879873D01*
X7326788Y-23801232D01*
X7466928Y-23699414D01*
X7589414Y-23576928D01*
X7691232Y-23436788D01*
X7769873Y-23282445D01*
X7823402Y-23117701D01*
X7850500Y-22946611D01*
X7850500Y-22773389D01*
X7823402Y-22602299D01*
X7769873Y-22437555D01*
X7691232Y-22283212D01*
X7589414Y-22143072D01*
X7466928Y-22020586D01*
X7326788Y-21918768D01*
X7172445Y-21840127D01*
X7007701Y-21786598D01*
X7007699Y-21786597D01*
X7007698Y-21786597D01*
X6876271Y-21765781D01*
X6836611Y-21759500D01*
X5863389Y-21759500D01*
X5823728Y-21765781D01*
X5692302Y-21786597D01*
X5527551Y-21840128D01*
X5484093Y-21862271D01*
X5415424Y-21875166D01*
X5350684Y-21848889D01*
X5310428Y-21791782D01*
X5303800Y-21751785D01*
X5303800Y-21428214D01*
X5323485Y-21361175D01*
X5376289Y-21315420D01*
X5445447Y-21305476D01*
X5484093Y-21317728D01*
X5527555Y-21339873D01*
X5692299Y-21393402D01*
X5863389Y-21420500D01*
X5863390Y-21420500D01*
X6836610Y-21420500D01*
X6836611Y-21420500D01*
X7007701Y-21393402D01*
X7172445Y-21339873D01*
X7326788Y-21261232D01*
X7466928Y-21159414D01*
X7589414Y-21036928D01*
X7691232Y-20896788D01*
X7769873Y-20742445D01*
X7823402Y-20577701D01*
X7850500Y-20406611D01*
X7850500Y-20233389D01*
X7823402Y-20062299D01*
X7769873Y-19897555D01*
X7691232Y-19743212D01*
X7589414Y-19603072D01*
X7466928Y-19480586D01*
X7326788Y-19378768D01*
X7172445Y-19300127D01*
X7007701Y-19246598D01*
X7007699Y-19246597D01*
X7007698Y-19246597D01*
X6876271Y-19225781D01*
X6836611Y-19219500D01*
X5863389Y-19219500D01*
X5823728Y-19225781D01*
X5692302Y-19246597D01*
X5527551Y-19300128D01*
X5484093Y-19322271D01*
X5415424Y-19335166D01*
X5350684Y-19308889D01*
X5310428Y-19251782D01*
X5303800Y-19211785D01*
X5303800Y-18888214D01*
X5323485Y-18821175D01*
X5376289Y-18775420D01*
X5445447Y-18765476D01*
X5484093Y-18777728D01*
X5527555Y-18799873D01*
X5692299Y-18853402D01*
X5863389Y-18880500D01*
X5863390Y-18880500D01*
X6836610Y-18880500D01*
X6836611Y-18880500D01*
X7007701Y-18853402D01*
X7172445Y-18799873D01*
X7326788Y-18721232D01*
X7466928Y-18619414D01*
X7589414Y-18496928D01*
X7691232Y-18356788D01*
X7769873Y-18202445D01*
X7823402Y-18037701D01*
X7850500Y-17866611D01*
X7850500Y-17693389D01*
X7823402Y-17522299D01*
X7769873Y-17357555D01*
X7691232Y-17203212D01*
X7589414Y-17063072D01*
X7466928Y-16940586D01*
X7326788Y-16838768D01*
X7172445Y-16760127D01*
X7007701Y-16706598D01*
X7007699Y-16706597D01*
X7007698Y-16706597D01*
X6876271Y-16685781D01*
X6836611Y-16679500D01*
X5863389Y-16679500D01*
X5823728Y-16685781D01*
X5692302Y-16706597D01*
X5527551Y-16760128D01*
X5484093Y-16782271D01*
X5415424Y-16795166D01*
X5350684Y-16768889D01*
X5310428Y-16711782D01*
X5303800Y-16671785D01*
X5303800Y-16348214D01*
X5323485Y-16281175D01*
X5376289Y-16235420D01*
X5445447Y-16225476D01*
X5484093Y-16237728D01*
X5527555Y-16259873D01*
X5692299Y-16313402D01*
X5863389Y-16340500D01*
X5863390Y-16340500D01*
X6836610Y-16340500D01*
X6836611Y-16340500D01*
X7007701Y-16313402D01*
X7172445Y-16259873D01*
X7326788Y-16181232D01*
X7466928Y-16079414D01*
X7589414Y-15956928D01*
X7691232Y-15816788D01*
X7769873Y-15662445D01*
X7823402Y-15497701D01*
X7850500Y-15326611D01*
X7850500Y-15153389D01*
X7823402Y-14982299D01*
X7769873Y-14817555D01*
X7691232Y-14663212D01*
X7589414Y-14523072D01*
X7466928Y-14400586D01*
X7326788Y-14298768D01*
X7172445Y-14220127D01*
X7007701Y-14166598D01*
X7007699Y-14166597D01*
X7007698Y-14166597D01*
X6876271Y-14145781D01*
X6836611Y-14139500D01*
X5863389Y-14139500D01*
X5823728Y-14145781D01*
X5692302Y-14166597D01*
X5527551Y-14220128D01*
X5484093Y-14242271D01*
X5415424Y-14255166D01*
X5350684Y-14228889D01*
X5310428Y-14171782D01*
X5303800Y-14131785D01*
X5303800Y-13808214D01*
X5323485Y-13741175D01*
X5376289Y-13695420D01*
X5445447Y-13685476D01*
X5484093Y-13697728D01*
X5527555Y-13719873D01*
X5692299Y-13773402D01*
X5863389Y-13800500D01*
X5863390Y-13800500D01*
X6836610Y-13800500D01*
X6836611Y-13800500D01*
X7007701Y-13773402D01*
X7172445Y-13719873D01*
X7326788Y-13641232D01*
X7466928Y-13539414D01*
X7589414Y-13416928D01*
X7691232Y-13276788D01*
X7769873Y-13122445D01*
X7823402Y-12957701D01*
X7850500Y-12786611D01*
X7850500Y-12613389D01*
X7823402Y-12442299D01*
X7769873Y-12277555D01*
X7691232Y-12123212D01*
X7589414Y-11983072D01*
X7466928Y-11860586D01*
X7326788Y-11758768D01*
X7172445Y-11680127D01*
X7007701Y-11626598D01*
X7007699Y-11626597D01*
X7007698Y-11626597D01*
X6876271Y-11605781D01*
X6836611Y-11599500D01*
X5863389Y-11599500D01*
X5823728Y-11605781D01*
X5692302Y-11626597D01*
X5527552Y-11680128D01*
X5373211Y-11758768D01*
X5334288Y-11787048D01*
X5233072Y-11860586D01*
X5233070Y-11860588D01*
X5233069Y-11860588D01*
X5110588Y-11983069D01*
X5110588Y-11983070D01*
X5110586Y-11983072D01*
X5096700Y-12002185D01*
X5008770Y-12123207D01*
X5008766Y-12123215D01*
X4992120Y-12155886D01*
X4966180Y-12206795D01*
X4918208Y-12257590D01*
X4855697Y-12274500D01*
X4822282Y-12274500D01*
X4714063Y-12303497D01*
X4714060Y-12303498D01*
X4617040Y-12359513D01*
X4617034Y-12359517D01*
X4537817Y-12438734D01*
X4537813Y-12438740D01*
X4481798Y-12535760D01*
X4481797Y-12535763D01*
X4452800Y-12643982D01*
X4452800Y-43876982D01*
X4452800Y-43989018D01*
X4470276Y-44054237D01*
X4481797Y-44097236D01*
X4481798Y-44097239D01*
X4496937Y-44123461D01*
X4537815Y-44194263D01*
X4537816Y-44194264D01*
X4537817Y-44194265D01*
X5976981Y-45633428D01*
X6010466Y-45694751D01*
X6013300Y-45721109D01*
X6013300Y-52457596D01*
X5993615Y-52524635D01*
X5940811Y-52570390D01*
X5871653Y-52580334D01*
X5808097Y-52551309D01*
X5801619Y-52545277D01*
X5716930Y-52460588D01*
X5716928Y-52460586D01*
X5576788Y-52358768D01*
X5422445Y-52280127D01*
X5257701Y-52226598D01*
X5257699Y-52226597D01*
X5257698Y-52226597D01*
X5109801Y-52203173D01*
X5086611Y-52199500D01*
X4913389Y-52199500D01*
X4913383Y-52199500D01*
X4833650Y-52212128D01*
X4828225Y-52211426D01*
X4823099Y-52213339D01*
X4793943Y-52206996D01*
X4764357Y-52203173D01*
X4758753Y-52199341D01*
X4754826Y-52198487D01*
X4726572Y-52177336D01*
X4636819Y-52087583D01*
X4603334Y-52026260D01*
X4600500Y-51999902D01*
X4600500Y-48187184D01*
X4620185Y-48120145D01*
X4651609Y-48086870D01*
X4716928Y-48039414D01*
X4839414Y-47916928D01*
X4941232Y-47776788D01*
X5019873Y-47622445D01*
X5073402Y-47457701D01*
X5100500Y-47286611D01*
X5100500Y-47113389D01*
X5073402Y-46942299D01*
X5019873Y-46777555D01*
X4941232Y-46623212D01*
X4839414Y-46483072D01*
X4716928Y-46360586D01*
X4576788Y-46258768D01*
X4466431Y-46202539D01*
X4422447Y-46180128D01*
X4422446Y-46180127D01*
X4422445Y-46180127D01*
X4257701Y-46126598D01*
X4257699Y-46126597D01*
X4257698Y-46126597D01*
X4126271Y-46105781D01*
X4086611Y-46099500D01*
X3913389Y-46099500D01*
X3873728Y-46105781D01*
X3742302Y-46126597D01*
X3742299Y-46126598D01*
X3597428Y-46173670D01*
X3577552Y-46180128D01*
X3423211Y-46258768D01*
X3367060Y-46299565D01*
X3283072Y-46360586D01*
X3283070Y-46360588D01*
X3283069Y-46360588D01*
X3160588Y-46483069D01*
X3160588Y-46483070D01*
X3160586Y-46483072D01*
X3116859Y-46543256D01*
X3058768Y-46623211D01*
X2980128Y-46777552D01*
X2926597Y-46942302D01*
X2912045Y-47034180D01*
X2899500Y-47113389D01*
X2899500Y-47286611D01*
X2902170Y-47303466D01*
X2922626Y-47432627D01*
X2926598Y-47457701D01*
X2980127Y-47622445D01*
X3058768Y-47776788D01*
X3160586Y-47916928D01*
X3283072Y-48039414D01*
X3348388Y-48086868D01*
X3391051Y-48142195D01*
X3399500Y-48187184D01*
X3399500Y-52213330D01*
X3399499Y-52213348D01*
X3399499Y-52379054D01*
X3399498Y-52379054D01*
X3399499Y-52379057D01*
X3440423Y-52531785D01*
X3440424Y-52531787D01*
X3440423Y-52531787D01*
X3451680Y-52551283D01*
X3451681Y-52551285D01*
X3519475Y-52668709D01*
X3519481Y-52668717D01*
X3638349Y-52787585D01*
X3638355Y-52787590D01*
X3877336Y-53026572D01*
X3910821Y-53087895D01*
X3912128Y-53133650D01*
X3899500Y-53213383D01*
X3899500Y-53386610D01*
X3924613Y-53545172D01*
X3926598Y-53557701D01*
X3980127Y-53722445D01*
X4058768Y-53876788D01*
X4160586Y-54016928D01*
X4283072Y-54139414D01*
X4423212Y-54241232D01*
X4577555Y-54319873D01*
X4742299Y-54373402D01*
X4913389Y-54400500D01*
X4913390Y-54400500D01*
X5086610Y-54400500D01*
X5086611Y-54400500D01*
X5257701Y-54373402D01*
X5422445Y-54319873D01*
X5576788Y-54241232D01*
X5716928Y-54139414D01*
X5801619Y-54054723D01*
X5862942Y-54021238D01*
X5932634Y-54026222D01*
X5988567Y-54068094D01*
X6012984Y-54133558D01*
X6013300Y-54142404D01*
X6013300Y-58505500D01*
X5993615Y-58572539D01*
X5940811Y-58618294D01*
X5889300Y-58629500D01*
X4160143Y-58629500D01*
X4160117Y-58629502D01*
X4135012Y-58632413D01*
X4135008Y-58632415D01*
X4032235Y-58677793D01*
X3952794Y-58757234D01*
X3907415Y-58860006D01*
X3907415Y-58860008D01*
X3904500Y-58885131D01*
X3904500Y-60724856D01*
X3904502Y-60724882D01*
X3907413Y-60749987D01*
X3907415Y-60749991D01*
X3952793Y-60852764D01*
X3952794Y-60852765D01*
X4032235Y-60932206D01*
X4135009Y-60977585D01*
X4160135Y-60980500D01*
X5999864Y-60980499D01*
X5999879Y-60980497D01*
X5999882Y-60980497D01*
X6024987Y-60977586D01*
X6024988Y-60977585D01*
X6024991Y-60977585D01*
X6127765Y-60932206D01*
X6207206Y-60852765D01*
X6252585Y-60749991D01*
X6255500Y-60724865D01*
X6255499Y-60192400D01*
X6275183Y-60125364D01*
X6327987Y-60079609D01*
X6397146Y-60069665D01*
X6460702Y-60098690D01*
X6497430Y-60154085D01*
X6530619Y-60256232D01*
X6530620Y-60256235D01*
X6589138Y-60371081D01*
X6614622Y-60421096D01*
X6723379Y-60570787D01*
X6854213Y-60701621D01*
X7003904Y-60810378D01*
X7061454Y-60839701D01*
X7168764Y-60894379D01*
X7168767Y-60894380D01*
X7219661Y-60910916D01*
X7344736Y-60951555D01*
X7527486Y-60980500D01*
X7527487Y-60980500D01*
X7712513Y-60980500D01*
X7712514Y-60980500D01*
X7895264Y-60951555D01*
X8071235Y-60894379D01*
X8236096Y-60810378D01*
X8385787Y-60701621D01*
X8516621Y-60570787D01*
X8625378Y-60421096D01*
X8709379Y-60256235D01*
X8766555Y-60080264D01*
X8767527Y-60074126D01*
X8797455Y-60010994D01*
X8856766Y-59974062D01*
X8926629Y-59975058D01*
X8984862Y-60013667D01*
X9012472Y-60074126D01*
X9013445Y-60080264D01*
X9013446Y-60080269D01*
X9070619Y-60256232D01*
X9070620Y-60256235D01*
X9129138Y-60371081D01*
X9154622Y-60421096D01*
X9263379Y-60570787D01*
X9394213Y-60701621D01*
X9543904Y-60810378D01*
X9601454Y-60839701D01*
X9708764Y-60894379D01*
X9708767Y-60894380D01*
X9759661Y-60910916D01*
X9884736Y-60951555D01*
X10067486Y-60980500D01*
X10067487Y-60980500D01*
X10252513Y-60980500D01*
X10252514Y-60980500D01*
X10398668Y-60957351D01*
X10467960Y-60966305D01*
X10521412Y-61011301D01*
X10542052Y-61078053D01*
X10523327Y-61145367D01*
X10505746Y-61167505D01*
X8152435Y-63520815D01*
X8091112Y-63554300D01*
X8026436Y-63551065D01*
X7895265Y-63508445D01*
X7803889Y-63493972D01*
X7712514Y-63479500D01*
X7527486Y-63479500D01*
X7492306Y-63485072D01*
X7344734Y-63508445D01*
X7168767Y-63565619D01*
X7168764Y-63565620D01*
X7003903Y-63649622D01*
X6960845Y-63680906D01*
X6854213Y-63758379D01*
X6854211Y-63758381D01*
X6854210Y-63758381D01*
X6723381Y-63889210D01*
X6723381Y-63889211D01*
X6723379Y-63889213D01*
X6691587Y-63932971D01*
X6614622Y-64038903D01*
X6530620Y-64203764D01*
X6530619Y-64203767D01*
X6473445Y-64379734D01*
X6472473Y-64385872D01*
X6442544Y-64449007D01*
X6383232Y-64485938D01*
X6313370Y-64484940D01*
X6255137Y-64446330D01*
X6227527Y-64385872D01*
X6227356Y-64384798D01*
X6226555Y-64379736D01*
X6183394Y-64246898D01*
X6169380Y-64203767D01*
X6169379Y-64203764D01*
X6126577Y-64119763D01*
X6085378Y-64038904D01*
X5976621Y-63889213D01*
X5845787Y-63758379D01*
X5696096Y-63649622D01*
X5680737Y-63641796D01*
X5531235Y-63565620D01*
X5531232Y-63565619D01*
X5355265Y-63508445D01*
X5263889Y-63493972D01*
X5172514Y-63479500D01*
X4987486Y-63479500D01*
X4952306Y-63485072D01*
X4804734Y-63508445D01*
X4628767Y-63565619D01*
X4628764Y-63565620D01*
X4463903Y-63649622D01*
X4420845Y-63680906D01*
X4314213Y-63758379D01*
X4314211Y-63758381D01*
X4314210Y-63758381D01*
X4183381Y-63889210D01*
X4183381Y-63889211D01*
X4183379Y-63889213D01*
X4151587Y-63932971D01*
X4074622Y-64038903D01*
X3990620Y-64203764D01*
X3990619Y-64203767D01*
X3933445Y-64379734D01*
X3904500Y-64562486D01*
X3904500Y-64747513D01*
X3933445Y-64930265D01*
X3990619Y-65106232D01*
X3990620Y-65106235D01*
X4010083Y-65144432D01*
X4074622Y-65271096D01*
X4183379Y-65420787D01*
X4183381Y-65420789D01*
X4290411Y-65527819D01*
X4323896Y-65589142D01*
X4318912Y-65658834D01*
X4277040Y-65714767D01*
X4211576Y-65739184D01*
X4202730Y-65739500D01*
X424500Y-65739500D01*
X357461Y-65719815D01*
X311706Y-65667011D01*
X300500Y-65615500D01*
X300500Y-10073389D01*
X4849500Y-10073389D01*
X4849500Y-10246610D01*
X4872962Y-10394748D01*
X4876598Y-10417701D01*
X4892347Y-10466172D01*
X4930128Y-10582447D01*
X4950189Y-10621819D01*
X5008768Y-10736788D01*
X5110586Y-10876928D01*
X5233072Y-10999414D01*
X5373212Y-11101232D01*
X5527555Y-11179873D01*
X5692299Y-11233402D01*
X5863389Y-11260500D01*
X5863390Y-11260500D01*
X6836610Y-11260500D01*
X6836611Y-11260500D01*
X7007701Y-11233402D01*
X7172445Y-11179873D01*
X7326788Y-11101232D01*
X7466928Y-10999414D01*
X7589414Y-10876928D01*
X7691232Y-10736788D01*
X7769873Y-10582445D01*
X7823402Y-10417701D01*
X7850500Y-10246611D01*
X7850500Y-10073389D01*
X7823402Y-9902299D01*
X7769873Y-9737555D01*
X7691232Y-9583212D01*
X7589414Y-9443072D01*
X7466928Y-9320586D01*
X7326788Y-9218768D01*
X7172445Y-9140127D01*
X7007701Y-9086598D01*
X7007699Y-9086597D01*
X7007698Y-9086597D01*
X6876271Y-9065781D01*
X6836611Y-9059500D01*
X5863389Y-9059500D01*
X5823728Y-9065781D01*
X5692302Y-9086597D01*
X5527552Y-9140128D01*
X5373211Y-9218768D01*
X5326233Y-9252900D01*
X5233072Y-9320586D01*
X5233070Y-9320588D01*
X5233069Y-9320588D01*
X5110588Y-9443069D01*
X5110588Y-9443070D01*
X5110586Y-9443072D01*
X5079366Y-9486043D01*
X5008768Y-9583211D01*
X4930128Y-9737552D01*
X4876597Y-9902302D01*
X4849500Y-10073389D01*
X300500Y-10073389D01*
X300500Y-7533389D01*
X4849500Y-7533389D01*
X4849500Y-7706610D01*
X4872578Y-7852324D01*
X4876598Y-7877701D01*
X4930127Y-8042445D01*
X5008768Y-8196788D01*
X5110586Y-8336928D01*
X5233072Y-8459414D01*
X5373212Y-8561232D01*
X5527555Y-8639873D01*
X5692299Y-8693402D01*
X5863389Y-8720500D01*
X5863390Y-8720500D01*
X6836610Y-8720500D01*
X6836611Y-8720500D01*
X7007701Y-8693402D01*
X7172445Y-8639873D01*
X7326788Y-8561232D01*
X7466928Y-8459414D01*
X7589414Y-8336928D01*
X7691232Y-8196788D01*
X7769873Y-8042445D01*
X7823402Y-7877701D01*
X7850500Y-7706611D01*
X7850500Y-7533389D01*
X7823402Y-7362299D01*
X7769873Y-7197555D01*
X7691232Y-7043212D01*
X7589414Y-6903072D01*
X7466928Y-6780586D01*
X7326788Y-6678768D01*
X7172445Y-6600127D01*
X7007701Y-6546598D01*
X7007699Y-6546597D01*
X7007698Y-6546597D01*
X6876271Y-6525781D01*
X6836611Y-6519500D01*
X5863389Y-6519500D01*
X5823728Y-6525781D01*
X5692302Y-6546597D01*
X5527552Y-6600128D01*
X5373211Y-6678768D01*
X5322843Y-6715363D01*
X5233072Y-6780586D01*
X5233070Y-6780588D01*
X5233069Y-6780588D01*
X5110588Y-6903069D01*
X5110588Y-6903070D01*
X5110586Y-6903072D01*
X5084891Y-6938438D01*
X5008768Y-7043211D01*
X4930128Y-7197552D01*
X4876597Y-7362302D01*
X4849500Y-7533389D01*
X300500Y-7533389D01*
X300500Y-424500D01*
X320185Y-357461D01*
X372989Y-311706D01*
X424500Y-300500D01*
X78315500Y-300500D01*
X78382539Y-320185D01*
G37*
%TD.AperFunction*%
%TA.AperFunction,Conductor*%
G36*
X14764755Y-64851853D02*
G01*
X14831898Y-64968147D01*
X14926853Y-65063102D01*
X15043147Y-65130245D01*
X15102425Y-65146128D01*
X14545371Y-65703181D01*
X14484048Y-65736666D01*
X14457690Y-65739500D01*
X13577270Y-65739500D01*
X13510231Y-65719815D01*
X13464476Y-65667011D01*
X13454532Y-65597853D01*
X13483557Y-65534297D01*
X13489589Y-65527819D01*
X13596621Y-65420787D01*
X13705378Y-65271096D01*
X13789379Y-65106235D01*
X13789382Y-65106227D01*
X13799759Y-65074290D01*
X13839196Y-65016614D01*
X13903554Y-64989415D01*
X13972401Y-65001329D01*
X14023877Y-65048573D01*
X14035621Y-65074289D01*
X14058412Y-65144432D01*
X14149522Y-65323246D01*
X14178422Y-65363022D01*
X14178423Y-65363023D01*
X14748871Y-64792574D01*
X14764755Y-64851853D01*
G37*
%TD.AperFunction*%
%TA.AperFunction,Conductor*%
G36*
X16301576Y-65363022D02*
G01*
X16330477Y-65323246D01*
X16421588Y-65144431D01*
X16444378Y-65074290D01*
X16483814Y-65016614D01*
X16548173Y-64989415D01*
X16617019Y-65001329D01*
X16668496Y-65048573D01*
X16680239Y-65074287D01*
X16690617Y-65106227D01*
X16690620Y-65106235D01*
X16710083Y-65144432D01*
X16774622Y-65271096D01*
X16883379Y-65420787D01*
X16883381Y-65420789D01*
X16990411Y-65527819D01*
X17023896Y-65589142D01*
X17018912Y-65658834D01*
X16977040Y-65714767D01*
X16911576Y-65739184D01*
X16902730Y-65739500D01*
X16022308Y-65739500D01*
X15955269Y-65719815D01*
X15934627Y-65703181D01*
X15377574Y-65146128D01*
X15436853Y-65130245D01*
X15553147Y-65063102D01*
X15648102Y-64968147D01*
X15715245Y-64851853D01*
X15731128Y-64792574D01*
X16301576Y-65363022D01*
G37*
%TD.AperFunction*%
%TA.AperFunction,Conductor*%
G36*
X16114374Y-60835316D02*
G01*
X16163069Y-60885421D01*
X16177400Y-60943289D01*
X16177400Y-62069192D01*
X16157715Y-62136231D01*
X16141081Y-62156873D01*
X16097626Y-62200327D01*
X16097623Y-62200331D01*
X16026438Y-62306866D01*
X16026433Y-62306875D01*
X15977399Y-62425255D01*
X15977397Y-62425261D01*
X15952400Y-62550928D01*
X15952400Y-62550931D01*
X15952400Y-62679069D01*
X15952400Y-62679071D01*
X15952399Y-62679071D01*
X15977397Y-62804738D01*
X15977399Y-62804744D01*
X16026433Y-62923124D01*
X16026438Y-62923133D01*
X16097623Y-63029668D01*
X16097626Y-63029672D01*
X16188227Y-63120273D01*
X16188231Y-63120276D01*
X16294766Y-63191461D01*
X16294772Y-63191464D01*
X16294773Y-63191465D01*
X16413156Y-63240501D01*
X16413160Y-63240501D01*
X16413161Y-63240502D01*
X16538828Y-63265500D01*
X16538831Y-63265500D01*
X16666971Y-63265500D01*
X16751515Y-63248682D01*
X16792644Y-63240501D01*
X16911027Y-63191465D01*
X17017569Y-63120276D01*
X17108176Y-63029669D01*
X17179365Y-62923127D01*
X17228401Y-62804744D01*
X17248895Y-62701719D01*
X17253400Y-62679071D01*
X17253400Y-62550928D01*
X17228402Y-62425261D01*
X17228401Y-62425260D01*
X17228401Y-62425256D01*
X17179365Y-62306873D01*
X17179364Y-62306872D01*
X17179361Y-62306866D01*
X17108176Y-62200331D01*
X17108173Y-62200327D01*
X17064719Y-62156873D01*
X17031234Y-62095550D01*
X17028400Y-62069192D01*
X17028400Y-61055356D01*
X17048085Y-60988317D01*
X17100889Y-60942562D01*
X17170047Y-60932618D01*
X17208696Y-60944872D01*
X17290565Y-60986587D01*
X17481440Y-61048606D01*
X17679650Y-61080000D01*
X17880350Y-61080000D01*
X18078559Y-61048606D01*
X18269432Y-60986587D01*
X18444205Y-60897536D01*
X18512874Y-60884640D01*
X18577614Y-60910916D01*
X18617872Y-60968022D01*
X18624500Y-61008021D01*
X18624500Y-63157390D01*
X18604815Y-63224429D01*
X18588181Y-63245071D01*
X18312436Y-63520815D01*
X18251113Y-63554300D01*
X18186437Y-63551065D01*
X18055265Y-63508445D01*
X17963889Y-63493972D01*
X17872514Y-63479500D01*
X17687486Y-63479500D01*
X17652306Y-63485072D01*
X17504734Y-63508445D01*
X17328767Y-63565619D01*
X17328764Y-63565620D01*
X17163903Y-63649622D01*
X17120845Y-63680906D01*
X17014213Y-63758379D01*
X17014211Y-63758381D01*
X17014210Y-63758381D01*
X16883381Y-63889210D01*
X16883381Y-63889211D01*
X16883379Y-63889213D01*
X16851587Y-63932971D01*
X16774622Y-64038903D01*
X16690620Y-64203764D01*
X16690619Y-64203769D01*
X16680239Y-64235713D01*
X16640800Y-64293388D01*
X16576441Y-64320584D01*
X16507595Y-64308668D01*
X16456120Y-64261422D01*
X16444378Y-64235709D01*
X16421588Y-64165569D01*
X16330478Y-63986754D01*
X16301576Y-63946976D01*
X16301576Y-63946975D01*
X15731128Y-64517424D01*
X15715245Y-64458147D01*
X15648102Y-64341853D01*
X15553147Y-64246898D01*
X15436853Y-64179755D01*
X15377574Y-64163871D01*
X15948023Y-63593423D01*
X15948022Y-63593422D01*
X15908246Y-63564522D01*
X15729432Y-63473412D01*
X15538559Y-63411393D01*
X15340350Y-63380000D01*
X15139650Y-63380000D01*
X14941440Y-63411393D01*
X14750567Y-63473412D01*
X14571755Y-63564521D01*
X14531976Y-63593422D01*
X15102425Y-64163871D01*
X15043147Y-64179755D01*
X14926853Y-64246898D01*
X14831898Y-64341853D01*
X14764755Y-64458147D01*
X14748871Y-64517425D01*
X14178422Y-63946976D01*
X14149521Y-63986755D01*
X14058412Y-64165565D01*
X14035621Y-64235711D01*
X13996183Y-64293386D01*
X13931824Y-64320584D01*
X13862978Y-64308669D01*
X13811502Y-64261425D01*
X13799759Y-64235710D01*
X13789380Y-64203767D01*
X13789379Y-64203764D01*
X13746577Y-64119763D01*
X13705378Y-64038904D01*
X13596621Y-63889213D01*
X13465787Y-63758379D01*
X13316096Y-63649622D01*
X13300737Y-63641796D01*
X13151235Y-63565620D01*
X13151232Y-63565619D01*
X12975265Y-63508445D01*
X12883889Y-63493972D01*
X12792514Y-63479500D01*
X12607486Y-63479500D01*
X12572306Y-63485072D01*
X12424734Y-63508445D01*
X12248767Y-63565619D01*
X12248759Y-63565623D01*
X12135614Y-63623273D01*
X12066945Y-63636169D01*
X12002205Y-63609892D01*
X11961948Y-63552786D01*
X11958956Y-63482980D01*
X11991637Y-63425109D01*
X14310485Y-61106263D01*
X14366503Y-61009237D01*
X14378767Y-60963464D01*
X14415130Y-60903806D01*
X14477976Y-60873276D01*
X14547352Y-60881570D01*
X14567537Y-60893031D01*
X14567598Y-60892932D01*
X14570567Y-60894751D01*
X14571417Y-60895234D01*
X14571749Y-60895475D01*
X14750567Y-60986587D01*
X14941440Y-61048606D01*
X15139650Y-61080000D01*
X15340350Y-61080000D01*
X15538559Y-61048606D01*
X15729432Y-60986587D01*
X15908250Y-60895475D01*
X15980514Y-60842972D01*
X16046320Y-60819491D01*
X16114374Y-60835316D01*
G37*
%TD.AperFunction*%
%TA.AperFunction,Conductor*%
G36*
X58263499Y-29824685D02*
G01*
X58309254Y-29877489D01*
X58319198Y-29946647D01*
X58306945Y-29985295D01*
X58270128Y-30057552D01*
X58216597Y-30222302D01*
X58189500Y-30393389D01*
X58189500Y-30566610D01*
X58216597Y-30737697D01*
X58216597Y-30737699D01*
X58216598Y-30737701D01*
X58270127Y-30902445D01*
X58348768Y-31056788D01*
X58450586Y-31196928D01*
X58573072Y-31319414D01*
X58713212Y-31421232D01*
X58867555Y-31499873D01*
X59032299Y-31553402D01*
X59203389Y-31580500D01*
X59203390Y-31580500D01*
X60176610Y-31580500D01*
X60176611Y-31580500D01*
X60347701Y-31553402D01*
X60512445Y-31499873D01*
X60666788Y-31421232D01*
X60806928Y-31319414D01*
X60929414Y-31196928D01*
X61031232Y-31056788D01*
X61109873Y-30902445D01*
X61142723Y-30801343D01*
X61182159Y-30743669D01*
X61246518Y-30716471D01*
X61315364Y-30728386D01*
X61348334Y-30751982D01*
X62456581Y-31860229D01*
X62490066Y-31921552D01*
X62492900Y-31947910D01*
X62492900Y-32584082D01*
X62492900Y-32696118D01*
X62510379Y-32761349D01*
X62521897Y-32804336D01*
X62521898Y-32804339D01*
X62528135Y-32815142D01*
X62577915Y-32901363D01*
X65577037Y-35900485D01*
X65674063Y-35956503D01*
X65782281Y-35985500D01*
X65782282Y-35985500D01*
X65815697Y-35985500D01*
X65882736Y-36005185D01*
X65926180Y-36053204D01*
X65942216Y-36084676D01*
X65968766Y-36136784D01*
X65968770Y-36136792D01*
X66006659Y-36188940D01*
X66070586Y-36276928D01*
X66193072Y-36399414D01*
X66333212Y-36501232D01*
X66487555Y-36579873D01*
X66652299Y-36633402D01*
X66779898Y-36653611D01*
X66843032Y-36683540D01*
X66879964Y-36742851D01*
X66884500Y-36776084D01*
X66884500Y-43662389D01*
X66864815Y-43729428D01*
X66848181Y-43750070D01*
X64437104Y-46161146D01*
X64375781Y-46194631D01*
X64312707Y-46190120D01*
X64312247Y-46191638D01*
X64306423Y-46189871D01*
X64306420Y-46189870D01*
X64306415Y-46189869D01*
X64306412Y-46189868D01*
X64103469Y-46149500D01*
X64103465Y-46149500D01*
X63896535Y-46149500D01*
X63896530Y-46149500D01*
X63693587Y-46189868D01*
X63693579Y-46189870D01*
X63502403Y-46269058D01*
X63330342Y-46384024D01*
X63184024Y-46530342D01*
X63069058Y-46702403D01*
X62989870Y-46893579D01*
X62989868Y-46893587D01*
X62949500Y-47096530D01*
X62949500Y-47303469D01*
X62989868Y-47506412D01*
X62989870Y-47506420D01*
X63053831Y-47660836D01*
X63069059Y-47697598D01*
X63108989Y-47757358D01*
X63184024Y-47869657D01*
X63330342Y-48015975D01*
X63330345Y-48015977D01*
X63502402Y-48130941D01*
X63693580Y-48210130D01*
X63852616Y-48241764D01*
X63896530Y-48250499D01*
X63896534Y-48250500D01*
X63896535Y-48250500D01*
X64103466Y-48250500D01*
X64103467Y-48250499D01*
X64306420Y-48210130D01*
X64497598Y-48130941D01*
X64669655Y-48015977D01*
X64815977Y-47869655D01*
X64930941Y-47697598D01*
X65010130Y-47506420D01*
X65050500Y-47303465D01*
X65050500Y-47096535D01*
X65010130Y-46893580D01*
X65010126Y-46893572D01*
X65008361Y-46887749D01*
X65010798Y-46887009D01*
X65004493Y-46828615D01*
X65035739Y-46766121D01*
X65038824Y-46762922D01*
X67650485Y-44151263D01*
X67706503Y-44054237D01*
X67735500Y-43946018D01*
X67735500Y-43833982D01*
X67735500Y-36776084D01*
X67755185Y-36709045D01*
X67807989Y-36663290D01*
X67840099Y-36653612D01*
X67967701Y-36633402D01*
X68132445Y-36579873D01*
X68286788Y-36501232D01*
X68321014Y-36476364D01*
X68386820Y-36452885D01*
X68454874Y-36468710D01*
X68503569Y-36518816D01*
X68517900Y-36576683D01*
X68517900Y-52379689D01*
X68498215Y-52446728D01*
X68481581Y-52467370D01*
X61970860Y-58978090D01*
X61909537Y-59011575D01*
X61839845Y-59006591D01*
X61795498Y-58978090D01*
X61725789Y-58908381D01*
X61725787Y-58908379D01*
X61625808Y-58835740D01*
X61576094Y-58799620D01*
X61453204Y-58737004D01*
X61402409Y-58689030D01*
X61385500Y-58626520D01*
X61385500Y-58403784D01*
X61385500Y-58403782D01*
X61356503Y-58295563D01*
X61300485Y-58198537D01*
X61221263Y-58119315D01*
X51763654Y-48661706D01*
X51730169Y-48600383D01*
X51735153Y-48530691D01*
X51750000Y-48507589D01*
X51750000Y-47575277D01*
X51826306Y-47619333D01*
X51940756Y-47650000D01*
X52059244Y-47650000D01*
X52173694Y-47619333D01*
X52250000Y-47575277D01*
X52250000Y-48499999D01*
X52931479Y-48499999D01*
X53025149Y-48485164D01*
X53025155Y-48485162D01*
X53138041Y-48427643D01*
X53138050Y-48427636D01*
X53227636Y-48338050D01*
X53227639Y-48338046D01*
X53285166Y-48225144D01*
X53299999Y-48131485D01*
X53299999Y-47917333D01*
X53319683Y-47850293D01*
X53372487Y-47804538D01*
X53441645Y-47794594D01*
X53505201Y-47823619D01*
X53524316Y-47844446D01*
X53617382Y-47972537D01*
X53624310Y-47982073D01*
X53757927Y-48115690D01*
X53910801Y-48226760D01*
X53951596Y-48247546D01*
X54079163Y-48312545D01*
X54079165Y-48312545D01*
X54079168Y-48312547D01*
X54157658Y-48338050D01*
X54258881Y-48370940D01*
X54445514Y-48400500D01*
X54445519Y-48400500D01*
X54634486Y-48400500D01*
X54821118Y-48370940D01*
X54863522Y-48357162D01*
X55000832Y-48312547D01*
X55169199Y-48226760D01*
X55322073Y-48115690D01*
X55455690Y-47982073D01*
X55566760Y-47829199D01*
X55652547Y-47660832D01*
X55710940Y-47481118D01*
X55711988Y-47474499D01*
X55740500Y-47294486D01*
X55740500Y-47105513D01*
X55710940Y-46918881D01*
X55665019Y-46777552D01*
X55652547Y-46739168D01*
X55652545Y-46739165D01*
X55652545Y-46739163D01*
X55596423Y-46629018D01*
X55566760Y-46570801D01*
X55455690Y-46417927D01*
X55322073Y-46284310D01*
X55169199Y-46173240D01*
X55155690Y-46166357D01*
X55000836Y-46087454D01*
X54821118Y-46029059D01*
X54634486Y-45999500D01*
X54634481Y-45999500D01*
X54445519Y-45999500D01*
X54445514Y-45999500D01*
X54258881Y-46029059D01*
X54079163Y-46087454D01*
X53910800Y-46173240D01*
X53856332Y-46212814D01*
X53757927Y-46284310D01*
X53757925Y-46284312D01*
X53757924Y-46284312D01*
X53624312Y-46417924D01*
X53624305Y-46417933D01*
X53524316Y-46555554D01*
X53468986Y-46598220D01*
X53399373Y-46604198D01*
X53337578Y-46571592D01*
X53303221Y-46510753D01*
X53299999Y-46482668D01*
X53299999Y-46268520D01*
X53285164Y-46174850D01*
X53285162Y-46174844D01*
X53227643Y-46061958D01*
X53227636Y-46061949D01*
X53138050Y-45972363D01*
X53138046Y-45972360D01*
X53025144Y-45914833D01*
X52931486Y-45900000D01*
X52250000Y-45900000D01*
X52250000Y-46824722D01*
X52173694Y-46780667D01*
X52059244Y-46750000D01*
X51940756Y-46750000D01*
X51826306Y-46780667D01*
X51750000Y-46824722D01*
X51750000Y-45900000D01*
X51321100Y-45900000D01*
X51254061Y-45880315D01*
X51208306Y-45827511D01*
X51197100Y-45776000D01*
X51197100Y-44765010D01*
X51216785Y-44697971D01*
X51233419Y-44677329D01*
X52849729Y-43061019D01*
X52911052Y-43027534D01*
X52937410Y-43024700D01*
X52998871Y-43024700D01*
X53083415Y-43007882D01*
X53124544Y-42999701D01*
X53242927Y-42950665D01*
X53349469Y-42879476D01*
X53440076Y-42788869D01*
X53511265Y-42682327D01*
X53560301Y-42563944D01*
X53568482Y-42522815D01*
X53585300Y-42438271D01*
X53585300Y-42310128D01*
X53560302Y-42184461D01*
X53560301Y-42184460D01*
X53560301Y-42184456D01*
X53516827Y-42079500D01*
X53511266Y-42066075D01*
X53511261Y-42066066D01*
X53440076Y-41959531D01*
X53440073Y-41959527D01*
X53349472Y-41868926D01*
X53349468Y-41868923D01*
X53242933Y-41797738D01*
X53242924Y-41797733D01*
X53124544Y-41748699D01*
X53124538Y-41748697D01*
X52998871Y-41723700D01*
X52998869Y-41723700D01*
X52870731Y-41723700D01*
X52870729Y-41723700D01*
X52745061Y-41748697D01*
X52745055Y-41748699D01*
X52626675Y-41797733D01*
X52626666Y-41797738D01*
X52520131Y-41868923D01*
X52520127Y-41868926D01*
X52429526Y-41959527D01*
X52429523Y-41959531D01*
X52358338Y-42066066D01*
X52358333Y-42066075D01*
X52309299Y-42184455D01*
X52309297Y-42184461D01*
X52284300Y-42310128D01*
X52284300Y-42371590D01*
X52264615Y-42438629D01*
X52247981Y-42459271D01*
X50975381Y-43731871D01*
X50914058Y-43765356D01*
X50844366Y-43760372D01*
X50788433Y-43718500D01*
X50764016Y-43653036D01*
X50763700Y-43644190D01*
X50763700Y-40059409D01*
X50783385Y-39992370D01*
X50800014Y-39971733D01*
X52905729Y-37866017D01*
X52967050Y-37832534D01*
X53036742Y-37837518D01*
X53092675Y-37879390D01*
X53117092Y-37944854D01*
X53115882Y-37973094D01*
X53109500Y-38013389D01*
X53109500Y-38186611D01*
X53136598Y-38357701D01*
X53190127Y-38522445D01*
X53268768Y-38676788D01*
X53370586Y-38816928D01*
X53493072Y-38939414D01*
X53633212Y-39041232D01*
X53787555Y-39119873D01*
X53952299Y-39173402D01*
X54123389Y-39200500D01*
X54123390Y-39200500D01*
X55096610Y-39200500D01*
X55096611Y-39200500D01*
X55267701Y-39173402D01*
X55432445Y-39119873D01*
X55586788Y-39041232D01*
X55726928Y-38939414D01*
X55849414Y-38816928D01*
X55951232Y-38676788D01*
X56029873Y-38522445D01*
X56083402Y-38357701D01*
X56110500Y-38186611D01*
X56110500Y-38013389D01*
X56083402Y-37842299D01*
X56029873Y-37677555D01*
X55951232Y-37523212D01*
X55849414Y-37383072D01*
X55726928Y-37260586D01*
X55586788Y-37158768D01*
X55432445Y-37080127D01*
X55267701Y-37026598D01*
X55267699Y-37026597D01*
X55267698Y-37026597D01*
X55136271Y-37005781D01*
X55096611Y-36999500D01*
X54123389Y-36999500D01*
X54083095Y-37005881D01*
X54013803Y-36996926D01*
X53960352Y-36951929D01*
X53939713Y-36885177D01*
X53958439Y-36817864D01*
X53976011Y-36795735D01*
X54074930Y-36696816D01*
X54136252Y-36663334D01*
X54162609Y-36660500D01*
X55096610Y-36660500D01*
X55096611Y-36660500D01*
X55267701Y-36633402D01*
X55432445Y-36579873D01*
X55586788Y-36501232D01*
X55726928Y-36399414D01*
X55849414Y-36276928D01*
X55951232Y-36136788D01*
X56029873Y-35982445D01*
X56083402Y-35817701D01*
X56110500Y-35646611D01*
X56110500Y-35473389D01*
X56087740Y-35329685D01*
X56084622Y-35310000D01*
X58114638Y-35310000D01*
X59374314Y-35310000D01*
X59369920Y-35314394D01*
X59317259Y-35405606D01*
X59290000Y-35507339D01*
X59290000Y-35612661D01*
X59317259Y-35714394D01*
X59369920Y-35805606D01*
X59374314Y-35810000D01*
X58114638Y-35810000D01*
X58119548Y-35841002D01*
X58177914Y-36020637D01*
X58263670Y-36188940D01*
X58374685Y-36341741D01*
X58374689Y-36341746D01*
X58508253Y-36475310D01*
X58508258Y-36475314D01*
X58661059Y-36586329D01*
X58829362Y-36672085D01*
X59008997Y-36730451D01*
X59195553Y-36760000D01*
X59440000Y-36760000D01*
X59440000Y-35875686D01*
X59444394Y-35880080D01*
X59535606Y-35932741D01*
X59637339Y-35960000D01*
X59742661Y-35960000D01*
X59844394Y-35932741D01*
X59935606Y-35880080D01*
X59940000Y-35875686D01*
X59940000Y-36760000D01*
X60184447Y-36760000D01*
X60371002Y-36730451D01*
X60550640Y-36672084D01*
X60550642Y-36672083D01*
X60555901Y-36669404D01*
X60624569Y-36656504D01*
X60689311Y-36682778D01*
X60729570Y-36739883D01*
X60736200Y-36779886D01*
X60736200Y-45810689D01*
X60716515Y-45877728D01*
X60699881Y-45898370D01*
X60437104Y-46161147D01*
X60375781Y-46194632D01*
X60312707Y-46190121D01*
X60312247Y-46191638D01*
X60306423Y-46189871D01*
X60306420Y-46189870D01*
X60306415Y-46189869D01*
X60306412Y-46189868D01*
X60103469Y-46149500D01*
X60103465Y-46149500D01*
X59896535Y-46149500D01*
X59896530Y-46149500D01*
X59693587Y-46189868D01*
X59693579Y-46189870D01*
X59502403Y-46269058D01*
X59330342Y-46384024D01*
X59184024Y-46530342D01*
X59069058Y-46702403D01*
X58989870Y-46893579D01*
X58989868Y-46893587D01*
X58949500Y-47096530D01*
X58949500Y-47303469D01*
X58989868Y-47506412D01*
X58989870Y-47506420D01*
X59053831Y-47660836D01*
X59069059Y-47697598D01*
X59108989Y-47757358D01*
X59184024Y-47869657D01*
X59330342Y-48015975D01*
X59330345Y-48015977D01*
X59502402Y-48130941D01*
X59693580Y-48210130D01*
X59852616Y-48241764D01*
X59896530Y-48250499D01*
X59896534Y-48250500D01*
X59896535Y-48250500D01*
X60103466Y-48250500D01*
X60103467Y-48250499D01*
X60306420Y-48210130D01*
X60497598Y-48130941D01*
X60669655Y-48015977D01*
X60815977Y-47869655D01*
X60930941Y-47697598D01*
X61010130Y-47506420D01*
X61050500Y-47303465D01*
X61050500Y-47096535D01*
X61010130Y-46893580D01*
X61010126Y-46893572D01*
X61008361Y-46887749D01*
X61010798Y-46887009D01*
X61004493Y-46828615D01*
X61035739Y-46766121D01*
X61038821Y-46762925D01*
X61502185Y-46299563D01*
X61558203Y-46202537D01*
X61587200Y-46094318D01*
X61587200Y-45982282D01*
X61587200Y-32963982D01*
X61558203Y-32855763D01*
X61502185Y-32758737D01*
X61422963Y-32679515D01*
X61325937Y-32623497D01*
X61217718Y-32594500D01*
X61217717Y-32594500D01*
X61184303Y-32594500D01*
X61117264Y-32574815D01*
X61073819Y-32526795D01*
X61031232Y-32443212D01*
X61031230Y-32443209D01*
X61031229Y-32443207D01*
X61000926Y-32401500D01*
X60929414Y-32303072D01*
X60806928Y-32180586D01*
X60666788Y-32078768D01*
X60512445Y-32000127D01*
X60347701Y-31946598D01*
X60347699Y-31946597D01*
X60347698Y-31946597D01*
X60216271Y-31925781D01*
X60176611Y-31919500D01*
X59203389Y-31919500D01*
X59163728Y-31925781D01*
X59032302Y-31946597D01*
X58867552Y-32000128D01*
X58713211Y-32078768D01*
X58643801Y-32129198D01*
X58573072Y-32180586D01*
X58573070Y-32180588D01*
X58573069Y-32180588D01*
X58450588Y-32303069D01*
X58450588Y-32303070D01*
X58450586Y-32303072D01*
X58416854Y-32349500D01*
X58348768Y-32443211D01*
X58270128Y-32597552D01*
X58216597Y-32762302D01*
X58189500Y-32933389D01*
X58189500Y-33106610D01*
X58211592Y-33246099D01*
X58216598Y-33277701D01*
X58261697Y-33416501D01*
X58270128Y-33442447D01*
X58306181Y-33513206D01*
X58348768Y-33596788D01*
X58450586Y-33736928D01*
X58573072Y-33859414D01*
X58713212Y-33961232D01*
X58867555Y-34039873D01*
X59032299Y-34093402D01*
X59032302Y-34093402D01*
X59032303Y-34093403D01*
X59131615Y-34109132D01*
X59182277Y-34117156D01*
X59245412Y-34147085D01*
X59282344Y-34206396D01*
X59281346Y-34276259D01*
X59242737Y-34334492D01*
X59182279Y-34362102D01*
X59008997Y-34389548D01*
X58829362Y-34447914D01*
X58661059Y-34533670D01*
X58508258Y-34644685D01*
X58508253Y-34644689D01*
X58374689Y-34778253D01*
X58374685Y-34778258D01*
X58263670Y-34931059D01*
X58177914Y-35099362D01*
X58119548Y-35278997D01*
X58114638Y-35310000D01*
X56084622Y-35310000D01*
X56083403Y-35302303D01*
X56083402Y-35302302D01*
X56083402Y-35302299D01*
X56029873Y-35137555D01*
X55951232Y-34983212D01*
X55849414Y-34843072D01*
X55726928Y-34720586D01*
X55696432Y-34698429D01*
X55673136Y-34681503D01*
X55630471Y-34626173D01*
X55624493Y-34556559D01*
X55657100Y-34494764D01*
X55658342Y-34493505D01*
X55661160Y-34490686D01*
X55661163Y-34490685D01*
X57435185Y-32716663D01*
X57491203Y-32619637D01*
X57520200Y-32511419D01*
X57520200Y-32399382D01*
X57520200Y-30896507D01*
X57539885Y-30829468D01*
X57556520Y-30808825D01*
X57599973Y-30765372D01*
X57599976Y-30765369D01*
X57671165Y-30658827D01*
X57720201Y-30540444D01*
X57728382Y-30499315D01*
X57745200Y-30414771D01*
X57745200Y-30286628D01*
X57720202Y-30160961D01*
X57720201Y-30160960D01*
X57720201Y-30160956D01*
X57671165Y-30042573D01*
X57671164Y-30042572D01*
X57671161Y-30042566D01*
X57641310Y-29997891D01*
X57620432Y-29931213D01*
X57638916Y-29863833D01*
X57690895Y-29817143D01*
X57744412Y-29805000D01*
X58196460Y-29805000D01*
X58263499Y-29824685D01*
G37*
%TD.AperFunction*%
%TA.AperFunction,Conductor*%
G36*
X20263226Y-5711823D02*
G01*
X20319159Y-5753695D01*
X20320209Y-5755119D01*
X20346299Y-5791028D01*
X20350586Y-5796928D01*
X20473072Y-5919414D01*
X20613212Y-6021232D01*
X20767555Y-6099873D01*
X20932299Y-6153402D01*
X21103389Y-6180500D01*
X21103390Y-6180500D01*
X22076610Y-6180500D01*
X22076611Y-6180500D01*
X22247701Y-6153402D01*
X22412445Y-6099873D01*
X22566788Y-6021232D01*
X22636814Y-5970355D01*
X22702620Y-5946874D01*
X22770674Y-5962699D01*
X22819369Y-6012804D01*
X22833700Y-6070672D01*
X22833700Y-6398082D01*
X22833700Y-6510118D01*
X22843474Y-6546597D01*
X22863707Y-6622105D01*
X22862044Y-6691955D01*
X22822881Y-6749817D01*
X22758653Y-6777321D01*
X22689751Y-6765734D01*
X22671047Y-6754516D01*
X22566791Y-6678770D01*
X22566790Y-6678769D01*
X22566788Y-6678768D01*
X22412445Y-6600127D01*
X22247701Y-6546598D01*
X22247699Y-6546597D01*
X22247698Y-6546597D01*
X22116271Y-6525781D01*
X22076611Y-6519500D01*
X21103389Y-6519500D01*
X21063728Y-6525781D01*
X20932302Y-6546597D01*
X20767552Y-6600128D01*
X20613211Y-6678768D01*
X20562843Y-6715363D01*
X20473072Y-6780586D01*
X20473070Y-6780588D01*
X20473069Y-6780588D01*
X20350588Y-6903069D01*
X20350588Y-6903070D01*
X20350586Y-6903072D01*
X20324891Y-6938438D01*
X20248768Y-7043211D01*
X20170128Y-7197552D01*
X20116597Y-7362302D01*
X20089500Y-7533389D01*
X20089500Y-7706610D01*
X20112578Y-7852324D01*
X20116598Y-7877701D01*
X20170127Y-8042445D01*
X20248768Y-8196788D01*
X20350586Y-8336928D01*
X20473072Y-8459414D01*
X20613212Y-8561232D01*
X20767555Y-8639873D01*
X20932299Y-8693402D01*
X21103389Y-8720500D01*
X21103390Y-8720500D01*
X22076610Y-8720500D01*
X22076611Y-8720500D01*
X22247701Y-8693402D01*
X22412445Y-8639873D01*
X22566788Y-8561232D01*
X22706928Y-8459414D01*
X22829414Y-8336928D01*
X22931232Y-8196788D01*
X23009873Y-8042445D01*
X23063402Y-7877701D01*
X23090500Y-7706611D01*
X23090500Y-7533389D01*
X23063402Y-7362299D01*
X23009873Y-7197555D01*
X22959081Y-7097870D01*
X22946186Y-7029203D01*
X22972462Y-6964462D01*
X23029569Y-6924205D01*
X23099374Y-6921213D01*
X23157248Y-6953896D01*
X25371237Y-9167885D01*
X25443376Y-9209534D01*
X25491590Y-9260099D01*
X25504814Y-9328706D01*
X25478846Y-9393571D01*
X25469057Y-9404600D01*
X25430589Y-9443068D01*
X25430588Y-9443070D01*
X25430586Y-9443072D01*
X25399366Y-9486043D01*
X25328768Y-9583211D01*
X25250128Y-9737552D01*
X25196597Y-9902302D01*
X25169500Y-10073389D01*
X25169500Y-10246610D01*
X25192962Y-10394748D01*
X25196598Y-10417701D01*
X25212347Y-10466172D01*
X25250128Y-10582447D01*
X25270189Y-10621819D01*
X25328768Y-10736788D01*
X25430586Y-10876928D01*
X25430588Y-10876930D01*
X25486277Y-10932619D01*
X25519762Y-10993942D01*
X25514778Y-11063634D01*
X25472906Y-11119567D01*
X25407442Y-11143984D01*
X25398596Y-11144300D01*
X24699109Y-11144300D01*
X24632070Y-11124615D01*
X24611428Y-11107981D01*
X23969619Y-10466172D01*
X23322963Y-9819515D01*
X23225937Y-9763497D01*
X23117718Y-9734500D01*
X23117717Y-9734500D01*
X23084303Y-9734500D01*
X23017264Y-9714815D01*
X22973819Y-9666795D01*
X22931232Y-9583212D01*
X22931230Y-9583209D01*
X22931229Y-9583207D01*
X22865746Y-9493079D01*
X22829414Y-9443072D01*
X22706928Y-9320586D01*
X22566788Y-9218768D01*
X22412445Y-9140127D01*
X22247701Y-9086598D01*
X22247699Y-9086597D01*
X22247698Y-9086597D01*
X22116271Y-9065781D01*
X22076611Y-9059500D01*
X21103389Y-9059500D01*
X21063728Y-9065781D01*
X20932302Y-9086597D01*
X20767552Y-9140128D01*
X20613211Y-9218768D01*
X20566233Y-9252900D01*
X20473072Y-9320586D01*
X20473070Y-9320588D01*
X20473069Y-9320588D01*
X20350588Y-9443069D01*
X20350588Y-9443070D01*
X20350586Y-9443072D01*
X20319366Y-9486043D01*
X20248768Y-9583211D01*
X20170128Y-9737552D01*
X20116597Y-9902302D01*
X20089500Y-10073389D01*
X20089500Y-10246610D01*
X20112962Y-10394748D01*
X20116598Y-10417701D01*
X20132347Y-10466172D01*
X20170128Y-10582447D01*
X20190189Y-10621819D01*
X20248768Y-10736788D01*
X20350586Y-10876928D01*
X20473072Y-10999414D01*
X20613212Y-11101232D01*
X20767555Y-11179873D01*
X20932299Y-11233402D01*
X21103389Y-11260500D01*
X21103390Y-11260500D01*
X22076610Y-11260500D01*
X22076611Y-11260500D01*
X22247701Y-11233402D01*
X22412445Y-11179873D01*
X22566788Y-11101232D01*
X22706928Y-10999414D01*
X22829414Y-10876928D01*
X22890293Y-10793134D01*
X22945623Y-10750469D01*
X23015236Y-10744490D01*
X23077031Y-10777096D01*
X23078292Y-10778339D01*
X24131013Y-11831060D01*
X24131015Y-11831063D01*
X24210237Y-11910285D01*
X24292586Y-11957829D01*
X24307263Y-11966303D01*
X24415481Y-11995300D01*
X24415482Y-11995300D01*
X25191593Y-11995300D01*
X25258632Y-12014985D01*
X25304387Y-12067789D01*
X25314331Y-12136947D01*
X25302078Y-12175595D01*
X25250128Y-12277552D01*
X25196597Y-12442302D01*
X25169500Y-12613389D01*
X25169500Y-12786610D01*
X25194466Y-12944245D01*
X25196598Y-12957701D01*
X25250127Y-13122445D01*
X25328768Y-13276788D01*
X25430586Y-13416928D01*
X25553072Y-13539414D01*
X25693212Y-13641232D01*
X25847555Y-13719873D01*
X26012299Y-13773402D01*
X26183389Y-13800500D01*
X26183390Y-13800500D01*
X27156610Y-13800500D01*
X27156611Y-13800500D01*
X27327701Y-13773402D01*
X27492445Y-13719873D01*
X27646788Y-13641232D01*
X27786928Y-13539414D01*
X27909414Y-13416928D01*
X27970294Y-13333133D01*
X28025621Y-13290469D01*
X28095234Y-13284490D01*
X28157029Y-13317095D01*
X28158291Y-13318339D01*
X31894634Y-17054682D01*
X31928119Y-17116005D01*
X31923135Y-17185697D01*
X31881263Y-17241630D01*
X31837138Y-17261308D01*
X31837388Y-17262130D01*
X31831555Y-17263899D01*
X31713175Y-17312933D01*
X31713166Y-17312938D01*
X31606631Y-17384123D01*
X31606627Y-17384126D01*
X31516026Y-17474727D01*
X31516023Y-17474731D01*
X31444838Y-17581266D01*
X31444835Y-17581273D01*
X31410377Y-17664460D01*
X31366535Y-17718863D01*
X31300241Y-17740927D01*
X31232541Y-17723647D01*
X31208135Y-17704687D01*
X28402965Y-14899517D01*
X28402963Y-14899515D01*
X28305937Y-14843497D01*
X28197718Y-14814500D01*
X28197717Y-14814500D01*
X28164303Y-14814500D01*
X28097264Y-14794815D01*
X28053819Y-14746795D01*
X28011232Y-14663212D01*
X28011229Y-14663208D01*
X28011229Y-14663207D01*
X27971932Y-14609120D01*
X27909414Y-14523072D01*
X27786928Y-14400586D01*
X27646788Y-14298768D01*
X27492445Y-14220127D01*
X27327701Y-14166598D01*
X27327699Y-14166597D01*
X27327698Y-14166597D01*
X27196271Y-14145781D01*
X27156611Y-14139500D01*
X26183389Y-14139500D01*
X26143728Y-14145781D01*
X26012302Y-14166597D01*
X25847552Y-14220128D01*
X25693211Y-14298768D01*
X25623801Y-14349198D01*
X25553072Y-14400586D01*
X25553070Y-14400588D01*
X25553069Y-14400588D01*
X25430588Y-14523069D01*
X25430588Y-14523070D01*
X25430586Y-14523072D01*
X25397288Y-14568903D01*
X25328768Y-14663211D01*
X25250128Y-14817552D01*
X25196597Y-14982302D01*
X25169500Y-15153389D01*
X25169500Y-15326610D01*
X25194021Y-15481435D01*
X25196598Y-15497701D01*
X25250127Y-15662445D01*
X25328768Y-15816788D01*
X25430586Y-15956928D01*
X25553072Y-16079414D01*
X25693212Y-16181232D01*
X25847555Y-16259873D01*
X26012299Y-16313402D01*
X26183389Y-16340500D01*
X26183390Y-16340500D01*
X27156610Y-16340500D01*
X27156611Y-16340500D01*
X27327701Y-16313402D01*
X27492445Y-16259873D01*
X27646788Y-16181232D01*
X27786928Y-16079414D01*
X27909414Y-15956928D01*
X27970293Y-15873134D01*
X28025623Y-15830469D01*
X28095236Y-15824490D01*
X28157031Y-15857096D01*
X28158292Y-15858339D01*
X31424281Y-19124328D01*
X31457766Y-19185651D01*
X31460600Y-19212009D01*
X31460600Y-22737790D01*
X31440915Y-22804829D01*
X31388111Y-22850584D01*
X31318953Y-22860528D01*
X31255397Y-22831503D01*
X31248919Y-22825471D01*
X28402965Y-19979517D01*
X28402963Y-19979515D01*
X28305937Y-19923497D01*
X28197718Y-19894500D01*
X28197717Y-19894500D01*
X28164303Y-19894500D01*
X28097264Y-19874815D01*
X28053819Y-19826795D01*
X28011232Y-19743212D01*
X28011230Y-19743209D01*
X28011229Y-19743207D01*
X27971617Y-19688687D01*
X27909414Y-19603072D01*
X27786928Y-19480586D01*
X27646788Y-19378768D01*
X27492445Y-19300127D01*
X27327701Y-19246598D01*
X27327699Y-19246597D01*
X27327698Y-19246597D01*
X27196271Y-19225781D01*
X27156611Y-19219500D01*
X26183389Y-19219500D01*
X26143728Y-19225781D01*
X26012302Y-19246597D01*
X25847552Y-19300128D01*
X25693211Y-19378768D01*
X25625522Y-19427948D01*
X25553072Y-19480586D01*
X25553070Y-19480588D01*
X25553069Y-19480588D01*
X25430588Y-19603069D01*
X25430588Y-19603070D01*
X25430586Y-19603072D01*
X25386859Y-19663256D01*
X25328768Y-19743211D01*
X25250128Y-19897552D01*
X25196597Y-20062302D01*
X25169833Y-20231285D01*
X25169500Y-20233389D01*
X25169500Y-20406611D01*
X25196598Y-20577701D01*
X25250127Y-20742445D01*
X25328768Y-20896788D01*
X25430586Y-21036928D01*
X25553072Y-21159414D01*
X25693212Y-21261232D01*
X25847555Y-21339873D01*
X26012299Y-21393402D01*
X26183389Y-21420500D01*
X26183390Y-21420500D01*
X27156610Y-21420500D01*
X27156611Y-21420500D01*
X27327701Y-21393402D01*
X27492445Y-21339873D01*
X27646788Y-21261232D01*
X27786928Y-21159414D01*
X27909414Y-21036928D01*
X27970294Y-20953133D01*
X28025621Y-20910469D01*
X28095234Y-20904490D01*
X28157029Y-20937095D01*
X28158291Y-20938339D01*
X31027381Y-23807429D01*
X31060866Y-23868752D01*
X31063700Y-23895110D01*
X31063700Y-24880890D01*
X31044015Y-24947929D01*
X30991211Y-24993684D01*
X30922053Y-25003628D01*
X30858497Y-24974603D01*
X30852019Y-24968571D01*
X28402965Y-22519517D01*
X28402963Y-22519515D01*
X28305937Y-22463497D01*
X28197718Y-22434500D01*
X28197717Y-22434500D01*
X28164303Y-22434500D01*
X28097264Y-22414815D01*
X28053819Y-22366795D01*
X28011232Y-22283212D01*
X28011230Y-22283209D01*
X28011229Y-22283207D01*
X27966811Y-22222072D01*
X27909414Y-22143072D01*
X27786928Y-22020586D01*
X27646788Y-21918768D01*
X27492445Y-21840127D01*
X27327701Y-21786598D01*
X27327699Y-21786597D01*
X27327698Y-21786597D01*
X27196271Y-21765781D01*
X27156611Y-21759500D01*
X26183389Y-21759500D01*
X26143728Y-21765781D01*
X26012302Y-21786597D01*
X25847552Y-21840128D01*
X25693211Y-21918768D01*
X25629111Y-21965340D01*
X25553072Y-22020586D01*
X25553070Y-22020588D01*
X25553069Y-22020588D01*
X25430588Y-22143069D01*
X25430588Y-22143070D01*
X25430586Y-22143072D01*
X25403861Y-22179856D01*
X25328768Y-22283211D01*
X25250126Y-22437554D01*
X25233609Y-22488389D01*
X25194171Y-22546064D01*
X25129812Y-22573261D01*
X25060966Y-22561346D01*
X25027998Y-22537750D01*
X23523519Y-21033271D01*
X23490034Y-20971948D01*
X23487200Y-20945590D01*
X23487200Y-17723984D01*
X23487200Y-17723982D01*
X23479003Y-17693389D01*
X25169500Y-17693389D01*
X25169500Y-17866611D01*
X25196598Y-18037701D01*
X25250127Y-18202445D01*
X25328768Y-18356788D01*
X25430586Y-18496928D01*
X25553072Y-18619414D01*
X25693212Y-18721232D01*
X25847555Y-18799873D01*
X26012299Y-18853402D01*
X26183389Y-18880500D01*
X26183390Y-18880500D01*
X27156610Y-18880500D01*
X27156611Y-18880500D01*
X27327701Y-18853402D01*
X27492445Y-18799873D01*
X27646788Y-18721232D01*
X27786928Y-18619414D01*
X27909414Y-18496928D01*
X28011232Y-18356788D01*
X28089873Y-18202445D01*
X28143402Y-18037701D01*
X28170500Y-17866611D01*
X28170500Y-17693389D01*
X28143402Y-17522299D01*
X28089873Y-17357555D01*
X28011232Y-17203212D01*
X27909414Y-17063072D01*
X27786928Y-16940586D01*
X27646788Y-16838768D01*
X27492445Y-16760127D01*
X27327701Y-16706598D01*
X27327699Y-16706597D01*
X27327698Y-16706597D01*
X27196271Y-16685781D01*
X27156611Y-16679500D01*
X26183389Y-16679500D01*
X26143728Y-16685781D01*
X26012302Y-16706597D01*
X25847552Y-16760128D01*
X25693211Y-16838768D01*
X25629655Y-16884945D01*
X25553072Y-16940586D01*
X25553070Y-16940588D01*
X25553069Y-16940588D01*
X25430588Y-17063069D01*
X25430588Y-17063070D01*
X25430586Y-17063072D01*
X25392128Y-17116005D01*
X25328768Y-17203211D01*
X25250128Y-17357552D01*
X25250127Y-17357554D01*
X25250127Y-17357555D01*
X25227298Y-17427816D01*
X25196597Y-17522302D01*
X25187257Y-17581273D01*
X25169500Y-17693389D01*
X23479003Y-17693389D01*
X23458203Y-17615763D01*
X23402185Y-17518737D01*
X23322963Y-17439515D01*
X23258279Y-17402169D01*
X23225939Y-17383498D01*
X23225938Y-17383497D01*
X23225937Y-17383497D01*
X23117718Y-17354500D01*
X23117717Y-17354500D01*
X23084303Y-17354500D01*
X23017264Y-17334815D01*
X22973819Y-17286795D01*
X22931232Y-17203212D01*
X22931230Y-17203209D01*
X22931229Y-17203207D01*
X22901672Y-17162526D01*
X22829414Y-17063072D01*
X22706928Y-16940586D01*
X22566788Y-16838768D01*
X22412445Y-16760127D01*
X22247701Y-16706598D01*
X22247699Y-16706597D01*
X22247698Y-16706597D01*
X22116271Y-16685781D01*
X22076611Y-16679500D01*
X21103389Y-16679500D01*
X21063728Y-16685781D01*
X20932302Y-16706597D01*
X20767552Y-16760128D01*
X20613211Y-16838768D01*
X20549655Y-16884945D01*
X20473072Y-16940586D01*
X20473070Y-16940588D01*
X20473069Y-16940588D01*
X20350588Y-17063069D01*
X20350588Y-17063070D01*
X20350586Y-17063072D01*
X20312128Y-17116005D01*
X20248768Y-17203211D01*
X20170128Y-17357552D01*
X20170127Y-17357554D01*
X20170127Y-17357555D01*
X20147298Y-17427816D01*
X20116597Y-17522302D01*
X20107257Y-17581273D01*
X20089500Y-17693389D01*
X20089500Y-17866611D01*
X20116598Y-18037701D01*
X20170127Y-18202445D01*
X20248768Y-18356788D01*
X20350586Y-18496928D01*
X20473072Y-18619414D01*
X20613212Y-18721232D01*
X20767555Y-18799873D01*
X20932299Y-18853402D01*
X21103389Y-18880500D01*
X21103390Y-18880500D01*
X22076610Y-18880500D01*
X22076611Y-18880500D01*
X22247701Y-18853402D01*
X22412445Y-18799873D01*
X22455905Y-18777728D01*
X22524574Y-18764833D01*
X22589315Y-18791109D01*
X22629572Y-18848215D01*
X22636200Y-18888214D01*
X22636200Y-19211785D01*
X22616515Y-19278824D01*
X22563711Y-19324579D01*
X22494553Y-19334523D01*
X22455907Y-19322271D01*
X22412448Y-19300128D01*
X22389593Y-19292702D01*
X22247701Y-19246598D01*
X22247699Y-19246597D01*
X22247698Y-19246597D01*
X22116271Y-19225781D01*
X22076611Y-19219500D01*
X21103389Y-19219500D01*
X21063728Y-19225781D01*
X20932302Y-19246597D01*
X20767552Y-19300128D01*
X20613211Y-19378768D01*
X20545522Y-19427948D01*
X20473072Y-19480586D01*
X20473070Y-19480588D01*
X20473069Y-19480588D01*
X20350588Y-19603069D01*
X20350588Y-19603070D01*
X20350586Y-19603072D01*
X20306859Y-19663256D01*
X20248768Y-19743211D01*
X20170128Y-19897552D01*
X20116597Y-20062302D01*
X20089833Y-20231285D01*
X20089500Y-20233389D01*
X20089500Y-20406611D01*
X20116598Y-20577701D01*
X20170127Y-20742445D01*
X20248768Y-20896788D01*
X20350586Y-21036928D01*
X20473072Y-21159414D01*
X20613212Y-21261232D01*
X20767555Y-21339873D01*
X20932299Y-21393402D01*
X21103389Y-21420500D01*
X21103390Y-21420500D01*
X22076610Y-21420500D01*
X22076611Y-21420500D01*
X22247701Y-21393402D01*
X22412445Y-21339873D01*
X22503986Y-21293230D01*
X22572654Y-21280335D01*
X22637395Y-21306611D01*
X22667667Y-21341716D01*
X22721212Y-21434459D01*
X22721217Y-21434465D01*
X25620847Y-24334095D01*
X25654332Y-24395418D01*
X25649348Y-24465110D01*
X25607476Y-24521043D01*
X25606082Y-24522071D01*
X25553072Y-24560586D01*
X25553070Y-24560588D01*
X25553069Y-24560588D01*
X25430588Y-24683069D01*
X25430588Y-24683070D01*
X25430586Y-24683072D01*
X25422698Y-24693929D01*
X25328768Y-24823211D01*
X25250128Y-24977552D01*
X25196597Y-25142302D01*
X25179281Y-25251633D01*
X25169500Y-25313389D01*
X25169500Y-25486611D01*
X25196598Y-25657701D01*
X25250127Y-25822445D01*
X25328768Y-25976788D01*
X25430586Y-26116928D01*
X25430588Y-26116930D01*
X25505277Y-26191619D01*
X25538762Y-26252942D01*
X25533778Y-26322634D01*
X25491906Y-26378567D01*
X25426442Y-26402984D01*
X25417596Y-26403300D01*
X24116882Y-26403300D01*
X24008663Y-26432297D01*
X24008660Y-26432298D01*
X23911640Y-26488313D01*
X23911634Y-26488317D01*
X23078291Y-27321659D01*
X23016968Y-27355144D01*
X22947276Y-27350160D01*
X22891343Y-27308288D01*
X22890333Y-27306920D01*
X22829414Y-27223072D01*
X22706928Y-27100586D01*
X22566788Y-26998768D01*
X22412445Y-26920127D01*
X22247701Y-26866598D01*
X22247699Y-26866597D01*
X22247698Y-26866597D01*
X22116271Y-26845781D01*
X22076611Y-26839500D01*
X21103389Y-26839500D01*
X21063728Y-26845781D01*
X20932302Y-26866597D01*
X20767552Y-26920128D01*
X20613211Y-26998768D01*
X20543801Y-27049198D01*
X20473072Y-27100586D01*
X20473070Y-27100588D01*
X20473069Y-27100588D01*
X20350588Y-27223069D01*
X20350588Y-27223070D01*
X20350586Y-27223072D01*
X20306859Y-27283256D01*
X20248768Y-27363211D01*
X20170128Y-27517552D01*
X20116597Y-27682302D01*
X20109545Y-27726828D01*
X20089500Y-27853389D01*
X20089500Y-28026611D01*
X20097018Y-28074075D01*
X20113723Y-28179553D01*
X20116598Y-28197701D01*
X20170127Y-28362445D01*
X20248768Y-28516788D01*
X20350586Y-28656928D01*
X20473072Y-28779414D01*
X20613212Y-28881232D01*
X20767555Y-28959873D01*
X20932299Y-29013402D01*
X21103389Y-29040500D01*
X21103390Y-29040500D01*
X22076610Y-29040500D01*
X22076611Y-29040500D01*
X22247701Y-29013402D01*
X22412445Y-28959873D01*
X22566788Y-28881232D01*
X22706928Y-28779414D01*
X22829414Y-28656928D01*
X22931232Y-28516788D01*
X22973819Y-28433204D01*
X23021792Y-28382410D01*
X23084303Y-28365500D01*
X23117716Y-28365500D01*
X23117718Y-28365500D01*
X23225937Y-28336503D01*
X23322963Y-28280485D01*
X24312829Y-27290619D01*
X24374152Y-27257134D01*
X24400510Y-27254300D01*
X25181912Y-27254300D01*
X25248951Y-27273985D01*
X25294706Y-27326789D01*
X25304650Y-27395947D01*
X25292397Y-27434595D01*
X25250128Y-27517552D01*
X25196597Y-27682302D01*
X25189545Y-27726828D01*
X25169500Y-27853389D01*
X25169500Y-28026611D01*
X25177018Y-28074075D01*
X25193723Y-28179553D01*
X25196598Y-28197701D01*
X25250127Y-28362445D01*
X25328768Y-28516788D01*
X25430586Y-28656928D01*
X25553072Y-28779414D01*
X25693212Y-28881232D01*
X25847555Y-28959873D01*
X26012299Y-29013402D01*
X26183389Y-29040500D01*
X26183390Y-29040500D01*
X27156610Y-29040500D01*
X27156611Y-29040500D01*
X27327701Y-29013402D01*
X27492445Y-28959873D01*
X27646788Y-28881232D01*
X27786928Y-28779414D01*
X27907619Y-28658723D01*
X27968942Y-28625238D01*
X28038634Y-28630222D01*
X28094567Y-28672094D01*
X28118984Y-28737558D01*
X28119300Y-28746404D01*
X28119300Y-29673596D01*
X28099615Y-29740635D01*
X28046811Y-29786390D01*
X27977653Y-29796334D01*
X27914097Y-29767309D01*
X27907619Y-29761277D01*
X27786930Y-29640588D01*
X27786928Y-29640586D01*
X27646788Y-29538768D01*
X27492445Y-29460127D01*
X27327701Y-29406598D01*
X27327699Y-29406597D01*
X27327698Y-29406597D01*
X27196271Y-29385781D01*
X27156611Y-29379500D01*
X26183389Y-29379500D01*
X26143728Y-29385781D01*
X26012302Y-29406597D01*
X25847552Y-29460128D01*
X25693211Y-29538768D01*
X25623801Y-29589198D01*
X25553072Y-29640586D01*
X25553070Y-29640588D01*
X25553069Y-29640588D01*
X25430588Y-29763069D01*
X25430588Y-29763070D01*
X25430586Y-29763072D01*
X25398490Y-29807248D01*
X25328768Y-29903211D01*
X25250128Y-30057552D01*
X25196597Y-30222302D01*
X25169500Y-30393389D01*
X25169500Y-30566610D01*
X25196597Y-30737697D01*
X25196597Y-30737699D01*
X25196598Y-30737701D01*
X25250127Y-30902445D01*
X25328768Y-31056788D01*
X25430586Y-31196928D01*
X25553072Y-31319414D01*
X25693212Y-31421232D01*
X25847555Y-31499873D01*
X26012299Y-31553402D01*
X26183389Y-31580500D01*
X26183390Y-31580500D01*
X27156610Y-31580500D01*
X27156611Y-31580500D01*
X27327701Y-31553402D01*
X27492445Y-31499873D01*
X27535905Y-31477728D01*
X27604574Y-31464833D01*
X27669315Y-31491109D01*
X27709572Y-31548215D01*
X27716200Y-31588214D01*
X27716200Y-31911785D01*
X27696515Y-31978824D01*
X27643711Y-32024579D01*
X27574553Y-32034523D01*
X27535907Y-32022271D01*
X27492448Y-32000128D01*
X27435342Y-31981573D01*
X27327701Y-31946598D01*
X27327699Y-31946597D01*
X27327698Y-31946597D01*
X27196271Y-31925781D01*
X27156611Y-31919500D01*
X26183389Y-31919500D01*
X26143728Y-31925781D01*
X26012302Y-31946597D01*
X25847552Y-32000128D01*
X25693211Y-32078768D01*
X25623801Y-32129198D01*
X25553072Y-32180586D01*
X25553070Y-32180588D01*
X25553069Y-32180588D01*
X25430588Y-32303069D01*
X25430588Y-32303070D01*
X25430586Y-32303072D01*
X25409414Y-32332213D01*
X25328770Y-32443207D01*
X25328766Y-32443215D01*
X25311433Y-32477235D01*
X25286180Y-32526795D01*
X25238208Y-32577590D01*
X25175697Y-32594500D01*
X25142281Y-32594500D01*
X25034063Y-32623497D01*
X25034061Y-32623498D01*
X25034060Y-32623498D01*
X24937040Y-32679513D01*
X24937034Y-32679517D01*
X23458717Y-34157834D01*
X23458713Y-34157840D01*
X23402698Y-34254860D01*
X23402697Y-34254863D01*
X23373700Y-34363082D01*
X23373700Y-45496790D01*
X23354015Y-45563829D01*
X23337381Y-45584471D01*
X21250549Y-47671302D01*
X21189226Y-47704787D01*
X21119534Y-47699803D01*
X21063601Y-47657931D01*
X21039184Y-47592467D01*
X21044936Y-47545309D01*
X21073402Y-47457701D01*
X21100500Y-47286611D01*
X21100500Y-47113389D01*
X21073402Y-46942299D01*
X21019873Y-46777555D01*
X20941232Y-46623212D01*
X20839414Y-46483072D01*
X20716928Y-46360586D01*
X20576788Y-46258768D01*
X20466431Y-46202539D01*
X20422447Y-46180128D01*
X20422446Y-46180127D01*
X20422445Y-46180127D01*
X20257701Y-46126598D01*
X20257699Y-46126597D01*
X20257698Y-46126597D01*
X20126271Y-46105781D01*
X20086611Y-46099500D01*
X19913389Y-46099500D01*
X19873728Y-46105781D01*
X19742302Y-46126597D01*
X19742299Y-46126598D01*
X19597428Y-46173670D01*
X19577552Y-46180128D01*
X19423211Y-46258768D01*
X19367060Y-46299565D01*
X19283072Y-46360586D01*
X19283070Y-46360588D01*
X19283069Y-46360588D01*
X19160588Y-46483069D01*
X19160588Y-46483070D01*
X19160586Y-46483072D01*
X19116859Y-46543256D01*
X19058768Y-46623211D01*
X19020185Y-46698936D01*
X18972211Y-46749732D01*
X18904390Y-46766527D01*
X18838255Y-46743990D01*
X18794803Y-46689275D01*
X18785700Y-46642641D01*
X18785700Y-43093389D01*
X20089500Y-43093389D01*
X20089500Y-43266611D01*
X20091343Y-43278245D01*
X20103857Y-43357261D01*
X20116598Y-43437701D01*
X20170127Y-43602445D01*
X20248768Y-43756788D01*
X20350586Y-43896928D01*
X20473072Y-44019414D01*
X20613212Y-44121232D01*
X20767555Y-44199873D01*
X20932299Y-44253402D01*
X21103389Y-44280500D01*
X21103390Y-44280500D01*
X22076610Y-44280500D01*
X22076611Y-44280500D01*
X22247701Y-44253402D01*
X22412445Y-44199873D01*
X22566788Y-44121232D01*
X22706928Y-44019414D01*
X22829414Y-43896928D01*
X22931232Y-43756788D01*
X23009873Y-43602445D01*
X23063402Y-43437701D01*
X23090500Y-43266611D01*
X23090500Y-43093389D01*
X23063402Y-42922299D01*
X23009873Y-42757555D01*
X22931232Y-42603212D01*
X22829414Y-42463072D01*
X22706928Y-42340586D01*
X22566788Y-42238768D01*
X22412445Y-42160127D01*
X22247701Y-42106598D01*
X22247699Y-42106597D01*
X22247698Y-42106597D01*
X22095293Y-42082459D01*
X22076611Y-42079500D01*
X21103389Y-42079500D01*
X21084707Y-42082459D01*
X20932302Y-42106597D01*
X20932299Y-42106598D01*
X20787428Y-42153670D01*
X20767552Y-42160128D01*
X20613211Y-42238768D01*
X20541909Y-42290573D01*
X20473072Y-42340586D01*
X20473070Y-42340588D01*
X20473069Y-42340588D01*
X20350588Y-42463069D01*
X20350588Y-42463070D01*
X20350586Y-42463072D01*
X20333281Y-42486890D01*
X20248768Y-42603211D01*
X20170128Y-42757552D01*
X20116597Y-42922302D01*
X20095575Y-43055035D01*
X20089500Y-43093389D01*
X18785700Y-43093389D01*
X18785700Y-40553389D01*
X20089500Y-40553389D01*
X20089500Y-40726610D01*
X20106186Y-40831966D01*
X20116598Y-40897701D01*
X20170127Y-41062445D01*
X20248768Y-41216788D01*
X20350586Y-41356928D01*
X20473072Y-41479414D01*
X20613212Y-41581232D01*
X20767555Y-41659873D01*
X20932299Y-41713402D01*
X21103389Y-41740500D01*
X21103390Y-41740500D01*
X22076610Y-41740500D01*
X22076611Y-41740500D01*
X22247701Y-41713402D01*
X22412445Y-41659873D01*
X22566788Y-41581232D01*
X22706928Y-41479414D01*
X22829414Y-41356928D01*
X22931232Y-41216788D01*
X23009873Y-41062445D01*
X23063402Y-40897701D01*
X23090500Y-40726611D01*
X23090500Y-40553389D01*
X23063402Y-40382299D01*
X23009873Y-40217555D01*
X22931232Y-40063212D01*
X22829414Y-39923072D01*
X22706928Y-39800586D01*
X22566788Y-39698768D01*
X22412445Y-39620127D01*
X22247701Y-39566598D01*
X22247699Y-39566597D01*
X22247698Y-39566597D01*
X22095293Y-39542459D01*
X22076611Y-39539500D01*
X21103389Y-39539500D01*
X21084707Y-39542459D01*
X20932302Y-39566597D01*
X20767552Y-39620128D01*
X20613211Y-39698768D01*
X20584733Y-39719459D01*
X20473072Y-39800586D01*
X20473070Y-39800588D01*
X20473069Y-39800588D01*
X20350588Y-39923069D01*
X20350588Y-39923070D01*
X20350586Y-39923072D01*
X20315235Y-39971728D01*
X20248768Y-40063211D01*
X20170128Y-40217552D01*
X20116597Y-40382302D01*
X20089500Y-40553389D01*
X18785700Y-40553389D01*
X18785700Y-38013389D01*
X20089500Y-38013389D01*
X20089500Y-38186611D01*
X20116598Y-38357701D01*
X20170127Y-38522445D01*
X20248768Y-38676788D01*
X20350586Y-38816928D01*
X20473072Y-38939414D01*
X20613212Y-39041232D01*
X20767555Y-39119873D01*
X20932299Y-39173402D01*
X21103389Y-39200500D01*
X21103390Y-39200500D01*
X22076610Y-39200500D01*
X22076611Y-39200500D01*
X22247701Y-39173402D01*
X22412445Y-39119873D01*
X22566788Y-39041232D01*
X22706928Y-38939414D01*
X22829414Y-38816928D01*
X22931232Y-38676788D01*
X23009873Y-38522445D01*
X23063402Y-38357701D01*
X23090500Y-38186611D01*
X23090500Y-38013389D01*
X23063402Y-37842299D01*
X23009873Y-37677555D01*
X22931232Y-37523212D01*
X22829414Y-37383072D01*
X22706928Y-37260586D01*
X22566788Y-37158768D01*
X22412445Y-37080127D01*
X22247701Y-37026598D01*
X22247699Y-37026597D01*
X22247698Y-37026597D01*
X22116271Y-37005781D01*
X22076611Y-36999500D01*
X21103389Y-36999500D01*
X21063728Y-37005781D01*
X20932302Y-37026597D01*
X20767552Y-37080128D01*
X20613211Y-37158768D01*
X20548339Y-37205901D01*
X20473072Y-37260586D01*
X20473070Y-37260588D01*
X20473069Y-37260588D01*
X20350588Y-37383069D01*
X20350588Y-37383070D01*
X20350586Y-37383072D01*
X20306859Y-37443256D01*
X20248768Y-37523211D01*
X20170128Y-37677552D01*
X20116597Y-37842302D01*
X20089500Y-38013389D01*
X18785700Y-38013389D01*
X18785700Y-37545709D01*
X18805385Y-37478670D01*
X18822014Y-37458033D01*
X20101709Y-36178337D01*
X20163030Y-36144854D01*
X20232722Y-36149838D01*
X20288655Y-36191710D01*
X20289699Y-36193125D01*
X20350586Y-36276928D01*
X20473072Y-36399414D01*
X20613212Y-36501232D01*
X20767555Y-36579873D01*
X20932299Y-36633402D01*
X21103389Y-36660500D01*
X21103390Y-36660500D01*
X22076610Y-36660500D01*
X22076611Y-36660500D01*
X22247701Y-36633402D01*
X22412445Y-36579873D01*
X22566788Y-36501232D01*
X22706928Y-36399414D01*
X22829414Y-36276928D01*
X22931232Y-36136788D01*
X23009873Y-35982445D01*
X23063402Y-35817701D01*
X23090500Y-35646611D01*
X23090500Y-35473389D01*
X23063402Y-35302299D01*
X23009873Y-35137555D01*
X22931232Y-34983212D01*
X22829414Y-34843072D01*
X22706928Y-34720586D01*
X22566788Y-34618768D01*
X22412445Y-34540127D01*
X22247701Y-34486598D01*
X22247699Y-34486597D01*
X22247698Y-34486597D01*
X22097768Y-34462851D01*
X22076611Y-34459500D01*
X21103389Y-34459500D01*
X21082232Y-34462851D01*
X20932302Y-34486597D01*
X20932299Y-34486598D01*
X20787428Y-34533670D01*
X20767552Y-34540128D01*
X20613211Y-34618768D01*
X20542444Y-34670184D01*
X20473072Y-34720586D01*
X20473070Y-34720588D01*
X20473069Y-34720588D01*
X20350588Y-34843069D01*
X20350588Y-34843070D01*
X20350586Y-34843072D01*
X20333171Y-34867042D01*
X20248770Y-34983207D01*
X20248766Y-34983215D01*
X20233316Y-35013539D01*
X20206180Y-35066795D01*
X20158208Y-35117590D01*
X20095697Y-35134500D01*
X20062282Y-35134500D01*
X19954063Y-35163497D01*
X19954060Y-35163498D01*
X19857040Y-35219513D01*
X19857034Y-35219517D01*
X18019717Y-37056834D01*
X18019713Y-37056840D01*
X17963698Y-37153860D01*
X17963697Y-37153863D01*
X17934700Y-37262082D01*
X17934700Y-46152453D01*
X17915015Y-46219492D01*
X17862211Y-46265247D01*
X17793053Y-46275191D01*
X17737815Y-46252771D01*
X17628940Y-46173670D01*
X17460637Y-46087914D01*
X17281002Y-46029548D01*
X17094447Y-46000000D01*
X16905553Y-46000000D01*
X16718997Y-46029548D01*
X16539362Y-46087914D01*
X16371060Y-46173669D01*
X16345670Y-46192116D01*
X16345669Y-46192116D01*
X16953553Y-46800000D01*
X16947339Y-46800000D01*
X16845606Y-46827259D01*
X16754394Y-46879920D01*
X16679920Y-46954394D01*
X16627259Y-47045606D01*
X16600000Y-47147339D01*
X16600000Y-47153553D01*
X15992116Y-46545669D01*
X15992116Y-46545670D01*
X15973669Y-46571060D01*
X15887914Y-46739362D01*
X15829548Y-46918997D01*
X15800000Y-47105552D01*
X15800000Y-47294447D01*
X15829548Y-47481002D01*
X15887914Y-47660637D01*
X15973666Y-47828933D01*
X15992116Y-47854328D01*
X16600000Y-47246445D01*
X16600000Y-47252661D01*
X16627259Y-47354394D01*
X16679920Y-47445606D01*
X16754394Y-47520080D01*
X16845606Y-47572741D01*
X16947339Y-47600000D01*
X16953552Y-47600000D01*
X16345669Y-48207882D01*
X16345670Y-48207883D01*
X16371059Y-48226329D01*
X16539362Y-48312085D01*
X16718997Y-48370451D01*
X16905553Y-48400000D01*
X17094447Y-48400000D01*
X17281002Y-48370451D01*
X17460637Y-48312085D01*
X17628940Y-48226329D01*
X17737815Y-48147228D01*
X17803621Y-48123748D01*
X17871675Y-48139573D01*
X17920370Y-48189679D01*
X17934700Y-48247546D01*
X17934700Y-52378996D01*
X17915015Y-52446035D01*
X17862211Y-52491790D01*
X17793053Y-52501734D01*
X17729497Y-52472709D01*
X17723019Y-52466677D01*
X17716930Y-52460588D01*
X17716928Y-52460586D01*
X17576788Y-52358768D01*
X17422445Y-52280127D01*
X17257701Y-52226598D01*
X17257699Y-52226597D01*
X17257698Y-52226597D01*
X17109801Y-52203173D01*
X17086611Y-52199500D01*
X16913389Y-52199500D01*
X16890199Y-52203173D01*
X16742302Y-52226597D01*
X16577552Y-52280128D01*
X16423211Y-52358768D01*
X16353686Y-52409282D01*
X16283072Y-52460586D01*
X16283070Y-52460588D01*
X16283069Y-52460588D01*
X16160588Y-52583069D01*
X16160588Y-52583070D01*
X16160586Y-52583072D01*
X16156801Y-52588282D01*
X16058768Y-52723211D01*
X15980128Y-52877552D01*
X15980127Y-52877554D01*
X15980127Y-52877555D01*
X15961538Y-52934766D01*
X15926597Y-53042302D01*
X15899500Y-53213389D01*
X15899500Y-53386610D01*
X15924613Y-53545172D01*
X15926598Y-53557701D01*
X15980127Y-53722445D01*
X16058768Y-53876788D01*
X16160586Y-54016928D01*
X16283072Y-54139414D01*
X16423212Y-54241232D01*
X16577555Y-54319873D01*
X16742299Y-54373402D01*
X16913389Y-54400500D01*
X16913390Y-54400500D01*
X17086610Y-54400500D01*
X17086611Y-54400500D01*
X17257701Y-54373402D01*
X17422445Y-54319873D01*
X17576788Y-54241232D01*
X17716928Y-54139414D01*
X17723019Y-54133323D01*
X17742455Y-54122710D01*
X17759189Y-54108210D01*
X17772520Y-54106293D01*
X17784342Y-54099838D01*
X17806428Y-54101417D01*
X17828347Y-54098266D01*
X17840598Y-54103861D01*
X17854034Y-54104822D01*
X17871760Y-54118092D01*
X17891903Y-54127291D01*
X17899185Y-54138622D01*
X17909967Y-54146694D01*
X17917704Y-54167439D01*
X17929677Y-54186069D01*
X17932828Y-54207987D01*
X17934384Y-54212158D01*
X17934700Y-54221004D01*
X17934700Y-54413790D01*
X17915015Y-54480829D01*
X17898381Y-54501471D01*
X16262417Y-56137434D01*
X16262413Y-56137440D01*
X16206398Y-56234460D01*
X16206397Y-56234463D01*
X16177400Y-56342682D01*
X16177400Y-58666710D01*
X16157715Y-58733749D01*
X16104911Y-58779504D01*
X16035753Y-58789448D01*
X15980514Y-58767028D01*
X15908246Y-58714522D01*
X15729432Y-58623412D01*
X15538559Y-58561393D01*
X15340350Y-58530000D01*
X15139650Y-58530000D01*
X14941440Y-58561393D01*
X14750567Y-58623412D01*
X14575795Y-58712463D01*
X14507126Y-58725359D01*
X14442385Y-58699083D01*
X14402128Y-58641976D01*
X14395500Y-58601978D01*
X14395500Y-55174410D01*
X14415185Y-55107371D01*
X14431819Y-55086729D01*
X14912845Y-54605703D01*
X15397585Y-54120963D01*
X15453603Y-54023937D01*
X15482600Y-53915718D01*
X15482600Y-53803681D01*
X15482600Y-38308809D01*
X15502285Y-38241770D01*
X15518914Y-38221133D01*
X20101709Y-33638337D01*
X20163030Y-33604854D01*
X20232722Y-33609838D01*
X20288655Y-33651710D01*
X20289699Y-33653125D01*
X20350586Y-33736928D01*
X20473072Y-33859414D01*
X20613212Y-33961232D01*
X20767555Y-34039873D01*
X20932299Y-34093402D01*
X21103389Y-34120500D01*
X21103390Y-34120500D01*
X22076610Y-34120500D01*
X22076611Y-34120500D01*
X22247701Y-34093402D01*
X22412445Y-34039873D01*
X22566788Y-33961232D01*
X22706928Y-33859414D01*
X22829414Y-33736928D01*
X22931232Y-33596788D01*
X23009873Y-33442445D01*
X23063402Y-33277701D01*
X23090500Y-33106611D01*
X23090500Y-32933389D01*
X23063402Y-32762299D01*
X23009873Y-32597555D01*
X22931232Y-32443212D01*
X22829414Y-32303072D01*
X22706928Y-32180586D01*
X22566788Y-32078768D01*
X22412445Y-32000127D01*
X22247701Y-31946598D01*
X22247699Y-31946597D01*
X22247698Y-31946597D01*
X22116271Y-31925781D01*
X22076611Y-31919500D01*
X21103389Y-31919500D01*
X21063728Y-31925781D01*
X20932302Y-31946597D01*
X20767552Y-32000128D01*
X20613211Y-32078768D01*
X20543801Y-32129198D01*
X20473072Y-32180586D01*
X20473070Y-32180588D01*
X20473069Y-32180588D01*
X20350588Y-32303069D01*
X20350588Y-32303070D01*
X20350586Y-32303072D01*
X20329414Y-32332213D01*
X20248770Y-32443207D01*
X20248766Y-32443215D01*
X20231433Y-32477235D01*
X20206180Y-32526795D01*
X20158208Y-32577590D01*
X20095697Y-32594500D01*
X20062282Y-32594500D01*
X19954063Y-32623497D01*
X19954060Y-32623498D01*
X19857040Y-32679513D01*
X19857034Y-32679517D01*
X14716617Y-37819934D01*
X14716613Y-37819940D01*
X14660598Y-37916960D01*
X14660597Y-37916963D01*
X14631600Y-38025182D01*
X14631600Y-44137083D01*
X14611915Y-44204122D01*
X14559111Y-44249877D01*
X14489953Y-44259821D01*
X14483411Y-44258701D01*
X14458770Y-44253800D01*
X14458769Y-44253800D01*
X14330631Y-44253800D01*
X14330629Y-44253800D01*
X14204961Y-44278797D01*
X14204955Y-44278799D01*
X14086575Y-44327833D01*
X14086566Y-44327838D01*
X13980031Y-44399023D01*
X13980027Y-44399026D01*
X13889426Y-44489627D01*
X13889423Y-44489631D01*
X13818238Y-44596166D01*
X13818235Y-44596172D01*
X13807361Y-44622425D01*
X13763519Y-44676828D01*
X13697225Y-44698892D01*
X13629526Y-44681612D01*
X13581916Y-44630475D01*
X13568800Y-44574971D01*
X13568800Y-30393389D01*
X20089500Y-30393389D01*
X20089500Y-30566610D01*
X20116597Y-30737697D01*
X20116597Y-30737699D01*
X20116598Y-30737701D01*
X20170127Y-30902445D01*
X20248768Y-31056788D01*
X20350586Y-31196928D01*
X20473072Y-31319414D01*
X20613212Y-31421232D01*
X20767555Y-31499873D01*
X20932299Y-31553402D01*
X21103389Y-31580500D01*
X21103390Y-31580500D01*
X22076610Y-31580500D01*
X22076611Y-31580500D01*
X22247701Y-31553402D01*
X22412445Y-31499873D01*
X22566788Y-31421232D01*
X22706928Y-31319414D01*
X22829414Y-31196928D01*
X22931232Y-31056788D01*
X23009873Y-30902445D01*
X23063402Y-30737701D01*
X23090500Y-30566611D01*
X23090500Y-30393389D01*
X23063402Y-30222299D01*
X23009873Y-30057555D01*
X22931232Y-29903212D01*
X22829414Y-29763072D01*
X22706928Y-29640586D01*
X22566788Y-29538768D01*
X22412445Y-29460127D01*
X22247701Y-29406598D01*
X22247699Y-29406597D01*
X22247698Y-29406597D01*
X22116271Y-29385781D01*
X22076611Y-29379500D01*
X21103389Y-29379500D01*
X21063728Y-29385781D01*
X20932302Y-29406597D01*
X20767552Y-29460128D01*
X20613211Y-29538768D01*
X20543801Y-29589198D01*
X20473072Y-29640586D01*
X20473070Y-29640588D01*
X20473069Y-29640588D01*
X20350588Y-29763069D01*
X20350588Y-29763070D01*
X20350586Y-29763072D01*
X20318490Y-29807248D01*
X20248768Y-29903211D01*
X20170128Y-30057552D01*
X20116597Y-30222302D01*
X20089500Y-30393389D01*
X13568800Y-30393389D01*
X13568800Y-25313389D01*
X20089500Y-25313389D01*
X20089500Y-25486611D01*
X20116598Y-25657701D01*
X20170127Y-25822445D01*
X20248768Y-25976788D01*
X20350586Y-26116928D01*
X20473072Y-26239414D01*
X20613212Y-26341232D01*
X20767555Y-26419873D01*
X20932299Y-26473402D01*
X21103389Y-26500500D01*
X21103390Y-26500500D01*
X22076610Y-26500500D01*
X22076611Y-26500500D01*
X22247701Y-26473402D01*
X22412445Y-26419873D01*
X22566788Y-26341232D01*
X22706928Y-26239414D01*
X22829414Y-26116928D01*
X22931232Y-25976788D01*
X23009873Y-25822445D01*
X23063402Y-25657701D01*
X23090500Y-25486611D01*
X23090500Y-25313389D01*
X23063402Y-25142299D01*
X23009873Y-24977555D01*
X22931232Y-24823212D01*
X22829414Y-24683072D01*
X22706928Y-24560586D01*
X22566788Y-24458768D01*
X22412445Y-24380127D01*
X22247701Y-24326598D01*
X22247699Y-24326597D01*
X22247698Y-24326597D01*
X22116271Y-24305781D01*
X22076611Y-24299500D01*
X21103389Y-24299500D01*
X21063728Y-24305781D01*
X20932302Y-24326597D01*
X20767552Y-24380128D01*
X20613211Y-24458768D01*
X20543801Y-24509198D01*
X20473072Y-24560586D01*
X20473070Y-24560588D01*
X20473069Y-24560588D01*
X20350588Y-24683069D01*
X20350588Y-24683070D01*
X20350586Y-24683072D01*
X20342698Y-24693929D01*
X20248768Y-24823211D01*
X20170128Y-24977552D01*
X20116597Y-25142302D01*
X20099281Y-25251633D01*
X20089500Y-25313389D01*
X13568800Y-25313389D01*
X13568800Y-22773389D01*
X20089500Y-22773389D01*
X20089500Y-22946610D01*
X20114345Y-23103480D01*
X20116598Y-23117701D01*
X20170127Y-23282445D01*
X20248768Y-23436788D01*
X20350586Y-23576928D01*
X20473072Y-23699414D01*
X20613212Y-23801232D01*
X20767555Y-23879873D01*
X20932299Y-23933402D01*
X21103389Y-23960500D01*
X21103390Y-23960500D01*
X22076610Y-23960500D01*
X22076611Y-23960500D01*
X22247701Y-23933402D01*
X22412445Y-23879873D01*
X22566788Y-23801232D01*
X22706928Y-23699414D01*
X22829414Y-23576928D01*
X22931232Y-23436788D01*
X23009873Y-23282445D01*
X23063402Y-23117701D01*
X23090500Y-22946611D01*
X23090500Y-22773389D01*
X23063402Y-22602299D01*
X23009873Y-22437555D01*
X22931232Y-22283212D01*
X22829414Y-22143072D01*
X22706928Y-22020586D01*
X22566788Y-21918768D01*
X22412445Y-21840127D01*
X22247701Y-21786598D01*
X22247699Y-21786597D01*
X22247698Y-21786597D01*
X22116271Y-21765781D01*
X22076611Y-21759500D01*
X21103389Y-21759500D01*
X21063728Y-21765781D01*
X20932302Y-21786597D01*
X20767552Y-21840128D01*
X20613211Y-21918768D01*
X20549111Y-21965340D01*
X20473072Y-22020586D01*
X20473070Y-22020588D01*
X20473069Y-22020588D01*
X20350588Y-22143069D01*
X20350588Y-22143070D01*
X20350586Y-22143072D01*
X20323861Y-22179856D01*
X20248768Y-22283211D01*
X20170128Y-22437552D01*
X20170127Y-22437554D01*
X20170127Y-22437555D01*
X20159115Y-22471447D01*
X20116597Y-22602302D01*
X20089500Y-22773389D01*
X13568800Y-22773389D01*
X13568800Y-22442609D01*
X13588485Y-22375570D01*
X13605114Y-22354933D01*
X20101709Y-15858337D01*
X20163030Y-15824854D01*
X20232722Y-15829838D01*
X20288655Y-15871710D01*
X20289699Y-15873125D01*
X20350586Y-15956928D01*
X20473072Y-16079414D01*
X20613212Y-16181232D01*
X20767555Y-16259873D01*
X20932299Y-16313402D01*
X21103389Y-16340500D01*
X21103390Y-16340500D01*
X22076610Y-16340500D01*
X22076611Y-16340500D01*
X22247701Y-16313402D01*
X22412445Y-16259873D01*
X22566788Y-16181232D01*
X22706928Y-16079414D01*
X22829414Y-15956928D01*
X22931232Y-15816788D01*
X23009873Y-15662445D01*
X23063402Y-15497701D01*
X23090500Y-15326611D01*
X23090500Y-15153389D01*
X23063402Y-14982299D01*
X23009873Y-14817555D01*
X22931232Y-14663212D01*
X22829414Y-14523072D01*
X22706928Y-14400586D01*
X22566788Y-14298768D01*
X22412445Y-14220127D01*
X22247701Y-14166598D01*
X22247699Y-14166597D01*
X22247698Y-14166597D01*
X22116271Y-14145781D01*
X22076611Y-14139500D01*
X21103389Y-14139500D01*
X21063728Y-14145781D01*
X20932302Y-14166597D01*
X20767552Y-14220128D01*
X20613211Y-14298768D01*
X20543801Y-14349198D01*
X20473072Y-14400586D01*
X20473070Y-14400588D01*
X20473069Y-14400588D01*
X20350588Y-14523069D01*
X20350588Y-14523070D01*
X20350586Y-14523072D01*
X20325040Y-14558232D01*
X20248770Y-14663207D01*
X20248768Y-14663212D01*
X20206180Y-14746795D01*
X20158208Y-14797590D01*
X20095697Y-14814500D01*
X20062282Y-14814500D01*
X19954063Y-14843497D01*
X19954060Y-14843498D01*
X19857040Y-14899513D01*
X19857034Y-14899517D01*
X12812181Y-21944371D01*
X12750858Y-21977856D01*
X12681166Y-21972872D01*
X12625233Y-21931000D01*
X12600816Y-21865536D01*
X12600500Y-21856690D01*
X12600500Y-13323397D01*
X12620185Y-13256358D01*
X12636819Y-13235716D01*
X13259146Y-12613389D01*
X20089500Y-12613389D01*
X20089500Y-12786610D01*
X20114466Y-12944245D01*
X20116598Y-12957701D01*
X20170127Y-13122445D01*
X20248768Y-13276788D01*
X20350586Y-13416928D01*
X20473072Y-13539414D01*
X20613212Y-13641232D01*
X20767555Y-13719873D01*
X20932299Y-13773402D01*
X21103389Y-13800500D01*
X21103390Y-13800500D01*
X22076610Y-13800500D01*
X22076611Y-13800500D01*
X22247701Y-13773402D01*
X22412445Y-13719873D01*
X22566788Y-13641232D01*
X22706928Y-13539414D01*
X22829414Y-13416928D01*
X22931232Y-13276788D01*
X23009873Y-13122445D01*
X23063402Y-12957701D01*
X23090500Y-12786611D01*
X23090500Y-12613389D01*
X23063402Y-12442299D01*
X23009873Y-12277555D01*
X22931232Y-12123212D01*
X22829414Y-11983072D01*
X22706928Y-11860586D01*
X22566788Y-11758768D01*
X22412445Y-11680127D01*
X22247701Y-11626598D01*
X22247699Y-11626597D01*
X22247698Y-11626597D01*
X22116271Y-11605781D01*
X22076611Y-11599500D01*
X21103389Y-11599500D01*
X21063728Y-11605781D01*
X20932302Y-11626597D01*
X20767552Y-11680128D01*
X20613211Y-11758768D01*
X20574288Y-11787048D01*
X20473072Y-11860586D01*
X20473070Y-11860588D01*
X20473069Y-11860588D01*
X20350588Y-11983069D01*
X20350588Y-11983070D01*
X20350586Y-11983072D01*
X20308473Y-12041035D01*
X20248768Y-12123211D01*
X20170128Y-12277552D01*
X20116597Y-12442302D01*
X20089500Y-12613389D01*
X13259146Y-12613389D01*
X16394099Y-9478436D01*
X20132213Y-5740322D01*
X20193534Y-5706839D01*
X20263226Y-5711823D01*
G37*
%TD.AperFunction*%
%TA.AperFunction,Conductor*%
G36*
X43477040Y-34893488D02*
G01*
X44077881Y-35494329D01*
X44111366Y-35555652D01*
X44114200Y-35582010D01*
X44114200Y-35643469D01*
X44114200Y-35643471D01*
X44114199Y-35643471D01*
X44139197Y-35769138D01*
X44139199Y-35769144D01*
X44188233Y-35887524D01*
X44188238Y-35887533D01*
X44259423Y-35994068D01*
X44259426Y-35994072D01*
X44350027Y-36084673D01*
X44350031Y-36084676D01*
X44456566Y-36155861D01*
X44456572Y-36155864D01*
X44456573Y-36155865D01*
X44574956Y-36204901D01*
X44574960Y-36204901D01*
X44574961Y-36204902D01*
X44700628Y-36229900D01*
X44700631Y-36229900D01*
X44828771Y-36229900D01*
X44913315Y-36213082D01*
X44954444Y-36204901D01*
X44957594Y-36203595D01*
X44959377Y-36203404D01*
X44960268Y-36203134D01*
X44960319Y-36203302D01*
X45027063Y-36196127D01*
X45089543Y-36227402D01*
X45092728Y-36230476D01*
X45843838Y-36981586D01*
X45877323Y-37042909D01*
X45872339Y-37112601D01*
X45830467Y-37168534D01*
X45829045Y-37169583D01*
X45808255Y-37184688D01*
X45808249Y-37184693D01*
X45674689Y-37318253D01*
X45674685Y-37318258D01*
X45563670Y-37471059D01*
X45477914Y-37639362D01*
X45419548Y-37818997D01*
X45414638Y-37850000D01*
X46674314Y-37850000D01*
X46669920Y-37854394D01*
X46617259Y-37945606D01*
X46590000Y-38047339D01*
X46590000Y-38152661D01*
X46617259Y-38254394D01*
X46669920Y-38345606D01*
X46674314Y-38350000D01*
X45414638Y-38350000D01*
X45419548Y-38381002D01*
X45477914Y-38560637D01*
X45563670Y-38728940D01*
X45674685Y-38881741D01*
X45674689Y-38881746D01*
X45808253Y-39015310D01*
X45808258Y-39015314D01*
X45961059Y-39126329D01*
X46129362Y-39212085D01*
X46308997Y-39270451D01*
X46495553Y-39300000D01*
X46740000Y-39300000D01*
X46740000Y-38415686D01*
X46744394Y-38420080D01*
X46835606Y-38472741D01*
X46937339Y-38500000D01*
X47042661Y-38500000D01*
X47144394Y-38472741D01*
X47235606Y-38420080D01*
X47240000Y-38415686D01*
X47240000Y-39300000D01*
X47484447Y-39300000D01*
X47671002Y-39270451D01*
X47850637Y-39212085D01*
X48018940Y-39126329D01*
X48175690Y-39012446D01*
X48176779Y-39013945D01*
X48233305Y-38988604D01*
X48302393Y-38999027D01*
X48354878Y-39045147D01*
X48374100Y-39111461D01*
X48374100Y-40365958D01*
X48354415Y-40432997D01*
X48301611Y-40478752D01*
X48246461Y-40487944D01*
X48246461Y-40489600D01*
X48112229Y-40489600D01*
X47986561Y-40514597D01*
X47986555Y-40514599D01*
X47868175Y-40563633D01*
X47868166Y-40563638D01*
X47761631Y-40634823D01*
X47761627Y-40634826D01*
X47671026Y-40725427D01*
X47671023Y-40725431D01*
X47599838Y-40831966D01*
X47599833Y-40831975D01*
X47550799Y-40950355D01*
X47550797Y-40950361D01*
X47525800Y-41076028D01*
X47525800Y-41076031D01*
X47525800Y-41204169D01*
X47525800Y-41204171D01*
X47525799Y-41204171D01*
X47550797Y-41329838D01*
X47550799Y-41329844D01*
X47599833Y-41448224D01*
X47599838Y-41448233D01*
X47671023Y-41554768D01*
X47671026Y-41554772D01*
X47714480Y-41598225D01*
X47747966Y-41659548D01*
X47750800Y-41685907D01*
X47750800Y-46311789D01*
X47731115Y-46378828D01*
X47714481Y-46399470D01*
X47319543Y-46794407D01*
X47258220Y-46827892D01*
X47188528Y-46822908D01*
X47132595Y-46781036D01*
X47113929Y-46745039D01*
X47112083Y-46739359D01*
X47026329Y-46571059D01*
X47007883Y-46545670D01*
X47007882Y-46545669D01*
X46400000Y-47153553D01*
X46400000Y-47147339D01*
X46372741Y-47045606D01*
X46320080Y-46954394D01*
X46245606Y-46879920D01*
X46154394Y-46827259D01*
X46052661Y-46800000D01*
X46046447Y-46800000D01*
X46654328Y-46192116D01*
X46628933Y-46173666D01*
X46460637Y-46087914D01*
X46281002Y-46029548D01*
X46094447Y-46000000D01*
X45905553Y-46000000D01*
X45718997Y-46029548D01*
X45539362Y-46087914D01*
X45371060Y-46173669D01*
X45345670Y-46192116D01*
X45345669Y-46192116D01*
X45953554Y-46800000D01*
X45947339Y-46800000D01*
X45845606Y-46827259D01*
X45754394Y-46879920D01*
X45679920Y-46954394D01*
X45627259Y-47045606D01*
X45600000Y-47147339D01*
X45600000Y-47153554D01*
X45136787Y-46690341D01*
X45103302Y-46629018D01*
X45100690Y-46610068D01*
X45100501Y-46606913D01*
X45100500Y-46606903D01*
X45100500Y-46606898D01*
X45089877Y-46518436D01*
X45034361Y-46377658D01*
X44986314Y-46314299D01*
X44986314Y-46314298D01*
X44942922Y-46257077D01*
X44822343Y-46165639D01*
X44681561Y-46110122D01*
X44635926Y-46104642D01*
X44593102Y-46099500D01*
X43406898Y-46099500D01*
X43367853Y-46104188D01*
X43318438Y-46110122D01*
X43177656Y-46165639D01*
X43057077Y-46257077D01*
X42965639Y-46377656D01*
X42910122Y-46518438D01*
X42904188Y-46567853D01*
X42899500Y-46606898D01*
X42899500Y-47793102D01*
X42903165Y-47823619D01*
X42910122Y-47881561D01*
X42965639Y-48022343D01*
X43057077Y-48142922D01*
X43177656Y-48234360D01*
X43177657Y-48234360D01*
X43177658Y-48234361D01*
X43318436Y-48289877D01*
X43406898Y-48300500D01*
X43406903Y-48300500D01*
X44593097Y-48300500D01*
X44593102Y-48300500D01*
X44681564Y-48289877D01*
X44822342Y-48234361D01*
X44942922Y-48142922D01*
X45034361Y-48022342D01*
X45089877Y-47881564D01*
X45100500Y-47793102D01*
X45100500Y-47793085D01*
X45100689Y-47789932D01*
X45124344Y-47724188D01*
X45136787Y-47709658D01*
X45600000Y-47246444D01*
X45600000Y-47252661D01*
X45627259Y-47354394D01*
X45679920Y-47445606D01*
X45754394Y-47520080D01*
X45845606Y-47572741D01*
X45947339Y-47600000D01*
X45953553Y-47600000D01*
X45345669Y-48207882D01*
X45345670Y-48207883D01*
X45371059Y-48226329D01*
X45539359Y-48312083D01*
X45545039Y-48313929D01*
X45602716Y-48353364D01*
X45629917Y-48417721D01*
X45618006Y-48486568D01*
X45594407Y-48519543D01*
X39027337Y-55086615D01*
X38948117Y-55165834D01*
X38948113Y-55165840D01*
X38892098Y-55262860D01*
X38892097Y-55262863D01*
X38863100Y-55371082D01*
X38863100Y-58560502D01*
X38843415Y-58627541D01*
X38790611Y-58673296D01*
X38721453Y-58683240D01*
X38682806Y-58670987D01*
X38589435Y-58623413D01*
X38398559Y-58561393D01*
X38200350Y-58530000D01*
X37999650Y-58530000D01*
X37801440Y-58561393D01*
X37610567Y-58623412D01*
X37435795Y-58712463D01*
X37367126Y-58725359D01*
X37302385Y-58699083D01*
X37262128Y-58641976D01*
X37255500Y-58601978D01*
X37255500Y-55586909D01*
X37264144Y-55557468D01*
X37270668Y-55527482D01*
X37274422Y-55522466D01*
X37275185Y-55519870D01*
X37291819Y-55499228D01*
X37365360Y-55425687D01*
X37472961Y-55318086D01*
X37472963Y-55318085D01*
X37552185Y-55238863D01*
X37608203Y-55141837D01*
X37616456Y-55111037D01*
X37617439Y-55107371D01*
X37623000Y-55086615D01*
X37637200Y-55033619D01*
X37637200Y-54921582D01*
X37637200Y-49508808D01*
X37656885Y-49441769D01*
X37673514Y-49421132D01*
X39633521Y-47461125D01*
X39694840Y-47427643D01*
X39764532Y-47432627D01*
X39820465Y-47474499D01*
X39839129Y-47510491D01*
X39887914Y-47660637D01*
X39973666Y-47828933D01*
X39992116Y-47854328D01*
X40600000Y-47246445D01*
X40600000Y-47252661D01*
X40627259Y-47354394D01*
X40679920Y-47445606D01*
X40754394Y-47520080D01*
X40845606Y-47572741D01*
X40947339Y-47600000D01*
X40953554Y-47600000D01*
X40345669Y-48207882D01*
X40345670Y-48207883D01*
X40371059Y-48226329D01*
X40539362Y-48312085D01*
X40718997Y-48370451D01*
X40905553Y-48400000D01*
X41094447Y-48400000D01*
X41281002Y-48370451D01*
X41460637Y-48312085D01*
X41628937Y-48226331D01*
X41654328Y-48207883D01*
X41654328Y-48207882D01*
X41046447Y-47600000D01*
X41052661Y-47600000D01*
X41154394Y-47572741D01*
X41245606Y-47520080D01*
X41320080Y-47445606D01*
X41372741Y-47354394D01*
X41400000Y-47252661D01*
X41400000Y-47246446D01*
X42007882Y-47854328D01*
X42007883Y-47854328D01*
X42026331Y-47828937D01*
X42112085Y-47660637D01*
X42170451Y-47481002D01*
X42200000Y-47294447D01*
X42200000Y-47105552D01*
X42170451Y-46918997D01*
X42112084Y-46739360D01*
X42071387Y-46659488D01*
X42071386Y-46659487D01*
X42026329Y-46571058D01*
X42007883Y-46545670D01*
X42007882Y-46545669D01*
X41400000Y-47153552D01*
X41400000Y-47147339D01*
X41372741Y-47045606D01*
X41320080Y-46954394D01*
X41245606Y-46879920D01*
X41154394Y-46827259D01*
X41052661Y-46800000D01*
X41046445Y-46800000D01*
X41654328Y-46192116D01*
X41628933Y-46173666D01*
X41460637Y-46087914D01*
X41310491Y-46039129D01*
X41252815Y-45999692D01*
X41225617Y-45935333D01*
X41237532Y-45866487D01*
X41261122Y-45833524D01*
X42776328Y-44318319D01*
X42837651Y-44284834D01*
X42864009Y-44282000D01*
X42925471Y-44282000D01*
X43036967Y-44259821D01*
X43051144Y-44257001D01*
X43169527Y-44207965D01*
X43276069Y-44136776D01*
X43366676Y-44046169D01*
X43437865Y-43939627D01*
X43486901Y-43821244D01*
X43499389Y-43758464D01*
X43511900Y-43695571D01*
X43511900Y-43634110D01*
X43531585Y-43567071D01*
X43548219Y-43546429D01*
X43828038Y-43266610D01*
X44118885Y-42975763D01*
X44174903Y-42878737D01*
X44203900Y-42770518D01*
X44203900Y-42658481D01*
X44203900Y-42429132D01*
X44223585Y-42362093D01*
X44276389Y-42316338D01*
X44345547Y-42306394D01*
X44396791Y-42326030D01*
X44450266Y-42361761D01*
X44450275Y-42361766D01*
X44473993Y-42371590D01*
X44568656Y-42410801D01*
X44568660Y-42410801D01*
X44568661Y-42410802D01*
X44694328Y-42435800D01*
X44694331Y-42435800D01*
X44822471Y-42435800D01*
X44907015Y-42418982D01*
X44948144Y-42410801D01*
X45066527Y-42361765D01*
X45173069Y-42290576D01*
X45263676Y-42199969D01*
X45334865Y-42093427D01*
X45383901Y-41975044D01*
X45405010Y-41868924D01*
X45408900Y-41849371D01*
X45408900Y-41721228D01*
X45383902Y-41595561D01*
X45383901Y-41595560D01*
X45383901Y-41595556D01*
X45345974Y-41503992D01*
X45334866Y-41477175D01*
X45334861Y-41477166D01*
X45263676Y-41370631D01*
X45263673Y-41370627D01*
X45220219Y-41327173D01*
X45186734Y-41265850D01*
X45183900Y-41239492D01*
X45183900Y-38844084D01*
X45183900Y-38844082D01*
X45154903Y-38735863D01*
X45098885Y-38638837D01*
X45019663Y-38559615D01*
X43030876Y-36570828D01*
X42997391Y-36509505D01*
X43002375Y-36439813D01*
X43030876Y-36395466D01*
X43084601Y-36341741D01*
X43149414Y-36276928D01*
X43251232Y-36136788D01*
X43329873Y-35982445D01*
X43383402Y-35817701D01*
X43410500Y-35646611D01*
X43410500Y-35473389D01*
X43383402Y-35302299D01*
X43329873Y-35137555D01*
X43278873Y-35037462D01*
X43265978Y-34968795D01*
X43292254Y-34904054D01*
X43349361Y-34863797D01*
X43419166Y-34860805D01*
X43477040Y-34893488D01*
G37*
%TD.AperFunction*%
%TA.AperFunction,Conductor*%
G36*
X26011260Y-47857706D02*
G01*
X26067014Y-47869419D01*
X26116735Y-47918404D01*
X26124178Y-47931787D01*
X26135097Y-47972537D01*
X26191115Y-48069563D01*
X26212941Y-48091389D01*
X26221368Y-48106541D01*
X26225396Y-48124392D01*
X26234166Y-48140452D01*
X26237000Y-48166810D01*
X26237000Y-52217669D01*
X26217315Y-52284708D01*
X26164511Y-52330463D01*
X26095353Y-52340407D01*
X26056706Y-52328154D01*
X25962450Y-52280129D01*
X25962447Y-52280128D01*
X25962445Y-52280127D01*
X25797701Y-52226598D01*
X25797699Y-52226597D01*
X25797698Y-52226597D01*
X25649801Y-52203173D01*
X25626611Y-52199500D01*
X25453389Y-52199500D01*
X25430199Y-52203173D01*
X25282302Y-52226597D01*
X25117552Y-52280128D01*
X24963211Y-52358768D01*
X24893686Y-52409282D01*
X24823072Y-52460586D01*
X24823070Y-52460588D01*
X24823069Y-52460588D01*
X24711681Y-52571977D01*
X24650358Y-52605462D01*
X24580666Y-52600478D01*
X24524733Y-52558606D01*
X24500316Y-52493142D01*
X24500000Y-52484296D01*
X24500000Y-48469966D01*
X24519685Y-48402927D01*
X24572489Y-48357172D01*
X24641647Y-48347228D01*
X24662319Y-48352035D01*
X24719000Y-48370452D01*
X24905553Y-48400000D01*
X25094447Y-48400000D01*
X25281002Y-48370451D01*
X25460637Y-48312085D01*
X25628937Y-48226331D01*
X25654328Y-48207883D01*
X25654328Y-48207882D01*
X25046446Y-47600000D01*
X25052661Y-47600000D01*
X25154394Y-47572741D01*
X25245606Y-47520080D01*
X25320080Y-47445606D01*
X25372741Y-47354394D01*
X25400000Y-47252661D01*
X25400000Y-47246446D01*
X26011260Y-47857706D01*
G37*
%TD.AperFunction*%
%TA.AperFunction,Conductor*%
G36*
X26920000Y-41840000D02*
G01*
X27164447Y-41840000D01*
X27351002Y-41810451D01*
X27530640Y-41752084D01*
X27530642Y-41752083D01*
X27535901Y-41749404D01*
X27604569Y-41736504D01*
X27669311Y-41762778D01*
X27709570Y-41819883D01*
X27716200Y-41859886D01*
X27716200Y-44753989D01*
X27696515Y-44821028D01*
X27679881Y-44841670D01*
X26252895Y-46268655D01*
X26252896Y-46268656D01*
X26191114Y-46330438D01*
X26191113Y-46330440D01*
X26135098Y-46427460D01*
X26135096Y-46427464D01*
X26128141Y-46453421D01*
X26091774Y-46513080D01*
X26028927Y-46543608D01*
X26009069Y-46544482D01*
X25400000Y-47153552D01*
X25400000Y-47147339D01*
X25372741Y-47045606D01*
X25320080Y-46954394D01*
X25245606Y-46879920D01*
X25154394Y-46827259D01*
X25052661Y-46800000D01*
X25046444Y-46800000D01*
X25654328Y-46192116D01*
X25628933Y-46173666D01*
X25460637Y-46087914D01*
X25425895Y-46076626D01*
X25368219Y-46037189D01*
X25341021Y-45972830D01*
X25352936Y-45903984D01*
X25376524Y-45871023D01*
X25538785Y-45708763D01*
X25594803Y-45611737D01*
X25623800Y-45503519D01*
X25623800Y-45391482D01*
X25623800Y-41859886D01*
X25643485Y-41792847D01*
X25696289Y-41747092D01*
X25765447Y-41737148D01*
X25804099Y-41749404D01*
X25809357Y-41752083D01*
X25809359Y-41752084D01*
X25988997Y-41810451D01*
X26175553Y-41840000D01*
X26420000Y-41840000D01*
X26420000Y-40955686D01*
X26424394Y-40960080D01*
X26515606Y-41012741D01*
X26617339Y-41040000D01*
X26722661Y-41040000D01*
X26824394Y-41012741D01*
X26915606Y-40960080D01*
X26920000Y-40955686D01*
X26920000Y-41840000D01*
G37*
%TD.AperFunction*%
%TA.AperFunction,Conductor*%
G36*
X32516803Y-31825697D02*
G01*
X32523281Y-31831729D01*
X39125581Y-38434029D01*
X39159066Y-38495352D01*
X39161900Y-38521710D01*
X39161900Y-40548592D01*
X39142215Y-40615631D01*
X39125581Y-40636273D01*
X39082126Y-40679727D01*
X39082123Y-40679731D01*
X39010938Y-40786266D01*
X39010933Y-40786275D01*
X38961899Y-40904655D01*
X38961897Y-40904661D01*
X38936900Y-41030328D01*
X38936900Y-41030331D01*
X38936900Y-41158469D01*
X38936900Y-41158471D01*
X38936899Y-41158471D01*
X38961897Y-41284138D01*
X38961899Y-41284144D01*
X39010933Y-41402524D01*
X39010938Y-41402533D01*
X39064262Y-41482337D01*
X39085140Y-41549014D01*
X39066656Y-41616395D01*
X39048841Y-41638909D01*
X34167016Y-46520734D01*
X34105693Y-46554219D01*
X34036001Y-46549235D01*
X34033982Y-46547724D01*
X34007882Y-46545669D01*
X33400000Y-47153551D01*
X33400000Y-47147339D01*
X33372741Y-47045606D01*
X33320080Y-46954394D01*
X33245606Y-46879920D01*
X33154394Y-46827259D01*
X33052661Y-46800000D01*
X33046444Y-46800000D01*
X33654328Y-46192116D01*
X33628933Y-46173666D01*
X33460637Y-46087914D01*
X33281002Y-46029548D01*
X33094447Y-46000000D01*
X32905553Y-46000000D01*
X32718997Y-46029548D01*
X32539359Y-46087915D01*
X32491894Y-46112100D01*
X32423225Y-46124996D01*
X32358484Y-46098719D01*
X32318228Y-46041612D01*
X32311600Y-46001615D01*
X32311600Y-43871258D01*
X32331285Y-43804219D01*
X32384089Y-43758464D01*
X32453247Y-43748520D01*
X32516803Y-43777545D01*
X32550161Y-43823806D01*
X32563131Y-43855120D01*
X32563138Y-43855133D01*
X32634323Y-43961668D01*
X32634326Y-43961672D01*
X32724927Y-44052273D01*
X32724931Y-44052276D01*
X32831466Y-44123461D01*
X32831472Y-44123464D01*
X32831473Y-44123465D01*
X32949856Y-44172501D01*
X32949860Y-44172501D01*
X32949861Y-44172502D01*
X33075528Y-44197500D01*
X33075531Y-44197500D01*
X33203671Y-44197500D01*
X33288215Y-44180682D01*
X33329344Y-44172501D01*
X33447727Y-44123465D01*
X33554269Y-44052276D01*
X33644876Y-43961669D01*
X33716065Y-43855127D01*
X33765101Y-43736744D01*
X33783512Y-43644190D01*
X33790100Y-43611071D01*
X33790100Y-43482928D01*
X33765102Y-43357261D01*
X33765101Y-43357260D01*
X33765101Y-43357256D01*
X33716065Y-43238873D01*
X33716064Y-43238872D01*
X33716061Y-43238866D01*
X33644876Y-43132331D01*
X33644873Y-43132327D01*
X33601419Y-43088873D01*
X33567934Y-43027550D01*
X33565100Y-43001192D01*
X33565100Y-34725383D01*
X33565099Y-34725380D01*
X33564391Y-34722737D01*
X33564388Y-34722726D01*
X33557878Y-34698429D01*
X33536103Y-34617163D01*
X33480085Y-34520137D01*
X33435019Y-34475071D01*
X33401534Y-34413748D01*
X33398700Y-34387390D01*
X33398700Y-34325928D01*
X33373702Y-34200261D01*
X33373701Y-34200260D01*
X33373701Y-34200256D01*
X33329441Y-34093403D01*
X33324666Y-34081875D01*
X33324661Y-34081866D01*
X33253476Y-33975331D01*
X33253473Y-33975327D01*
X33162872Y-33884726D01*
X33162868Y-33884723D01*
X33056333Y-33813538D01*
X33056324Y-33813533D01*
X32937944Y-33764499D01*
X32937938Y-33764497D01*
X32812271Y-33739500D01*
X32812269Y-33739500D01*
X32684131Y-33739500D01*
X32684129Y-33739500D01*
X32558461Y-33764497D01*
X32558456Y-33764499D01*
X32483051Y-33795732D01*
X32413582Y-33803200D01*
X32351103Y-33771924D01*
X32315451Y-33711835D01*
X32311600Y-33681170D01*
X32311600Y-31919410D01*
X32331285Y-31852371D01*
X32384089Y-31806616D01*
X32453247Y-31796672D01*
X32516803Y-31825697D01*
G37*
%TD.AperFunction*%
%TA.AperFunction,Conductor*%
G36*
X71034075Y-28732993D02*
G01*
X71099901Y-28847007D01*
X71192993Y-28940099D01*
X71307007Y-29005925D01*
X71370589Y-29022962D01*
X70809873Y-29583677D01*
X70809873Y-29583678D01*
X70844858Y-29609096D01*
X71020164Y-29698418D01*
X71207294Y-29759221D01*
X71401618Y-29790000D01*
X71598382Y-29790000D01*
X71792705Y-29759221D01*
X71979835Y-29698418D01*
X72155144Y-29609095D01*
X72232213Y-29553100D01*
X72298019Y-29529619D01*
X72366073Y-29545444D01*
X72414769Y-29595549D01*
X72429100Y-29653417D01*
X72429100Y-32225500D01*
X72409415Y-32292539D01*
X72356611Y-32338294D01*
X72305100Y-32349500D01*
X70605143Y-32349500D01*
X70605117Y-32349502D01*
X70580013Y-32352413D01*
X70536387Y-32371676D01*
X70489735Y-32392275D01*
X70489386Y-32392429D01*
X70420107Y-32401500D01*
X70356922Y-32371676D01*
X70319892Y-32312426D01*
X70315300Y-32278994D01*
X70315300Y-29353169D01*
X70334985Y-29286130D01*
X70387789Y-29240375D01*
X70449031Y-29229551D01*
X70456321Y-29230124D01*
X71017037Y-28669408D01*
X71034075Y-28732993D01*
G37*
%TD.AperFunction*%
%TA.AperFunction,Conductor*%
G36*
X70489383Y-27107569D02*
G01*
X70580009Y-27147585D01*
X70605135Y-27150500D01*
X70957190Y-27150499D01*
X71024229Y-27170183D01*
X71069984Y-27222987D01*
X71079928Y-27292146D01*
X71050903Y-27355701D01*
X71013485Y-27384984D01*
X70844859Y-27470902D01*
X70809873Y-27496320D01*
X70809872Y-27496320D01*
X71370590Y-28057037D01*
X71307007Y-28074075D01*
X71192993Y-28139901D01*
X71099901Y-28232993D01*
X71034075Y-28347007D01*
X71017037Y-28410590D01*
X70456320Y-27849872D01*
X70449029Y-27850446D01*
X70380652Y-27836082D01*
X70330895Y-27787031D01*
X70315300Y-27726828D01*
X70315300Y-27221005D01*
X70334985Y-27153966D01*
X70387789Y-27108211D01*
X70456947Y-27098267D01*
X70489383Y-27107569D01*
G37*
%TD.AperFunction*%
%TD*%
M02*
