%TF.GenerationSoftware,KiCad,Pcbnew,10.0.4*%
%TF.CreationDate,2026-07-28T00:15:56-03:00*%
%TF.ProjectId,tkmem128,746b6d65-6d31-4323-982e-6b696361645f,rev?*%
%TF.SameCoordinates,Original*%
%TF.FileFunction,Copper,L1,Top*%
%TF.FilePolarity,Positive*%
%FSLAX46Y46*%
G04 Gerber Fmt 4.6, Leading zero omitted, Abs format (unit mm)*
G04 Created by KiCad (PCBNEW 10.0.4) date 2026-07-28 00:15:56*
%MOMM*%
%LPD*%
G01*
G04 APERTURE LIST*
G04 Aperture macros list*
%AMRoundRect*
0 Rectangle with rounded corners*
0 $1 Rounding radius*
0 $2 $3 $4 $5 $6 $7 $8 $9 X,Y pos of 4 corners*
0 Add a 4 corners polygon primitive as box body*
4,1,4,$2,$3,$4,$5,$6,$7,$8,$9,$2,$3,0*
0 Add four circle primitives for the rounded corners*
1,1,$1+$1,$2,$3*
1,1,$1+$1,$4,$5*
1,1,$1+$1,$6,$7*
1,1,$1+$1,$8,$9*
0 Add four rect primitives between the rounded corners*
20,1,$1+$1,$2,$3,$4,$5,0*
20,1,$1+$1,$4,$5,$6,$7,0*
20,1,$1+$1,$6,$7,$8,$9,0*
20,1,$1+$1,$8,$9,$2,$3,0*%
%AMFreePoly0*
4,1,23,0.500000,-0.750000,0.000000,-0.750000,0.000000,-0.745722,-0.065263,-0.745722,-0.191342,-0.711940,-0.304381,-0.646677,-0.396677,-0.554381,-0.461940,-0.441342,-0.495722,-0.315263,-0.495722,-0.250000,-0.500000,-0.250000,-0.500000,0.250000,-0.495722,0.250000,-0.495722,0.315263,-0.461940,0.441342,-0.396677,0.554381,-0.304381,0.646677,-0.191342,0.711940,-0.065263,0.745722,0.000000,0.745722,
0.000000,0.750000,0.500000,0.750000,0.500000,-0.750000,0.500000,-0.750000,$1*%
%AMFreePoly1*
4,1,23,0.000000,0.745722,0.065263,0.745722,0.191342,0.711940,0.304381,0.646677,0.396677,0.554381,0.461940,0.441342,0.495722,0.315263,0.495722,0.250000,0.500000,0.250000,0.500000,-0.250000,0.495722,-0.250000,0.495722,-0.315263,0.461940,-0.441342,0.396677,-0.554381,0.304381,-0.646677,0.191342,-0.711940,0.065263,-0.745722,0.000000,-0.745722,0.000000,-0.750000,-0.500000,-0.750000,
-0.500000,0.750000,0.000000,0.750000,0.000000,0.745722,0.000000,0.745722,$1*%
G04 Aperture macros list end*
%TA.AperFunction,ComponentPad*%
%ADD10RoundRect,0.250000X-0.950000X-0.550000X0.950000X-0.550000X0.950000X0.550000X-0.950000X0.550000X0*%
%TD*%
%TA.AperFunction,ComponentPad*%
%ADD11O,2.400000X1.600000*%
%TD*%
%TA.AperFunction,ComponentPad*%
%ADD12R,1.700000X1.700000*%
%TD*%
%TA.AperFunction,ComponentPad*%
%ADD13C,1.700000*%
%TD*%
%TA.AperFunction,ComponentPad*%
%ADD14C,1.500000*%
%TD*%
%TA.AperFunction,ComponentPad*%
%ADD15C,1.600000*%
%TD*%
%TA.AperFunction,ComponentPad*%
%ADD16RoundRect,0.250000X-0.550000X-0.550000X0.550000X-0.550000X0.550000X0.550000X-0.550000X0.550000X0*%
%TD*%
%TA.AperFunction,ComponentPad*%
%ADD17R,1.800000X1.800000*%
%TD*%
%TA.AperFunction,ComponentPad*%
%ADD18C,1.800000*%
%TD*%
%TA.AperFunction,SMDPad,CuDef*%
%ADD19FreePoly0,0.000000*%
%TD*%
%TA.AperFunction,SMDPad,CuDef*%
%ADD20FreePoly1,0.000000*%
%TD*%
%TA.AperFunction,ComponentPad*%
%ADD21R,1.750000X1.750000*%
%TD*%
%TA.AperFunction,ComponentPad*%
%ADD22C,1.750000*%
%TD*%
%TA.AperFunction,ViaPad*%
%ADD23C,0.700000*%
%TD*%
%TA.AperFunction,Conductor*%
%ADD24C,0.250000*%
%TD*%
%TA.AperFunction,Conductor*%
%ADD25C,0.600000*%
%TD*%
G04 APERTURE END LIST*
D10*
%TO.P,U3,1*%
%TO.N,SA18*%
X6350000Y-5080000D03*
D11*
%TO.P,U3,2*%
%TO.N,SA16*%
X6350000Y-7620000D03*
%TO.P,U3,3*%
%TO.N,SA14*%
X6350000Y-10160000D03*
%TO.P,U3,4*%
%TO.N,A12*%
X6350000Y-12700000D03*
%TO.P,U3,5*%
%TO.N,A7*%
X6350000Y-15240000D03*
%TO.P,U3,6*%
%TO.N,A6*%
X6350000Y-17780000D03*
%TO.P,U3,7*%
%TO.N,A5*%
X6350000Y-20320000D03*
%TO.P,U3,8*%
%TO.N,A4*%
X6350000Y-22860000D03*
%TO.P,U3,9*%
%TO.N,A3*%
X6350000Y-25400000D03*
%TO.P,U3,10*%
%TO.N,A2*%
X6350000Y-27940000D03*
%TO.P,U3,11*%
%TO.N,A1*%
X6350000Y-30480000D03*
%TO.P,U3,12*%
%TO.N,A0*%
X6350000Y-33020000D03*
%TO.P,U3,13*%
%TO.N,D0*%
X6350000Y-35560000D03*
%TO.P,U3,14*%
%TO.N,D1*%
X6350000Y-38100000D03*
%TO.P,U3,15*%
%TO.N,D2*%
X6350000Y-40640000D03*
%TO.P,U3,16*%
%TO.N,GND*%
X6350000Y-43180000D03*
%TO.P,U3,17*%
%TO.N,D3*%
X21590000Y-43180000D03*
%TO.P,U3,18*%
%TO.N,D4*%
X21590000Y-40640000D03*
%TO.P,U3,19*%
%TO.N,D5*%
X21590000Y-38100000D03*
%TO.P,U3,20*%
%TO.N,D6*%
X21590000Y-35560000D03*
%TO.P,U3,21*%
%TO.N,D7*%
X21590000Y-33020000D03*
%TO.P,U3,22*%
%TO.N,RAMCS_N*%
X21590000Y-30480000D03*
%TO.P,U3,23*%
%TO.N,A10*%
X21590000Y-27940000D03*
%TO.P,U3,24*%
%TO.N,RD_N*%
X21590000Y-25400000D03*
%TO.P,U3,25*%
%TO.N,A11*%
X21590000Y-22860000D03*
%TO.P,U3,26*%
%TO.N,A9*%
X21590000Y-20320000D03*
%TO.P,U3,27*%
%TO.N,A8*%
X21590000Y-17780000D03*
%TO.P,U3,28*%
%TO.N,A13*%
X21590000Y-15240000D03*
%TO.P,U3,29*%
%TO.N,WR_N*%
X21590000Y-12700000D03*
%TO.P,U3,30*%
%TO.N,SA17_CE2*%
X21590000Y-10160000D03*
%TO.P,U3,31*%
%TO.N,SA15*%
X21590000Y-7620000D03*
%TO.P,U3,32*%
%TO.N,+5V*%
X21590000Y-5080000D03*
%TD*%
D12*
%TO.P,JP2,1*%
%TO.N,ROMCS_N*%
X71500000Y-17000000D03*
D13*
%TO.P,JP2,2*%
%TO.N,ROMCS_DRV*%
X71500000Y-19540000D03*
%TO.P,JP2,3*%
%TO.N,+5V*%
X71500000Y-22080000D03*
%TD*%
D14*
%TO.P,TP2,1*%
%TO.N,CLK7FFD*%
X64000000Y-47200000D03*
%TD*%
D12*
%TO.P,JP1,1*%
%TO.N,ROMCS_N*%
X71500000Y-8000000D03*
D13*
%TO.P,JP1,2*%
%TO.N,ROMCE_N*%
X71500000Y-10540000D03*
%TO.P,JP1,3*%
%TO.N,+5V*%
X71500000Y-13080000D03*
%TD*%
D15*
%TO.P,C5,1*%
%TO.N,+5V*%
X36000000Y-47200000D03*
%TO.P,C5,2*%
%TO.N,GND*%
X41000000Y-47200000D03*
%TD*%
%TO.P,C4,1*%
%TO.N,+5V*%
X12000000Y-47200000D03*
%TO.P,C4,2*%
%TO.N,GND*%
X17000000Y-47200000D03*
%TD*%
D10*
%TO.P,U2,1*%
%TO.N,RESET_N*%
X59690000Y-12700000D03*
D11*
%TO.P,U2,2*%
%TO.N,BANK0*%
X59690000Y-15240000D03*
%TO.P,U2,3*%
%TO.N,D0*%
X59690000Y-17780000D03*
%TO.P,U2,4*%
%TO.N,D1*%
X59690000Y-20320000D03*
%TO.P,U2,5*%
%TO.N,BANK1*%
X59690000Y-22860000D03*
%TO.P,U2,6*%
%TO.N,BANK2*%
X59690000Y-25400000D03*
%TO.P,U2,7*%
%TO.N,D2*%
X59690000Y-27940000D03*
%TO.P,U2,8*%
%TO.N,D3*%
X59690000Y-30480000D03*
%TO.P,U2,9*%
%TO.N,VRAM*%
X59690000Y-33020000D03*
%TO.P,U2,10*%
%TO.N,GND*%
X59690000Y-35560000D03*
%TO.P,U2,11*%
%TO.N,CLK7FFD*%
X67310000Y-35560000D03*
%TO.P,U2,12*%
%TO.N,ROMA14*%
X67310000Y-33020000D03*
%TO.P,U2,13*%
%TO.N,D4*%
X67310000Y-30480000D03*
%TO.P,U2,14*%
%TO.N,D5*%
X67310000Y-27940000D03*
%TO.P,U2,15*%
%TO.N,DIS128*%
X67310000Y-25400000D03*
%TO.P,U2,16*%
%TO.N,BANK3*%
X67310000Y-22860000D03*
%TO.P,U2,17*%
%TO.N,D6*%
X67310000Y-20320000D03*
%TO.P,U2,18*%
%TO.N,D7*%
X67310000Y-17780000D03*
%TO.P,U2,19*%
%TO.N,BANK4*%
X67310000Y-15240000D03*
%TO.P,U2,20*%
%TO.N,+5V*%
X67310000Y-12700000D03*
%TD*%
D15*
%TO.P,R3,1*%
%TO.N,+5V*%
X23000000Y-53300000D03*
%TO.P,R3,2*%
%TO.N,LED_A*%
X25540000Y-53300000D03*
%TD*%
D14*
%TO.P,TP1,1*%
%TO.N,VRAM*%
X60000000Y-47200000D03*
%TD*%
D10*
%TO.P,U4,1*%
%TO.N,+5V*%
X26670000Y-7620000D03*
D11*
%TO.P,U4,2*%
%TO.N,A12*%
X26670000Y-10160000D03*
%TO.P,U4,3*%
%TO.N,A7*%
X26670000Y-12700000D03*
%TO.P,U4,4*%
%TO.N,A6*%
X26670000Y-15240000D03*
%TO.P,U4,5*%
%TO.N,A5*%
X26670000Y-17780000D03*
%TO.P,U4,6*%
%TO.N,A4*%
X26670000Y-20320000D03*
%TO.P,U4,7*%
%TO.N,A3*%
X26670000Y-22860000D03*
%TO.P,U4,8*%
%TO.N,A2*%
X26670000Y-25400000D03*
%TO.P,U4,9*%
%TO.N,A1*%
X26670000Y-27940000D03*
%TO.P,U4,10*%
%TO.N,A0*%
X26670000Y-30480000D03*
%TO.P,U4,11*%
%TO.N,D0*%
X26670000Y-33020000D03*
%TO.P,U4,12*%
%TO.N,D1*%
X26670000Y-35560000D03*
%TO.P,U4,13*%
%TO.N,D2*%
X26670000Y-38100000D03*
%TO.P,U4,14*%
%TO.N,GND*%
X26670000Y-40640000D03*
%TO.P,U4,15*%
%TO.N,D3*%
X41910000Y-40640000D03*
%TO.P,U4,16*%
%TO.N,D4*%
X41910000Y-38100000D03*
%TO.P,U4,17*%
%TO.N,D5*%
X41910000Y-35560000D03*
%TO.P,U4,18*%
%TO.N,D6*%
X41910000Y-33020000D03*
%TO.P,U4,19*%
%TO.N,D7*%
X41910000Y-30480000D03*
%TO.P,U4,20*%
%TO.N,ROMCE_N*%
X41910000Y-27940000D03*
%TO.P,U4,21*%
%TO.N,A10*%
X41910000Y-25400000D03*
%TO.P,U4,22*%
%TO.N,RD_N*%
X41910000Y-22860000D03*
%TO.P,U4,23*%
%TO.N,A11*%
X41910000Y-20320000D03*
%TO.P,U4,24*%
%TO.N,A9*%
X41910000Y-17780000D03*
%TO.P,U4,25*%
%TO.N,A8*%
X41910000Y-15240000D03*
%TO.P,U4,26*%
%TO.N,A13*%
X41910000Y-12700000D03*
%TO.P,U4,27*%
%TO.N,ROMA14*%
X41910000Y-10160000D03*
%TO.P,U4,28*%
%TO.N,+5V*%
X41910000Y-7620000D03*
%TD*%
D15*
%TO.P,C2,1*%
%TO.N,+5V*%
X28000000Y-47200000D03*
%TO.P,C2,2*%
%TO.N,GND*%
X33000000Y-47200000D03*
%TD*%
D12*
%TO.P,JP4,1*%
%TO.N,RAMDIS_DRV*%
X71500000Y-33500000D03*
D13*
%TO.P,JP4,2*%
%TO.N,RAMDIS*%
X71500000Y-36040000D03*
%TD*%
D15*
%TO.P,R5,1*%
%TO.N,ROMCS_DRV*%
X17000000Y-53300000D03*
%TO.P,R5,2*%
%TO.N,ROMCS_BUS*%
X19540000Y-53300000D03*
%TD*%
D16*
%TO.P,C6,1*%
%TO.N,+5V*%
X44000000Y-47200000D03*
D15*
%TO.P,C6,2*%
%TO.N,GND*%
X46000000Y-47200000D03*
%TD*%
D17*
%TO.P,D1,1*%
%TO.N,GND*%
X52000000Y-47200000D03*
D18*
%TO.P,D1,2*%
%TO.N,LED_A*%
X54540000Y-47200000D03*
%TD*%
D10*
%TO.P,U1,1*%
%TO.N,MREQ_N*%
X46990000Y-10160000D03*
D11*
%TO.P,U1,2*%
%TO.N,ZX512*%
X46990000Y-12700000D03*
%TO.P,U1,3*%
%TO.N,A1*%
X46990000Y-15240000D03*
%TO.P,U1,4*%
%TO.N,WR_N*%
X46990000Y-17780000D03*
%TO.P,U1,5*%
%TO.N,DIS128*%
X46990000Y-20320000D03*
%TO.P,U1,6*%
%TO.N,BANK2*%
X46990000Y-22860000D03*
%TO.P,U1,7*%
%TO.N,A5*%
X46990000Y-25400000D03*
%TO.P,U1,8*%
%TO.N,BANK0*%
X46990000Y-27940000D03*
%TO.P,U1,9*%
%TO.N,BANK4*%
X46990000Y-30480000D03*
%TO.P,U1,10*%
%TO.N,BANK3*%
X46990000Y-33020000D03*
%TO.P,U1,11*%
%TO.N,BANK1*%
X46990000Y-35560000D03*
%TO.P,U1,12*%
%TO.N,GND*%
X46990000Y-38100000D03*
%TO.P,U1,13*%
%TO.N,A15*%
X54610000Y-38100000D03*
%TO.P,U1,14*%
%TO.N,A14*%
X54610000Y-35560000D03*
%TO.P,U1,15*%
%TO.N,ROMCS_N*%
X54610000Y-33020000D03*
%TO.P,U1,16*%
%TO.N,CLK7FFD*%
X54610000Y-30480000D03*
%TO.P,U1,17*%
%TO.N,SA18*%
X54610000Y-27940000D03*
%TO.P,U1,18*%
%TO.N,SA17_CE2*%
X54610000Y-25400000D03*
%TO.P,U1,19*%
%TO.N,RAMCS_N*%
X54610000Y-22860000D03*
%TO.P,U1,20*%
%TO.N,SA16*%
X54610000Y-20320000D03*
%TO.P,U1,21*%
%TO.N,SA15*%
X54610000Y-17780000D03*
%TO.P,U1,22*%
%TO.N,SA14*%
X54610000Y-15240000D03*
%TO.P,U1,23*%
%TO.N,IORQ_N*%
X54610000Y-12700000D03*
%TO.P,U1,24*%
%TO.N,+5V*%
X54610000Y-10160000D03*
%TD*%
D19*
%TO.P,SJ1,1*%
%TO.N,BUS_P07*%
X30350000Y-53300000D03*
D20*
%TO.P,SJ1,2*%
%TO.N,GND*%
X31650000Y-53300000D03*
%TD*%
D15*
%TO.P,C1,1*%
%TO.N,+5V*%
X20000000Y-47200000D03*
%TO.P,C1,2*%
%TO.N,GND*%
X25000000Y-47200000D03*
%TD*%
%TO.P,C3,1*%
%TO.N,+5V*%
X4000000Y-47200000D03*
%TO.P,C3,2*%
%TO.N,GND*%
X9000000Y-47200000D03*
%TD*%
%TO.P,R4,1*%
%TO.N,+5V*%
X11000000Y-53300000D03*
%TO.P,R4,2*%
%TO.N,RAMDIS_DRV*%
X13540000Y-53300000D03*
%TD*%
D19*
%TO.P,SJ2,1*%
%TO.N,BUS_P15*%
X36350000Y-53300000D03*
D20*
%TO.P,SJ2,2*%
%TO.N,GND*%
X37650000Y-53300000D03*
%TD*%
D15*
%TO.P,R2,1*%
%TO.N,+5V*%
X5000000Y-53300000D03*
%TO.P,R2,2*%
%TO.N,ZX512*%
X7540000Y-53300000D03*
%TD*%
D12*
%TO.P,JP3,1*%
%TO.N,ZX512*%
X71500000Y-26000000D03*
D13*
%TO.P,JP3,2*%
%TO.N,GND*%
X71500000Y-28540000D03*
%TD*%
D21*
%TO.P,J1,1*%
%TO.N,A14*%
X73660000Y-64655000D03*
D22*
%TO.P,J1,2*%
%TO.N,A12*%
X71120000Y-64655000D03*
%TO.P,J1,3*%
%TO.N,+5V*%
X68580000Y-64655000D03*
%TO.P,J1,4*%
%TO.N,BUS_9V*%
X66040000Y-64655000D03*
%TO.P,J1,6*%
%TO.N,GND*%
X60960000Y-64655000D03*
%TO.P,J1,7*%
%TO.N,BUS_P07*%
X58420000Y-64655000D03*
%TO.P,J1,8*%
%TO.N,BUS_CLK*%
X55880000Y-64655000D03*
%TO.P,J1,9*%
%TO.N,A0*%
X53340000Y-64655000D03*
%TO.P,J1,10*%
%TO.N,A1*%
X50800000Y-64655000D03*
%TO.P,J1,11*%
%TO.N,A2*%
X48260000Y-64655000D03*
%TO.P,J1,12*%
%TO.N,A3*%
X45720000Y-64655000D03*
%TO.P,J1,13*%
%TO.N,BUS_IORQGE*%
X43180000Y-64655000D03*
%TO.P,J1,14*%
%TO.N,GND*%
X40640000Y-64655000D03*
%TO.P,J1,15*%
%TO.N,BUS_P15*%
X38100000Y-64655000D03*
%TO.P,J1,16*%
%TO.N,BUS_P16*%
X35560000Y-64655000D03*
%TO.P,J1,17*%
%TO.N,RAMDIS*%
X33020000Y-64655000D03*
%TO.P,J1,18*%
%TO.N,BUS_P18*%
X30480000Y-64655000D03*
%TO.P,J1,19*%
%TO.N,BUS_BUSREQ*%
X27940000Y-64655000D03*
%TO.P,J1,20*%
%TO.N,RESET_N*%
X25400000Y-64655000D03*
%TO.P,J1,21*%
%TO.N,A7*%
X22860000Y-64655000D03*
%TO.P,J1,22*%
%TO.N,A6*%
X20320000Y-64655000D03*
%TO.P,J1,23*%
%TO.N,A5*%
X17780000Y-64655000D03*
%TO.P,J1,24*%
%TO.N,A4*%
X15240000Y-64655000D03*
%TO.P,J1,25*%
%TO.N,ROMCS_BUS*%
X12700000Y-64655000D03*
%TO.P,J1,26*%
%TO.N,BUS_BUSACK*%
X10160000Y-64655000D03*
%TO.P,J1,27*%
%TO.N,A9*%
X7620000Y-64655000D03*
%TO.P,J1,28*%
%TO.N,A11*%
X5080000Y-64655000D03*
%TO.P,J1,29*%
%TO.N,BUS_P29*%
X5080000Y-59805000D03*
%TO.P,J1,30*%
%TO.N,A10*%
X7620000Y-59805000D03*
%TO.P,J1,31*%
%TO.N,A8*%
X10160000Y-59805000D03*
%TO.P,J1,32*%
%TO.N,BUS_RFSH*%
X12700000Y-59805000D03*
%TO.P,J1,33*%
%TO.N,BUS_M1*%
X15240000Y-59805000D03*
%TO.P,J1,34*%
%TO.N,BUS_P34*%
X17780000Y-59805000D03*
%TO.P,J1,35*%
%TO.N,BUS_P35*%
X20320000Y-59805000D03*
%TO.P,J1,36*%
%TO.N,BUS_WAIT*%
X22860000Y-59805000D03*
%TO.P,J1,37*%
%TO.N,BUS_P37*%
X25400000Y-59805000D03*
%TO.P,J1,38*%
%TO.N,WR_N*%
X27940000Y-59805000D03*
%TO.P,J1,39*%
%TO.N,RD_N*%
X30480000Y-59805000D03*
%TO.P,J1,40*%
%TO.N,IORQ_N*%
X33020000Y-59805000D03*
%TO.P,J1,41*%
%TO.N,MREQ_N*%
X35560000Y-59805000D03*
%TO.P,J1,42*%
%TO.N,BUS_HALT*%
X38100000Y-59805000D03*
%TO.P,J1,43*%
%TO.N,BUS_NMI*%
X40640000Y-59805000D03*
%TO.P,J1,44*%
%TO.N,BUS_INT*%
X43180000Y-59805000D03*
%TO.P,J1,45*%
%TO.N,D4*%
X45720000Y-59805000D03*
%TO.P,J1,46*%
%TO.N,D3*%
X48260000Y-59805000D03*
%TO.P,J1,47*%
%TO.N,D5*%
X50800000Y-59805000D03*
%TO.P,J1,48*%
%TO.N,D6*%
X53340000Y-59805000D03*
%TO.P,J1,49*%
%TO.N,D2*%
X55880000Y-59805000D03*
%TO.P,J1,50*%
%TO.N,D1*%
X58420000Y-59805000D03*
%TO.P,J1,51*%
%TO.N,D0*%
X60960000Y-59805000D03*
%TO.P,J1,53*%
%TO.N,BUS_SOUNDIN*%
X66040000Y-59805000D03*
%TO.P,J1,54*%
%TO.N,D7*%
X68580000Y-59805000D03*
%TO.P,J1,55*%
%TO.N,A13*%
X71120000Y-59805000D03*
%TO.P,J1,56*%
%TO.N,A15*%
X73660000Y-59805000D03*
%TD*%
D23*
%TO.N,SA18*%
X36935900Y-35616300D03*
%TO.N,SA16*%
X36046400Y-17142800D03*
X24501400Y-6731500D03*
%TO.N,SA14*%
X44422300Y-13501600D03*
%TO.N,A12*%
X63462500Y-60706300D03*
X37215500Y-50384600D03*
%TO.N,A5*%
X23224300Y-56279800D03*
X32567100Y-17780000D03*
X32567100Y-22859400D03*
%TO.N,A4*%
X2005900Y-57166200D03*
%TO.N,A3*%
X31191100Y-62286600D03*
X29925500Y-22860000D03*
%TO.N,A2*%
X25441900Y-49733200D03*
%TO.N,A1*%
X44321700Y-61892600D03*
X43820300Y-23195200D03*
%TO.N,A0*%
X24156900Y-46214500D03*
X48020800Y-58429700D03*
X46248000Y-45620100D03*
%TO.N,D0*%
X43198100Y-31842300D03*
%TO.N,D1*%
X45038900Y-32772800D03*
%TO.N,D2*%
X39757100Y-38100000D03*
%TO.N,D3*%
X52659200Y-34492700D03*
X52659200Y-42568500D03*
%TO.N,D5*%
X43999000Y-39643600D03*
X57757300Y-39643600D03*
%TO.N,D6*%
X49536400Y-31656400D03*
%TO.N,D7*%
X48805300Y-48233900D03*
%TO.N,RAMCS_N*%
X48941100Y-29041400D03*
%TO.N,A11*%
X9593000Y-22860000D03*
%TO.N,A13*%
X53973600Y-40486500D03*
X39180400Y-15012300D03*
X36519200Y-15041100D03*
X36238400Y-40471000D03*
%TO.N,WR_N*%
X14445900Y-50375300D03*
%TO.N,SA17_CE2*%
X23503200Y-21847300D03*
%TO.N,ROMCS_DRV*%
X21812500Y-44967200D03*
%TO.N,RESET_N*%
X34753500Y-58520700D03*
%TO.N,BANK0*%
X48456700Y-24622200D03*
%TO.N,ROMA14*%
X70665600Y-30583800D03*
X44422900Y-11236400D03*
%TO.N,BANK4*%
X56067100Y-24335800D03*
%TO.N,LED_A*%
X30468500Y-46721900D03*
%TO.N,RAMDIS*%
X30315900Y-47775900D03*
%TO.N,BUS_P15*%
X41801600Y-60589300D03*
%TD*%
%TO.N,SA18*%
D24*
X53143300Y-27940000D02*
X53143300Y-29593700D01*
X53143300Y-29593700D02*
X48253100Y-34483900D01*
X54610000Y-27940000D02*
X53143300Y-27940000D01*
X48253100Y-34483900D02*
X40610300Y-34483900D01*
X40610300Y-34483900D02*
X39477900Y-35616300D01*
X39477900Y-35616300D02*
X36935900Y-35616300D01*
%TO.N,SA16*%
X39248300Y-17142800D02*
X36046400Y-17142800D01*
X48004300Y-21440900D02*
X46143400Y-21440900D01*
X24310700Y-6540800D02*
X8895900Y-6540800D01*
X24501400Y-6731500D02*
X24310700Y-6540800D01*
X6350000Y-7620000D02*
X7816700Y-7620000D01*
X45131600Y-20429100D02*
X45131600Y-19077100D01*
X8895900Y-6540800D02*
X7816700Y-7620000D01*
X39717100Y-16674000D02*
X39248300Y-17142800D01*
X42728500Y-16674000D02*
X39717100Y-16674000D01*
X54610000Y-20320000D02*
X49125200Y-20320000D01*
X46143400Y-21440900D02*
X45131600Y-20429100D01*
X49125200Y-20320000D02*
X48004300Y-21440900D01*
X45131600Y-19077100D02*
X42728500Y-16674000D01*
%TO.N,SA14*%
X8884200Y-11227500D02*
X7816700Y-10160000D01*
X44422300Y-13501600D02*
X44422300Y-13252300D01*
X42397500Y-11227500D02*
X8884200Y-11227500D01*
X44422300Y-13252300D02*
X42397500Y-11227500D01*
X6350000Y-10160000D02*
X7816700Y-10160000D01*
%TO.N,A12*%
X53241700Y-50384600D02*
X37215500Y-50384600D01*
X63462500Y-60605400D02*
X53241700Y-50384600D01*
%TO.N,A7*%
X26670000Y-12700000D02*
X25203300Y-12700000D01*
X9240400Y-13816300D02*
X7816700Y-15240000D01*
X6350000Y-15240000D02*
X7816700Y-15240000D01*
X24087000Y-13816300D02*
X9240400Y-13816300D01*
X25203300Y-12700000D02*
X24087000Y-13816300D01*
%TO.N,A6*%
X6350000Y-17780000D02*
X7816700Y-17780000D01*
X24077200Y-16366100D02*
X9230600Y-16366100D01*
X9230600Y-16366100D02*
X7816700Y-17780000D01*
X26670000Y-15240000D02*
X25203300Y-15240000D01*
X25203300Y-15240000D02*
X24077200Y-16366100D01*
%TO.N,A5*%
X26670000Y-17780000D02*
X24465900Y-17780000D01*
X21590000Y-57914100D02*
X23224300Y-56279800D01*
X40147700Y-21746400D02*
X43244700Y-21746400D01*
X32567100Y-22859400D02*
X39034700Y-22859400D01*
X26670000Y-17780000D02*
X32567100Y-17780000D01*
X46990000Y-25400000D02*
X45523300Y-25400000D01*
X45523300Y-24025000D02*
X45523300Y-25400000D01*
X43244700Y-21746400D02*
X45523300Y-24025000D01*
X17780000Y-64655000D02*
X21590000Y-60845000D01*
X9255100Y-18881600D02*
X7816700Y-20320000D01*
X23364300Y-18881600D02*
X9255100Y-18881600D01*
X6350000Y-20320000D02*
X7816700Y-20320000D01*
X24465900Y-17780000D02*
X23364300Y-18881600D01*
X39034700Y-22859400D02*
X40147700Y-21746400D01*
X21590000Y-60845000D02*
X21590000Y-57914100D01*
%TO.N,A4*%
X9240400Y-21436300D02*
X7816700Y-22860000D01*
X6350000Y-22860000D02*
X7816700Y-22860000D01*
X26670000Y-20320000D02*
X23912000Y-20320000D01*
X11531700Y-60946700D02*
X9666800Y-60946700D01*
X22795700Y-21436300D02*
X9240400Y-21436300D01*
X8761700Y-60041600D02*
X8761700Y-59332100D01*
X15240000Y-64655000D02*
X11531700Y-60946700D01*
X6595800Y-57166200D02*
X2005900Y-57166200D01*
X23912000Y-20320000D02*
X22795700Y-21436300D01*
X9666800Y-60946700D02*
X8761700Y-60041600D01*
X8761700Y-59332100D02*
X6595800Y-57166200D01*
%TO.N,A3*%
X26670000Y-22860000D02*
X29925500Y-22860000D01*
X31191100Y-62286600D02*
X32417800Y-63513300D01*
X7816700Y-25400000D02*
X9238900Y-23977800D01*
X32417800Y-63513300D02*
X44578300Y-63513300D01*
X6350000Y-25400000D02*
X7816700Y-25400000D01*
X9238900Y-23977800D02*
X23348100Y-23977800D01*
X44578300Y-63513300D02*
X45720000Y-64655000D01*
X23348100Y-23977800D02*
X24465900Y-22860000D01*
X24465900Y-22860000D02*
X26670000Y-22860000D01*
%TO.N,A2*%
X34552000Y-57123600D02*
X36830000Y-59401600D01*
X46590100Y-62985100D02*
X48260000Y-64655000D01*
X24465900Y-25400000D02*
X23349600Y-26516300D01*
X23349600Y-26516300D02*
X9240400Y-26516300D01*
X9240400Y-26516300D02*
X7816700Y-27940000D01*
X36830000Y-59401600D02*
X36830000Y-60205700D01*
X32832300Y-57123600D02*
X34552000Y-57123600D01*
X36830000Y-60205700D02*
X39609400Y-62985100D01*
X6350000Y-27940000D02*
X7816700Y-27940000D01*
X39609400Y-62985100D02*
X46590100Y-62985100D01*
X25441900Y-49733200D02*
X32832300Y-57123600D01*
X26670000Y-25400000D02*
X24465900Y-25400000D01*
%TO.N,A1*%
X39216100Y-27940000D02*
X26670000Y-27940000D01*
X24087000Y-29056300D02*
X9240400Y-29056300D01*
X25203300Y-27940000D02*
X24087000Y-29056300D01*
X42572500Y-26670000D02*
X40486100Y-26670000D01*
X50800000Y-64655000D02*
X48037600Y-61892600D01*
X43820300Y-23195200D02*
X43820300Y-25422200D01*
X48037600Y-61892600D02*
X44321700Y-61892600D01*
X9240400Y-29056300D02*
X7816700Y-30480000D01*
X40486100Y-26670000D02*
X39216100Y-27940000D01*
X43820300Y-25422200D02*
X42572500Y-26670000D01*
X6350000Y-30480000D02*
X7816700Y-30480000D01*
X26670000Y-27940000D02*
X25203300Y-27940000D01*
%TO.N,A0*%
X30955900Y-48021700D02*
X30553900Y-48423700D01*
X27676400Y-48423700D02*
X26933300Y-47680600D01*
X9240400Y-31596300D02*
X7816700Y-33020000D01*
X25482800Y-46133300D02*
X24238100Y-46133300D01*
X23349600Y-31596300D02*
X9240400Y-31596300D01*
X53340000Y-64655000D02*
X49631700Y-60946700D01*
X24465900Y-30480000D02*
X23349600Y-31596300D01*
X47118300Y-60277800D02*
X47118300Y-59332200D01*
X30553900Y-48423700D02*
X27676400Y-48423700D01*
X33304200Y-45381600D02*
X30955900Y-47729900D01*
X6350000Y-33020000D02*
X7816700Y-33020000D01*
X26670000Y-30480000D02*
X24465900Y-30480000D01*
X47118300Y-59332200D02*
X48020800Y-58429700D01*
X46009500Y-45381600D02*
X33304200Y-45381600D01*
X46248000Y-45620100D02*
X46009500Y-45381600D01*
X47787200Y-60946700D02*
X47118300Y-60277800D01*
X49631700Y-60946700D02*
X47787200Y-60946700D01*
X26933300Y-47583800D02*
X25482800Y-46133300D01*
X30955900Y-47729900D02*
X30955900Y-48021700D01*
%TO.N,D0*%
X24465900Y-33020000D02*
X23349600Y-34136300D01*
X9240400Y-34136300D02*
X7816700Y-35560000D01*
X26670000Y-33020000D02*
X38221800Y-33020000D01*
X38221800Y-33020000D02*
X39399500Y-31842300D01*
X6350000Y-35560000D02*
X7816700Y-35560000D01*
X39399500Y-31842300D02*
X43198100Y-31842300D01*
X26670000Y-33020000D02*
X24465900Y-33020000D01*
X23349600Y-34136300D02*
X9240400Y-34136300D01*
%TO.N,D1*%
X29212900Y-34483800D02*
X28136700Y-35560000D01*
X26670000Y-35560000D02*
X25203300Y-35560000D01*
X39786800Y-34483800D02*
X29212900Y-34483800D01*
X25203300Y-35560000D02*
X24087000Y-36676300D01*
X24087000Y-36676300D02*
X9240400Y-36676300D01*
X6350000Y-38100000D02*
X7816700Y-38100000D01*
X43721000Y-34090700D02*
X40179900Y-34090700D01*
X26670000Y-35560000D02*
X28136700Y-35560000D01*
X40179900Y-34090700D02*
X39786800Y-34483800D01*
X45038900Y-32772800D02*
X43721000Y-34090700D01*
X9240400Y-36676300D02*
X7816700Y-38100000D01*
%TO.N,D2*%
X59690000Y-27940000D02*
X58223300Y-27940000D01*
X6350000Y-40640000D02*
X7816700Y-40640000D01*
X41152000Y-36705100D02*
X47932400Y-36705100D01*
X47932400Y-36705100D02*
X52887500Y-31750000D01*
X23195900Y-39370000D02*
X9086700Y-39370000D01*
X52887500Y-31750000D02*
X55367700Y-31750000D01*
X26670000Y-38100000D02*
X24465900Y-38100000D01*
X24465900Y-38100000D02*
X23195900Y-39370000D01*
X39757100Y-38100000D02*
X41152000Y-36705100D01*
X58223300Y-28894400D02*
X58223300Y-27940000D01*
X9086700Y-39370000D02*
X7816700Y-40640000D01*
X26670000Y-38100000D02*
X39757100Y-38100000D01*
X55367700Y-31750000D02*
X58223300Y-28894400D01*
%TO.N,GND*%
D25*
X21096800Y-45925100D02*
X22371700Y-47200000D01*
X31650000Y-53300000D02*
X31650000Y-49918800D01*
X48631700Y-38100000D02*
X49901700Y-36830000D01*
X33346800Y-48323100D02*
X37650000Y-52626300D01*
X56778300Y-36830000D02*
X58048300Y-35560000D01*
X59690000Y-35560000D02*
X58048300Y-35560000D01*
X42250000Y-45950000D02*
X44829400Y-45950000D01*
X49901700Y-36830000D02*
X56778300Y-36830000D01*
X31650000Y-49918800D02*
X27718800Y-49918800D01*
X52000000Y-47200000D02*
X46000000Y-47200000D01*
X41000000Y-47200000D02*
X42250000Y-45950000D01*
X46990000Y-38100000D02*
X48631700Y-38100000D01*
X34241700Y-45958300D02*
X39758300Y-45958300D01*
X27718800Y-49918800D02*
X25000000Y-47200000D01*
X22371700Y-47200000D02*
X25000000Y-47200000D01*
X33245700Y-47445700D02*
X33000000Y-47200000D01*
X33000000Y-47200000D02*
X34241700Y-45958300D01*
X44829400Y-45950000D02*
X46000000Y-47120600D01*
X17000000Y-45925100D02*
X17000000Y-47200000D01*
X10274900Y-45925100D02*
X9000000Y-47200000D01*
X37650000Y-52626300D02*
X37650000Y-53300000D01*
X39758300Y-45958300D02*
X41000000Y-47200000D01*
X33245700Y-48323100D02*
X33245700Y-47445700D01*
X17000000Y-45925100D02*
X21096800Y-45925100D01*
X31650000Y-49918800D02*
X33245700Y-48323100D01*
X17000000Y-45925100D02*
X10274900Y-45925100D01*
%TO.N,D3*%
D24*
X41742300Y-40640000D02*
X43670800Y-42568500D01*
X41742300Y-40640000D02*
X40443300Y-40640000D01*
X55165000Y-34492700D02*
X52659200Y-34492700D01*
X38106400Y-42976900D02*
X23259800Y-42976900D01*
X43670800Y-42568500D02*
X52659200Y-42568500D01*
X41910000Y-40640000D02*
X41742300Y-40640000D01*
X40443300Y-40640000D02*
X38106400Y-42976900D01*
X23259800Y-42976900D02*
X23056700Y-43180000D01*
X21590000Y-43180000D02*
X23056700Y-43180000D01*
X58223300Y-31434400D02*
X55165000Y-34492700D01*
X59690000Y-30480000D02*
X58223300Y-30480000D01*
X58223300Y-30480000D02*
X58223300Y-31434400D01*
%TO.N,D4*%
X44479800Y-39203100D02*
X43376700Y-38100000D01*
X24523100Y-39173600D02*
X39585300Y-39173600D01*
X23056700Y-40640000D02*
X24523100Y-39173600D01*
X65843300Y-31323400D02*
X58511100Y-38655600D01*
X56954500Y-39203100D02*
X44479800Y-39203100D01*
X41910000Y-38100000D02*
X43376700Y-38100000D01*
X40443300Y-38315600D02*
X40443300Y-38100000D01*
X41910000Y-38100000D02*
X40443300Y-38100000D01*
X21590000Y-40640000D02*
X23056700Y-40640000D01*
X58511100Y-38655600D02*
X57502000Y-38655600D01*
X39585300Y-39173600D02*
X40443300Y-38315600D01*
X67310000Y-30480000D02*
X65843300Y-30480000D01*
X65843300Y-30480000D02*
X65843300Y-31323400D01*
X57502000Y-38655600D02*
X56954500Y-39203100D01*
%TO.N,D5*%
X21590000Y-38100000D02*
X23794100Y-38100000D01*
X24870000Y-37024100D02*
X38979200Y-37024100D01*
X43999000Y-39643600D02*
X57757300Y-39643600D01*
X23794100Y-38100000D02*
X24870000Y-37024100D01*
X38979200Y-37024100D02*
X40443300Y-35560000D01*
X41910000Y-35560000D02*
X40443300Y-35560000D01*
%TO.N,D6*%
X43861200Y-33020000D02*
X41910000Y-33020000D01*
X41910000Y-33020000D02*
X40443300Y-33020000D01*
X45224800Y-31656400D02*
X43861200Y-33020000D01*
X21590000Y-35560000D02*
X23056700Y-35560000D01*
X40443300Y-33020000D02*
X39371200Y-34092100D01*
X49536400Y-31656400D02*
X45224800Y-31656400D01*
X24524600Y-34092100D02*
X23056700Y-35560000D01*
X39371200Y-34092100D02*
X24524600Y-34092100D01*
%TO.N,D7*%
X21590000Y-33020000D02*
X23056700Y-33020000D01*
X49532800Y-48961400D02*
X48805300Y-48233900D01*
X57736400Y-48961400D02*
X49532800Y-48961400D01*
X24523100Y-31553600D02*
X38815700Y-31553600D01*
X39933800Y-31008300D02*
X40443200Y-30498900D01*
X38815700Y-31553600D02*
X39361000Y-31008300D01*
X41910000Y-30480000D02*
X40443300Y-30480000D01*
X68580000Y-59805000D02*
X57736400Y-48961400D01*
X23056700Y-33020000D02*
X24523100Y-31553600D01*
X39361000Y-31008300D02*
X39933800Y-31008300D01*
%TO.N,RAMCS_N*%
X23056700Y-30480000D02*
X23498700Y-30038000D01*
X24356000Y-30038000D02*
X25352600Y-29041400D01*
X21590000Y-30480000D02*
X23056700Y-30480000D01*
X23498700Y-30038000D02*
X24356000Y-30038000D01*
X25352600Y-29041400D02*
X48941100Y-29041400D01*
%TO.N,A10*%
X21590000Y-27940000D02*
X23056700Y-27940000D01*
X24523100Y-26473600D02*
X23056700Y-27940000D01*
X39369700Y-26473600D02*
X24523100Y-26473600D01*
X41910000Y-25400000D02*
X40443300Y-25400000D01*
X40443300Y-25400000D02*
X39369700Y-26473600D01*
%TO.N,RD_N*%
X40443300Y-22860000D02*
X39369700Y-23933600D01*
X39369700Y-23933600D02*
X24523100Y-23933600D01*
X21590000Y-25400000D02*
X23056700Y-25400000D01*
X41910000Y-22860000D02*
X40443300Y-22860000D01*
X24523100Y-23933600D02*
X23056700Y-25400000D01*
%TO.N,A11*%
X41910000Y-20320000D02*
X40443300Y-20320000D01*
X21590000Y-22860000D02*
X23056700Y-22860000D01*
X23056700Y-22860000D02*
X23362600Y-22860000D01*
X38978000Y-21785300D02*
X40443300Y-20320000D01*
X9593000Y-22860000D02*
X21590000Y-22860000D01*
X23362600Y-22860000D02*
X24437300Y-21785300D01*
X24437300Y-21785300D02*
X38978000Y-21785300D01*
%TO.N,A9*%
X41910000Y-17780000D02*
X40443300Y-17780000D01*
X39025900Y-19197400D02*
X24179200Y-19197400D01*
X24179200Y-19197500D02*
X23056700Y-20320000D01*
X40443300Y-17780000D02*
X39025900Y-19197400D01*
X21590000Y-20320000D02*
X23056700Y-20320000D01*
%TO.N,A8*%
X39157200Y-16526100D02*
X25048000Y-16526100D01*
X40443300Y-15240000D02*
X39157200Y-16526100D01*
X41910000Y-15240000D02*
X40443300Y-15240000D01*
X25048000Y-16526100D02*
X23794100Y-17780000D01*
X23794100Y-17780000D02*
X21590000Y-17780000D01*
%TO.N,A13*%
X43821600Y-40486500D02*
X42873700Y-39538600D01*
X25093400Y-14798000D02*
X25778600Y-14112800D01*
X23056700Y-15240000D02*
X23498700Y-14798000D01*
X36519200Y-15012300D02*
X39180400Y-15012300D01*
X25778600Y-14112800D02*
X28762600Y-14112800D01*
X42873700Y-39538600D02*
X40113500Y-39538600D01*
X21590000Y-15240000D02*
X23056700Y-15240000D01*
X23498700Y-14798000D02*
X25093400Y-14798000D01*
X39181100Y-40471000D02*
X36238400Y-40471000D01*
X53973600Y-40486500D02*
X43821600Y-40486500D01*
X28762600Y-14112800D02*
X29662100Y-15012300D01*
X40113500Y-39538600D02*
X39181100Y-40471000D01*
X29662100Y-15012300D02*
X36519200Y-15012300D01*
%TO.N,WR_N*%
X42669200Y-13971500D02*
X32649000Y-13971500D01*
X27940000Y-59805000D02*
X18510300Y-50375300D01*
X32649000Y-13971500D02*
X30296700Y-11619200D01*
X21590000Y-12700000D02*
X23056700Y-12700000D01*
X45523300Y-16825600D02*
X42669200Y-13971500D01*
X30296700Y-11619200D02*
X24137500Y-11619200D01*
X45523300Y-17780000D02*
X45523300Y-16825600D01*
X24137500Y-11619200D02*
X23056700Y-12700000D01*
X46990000Y-17780000D02*
X45523300Y-17780000D01*
X18510300Y-50375300D02*
X14445900Y-50375300D01*
%TO.N,SA17_CE2*%
X31524800Y-19635500D02*
X29766800Y-21393500D01*
X41115000Y-19206500D02*
X40686000Y-19635500D01*
X46142500Y-23930300D02*
X44243700Y-22031500D01*
X40686000Y-19635500D02*
X31524800Y-19635500D01*
X29766800Y-21393500D02*
X23957000Y-21393500D01*
X42788400Y-19206500D02*
X41115000Y-19206500D01*
X56687900Y-24079400D02*
X56326600Y-23718100D01*
X56687900Y-24788800D02*
X56687900Y-24079400D01*
X44243700Y-22031500D02*
X44243700Y-20661800D01*
X44243700Y-20661800D02*
X42788400Y-19206500D01*
X55600300Y-23930300D02*
X46142500Y-23930300D01*
X23957000Y-21393500D02*
X23503200Y-21847300D01*
X56076700Y-25400000D02*
X56687900Y-24788800D01*
X56326600Y-23718100D02*
X55812500Y-23718100D01*
X54610000Y-25400000D02*
X56076700Y-25400000D01*
X55812500Y-23718100D02*
X55600300Y-23930300D01*
%TO.N,SA15*%
X43629200Y-9970700D02*
X43629200Y-11314800D01*
X21590000Y-7620000D02*
X23056700Y-7620000D01*
X51438500Y-17780000D02*
X54610000Y-17780000D01*
X23056700Y-7620000D02*
X24310100Y-8873400D01*
X24310100Y-8873400D02*
X42531900Y-8873400D01*
X43629200Y-11314800D02*
X46089400Y-13775000D01*
X47433500Y-13775000D02*
X51438500Y-17780000D01*
X42531900Y-8873400D02*
X43629200Y-9970700D01*
X46089400Y-13775000D02*
X47433500Y-13775000D01*
%TO.N,+5V*%
D25*
X67310000Y-12700000D02*
X71120000Y-12700000D01*
X18741600Y-48458400D02*
X13258400Y-48458400D01*
X54610000Y-10160000D02*
X52968300Y-10160000D01*
X44000000Y-47200000D02*
X44000000Y-48508700D01*
X23000000Y-53300000D02*
X23000000Y-52716800D01*
X71120000Y-12700000D02*
X71500000Y-13080000D01*
X23000000Y-52716800D02*
X18741600Y-48458400D01*
X53453100Y-49528100D02*
X45019400Y-49528100D01*
X41910000Y-7620000D02*
X26670000Y-7620000D01*
X45019400Y-49528100D02*
X44000000Y-48508700D01*
X20000000Y-47200000D02*
X18741600Y-48458400D01*
X52968300Y-10160000D02*
X50428300Y-7620000D01*
X50428300Y-7620000D02*
X41910000Y-7620000D01*
X44000000Y-48508700D02*
X37308700Y-48508700D01*
X24130000Y-5080000D02*
X21590000Y-5080000D01*
X67310000Y-12700000D02*
X65668300Y-12700000D01*
X26670000Y-7620000D02*
X24130000Y-5080000D01*
X68580000Y-64655000D02*
X53453100Y-49528100D01*
X63128300Y-10160000D02*
X65668300Y-12700000D01*
X13258400Y-48458400D02*
X12000000Y-47200000D01*
X37308700Y-48508700D02*
X36000000Y-47200000D01*
X54610000Y-10160000D02*
X63128300Y-10160000D01*
%TO.N,ROMCS_DRV*%
D24*
X73090100Y-21130100D02*
X73090100Y-29152500D01*
X67952600Y-34290000D02*
X65484400Y-34290000D01*
X71500000Y-19540000D02*
X73090100Y-21130100D01*
X31088700Y-43813100D02*
X29934600Y-44967200D01*
X73090100Y-29152500D02*
X67952600Y-34290000D01*
X65484400Y-34290000D02*
X55961300Y-43813100D01*
X55961300Y-43813100D02*
X31088700Y-43813100D01*
X29934600Y-44967200D02*
X21812500Y-44967200D01*
%TO.N,RESET_N*%
X32689800Y-58520700D02*
X34753500Y-58520700D01*
X31878300Y-59332200D02*
X32689800Y-58520700D01*
X31878300Y-60041600D02*
X31878300Y-59332200D01*
X25400000Y-64655000D02*
X29108300Y-60946700D01*
X30973200Y-60946700D02*
X31878300Y-60041600D01*
X29108300Y-60946700D02*
X30973200Y-60946700D01*
%TO.N,BANK0*%
X48456700Y-27940000D02*
X48456700Y-24622200D01*
X46990000Y-27940000D02*
X48456700Y-27940000D01*
%TO.N,BANK2*%
X48456700Y-22860000D02*
X49569500Y-21747200D01*
X55524900Y-21747200D02*
X58223300Y-24445600D01*
X49569500Y-21747200D02*
X55524900Y-21747200D01*
X58223300Y-24445600D02*
X58223300Y-25400000D01*
X59690000Y-25400000D02*
X58223300Y-25400000D01*
X46990000Y-22860000D02*
X48456700Y-22860000D01*
%TO.N,ROMA14*%
X62876300Y-16510000D02*
X67973800Y-16510000D01*
X50714200Y-11236400D02*
X53497000Y-14019200D01*
X53497000Y-14019200D02*
X60385500Y-14019200D01*
X72624000Y-29058000D02*
X71098200Y-30583800D01*
X67973800Y-16510000D02*
X70363800Y-18900000D01*
X70363800Y-18900000D02*
X70363800Y-22566800D01*
X72624000Y-24827000D02*
X72624000Y-29058000D01*
X70363800Y-22566800D02*
X72624000Y-24827000D01*
X44422900Y-11236400D02*
X50714200Y-11236400D01*
X71098200Y-30583800D02*
X70665600Y-30583800D01*
X60385500Y-14019200D02*
X62876300Y-16510000D01*
%TO.N,DIS128*%
X65843300Y-24512700D02*
X65843300Y-25400000D01*
X46990000Y-20320000D02*
X48456700Y-20320000D01*
X49531500Y-19245200D02*
X60575800Y-19245200D01*
X67310000Y-25400000D02*
X65843300Y-25400000D01*
X48456700Y-20320000D02*
X49531500Y-19245200D01*
X60575800Y-19245200D02*
X65843300Y-24512700D01*
%TO.N,BANK3*%
X67310000Y-22860000D02*
X68776700Y-22860000D01*
X49126100Y-33020000D02*
X46990000Y-33020000D01*
X50736200Y-29744600D02*
X50736200Y-31409900D01*
X67913000Y-26752700D02*
X53728100Y-26752700D01*
X68776700Y-25889000D02*
X67913000Y-26752700D01*
X68776700Y-22860000D02*
X68776700Y-25889000D01*
X50736200Y-31409900D02*
X49126100Y-33020000D01*
X53728100Y-26752700D02*
X50736200Y-29744600D01*
%TO.N,BANK4*%
X53732200Y-24333300D02*
X56064600Y-24333300D01*
X46990000Y-30480000D02*
X48456700Y-30480000D01*
X52227200Y-26709500D02*
X52227200Y-25838300D01*
X52227200Y-25838300D02*
X53732200Y-24333300D01*
X48456700Y-30480000D02*
X52227200Y-26709500D01*
%TO.N,LED_A*%
X32202200Y-44988200D02*
X30468500Y-46721900D01*
X54540000Y-47200000D02*
X52328200Y-44988200D01*
X52328200Y-44988200D02*
X32202200Y-44988200D01*
%TO.N,RAMDIS_DRV*%
X70383300Y-33500000D02*
X70383300Y-34477100D01*
X21557100Y-45583900D02*
X21286100Y-45312900D01*
X7930100Y-47690100D02*
X13540000Y-53300000D01*
X7930100Y-46759800D02*
X7930100Y-47690100D01*
X21286100Y-45312900D02*
X9377000Y-45312900D01*
X31480200Y-44204800D02*
X30101100Y-45583900D01*
X9377000Y-45312900D02*
X7930100Y-46759800D01*
X71500000Y-33500000D02*
X70383300Y-33500000D01*
X30101100Y-45583900D02*
X21557100Y-45583900D01*
X60655600Y-44204800D02*
X31480200Y-44204800D01*
X70383300Y-34477100D02*
X60655600Y-44204800D01*
%TO.N,RAMDIS*%
X29851700Y-47311700D02*
X30315900Y-47775900D01*
X62943500Y-44596500D02*
X31707800Y-44596500D01*
X31707800Y-44596500D02*
X29851700Y-46452600D01*
X71500000Y-36040000D02*
X62943500Y-44596500D01*
X29851700Y-46452600D02*
X29851700Y-47311700D01*
%TO.N,ZX512*%
X67856100Y-18887700D02*
X69943900Y-20975500D01*
X22473500Y-44350500D02*
X9785000Y-44350500D01*
X54923600Y-43368600D02*
X23455400Y-43368600D01*
X48456700Y-12700000D02*
X52265200Y-16508500D01*
X66741000Y-31551200D02*
X54923600Y-43368600D01*
X64222200Y-18887700D02*
X67856100Y-18887700D01*
X69943900Y-20975500D02*
X69943900Y-23327200D01*
X70383300Y-29346800D02*
X68178900Y-31551200D01*
X71220700Y-27116700D02*
X70383300Y-27954100D01*
X61843000Y-16508500D02*
X64222200Y-18887700D01*
X52265200Y-16508500D02*
X61843000Y-16508500D01*
X69943900Y-23327200D02*
X71500000Y-24883300D01*
X70383300Y-27954100D02*
X70383300Y-29346800D01*
X71500000Y-26000000D02*
X71500000Y-24883300D01*
X71500000Y-27116700D02*
X71220700Y-27116700D01*
X23455400Y-43368600D02*
X22473500Y-44350500D01*
X68178900Y-31551200D02*
X66741000Y-31551200D01*
X7479500Y-46656000D02*
X7479500Y-53239500D01*
X9785000Y-44350500D02*
X7479500Y-46656000D01*
X46990000Y-12700000D02*
X48456700Y-12700000D01*
X71500000Y-26000000D02*
X71500000Y-27116700D01*
%TO.N,BUS_P07*%
X39370000Y-59374100D02*
X34583100Y-54587200D01*
X44450000Y-60208600D02*
X43439600Y-61219000D01*
X31261000Y-54587200D02*
X30350000Y-53676200D01*
X40393400Y-61219000D02*
X39370000Y-60195600D01*
X53221000Y-61336600D02*
X52070100Y-60185700D01*
X43439600Y-61219000D02*
X40393400Y-61219000D01*
X34583100Y-54587200D02*
X31261000Y-54587200D01*
X52070100Y-60185700D02*
X52070100Y-59437700D01*
X50398700Y-57766300D02*
X46074100Y-57766300D01*
X39370000Y-60195600D02*
X39370000Y-59374100D01*
X58420000Y-64655000D02*
X55101600Y-61336600D01*
X46074100Y-57766300D02*
X44450000Y-59390400D01*
X55101600Y-61336600D02*
X53221000Y-61336600D01*
X44450000Y-59390400D02*
X44450000Y-60208600D01*
X30350000Y-53676200D02*
X30350000Y-53300000D01*
X52070100Y-59437700D02*
X50398700Y-57766300D01*
%TO.N,BUS_P15*%
X36350000Y-53817600D02*
X41801600Y-59269200D01*
X41801600Y-59269200D02*
X41801600Y-60589300D01*
X36350000Y-53300000D02*
X36350000Y-53817600D01*
%TD*%
%TA.AperFunction,Conductor*%
%TO.N,GND*%
G36*
X78382539Y-320185D02*
G01*
X78428294Y-372989D01*
X78439500Y-424500D01*
X78439500Y-65615500D01*
X78419815Y-65682539D01*
X78367011Y-65728294D01*
X78315500Y-65739500D01*
X74955618Y-65739500D01*
X74888579Y-65719815D01*
X74842824Y-65667011D01*
X74832444Y-65601211D01*
X74835499Y-65574873D01*
X74835500Y-65574865D01*
X74835499Y-63735136D01*
X74835497Y-63735117D01*
X74832586Y-63710012D01*
X74832585Y-63710010D01*
X74832585Y-63710009D01*
X74787206Y-63607235D01*
X74707765Y-63527794D01*
X74646104Y-63500568D01*
X74604992Y-63482415D01*
X74579865Y-63479500D01*
X72740143Y-63479500D01*
X72740117Y-63479502D01*
X72715012Y-63482413D01*
X72715008Y-63482415D01*
X72612235Y-63527793D01*
X72532794Y-63607234D01*
X72487415Y-63710006D01*
X72487415Y-63710008D01*
X72484500Y-63735131D01*
X72484500Y-64267595D01*
X72464815Y-64334634D01*
X72412011Y-64380389D01*
X72342853Y-64390333D01*
X72279297Y-64361308D01*
X72242569Y-64305913D01*
X72209380Y-64203767D01*
X72209379Y-64203764D01*
X72151726Y-64090615D01*
X72125378Y-64038904D01*
X72016621Y-63889213D01*
X71885787Y-63758379D01*
X71736096Y-63649622D01*
X71709693Y-63636169D01*
X71571235Y-63565620D01*
X71571232Y-63565619D01*
X71395265Y-63508445D01*
X71295356Y-63492621D01*
X71212514Y-63479500D01*
X71027486Y-63479500D01*
X70983732Y-63486430D01*
X70844734Y-63508445D01*
X70668767Y-63565619D01*
X70668764Y-63565620D01*
X70503903Y-63649622D01*
X70420784Y-63710012D01*
X70354213Y-63758379D01*
X70354211Y-63758381D01*
X70354210Y-63758381D01*
X70223381Y-63889210D01*
X70223381Y-63889211D01*
X70223379Y-63889213D01*
X70182953Y-63944854D01*
X70114622Y-64038903D01*
X70030620Y-64203764D01*
X70030619Y-64203767D01*
X69973445Y-64379734D01*
X69972473Y-64385872D01*
X69942544Y-64449007D01*
X69883232Y-64485938D01*
X69813370Y-64484940D01*
X69755137Y-64446330D01*
X69727527Y-64385872D01*
X69726658Y-64380389D01*
X69726555Y-64379736D01*
X69697967Y-64291750D01*
X69669380Y-64203767D01*
X69669379Y-64203764D01*
X69611726Y-64090615D01*
X69585378Y-64038904D01*
X69476621Y-63889213D01*
X69345787Y-63758379D01*
X69196096Y-63649622D01*
X69169693Y-63636169D01*
X69031235Y-63565620D01*
X69031232Y-63565619D01*
X68855265Y-63508445D01*
X68755356Y-63492621D01*
X68672514Y-63479500D01*
X68487486Y-63479500D01*
X68348097Y-63501576D01*
X68278804Y-63492621D01*
X68241019Y-63466784D01*
X65966416Y-61192181D01*
X65932931Y-61130858D01*
X65937915Y-61061166D01*
X65979787Y-61005233D01*
X66045251Y-60980816D01*
X66054097Y-60980500D01*
X66132513Y-60980500D01*
X66132514Y-60980500D01*
X66315264Y-60951555D01*
X66491235Y-60894379D01*
X66656096Y-60810378D01*
X66805787Y-60701621D01*
X66936621Y-60570787D01*
X67045378Y-60421096D01*
X67129379Y-60256235D01*
X67186555Y-60080264D01*
X67187527Y-60074126D01*
X67217455Y-60010994D01*
X67276766Y-59974062D01*
X67346629Y-59975058D01*
X67404862Y-60013667D01*
X67432472Y-60074126D01*
X67433445Y-60080264D01*
X67433446Y-60080269D01*
X67490619Y-60256232D01*
X67490620Y-60256235D01*
X67535140Y-60343609D01*
X67574622Y-60421096D01*
X67683379Y-60570787D01*
X67814213Y-60701621D01*
X67963904Y-60810378D01*
X68044763Y-60851577D01*
X68128764Y-60894379D01*
X68128767Y-60894380D01*
X68180227Y-60911100D01*
X68304736Y-60951555D01*
X68487486Y-60980500D01*
X68487487Y-60980500D01*
X68672513Y-60980500D01*
X68672514Y-60980500D01*
X68855264Y-60951555D01*
X69031235Y-60894379D01*
X69196096Y-60810378D01*
X69345787Y-60701621D01*
X69476621Y-60570787D01*
X69585378Y-60421096D01*
X69669379Y-60256235D01*
X69726555Y-60080264D01*
X69727527Y-60074126D01*
X69757455Y-60010994D01*
X69816766Y-59974062D01*
X69886629Y-59975058D01*
X69944862Y-60013667D01*
X69972472Y-60074126D01*
X69973445Y-60080264D01*
X69973446Y-60080269D01*
X70030619Y-60256232D01*
X70030620Y-60256235D01*
X70075140Y-60343609D01*
X70114622Y-60421096D01*
X70223379Y-60570787D01*
X70354213Y-60701621D01*
X70503904Y-60810378D01*
X70584763Y-60851577D01*
X70668764Y-60894379D01*
X70668767Y-60894380D01*
X70720227Y-60911100D01*
X70844736Y-60951555D01*
X71027486Y-60980500D01*
X71027487Y-60980500D01*
X71212513Y-60980500D01*
X71212514Y-60980500D01*
X71395264Y-60951555D01*
X71571235Y-60894379D01*
X71736096Y-60810378D01*
X71885787Y-60701621D01*
X72016621Y-60570787D01*
X72125378Y-60421096D01*
X72209379Y-60256235D01*
X72266555Y-60080264D01*
X72267527Y-60074126D01*
X72297455Y-60010994D01*
X72356766Y-59974062D01*
X72426629Y-59975058D01*
X72484862Y-60013667D01*
X72512472Y-60074126D01*
X72513445Y-60080264D01*
X72513446Y-60080269D01*
X72570619Y-60256232D01*
X72570620Y-60256235D01*
X72615140Y-60343609D01*
X72654622Y-60421096D01*
X72763379Y-60570787D01*
X72894213Y-60701621D01*
X73043904Y-60810378D01*
X73124763Y-60851577D01*
X73208764Y-60894379D01*
X73208767Y-60894380D01*
X73260227Y-60911100D01*
X73384736Y-60951555D01*
X73567486Y-60980500D01*
X73567487Y-60980500D01*
X73752513Y-60980500D01*
X73752514Y-60980500D01*
X73935264Y-60951555D01*
X74111235Y-60894379D01*
X74276096Y-60810378D01*
X74425787Y-60701621D01*
X74556621Y-60570787D01*
X74665378Y-60421096D01*
X74749379Y-60256235D01*
X74806555Y-60080264D01*
X74835500Y-59897514D01*
X74835500Y-59712486D01*
X74806555Y-59529736D01*
X74749379Y-59353765D01*
X74749379Y-59353764D01*
X74665377Y-59188903D01*
X74556621Y-59039213D01*
X74425787Y-58908379D01*
X74276096Y-58799622D01*
X74250286Y-58786471D01*
X74111235Y-58715620D01*
X74111232Y-58715619D01*
X73935265Y-58658445D01*
X73813056Y-58639089D01*
X73752514Y-58629500D01*
X73567486Y-58629500D01*
X73506944Y-58639089D01*
X73384734Y-58658445D01*
X73208767Y-58715619D01*
X73208764Y-58715620D01*
X73043903Y-58799622D01*
X72981528Y-58844941D01*
X72894213Y-58908379D01*
X72894211Y-58908381D01*
X72894210Y-58908381D01*
X72763381Y-59039210D01*
X72763381Y-59039211D01*
X72763379Y-59039213D01*
X72732369Y-59081895D01*
X72654622Y-59188903D01*
X72570620Y-59353764D01*
X72570619Y-59353767D01*
X72513445Y-59529734D01*
X72512473Y-59535872D01*
X72482544Y-59599007D01*
X72423232Y-59635938D01*
X72353370Y-59634940D01*
X72295137Y-59596330D01*
X72267527Y-59535872D01*
X72267356Y-59534798D01*
X72266555Y-59529736D01*
X72209379Y-59353765D01*
X72209379Y-59353764D01*
X72125377Y-59188903D01*
X72016621Y-59039213D01*
X71885787Y-58908379D01*
X71736096Y-58799622D01*
X71710286Y-58786471D01*
X71571235Y-58715620D01*
X71571232Y-58715619D01*
X71395265Y-58658445D01*
X71273056Y-58639089D01*
X71212514Y-58629500D01*
X71027486Y-58629500D01*
X70966944Y-58639089D01*
X70844734Y-58658445D01*
X70668767Y-58715619D01*
X70668764Y-58715620D01*
X70503903Y-58799622D01*
X70441528Y-58844941D01*
X70354213Y-58908379D01*
X70354211Y-58908381D01*
X70354210Y-58908381D01*
X70223381Y-59039210D01*
X70223381Y-59039211D01*
X70223379Y-59039213D01*
X70192369Y-59081895D01*
X70114622Y-59188903D01*
X70030620Y-59353764D01*
X70030619Y-59353767D01*
X69973445Y-59529734D01*
X69972473Y-59535872D01*
X69942544Y-59599007D01*
X69883232Y-59635938D01*
X69813370Y-59634940D01*
X69755137Y-59596330D01*
X69727527Y-59535872D01*
X69727356Y-59534798D01*
X69726555Y-59529736D01*
X69669379Y-59353765D01*
X69669379Y-59353764D01*
X69585377Y-59188903D01*
X69476621Y-59039213D01*
X69345787Y-58908379D01*
X69196096Y-58799622D01*
X69170286Y-58786471D01*
X69031235Y-58715620D01*
X69031232Y-58715619D01*
X68855265Y-58658445D01*
X68733056Y-58639089D01*
X68672514Y-58629500D01*
X68487486Y-58629500D01*
X68426944Y-58639089D01*
X68304734Y-58658445D01*
X68173562Y-58701065D01*
X68103720Y-58703060D01*
X68047563Y-58670815D01*
X57997665Y-48620917D01*
X57997663Y-48620915D01*
X57900637Y-48564897D01*
X57792418Y-48535900D01*
X57792417Y-48535900D01*
X55078975Y-48535900D01*
X55011936Y-48516215D01*
X54966181Y-48463411D01*
X54956237Y-48394253D01*
X54985262Y-48330697D01*
X55022680Y-48301415D01*
X55034562Y-48295361D01*
X55169199Y-48226760D01*
X55322073Y-48115690D01*
X55455690Y-47982073D01*
X55566760Y-47829199D01*
X55652547Y-47660832D01*
X55710940Y-47481118D01*
X55714649Y-47457701D01*
X55740500Y-47294486D01*
X55740500Y-47105516D01*
X55739077Y-47096530D01*
X58949500Y-47096530D01*
X58949500Y-47303469D01*
X58989868Y-47506412D01*
X58989870Y-47506420D01*
X59060777Y-47677605D01*
X59069059Y-47697598D01*
X59089789Y-47728623D01*
X59184024Y-47869657D01*
X59330342Y-48015975D01*
X59330345Y-48015977D01*
X59502402Y-48130941D01*
X59693580Y-48210130D01*
X59896530Y-48250499D01*
X59896534Y-48250500D01*
X59896535Y-48250500D01*
X60103466Y-48250500D01*
X60103467Y-48250499D01*
X60306420Y-48210130D01*
X60497598Y-48130941D01*
X60669655Y-48015977D01*
X60815977Y-47869655D01*
X60930941Y-47697598D01*
X61010130Y-47506420D01*
X61050500Y-47303465D01*
X61050500Y-47096535D01*
X61050499Y-47096530D01*
X62949500Y-47096530D01*
X62949500Y-47303469D01*
X62989868Y-47506412D01*
X62989870Y-47506420D01*
X63060777Y-47677605D01*
X63069059Y-47697598D01*
X63089789Y-47728623D01*
X63184024Y-47869657D01*
X63330342Y-48015975D01*
X63330345Y-48015977D01*
X63502402Y-48130941D01*
X63693580Y-48210130D01*
X63896530Y-48250499D01*
X63896534Y-48250500D01*
X63896535Y-48250500D01*
X64103466Y-48250500D01*
X64103467Y-48250499D01*
X64306420Y-48210130D01*
X64497598Y-48130941D01*
X64669655Y-48015977D01*
X64815977Y-47869655D01*
X64930941Y-47697598D01*
X65010130Y-47506420D01*
X65050500Y-47303465D01*
X65050500Y-47096535D01*
X65010130Y-46893580D01*
X64930941Y-46702402D01*
X64815977Y-46530345D01*
X64815975Y-46530342D01*
X64669657Y-46384024D01*
X64567123Y-46315514D01*
X64497598Y-46269059D01*
X64472753Y-46258768D01*
X64306420Y-46189870D01*
X64306412Y-46189868D01*
X64103469Y-46149500D01*
X64103465Y-46149500D01*
X63896535Y-46149500D01*
X63896530Y-46149500D01*
X63693587Y-46189868D01*
X63693579Y-46189870D01*
X63502403Y-46269058D01*
X63330342Y-46384024D01*
X63184024Y-46530342D01*
X63069058Y-46702403D01*
X62989870Y-46893579D01*
X62989868Y-46893587D01*
X62949500Y-47096530D01*
X61050499Y-47096530D01*
X61010130Y-46893580D01*
X60930941Y-46702402D01*
X60815977Y-46530345D01*
X60815975Y-46530342D01*
X60669657Y-46384024D01*
X60567123Y-46315514D01*
X60497598Y-46269059D01*
X60472753Y-46258768D01*
X60306420Y-46189870D01*
X60306412Y-46189868D01*
X60103469Y-46149500D01*
X60103465Y-46149500D01*
X59896535Y-46149500D01*
X59896530Y-46149500D01*
X59693587Y-46189868D01*
X59693579Y-46189870D01*
X59502403Y-46269058D01*
X59330342Y-46384024D01*
X59184024Y-46530342D01*
X59069058Y-46702403D01*
X58989870Y-46893579D01*
X58989868Y-46893587D01*
X58949500Y-47096530D01*
X55739077Y-47096530D01*
X55710940Y-46918881D01*
X55669377Y-46790965D01*
X55652547Y-46739168D01*
X55652545Y-46739165D01*
X55652545Y-46739163D01*
X55596423Y-46629018D01*
X55566760Y-46570801D01*
X55455690Y-46417927D01*
X55322073Y-46284310D01*
X55169199Y-46173240D01*
X55124422Y-46150425D01*
X55000836Y-46087454D01*
X54821118Y-46029059D01*
X54634486Y-45999500D01*
X54634481Y-45999500D01*
X54445519Y-45999500D01*
X54445514Y-45999500D01*
X54258880Y-46029060D01*
X54258877Y-46029060D01*
X54113722Y-46076225D01*
X54043881Y-46078220D01*
X53987723Y-46045975D01*
X53175429Y-45233681D01*
X53141944Y-45172358D01*
X53146928Y-45102666D01*
X53188800Y-45046733D01*
X53254264Y-45022316D01*
X53263110Y-45022000D01*
X62999516Y-45022000D01*
X62999518Y-45022000D01*
X63107737Y-44993003D01*
X63204763Y-44936985D01*
X70987403Y-37154342D01*
X71048724Y-37120859D01*
X71113400Y-37124094D01*
X71230591Y-37162171D01*
X71313429Y-37175291D01*
X71409449Y-37190500D01*
X71409454Y-37190500D01*
X71590551Y-37190500D01*
X71677259Y-37176765D01*
X71769409Y-37162171D01*
X71941639Y-37106211D01*
X72102994Y-37023996D01*
X72249501Y-36917553D01*
X72377553Y-36789501D01*
X72483996Y-36642994D01*
X72566211Y-36481639D01*
X72622171Y-36309409D01*
X72639060Y-36202777D01*
X72650500Y-36130551D01*
X72650500Y-35949448D01*
X72629632Y-35817697D01*
X72622171Y-35770591D01*
X72581888Y-35646610D01*
X72566212Y-35598363D01*
X72566211Y-35598360D01*
X72537740Y-35542484D01*
X72483996Y-35437006D01*
X72420878Y-35350131D01*
X72377558Y-35290505D01*
X72377554Y-35290500D01*
X72249499Y-35162445D01*
X72249494Y-35162441D01*
X72102997Y-35056006D01*
X72102996Y-35056005D01*
X72102994Y-35056004D01*
X72041074Y-35024454D01*
X71941639Y-34973788D01*
X71941636Y-34973787D01*
X71769410Y-34917829D01*
X71637727Y-34896972D01*
X71574592Y-34867043D01*
X71537661Y-34807731D01*
X71538659Y-34737868D01*
X71577269Y-34679636D01*
X71641233Y-34651522D01*
X71657125Y-34650499D01*
X72394856Y-34650499D01*
X72394864Y-34650499D01*
X72394879Y-34650497D01*
X72394882Y-34650497D01*
X72419987Y-34647586D01*
X72419988Y-34647585D01*
X72419991Y-34647585D01*
X72522765Y-34602206D01*
X72602206Y-34522765D01*
X72647585Y-34419991D01*
X72650500Y-34394865D01*
X72650499Y-32605136D01*
X72649620Y-32597555D01*
X72647586Y-32580012D01*
X72647585Y-32580010D01*
X72647585Y-32580009D01*
X72602206Y-32477235D01*
X72522765Y-32397794D01*
X72491452Y-32383968D01*
X72419992Y-32352415D01*
X72394868Y-32349500D01*
X70794208Y-32349500D01*
X70727169Y-32329815D01*
X70681414Y-32277011D01*
X70671470Y-32207853D01*
X70700495Y-32144297D01*
X70706507Y-32137840D01*
X73430585Y-29413763D01*
X73486603Y-29316737D01*
X73515600Y-29208519D01*
X73515600Y-29096482D01*
X73515600Y-21074082D01*
X73486603Y-20965863D01*
X73430585Y-20868837D01*
X73351363Y-20789615D01*
X72614344Y-20052596D01*
X72580859Y-19991273D01*
X72584093Y-19926600D01*
X72622171Y-19809409D01*
X72632659Y-19743189D01*
X72650500Y-19630551D01*
X72650500Y-19449448D01*
X72631071Y-19326785D01*
X72622171Y-19270591D01*
X72590684Y-19173681D01*
X72566212Y-19098363D01*
X72566211Y-19098360D01*
X72518537Y-19004797D01*
X72483996Y-18937006D01*
X72432420Y-18866017D01*
X72377558Y-18790505D01*
X72377554Y-18790500D01*
X72249499Y-18662445D01*
X72249494Y-18662441D01*
X72102997Y-18556006D01*
X72102996Y-18556005D01*
X72102994Y-18556004D01*
X72051300Y-18529664D01*
X71941639Y-18473788D01*
X71941636Y-18473787D01*
X71769410Y-18417829D01*
X71637728Y-18396972D01*
X71574594Y-18367042D01*
X71537663Y-18307731D01*
X71538661Y-18237868D01*
X71577271Y-18179636D01*
X71641235Y-18151522D01*
X71657120Y-18150499D01*
X72394864Y-18150499D01*
X72394879Y-18150497D01*
X72394882Y-18150497D01*
X72419987Y-18147586D01*
X72419988Y-18147585D01*
X72419991Y-18147585D01*
X72522765Y-18102206D01*
X72602206Y-18022765D01*
X72647585Y-17919991D01*
X72650500Y-17894865D01*
X72650499Y-16105136D01*
X72649688Y-16098142D01*
X72647586Y-16080012D01*
X72647585Y-16080010D01*
X72647585Y-16080009D01*
X72602206Y-15977235D01*
X72522765Y-15897794D01*
X72510961Y-15892582D01*
X72419992Y-15852415D01*
X72394865Y-15849500D01*
X70605143Y-15849500D01*
X70605117Y-15849502D01*
X70580012Y-15852413D01*
X70580008Y-15852415D01*
X70477235Y-15897793D01*
X70397794Y-15977234D01*
X70352415Y-16080006D01*
X70352415Y-16080008D01*
X70349500Y-16105131D01*
X70349500Y-17894856D01*
X70349502Y-17894882D01*
X70352413Y-17919987D01*
X70352414Y-17919988D01*
X70374548Y-17970118D01*
X70383619Y-18039396D01*
X70353795Y-18102581D01*
X70294545Y-18139611D01*
X70224681Y-18138730D01*
X70173432Y-18107884D01*
X68366276Y-16300728D01*
X68332791Y-16239405D01*
X68337775Y-16169713D01*
X68379647Y-16113780D01*
X68380919Y-16112841D01*
X68426928Y-16079414D01*
X68549414Y-15956928D01*
X68651232Y-15816788D01*
X68729873Y-15662445D01*
X68783402Y-15497701D01*
X68810500Y-15326611D01*
X68810500Y-15153389D01*
X68783402Y-14982299D01*
X68729873Y-14817555D01*
X68651232Y-14663212D01*
X68549414Y-14523072D01*
X68426928Y-14400586D01*
X68286788Y-14298768D01*
X68132445Y-14220127D01*
X67967701Y-14166598D01*
X67967699Y-14166597D01*
X67967698Y-14166597D01*
X67836271Y-14145781D01*
X67796611Y-14139500D01*
X66823389Y-14139500D01*
X66783728Y-14145781D01*
X66652302Y-14166597D01*
X66487552Y-14220128D01*
X66333211Y-14298768D01*
X66269926Y-14344748D01*
X66193072Y-14400586D01*
X66193070Y-14400588D01*
X66193069Y-14400588D01*
X66070588Y-14523069D01*
X66070588Y-14523070D01*
X66070586Y-14523072D01*
X66026859Y-14583256D01*
X65968768Y-14663211D01*
X65890128Y-14817552D01*
X65836597Y-14982302D01*
X65809500Y-15153389D01*
X65809500Y-15326610D01*
X65830388Y-15458496D01*
X65836598Y-15497701D01*
X65890127Y-15662445D01*
X65968768Y-15816788D01*
X66020227Y-15887615D01*
X66043707Y-15953420D01*
X66027882Y-16021474D01*
X65977777Y-16070169D01*
X65919909Y-16084500D01*
X63103910Y-16084500D01*
X63036871Y-16064815D01*
X63016229Y-16048181D01*
X60893505Y-13925457D01*
X60860020Y-13864134D01*
X60865004Y-13794442D01*
X60906261Y-13738972D01*
X60931450Y-13719871D01*
X61032922Y-13642922D01*
X61124361Y-13522342D01*
X61179877Y-13381564D01*
X61190500Y-13293102D01*
X61190500Y-12106898D01*
X61179877Y-12018436D01*
X61124361Y-11877658D01*
X61124360Y-11877657D01*
X61124360Y-11877656D01*
X61032922Y-11757077D01*
X60912343Y-11665639D01*
X60771561Y-11610122D01*
X60725926Y-11604642D01*
X60683102Y-11599500D01*
X58696898Y-11599500D01*
X58657853Y-11604188D01*
X58608438Y-11610122D01*
X58467656Y-11665639D01*
X58347077Y-11757077D01*
X58255639Y-11877656D01*
X58200122Y-12018438D01*
X58196526Y-12048386D01*
X58189500Y-12106898D01*
X58189500Y-13293102D01*
X58194484Y-13334605D01*
X58200122Y-13381561D01*
X58200122Y-13381563D01*
X58200123Y-13381564D01*
X58215200Y-13419797D01*
X58216941Y-13424210D01*
X58223222Y-13493797D01*
X58190885Y-13555733D01*
X58130196Y-13590354D01*
X58101586Y-13593700D01*
X55964345Y-13593700D01*
X55897306Y-13574015D01*
X55851551Y-13521211D01*
X55841607Y-13452053D01*
X55864026Y-13396816D01*
X55951232Y-13276788D01*
X56029873Y-13122445D01*
X56083402Y-12957701D01*
X56110500Y-12786611D01*
X56110500Y-12613389D01*
X56083402Y-12442299D01*
X56029873Y-12277555D01*
X55951232Y-12123212D01*
X55849414Y-11983072D01*
X55726928Y-11860586D01*
X55586788Y-11758768D01*
X55432445Y-11680127D01*
X55267701Y-11626598D01*
X55267699Y-11626597D01*
X55267698Y-11626597D01*
X55136271Y-11605781D01*
X55096611Y-11599500D01*
X54123389Y-11599500D01*
X54083728Y-11605781D01*
X53952302Y-11626597D01*
X53952299Y-11626598D01*
X53794748Y-11677790D01*
X53787552Y-11680128D01*
X53633211Y-11758768D01*
X53558754Y-11812865D01*
X53493072Y-11860586D01*
X53493070Y-11860588D01*
X53493069Y-11860588D01*
X53370588Y-11983069D01*
X53370588Y-11983070D01*
X53370586Y-11983072D01*
X53344891Y-12018438D01*
X53268768Y-12123211D01*
X53190128Y-12277552D01*
X53136597Y-12442302D01*
X53109500Y-12613389D01*
X53109500Y-12730590D01*
X53089815Y-12797629D01*
X53037011Y-12843384D01*
X52967853Y-12853328D01*
X52904297Y-12824303D01*
X52897819Y-12818271D01*
X50975465Y-10895917D01*
X50975463Y-10895915D01*
X50878437Y-10839897D01*
X50770218Y-10810900D01*
X50770217Y-10810900D01*
X48614500Y-10810900D01*
X48547461Y-10791215D01*
X48501706Y-10738411D01*
X48490500Y-10686900D01*
X48490500Y-9566903D01*
X48490500Y-9566898D01*
X48479877Y-9478436D01*
X48424361Y-9337658D01*
X48424360Y-9337657D01*
X48424360Y-9337656D01*
X48332922Y-9217077D01*
X48212343Y-9125639D01*
X48071561Y-9070122D01*
X48025926Y-9064642D01*
X47983102Y-9059500D01*
X45996898Y-9059500D01*
X45957853Y-9064188D01*
X45908438Y-9070122D01*
X45767656Y-9125639D01*
X45647077Y-9217077D01*
X45555639Y-9337656D01*
X45500122Y-9478438D01*
X45497920Y-9496780D01*
X45489500Y-9566898D01*
X45489500Y-9566903D01*
X45489500Y-10686900D01*
X45469815Y-10753939D01*
X45417011Y-10799694D01*
X45365500Y-10810900D01*
X44968707Y-10810900D01*
X44901668Y-10791215D01*
X44881025Y-10774580D01*
X44837572Y-10731126D01*
X44837568Y-10731123D01*
X44731033Y-10659938D01*
X44731024Y-10659933D01*
X44612644Y-10610899D01*
X44612638Y-10610897D01*
X44486971Y-10585900D01*
X44486969Y-10585900D01*
X44358831Y-10585900D01*
X44358829Y-10585900D01*
X44233161Y-10610897D01*
X44233152Y-10610900D01*
X44226146Y-10613802D01*
X44156676Y-10621266D01*
X44094198Y-10589988D01*
X44058550Y-10529896D01*
X44054700Y-10499238D01*
X44054700Y-9914684D01*
X44054700Y-9914682D01*
X44025703Y-9806463D01*
X43969685Y-9709437D01*
X43890463Y-9630215D01*
X42951623Y-8691375D01*
X42918138Y-8630052D01*
X42923122Y-8560360D01*
X42964994Y-8504427D01*
X42966373Y-8503409D01*
X43026928Y-8459414D01*
X43149414Y-8336928D01*
X43196868Y-8271613D01*
X43252197Y-8228949D01*
X43297185Y-8220500D01*
X50128203Y-8220500D01*
X50195242Y-8240185D01*
X50215884Y-8256819D01*
X52483439Y-10524374D01*
X52483449Y-10524385D01*
X52487779Y-10528715D01*
X52487780Y-10528716D01*
X52599584Y-10640520D01*
X52599586Y-10640521D01*
X52599590Y-10640524D01*
X52736509Y-10719573D01*
X52736516Y-10719577D01*
X52848319Y-10749534D01*
X52889242Y-10760500D01*
X52889243Y-10760500D01*
X53222815Y-10760500D01*
X53289854Y-10780185D01*
X53323131Y-10811612D01*
X53370586Y-10876928D01*
X53493072Y-10999414D01*
X53633212Y-11101232D01*
X53787555Y-11179873D01*
X53952299Y-11233402D01*
X54123389Y-11260500D01*
X54123390Y-11260500D01*
X55096610Y-11260500D01*
X55096611Y-11260500D01*
X55267701Y-11233402D01*
X55432445Y-11179873D01*
X55586788Y-11101232D01*
X55726928Y-10999414D01*
X55849414Y-10876928D01*
X55896868Y-10811613D01*
X55952197Y-10768949D01*
X55997185Y-10760500D01*
X62828203Y-10760500D01*
X62895242Y-10780185D01*
X62915884Y-10796819D01*
X65183439Y-13064374D01*
X65183449Y-13064385D01*
X65187779Y-13068715D01*
X65187780Y-13068716D01*
X65299584Y-13180520D01*
X65299586Y-13180521D01*
X65299590Y-13180524D01*
X65418461Y-13249153D01*
X65436516Y-13259577D01*
X65548319Y-13289534D01*
X65589242Y-13300500D01*
X65589243Y-13300500D01*
X65922815Y-13300500D01*
X65989854Y-13320185D01*
X66023131Y-13351612D01*
X66070586Y-13416928D01*
X66193072Y-13539414D01*
X66333212Y-13641232D01*
X66487555Y-13719873D01*
X66652299Y-13773402D01*
X66823389Y-13800500D01*
X66823390Y-13800500D01*
X67796610Y-13800500D01*
X67796611Y-13800500D01*
X67967701Y-13773402D01*
X68132445Y-13719873D01*
X68286788Y-13641232D01*
X68426928Y-13539414D01*
X68549414Y-13416928D01*
X68596868Y-13351613D01*
X68652197Y-13308949D01*
X68697185Y-13300500D01*
X70271846Y-13300500D01*
X70338885Y-13320185D01*
X70384640Y-13372989D01*
X70389777Y-13386183D01*
X70433786Y-13521633D01*
X70433788Y-13521639D01*
X70516006Y-13682997D01*
X70622441Y-13829494D01*
X70622445Y-13829499D01*
X70750500Y-13957554D01*
X70750505Y-13957558D01*
X70878287Y-14050396D01*
X70897006Y-14063996D01*
X70998058Y-14115485D01*
X71058360Y-14146211D01*
X71058363Y-14146212D01*
X71123258Y-14167297D01*
X71230591Y-14202171D01*
X71313429Y-14215291D01*
X71409449Y-14230500D01*
X71409454Y-14230500D01*
X71590551Y-14230500D01*
X71677259Y-14216765D01*
X71769409Y-14202171D01*
X71941639Y-14146211D01*
X72102994Y-14063996D01*
X72249501Y-13957553D01*
X72377553Y-13829501D01*
X72483996Y-13682994D01*
X72566211Y-13521639D01*
X72622171Y-13349409D01*
X72644219Y-13210205D01*
X72650500Y-13170551D01*
X72650500Y-12989448D01*
X72628940Y-12853328D01*
X72622171Y-12810591D01*
X72566211Y-12638361D01*
X72566211Y-12638360D01*
X72535876Y-12578826D01*
X72483996Y-12477006D01*
X72447589Y-12426896D01*
X72377558Y-12330505D01*
X72377554Y-12330500D01*
X72249499Y-12202445D01*
X72249494Y-12202441D01*
X72102997Y-12096006D01*
X72102996Y-12096005D01*
X72102994Y-12096004D01*
X72040120Y-12063968D01*
X71941639Y-12013788D01*
X71941636Y-12013787D01*
X71769410Y-11957829D01*
X71609321Y-11932473D01*
X71546186Y-11902544D01*
X71509255Y-11843232D01*
X71510253Y-11773370D01*
X71548863Y-11715137D01*
X71609321Y-11687527D01*
X71679425Y-11676422D01*
X71769409Y-11662171D01*
X71941639Y-11606211D01*
X72102994Y-11523996D01*
X72249501Y-11417553D01*
X72377553Y-11289501D01*
X72483996Y-11142994D01*
X72566211Y-10981639D01*
X72622171Y-10809409D01*
X72641024Y-10690374D01*
X72650500Y-10630551D01*
X72650500Y-10449448D01*
X72634019Y-10345397D01*
X72622171Y-10270591D01*
X72566211Y-10098361D01*
X72566211Y-10098360D01*
X72537740Y-10042484D01*
X72483996Y-9937006D01*
X72398636Y-9819517D01*
X72377558Y-9790505D01*
X72377554Y-9790500D01*
X72249499Y-9662445D01*
X72249494Y-9662441D01*
X72102997Y-9556006D01*
X72102996Y-9556005D01*
X72102994Y-9556004D01*
X72041461Y-9524651D01*
X71941639Y-9473788D01*
X71941636Y-9473787D01*
X71769410Y-9417829D01*
X71637728Y-9396972D01*
X71574594Y-9367042D01*
X71537663Y-9307731D01*
X71538661Y-9237868D01*
X71577271Y-9179636D01*
X71641235Y-9151522D01*
X71657120Y-9150499D01*
X72394864Y-9150499D01*
X72394879Y-9150497D01*
X72394882Y-9150497D01*
X72419987Y-9147586D01*
X72419988Y-9147585D01*
X72419991Y-9147585D01*
X72522765Y-9102206D01*
X72602206Y-9022765D01*
X72647585Y-8919991D01*
X72650500Y-8894865D01*
X72650499Y-7105136D01*
X72650497Y-7105117D01*
X72647586Y-7080012D01*
X72647585Y-7080010D01*
X72647585Y-7080009D01*
X72602206Y-6977235D01*
X72522765Y-6897794D01*
X72522763Y-6897793D01*
X72419992Y-6852415D01*
X72394865Y-6849500D01*
X70605143Y-6849500D01*
X70605117Y-6849502D01*
X70580012Y-6852413D01*
X70580008Y-6852415D01*
X70477235Y-6897793D01*
X70397794Y-6977234D01*
X70352415Y-7080006D01*
X70352415Y-7080008D01*
X70349500Y-7105131D01*
X70349500Y-8894856D01*
X70349502Y-8894882D01*
X70352413Y-8919987D01*
X70352415Y-8919991D01*
X70397793Y-9022764D01*
X70397794Y-9022765D01*
X70477235Y-9102206D01*
X70580009Y-9147585D01*
X70605135Y-9150500D01*
X71342873Y-9150499D01*
X71409910Y-9170183D01*
X71455665Y-9222987D01*
X71465609Y-9292146D01*
X71436584Y-9355702D01*
X71377806Y-9393476D01*
X71362270Y-9396972D01*
X71230589Y-9417829D01*
X71058363Y-9473787D01*
X71058360Y-9473788D01*
X70897002Y-9556006D01*
X70750505Y-9662441D01*
X70750500Y-9662445D01*
X70622445Y-9790500D01*
X70622441Y-9790505D01*
X70516006Y-9937002D01*
X70433788Y-10098360D01*
X70433787Y-10098363D01*
X70377829Y-10270589D01*
X70349500Y-10449448D01*
X70349500Y-10630551D01*
X70377829Y-10809410D01*
X70433787Y-10981636D01*
X70433788Y-10981639D01*
X70489664Y-11091300D01*
X70497099Y-11105892D01*
X70516006Y-11142997D01*
X70622441Y-11289494D01*
X70622445Y-11289499D01*
X70750500Y-11417554D01*
X70750505Y-11417558D01*
X70878287Y-11510396D01*
X70897006Y-11523996D01*
X70983333Y-11567982D01*
X71058360Y-11606211D01*
X71058363Y-11606212D01*
X71144476Y-11634191D01*
X71230591Y-11662171D01*
X71296974Y-11672685D01*
X71390678Y-11687527D01*
X71453813Y-11717456D01*
X71490744Y-11776768D01*
X71489746Y-11846631D01*
X71451136Y-11904863D01*
X71390678Y-11932473D01*
X71230589Y-11957829D01*
X71058363Y-12013787D01*
X71058360Y-12013788D01*
X70916669Y-12085985D01*
X70860374Y-12099500D01*
X68697185Y-12099500D01*
X68630146Y-12079815D01*
X68596867Y-12048386D01*
X68594189Y-12044700D01*
X68549414Y-11983072D01*
X68426928Y-11860586D01*
X68286788Y-11758768D01*
X68132445Y-11680127D01*
X67967701Y-11626598D01*
X67967699Y-11626597D01*
X67967698Y-11626597D01*
X67836271Y-11605781D01*
X67796611Y-11599500D01*
X66823389Y-11599500D01*
X66783728Y-11605781D01*
X66652302Y-11626597D01*
X66652299Y-11626598D01*
X66494748Y-11677790D01*
X66487552Y-11680128D01*
X66333211Y-11758768D01*
X66258754Y-11812865D01*
X66193072Y-11860586D01*
X66193070Y-11860588D01*
X66193069Y-11860588D01*
X66070585Y-11983072D01*
X66042313Y-12021986D01*
X65986983Y-12064651D01*
X65917369Y-12070629D01*
X65855575Y-12038022D01*
X65854315Y-12036780D01*
X63615890Y-9798355D01*
X63615888Y-9798352D01*
X63497017Y-9679481D01*
X63497016Y-9679480D01*
X63386868Y-9615886D01*
X63386866Y-9615885D01*
X63360085Y-9600423D01*
X63360084Y-9600422D01*
X63360083Y-9600422D01*
X63295865Y-9583215D01*
X63207357Y-9559499D01*
X63049243Y-9559499D01*
X63041647Y-9559499D01*
X63041631Y-9559500D01*
X55997185Y-9559500D01*
X55930146Y-9539815D01*
X55896867Y-9508386D01*
X55849414Y-9443072D01*
X55726928Y-9320586D01*
X55586788Y-9218768D01*
X55432445Y-9140127D01*
X55267701Y-9086598D01*
X55267699Y-9086597D01*
X55267698Y-9086597D01*
X55136271Y-9065781D01*
X55096611Y-9059500D01*
X54123389Y-9059500D01*
X54083728Y-9065781D01*
X53952302Y-9086597D01*
X53787552Y-9140128D01*
X53633211Y-9218768D01*
X53606923Y-9237868D01*
X53493072Y-9320586D01*
X53493070Y-9320588D01*
X53493069Y-9320588D01*
X53370585Y-9443072D01*
X53342313Y-9481986D01*
X53286983Y-9524651D01*
X53217369Y-9530629D01*
X53155575Y-9498022D01*
X53154315Y-9496780D01*
X50915890Y-7258355D01*
X50915888Y-7258352D01*
X50797017Y-7139481D01*
X50797016Y-7139480D01*
X50710204Y-7089360D01*
X50710204Y-7089359D01*
X50710200Y-7089358D01*
X50660085Y-7060423D01*
X50507357Y-7019499D01*
X50349243Y-7019499D01*
X50341647Y-7019499D01*
X50341631Y-7019500D01*
X43297185Y-7019500D01*
X43230146Y-6999815D01*
X43196867Y-6968386D01*
X43195377Y-6966335D01*
X43149414Y-6903072D01*
X43026928Y-6780586D01*
X42886788Y-6678768D01*
X42732445Y-6600127D01*
X42567701Y-6546598D01*
X42567699Y-6546597D01*
X42567698Y-6546597D01*
X42436271Y-6525781D01*
X42396611Y-6519500D01*
X41423389Y-6519500D01*
X41383728Y-6525781D01*
X41252302Y-6546597D01*
X41087552Y-6600128D01*
X40933211Y-6678768D01*
X40853256Y-6736859D01*
X40793072Y-6780586D01*
X40793070Y-6780588D01*
X40793069Y-6780588D01*
X40670588Y-6903069D01*
X40670588Y-6903070D01*
X40670586Y-6903072D01*
X40624623Y-6966335D01*
X40623133Y-6968386D01*
X40567803Y-7011051D01*
X40522815Y-7019500D01*
X28276239Y-7019500D01*
X28209200Y-6999815D01*
X28163445Y-6947011D01*
X28160885Y-6940990D01*
X28104362Y-6797660D01*
X28104361Y-6797658D01*
X28012922Y-6677077D01*
X27892343Y-6585639D01*
X27751561Y-6530122D01*
X27705926Y-6524642D01*
X27663102Y-6519500D01*
X27663097Y-6519500D01*
X26470097Y-6519500D01*
X26403058Y-6499815D01*
X26382416Y-6483181D01*
X24617590Y-4718355D01*
X24617588Y-4718352D01*
X24498717Y-4599481D01*
X24498716Y-4599480D01*
X24388568Y-4535886D01*
X24388566Y-4535885D01*
X24361785Y-4520423D01*
X24361784Y-4520422D01*
X24361783Y-4520422D01*
X24305881Y-4505443D01*
X24209057Y-4479499D01*
X24050943Y-4479499D01*
X24043347Y-4479499D01*
X24043331Y-4479500D01*
X22977185Y-4479500D01*
X22910146Y-4459815D01*
X22876867Y-4428386D01*
X22829414Y-4363072D01*
X22706928Y-4240586D01*
X22566788Y-4138768D01*
X22412445Y-4060127D01*
X22247701Y-4006598D01*
X22247699Y-4006597D01*
X22247698Y-4006597D01*
X22116271Y-3985781D01*
X22076611Y-3979500D01*
X21103389Y-3979500D01*
X21063728Y-3985781D01*
X20932302Y-4006597D01*
X20767552Y-4060128D01*
X20613211Y-4138768D01*
X20533256Y-4196859D01*
X20473072Y-4240586D01*
X20473070Y-4240588D01*
X20473069Y-4240588D01*
X20350588Y-4363069D01*
X20350588Y-4363070D01*
X20350586Y-4363072D01*
X20324891Y-4398438D01*
X20248768Y-4503211D01*
X20170128Y-4657552D01*
X20116597Y-4822302D01*
X20089500Y-4993389D01*
X20089500Y-5166611D01*
X20116598Y-5337701D01*
X20170127Y-5502445D01*
X20248768Y-5656788D01*
X20350586Y-5796928D01*
X20350588Y-5796930D01*
X20457277Y-5903619D01*
X20490762Y-5964942D01*
X20485778Y-6034634D01*
X20443906Y-6090567D01*
X20378442Y-6114984D01*
X20369596Y-6115300D01*
X8951918Y-6115300D01*
X8839881Y-6115300D01*
X8731663Y-6144297D01*
X8731661Y-6144298D01*
X8731660Y-6144298D01*
X8634640Y-6200313D01*
X8634634Y-6200317D01*
X8555413Y-6279539D01*
X7836187Y-6998763D01*
X7774864Y-7032248D01*
X7705172Y-7027264D01*
X7649239Y-6985392D01*
X7648224Y-6984017D01*
X7589414Y-6903072D01*
X7466928Y-6780586D01*
X7326788Y-6678768D01*
X7172445Y-6600127D01*
X7007701Y-6546598D01*
X7007699Y-6546597D01*
X7007698Y-6546597D01*
X6876271Y-6525781D01*
X6836611Y-6519500D01*
X5863389Y-6519500D01*
X5823728Y-6525781D01*
X5692302Y-6546597D01*
X5527552Y-6600128D01*
X5373211Y-6678768D01*
X5293256Y-6736859D01*
X5233072Y-6780586D01*
X5233070Y-6780588D01*
X5233069Y-6780588D01*
X5110588Y-6903069D01*
X5110588Y-6903070D01*
X5110586Y-6903072D01*
X5083037Y-6940990D01*
X5008768Y-7043211D01*
X4930128Y-7197552D01*
X4876597Y-7362302D01*
X4849500Y-7533389D01*
X4849500Y-7706611D01*
X4876598Y-7877701D01*
X4930127Y-8042445D01*
X5008768Y-8196788D01*
X5110586Y-8336928D01*
X5233072Y-8459414D01*
X5373212Y-8561232D01*
X5527555Y-8639873D01*
X5692299Y-8693402D01*
X5863389Y-8720500D01*
X5863390Y-8720500D01*
X6836610Y-8720500D01*
X6836611Y-8720500D01*
X7007701Y-8693402D01*
X7172445Y-8639873D01*
X7326788Y-8561232D01*
X7466928Y-8459414D01*
X7589414Y-8336928D01*
X7691232Y-8196788D01*
X7733819Y-8113204D01*
X7781792Y-8062410D01*
X7844303Y-8045500D01*
X7872716Y-8045500D01*
X7872718Y-8045500D01*
X7980937Y-8016503D01*
X8077963Y-7960485D01*
X9035828Y-7002618D01*
X9097151Y-6969134D01*
X9123509Y-6966300D01*
X20085607Y-6966300D01*
X20152646Y-6985985D01*
X20198401Y-7038789D01*
X20208345Y-7107947D01*
X20196092Y-7146594D01*
X20170129Y-7197549D01*
X20116597Y-7362302D01*
X20089500Y-7533389D01*
X20089500Y-7706611D01*
X20116598Y-7877701D01*
X20170127Y-8042445D01*
X20248768Y-8196788D01*
X20350586Y-8336928D01*
X20473072Y-8459414D01*
X20613212Y-8561232D01*
X20767555Y-8639873D01*
X20932299Y-8693402D01*
X21103389Y-8720500D01*
X21103390Y-8720500D01*
X22076610Y-8720500D01*
X22076611Y-8720500D01*
X22247701Y-8693402D01*
X22412445Y-8639873D01*
X22566788Y-8561232D01*
X22706928Y-8459414D01*
X22829414Y-8336928D01*
X22888189Y-8256030D01*
X22943519Y-8213365D01*
X23013132Y-8207386D01*
X23074927Y-8239992D01*
X23076125Y-8241173D01*
X23474824Y-8639871D01*
X23965274Y-9130321D01*
X23965284Y-9130332D01*
X23969614Y-9134662D01*
X23969615Y-9134663D01*
X24048837Y-9213885D01*
X24145863Y-9269903D01*
X24254081Y-9298900D01*
X24254082Y-9298900D01*
X25291969Y-9298900D01*
X25359008Y-9318585D01*
X25404763Y-9371389D01*
X25414707Y-9440547D01*
X25392287Y-9495786D01*
X25328768Y-9583211D01*
X25250128Y-9737552D01*
X25196597Y-9902302D01*
X25191101Y-9937006D01*
X25169500Y-10073389D01*
X25169500Y-10246611D01*
X25196598Y-10417701D01*
X25250127Y-10582445D01*
X25264625Y-10610900D01*
X25270131Y-10621705D01*
X25283027Y-10690374D01*
X25256751Y-10755114D01*
X25199645Y-10795372D01*
X25159646Y-10802000D01*
X23100354Y-10802000D01*
X23033315Y-10782315D01*
X22987560Y-10729511D01*
X22977616Y-10660353D01*
X22989869Y-10621705D01*
X22993896Y-10613802D01*
X23009873Y-10582445D01*
X23063402Y-10417701D01*
X23090500Y-10246611D01*
X23090500Y-10073389D01*
X23063402Y-9902299D01*
X23009873Y-9737555D01*
X22931232Y-9583212D01*
X22829414Y-9443072D01*
X22706928Y-9320586D01*
X22566788Y-9218768D01*
X22412445Y-9140127D01*
X22247701Y-9086598D01*
X22247699Y-9086597D01*
X22247698Y-9086597D01*
X22116271Y-9065781D01*
X22076611Y-9059500D01*
X21103389Y-9059500D01*
X21063728Y-9065781D01*
X20932302Y-9086597D01*
X20767552Y-9140128D01*
X20613211Y-9218768D01*
X20586923Y-9237868D01*
X20473072Y-9320586D01*
X20473070Y-9320588D01*
X20473069Y-9320588D01*
X20350588Y-9443069D01*
X20350588Y-9443070D01*
X20350586Y-9443072D01*
X20324891Y-9478438D01*
X20248768Y-9583211D01*
X20170128Y-9737552D01*
X20116597Y-9902302D01*
X20111101Y-9937006D01*
X20089500Y-10073389D01*
X20089500Y-10246611D01*
X20116598Y-10417701D01*
X20170127Y-10582445D01*
X20184625Y-10610900D01*
X20190131Y-10621705D01*
X20203027Y-10690374D01*
X20176751Y-10755114D01*
X20119645Y-10795372D01*
X20079646Y-10802000D01*
X9111810Y-10802000D01*
X9044771Y-10782315D01*
X9024129Y-10765681D01*
X8077965Y-9819517D01*
X8077963Y-9819515D01*
X7980937Y-9763497D01*
X7872718Y-9734500D01*
X7872717Y-9734500D01*
X7844303Y-9734500D01*
X7777264Y-9714815D01*
X7733819Y-9666795D01*
X7691232Y-9583212D01*
X7691230Y-9583209D01*
X7691229Y-9583207D01*
X7648685Y-9524651D01*
X7589414Y-9443072D01*
X7466928Y-9320586D01*
X7326788Y-9218768D01*
X7172445Y-9140127D01*
X7007701Y-9086598D01*
X7007699Y-9086597D01*
X7007698Y-9086597D01*
X6876271Y-9065781D01*
X6836611Y-9059500D01*
X5863389Y-9059500D01*
X5823728Y-9065781D01*
X5692302Y-9086597D01*
X5527552Y-9140128D01*
X5373211Y-9218768D01*
X5346923Y-9237868D01*
X5233072Y-9320586D01*
X5233070Y-9320588D01*
X5233069Y-9320588D01*
X5110588Y-9443069D01*
X5110588Y-9443070D01*
X5110586Y-9443072D01*
X5084891Y-9478438D01*
X5008768Y-9583211D01*
X4930128Y-9737552D01*
X4876597Y-9902302D01*
X4871101Y-9937006D01*
X4849500Y-10073389D01*
X4849500Y-10246611D01*
X4876598Y-10417701D01*
X4930127Y-10582445D01*
X5008768Y-10736788D01*
X5110586Y-10876928D01*
X5233072Y-10999414D01*
X5373212Y-11101232D01*
X5527555Y-11179873D01*
X5692299Y-11233402D01*
X5863389Y-11260500D01*
X5863390Y-11260500D01*
X6836610Y-11260500D01*
X6836611Y-11260500D01*
X7007701Y-11233402D01*
X7172445Y-11179873D01*
X7326788Y-11101232D01*
X7466928Y-10999414D01*
X7589414Y-10876928D01*
X7648190Y-10796029D01*
X7703517Y-10753365D01*
X7773130Y-10747386D01*
X7834925Y-10779991D01*
X7836187Y-10781235D01*
X8543715Y-11488763D01*
X8622937Y-11567985D01*
X8719963Y-11624003D01*
X8828182Y-11653000D01*
X20381296Y-11653000D01*
X20448335Y-11672685D01*
X20494090Y-11725489D01*
X20504034Y-11794647D01*
X20475009Y-11858203D01*
X20468977Y-11864681D01*
X20350588Y-11983069D01*
X20350588Y-11983070D01*
X20350586Y-11983072D01*
X20324891Y-12018438D01*
X20248768Y-12123211D01*
X20170128Y-12277552D01*
X20116597Y-12442302D01*
X20111101Y-12477006D01*
X20089500Y-12613389D01*
X20089500Y-12786611D01*
X20095470Y-12824303D01*
X20116594Y-12957680D01*
X20116598Y-12957701D01*
X20161697Y-13096501D01*
X20170129Y-13122450D01*
X20214995Y-13210506D01*
X20227891Y-13279175D01*
X20201614Y-13343915D01*
X20144508Y-13384172D01*
X20104510Y-13390800D01*
X9184382Y-13390800D01*
X9076163Y-13419797D01*
X9076160Y-13419798D01*
X8979140Y-13475813D01*
X8979134Y-13475817D01*
X7836187Y-14618763D01*
X7774864Y-14652248D01*
X7705172Y-14647264D01*
X7649239Y-14605392D01*
X7648224Y-14604017D01*
X7589414Y-14523072D01*
X7466928Y-14400586D01*
X7326788Y-14298768D01*
X7172445Y-14220127D01*
X7007701Y-14166598D01*
X7007699Y-14166597D01*
X7007698Y-14166597D01*
X6876271Y-14145781D01*
X6836611Y-14139500D01*
X5863389Y-14139500D01*
X5823728Y-14145781D01*
X5692302Y-14166597D01*
X5527552Y-14220128D01*
X5373211Y-14298768D01*
X5309926Y-14344748D01*
X5233072Y-14400586D01*
X5233070Y-14400588D01*
X5233069Y-14400588D01*
X5110588Y-14523069D01*
X5110588Y-14523070D01*
X5110586Y-14523072D01*
X5066859Y-14583256D01*
X5008768Y-14663211D01*
X4930128Y-14817552D01*
X4876597Y-14982302D01*
X4849500Y-15153389D01*
X4849500Y-15326610D01*
X4870388Y-15458496D01*
X4876598Y-15497701D01*
X4930127Y-15662445D01*
X5008768Y-15816788D01*
X5110586Y-15956928D01*
X5233072Y-16079414D01*
X5373212Y-16181232D01*
X5527555Y-16259873D01*
X5692299Y-16313402D01*
X5863389Y-16340500D01*
X5863390Y-16340500D01*
X6836610Y-16340500D01*
X6836611Y-16340500D01*
X7007701Y-16313402D01*
X7172445Y-16259873D01*
X7326788Y-16181232D01*
X7466928Y-16079414D01*
X7589414Y-15956928D01*
X7691232Y-15816788D01*
X7733819Y-15733204D01*
X7781792Y-15682410D01*
X7844303Y-15665500D01*
X7872716Y-15665500D01*
X7872718Y-15665500D01*
X7980937Y-15636503D01*
X8077963Y-15580485D01*
X9380329Y-14278119D01*
X9441652Y-14244634D01*
X9468010Y-14241800D01*
X20332496Y-14241800D01*
X20399535Y-14261485D01*
X20445290Y-14314289D01*
X20455234Y-14383447D01*
X20426209Y-14447003D01*
X20420177Y-14453481D01*
X20350588Y-14523069D01*
X20350588Y-14523070D01*
X20350586Y-14523072D01*
X20306859Y-14583256D01*
X20248768Y-14663211D01*
X20170128Y-14817552D01*
X20116597Y-14982302D01*
X20089500Y-15153389D01*
X20089500Y-15326610D01*
X20110388Y-15458496D01*
X20116598Y-15497701D01*
X20162119Y-15637800D01*
X20170128Y-15662447D01*
X20219989Y-15760305D01*
X20232885Y-15828974D01*
X20206609Y-15893715D01*
X20149502Y-15933972D01*
X20109504Y-15940600D01*
X9174582Y-15940600D01*
X9066363Y-15969597D01*
X9066360Y-15969598D01*
X8969340Y-16025613D01*
X8969334Y-16025617D01*
X7836187Y-17158763D01*
X7774864Y-17192248D01*
X7705172Y-17187264D01*
X7649239Y-17145392D01*
X7648224Y-17144017D01*
X7589414Y-17063072D01*
X7466928Y-16940586D01*
X7326788Y-16838768D01*
X7272849Y-16811285D01*
X7172447Y-16760128D01*
X7172446Y-16760127D01*
X7172445Y-16760127D01*
X7007701Y-16706598D01*
X7007699Y-16706597D01*
X7007698Y-16706597D01*
X6876271Y-16685781D01*
X6836611Y-16679500D01*
X5863389Y-16679500D01*
X5823728Y-16685781D01*
X5692302Y-16706597D01*
X5527552Y-16760128D01*
X5373211Y-16838768D01*
X5327106Y-16872266D01*
X5233072Y-16940586D01*
X5233070Y-16940588D01*
X5233069Y-16940588D01*
X5110588Y-17063069D01*
X5110588Y-17063070D01*
X5110586Y-17063072D01*
X5081215Y-17103498D01*
X5008768Y-17203211D01*
X4930128Y-17357552D01*
X4876597Y-17522302D01*
X4856677Y-17648073D01*
X4849500Y-17693389D01*
X4849500Y-17866611D01*
X4876598Y-18037701D01*
X4927887Y-18195552D01*
X4930128Y-18202447D01*
X4948176Y-18237868D01*
X5008768Y-18356788D01*
X5110586Y-18496928D01*
X5233072Y-18619414D01*
X5373212Y-18721232D01*
X5527555Y-18799873D01*
X5692299Y-18853402D01*
X5863389Y-18880500D01*
X5863390Y-18880500D01*
X6836610Y-18880500D01*
X6836611Y-18880500D01*
X7007701Y-18853402D01*
X7172445Y-18799873D01*
X7326788Y-18721232D01*
X7466928Y-18619414D01*
X7589414Y-18496928D01*
X7691232Y-18356788D01*
X7733819Y-18273204D01*
X7781792Y-18222410D01*
X7844303Y-18205500D01*
X7872716Y-18205500D01*
X7872718Y-18205500D01*
X7980937Y-18176503D01*
X8077963Y-18120485D01*
X9370529Y-16827919D01*
X9431852Y-16794434D01*
X9458210Y-16791600D01*
X20322696Y-16791600D01*
X20389735Y-16811285D01*
X20435490Y-16864089D01*
X20445434Y-16933247D01*
X20416409Y-16996803D01*
X20410377Y-17003281D01*
X20350588Y-17063069D01*
X20350588Y-17063070D01*
X20350586Y-17063072D01*
X20321215Y-17103498D01*
X20248768Y-17203211D01*
X20170128Y-17357552D01*
X20116597Y-17522302D01*
X20096677Y-17648073D01*
X20089500Y-17693389D01*
X20089500Y-17866611D01*
X20116598Y-18037701D01*
X20167887Y-18195552D01*
X20170129Y-18202450D01*
X20207505Y-18275806D01*
X20220401Y-18344475D01*
X20194124Y-18409215D01*
X20137017Y-18449472D01*
X20097020Y-18456100D01*
X9199082Y-18456100D01*
X9090863Y-18485097D01*
X9090860Y-18485098D01*
X8993840Y-18541113D01*
X8993834Y-18541117D01*
X7836187Y-19698763D01*
X7774864Y-19732248D01*
X7705172Y-19727264D01*
X7649239Y-19685392D01*
X7648224Y-19684017D01*
X7589414Y-19603072D01*
X7466928Y-19480586D01*
X7326788Y-19378768D01*
X7198100Y-19313199D01*
X7172447Y-19300128D01*
X7172446Y-19300127D01*
X7172445Y-19300127D01*
X7007701Y-19246598D01*
X7007699Y-19246597D01*
X7007698Y-19246597D01*
X6876271Y-19225781D01*
X6836611Y-19219500D01*
X5863389Y-19219500D01*
X5823728Y-19225781D01*
X5692302Y-19246597D01*
X5527552Y-19300128D01*
X5373211Y-19378768D01*
X5360827Y-19387766D01*
X5233072Y-19480586D01*
X5233070Y-19480588D01*
X5233069Y-19480588D01*
X5110588Y-19603069D01*
X5110588Y-19603070D01*
X5110586Y-19603072D01*
X5081878Y-19642585D01*
X5008768Y-19743211D01*
X4930128Y-19897552D01*
X4876597Y-20062302D01*
X4860727Y-20162503D01*
X4849500Y-20233389D01*
X4849500Y-20406611D01*
X4876598Y-20577701D01*
X4921697Y-20716501D01*
X4930128Y-20742447D01*
X4945884Y-20773370D01*
X5008768Y-20896788D01*
X5110586Y-21036928D01*
X5233072Y-21159414D01*
X5373212Y-21261232D01*
X5527555Y-21339873D01*
X5692299Y-21393402D01*
X5863389Y-21420500D01*
X5863390Y-21420500D01*
X6836610Y-21420500D01*
X6836611Y-21420500D01*
X7007701Y-21393402D01*
X7172445Y-21339873D01*
X7326788Y-21261232D01*
X7466928Y-21159414D01*
X7589414Y-21036928D01*
X7691232Y-20896788D01*
X7733819Y-20813204D01*
X7781792Y-20762410D01*
X7844303Y-20745500D01*
X7872716Y-20745500D01*
X7872718Y-20745500D01*
X7980937Y-20716503D01*
X8077963Y-20660485D01*
X9395029Y-19343419D01*
X9456352Y-19309934D01*
X9482710Y-19307100D01*
X20347196Y-19307100D01*
X20414235Y-19326785D01*
X20459990Y-19379589D01*
X20469934Y-19448747D01*
X20440909Y-19512303D01*
X20434877Y-19518781D01*
X20350588Y-19603069D01*
X20350588Y-19603070D01*
X20350586Y-19603072D01*
X20321878Y-19642585D01*
X20248768Y-19743211D01*
X20170128Y-19897552D01*
X20116597Y-20062302D01*
X20100727Y-20162503D01*
X20089500Y-20233389D01*
X20089500Y-20406611D01*
X20116598Y-20577701D01*
X20161697Y-20716501D01*
X20170129Y-20742450D01*
X20214995Y-20830506D01*
X20227891Y-20899175D01*
X20201614Y-20963915D01*
X20144508Y-21004172D01*
X20104510Y-21010800D01*
X9184382Y-21010800D01*
X9076163Y-21039797D01*
X9076160Y-21039798D01*
X8979140Y-21095813D01*
X8979134Y-21095817D01*
X7836187Y-22238763D01*
X7774864Y-22272248D01*
X7705172Y-22267264D01*
X7649239Y-22225392D01*
X7648224Y-22224017D01*
X7589414Y-22143072D01*
X7466928Y-22020586D01*
X7326788Y-21918768D01*
X7172445Y-21840127D01*
X7007701Y-21786598D01*
X7007699Y-21786597D01*
X7007698Y-21786597D01*
X6876271Y-21765781D01*
X6836611Y-21759500D01*
X5863389Y-21759500D01*
X5823728Y-21765781D01*
X5692302Y-21786597D01*
X5527552Y-21840128D01*
X5373211Y-21918768D01*
X5351849Y-21934289D01*
X5233072Y-22020586D01*
X5233070Y-22020588D01*
X5233069Y-22020588D01*
X5110588Y-22143069D01*
X5110588Y-22143070D01*
X5110586Y-22143072D01*
X5101610Y-22155427D01*
X5008768Y-22283211D01*
X4930128Y-22437552D01*
X4876597Y-22602302D01*
X4849500Y-22773389D01*
X4849500Y-22946610D01*
X4865739Y-23049144D01*
X4876598Y-23117701D01*
X4927601Y-23274672D01*
X4930128Y-23282447D01*
X4950076Y-23321597D01*
X5008768Y-23436788D01*
X5110586Y-23576928D01*
X5233072Y-23699414D01*
X5373212Y-23801232D01*
X5527555Y-23879873D01*
X5692299Y-23933402D01*
X5863389Y-23960500D01*
X5863390Y-23960500D01*
X6836610Y-23960500D01*
X6836611Y-23960500D01*
X7007701Y-23933402D01*
X7172445Y-23879873D01*
X7326788Y-23801232D01*
X7466928Y-23699414D01*
X7589414Y-23576928D01*
X7691232Y-23436788D01*
X7733819Y-23353204D01*
X7781792Y-23302410D01*
X7844303Y-23285500D01*
X7872716Y-23285500D01*
X7872718Y-23285500D01*
X7980937Y-23256503D01*
X8077963Y-23200485D01*
X8780766Y-22497681D01*
X8842087Y-22464198D01*
X8911778Y-22469182D01*
X8967712Y-22511053D01*
X8992129Y-22576518D01*
X8983007Y-22632815D01*
X8967499Y-22670255D01*
X8967497Y-22670261D01*
X8942500Y-22795928D01*
X8942500Y-22795931D01*
X8942500Y-22924069D01*
X8942500Y-22924071D01*
X8942499Y-22924071D01*
X8967497Y-23049738D01*
X8967499Y-23049744D01*
X9016533Y-23168124D01*
X9016538Y-23168133D01*
X9087723Y-23274668D01*
X9087726Y-23274672D01*
X9174925Y-23361871D01*
X9208410Y-23423194D01*
X9203426Y-23492886D01*
X9161554Y-23548819D01*
X9119338Y-23569326D01*
X9074663Y-23581297D01*
X9074660Y-23581298D01*
X8977640Y-23637313D01*
X8977634Y-23637317D01*
X7836187Y-24778763D01*
X7774864Y-24812248D01*
X7705172Y-24807264D01*
X7649239Y-24765392D01*
X7648224Y-24764017D01*
X7589414Y-24683072D01*
X7466928Y-24560586D01*
X7326788Y-24458768D01*
X7256559Y-24422985D01*
X7172447Y-24380128D01*
X7172446Y-24380127D01*
X7172445Y-24380127D01*
X7007701Y-24326598D01*
X7007699Y-24326597D01*
X7007698Y-24326597D01*
X6876271Y-24305781D01*
X6836611Y-24299500D01*
X5863389Y-24299500D01*
X5823728Y-24305781D01*
X5692302Y-24326597D01*
X5692299Y-24326598D01*
X5541842Y-24375485D01*
X5527552Y-24380128D01*
X5373211Y-24458768D01*
X5308800Y-24505566D01*
X5233072Y-24560586D01*
X5233070Y-24560588D01*
X5233069Y-24560588D01*
X5110588Y-24683069D01*
X5110588Y-24683070D01*
X5110586Y-24683072D01*
X5074386Y-24732897D01*
X5008768Y-24823211D01*
X4930128Y-24977552D01*
X4876597Y-25142302D01*
X4849500Y-25313389D01*
X4849500Y-25486610D01*
X4863822Y-25577040D01*
X4876598Y-25657701D01*
X4921697Y-25796501D01*
X4930128Y-25822447D01*
X4953239Y-25867805D01*
X5008768Y-25976788D01*
X5110586Y-26116928D01*
X5233072Y-26239414D01*
X5373212Y-26341232D01*
X5527555Y-26419873D01*
X5692299Y-26473402D01*
X5863389Y-26500500D01*
X5863390Y-26500500D01*
X6836610Y-26500500D01*
X6836611Y-26500500D01*
X7007701Y-26473402D01*
X7172445Y-26419873D01*
X7326788Y-26341232D01*
X7466928Y-26239414D01*
X7589414Y-26116928D01*
X7691232Y-25976788D01*
X7733819Y-25893204D01*
X7781792Y-25842410D01*
X7844303Y-25825500D01*
X7872716Y-25825500D01*
X7872718Y-25825500D01*
X7980937Y-25796503D01*
X8077963Y-25740485D01*
X9378829Y-24439619D01*
X9440152Y-24406134D01*
X9466510Y-24403300D01*
X20330996Y-24403300D01*
X20398035Y-24422985D01*
X20443790Y-24475789D01*
X20453734Y-24544947D01*
X20424709Y-24608503D01*
X20418677Y-24614981D01*
X20350588Y-24683069D01*
X20350588Y-24683070D01*
X20350586Y-24683072D01*
X20314386Y-24732897D01*
X20248768Y-24823211D01*
X20170128Y-24977552D01*
X20116597Y-25142302D01*
X20089500Y-25313389D01*
X20089500Y-25486610D01*
X20103822Y-25577040D01*
X20116598Y-25657701D01*
X20161697Y-25796501D01*
X20170129Y-25822450D01*
X20214995Y-25910506D01*
X20227891Y-25979175D01*
X20201614Y-26043915D01*
X20144508Y-26084172D01*
X20104510Y-26090800D01*
X9184382Y-26090800D01*
X9076163Y-26119797D01*
X9076160Y-26119798D01*
X8979140Y-26175813D01*
X8979134Y-26175817D01*
X7836187Y-27318763D01*
X7774864Y-27352248D01*
X7705172Y-27347264D01*
X7649239Y-27305392D01*
X7648224Y-27304017D01*
X7589414Y-27223072D01*
X7466928Y-27100586D01*
X7326788Y-26998768D01*
X7180833Y-26924401D01*
X7172447Y-26920128D01*
X7172446Y-26920127D01*
X7172445Y-26920127D01*
X7007701Y-26866598D01*
X7007699Y-26866597D01*
X7007698Y-26866597D01*
X6876271Y-26845781D01*
X6836611Y-26839500D01*
X5863389Y-26839500D01*
X5823728Y-26845781D01*
X5692302Y-26866597D01*
X5624935Y-26888486D01*
X5605251Y-26894882D01*
X5527552Y-26920128D01*
X5373211Y-26998768D01*
X5327746Y-27031801D01*
X5233072Y-27100586D01*
X5233070Y-27100588D01*
X5233069Y-27100588D01*
X5110588Y-27223069D01*
X5110588Y-27223070D01*
X5110586Y-27223072D01*
X5066859Y-27283256D01*
X5008768Y-27363211D01*
X4930128Y-27517552D01*
X4876597Y-27682302D01*
X4849500Y-27853389D01*
X4849500Y-28026611D01*
X4876598Y-28197701D01*
X4930127Y-28362445D01*
X5008768Y-28516788D01*
X5110586Y-28656928D01*
X5233072Y-28779414D01*
X5373212Y-28881232D01*
X5527555Y-28959873D01*
X5692299Y-29013402D01*
X5863389Y-29040500D01*
X5863390Y-29040500D01*
X6836610Y-29040500D01*
X6836611Y-29040500D01*
X7007701Y-29013402D01*
X7172445Y-28959873D01*
X7326788Y-28881232D01*
X7466928Y-28779414D01*
X7589414Y-28656928D01*
X7691232Y-28516788D01*
X7733819Y-28433204D01*
X7781792Y-28382410D01*
X7844303Y-28365500D01*
X7872716Y-28365500D01*
X7872718Y-28365500D01*
X7980937Y-28336503D01*
X8077963Y-28280485D01*
X9380329Y-26978119D01*
X9441652Y-26944634D01*
X9468010Y-26941800D01*
X20332496Y-26941800D01*
X20399535Y-26961485D01*
X20445290Y-27014289D01*
X20455234Y-27083447D01*
X20426209Y-27147003D01*
X20420177Y-27153481D01*
X20350588Y-27223069D01*
X20350588Y-27223070D01*
X20350586Y-27223072D01*
X20306859Y-27283256D01*
X20248768Y-27363211D01*
X20170128Y-27517552D01*
X20116597Y-27682302D01*
X20089500Y-27853389D01*
X20089500Y-28026611D01*
X20116598Y-28197701D01*
X20161697Y-28336501D01*
X20170129Y-28362450D01*
X20214995Y-28450506D01*
X20227891Y-28519175D01*
X20201614Y-28583915D01*
X20144508Y-28624172D01*
X20104510Y-28630800D01*
X9184382Y-28630800D01*
X9076163Y-28659797D01*
X9076160Y-28659798D01*
X8979140Y-28715813D01*
X8979134Y-28715817D01*
X7836187Y-29858763D01*
X7774864Y-29892248D01*
X7705172Y-29887264D01*
X7649239Y-29845392D01*
X7648224Y-29844017D01*
X7589414Y-29763072D01*
X7466928Y-29640586D01*
X7326788Y-29538768D01*
X7172445Y-29460127D01*
X7007701Y-29406598D01*
X7007699Y-29406597D01*
X7007698Y-29406597D01*
X6876271Y-29385781D01*
X6836611Y-29379500D01*
X5863389Y-29379500D01*
X5823728Y-29385781D01*
X5692302Y-29406597D01*
X5527552Y-29460128D01*
X5373211Y-29538768D01*
X5308800Y-29585566D01*
X5233072Y-29640586D01*
X5233070Y-29640588D01*
X5233069Y-29640588D01*
X5110588Y-29763069D01*
X5110588Y-29763070D01*
X5110586Y-29763072D01*
X5089821Y-29791653D01*
X5008768Y-29903211D01*
X4930128Y-30057552D01*
X4876597Y-30222302D01*
X4868144Y-30275673D01*
X4849500Y-30393389D01*
X4849500Y-30566611D01*
X4876598Y-30737701D01*
X4926711Y-30891933D01*
X4930128Y-30902447D01*
X4972931Y-30986453D01*
X5008768Y-31056788D01*
X5110586Y-31196928D01*
X5233072Y-31319414D01*
X5373212Y-31421232D01*
X5527555Y-31499873D01*
X5692299Y-31553402D01*
X5863389Y-31580500D01*
X5863390Y-31580500D01*
X6836610Y-31580500D01*
X6836611Y-31580500D01*
X7007701Y-31553402D01*
X7172445Y-31499873D01*
X7326788Y-31421232D01*
X7466928Y-31319414D01*
X7589414Y-31196928D01*
X7691232Y-31056788D01*
X7733819Y-30973204D01*
X7781792Y-30922410D01*
X7844303Y-30905500D01*
X7872716Y-30905500D01*
X7872718Y-30905500D01*
X7980937Y-30876503D01*
X8077963Y-30820485D01*
X9380329Y-29518119D01*
X9441652Y-29484634D01*
X9468010Y-29481800D01*
X20332496Y-29481800D01*
X20399535Y-29501485D01*
X20445290Y-29554289D01*
X20455234Y-29623447D01*
X20426209Y-29687003D01*
X20420177Y-29693481D01*
X20350588Y-29763069D01*
X20350588Y-29763070D01*
X20350586Y-29763072D01*
X20329821Y-29791653D01*
X20248768Y-29903211D01*
X20170128Y-30057552D01*
X20116597Y-30222302D01*
X20108144Y-30275673D01*
X20089500Y-30393389D01*
X20089500Y-30566611D01*
X20116598Y-30737701D01*
X20166711Y-30891933D01*
X20170129Y-30902450D01*
X20214995Y-30990506D01*
X20227891Y-31059175D01*
X20201614Y-31123915D01*
X20144508Y-31164172D01*
X20104510Y-31170800D01*
X9184382Y-31170800D01*
X9076163Y-31199797D01*
X9076160Y-31199798D01*
X8979140Y-31255813D01*
X8979134Y-31255817D01*
X7836187Y-32398763D01*
X7774864Y-32432248D01*
X7705172Y-32427264D01*
X7649239Y-32385392D01*
X7648224Y-32384017D01*
X7589414Y-32303072D01*
X7466928Y-32180586D01*
X7326788Y-32078768D01*
X7180833Y-32004401D01*
X7172447Y-32000128D01*
X7172446Y-32000127D01*
X7172445Y-32000127D01*
X7007701Y-31946598D01*
X7007699Y-31946597D01*
X7007698Y-31946597D01*
X6876271Y-31925781D01*
X6836611Y-31919500D01*
X5863389Y-31919500D01*
X5823728Y-31925781D01*
X5692302Y-31946597D01*
X5527552Y-32000128D01*
X5373211Y-32078768D01*
X5334859Y-32106633D01*
X5233072Y-32180586D01*
X5233070Y-32180588D01*
X5233069Y-32180588D01*
X5110588Y-32303069D01*
X5110588Y-32303070D01*
X5110586Y-32303072D01*
X5100360Y-32317147D01*
X5008768Y-32443211D01*
X4930128Y-32597552D01*
X4930127Y-32597554D01*
X4930127Y-32597555D01*
X4921698Y-32623497D01*
X4876597Y-32762302D01*
X4849500Y-32933389D01*
X4849500Y-33106608D01*
X4849499Y-33106608D01*
X4870427Y-33238740D01*
X4876598Y-33277701D01*
X4924827Y-33426134D01*
X4930128Y-33442447D01*
X4939783Y-33461397D01*
X5008768Y-33596788D01*
X5110586Y-33736928D01*
X5233072Y-33859414D01*
X5373212Y-33961232D01*
X5527555Y-34039873D01*
X5692299Y-34093402D01*
X5863389Y-34120500D01*
X5863390Y-34120500D01*
X6836610Y-34120500D01*
X6836611Y-34120500D01*
X7007701Y-34093402D01*
X7172445Y-34039873D01*
X7326788Y-33961232D01*
X7466928Y-33859414D01*
X7589414Y-33736928D01*
X7691232Y-33596788D01*
X7733819Y-33513204D01*
X7781792Y-33462410D01*
X7844303Y-33445500D01*
X7872716Y-33445500D01*
X7872718Y-33445500D01*
X7980937Y-33416503D01*
X8077963Y-33360485D01*
X9380329Y-32058119D01*
X9441652Y-32024634D01*
X9468010Y-32021800D01*
X20332496Y-32021800D01*
X20399535Y-32041485D01*
X20445290Y-32094289D01*
X20455234Y-32163447D01*
X20426209Y-32227003D01*
X20420177Y-32233481D01*
X20350588Y-32303069D01*
X20350588Y-32303070D01*
X20350586Y-32303072D01*
X20340360Y-32317147D01*
X20248768Y-32443211D01*
X20170128Y-32597552D01*
X20170127Y-32597554D01*
X20170127Y-32597555D01*
X20161698Y-32623497D01*
X20116597Y-32762302D01*
X20089500Y-32933389D01*
X20089500Y-33106608D01*
X20089499Y-33106608D01*
X20110427Y-33238740D01*
X20116598Y-33277701D01*
X20164827Y-33426134D01*
X20170129Y-33442450D01*
X20214995Y-33530506D01*
X20227891Y-33599175D01*
X20201614Y-33663915D01*
X20144508Y-33704172D01*
X20104510Y-33710800D01*
X9184382Y-33710800D01*
X9076163Y-33739797D01*
X9076160Y-33739798D01*
X8979140Y-33795813D01*
X8979134Y-33795817D01*
X7836187Y-34938763D01*
X7774864Y-34972248D01*
X7705172Y-34967264D01*
X7649239Y-34925392D01*
X7648224Y-34924017D01*
X7589414Y-34843072D01*
X7466928Y-34720586D01*
X7326788Y-34618768D01*
X7172445Y-34540127D01*
X7007701Y-34486598D01*
X7007699Y-34486597D01*
X7007698Y-34486597D01*
X6876271Y-34465781D01*
X6836611Y-34459500D01*
X5863389Y-34459500D01*
X5823728Y-34465781D01*
X5692302Y-34486597D01*
X5692299Y-34486598D01*
X5547428Y-34533670D01*
X5527552Y-34540128D01*
X5373211Y-34618768D01*
X5315112Y-34660980D01*
X5233072Y-34720586D01*
X5233070Y-34720588D01*
X5233069Y-34720588D01*
X5110588Y-34843069D01*
X5110588Y-34843070D01*
X5110586Y-34843072D01*
X5081323Y-34883349D01*
X5008768Y-34983211D01*
X4930128Y-35137552D01*
X4876597Y-35302302D01*
X4849500Y-35473389D01*
X4849500Y-35646610D01*
X4874751Y-35806044D01*
X4876598Y-35817701D01*
X4930127Y-35982445D01*
X5008768Y-36136788D01*
X5110586Y-36276928D01*
X5233072Y-36399414D01*
X5373212Y-36501232D01*
X5527555Y-36579873D01*
X5692299Y-36633402D01*
X5863389Y-36660500D01*
X5863390Y-36660500D01*
X6836610Y-36660500D01*
X6836611Y-36660500D01*
X7007701Y-36633402D01*
X7172445Y-36579873D01*
X7326788Y-36501232D01*
X7466928Y-36399414D01*
X7589414Y-36276928D01*
X7691232Y-36136788D01*
X7733819Y-36053204D01*
X7781792Y-36002410D01*
X7844303Y-35985500D01*
X7872716Y-35985500D01*
X7872718Y-35985500D01*
X7980937Y-35956503D01*
X8077963Y-35900485D01*
X9380329Y-34598119D01*
X9441652Y-34564634D01*
X9468010Y-34561800D01*
X20332496Y-34561800D01*
X20399535Y-34581485D01*
X20445290Y-34634289D01*
X20455234Y-34703447D01*
X20426209Y-34767003D01*
X20420177Y-34773481D01*
X20350588Y-34843069D01*
X20350588Y-34843070D01*
X20350586Y-34843072D01*
X20321323Y-34883349D01*
X20248768Y-34983211D01*
X20170128Y-35137552D01*
X20116597Y-35302302D01*
X20089500Y-35473389D01*
X20089500Y-35646610D01*
X20114751Y-35806044D01*
X20116598Y-35817701D01*
X20161697Y-35956501D01*
X20170129Y-35982450D01*
X20214995Y-36070506D01*
X20227891Y-36139175D01*
X20201614Y-36203915D01*
X20144508Y-36244172D01*
X20104510Y-36250800D01*
X9184382Y-36250800D01*
X9076163Y-36279797D01*
X9076160Y-36279798D01*
X8979140Y-36335813D01*
X8979134Y-36335817D01*
X7836187Y-37478763D01*
X7774864Y-37512248D01*
X7705172Y-37507264D01*
X7649239Y-37465392D01*
X7648224Y-37464017D01*
X7589414Y-37383072D01*
X7466928Y-37260586D01*
X7326788Y-37158768D01*
X7172445Y-37080127D01*
X7007701Y-37026598D01*
X7007699Y-37026597D01*
X7007698Y-37026597D01*
X6876271Y-37005781D01*
X6836611Y-36999500D01*
X5863389Y-36999500D01*
X5823728Y-37005781D01*
X5692302Y-37026597D01*
X5527552Y-37080128D01*
X5373211Y-37158768D01*
X5300955Y-37211266D01*
X5233072Y-37260586D01*
X5233070Y-37260588D01*
X5233069Y-37260588D01*
X5110588Y-37383069D01*
X5110588Y-37383070D01*
X5110586Y-37383072D01*
X5083318Y-37420603D01*
X5008768Y-37523211D01*
X4930128Y-37677552D01*
X4876597Y-37842302D01*
X4849500Y-38013389D01*
X4849500Y-38186610D01*
X4869852Y-38315113D01*
X4876598Y-38357701D01*
X4930127Y-38522445D01*
X5008768Y-38676788D01*
X5110586Y-38816928D01*
X5233072Y-38939414D01*
X5373212Y-39041232D01*
X5527555Y-39119873D01*
X5692299Y-39173402D01*
X5863389Y-39200500D01*
X5863390Y-39200500D01*
X6836610Y-39200500D01*
X6836611Y-39200500D01*
X7007701Y-39173402D01*
X7172445Y-39119873D01*
X7326788Y-39041232D01*
X7466928Y-38939414D01*
X7589414Y-38816928D01*
X7691232Y-38676788D01*
X7733819Y-38593204D01*
X7781792Y-38542410D01*
X7844303Y-38525500D01*
X7872716Y-38525500D01*
X7872718Y-38525500D01*
X7980937Y-38496503D01*
X8077963Y-38440485D01*
X9380329Y-37138119D01*
X9441652Y-37104634D01*
X9468010Y-37101800D01*
X20332496Y-37101800D01*
X20399535Y-37121485D01*
X20445290Y-37174289D01*
X20455234Y-37243447D01*
X20426209Y-37307003D01*
X20420177Y-37313481D01*
X20350588Y-37383069D01*
X20350588Y-37383070D01*
X20350586Y-37383072D01*
X20323318Y-37420603D01*
X20248768Y-37523211D01*
X20170128Y-37677552D01*
X20116597Y-37842302D01*
X20089500Y-38013389D01*
X20089500Y-38186610D01*
X20109852Y-38315113D01*
X20116598Y-38357701D01*
X20170127Y-38522445D01*
X20248768Y-38676788D01*
X20300227Y-38747615D01*
X20323707Y-38813420D01*
X20307882Y-38881474D01*
X20257777Y-38930169D01*
X20199909Y-38944500D01*
X9142718Y-38944500D01*
X9030681Y-38944500D01*
X8922463Y-38973497D01*
X8922461Y-38973498D01*
X8922460Y-38973498D01*
X8825440Y-39029513D01*
X8825434Y-39029517D01*
X8746213Y-39108739D01*
X7836187Y-40018763D01*
X7774864Y-40052248D01*
X7705172Y-40047264D01*
X7649239Y-40005392D01*
X7648224Y-40004017D01*
X7589414Y-39923072D01*
X7466928Y-39800586D01*
X7326788Y-39698768D01*
X7182352Y-39625175D01*
X7172447Y-39620128D01*
X7172446Y-39620127D01*
X7172445Y-39620127D01*
X7007701Y-39566598D01*
X7007699Y-39566597D01*
X7007698Y-39566597D01*
X6876271Y-39545781D01*
X6836611Y-39539500D01*
X5863389Y-39539500D01*
X5823728Y-39545781D01*
X5692302Y-39566597D01*
X5527552Y-39620128D01*
X5373211Y-39698768D01*
X5315433Y-39740747D01*
X5233072Y-39800586D01*
X5233070Y-39800588D01*
X5233069Y-39800588D01*
X5110588Y-39923069D01*
X5110588Y-39923070D01*
X5110586Y-39923072D01*
X5079596Y-39965726D01*
X5008768Y-40063211D01*
X4930128Y-40217552D01*
X4930127Y-40217554D01*
X4930127Y-40217555D01*
X4904394Y-40296751D01*
X4876597Y-40382302D01*
X4849500Y-40553389D01*
X4849500Y-40726610D01*
X4876407Y-40896500D01*
X4876598Y-40897701D01*
X4930127Y-41062445D01*
X5008768Y-41216788D01*
X5110586Y-41356928D01*
X5233072Y-41479414D01*
X5373212Y-41581232D01*
X5527555Y-41659873D01*
X5692299Y-41713402D01*
X5692302Y-41713402D01*
X5692303Y-41713403D01*
X5791615Y-41729132D01*
X5842277Y-41737156D01*
X5905412Y-41767085D01*
X5942344Y-41826396D01*
X5941346Y-41896259D01*
X5902737Y-41954492D01*
X5842279Y-41982102D01*
X5668997Y-42009548D01*
X5489362Y-42067914D01*
X5321059Y-42153670D01*
X5168258Y-42264685D01*
X5168253Y-42264689D01*
X5034689Y-42398253D01*
X5034685Y-42398258D01*
X4923670Y-42551059D01*
X4837914Y-42719362D01*
X4779548Y-42898997D01*
X4774638Y-42930000D01*
X6034314Y-42930000D01*
X6029920Y-42934394D01*
X5977259Y-43025606D01*
X5950000Y-43127339D01*
X5950000Y-43232661D01*
X5977259Y-43334394D01*
X6029920Y-43425606D01*
X6034314Y-43430000D01*
X4774638Y-43430000D01*
X4779548Y-43461002D01*
X4837914Y-43640637D01*
X4923670Y-43808940D01*
X5034685Y-43961741D01*
X5034689Y-43961746D01*
X5168253Y-44095310D01*
X5168258Y-44095314D01*
X5321059Y-44206329D01*
X5489362Y-44292085D01*
X5668997Y-44350451D01*
X5855553Y-44380000D01*
X6100000Y-44380000D01*
X6100000Y-43495686D01*
X6104394Y-43500080D01*
X6195606Y-43552741D01*
X6297339Y-43580000D01*
X6402661Y-43580000D01*
X6504394Y-43552741D01*
X6595606Y-43500080D01*
X6600000Y-43495686D01*
X6600000Y-44380000D01*
X6844447Y-44380000D01*
X7031002Y-44350451D01*
X7210637Y-44292085D01*
X7378940Y-44206329D01*
X7531741Y-44095314D01*
X7531746Y-44095310D01*
X7665310Y-43961746D01*
X7665314Y-43961741D01*
X7776329Y-43808940D01*
X7862085Y-43640637D01*
X7920451Y-43461002D01*
X7925362Y-43430000D01*
X6665686Y-43430000D01*
X6670080Y-43425606D01*
X6722741Y-43334394D01*
X6750000Y-43232661D01*
X6750000Y-43127339D01*
X6722741Y-43025606D01*
X6670080Y-42934394D01*
X6665686Y-42930000D01*
X7925362Y-42930000D01*
X7920451Y-42898997D01*
X7862085Y-42719362D01*
X7776329Y-42551059D01*
X7665314Y-42398258D01*
X7665310Y-42398253D01*
X7531746Y-42264689D01*
X7531741Y-42264685D01*
X7378940Y-42153670D01*
X7210637Y-42067914D01*
X7031002Y-42009548D01*
X6857720Y-41982102D01*
X6794586Y-41952172D01*
X6757655Y-41892861D01*
X6758653Y-41822998D01*
X6797263Y-41764766D01*
X6857720Y-41737156D01*
X6951306Y-41722334D01*
X7007696Y-41713403D01*
X7007696Y-41713402D01*
X7007701Y-41713402D01*
X7172445Y-41659873D01*
X7326788Y-41581232D01*
X7466928Y-41479414D01*
X7589414Y-41356928D01*
X7691232Y-41216788D01*
X7733819Y-41133204D01*
X7781792Y-41082410D01*
X7844303Y-41065500D01*
X7872716Y-41065500D01*
X7872718Y-41065500D01*
X7980937Y-41036503D01*
X8077963Y-40980485D01*
X9226628Y-39831818D01*
X9287951Y-39798334D01*
X9314309Y-39795500D01*
X20199909Y-39795500D01*
X20266948Y-39815185D01*
X20312703Y-39867989D01*
X20322647Y-39937147D01*
X20300227Y-39992383D01*
X20281062Y-40018763D01*
X20248768Y-40063211D01*
X20170128Y-40217552D01*
X20170127Y-40217554D01*
X20170127Y-40217555D01*
X20144394Y-40296751D01*
X20116597Y-40382302D01*
X20089500Y-40553389D01*
X20089500Y-40726610D01*
X20116407Y-40896500D01*
X20116598Y-40897701D01*
X20170127Y-41062445D01*
X20248768Y-41216788D01*
X20350586Y-41356928D01*
X20473072Y-41479414D01*
X20613212Y-41581232D01*
X20767555Y-41659873D01*
X20932299Y-41713402D01*
X21103389Y-41740500D01*
X21103390Y-41740500D01*
X22076610Y-41740500D01*
X22076611Y-41740500D01*
X22247701Y-41713402D01*
X22412445Y-41659873D01*
X22566788Y-41581232D01*
X22706928Y-41479414D01*
X22829414Y-41356928D01*
X22931232Y-41216788D01*
X22973819Y-41133204D01*
X23021792Y-41082410D01*
X23084303Y-41065500D01*
X23112716Y-41065500D01*
X23112718Y-41065500D01*
X23220937Y-41036503D01*
X23317963Y-40980485D01*
X24663029Y-39635419D01*
X24724352Y-39601934D01*
X24750710Y-39599100D01*
X25314481Y-39599100D01*
X25381520Y-39618785D01*
X25427275Y-39671589D01*
X25437219Y-39740747D01*
X25408194Y-39804303D01*
X25402162Y-39810781D01*
X25354689Y-39858253D01*
X25354685Y-39858258D01*
X25243670Y-40011059D01*
X25157914Y-40179362D01*
X25099548Y-40358997D01*
X25094638Y-40390000D01*
X26354314Y-40390000D01*
X26349920Y-40394394D01*
X26297259Y-40485606D01*
X26270000Y-40587339D01*
X26270000Y-40692661D01*
X26297259Y-40794394D01*
X26349920Y-40885606D01*
X26354314Y-40890000D01*
X25094638Y-40890000D01*
X25099548Y-40921002D01*
X25157914Y-41100637D01*
X25243670Y-41268940D01*
X25354685Y-41421741D01*
X25354689Y-41421746D01*
X25488253Y-41555310D01*
X25488258Y-41555314D01*
X25641059Y-41666329D01*
X25809362Y-41752085D01*
X25988997Y-41810451D01*
X26175553Y-41840000D01*
X26420000Y-41840000D01*
X26420000Y-40955686D01*
X26424394Y-40960080D01*
X26515606Y-41012741D01*
X26617339Y-41040000D01*
X26722661Y-41040000D01*
X26824394Y-41012741D01*
X26915606Y-40960080D01*
X26920000Y-40955686D01*
X26920000Y-41840000D01*
X27164447Y-41840000D01*
X27351002Y-41810451D01*
X27530637Y-41752085D01*
X27698940Y-41666329D01*
X27851741Y-41555314D01*
X27851746Y-41555310D01*
X27985310Y-41421746D01*
X27985314Y-41421741D01*
X28096329Y-41268940D01*
X28182085Y-41100637D01*
X28240451Y-40921002D01*
X28245362Y-40890000D01*
X26985686Y-40890000D01*
X26990080Y-40885606D01*
X27042741Y-40794394D01*
X27070000Y-40692661D01*
X27070000Y-40587339D01*
X27042741Y-40485606D01*
X26990080Y-40394394D01*
X26985686Y-40390000D01*
X28245362Y-40390000D01*
X28240451Y-40358997D01*
X28182085Y-40179362D01*
X28096329Y-40011059D01*
X27985314Y-39858258D01*
X27985310Y-39858253D01*
X27937838Y-39810781D01*
X27904353Y-39749458D01*
X27909337Y-39679766D01*
X27951209Y-39623833D01*
X28016673Y-39599416D01*
X28025519Y-39599100D01*
X36028394Y-39599100D01*
X36095433Y-39618785D01*
X36141188Y-39671589D01*
X36151132Y-39740747D01*
X36122107Y-39804303D01*
X36063329Y-39842077D01*
X36052585Y-39844717D01*
X36048663Y-39845497D01*
X36048655Y-39845499D01*
X35930275Y-39894533D01*
X35930266Y-39894538D01*
X35823731Y-39965723D01*
X35823727Y-39965726D01*
X35733126Y-40056327D01*
X35733123Y-40056331D01*
X35661938Y-40162866D01*
X35661933Y-40162875D01*
X35612899Y-40281255D01*
X35612897Y-40281261D01*
X35587900Y-40406928D01*
X35587900Y-40406931D01*
X35587900Y-40535069D01*
X35587900Y-40535071D01*
X35587899Y-40535071D01*
X35612897Y-40660738D01*
X35612899Y-40660744D01*
X35661933Y-40779124D01*
X35661938Y-40779133D01*
X35733123Y-40885668D01*
X35733126Y-40885672D01*
X35823727Y-40976273D01*
X35823731Y-40976276D01*
X35930266Y-41047461D01*
X35930272Y-41047464D01*
X35930273Y-41047465D01*
X36048656Y-41096501D01*
X36048660Y-41096501D01*
X36048661Y-41096502D01*
X36174328Y-41121500D01*
X36174331Y-41121500D01*
X36302471Y-41121500D01*
X36407351Y-41100637D01*
X36428144Y-41096501D01*
X36546527Y-41047465D01*
X36653069Y-40976276D01*
X36696525Y-40932820D01*
X36757848Y-40899334D01*
X36784207Y-40896500D01*
X39237116Y-40896500D01*
X39237118Y-40896500D01*
X39265399Y-40888922D01*
X39335248Y-40890583D01*
X39393111Y-40929745D01*
X39420616Y-40993973D01*
X39409030Y-41062876D01*
X39385174Y-41096377D01*
X37966471Y-42515081D01*
X37905148Y-42548566D01*
X37878790Y-42551400D01*
X23203782Y-42551400D01*
X23095563Y-42580397D01*
X23095558Y-42580399D01*
X23064805Y-42598154D01*
X22996904Y-42614625D01*
X22930878Y-42591772D01*
X22902489Y-42563651D01*
X22893588Y-42551400D01*
X22829414Y-42463072D01*
X22706928Y-42340586D01*
X22566788Y-42238768D01*
X22412445Y-42160127D01*
X22247701Y-42106598D01*
X22247699Y-42106597D01*
X22247698Y-42106597D01*
X22116271Y-42085781D01*
X22076611Y-42079500D01*
X21103389Y-42079500D01*
X21063728Y-42085781D01*
X20932302Y-42106597D01*
X20880850Y-42123315D01*
X20787428Y-42153670D01*
X20767552Y-42160128D01*
X20613211Y-42238768D01*
X20533256Y-42296859D01*
X20473072Y-42340586D01*
X20473070Y-42340588D01*
X20473069Y-42340588D01*
X20350588Y-42463069D01*
X20350588Y-42463070D01*
X20350586Y-42463072D01*
X20350584Y-42463075D01*
X20248768Y-42603211D01*
X20170128Y-42757552D01*
X20116597Y-42922302D01*
X20116421Y-42923415D01*
X20089500Y-43093389D01*
X20089500Y-43266611D01*
X20116598Y-43437701D01*
X20170127Y-43602445D01*
X20242612Y-43744706D01*
X20255508Y-43813374D01*
X20229232Y-43878115D01*
X20172125Y-43918372D01*
X20132127Y-43925000D01*
X9841018Y-43925000D01*
X9728981Y-43925000D01*
X9620763Y-43953997D01*
X9620761Y-43953998D01*
X9620760Y-43953998D01*
X9523740Y-44010013D01*
X9523734Y-44010017D01*
X9444513Y-44089239D01*
X7200796Y-46332955D01*
X7200795Y-46332955D01*
X7200796Y-46332956D01*
X7139014Y-46394738D01*
X7139013Y-46394740D01*
X7082998Y-46491760D01*
X7082997Y-46491763D01*
X7054000Y-46599982D01*
X7054000Y-52236521D01*
X7034315Y-52303560D01*
X6986297Y-52347005D01*
X6963216Y-52358766D01*
X6963212Y-52358768D01*
X6823072Y-52460586D01*
X6823070Y-52460588D01*
X6823069Y-52460588D01*
X6700588Y-52583069D01*
X6700588Y-52583070D01*
X6700586Y-52583072D01*
X6695384Y-52590232D01*
X6598768Y-52723211D01*
X6520128Y-52877552D01*
X6466597Y-53042302D01*
X6439500Y-53213389D01*
X6439500Y-53386611D01*
X6466598Y-53557701D01*
X6485486Y-53615833D01*
X6520128Y-53722447D01*
X6574210Y-53828590D01*
X6598768Y-53876788D01*
X6700586Y-54016928D01*
X6823072Y-54139414D01*
X6963212Y-54241232D01*
X7117555Y-54319873D01*
X7282299Y-54373402D01*
X7453389Y-54400500D01*
X7453390Y-54400500D01*
X7626610Y-54400500D01*
X7626611Y-54400500D01*
X7797701Y-54373402D01*
X7962445Y-54319873D01*
X8116788Y-54241232D01*
X8256928Y-54139414D01*
X8379414Y-54016928D01*
X8481232Y-53876788D01*
X8559873Y-53722445D01*
X8613402Y-53557701D01*
X8640500Y-53386611D01*
X8640500Y-53213389D01*
X9899500Y-53213389D01*
X9899500Y-53386611D01*
X9926598Y-53557701D01*
X9945486Y-53615833D01*
X9980128Y-53722447D01*
X10034210Y-53828590D01*
X10058768Y-53876788D01*
X10160586Y-54016928D01*
X10283072Y-54139414D01*
X10423212Y-54241232D01*
X10577555Y-54319873D01*
X10742299Y-54373402D01*
X10913389Y-54400500D01*
X10913390Y-54400500D01*
X11086610Y-54400500D01*
X11086611Y-54400500D01*
X11257701Y-54373402D01*
X11422445Y-54319873D01*
X11576788Y-54241232D01*
X11716928Y-54139414D01*
X11839414Y-54016928D01*
X11941232Y-53876788D01*
X12019873Y-53722445D01*
X12073402Y-53557701D01*
X12100500Y-53386611D01*
X12100500Y-53213389D01*
X12073402Y-53042299D01*
X12019873Y-52877555D01*
X11941232Y-52723212D01*
X11839414Y-52583072D01*
X11716928Y-52460586D01*
X11576788Y-52358768D01*
X11422445Y-52280127D01*
X11257701Y-52226598D01*
X11257699Y-52226597D01*
X11257698Y-52226597D01*
X11126271Y-52205781D01*
X11086611Y-52199500D01*
X10913389Y-52199500D01*
X10873728Y-52205781D01*
X10742302Y-52226597D01*
X10577552Y-52280128D01*
X10423211Y-52358768D01*
X10347433Y-52413825D01*
X10283072Y-52460586D01*
X10283070Y-52460588D01*
X10283069Y-52460588D01*
X10160588Y-52583069D01*
X10160588Y-52583070D01*
X10160586Y-52583072D01*
X10155384Y-52590232D01*
X10058768Y-52723211D01*
X9980128Y-52877552D01*
X9926597Y-53042302D01*
X9899500Y-53213389D01*
X8640500Y-53213389D01*
X8613402Y-53042299D01*
X8559873Y-52877555D01*
X8481232Y-52723212D01*
X8379414Y-52583072D01*
X8256928Y-52460586D01*
X8116788Y-52358768D01*
X8049007Y-52324232D01*
X7972705Y-52285354D01*
X7921909Y-52237379D01*
X7905000Y-52174869D01*
X7905000Y-48566110D01*
X7924685Y-48499071D01*
X7977489Y-48453316D01*
X8046647Y-48443372D01*
X8110203Y-48472397D01*
X8116681Y-48478429D01*
X12465335Y-52827083D01*
X12498820Y-52888406D01*
X12495585Y-52953081D01*
X12466598Y-53042295D01*
X12439500Y-53213389D01*
X12439500Y-53386611D01*
X12466598Y-53557701D01*
X12485486Y-53615833D01*
X12520128Y-53722447D01*
X12574210Y-53828590D01*
X12598768Y-53876788D01*
X12700586Y-54016928D01*
X12823072Y-54139414D01*
X12963212Y-54241232D01*
X13117555Y-54319873D01*
X13282299Y-54373402D01*
X13453389Y-54400500D01*
X13453390Y-54400500D01*
X13626610Y-54400500D01*
X13626611Y-54400500D01*
X13797701Y-54373402D01*
X13962445Y-54319873D01*
X14116788Y-54241232D01*
X14256928Y-54139414D01*
X14379414Y-54016928D01*
X14481232Y-53876788D01*
X14559873Y-53722445D01*
X14613402Y-53557701D01*
X14640500Y-53386611D01*
X14640500Y-53213389D01*
X15899500Y-53213389D01*
X15899500Y-53386611D01*
X15926598Y-53557701D01*
X15945486Y-53615833D01*
X15980128Y-53722447D01*
X16034210Y-53828590D01*
X16058768Y-53876788D01*
X16160586Y-54016928D01*
X16283072Y-54139414D01*
X16423212Y-54241232D01*
X16577555Y-54319873D01*
X16742299Y-54373402D01*
X16913389Y-54400500D01*
X16913390Y-54400500D01*
X17086610Y-54400500D01*
X17086611Y-54400500D01*
X17257701Y-54373402D01*
X17422445Y-54319873D01*
X17576788Y-54241232D01*
X17716928Y-54139414D01*
X17839414Y-54016928D01*
X17941232Y-53876788D01*
X18019873Y-53722445D01*
X18073402Y-53557701D01*
X18100500Y-53386611D01*
X18100500Y-53213389D01*
X18073402Y-53042299D01*
X18019873Y-52877555D01*
X17941232Y-52723212D01*
X17839414Y-52583072D01*
X17716928Y-52460586D01*
X17576788Y-52358768D01*
X17422445Y-52280127D01*
X17257701Y-52226598D01*
X17257699Y-52226597D01*
X17257698Y-52226597D01*
X17126271Y-52205781D01*
X17086611Y-52199500D01*
X16913389Y-52199500D01*
X16873728Y-52205781D01*
X16742302Y-52226597D01*
X16577552Y-52280128D01*
X16423211Y-52358768D01*
X16347433Y-52413825D01*
X16283072Y-52460586D01*
X16283070Y-52460588D01*
X16283069Y-52460588D01*
X16160588Y-52583069D01*
X16160588Y-52583070D01*
X16160586Y-52583072D01*
X16155384Y-52590232D01*
X16058768Y-52723211D01*
X15980128Y-52877552D01*
X15926597Y-53042302D01*
X15899500Y-53213389D01*
X14640500Y-53213389D01*
X14613402Y-53042299D01*
X14559873Y-52877555D01*
X14481232Y-52723212D01*
X14379414Y-52583072D01*
X14256928Y-52460586D01*
X14116788Y-52358768D01*
X13962445Y-52280127D01*
X13797701Y-52226598D01*
X13797699Y-52226597D01*
X13797698Y-52226597D01*
X13666271Y-52205781D01*
X13626611Y-52199500D01*
X13453389Y-52199500D01*
X13419171Y-52204919D01*
X13282295Y-52226598D01*
X13193081Y-52255585D01*
X13123240Y-52257580D01*
X13067083Y-52225335D01*
X9372155Y-48530407D01*
X9338670Y-48469084D01*
X9343654Y-48399392D01*
X9385526Y-48343459D01*
X9421521Y-48324794D01*
X9460637Y-48312085D01*
X9628937Y-48226331D01*
X9654328Y-48207883D01*
X9654328Y-48207882D01*
X9046446Y-47600000D01*
X9052661Y-47600000D01*
X9154394Y-47572741D01*
X9245606Y-47520080D01*
X9320080Y-47445606D01*
X9372741Y-47354394D01*
X9400000Y-47252661D01*
X9400000Y-47246446D01*
X10007882Y-47854328D01*
X10007883Y-47854328D01*
X10026331Y-47828937D01*
X10112085Y-47660637D01*
X10170451Y-47481002D01*
X10200000Y-47294447D01*
X10200000Y-47105552D01*
X10170451Y-46918997D01*
X10112085Y-46739362D01*
X10026329Y-46571059D01*
X10007883Y-46545670D01*
X10007882Y-46545669D01*
X9400000Y-47153552D01*
X9400000Y-47147339D01*
X9372741Y-47045606D01*
X9320080Y-46954394D01*
X9245606Y-46879920D01*
X9154394Y-46827259D01*
X9052661Y-46800000D01*
X9046444Y-46800000D01*
X9654328Y-46192116D01*
X9628933Y-46173666D01*
X9460639Y-46087915D01*
X9459176Y-46087440D01*
X9458689Y-46087107D01*
X9456137Y-46086050D01*
X9456359Y-46085513D01*
X9401502Y-46048000D01*
X9374307Y-45983640D01*
X9386224Y-45914794D01*
X9409812Y-45881835D01*
X9516931Y-45774716D01*
X9578252Y-45741234D01*
X9604610Y-45738400D01*
X21058490Y-45738400D01*
X21125529Y-45758085D01*
X21146170Y-45774718D01*
X21216615Y-45845163D01*
X21295837Y-45924385D01*
X21392863Y-45980403D01*
X21501082Y-46009400D01*
X23383477Y-46009400D01*
X23450516Y-46029085D01*
X23496271Y-46081889D01*
X23506880Y-46145550D01*
X23506400Y-46150425D01*
X23506400Y-46150431D01*
X23506400Y-46278569D01*
X23506400Y-46278571D01*
X23506399Y-46278571D01*
X23531397Y-46404238D01*
X23531399Y-46404244D01*
X23580433Y-46522624D01*
X23580438Y-46522633D01*
X23651623Y-46629168D01*
X23651626Y-46629172D01*
X23742228Y-46719774D01*
X23742231Y-46719776D01*
X23789110Y-46751100D01*
X23833915Y-46804711D01*
X23842623Y-46874036D01*
X23838151Y-46892519D01*
X23829548Y-46918995D01*
X23800000Y-47105552D01*
X23800000Y-47294447D01*
X23829548Y-47481002D01*
X23887914Y-47660637D01*
X23973666Y-47828933D01*
X23992116Y-47854328D01*
X24600000Y-47246444D01*
X24600000Y-47252661D01*
X24627259Y-47354394D01*
X24679920Y-47445606D01*
X24754394Y-47520080D01*
X24845606Y-47572741D01*
X24947339Y-47600000D01*
X24953554Y-47600000D01*
X24345669Y-48207882D01*
X24345670Y-48207883D01*
X24371059Y-48226329D01*
X24539362Y-48312085D01*
X24718997Y-48370451D01*
X24905553Y-48400000D01*
X25094447Y-48400000D01*
X25281002Y-48370451D01*
X25460637Y-48312085D01*
X25628937Y-48226331D01*
X25654328Y-48207883D01*
X25654328Y-48207882D01*
X25046447Y-47600000D01*
X25052661Y-47600000D01*
X25154394Y-47572741D01*
X25245606Y-47520080D01*
X25320080Y-47445606D01*
X25372741Y-47354394D01*
X25400000Y-47252661D01*
X25400000Y-47246446D01*
X26007882Y-47854328D01*
X26007883Y-47854328D01*
X26026331Y-47828937D01*
X26112085Y-47660638D01*
X26122219Y-47629446D01*
X26123772Y-47627173D01*
X26123969Y-47624427D01*
X26143379Y-47598497D01*
X26161655Y-47571770D01*
X26164190Y-47570698D01*
X26165841Y-47568494D01*
X26196184Y-47557176D01*
X26226012Y-47544570D01*
X26228724Y-47545039D01*
X26231305Y-47544077D01*
X26262951Y-47550961D01*
X26294859Y-47556482D01*
X26297710Y-47558522D01*
X26299578Y-47558929D01*
X26327832Y-47580080D01*
X26492880Y-47745128D01*
X26524973Y-47800714D01*
X26536795Y-47844833D01*
X26536798Y-47844840D01*
X26592812Y-47941859D01*
X26592814Y-47941861D01*
X26592815Y-47941863D01*
X27335915Y-48684963D01*
X27415137Y-48764185D01*
X27512163Y-48820203D01*
X27620382Y-48849200D01*
X27620384Y-48849200D01*
X30609916Y-48849200D01*
X30609918Y-48849200D01*
X30718137Y-48820203D01*
X30815163Y-48764185D01*
X31296385Y-48282963D01*
X31352403Y-48185937D01*
X31381400Y-48077718D01*
X31381400Y-47965681D01*
X31381400Y-47952079D01*
X31381876Y-47946660D01*
X31392712Y-47918983D01*
X31401085Y-47890470D01*
X31406514Y-47883731D01*
X31407350Y-47881599D01*
X31409469Y-47880065D01*
X31417714Y-47869833D01*
X31680827Y-47606720D01*
X31742146Y-47573238D01*
X31811837Y-47578222D01*
X31867771Y-47620093D01*
X31886433Y-47656078D01*
X31887915Y-47660638D01*
X31973666Y-47828933D01*
X31992116Y-47854328D01*
X32600000Y-47246445D01*
X32600000Y-47252661D01*
X32627259Y-47354394D01*
X32679920Y-47445606D01*
X32754394Y-47520080D01*
X32845606Y-47572741D01*
X32947339Y-47600000D01*
X32953554Y-47600000D01*
X32345669Y-48207882D01*
X32345670Y-48207883D01*
X32371059Y-48226329D01*
X32539362Y-48312085D01*
X32718997Y-48370451D01*
X32905553Y-48400000D01*
X33094447Y-48400000D01*
X33281002Y-48370451D01*
X33460637Y-48312085D01*
X33628937Y-48226331D01*
X33654328Y-48207883D01*
X33654328Y-48207882D01*
X33046447Y-47600000D01*
X33052661Y-47600000D01*
X33154394Y-47572741D01*
X33245606Y-47520080D01*
X33320080Y-47445606D01*
X33372741Y-47354394D01*
X33400000Y-47252661D01*
X33400000Y-47246446D01*
X34007882Y-47854328D01*
X34007883Y-47854328D01*
X34026331Y-47828937D01*
X34112085Y-47660637D01*
X34170451Y-47481002D01*
X34200000Y-47294447D01*
X34200000Y-47105552D01*
X34170451Y-46918997D01*
X34112085Y-46739362D01*
X34026329Y-46571059D01*
X34007883Y-46545670D01*
X34007882Y-46545669D01*
X33400000Y-47153552D01*
X33400000Y-47147339D01*
X33372741Y-47045606D01*
X33320080Y-46954394D01*
X33245606Y-46879920D01*
X33154394Y-46827259D01*
X33052661Y-46800000D01*
X33046445Y-46800000D01*
X33654328Y-46192116D01*
X33628933Y-46173666D01*
X33460638Y-46087915D01*
X33456078Y-46086433D01*
X33453808Y-46084881D01*
X33451067Y-46084685D01*
X33425139Y-46065274D01*
X33398406Y-46046992D01*
X33397336Y-46044459D01*
X33395135Y-46042812D01*
X33383818Y-46012468D01*
X33371211Y-45982631D01*
X33371680Y-45979921D01*
X33370720Y-45977347D01*
X33377604Y-45945702D01*
X33383130Y-45913786D01*
X33385167Y-45910939D01*
X33385573Y-45909074D01*
X33406716Y-45880831D01*
X33444133Y-45843414D01*
X33505455Y-45809933D01*
X33531810Y-45807100D01*
X40620717Y-45807100D01*
X40687756Y-45826785D01*
X40733511Y-45879589D01*
X40743455Y-45948747D01*
X40714430Y-46012303D01*
X40659035Y-46049031D01*
X40539362Y-46087914D01*
X40371060Y-46173669D01*
X40345670Y-46192116D01*
X40345669Y-46192116D01*
X40953554Y-46800000D01*
X40947339Y-46800000D01*
X40845606Y-46827259D01*
X40754394Y-46879920D01*
X40679920Y-46954394D01*
X40627259Y-47045606D01*
X40600000Y-47147339D01*
X40600000Y-47153553D01*
X39992116Y-46545669D01*
X39992116Y-46545670D01*
X39973669Y-46571060D01*
X39887914Y-46739362D01*
X39829548Y-46918997D01*
X39800000Y-47105552D01*
X39800000Y-47294447D01*
X39829548Y-47481002D01*
X39887914Y-47660637D01*
X39922189Y-47727905D01*
X39935085Y-47796574D01*
X39908809Y-47861315D01*
X39851702Y-47901572D01*
X39811704Y-47908200D01*
X37608797Y-47908200D01*
X37541758Y-47888515D01*
X37521116Y-47871881D01*
X37122662Y-47473427D01*
X37089177Y-47412104D01*
X37087870Y-47366352D01*
X37100500Y-47286611D01*
X37100500Y-47113389D01*
X37073402Y-46942299D01*
X37019873Y-46777555D01*
X36941232Y-46623212D01*
X36839414Y-46483072D01*
X36716928Y-46360586D01*
X36576788Y-46258768D01*
X36490109Y-46214603D01*
X36422447Y-46180128D01*
X36422446Y-46180127D01*
X36422445Y-46180127D01*
X36257701Y-46126598D01*
X36257699Y-46126597D01*
X36257698Y-46126597D01*
X36126271Y-46105781D01*
X36086611Y-46099500D01*
X35913389Y-46099500D01*
X35873728Y-46105781D01*
X35742302Y-46126597D01*
X35577552Y-46180128D01*
X35423211Y-46258768D01*
X35382482Y-46288360D01*
X35283072Y-46360586D01*
X35283070Y-46360588D01*
X35283069Y-46360588D01*
X35160588Y-46483069D01*
X35160588Y-46483070D01*
X35160586Y-46483072D01*
X35134891Y-46518438D01*
X35058768Y-46623211D01*
X34980128Y-46777552D01*
X34926597Y-46942302D01*
X34912703Y-47030027D01*
X34899500Y-47113389D01*
X34899500Y-47286611D01*
X34902170Y-47303466D01*
X34917955Y-47403135D01*
X34926598Y-47457701D01*
X34980127Y-47622445D01*
X35058768Y-47776788D01*
X35160586Y-47916928D01*
X35283072Y-48039414D01*
X35423212Y-48141232D01*
X35577555Y-48219873D01*
X35742299Y-48273402D01*
X35913389Y-48300500D01*
X35913390Y-48300500D01*
X36086609Y-48300500D01*
X36086611Y-48300500D01*
X36166350Y-48287870D01*
X36235641Y-48296824D01*
X36273427Y-48322662D01*
X36823839Y-48873074D01*
X36823849Y-48873085D01*
X36828179Y-48877415D01*
X36828180Y-48877416D01*
X36939984Y-48989220D01*
X36989794Y-49017977D01*
X37026795Y-49039339D01*
X37026797Y-49039341D01*
X37060674Y-49058900D01*
X37076915Y-49068277D01*
X37229642Y-49109200D01*
X37229643Y-49109200D01*
X43699903Y-49109200D01*
X43766942Y-49128885D01*
X43787584Y-49145519D01*
X44389484Y-49747419D01*
X44422969Y-49808742D01*
X44417985Y-49878434D01*
X44376113Y-49934367D01*
X44310649Y-49958784D01*
X44301803Y-49959100D01*
X37761307Y-49959100D01*
X37694268Y-49939415D01*
X37673625Y-49922780D01*
X37630172Y-49879326D01*
X37630168Y-49879323D01*
X37523633Y-49808138D01*
X37523624Y-49808133D01*
X37405244Y-49759099D01*
X37405238Y-49759097D01*
X37279571Y-49734100D01*
X37279569Y-49734100D01*
X37151431Y-49734100D01*
X37151429Y-49734100D01*
X37025761Y-49759097D01*
X37025755Y-49759099D01*
X36907375Y-49808133D01*
X36907366Y-49808138D01*
X36800831Y-49879323D01*
X36800827Y-49879326D01*
X36710226Y-49969927D01*
X36710223Y-49969931D01*
X36639038Y-50076466D01*
X36639033Y-50076475D01*
X36589999Y-50194855D01*
X36589997Y-50194861D01*
X36565000Y-50320528D01*
X36565000Y-50320531D01*
X36565000Y-50448669D01*
X36565000Y-50448671D01*
X36564999Y-50448671D01*
X36589997Y-50574338D01*
X36589999Y-50574344D01*
X36639033Y-50692724D01*
X36639038Y-50692733D01*
X36710223Y-50799268D01*
X36710226Y-50799272D01*
X36800827Y-50889873D01*
X36800831Y-50889876D01*
X36907366Y-50961061D01*
X36907372Y-50961064D01*
X36907373Y-50961065D01*
X37025756Y-51010101D01*
X37025760Y-51010101D01*
X37025761Y-51010102D01*
X37151428Y-51035100D01*
X37151431Y-51035100D01*
X37279571Y-51035100D01*
X37364115Y-51018282D01*
X37405244Y-51010101D01*
X37523627Y-50961065D01*
X37630169Y-50889876D01*
X37673625Y-50846420D01*
X37734948Y-50812934D01*
X37761307Y-50810100D01*
X53014090Y-50810100D01*
X53081129Y-50829785D01*
X53101771Y-50846419D01*
X60714539Y-58459187D01*
X60748024Y-58520510D01*
X60743040Y-58590202D01*
X60701168Y-58646135D01*
X60665177Y-58664799D01*
X60508764Y-58715621D01*
X60343903Y-58799622D01*
X60281528Y-58844941D01*
X60194213Y-58908379D01*
X60194211Y-58908381D01*
X60194210Y-58908381D01*
X60063381Y-59039210D01*
X60063381Y-59039211D01*
X60063379Y-59039213D01*
X60032369Y-59081895D01*
X59954622Y-59188903D01*
X59870620Y-59353764D01*
X59870619Y-59353767D01*
X59813445Y-59529734D01*
X59812473Y-59535872D01*
X59782544Y-59599007D01*
X59723232Y-59635938D01*
X59653370Y-59634940D01*
X59595137Y-59596330D01*
X59567527Y-59535872D01*
X59567356Y-59534798D01*
X59566555Y-59529736D01*
X59509379Y-59353765D01*
X59509379Y-59353764D01*
X59425377Y-59188903D01*
X59316621Y-59039213D01*
X59185787Y-58908379D01*
X59036096Y-58799622D01*
X59010286Y-58786471D01*
X58871235Y-58715620D01*
X58871232Y-58715619D01*
X58695265Y-58658445D01*
X58573056Y-58639089D01*
X58512514Y-58629500D01*
X58327486Y-58629500D01*
X58266944Y-58639089D01*
X58144734Y-58658445D01*
X57968767Y-58715619D01*
X57968764Y-58715620D01*
X57803903Y-58799622D01*
X57741528Y-58844941D01*
X57654213Y-58908379D01*
X57654211Y-58908381D01*
X57654210Y-58908381D01*
X57523381Y-59039210D01*
X57523381Y-59039211D01*
X57523379Y-59039213D01*
X57492369Y-59081895D01*
X57414622Y-59188903D01*
X57330620Y-59353764D01*
X57330619Y-59353767D01*
X57273445Y-59529734D01*
X57272473Y-59535872D01*
X57242544Y-59599007D01*
X57183232Y-59635938D01*
X57113370Y-59634940D01*
X57055137Y-59596330D01*
X57027527Y-59535872D01*
X57027356Y-59534798D01*
X57026555Y-59529736D01*
X56969379Y-59353765D01*
X56969379Y-59353764D01*
X56885377Y-59188903D01*
X56776621Y-59039213D01*
X56645787Y-58908379D01*
X56496096Y-58799622D01*
X56470286Y-58786471D01*
X56331235Y-58715620D01*
X56331232Y-58715619D01*
X56155265Y-58658445D01*
X56033056Y-58639089D01*
X55972514Y-58629500D01*
X55787486Y-58629500D01*
X55726944Y-58639089D01*
X55604734Y-58658445D01*
X55428767Y-58715619D01*
X55428764Y-58715620D01*
X55263903Y-58799622D01*
X55201528Y-58844941D01*
X55114213Y-58908379D01*
X55114211Y-58908381D01*
X55114210Y-58908381D01*
X54983381Y-59039210D01*
X54983381Y-59039211D01*
X54983379Y-59039213D01*
X54952369Y-59081895D01*
X54874622Y-59188903D01*
X54790620Y-59353764D01*
X54790619Y-59353767D01*
X54733445Y-59529734D01*
X54732473Y-59535872D01*
X54702544Y-59599007D01*
X54643232Y-59635938D01*
X54573370Y-59634940D01*
X54515137Y-59596330D01*
X54487527Y-59535872D01*
X54487356Y-59534798D01*
X54486555Y-59529736D01*
X54429379Y-59353765D01*
X54429379Y-59353764D01*
X54345377Y-59188903D01*
X54236621Y-59039213D01*
X54105787Y-58908379D01*
X53956096Y-58799622D01*
X53930286Y-58786471D01*
X53791235Y-58715620D01*
X53791232Y-58715619D01*
X53615265Y-58658445D01*
X53493056Y-58639089D01*
X53432514Y-58629500D01*
X53247486Y-58629500D01*
X53186944Y-58639089D01*
X53064734Y-58658445D01*
X52888767Y-58715619D01*
X52888764Y-58715620D01*
X52723903Y-58799622D01*
X52661528Y-58844941D01*
X52574213Y-58908379D01*
X52574211Y-58908381D01*
X52574210Y-58908381D01*
X52446051Y-59036541D01*
X52384728Y-59070026D01*
X52315036Y-59065042D01*
X52270689Y-59036541D01*
X50659965Y-57425817D01*
X50659963Y-57425815D01*
X50562937Y-57369797D01*
X50454718Y-57340800D01*
X46130118Y-57340800D01*
X46018081Y-57340800D01*
X46018079Y-57340800D01*
X45961561Y-57355944D01*
X45961560Y-57355943D01*
X45909867Y-57369795D01*
X45909860Y-57369798D01*
X45812840Y-57425813D01*
X45812834Y-57425817D01*
X45733613Y-57505039D01*
X44225710Y-59012940D01*
X44164387Y-59046425D01*
X44094695Y-59041441D01*
X44050348Y-59012940D01*
X43945789Y-58908381D01*
X43945787Y-58908379D01*
X43796096Y-58799622D01*
X43770286Y-58786471D01*
X43631235Y-58715620D01*
X43631232Y-58715619D01*
X43455265Y-58658445D01*
X43333056Y-58639089D01*
X43272514Y-58629500D01*
X43087486Y-58629500D01*
X43026944Y-58639089D01*
X42904734Y-58658445D01*
X42728767Y-58715619D01*
X42728764Y-58715620D01*
X42563903Y-58799622D01*
X42501528Y-58844941D01*
X42414213Y-58908379D01*
X42414211Y-58908381D01*
X42414210Y-58908381D01*
X42316051Y-59006541D01*
X42254728Y-59040026D01*
X42185036Y-59035042D01*
X42140689Y-59006541D01*
X37191819Y-54057671D01*
X37158334Y-53996348D01*
X37155500Y-53969990D01*
X37155500Y-52550002D01*
X37155500Y-52550000D01*
X37154197Y-52521812D01*
X37123472Y-52413827D01*
X37055814Y-52324233D01*
X37055813Y-52324232D01*
X36960360Y-52265130D01*
X36960361Y-52265130D01*
X36905179Y-52254815D01*
X36850000Y-52244500D01*
X36284174Y-52244500D01*
X36284166Y-52244500D01*
X36205106Y-52254909D01*
X36077932Y-52288986D01*
X36004265Y-52319499D01*
X36004249Y-52319507D01*
X35890250Y-52385325D01*
X35890232Y-52385337D01*
X35826971Y-52433880D01*
X35733880Y-52526971D01*
X35685337Y-52590232D01*
X35685325Y-52590250D01*
X35619507Y-52704249D01*
X35619499Y-52704265D01*
X35588986Y-52777932D01*
X35554909Y-52905106D01*
X35544500Y-52984166D01*
X35544500Y-53615833D01*
X35554909Y-53694893D01*
X35588986Y-53822067D01*
X35619499Y-53895734D01*
X35619507Y-53895750D01*
X35685325Y-54009749D01*
X35685337Y-54009767D01*
X35733880Y-54073028D01*
X35733888Y-54073037D01*
X35826963Y-54166112D01*
X35826971Y-54166119D01*
X35890232Y-54214662D01*
X35890236Y-54214664D01*
X35890243Y-54214670D01*
X35890250Y-54214674D01*
X36004249Y-54280492D01*
X36004265Y-54280500D01*
X36053376Y-54300842D01*
X36077936Y-54311015D01*
X36205103Y-54345090D01*
X36244719Y-54350305D01*
X36308615Y-54378571D01*
X36316215Y-54385563D01*
X40390992Y-58460340D01*
X40424477Y-58521663D01*
X40419493Y-58591355D01*
X40377621Y-58647288D01*
X40341629Y-58665952D01*
X40188767Y-58715619D01*
X40188764Y-58715620D01*
X40023903Y-58799622D01*
X39961528Y-58844941D01*
X39874213Y-58908379D01*
X39874211Y-58908381D01*
X39874210Y-58908381D01*
X39777801Y-59004791D01*
X39716478Y-59038276D01*
X39646786Y-59033292D01*
X39602439Y-59004791D01*
X34844365Y-54246717D01*
X34844363Y-54246715D01*
X34747337Y-54190697D01*
X34639118Y-54161700D01*
X34639117Y-54161700D01*
X31488610Y-54161700D01*
X31421571Y-54142015D01*
X31400929Y-54125381D01*
X31191819Y-53916271D01*
X31158334Y-53854948D01*
X31155500Y-53828590D01*
X31155500Y-52550002D01*
X31155500Y-52550000D01*
X31154197Y-52521812D01*
X31123472Y-52413827D01*
X31055814Y-52324233D01*
X31055813Y-52324232D01*
X30960360Y-52265130D01*
X30960361Y-52265130D01*
X30905179Y-52254815D01*
X30850000Y-52244500D01*
X30284174Y-52244500D01*
X30284166Y-52244500D01*
X30205106Y-52254909D01*
X30077932Y-52288986D01*
X30004265Y-52319499D01*
X30004249Y-52319507D01*
X29890250Y-52385325D01*
X29890232Y-52385337D01*
X29826971Y-52433880D01*
X29733880Y-52526971D01*
X29685337Y-52590232D01*
X29685325Y-52590250D01*
X29619507Y-52704249D01*
X29619499Y-52704265D01*
X29588986Y-52777932D01*
X29554909Y-52905105D01*
X29548250Y-52955688D01*
X29519983Y-53019584D01*
X29461658Y-53058054D01*
X29391793Y-53058885D01*
X29337630Y-53027182D01*
X26128719Y-49818271D01*
X26095234Y-49756948D01*
X26092400Y-49730590D01*
X26092400Y-49669128D01*
X26067402Y-49543461D01*
X26067401Y-49543460D01*
X26067401Y-49543456D01*
X26018365Y-49425073D01*
X26018364Y-49425072D01*
X26018361Y-49425066D01*
X25947176Y-49318531D01*
X25947173Y-49318527D01*
X25856572Y-49227926D01*
X25856568Y-49227923D01*
X25750033Y-49156738D01*
X25750024Y-49156733D01*
X25631644Y-49107699D01*
X25631638Y-49107697D01*
X25505971Y-49082700D01*
X25505969Y-49082700D01*
X25377831Y-49082700D01*
X25377829Y-49082700D01*
X25252161Y-49107697D01*
X25252155Y-49107699D01*
X25133775Y-49156733D01*
X25133766Y-49156738D01*
X25027231Y-49227923D01*
X25027227Y-49227926D01*
X24936626Y-49318527D01*
X24936623Y-49318531D01*
X24865438Y-49425066D01*
X24865433Y-49425075D01*
X24816399Y-49543455D01*
X24816397Y-49543461D01*
X24791400Y-49669128D01*
X24791400Y-49669131D01*
X24791400Y-49797269D01*
X24791400Y-49797271D01*
X24791399Y-49797271D01*
X24816397Y-49922938D01*
X24816399Y-49922944D01*
X24865433Y-50041324D01*
X24865438Y-50041333D01*
X24936623Y-50147868D01*
X24936626Y-50147872D01*
X25027227Y-50238473D01*
X25027231Y-50238476D01*
X25133766Y-50309661D01*
X25133775Y-50309666D01*
X25159999Y-50320528D01*
X25252156Y-50358701D01*
X25252160Y-50358701D01*
X25252161Y-50358702D01*
X25377828Y-50383700D01*
X25377831Y-50383700D01*
X25439290Y-50383700D01*
X25506329Y-50403385D01*
X25526971Y-50420019D01*
X32571037Y-57464085D01*
X32668063Y-57520103D01*
X32776282Y-57549100D01*
X32888318Y-57549100D01*
X34324390Y-57549100D01*
X34353830Y-57557744D01*
X34383817Y-57564268D01*
X34388832Y-57568022D01*
X34391429Y-57568785D01*
X34412071Y-57585419D01*
X34544321Y-57717669D01*
X34577806Y-57778992D01*
X34572822Y-57848684D01*
X34530950Y-57904617D01*
X34504095Y-57919910D01*
X34445378Y-57944232D01*
X34445366Y-57944238D01*
X34338831Y-58015423D01*
X34338827Y-58015426D01*
X34295375Y-58058880D01*
X34234052Y-58092366D01*
X34207693Y-58095200D01*
X32633781Y-58095200D01*
X32535358Y-58121571D01*
X32535359Y-58121572D01*
X32525564Y-58124196D01*
X32525560Y-58124198D01*
X32428540Y-58180213D01*
X32428534Y-58180217D01*
X32387287Y-58221465D01*
X32349315Y-58259437D01*
X32349313Y-58259439D01*
X31977703Y-58631049D01*
X31599596Y-59009155D01*
X31560341Y-59048410D01*
X31499018Y-59081895D01*
X31429326Y-59076911D01*
X31380188Y-59042535D01*
X31380066Y-59042658D01*
X31379370Y-59041962D01*
X31378372Y-59041264D01*
X31376622Y-59039215D01*
X31376621Y-59039213D01*
X31245787Y-58908379D01*
X31096096Y-58799622D01*
X31070286Y-58786471D01*
X30931235Y-58715620D01*
X30931232Y-58715619D01*
X30755265Y-58658445D01*
X30633056Y-58639089D01*
X30572514Y-58629500D01*
X30387486Y-58629500D01*
X30326944Y-58639089D01*
X30204734Y-58658445D01*
X30028767Y-58715619D01*
X30028764Y-58715620D01*
X29863903Y-58799622D01*
X29801528Y-58844941D01*
X29714213Y-58908379D01*
X29714211Y-58908381D01*
X29714210Y-58908381D01*
X29583381Y-59039210D01*
X29583381Y-59039211D01*
X29583379Y-59039213D01*
X29552369Y-59081895D01*
X29474622Y-59188903D01*
X29390620Y-59353764D01*
X29390619Y-59353767D01*
X29333445Y-59529734D01*
X29332473Y-59535872D01*
X29302544Y-59599007D01*
X29243232Y-59635938D01*
X29173370Y-59634940D01*
X29115137Y-59596330D01*
X29087527Y-59535872D01*
X29087356Y-59534798D01*
X29086555Y-59529736D01*
X29029379Y-59353765D01*
X29029379Y-59353764D01*
X28945377Y-59188903D01*
X28836621Y-59039213D01*
X28705787Y-58908379D01*
X28556096Y-58799622D01*
X28530286Y-58786471D01*
X28391235Y-58715620D01*
X28391232Y-58715619D01*
X28215265Y-58658445D01*
X28093056Y-58639089D01*
X28032514Y-58629500D01*
X27847486Y-58629500D01*
X27786944Y-58639089D01*
X27664734Y-58658445D01*
X27533562Y-58701065D01*
X27463720Y-58703060D01*
X27407563Y-58670815D01*
X23289417Y-54552669D01*
X23255932Y-54491346D01*
X23260916Y-54421654D01*
X23302788Y-54365721D01*
X23338776Y-54347058D01*
X23422445Y-54319873D01*
X23576788Y-54241232D01*
X23716928Y-54139414D01*
X23839414Y-54016928D01*
X23941232Y-53876788D01*
X24019873Y-53722445D01*
X24073402Y-53557701D01*
X24100500Y-53386611D01*
X24100500Y-53213389D01*
X24439500Y-53213389D01*
X24439500Y-53386611D01*
X24466598Y-53557701D01*
X24485486Y-53615833D01*
X24520128Y-53722447D01*
X24574210Y-53828590D01*
X24598768Y-53876788D01*
X24700586Y-54016928D01*
X24823072Y-54139414D01*
X24963212Y-54241232D01*
X25117555Y-54319873D01*
X25282299Y-54373402D01*
X25453389Y-54400500D01*
X25453390Y-54400500D01*
X25626610Y-54400500D01*
X25626611Y-54400500D01*
X25797701Y-54373402D01*
X25962445Y-54319873D01*
X26116788Y-54241232D01*
X26256928Y-54139414D01*
X26379414Y-54016928D01*
X26481232Y-53876788D01*
X26559873Y-53722445D01*
X26613402Y-53557701D01*
X26640500Y-53386611D01*
X26640500Y-53213389D01*
X26613402Y-53042299D01*
X26559873Y-52877555D01*
X26481232Y-52723212D01*
X26379414Y-52583072D01*
X26256928Y-52460586D01*
X26116788Y-52358768D01*
X25962445Y-52280127D01*
X25797701Y-52226598D01*
X25797699Y-52226597D01*
X25797698Y-52226597D01*
X25666271Y-52205781D01*
X25626611Y-52199500D01*
X25453389Y-52199500D01*
X25413728Y-52205781D01*
X25282302Y-52226597D01*
X25117552Y-52280128D01*
X24963211Y-52358768D01*
X24887433Y-52413825D01*
X24823072Y-52460586D01*
X24823070Y-52460588D01*
X24823069Y-52460588D01*
X24700588Y-52583069D01*
X24700588Y-52583070D01*
X24700586Y-52583072D01*
X24695384Y-52590232D01*
X24598768Y-52723211D01*
X24520128Y-52877552D01*
X24466597Y-53042302D01*
X24439500Y-53213389D01*
X24100500Y-53213389D01*
X24073402Y-53042299D01*
X24019873Y-52877555D01*
X23941232Y-52723212D01*
X23839414Y-52583072D01*
X23716928Y-52460586D01*
X23613357Y-52385337D01*
X23576786Y-52358766D01*
X23419798Y-52278778D01*
X23417892Y-52277393D01*
X23416670Y-52277128D01*
X23388493Y-52256035D01*
X23388414Y-52255978D01*
X23387345Y-52254909D01*
X23368716Y-52236280D01*
X23368713Y-52236278D01*
X19678515Y-48546080D01*
X19645030Y-48484757D01*
X19650014Y-48415065D01*
X19678513Y-48370721D01*
X19726572Y-48322661D01*
X19787895Y-48289178D01*
X19833650Y-48287871D01*
X19913384Y-48300500D01*
X19913389Y-48300500D01*
X20086610Y-48300500D01*
X20086611Y-48300500D01*
X20257701Y-48273402D01*
X20422445Y-48219873D01*
X20576788Y-48141232D01*
X20716928Y-48039414D01*
X20839414Y-47916928D01*
X20941232Y-47776788D01*
X21019873Y-47622445D01*
X21073402Y-47457701D01*
X21100500Y-47286611D01*
X21100500Y-47113389D01*
X21073402Y-46942299D01*
X21019873Y-46777555D01*
X20941232Y-46623212D01*
X20839414Y-46483072D01*
X20716928Y-46360586D01*
X20576788Y-46258768D01*
X20490109Y-46214603D01*
X20422447Y-46180128D01*
X20422446Y-46180127D01*
X20422445Y-46180127D01*
X20257701Y-46126598D01*
X20257699Y-46126597D01*
X20257698Y-46126597D01*
X20126271Y-46105781D01*
X20086611Y-46099500D01*
X19913389Y-46099500D01*
X19873728Y-46105781D01*
X19742302Y-46126597D01*
X19577552Y-46180128D01*
X19423211Y-46258768D01*
X19382482Y-46288360D01*
X19283072Y-46360586D01*
X19283070Y-46360588D01*
X19283069Y-46360588D01*
X19160588Y-46483069D01*
X19160588Y-46483070D01*
X19160586Y-46483072D01*
X19134891Y-46518438D01*
X19058768Y-46623211D01*
X18980128Y-46777552D01*
X18926597Y-46942302D01*
X18899500Y-47113389D01*
X18899500Y-47286616D01*
X18912128Y-47366349D01*
X18903173Y-47435642D01*
X18877336Y-47473427D01*
X18529184Y-47821581D01*
X18502256Y-47836284D01*
X18476438Y-47852877D01*
X18470237Y-47853768D01*
X18467861Y-47855066D01*
X18441503Y-47857900D01*
X18213925Y-47857900D01*
X18146886Y-47838215D01*
X18101131Y-47785411D01*
X18091187Y-47716253D01*
X18103440Y-47677605D01*
X18112085Y-47660637D01*
X18170451Y-47481002D01*
X18200000Y-47294447D01*
X18200000Y-47105552D01*
X18170451Y-46918997D01*
X18112085Y-46739362D01*
X18026329Y-46571059D01*
X18007883Y-46545670D01*
X18007882Y-46545669D01*
X17400000Y-47153551D01*
X17400000Y-47147339D01*
X17372741Y-47045606D01*
X17320080Y-46954394D01*
X17245606Y-46879920D01*
X17154394Y-46827259D01*
X17052661Y-46800000D01*
X17046447Y-46800000D01*
X17654328Y-46192116D01*
X17628933Y-46173666D01*
X17460637Y-46087914D01*
X17281002Y-46029548D01*
X17094447Y-46000000D01*
X16905553Y-46000000D01*
X16718997Y-46029548D01*
X16539362Y-46087914D01*
X16371060Y-46173669D01*
X16345670Y-46192116D01*
X16345669Y-46192116D01*
X16953554Y-46800000D01*
X16947339Y-46800000D01*
X16845606Y-46827259D01*
X16754394Y-46879920D01*
X16679920Y-46954394D01*
X16627259Y-47045606D01*
X16600000Y-47147339D01*
X16600000Y-47153553D01*
X15992116Y-46545669D01*
X15992116Y-46545670D01*
X15973669Y-46571060D01*
X15887914Y-46739362D01*
X15829548Y-46918997D01*
X15800000Y-47105552D01*
X15800000Y-47294447D01*
X15829548Y-47481002D01*
X15887914Y-47660637D01*
X15896560Y-47677605D01*
X15909456Y-47746274D01*
X15883180Y-47811015D01*
X15826073Y-47851272D01*
X15786075Y-47857900D01*
X13558497Y-47857900D01*
X13491458Y-47838215D01*
X13470816Y-47821581D01*
X13122662Y-47473427D01*
X13089177Y-47412104D01*
X13087870Y-47366352D01*
X13100500Y-47286611D01*
X13100500Y-47113389D01*
X13073402Y-46942299D01*
X13019873Y-46777555D01*
X12941232Y-46623212D01*
X12839414Y-46483072D01*
X12716928Y-46360586D01*
X12715325Y-46359421D01*
X12688194Y-46339708D01*
X12688171Y-46339693D01*
X12678898Y-46332956D01*
X12576788Y-46258768D01*
X12490109Y-46214603D01*
X12422447Y-46180128D01*
X12422446Y-46180127D01*
X12422445Y-46180127D01*
X12257701Y-46126598D01*
X12257699Y-46126597D01*
X12257698Y-46126597D01*
X12126271Y-46105781D01*
X12086611Y-46099500D01*
X11913389Y-46099500D01*
X11873728Y-46105781D01*
X11742302Y-46126597D01*
X11577552Y-46180128D01*
X11423211Y-46258768D01*
X11382482Y-46288360D01*
X11283072Y-46360586D01*
X11283070Y-46360588D01*
X11283069Y-46360588D01*
X11160588Y-46483069D01*
X11160588Y-46483070D01*
X11160586Y-46483072D01*
X11134891Y-46518438D01*
X11058768Y-46623211D01*
X10980128Y-46777552D01*
X10926597Y-46942302D01*
X10912703Y-47030027D01*
X10899500Y-47113389D01*
X10899500Y-47286611D01*
X10902170Y-47303466D01*
X10917955Y-47403135D01*
X10926598Y-47457701D01*
X10980127Y-47622445D01*
X11058768Y-47776788D01*
X11160586Y-47916928D01*
X11283072Y-48039414D01*
X11423212Y-48141232D01*
X11577555Y-48219873D01*
X11742299Y-48273402D01*
X11913389Y-48300500D01*
X11913390Y-48300500D01*
X12086609Y-48300500D01*
X12086611Y-48300500D01*
X12166350Y-48287870D01*
X12235641Y-48296824D01*
X12273427Y-48322662D01*
X12773539Y-48822774D01*
X12773549Y-48822785D01*
X12777879Y-48827115D01*
X12777880Y-48827116D01*
X12889684Y-48938920D01*
X12889686Y-48938921D01*
X12889690Y-48938924D01*
X12976807Y-48989220D01*
X13026616Y-49017977D01*
X13137096Y-49047580D01*
X13137095Y-49047580D01*
X13148415Y-49050612D01*
X13179342Y-49058900D01*
X13179343Y-49058900D01*
X18441503Y-49058900D01*
X18508542Y-49078585D01*
X18529184Y-49095219D01*
X22028281Y-52594316D01*
X22061766Y-52655639D01*
X22056782Y-52725331D01*
X22051088Y-52738283D01*
X22030887Y-52777932D01*
X21980129Y-52877549D01*
X21952942Y-52961221D01*
X21913503Y-53018896D01*
X21849144Y-53046093D01*
X21780298Y-53034178D01*
X21747330Y-53010582D01*
X18771565Y-50034817D01*
X18771563Y-50034815D01*
X18674537Y-49978797D01*
X18566318Y-49949800D01*
X18566317Y-49949800D01*
X14991707Y-49949800D01*
X14924668Y-49930115D01*
X14904025Y-49913480D01*
X14860572Y-49870026D01*
X14860568Y-49870023D01*
X14754033Y-49798838D01*
X14754024Y-49798833D01*
X14635644Y-49749799D01*
X14635638Y-49749797D01*
X14509971Y-49724800D01*
X14509969Y-49724800D01*
X14381831Y-49724800D01*
X14381829Y-49724800D01*
X14256161Y-49749797D01*
X14256155Y-49749799D01*
X14137775Y-49798833D01*
X14137766Y-49798838D01*
X14031231Y-49870023D01*
X14031227Y-49870026D01*
X13940626Y-49960627D01*
X13940623Y-49960631D01*
X13869438Y-50067166D01*
X13869433Y-50067175D01*
X13820399Y-50185555D01*
X13820397Y-50185561D01*
X13795400Y-50311228D01*
X13795400Y-50311231D01*
X13795400Y-50439369D01*
X13795400Y-50439371D01*
X13795399Y-50439371D01*
X13820397Y-50565038D01*
X13820399Y-50565044D01*
X13869433Y-50683424D01*
X13869438Y-50683433D01*
X13940623Y-50789968D01*
X13940626Y-50789972D01*
X14031227Y-50880573D01*
X14031231Y-50880576D01*
X14137766Y-50951761D01*
X14137775Y-50951766D01*
X14164592Y-50962874D01*
X14256156Y-51000801D01*
X14256160Y-51000801D01*
X14256161Y-51000802D01*
X14381828Y-51025800D01*
X14381831Y-51025800D01*
X14509971Y-51025800D01*
X14594515Y-51008982D01*
X14635644Y-51000801D01*
X14754027Y-50951765D01*
X14860569Y-50880576D01*
X14904025Y-50837120D01*
X14965348Y-50803634D01*
X14991707Y-50800800D01*
X18282690Y-50800800D01*
X18349729Y-50820485D01*
X18370371Y-50837119D01*
X19522471Y-51989219D01*
X19555956Y-52050542D01*
X19550972Y-52120234D01*
X19509100Y-52176167D01*
X19454188Y-52199373D01*
X19282302Y-52226597D01*
X19117552Y-52280128D01*
X18963211Y-52358768D01*
X18887433Y-52413825D01*
X18823072Y-52460586D01*
X18823070Y-52460588D01*
X18823069Y-52460588D01*
X18700588Y-52583069D01*
X18700588Y-52583070D01*
X18700586Y-52583072D01*
X18695384Y-52590232D01*
X18598768Y-52723211D01*
X18520128Y-52877552D01*
X18466597Y-53042302D01*
X18439500Y-53213389D01*
X18439500Y-53386611D01*
X18466598Y-53557701D01*
X18485486Y-53615833D01*
X18520128Y-53722447D01*
X18574210Y-53828590D01*
X18598768Y-53876788D01*
X18700586Y-54016928D01*
X18823072Y-54139414D01*
X18963212Y-54241232D01*
X19117555Y-54319873D01*
X19282299Y-54373402D01*
X19453389Y-54400500D01*
X19453390Y-54400500D01*
X19626610Y-54400500D01*
X19626611Y-54400500D01*
X19797701Y-54373402D01*
X19962445Y-54319873D01*
X20116788Y-54241232D01*
X20256928Y-54139414D01*
X20379414Y-54016928D01*
X20481232Y-53876788D01*
X20559873Y-53722445D01*
X20613402Y-53557701D01*
X20640500Y-53386611D01*
X20640500Y-53386607D01*
X20640626Y-53385812D01*
X20670555Y-53322677D01*
X20729866Y-53285745D01*
X20799729Y-53286743D01*
X20850780Y-53317528D01*
X23011515Y-55478263D01*
X23045000Y-55539586D01*
X23040016Y-55609278D01*
X22998144Y-55665211D01*
X22971288Y-55680505D01*
X22916173Y-55703335D01*
X22916166Y-55703338D01*
X22809631Y-55774523D01*
X22809627Y-55774526D01*
X22719026Y-55865127D01*
X22719023Y-55865131D01*
X22647838Y-55971666D01*
X22647833Y-55971675D01*
X22598799Y-56090055D01*
X22598797Y-56090061D01*
X22573800Y-56215728D01*
X22573800Y-56277189D01*
X22554115Y-56344228D01*
X22537481Y-56364870D01*
X21311295Y-57591055D01*
X21311296Y-57591056D01*
X21249514Y-57652838D01*
X21249513Y-57652840D01*
X21193498Y-57749860D01*
X21193497Y-57749863D01*
X21164500Y-57858082D01*
X21164500Y-58722203D01*
X21144815Y-58789242D01*
X21092011Y-58834997D01*
X21022853Y-58844941D01*
X20967615Y-58822521D01*
X20936099Y-58799624D01*
X20936098Y-58799623D01*
X20936096Y-58799622D01*
X20862365Y-58762054D01*
X20771235Y-58715620D01*
X20771232Y-58715619D01*
X20595265Y-58658445D01*
X20473056Y-58639089D01*
X20412514Y-58629500D01*
X20227486Y-58629500D01*
X20166944Y-58639089D01*
X20044734Y-58658445D01*
X19868767Y-58715619D01*
X19868764Y-58715620D01*
X19703903Y-58799622D01*
X19641528Y-58844941D01*
X19554213Y-58908379D01*
X19554211Y-58908381D01*
X19554210Y-58908381D01*
X19423381Y-59039210D01*
X19423381Y-59039211D01*
X19423379Y-59039213D01*
X19392369Y-59081895D01*
X19314622Y-59188903D01*
X19230620Y-59353764D01*
X19230619Y-59353767D01*
X19173445Y-59529734D01*
X19172473Y-59535872D01*
X19142544Y-59599007D01*
X19083232Y-59635938D01*
X19013370Y-59634940D01*
X18955137Y-59596330D01*
X18927527Y-59535872D01*
X18927356Y-59534798D01*
X18926555Y-59529736D01*
X18869379Y-59353765D01*
X18869379Y-59353764D01*
X18785377Y-59188903D01*
X18676621Y-59039213D01*
X18545787Y-58908379D01*
X18396096Y-58799622D01*
X18370286Y-58786471D01*
X18231235Y-58715620D01*
X18231232Y-58715619D01*
X18055265Y-58658445D01*
X17933056Y-58639089D01*
X17872514Y-58629500D01*
X17687486Y-58629500D01*
X17626944Y-58639089D01*
X17504734Y-58658445D01*
X17328767Y-58715619D01*
X17328764Y-58715620D01*
X17163903Y-58799622D01*
X17101528Y-58844941D01*
X17014213Y-58908379D01*
X17014211Y-58908381D01*
X17014210Y-58908381D01*
X16883381Y-59039210D01*
X16883381Y-59039211D01*
X16883379Y-59039213D01*
X16852369Y-59081895D01*
X16774622Y-59188903D01*
X16690620Y-59353764D01*
X16690619Y-59353767D01*
X16633445Y-59529734D01*
X16632473Y-59535872D01*
X16602544Y-59599007D01*
X16543232Y-59635938D01*
X16473370Y-59634940D01*
X16415137Y-59596330D01*
X16387527Y-59535872D01*
X16387356Y-59534798D01*
X16386555Y-59529736D01*
X16329379Y-59353765D01*
X16329379Y-59353764D01*
X16245377Y-59188903D01*
X16136621Y-59039213D01*
X16005787Y-58908379D01*
X15856096Y-58799622D01*
X15830286Y-58786471D01*
X15691235Y-58715620D01*
X15691232Y-58715619D01*
X15515265Y-58658445D01*
X15393056Y-58639089D01*
X15332514Y-58629500D01*
X15147486Y-58629500D01*
X15086944Y-58639089D01*
X14964734Y-58658445D01*
X14788767Y-58715619D01*
X14788764Y-58715620D01*
X14623903Y-58799622D01*
X14561528Y-58844941D01*
X14474213Y-58908379D01*
X14474211Y-58908381D01*
X14474210Y-58908381D01*
X14343381Y-59039210D01*
X14343381Y-59039211D01*
X14343379Y-59039213D01*
X14312369Y-59081895D01*
X14234622Y-59188903D01*
X14150620Y-59353764D01*
X14150619Y-59353767D01*
X14093445Y-59529734D01*
X14092473Y-59535872D01*
X14062544Y-59599007D01*
X14003232Y-59635938D01*
X13933370Y-59634940D01*
X13875137Y-59596330D01*
X13847527Y-59535872D01*
X13847356Y-59534798D01*
X13846555Y-59529736D01*
X13789379Y-59353765D01*
X13789379Y-59353764D01*
X13705377Y-59188903D01*
X13596621Y-59039213D01*
X13465787Y-58908379D01*
X13316096Y-58799622D01*
X13290286Y-58786471D01*
X13151235Y-58715620D01*
X13151232Y-58715619D01*
X12975265Y-58658445D01*
X12853056Y-58639089D01*
X12792514Y-58629500D01*
X12607486Y-58629500D01*
X12546944Y-58639089D01*
X12424734Y-58658445D01*
X12248767Y-58715619D01*
X12248764Y-58715620D01*
X12083903Y-58799622D01*
X12021528Y-58844941D01*
X11934213Y-58908379D01*
X11934211Y-58908381D01*
X11934210Y-58908381D01*
X11803381Y-59039210D01*
X11803381Y-59039211D01*
X11803379Y-59039213D01*
X11772369Y-59081895D01*
X11694622Y-59188903D01*
X11610620Y-59353764D01*
X11610619Y-59353767D01*
X11553445Y-59529734D01*
X11552473Y-59535872D01*
X11522544Y-59599007D01*
X11463232Y-59635938D01*
X11393370Y-59634940D01*
X11335137Y-59596330D01*
X11307527Y-59535872D01*
X11307356Y-59534798D01*
X11306555Y-59529736D01*
X11249379Y-59353765D01*
X11249379Y-59353764D01*
X11165377Y-59188903D01*
X11056621Y-59039213D01*
X10925787Y-58908379D01*
X10776096Y-58799622D01*
X10750286Y-58786471D01*
X10611235Y-58715620D01*
X10611232Y-58715619D01*
X10435265Y-58658445D01*
X10313056Y-58639089D01*
X10252514Y-58629500D01*
X10067486Y-58629500D01*
X10006944Y-58639089D01*
X9884734Y-58658445D01*
X9708767Y-58715619D01*
X9708764Y-58715620D01*
X9543903Y-58799622D01*
X9481528Y-58844941D01*
X9394213Y-58908379D01*
X9394211Y-58908381D01*
X9394210Y-58908381D01*
X9263376Y-59039215D01*
X9261664Y-59041220D01*
X9260823Y-59041768D01*
X9259934Y-59042658D01*
X9259747Y-59042471D01*
X9203151Y-59079405D01*
X9133283Y-59079894D01*
X9079704Y-59048356D01*
X6857065Y-56825717D01*
X6857063Y-56825715D01*
X6760037Y-56769697D01*
X6651818Y-56740700D01*
X6651817Y-56740700D01*
X2551707Y-56740700D01*
X2484668Y-56721015D01*
X2464025Y-56704380D01*
X2420572Y-56660926D01*
X2420568Y-56660923D01*
X2314033Y-56589738D01*
X2314024Y-56589733D01*
X2195644Y-56540699D01*
X2195638Y-56540697D01*
X2069971Y-56515700D01*
X2069969Y-56515700D01*
X1941831Y-56515700D01*
X1941829Y-56515700D01*
X1816161Y-56540697D01*
X1816155Y-56540699D01*
X1697775Y-56589733D01*
X1697766Y-56589738D01*
X1591231Y-56660923D01*
X1591227Y-56660926D01*
X1500626Y-56751527D01*
X1500623Y-56751531D01*
X1429438Y-56858066D01*
X1429433Y-56858075D01*
X1380399Y-56976455D01*
X1380397Y-56976461D01*
X1355400Y-57102128D01*
X1355400Y-57102131D01*
X1355400Y-57230269D01*
X1355400Y-57230271D01*
X1355399Y-57230271D01*
X1380397Y-57355938D01*
X1380398Y-57355942D01*
X1380399Y-57355944D01*
X1386137Y-57369797D01*
X1429433Y-57474324D01*
X1429438Y-57474333D01*
X1500623Y-57580868D01*
X1500626Y-57580872D01*
X1591227Y-57671473D01*
X1591231Y-57671476D01*
X1697766Y-57742661D01*
X1697772Y-57742664D01*
X1697773Y-57742665D01*
X1816156Y-57791701D01*
X1816160Y-57791701D01*
X1816161Y-57791702D01*
X1941828Y-57816700D01*
X1941831Y-57816700D01*
X2069971Y-57816700D01*
X2154515Y-57799882D01*
X2195644Y-57791701D01*
X2314027Y-57742665D01*
X2420569Y-57671476D01*
X2464025Y-57628020D01*
X2525348Y-57594534D01*
X2551707Y-57591700D01*
X6368190Y-57591700D01*
X6435229Y-57611385D01*
X6455871Y-57628019D01*
X7308497Y-58480645D01*
X7341982Y-58541968D01*
X7336998Y-58611660D01*
X7295126Y-58667593D01*
X7259135Y-58686257D01*
X7168764Y-58715621D01*
X7003903Y-58799622D01*
X6941528Y-58844941D01*
X6854213Y-58908379D01*
X6854211Y-58908381D01*
X6854210Y-58908381D01*
X6723381Y-59039210D01*
X6723381Y-59039211D01*
X6723379Y-59039213D01*
X6692369Y-59081895D01*
X6614622Y-59188903D01*
X6530620Y-59353764D01*
X6530619Y-59353767D01*
X6473445Y-59529734D01*
X6472473Y-59535872D01*
X6442544Y-59599007D01*
X6383232Y-59635938D01*
X6313370Y-59634940D01*
X6255137Y-59596330D01*
X6227527Y-59535872D01*
X6227356Y-59534798D01*
X6226555Y-59529736D01*
X6169379Y-59353765D01*
X6169379Y-59353764D01*
X6085377Y-59188903D01*
X5976621Y-59039213D01*
X5845787Y-58908379D01*
X5696096Y-58799622D01*
X5670286Y-58786471D01*
X5531235Y-58715620D01*
X5531232Y-58715619D01*
X5355265Y-58658445D01*
X5233056Y-58639089D01*
X5172514Y-58629500D01*
X4987486Y-58629500D01*
X4926944Y-58639089D01*
X4804734Y-58658445D01*
X4628767Y-58715619D01*
X4628764Y-58715620D01*
X4463903Y-58799622D01*
X4401528Y-58844941D01*
X4314213Y-58908379D01*
X4314211Y-58908381D01*
X4314210Y-58908381D01*
X4183381Y-59039210D01*
X4183381Y-59039211D01*
X4183379Y-59039213D01*
X4152369Y-59081895D01*
X4074622Y-59188903D01*
X3990620Y-59353764D01*
X3990619Y-59353767D01*
X3933445Y-59529734D01*
X3904500Y-59712486D01*
X3904500Y-59897513D01*
X3933445Y-60080265D01*
X3990619Y-60256232D01*
X3990620Y-60256235D01*
X4035140Y-60343609D01*
X4074622Y-60421096D01*
X4183379Y-60570787D01*
X4314213Y-60701621D01*
X4463904Y-60810378D01*
X4544763Y-60851577D01*
X4628764Y-60894379D01*
X4628767Y-60894380D01*
X4680227Y-60911100D01*
X4804736Y-60951555D01*
X4987486Y-60980500D01*
X4987487Y-60980500D01*
X5172513Y-60980500D01*
X5172514Y-60980500D01*
X5355264Y-60951555D01*
X5531235Y-60894379D01*
X5696096Y-60810378D01*
X5845787Y-60701621D01*
X5976621Y-60570787D01*
X6085378Y-60421096D01*
X6169379Y-60256235D01*
X6226555Y-60080264D01*
X6227527Y-60074126D01*
X6257455Y-60010994D01*
X6316766Y-59974062D01*
X6386629Y-59975058D01*
X6444862Y-60013667D01*
X6472472Y-60074126D01*
X6473445Y-60080264D01*
X6473446Y-60080269D01*
X6530619Y-60256232D01*
X6530620Y-60256235D01*
X6575140Y-60343609D01*
X6614622Y-60421096D01*
X6723379Y-60570787D01*
X6854213Y-60701621D01*
X7003904Y-60810378D01*
X7084763Y-60851577D01*
X7168764Y-60894379D01*
X7168767Y-60894380D01*
X7220227Y-60911100D01*
X7344736Y-60951555D01*
X7527486Y-60980500D01*
X7527487Y-60980500D01*
X7712513Y-60980500D01*
X7712514Y-60980500D01*
X7895264Y-60951555D01*
X8071235Y-60894379D01*
X8236096Y-60810378D01*
X8385787Y-60701621D01*
X8515199Y-60572209D01*
X8576522Y-60538724D01*
X8646214Y-60543708D01*
X8690561Y-60572209D01*
X9405537Y-61287185D01*
X9502563Y-61343203D01*
X9610782Y-61372200D01*
X9722819Y-61372200D01*
X11304090Y-61372200D01*
X11371129Y-61391885D01*
X11391771Y-61408519D01*
X13408358Y-63425106D01*
X13441843Y-63486429D01*
X13436859Y-63556121D01*
X13394987Y-63612054D01*
X13329523Y-63636471D01*
X13264382Y-63623272D01*
X13151235Y-63565621D01*
X13151232Y-63565619D01*
X12975265Y-63508445D01*
X12875356Y-63492621D01*
X12792514Y-63479500D01*
X12607486Y-63479500D01*
X12563732Y-63486430D01*
X12424734Y-63508445D01*
X12248767Y-63565619D01*
X12248764Y-63565620D01*
X12083903Y-63649622D01*
X12000784Y-63710012D01*
X11934213Y-63758379D01*
X11934211Y-63758381D01*
X11934210Y-63758381D01*
X11803381Y-63889210D01*
X11803381Y-63889211D01*
X11803379Y-63889213D01*
X11762953Y-63944854D01*
X11694622Y-64038903D01*
X11610620Y-64203764D01*
X11610619Y-64203767D01*
X11553445Y-64379734D01*
X11552473Y-64385872D01*
X11522544Y-64449007D01*
X11463232Y-64485938D01*
X11393370Y-64484940D01*
X11335137Y-64446330D01*
X11307527Y-64385872D01*
X11306658Y-64380389D01*
X11306555Y-64379736D01*
X11277967Y-64291750D01*
X11249380Y-64203767D01*
X11249379Y-64203764D01*
X11191726Y-64090615D01*
X11165378Y-64038904D01*
X11056621Y-63889213D01*
X10925787Y-63758379D01*
X10776096Y-63649622D01*
X10749693Y-63636169D01*
X10611235Y-63565620D01*
X10611232Y-63565619D01*
X10435265Y-63508445D01*
X10335356Y-63492621D01*
X10252514Y-63479500D01*
X10067486Y-63479500D01*
X10023732Y-63486430D01*
X9884734Y-63508445D01*
X9708767Y-63565619D01*
X9708764Y-63565620D01*
X9543903Y-63649622D01*
X9460784Y-63710012D01*
X9394213Y-63758379D01*
X9394211Y-63758381D01*
X9394210Y-63758381D01*
X9263381Y-63889210D01*
X9263381Y-63889211D01*
X9263379Y-63889213D01*
X9222953Y-63944854D01*
X9154622Y-64038903D01*
X9070620Y-64203764D01*
X9070619Y-64203767D01*
X9013445Y-64379734D01*
X9012473Y-64385872D01*
X8982544Y-64449007D01*
X8923232Y-64485938D01*
X8853370Y-64484940D01*
X8795137Y-64446330D01*
X8767527Y-64385872D01*
X8766658Y-64380389D01*
X8766555Y-64379736D01*
X8737967Y-64291750D01*
X8709380Y-64203767D01*
X8709379Y-64203764D01*
X8651726Y-64090615D01*
X8625378Y-64038904D01*
X8516621Y-63889213D01*
X8385787Y-63758379D01*
X8236096Y-63649622D01*
X8209693Y-63636169D01*
X8071235Y-63565620D01*
X8071232Y-63565619D01*
X7895265Y-63508445D01*
X7795356Y-63492621D01*
X7712514Y-63479500D01*
X7527486Y-63479500D01*
X7483732Y-63486430D01*
X7344734Y-63508445D01*
X7168767Y-63565619D01*
X7168764Y-63565620D01*
X7003903Y-63649622D01*
X6920784Y-63710012D01*
X6854213Y-63758379D01*
X6854211Y-63758381D01*
X6854210Y-63758381D01*
X6723381Y-63889210D01*
X6723381Y-63889211D01*
X6723379Y-63889213D01*
X6682953Y-63944854D01*
X6614622Y-64038903D01*
X6530620Y-64203764D01*
X6530619Y-64203767D01*
X6473445Y-64379734D01*
X6472473Y-64385872D01*
X6442544Y-64449007D01*
X6383232Y-64485938D01*
X6313370Y-64484940D01*
X6255137Y-64446330D01*
X6227527Y-64385872D01*
X6226658Y-64380389D01*
X6226555Y-64379736D01*
X6197967Y-64291750D01*
X6169380Y-64203767D01*
X6169379Y-64203764D01*
X6111726Y-64090615D01*
X6085378Y-64038904D01*
X5976621Y-63889213D01*
X5845787Y-63758379D01*
X5696096Y-63649622D01*
X5669693Y-63636169D01*
X5531235Y-63565620D01*
X5531232Y-63565619D01*
X5355265Y-63508445D01*
X5255356Y-63492621D01*
X5172514Y-63479500D01*
X4987486Y-63479500D01*
X4943732Y-63486430D01*
X4804734Y-63508445D01*
X4628767Y-63565619D01*
X4628764Y-63565620D01*
X4463903Y-63649622D01*
X4380784Y-63710012D01*
X4314213Y-63758379D01*
X4314211Y-63758381D01*
X4314210Y-63758381D01*
X4183381Y-63889210D01*
X4183381Y-63889211D01*
X4183379Y-63889213D01*
X4142953Y-63944854D01*
X4074622Y-64038903D01*
X3990620Y-64203764D01*
X3990619Y-64203767D01*
X3933445Y-64379734D01*
X3904500Y-64562486D01*
X3904500Y-64747513D01*
X3933445Y-64930265D01*
X3990619Y-65106232D01*
X3990620Y-65106235D01*
X4010083Y-65144432D01*
X4074622Y-65271096D01*
X4183379Y-65420787D01*
X4183381Y-65420789D01*
X4290411Y-65527819D01*
X4323896Y-65589142D01*
X4318912Y-65658834D01*
X4277040Y-65714767D01*
X4211576Y-65739184D01*
X4202730Y-65739500D01*
X424500Y-65739500D01*
X357461Y-65719815D01*
X311706Y-65667011D01*
X300500Y-65615500D01*
X300500Y-53213389D01*
X3899500Y-53213389D01*
X3899500Y-53386611D01*
X3926598Y-53557701D01*
X3945486Y-53615833D01*
X3980128Y-53722447D01*
X4034210Y-53828590D01*
X4058768Y-53876788D01*
X4160586Y-54016928D01*
X4283072Y-54139414D01*
X4423212Y-54241232D01*
X4577555Y-54319873D01*
X4742299Y-54373402D01*
X4913389Y-54400500D01*
X4913390Y-54400500D01*
X5086610Y-54400500D01*
X5086611Y-54400500D01*
X5257701Y-54373402D01*
X5422445Y-54319873D01*
X5576788Y-54241232D01*
X5716928Y-54139414D01*
X5839414Y-54016928D01*
X5941232Y-53876788D01*
X6019873Y-53722445D01*
X6073402Y-53557701D01*
X6100500Y-53386611D01*
X6100500Y-53213389D01*
X6073402Y-53042299D01*
X6019873Y-52877555D01*
X5941232Y-52723212D01*
X5839414Y-52583072D01*
X5716928Y-52460586D01*
X5576788Y-52358768D01*
X5422445Y-52280127D01*
X5257701Y-52226598D01*
X5257699Y-52226597D01*
X5257698Y-52226597D01*
X5126271Y-52205781D01*
X5086611Y-52199500D01*
X4913389Y-52199500D01*
X4873728Y-52205781D01*
X4742302Y-52226597D01*
X4577552Y-52280128D01*
X4423211Y-52358768D01*
X4347433Y-52413825D01*
X4283072Y-52460586D01*
X4283070Y-52460588D01*
X4283069Y-52460588D01*
X4160588Y-52583069D01*
X4160588Y-52583070D01*
X4160586Y-52583072D01*
X4155384Y-52590232D01*
X4058768Y-52723211D01*
X3980128Y-52877552D01*
X3926597Y-53042302D01*
X3899500Y-53213389D01*
X300500Y-53213389D01*
X300500Y-47113389D01*
X2899500Y-47113389D01*
X2899500Y-47286611D01*
X2902170Y-47303466D01*
X2917955Y-47403135D01*
X2926598Y-47457701D01*
X2980127Y-47622445D01*
X3058768Y-47776788D01*
X3160586Y-47916928D01*
X3283072Y-48039414D01*
X3423212Y-48141232D01*
X3577555Y-48219873D01*
X3742299Y-48273402D01*
X3913389Y-48300500D01*
X3913390Y-48300500D01*
X4086610Y-48300500D01*
X4086611Y-48300500D01*
X4257701Y-48273402D01*
X4422445Y-48219873D01*
X4576788Y-48141232D01*
X4716928Y-48039414D01*
X4839414Y-47916928D01*
X4941232Y-47776788D01*
X5019873Y-47622445D01*
X5073402Y-47457701D01*
X5100500Y-47286611D01*
X5100500Y-47113389D01*
X5073402Y-46942299D01*
X5019873Y-46777555D01*
X4941232Y-46623212D01*
X4839414Y-46483072D01*
X4716928Y-46360586D01*
X4576788Y-46258768D01*
X4490109Y-46214603D01*
X4422447Y-46180128D01*
X4422446Y-46180127D01*
X4422445Y-46180127D01*
X4257701Y-46126598D01*
X4257699Y-46126597D01*
X4257698Y-46126597D01*
X4126271Y-46105781D01*
X4086611Y-46099500D01*
X3913389Y-46099500D01*
X3873728Y-46105781D01*
X3742302Y-46126597D01*
X3577552Y-46180128D01*
X3423211Y-46258768D01*
X3382482Y-46288360D01*
X3283072Y-46360586D01*
X3283070Y-46360588D01*
X3283069Y-46360588D01*
X3160588Y-46483069D01*
X3160588Y-46483070D01*
X3160586Y-46483072D01*
X3134891Y-46518438D01*
X3058768Y-46623211D01*
X2980128Y-46777552D01*
X2926597Y-46942302D01*
X2912703Y-47030027D01*
X2899500Y-47113389D01*
X300500Y-47113389D01*
X300500Y-12613389D01*
X4849500Y-12613389D01*
X4849500Y-12786611D01*
X4855470Y-12824303D01*
X4876594Y-12957680D01*
X4876598Y-12957701D01*
X4930127Y-13122445D01*
X5008768Y-13276788D01*
X5110586Y-13416928D01*
X5233072Y-13539414D01*
X5373212Y-13641232D01*
X5527555Y-13719873D01*
X5692299Y-13773402D01*
X5863389Y-13800500D01*
X5863390Y-13800500D01*
X6836610Y-13800500D01*
X6836611Y-13800500D01*
X7007701Y-13773402D01*
X7172445Y-13719873D01*
X7326788Y-13641232D01*
X7466928Y-13539414D01*
X7589414Y-13416928D01*
X7691232Y-13276788D01*
X7769873Y-13122445D01*
X7823402Y-12957701D01*
X7850500Y-12786611D01*
X7850500Y-12613389D01*
X7823402Y-12442299D01*
X7769873Y-12277555D01*
X7691232Y-12123212D01*
X7589414Y-11983072D01*
X7466928Y-11860586D01*
X7326788Y-11758768D01*
X7172445Y-11680127D01*
X7007701Y-11626598D01*
X7007699Y-11626597D01*
X7007698Y-11626597D01*
X6876271Y-11605781D01*
X6836611Y-11599500D01*
X5863389Y-11599500D01*
X5823728Y-11605781D01*
X5692302Y-11626597D01*
X5692299Y-11626598D01*
X5534748Y-11677790D01*
X5527552Y-11680128D01*
X5373211Y-11758768D01*
X5298754Y-11812865D01*
X5233072Y-11860586D01*
X5233070Y-11860588D01*
X5233069Y-11860588D01*
X5110588Y-11983069D01*
X5110588Y-11983070D01*
X5110586Y-11983072D01*
X5084891Y-12018438D01*
X5008768Y-12123211D01*
X4930128Y-12277552D01*
X4876597Y-12442302D01*
X4871101Y-12477006D01*
X4849500Y-12613389D01*
X300500Y-12613389D01*
X300500Y-4486898D01*
X4849500Y-4486898D01*
X4849500Y-5673102D01*
X4854750Y-5716819D01*
X4860122Y-5761561D01*
X4915639Y-5902343D01*
X5007077Y-6022922D01*
X5127656Y-6114360D01*
X5127657Y-6114360D01*
X5127658Y-6114361D01*
X5268436Y-6169877D01*
X5356898Y-6180500D01*
X5356903Y-6180500D01*
X7343097Y-6180500D01*
X7343102Y-6180500D01*
X7431564Y-6169877D01*
X7572342Y-6114361D01*
X7692922Y-6022922D01*
X7784361Y-5902342D01*
X7839877Y-5761564D01*
X7850500Y-5673102D01*
X7850500Y-4486898D01*
X7839877Y-4398436D01*
X7784361Y-4257658D01*
X7784360Y-4257657D01*
X7784360Y-4257656D01*
X7692922Y-4137077D01*
X7572343Y-4045639D01*
X7431561Y-3990122D01*
X7385926Y-3984642D01*
X7343102Y-3979500D01*
X5356898Y-3979500D01*
X5317853Y-3984188D01*
X5268438Y-3990122D01*
X5127656Y-4045639D01*
X5007077Y-4137077D01*
X4915639Y-4257656D01*
X4860122Y-4398438D01*
X4856526Y-4428386D01*
X4849500Y-4486898D01*
X300500Y-4486898D01*
X300500Y-424500D01*
X320185Y-357461D01*
X372989Y-311706D01*
X424500Y-300500D01*
X78315500Y-300500D01*
X78382539Y-320185D01*
G37*
%TD.AperFunction*%
%TA.AperFunction,Conductor*%
G36*
X40164755Y-64851853D02*
G01*
X40231898Y-64968147D01*
X40326853Y-65063102D01*
X40443147Y-65130245D01*
X40502425Y-65146128D01*
X39945371Y-65703181D01*
X39884048Y-65736666D01*
X39857690Y-65739500D01*
X38977270Y-65739500D01*
X38910231Y-65719815D01*
X38864476Y-65667011D01*
X38854532Y-65597853D01*
X38883557Y-65534297D01*
X38889589Y-65527819D01*
X38996621Y-65420787D01*
X39105378Y-65271096D01*
X39189379Y-65106235D01*
X39189382Y-65106227D01*
X39199759Y-65074290D01*
X39239196Y-65016614D01*
X39303554Y-64989415D01*
X39372401Y-65001329D01*
X39423877Y-65048573D01*
X39435621Y-65074289D01*
X39458412Y-65144432D01*
X39549522Y-65323246D01*
X39578422Y-65363022D01*
X39578422Y-65363023D01*
X40148871Y-64792574D01*
X40164755Y-64851853D01*
G37*
%TD.AperFunction*%
%TA.AperFunction,Conductor*%
G36*
X41701576Y-65363022D02*
G01*
X41730477Y-65323246D01*
X41821588Y-65144431D01*
X41844378Y-65074290D01*
X41883814Y-65016614D01*
X41948173Y-64989415D01*
X42017019Y-65001329D01*
X42068496Y-65048573D01*
X42080239Y-65074287D01*
X42090617Y-65106227D01*
X42090620Y-65106235D01*
X42110083Y-65144432D01*
X42174622Y-65271096D01*
X42283379Y-65420787D01*
X42283381Y-65420789D01*
X42390411Y-65527819D01*
X42423896Y-65589142D01*
X42418912Y-65658834D01*
X42377040Y-65714767D01*
X42311576Y-65739184D01*
X42302730Y-65739500D01*
X41422308Y-65739500D01*
X41355269Y-65719815D01*
X41334627Y-65703181D01*
X40777574Y-65146128D01*
X40836853Y-65130245D01*
X40953147Y-65063102D01*
X41048102Y-64968147D01*
X41115245Y-64851853D01*
X41131128Y-64792574D01*
X41701576Y-65363022D01*
G37*
%TD.AperFunction*%
%TA.AperFunction,Conductor*%
G36*
X60484755Y-64851853D02*
G01*
X60551898Y-64968147D01*
X60646853Y-65063102D01*
X60763147Y-65130245D01*
X60822425Y-65146128D01*
X60265371Y-65703181D01*
X60204048Y-65736666D01*
X60177690Y-65739500D01*
X59297270Y-65739500D01*
X59230231Y-65719815D01*
X59184476Y-65667011D01*
X59174532Y-65597853D01*
X59203557Y-65534297D01*
X59209589Y-65527819D01*
X59316621Y-65420787D01*
X59425378Y-65271096D01*
X59509379Y-65106235D01*
X59509382Y-65106227D01*
X59519759Y-65074290D01*
X59559196Y-65016614D01*
X59623554Y-64989415D01*
X59692401Y-65001329D01*
X59743877Y-65048573D01*
X59755621Y-65074289D01*
X59778412Y-65144432D01*
X59869522Y-65323246D01*
X59898422Y-65363022D01*
X59898423Y-65363023D01*
X60468871Y-64792574D01*
X60484755Y-64851853D01*
G37*
%TD.AperFunction*%
%TA.AperFunction,Conductor*%
G36*
X59726629Y-59975058D02*
G01*
X59784862Y-60013667D01*
X59812472Y-60074126D01*
X59813445Y-60080264D01*
X59813446Y-60080269D01*
X59870619Y-60256232D01*
X59870620Y-60256235D01*
X59915140Y-60343609D01*
X59954622Y-60421096D01*
X60063379Y-60570787D01*
X60194213Y-60701621D01*
X60343904Y-60810378D01*
X60424763Y-60851577D01*
X60508764Y-60894379D01*
X60508767Y-60894380D01*
X60560227Y-60911100D01*
X60684736Y-60951555D01*
X60867486Y-60980500D01*
X60867487Y-60980500D01*
X61052513Y-60980500D01*
X61052514Y-60980500D01*
X61235264Y-60951555D01*
X61411235Y-60894379D01*
X61576096Y-60810378D01*
X61725787Y-60701621D01*
X61856621Y-60570787D01*
X61965378Y-60421096D01*
X62049379Y-60256235D01*
X62100200Y-60099823D01*
X62139637Y-60042148D01*
X62203996Y-60014949D01*
X62272842Y-60026863D01*
X62305812Y-60050460D01*
X62779332Y-60523980D01*
X62812817Y-60585303D01*
X62813269Y-60635849D01*
X62812000Y-60642231D01*
X62812000Y-60770369D01*
X62812000Y-60770371D01*
X62811999Y-60770371D01*
X62836997Y-60896038D01*
X62836999Y-60896044D01*
X62886033Y-61014424D01*
X62886038Y-61014433D01*
X62957223Y-61120968D01*
X62957226Y-61120972D01*
X63047827Y-61211573D01*
X63047831Y-61211576D01*
X63154366Y-61282761D01*
X63154375Y-61282766D01*
X63165044Y-61287185D01*
X63272756Y-61331801D01*
X63272760Y-61331801D01*
X63272761Y-61331802D01*
X63398428Y-61356800D01*
X63398431Y-61356800D01*
X63526571Y-61356800D01*
X63611115Y-61339982D01*
X63652244Y-61331801D01*
X63770627Y-61282765D01*
X63877169Y-61211576D01*
X63967776Y-61120969D01*
X63975538Y-61109352D01*
X64029146Y-61064546D01*
X64098471Y-61055835D01*
X64161500Y-61085986D01*
X64166323Y-61090558D01*
X66364968Y-63289203D01*
X66398453Y-63350526D01*
X66393469Y-63420218D01*
X66351597Y-63476151D01*
X66286133Y-63500568D01*
X66257890Y-63499357D01*
X66132514Y-63479500D01*
X65947486Y-63479500D01*
X65903732Y-63486430D01*
X65764734Y-63508445D01*
X65588767Y-63565619D01*
X65588764Y-63565620D01*
X65423903Y-63649622D01*
X65340784Y-63710012D01*
X65274213Y-63758379D01*
X65274211Y-63758381D01*
X65274210Y-63758381D01*
X65143381Y-63889210D01*
X65143381Y-63889211D01*
X65143379Y-63889213D01*
X65102953Y-63944854D01*
X65034622Y-64038903D01*
X64950620Y-64203764D01*
X64950619Y-64203767D01*
X64893445Y-64379734D01*
X64864500Y-64562486D01*
X64864500Y-64747513D01*
X64893445Y-64930265D01*
X64950619Y-65106232D01*
X64950620Y-65106235D01*
X64970083Y-65144432D01*
X65034622Y-65271096D01*
X65143379Y-65420787D01*
X65143381Y-65420789D01*
X65250411Y-65527819D01*
X65283896Y-65589142D01*
X65278912Y-65658834D01*
X65237040Y-65714767D01*
X65171576Y-65739184D01*
X65162730Y-65739500D01*
X61742308Y-65739500D01*
X61675269Y-65719815D01*
X61654627Y-65703181D01*
X61097574Y-65146128D01*
X61156853Y-65130245D01*
X61273147Y-65063102D01*
X61368102Y-64968147D01*
X61435245Y-64851853D01*
X61451128Y-64792574D01*
X62021576Y-65363022D01*
X62050477Y-65323246D01*
X62141587Y-65144432D01*
X62203606Y-64953559D01*
X62235000Y-64755350D01*
X62235000Y-64554649D01*
X62203606Y-64356440D01*
X62141587Y-64165567D01*
X62050478Y-63986754D01*
X62021576Y-63946976D01*
X62021576Y-63946975D01*
X61451128Y-64517424D01*
X61435245Y-64458147D01*
X61368102Y-64341853D01*
X61273147Y-64246898D01*
X61156853Y-64179755D01*
X61097574Y-64163871D01*
X61668023Y-63593423D01*
X61668022Y-63593422D01*
X61628246Y-63564522D01*
X61449432Y-63473412D01*
X61258559Y-63411393D01*
X61060350Y-63380000D01*
X60859650Y-63380000D01*
X60661440Y-63411393D01*
X60470567Y-63473412D01*
X60291755Y-63564521D01*
X60251976Y-63593422D01*
X60822425Y-64163871D01*
X60763147Y-64179755D01*
X60646853Y-64246898D01*
X60551898Y-64341853D01*
X60484755Y-64458147D01*
X60468871Y-64517425D01*
X59898422Y-63946976D01*
X59869521Y-63986755D01*
X59778412Y-64165565D01*
X59755621Y-64235711D01*
X59716183Y-64293386D01*
X59651824Y-64320584D01*
X59582978Y-64308669D01*
X59531502Y-64261425D01*
X59519759Y-64235710D01*
X59509380Y-64203767D01*
X59509379Y-64203764D01*
X59451726Y-64090615D01*
X59425378Y-64038904D01*
X59316621Y-63889213D01*
X59185787Y-63758379D01*
X59036096Y-63649622D01*
X59009693Y-63636169D01*
X58871235Y-63565620D01*
X58871232Y-63565619D01*
X58695265Y-63508445D01*
X58595356Y-63492621D01*
X58512514Y-63479500D01*
X58327486Y-63479500D01*
X58290936Y-63485289D01*
X58144732Y-63508445D01*
X58013560Y-63551065D01*
X57943719Y-63553060D01*
X57887562Y-63520815D01*
X55534253Y-61167505D01*
X55500768Y-61106182D01*
X55505752Y-61036490D01*
X55547624Y-60980557D01*
X55613088Y-60956140D01*
X55641329Y-60957350D01*
X55787486Y-60980500D01*
X55787487Y-60980500D01*
X55972513Y-60980500D01*
X55972514Y-60980500D01*
X56155264Y-60951555D01*
X56331235Y-60894379D01*
X56496096Y-60810378D01*
X56645787Y-60701621D01*
X56776621Y-60570787D01*
X56885378Y-60421096D01*
X56969379Y-60256235D01*
X57026555Y-60080264D01*
X57027527Y-60074126D01*
X57057455Y-60010994D01*
X57116766Y-59974062D01*
X57186629Y-59975058D01*
X57244862Y-60013667D01*
X57272472Y-60074126D01*
X57273445Y-60080264D01*
X57273446Y-60080269D01*
X57330619Y-60256232D01*
X57330620Y-60256235D01*
X57375140Y-60343609D01*
X57414622Y-60421096D01*
X57523379Y-60570787D01*
X57654213Y-60701621D01*
X57803904Y-60810378D01*
X57884763Y-60851577D01*
X57968764Y-60894379D01*
X57968767Y-60894380D01*
X58020227Y-60911100D01*
X58144736Y-60951555D01*
X58327486Y-60980500D01*
X58327487Y-60980500D01*
X58512513Y-60980500D01*
X58512514Y-60980500D01*
X58695264Y-60951555D01*
X58871235Y-60894379D01*
X59036096Y-60810378D01*
X59185787Y-60701621D01*
X59316621Y-60570787D01*
X59425378Y-60421096D01*
X59509379Y-60256235D01*
X59566555Y-60080264D01*
X59567527Y-60074126D01*
X59597455Y-60010994D01*
X59656766Y-59974062D01*
X59726629Y-59975058D01*
G37*
%TD.AperFunction*%
%TA.AperFunction,Conductor*%
G36*
X52167629Y-45433385D02*
G01*
X52188271Y-45450019D01*
X52426571Y-45688319D01*
X52460056Y-45749642D01*
X52455072Y-45819334D01*
X52413200Y-45875267D01*
X52347736Y-45899684D01*
X52338890Y-45900000D01*
X52250000Y-45900000D01*
X52250000Y-46824722D01*
X52173694Y-46780667D01*
X52059244Y-46750000D01*
X51940756Y-46750000D01*
X51826306Y-46780667D01*
X51750000Y-46824722D01*
X51750000Y-45900000D01*
X51068520Y-45900000D01*
X50974850Y-45914835D01*
X50974844Y-45914837D01*
X50861958Y-45972356D01*
X50861949Y-45972363D01*
X50772363Y-46061949D01*
X50772360Y-46061953D01*
X50714833Y-46174855D01*
X50700000Y-46268513D01*
X50700000Y-46950000D01*
X51624722Y-46950000D01*
X51580667Y-47026306D01*
X51550000Y-47140756D01*
X51550000Y-47259244D01*
X51580667Y-47373694D01*
X51624722Y-47450000D01*
X50700001Y-47450000D01*
X50700001Y-48131479D01*
X50714835Y-48225149D01*
X50714837Y-48225155D01*
X50772360Y-48338047D01*
X50773067Y-48339021D01*
X50773559Y-48340402D01*
X50776789Y-48346740D01*
X50775969Y-48347157D01*
X50796543Y-48404828D01*
X50780714Y-48472881D01*
X50730605Y-48521573D01*
X50672745Y-48535900D01*
X49760409Y-48535900D01*
X49693370Y-48516215D01*
X49672728Y-48499581D01*
X49492119Y-48318971D01*
X49458634Y-48257648D01*
X49455800Y-48231290D01*
X49455800Y-48169828D01*
X49430802Y-48044161D01*
X49430801Y-48044160D01*
X49430801Y-48044156D01*
X49381765Y-47925773D01*
X49381764Y-47925772D01*
X49381761Y-47925766D01*
X49310576Y-47819231D01*
X49310573Y-47819227D01*
X49219972Y-47728626D01*
X49219968Y-47728623D01*
X49113433Y-47657438D01*
X49113424Y-47657433D01*
X48995044Y-47608399D01*
X48995038Y-47608397D01*
X48869371Y-47583400D01*
X48869369Y-47583400D01*
X48741231Y-47583400D01*
X48741229Y-47583400D01*
X48615561Y-47608397D01*
X48615555Y-47608399D01*
X48497175Y-47657433D01*
X48497166Y-47657438D01*
X48390631Y-47728623D01*
X48390627Y-47728626D01*
X48300026Y-47819227D01*
X48300023Y-47819231D01*
X48228838Y-47925766D01*
X48228833Y-47925775D01*
X48179799Y-48044155D01*
X48179797Y-48044161D01*
X48154800Y-48169828D01*
X48154800Y-48169831D01*
X48154800Y-48297969D01*
X48154800Y-48297971D01*
X48154799Y-48297971D01*
X48179797Y-48423638D01*
X48179799Y-48423644D01*
X48228833Y-48542024D01*
X48228838Y-48542033D01*
X48300023Y-48648568D01*
X48300026Y-48648572D01*
X48367373Y-48715919D01*
X48400858Y-48777242D01*
X48395874Y-48846934D01*
X48354002Y-48902867D01*
X48288538Y-48927284D01*
X48279692Y-48927600D01*
X45319497Y-48927600D01*
X45252458Y-48907915D01*
X45231816Y-48891281D01*
X44778559Y-48438024D01*
X44745074Y-48376701D01*
X44750058Y-48307009D01*
X44791930Y-48251076D01*
X44820753Y-48234987D01*
X44822342Y-48234361D01*
X44942922Y-48142922D01*
X44963575Y-48115687D01*
X44986317Y-48085698D01*
X45034360Y-48022343D01*
X45034359Y-48022343D01*
X45034361Y-48022342D01*
X45089877Y-47881564D01*
X45100500Y-47793102D01*
X45100500Y-47793085D01*
X45100689Y-47789932D01*
X45124344Y-47724188D01*
X45136787Y-47709658D01*
X45600000Y-47246444D01*
X45600000Y-47252661D01*
X45627259Y-47354394D01*
X45679920Y-47445606D01*
X45754394Y-47520080D01*
X45845606Y-47572741D01*
X45947339Y-47600000D01*
X45953554Y-47600000D01*
X45345669Y-48207882D01*
X45345670Y-48207883D01*
X45371059Y-48226329D01*
X45539362Y-48312085D01*
X45718997Y-48370451D01*
X45905553Y-48400000D01*
X46094447Y-48400000D01*
X46281002Y-48370451D01*
X46460637Y-48312085D01*
X46628937Y-48226331D01*
X46654328Y-48207883D01*
X46654328Y-48207882D01*
X46046447Y-47600000D01*
X46052661Y-47600000D01*
X46154394Y-47572741D01*
X46245606Y-47520080D01*
X46320080Y-47445606D01*
X46372741Y-47354394D01*
X46400000Y-47252661D01*
X46400000Y-47246446D01*
X47007882Y-47854328D01*
X47007883Y-47854328D01*
X47026331Y-47828937D01*
X47112085Y-47660637D01*
X47170451Y-47481002D01*
X47200000Y-47294447D01*
X47200000Y-47105552D01*
X47170451Y-46918997D01*
X47112085Y-46739362D01*
X47026329Y-46571059D01*
X47007883Y-46545670D01*
X47007882Y-46545669D01*
X46400000Y-47153552D01*
X46400000Y-47147339D01*
X46372741Y-47045606D01*
X46320080Y-46954394D01*
X46245606Y-46879920D01*
X46154394Y-46827259D01*
X46052661Y-46800000D01*
X46046447Y-46800000D01*
X46646423Y-46200022D01*
X46658021Y-46154575D01*
X46665786Y-46141486D01*
X46668915Y-46126591D01*
X46690486Y-46097558D01*
X46753276Y-46034769D01*
X46824465Y-45928227D01*
X46873501Y-45809844D01*
X46887149Y-45741234D01*
X46898500Y-45684171D01*
X46898500Y-45556028D01*
X46897903Y-45549966D01*
X46900820Y-45549678D01*
X46905770Y-45492615D01*
X46948482Y-45437321D01*
X47014308Y-45413896D01*
X47021283Y-45413700D01*
X52100590Y-45413700D01*
X52167629Y-45433385D01*
G37*
%TD.AperFunction*%
%TA.AperFunction,Conductor*%
G36*
X45557688Y-45812732D02*
G01*
X45577669Y-45813446D01*
X45590529Y-45822375D01*
X45605547Y-45826785D01*
X45618636Y-45841890D01*
X45635061Y-45853295D01*
X45649269Y-45877243D01*
X45651302Y-45879589D01*
X45653070Y-45883649D01*
X45662821Y-45907191D01*
X45670288Y-45976660D01*
X45639013Y-46039139D01*
X45586578Y-46072573D01*
X45539361Y-46087915D01*
X45371060Y-46173669D01*
X45345670Y-46192116D01*
X45345669Y-46192116D01*
X45953554Y-46800000D01*
X45947339Y-46800000D01*
X45845606Y-46827259D01*
X45754394Y-46879920D01*
X45679920Y-46954394D01*
X45627259Y-47045606D01*
X45600000Y-47147339D01*
X45600000Y-47153554D01*
X45136787Y-46690341D01*
X45103302Y-46629018D01*
X45100690Y-46610068D01*
X45100501Y-46606913D01*
X45100500Y-46606903D01*
X45100500Y-46606898D01*
X45089877Y-46518436D01*
X45034361Y-46377658D01*
X45034360Y-46377657D01*
X45034360Y-46377656D01*
X44942922Y-46257077D01*
X44822343Y-46165639D01*
X44681561Y-46110122D01*
X44633223Y-46104318D01*
X44593102Y-46099500D01*
X43406898Y-46099500D01*
X43367853Y-46104188D01*
X43318438Y-46110122D01*
X43177656Y-46165639D01*
X43057077Y-46257077D01*
X42965639Y-46377656D01*
X42910122Y-46518438D01*
X42905276Y-46558800D01*
X42899500Y-46606898D01*
X42899500Y-46606903D01*
X42899500Y-47784200D01*
X42879815Y-47851239D01*
X42827011Y-47896994D01*
X42775500Y-47908200D01*
X42188296Y-47908200D01*
X42121257Y-47888515D01*
X42075502Y-47835711D01*
X42065558Y-47766553D01*
X42077811Y-47727905D01*
X42112085Y-47660637D01*
X42170451Y-47481002D01*
X42200000Y-47294447D01*
X42200000Y-47105552D01*
X42170451Y-46918997D01*
X42112085Y-46739362D01*
X42026329Y-46571059D01*
X42007883Y-46545670D01*
X42007882Y-46545669D01*
X41400000Y-47153551D01*
X41400000Y-47147339D01*
X41372741Y-47045606D01*
X41320080Y-46954394D01*
X41245606Y-46879920D01*
X41154394Y-46827259D01*
X41052661Y-46800000D01*
X41046447Y-46800000D01*
X41654328Y-46192116D01*
X41628933Y-46173666D01*
X41460637Y-46087914D01*
X41340965Y-46049031D01*
X41283290Y-46009594D01*
X41256091Y-45945235D01*
X41268005Y-45876389D01*
X41315249Y-45824913D01*
X41379283Y-45807100D01*
X45538508Y-45807100D01*
X45557688Y-45812732D01*
G37*
%TD.AperFunction*%
%TA.AperFunction,Conductor*%
G36*
X45634703Y-37150285D02*
G01*
X45680458Y-37203089D01*
X45690402Y-37272247D01*
X45667982Y-37327485D01*
X45563670Y-37471059D01*
X45477914Y-37639362D01*
X45419548Y-37818997D01*
X45414638Y-37850000D01*
X46674314Y-37850000D01*
X46669920Y-37854394D01*
X46617259Y-37945606D01*
X46590000Y-38047339D01*
X46590000Y-38152661D01*
X46617259Y-38254394D01*
X46669920Y-38345606D01*
X46674314Y-38350000D01*
X45414638Y-38350000D01*
X45419548Y-38381002D01*
X45477915Y-38560639D01*
X45496597Y-38597304D01*
X45509494Y-38665973D01*
X45483218Y-38730714D01*
X45426112Y-38770972D01*
X45386113Y-38777600D01*
X44707410Y-38777600D01*
X44640371Y-38757915D01*
X44619729Y-38741281D01*
X43637965Y-37759517D01*
X43637963Y-37759515D01*
X43540937Y-37703497D01*
X43432718Y-37674500D01*
X43432717Y-37674500D01*
X43404303Y-37674500D01*
X43337264Y-37654815D01*
X43293819Y-37606795D01*
X43251232Y-37523212D01*
X43251230Y-37523209D01*
X43251229Y-37523207D01*
X43215838Y-37474497D01*
X43149414Y-37383072D01*
X43108623Y-37342281D01*
X43075138Y-37280958D01*
X43080122Y-37211266D01*
X43121994Y-37155333D01*
X43187458Y-37130916D01*
X43196304Y-37130600D01*
X45567664Y-37130600D01*
X45634703Y-37150285D01*
G37*
%TD.AperFunction*%
%TA.AperFunction,Conductor*%
G36*
X61682429Y-16953685D02*
G01*
X61703071Y-16970319D01*
X63960937Y-19228185D01*
X64057963Y-19284203D01*
X64166182Y-19313200D01*
X64278218Y-19313200D01*
X66061096Y-19313200D01*
X66128135Y-19332885D01*
X66173890Y-19385689D01*
X66183834Y-19454847D01*
X66154809Y-19518403D01*
X66148777Y-19524881D01*
X66070588Y-19603069D01*
X66070588Y-19603070D01*
X66070586Y-19603072D01*
X66041878Y-19642585D01*
X65968768Y-19743211D01*
X65890128Y-19897552D01*
X65836597Y-20062302D01*
X65820727Y-20162503D01*
X65809500Y-20233389D01*
X65809500Y-20406611D01*
X65836598Y-20577701D01*
X65881697Y-20716501D01*
X65890128Y-20742447D01*
X65905884Y-20773370D01*
X65968768Y-20896788D01*
X66070586Y-21036928D01*
X66193072Y-21159414D01*
X66333212Y-21261232D01*
X66487555Y-21339873D01*
X66652299Y-21393402D01*
X66823389Y-21420500D01*
X66823390Y-21420500D01*
X67796610Y-21420500D01*
X67796611Y-21420500D01*
X67967701Y-21393402D01*
X68132445Y-21339873D01*
X68286788Y-21261232D01*
X68426928Y-21159414D01*
X68549414Y-21036928D01*
X68651232Y-20896788D01*
X68729873Y-20742445D01*
X68760344Y-20648663D01*
X68799780Y-20590991D01*
X68864139Y-20563792D01*
X68932985Y-20575706D01*
X68965955Y-20599303D01*
X69482081Y-21115429D01*
X69515566Y-21176752D01*
X69518400Y-21203110D01*
X69518400Y-23271182D01*
X69518400Y-23383218D01*
X69547010Y-23489990D01*
X69547397Y-23491436D01*
X69547398Y-23491439D01*
X69556835Y-23507784D01*
X69603415Y-23588463D01*
X69603417Y-23588465D01*
X70656188Y-24641236D01*
X70689673Y-24702559D01*
X70684689Y-24772251D01*
X70642817Y-24828184D01*
X70588927Y-24849649D01*
X70589013Y-24849965D01*
X70586243Y-24850718D01*
X70582798Y-24852091D01*
X70580010Y-24852414D01*
X70580008Y-24852415D01*
X70477235Y-24897793D01*
X70397794Y-24977234D01*
X70352415Y-25080006D01*
X70352415Y-25080008D01*
X70349500Y-25105131D01*
X70349500Y-26894856D01*
X70349502Y-26894882D01*
X70352413Y-26919987D01*
X70352415Y-26919991D01*
X70397793Y-27022764D01*
X70467659Y-27092630D01*
X70501144Y-27153953D01*
X70496160Y-27223645D01*
X70467659Y-27267992D01*
X70122037Y-27613615D01*
X70042817Y-27692834D01*
X70042813Y-27692840D01*
X69986798Y-27789860D01*
X69986797Y-27789863D01*
X69957800Y-27898082D01*
X69957800Y-29119189D01*
X69938115Y-29186228D01*
X69921481Y-29206870D01*
X68956562Y-30171788D01*
X68895239Y-30205273D01*
X68825547Y-30200289D01*
X68769614Y-30158417D01*
X68750951Y-30122428D01*
X68729873Y-30057555D01*
X68651232Y-29903212D01*
X68549414Y-29763072D01*
X68426928Y-29640586D01*
X68286788Y-29538768D01*
X68132445Y-29460127D01*
X67967701Y-29406598D01*
X67967699Y-29406597D01*
X67967698Y-29406597D01*
X67836271Y-29385781D01*
X67796611Y-29379500D01*
X66823389Y-29379500D01*
X66783728Y-29385781D01*
X66652302Y-29406597D01*
X66487552Y-29460128D01*
X66333211Y-29538768D01*
X66268800Y-29585566D01*
X66193072Y-29640586D01*
X66193070Y-29640588D01*
X66193069Y-29640588D01*
X66070588Y-29763069D01*
X66070588Y-29763070D01*
X66070586Y-29763072D01*
X66049821Y-29791653D01*
X65968770Y-29903207D01*
X65968766Y-29903215D01*
X65956616Y-29927062D01*
X65926180Y-29986795D01*
X65878208Y-30037590D01*
X65815697Y-30054500D01*
X65787282Y-30054500D01*
X65679063Y-30083497D01*
X65679060Y-30083498D01*
X65582040Y-30139513D01*
X65582034Y-30139517D01*
X65502817Y-30218734D01*
X65502813Y-30218740D01*
X65446798Y-30315760D01*
X65446797Y-30315763D01*
X65417800Y-30423982D01*
X65417800Y-31095789D01*
X65398115Y-31162828D01*
X65381481Y-31183470D01*
X61409788Y-35155162D01*
X61348465Y-35188647D01*
X61278773Y-35183663D01*
X61222840Y-35141791D01*
X61204173Y-35105791D01*
X61202083Y-35099358D01*
X61116329Y-34931059D01*
X61005314Y-34778258D01*
X61005310Y-34778253D01*
X60871746Y-34644689D01*
X60871741Y-34644685D01*
X60718940Y-34533670D01*
X60550637Y-34447914D01*
X60371002Y-34389548D01*
X60197720Y-34362102D01*
X60134586Y-34332172D01*
X60097655Y-34272861D01*
X60098653Y-34202998D01*
X60137263Y-34144766D01*
X60197720Y-34117156D01*
X60291306Y-34102334D01*
X60347696Y-34093403D01*
X60347696Y-34093402D01*
X60347701Y-34093402D01*
X60512445Y-34039873D01*
X60666788Y-33961232D01*
X60806928Y-33859414D01*
X60929414Y-33736928D01*
X61031232Y-33596788D01*
X61109873Y-33442445D01*
X61163402Y-33277701D01*
X61190500Y-33106611D01*
X61190500Y-32933389D01*
X61163402Y-32762299D01*
X61109873Y-32597555D01*
X61031232Y-32443212D01*
X60929414Y-32303072D01*
X60806928Y-32180586D01*
X60666788Y-32078768D01*
X60520833Y-32004401D01*
X60512447Y-32000128D01*
X60512446Y-32000127D01*
X60512445Y-32000127D01*
X60347701Y-31946598D01*
X60347699Y-31946597D01*
X60347698Y-31946597D01*
X60216271Y-31925781D01*
X60176611Y-31919500D01*
X59203389Y-31919500D01*
X59163728Y-31925781D01*
X59032302Y-31946597D01*
X58867552Y-32000128D01*
X58713211Y-32078768D01*
X58674859Y-32106633D01*
X58573072Y-32180586D01*
X58573070Y-32180588D01*
X58573069Y-32180588D01*
X58450588Y-32303069D01*
X58450588Y-32303070D01*
X58450586Y-32303072D01*
X58440360Y-32317147D01*
X58348768Y-32443211D01*
X58270128Y-32597552D01*
X58270127Y-32597554D01*
X58270127Y-32597555D01*
X58261698Y-32623497D01*
X58216597Y-32762302D01*
X58189500Y-32933389D01*
X58189500Y-33106608D01*
X58189499Y-33106608D01*
X58210427Y-33238740D01*
X58216598Y-33277701D01*
X58264827Y-33426134D01*
X58270128Y-33442447D01*
X58279783Y-33461397D01*
X58348768Y-33596788D01*
X58450586Y-33736928D01*
X58573072Y-33859414D01*
X58713212Y-33961232D01*
X58867555Y-34039873D01*
X59032299Y-34093402D01*
X59032302Y-34093402D01*
X59032303Y-34093403D01*
X59131615Y-34109132D01*
X59182277Y-34117156D01*
X59245412Y-34147085D01*
X59282344Y-34206396D01*
X59281346Y-34276259D01*
X59242737Y-34334492D01*
X59182279Y-34362102D01*
X59008997Y-34389548D01*
X58829362Y-34447914D01*
X58661059Y-34533670D01*
X58508258Y-34644685D01*
X58508253Y-34644689D01*
X58374689Y-34778253D01*
X58374685Y-34778258D01*
X58263670Y-34931059D01*
X58177914Y-35099362D01*
X58119548Y-35278997D01*
X58114638Y-35310000D01*
X59374314Y-35310000D01*
X59369920Y-35314394D01*
X59317259Y-35405606D01*
X59290000Y-35507339D01*
X59290000Y-35612661D01*
X59317259Y-35714394D01*
X59369920Y-35805606D01*
X59374314Y-35810000D01*
X58114638Y-35810000D01*
X58119548Y-35841002D01*
X58177914Y-36020637D01*
X58263670Y-36188940D01*
X58374685Y-36341741D01*
X58374689Y-36341746D01*
X58508253Y-36475310D01*
X58508258Y-36475314D01*
X58661059Y-36586329D01*
X58829362Y-36672085D01*
X59008997Y-36730451D01*
X59195553Y-36760000D01*
X59505590Y-36760000D01*
X59572629Y-36779685D01*
X59618384Y-36832489D01*
X59628328Y-36901647D01*
X59599303Y-36965203D01*
X59593271Y-36971681D01*
X58371171Y-38193781D01*
X58309848Y-38227266D01*
X58283490Y-38230100D01*
X57445982Y-38230100D01*
X57337763Y-38259097D01*
X57337760Y-38259098D01*
X57240740Y-38315113D01*
X57240734Y-38315117D01*
X56814571Y-38741281D01*
X56753248Y-38774766D01*
X56726890Y-38777600D01*
X56102215Y-38777600D01*
X56035176Y-38757915D01*
X55989421Y-38705111D01*
X55979477Y-38635953D01*
X55991730Y-38597305D01*
X55991731Y-38597304D01*
X56029873Y-38522445D01*
X56083402Y-38357701D01*
X56110500Y-38186611D01*
X56110500Y-38013389D01*
X56083402Y-37842299D01*
X56029873Y-37677555D01*
X55951232Y-37523212D01*
X55849414Y-37383072D01*
X55726928Y-37260586D01*
X55586788Y-37158768D01*
X55432445Y-37080127D01*
X55267701Y-37026598D01*
X55267699Y-37026597D01*
X55267698Y-37026597D01*
X55136271Y-37005781D01*
X55096611Y-36999500D01*
X54123389Y-36999500D01*
X54083728Y-37005781D01*
X53952302Y-37026597D01*
X53787552Y-37080128D01*
X53633211Y-37158768D01*
X53560955Y-37211266D01*
X53493072Y-37260586D01*
X53493070Y-37260588D01*
X53493069Y-37260588D01*
X53370588Y-37383069D01*
X53370588Y-37383070D01*
X53370586Y-37383072D01*
X53343318Y-37420603D01*
X53268768Y-37523211D01*
X53190128Y-37677552D01*
X53136597Y-37842302D01*
X53109500Y-38013389D01*
X53109500Y-38186610D01*
X53129852Y-38315113D01*
X53136598Y-38357701D01*
X53181697Y-38496501D01*
X53190128Y-38522447D01*
X53228270Y-38597305D01*
X53241166Y-38665974D01*
X53214890Y-38730715D01*
X53157783Y-38770972D01*
X53117785Y-38777600D01*
X48593887Y-38777600D01*
X48526848Y-38757915D01*
X48481093Y-38705111D01*
X48471149Y-38635953D01*
X48483403Y-38597304D01*
X48502084Y-38560639D01*
X48560451Y-38381002D01*
X48565362Y-38350000D01*
X47305686Y-38350000D01*
X47310080Y-38345606D01*
X47362741Y-38254394D01*
X47390000Y-38152661D01*
X47390000Y-38047339D01*
X47362741Y-37945606D01*
X47310080Y-37854394D01*
X47305686Y-37850000D01*
X48565362Y-37850000D01*
X48560451Y-37818997D01*
X48502085Y-37639362D01*
X48416329Y-37471059D01*
X48305314Y-37318258D01*
X48305310Y-37318253D01*
X48200833Y-37213776D01*
X48167348Y-37152453D01*
X48172332Y-37082761D01*
X48200831Y-37038416D01*
X53027429Y-32211819D01*
X53054356Y-32197115D01*
X53080175Y-32180523D01*
X53086375Y-32179631D01*
X53088752Y-32178334D01*
X53115110Y-32175500D01*
X53219909Y-32175500D01*
X53286948Y-32195185D01*
X53332703Y-32247989D01*
X53342647Y-32317147D01*
X53320227Y-32372383D01*
X53296207Y-32405446D01*
X53268768Y-32443211D01*
X53190128Y-32597552D01*
X53190127Y-32597554D01*
X53190127Y-32597555D01*
X53181698Y-32623497D01*
X53136597Y-32762302D01*
X53109500Y-32933389D01*
X53109500Y-33106608D01*
X53109499Y-33106608D01*
X53130427Y-33238740D01*
X53136598Y-33277701D01*
X53184827Y-33426134D01*
X53190128Y-33442447D01*
X53199783Y-33461397D01*
X53268768Y-33596788D01*
X53370586Y-33736928D01*
X53370588Y-33736930D01*
X53489177Y-33855519D01*
X53499789Y-33874955D01*
X53514290Y-33891689D01*
X53516206Y-33905020D01*
X53522662Y-33916842D01*
X53521082Y-33938928D01*
X53524234Y-33960847D01*
X53518638Y-33973098D01*
X53517678Y-33986534D01*
X53504407Y-34004260D01*
X53495209Y-34024403D01*
X53483877Y-34031685D01*
X53475806Y-34042467D01*
X53455060Y-34050204D01*
X53436431Y-34062177D01*
X53414512Y-34065328D01*
X53410342Y-34066884D01*
X53401496Y-34067200D01*
X53205007Y-34067200D01*
X53137968Y-34047515D01*
X53117325Y-34030880D01*
X53073872Y-33987426D01*
X53073868Y-33987423D01*
X52967333Y-33916238D01*
X52967324Y-33916233D01*
X52848944Y-33867199D01*
X52848938Y-33867197D01*
X52723271Y-33842200D01*
X52723269Y-33842200D01*
X52595131Y-33842200D01*
X52595129Y-33842200D01*
X52469461Y-33867197D01*
X52469455Y-33867199D01*
X52351075Y-33916233D01*
X52351066Y-33916238D01*
X52244531Y-33987423D01*
X52244527Y-33987426D01*
X52153926Y-34078027D01*
X52153923Y-34078031D01*
X52082738Y-34184566D01*
X52082733Y-34184575D01*
X52033699Y-34302955D01*
X52033697Y-34302961D01*
X52008700Y-34428628D01*
X52008700Y-34428631D01*
X52008700Y-34556769D01*
X52008700Y-34556771D01*
X52008699Y-34556771D01*
X52033697Y-34682438D01*
X52033699Y-34682444D01*
X52082733Y-34800824D01*
X52082738Y-34800833D01*
X52153923Y-34907368D01*
X52153926Y-34907372D01*
X52244527Y-34997973D01*
X52244531Y-34997976D01*
X52351066Y-35069161D01*
X52351072Y-35069164D01*
X52351073Y-35069165D01*
X52469456Y-35118201D01*
X52469460Y-35118201D01*
X52469461Y-35118202D01*
X52595128Y-35143200D01*
X52595131Y-35143200D01*
X52723271Y-35143200D01*
X52834973Y-35120980D01*
X52848944Y-35118201D01*
X52967327Y-35069165D01*
X52982970Y-35058712D01*
X53049645Y-35037833D01*
X53117026Y-35056315D01*
X53163718Y-35108293D01*
X53174897Y-35177262D01*
X53169794Y-35200130D01*
X53136598Y-35302297D01*
X53136597Y-35302301D01*
X53109500Y-35473389D01*
X53109500Y-35646610D01*
X53134751Y-35806044D01*
X53136598Y-35817701D01*
X53190127Y-35982445D01*
X53268768Y-36136788D01*
X53370586Y-36276928D01*
X53493072Y-36399414D01*
X53633212Y-36501232D01*
X53787555Y-36579873D01*
X53952299Y-36633402D01*
X54123389Y-36660500D01*
X54123390Y-36660500D01*
X55096610Y-36660500D01*
X55096611Y-36660500D01*
X55267701Y-36633402D01*
X55432445Y-36579873D01*
X55586788Y-36501232D01*
X55726928Y-36399414D01*
X55849414Y-36276928D01*
X55951232Y-36136788D01*
X56029873Y-35982445D01*
X56083402Y-35817701D01*
X56110500Y-35646611D01*
X56110500Y-35473389D01*
X56083402Y-35302299D01*
X56029873Y-35137555D01*
X55951232Y-34983212D01*
X55849414Y-34843072D01*
X55726928Y-34720586D01*
X55723483Y-34717141D01*
X55724359Y-34716264D01*
X55689304Y-34662570D01*
X55688802Y-34592702D01*
X55720344Y-34539102D01*
X58474353Y-31785092D01*
X58474358Y-31785089D01*
X58484561Y-31774885D01*
X58484563Y-31774885D01*
X58563785Y-31695663D01*
X58619803Y-31598637D01*
X58633217Y-31548573D01*
X58669580Y-31488916D01*
X58732427Y-31458386D01*
X58801803Y-31466680D01*
X58809285Y-31470184D01*
X58846050Y-31488916D01*
X58867555Y-31499873D01*
X59032299Y-31553402D01*
X59203389Y-31580500D01*
X59203390Y-31580500D01*
X60176610Y-31580500D01*
X60176611Y-31580500D01*
X60347701Y-31553402D01*
X60512445Y-31499873D01*
X60666788Y-31421232D01*
X60806928Y-31319414D01*
X60929414Y-31196928D01*
X61031232Y-31056788D01*
X61109873Y-30902445D01*
X61163402Y-30737701D01*
X61190500Y-30566611D01*
X61190500Y-30393389D01*
X61163402Y-30222299D01*
X61109873Y-30057555D01*
X61031232Y-29903212D01*
X60929414Y-29763072D01*
X60806928Y-29640586D01*
X60666788Y-29538768D01*
X60512445Y-29460127D01*
X60347701Y-29406598D01*
X60347699Y-29406597D01*
X60347698Y-29406597D01*
X60216271Y-29385781D01*
X60176611Y-29379500D01*
X59203389Y-29379500D01*
X59163728Y-29385781D01*
X59032302Y-29406597D01*
X58867552Y-29460128D01*
X58713211Y-29538768D01*
X58648800Y-29585566D01*
X58573072Y-29640586D01*
X58573070Y-29640588D01*
X58573069Y-29640588D01*
X58450588Y-29763069D01*
X58450588Y-29763070D01*
X58450586Y-29763072D01*
X58429821Y-29791653D01*
X58348770Y-29903207D01*
X58348766Y-29903215D01*
X58336616Y-29927062D01*
X58306180Y-29986795D01*
X58258208Y-30037590D01*
X58195697Y-30054500D01*
X58167282Y-30054500D01*
X58059063Y-30083497D01*
X58059060Y-30083498D01*
X57962040Y-30139513D01*
X57962034Y-30139517D01*
X57882817Y-30218734D01*
X57882813Y-30218740D01*
X57826798Y-30315760D01*
X57826797Y-30315763D01*
X57797800Y-30423982D01*
X57797800Y-31206790D01*
X57778115Y-31273829D01*
X57761481Y-31294471D01*
X56278045Y-32777906D01*
X56216722Y-32811391D01*
X56147030Y-32806407D01*
X56091097Y-32764535D01*
X56072435Y-32728547D01*
X56029873Y-32597555D01*
X55951232Y-32443212D01*
X55849414Y-32303072D01*
X55726928Y-32180586D01*
X55723483Y-32177141D01*
X55724359Y-32176264D01*
X55689306Y-32122574D01*
X55688802Y-32052706D01*
X55720347Y-31999101D01*
X56170872Y-31548576D01*
X58474353Y-29245092D01*
X58474358Y-29245089D01*
X58484561Y-29234885D01*
X58484563Y-29234885D01*
X58563785Y-29155663D01*
X58619803Y-29058637D01*
X58633217Y-29008572D01*
X58669580Y-28948916D01*
X58732427Y-28918386D01*
X58801803Y-28926680D01*
X58809285Y-28930184D01*
X58846050Y-28948916D01*
X58867555Y-28959873D01*
X59032299Y-29013402D01*
X59203389Y-29040500D01*
X59203390Y-29040500D01*
X60176610Y-29040500D01*
X60176611Y-29040500D01*
X60347701Y-29013402D01*
X60512445Y-28959873D01*
X60666788Y-28881232D01*
X60806928Y-28779414D01*
X60929414Y-28656928D01*
X61031232Y-28516788D01*
X61109873Y-28362445D01*
X61163402Y-28197701D01*
X61190500Y-28026611D01*
X61190500Y-27853389D01*
X61163402Y-27682299D01*
X61109873Y-27517555D01*
X61031232Y-27363212D01*
X61031231Y-27363211D01*
X61029020Y-27358871D01*
X61031050Y-27357836D01*
X61015306Y-27299445D01*
X61036475Y-27232859D01*
X61090282Y-27188289D01*
X61139275Y-27178200D01*
X65860725Y-27178200D01*
X65927764Y-27197885D01*
X65973519Y-27250689D01*
X65983463Y-27319847D01*
X65969644Y-27358190D01*
X65970980Y-27358871D01*
X65968768Y-27363211D01*
X65968768Y-27363212D01*
X65961252Y-27377963D01*
X65890128Y-27517552D01*
X65836597Y-27682302D01*
X65809500Y-27853389D01*
X65809500Y-28026611D01*
X65836598Y-28197701D01*
X65890127Y-28362445D01*
X65968768Y-28516788D01*
X66070586Y-28656928D01*
X66193072Y-28779414D01*
X66333212Y-28881232D01*
X66487555Y-28959873D01*
X66652299Y-29013402D01*
X66823389Y-29040500D01*
X66823390Y-29040500D01*
X67796610Y-29040500D01*
X67796611Y-29040500D01*
X67967701Y-29013402D01*
X68132445Y-28959873D01*
X68286788Y-28881232D01*
X68426928Y-28779414D01*
X68549414Y-28656928D01*
X68651232Y-28516788D01*
X68729873Y-28362445D01*
X68783402Y-28197701D01*
X68810500Y-28026611D01*
X68810500Y-27853389D01*
X68783402Y-27682299D01*
X68729873Y-27517555D01*
X68651232Y-27363212D01*
X68549414Y-27223072D01*
X68426928Y-27100586D01*
X68393753Y-27076483D01*
X68351090Y-27021155D01*
X68345111Y-26951542D01*
X68377717Y-26889747D01*
X68378900Y-26888546D01*
X69027753Y-26239692D01*
X69027758Y-26239689D01*
X69037961Y-26229485D01*
X69037963Y-26229485D01*
X69117185Y-26150263D01*
X69173203Y-26053237D01*
X69186788Y-26002537D01*
X69202200Y-25945019D01*
X69202200Y-25832982D01*
X69202200Y-22803982D01*
X69173203Y-22695763D01*
X69117185Y-22598737D01*
X69037963Y-22519515D01*
X68940937Y-22463497D01*
X68832718Y-22434500D01*
X68832717Y-22434500D01*
X68804303Y-22434500D01*
X68737264Y-22414815D01*
X68693819Y-22366795D01*
X68651232Y-22283212D01*
X68651230Y-22283209D01*
X68651229Y-22283207D01*
X68609223Y-22225392D01*
X68549414Y-22143072D01*
X68426928Y-22020586D01*
X68286788Y-21918768D01*
X68132445Y-21840127D01*
X67967701Y-21786598D01*
X67967699Y-21786597D01*
X67967698Y-21786597D01*
X67836271Y-21765781D01*
X67796611Y-21759500D01*
X66823389Y-21759500D01*
X66783728Y-21765781D01*
X66652302Y-21786597D01*
X66487552Y-21840128D01*
X66333211Y-21918768D01*
X66311849Y-21934289D01*
X66193072Y-22020586D01*
X66193070Y-22020588D01*
X66193069Y-22020588D01*
X66070588Y-22143069D01*
X66070588Y-22143070D01*
X66070586Y-22143072D01*
X66061610Y-22155427D01*
X65968768Y-22283211D01*
X65890128Y-22437552D01*
X65836597Y-22602302D01*
X65809500Y-22773389D01*
X65809500Y-22946610D01*
X65825739Y-23049144D01*
X65836598Y-23117701D01*
X65887601Y-23274672D01*
X65890128Y-23282447D01*
X65910076Y-23321597D01*
X65968768Y-23436788D01*
X66070586Y-23576928D01*
X66193072Y-23699414D01*
X66333212Y-23801232D01*
X66487555Y-23879873D01*
X66652299Y-23933402D01*
X66823389Y-23960500D01*
X66823390Y-23960500D01*
X67796610Y-23960500D01*
X67796611Y-23960500D01*
X67967701Y-23933402D01*
X68132445Y-23879873D01*
X68170905Y-23860276D01*
X68239573Y-23847380D01*
X68304313Y-23873655D01*
X68344571Y-23930761D01*
X68351200Y-23970761D01*
X68351200Y-24289238D01*
X68331515Y-24356277D01*
X68278711Y-24402032D01*
X68209553Y-24411976D01*
X68170906Y-24399723D01*
X68132450Y-24380129D01*
X68132447Y-24380128D01*
X68132445Y-24380127D01*
X67967701Y-24326598D01*
X67967699Y-24326597D01*
X67967698Y-24326597D01*
X67836271Y-24305781D01*
X67796611Y-24299500D01*
X66823389Y-24299500D01*
X66783728Y-24305781D01*
X66652302Y-24326597D01*
X66652299Y-24326598D01*
X66501842Y-24375485D01*
X66487549Y-24380129D01*
X66413329Y-24417946D01*
X66344660Y-24430842D01*
X66279920Y-24404565D01*
X66242471Y-24354907D01*
X66239804Y-24348469D01*
X66239803Y-24348463D01*
X66183785Y-24251437D01*
X66104563Y-24172215D01*
X60837063Y-18904715D01*
X60766825Y-18864163D01*
X60718609Y-18813596D01*
X60705386Y-18744989D01*
X60731354Y-18680124D01*
X60755935Y-18656462D01*
X60806928Y-18619414D01*
X60929414Y-18496928D01*
X61031232Y-18356788D01*
X61109873Y-18202445D01*
X61163402Y-18037701D01*
X61190500Y-17866611D01*
X61190500Y-17693389D01*
X61163402Y-17522299D01*
X61109873Y-17357555D01*
X61031232Y-17203212D01*
X61008547Y-17171989D01*
X60978684Y-17130885D01*
X60955204Y-17065079D01*
X60971029Y-16997025D01*
X61021135Y-16948330D01*
X61079002Y-16934000D01*
X61615390Y-16934000D01*
X61682429Y-16953685D01*
G37*
%TD.AperFunction*%
%TD*%
M02*
