%TF.GenerationSoftware,KiCad,Pcbnew,10.0.4*%
%TF.CreationDate,2026-07-28T23:09:51-03:00*%
%TF.ProjectId,tkmem128,746b6d65-6d31-4323-982e-6b696361645f,rev?*%
%TF.SameCoordinates,Original*%
%TF.FileFunction,Legend,Top*%
%TF.FilePolarity,Positive*%
%FSLAX46Y46*%
G04 Gerber Fmt 4.6, Leading zero omitted, Abs format (unit mm)*
G04 Created by KiCad (PCBNEW 10.0.4) date 2026-07-28 23:09:51*
%MOMM*%
%LPD*%
G01*
G04 APERTURE LIST*
%ADD10C,0.180000*%
%ADD11C,0.220000*%
%ADD12C,0.200000*%
%ADD13C,0.160000*%
%ADD14C,0.120000*%
%ADD15C,0.150000*%
G04 APERTURE END LIST*
D10*
X17388571Y-23432711D02*
X17431428Y-23389854D01*
X17431428Y-23389854D02*
X17517143Y-23346997D01*
X17517143Y-23346997D02*
X17731428Y-23346997D01*
X17731428Y-23346997D02*
X17817143Y-23389854D01*
X17817143Y-23389854D02*
X17860000Y-23432711D01*
X17860000Y-23432711D02*
X17902857Y-23518425D01*
X17902857Y-23518425D02*
X17902857Y-23604140D01*
X17902857Y-23604140D02*
X17860000Y-23732711D01*
X17860000Y-23732711D02*
X17345714Y-24246997D01*
X17345714Y-24246997D02*
X17902857Y-24246997D01*
X18202857Y-23346997D02*
X18802857Y-23346997D01*
X18802857Y-23346997D02*
X18417143Y-24246997D01*
X19660000Y-24161282D02*
X19617143Y-24204140D01*
X19617143Y-24204140D02*
X19488571Y-24246997D01*
X19488571Y-24246997D02*
X19402857Y-24246997D01*
X19402857Y-24246997D02*
X19274286Y-24204140D01*
X19274286Y-24204140D02*
X19188571Y-24118425D01*
X19188571Y-24118425D02*
X19145714Y-24032711D01*
X19145714Y-24032711D02*
X19102857Y-23861282D01*
X19102857Y-23861282D02*
X19102857Y-23732711D01*
X19102857Y-23732711D02*
X19145714Y-23561282D01*
X19145714Y-23561282D02*
X19188571Y-23475568D01*
X19188571Y-23475568D02*
X19274286Y-23389854D01*
X19274286Y-23389854D02*
X19402857Y-23346997D01*
X19402857Y-23346997D02*
X19488571Y-23346997D01*
X19488571Y-23346997D02*
X19617143Y-23389854D01*
X19617143Y-23389854D02*
X19660000Y-23432711D01*
X20002857Y-23432711D02*
X20045714Y-23389854D01*
X20045714Y-23389854D02*
X20131429Y-23346997D01*
X20131429Y-23346997D02*
X20345714Y-23346997D01*
X20345714Y-23346997D02*
X20431429Y-23389854D01*
X20431429Y-23389854D02*
X20474286Y-23432711D01*
X20474286Y-23432711D02*
X20517143Y-23518425D01*
X20517143Y-23518425D02*
X20517143Y-23604140D01*
X20517143Y-23604140D02*
X20474286Y-23732711D01*
X20474286Y-23732711D02*
X19960000Y-24246997D01*
X19960000Y-24246997D02*
X20517143Y-24246997D01*
X21331429Y-23346997D02*
X20902857Y-23346997D01*
X20902857Y-23346997D02*
X20860000Y-23775568D01*
X20860000Y-23775568D02*
X20902857Y-23732711D01*
X20902857Y-23732711D02*
X20988572Y-23689854D01*
X20988572Y-23689854D02*
X21202857Y-23689854D01*
X21202857Y-23689854D02*
X21288572Y-23732711D01*
X21288572Y-23732711D02*
X21331429Y-23775568D01*
X21331429Y-23775568D02*
X21374286Y-23861282D01*
X21374286Y-23861282D02*
X21374286Y-24075568D01*
X21374286Y-24075568D02*
X21331429Y-24161282D01*
X21331429Y-24161282D02*
X21288572Y-24204140D01*
X21288572Y-24204140D02*
X21202857Y-24246997D01*
X21202857Y-24246997D02*
X20988572Y-24246997D01*
X20988572Y-24246997D02*
X20902857Y-24204140D01*
X20902857Y-24204140D02*
X20860000Y-24161282D01*
X22145715Y-23346997D02*
X21974286Y-23346997D01*
X21974286Y-23346997D02*
X21888572Y-23389854D01*
X21888572Y-23389854D02*
X21845715Y-23432711D01*
X21845715Y-23432711D02*
X21760000Y-23561282D01*
X21760000Y-23561282D02*
X21717143Y-23732711D01*
X21717143Y-23732711D02*
X21717143Y-24075568D01*
X21717143Y-24075568D02*
X21760000Y-24161282D01*
X21760000Y-24161282D02*
X21802857Y-24204140D01*
X21802857Y-24204140D02*
X21888572Y-24246997D01*
X21888572Y-24246997D02*
X22060000Y-24246997D01*
X22060000Y-24246997D02*
X22145715Y-24204140D01*
X22145715Y-24204140D02*
X22188572Y-24161282D01*
X22188572Y-24161282D02*
X22231429Y-24075568D01*
X22231429Y-24075568D02*
X22231429Y-23861282D01*
X22231429Y-23861282D02*
X22188572Y-23775568D01*
X22188572Y-23775568D02*
X22145715Y-23732711D01*
X22145715Y-23732711D02*
X22060000Y-23689854D01*
X22060000Y-23689854D02*
X21888572Y-23689854D01*
X21888572Y-23689854D02*
X21802857Y-23732711D01*
X21802857Y-23732711D02*
X21760000Y-23775568D01*
X21760000Y-23775568D02*
X21717143Y-23861282D01*
X8978570Y-46989854D02*
X9407142Y-46989854D01*
X8892856Y-47246997D02*
X9192856Y-46346997D01*
X9192856Y-46346997D02*
X9492856Y-47246997D01*
X9749999Y-47204140D02*
X9878571Y-47246997D01*
X9878571Y-47246997D02*
X10092856Y-47246997D01*
X10092856Y-47246997D02*
X10178571Y-47204140D01*
X10178571Y-47204140D02*
X10221428Y-47161282D01*
X10221428Y-47161282D02*
X10264285Y-47075568D01*
X10264285Y-47075568D02*
X10264285Y-46989854D01*
X10264285Y-46989854D02*
X10221428Y-46904140D01*
X10221428Y-46904140D02*
X10178571Y-46861282D01*
X10178571Y-46861282D02*
X10092856Y-46818425D01*
X10092856Y-46818425D02*
X9921428Y-46775568D01*
X9921428Y-46775568D02*
X9835713Y-46732711D01*
X9835713Y-46732711D02*
X9792856Y-46689854D01*
X9792856Y-46689854D02*
X9749999Y-46604140D01*
X9749999Y-46604140D02*
X9749999Y-46518425D01*
X9749999Y-46518425D02*
X9792856Y-46432711D01*
X9792856Y-46432711D02*
X9835713Y-46389854D01*
X9835713Y-46389854D02*
X9921428Y-46346997D01*
X9921428Y-46346997D02*
X10135713Y-46346997D01*
X10135713Y-46346997D02*
X10264285Y-46389854D01*
X11035714Y-46346997D02*
X10864285Y-46346997D01*
X10864285Y-46346997D02*
X10778571Y-46389854D01*
X10778571Y-46389854D02*
X10735714Y-46432711D01*
X10735714Y-46432711D02*
X10649999Y-46561282D01*
X10649999Y-46561282D02*
X10607142Y-46732711D01*
X10607142Y-46732711D02*
X10607142Y-47075568D01*
X10607142Y-47075568D02*
X10649999Y-47161282D01*
X10649999Y-47161282D02*
X10692856Y-47204140D01*
X10692856Y-47204140D02*
X10778571Y-47246997D01*
X10778571Y-47246997D02*
X10949999Y-47246997D01*
X10949999Y-47246997D02*
X11035714Y-47204140D01*
X11035714Y-47204140D02*
X11078571Y-47161282D01*
X11078571Y-47161282D02*
X11121428Y-47075568D01*
X11121428Y-47075568D02*
X11121428Y-46861282D01*
X11121428Y-46861282D02*
X11078571Y-46775568D01*
X11078571Y-46775568D02*
X11035714Y-46732711D01*
X11035714Y-46732711D02*
X10949999Y-46689854D01*
X10949999Y-46689854D02*
X10778571Y-46689854D01*
X10778571Y-46689854D02*
X10692856Y-46732711D01*
X10692856Y-46732711D02*
X10649999Y-46775568D01*
X10649999Y-46775568D02*
X10607142Y-46861282D01*
X12021428Y-47161282D02*
X11978571Y-47204140D01*
X11978571Y-47204140D02*
X11849999Y-47246997D01*
X11849999Y-47246997D02*
X11764285Y-47246997D01*
X11764285Y-47246997D02*
X11635714Y-47204140D01*
X11635714Y-47204140D02*
X11549999Y-47118425D01*
X11549999Y-47118425D02*
X11507142Y-47032711D01*
X11507142Y-47032711D02*
X11464285Y-46861282D01*
X11464285Y-46861282D02*
X11464285Y-46732711D01*
X11464285Y-46732711D02*
X11507142Y-46561282D01*
X11507142Y-46561282D02*
X11549999Y-46475568D01*
X11549999Y-46475568D02*
X11635714Y-46389854D01*
X11635714Y-46389854D02*
X11764285Y-46346997D01*
X11764285Y-46346997D02*
X11849999Y-46346997D01*
X11849999Y-46346997D02*
X11978571Y-46389854D01*
X11978571Y-46389854D02*
X12021428Y-46432711D01*
X12878571Y-47246997D02*
X12364285Y-47246997D01*
X12621428Y-47246997D02*
X12621428Y-46346997D01*
X12621428Y-46346997D02*
X12535714Y-46475568D01*
X12535714Y-46475568D02*
X12449999Y-46561282D01*
X12449999Y-46561282D02*
X12364285Y-46604140D01*
X13435714Y-46346997D02*
X13521428Y-46346997D01*
X13521428Y-46346997D02*
X13607142Y-46389854D01*
X13607142Y-46389854D02*
X13650000Y-46432711D01*
X13650000Y-46432711D02*
X13692857Y-46518425D01*
X13692857Y-46518425D02*
X13735714Y-46689854D01*
X13735714Y-46689854D02*
X13735714Y-46904140D01*
X13735714Y-46904140D02*
X13692857Y-47075568D01*
X13692857Y-47075568D02*
X13650000Y-47161282D01*
X13650000Y-47161282D02*
X13607142Y-47204140D01*
X13607142Y-47204140D02*
X13521428Y-47246997D01*
X13521428Y-47246997D02*
X13435714Y-47246997D01*
X13435714Y-47246997D02*
X13350000Y-47204140D01*
X13350000Y-47204140D02*
X13307142Y-47161282D01*
X13307142Y-47161282D02*
X13264285Y-47075568D01*
X13264285Y-47075568D02*
X13221428Y-46904140D01*
X13221428Y-46904140D02*
X13221428Y-46689854D01*
X13221428Y-46689854D02*
X13264285Y-46518425D01*
X13264285Y-46518425D02*
X13307142Y-46432711D01*
X13307142Y-46432711D02*
X13350000Y-46389854D01*
X13350000Y-46389854D02*
X13435714Y-46346997D01*
X14292857Y-46346997D02*
X14378571Y-46346997D01*
X14378571Y-46346997D02*
X14464285Y-46389854D01*
X14464285Y-46389854D02*
X14507143Y-46432711D01*
X14507143Y-46432711D02*
X14550000Y-46518425D01*
X14550000Y-46518425D02*
X14592857Y-46689854D01*
X14592857Y-46689854D02*
X14592857Y-46904140D01*
X14592857Y-46904140D02*
X14550000Y-47075568D01*
X14550000Y-47075568D02*
X14507143Y-47161282D01*
X14507143Y-47161282D02*
X14464285Y-47204140D01*
X14464285Y-47204140D02*
X14378571Y-47246997D01*
X14378571Y-47246997D02*
X14292857Y-47246997D01*
X14292857Y-47246997D02*
X14207143Y-47204140D01*
X14207143Y-47204140D02*
X14164285Y-47161282D01*
X14164285Y-47161282D02*
X14121428Y-47075568D01*
X14121428Y-47075568D02*
X14078571Y-46904140D01*
X14078571Y-46904140D02*
X14078571Y-46689854D01*
X14078571Y-46689854D02*
X14121428Y-46518425D01*
X14121428Y-46518425D02*
X14164285Y-46432711D01*
X14164285Y-46432711D02*
X14207143Y-46389854D01*
X14207143Y-46389854D02*
X14292857Y-46346997D01*
X15107143Y-46732711D02*
X15021428Y-46689854D01*
X15021428Y-46689854D02*
X14978571Y-46646997D01*
X14978571Y-46646997D02*
X14935714Y-46561282D01*
X14935714Y-46561282D02*
X14935714Y-46518425D01*
X14935714Y-46518425D02*
X14978571Y-46432711D01*
X14978571Y-46432711D02*
X15021428Y-46389854D01*
X15021428Y-46389854D02*
X15107143Y-46346997D01*
X15107143Y-46346997D02*
X15278571Y-46346997D01*
X15278571Y-46346997D02*
X15364286Y-46389854D01*
X15364286Y-46389854D02*
X15407143Y-46432711D01*
X15407143Y-46432711D02*
X15450000Y-46518425D01*
X15450000Y-46518425D02*
X15450000Y-46561282D01*
X15450000Y-46561282D02*
X15407143Y-46646997D01*
X15407143Y-46646997D02*
X15364286Y-46689854D01*
X15364286Y-46689854D02*
X15278571Y-46732711D01*
X15278571Y-46732711D02*
X15107143Y-46732711D01*
X15107143Y-46732711D02*
X15021428Y-46775568D01*
X15021428Y-46775568D02*
X14978571Y-46818425D01*
X14978571Y-46818425D02*
X14935714Y-46904140D01*
X14935714Y-46904140D02*
X14935714Y-47075568D01*
X14935714Y-47075568D02*
X14978571Y-47161282D01*
X14978571Y-47161282D02*
X15021428Y-47204140D01*
X15021428Y-47204140D02*
X15107143Y-47246997D01*
X15107143Y-47246997D02*
X15278571Y-47246997D01*
X15278571Y-47246997D02*
X15364286Y-47204140D01*
X15364286Y-47204140D02*
X15407143Y-47161282D01*
X15407143Y-47161282D02*
X15450000Y-47075568D01*
X15450000Y-47075568D02*
X15450000Y-46904140D01*
X15450000Y-46904140D02*
X15407143Y-46818425D01*
X15407143Y-46818425D02*
X15364286Y-46775568D01*
X15364286Y-46775568D02*
X15278571Y-46732711D01*
X15835714Y-46904140D02*
X16521429Y-46904140D01*
X17378572Y-46346997D02*
X16950000Y-46346997D01*
X16950000Y-46346997D02*
X16907143Y-46775568D01*
X16907143Y-46775568D02*
X16950000Y-46732711D01*
X16950000Y-46732711D02*
X17035715Y-46689854D01*
X17035715Y-46689854D02*
X17250000Y-46689854D01*
X17250000Y-46689854D02*
X17335715Y-46732711D01*
X17335715Y-46732711D02*
X17378572Y-46775568D01*
X17378572Y-46775568D02*
X17421429Y-46861282D01*
X17421429Y-46861282D02*
X17421429Y-47075568D01*
X17421429Y-47075568D02*
X17378572Y-47161282D01*
X17378572Y-47161282D02*
X17335715Y-47204140D01*
X17335715Y-47204140D02*
X17250000Y-47246997D01*
X17250000Y-47246997D02*
X17035715Y-47246997D01*
X17035715Y-47246997D02*
X16950000Y-47204140D01*
X16950000Y-47204140D02*
X16907143Y-47161282D01*
X18235715Y-46346997D02*
X17807143Y-46346997D01*
X17807143Y-46346997D02*
X17764286Y-46775568D01*
X17764286Y-46775568D02*
X17807143Y-46732711D01*
X17807143Y-46732711D02*
X17892858Y-46689854D01*
X17892858Y-46689854D02*
X18107143Y-46689854D01*
X18107143Y-46689854D02*
X18192858Y-46732711D01*
X18192858Y-46732711D02*
X18235715Y-46775568D01*
X18235715Y-46775568D02*
X18278572Y-46861282D01*
X18278572Y-46861282D02*
X18278572Y-47075568D01*
X18278572Y-47075568D02*
X18235715Y-47161282D01*
X18235715Y-47161282D02*
X18192858Y-47204140D01*
X18192858Y-47204140D02*
X18107143Y-47246997D01*
X18107143Y-47246997D02*
X17892858Y-47246997D01*
X17892858Y-47246997D02*
X17807143Y-47204140D01*
X17807143Y-47204140D02*
X17764286Y-47161282D01*
X18664286Y-47246997D02*
X18664286Y-46346997D01*
X18664286Y-46346997D02*
X19007143Y-46346997D01*
X19007143Y-46346997D02*
X19092858Y-46389854D01*
X19092858Y-46389854D02*
X19135715Y-46432711D01*
X19135715Y-46432711D02*
X19178572Y-46518425D01*
X19178572Y-46518425D02*
X19178572Y-46646997D01*
X19178572Y-46646997D02*
X19135715Y-46732711D01*
X19135715Y-46732711D02*
X19092858Y-46775568D01*
X19092858Y-46775568D02*
X19007143Y-46818425D01*
X19007143Y-46818425D02*
X18664286Y-46818425D01*
X20078572Y-47161282D02*
X20035715Y-47204140D01*
X20035715Y-47204140D02*
X19907143Y-47246997D01*
X19907143Y-47246997D02*
X19821429Y-47246997D01*
X19821429Y-47246997D02*
X19692858Y-47204140D01*
X19692858Y-47204140D02*
X19607143Y-47118425D01*
X19607143Y-47118425D02*
X19564286Y-47032711D01*
X19564286Y-47032711D02*
X19521429Y-46861282D01*
X19521429Y-46861282D02*
X19521429Y-46732711D01*
X19521429Y-46732711D02*
X19564286Y-46561282D01*
X19564286Y-46561282D02*
X19607143Y-46475568D01*
X19607143Y-46475568D02*
X19692858Y-46389854D01*
X19692858Y-46389854D02*
X19821429Y-46346997D01*
X19821429Y-46346997D02*
X19907143Y-46346997D01*
X19907143Y-46346997D02*
X20035715Y-46389854D01*
X20035715Y-46389854D02*
X20078572Y-46432711D01*
X20464286Y-47246997D02*
X20464286Y-46346997D01*
X20464286Y-46346997D02*
X20978572Y-47246997D01*
X20978572Y-47246997D02*
X20978572Y-46346997D01*
X22735714Y-46304140D02*
X21964286Y-47461282D01*
X23678571Y-46989854D02*
X24107143Y-46989854D01*
X23592857Y-47246997D02*
X23892857Y-46346997D01*
X23892857Y-46346997D02*
X24192857Y-47246997D01*
X24450000Y-47204140D02*
X24578572Y-47246997D01*
X24578572Y-47246997D02*
X24792857Y-47246997D01*
X24792857Y-47246997D02*
X24878572Y-47204140D01*
X24878572Y-47204140D02*
X24921429Y-47161282D01*
X24921429Y-47161282D02*
X24964286Y-47075568D01*
X24964286Y-47075568D02*
X24964286Y-46989854D01*
X24964286Y-46989854D02*
X24921429Y-46904140D01*
X24921429Y-46904140D02*
X24878572Y-46861282D01*
X24878572Y-46861282D02*
X24792857Y-46818425D01*
X24792857Y-46818425D02*
X24621429Y-46775568D01*
X24621429Y-46775568D02*
X24535714Y-46732711D01*
X24535714Y-46732711D02*
X24492857Y-46689854D01*
X24492857Y-46689854D02*
X24450000Y-46604140D01*
X24450000Y-46604140D02*
X24450000Y-46518425D01*
X24450000Y-46518425D02*
X24492857Y-46432711D01*
X24492857Y-46432711D02*
X24535714Y-46389854D01*
X24535714Y-46389854D02*
X24621429Y-46346997D01*
X24621429Y-46346997D02*
X24835714Y-46346997D01*
X24835714Y-46346997D02*
X24964286Y-46389854D01*
X25735715Y-46346997D02*
X25564286Y-46346997D01*
X25564286Y-46346997D02*
X25478572Y-46389854D01*
X25478572Y-46389854D02*
X25435715Y-46432711D01*
X25435715Y-46432711D02*
X25350000Y-46561282D01*
X25350000Y-46561282D02*
X25307143Y-46732711D01*
X25307143Y-46732711D02*
X25307143Y-47075568D01*
X25307143Y-47075568D02*
X25350000Y-47161282D01*
X25350000Y-47161282D02*
X25392857Y-47204140D01*
X25392857Y-47204140D02*
X25478572Y-47246997D01*
X25478572Y-47246997D02*
X25650000Y-47246997D01*
X25650000Y-47246997D02*
X25735715Y-47204140D01*
X25735715Y-47204140D02*
X25778572Y-47161282D01*
X25778572Y-47161282D02*
X25821429Y-47075568D01*
X25821429Y-47075568D02*
X25821429Y-46861282D01*
X25821429Y-46861282D02*
X25778572Y-46775568D01*
X25778572Y-46775568D02*
X25735715Y-46732711D01*
X25735715Y-46732711D02*
X25650000Y-46689854D01*
X25650000Y-46689854D02*
X25478572Y-46689854D01*
X25478572Y-46689854D02*
X25392857Y-46732711D01*
X25392857Y-46732711D02*
X25350000Y-46775568D01*
X25350000Y-46775568D02*
X25307143Y-46861282D01*
X26721429Y-47161282D02*
X26678572Y-47204140D01*
X26678572Y-47204140D02*
X26550000Y-47246997D01*
X26550000Y-47246997D02*
X26464286Y-47246997D01*
X26464286Y-47246997D02*
X26335715Y-47204140D01*
X26335715Y-47204140D02*
X26250000Y-47118425D01*
X26250000Y-47118425D02*
X26207143Y-47032711D01*
X26207143Y-47032711D02*
X26164286Y-46861282D01*
X26164286Y-46861282D02*
X26164286Y-46732711D01*
X26164286Y-46732711D02*
X26207143Y-46561282D01*
X26207143Y-46561282D02*
X26250000Y-46475568D01*
X26250000Y-46475568D02*
X26335715Y-46389854D01*
X26335715Y-46389854D02*
X26464286Y-46346997D01*
X26464286Y-46346997D02*
X26550000Y-46346997D01*
X26550000Y-46346997D02*
X26678572Y-46389854D01*
X26678572Y-46389854D02*
X26721429Y-46432711D01*
X27492858Y-46646997D02*
X27492858Y-47246997D01*
X27278572Y-46304140D02*
X27064286Y-46946997D01*
X27064286Y-46946997D02*
X27621429Y-46946997D01*
X28135715Y-46346997D02*
X28221429Y-46346997D01*
X28221429Y-46346997D02*
X28307143Y-46389854D01*
X28307143Y-46389854D02*
X28350001Y-46432711D01*
X28350001Y-46432711D02*
X28392858Y-46518425D01*
X28392858Y-46518425D02*
X28435715Y-46689854D01*
X28435715Y-46689854D02*
X28435715Y-46904140D01*
X28435715Y-46904140D02*
X28392858Y-47075568D01*
X28392858Y-47075568D02*
X28350001Y-47161282D01*
X28350001Y-47161282D02*
X28307143Y-47204140D01*
X28307143Y-47204140D02*
X28221429Y-47246997D01*
X28221429Y-47246997D02*
X28135715Y-47246997D01*
X28135715Y-47246997D02*
X28050001Y-47204140D01*
X28050001Y-47204140D02*
X28007143Y-47161282D01*
X28007143Y-47161282D02*
X27964286Y-47075568D01*
X27964286Y-47075568D02*
X27921429Y-46904140D01*
X27921429Y-46904140D02*
X27921429Y-46689854D01*
X27921429Y-46689854D02*
X27964286Y-46518425D01*
X27964286Y-46518425D02*
X28007143Y-46432711D01*
X28007143Y-46432711D02*
X28050001Y-46389854D01*
X28050001Y-46389854D02*
X28135715Y-46346997D01*
X28992858Y-46346997D02*
X29078572Y-46346997D01*
X29078572Y-46346997D02*
X29164286Y-46389854D01*
X29164286Y-46389854D02*
X29207144Y-46432711D01*
X29207144Y-46432711D02*
X29250001Y-46518425D01*
X29250001Y-46518425D02*
X29292858Y-46689854D01*
X29292858Y-46689854D02*
X29292858Y-46904140D01*
X29292858Y-46904140D02*
X29250001Y-47075568D01*
X29250001Y-47075568D02*
X29207144Y-47161282D01*
X29207144Y-47161282D02*
X29164286Y-47204140D01*
X29164286Y-47204140D02*
X29078572Y-47246997D01*
X29078572Y-47246997D02*
X28992858Y-47246997D01*
X28992858Y-47246997D02*
X28907144Y-47204140D01*
X28907144Y-47204140D02*
X28864286Y-47161282D01*
X28864286Y-47161282D02*
X28821429Y-47075568D01*
X28821429Y-47075568D02*
X28778572Y-46904140D01*
X28778572Y-46904140D02*
X28778572Y-46689854D01*
X28778572Y-46689854D02*
X28821429Y-46518425D01*
X28821429Y-46518425D02*
X28864286Y-46432711D01*
X28864286Y-46432711D02*
X28907144Y-46389854D01*
X28907144Y-46389854D02*
X28992858Y-46346997D01*
X29807144Y-46732711D02*
X29721429Y-46689854D01*
X29721429Y-46689854D02*
X29678572Y-46646997D01*
X29678572Y-46646997D02*
X29635715Y-46561282D01*
X29635715Y-46561282D02*
X29635715Y-46518425D01*
X29635715Y-46518425D02*
X29678572Y-46432711D01*
X29678572Y-46432711D02*
X29721429Y-46389854D01*
X29721429Y-46389854D02*
X29807144Y-46346997D01*
X29807144Y-46346997D02*
X29978572Y-46346997D01*
X29978572Y-46346997D02*
X30064287Y-46389854D01*
X30064287Y-46389854D02*
X30107144Y-46432711D01*
X30107144Y-46432711D02*
X30150001Y-46518425D01*
X30150001Y-46518425D02*
X30150001Y-46561282D01*
X30150001Y-46561282D02*
X30107144Y-46646997D01*
X30107144Y-46646997D02*
X30064287Y-46689854D01*
X30064287Y-46689854D02*
X29978572Y-46732711D01*
X29978572Y-46732711D02*
X29807144Y-46732711D01*
X29807144Y-46732711D02*
X29721429Y-46775568D01*
X29721429Y-46775568D02*
X29678572Y-46818425D01*
X29678572Y-46818425D02*
X29635715Y-46904140D01*
X29635715Y-46904140D02*
X29635715Y-47075568D01*
X29635715Y-47075568D02*
X29678572Y-47161282D01*
X29678572Y-47161282D02*
X29721429Y-47204140D01*
X29721429Y-47204140D02*
X29807144Y-47246997D01*
X29807144Y-47246997D02*
X29978572Y-47246997D01*
X29978572Y-47246997D02*
X30064287Y-47204140D01*
X30064287Y-47204140D02*
X30107144Y-47161282D01*
X30107144Y-47161282D02*
X30150001Y-47075568D01*
X30150001Y-47075568D02*
X30150001Y-46904140D01*
X30150001Y-46904140D02*
X30107144Y-46818425D01*
X30107144Y-46818425D02*
X30064287Y-46775568D01*
X30064287Y-46775568D02*
X29978572Y-46732711D01*
X30535715Y-46904140D02*
X31221430Y-46904140D01*
X32078573Y-46346997D02*
X31650001Y-46346997D01*
X31650001Y-46346997D02*
X31607144Y-46775568D01*
X31607144Y-46775568D02*
X31650001Y-46732711D01*
X31650001Y-46732711D02*
X31735716Y-46689854D01*
X31735716Y-46689854D02*
X31950001Y-46689854D01*
X31950001Y-46689854D02*
X32035716Y-46732711D01*
X32035716Y-46732711D02*
X32078573Y-46775568D01*
X32078573Y-46775568D02*
X32121430Y-46861282D01*
X32121430Y-46861282D02*
X32121430Y-47075568D01*
X32121430Y-47075568D02*
X32078573Y-47161282D01*
X32078573Y-47161282D02*
X32035716Y-47204140D01*
X32035716Y-47204140D02*
X31950001Y-47246997D01*
X31950001Y-47246997D02*
X31735716Y-47246997D01*
X31735716Y-47246997D02*
X31650001Y-47204140D01*
X31650001Y-47204140D02*
X31607144Y-47161282D01*
X32935716Y-46346997D02*
X32507144Y-46346997D01*
X32507144Y-46346997D02*
X32464287Y-46775568D01*
X32464287Y-46775568D02*
X32507144Y-46732711D01*
X32507144Y-46732711D02*
X32592859Y-46689854D01*
X32592859Y-46689854D02*
X32807144Y-46689854D01*
X32807144Y-46689854D02*
X32892859Y-46732711D01*
X32892859Y-46732711D02*
X32935716Y-46775568D01*
X32935716Y-46775568D02*
X32978573Y-46861282D01*
X32978573Y-46861282D02*
X32978573Y-47075568D01*
X32978573Y-47075568D02*
X32935716Y-47161282D01*
X32935716Y-47161282D02*
X32892859Y-47204140D01*
X32892859Y-47204140D02*
X32807144Y-47246997D01*
X32807144Y-47246997D02*
X32592859Y-47246997D01*
X32592859Y-47246997D02*
X32507144Y-47204140D01*
X32507144Y-47204140D02*
X32464287Y-47161282D01*
X33364287Y-47246997D02*
X33364287Y-46346997D01*
X33364287Y-46346997D02*
X33707144Y-46346997D01*
X33707144Y-46346997D02*
X33792859Y-46389854D01*
X33792859Y-46389854D02*
X33835716Y-46432711D01*
X33835716Y-46432711D02*
X33878573Y-46518425D01*
X33878573Y-46518425D02*
X33878573Y-46646997D01*
X33878573Y-46646997D02*
X33835716Y-46732711D01*
X33835716Y-46732711D02*
X33792859Y-46775568D01*
X33792859Y-46775568D02*
X33707144Y-46818425D01*
X33707144Y-46818425D02*
X33364287Y-46818425D01*
X34778573Y-47161282D02*
X34735716Y-47204140D01*
X34735716Y-47204140D02*
X34607144Y-47246997D01*
X34607144Y-47246997D02*
X34521430Y-47246997D01*
X34521430Y-47246997D02*
X34392859Y-47204140D01*
X34392859Y-47204140D02*
X34307144Y-47118425D01*
X34307144Y-47118425D02*
X34264287Y-47032711D01*
X34264287Y-47032711D02*
X34221430Y-46861282D01*
X34221430Y-46861282D02*
X34221430Y-46732711D01*
X34221430Y-46732711D02*
X34264287Y-46561282D01*
X34264287Y-46561282D02*
X34307144Y-46475568D01*
X34307144Y-46475568D02*
X34392859Y-46389854D01*
X34392859Y-46389854D02*
X34521430Y-46346997D01*
X34521430Y-46346997D02*
X34607144Y-46346997D01*
X34607144Y-46346997D02*
X34735716Y-46389854D01*
X34735716Y-46389854D02*
X34778573Y-46432711D01*
X35164287Y-47246997D02*
X35164287Y-46346997D01*
X35164287Y-46346997D02*
X35678573Y-47246997D01*
X35678573Y-47246997D02*
X35678573Y-46346997D01*
X58951428Y-52226997D02*
X59551428Y-52226997D01*
X59551428Y-52226997D02*
X59165714Y-53126997D01*
X60280000Y-52526997D02*
X60280000Y-53126997D01*
X60065714Y-52184140D02*
X59851428Y-52826997D01*
X59851428Y-52826997D02*
X60408571Y-52826997D01*
X60751428Y-53126997D02*
X60751428Y-52226997D01*
X60751428Y-52655568D02*
X61265714Y-52655568D01*
X61265714Y-53126997D02*
X61265714Y-52226997D01*
X62208571Y-53041282D02*
X62165714Y-53084140D01*
X62165714Y-53084140D02*
X62037142Y-53126997D01*
X62037142Y-53126997D02*
X61951428Y-53126997D01*
X61951428Y-53126997D02*
X61822857Y-53084140D01*
X61822857Y-53084140D02*
X61737142Y-52998425D01*
X61737142Y-52998425D02*
X61694285Y-52912711D01*
X61694285Y-52912711D02*
X61651428Y-52741282D01*
X61651428Y-52741282D02*
X61651428Y-52612711D01*
X61651428Y-52612711D02*
X61694285Y-52441282D01*
X61694285Y-52441282D02*
X61737142Y-52355568D01*
X61737142Y-52355568D02*
X61822857Y-52269854D01*
X61822857Y-52269854D02*
X61951428Y-52226997D01*
X61951428Y-52226997D02*
X62037142Y-52226997D01*
X62037142Y-52226997D02*
X62165714Y-52269854D01*
X62165714Y-52269854D02*
X62208571Y-52312711D01*
X62465714Y-52226997D02*
X62980000Y-52226997D01*
X62722857Y-53126997D02*
X62722857Y-52226997D01*
X63237142Y-52312711D02*
X63279999Y-52269854D01*
X63279999Y-52269854D02*
X63365714Y-52226997D01*
X63365714Y-52226997D02*
X63579999Y-52226997D01*
X63579999Y-52226997D02*
X63665714Y-52269854D01*
X63665714Y-52269854D02*
X63708571Y-52312711D01*
X63708571Y-52312711D02*
X63751428Y-52398425D01*
X63751428Y-52398425D02*
X63751428Y-52484140D01*
X63751428Y-52484140D02*
X63708571Y-52612711D01*
X63708571Y-52612711D02*
X63194285Y-53126997D01*
X63194285Y-53126997D02*
X63751428Y-53126997D01*
X64051428Y-52226997D02*
X64651428Y-52226997D01*
X64651428Y-52226997D02*
X64265714Y-53126997D01*
X64908571Y-52226997D02*
X65465714Y-52226997D01*
X65465714Y-52226997D02*
X65165714Y-52569854D01*
X65165714Y-52569854D02*
X65294285Y-52569854D01*
X65294285Y-52569854D02*
X65380000Y-52612711D01*
X65380000Y-52612711D02*
X65422857Y-52655568D01*
X65422857Y-52655568D02*
X65465714Y-52741282D01*
X65465714Y-52741282D02*
X65465714Y-52955568D01*
X65465714Y-52955568D02*
X65422857Y-53041282D01*
X65422857Y-53041282D02*
X65380000Y-53084140D01*
X65380000Y-53084140D02*
X65294285Y-53126997D01*
X65294285Y-53126997D02*
X65037142Y-53126997D01*
X65037142Y-53126997D02*
X64951428Y-53084140D01*
X64951428Y-53084140D02*
X64908571Y-53041282D01*
X59205713Y-39369853D02*
X59634285Y-39369853D01*
X59119999Y-39626996D02*
X59419999Y-38726996D01*
X59419999Y-38726996D02*
X59719999Y-39626996D01*
X59891428Y-38726996D02*
X60405714Y-38726996D01*
X60148571Y-39626996D02*
X60148571Y-38726996D01*
X61005713Y-39155567D02*
X60705713Y-39155567D01*
X60705713Y-39626996D02*
X60705713Y-38726996D01*
X60705713Y-38726996D02*
X61134285Y-38726996D01*
X61434285Y-38812710D02*
X61477142Y-38769853D01*
X61477142Y-38769853D02*
X61562857Y-38726996D01*
X61562857Y-38726996D02*
X61777142Y-38726996D01*
X61777142Y-38726996D02*
X61862857Y-38769853D01*
X61862857Y-38769853D02*
X61905714Y-38812710D01*
X61905714Y-38812710D02*
X61948571Y-38898424D01*
X61948571Y-38898424D02*
X61948571Y-38984139D01*
X61948571Y-38984139D02*
X61905714Y-39112710D01*
X61905714Y-39112710D02*
X61391428Y-39626996D01*
X61391428Y-39626996D02*
X61948571Y-39626996D01*
X62505714Y-38726996D02*
X62591428Y-38726996D01*
X62591428Y-38726996D02*
X62677142Y-38769853D01*
X62677142Y-38769853D02*
X62720000Y-38812710D01*
X62720000Y-38812710D02*
X62762857Y-38898424D01*
X62762857Y-38898424D02*
X62805714Y-39069853D01*
X62805714Y-39069853D02*
X62805714Y-39284139D01*
X62805714Y-39284139D02*
X62762857Y-39455567D01*
X62762857Y-39455567D02*
X62720000Y-39541281D01*
X62720000Y-39541281D02*
X62677142Y-39584139D01*
X62677142Y-39584139D02*
X62591428Y-39626996D01*
X62591428Y-39626996D02*
X62505714Y-39626996D01*
X62505714Y-39626996D02*
X62420000Y-39584139D01*
X62420000Y-39584139D02*
X62377142Y-39541281D01*
X62377142Y-39541281D02*
X62334285Y-39455567D01*
X62334285Y-39455567D02*
X62291428Y-39284139D01*
X62291428Y-39284139D02*
X62291428Y-39069853D01*
X62291428Y-39069853D02*
X62334285Y-38898424D01*
X62334285Y-38898424D02*
X62377142Y-38812710D01*
X62377142Y-38812710D02*
X62420000Y-38769853D01*
X62420000Y-38769853D02*
X62505714Y-38726996D01*
X63062857Y-38726996D02*
X63362857Y-39626996D01*
X63362857Y-39626996D02*
X63662857Y-38726996D01*
X64091429Y-39112710D02*
X64005714Y-39069853D01*
X64005714Y-39069853D02*
X63962857Y-39026996D01*
X63962857Y-39026996D02*
X63920000Y-38941281D01*
X63920000Y-38941281D02*
X63920000Y-38898424D01*
X63920000Y-38898424D02*
X63962857Y-38812710D01*
X63962857Y-38812710D02*
X64005714Y-38769853D01*
X64005714Y-38769853D02*
X64091429Y-38726996D01*
X64091429Y-38726996D02*
X64262857Y-38726996D01*
X64262857Y-38726996D02*
X64348572Y-38769853D01*
X64348572Y-38769853D02*
X64391429Y-38812710D01*
X64391429Y-38812710D02*
X64434286Y-38898424D01*
X64434286Y-38898424D02*
X64434286Y-38941281D01*
X64434286Y-38941281D02*
X64391429Y-39026996D01*
X64391429Y-39026996D02*
X64348572Y-39069853D01*
X64348572Y-39069853D02*
X64262857Y-39112710D01*
X64262857Y-39112710D02*
X64091429Y-39112710D01*
X64091429Y-39112710D02*
X64005714Y-39155567D01*
X64005714Y-39155567D02*
X63962857Y-39198424D01*
X63962857Y-39198424D02*
X63920000Y-39284139D01*
X63920000Y-39284139D02*
X63920000Y-39455567D01*
X63920000Y-39455567D02*
X63962857Y-39541281D01*
X63962857Y-39541281D02*
X64005714Y-39584139D01*
X64005714Y-39584139D02*
X64091429Y-39626996D01*
X64091429Y-39626996D02*
X64262857Y-39626996D01*
X64262857Y-39626996D02*
X64348572Y-39584139D01*
X64348572Y-39584139D02*
X64391429Y-39541281D01*
X64391429Y-39541281D02*
X64434286Y-39455567D01*
X64434286Y-39455567D02*
X64434286Y-39284139D01*
X64434286Y-39284139D02*
X64391429Y-39198424D01*
X64391429Y-39198424D02*
X64348572Y-39155567D01*
X64348572Y-39155567D02*
X64262857Y-39112710D01*
X65120000Y-39155567D02*
X65248572Y-39198424D01*
X65248572Y-39198424D02*
X65291429Y-39241281D01*
X65291429Y-39241281D02*
X65334286Y-39326996D01*
X65334286Y-39326996D02*
X65334286Y-39455567D01*
X65334286Y-39455567D02*
X65291429Y-39541281D01*
X65291429Y-39541281D02*
X65248572Y-39584139D01*
X65248572Y-39584139D02*
X65162857Y-39626996D01*
X65162857Y-39626996D02*
X64820000Y-39626996D01*
X64820000Y-39626996D02*
X64820000Y-38726996D01*
X64820000Y-38726996D02*
X65120000Y-38726996D01*
X65120000Y-38726996D02*
X65205715Y-38769853D01*
X65205715Y-38769853D02*
X65248572Y-38812710D01*
X65248572Y-38812710D02*
X65291429Y-38898424D01*
X65291429Y-38898424D02*
X65291429Y-38984139D01*
X65291429Y-38984139D02*
X65248572Y-39069853D01*
X65248572Y-39069853D02*
X65205715Y-39112710D01*
X65205715Y-39112710D02*
X65120000Y-39155567D01*
X65120000Y-39155567D02*
X64820000Y-39155567D01*
D11*
X44223810Y-23897440D02*
X44852382Y-23897440D01*
X44538096Y-24997440D02*
X44538096Y-23897440D01*
X45219048Y-24997440D02*
X45219048Y-23897440D01*
X45847620Y-24997440D02*
X45376191Y-24368869D01*
X45847620Y-23897440D02*
X45219048Y-24526012D01*
X46319048Y-24997440D02*
X46319048Y-23897440D01*
X46319048Y-23897440D02*
X46685715Y-24683155D01*
X46685715Y-24683155D02*
X47052382Y-23897440D01*
X47052382Y-23897440D02*
X47052382Y-24997440D01*
X47576191Y-24421250D02*
X47942858Y-24421250D01*
X48100001Y-24997440D02*
X47576191Y-24997440D01*
X47576191Y-24997440D02*
X47576191Y-23897440D01*
X47576191Y-23897440D02*
X48100001Y-23897440D01*
X48571429Y-24997440D02*
X48571429Y-23897440D01*
X48571429Y-23897440D02*
X48938096Y-24683155D01*
X48938096Y-24683155D02*
X49304763Y-23897440D01*
X49304763Y-23897440D02*
X49304763Y-24997440D01*
X49828572Y-24578393D02*
X50666668Y-24578393D01*
X51766668Y-24997440D02*
X51138096Y-24997440D01*
X51452382Y-24997440D02*
X51452382Y-23897440D01*
X51452382Y-23897440D02*
X51347620Y-24054583D01*
X51347620Y-24054583D02*
X51242858Y-24159345D01*
X51242858Y-24159345D02*
X51138096Y-24211726D01*
X52185715Y-24002202D02*
X52238096Y-23949821D01*
X52238096Y-23949821D02*
X52342858Y-23897440D01*
X52342858Y-23897440D02*
X52604763Y-23897440D01*
X52604763Y-23897440D02*
X52709525Y-23949821D01*
X52709525Y-23949821D02*
X52761906Y-24002202D01*
X52761906Y-24002202D02*
X52814287Y-24106964D01*
X52814287Y-24106964D02*
X52814287Y-24211726D01*
X52814287Y-24211726D02*
X52761906Y-24368869D01*
X52761906Y-24368869D02*
X52133334Y-24997440D01*
X52133334Y-24997440D02*
X52814287Y-24997440D01*
X53442858Y-24368869D02*
X53338096Y-24316488D01*
X53338096Y-24316488D02*
X53285715Y-24264107D01*
X53285715Y-24264107D02*
X53233334Y-24159345D01*
X53233334Y-24159345D02*
X53233334Y-24106964D01*
X53233334Y-24106964D02*
X53285715Y-24002202D01*
X53285715Y-24002202D02*
X53338096Y-23949821D01*
X53338096Y-23949821D02*
X53442858Y-23897440D01*
X53442858Y-23897440D02*
X53652382Y-23897440D01*
X53652382Y-23897440D02*
X53757144Y-23949821D01*
X53757144Y-23949821D02*
X53809525Y-24002202D01*
X53809525Y-24002202D02*
X53861906Y-24106964D01*
X53861906Y-24106964D02*
X53861906Y-24159345D01*
X53861906Y-24159345D02*
X53809525Y-24264107D01*
X53809525Y-24264107D02*
X53757144Y-24316488D01*
X53757144Y-24316488D02*
X53652382Y-24368869D01*
X53652382Y-24368869D02*
X53442858Y-24368869D01*
X53442858Y-24368869D02*
X53338096Y-24421250D01*
X53338096Y-24421250D02*
X53285715Y-24473631D01*
X53285715Y-24473631D02*
X53233334Y-24578393D01*
X53233334Y-24578393D02*
X53233334Y-24787917D01*
X53233334Y-24787917D02*
X53285715Y-24892679D01*
X53285715Y-24892679D02*
X53338096Y-24945060D01*
X53338096Y-24945060D02*
X53442858Y-24997440D01*
X53442858Y-24997440D02*
X53652382Y-24997440D01*
X53652382Y-24997440D02*
X53757144Y-24945060D01*
X53757144Y-24945060D02*
X53809525Y-24892679D01*
X53809525Y-24892679D02*
X53861906Y-24787917D01*
X53861906Y-24787917D02*
X53861906Y-24578393D01*
X53861906Y-24578393D02*
X53809525Y-24473631D01*
X53809525Y-24473631D02*
X53757144Y-24421250D01*
X53757144Y-24421250D02*
X53652382Y-24368869D01*
X57371429Y-24997440D02*
X56847619Y-24997440D01*
X56847619Y-24997440D02*
X56847619Y-23897440D01*
X58366667Y-24997440D02*
X58000000Y-24473631D01*
X57738095Y-24997440D02*
X57738095Y-23897440D01*
X57738095Y-23897440D02*
X58157143Y-23897440D01*
X58157143Y-23897440D02*
X58261905Y-23949821D01*
X58261905Y-23949821D02*
X58314286Y-24002202D01*
X58314286Y-24002202D02*
X58366667Y-24106964D01*
X58366667Y-24106964D02*
X58366667Y-24264107D01*
X58366667Y-24264107D02*
X58314286Y-24368869D01*
X58314286Y-24368869D02*
X58261905Y-24421250D01*
X58261905Y-24421250D02*
X58157143Y-24473631D01*
X58157143Y-24473631D02*
X57738095Y-24473631D01*
X59466667Y-24997440D02*
X59100000Y-24473631D01*
X58838095Y-24997440D02*
X58838095Y-23897440D01*
X58838095Y-23897440D02*
X59257143Y-23897440D01*
X59257143Y-23897440D02*
X59361905Y-23949821D01*
X59361905Y-23949821D02*
X59414286Y-24002202D01*
X59414286Y-24002202D02*
X59466667Y-24106964D01*
X59466667Y-24106964D02*
X59466667Y-24264107D01*
X59466667Y-24264107D02*
X59414286Y-24368869D01*
X59414286Y-24368869D02*
X59361905Y-24421250D01*
X59361905Y-24421250D02*
X59257143Y-24473631D01*
X59257143Y-24473631D02*
X58838095Y-24473631D01*
X60095238Y-24997440D02*
X59990476Y-24945060D01*
X59990476Y-24945060D02*
X59938095Y-24892679D01*
X59938095Y-24892679D02*
X59885714Y-24787917D01*
X59885714Y-24787917D02*
X59885714Y-24473631D01*
X59885714Y-24473631D02*
X59938095Y-24368869D01*
X59938095Y-24368869D02*
X59990476Y-24316488D01*
X59990476Y-24316488D02*
X60095238Y-24264107D01*
X60095238Y-24264107D02*
X60252381Y-24264107D01*
X60252381Y-24264107D02*
X60357143Y-24316488D01*
X60357143Y-24316488D02*
X60409524Y-24368869D01*
X60409524Y-24368869D02*
X60461905Y-24473631D01*
X60461905Y-24473631D02*
X60461905Y-24787917D01*
X60461905Y-24787917D02*
X60409524Y-24892679D01*
X60409524Y-24892679D02*
X60357143Y-24945060D01*
X60357143Y-24945060D02*
X60252381Y-24997440D01*
X60252381Y-24997440D02*
X60095238Y-24997440D01*
X60880952Y-24945060D02*
X60985714Y-24997440D01*
X60985714Y-24997440D02*
X61195238Y-24997440D01*
X61195238Y-24997440D02*
X61300000Y-24945060D01*
X61300000Y-24945060D02*
X61352381Y-24840298D01*
X61352381Y-24840298D02*
X61352381Y-24787917D01*
X61352381Y-24787917D02*
X61300000Y-24683155D01*
X61300000Y-24683155D02*
X61195238Y-24630774D01*
X61195238Y-24630774D02*
X61038095Y-24630774D01*
X61038095Y-24630774D02*
X60933333Y-24578393D01*
X60933333Y-24578393D02*
X60880952Y-24473631D01*
X60880952Y-24473631D02*
X60880952Y-24421250D01*
X60880952Y-24421250D02*
X60933333Y-24316488D01*
X60933333Y-24316488D02*
X61038095Y-24264107D01*
X61038095Y-24264107D02*
X61195238Y-24264107D01*
X61195238Y-24264107D02*
X61300000Y-24316488D01*
X62295238Y-24997440D02*
X62295238Y-24421250D01*
X62295238Y-24421250D02*
X62242857Y-24316488D01*
X62242857Y-24316488D02*
X62138095Y-24264107D01*
X62138095Y-24264107D02*
X61928571Y-24264107D01*
X61928571Y-24264107D02*
X61823809Y-24316488D01*
X62295238Y-24945060D02*
X62190476Y-24997440D01*
X62190476Y-24997440D02*
X61928571Y-24997440D01*
X61928571Y-24997440D02*
X61823809Y-24945060D01*
X61823809Y-24945060D02*
X61771428Y-24840298D01*
X61771428Y-24840298D02*
X61771428Y-24735536D01*
X61771428Y-24735536D02*
X61823809Y-24630774D01*
X61823809Y-24630774D02*
X61928571Y-24578393D01*
X61928571Y-24578393D02*
X62190476Y-24578393D01*
X62190476Y-24578393D02*
X62295238Y-24526012D01*
X63604761Y-24002202D02*
X63657142Y-23949821D01*
X63657142Y-23949821D02*
X63761904Y-23897440D01*
X63761904Y-23897440D02*
X64023809Y-23897440D01*
X64023809Y-23897440D02*
X64128571Y-23949821D01*
X64128571Y-23949821D02*
X64180952Y-24002202D01*
X64180952Y-24002202D02*
X64233333Y-24106964D01*
X64233333Y-24106964D02*
X64233333Y-24211726D01*
X64233333Y-24211726D02*
X64180952Y-24368869D01*
X64180952Y-24368869D02*
X63552380Y-24997440D01*
X63552380Y-24997440D02*
X64233333Y-24997440D01*
X64914285Y-23897440D02*
X65019047Y-23897440D01*
X65019047Y-23897440D02*
X65123809Y-23949821D01*
X65123809Y-23949821D02*
X65176190Y-24002202D01*
X65176190Y-24002202D02*
X65228571Y-24106964D01*
X65228571Y-24106964D02*
X65280952Y-24316488D01*
X65280952Y-24316488D02*
X65280952Y-24578393D01*
X65280952Y-24578393D02*
X65228571Y-24787917D01*
X65228571Y-24787917D02*
X65176190Y-24892679D01*
X65176190Y-24892679D02*
X65123809Y-24945060D01*
X65123809Y-24945060D02*
X65019047Y-24997440D01*
X65019047Y-24997440D02*
X64914285Y-24997440D01*
X64914285Y-24997440D02*
X64809523Y-24945060D01*
X64809523Y-24945060D02*
X64757142Y-24892679D01*
X64757142Y-24892679D02*
X64704761Y-24787917D01*
X64704761Y-24787917D02*
X64652380Y-24578393D01*
X64652380Y-24578393D02*
X64652380Y-24316488D01*
X64652380Y-24316488D02*
X64704761Y-24106964D01*
X64704761Y-24106964D02*
X64757142Y-24002202D01*
X64757142Y-24002202D02*
X64809523Y-23949821D01*
X64809523Y-23949821D02*
X64914285Y-23897440D01*
X65699999Y-24002202D02*
X65752380Y-23949821D01*
X65752380Y-23949821D02*
X65857142Y-23897440D01*
X65857142Y-23897440D02*
X66119047Y-23897440D01*
X66119047Y-23897440D02*
X66223809Y-23949821D01*
X66223809Y-23949821D02*
X66276190Y-24002202D01*
X66276190Y-24002202D02*
X66328571Y-24106964D01*
X66328571Y-24106964D02*
X66328571Y-24211726D01*
X66328571Y-24211726D02*
X66276190Y-24368869D01*
X66276190Y-24368869D02*
X65647618Y-24997440D01*
X65647618Y-24997440D02*
X66328571Y-24997440D01*
X67271428Y-23897440D02*
X67061904Y-23897440D01*
X67061904Y-23897440D02*
X66957142Y-23949821D01*
X66957142Y-23949821D02*
X66904761Y-24002202D01*
X66904761Y-24002202D02*
X66799999Y-24159345D01*
X66799999Y-24159345D02*
X66747618Y-24368869D01*
X66747618Y-24368869D02*
X66747618Y-24787917D01*
X66747618Y-24787917D02*
X66799999Y-24892679D01*
X66799999Y-24892679D02*
X66852380Y-24945060D01*
X66852380Y-24945060D02*
X66957142Y-24997440D01*
X66957142Y-24997440D02*
X67166666Y-24997440D01*
X67166666Y-24997440D02*
X67271428Y-24945060D01*
X67271428Y-24945060D02*
X67323809Y-24892679D01*
X67323809Y-24892679D02*
X67376190Y-24787917D01*
X67376190Y-24787917D02*
X67376190Y-24526012D01*
X67376190Y-24526012D02*
X67323809Y-24421250D01*
X67323809Y-24421250D02*
X67271428Y-24368869D01*
X67271428Y-24368869D02*
X67166666Y-24316488D01*
X67166666Y-24316488D02*
X66957142Y-24316488D01*
X66957142Y-24316488D02*
X66852380Y-24368869D01*
X66852380Y-24368869D02*
X66799999Y-24421250D01*
X66799999Y-24421250D02*
X66747618Y-24526012D01*
X68580951Y-24264107D02*
X68842856Y-24997440D01*
X68842856Y-24997440D02*
X69104761Y-24264107D01*
X70099999Y-24997440D02*
X69471427Y-24997440D01*
X69785713Y-24997440D02*
X69785713Y-23897440D01*
X69785713Y-23897440D02*
X69680951Y-24054583D01*
X69680951Y-24054583D02*
X69576189Y-24159345D01*
X69576189Y-24159345D02*
X69471427Y-24211726D01*
X70571427Y-24892679D02*
X70623808Y-24945060D01*
X70623808Y-24945060D02*
X70571427Y-24997440D01*
X70571427Y-24997440D02*
X70519046Y-24945060D01*
X70519046Y-24945060D02*
X70571427Y-24892679D01*
X70571427Y-24892679D02*
X70571427Y-24997440D01*
X71304761Y-23897440D02*
X71409523Y-23897440D01*
X71409523Y-23897440D02*
X71514285Y-23949821D01*
X71514285Y-23949821D02*
X71566666Y-24002202D01*
X71566666Y-24002202D02*
X71619047Y-24106964D01*
X71619047Y-24106964D02*
X71671428Y-24316488D01*
X71671428Y-24316488D02*
X71671428Y-24578393D01*
X71671428Y-24578393D02*
X71619047Y-24787917D01*
X71619047Y-24787917D02*
X71566666Y-24892679D01*
X71566666Y-24892679D02*
X71514285Y-24945060D01*
X71514285Y-24945060D02*
X71409523Y-24997440D01*
X71409523Y-24997440D02*
X71304761Y-24997440D01*
X71304761Y-24997440D02*
X71199999Y-24945060D01*
X71199999Y-24945060D02*
X71147618Y-24892679D01*
X71147618Y-24892679D02*
X71095237Y-24787917D01*
X71095237Y-24787917D02*
X71042856Y-24578393D01*
X71042856Y-24578393D02*
X71042856Y-24316488D01*
X71042856Y-24316488D02*
X71095237Y-24106964D01*
X71095237Y-24106964D02*
X71147618Y-24002202D01*
X71147618Y-24002202D02*
X71199999Y-23949821D01*
X71199999Y-23949821D02*
X71304761Y-23897440D01*
D12*
X372219Y-36581904D02*
X1181742Y-36581904D01*
X1181742Y-36581904D02*
X1276980Y-36534285D01*
X1276980Y-36534285D02*
X1324600Y-36486666D01*
X1324600Y-36486666D02*
X1372219Y-36391428D01*
X1372219Y-36391428D02*
X1372219Y-36200952D01*
X1372219Y-36200952D02*
X1324600Y-36105714D01*
X1324600Y-36105714D02*
X1276980Y-36058095D01*
X1276980Y-36058095D02*
X1181742Y-36010476D01*
X1181742Y-36010476D02*
X372219Y-36010476D01*
X372219Y-35629523D02*
X372219Y-35010476D01*
X372219Y-35010476D02*
X753171Y-35343809D01*
X753171Y-35343809D02*
X753171Y-35200952D01*
X753171Y-35200952D02*
X800790Y-35105714D01*
X800790Y-35105714D02*
X848409Y-35058095D01*
X848409Y-35058095D02*
X943647Y-35010476D01*
X943647Y-35010476D02*
X1181742Y-35010476D01*
X1181742Y-35010476D02*
X1276980Y-35058095D01*
X1276980Y-35058095D02*
X1324600Y-35105714D01*
X1324600Y-35105714D02*
X1372219Y-35200952D01*
X1372219Y-35200952D02*
X1372219Y-35486666D01*
X1372219Y-35486666D02*
X1324600Y-35581904D01*
X1324600Y-35581904D02*
X1276980Y-35629523D01*
X57452219Y-7833333D02*
X58166504Y-7833333D01*
X58166504Y-7833333D02*
X58309361Y-7880952D01*
X58309361Y-7880952D02*
X58404600Y-7976190D01*
X58404600Y-7976190D02*
X58452219Y-8119047D01*
X58452219Y-8119047D02*
X58452219Y-8214285D01*
X58452219Y-7357142D02*
X57452219Y-7357142D01*
X57452219Y-7357142D02*
X57452219Y-6976190D01*
X57452219Y-6976190D02*
X57499838Y-6880952D01*
X57499838Y-6880952D02*
X57547457Y-6833333D01*
X57547457Y-6833333D02*
X57642695Y-6785714D01*
X57642695Y-6785714D02*
X57785552Y-6785714D01*
X57785552Y-6785714D02*
X57880790Y-6833333D01*
X57880790Y-6833333D02*
X57928409Y-6880952D01*
X57928409Y-6880952D02*
X57976028Y-6976190D01*
X57976028Y-6976190D02*
X57976028Y-7357142D01*
X57547457Y-6404761D02*
X57499838Y-6357142D01*
X57499838Y-6357142D02*
X57452219Y-6261904D01*
X57452219Y-6261904D02*
X57452219Y-6023809D01*
X57452219Y-6023809D02*
X57499838Y-5928571D01*
X57499838Y-5928571D02*
X57547457Y-5880952D01*
X57547457Y-5880952D02*
X57642695Y-5833333D01*
X57642695Y-5833333D02*
X57737933Y-5833333D01*
X57737933Y-5833333D02*
X57880790Y-5880952D01*
X57880790Y-5880952D02*
X58452219Y-6452380D01*
X58452219Y-6452380D02*
X58452219Y-5833333D01*
X54738095Y-21252219D02*
X55309523Y-21252219D01*
X55023809Y-22252219D02*
X55023809Y-21252219D01*
X55642857Y-22252219D02*
X55642857Y-21252219D01*
X55642857Y-21252219D02*
X56023809Y-21252219D01*
X56023809Y-21252219D02*
X56119047Y-21299838D01*
X56119047Y-21299838D02*
X56166666Y-21347457D01*
X56166666Y-21347457D02*
X56214285Y-21442695D01*
X56214285Y-21442695D02*
X56214285Y-21585552D01*
X56214285Y-21585552D02*
X56166666Y-21680790D01*
X56166666Y-21680790D02*
X56119047Y-21728409D01*
X56119047Y-21728409D02*
X56023809Y-21776028D01*
X56023809Y-21776028D02*
X55642857Y-21776028D01*
X56595238Y-21347457D02*
X56642857Y-21299838D01*
X56642857Y-21299838D02*
X56738095Y-21252219D01*
X56738095Y-21252219D02*
X56976190Y-21252219D01*
X56976190Y-21252219D02*
X57071428Y-21299838D01*
X57071428Y-21299838D02*
X57119047Y-21347457D01*
X57119047Y-21347457D02*
X57166666Y-21442695D01*
X57166666Y-21442695D02*
X57166666Y-21537933D01*
X57166666Y-21537933D02*
X57119047Y-21680790D01*
X57119047Y-21680790D02*
X56547619Y-22252219D01*
X56547619Y-22252219D02*
X57166666Y-22252219D01*
X48952219Y-7333333D02*
X49666504Y-7333333D01*
X49666504Y-7333333D02*
X49809361Y-7380952D01*
X49809361Y-7380952D02*
X49904600Y-7476190D01*
X49904600Y-7476190D02*
X49952219Y-7619047D01*
X49952219Y-7619047D02*
X49952219Y-7714285D01*
X49952219Y-6857142D02*
X48952219Y-6857142D01*
X48952219Y-6857142D02*
X48952219Y-6476190D01*
X48952219Y-6476190D02*
X48999838Y-6380952D01*
X48999838Y-6380952D02*
X49047457Y-6333333D01*
X49047457Y-6333333D02*
X49142695Y-6285714D01*
X49142695Y-6285714D02*
X49285552Y-6285714D01*
X49285552Y-6285714D02*
X49380790Y-6333333D01*
X49380790Y-6333333D02*
X49428409Y-6380952D01*
X49428409Y-6380952D02*
X49476028Y-6476190D01*
X49476028Y-6476190D02*
X49476028Y-6857142D01*
X49952219Y-5333333D02*
X49952219Y-5904761D01*
X49952219Y-5619047D02*
X48952219Y-5619047D01*
X48952219Y-5619047D02*
X49095076Y-5714285D01*
X49095076Y-5714285D02*
X49190314Y-5809523D01*
X49190314Y-5809523D02*
X49237933Y-5904761D01*
X60333333Y-53456980D02*
X60285714Y-53504600D01*
X60285714Y-53504600D02*
X60142857Y-53552219D01*
X60142857Y-53552219D02*
X60047619Y-53552219D01*
X60047619Y-53552219D02*
X59904762Y-53504600D01*
X59904762Y-53504600D02*
X59809524Y-53409361D01*
X59809524Y-53409361D02*
X59761905Y-53314123D01*
X59761905Y-53314123D02*
X59714286Y-53123647D01*
X59714286Y-53123647D02*
X59714286Y-52980790D01*
X59714286Y-52980790D02*
X59761905Y-52790314D01*
X59761905Y-52790314D02*
X59809524Y-52695076D01*
X59809524Y-52695076D02*
X59904762Y-52599838D01*
X59904762Y-52599838D02*
X60047619Y-52552219D01*
X60047619Y-52552219D02*
X60142857Y-52552219D01*
X60142857Y-52552219D02*
X60285714Y-52599838D01*
X60285714Y-52599838D02*
X60333333Y-52647457D01*
X61238095Y-52552219D02*
X60761905Y-52552219D01*
X60761905Y-52552219D02*
X60714286Y-53028409D01*
X60714286Y-53028409D02*
X60761905Y-52980790D01*
X60761905Y-52980790D02*
X60857143Y-52933171D01*
X60857143Y-52933171D02*
X61095238Y-52933171D01*
X61095238Y-52933171D02*
X61190476Y-52980790D01*
X61190476Y-52980790D02*
X61238095Y-53028409D01*
X61238095Y-53028409D02*
X61285714Y-53123647D01*
X61285714Y-53123647D02*
X61285714Y-53361742D01*
X61285714Y-53361742D02*
X61238095Y-53456980D01*
X61238095Y-53456980D02*
X61190476Y-53504600D01*
X61190476Y-53504600D02*
X61095238Y-53552219D01*
X61095238Y-53552219D02*
X60857143Y-53552219D01*
X60857143Y-53552219D02*
X60761905Y-53504600D01*
X60761905Y-53504600D02*
X60714286Y-53456980D01*
X14333333Y-29256980D02*
X14285714Y-29304600D01*
X14285714Y-29304600D02*
X14142857Y-29352219D01*
X14142857Y-29352219D02*
X14047619Y-29352219D01*
X14047619Y-29352219D02*
X13904762Y-29304600D01*
X13904762Y-29304600D02*
X13809524Y-29209361D01*
X13809524Y-29209361D02*
X13761905Y-29114123D01*
X13761905Y-29114123D02*
X13714286Y-28923647D01*
X13714286Y-28923647D02*
X13714286Y-28780790D01*
X13714286Y-28780790D02*
X13761905Y-28590314D01*
X13761905Y-28590314D02*
X13809524Y-28495076D01*
X13809524Y-28495076D02*
X13904762Y-28399838D01*
X13904762Y-28399838D02*
X14047619Y-28352219D01*
X14047619Y-28352219D02*
X14142857Y-28352219D01*
X14142857Y-28352219D02*
X14285714Y-28399838D01*
X14285714Y-28399838D02*
X14333333Y-28447457D01*
X15190476Y-28685552D02*
X15190476Y-29352219D01*
X14952381Y-28304600D02*
X14714286Y-29018885D01*
X14714286Y-29018885D02*
X15333333Y-29018885D01*
X47922219Y-46271904D02*
X48731742Y-46271904D01*
X48731742Y-46271904D02*
X48826980Y-46224285D01*
X48826980Y-46224285D02*
X48874600Y-46176666D01*
X48874600Y-46176666D02*
X48922219Y-46081428D01*
X48922219Y-46081428D02*
X48922219Y-45890952D01*
X48922219Y-45890952D02*
X48874600Y-45795714D01*
X48874600Y-45795714D02*
X48826980Y-45748095D01*
X48826980Y-45748095D02*
X48731742Y-45700476D01*
X48731742Y-45700476D02*
X47922219Y-45700476D01*
X48017457Y-45271904D02*
X47969838Y-45224285D01*
X47969838Y-45224285D02*
X47922219Y-45129047D01*
X47922219Y-45129047D02*
X47922219Y-44890952D01*
X47922219Y-44890952D02*
X47969838Y-44795714D01*
X47969838Y-44795714D02*
X48017457Y-44748095D01*
X48017457Y-44748095D02*
X48112695Y-44700476D01*
X48112695Y-44700476D02*
X48207933Y-44700476D01*
X48207933Y-44700476D02*
X48350790Y-44748095D01*
X48350790Y-44748095D02*
X48922219Y-45319523D01*
X48922219Y-45319523D02*
X48922219Y-44700476D01*
X62833333Y-17352219D02*
X62500000Y-16876028D01*
X62261905Y-17352219D02*
X62261905Y-16352219D01*
X62261905Y-16352219D02*
X62642857Y-16352219D01*
X62642857Y-16352219D02*
X62738095Y-16399838D01*
X62738095Y-16399838D02*
X62785714Y-16447457D01*
X62785714Y-16447457D02*
X62833333Y-16542695D01*
X62833333Y-16542695D02*
X62833333Y-16685552D01*
X62833333Y-16685552D02*
X62785714Y-16780790D01*
X62785714Y-16780790D02*
X62738095Y-16828409D01*
X62738095Y-16828409D02*
X62642857Y-16876028D01*
X62642857Y-16876028D02*
X62261905Y-16876028D01*
X63166667Y-16352219D02*
X63785714Y-16352219D01*
X63785714Y-16352219D02*
X63452381Y-16733171D01*
X63452381Y-16733171D02*
X63595238Y-16733171D01*
X63595238Y-16733171D02*
X63690476Y-16780790D01*
X63690476Y-16780790D02*
X63738095Y-16828409D01*
X63738095Y-16828409D02*
X63785714Y-16923647D01*
X63785714Y-16923647D02*
X63785714Y-17161742D01*
X63785714Y-17161742D02*
X63738095Y-17256980D01*
X63738095Y-17256980D02*
X63690476Y-17304600D01*
X63690476Y-17304600D02*
X63595238Y-17352219D01*
X63595238Y-17352219D02*
X63309524Y-17352219D01*
X63309524Y-17352219D02*
X63214286Y-17304600D01*
X63214286Y-17304600D02*
X63166667Y-17256980D01*
X50738095Y-18652219D02*
X51309523Y-18652219D01*
X51023809Y-19652219D02*
X51023809Y-18652219D01*
X51642857Y-19652219D02*
X51642857Y-18652219D01*
X51642857Y-18652219D02*
X52023809Y-18652219D01*
X52023809Y-18652219D02*
X52119047Y-18699838D01*
X52119047Y-18699838D02*
X52166666Y-18747457D01*
X52166666Y-18747457D02*
X52214285Y-18842695D01*
X52214285Y-18842695D02*
X52214285Y-18985552D01*
X52214285Y-18985552D02*
X52166666Y-19080790D01*
X52166666Y-19080790D02*
X52119047Y-19128409D01*
X52119047Y-19128409D02*
X52023809Y-19176028D01*
X52023809Y-19176028D02*
X51642857Y-19176028D01*
X53166666Y-19652219D02*
X52595238Y-19652219D01*
X52880952Y-19652219D02*
X52880952Y-18652219D01*
X52880952Y-18652219D02*
X52785714Y-18795076D01*
X52785714Y-18795076D02*
X52690476Y-18890314D01*
X52690476Y-18890314D02*
X52595238Y-18937933D01*
X382219Y-13581904D02*
X1191742Y-13581904D01*
X1191742Y-13581904D02*
X1286980Y-13534285D01*
X1286980Y-13534285D02*
X1334600Y-13486666D01*
X1334600Y-13486666D02*
X1382219Y-13391428D01*
X1382219Y-13391428D02*
X1382219Y-13200952D01*
X1382219Y-13200952D02*
X1334600Y-13105714D01*
X1334600Y-13105714D02*
X1286980Y-13058095D01*
X1286980Y-13058095D02*
X1191742Y-13010476D01*
X1191742Y-13010476D02*
X382219Y-13010476D01*
X715552Y-12105714D02*
X1382219Y-12105714D01*
X334600Y-12343809D02*
X1048885Y-12581904D01*
X1048885Y-12581904D02*
X1048885Y-11962857D01*
X49633333Y-55856980D02*
X49585714Y-55904600D01*
X49585714Y-55904600D02*
X49442857Y-55952219D01*
X49442857Y-55952219D02*
X49347619Y-55952219D01*
X49347619Y-55952219D02*
X49204762Y-55904600D01*
X49204762Y-55904600D02*
X49109524Y-55809361D01*
X49109524Y-55809361D02*
X49061905Y-55714123D01*
X49061905Y-55714123D02*
X49014286Y-55523647D01*
X49014286Y-55523647D02*
X49014286Y-55380790D01*
X49014286Y-55380790D02*
X49061905Y-55190314D01*
X49061905Y-55190314D02*
X49109524Y-55095076D01*
X49109524Y-55095076D02*
X49204762Y-54999838D01*
X49204762Y-54999838D02*
X49347619Y-54952219D01*
X49347619Y-54952219D02*
X49442857Y-54952219D01*
X49442857Y-54952219D02*
X49585714Y-54999838D01*
X49585714Y-54999838D02*
X49633333Y-55047457D01*
X50014286Y-55047457D02*
X50061905Y-54999838D01*
X50061905Y-54999838D02*
X50157143Y-54952219D01*
X50157143Y-54952219D02*
X50395238Y-54952219D01*
X50395238Y-54952219D02*
X50490476Y-54999838D01*
X50490476Y-54999838D02*
X50538095Y-55047457D01*
X50538095Y-55047457D02*
X50585714Y-55142695D01*
X50585714Y-55142695D02*
X50585714Y-55237933D01*
X50585714Y-55237933D02*
X50538095Y-55380790D01*
X50538095Y-55380790D02*
X49966667Y-55952219D01*
X49966667Y-55952219D02*
X50585714Y-55952219D01*
X72452219Y-5833333D02*
X73166504Y-5833333D01*
X73166504Y-5833333D02*
X73309361Y-5880952D01*
X73309361Y-5880952D02*
X73404600Y-5976190D01*
X73404600Y-5976190D02*
X73452219Y-6119047D01*
X73452219Y-6119047D02*
X73452219Y-6214285D01*
X73452219Y-5357142D02*
X72452219Y-5357142D01*
X72452219Y-5357142D02*
X72452219Y-4976190D01*
X72452219Y-4976190D02*
X72499838Y-4880952D01*
X72499838Y-4880952D02*
X72547457Y-4833333D01*
X72547457Y-4833333D02*
X72642695Y-4785714D01*
X72642695Y-4785714D02*
X72785552Y-4785714D01*
X72785552Y-4785714D02*
X72880790Y-4833333D01*
X72880790Y-4833333D02*
X72928409Y-4880952D01*
X72928409Y-4880952D02*
X72976028Y-4976190D01*
X72976028Y-4976190D02*
X72976028Y-5357142D01*
X72785552Y-3928571D02*
X73452219Y-3928571D01*
X72404600Y-4166666D02*
X73118885Y-4404761D01*
X73118885Y-4404761D02*
X73118885Y-3785714D01*
X57333333Y-17352219D02*
X57000000Y-16876028D01*
X56761905Y-17352219D02*
X56761905Y-16352219D01*
X56761905Y-16352219D02*
X57142857Y-16352219D01*
X57142857Y-16352219D02*
X57238095Y-16399838D01*
X57238095Y-16399838D02*
X57285714Y-16447457D01*
X57285714Y-16447457D02*
X57333333Y-16542695D01*
X57333333Y-16542695D02*
X57333333Y-16685552D01*
X57333333Y-16685552D02*
X57285714Y-16780790D01*
X57285714Y-16780790D02*
X57238095Y-16828409D01*
X57238095Y-16828409D02*
X57142857Y-16876028D01*
X57142857Y-16876028D02*
X56761905Y-16876028D01*
X58238095Y-16352219D02*
X57761905Y-16352219D01*
X57761905Y-16352219D02*
X57714286Y-16828409D01*
X57714286Y-16828409D02*
X57761905Y-16780790D01*
X57761905Y-16780790D02*
X57857143Y-16733171D01*
X57857143Y-16733171D02*
X58095238Y-16733171D01*
X58095238Y-16733171D02*
X58190476Y-16780790D01*
X58190476Y-16780790D02*
X58238095Y-16828409D01*
X58238095Y-16828409D02*
X58285714Y-16923647D01*
X58285714Y-16923647D02*
X58285714Y-17161742D01*
X58285714Y-17161742D02*
X58238095Y-17256980D01*
X58238095Y-17256980D02*
X58190476Y-17304600D01*
X58190476Y-17304600D02*
X58095238Y-17352219D01*
X58095238Y-17352219D02*
X57857143Y-17352219D01*
X57857143Y-17352219D02*
X57761905Y-17304600D01*
X57761905Y-17304600D02*
X57714286Y-17256980D01*
X68833333Y-59156980D02*
X68785714Y-59204600D01*
X68785714Y-59204600D02*
X68642857Y-59252219D01*
X68642857Y-59252219D02*
X68547619Y-59252219D01*
X68547619Y-59252219D02*
X68404762Y-59204600D01*
X68404762Y-59204600D02*
X68309524Y-59109361D01*
X68309524Y-59109361D02*
X68261905Y-59014123D01*
X68261905Y-59014123D02*
X68214286Y-58823647D01*
X68214286Y-58823647D02*
X68214286Y-58680790D01*
X68214286Y-58680790D02*
X68261905Y-58490314D01*
X68261905Y-58490314D02*
X68309524Y-58395076D01*
X68309524Y-58395076D02*
X68404762Y-58299838D01*
X68404762Y-58299838D02*
X68547619Y-58252219D01*
X68547619Y-58252219D02*
X68642857Y-58252219D01*
X68642857Y-58252219D02*
X68785714Y-58299838D01*
X68785714Y-58299838D02*
X68833333Y-58347457D01*
X69690476Y-58252219D02*
X69500000Y-58252219D01*
X69500000Y-58252219D02*
X69404762Y-58299838D01*
X69404762Y-58299838D02*
X69357143Y-58347457D01*
X69357143Y-58347457D02*
X69261905Y-58490314D01*
X69261905Y-58490314D02*
X69214286Y-58680790D01*
X69214286Y-58680790D02*
X69214286Y-59061742D01*
X69214286Y-59061742D02*
X69261905Y-59156980D01*
X69261905Y-59156980D02*
X69309524Y-59204600D01*
X69309524Y-59204600D02*
X69404762Y-59252219D01*
X69404762Y-59252219D02*
X69595238Y-59252219D01*
X69595238Y-59252219D02*
X69690476Y-59204600D01*
X69690476Y-59204600D02*
X69738095Y-59156980D01*
X69738095Y-59156980D02*
X69785714Y-59061742D01*
X69785714Y-59061742D02*
X69785714Y-58823647D01*
X69785714Y-58823647D02*
X69738095Y-58728409D01*
X69738095Y-58728409D02*
X69690476Y-58680790D01*
X69690476Y-58680790D02*
X69595238Y-58633171D01*
X69595238Y-58633171D02*
X69404762Y-58633171D01*
X69404762Y-58633171D02*
X69309524Y-58680790D01*
X69309524Y-58680790D02*
X69261905Y-58728409D01*
X69261905Y-58728409D02*
X69214286Y-58823647D01*
X47261905Y-20652219D02*
X47261905Y-19652219D01*
X47261905Y-19652219D02*
X47500000Y-19652219D01*
X47500000Y-19652219D02*
X47642857Y-19699838D01*
X47642857Y-19699838D02*
X47738095Y-19795076D01*
X47738095Y-19795076D02*
X47785714Y-19890314D01*
X47785714Y-19890314D02*
X47833333Y-20080790D01*
X47833333Y-20080790D02*
X47833333Y-20223647D01*
X47833333Y-20223647D02*
X47785714Y-20414123D01*
X47785714Y-20414123D02*
X47738095Y-20509361D01*
X47738095Y-20509361D02*
X47642857Y-20604600D01*
X47642857Y-20604600D02*
X47500000Y-20652219D01*
X47500000Y-20652219D02*
X47261905Y-20652219D01*
X48785714Y-20652219D02*
X48214286Y-20652219D01*
X48500000Y-20652219D02*
X48500000Y-19652219D01*
X48500000Y-19652219D02*
X48404762Y-19795076D01*
X48404762Y-19795076D02*
X48309524Y-19890314D01*
X48309524Y-19890314D02*
X48214286Y-19937933D01*
X45422219Y-32771904D02*
X46231742Y-32771904D01*
X46231742Y-32771904D02*
X46326980Y-32724285D01*
X46326980Y-32724285D02*
X46374600Y-32676666D01*
X46374600Y-32676666D02*
X46422219Y-32581428D01*
X46422219Y-32581428D02*
X46422219Y-32390952D01*
X46422219Y-32390952D02*
X46374600Y-32295714D01*
X46374600Y-32295714D02*
X46326980Y-32248095D01*
X46326980Y-32248095D02*
X46231742Y-32200476D01*
X46231742Y-32200476D02*
X45422219Y-32200476D01*
X46422219Y-31200476D02*
X46422219Y-31771904D01*
X46422219Y-31486190D02*
X45422219Y-31486190D01*
X45422219Y-31486190D02*
X45565076Y-31581428D01*
X45565076Y-31581428D02*
X45660314Y-31676666D01*
X45660314Y-31676666D02*
X45707933Y-31771904D01*
X50633333Y-26356980D02*
X50585714Y-26404600D01*
X50585714Y-26404600D02*
X50442857Y-26452219D01*
X50442857Y-26452219D02*
X50347619Y-26452219D01*
X50347619Y-26452219D02*
X50204762Y-26404600D01*
X50204762Y-26404600D02*
X50109524Y-26309361D01*
X50109524Y-26309361D02*
X50061905Y-26214123D01*
X50061905Y-26214123D02*
X50014286Y-26023647D01*
X50014286Y-26023647D02*
X50014286Y-25880790D01*
X50014286Y-25880790D02*
X50061905Y-25690314D01*
X50061905Y-25690314D02*
X50109524Y-25595076D01*
X50109524Y-25595076D02*
X50204762Y-25499838D01*
X50204762Y-25499838D02*
X50347619Y-25452219D01*
X50347619Y-25452219D02*
X50442857Y-25452219D01*
X50442857Y-25452219D02*
X50585714Y-25499838D01*
X50585714Y-25499838D02*
X50633333Y-25547457D01*
X51585714Y-26452219D02*
X51014286Y-26452219D01*
X51300000Y-26452219D02*
X51300000Y-25452219D01*
X51300000Y-25452219D02*
X51204762Y-25595076D01*
X51204762Y-25595076D02*
X51109524Y-25690314D01*
X51109524Y-25690314D02*
X51014286Y-25737933D01*
X5633333Y-29256980D02*
X5585714Y-29304600D01*
X5585714Y-29304600D02*
X5442857Y-29352219D01*
X5442857Y-29352219D02*
X5347619Y-29352219D01*
X5347619Y-29352219D02*
X5204762Y-29304600D01*
X5204762Y-29304600D02*
X5109524Y-29209361D01*
X5109524Y-29209361D02*
X5061905Y-29114123D01*
X5061905Y-29114123D02*
X5014286Y-28923647D01*
X5014286Y-28923647D02*
X5014286Y-28780790D01*
X5014286Y-28780790D02*
X5061905Y-28590314D01*
X5061905Y-28590314D02*
X5109524Y-28495076D01*
X5109524Y-28495076D02*
X5204762Y-28399838D01*
X5204762Y-28399838D02*
X5347619Y-28352219D01*
X5347619Y-28352219D02*
X5442857Y-28352219D01*
X5442857Y-28352219D02*
X5585714Y-28399838D01*
X5585714Y-28399838D02*
X5633333Y-28447457D01*
X5966667Y-28352219D02*
X6585714Y-28352219D01*
X6585714Y-28352219D02*
X6252381Y-28733171D01*
X6252381Y-28733171D02*
X6395238Y-28733171D01*
X6395238Y-28733171D02*
X6490476Y-28780790D01*
X6490476Y-28780790D02*
X6538095Y-28828409D01*
X6538095Y-28828409D02*
X6585714Y-28923647D01*
X6585714Y-28923647D02*
X6585714Y-29161742D01*
X6585714Y-29161742D02*
X6538095Y-29256980D01*
X6538095Y-29256980D02*
X6490476Y-29304600D01*
X6490476Y-29304600D02*
X6395238Y-29352219D01*
X6395238Y-29352219D02*
X6109524Y-29352219D01*
X6109524Y-29352219D02*
X6014286Y-29304600D01*
X6014286Y-29304600D02*
X5966667Y-29256980D01*
X51833333Y-17352219D02*
X51500000Y-16876028D01*
X51261905Y-17352219D02*
X51261905Y-16352219D01*
X51261905Y-16352219D02*
X51642857Y-16352219D01*
X51642857Y-16352219D02*
X51738095Y-16399838D01*
X51738095Y-16399838D02*
X51785714Y-16447457D01*
X51785714Y-16447457D02*
X51833333Y-16542695D01*
X51833333Y-16542695D02*
X51833333Y-16685552D01*
X51833333Y-16685552D02*
X51785714Y-16780790D01*
X51785714Y-16780790D02*
X51738095Y-16828409D01*
X51738095Y-16828409D02*
X51642857Y-16876028D01*
X51642857Y-16876028D02*
X51261905Y-16876028D01*
X52690476Y-16685552D02*
X52690476Y-17352219D01*
X52452381Y-16304600D02*
X52214286Y-17018885D01*
X52214286Y-17018885D02*
X52833333Y-17018885D01*
X46333333Y-17352219D02*
X46000000Y-16876028D01*
X45761905Y-17352219D02*
X45761905Y-16352219D01*
X45761905Y-16352219D02*
X46142857Y-16352219D01*
X46142857Y-16352219D02*
X46238095Y-16399838D01*
X46238095Y-16399838D02*
X46285714Y-16447457D01*
X46285714Y-16447457D02*
X46333333Y-16542695D01*
X46333333Y-16542695D02*
X46333333Y-16685552D01*
X46333333Y-16685552D02*
X46285714Y-16780790D01*
X46285714Y-16780790D02*
X46238095Y-16828409D01*
X46238095Y-16828409D02*
X46142857Y-16876028D01*
X46142857Y-16876028D02*
X45761905Y-16876028D01*
X46714286Y-16447457D02*
X46761905Y-16399838D01*
X46761905Y-16399838D02*
X46857143Y-16352219D01*
X46857143Y-16352219D02*
X47095238Y-16352219D01*
X47095238Y-16352219D02*
X47190476Y-16399838D01*
X47190476Y-16399838D02*
X47238095Y-16447457D01*
X47238095Y-16447457D02*
X47285714Y-16542695D01*
X47285714Y-16542695D02*
X47285714Y-16637933D01*
X47285714Y-16637933D02*
X47238095Y-16780790D01*
X47238095Y-16780790D02*
X46666667Y-17352219D01*
X46666667Y-17352219D02*
X47285714Y-17352219D01*
X65952219Y-6333333D02*
X66666504Y-6333333D01*
X66666504Y-6333333D02*
X66809361Y-6380952D01*
X66809361Y-6380952D02*
X66904600Y-6476190D01*
X66904600Y-6476190D02*
X66952219Y-6619047D01*
X66952219Y-6619047D02*
X66952219Y-6714285D01*
X66952219Y-5857142D02*
X65952219Y-5857142D01*
X65952219Y-5857142D02*
X65952219Y-5476190D01*
X65952219Y-5476190D02*
X65999838Y-5380952D01*
X65999838Y-5380952D02*
X66047457Y-5333333D01*
X66047457Y-5333333D02*
X66142695Y-5285714D01*
X66142695Y-5285714D02*
X66285552Y-5285714D01*
X66285552Y-5285714D02*
X66380790Y-5333333D01*
X66380790Y-5333333D02*
X66428409Y-5380952D01*
X66428409Y-5380952D02*
X66476028Y-5476190D01*
X66476028Y-5476190D02*
X66476028Y-5857142D01*
X65952219Y-4952380D02*
X65952219Y-4333333D01*
X65952219Y-4333333D02*
X66333171Y-4666666D01*
X66333171Y-4666666D02*
X66333171Y-4523809D01*
X66333171Y-4523809D02*
X66380790Y-4428571D01*
X66380790Y-4428571D02*
X66428409Y-4380952D01*
X66428409Y-4380952D02*
X66523647Y-4333333D01*
X66523647Y-4333333D02*
X66761742Y-4333333D01*
X66761742Y-4333333D02*
X66856980Y-4380952D01*
X66856980Y-4380952D02*
X66904600Y-4428571D01*
X66904600Y-4428571D02*
X66952219Y-4523809D01*
X66952219Y-4523809D02*
X66952219Y-4809523D01*
X66952219Y-4809523D02*
X66904600Y-4904761D01*
X66904600Y-4904761D02*
X66856980Y-4952380D01*
X738095Y-59047457D02*
X785714Y-58999838D01*
X785714Y-58999838D02*
X880952Y-58952219D01*
X880952Y-58952219D02*
X1119047Y-58952219D01*
X1119047Y-58952219D02*
X1214285Y-58999838D01*
X1214285Y-58999838D02*
X1261904Y-59047457D01*
X1261904Y-59047457D02*
X1309523Y-59142695D01*
X1309523Y-59142695D02*
X1309523Y-59237933D01*
X1309523Y-59237933D02*
X1261904Y-59380790D01*
X1261904Y-59380790D02*
X690476Y-59952219D01*
X690476Y-59952219D02*
X1309523Y-59952219D01*
X1785714Y-59952219D02*
X1976190Y-59952219D01*
X1976190Y-59952219D02*
X2071428Y-59904600D01*
X2071428Y-59904600D02*
X2119047Y-59856980D01*
X2119047Y-59856980D02*
X2214285Y-59714123D01*
X2214285Y-59714123D02*
X2261904Y-59523647D01*
X2261904Y-59523647D02*
X2261904Y-59142695D01*
X2261904Y-59142695D02*
X2214285Y-59047457D01*
X2214285Y-59047457D02*
X2166666Y-58999838D01*
X2166666Y-58999838D02*
X2071428Y-58952219D01*
X2071428Y-58952219D02*
X1880952Y-58952219D01*
X1880952Y-58952219D02*
X1785714Y-58999838D01*
X1785714Y-58999838D02*
X1738095Y-59047457D01*
X1738095Y-59047457D02*
X1690476Y-59142695D01*
X1690476Y-59142695D02*
X1690476Y-59380790D01*
X1690476Y-59380790D02*
X1738095Y-59476028D01*
X1738095Y-59476028D02*
X1785714Y-59523647D01*
X1785714Y-59523647D02*
X1880952Y-59571266D01*
X1880952Y-59571266D02*
X2071428Y-59571266D01*
X2071428Y-59571266D02*
X2166666Y-59523647D01*
X2166666Y-59523647D02*
X2214285Y-59476028D01*
X2214285Y-59476028D02*
X2261904Y-59380790D01*
X738095Y-64047457D02*
X785714Y-63999838D01*
X785714Y-63999838D02*
X880952Y-63952219D01*
X880952Y-63952219D02*
X1119047Y-63952219D01*
X1119047Y-63952219D02*
X1214285Y-63999838D01*
X1214285Y-63999838D02*
X1261904Y-64047457D01*
X1261904Y-64047457D02*
X1309523Y-64142695D01*
X1309523Y-64142695D02*
X1309523Y-64237933D01*
X1309523Y-64237933D02*
X1261904Y-64380790D01*
X1261904Y-64380790D02*
X690476Y-64952219D01*
X690476Y-64952219D02*
X1309523Y-64952219D01*
X1880952Y-64380790D02*
X1785714Y-64333171D01*
X1785714Y-64333171D02*
X1738095Y-64285552D01*
X1738095Y-64285552D02*
X1690476Y-64190314D01*
X1690476Y-64190314D02*
X1690476Y-64142695D01*
X1690476Y-64142695D02*
X1738095Y-64047457D01*
X1738095Y-64047457D02*
X1785714Y-63999838D01*
X1785714Y-63999838D02*
X1880952Y-63952219D01*
X1880952Y-63952219D02*
X2071428Y-63952219D01*
X2071428Y-63952219D02*
X2166666Y-63999838D01*
X2166666Y-63999838D02*
X2214285Y-64047457D01*
X2214285Y-64047457D02*
X2261904Y-64142695D01*
X2261904Y-64142695D02*
X2261904Y-64190314D01*
X2261904Y-64190314D02*
X2214285Y-64285552D01*
X2214285Y-64285552D02*
X2166666Y-64333171D01*
X2166666Y-64333171D02*
X2071428Y-64380790D01*
X2071428Y-64380790D02*
X1880952Y-64380790D01*
X1880952Y-64380790D02*
X1785714Y-64428409D01*
X1785714Y-64428409D02*
X1738095Y-64476028D01*
X1738095Y-64476028D02*
X1690476Y-64571266D01*
X1690476Y-64571266D02*
X1690476Y-64761742D01*
X1690476Y-64761742D02*
X1738095Y-64856980D01*
X1738095Y-64856980D02*
X1785714Y-64904600D01*
X1785714Y-64904600D02*
X1880952Y-64952219D01*
X1880952Y-64952219D02*
X2071428Y-64952219D01*
X2071428Y-64952219D02*
X2166666Y-64904600D01*
X2166666Y-64904600D02*
X2214285Y-64856980D01*
X2214285Y-64856980D02*
X2261904Y-64761742D01*
X2261904Y-64761742D02*
X2261904Y-64571266D01*
X2261904Y-64571266D02*
X2214285Y-64476028D01*
X2214285Y-64476028D02*
X2166666Y-64428409D01*
X2166666Y-64428409D02*
X2071428Y-64380790D01*
D13*
X60890476Y-56099870D02*
X60814286Y-56061775D01*
X60814286Y-56061775D02*
X60700000Y-56061775D01*
X60700000Y-56061775D02*
X60585714Y-56099870D01*
X60585714Y-56099870D02*
X60509524Y-56176060D01*
X60509524Y-56176060D02*
X60471429Y-56252251D01*
X60471429Y-56252251D02*
X60433333Y-56404632D01*
X60433333Y-56404632D02*
X60433333Y-56518918D01*
X60433333Y-56518918D02*
X60471429Y-56671299D01*
X60471429Y-56671299D02*
X60509524Y-56747489D01*
X60509524Y-56747489D02*
X60585714Y-56823680D01*
X60585714Y-56823680D02*
X60700000Y-56861775D01*
X60700000Y-56861775D02*
X60776191Y-56861775D01*
X60776191Y-56861775D02*
X60890476Y-56823680D01*
X60890476Y-56823680D02*
X60928572Y-56785584D01*
X60928572Y-56785584D02*
X60928572Y-56518918D01*
X60928572Y-56518918D02*
X60776191Y-56518918D01*
X61271429Y-56061775D02*
X61271429Y-56709394D01*
X61271429Y-56709394D02*
X61309524Y-56785584D01*
X61309524Y-56785584D02*
X61347619Y-56823680D01*
X61347619Y-56823680D02*
X61423810Y-56861775D01*
X61423810Y-56861775D02*
X61576191Y-56861775D01*
X61576191Y-56861775D02*
X61652381Y-56823680D01*
X61652381Y-56823680D02*
X61690476Y-56785584D01*
X61690476Y-56785584D02*
X61728572Y-56709394D01*
X61728572Y-56709394D02*
X61728572Y-56061775D01*
X62109524Y-56861775D02*
X62109524Y-56061775D01*
X62452380Y-56633203D02*
X62833333Y-56633203D01*
X62376190Y-56861775D02*
X62642857Y-56061775D01*
X62642857Y-56061775D02*
X62909523Y-56861775D01*
X64166666Y-56061775D02*
X63785714Y-56061775D01*
X63785714Y-56061775D02*
X63747618Y-56442727D01*
X63747618Y-56442727D02*
X63785714Y-56404632D01*
X63785714Y-56404632D02*
X63861904Y-56366537D01*
X63861904Y-56366537D02*
X64052380Y-56366537D01*
X64052380Y-56366537D02*
X64128571Y-56404632D01*
X64128571Y-56404632D02*
X64166666Y-56442727D01*
X64166666Y-56442727D02*
X64204761Y-56518918D01*
X64204761Y-56518918D02*
X64204761Y-56709394D01*
X64204761Y-56709394D02*
X64166666Y-56785584D01*
X64166666Y-56785584D02*
X64128571Y-56823680D01*
X64128571Y-56823680D02*
X64052380Y-56861775D01*
X64052380Y-56861775D02*
X63861904Y-56861775D01*
X63861904Y-56861775D02*
X63785714Y-56823680D01*
X63785714Y-56823680D02*
X63747618Y-56785584D01*
X65119047Y-56023680D02*
X64433333Y-57052251D01*
X65766666Y-56061775D02*
X65385714Y-56061775D01*
X65385714Y-56061775D02*
X65347618Y-56442727D01*
X65347618Y-56442727D02*
X65385714Y-56404632D01*
X65385714Y-56404632D02*
X65461904Y-56366537D01*
X65461904Y-56366537D02*
X65652380Y-56366537D01*
X65652380Y-56366537D02*
X65728571Y-56404632D01*
X65728571Y-56404632D02*
X65766666Y-56442727D01*
X65766666Y-56442727D02*
X65804761Y-56518918D01*
X65804761Y-56518918D02*
X65804761Y-56709394D01*
X65804761Y-56709394D02*
X65766666Y-56785584D01*
X65766666Y-56785584D02*
X65728571Y-56823680D01*
X65728571Y-56823680D02*
X65652380Y-56861775D01*
X65652380Y-56861775D02*
X65461904Y-56861775D01*
X65461904Y-56861775D02*
X65385714Y-56823680D01*
X65385714Y-56823680D02*
X65347618Y-56785584D01*
X66109523Y-56137965D02*
X66147619Y-56099870D01*
X66147619Y-56099870D02*
X66223809Y-56061775D01*
X66223809Y-56061775D02*
X66414285Y-56061775D01*
X66414285Y-56061775D02*
X66490476Y-56099870D01*
X66490476Y-56099870D02*
X66528571Y-56137965D01*
X66528571Y-56137965D02*
X66566666Y-56214156D01*
X66566666Y-56214156D02*
X66566666Y-56290346D01*
X66566666Y-56290346D02*
X66528571Y-56404632D01*
X66528571Y-56404632D02*
X66071428Y-56861775D01*
X66071428Y-56861775D02*
X66566666Y-56861775D01*
D12*
X76785714Y-64952219D02*
X76214286Y-64952219D01*
X76500000Y-64952219D02*
X76500000Y-63952219D01*
X76500000Y-63952219D02*
X76404762Y-64095076D01*
X76404762Y-64095076D02*
X76309524Y-64190314D01*
X76309524Y-64190314D02*
X76214286Y-64237933D01*
X76761904Y-58952219D02*
X76285714Y-58952219D01*
X76285714Y-58952219D02*
X76238095Y-59428409D01*
X76238095Y-59428409D02*
X76285714Y-59380790D01*
X76285714Y-59380790D02*
X76380952Y-59333171D01*
X76380952Y-59333171D02*
X76619047Y-59333171D01*
X76619047Y-59333171D02*
X76714285Y-59380790D01*
X76714285Y-59380790D02*
X76761904Y-59428409D01*
X76761904Y-59428409D02*
X76809523Y-59523647D01*
X76809523Y-59523647D02*
X76809523Y-59761742D01*
X76809523Y-59761742D02*
X76761904Y-59856980D01*
X76761904Y-59856980D02*
X76714285Y-59904600D01*
X76714285Y-59904600D02*
X76619047Y-59952219D01*
X76619047Y-59952219D02*
X76380952Y-59952219D01*
X76380952Y-59952219D02*
X76285714Y-59904600D01*
X76285714Y-59904600D02*
X76238095Y-59856980D01*
X77666666Y-58952219D02*
X77476190Y-58952219D01*
X77476190Y-58952219D02*
X77380952Y-58999838D01*
X77380952Y-58999838D02*
X77333333Y-59047457D01*
X77333333Y-59047457D02*
X77238095Y-59190314D01*
X77238095Y-59190314D02*
X77190476Y-59380790D01*
X77190476Y-59380790D02*
X77190476Y-59761742D01*
X77190476Y-59761742D02*
X77238095Y-59856980D01*
X77238095Y-59856980D02*
X77285714Y-59904600D01*
X77285714Y-59904600D02*
X77380952Y-59952219D01*
X77380952Y-59952219D02*
X77571428Y-59952219D01*
X77571428Y-59952219D02*
X77666666Y-59904600D01*
X77666666Y-59904600D02*
X77714285Y-59856980D01*
X77714285Y-59856980D02*
X77761904Y-59761742D01*
X77761904Y-59761742D02*
X77761904Y-59523647D01*
X77761904Y-59523647D02*
X77714285Y-59428409D01*
X77714285Y-59428409D02*
X77666666Y-59380790D01*
X77666666Y-59380790D02*
X77571428Y-59333171D01*
X77571428Y-59333171D02*
X77380952Y-59333171D01*
X77380952Y-59333171D02*
X77285714Y-59380790D01*
X77285714Y-59380790D02*
X77238095Y-59428409D01*
X77238095Y-59428409D02*
X77190476Y-59523647D01*
%TO.C,U3*%
D14*
X1970000Y-29760000D02*
X1970000Y-34820000D01*
X1970000Y-36820000D02*
X1970000Y-41880000D01*
X1970000Y-41880000D02*
X42730000Y-41880000D01*
X42730000Y-29760000D02*
X1970000Y-29760000D01*
X42730000Y-41880000D02*
X42730000Y-29760000D01*
X1910000Y-26760000D02*
X42790000Y-26760000D01*
X42790000Y-44880000D01*
X1910000Y-44880000D01*
X1910000Y-26760000D01*
X1970000Y-34820000D02*
G75*
G02*
X1970000Y-36820000I0J-1000000D01*
G01*
%TO.C,JP2*%
X53620000Y-2620000D02*
X55000000Y-2620000D01*
X53620000Y-4000000D02*
X53620000Y-2620000D01*
X53620000Y-5270000D02*
X53620000Y-10460000D01*
X53620000Y-5270000D02*
X56380000Y-5270000D01*
X53620000Y-10460000D02*
X56380000Y-10460000D01*
X56380000Y-5270000D02*
X56380000Y-10460000D01*
%TO.C,TP2*%
X56950000Y-19500000D02*
G75*
G02*
X55050000Y-19500000I-950000J0D01*
G01*
X55050000Y-19500000D02*
G75*
G02*
X56950000Y-19500000I950000J0D01*
G01*
%TO.C,JP1*%
X45120000Y-2620000D02*
X46500000Y-2620000D01*
X45120000Y-4000000D02*
X45120000Y-2620000D01*
X45120000Y-5270000D02*
X45120000Y-10460000D01*
X45120000Y-5270000D02*
X47880000Y-5270000D01*
X45120000Y-10460000D02*
X47880000Y-10460000D01*
X47880000Y-5270000D02*
X47880000Y-10460000D01*
%TO.C,C5*%
X57880000Y-51630000D02*
X63120000Y-51630000D01*
X57880000Y-51967000D02*
X57880000Y-51630000D01*
X57880000Y-54370000D02*
X57880000Y-54033000D01*
X63120000Y-51630000D02*
X63120000Y-51967000D01*
X63120000Y-54033000D02*
X63120000Y-54370000D01*
X63120000Y-54370000D02*
X57880000Y-54370000D01*
%TO.C,C4*%
X11880000Y-22630000D02*
X17120000Y-22630000D01*
X11880000Y-22967000D02*
X11880000Y-22630000D01*
X11880000Y-25370000D02*
X11880000Y-25033000D01*
X17120000Y-22630000D02*
X17120000Y-22967000D01*
X17120000Y-25033000D02*
X17120000Y-25370000D01*
X17120000Y-25370000D02*
X11880000Y-25370000D01*
%TO.C,U2*%
X49470000Y-43260000D02*
X49470000Y-44510000D01*
X49470000Y-46510000D02*
X49470000Y-47760000D01*
X49470000Y-47760000D02*
X74990000Y-47760000D01*
X74990000Y-43260000D02*
X49470000Y-43260000D01*
X74990000Y-47760000D02*
X74990000Y-43260000D01*
X49410000Y-40260000D02*
X75050000Y-40260000D01*
X75050000Y-50760000D01*
X49410000Y-50760000D01*
X49410000Y-40260000D01*
X49470000Y-44510000D02*
G75*
G02*
X49470000Y-46510000I0J-1000000D01*
G01*
%TO.C,R3*%
X64370000Y-14500000D02*
X64440000Y-14500000D01*
X64370000Y-14500000D02*
G75*
G02*
X61630000Y-14500000I-1370000J0D01*
G01*
X61630000Y-14500000D02*
G75*
G02*
X64370000Y-14500000I1370000J0D01*
G01*
%TO.C,TP1*%
X52950000Y-19500000D02*
G75*
G02*
X51050000Y-19500000I-950000J0D01*
G01*
X51050000Y-19500000D02*
G75*
G02*
X52950000Y-19500000I950000J0D01*
G01*
%TO.C,U4*%
X1970000Y-6760000D02*
X1970000Y-11820000D01*
X1970000Y-13820000D02*
X1970000Y-18880000D01*
X1970000Y-18880000D02*
X37650000Y-18880000D01*
X37650000Y-6760000D02*
X1970000Y-6760000D01*
X37650000Y-18880000D02*
X37650000Y-6760000D01*
X1910000Y-3760000D02*
X37710000Y-3760000D01*
X37710000Y-21880000D01*
X1910000Y-21880000D01*
X1910000Y-3760000D01*
X1970000Y-11820000D02*
G75*
G02*
X1970000Y-13820000I0J-1000000D01*
G01*
%TO.C,C2*%
X47180000Y-51630000D02*
X52420000Y-51630000D01*
X47180000Y-51967000D02*
X47180000Y-51630000D01*
X47180000Y-54370000D02*
X47180000Y-54033000D01*
X52420000Y-51630000D02*
X52420000Y-51967000D01*
X52420000Y-54033000D02*
X52420000Y-54370000D01*
X52420000Y-54370000D02*
X47180000Y-54370000D01*
%TO.C,JP4*%
X68620000Y-2620000D02*
X70000000Y-2620000D01*
X68620000Y-4000000D02*
X68620000Y-2620000D01*
X68620000Y-5270000D02*
X68620000Y-7920000D01*
X68620000Y-5270000D02*
X71380000Y-5270000D01*
X68620000Y-7920000D02*
X71380000Y-7920000D01*
X71380000Y-5270000D02*
X71380000Y-7920000D01*
%TO.C,R5*%
X58870000Y-14500000D02*
X58940000Y-14500000D01*
X58870000Y-14500000D02*
G75*
G02*
X56130000Y-14500000I-1370000J0D01*
G01*
X56130000Y-14500000D02*
G75*
G02*
X58870000Y-14500000I1370000J0D01*
G01*
%TO.C,C6*%
X66195225Y-53525000D02*
X66695225Y-53525000D01*
X66445225Y-53275000D02*
X66445225Y-53775000D01*
X69000000Y-52420000D02*
X69000000Y-53960000D01*
X69000000Y-56040000D02*
X69000000Y-57580000D01*
X69040000Y-52420000D02*
X69040000Y-53960000D01*
X69040000Y-56040000D02*
X69040000Y-57580000D01*
X69080000Y-52421000D02*
X69080000Y-53960000D01*
X69080000Y-56040000D02*
X69080000Y-57579000D01*
X69120000Y-52423000D02*
X69120000Y-53960000D01*
X69120000Y-56040000D02*
X69120000Y-57577000D01*
X69160000Y-52425000D02*
X69160000Y-53960000D01*
X69160000Y-56040000D02*
X69160000Y-57575000D01*
X69200000Y-52428000D02*
X69200000Y-53960000D01*
X69200000Y-56040000D02*
X69200000Y-57572000D01*
X69240000Y-52431000D02*
X69240000Y-53960000D01*
X69240000Y-56040000D02*
X69240000Y-57569000D01*
X69280000Y-52435000D02*
X69280000Y-53960000D01*
X69280000Y-56040000D02*
X69280000Y-57565000D01*
X69320000Y-52440000D02*
X69320000Y-53960000D01*
X69320000Y-56040000D02*
X69320000Y-57560000D01*
X69360000Y-52445000D02*
X69360000Y-53960000D01*
X69360000Y-56040000D02*
X69360000Y-57555000D01*
X69400000Y-52451000D02*
X69400000Y-53960000D01*
X69400000Y-56040000D02*
X69400000Y-57549000D01*
X69440000Y-52457000D02*
X69440000Y-53960000D01*
X69440000Y-56040000D02*
X69440000Y-57543000D01*
X69480000Y-52464000D02*
X69480000Y-53960000D01*
X69480000Y-56040000D02*
X69480000Y-57536000D01*
X69520000Y-52472000D02*
X69520000Y-53960000D01*
X69520000Y-56040000D02*
X69520000Y-57528000D01*
X69560000Y-52481000D02*
X69560000Y-53960000D01*
X69560000Y-56040000D02*
X69560000Y-57519000D01*
X69600000Y-52490000D02*
X69600000Y-53960000D01*
X69600000Y-56040000D02*
X69600000Y-57510000D01*
X69640000Y-52499000D02*
X69640000Y-53960000D01*
X69640000Y-56040000D02*
X69640000Y-57501000D01*
X69680000Y-52510000D02*
X69680000Y-53960000D01*
X69680000Y-56040000D02*
X69680000Y-57490000D01*
X69720000Y-52521000D02*
X69720000Y-53960000D01*
X69720000Y-56040000D02*
X69720000Y-57479000D01*
X69760000Y-52533000D02*
X69760000Y-53960000D01*
X69760000Y-56040000D02*
X69760000Y-57467000D01*
X69800000Y-52545000D02*
X69800000Y-53960000D01*
X69800000Y-56040000D02*
X69800000Y-57455000D01*
X69840000Y-52558000D02*
X69840000Y-53960000D01*
X69840000Y-56040000D02*
X69840000Y-57442000D01*
X69880000Y-52572000D02*
X69880000Y-53960000D01*
X69880000Y-56040000D02*
X69880000Y-57428000D01*
X69920000Y-52587000D02*
X69920000Y-53960000D01*
X69920000Y-56040000D02*
X69920000Y-57413000D01*
X69960000Y-52602000D02*
X69960000Y-53960000D01*
X69960000Y-56040000D02*
X69960000Y-57398000D01*
X70000000Y-52618000D02*
X70000000Y-53960000D01*
X70000000Y-56040000D02*
X70000000Y-57382000D01*
X70040000Y-52635000D02*
X70040000Y-53960000D01*
X70040000Y-56040000D02*
X70040000Y-57365000D01*
X70080000Y-52653000D02*
X70080000Y-53960000D01*
X70080000Y-56040000D02*
X70080000Y-57347000D01*
X70120000Y-52671000D02*
X70120000Y-53960000D01*
X70120000Y-56040000D02*
X70120000Y-57329000D01*
X70160000Y-52691000D02*
X70160000Y-53960000D01*
X70160000Y-56040000D02*
X70160000Y-57309000D01*
X70200000Y-52711000D02*
X70200000Y-53960000D01*
X70200000Y-56040000D02*
X70200000Y-57289000D01*
X70240000Y-52732000D02*
X70240000Y-53960000D01*
X70240000Y-56040000D02*
X70240000Y-57268000D01*
X70280000Y-52754000D02*
X70280000Y-53960000D01*
X70280000Y-56040000D02*
X70280000Y-57246000D01*
X70320000Y-52777000D02*
X70320000Y-53960000D01*
X70320000Y-56040000D02*
X70320000Y-57223000D01*
X70360000Y-52801000D02*
X70360000Y-53960000D01*
X70360000Y-56040000D02*
X70360000Y-57199000D01*
X70400000Y-52825000D02*
X70400000Y-53960000D01*
X70400000Y-56040000D02*
X70400000Y-57175000D01*
X70440000Y-52851000D02*
X70440000Y-53960000D01*
X70440000Y-56040000D02*
X70440000Y-57149000D01*
X70480000Y-52878000D02*
X70480000Y-53960000D01*
X70480000Y-56040000D02*
X70480000Y-57122000D01*
X70520000Y-52906000D02*
X70520000Y-53960000D01*
X70520000Y-56040000D02*
X70520000Y-57094000D01*
X70560000Y-52935000D02*
X70560000Y-53960000D01*
X70560000Y-56040000D02*
X70560000Y-57065000D01*
X70600000Y-52965000D02*
X70600000Y-53960000D01*
X70600000Y-56040000D02*
X70600000Y-57035000D01*
X70640000Y-52997000D02*
X70640000Y-53960000D01*
X70640000Y-56040000D02*
X70640000Y-57003000D01*
X70680000Y-53030000D02*
X70680000Y-53960000D01*
X70680000Y-56040000D02*
X70680000Y-56970000D01*
X70720000Y-53064000D02*
X70720000Y-53960000D01*
X70720000Y-56040000D02*
X70720000Y-56936000D01*
X70760000Y-53099000D02*
X70760000Y-53960000D01*
X70760000Y-56040000D02*
X70760000Y-56901000D01*
X70800000Y-53136000D02*
X70800000Y-53960000D01*
X70800000Y-56040000D02*
X70800000Y-56864000D01*
X70840000Y-53175000D02*
X70840000Y-53960000D01*
X70840000Y-56040000D02*
X70840000Y-56825000D01*
X70880000Y-53215000D02*
X70880000Y-53960000D01*
X70880000Y-56040000D02*
X70880000Y-56785000D01*
X70920000Y-53257000D02*
X70920000Y-53960000D01*
X70920000Y-56040000D02*
X70920000Y-56743000D01*
X70960000Y-53301000D02*
X70960000Y-53960000D01*
X70960000Y-56040000D02*
X70960000Y-56699000D01*
X71000000Y-53348000D02*
X71000000Y-53960000D01*
X71000000Y-56040000D02*
X71000000Y-56652000D01*
X71040000Y-53396000D02*
X71040000Y-56604000D01*
X71080000Y-53447000D02*
X71080000Y-56553000D01*
X71120000Y-53501000D02*
X71120000Y-56499000D01*
X71160000Y-53557000D02*
X71160000Y-56443000D01*
X71200000Y-53617000D02*
X71200000Y-56383000D01*
X71240000Y-53681000D02*
X71240000Y-56319000D01*
X71280000Y-53749000D02*
X71280000Y-56251000D01*
X71320000Y-53823000D02*
X71320000Y-56177000D01*
X71360000Y-53902000D02*
X71360000Y-56098000D01*
X71400000Y-53989000D02*
X71400000Y-56011000D01*
X71440000Y-54086000D02*
X71440000Y-55914000D01*
X71480000Y-54195000D02*
X71480000Y-55805000D01*
X71520000Y-54323000D02*
X71520000Y-55677000D01*
X71560000Y-54483000D02*
X71560000Y-55517000D01*
X71600000Y-54717000D02*
X71600000Y-55283000D01*
X71620000Y-55000000D02*
G75*
G02*
X66380000Y-55000000I-2620000J0D01*
G01*
X66380000Y-55000000D02*
G75*
G02*
X71620000Y-55000000I2620000J0D01*
G01*
%TO.C,D1*%
X46210000Y-18264000D02*
X46210000Y-18420000D01*
X46210000Y-20580000D02*
X46210000Y-20736000D01*
X46210000Y-18264484D02*
G75*
G02*
X49441437Y-18420000I1560000J-1235516D01*
G01*
X46729039Y-18420000D02*
G75*
G02*
X48810961Y-18420000I1040961J-1080000D01*
G01*
X48810961Y-20580000D02*
G75*
G02*
X46729039Y-20580000I-1040961J1080000D01*
G01*
X49441437Y-20580000D02*
G75*
G02*
X46210000Y-20735516I-1671437J1080000D01*
G01*
%TO.C,U1*%
X46970000Y-29760000D02*
X46970000Y-31010000D01*
X46970000Y-33010000D02*
X46970000Y-34260000D01*
X46970000Y-34260000D02*
X77570000Y-34260000D01*
X77570000Y-29760000D02*
X46970000Y-29760000D01*
X77570000Y-34260000D02*
X77570000Y-29760000D01*
X46910000Y-26760000D02*
X77630000Y-26760000D01*
X77630000Y-37260000D01*
X46910000Y-37260000D01*
X46910000Y-26760000D01*
X46970000Y-31010000D02*
G75*
G02*
X46970000Y-33010000I0J-1000000D01*
G01*
%TO.C,C1*%
X48180000Y-22130000D02*
X53420000Y-22130000D01*
X48180000Y-22467000D02*
X48180000Y-22130000D01*
X48180000Y-24870000D02*
X48180000Y-24533000D01*
X53420000Y-22130000D02*
X53420000Y-22467000D01*
X53420000Y-24533000D02*
X53420000Y-24870000D01*
X53420000Y-24870000D02*
X48180000Y-24870000D01*
%TO.C,C3*%
X3180000Y-22630000D02*
X8420000Y-22630000D01*
X3180000Y-22967000D02*
X3180000Y-22630000D01*
X3180000Y-25370000D02*
X3180000Y-25033000D01*
X8420000Y-22630000D02*
X8420000Y-22967000D01*
X8420000Y-25033000D02*
X8420000Y-25370000D01*
X8420000Y-25370000D02*
X3180000Y-25370000D01*
%TO.C,R4*%
X53370000Y-14500000D02*
X53440000Y-14500000D01*
X53370000Y-14500000D02*
G75*
G02*
X50630000Y-14500000I-1370000J0D01*
G01*
X50630000Y-14500000D02*
G75*
G02*
X53370000Y-14500000I1370000J0D01*
G01*
%TO.C,R2*%
X47870000Y-14500000D02*
X47940000Y-14500000D01*
X47870000Y-14500000D02*
G75*
G02*
X45130000Y-14500000I-1370000J0D01*
G01*
X45130000Y-14500000D02*
G75*
G02*
X47870000Y-14500000I1370000J0D01*
G01*
%TO.C,JP3*%
X62120000Y-2620000D02*
X63500000Y-2620000D01*
X62120000Y-4000000D02*
X62120000Y-2620000D01*
X62120000Y-5270000D02*
X62120000Y-7920000D01*
X62120000Y-5270000D02*
X64880000Y-5270000D01*
X62120000Y-7920000D02*
X64880000Y-7920000D01*
X64880000Y-5270000D02*
X64880000Y-7920000D01*
%TO.C,J1*%
D15*
X2880000Y-57230000D02*
X2880000Y-65739999D01*
X2880000Y-57230000D02*
X2880000Y-65739999D01*
X63500000Y-57230000D02*
X63500000Y-65739999D01*
X63500000Y-57230000D02*
X63500000Y-65739999D01*
X75860000Y-65739999D02*
X75860000Y-57230000D01*
X75860000Y-65739999D02*
X75860000Y-57230000D01*
%TD*%
M02*
