%TF.GenerationSoftware,KiCad,Pcbnew,10.0.4*%
%TF.CreationDate,2026-07-29T20:38:21-03:00*%
%TF.ProjectId,tkmem128,746b6d65-6d31-4323-982e-6b696361645f,rev?*%
%TF.SameCoordinates,Original*%
%TF.FileFunction,Legend,Bot*%
%TF.FilePolarity,Positive*%
%FSLAX46Y46*%
G04 Gerber Fmt 4.6, Leading zero omitted, Abs format (unit mm)*
G04 Created by KiCad (PCBNEW 10.0.4) date 2026-07-29 20:38:21*
%MOMM*%
%LPD*%
G01*
G04 APERTURE LIST*
%ADD10C,0.180000*%
%ADD11C,0.200000*%
%ADD12C,0.160000*%
%ADD13C,0.150000*%
G04 APERTURE END LIST*
D10*
X25514285Y-10321282D02*
X25557142Y-10364140D01*
X25557142Y-10364140D02*
X25685714Y-10406997D01*
X25685714Y-10406997D02*
X25771428Y-10406997D01*
X25771428Y-10406997D02*
X25899999Y-10364140D01*
X25899999Y-10364140D02*
X25985714Y-10278425D01*
X25985714Y-10278425D02*
X26028571Y-10192711D01*
X26028571Y-10192711D02*
X26071428Y-10021282D01*
X26071428Y-10021282D02*
X26071428Y-9892711D01*
X26071428Y-9892711D02*
X26028571Y-9721282D01*
X26028571Y-9721282D02*
X25985714Y-9635568D01*
X25985714Y-9635568D02*
X25899999Y-9549854D01*
X25899999Y-9549854D02*
X25771428Y-9506997D01*
X25771428Y-9506997D02*
X25685714Y-9506997D01*
X25685714Y-9506997D02*
X25557142Y-9549854D01*
X25557142Y-9549854D02*
X25514285Y-9592711D01*
X25128571Y-9935568D02*
X24828571Y-9935568D01*
X24699999Y-10406997D02*
X25128571Y-10406997D01*
X25128571Y-10406997D02*
X25128571Y-9506997D01*
X25128571Y-9506997D02*
X24699999Y-9506997D01*
X23799999Y-10406997D02*
X24099999Y-9978425D01*
X24314285Y-10406997D02*
X24314285Y-9506997D01*
X24314285Y-9506997D02*
X23971428Y-9506997D01*
X23971428Y-9506997D02*
X23885713Y-9549854D01*
X23885713Y-9549854D02*
X23842856Y-9592711D01*
X23842856Y-9592711D02*
X23799999Y-9678425D01*
X23799999Y-9678425D02*
X23799999Y-9806997D01*
X23799999Y-9806997D02*
X23842856Y-9892711D01*
X23842856Y-9892711D02*
X23885713Y-9935568D01*
X23885713Y-9935568D02*
X23971428Y-9978425D01*
X23971428Y-9978425D02*
X24314285Y-9978425D01*
X23414285Y-10406997D02*
X23414285Y-9506997D01*
X23414285Y-9506997D02*
X22899999Y-10406997D01*
X22899999Y-10406997D02*
X22899999Y-9506997D01*
X22471428Y-10064140D02*
X21785714Y-10064140D01*
X21185713Y-9506997D02*
X21014285Y-9506997D01*
X21014285Y-9506997D02*
X20928570Y-9549854D01*
X20928570Y-9549854D02*
X20842856Y-9635568D01*
X20842856Y-9635568D02*
X20799999Y-9806997D01*
X20799999Y-9806997D02*
X20799999Y-10106997D01*
X20799999Y-10106997D02*
X20842856Y-10278425D01*
X20842856Y-10278425D02*
X20928570Y-10364140D01*
X20928570Y-10364140D02*
X21014285Y-10406997D01*
X21014285Y-10406997D02*
X21185713Y-10406997D01*
X21185713Y-10406997D02*
X21271428Y-10364140D01*
X21271428Y-10364140D02*
X21357142Y-10278425D01*
X21357142Y-10278425D02*
X21399999Y-10106997D01*
X21399999Y-10106997D02*
X21399999Y-9806997D01*
X21399999Y-9806997D02*
X21357142Y-9635568D01*
X21357142Y-9635568D02*
X21271428Y-9549854D01*
X21271428Y-9549854D02*
X21185713Y-9506997D01*
X20414285Y-10406997D02*
X20414285Y-9506997D01*
X20414285Y-9935568D02*
X19899999Y-9935568D01*
X19899999Y-10406997D02*
X19899999Y-9506997D01*
X19042856Y-10406997D02*
X19471428Y-10406997D01*
X19471428Y-10406997D02*
X19471428Y-9506997D01*
X18742857Y-10064140D02*
X18057143Y-10064140D01*
X17671428Y-10364140D02*
X17542857Y-10406997D01*
X17542857Y-10406997D02*
X17328571Y-10406997D01*
X17328571Y-10406997D02*
X17242857Y-10364140D01*
X17242857Y-10364140D02*
X17199999Y-10321282D01*
X17199999Y-10321282D02*
X17157142Y-10235568D01*
X17157142Y-10235568D02*
X17157142Y-10149854D01*
X17157142Y-10149854D02*
X17199999Y-10064140D01*
X17199999Y-10064140D02*
X17242857Y-10021282D01*
X17242857Y-10021282D02*
X17328571Y-9978425D01*
X17328571Y-9978425D02*
X17499999Y-9935568D01*
X17499999Y-9935568D02*
X17585714Y-9892711D01*
X17585714Y-9892711D02*
X17628571Y-9849854D01*
X17628571Y-9849854D02*
X17671428Y-9764140D01*
X17671428Y-9764140D02*
X17671428Y-9678425D01*
X17671428Y-9678425D02*
X17628571Y-9592711D01*
X17628571Y-9592711D02*
X17585714Y-9549854D01*
X17585714Y-9549854D02*
X17499999Y-9506997D01*
X17499999Y-9506997D02*
X17285714Y-9506997D01*
X17285714Y-9506997D02*
X17157142Y-9549854D01*
X16171428Y-9806997D02*
X15957142Y-10406997D01*
X15957142Y-10406997D02*
X15742857Y-9806997D01*
X15442857Y-9592711D02*
X15400000Y-9549854D01*
X15400000Y-9549854D02*
X15314286Y-9506997D01*
X15314286Y-9506997D02*
X15100000Y-9506997D01*
X15100000Y-9506997D02*
X15014286Y-9549854D01*
X15014286Y-9549854D02*
X14971428Y-9592711D01*
X14971428Y-9592711D02*
X14928571Y-9678425D01*
X14928571Y-9678425D02*
X14928571Y-9764140D01*
X14928571Y-9764140D02*
X14971428Y-9892711D01*
X14971428Y-9892711D02*
X15485714Y-10406997D01*
X15485714Y-10406997D02*
X14928571Y-10406997D01*
X32350001Y-11806997D02*
X32350001Y-12535568D01*
X32350001Y-12535568D02*
X32392858Y-12621282D01*
X32392858Y-12621282D02*
X32435715Y-12664140D01*
X32435715Y-12664140D02*
X32521429Y-12706997D01*
X32521429Y-12706997D02*
X32650001Y-12706997D01*
X32650001Y-12706997D02*
X32735715Y-12664140D01*
X32350001Y-12364140D02*
X32435715Y-12406997D01*
X32435715Y-12406997D02*
X32607143Y-12406997D01*
X32607143Y-12406997D02*
X32692858Y-12364140D01*
X32692858Y-12364140D02*
X32735715Y-12321282D01*
X32735715Y-12321282D02*
X32778572Y-12235568D01*
X32778572Y-12235568D02*
X32778572Y-11978425D01*
X32778572Y-11978425D02*
X32735715Y-11892711D01*
X32735715Y-11892711D02*
X32692858Y-11849854D01*
X32692858Y-11849854D02*
X32607143Y-11806997D01*
X32607143Y-11806997D02*
X32435715Y-11806997D01*
X32435715Y-11806997D02*
X32350001Y-11849854D01*
X31921429Y-12406997D02*
X31921429Y-11806997D01*
X31921429Y-11506997D02*
X31964286Y-11549854D01*
X31964286Y-11549854D02*
X31921429Y-11592711D01*
X31921429Y-11592711D02*
X31878572Y-11549854D01*
X31878572Y-11549854D02*
X31921429Y-11506997D01*
X31921429Y-11506997D02*
X31921429Y-11592711D01*
X31621429Y-11806997D02*
X31278572Y-11806997D01*
X31492858Y-11506997D02*
X31492858Y-12278425D01*
X31492858Y-12278425D02*
X31450001Y-12364140D01*
X31450001Y-12364140D02*
X31364286Y-12406997D01*
X31364286Y-12406997D02*
X31278572Y-12406997D01*
X30978572Y-12406997D02*
X30978572Y-11506997D01*
X30592858Y-12406997D02*
X30592858Y-11935568D01*
X30592858Y-11935568D02*
X30635715Y-11849854D01*
X30635715Y-11849854D02*
X30721429Y-11806997D01*
X30721429Y-11806997D02*
X30850000Y-11806997D01*
X30850000Y-11806997D02*
X30935715Y-11849854D01*
X30935715Y-11849854D02*
X30978572Y-11892711D01*
X29778572Y-11806997D02*
X29778572Y-12406997D01*
X30164286Y-11806997D02*
X30164286Y-12278425D01*
X30164286Y-12278425D02*
X30121429Y-12364140D01*
X30121429Y-12364140D02*
X30035714Y-12406997D01*
X30035714Y-12406997D02*
X29907143Y-12406997D01*
X29907143Y-12406997D02*
X29821429Y-12364140D01*
X29821429Y-12364140D02*
X29778572Y-12321282D01*
X29350000Y-12406997D02*
X29350000Y-11506997D01*
X29350000Y-11849854D02*
X29264286Y-11806997D01*
X29264286Y-11806997D02*
X29092857Y-11806997D01*
X29092857Y-11806997D02*
X29007143Y-11849854D01*
X29007143Y-11849854D02*
X28964286Y-11892711D01*
X28964286Y-11892711D02*
X28921428Y-11978425D01*
X28921428Y-11978425D02*
X28921428Y-12235568D01*
X28921428Y-12235568D02*
X28964286Y-12321282D01*
X28964286Y-12321282D02*
X29007143Y-12364140D01*
X29007143Y-12364140D02*
X29092857Y-12406997D01*
X29092857Y-12406997D02*
X29264286Y-12406997D01*
X29264286Y-12406997D02*
X29350000Y-12364140D01*
X28535714Y-12321282D02*
X28492857Y-12364140D01*
X28492857Y-12364140D02*
X28535714Y-12406997D01*
X28535714Y-12406997D02*
X28578571Y-12364140D01*
X28578571Y-12364140D02*
X28535714Y-12321282D01*
X28535714Y-12321282D02*
X28535714Y-12406997D01*
X27721429Y-12364140D02*
X27807143Y-12406997D01*
X27807143Y-12406997D02*
X27978571Y-12406997D01*
X27978571Y-12406997D02*
X28064286Y-12364140D01*
X28064286Y-12364140D02*
X28107143Y-12321282D01*
X28107143Y-12321282D02*
X28150000Y-12235568D01*
X28150000Y-12235568D02*
X28150000Y-11978425D01*
X28150000Y-11978425D02*
X28107143Y-11892711D01*
X28107143Y-11892711D02*
X28064286Y-11849854D01*
X28064286Y-11849854D02*
X27978571Y-11806997D01*
X27978571Y-11806997D02*
X27807143Y-11806997D01*
X27807143Y-11806997D02*
X27721429Y-11849854D01*
X27207142Y-12406997D02*
X27292857Y-12364140D01*
X27292857Y-12364140D02*
X27335714Y-12321282D01*
X27335714Y-12321282D02*
X27378571Y-12235568D01*
X27378571Y-12235568D02*
X27378571Y-11978425D01*
X27378571Y-11978425D02*
X27335714Y-11892711D01*
X27335714Y-11892711D02*
X27292857Y-11849854D01*
X27292857Y-11849854D02*
X27207142Y-11806997D01*
X27207142Y-11806997D02*
X27078571Y-11806997D01*
X27078571Y-11806997D02*
X26992857Y-11849854D01*
X26992857Y-11849854D02*
X26950000Y-11892711D01*
X26950000Y-11892711D02*
X26907142Y-11978425D01*
X26907142Y-11978425D02*
X26907142Y-12235568D01*
X26907142Y-12235568D02*
X26950000Y-12321282D01*
X26950000Y-12321282D02*
X26992857Y-12364140D01*
X26992857Y-12364140D02*
X27078571Y-12406997D01*
X27078571Y-12406997D02*
X27207142Y-12406997D01*
X26521428Y-12406997D02*
X26521428Y-11806997D01*
X26521428Y-11892711D02*
X26478571Y-11849854D01*
X26478571Y-11849854D02*
X26392856Y-11806997D01*
X26392856Y-11806997D02*
X26264285Y-11806997D01*
X26264285Y-11806997D02*
X26178571Y-11849854D01*
X26178571Y-11849854D02*
X26135714Y-11935568D01*
X26135714Y-11935568D02*
X26135714Y-12406997D01*
X26135714Y-11935568D02*
X26092856Y-11849854D01*
X26092856Y-11849854D02*
X26007142Y-11806997D01*
X26007142Y-11806997D02*
X25878571Y-11806997D01*
X25878571Y-11806997D02*
X25792856Y-11849854D01*
X25792856Y-11849854D02*
X25749999Y-11935568D01*
X25749999Y-11935568D02*
X25749999Y-12406997D01*
X24678571Y-11464140D02*
X25449999Y-12621282D01*
X24249999Y-12406997D02*
X24335714Y-12364140D01*
X24335714Y-12364140D02*
X24378571Y-12278425D01*
X24378571Y-12278425D02*
X24378571Y-11506997D01*
X23907142Y-12406997D02*
X23907142Y-11806997D01*
X23907142Y-11978425D02*
X23864285Y-11892711D01*
X23864285Y-11892711D02*
X23821428Y-11849854D01*
X23821428Y-11849854D02*
X23735713Y-11806997D01*
X23735713Y-11806997D02*
X23649999Y-11806997D01*
X23349999Y-12406997D02*
X23349999Y-11806997D01*
X23349999Y-11978425D02*
X23307142Y-11892711D01*
X23307142Y-11892711D02*
X23264285Y-11849854D01*
X23264285Y-11849854D02*
X23178570Y-11806997D01*
X23178570Y-11806997D02*
X23092856Y-11806997D01*
X22664284Y-12406997D02*
X22749999Y-12364140D01*
X22749999Y-12364140D02*
X22792856Y-12321282D01*
X22792856Y-12321282D02*
X22835713Y-12235568D01*
X22835713Y-12235568D02*
X22835713Y-11978425D01*
X22835713Y-11978425D02*
X22792856Y-11892711D01*
X22792856Y-11892711D02*
X22749999Y-11849854D01*
X22749999Y-11849854D02*
X22664284Y-11806997D01*
X22664284Y-11806997D02*
X22535713Y-11806997D01*
X22535713Y-11806997D02*
X22449999Y-11849854D01*
X22449999Y-11849854D02*
X22407142Y-11892711D01*
X22407142Y-11892711D02*
X22364284Y-11978425D01*
X22364284Y-11978425D02*
X22364284Y-12235568D01*
X22364284Y-12235568D02*
X22407142Y-12321282D01*
X22407142Y-12321282D02*
X22449999Y-12364140D01*
X22449999Y-12364140D02*
X22535713Y-12406997D01*
X22535713Y-12406997D02*
X22664284Y-12406997D01*
X22021427Y-12364140D02*
X21935713Y-12406997D01*
X21935713Y-12406997D02*
X21764284Y-12406997D01*
X21764284Y-12406997D02*
X21678570Y-12364140D01*
X21678570Y-12364140D02*
X21635713Y-12278425D01*
X21635713Y-12278425D02*
X21635713Y-12235568D01*
X21635713Y-12235568D02*
X21678570Y-12149854D01*
X21678570Y-12149854D02*
X21764284Y-12106997D01*
X21764284Y-12106997D02*
X21892856Y-12106997D01*
X21892856Y-12106997D02*
X21978570Y-12064140D01*
X21978570Y-12064140D02*
X22021427Y-11978425D01*
X22021427Y-11978425D02*
X22021427Y-11935568D01*
X22021427Y-11935568D02*
X21978570Y-11849854D01*
X21978570Y-11849854D02*
X21892856Y-11806997D01*
X21892856Y-11806997D02*
X21764284Y-11806997D01*
X21764284Y-11806997D02*
X21678570Y-11849854D01*
X20864285Y-12406997D02*
X20864285Y-11935568D01*
X20864285Y-11935568D02*
X20907142Y-11849854D01*
X20907142Y-11849854D02*
X20992856Y-11806997D01*
X20992856Y-11806997D02*
X21164285Y-11806997D01*
X21164285Y-11806997D02*
X21249999Y-11849854D01*
X20864285Y-12364140D02*
X20949999Y-12406997D01*
X20949999Y-12406997D02*
X21164285Y-12406997D01*
X21164285Y-12406997D02*
X21249999Y-12364140D01*
X21249999Y-12364140D02*
X21292856Y-12278425D01*
X21292856Y-12278425D02*
X21292856Y-12192711D01*
X21292856Y-12192711D02*
X21249999Y-12106997D01*
X21249999Y-12106997D02*
X21164285Y-12064140D01*
X21164285Y-12064140D02*
X20949999Y-12064140D01*
X20949999Y-12064140D02*
X20864285Y-12021282D01*
X19792856Y-11464140D02*
X20564284Y-12621282D01*
X19621427Y-11806997D02*
X19278570Y-11806997D01*
X19492856Y-11506997D02*
X19492856Y-12278425D01*
X19492856Y-12278425D02*
X19449999Y-12364140D01*
X19449999Y-12364140D02*
X19364284Y-12406997D01*
X19364284Y-12406997D02*
X19278570Y-12406997D01*
X18978570Y-12406997D02*
X18978570Y-11506997D01*
X18892856Y-12064140D02*
X18635713Y-12406997D01*
X18635713Y-11806997D02*
X18978570Y-12149854D01*
X18249999Y-12406997D02*
X18249999Y-11806997D01*
X18249999Y-11892711D02*
X18207142Y-11849854D01*
X18207142Y-11849854D02*
X18121427Y-11806997D01*
X18121427Y-11806997D02*
X17992856Y-11806997D01*
X17992856Y-11806997D02*
X17907142Y-11849854D01*
X17907142Y-11849854D02*
X17864285Y-11935568D01*
X17864285Y-11935568D02*
X17864285Y-12406997D01*
X17864285Y-11935568D02*
X17821427Y-11849854D01*
X17821427Y-11849854D02*
X17735713Y-11806997D01*
X17735713Y-11806997D02*
X17607142Y-11806997D01*
X17607142Y-11806997D02*
X17521427Y-11849854D01*
X17521427Y-11849854D02*
X17478570Y-11935568D01*
X17478570Y-11935568D02*
X17478570Y-12406997D01*
X16707142Y-12364140D02*
X16792856Y-12406997D01*
X16792856Y-12406997D02*
X16964285Y-12406997D01*
X16964285Y-12406997D02*
X17049999Y-12364140D01*
X17049999Y-12364140D02*
X17092856Y-12278425D01*
X17092856Y-12278425D02*
X17092856Y-11935568D01*
X17092856Y-11935568D02*
X17049999Y-11849854D01*
X17049999Y-11849854D02*
X16964285Y-11806997D01*
X16964285Y-11806997D02*
X16792856Y-11806997D01*
X16792856Y-11806997D02*
X16707142Y-11849854D01*
X16707142Y-11849854D02*
X16664285Y-11935568D01*
X16664285Y-11935568D02*
X16664285Y-12021282D01*
X16664285Y-12021282D02*
X17092856Y-12106997D01*
X16278570Y-12406997D02*
X16278570Y-11806997D01*
X16278570Y-11892711D02*
X16235713Y-11849854D01*
X16235713Y-11849854D02*
X16149998Y-11806997D01*
X16149998Y-11806997D02*
X16021427Y-11806997D01*
X16021427Y-11806997D02*
X15935713Y-11849854D01*
X15935713Y-11849854D02*
X15892856Y-11935568D01*
X15892856Y-11935568D02*
X15892856Y-12406997D01*
X15892856Y-11935568D02*
X15849998Y-11849854D01*
X15849998Y-11849854D02*
X15764284Y-11806997D01*
X15764284Y-11806997D02*
X15635713Y-11806997D01*
X15635713Y-11806997D02*
X15549998Y-11849854D01*
X15549998Y-11849854D02*
X15507141Y-11935568D01*
X15507141Y-11935568D02*
X15507141Y-12406997D01*
X14607141Y-12406997D02*
X15121427Y-12406997D01*
X14864284Y-12406997D02*
X14864284Y-11506997D01*
X14864284Y-11506997D02*
X14949998Y-11635568D01*
X14949998Y-11635568D02*
X15035713Y-11721282D01*
X15035713Y-11721282D02*
X15121427Y-11764140D01*
X14264284Y-11592711D02*
X14221427Y-11549854D01*
X14221427Y-11549854D02*
X14135713Y-11506997D01*
X14135713Y-11506997D02*
X13921427Y-11506997D01*
X13921427Y-11506997D02*
X13835713Y-11549854D01*
X13835713Y-11549854D02*
X13792855Y-11592711D01*
X13792855Y-11592711D02*
X13749998Y-11678425D01*
X13749998Y-11678425D02*
X13749998Y-11764140D01*
X13749998Y-11764140D02*
X13792855Y-11892711D01*
X13792855Y-11892711D02*
X14307141Y-12406997D01*
X14307141Y-12406997D02*
X13749998Y-12406997D01*
X13235712Y-11892711D02*
X13321427Y-11849854D01*
X13321427Y-11849854D02*
X13364284Y-11806997D01*
X13364284Y-11806997D02*
X13407141Y-11721282D01*
X13407141Y-11721282D02*
X13407141Y-11678425D01*
X13407141Y-11678425D02*
X13364284Y-11592711D01*
X13364284Y-11592711D02*
X13321427Y-11549854D01*
X13321427Y-11549854D02*
X13235712Y-11506997D01*
X13235712Y-11506997D02*
X13064284Y-11506997D01*
X13064284Y-11506997D02*
X12978570Y-11549854D01*
X12978570Y-11549854D02*
X12935712Y-11592711D01*
X12935712Y-11592711D02*
X12892855Y-11678425D01*
X12892855Y-11678425D02*
X12892855Y-11721282D01*
X12892855Y-11721282D02*
X12935712Y-11806997D01*
X12935712Y-11806997D02*
X12978570Y-11849854D01*
X12978570Y-11849854D02*
X13064284Y-11892711D01*
X13064284Y-11892711D02*
X13235712Y-11892711D01*
X13235712Y-11892711D02*
X13321427Y-11935568D01*
X13321427Y-11935568D02*
X13364284Y-11978425D01*
X13364284Y-11978425D02*
X13407141Y-12064140D01*
X13407141Y-12064140D02*
X13407141Y-12235568D01*
X13407141Y-12235568D02*
X13364284Y-12321282D01*
X13364284Y-12321282D02*
X13321427Y-12364140D01*
X13321427Y-12364140D02*
X13235712Y-12406997D01*
X13235712Y-12406997D02*
X13064284Y-12406997D01*
X13064284Y-12406997D02*
X12978570Y-12364140D01*
X12978570Y-12364140D02*
X12935712Y-12321282D01*
X12935712Y-12321282D02*
X12892855Y-12235568D01*
X12892855Y-12235568D02*
X12892855Y-12064140D01*
X12892855Y-12064140D02*
X12935712Y-11978425D01*
X12935712Y-11978425D02*
X12978570Y-11935568D01*
X12978570Y-11935568D02*
X13064284Y-11892711D01*
X12507141Y-12064140D02*
X11821427Y-12064140D01*
X11392855Y-12406997D02*
X11392855Y-11506997D01*
X11307141Y-12064140D02*
X11049998Y-12406997D01*
X11049998Y-11806997D02*
X11392855Y-12149854D01*
X10664284Y-12406997D02*
X10664284Y-11806997D01*
X10664284Y-11506997D02*
X10707141Y-11549854D01*
X10707141Y-11549854D02*
X10664284Y-11592711D01*
X10664284Y-11592711D02*
X10621427Y-11549854D01*
X10621427Y-11549854D02*
X10664284Y-11506997D01*
X10664284Y-11506997D02*
X10664284Y-11592711D01*
X9849999Y-12364140D02*
X9935713Y-12406997D01*
X9935713Y-12406997D02*
X10107141Y-12406997D01*
X10107141Y-12406997D02*
X10192856Y-12364140D01*
X10192856Y-12364140D02*
X10235713Y-12321282D01*
X10235713Y-12321282D02*
X10278570Y-12235568D01*
X10278570Y-12235568D02*
X10278570Y-11978425D01*
X10278570Y-11978425D02*
X10235713Y-11892711D01*
X10235713Y-11892711D02*
X10192856Y-11849854D01*
X10192856Y-11849854D02*
X10107141Y-11806997D01*
X10107141Y-11806997D02*
X9935713Y-11806997D01*
X9935713Y-11806997D02*
X9849999Y-11849854D01*
X9078570Y-12406997D02*
X9078570Y-11935568D01*
X9078570Y-11935568D02*
X9121427Y-11849854D01*
X9121427Y-11849854D02*
X9207141Y-11806997D01*
X9207141Y-11806997D02*
X9378570Y-11806997D01*
X9378570Y-11806997D02*
X9464284Y-11849854D01*
X9078570Y-12364140D02*
X9164284Y-12406997D01*
X9164284Y-12406997D02*
X9378570Y-12406997D01*
X9378570Y-12406997D02*
X9464284Y-12364140D01*
X9464284Y-12364140D02*
X9507141Y-12278425D01*
X9507141Y-12278425D02*
X9507141Y-12192711D01*
X9507141Y-12192711D02*
X9464284Y-12106997D01*
X9464284Y-12106997D02*
X9378570Y-12064140D01*
X9378570Y-12064140D02*
X9164284Y-12064140D01*
X9164284Y-12064140D02*
X9078570Y-12021282D01*
X8264284Y-12406997D02*
X8264284Y-11506997D01*
X8264284Y-12364140D02*
X8349998Y-12406997D01*
X8349998Y-12406997D02*
X8521426Y-12406997D01*
X8521426Y-12406997D02*
X8607141Y-12364140D01*
X8607141Y-12364140D02*
X8649998Y-12321282D01*
X8649998Y-12321282D02*
X8692855Y-12235568D01*
X8692855Y-12235568D02*
X8692855Y-11978425D01*
X8692855Y-11978425D02*
X8649998Y-11892711D01*
X8649998Y-11892711D02*
X8607141Y-11849854D01*
X8607141Y-11849854D02*
X8521426Y-11806997D01*
X8521426Y-11806997D02*
X8349998Y-11806997D01*
X8349998Y-11806997D02*
X8264284Y-11849854D01*
X39064288Y-14906997D02*
X39064288Y-14006997D01*
X39064288Y-14006997D02*
X38850002Y-14006997D01*
X38850002Y-14006997D02*
X38721431Y-14049854D01*
X38721431Y-14049854D02*
X38635716Y-14135568D01*
X38635716Y-14135568D02*
X38592859Y-14221282D01*
X38592859Y-14221282D02*
X38550002Y-14392711D01*
X38550002Y-14392711D02*
X38550002Y-14521282D01*
X38550002Y-14521282D02*
X38592859Y-14692711D01*
X38592859Y-14692711D02*
X38635716Y-14778425D01*
X38635716Y-14778425D02*
X38721431Y-14864140D01*
X38721431Y-14864140D02*
X38850002Y-14906997D01*
X38850002Y-14906997D02*
X39064288Y-14906997D01*
X37821431Y-14864140D02*
X37907145Y-14906997D01*
X37907145Y-14906997D02*
X38078574Y-14906997D01*
X38078574Y-14906997D02*
X38164288Y-14864140D01*
X38164288Y-14864140D02*
X38207145Y-14778425D01*
X38207145Y-14778425D02*
X38207145Y-14435568D01*
X38207145Y-14435568D02*
X38164288Y-14349854D01*
X38164288Y-14349854D02*
X38078574Y-14306997D01*
X38078574Y-14306997D02*
X37907145Y-14306997D01*
X37907145Y-14306997D02*
X37821431Y-14349854D01*
X37821431Y-14349854D02*
X37778574Y-14435568D01*
X37778574Y-14435568D02*
X37778574Y-14521282D01*
X37778574Y-14521282D02*
X38207145Y-14606997D01*
X37392859Y-14906997D02*
X37392859Y-14306997D01*
X37392859Y-14478425D02*
X37350002Y-14392711D01*
X37350002Y-14392711D02*
X37307145Y-14349854D01*
X37307145Y-14349854D02*
X37221430Y-14306997D01*
X37221430Y-14306997D02*
X37135716Y-14306997D01*
X36835716Y-14906997D02*
X36835716Y-14306997D01*
X36835716Y-14006997D02*
X36878573Y-14049854D01*
X36878573Y-14049854D02*
X36835716Y-14092711D01*
X36835716Y-14092711D02*
X36792859Y-14049854D01*
X36792859Y-14049854D02*
X36835716Y-14006997D01*
X36835716Y-14006997D02*
X36835716Y-14092711D01*
X36492859Y-14306997D02*
X36278573Y-14906997D01*
X36278573Y-14906997D02*
X36064288Y-14306997D01*
X35335717Y-14906997D02*
X35335717Y-14435568D01*
X35335717Y-14435568D02*
X35378574Y-14349854D01*
X35378574Y-14349854D02*
X35464288Y-14306997D01*
X35464288Y-14306997D02*
X35635717Y-14306997D01*
X35635717Y-14306997D02*
X35721431Y-14349854D01*
X35335717Y-14864140D02*
X35421431Y-14906997D01*
X35421431Y-14906997D02*
X35635717Y-14906997D01*
X35635717Y-14906997D02*
X35721431Y-14864140D01*
X35721431Y-14864140D02*
X35764288Y-14778425D01*
X35764288Y-14778425D02*
X35764288Y-14692711D01*
X35764288Y-14692711D02*
X35721431Y-14606997D01*
X35721431Y-14606997D02*
X35635717Y-14564140D01*
X35635717Y-14564140D02*
X35421431Y-14564140D01*
X35421431Y-14564140D02*
X35335717Y-14521282D01*
X34521431Y-14906997D02*
X34521431Y-14006997D01*
X34521431Y-14864140D02*
X34607145Y-14906997D01*
X34607145Y-14906997D02*
X34778573Y-14906997D01*
X34778573Y-14906997D02*
X34864288Y-14864140D01*
X34864288Y-14864140D02*
X34907145Y-14821282D01*
X34907145Y-14821282D02*
X34950002Y-14735568D01*
X34950002Y-14735568D02*
X34950002Y-14478425D01*
X34950002Y-14478425D02*
X34907145Y-14392711D01*
X34907145Y-14392711D02*
X34864288Y-14349854D01*
X34864288Y-14349854D02*
X34778573Y-14306997D01*
X34778573Y-14306997D02*
X34607145Y-14306997D01*
X34607145Y-14306997D02*
X34521431Y-14349854D01*
X33964287Y-14906997D02*
X34050002Y-14864140D01*
X34050002Y-14864140D02*
X34092859Y-14821282D01*
X34092859Y-14821282D02*
X34135716Y-14735568D01*
X34135716Y-14735568D02*
X34135716Y-14478425D01*
X34135716Y-14478425D02*
X34092859Y-14392711D01*
X34092859Y-14392711D02*
X34050002Y-14349854D01*
X34050002Y-14349854D02*
X33964287Y-14306997D01*
X33964287Y-14306997D02*
X33835716Y-14306997D01*
X33835716Y-14306997D02*
X33750002Y-14349854D01*
X33750002Y-14349854D02*
X33707145Y-14392711D01*
X33707145Y-14392711D02*
X33664287Y-14478425D01*
X33664287Y-14478425D02*
X33664287Y-14735568D01*
X33664287Y-14735568D02*
X33707145Y-14821282D01*
X33707145Y-14821282D02*
X33750002Y-14864140D01*
X33750002Y-14864140D02*
X33835716Y-14906997D01*
X33835716Y-14906997D02*
X33964287Y-14906997D01*
X32207145Y-14906997D02*
X32207145Y-14006997D01*
X32207145Y-14864140D02*
X32292859Y-14906997D01*
X32292859Y-14906997D02*
X32464287Y-14906997D01*
X32464287Y-14906997D02*
X32550002Y-14864140D01*
X32550002Y-14864140D02*
X32592859Y-14821282D01*
X32592859Y-14821282D02*
X32635716Y-14735568D01*
X32635716Y-14735568D02*
X32635716Y-14478425D01*
X32635716Y-14478425D02*
X32592859Y-14392711D01*
X32592859Y-14392711D02*
X32550002Y-14349854D01*
X32550002Y-14349854D02*
X32464287Y-14306997D01*
X32464287Y-14306997D02*
X32292859Y-14306997D01*
X32292859Y-14306997D02*
X32207145Y-14349854D01*
X31435716Y-14864140D02*
X31521430Y-14906997D01*
X31521430Y-14906997D02*
X31692859Y-14906997D01*
X31692859Y-14906997D02*
X31778573Y-14864140D01*
X31778573Y-14864140D02*
X31821430Y-14778425D01*
X31821430Y-14778425D02*
X31821430Y-14435568D01*
X31821430Y-14435568D02*
X31778573Y-14349854D01*
X31778573Y-14349854D02*
X31692859Y-14306997D01*
X31692859Y-14306997D02*
X31521430Y-14306997D01*
X31521430Y-14306997D02*
X31435716Y-14349854D01*
X31435716Y-14349854D02*
X31392859Y-14435568D01*
X31392859Y-14435568D02*
X31392859Y-14521282D01*
X31392859Y-14521282D02*
X31821430Y-14606997D01*
X30450001Y-14006997D02*
X30150001Y-14906997D01*
X30150001Y-14906997D02*
X29850001Y-14006997D01*
X29207144Y-14864140D02*
X29292858Y-14906997D01*
X29292858Y-14906997D02*
X29464287Y-14906997D01*
X29464287Y-14906997D02*
X29550001Y-14864140D01*
X29550001Y-14864140D02*
X29592858Y-14778425D01*
X29592858Y-14778425D02*
X29592858Y-14435568D01*
X29592858Y-14435568D02*
X29550001Y-14349854D01*
X29550001Y-14349854D02*
X29464287Y-14306997D01*
X29464287Y-14306997D02*
X29292858Y-14306997D01*
X29292858Y-14306997D02*
X29207144Y-14349854D01*
X29207144Y-14349854D02*
X29164287Y-14435568D01*
X29164287Y-14435568D02*
X29164287Y-14521282D01*
X29164287Y-14521282D02*
X29592858Y-14606997D01*
X28650000Y-14906997D02*
X28735715Y-14864140D01*
X28735715Y-14864140D02*
X28778572Y-14778425D01*
X28778572Y-14778425D02*
X28778572Y-14006997D01*
X27964286Y-14864140D02*
X28050000Y-14906997D01*
X28050000Y-14906997D02*
X28221429Y-14906997D01*
X28221429Y-14906997D02*
X28307143Y-14864140D01*
X28307143Y-14864140D02*
X28350000Y-14778425D01*
X28350000Y-14778425D02*
X28350000Y-14435568D01*
X28350000Y-14435568D02*
X28307143Y-14349854D01*
X28307143Y-14349854D02*
X28221429Y-14306997D01*
X28221429Y-14306997D02*
X28050000Y-14306997D01*
X28050000Y-14306997D02*
X27964286Y-14349854D01*
X27964286Y-14349854D02*
X27921429Y-14435568D01*
X27921429Y-14435568D02*
X27921429Y-14521282D01*
X27921429Y-14521282D02*
X28350000Y-14606997D01*
X27578571Y-14864140D02*
X27492857Y-14906997D01*
X27492857Y-14906997D02*
X27321428Y-14906997D01*
X27321428Y-14906997D02*
X27235714Y-14864140D01*
X27235714Y-14864140D02*
X27192857Y-14778425D01*
X27192857Y-14778425D02*
X27192857Y-14735568D01*
X27192857Y-14735568D02*
X27235714Y-14649854D01*
X27235714Y-14649854D02*
X27321428Y-14606997D01*
X27321428Y-14606997D02*
X27450000Y-14606997D01*
X27450000Y-14606997D02*
X27535714Y-14564140D01*
X27535714Y-14564140D02*
X27578571Y-14478425D01*
X27578571Y-14478425D02*
X27578571Y-14435568D01*
X27578571Y-14435568D02*
X27535714Y-14349854D01*
X27535714Y-14349854D02*
X27450000Y-14306997D01*
X27450000Y-14306997D02*
X27321428Y-14306997D01*
X27321428Y-14306997D02*
X27235714Y-14349854D01*
X26678571Y-14906997D02*
X26764286Y-14864140D01*
X26764286Y-14864140D02*
X26807143Y-14821282D01*
X26807143Y-14821282D02*
X26850000Y-14735568D01*
X26850000Y-14735568D02*
X26850000Y-14478425D01*
X26850000Y-14478425D02*
X26807143Y-14392711D01*
X26807143Y-14392711D02*
X26764286Y-14349854D01*
X26764286Y-14349854D02*
X26678571Y-14306997D01*
X26678571Y-14306997D02*
X26550000Y-14306997D01*
X26550000Y-14306997D02*
X26464286Y-14349854D01*
X26464286Y-14349854D02*
X26421429Y-14392711D01*
X26421429Y-14392711D02*
X26378571Y-14478425D01*
X26378571Y-14478425D02*
X26378571Y-14735568D01*
X26378571Y-14735568D02*
X26421429Y-14821282D01*
X26421429Y-14821282D02*
X26464286Y-14864140D01*
X26464286Y-14864140D02*
X26550000Y-14906997D01*
X26550000Y-14906997D02*
X26678571Y-14906997D01*
X26121428Y-14306997D02*
X25778571Y-14306997D01*
X25992857Y-14906997D02*
X25992857Y-14135568D01*
X25992857Y-14135568D02*
X25950000Y-14049854D01*
X25950000Y-14049854D02*
X25864285Y-14006997D01*
X25864285Y-14006997D02*
X25778571Y-14006997D01*
X25607142Y-14306997D02*
X25264285Y-14306997D01*
X25478571Y-14006997D02*
X25478571Y-14778425D01*
X25478571Y-14778425D02*
X25435714Y-14864140D01*
X25435714Y-14864140D02*
X25349999Y-14906997D01*
X25349999Y-14906997D02*
X25264285Y-14906997D01*
X24321428Y-14092711D02*
X24278571Y-14049854D01*
X24278571Y-14049854D02*
X24192857Y-14006997D01*
X24192857Y-14006997D02*
X23978571Y-14006997D01*
X23978571Y-14006997D02*
X23892857Y-14049854D01*
X23892857Y-14049854D02*
X23849999Y-14092711D01*
X23849999Y-14092711D02*
X23807142Y-14178425D01*
X23807142Y-14178425D02*
X23807142Y-14264140D01*
X23807142Y-14264140D02*
X23849999Y-14392711D01*
X23849999Y-14392711D02*
X24364285Y-14906997D01*
X24364285Y-14906997D02*
X23807142Y-14906997D01*
X23249999Y-14006997D02*
X23164285Y-14006997D01*
X23164285Y-14006997D02*
X23078571Y-14049854D01*
X23078571Y-14049854D02*
X23035714Y-14092711D01*
X23035714Y-14092711D02*
X22992856Y-14178425D01*
X22992856Y-14178425D02*
X22949999Y-14349854D01*
X22949999Y-14349854D02*
X22949999Y-14564140D01*
X22949999Y-14564140D02*
X22992856Y-14735568D01*
X22992856Y-14735568D02*
X23035714Y-14821282D01*
X23035714Y-14821282D02*
X23078571Y-14864140D01*
X23078571Y-14864140D02*
X23164285Y-14906997D01*
X23164285Y-14906997D02*
X23249999Y-14906997D01*
X23249999Y-14906997D02*
X23335714Y-14864140D01*
X23335714Y-14864140D02*
X23378571Y-14821282D01*
X23378571Y-14821282D02*
X23421428Y-14735568D01*
X23421428Y-14735568D02*
X23464285Y-14564140D01*
X23464285Y-14564140D02*
X23464285Y-14349854D01*
X23464285Y-14349854D02*
X23421428Y-14178425D01*
X23421428Y-14178425D02*
X23378571Y-14092711D01*
X23378571Y-14092711D02*
X23335714Y-14049854D01*
X23335714Y-14049854D02*
X23249999Y-14006997D01*
X22392856Y-14006997D02*
X22307142Y-14006997D01*
X22307142Y-14006997D02*
X22221428Y-14049854D01*
X22221428Y-14049854D02*
X22178571Y-14092711D01*
X22178571Y-14092711D02*
X22135713Y-14178425D01*
X22135713Y-14178425D02*
X22092856Y-14349854D01*
X22092856Y-14349854D02*
X22092856Y-14564140D01*
X22092856Y-14564140D02*
X22135713Y-14735568D01*
X22135713Y-14735568D02*
X22178571Y-14821282D01*
X22178571Y-14821282D02*
X22221428Y-14864140D01*
X22221428Y-14864140D02*
X22307142Y-14906997D01*
X22307142Y-14906997D02*
X22392856Y-14906997D01*
X22392856Y-14906997D02*
X22478571Y-14864140D01*
X22478571Y-14864140D02*
X22521428Y-14821282D01*
X22521428Y-14821282D02*
X22564285Y-14735568D01*
X22564285Y-14735568D02*
X22607142Y-14564140D01*
X22607142Y-14564140D02*
X22607142Y-14349854D01*
X22607142Y-14349854D02*
X22564285Y-14178425D01*
X22564285Y-14178425D02*
X22521428Y-14092711D01*
X22521428Y-14092711D02*
X22478571Y-14049854D01*
X22478571Y-14049854D02*
X22392856Y-14006997D01*
X21664285Y-14906997D02*
X21492856Y-14906997D01*
X21492856Y-14906997D02*
X21407142Y-14864140D01*
X21407142Y-14864140D02*
X21364285Y-14821282D01*
X21364285Y-14821282D02*
X21278570Y-14692711D01*
X21278570Y-14692711D02*
X21235713Y-14521282D01*
X21235713Y-14521282D02*
X21235713Y-14178425D01*
X21235713Y-14178425D02*
X21278570Y-14092711D01*
X21278570Y-14092711D02*
X21321428Y-14049854D01*
X21321428Y-14049854D02*
X21407142Y-14006997D01*
X21407142Y-14006997D02*
X21578570Y-14006997D01*
X21578570Y-14006997D02*
X21664285Y-14049854D01*
X21664285Y-14049854D02*
X21707142Y-14092711D01*
X21707142Y-14092711D02*
X21749999Y-14178425D01*
X21749999Y-14178425D02*
X21749999Y-14392711D01*
X21749999Y-14392711D02*
X21707142Y-14478425D01*
X21707142Y-14478425D02*
X21664285Y-14521282D01*
X21664285Y-14521282D02*
X21578570Y-14564140D01*
X21578570Y-14564140D02*
X21407142Y-14564140D01*
X21407142Y-14564140D02*
X21321428Y-14521282D01*
X21321428Y-14521282D02*
X21278570Y-14478425D01*
X21278570Y-14478425D02*
X21235713Y-14392711D01*
X19821428Y-14864140D02*
X19907142Y-14906997D01*
X19907142Y-14906997D02*
X20078571Y-14906997D01*
X20078571Y-14906997D02*
X20164285Y-14864140D01*
X20164285Y-14864140D02*
X20207142Y-14778425D01*
X20207142Y-14778425D02*
X20207142Y-14435568D01*
X20207142Y-14435568D02*
X20164285Y-14349854D01*
X20164285Y-14349854D02*
X20078571Y-14306997D01*
X20078571Y-14306997D02*
X19907142Y-14306997D01*
X19907142Y-14306997D02*
X19821428Y-14349854D01*
X19821428Y-14349854D02*
X19778571Y-14435568D01*
X19778571Y-14435568D02*
X19778571Y-14521282D01*
X19778571Y-14521282D02*
X20207142Y-14606997D01*
X18278570Y-14906997D02*
X18707142Y-14906997D01*
X18707142Y-14906997D02*
X18707142Y-14006997D01*
X17592857Y-14306997D02*
X17592857Y-14906997D01*
X17978571Y-14306997D02*
X17978571Y-14778425D01*
X17978571Y-14778425D02*
X17935714Y-14864140D01*
X17935714Y-14864140D02*
X17849999Y-14906997D01*
X17849999Y-14906997D02*
X17721428Y-14906997D01*
X17721428Y-14906997D02*
X17635714Y-14864140D01*
X17635714Y-14864140D02*
X17592857Y-14821282D01*
X16778571Y-14864140D02*
X16864285Y-14906997D01*
X16864285Y-14906997D02*
X17035713Y-14906997D01*
X17035713Y-14906997D02*
X17121428Y-14864140D01*
X17121428Y-14864140D02*
X17164285Y-14821282D01*
X17164285Y-14821282D02*
X17207142Y-14735568D01*
X17207142Y-14735568D02*
X17207142Y-14478425D01*
X17207142Y-14478425D02*
X17164285Y-14392711D01*
X17164285Y-14392711D02*
X17121428Y-14349854D01*
X17121428Y-14349854D02*
X17035713Y-14306997D01*
X17035713Y-14306997D02*
X16864285Y-14306997D01*
X16864285Y-14306997D02*
X16778571Y-14349854D01*
X16007142Y-14864140D02*
X16092856Y-14906997D01*
X16092856Y-14906997D02*
X16264284Y-14906997D01*
X16264284Y-14906997D02*
X16349999Y-14864140D01*
X16349999Y-14864140D02*
X16392856Y-14821282D01*
X16392856Y-14821282D02*
X16435713Y-14735568D01*
X16435713Y-14735568D02*
X16435713Y-14478425D01*
X16435713Y-14478425D02*
X16392856Y-14392711D01*
X16392856Y-14392711D02*
X16349999Y-14349854D01*
X16349999Y-14349854D02*
X16264284Y-14306997D01*
X16264284Y-14306997D02*
X16092856Y-14306997D01*
X16092856Y-14306997D02*
X16007142Y-14349854D01*
X15235713Y-14906997D02*
X15235713Y-14435568D01*
X15235713Y-14435568D02*
X15278570Y-14349854D01*
X15278570Y-14349854D02*
X15364284Y-14306997D01*
X15364284Y-14306997D02*
X15535713Y-14306997D01*
X15535713Y-14306997D02*
X15621427Y-14349854D01*
X15235713Y-14864140D02*
X15321427Y-14906997D01*
X15321427Y-14906997D02*
X15535713Y-14906997D01*
X15535713Y-14906997D02*
X15621427Y-14864140D01*
X15621427Y-14864140D02*
X15664284Y-14778425D01*
X15664284Y-14778425D02*
X15664284Y-14692711D01*
X15664284Y-14692711D02*
X15621427Y-14606997D01*
X15621427Y-14606997D02*
X15535713Y-14564140D01*
X15535713Y-14564140D02*
X15321427Y-14564140D01*
X15321427Y-14564140D02*
X15235713Y-14521282D01*
X14849998Y-14864140D02*
X14764284Y-14906997D01*
X14764284Y-14906997D02*
X14592855Y-14906997D01*
X14592855Y-14906997D02*
X14507141Y-14864140D01*
X14507141Y-14864140D02*
X14464284Y-14778425D01*
X14464284Y-14778425D02*
X14464284Y-14735568D01*
X14464284Y-14735568D02*
X14507141Y-14649854D01*
X14507141Y-14649854D02*
X14592855Y-14606997D01*
X14592855Y-14606997D02*
X14721427Y-14606997D01*
X14721427Y-14606997D02*
X14807141Y-14564140D01*
X14807141Y-14564140D02*
X14849998Y-14478425D01*
X14849998Y-14478425D02*
X14849998Y-14435568D01*
X14849998Y-14435568D02*
X14807141Y-14349854D01*
X14807141Y-14349854D02*
X14721427Y-14306997D01*
X14721427Y-14306997D02*
X14592855Y-14306997D01*
X14592855Y-14306997D02*
X14507141Y-14349854D01*
X13392856Y-14435568D02*
X13092856Y-14435568D01*
X12964284Y-14906997D02*
X13392856Y-14906997D01*
X13392856Y-14906997D02*
X13392856Y-14006997D01*
X13392856Y-14006997D02*
X12964284Y-14006997D01*
X12449998Y-14906997D02*
X12535713Y-14864140D01*
X12535713Y-14864140D02*
X12578570Y-14778425D01*
X12578570Y-14778425D02*
X12578570Y-14006997D01*
X11764284Y-14864140D02*
X11849998Y-14906997D01*
X11849998Y-14906997D02*
X12021427Y-14906997D01*
X12021427Y-14906997D02*
X12107141Y-14864140D01*
X12107141Y-14864140D02*
X12149998Y-14778425D01*
X12149998Y-14778425D02*
X12149998Y-14435568D01*
X12149998Y-14435568D02*
X12107141Y-14349854D01*
X12107141Y-14349854D02*
X12021427Y-14306997D01*
X12021427Y-14306997D02*
X11849998Y-14306997D01*
X11849998Y-14306997D02*
X11764284Y-14349854D01*
X11764284Y-14349854D02*
X11721427Y-14435568D01*
X11721427Y-14435568D02*
X11721427Y-14521282D01*
X11721427Y-14521282D02*
X12149998Y-14606997D01*
X11464283Y-14306997D02*
X11121426Y-14306997D01*
X11335712Y-14006997D02*
X11335712Y-14778425D01*
X11335712Y-14778425D02*
X11292855Y-14864140D01*
X11292855Y-14864140D02*
X11207140Y-14906997D01*
X11207140Y-14906997D02*
X11121426Y-14906997D01*
X10821426Y-14906997D02*
X10821426Y-14306997D01*
X10821426Y-14478425D02*
X10778569Y-14392711D01*
X10778569Y-14392711D02*
X10735712Y-14349854D01*
X10735712Y-14349854D02*
X10649997Y-14306997D01*
X10649997Y-14306997D02*
X10564283Y-14306997D01*
X10135711Y-14906997D02*
X10221426Y-14864140D01*
X10221426Y-14864140D02*
X10264283Y-14821282D01*
X10264283Y-14821282D02*
X10307140Y-14735568D01*
X10307140Y-14735568D02*
X10307140Y-14478425D01*
X10307140Y-14478425D02*
X10264283Y-14392711D01*
X10264283Y-14392711D02*
X10221426Y-14349854D01*
X10221426Y-14349854D02*
X10135711Y-14306997D01*
X10135711Y-14306997D02*
X10007140Y-14306997D01*
X10007140Y-14306997D02*
X9921426Y-14349854D01*
X9921426Y-14349854D02*
X9878569Y-14392711D01*
X9878569Y-14392711D02*
X9835711Y-14478425D01*
X9835711Y-14478425D02*
X9835711Y-14735568D01*
X9835711Y-14735568D02*
X9878569Y-14821282D01*
X9878569Y-14821282D02*
X9921426Y-14864140D01*
X9921426Y-14864140D02*
X10007140Y-14906997D01*
X10007140Y-14906997D02*
X10135711Y-14906997D01*
X10221426Y-14092711D02*
X10049997Y-13964140D01*
X10049997Y-13964140D02*
X9878569Y-14092711D01*
X9449997Y-14306997D02*
X9449997Y-14906997D01*
X9449997Y-14392711D02*
X9407140Y-14349854D01*
X9407140Y-14349854D02*
X9321425Y-14306997D01*
X9321425Y-14306997D02*
X9192854Y-14306997D01*
X9192854Y-14306997D02*
X9107140Y-14349854D01*
X9107140Y-14349854D02*
X9064283Y-14435568D01*
X9064283Y-14435568D02*
X9064283Y-14906997D01*
X8635711Y-14906997D02*
X8635711Y-14306997D01*
X8635711Y-14006997D02*
X8678568Y-14049854D01*
X8678568Y-14049854D02*
X8635711Y-14092711D01*
X8635711Y-14092711D02*
X8592854Y-14049854D01*
X8592854Y-14049854D02*
X8635711Y-14006997D01*
X8635711Y-14006997D02*
X8635711Y-14092711D01*
X7821426Y-14864140D02*
X7907140Y-14906997D01*
X7907140Y-14906997D02*
X8078568Y-14906997D01*
X8078568Y-14906997D02*
X8164283Y-14864140D01*
X8164283Y-14864140D02*
X8207140Y-14821282D01*
X8207140Y-14821282D02*
X8249997Y-14735568D01*
X8249997Y-14735568D02*
X8249997Y-14478425D01*
X8249997Y-14478425D02*
X8207140Y-14392711D01*
X8207140Y-14392711D02*
X8164283Y-14349854D01*
X8164283Y-14349854D02*
X8078568Y-14306997D01*
X8078568Y-14306997D02*
X7907140Y-14306997D01*
X7907140Y-14306997D02*
X7821426Y-14349854D01*
X7049997Y-14906997D02*
X7049997Y-14435568D01*
X7049997Y-14435568D02*
X7092854Y-14349854D01*
X7092854Y-14349854D02*
X7178568Y-14306997D01*
X7178568Y-14306997D02*
X7349997Y-14306997D01*
X7349997Y-14306997D02*
X7435711Y-14349854D01*
X7049997Y-14864140D02*
X7135711Y-14906997D01*
X7135711Y-14906997D02*
X7349997Y-14906997D01*
X7349997Y-14906997D02*
X7435711Y-14864140D01*
X7435711Y-14864140D02*
X7478568Y-14778425D01*
X7478568Y-14778425D02*
X7478568Y-14692711D01*
X7478568Y-14692711D02*
X7435711Y-14606997D01*
X7435711Y-14606997D02*
X7349997Y-14564140D01*
X7349997Y-14564140D02*
X7135711Y-14564140D01*
X7135711Y-14564140D02*
X7049997Y-14521282D01*
X5978568Y-14092711D02*
X5935711Y-14049854D01*
X5935711Y-14049854D02*
X5849997Y-14006997D01*
X5849997Y-14006997D02*
X5635711Y-14006997D01*
X5635711Y-14006997D02*
X5549997Y-14049854D01*
X5549997Y-14049854D02*
X5507139Y-14092711D01*
X5507139Y-14092711D02*
X5464282Y-14178425D01*
X5464282Y-14178425D02*
X5464282Y-14264140D01*
X5464282Y-14264140D02*
X5507139Y-14392711D01*
X5507139Y-14392711D02*
X6021425Y-14906997D01*
X6021425Y-14906997D02*
X5464282Y-14906997D01*
X4907139Y-14006997D02*
X4821425Y-14006997D01*
X4821425Y-14006997D02*
X4735711Y-14049854D01*
X4735711Y-14049854D02*
X4692854Y-14092711D01*
X4692854Y-14092711D02*
X4649996Y-14178425D01*
X4649996Y-14178425D02*
X4607139Y-14349854D01*
X4607139Y-14349854D02*
X4607139Y-14564140D01*
X4607139Y-14564140D02*
X4649996Y-14735568D01*
X4649996Y-14735568D02*
X4692854Y-14821282D01*
X4692854Y-14821282D02*
X4735711Y-14864140D01*
X4735711Y-14864140D02*
X4821425Y-14906997D01*
X4821425Y-14906997D02*
X4907139Y-14906997D01*
X4907139Y-14906997D02*
X4992854Y-14864140D01*
X4992854Y-14864140D02*
X5035711Y-14821282D01*
X5035711Y-14821282D02*
X5078568Y-14735568D01*
X5078568Y-14735568D02*
X5121425Y-14564140D01*
X5121425Y-14564140D02*
X5121425Y-14349854D01*
X5121425Y-14349854D02*
X5078568Y-14178425D01*
X5078568Y-14178425D02*
X5035711Y-14092711D01*
X5035711Y-14092711D02*
X4992854Y-14049854D01*
X4992854Y-14049854D02*
X4907139Y-14006997D01*
X3749996Y-14906997D02*
X4264282Y-14906997D01*
X4007139Y-14906997D02*
X4007139Y-14006997D01*
X4007139Y-14006997D02*
X4092853Y-14135568D01*
X4092853Y-14135568D02*
X4178568Y-14221282D01*
X4178568Y-14221282D02*
X4264282Y-14264140D01*
X3407139Y-14092711D02*
X3364282Y-14049854D01*
X3364282Y-14049854D02*
X3278568Y-14006997D01*
X3278568Y-14006997D02*
X3064282Y-14006997D01*
X3064282Y-14006997D02*
X2978568Y-14049854D01*
X2978568Y-14049854D02*
X2935710Y-14092711D01*
X2935710Y-14092711D02*
X2892853Y-14178425D01*
X2892853Y-14178425D02*
X2892853Y-14264140D01*
X2892853Y-14264140D02*
X2935710Y-14392711D01*
X2935710Y-14392711D02*
X3449996Y-14906997D01*
X3449996Y-14906997D02*
X2892853Y-14906997D01*
X45114285Y-33006997D02*
X45114285Y-33649854D01*
X45114285Y-33649854D02*
X45157142Y-33778425D01*
X45157142Y-33778425D02*
X45242856Y-33864140D01*
X45242856Y-33864140D02*
X45371428Y-33906997D01*
X45371428Y-33906997D02*
X45457142Y-33906997D01*
X44685714Y-33906997D02*
X44685714Y-33006997D01*
X44685714Y-33006997D02*
X44342857Y-33006997D01*
X44342857Y-33006997D02*
X44257142Y-33049854D01*
X44257142Y-33049854D02*
X44214285Y-33092711D01*
X44214285Y-33092711D02*
X44171428Y-33178425D01*
X44171428Y-33178425D02*
X44171428Y-33306997D01*
X44171428Y-33306997D02*
X44214285Y-33392711D01*
X44214285Y-33392711D02*
X44257142Y-33435568D01*
X44257142Y-33435568D02*
X44342857Y-33478425D01*
X44342857Y-33478425D02*
X44685714Y-33478425D01*
X43828571Y-33092711D02*
X43785714Y-33049854D01*
X43785714Y-33049854D02*
X43700000Y-33006997D01*
X43700000Y-33006997D02*
X43485714Y-33006997D01*
X43485714Y-33006997D02*
X43400000Y-33049854D01*
X43400000Y-33049854D02*
X43357142Y-33092711D01*
X43357142Y-33092711D02*
X43314285Y-33178425D01*
X43314285Y-33178425D02*
X43314285Y-33264140D01*
X43314285Y-33264140D02*
X43357142Y-33392711D01*
X43357142Y-33392711D02*
X43871428Y-33906997D01*
X43871428Y-33906997D02*
X43314285Y-33906997D01*
X41171429Y-33906997D02*
X41171429Y-33435568D01*
X41171429Y-33435568D02*
X41214286Y-33349854D01*
X41214286Y-33349854D02*
X41300000Y-33306997D01*
X41300000Y-33306997D02*
X41471429Y-33306997D01*
X41471429Y-33306997D02*
X41557143Y-33349854D01*
X41171429Y-33864140D02*
X41257143Y-33906997D01*
X41257143Y-33906997D02*
X41471429Y-33906997D01*
X41471429Y-33906997D02*
X41557143Y-33864140D01*
X41557143Y-33864140D02*
X41600000Y-33778425D01*
X41600000Y-33778425D02*
X41600000Y-33692711D01*
X41600000Y-33692711D02*
X41557143Y-33606997D01*
X41557143Y-33606997D02*
X41471429Y-33564140D01*
X41471429Y-33564140D02*
X41257143Y-33564140D01*
X41257143Y-33564140D02*
X41171429Y-33521282D01*
X40742857Y-33906997D02*
X40742857Y-33006997D01*
X40742857Y-33349854D02*
X40657143Y-33306997D01*
X40657143Y-33306997D02*
X40485714Y-33306997D01*
X40485714Y-33306997D02*
X40400000Y-33349854D01*
X40400000Y-33349854D02*
X40357143Y-33392711D01*
X40357143Y-33392711D02*
X40314285Y-33478425D01*
X40314285Y-33478425D02*
X40314285Y-33735568D01*
X40314285Y-33735568D02*
X40357143Y-33821282D01*
X40357143Y-33821282D02*
X40400000Y-33864140D01*
X40400000Y-33864140D02*
X40485714Y-33906997D01*
X40485714Y-33906997D02*
X40657143Y-33906997D01*
X40657143Y-33906997D02*
X40742857Y-33864140D01*
X39585714Y-33864140D02*
X39671428Y-33906997D01*
X39671428Y-33906997D02*
X39842857Y-33906997D01*
X39842857Y-33906997D02*
X39928571Y-33864140D01*
X39928571Y-33864140D02*
X39971428Y-33778425D01*
X39971428Y-33778425D02*
X39971428Y-33435568D01*
X39971428Y-33435568D02*
X39928571Y-33349854D01*
X39928571Y-33349854D02*
X39842857Y-33306997D01*
X39842857Y-33306997D02*
X39671428Y-33306997D01*
X39671428Y-33306997D02*
X39585714Y-33349854D01*
X39585714Y-33349854D02*
X39542857Y-33435568D01*
X39542857Y-33435568D02*
X39542857Y-33521282D01*
X39542857Y-33521282D02*
X39971428Y-33606997D01*
X39157142Y-33906997D02*
X39157142Y-33306997D01*
X39157142Y-33478425D02*
X39114285Y-33392711D01*
X39114285Y-33392711D02*
X39071428Y-33349854D01*
X39071428Y-33349854D02*
X38985713Y-33306997D01*
X38985713Y-33306997D02*
X38899999Y-33306997D01*
X38728570Y-33306997D02*
X38385713Y-33306997D01*
X38599999Y-33006997D02*
X38599999Y-33778425D01*
X38599999Y-33778425D02*
X38557142Y-33864140D01*
X38557142Y-33864140D02*
X38471427Y-33906997D01*
X38471427Y-33906997D02*
X38385713Y-33906997D01*
X37957141Y-33906997D02*
X38042856Y-33864140D01*
X38042856Y-33864140D02*
X38085713Y-33821282D01*
X38085713Y-33821282D02*
X38128570Y-33735568D01*
X38128570Y-33735568D02*
X38128570Y-33478425D01*
X38128570Y-33478425D02*
X38085713Y-33392711D01*
X38085713Y-33392711D02*
X38042856Y-33349854D01*
X38042856Y-33349854D02*
X37957141Y-33306997D01*
X37957141Y-33306997D02*
X37828570Y-33306997D01*
X37828570Y-33306997D02*
X37742856Y-33349854D01*
X37742856Y-33349854D02*
X37699999Y-33392711D01*
X37699999Y-33392711D02*
X37657141Y-33478425D01*
X37657141Y-33478425D02*
X37657141Y-33735568D01*
X37657141Y-33735568D02*
X37699999Y-33821282D01*
X37699999Y-33821282D02*
X37742856Y-33864140D01*
X37742856Y-33864140D02*
X37828570Y-33906997D01*
X37828570Y-33906997D02*
X37957141Y-33906997D01*
X36585713Y-33435568D02*
X35899999Y-33435568D01*
X35899999Y-33692711D02*
X36585713Y-33692711D01*
X34271427Y-33906997D02*
X34571427Y-33478425D01*
X34785713Y-33906997D02*
X34785713Y-33006997D01*
X34785713Y-33006997D02*
X34442856Y-33006997D01*
X34442856Y-33006997D02*
X34357141Y-33049854D01*
X34357141Y-33049854D02*
X34314284Y-33092711D01*
X34314284Y-33092711D02*
X34271427Y-33178425D01*
X34271427Y-33178425D02*
X34271427Y-33306997D01*
X34271427Y-33306997D02*
X34314284Y-33392711D01*
X34314284Y-33392711D02*
X34357141Y-33435568D01*
X34357141Y-33435568D02*
X34442856Y-33478425D01*
X34442856Y-33478425D02*
X34785713Y-33478425D01*
X33714284Y-33006997D02*
X33542856Y-33006997D01*
X33542856Y-33006997D02*
X33457141Y-33049854D01*
X33457141Y-33049854D02*
X33371427Y-33135568D01*
X33371427Y-33135568D02*
X33328570Y-33306997D01*
X33328570Y-33306997D02*
X33328570Y-33606997D01*
X33328570Y-33606997D02*
X33371427Y-33778425D01*
X33371427Y-33778425D02*
X33457141Y-33864140D01*
X33457141Y-33864140D02*
X33542856Y-33906997D01*
X33542856Y-33906997D02*
X33714284Y-33906997D01*
X33714284Y-33906997D02*
X33799999Y-33864140D01*
X33799999Y-33864140D02*
X33885713Y-33778425D01*
X33885713Y-33778425D02*
X33928570Y-33606997D01*
X33928570Y-33606997D02*
X33928570Y-33306997D01*
X33928570Y-33306997D02*
X33885713Y-33135568D01*
X33885713Y-33135568D02*
X33799999Y-33049854D01*
X33799999Y-33049854D02*
X33714284Y-33006997D01*
X32942856Y-33906997D02*
X32942856Y-33006997D01*
X32942856Y-33006997D02*
X32642856Y-33649854D01*
X32642856Y-33649854D02*
X32342856Y-33006997D01*
X32342856Y-33006997D02*
X32342856Y-33906997D01*
X30842857Y-33906997D02*
X30842857Y-33006997D01*
X30842857Y-33864140D02*
X30928571Y-33906997D01*
X30928571Y-33906997D02*
X31099999Y-33906997D01*
X31099999Y-33906997D02*
X31185714Y-33864140D01*
X31185714Y-33864140D02*
X31228571Y-33821282D01*
X31228571Y-33821282D02*
X31271428Y-33735568D01*
X31271428Y-33735568D02*
X31271428Y-33478425D01*
X31271428Y-33478425D02*
X31228571Y-33392711D01*
X31228571Y-33392711D02*
X31185714Y-33349854D01*
X31185714Y-33349854D02*
X31099999Y-33306997D01*
X31099999Y-33306997D02*
X30928571Y-33306997D01*
X30928571Y-33306997D02*
X30842857Y-33349854D01*
X30285713Y-33906997D02*
X30371428Y-33864140D01*
X30371428Y-33864140D02*
X30414285Y-33821282D01*
X30414285Y-33821282D02*
X30457142Y-33735568D01*
X30457142Y-33735568D02*
X30457142Y-33478425D01*
X30457142Y-33478425D02*
X30414285Y-33392711D01*
X30414285Y-33392711D02*
X30371428Y-33349854D01*
X30371428Y-33349854D02*
X30285713Y-33306997D01*
X30285713Y-33306997D02*
X30157142Y-33306997D01*
X30157142Y-33306997D02*
X30071428Y-33349854D01*
X30071428Y-33349854D02*
X30028571Y-33392711D01*
X30028571Y-33392711D02*
X29985713Y-33478425D01*
X29985713Y-33478425D02*
X29985713Y-33735568D01*
X29985713Y-33735568D02*
X30028571Y-33821282D01*
X30028571Y-33821282D02*
X30071428Y-33864140D01*
X30071428Y-33864140D02*
X30157142Y-33906997D01*
X30157142Y-33906997D02*
X30285713Y-33906997D01*
X29042856Y-33006997D02*
X28528571Y-33006997D01*
X28785713Y-33906997D02*
X28785713Y-33006997D01*
X28228571Y-33906997D02*
X28228571Y-33006997D01*
X27714285Y-33906997D02*
X28099999Y-33392711D01*
X27714285Y-33006997D02*
X28228571Y-33521282D01*
X25742857Y-34206997D02*
X25742857Y-32921282D01*
X23257143Y-33906997D02*
X23771429Y-33906997D01*
X23514286Y-33906997D02*
X23514286Y-33006997D01*
X23514286Y-33006997D02*
X23600000Y-33135568D01*
X23600000Y-33135568D02*
X23685715Y-33221282D01*
X23685715Y-33221282D02*
X23771429Y-33264140D01*
X22871429Y-33564140D02*
X22185715Y-33564140D01*
X21800000Y-33092711D02*
X21757143Y-33049854D01*
X21757143Y-33049854D02*
X21671429Y-33006997D01*
X21671429Y-33006997D02*
X21457143Y-33006997D01*
X21457143Y-33006997D02*
X21371429Y-33049854D01*
X21371429Y-33049854D02*
X21328571Y-33092711D01*
X21328571Y-33092711D02*
X21285714Y-33178425D01*
X21285714Y-33178425D02*
X21285714Y-33264140D01*
X21285714Y-33264140D02*
X21328571Y-33392711D01*
X21328571Y-33392711D02*
X21842857Y-33906997D01*
X21842857Y-33906997D02*
X21285714Y-33906997D01*
X20214286Y-33435568D02*
X19528572Y-33435568D01*
X19528572Y-33692711D02*
X20214286Y-33692711D01*
X18414286Y-33306997D02*
X18414286Y-34206997D01*
X18414286Y-33349854D02*
X18328572Y-33306997D01*
X18328572Y-33306997D02*
X18157143Y-33306997D01*
X18157143Y-33306997D02*
X18071429Y-33349854D01*
X18071429Y-33349854D02*
X18028572Y-33392711D01*
X18028572Y-33392711D02*
X17985714Y-33478425D01*
X17985714Y-33478425D02*
X17985714Y-33735568D01*
X17985714Y-33735568D02*
X18028572Y-33821282D01*
X18028572Y-33821282D02*
X18071429Y-33864140D01*
X18071429Y-33864140D02*
X18157143Y-33906997D01*
X18157143Y-33906997D02*
X18328572Y-33906997D01*
X18328572Y-33906997D02*
X18414286Y-33864140D01*
X17257143Y-33864140D02*
X17342857Y-33906997D01*
X17342857Y-33906997D02*
X17514286Y-33906997D01*
X17514286Y-33906997D02*
X17600000Y-33864140D01*
X17600000Y-33864140D02*
X17642857Y-33778425D01*
X17642857Y-33778425D02*
X17642857Y-33435568D01*
X17642857Y-33435568D02*
X17600000Y-33349854D01*
X17600000Y-33349854D02*
X17514286Y-33306997D01*
X17514286Y-33306997D02*
X17342857Y-33306997D01*
X17342857Y-33306997D02*
X17257143Y-33349854D01*
X17257143Y-33349854D02*
X17214286Y-33435568D01*
X17214286Y-33435568D02*
X17214286Y-33521282D01*
X17214286Y-33521282D02*
X17642857Y-33606997D01*
X16699999Y-33906997D02*
X16785714Y-33864140D01*
X16785714Y-33864140D02*
X16828571Y-33778425D01*
X16828571Y-33778425D02*
X16828571Y-33006997D01*
X16228570Y-33906997D02*
X16314285Y-33864140D01*
X16314285Y-33864140D02*
X16357142Y-33821282D01*
X16357142Y-33821282D02*
X16399999Y-33735568D01*
X16399999Y-33735568D02*
X16399999Y-33478425D01*
X16399999Y-33478425D02*
X16357142Y-33392711D01*
X16357142Y-33392711D02*
X16314285Y-33349854D01*
X16314285Y-33349854D02*
X16228570Y-33306997D01*
X16228570Y-33306997D02*
X16099999Y-33306997D01*
X16099999Y-33306997D02*
X16014285Y-33349854D01*
X16014285Y-33349854D02*
X15971428Y-33392711D01*
X15971428Y-33392711D02*
X15928570Y-33478425D01*
X15928570Y-33478425D02*
X15928570Y-33735568D01*
X15928570Y-33735568D02*
X15971428Y-33821282D01*
X15971428Y-33821282D02*
X16014285Y-33864140D01*
X16014285Y-33864140D02*
X16099999Y-33906997D01*
X16099999Y-33906997D02*
X16228570Y-33906997D01*
X14385713Y-33049854D02*
X14471428Y-33006997D01*
X14471428Y-33006997D02*
X14599999Y-33006997D01*
X14599999Y-33006997D02*
X14728570Y-33049854D01*
X14728570Y-33049854D02*
X14814285Y-33135568D01*
X14814285Y-33135568D02*
X14857142Y-33221282D01*
X14857142Y-33221282D02*
X14899999Y-33392711D01*
X14899999Y-33392711D02*
X14899999Y-33521282D01*
X14899999Y-33521282D02*
X14857142Y-33692711D01*
X14857142Y-33692711D02*
X14814285Y-33778425D01*
X14814285Y-33778425D02*
X14728570Y-33864140D01*
X14728570Y-33864140D02*
X14599999Y-33906997D01*
X14599999Y-33906997D02*
X14514285Y-33906997D01*
X14514285Y-33906997D02*
X14385713Y-33864140D01*
X14385713Y-33864140D02*
X14342856Y-33821282D01*
X14342856Y-33821282D02*
X14342856Y-33521282D01*
X14342856Y-33521282D02*
X14514285Y-33521282D01*
X13999999Y-33649854D02*
X13571428Y-33649854D01*
X14085713Y-33906997D02*
X13785713Y-33006997D01*
X13785713Y-33006997D02*
X13485713Y-33906997D01*
X12757141Y-33906997D02*
X13185713Y-33906997D01*
X13185713Y-33906997D02*
X13185713Y-33006997D01*
X10871428Y-34206997D02*
X10871428Y-32921282D01*
X8900000Y-33092711D02*
X8857143Y-33049854D01*
X8857143Y-33049854D02*
X8771429Y-33006997D01*
X8771429Y-33006997D02*
X8557143Y-33006997D01*
X8557143Y-33006997D02*
X8471429Y-33049854D01*
X8471429Y-33049854D02*
X8428571Y-33092711D01*
X8428571Y-33092711D02*
X8385714Y-33178425D01*
X8385714Y-33178425D02*
X8385714Y-33264140D01*
X8385714Y-33264140D02*
X8428571Y-33392711D01*
X8428571Y-33392711D02*
X8942857Y-33906997D01*
X8942857Y-33906997D02*
X8385714Y-33906997D01*
X8000000Y-33564140D02*
X7314286Y-33564140D01*
X6971428Y-33006997D02*
X6414285Y-33006997D01*
X6414285Y-33006997D02*
X6714285Y-33349854D01*
X6714285Y-33349854D02*
X6585714Y-33349854D01*
X6585714Y-33349854D02*
X6500000Y-33392711D01*
X6500000Y-33392711D02*
X6457142Y-33435568D01*
X6457142Y-33435568D02*
X6414285Y-33521282D01*
X6414285Y-33521282D02*
X6414285Y-33735568D01*
X6414285Y-33735568D02*
X6457142Y-33821282D01*
X6457142Y-33821282D02*
X6500000Y-33864140D01*
X6500000Y-33864140D02*
X6585714Y-33906997D01*
X6585714Y-33906997D02*
X6842857Y-33906997D01*
X6842857Y-33906997D02*
X6928571Y-33864140D01*
X6928571Y-33864140D02*
X6971428Y-33821282D01*
X5342857Y-33435568D02*
X4657143Y-33435568D01*
X4657143Y-33692711D02*
X5342857Y-33692711D01*
X3542857Y-33564140D02*
X2857143Y-33564140D01*
X3200000Y-33906997D02*
X3200000Y-33221282D01*
X1999999Y-33006997D02*
X2428571Y-33006997D01*
X2428571Y-33006997D02*
X2471428Y-33435568D01*
X2471428Y-33435568D02*
X2428571Y-33392711D01*
X2428571Y-33392711D02*
X2342857Y-33349854D01*
X2342857Y-33349854D02*
X2128571Y-33349854D01*
X2128571Y-33349854D02*
X2042857Y-33392711D01*
X2042857Y-33392711D02*
X1999999Y-33435568D01*
X1999999Y-33435568D02*
X1957142Y-33521282D01*
X1957142Y-33521282D02*
X1957142Y-33735568D01*
X1957142Y-33735568D02*
X1999999Y-33821282D01*
X1999999Y-33821282D02*
X2042857Y-33864140D01*
X2042857Y-33864140D02*
X2128571Y-33906997D01*
X2128571Y-33906997D02*
X2342857Y-33906997D01*
X2342857Y-33906997D02*
X2428571Y-33864140D01*
X2428571Y-33864140D02*
X2471428Y-33821282D01*
X1699999Y-33006997D02*
X1399999Y-33906997D01*
X1399999Y-33906997D02*
X1099999Y-33006997D01*
X48785715Y-58606997D02*
X49085715Y-58178425D01*
X49300001Y-58606997D02*
X49300001Y-57706997D01*
X49300001Y-57706997D02*
X48957144Y-57706997D01*
X48957144Y-57706997D02*
X48871429Y-57749854D01*
X48871429Y-57749854D02*
X48828572Y-57792711D01*
X48828572Y-57792711D02*
X48785715Y-57878425D01*
X48785715Y-57878425D02*
X48785715Y-58006997D01*
X48785715Y-58006997D02*
X48828572Y-58092711D01*
X48828572Y-58092711D02*
X48871429Y-58135568D01*
X48871429Y-58135568D02*
X48957144Y-58178425D01*
X48957144Y-58178425D02*
X49300001Y-58178425D01*
X48014287Y-58006997D02*
X48014287Y-58606997D01*
X48228572Y-57664140D02*
X48442858Y-58306997D01*
X48442858Y-58306997D02*
X47885715Y-58306997D01*
X47542858Y-58521282D02*
X47500001Y-58564140D01*
X47500001Y-58564140D02*
X47542858Y-58606997D01*
X47542858Y-58606997D02*
X47585715Y-58564140D01*
X47585715Y-58564140D02*
X47542858Y-58521282D01*
X47542858Y-58521282D02*
X47542858Y-58606997D01*
X47542858Y-58049854D02*
X47500001Y-58092711D01*
X47500001Y-58092711D02*
X47542858Y-58135568D01*
X47542858Y-58135568D02*
X47585715Y-58092711D01*
X47585715Y-58092711D02*
X47542858Y-58049854D01*
X47542858Y-58049854D02*
X47542858Y-58135568D01*
X46428573Y-58006997D02*
X46428573Y-58906997D01*
X46428573Y-58049854D02*
X46342859Y-58006997D01*
X46342859Y-58006997D02*
X46171430Y-58006997D01*
X46171430Y-58006997D02*
X46085716Y-58049854D01*
X46085716Y-58049854D02*
X46042859Y-58092711D01*
X46042859Y-58092711D02*
X46000001Y-58178425D01*
X46000001Y-58178425D02*
X46000001Y-58435568D01*
X46000001Y-58435568D02*
X46042859Y-58521282D01*
X46042859Y-58521282D02*
X46085716Y-58564140D01*
X46085716Y-58564140D02*
X46171430Y-58606997D01*
X46171430Y-58606997D02*
X46342859Y-58606997D01*
X46342859Y-58606997D02*
X46428573Y-58564140D01*
X45228573Y-58006997D02*
X45228573Y-58606997D01*
X45614287Y-58006997D02*
X45614287Y-58478425D01*
X45614287Y-58478425D02*
X45571430Y-58564140D01*
X45571430Y-58564140D02*
X45485715Y-58606997D01*
X45485715Y-58606997D02*
X45357144Y-58606997D01*
X45357144Y-58606997D02*
X45271430Y-58564140D01*
X45271430Y-58564140D02*
X45228573Y-58521282D01*
X44671429Y-58606997D02*
X44757144Y-58564140D01*
X44757144Y-58564140D02*
X44800001Y-58478425D01*
X44800001Y-58478425D02*
X44800001Y-57706997D01*
X44200000Y-58606997D02*
X44285715Y-58564140D01*
X44285715Y-58564140D02*
X44328572Y-58478425D01*
X44328572Y-58478425D02*
X44328572Y-57706997D01*
X43857143Y-58264140D02*
X43171429Y-58264140D01*
X42357143Y-58006997D02*
X42357143Y-58606997D01*
X42742857Y-58006997D02*
X42742857Y-58478425D01*
X42742857Y-58478425D02*
X42700000Y-58564140D01*
X42700000Y-58564140D02*
X42614285Y-58606997D01*
X42614285Y-58606997D02*
X42485714Y-58606997D01*
X42485714Y-58606997D02*
X42400000Y-58564140D01*
X42400000Y-58564140D02*
X42357143Y-58521282D01*
X41928571Y-58006997D02*
X41928571Y-58906997D01*
X41928571Y-58049854D02*
X41842857Y-58006997D01*
X41842857Y-58006997D02*
X41671428Y-58006997D01*
X41671428Y-58006997D02*
X41585714Y-58049854D01*
X41585714Y-58049854D02*
X41542857Y-58092711D01*
X41542857Y-58092711D02*
X41499999Y-58178425D01*
X41499999Y-58178425D02*
X41499999Y-58435568D01*
X41499999Y-58435568D02*
X41542857Y-58521282D01*
X41542857Y-58521282D02*
X41585714Y-58564140D01*
X41585714Y-58564140D02*
X41671428Y-58606997D01*
X41671428Y-58606997D02*
X41842857Y-58606997D01*
X41842857Y-58606997D02*
X41928571Y-58564140D01*
X40042857Y-58606997D02*
X40042857Y-57706997D01*
X40042857Y-58564140D02*
X40128571Y-58606997D01*
X40128571Y-58606997D02*
X40299999Y-58606997D01*
X40299999Y-58606997D02*
X40385714Y-58564140D01*
X40385714Y-58564140D02*
X40428571Y-58521282D01*
X40428571Y-58521282D02*
X40471428Y-58435568D01*
X40471428Y-58435568D02*
X40471428Y-58178425D01*
X40471428Y-58178425D02*
X40428571Y-58092711D01*
X40428571Y-58092711D02*
X40385714Y-58049854D01*
X40385714Y-58049854D02*
X40299999Y-58006997D01*
X40299999Y-58006997D02*
X40128571Y-58006997D01*
X40128571Y-58006997D02*
X40042857Y-58049854D01*
X39485713Y-58606997D02*
X39571428Y-58564140D01*
X39571428Y-58564140D02*
X39614285Y-58521282D01*
X39614285Y-58521282D02*
X39657142Y-58435568D01*
X39657142Y-58435568D02*
X39657142Y-58178425D01*
X39657142Y-58178425D02*
X39614285Y-58092711D01*
X39614285Y-58092711D02*
X39571428Y-58049854D01*
X39571428Y-58049854D02*
X39485713Y-58006997D01*
X39485713Y-58006997D02*
X39357142Y-58006997D01*
X39357142Y-58006997D02*
X39271428Y-58049854D01*
X39271428Y-58049854D02*
X39228571Y-58092711D01*
X39228571Y-58092711D02*
X39185713Y-58178425D01*
X39185713Y-58178425D02*
X39185713Y-58435568D01*
X39185713Y-58435568D02*
X39228571Y-58521282D01*
X39228571Y-58521282D02*
X39271428Y-58564140D01*
X39271428Y-58564140D02*
X39357142Y-58606997D01*
X39357142Y-58606997D02*
X39485713Y-58606997D01*
X38114285Y-58006997D02*
X38114285Y-58906997D01*
X38114285Y-58049854D02*
X38028571Y-58006997D01*
X38028571Y-58006997D02*
X37857142Y-58006997D01*
X37857142Y-58006997D02*
X37771428Y-58049854D01*
X37771428Y-58049854D02*
X37728571Y-58092711D01*
X37728571Y-58092711D02*
X37685713Y-58178425D01*
X37685713Y-58178425D02*
X37685713Y-58435568D01*
X37685713Y-58435568D02*
X37728571Y-58521282D01*
X37728571Y-58521282D02*
X37771428Y-58564140D01*
X37771428Y-58564140D02*
X37857142Y-58606997D01*
X37857142Y-58606997D02*
X38028571Y-58606997D01*
X38028571Y-58606997D02*
X38114285Y-58564140D01*
X37299999Y-58606997D02*
X37299999Y-58006997D01*
X37299999Y-57706997D02*
X37342856Y-57749854D01*
X37342856Y-57749854D02*
X37299999Y-57792711D01*
X37299999Y-57792711D02*
X37257142Y-57749854D01*
X37257142Y-57749854D02*
X37299999Y-57706997D01*
X37299999Y-57706997D02*
X37299999Y-57792711D01*
X36871428Y-58006997D02*
X36871428Y-58606997D01*
X36871428Y-58092711D02*
X36828571Y-58049854D01*
X36828571Y-58049854D02*
X36742856Y-58006997D01*
X36742856Y-58006997D02*
X36614285Y-58006997D01*
X36614285Y-58006997D02*
X36528571Y-58049854D01*
X36528571Y-58049854D02*
X36485714Y-58135568D01*
X36485714Y-58135568D02*
X36485714Y-58606997D01*
X35928570Y-58606997D02*
X36014285Y-58564140D01*
X36014285Y-58564140D02*
X36057142Y-58521282D01*
X36057142Y-58521282D02*
X36099999Y-58435568D01*
X36099999Y-58435568D02*
X36099999Y-58178425D01*
X36099999Y-58178425D02*
X36057142Y-58092711D01*
X36057142Y-58092711D02*
X36014285Y-58049854D01*
X36014285Y-58049854D02*
X35928570Y-58006997D01*
X35928570Y-58006997D02*
X35799999Y-58006997D01*
X35799999Y-58006997D02*
X35714285Y-58049854D01*
X35714285Y-58049854D02*
X35671428Y-58092711D01*
X35671428Y-58092711D02*
X35628570Y-58178425D01*
X35628570Y-58178425D02*
X35628570Y-58435568D01*
X35628570Y-58435568D02*
X35671428Y-58521282D01*
X35671428Y-58521282D02*
X35714285Y-58564140D01*
X35714285Y-58564140D02*
X35799999Y-58606997D01*
X35799999Y-58606997D02*
X35928570Y-58606997D01*
X34599999Y-57792711D02*
X34557142Y-57749854D01*
X34557142Y-57749854D02*
X34471428Y-57706997D01*
X34471428Y-57706997D02*
X34257142Y-57706997D01*
X34257142Y-57706997D02*
X34171428Y-57749854D01*
X34171428Y-57749854D02*
X34128570Y-57792711D01*
X34128570Y-57792711D02*
X34085713Y-57878425D01*
X34085713Y-57878425D02*
X34085713Y-57964140D01*
X34085713Y-57964140D02*
X34128570Y-58092711D01*
X34128570Y-58092711D02*
X34642856Y-58606997D01*
X34642856Y-58606997D02*
X34085713Y-58606997D01*
X33657142Y-58606997D02*
X33485713Y-58606997D01*
X33485713Y-58606997D02*
X33399999Y-58564140D01*
X33399999Y-58564140D02*
X33357142Y-58521282D01*
X33357142Y-58521282D02*
X33271427Y-58392711D01*
X33271427Y-58392711D02*
X33228570Y-58221282D01*
X33228570Y-58221282D02*
X33228570Y-57878425D01*
X33228570Y-57878425D02*
X33271427Y-57792711D01*
X33271427Y-57792711D02*
X33314285Y-57749854D01*
X33314285Y-57749854D02*
X33399999Y-57706997D01*
X33399999Y-57706997D02*
X33571427Y-57706997D01*
X33571427Y-57706997D02*
X33657142Y-57749854D01*
X33657142Y-57749854D02*
X33699999Y-57792711D01*
X33699999Y-57792711D02*
X33742856Y-57878425D01*
X33742856Y-57878425D02*
X33742856Y-58092711D01*
X33742856Y-58092711D02*
X33699999Y-58178425D01*
X33699999Y-58178425D02*
X33657142Y-58221282D01*
X33657142Y-58221282D02*
X33571427Y-58264140D01*
X33571427Y-58264140D02*
X33399999Y-58264140D01*
X33399999Y-58264140D02*
X33314285Y-58221282D01*
X33314285Y-58221282D02*
X33271427Y-58178425D01*
X33271427Y-58178425D02*
X33228570Y-58092711D01*
X31899999Y-58949854D02*
X31942856Y-58906997D01*
X31942856Y-58906997D02*
X32028570Y-58778425D01*
X32028570Y-58778425D02*
X32071428Y-58692711D01*
X32071428Y-58692711D02*
X32114285Y-58564140D01*
X32114285Y-58564140D02*
X32157142Y-58349854D01*
X32157142Y-58349854D02*
X32157142Y-58178425D01*
X32157142Y-58178425D02*
X32114285Y-57964140D01*
X32114285Y-57964140D02*
X32071428Y-57835568D01*
X32071428Y-57835568D02*
X32028570Y-57749854D01*
X32028570Y-57749854D02*
X31942856Y-57621282D01*
X31942856Y-57621282D02*
X31899999Y-57578425D01*
X31171428Y-58606997D02*
X31171428Y-58135568D01*
X31171428Y-58135568D02*
X31214285Y-58049854D01*
X31214285Y-58049854D02*
X31299999Y-58006997D01*
X31299999Y-58006997D02*
X31471428Y-58006997D01*
X31471428Y-58006997D02*
X31557142Y-58049854D01*
X31171428Y-58564140D02*
X31257142Y-58606997D01*
X31257142Y-58606997D02*
X31471428Y-58606997D01*
X31471428Y-58606997D02*
X31557142Y-58564140D01*
X31557142Y-58564140D02*
X31599999Y-58478425D01*
X31599999Y-58478425D02*
X31599999Y-58392711D01*
X31599999Y-58392711D02*
X31557142Y-58306997D01*
X31557142Y-58306997D02*
X31471428Y-58264140D01*
X31471428Y-58264140D02*
X31257142Y-58264140D01*
X31257142Y-58264140D02*
X31171428Y-58221282D01*
X30357142Y-58006997D02*
X30357142Y-58606997D01*
X30742856Y-58006997D02*
X30742856Y-58478425D01*
X30742856Y-58478425D02*
X30699999Y-58564140D01*
X30699999Y-58564140D02*
X30614284Y-58606997D01*
X30614284Y-58606997D02*
X30485713Y-58606997D01*
X30485713Y-58606997D02*
X30399999Y-58564140D01*
X30399999Y-58564140D02*
X30357142Y-58521282D01*
X30057141Y-58006997D02*
X29714284Y-58006997D01*
X29928570Y-57706997D02*
X29928570Y-58478425D01*
X29928570Y-58478425D02*
X29885713Y-58564140D01*
X29885713Y-58564140D02*
X29799998Y-58606997D01*
X29799998Y-58606997D02*
X29714284Y-58606997D01*
X29285712Y-58606997D02*
X29371427Y-58564140D01*
X29371427Y-58564140D02*
X29414284Y-58521282D01*
X29414284Y-58521282D02*
X29457141Y-58435568D01*
X29457141Y-58435568D02*
X29457141Y-58178425D01*
X29457141Y-58178425D02*
X29414284Y-58092711D01*
X29414284Y-58092711D02*
X29371427Y-58049854D01*
X29371427Y-58049854D02*
X29285712Y-58006997D01*
X29285712Y-58006997D02*
X29157141Y-58006997D01*
X29157141Y-58006997D02*
X29071427Y-58049854D01*
X29071427Y-58049854D02*
X29028570Y-58092711D01*
X29028570Y-58092711D02*
X28985712Y-58178425D01*
X28985712Y-58178425D02*
X28985712Y-58435568D01*
X28985712Y-58435568D02*
X29028570Y-58521282D01*
X29028570Y-58521282D02*
X29071427Y-58564140D01*
X29071427Y-58564140D02*
X29157141Y-58606997D01*
X29157141Y-58606997D02*
X29285712Y-58606997D01*
X28599998Y-58264140D02*
X27914284Y-58264140D01*
X27099998Y-58606997D02*
X27099998Y-57706997D01*
X27099998Y-58564140D02*
X27185712Y-58606997D01*
X27185712Y-58606997D02*
X27357140Y-58606997D01*
X27357140Y-58606997D02*
X27442855Y-58564140D01*
X27442855Y-58564140D02*
X27485712Y-58521282D01*
X27485712Y-58521282D02*
X27528569Y-58435568D01*
X27528569Y-58435568D02*
X27528569Y-58178425D01*
X27528569Y-58178425D02*
X27485712Y-58092711D01*
X27485712Y-58092711D02*
X27442855Y-58049854D01*
X27442855Y-58049854D02*
X27357140Y-58006997D01*
X27357140Y-58006997D02*
X27185712Y-58006997D01*
X27185712Y-58006997D02*
X27099998Y-58049854D01*
X26328569Y-58564140D02*
X26414283Y-58606997D01*
X26414283Y-58606997D02*
X26585712Y-58606997D01*
X26585712Y-58606997D02*
X26671426Y-58564140D01*
X26671426Y-58564140D02*
X26714283Y-58478425D01*
X26714283Y-58478425D02*
X26714283Y-58135568D01*
X26714283Y-58135568D02*
X26671426Y-58049854D01*
X26671426Y-58049854D02*
X26585712Y-58006997D01*
X26585712Y-58006997D02*
X26414283Y-58006997D01*
X26414283Y-58006997D02*
X26328569Y-58049854D01*
X26328569Y-58049854D02*
X26285712Y-58135568D01*
X26285712Y-58135568D02*
X26285712Y-58221282D01*
X26285712Y-58221282D02*
X26714283Y-58306997D01*
X25942854Y-58564140D02*
X25857140Y-58606997D01*
X25857140Y-58606997D02*
X25685711Y-58606997D01*
X25685711Y-58606997D02*
X25599997Y-58564140D01*
X25599997Y-58564140D02*
X25557140Y-58478425D01*
X25557140Y-58478425D02*
X25557140Y-58435568D01*
X25557140Y-58435568D02*
X25599997Y-58349854D01*
X25599997Y-58349854D02*
X25685711Y-58306997D01*
X25685711Y-58306997D02*
X25814283Y-58306997D01*
X25814283Y-58306997D02*
X25899997Y-58264140D01*
X25899997Y-58264140D02*
X25942854Y-58178425D01*
X25942854Y-58178425D02*
X25942854Y-58135568D01*
X25942854Y-58135568D02*
X25899997Y-58049854D01*
X25899997Y-58049854D02*
X25814283Y-58006997D01*
X25814283Y-58006997D02*
X25685711Y-58006997D01*
X25685711Y-58006997D02*
X25599997Y-58049854D01*
X24785712Y-58606997D02*
X24785712Y-58135568D01*
X24785712Y-58135568D02*
X24828569Y-58049854D01*
X24828569Y-58049854D02*
X24914283Y-58006997D01*
X24914283Y-58006997D02*
X25085712Y-58006997D01*
X25085712Y-58006997D02*
X25171426Y-58049854D01*
X24785712Y-58564140D02*
X24871426Y-58606997D01*
X24871426Y-58606997D02*
X25085712Y-58606997D01*
X25085712Y-58606997D02*
X25171426Y-58564140D01*
X25171426Y-58564140D02*
X25214283Y-58478425D01*
X25214283Y-58478425D02*
X25214283Y-58392711D01*
X25214283Y-58392711D02*
X25171426Y-58306997D01*
X25171426Y-58306997D02*
X25085712Y-58264140D01*
X25085712Y-58264140D02*
X24871426Y-58264140D01*
X24871426Y-58264140D02*
X24785712Y-58221282D01*
X24485711Y-58006997D02*
X24142854Y-58006997D01*
X24357140Y-57706997D02*
X24357140Y-58478425D01*
X24357140Y-58478425D02*
X24314283Y-58564140D01*
X24314283Y-58564140D02*
X24228568Y-58606997D01*
X24228568Y-58606997D02*
X24142854Y-58606997D01*
X23842854Y-58606997D02*
X23842854Y-58006997D01*
X23842854Y-57706997D02*
X23885711Y-57749854D01*
X23885711Y-57749854D02*
X23842854Y-57792711D01*
X23842854Y-57792711D02*
X23799997Y-57749854D01*
X23799997Y-57749854D02*
X23842854Y-57706997D01*
X23842854Y-57706997D02*
X23842854Y-57792711D01*
X23499997Y-58006997D02*
X23285711Y-58606997D01*
X23285711Y-58606997D02*
X23071426Y-58006997D01*
X22342855Y-58606997D02*
X22342855Y-58135568D01*
X22342855Y-58135568D02*
X22385712Y-58049854D01*
X22385712Y-58049854D02*
X22471426Y-58006997D01*
X22471426Y-58006997D02*
X22642855Y-58006997D01*
X22642855Y-58006997D02*
X22728569Y-58049854D01*
X22342855Y-58564140D02*
X22428569Y-58606997D01*
X22428569Y-58606997D02*
X22642855Y-58606997D01*
X22642855Y-58606997D02*
X22728569Y-58564140D01*
X22728569Y-58564140D02*
X22771426Y-58478425D01*
X22771426Y-58478425D02*
X22771426Y-58392711D01*
X22771426Y-58392711D02*
X22728569Y-58306997D01*
X22728569Y-58306997D02*
X22642855Y-58264140D01*
X22642855Y-58264140D02*
X22428569Y-58264140D01*
X22428569Y-58264140D02*
X22342855Y-58221282D01*
X20842855Y-58606997D02*
X20842855Y-58135568D01*
X20842855Y-58135568D02*
X20885712Y-58049854D01*
X20885712Y-58049854D02*
X20971426Y-58006997D01*
X20971426Y-58006997D02*
X21142855Y-58006997D01*
X21142855Y-58006997D02*
X21228569Y-58049854D01*
X20842855Y-58564140D02*
X20928569Y-58606997D01*
X20928569Y-58606997D02*
X21142855Y-58606997D01*
X21142855Y-58606997D02*
X21228569Y-58564140D01*
X21228569Y-58564140D02*
X21271426Y-58478425D01*
X21271426Y-58478425D02*
X21271426Y-58392711D01*
X21271426Y-58392711D02*
X21228569Y-58306997D01*
X21228569Y-58306997D02*
X21142855Y-58264140D01*
X21142855Y-58264140D02*
X20928569Y-58264140D01*
X20928569Y-58264140D02*
X20842855Y-58221282D01*
X19214283Y-58606997D02*
X19514283Y-58178425D01*
X19728569Y-58606997D02*
X19728569Y-57706997D01*
X19728569Y-57706997D02*
X19385712Y-57706997D01*
X19385712Y-57706997D02*
X19299997Y-57749854D01*
X19299997Y-57749854D02*
X19257140Y-57792711D01*
X19257140Y-57792711D02*
X19214283Y-57878425D01*
X19214283Y-57878425D02*
X19214283Y-58006997D01*
X19214283Y-58006997D02*
X19257140Y-58092711D01*
X19257140Y-58092711D02*
X19299997Y-58135568D01*
X19299997Y-58135568D02*
X19385712Y-58178425D01*
X19385712Y-58178425D02*
X19728569Y-58178425D01*
X18871426Y-58349854D02*
X18442855Y-58349854D01*
X18957140Y-58606997D02*
X18657140Y-57706997D01*
X18657140Y-57706997D02*
X18357140Y-58606997D01*
X18057140Y-58606997D02*
X18057140Y-57706997D01*
X18057140Y-57706997D02*
X17757140Y-58349854D01*
X17757140Y-58349854D02*
X17457140Y-57706997D01*
X17457140Y-57706997D02*
X17457140Y-58606997D01*
X15957141Y-58606997D02*
X15957141Y-57706997D01*
X15957141Y-58564140D02*
X16042855Y-58606997D01*
X16042855Y-58606997D02*
X16214283Y-58606997D01*
X16214283Y-58606997D02*
X16299998Y-58564140D01*
X16299998Y-58564140D02*
X16342855Y-58521282D01*
X16342855Y-58521282D02*
X16385712Y-58435568D01*
X16385712Y-58435568D02*
X16385712Y-58178425D01*
X16385712Y-58178425D02*
X16342855Y-58092711D01*
X16342855Y-58092711D02*
X16299998Y-58049854D01*
X16299998Y-58049854D02*
X16214283Y-58006997D01*
X16214283Y-58006997D02*
X16042855Y-58006997D01*
X16042855Y-58006997D02*
X15957141Y-58049854D01*
X15185712Y-58564140D02*
X15271426Y-58606997D01*
X15271426Y-58606997D02*
X15442855Y-58606997D01*
X15442855Y-58606997D02*
X15528569Y-58564140D01*
X15528569Y-58564140D02*
X15571426Y-58478425D01*
X15571426Y-58478425D02*
X15571426Y-58135568D01*
X15571426Y-58135568D02*
X15528569Y-58049854D01*
X15528569Y-58049854D02*
X15442855Y-58006997D01*
X15442855Y-58006997D02*
X15271426Y-58006997D01*
X15271426Y-58006997D02*
X15185712Y-58049854D01*
X15185712Y-58049854D02*
X15142855Y-58135568D01*
X15142855Y-58135568D02*
X15142855Y-58221282D01*
X15142855Y-58221282D02*
X15571426Y-58306997D01*
X14157140Y-57706997D02*
X13599997Y-57706997D01*
X13599997Y-57706997D02*
X13899997Y-58049854D01*
X13899997Y-58049854D02*
X13771426Y-58049854D01*
X13771426Y-58049854D02*
X13685712Y-58092711D01*
X13685712Y-58092711D02*
X13642854Y-58135568D01*
X13642854Y-58135568D02*
X13599997Y-58221282D01*
X13599997Y-58221282D02*
X13599997Y-58435568D01*
X13599997Y-58435568D02*
X13642854Y-58521282D01*
X13642854Y-58521282D02*
X13685712Y-58564140D01*
X13685712Y-58564140D02*
X13771426Y-58606997D01*
X13771426Y-58606997D02*
X14028569Y-58606997D01*
X14028569Y-58606997D02*
X14114283Y-58564140D01*
X14114283Y-58564140D02*
X14157140Y-58521282D01*
X13257140Y-57792711D02*
X13214283Y-57749854D01*
X13214283Y-57749854D02*
X13128569Y-57706997D01*
X13128569Y-57706997D02*
X12914283Y-57706997D01*
X12914283Y-57706997D02*
X12828569Y-57749854D01*
X12828569Y-57749854D02*
X12785711Y-57792711D01*
X12785711Y-57792711D02*
X12742854Y-57878425D01*
X12742854Y-57878425D02*
X12742854Y-57964140D01*
X12742854Y-57964140D02*
X12785711Y-58092711D01*
X12785711Y-58092711D02*
X13299997Y-58606997D01*
X13299997Y-58606997D02*
X12742854Y-58606997D01*
X12357140Y-58606997D02*
X12357140Y-57706997D01*
X11842854Y-58606997D02*
X12228568Y-58092711D01*
X11842854Y-57706997D02*
X12357140Y-58221282D01*
X10385712Y-58606997D02*
X10385712Y-57706997D01*
X10385712Y-58564140D02*
X10471426Y-58606997D01*
X10471426Y-58606997D02*
X10642854Y-58606997D01*
X10642854Y-58606997D02*
X10728569Y-58564140D01*
X10728569Y-58564140D02*
X10771426Y-58521282D01*
X10771426Y-58521282D02*
X10814283Y-58435568D01*
X10814283Y-58435568D02*
X10814283Y-58178425D01*
X10814283Y-58178425D02*
X10771426Y-58092711D01*
X10771426Y-58092711D02*
X10728569Y-58049854D01*
X10728569Y-58049854D02*
X10642854Y-58006997D01*
X10642854Y-58006997D02*
X10471426Y-58006997D01*
X10471426Y-58006997D02*
X10385712Y-58049854D01*
X9828568Y-58606997D02*
X9914283Y-58564140D01*
X9914283Y-58564140D02*
X9957140Y-58521282D01*
X9957140Y-58521282D02*
X9999997Y-58435568D01*
X9999997Y-58435568D02*
X9999997Y-58178425D01*
X9999997Y-58178425D02*
X9957140Y-58092711D01*
X9957140Y-58092711D02*
X9914283Y-58049854D01*
X9914283Y-58049854D02*
X9828568Y-58006997D01*
X9828568Y-58006997D02*
X9699997Y-58006997D01*
X9699997Y-58006997D02*
X9614283Y-58049854D01*
X9614283Y-58049854D02*
X9571426Y-58092711D01*
X9571426Y-58092711D02*
X9528568Y-58178425D01*
X9528568Y-58178425D02*
X9528568Y-58435568D01*
X9528568Y-58435568D02*
X9571426Y-58521282D01*
X9571426Y-58521282D02*
X9614283Y-58564140D01*
X9614283Y-58564140D02*
X9699997Y-58606997D01*
X9699997Y-58606997D02*
X9828568Y-58606997D01*
X8585711Y-57706997D02*
X8071426Y-57706997D01*
X8328568Y-58606997D02*
X8328568Y-57706997D01*
X7771426Y-58606997D02*
X7771426Y-57706997D01*
X7257140Y-58606997D02*
X7642854Y-58092711D01*
X7257140Y-57706997D02*
X7771426Y-58221282D01*
X6957140Y-58949854D02*
X6914283Y-58906997D01*
X6914283Y-58906997D02*
X6828569Y-58778425D01*
X6828569Y-58778425D02*
X6785712Y-58692711D01*
X6785712Y-58692711D02*
X6742854Y-58564140D01*
X6742854Y-58564140D02*
X6699997Y-58349854D01*
X6699997Y-58349854D02*
X6699997Y-58178425D01*
X6699997Y-58178425D02*
X6742854Y-57964140D01*
X6742854Y-57964140D02*
X6785712Y-57835568D01*
X6785712Y-57835568D02*
X6828569Y-57749854D01*
X6828569Y-57749854D02*
X6914283Y-57621282D01*
X6914283Y-57621282D02*
X6957140Y-57578425D01*
X45028569Y-31006997D02*
X45028569Y-31649854D01*
X45028569Y-31649854D02*
X45071426Y-31778425D01*
X45071426Y-31778425D02*
X45157140Y-31864140D01*
X45157140Y-31864140D02*
X45285712Y-31906997D01*
X45285712Y-31906997D02*
X45371426Y-31906997D01*
X44599998Y-31906997D02*
X44599998Y-31006997D01*
X44599998Y-31006997D02*
X44257141Y-31006997D01*
X44257141Y-31006997D02*
X44171426Y-31049854D01*
X44171426Y-31049854D02*
X44128569Y-31092711D01*
X44128569Y-31092711D02*
X44085712Y-31178425D01*
X44085712Y-31178425D02*
X44085712Y-31306997D01*
X44085712Y-31306997D02*
X44128569Y-31392711D01*
X44128569Y-31392711D02*
X44171426Y-31435568D01*
X44171426Y-31435568D02*
X44257141Y-31478425D01*
X44257141Y-31478425D02*
X44599998Y-31478425D01*
X43228569Y-31906997D02*
X43742855Y-31906997D01*
X43485712Y-31906997D02*
X43485712Y-31006997D01*
X43485712Y-31006997D02*
X43571426Y-31135568D01*
X43571426Y-31135568D02*
X43657141Y-31221282D01*
X43657141Y-31221282D02*
X43742855Y-31264140D01*
X40999998Y-31906997D02*
X41514284Y-31906997D01*
X41257141Y-31906997D02*
X41257141Y-31006997D01*
X41257141Y-31006997D02*
X41342855Y-31135568D01*
X41342855Y-31135568D02*
X41428570Y-31221282D01*
X41428570Y-31221282D02*
X41514284Y-31264140D01*
X40614284Y-31564140D02*
X39928570Y-31564140D01*
X39542855Y-31092711D02*
X39499998Y-31049854D01*
X39499998Y-31049854D02*
X39414284Y-31006997D01*
X39414284Y-31006997D02*
X39199998Y-31006997D01*
X39199998Y-31006997D02*
X39114284Y-31049854D01*
X39114284Y-31049854D02*
X39071426Y-31092711D01*
X39071426Y-31092711D02*
X39028569Y-31178425D01*
X39028569Y-31178425D02*
X39028569Y-31264140D01*
X39028569Y-31264140D02*
X39071426Y-31392711D01*
X39071426Y-31392711D02*
X39585712Y-31906997D01*
X39585712Y-31906997D02*
X39028569Y-31906997D01*
X37957141Y-31435568D02*
X37271427Y-31435568D01*
X37271427Y-31692711D02*
X37957141Y-31692711D01*
X35642855Y-31906997D02*
X35942855Y-31478425D01*
X36157141Y-31906997D02*
X36157141Y-31006997D01*
X36157141Y-31006997D02*
X35814284Y-31006997D01*
X35814284Y-31006997D02*
X35728569Y-31049854D01*
X35728569Y-31049854D02*
X35685712Y-31092711D01*
X35685712Y-31092711D02*
X35642855Y-31178425D01*
X35642855Y-31178425D02*
X35642855Y-31306997D01*
X35642855Y-31306997D02*
X35685712Y-31392711D01*
X35685712Y-31392711D02*
X35728569Y-31435568D01*
X35728569Y-31435568D02*
X35814284Y-31478425D01*
X35814284Y-31478425D02*
X36157141Y-31478425D01*
X35085712Y-31006997D02*
X34914284Y-31006997D01*
X34914284Y-31006997D02*
X34828569Y-31049854D01*
X34828569Y-31049854D02*
X34742855Y-31135568D01*
X34742855Y-31135568D02*
X34699998Y-31306997D01*
X34699998Y-31306997D02*
X34699998Y-31606997D01*
X34699998Y-31606997D02*
X34742855Y-31778425D01*
X34742855Y-31778425D02*
X34828569Y-31864140D01*
X34828569Y-31864140D02*
X34914284Y-31906997D01*
X34914284Y-31906997D02*
X35085712Y-31906997D01*
X35085712Y-31906997D02*
X35171427Y-31864140D01*
X35171427Y-31864140D02*
X35257141Y-31778425D01*
X35257141Y-31778425D02*
X35299998Y-31606997D01*
X35299998Y-31606997D02*
X35299998Y-31306997D01*
X35299998Y-31306997D02*
X35257141Y-31135568D01*
X35257141Y-31135568D02*
X35171427Y-31049854D01*
X35171427Y-31049854D02*
X35085712Y-31006997D01*
X34314284Y-31906997D02*
X34314284Y-31006997D01*
X34314284Y-31006997D02*
X34014284Y-31649854D01*
X34014284Y-31649854D02*
X33714284Y-31006997D01*
X33714284Y-31006997D02*
X33714284Y-31906997D01*
X32128570Y-31906997D02*
X32642856Y-31906997D01*
X32385713Y-31906997D02*
X32385713Y-31006997D01*
X32385713Y-31006997D02*
X32471427Y-31135568D01*
X32471427Y-31135568D02*
X32557142Y-31221282D01*
X32557142Y-31221282D02*
X32642856Y-31264140D01*
X31785713Y-31092711D02*
X31742856Y-31049854D01*
X31742856Y-31049854D02*
X31657142Y-31006997D01*
X31657142Y-31006997D02*
X31442856Y-31006997D01*
X31442856Y-31006997D02*
X31357142Y-31049854D01*
X31357142Y-31049854D02*
X31314284Y-31092711D01*
X31314284Y-31092711D02*
X31271427Y-31178425D01*
X31271427Y-31178425D02*
X31271427Y-31264140D01*
X31271427Y-31264140D02*
X31314284Y-31392711D01*
X31314284Y-31392711D02*
X31828570Y-31906997D01*
X31828570Y-31906997D02*
X31271427Y-31906997D01*
X30757141Y-31392711D02*
X30842856Y-31349854D01*
X30842856Y-31349854D02*
X30885713Y-31306997D01*
X30885713Y-31306997D02*
X30928570Y-31221282D01*
X30928570Y-31221282D02*
X30928570Y-31178425D01*
X30928570Y-31178425D02*
X30885713Y-31092711D01*
X30885713Y-31092711D02*
X30842856Y-31049854D01*
X30842856Y-31049854D02*
X30757141Y-31006997D01*
X30757141Y-31006997D02*
X30585713Y-31006997D01*
X30585713Y-31006997D02*
X30499999Y-31049854D01*
X30499999Y-31049854D02*
X30457141Y-31092711D01*
X30457141Y-31092711D02*
X30414284Y-31178425D01*
X30414284Y-31178425D02*
X30414284Y-31221282D01*
X30414284Y-31221282D02*
X30457141Y-31306997D01*
X30457141Y-31306997D02*
X30499999Y-31349854D01*
X30499999Y-31349854D02*
X30585713Y-31392711D01*
X30585713Y-31392711D02*
X30757141Y-31392711D01*
X30757141Y-31392711D02*
X30842856Y-31435568D01*
X30842856Y-31435568D02*
X30885713Y-31478425D01*
X30885713Y-31478425D02*
X30928570Y-31564140D01*
X30928570Y-31564140D02*
X30928570Y-31735568D01*
X30928570Y-31735568D02*
X30885713Y-31821282D01*
X30885713Y-31821282D02*
X30842856Y-31864140D01*
X30842856Y-31864140D02*
X30757141Y-31906997D01*
X30757141Y-31906997D02*
X30585713Y-31906997D01*
X30585713Y-31906997D02*
X30499999Y-31864140D01*
X30499999Y-31864140D02*
X30457141Y-31821282D01*
X30457141Y-31821282D02*
X30414284Y-31735568D01*
X30414284Y-31735568D02*
X30414284Y-31564140D01*
X30414284Y-31564140D02*
X30457141Y-31478425D01*
X30457141Y-31478425D02*
X30499999Y-31435568D01*
X30499999Y-31435568D02*
X30585713Y-31392711D01*
X27757142Y-32206997D02*
X27757142Y-30921282D01*
X25100000Y-31092711D02*
X25057143Y-31049854D01*
X25057143Y-31049854D02*
X24971429Y-31006997D01*
X24971429Y-31006997D02*
X24757143Y-31006997D01*
X24757143Y-31006997D02*
X24671429Y-31049854D01*
X24671429Y-31049854D02*
X24628571Y-31092711D01*
X24628571Y-31092711D02*
X24585714Y-31178425D01*
X24585714Y-31178425D02*
X24585714Y-31264140D01*
X24585714Y-31264140D02*
X24628571Y-31392711D01*
X24628571Y-31392711D02*
X25142857Y-31906997D01*
X25142857Y-31906997D02*
X24585714Y-31906997D01*
X24200000Y-31564140D02*
X23514286Y-31564140D01*
X23171428Y-31006997D02*
X22614285Y-31006997D01*
X22614285Y-31006997D02*
X22914285Y-31349854D01*
X22914285Y-31349854D02*
X22785714Y-31349854D01*
X22785714Y-31349854D02*
X22700000Y-31392711D01*
X22700000Y-31392711D02*
X22657142Y-31435568D01*
X22657142Y-31435568D02*
X22614285Y-31521282D01*
X22614285Y-31521282D02*
X22614285Y-31735568D01*
X22614285Y-31735568D02*
X22657142Y-31821282D01*
X22657142Y-31821282D02*
X22700000Y-31864140D01*
X22700000Y-31864140D02*
X22785714Y-31906997D01*
X22785714Y-31906997D02*
X23042857Y-31906997D01*
X23042857Y-31906997D02*
X23128571Y-31864140D01*
X23128571Y-31864140D02*
X23171428Y-31821282D01*
X21542857Y-31435568D02*
X20857143Y-31435568D01*
X20857143Y-31692711D02*
X21542857Y-31692711D01*
X19228571Y-31906997D02*
X19528571Y-31478425D01*
X19742857Y-31906997D02*
X19742857Y-31006997D01*
X19742857Y-31006997D02*
X19400000Y-31006997D01*
X19400000Y-31006997D02*
X19314285Y-31049854D01*
X19314285Y-31049854D02*
X19271428Y-31092711D01*
X19271428Y-31092711D02*
X19228571Y-31178425D01*
X19228571Y-31178425D02*
X19228571Y-31306997D01*
X19228571Y-31306997D02*
X19271428Y-31392711D01*
X19271428Y-31392711D02*
X19314285Y-31435568D01*
X19314285Y-31435568D02*
X19400000Y-31478425D01*
X19400000Y-31478425D02*
X19742857Y-31478425D01*
X18671428Y-31006997D02*
X18500000Y-31006997D01*
X18500000Y-31006997D02*
X18414285Y-31049854D01*
X18414285Y-31049854D02*
X18328571Y-31135568D01*
X18328571Y-31135568D02*
X18285714Y-31306997D01*
X18285714Y-31306997D02*
X18285714Y-31606997D01*
X18285714Y-31606997D02*
X18328571Y-31778425D01*
X18328571Y-31778425D02*
X18414285Y-31864140D01*
X18414285Y-31864140D02*
X18500000Y-31906997D01*
X18500000Y-31906997D02*
X18671428Y-31906997D01*
X18671428Y-31906997D02*
X18757143Y-31864140D01*
X18757143Y-31864140D02*
X18842857Y-31778425D01*
X18842857Y-31778425D02*
X18885714Y-31606997D01*
X18885714Y-31606997D02*
X18885714Y-31306997D01*
X18885714Y-31306997D02*
X18842857Y-31135568D01*
X18842857Y-31135568D02*
X18757143Y-31049854D01*
X18757143Y-31049854D02*
X18671428Y-31006997D01*
X17900000Y-31906997D02*
X17900000Y-31006997D01*
X17900000Y-31006997D02*
X17600000Y-31649854D01*
X17600000Y-31649854D02*
X17300000Y-31006997D01*
X17300000Y-31006997D02*
X17300000Y-31906997D01*
X15800001Y-31906997D02*
X15800001Y-31006997D01*
X15800001Y-31864140D02*
X15885715Y-31906997D01*
X15885715Y-31906997D02*
X16057143Y-31906997D01*
X16057143Y-31906997D02*
X16142858Y-31864140D01*
X16142858Y-31864140D02*
X16185715Y-31821282D01*
X16185715Y-31821282D02*
X16228572Y-31735568D01*
X16228572Y-31735568D02*
X16228572Y-31478425D01*
X16228572Y-31478425D02*
X16185715Y-31392711D01*
X16185715Y-31392711D02*
X16142858Y-31349854D01*
X16142858Y-31349854D02*
X16057143Y-31306997D01*
X16057143Y-31306997D02*
X15885715Y-31306997D01*
X15885715Y-31306997D02*
X15800001Y-31349854D01*
X15242857Y-31906997D02*
X15328572Y-31864140D01*
X15328572Y-31864140D02*
X15371429Y-31821282D01*
X15371429Y-31821282D02*
X15414286Y-31735568D01*
X15414286Y-31735568D02*
X15414286Y-31478425D01*
X15414286Y-31478425D02*
X15371429Y-31392711D01*
X15371429Y-31392711D02*
X15328572Y-31349854D01*
X15328572Y-31349854D02*
X15242857Y-31306997D01*
X15242857Y-31306997D02*
X15114286Y-31306997D01*
X15114286Y-31306997D02*
X15028572Y-31349854D01*
X15028572Y-31349854D02*
X14985715Y-31392711D01*
X14985715Y-31392711D02*
X14942857Y-31478425D01*
X14942857Y-31478425D02*
X14942857Y-31735568D01*
X14942857Y-31735568D02*
X14985715Y-31821282D01*
X14985715Y-31821282D02*
X15028572Y-31864140D01*
X15028572Y-31864140D02*
X15114286Y-31906997D01*
X15114286Y-31906997D02*
X15242857Y-31906997D01*
X14000000Y-31006997D02*
X13485715Y-31006997D01*
X13742857Y-31906997D02*
X13742857Y-31006997D01*
X13185715Y-31906997D02*
X13185715Y-31006997D01*
X12671429Y-31906997D02*
X13057143Y-31392711D01*
X12671429Y-31006997D02*
X13185715Y-31521282D01*
X45221429Y-35006997D02*
X45221429Y-35649854D01*
X45221429Y-35649854D02*
X45264286Y-35778425D01*
X45264286Y-35778425D02*
X45350000Y-35864140D01*
X45350000Y-35864140D02*
X45478572Y-35906997D01*
X45478572Y-35906997D02*
X45564286Y-35906997D01*
X44792858Y-35906997D02*
X44792858Y-35006997D01*
X44792858Y-35006997D02*
X44450001Y-35006997D01*
X44450001Y-35006997D02*
X44364286Y-35049854D01*
X44364286Y-35049854D02*
X44321429Y-35092711D01*
X44321429Y-35092711D02*
X44278572Y-35178425D01*
X44278572Y-35178425D02*
X44278572Y-35306997D01*
X44278572Y-35306997D02*
X44321429Y-35392711D01*
X44321429Y-35392711D02*
X44364286Y-35435568D01*
X44364286Y-35435568D02*
X44450001Y-35478425D01*
X44450001Y-35478425D02*
X44792858Y-35478425D01*
X43978572Y-35006997D02*
X43421429Y-35006997D01*
X43421429Y-35006997D02*
X43721429Y-35349854D01*
X43721429Y-35349854D02*
X43592858Y-35349854D01*
X43592858Y-35349854D02*
X43507144Y-35392711D01*
X43507144Y-35392711D02*
X43464286Y-35435568D01*
X43464286Y-35435568D02*
X43421429Y-35521282D01*
X43421429Y-35521282D02*
X43421429Y-35735568D01*
X43421429Y-35735568D02*
X43464286Y-35821282D01*
X43464286Y-35821282D02*
X43507144Y-35864140D01*
X43507144Y-35864140D02*
X43592858Y-35906997D01*
X43592858Y-35906997D02*
X43850001Y-35906997D01*
X43850001Y-35906997D02*
X43935715Y-35864140D01*
X43935715Y-35864140D02*
X43978572Y-35821282D01*
X41792858Y-35306997D02*
X41450001Y-35306997D01*
X41664287Y-35906997D02*
X41664287Y-35135568D01*
X41664287Y-35135568D02*
X41621430Y-35049854D01*
X41621430Y-35049854D02*
X41535715Y-35006997D01*
X41535715Y-35006997D02*
X41450001Y-35006997D01*
X40807144Y-35864140D02*
X40892858Y-35906997D01*
X40892858Y-35906997D02*
X41064287Y-35906997D01*
X41064287Y-35906997D02*
X41150001Y-35864140D01*
X41150001Y-35864140D02*
X41192858Y-35778425D01*
X41192858Y-35778425D02*
X41192858Y-35435568D01*
X41192858Y-35435568D02*
X41150001Y-35349854D01*
X41150001Y-35349854D02*
X41064287Y-35306997D01*
X41064287Y-35306997D02*
X40892858Y-35306997D01*
X40892858Y-35306997D02*
X40807144Y-35349854D01*
X40807144Y-35349854D02*
X40764287Y-35435568D01*
X40764287Y-35435568D02*
X40764287Y-35521282D01*
X40764287Y-35521282D02*
X41192858Y-35606997D01*
X39992858Y-35864140D02*
X40078572Y-35906997D01*
X40078572Y-35906997D02*
X40250000Y-35906997D01*
X40250000Y-35906997D02*
X40335715Y-35864140D01*
X40335715Y-35864140D02*
X40378572Y-35821282D01*
X40378572Y-35821282D02*
X40421429Y-35735568D01*
X40421429Y-35735568D02*
X40421429Y-35478425D01*
X40421429Y-35478425D02*
X40378572Y-35392711D01*
X40378572Y-35392711D02*
X40335715Y-35349854D01*
X40335715Y-35349854D02*
X40250000Y-35306997D01*
X40250000Y-35306997D02*
X40078572Y-35306997D01*
X40078572Y-35306997D02*
X39992858Y-35349854D01*
X39607143Y-35906997D02*
X39607143Y-35006997D01*
X39221429Y-35906997D02*
X39221429Y-35435568D01*
X39221429Y-35435568D02*
X39264286Y-35349854D01*
X39264286Y-35349854D02*
X39350000Y-35306997D01*
X39350000Y-35306997D02*
X39478571Y-35306997D01*
X39478571Y-35306997D02*
X39564286Y-35349854D01*
X39564286Y-35349854D02*
X39607143Y-35392711D01*
X38407143Y-35906997D02*
X38407143Y-35435568D01*
X38407143Y-35435568D02*
X38450000Y-35349854D01*
X38450000Y-35349854D02*
X38535714Y-35306997D01*
X38535714Y-35306997D02*
X38707143Y-35306997D01*
X38707143Y-35306997D02*
X38792857Y-35349854D01*
X38407143Y-35864140D02*
X38492857Y-35906997D01*
X38492857Y-35906997D02*
X38707143Y-35906997D01*
X38707143Y-35906997D02*
X38792857Y-35864140D01*
X38792857Y-35864140D02*
X38835714Y-35778425D01*
X38835714Y-35778425D02*
X38835714Y-35692711D01*
X38835714Y-35692711D02*
X38792857Y-35606997D01*
X38792857Y-35606997D02*
X38707143Y-35564140D01*
X38707143Y-35564140D02*
X38492857Y-35564140D01*
X38492857Y-35564140D02*
X38407143Y-35521282D01*
X37592857Y-35906997D02*
X37592857Y-35006997D01*
X37592857Y-35864140D02*
X37678571Y-35906997D01*
X37678571Y-35906997D02*
X37849999Y-35906997D01*
X37849999Y-35906997D02*
X37935714Y-35864140D01*
X37935714Y-35864140D02*
X37978571Y-35821282D01*
X37978571Y-35821282D02*
X38021428Y-35735568D01*
X38021428Y-35735568D02*
X38021428Y-35478425D01*
X38021428Y-35478425D02*
X37978571Y-35392711D01*
X37978571Y-35392711D02*
X37935714Y-35349854D01*
X37935714Y-35349854D02*
X37849999Y-35306997D01*
X37849999Y-35306997D02*
X37678571Y-35306997D01*
X37678571Y-35306997D02*
X37592857Y-35349854D01*
X37035713Y-35906997D02*
X37121428Y-35864140D01*
X37121428Y-35864140D02*
X37164285Y-35821282D01*
X37164285Y-35821282D02*
X37207142Y-35735568D01*
X37207142Y-35735568D02*
X37207142Y-35478425D01*
X37207142Y-35478425D02*
X37164285Y-35392711D01*
X37164285Y-35392711D02*
X37121428Y-35349854D01*
X37121428Y-35349854D02*
X37035713Y-35306997D01*
X37035713Y-35306997D02*
X36907142Y-35306997D01*
X36907142Y-35306997D02*
X36821428Y-35349854D01*
X36821428Y-35349854D02*
X36778571Y-35392711D01*
X36778571Y-35392711D02*
X36735713Y-35478425D01*
X36735713Y-35478425D02*
X36735713Y-35735568D01*
X36735713Y-35735568D02*
X36778571Y-35821282D01*
X36778571Y-35821282D02*
X36821428Y-35864140D01*
X36821428Y-35864140D02*
X36907142Y-35906997D01*
X36907142Y-35906997D02*
X37035713Y-35906997D01*
X35664285Y-35435568D02*
X34978571Y-35435568D01*
X34978571Y-35692711D02*
X35664285Y-35692711D01*
X33435713Y-35006997D02*
X33864285Y-35006997D01*
X33864285Y-35006997D02*
X33907142Y-35435568D01*
X33907142Y-35435568D02*
X33864285Y-35392711D01*
X33864285Y-35392711D02*
X33778571Y-35349854D01*
X33778571Y-35349854D02*
X33564285Y-35349854D01*
X33564285Y-35349854D02*
X33478571Y-35392711D01*
X33478571Y-35392711D02*
X33435713Y-35435568D01*
X33435713Y-35435568D02*
X33392856Y-35521282D01*
X33392856Y-35521282D02*
X33392856Y-35735568D01*
X33392856Y-35735568D02*
X33435713Y-35821282D01*
X33435713Y-35821282D02*
X33478571Y-35864140D01*
X33478571Y-35864140D02*
X33564285Y-35906997D01*
X33564285Y-35906997D02*
X33778571Y-35906997D01*
X33778571Y-35906997D02*
X33864285Y-35864140D01*
X33864285Y-35864140D02*
X33907142Y-35821282D01*
X32535713Y-35906997D02*
X33049999Y-35906997D01*
X32792856Y-35906997D02*
X32792856Y-35006997D01*
X32792856Y-35006997D02*
X32878570Y-35135568D01*
X32878570Y-35135568D02*
X32964285Y-35221282D01*
X32964285Y-35221282D02*
X33049999Y-35264140D01*
X32192856Y-35092711D02*
X32149999Y-35049854D01*
X32149999Y-35049854D02*
X32064285Y-35006997D01*
X32064285Y-35006997D02*
X31849999Y-35006997D01*
X31849999Y-35006997D02*
X31764285Y-35049854D01*
X31764285Y-35049854D02*
X31721427Y-35092711D01*
X31721427Y-35092711D02*
X31678570Y-35178425D01*
X31678570Y-35178425D02*
X31678570Y-35264140D01*
X31678570Y-35264140D02*
X31721427Y-35392711D01*
X31721427Y-35392711D02*
X32235713Y-35906997D01*
X32235713Y-35906997D02*
X31678570Y-35906997D01*
X31292856Y-35906997D02*
X31292856Y-35006997D01*
X30778570Y-35906997D02*
X31164284Y-35392711D01*
X30778570Y-35006997D02*
X31292856Y-35521282D01*
X29449999Y-36249854D02*
X29492856Y-36206997D01*
X29492856Y-36206997D02*
X29578570Y-36078425D01*
X29578570Y-36078425D02*
X29621428Y-35992711D01*
X29621428Y-35992711D02*
X29664285Y-35864140D01*
X29664285Y-35864140D02*
X29707142Y-35649854D01*
X29707142Y-35649854D02*
X29707142Y-35478425D01*
X29707142Y-35478425D02*
X29664285Y-35264140D01*
X29664285Y-35264140D02*
X29621428Y-35135568D01*
X29621428Y-35135568D02*
X29578570Y-35049854D01*
X29578570Y-35049854D02*
X29492856Y-34921282D01*
X29492856Y-34921282D02*
X29449999Y-34878425D01*
X29149999Y-35649854D02*
X28721428Y-35649854D01*
X29235713Y-35906997D02*
X28935713Y-35006997D01*
X28935713Y-35006997D02*
X28635713Y-35906997D01*
X28378570Y-35864140D02*
X28249999Y-35906997D01*
X28249999Y-35906997D02*
X28035713Y-35906997D01*
X28035713Y-35906997D02*
X27949999Y-35864140D01*
X27949999Y-35864140D02*
X27907141Y-35821282D01*
X27907141Y-35821282D02*
X27864284Y-35735568D01*
X27864284Y-35735568D02*
X27864284Y-35649854D01*
X27864284Y-35649854D02*
X27907141Y-35564140D01*
X27907141Y-35564140D02*
X27949999Y-35521282D01*
X27949999Y-35521282D02*
X28035713Y-35478425D01*
X28035713Y-35478425D02*
X28207141Y-35435568D01*
X28207141Y-35435568D02*
X28292856Y-35392711D01*
X28292856Y-35392711D02*
X28335713Y-35349854D01*
X28335713Y-35349854D02*
X28378570Y-35264140D01*
X28378570Y-35264140D02*
X28378570Y-35178425D01*
X28378570Y-35178425D02*
X28335713Y-35092711D01*
X28335713Y-35092711D02*
X28292856Y-35049854D01*
X28292856Y-35049854D02*
X28207141Y-35006997D01*
X28207141Y-35006997D02*
X27992856Y-35006997D01*
X27992856Y-35006997D02*
X27864284Y-35049854D01*
X27092856Y-35006997D02*
X27264284Y-35006997D01*
X27264284Y-35006997D02*
X27349998Y-35049854D01*
X27349998Y-35049854D02*
X27392856Y-35092711D01*
X27392856Y-35092711D02*
X27478570Y-35221282D01*
X27478570Y-35221282D02*
X27521427Y-35392711D01*
X27521427Y-35392711D02*
X27521427Y-35735568D01*
X27521427Y-35735568D02*
X27478570Y-35821282D01*
X27478570Y-35821282D02*
X27435713Y-35864140D01*
X27435713Y-35864140D02*
X27349998Y-35906997D01*
X27349998Y-35906997D02*
X27178570Y-35906997D01*
X27178570Y-35906997D02*
X27092856Y-35864140D01*
X27092856Y-35864140D02*
X27049998Y-35821282D01*
X27049998Y-35821282D02*
X27007141Y-35735568D01*
X27007141Y-35735568D02*
X27007141Y-35521282D01*
X27007141Y-35521282D02*
X27049998Y-35435568D01*
X27049998Y-35435568D02*
X27092856Y-35392711D01*
X27092856Y-35392711D02*
X27178570Y-35349854D01*
X27178570Y-35349854D02*
X27349998Y-35349854D01*
X27349998Y-35349854D02*
X27435713Y-35392711D01*
X27435713Y-35392711D02*
X27478570Y-35435568D01*
X27478570Y-35435568D02*
X27521427Y-35521282D01*
X26107141Y-35821282D02*
X26149998Y-35864140D01*
X26149998Y-35864140D02*
X26278570Y-35906997D01*
X26278570Y-35906997D02*
X26364284Y-35906997D01*
X26364284Y-35906997D02*
X26492855Y-35864140D01*
X26492855Y-35864140D02*
X26578570Y-35778425D01*
X26578570Y-35778425D02*
X26621427Y-35692711D01*
X26621427Y-35692711D02*
X26664284Y-35521282D01*
X26664284Y-35521282D02*
X26664284Y-35392711D01*
X26664284Y-35392711D02*
X26621427Y-35221282D01*
X26621427Y-35221282D02*
X26578570Y-35135568D01*
X26578570Y-35135568D02*
X26492855Y-35049854D01*
X26492855Y-35049854D02*
X26364284Y-35006997D01*
X26364284Y-35006997D02*
X26278570Y-35006997D01*
X26278570Y-35006997D02*
X26149998Y-35049854D01*
X26149998Y-35049854D02*
X26107141Y-35092711D01*
X25335713Y-35306997D02*
X25335713Y-35906997D01*
X25549998Y-34964140D02*
X25764284Y-35606997D01*
X25764284Y-35606997D02*
X25207141Y-35606997D01*
X24692855Y-35006997D02*
X24607141Y-35006997D01*
X24607141Y-35006997D02*
X24521427Y-35049854D01*
X24521427Y-35049854D02*
X24478570Y-35092711D01*
X24478570Y-35092711D02*
X24435712Y-35178425D01*
X24435712Y-35178425D02*
X24392855Y-35349854D01*
X24392855Y-35349854D02*
X24392855Y-35564140D01*
X24392855Y-35564140D02*
X24435712Y-35735568D01*
X24435712Y-35735568D02*
X24478570Y-35821282D01*
X24478570Y-35821282D02*
X24521427Y-35864140D01*
X24521427Y-35864140D02*
X24607141Y-35906997D01*
X24607141Y-35906997D02*
X24692855Y-35906997D01*
X24692855Y-35906997D02*
X24778570Y-35864140D01*
X24778570Y-35864140D02*
X24821427Y-35821282D01*
X24821427Y-35821282D02*
X24864284Y-35735568D01*
X24864284Y-35735568D02*
X24907141Y-35564140D01*
X24907141Y-35564140D02*
X24907141Y-35349854D01*
X24907141Y-35349854D02*
X24864284Y-35178425D01*
X24864284Y-35178425D02*
X24821427Y-35092711D01*
X24821427Y-35092711D02*
X24778570Y-35049854D01*
X24778570Y-35049854D02*
X24692855Y-35006997D01*
X23835712Y-35006997D02*
X23749998Y-35006997D01*
X23749998Y-35006997D02*
X23664284Y-35049854D01*
X23664284Y-35049854D02*
X23621427Y-35092711D01*
X23621427Y-35092711D02*
X23578569Y-35178425D01*
X23578569Y-35178425D02*
X23535712Y-35349854D01*
X23535712Y-35349854D02*
X23535712Y-35564140D01*
X23535712Y-35564140D02*
X23578569Y-35735568D01*
X23578569Y-35735568D02*
X23621427Y-35821282D01*
X23621427Y-35821282D02*
X23664284Y-35864140D01*
X23664284Y-35864140D02*
X23749998Y-35906997D01*
X23749998Y-35906997D02*
X23835712Y-35906997D01*
X23835712Y-35906997D02*
X23921427Y-35864140D01*
X23921427Y-35864140D02*
X23964284Y-35821282D01*
X23964284Y-35821282D02*
X24007141Y-35735568D01*
X24007141Y-35735568D02*
X24049998Y-35564140D01*
X24049998Y-35564140D02*
X24049998Y-35349854D01*
X24049998Y-35349854D02*
X24007141Y-35178425D01*
X24007141Y-35178425D02*
X23964284Y-35092711D01*
X23964284Y-35092711D02*
X23921427Y-35049854D01*
X23921427Y-35049854D02*
X23835712Y-35006997D01*
X23021426Y-35392711D02*
X23107141Y-35349854D01*
X23107141Y-35349854D02*
X23149998Y-35306997D01*
X23149998Y-35306997D02*
X23192855Y-35221282D01*
X23192855Y-35221282D02*
X23192855Y-35178425D01*
X23192855Y-35178425D02*
X23149998Y-35092711D01*
X23149998Y-35092711D02*
X23107141Y-35049854D01*
X23107141Y-35049854D02*
X23021426Y-35006997D01*
X23021426Y-35006997D02*
X22849998Y-35006997D01*
X22849998Y-35006997D02*
X22764284Y-35049854D01*
X22764284Y-35049854D02*
X22721426Y-35092711D01*
X22721426Y-35092711D02*
X22678569Y-35178425D01*
X22678569Y-35178425D02*
X22678569Y-35221282D01*
X22678569Y-35221282D02*
X22721426Y-35306997D01*
X22721426Y-35306997D02*
X22764284Y-35349854D01*
X22764284Y-35349854D02*
X22849998Y-35392711D01*
X22849998Y-35392711D02*
X23021426Y-35392711D01*
X23021426Y-35392711D02*
X23107141Y-35435568D01*
X23107141Y-35435568D02*
X23149998Y-35478425D01*
X23149998Y-35478425D02*
X23192855Y-35564140D01*
X23192855Y-35564140D02*
X23192855Y-35735568D01*
X23192855Y-35735568D02*
X23149998Y-35821282D01*
X23149998Y-35821282D02*
X23107141Y-35864140D01*
X23107141Y-35864140D02*
X23021426Y-35906997D01*
X23021426Y-35906997D02*
X22849998Y-35906997D01*
X22849998Y-35906997D02*
X22764284Y-35864140D01*
X22764284Y-35864140D02*
X22721426Y-35821282D01*
X22721426Y-35821282D02*
X22678569Y-35735568D01*
X22678569Y-35735568D02*
X22678569Y-35564140D01*
X22678569Y-35564140D02*
X22721426Y-35478425D01*
X22721426Y-35478425D02*
X22764284Y-35435568D01*
X22764284Y-35435568D02*
X22849998Y-35392711D01*
X22378569Y-36249854D02*
X22335712Y-36206997D01*
X22335712Y-36206997D02*
X22249998Y-36078425D01*
X22249998Y-36078425D02*
X22207141Y-35992711D01*
X22207141Y-35992711D02*
X22164283Y-35864140D01*
X22164283Y-35864140D02*
X22121426Y-35649854D01*
X22121426Y-35649854D02*
X22121426Y-35478425D01*
X22121426Y-35478425D02*
X22164283Y-35264140D01*
X22164283Y-35264140D02*
X22207141Y-35135568D01*
X22207141Y-35135568D02*
X22249998Y-35049854D01*
X22249998Y-35049854D02*
X22335712Y-34921282D01*
X22335712Y-34921282D02*
X22378569Y-34878425D01*
D11*
X39703333Y-55452219D02*
X39703333Y-56166504D01*
X39703333Y-56166504D02*
X39750952Y-56309361D01*
X39750952Y-56309361D02*
X39846190Y-56404600D01*
X39846190Y-56404600D02*
X39989047Y-56452219D01*
X39989047Y-56452219D02*
X40084285Y-56452219D01*
X38703333Y-56452219D02*
X39274761Y-56452219D01*
X38989047Y-56452219D02*
X38989047Y-55452219D01*
X38989047Y-55452219D02*
X39084285Y-55595076D01*
X39084285Y-55595076D02*
X39179523Y-55690314D01*
X39179523Y-55690314D02*
X39274761Y-55737933D01*
X2261904Y-59047457D02*
X2214285Y-58999838D01*
X2214285Y-58999838D02*
X2119047Y-58952219D01*
X2119047Y-58952219D02*
X1880952Y-58952219D01*
X1880952Y-58952219D02*
X1785714Y-58999838D01*
X1785714Y-58999838D02*
X1738095Y-59047457D01*
X1738095Y-59047457D02*
X1690476Y-59142695D01*
X1690476Y-59142695D02*
X1690476Y-59237933D01*
X1690476Y-59237933D02*
X1738095Y-59380790D01*
X1738095Y-59380790D02*
X2309523Y-59952219D01*
X2309523Y-59952219D02*
X1690476Y-59952219D01*
X1214285Y-59952219D02*
X1023809Y-59952219D01*
X1023809Y-59952219D02*
X928571Y-59904600D01*
X928571Y-59904600D02*
X880952Y-59856980D01*
X880952Y-59856980D02*
X785714Y-59714123D01*
X785714Y-59714123D02*
X738095Y-59523647D01*
X738095Y-59523647D02*
X738095Y-59142695D01*
X738095Y-59142695D02*
X785714Y-59047457D01*
X785714Y-59047457D02*
X833333Y-58999838D01*
X833333Y-58999838D02*
X928571Y-58952219D01*
X928571Y-58952219D02*
X1119047Y-58952219D01*
X1119047Y-58952219D02*
X1214285Y-58999838D01*
X1214285Y-58999838D02*
X1261904Y-59047457D01*
X1261904Y-59047457D02*
X1309523Y-59142695D01*
X1309523Y-59142695D02*
X1309523Y-59380790D01*
X1309523Y-59380790D02*
X1261904Y-59476028D01*
X1261904Y-59476028D02*
X1214285Y-59523647D01*
X1214285Y-59523647D02*
X1119047Y-59571266D01*
X1119047Y-59571266D02*
X928571Y-59571266D01*
X928571Y-59571266D02*
X833333Y-59523647D01*
X833333Y-59523647D02*
X785714Y-59476028D01*
X785714Y-59476028D02*
X738095Y-59380790D01*
X2261904Y-64047457D02*
X2214285Y-63999838D01*
X2214285Y-63999838D02*
X2119047Y-63952219D01*
X2119047Y-63952219D02*
X1880952Y-63952219D01*
X1880952Y-63952219D02*
X1785714Y-63999838D01*
X1785714Y-63999838D02*
X1738095Y-64047457D01*
X1738095Y-64047457D02*
X1690476Y-64142695D01*
X1690476Y-64142695D02*
X1690476Y-64237933D01*
X1690476Y-64237933D02*
X1738095Y-64380790D01*
X1738095Y-64380790D02*
X2309523Y-64952219D01*
X2309523Y-64952219D02*
X1690476Y-64952219D01*
X1119047Y-64380790D02*
X1214285Y-64333171D01*
X1214285Y-64333171D02*
X1261904Y-64285552D01*
X1261904Y-64285552D02*
X1309523Y-64190314D01*
X1309523Y-64190314D02*
X1309523Y-64142695D01*
X1309523Y-64142695D02*
X1261904Y-64047457D01*
X1261904Y-64047457D02*
X1214285Y-63999838D01*
X1214285Y-63999838D02*
X1119047Y-63952219D01*
X1119047Y-63952219D02*
X928571Y-63952219D01*
X928571Y-63952219D02*
X833333Y-63999838D01*
X833333Y-63999838D02*
X785714Y-64047457D01*
X785714Y-64047457D02*
X738095Y-64142695D01*
X738095Y-64142695D02*
X738095Y-64190314D01*
X738095Y-64190314D02*
X785714Y-64285552D01*
X785714Y-64285552D02*
X833333Y-64333171D01*
X833333Y-64333171D02*
X928571Y-64380790D01*
X928571Y-64380790D02*
X1119047Y-64380790D01*
X1119047Y-64380790D02*
X1214285Y-64428409D01*
X1214285Y-64428409D02*
X1261904Y-64476028D01*
X1261904Y-64476028D02*
X1309523Y-64571266D01*
X1309523Y-64571266D02*
X1309523Y-64761742D01*
X1309523Y-64761742D02*
X1261904Y-64856980D01*
X1261904Y-64856980D02*
X1214285Y-64904600D01*
X1214285Y-64904600D02*
X1119047Y-64952219D01*
X1119047Y-64952219D02*
X928571Y-64952219D01*
X928571Y-64952219D02*
X833333Y-64904600D01*
X833333Y-64904600D02*
X785714Y-64856980D01*
X785714Y-64856980D02*
X738095Y-64761742D01*
X738095Y-64761742D02*
X738095Y-64571266D01*
X738095Y-64571266D02*
X785714Y-64476028D01*
X785714Y-64476028D02*
X833333Y-64428409D01*
X833333Y-64428409D02*
X928571Y-64380790D01*
D12*
X66109523Y-56099870D02*
X66185713Y-56061775D01*
X66185713Y-56061775D02*
X66299999Y-56061775D01*
X66299999Y-56061775D02*
X66414285Y-56099870D01*
X66414285Y-56099870D02*
X66490475Y-56176060D01*
X66490475Y-56176060D02*
X66528570Y-56252251D01*
X66528570Y-56252251D02*
X66566666Y-56404632D01*
X66566666Y-56404632D02*
X66566666Y-56518918D01*
X66566666Y-56518918D02*
X66528570Y-56671299D01*
X66528570Y-56671299D02*
X66490475Y-56747489D01*
X66490475Y-56747489D02*
X66414285Y-56823680D01*
X66414285Y-56823680D02*
X66299999Y-56861775D01*
X66299999Y-56861775D02*
X66223808Y-56861775D01*
X66223808Y-56861775D02*
X66109523Y-56823680D01*
X66109523Y-56823680D02*
X66071427Y-56785584D01*
X66071427Y-56785584D02*
X66071427Y-56518918D01*
X66071427Y-56518918D02*
X66223808Y-56518918D01*
X65728570Y-56061775D02*
X65728570Y-56709394D01*
X65728570Y-56709394D02*
X65690475Y-56785584D01*
X65690475Y-56785584D02*
X65652380Y-56823680D01*
X65652380Y-56823680D02*
X65576189Y-56861775D01*
X65576189Y-56861775D02*
X65423808Y-56861775D01*
X65423808Y-56861775D02*
X65347618Y-56823680D01*
X65347618Y-56823680D02*
X65309523Y-56785584D01*
X65309523Y-56785584D02*
X65271427Y-56709394D01*
X65271427Y-56709394D02*
X65271427Y-56061775D01*
X64890475Y-56861775D02*
X64890475Y-56061775D01*
X64547619Y-56633203D02*
X64166666Y-56633203D01*
X64623809Y-56861775D02*
X64357142Y-56061775D01*
X64357142Y-56061775D02*
X64090476Y-56861775D01*
X62833333Y-56061775D02*
X63214285Y-56061775D01*
X63214285Y-56061775D02*
X63252381Y-56442727D01*
X63252381Y-56442727D02*
X63214285Y-56404632D01*
X63214285Y-56404632D02*
X63138095Y-56366537D01*
X63138095Y-56366537D02*
X62947619Y-56366537D01*
X62947619Y-56366537D02*
X62871428Y-56404632D01*
X62871428Y-56404632D02*
X62833333Y-56442727D01*
X62833333Y-56442727D02*
X62795238Y-56518918D01*
X62795238Y-56518918D02*
X62795238Y-56709394D01*
X62795238Y-56709394D02*
X62833333Y-56785584D01*
X62833333Y-56785584D02*
X62871428Y-56823680D01*
X62871428Y-56823680D02*
X62947619Y-56861775D01*
X62947619Y-56861775D02*
X63138095Y-56861775D01*
X63138095Y-56861775D02*
X63214285Y-56823680D01*
X63214285Y-56823680D02*
X63252381Y-56785584D01*
X61880952Y-56023680D02*
X62566666Y-57052251D01*
X61233333Y-56061775D02*
X61614285Y-56061775D01*
X61614285Y-56061775D02*
X61652381Y-56442727D01*
X61652381Y-56442727D02*
X61614285Y-56404632D01*
X61614285Y-56404632D02*
X61538095Y-56366537D01*
X61538095Y-56366537D02*
X61347619Y-56366537D01*
X61347619Y-56366537D02*
X61271428Y-56404632D01*
X61271428Y-56404632D02*
X61233333Y-56442727D01*
X61233333Y-56442727D02*
X61195238Y-56518918D01*
X61195238Y-56518918D02*
X61195238Y-56709394D01*
X61195238Y-56709394D02*
X61233333Y-56785584D01*
X61233333Y-56785584D02*
X61271428Y-56823680D01*
X61271428Y-56823680D02*
X61347619Y-56861775D01*
X61347619Y-56861775D02*
X61538095Y-56861775D01*
X61538095Y-56861775D02*
X61614285Y-56823680D01*
X61614285Y-56823680D02*
X61652381Y-56785584D01*
X60890476Y-56137965D02*
X60852380Y-56099870D01*
X60852380Y-56099870D02*
X60776190Y-56061775D01*
X60776190Y-56061775D02*
X60585714Y-56061775D01*
X60585714Y-56061775D02*
X60509523Y-56099870D01*
X60509523Y-56099870D02*
X60471428Y-56137965D01*
X60471428Y-56137965D02*
X60433333Y-56214156D01*
X60433333Y-56214156D02*
X60433333Y-56290346D01*
X60433333Y-56290346D02*
X60471428Y-56404632D01*
X60471428Y-56404632D02*
X60928571Y-56861775D01*
X60928571Y-56861775D02*
X60433333Y-56861775D01*
D11*
X76214285Y-64952219D02*
X76785713Y-64952219D01*
X76499999Y-64952219D02*
X76499999Y-63952219D01*
X76499999Y-63952219D02*
X76595237Y-64095076D01*
X76595237Y-64095076D02*
X76690475Y-64190314D01*
X76690475Y-64190314D02*
X76785713Y-64237933D01*
X77238095Y-58952219D02*
X77714285Y-58952219D01*
X77714285Y-58952219D02*
X77761904Y-59428409D01*
X77761904Y-59428409D02*
X77714285Y-59380790D01*
X77714285Y-59380790D02*
X77619047Y-59333171D01*
X77619047Y-59333171D02*
X77380952Y-59333171D01*
X77380952Y-59333171D02*
X77285714Y-59380790D01*
X77285714Y-59380790D02*
X77238095Y-59428409D01*
X77238095Y-59428409D02*
X77190476Y-59523647D01*
X77190476Y-59523647D02*
X77190476Y-59761742D01*
X77190476Y-59761742D02*
X77238095Y-59856980D01*
X77238095Y-59856980D02*
X77285714Y-59904600D01*
X77285714Y-59904600D02*
X77380952Y-59952219D01*
X77380952Y-59952219D02*
X77619047Y-59952219D01*
X77619047Y-59952219D02*
X77714285Y-59904600D01*
X77714285Y-59904600D02*
X77761904Y-59856980D01*
X76333333Y-58952219D02*
X76523809Y-58952219D01*
X76523809Y-58952219D02*
X76619047Y-58999838D01*
X76619047Y-58999838D02*
X76666666Y-59047457D01*
X76666666Y-59047457D02*
X76761904Y-59190314D01*
X76761904Y-59190314D02*
X76809523Y-59380790D01*
X76809523Y-59380790D02*
X76809523Y-59761742D01*
X76809523Y-59761742D02*
X76761904Y-59856980D01*
X76761904Y-59856980D02*
X76714285Y-59904600D01*
X76714285Y-59904600D02*
X76619047Y-59952219D01*
X76619047Y-59952219D02*
X76428571Y-59952219D01*
X76428571Y-59952219D02*
X76333333Y-59904600D01*
X76333333Y-59904600D02*
X76285714Y-59856980D01*
X76285714Y-59856980D02*
X76238095Y-59761742D01*
X76238095Y-59761742D02*
X76238095Y-59523647D01*
X76238095Y-59523647D02*
X76285714Y-59428409D01*
X76285714Y-59428409D02*
X76333333Y-59380790D01*
X76333333Y-59380790D02*
X76428571Y-59333171D01*
X76428571Y-59333171D02*
X76619047Y-59333171D01*
X76619047Y-59333171D02*
X76714285Y-59380790D01*
X76714285Y-59380790D02*
X76761904Y-59428409D01*
X76761904Y-59428409D02*
X76809523Y-59523647D01*
%TO.C,J1*%
D13*
X2880000Y-57230000D02*
X2880000Y-65739999D01*
X2880000Y-57230000D02*
X2880000Y-65739999D01*
X63500000Y-57230000D02*
X63500000Y-65739999D01*
X63500000Y-57230000D02*
X63500000Y-65739999D01*
X75860000Y-57230000D02*
X2880000Y-57230000D01*
X75860000Y-57230000D02*
X2880000Y-57230000D01*
X75860000Y-65739999D02*
X75860000Y-57230000D01*
X75860000Y-65739999D02*
X75860000Y-57230000D01*
%TD*%
M02*
