%TF.GenerationSoftware,KiCad,Pcbnew,10.0.4*%
%TF.CreationDate,2026-07-27T22:58:31-03:00*%
%TF.ProjectId,tkmem128,746b6d65-6d31-4323-982e-6b696361645f,rev?*%
%TF.SameCoordinates,Original*%
%TF.FileFunction,Legend,Top*%
%TF.FilePolarity,Positive*%
%FSLAX46Y46*%
G04 Gerber Fmt 4.6, Leading zero omitted, Abs format (unit mm)*
G04 Created by KiCad (PCBNEW 10.0.4) date 2026-07-27 22:58:31*
%MOMM*%
%LPD*%
G01*
G04 APERTURE LIST*
%ADD10C,0.150000*%
%ADD11C,0.120000*%
G04 APERTURE END LIST*
D10*
X32078571Y-43094271D02*
X32121428Y-43051414D01*
X32121428Y-43051414D02*
X32207143Y-43008557D01*
X32207143Y-43008557D02*
X32421428Y-43008557D01*
X32421428Y-43008557D02*
X32507143Y-43051414D01*
X32507143Y-43051414D02*
X32550000Y-43094271D01*
X32550000Y-43094271D02*
X32592857Y-43179985D01*
X32592857Y-43179985D02*
X32592857Y-43265700D01*
X32592857Y-43265700D02*
X32550000Y-43394271D01*
X32550000Y-43394271D02*
X32035714Y-43908557D01*
X32035714Y-43908557D02*
X32592857Y-43908557D01*
X32892857Y-43008557D02*
X33492857Y-43008557D01*
X33492857Y-43008557D02*
X33107143Y-43908557D01*
X34350000Y-43822842D02*
X34307143Y-43865700D01*
X34307143Y-43865700D02*
X34178571Y-43908557D01*
X34178571Y-43908557D02*
X34092857Y-43908557D01*
X34092857Y-43908557D02*
X33964286Y-43865700D01*
X33964286Y-43865700D02*
X33878571Y-43779985D01*
X33878571Y-43779985D02*
X33835714Y-43694271D01*
X33835714Y-43694271D02*
X33792857Y-43522842D01*
X33792857Y-43522842D02*
X33792857Y-43394271D01*
X33792857Y-43394271D02*
X33835714Y-43222842D01*
X33835714Y-43222842D02*
X33878571Y-43137128D01*
X33878571Y-43137128D02*
X33964286Y-43051414D01*
X33964286Y-43051414D02*
X34092857Y-43008557D01*
X34092857Y-43008557D02*
X34178571Y-43008557D01*
X34178571Y-43008557D02*
X34307143Y-43051414D01*
X34307143Y-43051414D02*
X34350000Y-43094271D01*
X34692857Y-43094271D02*
X34735714Y-43051414D01*
X34735714Y-43051414D02*
X34821429Y-43008557D01*
X34821429Y-43008557D02*
X35035714Y-43008557D01*
X35035714Y-43008557D02*
X35121429Y-43051414D01*
X35121429Y-43051414D02*
X35164286Y-43094271D01*
X35164286Y-43094271D02*
X35207143Y-43179985D01*
X35207143Y-43179985D02*
X35207143Y-43265700D01*
X35207143Y-43265700D02*
X35164286Y-43394271D01*
X35164286Y-43394271D02*
X34650000Y-43908557D01*
X34650000Y-43908557D02*
X35207143Y-43908557D01*
X36021429Y-43008557D02*
X35592857Y-43008557D01*
X35592857Y-43008557D02*
X35550000Y-43437128D01*
X35550000Y-43437128D02*
X35592857Y-43394271D01*
X35592857Y-43394271D02*
X35678572Y-43351414D01*
X35678572Y-43351414D02*
X35892857Y-43351414D01*
X35892857Y-43351414D02*
X35978572Y-43394271D01*
X35978572Y-43394271D02*
X36021429Y-43437128D01*
X36021429Y-43437128D02*
X36064286Y-43522842D01*
X36064286Y-43522842D02*
X36064286Y-43737128D01*
X36064286Y-43737128D02*
X36021429Y-43822842D01*
X36021429Y-43822842D02*
X35978572Y-43865700D01*
X35978572Y-43865700D02*
X35892857Y-43908557D01*
X35892857Y-43908557D02*
X35678572Y-43908557D01*
X35678572Y-43908557D02*
X35592857Y-43865700D01*
X35592857Y-43865700D02*
X35550000Y-43822842D01*
X36835715Y-43008557D02*
X36664286Y-43008557D01*
X36664286Y-43008557D02*
X36578572Y-43051414D01*
X36578572Y-43051414D02*
X36535715Y-43094271D01*
X36535715Y-43094271D02*
X36450000Y-43222842D01*
X36450000Y-43222842D02*
X36407143Y-43394271D01*
X36407143Y-43394271D02*
X36407143Y-43737128D01*
X36407143Y-43737128D02*
X36450000Y-43822842D01*
X36450000Y-43822842D02*
X36492857Y-43865700D01*
X36492857Y-43865700D02*
X36578572Y-43908557D01*
X36578572Y-43908557D02*
X36750000Y-43908557D01*
X36750000Y-43908557D02*
X36835715Y-43865700D01*
X36835715Y-43865700D02*
X36878572Y-43822842D01*
X36878572Y-43822842D02*
X36921429Y-43737128D01*
X36921429Y-43737128D02*
X36921429Y-43522842D01*
X36921429Y-43522842D02*
X36878572Y-43437128D01*
X36878572Y-43437128D02*
X36835715Y-43394271D01*
X36835715Y-43394271D02*
X36750000Y-43351414D01*
X36750000Y-43351414D02*
X36578572Y-43351414D01*
X36578572Y-43351414D02*
X36492857Y-43394271D01*
X36492857Y-43394271D02*
X36450000Y-43437128D01*
X36450000Y-43437128D02*
X36407143Y-43522842D01*
X47935713Y-41151414D02*
X48364285Y-41151414D01*
X47849999Y-41408557D02*
X48149999Y-40508557D01*
X48149999Y-40508557D02*
X48449999Y-41408557D01*
X48621428Y-40508557D02*
X49135714Y-40508557D01*
X48878571Y-41408557D02*
X48878571Y-40508557D01*
X49735713Y-40937128D02*
X49435713Y-40937128D01*
X49435713Y-41408557D02*
X49435713Y-40508557D01*
X49435713Y-40508557D02*
X49864285Y-40508557D01*
X50164285Y-40594271D02*
X50207142Y-40551414D01*
X50207142Y-40551414D02*
X50292857Y-40508557D01*
X50292857Y-40508557D02*
X50507142Y-40508557D01*
X50507142Y-40508557D02*
X50592857Y-40551414D01*
X50592857Y-40551414D02*
X50635714Y-40594271D01*
X50635714Y-40594271D02*
X50678571Y-40679985D01*
X50678571Y-40679985D02*
X50678571Y-40765700D01*
X50678571Y-40765700D02*
X50635714Y-40894271D01*
X50635714Y-40894271D02*
X50121428Y-41408557D01*
X50121428Y-41408557D02*
X50678571Y-41408557D01*
X51235714Y-40508557D02*
X51321428Y-40508557D01*
X51321428Y-40508557D02*
X51407142Y-40551414D01*
X51407142Y-40551414D02*
X51450000Y-40594271D01*
X51450000Y-40594271D02*
X51492857Y-40679985D01*
X51492857Y-40679985D02*
X51535714Y-40851414D01*
X51535714Y-40851414D02*
X51535714Y-41065700D01*
X51535714Y-41065700D02*
X51492857Y-41237128D01*
X51492857Y-41237128D02*
X51450000Y-41322842D01*
X51450000Y-41322842D02*
X51407142Y-41365700D01*
X51407142Y-41365700D02*
X51321428Y-41408557D01*
X51321428Y-41408557D02*
X51235714Y-41408557D01*
X51235714Y-41408557D02*
X51150000Y-41365700D01*
X51150000Y-41365700D02*
X51107142Y-41322842D01*
X51107142Y-41322842D02*
X51064285Y-41237128D01*
X51064285Y-41237128D02*
X51021428Y-41065700D01*
X51021428Y-41065700D02*
X51021428Y-40851414D01*
X51021428Y-40851414D02*
X51064285Y-40679985D01*
X51064285Y-40679985D02*
X51107142Y-40594271D01*
X51107142Y-40594271D02*
X51150000Y-40551414D01*
X51150000Y-40551414D02*
X51235714Y-40508557D01*
X51792857Y-40508557D02*
X52092857Y-41408557D01*
X52092857Y-41408557D02*
X52392857Y-40508557D01*
X52821429Y-40894271D02*
X52735714Y-40851414D01*
X52735714Y-40851414D02*
X52692857Y-40808557D01*
X52692857Y-40808557D02*
X52650000Y-40722842D01*
X52650000Y-40722842D02*
X52650000Y-40679985D01*
X52650000Y-40679985D02*
X52692857Y-40594271D01*
X52692857Y-40594271D02*
X52735714Y-40551414D01*
X52735714Y-40551414D02*
X52821429Y-40508557D01*
X52821429Y-40508557D02*
X52992857Y-40508557D01*
X52992857Y-40508557D02*
X53078572Y-40551414D01*
X53078572Y-40551414D02*
X53121429Y-40594271D01*
X53121429Y-40594271D02*
X53164286Y-40679985D01*
X53164286Y-40679985D02*
X53164286Y-40722842D01*
X53164286Y-40722842D02*
X53121429Y-40808557D01*
X53121429Y-40808557D02*
X53078572Y-40851414D01*
X53078572Y-40851414D02*
X52992857Y-40894271D01*
X52992857Y-40894271D02*
X52821429Y-40894271D01*
X52821429Y-40894271D02*
X52735714Y-40937128D01*
X52735714Y-40937128D02*
X52692857Y-40979985D01*
X52692857Y-40979985D02*
X52650000Y-41065700D01*
X52650000Y-41065700D02*
X52650000Y-41237128D01*
X52650000Y-41237128D02*
X52692857Y-41322842D01*
X52692857Y-41322842D02*
X52735714Y-41365700D01*
X52735714Y-41365700D02*
X52821429Y-41408557D01*
X52821429Y-41408557D02*
X52992857Y-41408557D01*
X52992857Y-41408557D02*
X53078572Y-41365700D01*
X53078572Y-41365700D02*
X53121429Y-41322842D01*
X53121429Y-41322842D02*
X53164286Y-41237128D01*
X53164286Y-41237128D02*
X53164286Y-41065700D01*
X53164286Y-41065700D02*
X53121429Y-40979985D01*
X53121429Y-40979985D02*
X53078572Y-40937128D01*
X53078572Y-40937128D02*
X52992857Y-40894271D01*
X53850000Y-40937128D02*
X53978572Y-40979985D01*
X53978572Y-40979985D02*
X54021429Y-41022842D01*
X54021429Y-41022842D02*
X54064286Y-41108557D01*
X54064286Y-41108557D02*
X54064286Y-41237128D01*
X54064286Y-41237128D02*
X54021429Y-41322842D01*
X54021429Y-41322842D02*
X53978572Y-41365700D01*
X53978572Y-41365700D02*
X53892857Y-41408557D01*
X53892857Y-41408557D02*
X53550000Y-41408557D01*
X53550000Y-41408557D02*
X53550000Y-40508557D01*
X53550000Y-40508557D02*
X53850000Y-40508557D01*
X53850000Y-40508557D02*
X53935715Y-40551414D01*
X53935715Y-40551414D02*
X53978572Y-40594271D01*
X53978572Y-40594271D02*
X54021429Y-40679985D01*
X54021429Y-40679985D02*
X54021429Y-40765700D01*
X54021429Y-40765700D02*
X53978572Y-40851414D01*
X53978572Y-40851414D02*
X53935715Y-40894271D01*
X53935715Y-40894271D02*
X53850000Y-40937128D01*
X53850000Y-40937128D02*
X53550000Y-40937128D01*
X60221428Y-38008557D02*
X60821428Y-38008557D01*
X60821428Y-38008557D02*
X60435714Y-38908557D01*
X61550000Y-38308557D02*
X61550000Y-38908557D01*
X61335714Y-37965700D02*
X61121428Y-38608557D01*
X61121428Y-38608557D02*
X61678571Y-38608557D01*
X62021428Y-38908557D02*
X62021428Y-38008557D01*
X62021428Y-38437128D02*
X62535714Y-38437128D01*
X62535714Y-38908557D02*
X62535714Y-38008557D01*
X63478571Y-38822842D02*
X63435714Y-38865700D01*
X63435714Y-38865700D02*
X63307142Y-38908557D01*
X63307142Y-38908557D02*
X63221428Y-38908557D01*
X63221428Y-38908557D02*
X63092857Y-38865700D01*
X63092857Y-38865700D02*
X63007142Y-38779985D01*
X63007142Y-38779985D02*
X62964285Y-38694271D01*
X62964285Y-38694271D02*
X62921428Y-38522842D01*
X62921428Y-38522842D02*
X62921428Y-38394271D01*
X62921428Y-38394271D02*
X62964285Y-38222842D01*
X62964285Y-38222842D02*
X63007142Y-38137128D01*
X63007142Y-38137128D02*
X63092857Y-38051414D01*
X63092857Y-38051414D02*
X63221428Y-38008557D01*
X63221428Y-38008557D02*
X63307142Y-38008557D01*
X63307142Y-38008557D02*
X63435714Y-38051414D01*
X63435714Y-38051414D02*
X63478571Y-38094271D01*
X63735714Y-38008557D02*
X64250000Y-38008557D01*
X63992857Y-38908557D02*
X63992857Y-38008557D01*
X64507142Y-38094271D02*
X64549999Y-38051414D01*
X64549999Y-38051414D02*
X64635714Y-38008557D01*
X64635714Y-38008557D02*
X64849999Y-38008557D01*
X64849999Y-38008557D02*
X64935714Y-38051414D01*
X64935714Y-38051414D02*
X64978571Y-38094271D01*
X64978571Y-38094271D02*
X65021428Y-38179985D01*
X65021428Y-38179985D02*
X65021428Y-38265700D01*
X65021428Y-38265700D02*
X64978571Y-38394271D01*
X64978571Y-38394271D02*
X64464285Y-38908557D01*
X64464285Y-38908557D02*
X65021428Y-38908557D01*
X65321428Y-38008557D02*
X65921428Y-38008557D01*
X65921428Y-38008557D02*
X65535714Y-38908557D01*
X66178571Y-38008557D02*
X66735714Y-38008557D01*
X66735714Y-38008557D02*
X66435714Y-38351414D01*
X66435714Y-38351414D02*
X66564285Y-38351414D01*
X66564285Y-38351414D02*
X66650000Y-38394271D01*
X66650000Y-38394271D02*
X66692857Y-38437128D01*
X66692857Y-38437128D02*
X66735714Y-38522842D01*
X66735714Y-38522842D02*
X66735714Y-38737128D01*
X66735714Y-38737128D02*
X66692857Y-38822842D01*
X66692857Y-38822842D02*
X66650000Y-38865700D01*
X66650000Y-38865700D02*
X66564285Y-38908557D01*
X66564285Y-38908557D02*
X66307142Y-38908557D01*
X66307142Y-38908557D02*
X66221428Y-38865700D01*
X66221428Y-38865700D02*
X66178571Y-38822842D01*
X3651414Y-37371429D02*
X3651414Y-36942858D01*
X3908557Y-37457143D02*
X3008557Y-37157143D01*
X3008557Y-37157143D02*
X3908557Y-36857143D01*
X3865700Y-36600000D02*
X3908557Y-36471429D01*
X3908557Y-36471429D02*
X3908557Y-36257143D01*
X3908557Y-36257143D02*
X3865700Y-36171429D01*
X3865700Y-36171429D02*
X3822842Y-36128571D01*
X3822842Y-36128571D02*
X3737128Y-36085714D01*
X3737128Y-36085714D02*
X3651414Y-36085714D01*
X3651414Y-36085714D02*
X3565700Y-36128571D01*
X3565700Y-36128571D02*
X3522842Y-36171429D01*
X3522842Y-36171429D02*
X3479985Y-36257143D01*
X3479985Y-36257143D02*
X3437128Y-36428571D01*
X3437128Y-36428571D02*
X3394271Y-36514286D01*
X3394271Y-36514286D02*
X3351414Y-36557143D01*
X3351414Y-36557143D02*
X3265700Y-36600000D01*
X3265700Y-36600000D02*
X3179985Y-36600000D01*
X3179985Y-36600000D02*
X3094271Y-36557143D01*
X3094271Y-36557143D02*
X3051414Y-36514286D01*
X3051414Y-36514286D02*
X3008557Y-36428571D01*
X3008557Y-36428571D02*
X3008557Y-36214286D01*
X3008557Y-36214286D02*
X3051414Y-36085714D01*
X3008557Y-35314286D02*
X3008557Y-35485714D01*
X3008557Y-35485714D02*
X3051414Y-35571428D01*
X3051414Y-35571428D02*
X3094271Y-35614286D01*
X3094271Y-35614286D02*
X3222842Y-35700000D01*
X3222842Y-35700000D02*
X3394271Y-35742857D01*
X3394271Y-35742857D02*
X3737128Y-35742857D01*
X3737128Y-35742857D02*
X3822842Y-35700000D01*
X3822842Y-35700000D02*
X3865700Y-35657143D01*
X3865700Y-35657143D02*
X3908557Y-35571428D01*
X3908557Y-35571428D02*
X3908557Y-35400000D01*
X3908557Y-35400000D02*
X3865700Y-35314286D01*
X3865700Y-35314286D02*
X3822842Y-35271428D01*
X3822842Y-35271428D02*
X3737128Y-35228571D01*
X3737128Y-35228571D02*
X3522842Y-35228571D01*
X3522842Y-35228571D02*
X3437128Y-35271428D01*
X3437128Y-35271428D02*
X3394271Y-35314286D01*
X3394271Y-35314286D02*
X3351414Y-35400000D01*
X3351414Y-35400000D02*
X3351414Y-35571428D01*
X3351414Y-35571428D02*
X3394271Y-35657143D01*
X3394271Y-35657143D02*
X3437128Y-35700000D01*
X3437128Y-35700000D02*
X3522842Y-35742857D01*
X3822842Y-34328571D02*
X3865700Y-34371428D01*
X3865700Y-34371428D02*
X3908557Y-34500000D01*
X3908557Y-34500000D02*
X3908557Y-34585714D01*
X3908557Y-34585714D02*
X3865700Y-34714285D01*
X3865700Y-34714285D02*
X3779985Y-34800000D01*
X3779985Y-34800000D02*
X3694271Y-34842857D01*
X3694271Y-34842857D02*
X3522842Y-34885714D01*
X3522842Y-34885714D02*
X3394271Y-34885714D01*
X3394271Y-34885714D02*
X3222842Y-34842857D01*
X3222842Y-34842857D02*
X3137128Y-34800000D01*
X3137128Y-34800000D02*
X3051414Y-34714285D01*
X3051414Y-34714285D02*
X3008557Y-34585714D01*
X3008557Y-34585714D02*
X3008557Y-34500000D01*
X3008557Y-34500000D02*
X3051414Y-34371428D01*
X3051414Y-34371428D02*
X3094271Y-34328571D01*
X3908557Y-33471428D02*
X3908557Y-33985714D01*
X3908557Y-33728571D02*
X3008557Y-33728571D01*
X3008557Y-33728571D02*
X3137128Y-33814285D01*
X3137128Y-33814285D02*
X3222842Y-33900000D01*
X3222842Y-33900000D02*
X3265700Y-33985714D01*
X3008557Y-32914285D02*
X3008557Y-32828571D01*
X3008557Y-32828571D02*
X3051414Y-32742857D01*
X3051414Y-32742857D02*
X3094271Y-32700000D01*
X3094271Y-32700000D02*
X3179985Y-32657142D01*
X3179985Y-32657142D02*
X3351414Y-32614285D01*
X3351414Y-32614285D02*
X3565700Y-32614285D01*
X3565700Y-32614285D02*
X3737128Y-32657142D01*
X3737128Y-32657142D02*
X3822842Y-32700000D01*
X3822842Y-32700000D02*
X3865700Y-32742857D01*
X3865700Y-32742857D02*
X3908557Y-32828571D01*
X3908557Y-32828571D02*
X3908557Y-32914285D01*
X3908557Y-32914285D02*
X3865700Y-33000000D01*
X3865700Y-33000000D02*
X3822842Y-33042857D01*
X3822842Y-33042857D02*
X3737128Y-33085714D01*
X3737128Y-33085714D02*
X3565700Y-33128571D01*
X3565700Y-33128571D02*
X3351414Y-33128571D01*
X3351414Y-33128571D02*
X3179985Y-33085714D01*
X3179985Y-33085714D02*
X3094271Y-33042857D01*
X3094271Y-33042857D02*
X3051414Y-33000000D01*
X3051414Y-33000000D02*
X3008557Y-32914285D01*
X3008557Y-32057142D02*
X3008557Y-31971428D01*
X3008557Y-31971428D02*
X3051414Y-31885714D01*
X3051414Y-31885714D02*
X3094271Y-31842857D01*
X3094271Y-31842857D02*
X3179985Y-31799999D01*
X3179985Y-31799999D02*
X3351414Y-31757142D01*
X3351414Y-31757142D02*
X3565700Y-31757142D01*
X3565700Y-31757142D02*
X3737128Y-31799999D01*
X3737128Y-31799999D02*
X3822842Y-31842857D01*
X3822842Y-31842857D02*
X3865700Y-31885714D01*
X3865700Y-31885714D02*
X3908557Y-31971428D01*
X3908557Y-31971428D02*
X3908557Y-32057142D01*
X3908557Y-32057142D02*
X3865700Y-32142857D01*
X3865700Y-32142857D02*
X3822842Y-32185714D01*
X3822842Y-32185714D02*
X3737128Y-32228571D01*
X3737128Y-32228571D02*
X3565700Y-32271428D01*
X3565700Y-32271428D02*
X3351414Y-32271428D01*
X3351414Y-32271428D02*
X3179985Y-32228571D01*
X3179985Y-32228571D02*
X3094271Y-32185714D01*
X3094271Y-32185714D02*
X3051414Y-32142857D01*
X3051414Y-32142857D02*
X3008557Y-32057142D01*
X3394271Y-31242856D02*
X3351414Y-31328571D01*
X3351414Y-31328571D02*
X3308557Y-31371428D01*
X3308557Y-31371428D02*
X3222842Y-31414285D01*
X3222842Y-31414285D02*
X3179985Y-31414285D01*
X3179985Y-31414285D02*
X3094271Y-31371428D01*
X3094271Y-31371428D02*
X3051414Y-31328571D01*
X3051414Y-31328571D02*
X3008557Y-31242856D01*
X3008557Y-31242856D02*
X3008557Y-31071428D01*
X3008557Y-31071428D02*
X3051414Y-30985714D01*
X3051414Y-30985714D02*
X3094271Y-30942856D01*
X3094271Y-30942856D02*
X3179985Y-30899999D01*
X3179985Y-30899999D02*
X3222842Y-30899999D01*
X3222842Y-30899999D02*
X3308557Y-30942856D01*
X3308557Y-30942856D02*
X3351414Y-30985714D01*
X3351414Y-30985714D02*
X3394271Y-31071428D01*
X3394271Y-31071428D02*
X3394271Y-31242856D01*
X3394271Y-31242856D02*
X3437128Y-31328571D01*
X3437128Y-31328571D02*
X3479985Y-31371428D01*
X3479985Y-31371428D02*
X3565700Y-31414285D01*
X3565700Y-31414285D02*
X3737128Y-31414285D01*
X3737128Y-31414285D02*
X3822842Y-31371428D01*
X3822842Y-31371428D02*
X3865700Y-31328571D01*
X3865700Y-31328571D02*
X3908557Y-31242856D01*
X3908557Y-31242856D02*
X3908557Y-31071428D01*
X3908557Y-31071428D02*
X3865700Y-30985714D01*
X3865700Y-30985714D02*
X3822842Y-30942856D01*
X3822842Y-30942856D02*
X3737128Y-30899999D01*
X3737128Y-30899999D02*
X3565700Y-30899999D01*
X3565700Y-30899999D02*
X3479985Y-30942856D01*
X3479985Y-30942856D02*
X3437128Y-30985714D01*
X3437128Y-30985714D02*
X3394271Y-31071428D01*
X3565700Y-30514285D02*
X3565700Y-29828571D01*
X3008557Y-28971427D02*
X3008557Y-29399999D01*
X3008557Y-29399999D02*
X3437128Y-29442856D01*
X3437128Y-29442856D02*
X3394271Y-29399999D01*
X3394271Y-29399999D02*
X3351414Y-29314285D01*
X3351414Y-29314285D02*
X3351414Y-29099999D01*
X3351414Y-29099999D02*
X3394271Y-29014285D01*
X3394271Y-29014285D02*
X3437128Y-28971427D01*
X3437128Y-28971427D02*
X3522842Y-28928570D01*
X3522842Y-28928570D02*
X3737128Y-28928570D01*
X3737128Y-28928570D02*
X3822842Y-28971427D01*
X3822842Y-28971427D02*
X3865700Y-29014285D01*
X3865700Y-29014285D02*
X3908557Y-29099999D01*
X3908557Y-29099999D02*
X3908557Y-29314285D01*
X3908557Y-29314285D02*
X3865700Y-29399999D01*
X3865700Y-29399999D02*
X3822842Y-29442856D01*
X3008557Y-28114284D02*
X3008557Y-28542856D01*
X3008557Y-28542856D02*
X3437128Y-28585713D01*
X3437128Y-28585713D02*
X3394271Y-28542856D01*
X3394271Y-28542856D02*
X3351414Y-28457142D01*
X3351414Y-28457142D02*
X3351414Y-28242856D01*
X3351414Y-28242856D02*
X3394271Y-28157142D01*
X3394271Y-28157142D02*
X3437128Y-28114284D01*
X3437128Y-28114284D02*
X3522842Y-28071427D01*
X3522842Y-28071427D02*
X3737128Y-28071427D01*
X3737128Y-28071427D02*
X3822842Y-28114284D01*
X3822842Y-28114284D02*
X3865700Y-28157142D01*
X3865700Y-28157142D02*
X3908557Y-28242856D01*
X3908557Y-28242856D02*
X3908557Y-28457142D01*
X3908557Y-28457142D02*
X3865700Y-28542856D01*
X3865700Y-28542856D02*
X3822842Y-28585713D01*
X3908557Y-27685713D02*
X3008557Y-27685713D01*
X3008557Y-27685713D02*
X3008557Y-27342856D01*
X3008557Y-27342856D02*
X3051414Y-27257141D01*
X3051414Y-27257141D02*
X3094271Y-27214284D01*
X3094271Y-27214284D02*
X3179985Y-27171427D01*
X3179985Y-27171427D02*
X3308557Y-27171427D01*
X3308557Y-27171427D02*
X3394271Y-27214284D01*
X3394271Y-27214284D02*
X3437128Y-27257141D01*
X3437128Y-27257141D02*
X3479985Y-27342856D01*
X3479985Y-27342856D02*
X3479985Y-27685713D01*
X3822842Y-26271427D02*
X3865700Y-26314284D01*
X3865700Y-26314284D02*
X3908557Y-26442856D01*
X3908557Y-26442856D02*
X3908557Y-26528570D01*
X3908557Y-26528570D02*
X3865700Y-26657141D01*
X3865700Y-26657141D02*
X3779985Y-26742856D01*
X3779985Y-26742856D02*
X3694271Y-26785713D01*
X3694271Y-26785713D02*
X3522842Y-26828570D01*
X3522842Y-26828570D02*
X3394271Y-26828570D01*
X3394271Y-26828570D02*
X3222842Y-26785713D01*
X3222842Y-26785713D02*
X3137128Y-26742856D01*
X3137128Y-26742856D02*
X3051414Y-26657141D01*
X3051414Y-26657141D02*
X3008557Y-26528570D01*
X3008557Y-26528570D02*
X3008557Y-26442856D01*
X3008557Y-26442856D02*
X3051414Y-26314284D01*
X3051414Y-26314284D02*
X3094271Y-26271427D01*
X3908557Y-25885713D02*
X3008557Y-25885713D01*
X3008557Y-25885713D02*
X3908557Y-25371427D01*
X3908557Y-25371427D02*
X3008557Y-25371427D01*
X2965700Y-23614285D02*
X4122842Y-24385713D01*
X3651414Y-22671428D02*
X3651414Y-22242857D01*
X3908557Y-22757142D02*
X3008557Y-22457142D01*
X3008557Y-22457142D02*
X3908557Y-22157142D01*
X3865700Y-21899999D02*
X3908557Y-21771428D01*
X3908557Y-21771428D02*
X3908557Y-21557142D01*
X3908557Y-21557142D02*
X3865700Y-21471428D01*
X3865700Y-21471428D02*
X3822842Y-21428570D01*
X3822842Y-21428570D02*
X3737128Y-21385713D01*
X3737128Y-21385713D02*
X3651414Y-21385713D01*
X3651414Y-21385713D02*
X3565700Y-21428570D01*
X3565700Y-21428570D02*
X3522842Y-21471428D01*
X3522842Y-21471428D02*
X3479985Y-21557142D01*
X3479985Y-21557142D02*
X3437128Y-21728570D01*
X3437128Y-21728570D02*
X3394271Y-21814285D01*
X3394271Y-21814285D02*
X3351414Y-21857142D01*
X3351414Y-21857142D02*
X3265700Y-21899999D01*
X3265700Y-21899999D02*
X3179985Y-21899999D01*
X3179985Y-21899999D02*
X3094271Y-21857142D01*
X3094271Y-21857142D02*
X3051414Y-21814285D01*
X3051414Y-21814285D02*
X3008557Y-21728570D01*
X3008557Y-21728570D02*
X3008557Y-21514285D01*
X3008557Y-21514285D02*
X3051414Y-21385713D01*
X3008557Y-20614285D02*
X3008557Y-20785713D01*
X3008557Y-20785713D02*
X3051414Y-20871427D01*
X3051414Y-20871427D02*
X3094271Y-20914285D01*
X3094271Y-20914285D02*
X3222842Y-20999999D01*
X3222842Y-20999999D02*
X3394271Y-21042856D01*
X3394271Y-21042856D02*
X3737128Y-21042856D01*
X3737128Y-21042856D02*
X3822842Y-20999999D01*
X3822842Y-20999999D02*
X3865700Y-20957142D01*
X3865700Y-20957142D02*
X3908557Y-20871427D01*
X3908557Y-20871427D02*
X3908557Y-20699999D01*
X3908557Y-20699999D02*
X3865700Y-20614285D01*
X3865700Y-20614285D02*
X3822842Y-20571427D01*
X3822842Y-20571427D02*
X3737128Y-20528570D01*
X3737128Y-20528570D02*
X3522842Y-20528570D01*
X3522842Y-20528570D02*
X3437128Y-20571427D01*
X3437128Y-20571427D02*
X3394271Y-20614285D01*
X3394271Y-20614285D02*
X3351414Y-20699999D01*
X3351414Y-20699999D02*
X3351414Y-20871427D01*
X3351414Y-20871427D02*
X3394271Y-20957142D01*
X3394271Y-20957142D02*
X3437128Y-20999999D01*
X3437128Y-20999999D02*
X3522842Y-21042856D01*
X3822842Y-19628570D02*
X3865700Y-19671427D01*
X3865700Y-19671427D02*
X3908557Y-19799999D01*
X3908557Y-19799999D02*
X3908557Y-19885713D01*
X3908557Y-19885713D02*
X3865700Y-20014284D01*
X3865700Y-20014284D02*
X3779985Y-20099999D01*
X3779985Y-20099999D02*
X3694271Y-20142856D01*
X3694271Y-20142856D02*
X3522842Y-20185713D01*
X3522842Y-20185713D02*
X3394271Y-20185713D01*
X3394271Y-20185713D02*
X3222842Y-20142856D01*
X3222842Y-20142856D02*
X3137128Y-20099999D01*
X3137128Y-20099999D02*
X3051414Y-20014284D01*
X3051414Y-20014284D02*
X3008557Y-19885713D01*
X3008557Y-19885713D02*
X3008557Y-19799999D01*
X3008557Y-19799999D02*
X3051414Y-19671427D01*
X3051414Y-19671427D02*
X3094271Y-19628570D01*
X3308557Y-18857142D02*
X3908557Y-18857142D01*
X2965700Y-19071427D02*
X3608557Y-19285713D01*
X3608557Y-19285713D02*
X3608557Y-18728570D01*
X3008557Y-18214284D02*
X3008557Y-18128570D01*
X3008557Y-18128570D02*
X3051414Y-18042856D01*
X3051414Y-18042856D02*
X3094271Y-17999999D01*
X3094271Y-17999999D02*
X3179985Y-17957141D01*
X3179985Y-17957141D02*
X3351414Y-17914284D01*
X3351414Y-17914284D02*
X3565700Y-17914284D01*
X3565700Y-17914284D02*
X3737128Y-17957141D01*
X3737128Y-17957141D02*
X3822842Y-17999999D01*
X3822842Y-17999999D02*
X3865700Y-18042856D01*
X3865700Y-18042856D02*
X3908557Y-18128570D01*
X3908557Y-18128570D02*
X3908557Y-18214284D01*
X3908557Y-18214284D02*
X3865700Y-18299999D01*
X3865700Y-18299999D02*
X3822842Y-18342856D01*
X3822842Y-18342856D02*
X3737128Y-18385713D01*
X3737128Y-18385713D02*
X3565700Y-18428570D01*
X3565700Y-18428570D02*
X3351414Y-18428570D01*
X3351414Y-18428570D02*
X3179985Y-18385713D01*
X3179985Y-18385713D02*
X3094271Y-18342856D01*
X3094271Y-18342856D02*
X3051414Y-18299999D01*
X3051414Y-18299999D02*
X3008557Y-18214284D01*
X3008557Y-17357141D02*
X3008557Y-17271427D01*
X3008557Y-17271427D02*
X3051414Y-17185713D01*
X3051414Y-17185713D02*
X3094271Y-17142856D01*
X3094271Y-17142856D02*
X3179985Y-17099998D01*
X3179985Y-17099998D02*
X3351414Y-17057141D01*
X3351414Y-17057141D02*
X3565700Y-17057141D01*
X3565700Y-17057141D02*
X3737128Y-17099998D01*
X3737128Y-17099998D02*
X3822842Y-17142856D01*
X3822842Y-17142856D02*
X3865700Y-17185713D01*
X3865700Y-17185713D02*
X3908557Y-17271427D01*
X3908557Y-17271427D02*
X3908557Y-17357141D01*
X3908557Y-17357141D02*
X3865700Y-17442856D01*
X3865700Y-17442856D02*
X3822842Y-17485713D01*
X3822842Y-17485713D02*
X3737128Y-17528570D01*
X3737128Y-17528570D02*
X3565700Y-17571427D01*
X3565700Y-17571427D02*
X3351414Y-17571427D01*
X3351414Y-17571427D02*
X3179985Y-17528570D01*
X3179985Y-17528570D02*
X3094271Y-17485713D01*
X3094271Y-17485713D02*
X3051414Y-17442856D01*
X3051414Y-17442856D02*
X3008557Y-17357141D01*
X3394271Y-16542855D02*
X3351414Y-16628570D01*
X3351414Y-16628570D02*
X3308557Y-16671427D01*
X3308557Y-16671427D02*
X3222842Y-16714284D01*
X3222842Y-16714284D02*
X3179985Y-16714284D01*
X3179985Y-16714284D02*
X3094271Y-16671427D01*
X3094271Y-16671427D02*
X3051414Y-16628570D01*
X3051414Y-16628570D02*
X3008557Y-16542855D01*
X3008557Y-16542855D02*
X3008557Y-16371427D01*
X3008557Y-16371427D02*
X3051414Y-16285713D01*
X3051414Y-16285713D02*
X3094271Y-16242855D01*
X3094271Y-16242855D02*
X3179985Y-16199998D01*
X3179985Y-16199998D02*
X3222842Y-16199998D01*
X3222842Y-16199998D02*
X3308557Y-16242855D01*
X3308557Y-16242855D02*
X3351414Y-16285713D01*
X3351414Y-16285713D02*
X3394271Y-16371427D01*
X3394271Y-16371427D02*
X3394271Y-16542855D01*
X3394271Y-16542855D02*
X3437128Y-16628570D01*
X3437128Y-16628570D02*
X3479985Y-16671427D01*
X3479985Y-16671427D02*
X3565700Y-16714284D01*
X3565700Y-16714284D02*
X3737128Y-16714284D01*
X3737128Y-16714284D02*
X3822842Y-16671427D01*
X3822842Y-16671427D02*
X3865700Y-16628570D01*
X3865700Y-16628570D02*
X3908557Y-16542855D01*
X3908557Y-16542855D02*
X3908557Y-16371427D01*
X3908557Y-16371427D02*
X3865700Y-16285713D01*
X3865700Y-16285713D02*
X3822842Y-16242855D01*
X3822842Y-16242855D02*
X3737128Y-16199998D01*
X3737128Y-16199998D02*
X3565700Y-16199998D01*
X3565700Y-16199998D02*
X3479985Y-16242855D01*
X3479985Y-16242855D02*
X3437128Y-16285713D01*
X3437128Y-16285713D02*
X3394271Y-16371427D01*
X3565700Y-15814284D02*
X3565700Y-15128570D01*
X3008557Y-14271426D02*
X3008557Y-14699998D01*
X3008557Y-14699998D02*
X3437128Y-14742855D01*
X3437128Y-14742855D02*
X3394271Y-14699998D01*
X3394271Y-14699998D02*
X3351414Y-14614284D01*
X3351414Y-14614284D02*
X3351414Y-14399998D01*
X3351414Y-14399998D02*
X3394271Y-14314284D01*
X3394271Y-14314284D02*
X3437128Y-14271426D01*
X3437128Y-14271426D02*
X3522842Y-14228569D01*
X3522842Y-14228569D02*
X3737128Y-14228569D01*
X3737128Y-14228569D02*
X3822842Y-14271426D01*
X3822842Y-14271426D02*
X3865700Y-14314284D01*
X3865700Y-14314284D02*
X3908557Y-14399998D01*
X3908557Y-14399998D02*
X3908557Y-14614284D01*
X3908557Y-14614284D02*
X3865700Y-14699998D01*
X3865700Y-14699998D02*
X3822842Y-14742855D01*
X3008557Y-13414283D02*
X3008557Y-13842855D01*
X3008557Y-13842855D02*
X3437128Y-13885712D01*
X3437128Y-13885712D02*
X3394271Y-13842855D01*
X3394271Y-13842855D02*
X3351414Y-13757141D01*
X3351414Y-13757141D02*
X3351414Y-13542855D01*
X3351414Y-13542855D02*
X3394271Y-13457141D01*
X3394271Y-13457141D02*
X3437128Y-13414283D01*
X3437128Y-13414283D02*
X3522842Y-13371426D01*
X3522842Y-13371426D02*
X3737128Y-13371426D01*
X3737128Y-13371426D02*
X3822842Y-13414283D01*
X3822842Y-13414283D02*
X3865700Y-13457141D01*
X3865700Y-13457141D02*
X3908557Y-13542855D01*
X3908557Y-13542855D02*
X3908557Y-13757141D01*
X3908557Y-13757141D02*
X3865700Y-13842855D01*
X3865700Y-13842855D02*
X3822842Y-13885712D01*
X3908557Y-12985712D02*
X3008557Y-12985712D01*
X3008557Y-12985712D02*
X3008557Y-12642855D01*
X3008557Y-12642855D02*
X3051414Y-12557140D01*
X3051414Y-12557140D02*
X3094271Y-12514283D01*
X3094271Y-12514283D02*
X3179985Y-12471426D01*
X3179985Y-12471426D02*
X3308557Y-12471426D01*
X3308557Y-12471426D02*
X3394271Y-12514283D01*
X3394271Y-12514283D02*
X3437128Y-12557140D01*
X3437128Y-12557140D02*
X3479985Y-12642855D01*
X3479985Y-12642855D02*
X3479985Y-12985712D01*
X3822842Y-11571426D02*
X3865700Y-11614283D01*
X3865700Y-11614283D02*
X3908557Y-11742855D01*
X3908557Y-11742855D02*
X3908557Y-11828569D01*
X3908557Y-11828569D02*
X3865700Y-11957140D01*
X3865700Y-11957140D02*
X3779985Y-12042855D01*
X3779985Y-12042855D02*
X3694271Y-12085712D01*
X3694271Y-12085712D02*
X3522842Y-12128569D01*
X3522842Y-12128569D02*
X3394271Y-12128569D01*
X3394271Y-12128569D02*
X3222842Y-12085712D01*
X3222842Y-12085712D02*
X3137128Y-12042855D01*
X3137128Y-12042855D02*
X3051414Y-11957140D01*
X3051414Y-11957140D02*
X3008557Y-11828569D01*
X3008557Y-11828569D02*
X3008557Y-11742855D01*
X3008557Y-11742855D02*
X3051414Y-11614283D01*
X3051414Y-11614283D02*
X3094271Y-11571426D01*
X3908557Y-11185712D02*
X3008557Y-11185712D01*
X3008557Y-11185712D02*
X3908557Y-10671426D01*
X3908557Y-10671426D02*
X3008557Y-10671426D01*
X58138096Y-55501080D02*
X57614286Y-55501080D01*
X57614286Y-55501080D02*
X57614286Y-54401080D01*
X59133334Y-55501080D02*
X58766667Y-54977271D01*
X58504762Y-55501080D02*
X58504762Y-54401080D01*
X58504762Y-54401080D02*
X58923810Y-54401080D01*
X58923810Y-54401080D02*
X59028572Y-54453461D01*
X59028572Y-54453461D02*
X59080953Y-54505842D01*
X59080953Y-54505842D02*
X59133334Y-54610604D01*
X59133334Y-54610604D02*
X59133334Y-54767747D01*
X59133334Y-54767747D02*
X59080953Y-54872509D01*
X59080953Y-54872509D02*
X59028572Y-54924890D01*
X59028572Y-54924890D02*
X58923810Y-54977271D01*
X58923810Y-54977271D02*
X58504762Y-54977271D01*
X60233334Y-55501080D02*
X59866667Y-54977271D01*
X59604762Y-55501080D02*
X59604762Y-54401080D01*
X59604762Y-54401080D02*
X60023810Y-54401080D01*
X60023810Y-54401080D02*
X60128572Y-54453461D01*
X60128572Y-54453461D02*
X60180953Y-54505842D01*
X60180953Y-54505842D02*
X60233334Y-54610604D01*
X60233334Y-54610604D02*
X60233334Y-54767747D01*
X60233334Y-54767747D02*
X60180953Y-54872509D01*
X60180953Y-54872509D02*
X60128572Y-54924890D01*
X60128572Y-54924890D02*
X60023810Y-54977271D01*
X60023810Y-54977271D02*
X59604762Y-54977271D01*
X60861905Y-55501080D02*
X60757143Y-55448700D01*
X60757143Y-55448700D02*
X60704762Y-55396319D01*
X60704762Y-55396319D02*
X60652381Y-55291557D01*
X60652381Y-55291557D02*
X60652381Y-54977271D01*
X60652381Y-54977271D02*
X60704762Y-54872509D01*
X60704762Y-54872509D02*
X60757143Y-54820128D01*
X60757143Y-54820128D02*
X60861905Y-54767747D01*
X60861905Y-54767747D02*
X61019048Y-54767747D01*
X61019048Y-54767747D02*
X61123810Y-54820128D01*
X61123810Y-54820128D02*
X61176191Y-54872509D01*
X61176191Y-54872509D02*
X61228572Y-54977271D01*
X61228572Y-54977271D02*
X61228572Y-55291557D01*
X61228572Y-55291557D02*
X61176191Y-55396319D01*
X61176191Y-55396319D02*
X61123810Y-55448700D01*
X61123810Y-55448700D02*
X61019048Y-55501080D01*
X61019048Y-55501080D02*
X60861905Y-55501080D01*
X61647619Y-55448700D02*
X61752381Y-55501080D01*
X61752381Y-55501080D02*
X61961905Y-55501080D01*
X61961905Y-55501080D02*
X62066667Y-55448700D01*
X62066667Y-55448700D02*
X62119048Y-55343938D01*
X62119048Y-55343938D02*
X62119048Y-55291557D01*
X62119048Y-55291557D02*
X62066667Y-55186795D01*
X62066667Y-55186795D02*
X61961905Y-55134414D01*
X61961905Y-55134414D02*
X61804762Y-55134414D01*
X61804762Y-55134414D02*
X61700000Y-55082033D01*
X61700000Y-55082033D02*
X61647619Y-54977271D01*
X61647619Y-54977271D02*
X61647619Y-54924890D01*
X61647619Y-54924890D02*
X61700000Y-54820128D01*
X61700000Y-54820128D02*
X61804762Y-54767747D01*
X61804762Y-54767747D02*
X61961905Y-54767747D01*
X61961905Y-54767747D02*
X62066667Y-54820128D01*
X63061905Y-55501080D02*
X63061905Y-54924890D01*
X63061905Y-54924890D02*
X63009524Y-54820128D01*
X63009524Y-54820128D02*
X62904762Y-54767747D01*
X62904762Y-54767747D02*
X62695238Y-54767747D01*
X62695238Y-54767747D02*
X62590476Y-54820128D01*
X63061905Y-55448700D02*
X62957143Y-55501080D01*
X62957143Y-55501080D02*
X62695238Y-55501080D01*
X62695238Y-55501080D02*
X62590476Y-55448700D01*
X62590476Y-55448700D02*
X62538095Y-55343938D01*
X62538095Y-55343938D02*
X62538095Y-55239176D01*
X62538095Y-55239176D02*
X62590476Y-55134414D01*
X62590476Y-55134414D02*
X62695238Y-55082033D01*
X62695238Y-55082033D02*
X62957143Y-55082033D01*
X62957143Y-55082033D02*
X63061905Y-55029652D01*
X64371428Y-54505842D02*
X64423809Y-54453461D01*
X64423809Y-54453461D02*
X64528571Y-54401080D01*
X64528571Y-54401080D02*
X64790476Y-54401080D01*
X64790476Y-54401080D02*
X64895238Y-54453461D01*
X64895238Y-54453461D02*
X64947619Y-54505842D01*
X64947619Y-54505842D02*
X65000000Y-54610604D01*
X65000000Y-54610604D02*
X65000000Y-54715366D01*
X65000000Y-54715366D02*
X64947619Y-54872509D01*
X64947619Y-54872509D02*
X64319047Y-55501080D01*
X64319047Y-55501080D02*
X65000000Y-55501080D01*
X65680952Y-54401080D02*
X65785714Y-54401080D01*
X65785714Y-54401080D02*
X65890476Y-54453461D01*
X65890476Y-54453461D02*
X65942857Y-54505842D01*
X65942857Y-54505842D02*
X65995238Y-54610604D01*
X65995238Y-54610604D02*
X66047619Y-54820128D01*
X66047619Y-54820128D02*
X66047619Y-55082033D01*
X66047619Y-55082033D02*
X65995238Y-55291557D01*
X65995238Y-55291557D02*
X65942857Y-55396319D01*
X65942857Y-55396319D02*
X65890476Y-55448700D01*
X65890476Y-55448700D02*
X65785714Y-55501080D01*
X65785714Y-55501080D02*
X65680952Y-55501080D01*
X65680952Y-55501080D02*
X65576190Y-55448700D01*
X65576190Y-55448700D02*
X65523809Y-55396319D01*
X65523809Y-55396319D02*
X65471428Y-55291557D01*
X65471428Y-55291557D02*
X65419047Y-55082033D01*
X65419047Y-55082033D02*
X65419047Y-54820128D01*
X65419047Y-54820128D02*
X65471428Y-54610604D01*
X65471428Y-54610604D02*
X65523809Y-54505842D01*
X65523809Y-54505842D02*
X65576190Y-54453461D01*
X65576190Y-54453461D02*
X65680952Y-54401080D01*
X66466666Y-54505842D02*
X66519047Y-54453461D01*
X66519047Y-54453461D02*
X66623809Y-54401080D01*
X66623809Y-54401080D02*
X66885714Y-54401080D01*
X66885714Y-54401080D02*
X66990476Y-54453461D01*
X66990476Y-54453461D02*
X67042857Y-54505842D01*
X67042857Y-54505842D02*
X67095238Y-54610604D01*
X67095238Y-54610604D02*
X67095238Y-54715366D01*
X67095238Y-54715366D02*
X67042857Y-54872509D01*
X67042857Y-54872509D02*
X66414285Y-55501080D01*
X66414285Y-55501080D02*
X67095238Y-55501080D01*
X68038095Y-54401080D02*
X67828571Y-54401080D01*
X67828571Y-54401080D02*
X67723809Y-54453461D01*
X67723809Y-54453461D02*
X67671428Y-54505842D01*
X67671428Y-54505842D02*
X67566666Y-54662985D01*
X67566666Y-54662985D02*
X67514285Y-54872509D01*
X67514285Y-54872509D02*
X67514285Y-55291557D01*
X67514285Y-55291557D02*
X67566666Y-55396319D01*
X67566666Y-55396319D02*
X67619047Y-55448700D01*
X67619047Y-55448700D02*
X67723809Y-55501080D01*
X67723809Y-55501080D02*
X67933333Y-55501080D01*
X67933333Y-55501080D02*
X68038095Y-55448700D01*
X68038095Y-55448700D02*
X68090476Y-55396319D01*
X68090476Y-55396319D02*
X68142857Y-55291557D01*
X68142857Y-55291557D02*
X68142857Y-55029652D01*
X68142857Y-55029652D02*
X68090476Y-54924890D01*
X68090476Y-54924890D02*
X68038095Y-54872509D01*
X68038095Y-54872509D02*
X67933333Y-54820128D01*
X67933333Y-54820128D02*
X67723809Y-54820128D01*
X67723809Y-54820128D02*
X67619047Y-54872509D01*
X67619047Y-54872509D02*
X67566666Y-54924890D01*
X67566666Y-54924890D02*
X67514285Y-55029652D01*
X69347618Y-54767747D02*
X69609523Y-55501080D01*
X69609523Y-55501080D02*
X69871428Y-54767747D01*
X70866666Y-55501080D02*
X70238094Y-55501080D01*
X70552380Y-55501080D02*
X70552380Y-54401080D01*
X70552380Y-54401080D02*
X70447618Y-54558223D01*
X70447618Y-54558223D02*
X70342856Y-54662985D01*
X70342856Y-54662985D02*
X70238094Y-54715366D01*
X71338094Y-55396319D02*
X71390475Y-55448700D01*
X71390475Y-55448700D02*
X71338094Y-55501080D01*
X71338094Y-55501080D02*
X71285713Y-55448700D01*
X71285713Y-55448700D02*
X71338094Y-55396319D01*
X71338094Y-55396319D02*
X71338094Y-55501080D01*
X72071428Y-54401080D02*
X72176190Y-54401080D01*
X72176190Y-54401080D02*
X72280952Y-54453461D01*
X72280952Y-54453461D02*
X72333333Y-54505842D01*
X72333333Y-54505842D02*
X72385714Y-54610604D01*
X72385714Y-54610604D02*
X72438095Y-54820128D01*
X72438095Y-54820128D02*
X72438095Y-55082033D01*
X72438095Y-55082033D02*
X72385714Y-55291557D01*
X72385714Y-55291557D02*
X72333333Y-55396319D01*
X72333333Y-55396319D02*
X72280952Y-55448700D01*
X72280952Y-55448700D02*
X72176190Y-55501080D01*
X72176190Y-55501080D02*
X72071428Y-55501080D01*
X72071428Y-55501080D02*
X71966666Y-55448700D01*
X71966666Y-55448700D02*
X71914285Y-55396319D01*
X71914285Y-55396319D02*
X71861904Y-55291557D01*
X71861904Y-55291557D02*
X71809523Y-55082033D01*
X71809523Y-55082033D02*
X71809523Y-54820128D01*
X71809523Y-54820128D02*
X71861904Y-54610604D01*
X71861904Y-54610604D02*
X71914285Y-54505842D01*
X71914285Y-54505842D02*
X71966666Y-54453461D01*
X71966666Y-54453461D02*
X72071428Y-54401080D01*
X57914285Y-51632390D02*
X58828571Y-51632390D01*
X58371428Y-53232390D02*
X58371428Y-51632390D01*
X59361905Y-53232390D02*
X59361905Y-51632390D01*
X60276191Y-53232390D02*
X59590476Y-52318104D01*
X60276191Y-51632390D02*
X59361905Y-52546676D01*
X60961905Y-53232390D02*
X60961905Y-51632390D01*
X60961905Y-51632390D02*
X61495238Y-52775247D01*
X61495238Y-52775247D02*
X62028572Y-51632390D01*
X62028572Y-51632390D02*
X62028572Y-53232390D01*
X62790476Y-52394295D02*
X63323809Y-52394295D01*
X63552381Y-53232390D02*
X62790476Y-53232390D01*
X62790476Y-53232390D02*
X62790476Y-51632390D01*
X62790476Y-51632390D02*
X63552381Y-51632390D01*
X64238095Y-53232390D02*
X64238095Y-51632390D01*
X64238095Y-51632390D02*
X64771428Y-52775247D01*
X64771428Y-52775247D02*
X65304762Y-51632390D01*
X65304762Y-51632390D02*
X65304762Y-53232390D01*
X66066666Y-52622866D02*
X67285714Y-52622866D01*
X68885713Y-53232390D02*
X67971427Y-53232390D01*
X68428570Y-53232390D02*
X68428570Y-51632390D01*
X68428570Y-51632390D02*
X68276189Y-51860961D01*
X68276189Y-51860961D02*
X68123808Y-52013342D01*
X68123808Y-52013342D02*
X67971427Y-52089533D01*
X69495237Y-51784771D02*
X69571428Y-51708580D01*
X69571428Y-51708580D02*
X69723809Y-51632390D01*
X69723809Y-51632390D02*
X70104761Y-51632390D01*
X70104761Y-51632390D02*
X70257142Y-51708580D01*
X70257142Y-51708580D02*
X70333333Y-51784771D01*
X70333333Y-51784771D02*
X70409523Y-51937152D01*
X70409523Y-51937152D02*
X70409523Y-52089533D01*
X70409523Y-52089533D02*
X70333333Y-52318104D01*
X70333333Y-52318104D02*
X69419047Y-53232390D01*
X69419047Y-53232390D02*
X70409523Y-53232390D01*
X71323809Y-52318104D02*
X71171428Y-52241914D01*
X71171428Y-52241914D02*
X71095238Y-52165723D01*
X71095238Y-52165723D02*
X71019047Y-52013342D01*
X71019047Y-52013342D02*
X71019047Y-51937152D01*
X71019047Y-51937152D02*
X71095238Y-51784771D01*
X71095238Y-51784771D02*
X71171428Y-51708580D01*
X71171428Y-51708580D02*
X71323809Y-51632390D01*
X71323809Y-51632390D02*
X71628571Y-51632390D01*
X71628571Y-51632390D02*
X71780952Y-51708580D01*
X71780952Y-51708580D02*
X71857143Y-51784771D01*
X71857143Y-51784771D02*
X71933333Y-51937152D01*
X71933333Y-51937152D02*
X71933333Y-52013342D01*
X71933333Y-52013342D02*
X71857143Y-52165723D01*
X71857143Y-52165723D02*
X71780952Y-52241914D01*
X71780952Y-52241914D02*
X71628571Y-52318104D01*
X71628571Y-52318104D02*
X71323809Y-52318104D01*
X71323809Y-52318104D02*
X71171428Y-52394295D01*
X71171428Y-52394295D02*
X71095238Y-52470485D01*
X71095238Y-52470485D02*
X71019047Y-52622866D01*
X71019047Y-52622866D02*
X71019047Y-52927628D01*
X71019047Y-52927628D02*
X71095238Y-53080009D01*
X71095238Y-53080009D02*
X71171428Y-53156200D01*
X71171428Y-53156200D02*
X71323809Y-53232390D01*
X71323809Y-53232390D02*
X71628571Y-53232390D01*
X71628571Y-53232390D02*
X71780952Y-53156200D01*
X71780952Y-53156200D02*
X71857143Y-53080009D01*
X71857143Y-53080009D02*
X71933333Y-52927628D01*
X71933333Y-52927628D02*
X71933333Y-52622866D01*
X71933333Y-52622866D02*
X71857143Y-52470485D01*
X71857143Y-52470485D02*
X71780952Y-52394295D01*
X71780952Y-52394295D02*
X71628571Y-52318104D01*
X13208095Y-2204819D02*
X13208095Y-3014342D01*
X13208095Y-3014342D02*
X13255714Y-3109580D01*
X13255714Y-3109580D02*
X13303333Y-3157200D01*
X13303333Y-3157200D02*
X13398571Y-3204819D01*
X13398571Y-3204819D02*
X13589047Y-3204819D01*
X13589047Y-3204819D02*
X13684285Y-3157200D01*
X13684285Y-3157200D02*
X13731904Y-3109580D01*
X13731904Y-3109580D02*
X13779523Y-3014342D01*
X13779523Y-3014342D02*
X13779523Y-2204819D01*
X14160476Y-2204819D02*
X14779523Y-2204819D01*
X14779523Y-2204819D02*
X14446190Y-2585771D01*
X14446190Y-2585771D02*
X14589047Y-2585771D01*
X14589047Y-2585771D02*
X14684285Y-2633390D01*
X14684285Y-2633390D02*
X14731904Y-2681009D01*
X14731904Y-2681009D02*
X14779523Y-2776247D01*
X14779523Y-2776247D02*
X14779523Y-3014342D01*
X14779523Y-3014342D02*
X14731904Y-3109580D01*
X14731904Y-3109580D02*
X14684285Y-3157200D01*
X14684285Y-3157200D02*
X14589047Y-3204819D01*
X14589047Y-3204819D02*
X14303333Y-3204819D01*
X14303333Y-3204819D02*
X14208095Y-3157200D01*
X14208095Y-3157200D02*
X14160476Y-3109580D01*
X73954819Y-20833333D02*
X74669104Y-20833333D01*
X74669104Y-20833333D02*
X74811961Y-20880952D01*
X74811961Y-20880952D02*
X74907200Y-20976190D01*
X74907200Y-20976190D02*
X74954819Y-21119047D01*
X74954819Y-21119047D02*
X74954819Y-21214285D01*
X74954819Y-20357142D02*
X73954819Y-20357142D01*
X73954819Y-20357142D02*
X73954819Y-19976190D01*
X73954819Y-19976190D02*
X74002438Y-19880952D01*
X74002438Y-19880952D02*
X74050057Y-19833333D01*
X74050057Y-19833333D02*
X74145295Y-19785714D01*
X74145295Y-19785714D02*
X74288152Y-19785714D01*
X74288152Y-19785714D02*
X74383390Y-19833333D01*
X74383390Y-19833333D02*
X74431009Y-19880952D01*
X74431009Y-19880952D02*
X74478628Y-19976190D01*
X74478628Y-19976190D02*
X74478628Y-20357142D01*
X74050057Y-19404761D02*
X74002438Y-19357142D01*
X74002438Y-19357142D02*
X73954819Y-19261904D01*
X73954819Y-19261904D02*
X73954819Y-19023809D01*
X73954819Y-19023809D02*
X74002438Y-18928571D01*
X74002438Y-18928571D02*
X74050057Y-18880952D01*
X74050057Y-18880952D02*
X74145295Y-18833333D01*
X74145295Y-18833333D02*
X74240533Y-18833333D01*
X74240533Y-18833333D02*
X74383390Y-18880952D01*
X74383390Y-18880952D02*
X74954819Y-19452380D01*
X74954819Y-19452380D02*
X74954819Y-18833333D01*
X62738095Y-44454819D02*
X63309523Y-44454819D01*
X63023809Y-45454819D02*
X63023809Y-44454819D01*
X63642857Y-45454819D02*
X63642857Y-44454819D01*
X63642857Y-44454819D02*
X64023809Y-44454819D01*
X64023809Y-44454819D02*
X64119047Y-44502438D01*
X64119047Y-44502438D02*
X64166666Y-44550057D01*
X64166666Y-44550057D02*
X64214285Y-44645295D01*
X64214285Y-44645295D02*
X64214285Y-44788152D01*
X64214285Y-44788152D02*
X64166666Y-44883390D01*
X64166666Y-44883390D02*
X64119047Y-44931009D01*
X64119047Y-44931009D02*
X64023809Y-44978628D01*
X64023809Y-44978628D02*
X63642857Y-44978628D01*
X64595238Y-44550057D02*
X64642857Y-44502438D01*
X64642857Y-44502438D02*
X64738095Y-44454819D01*
X64738095Y-44454819D02*
X64976190Y-44454819D01*
X64976190Y-44454819D02*
X65071428Y-44502438D01*
X65071428Y-44502438D02*
X65119047Y-44550057D01*
X65119047Y-44550057D02*
X65166666Y-44645295D01*
X65166666Y-44645295D02*
X65166666Y-44740533D01*
X65166666Y-44740533D02*
X65119047Y-44883390D01*
X65119047Y-44883390D02*
X64547619Y-45454819D01*
X64547619Y-45454819D02*
X65166666Y-45454819D01*
X73954819Y-11333333D02*
X74669104Y-11333333D01*
X74669104Y-11333333D02*
X74811961Y-11380952D01*
X74811961Y-11380952D02*
X74907200Y-11476190D01*
X74907200Y-11476190D02*
X74954819Y-11619047D01*
X74954819Y-11619047D02*
X74954819Y-11714285D01*
X74954819Y-10857142D02*
X73954819Y-10857142D01*
X73954819Y-10857142D02*
X73954819Y-10476190D01*
X73954819Y-10476190D02*
X74002438Y-10380952D01*
X74002438Y-10380952D02*
X74050057Y-10333333D01*
X74050057Y-10333333D02*
X74145295Y-10285714D01*
X74145295Y-10285714D02*
X74288152Y-10285714D01*
X74288152Y-10285714D02*
X74383390Y-10333333D01*
X74383390Y-10333333D02*
X74431009Y-10380952D01*
X74431009Y-10380952D02*
X74478628Y-10476190D01*
X74478628Y-10476190D02*
X74478628Y-10857142D01*
X74954819Y-9333333D02*
X74954819Y-9904761D01*
X74954819Y-9619047D02*
X73954819Y-9619047D01*
X73954819Y-9619047D02*
X74097676Y-9714285D01*
X74097676Y-9714285D02*
X74192914Y-9809523D01*
X74192914Y-9809523D02*
X74240533Y-9904761D01*
X38333333Y-49859580D02*
X38285714Y-49907200D01*
X38285714Y-49907200D02*
X38142857Y-49954819D01*
X38142857Y-49954819D02*
X38047619Y-49954819D01*
X38047619Y-49954819D02*
X37904762Y-49907200D01*
X37904762Y-49907200D02*
X37809524Y-49811961D01*
X37809524Y-49811961D02*
X37761905Y-49716723D01*
X37761905Y-49716723D02*
X37714286Y-49526247D01*
X37714286Y-49526247D02*
X37714286Y-49383390D01*
X37714286Y-49383390D02*
X37761905Y-49192914D01*
X37761905Y-49192914D02*
X37809524Y-49097676D01*
X37809524Y-49097676D02*
X37904762Y-49002438D01*
X37904762Y-49002438D02*
X38047619Y-48954819D01*
X38047619Y-48954819D02*
X38142857Y-48954819D01*
X38142857Y-48954819D02*
X38285714Y-49002438D01*
X38285714Y-49002438D02*
X38333333Y-49050057D01*
X39238095Y-48954819D02*
X38761905Y-48954819D01*
X38761905Y-48954819D02*
X38714286Y-49431009D01*
X38714286Y-49431009D02*
X38761905Y-49383390D01*
X38761905Y-49383390D02*
X38857143Y-49335771D01*
X38857143Y-49335771D02*
X39095238Y-49335771D01*
X39095238Y-49335771D02*
X39190476Y-49383390D01*
X39190476Y-49383390D02*
X39238095Y-49431009D01*
X39238095Y-49431009D02*
X39285714Y-49526247D01*
X39285714Y-49526247D02*
X39285714Y-49764342D01*
X39285714Y-49764342D02*
X39238095Y-49859580D01*
X39238095Y-49859580D02*
X39190476Y-49907200D01*
X39190476Y-49907200D02*
X39095238Y-49954819D01*
X39095238Y-49954819D02*
X38857143Y-49954819D01*
X38857143Y-49954819D02*
X38761905Y-49907200D01*
X38761905Y-49907200D02*
X38714286Y-49859580D01*
X14333333Y-49859580D02*
X14285714Y-49907200D01*
X14285714Y-49907200D02*
X14142857Y-49954819D01*
X14142857Y-49954819D02*
X14047619Y-49954819D01*
X14047619Y-49954819D02*
X13904762Y-49907200D01*
X13904762Y-49907200D02*
X13809524Y-49811961D01*
X13809524Y-49811961D02*
X13761905Y-49716723D01*
X13761905Y-49716723D02*
X13714286Y-49526247D01*
X13714286Y-49526247D02*
X13714286Y-49383390D01*
X13714286Y-49383390D02*
X13761905Y-49192914D01*
X13761905Y-49192914D02*
X13809524Y-49097676D01*
X13809524Y-49097676D02*
X13904762Y-49002438D01*
X13904762Y-49002438D02*
X14047619Y-48954819D01*
X14047619Y-48954819D02*
X14142857Y-48954819D01*
X14142857Y-48954819D02*
X14285714Y-49002438D01*
X14285714Y-49002438D02*
X14333333Y-49050057D01*
X15190476Y-49288152D02*
X15190476Y-49954819D01*
X14952381Y-48907200D02*
X14714286Y-49621485D01*
X14714286Y-49621485D02*
X15333333Y-49621485D01*
X62738095Y-9824819D02*
X62738095Y-10634342D01*
X62738095Y-10634342D02*
X62785714Y-10729580D01*
X62785714Y-10729580D02*
X62833333Y-10777200D01*
X62833333Y-10777200D02*
X62928571Y-10824819D01*
X62928571Y-10824819D02*
X63119047Y-10824819D01*
X63119047Y-10824819D02*
X63214285Y-10777200D01*
X63214285Y-10777200D02*
X63261904Y-10729580D01*
X63261904Y-10729580D02*
X63309523Y-10634342D01*
X63309523Y-10634342D02*
X63309523Y-9824819D01*
X63738095Y-9920057D02*
X63785714Y-9872438D01*
X63785714Y-9872438D02*
X63880952Y-9824819D01*
X63880952Y-9824819D02*
X64119047Y-9824819D01*
X64119047Y-9824819D02*
X64214285Y-9872438D01*
X64214285Y-9872438D02*
X64261904Y-9920057D01*
X64261904Y-9920057D02*
X64309523Y-10015295D01*
X64309523Y-10015295D02*
X64309523Y-10110533D01*
X64309523Y-10110533D02*
X64261904Y-10253390D01*
X64261904Y-10253390D02*
X63690476Y-10824819D01*
X63690476Y-10824819D02*
X64309523Y-10824819D01*
X22833333Y-55954819D02*
X22500000Y-55478628D01*
X22261905Y-55954819D02*
X22261905Y-54954819D01*
X22261905Y-54954819D02*
X22642857Y-54954819D01*
X22642857Y-54954819D02*
X22738095Y-55002438D01*
X22738095Y-55002438D02*
X22785714Y-55050057D01*
X22785714Y-55050057D02*
X22833333Y-55145295D01*
X22833333Y-55145295D02*
X22833333Y-55288152D01*
X22833333Y-55288152D02*
X22785714Y-55383390D01*
X22785714Y-55383390D02*
X22738095Y-55431009D01*
X22738095Y-55431009D02*
X22642857Y-55478628D01*
X22642857Y-55478628D02*
X22261905Y-55478628D01*
X23166667Y-54954819D02*
X23785714Y-54954819D01*
X23785714Y-54954819D02*
X23452381Y-55335771D01*
X23452381Y-55335771D02*
X23595238Y-55335771D01*
X23595238Y-55335771D02*
X23690476Y-55383390D01*
X23690476Y-55383390D02*
X23738095Y-55431009D01*
X23738095Y-55431009D02*
X23785714Y-55526247D01*
X23785714Y-55526247D02*
X23785714Y-55764342D01*
X23785714Y-55764342D02*
X23738095Y-55859580D01*
X23738095Y-55859580D02*
X23690476Y-55907200D01*
X23690476Y-55907200D02*
X23595238Y-55954819D01*
X23595238Y-55954819D02*
X23309524Y-55954819D01*
X23309524Y-55954819D02*
X23214286Y-55907200D01*
X23214286Y-55907200D02*
X23166667Y-55859580D01*
X58738095Y-44454819D02*
X59309523Y-44454819D01*
X59023809Y-45454819D02*
X59023809Y-44454819D01*
X59642857Y-45454819D02*
X59642857Y-44454819D01*
X59642857Y-44454819D02*
X60023809Y-44454819D01*
X60023809Y-44454819D02*
X60119047Y-44502438D01*
X60119047Y-44502438D02*
X60166666Y-44550057D01*
X60166666Y-44550057D02*
X60214285Y-44645295D01*
X60214285Y-44645295D02*
X60214285Y-44788152D01*
X60214285Y-44788152D02*
X60166666Y-44883390D01*
X60166666Y-44883390D02*
X60119047Y-44931009D01*
X60119047Y-44931009D02*
X60023809Y-44978628D01*
X60023809Y-44978628D02*
X59642857Y-44978628D01*
X61166666Y-45454819D02*
X60595238Y-45454819D01*
X60880952Y-45454819D02*
X60880952Y-44454819D01*
X60880952Y-44454819D02*
X60785714Y-44597676D01*
X60785714Y-44597676D02*
X60690476Y-44692914D01*
X60690476Y-44692914D02*
X60595238Y-44740533D01*
X33528095Y-4744819D02*
X33528095Y-5554342D01*
X33528095Y-5554342D02*
X33575714Y-5649580D01*
X33575714Y-5649580D02*
X33623333Y-5697200D01*
X33623333Y-5697200D02*
X33718571Y-5744819D01*
X33718571Y-5744819D02*
X33909047Y-5744819D01*
X33909047Y-5744819D02*
X34004285Y-5697200D01*
X34004285Y-5697200D02*
X34051904Y-5649580D01*
X34051904Y-5649580D02*
X34099523Y-5554342D01*
X34099523Y-5554342D02*
X34099523Y-4744819D01*
X35004285Y-5078152D02*
X35004285Y-5744819D01*
X34766190Y-4697200D02*
X34528095Y-5411485D01*
X34528095Y-5411485D02*
X35147142Y-5411485D01*
X30333333Y-49859580D02*
X30285714Y-49907200D01*
X30285714Y-49907200D02*
X30142857Y-49954819D01*
X30142857Y-49954819D02*
X30047619Y-49954819D01*
X30047619Y-49954819D02*
X29904762Y-49907200D01*
X29904762Y-49907200D02*
X29809524Y-49811961D01*
X29809524Y-49811961D02*
X29761905Y-49716723D01*
X29761905Y-49716723D02*
X29714286Y-49526247D01*
X29714286Y-49526247D02*
X29714286Y-49383390D01*
X29714286Y-49383390D02*
X29761905Y-49192914D01*
X29761905Y-49192914D02*
X29809524Y-49097676D01*
X29809524Y-49097676D02*
X29904762Y-49002438D01*
X29904762Y-49002438D02*
X30047619Y-48954819D01*
X30047619Y-48954819D02*
X30142857Y-48954819D01*
X30142857Y-48954819D02*
X30285714Y-49002438D01*
X30285714Y-49002438D02*
X30333333Y-49050057D01*
X30714286Y-49050057D02*
X30761905Y-49002438D01*
X30761905Y-49002438D02*
X30857143Y-48954819D01*
X30857143Y-48954819D02*
X31095238Y-48954819D01*
X31095238Y-48954819D02*
X31190476Y-49002438D01*
X31190476Y-49002438D02*
X31238095Y-49050057D01*
X31238095Y-49050057D02*
X31285714Y-49145295D01*
X31285714Y-49145295D02*
X31285714Y-49240533D01*
X31285714Y-49240533D02*
X31238095Y-49383390D01*
X31238095Y-49383390D02*
X30666667Y-49954819D01*
X30666667Y-49954819D02*
X31285714Y-49954819D01*
X73954819Y-35333333D02*
X74669104Y-35333333D01*
X74669104Y-35333333D02*
X74811961Y-35380952D01*
X74811961Y-35380952D02*
X74907200Y-35476190D01*
X74907200Y-35476190D02*
X74954819Y-35619047D01*
X74954819Y-35619047D02*
X74954819Y-35714285D01*
X74954819Y-34857142D02*
X73954819Y-34857142D01*
X73954819Y-34857142D02*
X73954819Y-34476190D01*
X73954819Y-34476190D02*
X74002438Y-34380952D01*
X74002438Y-34380952D02*
X74050057Y-34333333D01*
X74050057Y-34333333D02*
X74145295Y-34285714D01*
X74145295Y-34285714D02*
X74288152Y-34285714D01*
X74288152Y-34285714D02*
X74383390Y-34333333D01*
X74383390Y-34333333D02*
X74431009Y-34380952D01*
X74431009Y-34380952D02*
X74478628Y-34476190D01*
X74478628Y-34476190D02*
X74478628Y-34857142D01*
X74288152Y-33428571D02*
X74954819Y-33428571D01*
X73907200Y-33666666D02*
X74621485Y-33904761D01*
X74621485Y-33904761D02*
X74621485Y-33285714D01*
X16833333Y-55954819D02*
X16500000Y-55478628D01*
X16261905Y-55954819D02*
X16261905Y-54954819D01*
X16261905Y-54954819D02*
X16642857Y-54954819D01*
X16642857Y-54954819D02*
X16738095Y-55002438D01*
X16738095Y-55002438D02*
X16785714Y-55050057D01*
X16785714Y-55050057D02*
X16833333Y-55145295D01*
X16833333Y-55145295D02*
X16833333Y-55288152D01*
X16833333Y-55288152D02*
X16785714Y-55383390D01*
X16785714Y-55383390D02*
X16738095Y-55431009D01*
X16738095Y-55431009D02*
X16642857Y-55478628D01*
X16642857Y-55478628D02*
X16261905Y-55478628D01*
X17738095Y-54954819D02*
X17261905Y-54954819D01*
X17261905Y-54954819D02*
X17214286Y-55431009D01*
X17214286Y-55431009D02*
X17261905Y-55383390D01*
X17261905Y-55383390D02*
X17357143Y-55335771D01*
X17357143Y-55335771D02*
X17595238Y-55335771D01*
X17595238Y-55335771D02*
X17690476Y-55383390D01*
X17690476Y-55383390D02*
X17738095Y-55431009D01*
X17738095Y-55431009D02*
X17785714Y-55526247D01*
X17785714Y-55526247D02*
X17785714Y-55764342D01*
X17785714Y-55764342D02*
X17738095Y-55859580D01*
X17738095Y-55859580D02*
X17690476Y-55907200D01*
X17690476Y-55907200D02*
X17595238Y-55954819D01*
X17595238Y-55954819D02*
X17357143Y-55954819D01*
X17357143Y-55954819D02*
X17261905Y-55907200D01*
X17261905Y-55907200D02*
X17214286Y-55859580D01*
X44833333Y-51359580D02*
X44785714Y-51407200D01*
X44785714Y-51407200D02*
X44642857Y-51454819D01*
X44642857Y-51454819D02*
X44547619Y-51454819D01*
X44547619Y-51454819D02*
X44404762Y-51407200D01*
X44404762Y-51407200D02*
X44309524Y-51311961D01*
X44309524Y-51311961D02*
X44261905Y-51216723D01*
X44261905Y-51216723D02*
X44214286Y-51026247D01*
X44214286Y-51026247D02*
X44214286Y-50883390D01*
X44214286Y-50883390D02*
X44261905Y-50692914D01*
X44261905Y-50692914D02*
X44309524Y-50597676D01*
X44309524Y-50597676D02*
X44404762Y-50502438D01*
X44404762Y-50502438D02*
X44547619Y-50454819D01*
X44547619Y-50454819D02*
X44642857Y-50454819D01*
X44642857Y-50454819D02*
X44785714Y-50502438D01*
X44785714Y-50502438D02*
X44833333Y-50550057D01*
X45690476Y-50454819D02*
X45500000Y-50454819D01*
X45500000Y-50454819D02*
X45404762Y-50502438D01*
X45404762Y-50502438D02*
X45357143Y-50550057D01*
X45357143Y-50550057D02*
X45261905Y-50692914D01*
X45261905Y-50692914D02*
X45214286Y-50883390D01*
X45214286Y-50883390D02*
X45214286Y-51264342D01*
X45214286Y-51264342D02*
X45261905Y-51359580D01*
X45261905Y-51359580D02*
X45309524Y-51407200D01*
X45309524Y-51407200D02*
X45404762Y-51454819D01*
X45404762Y-51454819D02*
X45595238Y-51454819D01*
X45595238Y-51454819D02*
X45690476Y-51407200D01*
X45690476Y-51407200D02*
X45738095Y-51359580D01*
X45738095Y-51359580D02*
X45785714Y-51264342D01*
X45785714Y-51264342D02*
X45785714Y-51026247D01*
X45785714Y-51026247D02*
X45738095Y-50931009D01*
X45738095Y-50931009D02*
X45690476Y-50883390D01*
X45690476Y-50883390D02*
X45595238Y-50835771D01*
X45595238Y-50835771D02*
X45404762Y-50835771D01*
X45404762Y-50835771D02*
X45309524Y-50883390D01*
X45309524Y-50883390D02*
X45261905Y-50931009D01*
X45261905Y-50931009D02*
X45214286Y-51026247D01*
X52531905Y-50954819D02*
X52531905Y-49954819D01*
X52531905Y-49954819D02*
X52770000Y-49954819D01*
X52770000Y-49954819D02*
X52912857Y-50002438D01*
X52912857Y-50002438D02*
X53008095Y-50097676D01*
X53008095Y-50097676D02*
X53055714Y-50192914D01*
X53055714Y-50192914D02*
X53103333Y-50383390D01*
X53103333Y-50383390D02*
X53103333Y-50526247D01*
X53103333Y-50526247D02*
X53055714Y-50716723D01*
X53055714Y-50716723D02*
X53008095Y-50811961D01*
X53008095Y-50811961D02*
X52912857Y-50907200D01*
X52912857Y-50907200D02*
X52770000Y-50954819D01*
X52770000Y-50954819D02*
X52531905Y-50954819D01*
X54055714Y-50954819D02*
X53484286Y-50954819D01*
X53770000Y-50954819D02*
X53770000Y-49954819D01*
X53770000Y-49954819D02*
X53674762Y-50097676D01*
X53674762Y-50097676D02*
X53579524Y-50192914D01*
X53579524Y-50192914D02*
X53484286Y-50240533D01*
X50038095Y-7284819D02*
X50038095Y-8094342D01*
X50038095Y-8094342D02*
X50085714Y-8189580D01*
X50085714Y-8189580D02*
X50133333Y-8237200D01*
X50133333Y-8237200D02*
X50228571Y-8284819D01*
X50228571Y-8284819D02*
X50419047Y-8284819D01*
X50419047Y-8284819D02*
X50514285Y-8237200D01*
X50514285Y-8237200D02*
X50561904Y-8189580D01*
X50561904Y-8189580D02*
X50609523Y-8094342D01*
X50609523Y-8094342D02*
X50609523Y-7284819D01*
X51609523Y-8284819D02*
X51038095Y-8284819D01*
X51323809Y-8284819D02*
X51323809Y-7284819D01*
X51323809Y-7284819D02*
X51228571Y-7427676D01*
X51228571Y-7427676D02*
X51133333Y-7522914D01*
X51133333Y-7522914D02*
X51038095Y-7570533D01*
X29857143Y-55907200D02*
X30000000Y-55954819D01*
X30000000Y-55954819D02*
X30238095Y-55954819D01*
X30238095Y-55954819D02*
X30333333Y-55907200D01*
X30333333Y-55907200D02*
X30380952Y-55859580D01*
X30380952Y-55859580D02*
X30428571Y-55764342D01*
X30428571Y-55764342D02*
X30428571Y-55669104D01*
X30428571Y-55669104D02*
X30380952Y-55573866D01*
X30380952Y-55573866D02*
X30333333Y-55526247D01*
X30333333Y-55526247D02*
X30238095Y-55478628D01*
X30238095Y-55478628D02*
X30047619Y-55431009D01*
X30047619Y-55431009D02*
X29952381Y-55383390D01*
X29952381Y-55383390D02*
X29904762Y-55335771D01*
X29904762Y-55335771D02*
X29857143Y-55240533D01*
X29857143Y-55240533D02*
X29857143Y-55145295D01*
X29857143Y-55145295D02*
X29904762Y-55050057D01*
X29904762Y-55050057D02*
X29952381Y-55002438D01*
X29952381Y-55002438D02*
X30047619Y-54954819D01*
X30047619Y-54954819D02*
X30285714Y-54954819D01*
X30285714Y-54954819D02*
X30428571Y-55002438D01*
X31142857Y-54954819D02*
X31142857Y-55669104D01*
X31142857Y-55669104D02*
X31095238Y-55811961D01*
X31095238Y-55811961D02*
X31000000Y-55907200D01*
X31000000Y-55907200D02*
X30857143Y-55954819D01*
X30857143Y-55954819D02*
X30761905Y-55954819D01*
X32142857Y-55954819D02*
X31571429Y-55954819D01*
X31857143Y-55954819D02*
X31857143Y-54954819D01*
X31857143Y-54954819D02*
X31761905Y-55097676D01*
X31761905Y-55097676D02*
X31666667Y-55192914D01*
X31666667Y-55192914D02*
X31571429Y-55240533D01*
X22333333Y-49859580D02*
X22285714Y-49907200D01*
X22285714Y-49907200D02*
X22142857Y-49954819D01*
X22142857Y-49954819D02*
X22047619Y-49954819D01*
X22047619Y-49954819D02*
X21904762Y-49907200D01*
X21904762Y-49907200D02*
X21809524Y-49811961D01*
X21809524Y-49811961D02*
X21761905Y-49716723D01*
X21761905Y-49716723D02*
X21714286Y-49526247D01*
X21714286Y-49526247D02*
X21714286Y-49383390D01*
X21714286Y-49383390D02*
X21761905Y-49192914D01*
X21761905Y-49192914D02*
X21809524Y-49097676D01*
X21809524Y-49097676D02*
X21904762Y-49002438D01*
X21904762Y-49002438D02*
X22047619Y-48954819D01*
X22047619Y-48954819D02*
X22142857Y-48954819D01*
X22142857Y-48954819D02*
X22285714Y-49002438D01*
X22285714Y-49002438D02*
X22333333Y-49050057D01*
X23285714Y-49954819D02*
X22714286Y-49954819D01*
X23000000Y-49954819D02*
X23000000Y-48954819D01*
X23000000Y-48954819D02*
X22904762Y-49097676D01*
X22904762Y-49097676D02*
X22809524Y-49192914D01*
X22809524Y-49192914D02*
X22714286Y-49240533D01*
X6333333Y-49859580D02*
X6285714Y-49907200D01*
X6285714Y-49907200D02*
X6142857Y-49954819D01*
X6142857Y-49954819D02*
X6047619Y-49954819D01*
X6047619Y-49954819D02*
X5904762Y-49907200D01*
X5904762Y-49907200D02*
X5809524Y-49811961D01*
X5809524Y-49811961D02*
X5761905Y-49716723D01*
X5761905Y-49716723D02*
X5714286Y-49526247D01*
X5714286Y-49526247D02*
X5714286Y-49383390D01*
X5714286Y-49383390D02*
X5761905Y-49192914D01*
X5761905Y-49192914D02*
X5809524Y-49097676D01*
X5809524Y-49097676D02*
X5904762Y-49002438D01*
X5904762Y-49002438D02*
X6047619Y-48954819D01*
X6047619Y-48954819D02*
X6142857Y-48954819D01*
X6142857Y-48954819D02*
X6285714Y-49002438D01*
X6285714Y-49002438D02*
X6333333Y-49050057D01*
X6666667Y-48954819D02*
X7285714Y-48954819D01*
X7285714Y-48954819D02*
X6952381Y-49335771D01*
X6952381Y-49335771D02*
X7095238Y-49335771D01*
X7095238Y-49335771D02*
X7190476Y-49383390D01*
X7190476Y-49383390D02*
X7238095Y-49431009D01*
X7238095Y-49431009D02*
X7285714Y-49526247D01*
X7285714Y-49526247D02*
X7285714Y-49764342D01*
X7285714Y-49764342D02*
X7238095Y-49859580D01*
X7238095Y-49859580D02*
X7190476Y-49907200D01*
X7190476Y-49907200D02*
X7095238Y-49954819D01*
X7095238Y-49954819D02*
X6809524Y-49954819D01*
X6809524Y-49954819D02*
X6714286Y-49907200D01*
X6714286Y-49907200D02*
X6666667Y-49859580D01*
X10833333Y-55954819D02*
X10500000Y-55478628D01*
X10261905Y-55954819D02*
X10261905Y-54954819D01*
X10261905Y-54954819D02*
X10642857Y-54954819D01*
X10642857Y-54954819D02*
X10738095Y-55002438D01*
X10738095Y-55002438D02*
X10785714Y-55050057D01*
X10785714Y-55050057D02*
X10833333Y-55145295D01*
X10833333Y-55145295D02*
X10833333Y-55288152D01*
X10833333Y-55288152D02*
X10785714Y-55383390D01*
X10785714Y-55383390D02*
X10738095Y-55431009D01*
X10738095Y-55431009D02*
X10642857Y-55478628D01*
X10642857Y-55478628D02*
X10261905Y-55478628D01*
X11690476Y-55288152D02*
X11690476Y-55954819D01*
X11452381Y-54907200D02*
X11214286Y-55621485D01*
X11214286Y-55621485D02*
X11833333Y-55621485D01*
X35857143Y-55907200D02*
X36000000Y-55954819D01*
X36000000Y-55954819D02*
X36238095Y-55954819D01*
X36238095Y-55954819D02*
X36333333Y-55907200D01*
X36333333Y-55907200D02*
X36380952Y-55859580D01*
X36380952Y-55859580D02*
X36428571Y-55764342D01*
X36428571Y-55764342D02*
X36428571Y-55669104D01*
X36428571Y-55669104D02*
X36380952Y-55573866D01*
X36380952Y-55573866D02*
X36333333Y-55526247D01*
X36333333Y-55526247D02*
X36238095Y-55478628D01*
X36238095Y-55478628D02*
X36047619Y-55431009D01*
X36047619Y-55431009D02*
X35952381Y-55383390D01*
X35952381Y-55383390D02*
X35904762Y-55335771D01*
X35904762Y-55335771D02*
X35857143Y-55240533D01*
X35857143Y-55240533D02*
X35857143Y-55145295D01*
X35857143Y-55145295D02*
X35904762Y-55050057D01*
X35904762Y-55050057D02*
X35952381Y-55002438D01*
X35952381Y-55002438D02*
X36047619Y-54954819D01*
X36047619Y-54954819D02*
X36285714Y-54954819D01*
X36285714Y-54954819D02*
X36428571Y-55002438D01*
X37142857Y-54954819D02*
X37142857Y-55669104D01*
X37142857Y-55669104D02*
X37095238Y-55811961D01*
X37095238Y-55811961D02*
X37000000Y-55907200D01*
X37000000Y-55907200D02*
X36857143Y-55954819D01*
X36857143Y-55954819D02*
X36761905Y-55954819D01*
X37571429Y-55050057D02*
X37619048Y-55002438D01*
X37619048Y-55002438D02*
X37714286Y-54954819D01*
X37714286Y-54954819D02*
X37952381Y-54954819D01*
X37952381Y-54954819D02*
X38047619Y-55002438D01*
X38047619Y-55002438D02*
X38095238Y-55050057D01*
X38095238Y-55050057D02*
X38142857Y-55145295D01*
X38142857Y-55145295D02*
X38142857Y-55240533D01*
X38142857Y-55240533D02*
X38095238Y-55383390D01*
X38095238Y-55383390D02*
X37523810Y-55954819D01*
X37523810Y-55954819D02*
X38142857Y-55954819D01*
X4833333Y-55954819D02*
X4500000Y-55478628D01*
X4261905Y-55954819D02*
X4261905Y-54954819D01*
X4261905Y-54954819D02*
X4642857Y-54954819D01*
X4642857Y-54954819D02*
X4738095Y-55002438D01*
X4738095Y-55002438D02*
X4785714Y-55050057D01*
X4785714Y-55050057D02*
X4833333Y-55145295D01*
X4833333Y-55145295D02*
X4833333Y-55288152D01*
X4833333Y-55288152D02*
X4785714Y-55383390D01*
X4785714Y-55383390D02*
X4738095Y-55431009D01*
X4738095Y-55431009D02*
X4642857Y-55478628D01*
X4642857Y-55478628D02*
X4261905Y-55478628D01*
X5214286Y-55050057D02*
X5261905Y-55002438D01*
X5261905Y-55002438D02*
X5357143Y-54954819D01*
X5357143Y-54954819D02*
X5595238Y-54954819D01*
X5595238Y-54954819D02*
X5690476Y-55002438D01*
X5690476Y-55002438D02*
X5738095Y-55050057D01*
X5738095Y-55050057D02*
X5785714Y-55145295D01*
X5785714Y-55145295D02*
X5785714Y-55240533D01*
X5785714Y-55240533D02*
X5738095Y-55383390D01*
X5738095Y-55383390D02*
X5166667Y-55954819D01*
X5166667Y-55954819D02*
X5785714Y-55954819D01*
X73954819Y-28333333D02*
X74669104Y-28333333D01*
X74669104Y-28333333D02*
X74811961Y-28380952D01*
X74811961Y-28380952D02*
X74907200Y-28476190D01*
X74907200Y-28476190D02*
X74954819Y-28619047D01*
X74954819Y-28619047D02*
X74954819Y-28714285D01*
X74954819Y-27857142D02*
X73954819Y-27857142D01*
X73954819Y-27857142D02*
X73954819Y-27476190D01*
X73954819Y-27476190D02*
X74002438Y-27380952D01*
X74002438Y-27380952D02*
X74050057Y-27333333D01*
X74050057Y-27333333D02*
X74145295Y-27285714D01*
X74145295Y-27285714D02*
X74288152Y-27285714D01*
X74288152Y-27285714D02*
X74383390Y-27333333D01*
X74383390Y-27333333D02*
X74431009Y-27380952D01*
X74431009Y-27380952D02*
X74478628Y-27476190D01*
X74478628Y-27476190D02*
X74478628Y-27857142D01*
X73954819Y-26952380D02*
X73954819Y-26333333D01*
X73954819Y-26333333D02*
X74335771Y-26666666D01*
X74335771Y-26666666D02*
X74335771Y-26523809D01*
X74335771Y-26523809D02*
X74383390Y-26428571D01*
X74383390Y-26428571D02*
X74431009Y-26380952D01*
X74431009Y-26380952D02*
X74526247Y-26333333D01*
X74526247Y-26333333D02*
X74764342Y-26333333D01*
X74764342Y-26333333D02*
X74859580Y-26380952D01*
X74859580Y-26380952D02*
X74907200Y-26428571D01*
X74907200Y-26428571D02*
X74954819Y-26523809D01*
X74954819Y-26523809D02*
X74954819Y-26809523D01*
X74954819Y-26809523D02*
X74907200Y-26904761D01*
X74907200Y-26904761D02*
X74859580Y-26952380D01*
X738095Y-59050057D02*
X785714Y-59002438D01*
X785714Y-59002438D02*
X880952Y-58954819D01*
X880952Y-58954819D02*
X1119047Y-58954819D01*
X1119047Y-58954819D02*
X1214285Y-59002438D01*
X1214285Y-59002438D02*
X1261904Y-59050057D01*
X1261904Y-59050057D02*
X1309523Y-59145295D01*
X1309523Y-59145295D02*
X1309523Y-59240533D01*
X1309523Y-59240533D02*
X1261904Y-59383390D01*
X1261904Y-59383390D02*
X690476Y-59954819D01*
X690476Y-59954819D02*
X1309523Y-59954819D01*
X1785714Y-59954819D02*
X1976190Y-59954819D01*
X1976190Y-59954819D02*
X2071428Y-59907200D01*
X2071428Y-59907200D02*
X2119047Y-59859580D01*
X2119047Y-59859580D02*
X2214285Y-59716723D01*
X2214285Y-59716723D02*
X2261904Y-59526247D01*
X2261904Y-59526247D02*
X2261904Y-59145295D01*
X2261904Y-59145295D02*
X2214285Y-59050057D01*
X2214285Y-59050057D02*
X2166666Y-59002438D01*
X2166666Y-59002438D02*
X2071428Y-58954819D01*
X2071428Y-58954819D02*
X1880952Y-58954819D01*
X1880952Y-58954819D02*
X1785714Y-59002438D01*
X1785714Y-59002438D02*
X1738095Y-59050057D01*
X1738095Y-59050057D02*
X1690476Y-59145295D01*
X1690476Y-59145295D02*
X1690476Y-59383390D01*
X1690476Y-59383390D02*
X1738095Y-59478628D01*
X1738095Y-59478628D02*
X1785714Y-59526247D01*
X1785714Y-59526247D02*
X1880952Y-59573866D01*
X1880952Y-59573866D02*
X2071428Y-59573866D01*
X2071428Y-59573866D02*
X2166666Y-59526247D01*
X2166666Y-59526247D02*
X2214285Y-59478628D01*
X2214285Y-59478628D02*
X2261904Y-59383390D01*
X738095Y-64050057D02*
X785714Y-64002438D01*
X785714Y-64002438D02*
X880952Y-63954819D01*
X880952Y-63954819D02*
X1119047Y-63954819D01*
X1119047Y-63954819D02*
X1214285Y-64002438D01*
X1214285Y-64002438D02*
X1261904Y-64050057D01*
X1261904Y-64050057D02*
X1309523Y-64145295D01*
X1309523Y-64145295D02*
X1309523Y-64240533D01*
X1309523Y-64240533D02*
X1261904Y-64383390D01*
X1261904Y-64383390D02*
X690476Y-64954819D01*
X690476Y-64954819D02*
X1309523Y-64954819D01*
X1880952Y-64383390D02*
X1785714Y-64335771D01*
X1785714Y-64335771D02*
X1738095Y-64288152D01*
X1738095Y-64288152D02*
X1690476Y-64192914D01*
X1690476Y-64192914D02*
X1690476Y-64145295D01*
X1690476Y-64145295D02*
X1738095Y-64050057D01*
X1738095Y-64050057D02*
X1785714Y-64002438D01*
X1785714Y-64002438D02*
X1880952Y-63954819D01*
X1880952Y-63954819D02*
X2071428Y-63954819D01*
X2071428Y-63954819D02*
X2166666Y-64002438D01*
X2166666Y-64002438D02*
X2214285Y-64050057D01*
X2214285Y-64050057D02*
X2261904Y-64145295D01*
X2261904Y-64145295D02*
X2261904Y-64192914D01*
X2261904Y-64192914D02*
X2214285Y-64288152D01*
X2214285Y-64288152D02*
X2166666Y-64335771D01*
X2166666Y-64335771D02*
X2071428Y-64383390D01*
X2071428Y-64383390D02*
X1880952Y-64383390D01*
X1880952Y-64383390D02*
X1785714Y-64431009D01*
X1785714Y-64431009D02*
X1738095Y-64478628D01*
X1738095Y-64478628D02*
X1690476Y-64573866D01*
X1690476Y-64573866D02*
X1690476Y-64764342D01*
X1690476Y-64764342D02*
X1738095Y-64859580D01*
X1738095Y-64859580D02*
X1785714Y-64907200D01*
X1785714Y-64907200D02*
X1880952Y-64954819D01*
X1880952Y-64954819D02*
X2071428Y-64954819D01*
X2071428Y-64954819D02*
X2166666Y-64907200D01*
X2166666Y-64907200D02*
X2214285Y-64859580D01*
X2214285Y-64859580D02*
X2261904Y-64764342D01*
X2261904Y-64764342D02*
X2261904Y-64573866D01*
X2261904Y-64573866D02*
X2214285Y-64478628D01*
X2214285Y-64478628D02*
X2166666Y-64431009D01*
X2166666Y-64431009D02*
X2071428Y-64383390D01*
X60890476Y-56100390D02*
X60814286Y-56062295D01*
X60814286Y-56062295D02*
X60700000Y-56062295D01*
X60700000Y-56062295D02*
X60585714Y-56100390D01*
X60585714Y-56100390D02*
X60509524Y-56176580D01*
X60509524Y-56176580D02*
X60471429Y-56252771D01*
X60471429Y-56252771D02*
X60433333Y-56405152D01*
X60433333Y-56405152D02*
X60433333Y-56519438D01*
X60433333Y-56519438D02*
X60471429Y-56671819D01*
X60471429Y-56671819D02*
X60509524Y-56748009D01*
X60509524Y-56748009D02*
X60585714Y-56824200D01*
X60585714Y-56824200D02*
X60700000Y-56862295D01*
X60700000Y-56862295D02*
X60776191Y-56862295D01*
X60776191Y-56862295D02*
X60890476Y-56824200D01*
X60890476Y-56824200D02*
X60928572Y-56786104D01*
X60928572Y-56786104D02*
X60928572Y-56519438D01*
X60928572Y-56519438D02*
X60776191Y-56519438D01*
X61271429Y-56062295D02*
X61271429Y-56709914D01*
X61271429Y-56709914D02*
X61309524Y-56786104D01*
X61309524Y-56786104D02*
X61347619Y-56824200D01*
X61347619Y-56824200D02*
X61423810Y-56862295D01*
X61423810Y-56862295D02*
X61576191Y-56862295D01*
X61576191Y-56862295D02*
X61652381Y-56824200D01*
X61652381Y-56824200D02*
X61690476Y-56786104D01*
X61690476Y-56786104D02*
X61728572Y-56709914D01*
X61728572Y-56709914D02*
X61728572Y-56062295D01*
X62109524Y-56862295D02*
X62109524Y-56062295D01*
X62452380Y-56633723D02*
X62833333Y-56633723D01*
X62376190Y-56862295D02*
X62642857Y-56062295D01*
X62642857Y-56062295D02*
X62909523Y-56862295D01*
X64166666Y-56062295D02*
X63785714Y-56062295D01*
X63785714Y-56062295D02*
X63747618Y-56443247D01*
X63747618Y-56443247D02*
X63785714Y-56405152D01*
X63785714Y-56405152D02*
X63861904Y-56367057D01*
X63861904Y-56367057D02*
X64052380Y-56367057D01*
X64052380Y-56367057D02*
X64128571Y-56405152D01*
X64128571Y-56405152D02*
X64166666Y-56443247D01*
X64166666Y-56443247D02*
X64204761Y-56519438D01*
X64204761Y-56519438D02*
X64204761Y-56709914D01*
X64204761Y-56709914D02*
X64166666Y-56786104D01*
X64166666Y-56786104D02*
X64128571Y-56824200D01*
X64128571Y-56824200D02*
X64052380Y-56862295D01*
X64052380Y-56862295D02*
X63861904Y-56862295D01*
X63861904Y-56862295D02*
X63785714Y-56824200D01*
X63785714Y-56824200D02*
X63747618Y-56786104D01*
X65119047Y-56024200D02*
X64433333Y-57052771D01*
X65766666Y-56062295D02*
X65385714Y-56062295D01*
X65385714Y-56062295D02*
X65347618Y-56443247D01*
X65347618Y-56443247D02*
X65385714Y-56405152D01*
X65385714Y-56405152D02*
X65461904Y-56367057D01*
X65461904Y-56367057D02*
X65652380Y-56367057D01*
X65652380Y-56367057D02*
X65728571Y-56405152D01*
X65728571Y-56405152D02*
X65766666Y-56443247D01*
X65766666Y-56443247D02*
X65804761Y-56519438D01*
X65804761Y-56519438D02*
X65804761Y-56709914D01*
X65804761Y-56709914D02*
X65766666Y-56786104D01*
X65766666Y-56786104D02*
X65728571Y-56824200D01*
X65728571Y-56824200D02*
X65652380Y-56862295D01*
X65652380Y-56862295D02*
X65461904Y-56862295D01*
X65461904Y-56862295D02*
X65385714Y-56824200D01*
X65385714Y-56824200D02*
X65347618Y-56786104D01*
X66109523Y-56138485D02*
X66147619Y-56100390D01*
X66147619Y-56100390D02*
X66223809Y-56062295D01*
X66223809Y-56062295D02*
X66414285Y-56062295D01*
X66414285Y-56062295D02*
X66490476Y-56100390D01*
X66490476Y-56100390D02*
X66528571Y-56138485D01*
X66528571Y-56138485D02*
X66566666Y-56214676D01*
X66566666Y-56214676D02*
X66566666Y-56290866D01*
X66566666Y-56290866D02*
X66528571Y-56405152D01*
X66528571Y-56405152D02*
X66071428Y-56862295D01*
X66071428Y-56862295D02*
X66566666Y-56862295D01*
X76785714Y-64954819D02*
X76214286Y-64954819D01*
X76500000Y-64954819D02*
X76500000Y-63954819D01*
X76500000Y-63954819D02*
X76404762Y-64097676D01*
X76404762Y-64097676D02*
X76309524Y-64192914D01*
X76309524Y-64192914D02*
X76214286Y-64240533D01*
X76761904Y-58954819D02*
X76285714Y-58954819D01*
X76285714Y-58954819D02*
X76238095Y-59431009D01*
X76238095Y-59431009D02*
X76285714Y-59383390D01*
X76285714Y-59383390D02*
X76380952Y-59335771D01*
X76380952Y-59335771D02*
X76619047Y-59335771D01*
X76619047Y-59335771D02*
X76714285Y-59383390D01*
X76714285Y-59383390D02*
X76761904Y-59431009D01*
X76761904Y-59431009D02*
X76809523Y-59526247D01*
X76809523Y-59526247D02*
X76809523Y-59764342D01*
X76809523Y-59764342D02*
X76761904Y-59859580D01*
X76761904Y-59859580D02*
X76714285Y-59907200D01*
X76714285Y-59907200D02*
X76619047Y-59954819D01*
X76619047Y-59954819D02*
X76380952Y-59954819D01*
X76380952Y-59954819D02*
X76285714Y-59907200D01*
X76285714Y-59907200D02*
X76238095Y-59859580D01*
X77666666Y-58954819D02*
X77476190Y-58954819D01*
X77476190Y-58954819D02*
X77380952Y-59002438D01*
X77380952Y-59002438D02*
X77333333Y-59050057D01*
X77333333Y-59050057D02*
X77238095Y-59192914D01*
X77238095Y-59192914D02*
X77190476Y-59383390D01*
X77190476Y-59383390D02*
X77190476Y-59764342D01*
X77190476Y-59764342D02*
X77238095Y-59859580D01*
X77238095Y-59859580D02*
X77285714Y-59907200D01*
X77285714Y-59907200D02*
X77380952Y-59954819D01*
X77380952Y-59954819D02*
X77571428Y-59954819D01*
X77571428Y-59954819D02*
X77666666Y-59907200D01*
X77666666Y-59907200D02*
X77714285Y-59859580D01*
X77714285Y-59859580D02*
X77761904Y-59764342D01*
X77761904Y-59764342D02*
X77761904Y-59526247D01*
X77761904Y-59526247D02*
X77714285Y-59431009D01*
X77714285Y-59431009D02*
X77666666Y-59383390D01*
X77666666Y-59383390D02*
X77571428Y-59335771D01*
X77571428Y-59335771D02*
X77380952Y-59335771D01*
X77380952Y-59335771D02*
X77285714Y-59383390D01*
X77285714Y-59383390D02*
X77238095Y-59431009D01*
X77238095Y-59431009D02*
X77190476Y-59526247D01*
%TO.C,U3*%
D11*
X7910000Y-3750000D02*
X7910000Y-44510000D01*
X7910000Y-44510000D02*
X20030000Y-44510000D01*
X12970000Y-3750000D02*
X7910000Y-3750000D01*
X20030000Y-3750000D02*
X14970000Y-3750000D01*
X20030000Y-44510000D02*
X20030000Y-3750000D01*
X4910000Y-3690000D02*
X23030000Y-3690000D01*
X23030000Y-44570000D01*
X4910000Y-44570000D01*
X4910000Y-3690000D01*
X14970000Y-3750000D02*
G75*
G02*
X12970000Y-3750000I-1000000J0D01*
G01*
%TO.C,JP2*%
X70120000Y-15620000D02*
X71500000Y-15620000D01*
X70120000Y-17000000D02*
X70120000Y-15620000D01*
X70120000Y-18270000D02*
X70120000Y-23460000D01*
X70120000Y-18270000D02*
X72880000Y-18270000D01*
X70120000Y-23460000D02*
X72880000Y-23460000D01*
X72880000Y-18270000D02*
X72880000Y-23460000D01*
%TO.C,TP2*%
X64950000Y-47200000D02*
G75*
G02*
X63050000Y-47200000I-950000J0D01*
G01*
X63050000Y-47200000D02*
G75*
G02*
X64950000Y-47200000I950000J0D01*
G01*
%TO.C,JP1*%
X70120000Y-6620000D02*
X71500000Y-6620000D01*
X70120000Y-8000000D02*
X70120000Y-6620000D01*
X70120000Y-9270000D02*
X70120000Y-14460000D01*
X70120000Y-9270000D02*
X72880000Y-9270000D01*
X70120000Y-14460000D02*
X72880000Y-14460000D01*
X72880000Y-9270000D02*
X72880000Y-14460000D01*
%TO.C,C5*%
X35880000Y-45830000D02*
X41120000Y-45830000D01*
X35880000Y-46167000D02*
X35880000Y-45830000D01*
X35880000Y-48570000D02*
X35880000Y-48233000D01*
X41120000Y-45830000D02*
X41120000Y-46167000D01*
X41120000Y-48233000D02*
X41120000Y-48570000D01*
X41120000Y-48570000D02*
X35880000Y-48570000D01*
%TO.C,C4*%
X11880000Y-45830000D02*
X17120000Y-45830000D01*
X11880000Y-46167000D02*
X11880000Y-45830000D01*
X11880000Y-48570000D02*
X11880000Y-48233000D01*
X17120000Y-45830000D02*
X17120000Y-46167000D01*
X17120000Y-48233000D02*
X17120000Y-48570000D01*
X17120000Y-48570000D02*
X11880000Y-48570000D01*
%TO.C,U2*%
X61250000Y-11370000D02*
X61250000Y-36890000D01*
X61250000Y-36890000D02*
X65750000Y-36890000D01*
X62500000Y-11370000D02*
X61250000Y-11370000D01*
X65750000Y-11370000D02*
X64500000Y-11370000D01*
X65750000Y-36890000D02*
X65750000Y-11370000D01*
X58250000Y-11310000D02*
X68750000Y-11310000D01*
X68750000Y-36950000D01*
X58250000Y-36950000D01*
X58250000Y-11310000D01*
X64500000Y-11370000D02*
G75*
G02*
X62500000Y-11370000I-1000000J0D01*
G01*
%TO.C,R3*%
X24370000Y-53300000D02*
X24440000Y-53300000D01*
X24370000Y-53300000D02*
G75*
G02*
X21630000Y-53300000I-1370000J0D01*
G01*
X21630000Y-53300000D02*
G75*
G02*
X24370000Y-53300000I1370000J0D01*
G01*
%TO.C,TP1*%
X60950000Y-47200000D02*
G75*
G02*
X59050000Y-47200000I-950000J0D01*
G01*
X59050000Y-47200000D02*
G75*
G02*
X60950000Y-47200000I950000J0D01*
G01*
%TO.C,U4*%
X28230000Y-6290000D02*
X28230000Y-41970000D01*
X28230000Y-41970000D02*
X40350000Y-41970000D01*
X33290000Y-6290000D02*
X28230000Y-6290000D01*
X40350000Y-6290000D02*
X35290000Y-6290000D01*
X40350000Y-41970000D02*
X40350000Y-6290000D01*
X25230000Y-6230000D02*
X43350000Y-6230000D01*
X43350000Y-42030000D01*
X25230000Y-42030000D01*
X25230000Y-6230000D01*
X35290000Y-6290000D02*
G75*
G02*
X33290000Y-6290000I-1000000J0D01*
G01*
%TO.C,C2*%
X27880000Y-45830000D02*
X33120000Y-45830000D01*
X27880000Y-46167000D02*
X27880000Y-45830000D01*
X27880000Y-48570000D02*
X27880000Y-48233000D01*
X33120000Y-45830000D02*
X33120000Y-46167000D01*
X33120000Y-48233000D02*
X33120000Y-48570000D01*
X33120000Y-48570000D02*
X27880000Y-48570000D01*
%TO.C,JP4*%
X70120000Y-32120000D02*
X71500000Y-32120000D01*
X70120000Y-33500000D02*
X70120000Y-32120000D01*
X70120000Y-34770000D02*
X70120000Y-37420000D01*
X70120000Y-34770000D02*
X72880000Y-34770000D01*
X70120000Y-37420000D02*
X72880000Y-37420000D01*
X72880000Y-34770000D02*
X72880000Y-37420000D01*
%TO.C,R5*%
X18370000Y-53300000D02*
X18440000Y-53300000D01*
X18370000Y-53300000D02*
G75*
G02*
X15630000Y-53300000I-1370000J0D01*
G01*
X15630000Y-53300000D02*
G75*
G02*
X18370000Y-53300000I1370000J0D01*
G01*
%TO.C,C6*%
X42195225Y-45725000D02*
X42695225Y-45725000D01*
X42445225Y-45475000D02*
X42445225Y-45975000D01*
X45000000Y-44620000D02*
X45000000Y-46160000D01*
X45000000Y-48240000D02*
X45000000Y-49780000D01*
X45040000Y-44620000D02*
X45040000Y-46160000D01*
X45040000Y-48240000D02*
X45040000Y-49780000D01*
X45080000Y-44621000D02*
X45080000Y-46160000D01*
X45080000Y-48240000D02*
X45080000Y-49779000D01*
X45120000Y-44623000D02*
X45120000Y-46160000D01*
X45120000Y-48240000D02*
X45120000Y-49777000D01*
X45160000Y-44625000D02*
X45160000Y-46160000D01*
X45160000Y-48240000D02*
X45160000Y-49775000D01*
X45200000Y-44628000D02*
X45200000Y-46160000D01*
X45200000Y-48240000D02*
X45200000Y-49772000D01*
X45240000Y-44631000D02*
X45240000Y-46160000D01*
X45240000Y-48240000D02*
X45240000Y-49769000D01*
X45280000Y-44635000D02*
X45280000Y-46160000D01*
X45280000Y-48240000D02*
X45280000Y-49765000D01*
X45320000Y-44640000D02*
X45320000Y-46160000D01*
X45320000Y-48240000D02*
X45320000Y-49760000D01*
X45360000Y-44645000D02*
X45360000Y-46160000D01*
X45360000Y-48240000D02*
X45360000Y-49755000D01*
X45400000Y-44651000D02*
X45400000Y-46160000D01*
X45400000Y-48240000D02*
X45400000Y-49749000D01*
X45440000Y-44657000D02*
X45440000Y-46160000D01*
X45440000Y-48240000D02*
X45440000Y-49743000D01*
X45480000Y-44664000D02*
X45480000Y-46160000D01*
X45480000Y-48240000D02*
X45480000Y-49736000D01*
X45520000Y-44672000D02*
X45520000Y-46160000D01*
X45520000Y-48240000D02*
X45520000Y-49728000D01*
X45560000Y-44681000D02*
X45560000Y-46160000D01*
X45560000Y-48240000D02*
X45560000Y-49719000D01*
X45600000Y-44690000D02*
X45600000Y-46160000D01*
X45600000Y-48240000D02*
X45600000Y-49710000D01*
X45640000Y-44699000D02*
X45640000Y-46160000D01*
X45640000Y-48240000D02*
X45640000Y-49701000D01*
X45680000Y-44710000D02*
X45680000Y-46160000D01*
X45680000Y-48240000D02*
X45680000Y-49690000D01*
X45720000Y-44721000D02*
X45720000Y-46160000D01*
X45720000Y-48240000D02*
X45720000Y-49679000D01*
X45760000Y-44733000D02*
X45760000Y-46160000D01*
X45760000Y-48240000D02*
X45760000Y-49667000D01*
X45800000Y-44745000D02*
X45800000Y-46160000D01*
X45800000Y-48240000D02*
X45800000Y-49655000D01*
X45840000Y-44758000D02*
X45840000Y-46160000D01*
X45840000Y-48240000D02*
X45840000Y-49642000D01*
X45880000Y-44772000D02*
X45880000Y-46160000D01*
X45880000Y-48240000D02*
X45880000Y-49628000D01*
X45920000Y-44787000D02*
X45920000Y-46160000D01*
X45920000Y-48240000D02*
X45920000Y-49613000D01*
X45960000Y-44802000D02*
X45960000Y-46160000D01*
X45960000Y-48240000D02*
X45960000Y-49598000D01*
X46000000Y-44818000D02*
X46000000Y-46160000D01*
X46000000Y-48240000D02*
X46000000Y-49582000D01*
X46040000Y-44835000D02*
X46040000Y-46160000D01*
X46040000Y-48240000D02*
X46040000Y-49565000D01*
X46080000Y-44853000D02*
X46080000Y-46160000D01*
X46080000Y-48240000D02*
X46080000Y-49547000D01*
X46120000Y-44871000D02*
X46120000Y-46160000D01*
X46120000Y-48240000D02*
X46120000Y-49529000D01*
X46160000Y-44891000D02*
X46160000Y-46160000D01*
X46160000Y-48240000D02*
X46160000Y-49509000D01*
X46200000Y-44911000D02*
X46200000Y-46160000D01*
X46200000Y-48240000D02*
X46200000Y-49489000D01*
X46240000Y-44932000D02*
X46240000Y-46160000D01*
X46240000Y-48240000D02*
X46240000Y-49468000D01*
X46280000Y-44954000D02*
X46280000Y-46160000D01*
X46280000Y-48240000D02*
X46280000Y-49446000D01*
X46320000Y-44977000D02*
X46320000Y-46160000D01*
X46320000Y-48240000D02*
X46320000Y-49423000D01*
X46360000Y-45001000D02*
X46360000Y-46160000D01*
X46360000Y-48240000D02*
X46360000Y-49399000D01*
X46400000Y-45025000D02*
X46400000Y-46160000D01*
X46400000Y-48240000D02*
X46400000Y-49375000D01*
X46440000Y-45051000D02*
X46440000Y-46160000D01*
X46440000Y-48240000D02*
X46440000Y-49349000D01*
X46480000Y-45078000D02*
X46480000Y-46160000D01*
X46480000Y-48240000D02*
X46480000Y-49322000D01*
X46520000Y-45106000D02*
X46520000Y-46160000D01*
X46520000Y-48240000D02*
X46520000Y-49294000D01*
X46560000Y-45135000D02*
X46560000Y-46160000D01*
X46560000Y-48240000D02*
X46560000Y-49265000D01*
X46600000Y-45165000D02*
X46600000Y-46160000D01*
X46600000Y-48240000D02*
X46600000Y-49235000D01*
X46640000Y-45197000D02*
X46640000Y-46160000D01*
X46640000Y-48240000D02*
X46640000Y-49203000D01*
X46680000Y-45230000D02*
X46680000Y-46160000D01*
X46680000Y-48240000D02*
X46680000Y-49170000D01*
X46720000Y-45264000D02*
X46720000Y-46160000D01*
X46720000Y-48240000D02*
X46720000Y-49136000D01*
X46760000Y-45299000D02*
X46760000Y-46160000D01*
X46760000Y-48240000D02*
X46760000Y-49101000D01*
X46800000Y-45336000D02*
X46800000Y-46160000D01*
X46800000Y-48240000D02*
X46800000Y-49064000D01*
X46840000Y-45375000D02*
X46840000Y-46160000D01*
X46840000Y-48240000D02*
X46840000Y-49025000D01*
X46880000Y-45415000D02*
X46880000Y-46160000D01*
X46880000Y-48240000D02*
X46880000Y-48985000D01*
X46920000Y-45457000D02*
X46920000Y-46160000D01*
X46920000Y-48240000D02*
X46920000Y-48943000D01*
X46960000Y-45501000D02*
X46960000Y-46160000D01*
X46960000Y-48240000D02*
X46960000Y-48899000D01*
X47000000Y-45548000D02*
X47000000Y-46160000D01*
X47000000Y-48240000D02*
X47000000Y-48852000D01*
X47040000Y-45596000D02*
X47040000Y-48804000D01*
X47080000Y-45647000D02*
X47080000Y-48753000D01*
X47120000Y-45701000D02*
X47120000Y-48699000D01*
X47160000Y-45757000D02*
X47160000Y-48643000D01*
X47200000Y-45817000D02*
X47200000Y-48583000D01*
X47240000Y-45881000D02*
X47240000Y-48519000D01*
X47280000Y-45949000D02*
X47280000Y-48451000D01*
X47320000Y-46023000D02*
X47320000Y-48377000D01*
X47360000Y-46102000D02*
X47360000Y-48298000D01*
X47400000Y-46189000D02*
X47400000Y-48211000D01*
X47440000Y-46286000D02*
X47440000Y-48114000D01*
X47480000Y-46395000D02*
X47480000Y-48005000D01*
X47520000Y-46523000D02*
X47520000Y-47877000D01*
X47560000Y-46683000D02*
X47560000Y-47717000D01*
X47600000Y-46917000D02*
X47600000Y-47483000D01*
X47620000Y-47200000D02*
G75*
G02*
X42380000Y-47200000I-2620000J0D01*
G01*
X42380000Y-47200000D02*
G75*
G02*
X47620000Y-47200000I2620000J0D01*
G01*
%TO.C,D1*%
X51710000Y-45964000D02*
X51710000Y-46120000D01*
X51710000Y-48280000D02*
X51710000Y-48436000D01*
X51710000Y-45964484D02*
G75*
G02*
X54941437Y-46120000I1560000J-1235516D01*
G01*
X52229039Y-46120000D02*
G75*
G02*
X54310961Y-46120000I1040961J-1080000D01*
G01*
X54310961Y-48280000D02*
G75*
G02*
X52229039Y-48280000I-1040961J1080000D01*
G01*
X54941437Y-48280000D02*
G75*
G02*
X51710000Y-48435516I-1671437J1080000D01*
G01*
%TO.C,U1*%
X48550000Y-8830000D02*
X48550000Y-39430000D01*
X48550000Y-39430000D02*
X53050000Y-39430000D01*
X49800000Y-8830000D02*
X48550000Y-8830000D01*
X53050000Y-8830000D02*
X51800000Y-8830000D01*
X53050000Y-39430000D02*
X53050000Y-8830000D01*
X45550000Y-8770000D02*
X56050000Y-8770000D01*
X56050000Y-39490000D01*
X45550000Y-39490000D01*
X45550000Y-8770000D01*
X51800000Y-8830000D02*
G75*
G02*
X49800000Y-8830000I-1000000J0D01*
G01*
%TO.C,SJ1*%
X29600000Y-53600000D02*
X29600000Y-53000000D01*
X30300000Y-52300000D02*
X31700000Y-52300000D01*
X31700000Y-54300000D02*
X30300000Y-54300000D01*
X32400000Y-53000000D02*
X32400000Y-53600000D01*
X29600000Y-53000000D02*
G75*
G02*
X30300000Y-52300000I699999J1D01*
G01*
X30300000Y-54300000D02*
G75*
G02*
X29600000Y-53600000I-1J699999D01*
G01*
X31700000Y-52300000D02*
G75*
G02*
X32400000Y-53000000I0J-700000D01*
G01*
X32400000Y-53600000D02*
G75*
G02*
X31700000Y-54300000I-700000J0D01*
G01*
%TO.C,C1*%
X19880000Y-45830000D02*
X25120000Y-45830000D01*
X19880000Y-46167000D02*
X19880000Y-45830000D01*
X19880000Y-48570000D02*
X19880000Y-48233000D01*
X25120000Y-45830000D02*
X25120000Y-46167000D01*
X25120000Y-48233000D02*
X25120000Y-48570000D01*
X25120000Y-48570000D02*
X19880000Y-48570000D01*
%TO.C,C3*%
X3880000Y-45830000D02*
X9120000Y-45830000D01*
X3880000Y-46167000D02*
X3880000Y-45830000D01*
X3880000Y-48570000D02*
X3880000Y-48233000D01*
X9120000Y-45830000D02*
X9120000Y-46167000D01*
X9120000Y-48233000D02*
X9120000Y-48570000D01*
X9120000Y-48570000D02*
X3880000Y-48570000D01*
%TO.C,R4*%
X12370000Y-53300000D02*
X12440000Y-53300000D01*
X12370000Y-53300000D02*
G75*
G02*
X9630000Y-53300000I-1370000J0D01*
G01*
X9630000Y-53300000D02*
G75*
G02*
X12370000Y-53300000I1370000J0D01*
G01*
%TO.C,SJ2*%
X35600000Y-53600000D02*
X35600000Y-53000000D01*
X36300000Y-52300000D02*
X37700000Y-52300000D01*
X37700000Y-54300000D02*
X36300000Y-54300000D01*
X38400000Y-53000000D02*
X38400000Y-53600000D01*
X35600000Y-53000000D02*
G75*
G02*
X36300000Y-52300000I699999J1D01*
G01*
X36300000Y-54300000D02*
G75*
G02*
X35600000Y-53600000I-1J699999D01*
G01*
X37700000Y-52300000D02*
G75*
G02*
X38400000Y-53000000I0J-700000D01*
G01*
X38400000Y-53600000D02*
G75*
G02*
X37700000Y-54300000I-700000J0D01*
G01*
%TO.C,R2*%
X6370000Y-53300000D02*
X6440000Y-53300000D01*
X6370000Y-53300000D02*
G75*
G02*
X3630000Y-53300000I-1370000J0D01*
G01*
X3630000Y-53300000D02*
G75*
G02*
X6370000Y-53300000I1370000J0D01*
G01*
%TO.C,JP3*%
X70120000Y-24620000D02*
X71500000Y-24620000D01*
X70120000Y-26000000D02*
X70120000Y-24620000D01*
X70120000Y-27270000D02*
X70120000Y-29920000D01*
X70120000Y-27270000D02*
X72880000Y-27270000D01*
X70120000Y-29920000D02*
X72880000Y-29920000D01*
X72880000Y-27270000D02*
X72880000Y-29920000D01*
%TO.C,J1*%
D10*
X2880000Y-57230000D02*
X2880000Y-65740000D01*
X63500000Y-57230000D02*
X63500000Y-65740000D01*
X75860000Y-57230000D02*
X2880000Y-57230000D01*
X75860000Y-65740000D02*
X75860000Y-57230000D01*
%TD*%
M02*
