%TF.GenerationSoftware,KiCad,Pcbnew,10.0.4*%
%TF.CreationDate,2026-07-26T01:16:41-03:00*%
%TF.ProjectId,tkmem128,746b6d65-6d31-4323-982e-6b696361645f,rev?*%
%TF.SameCoordinates,Original*%
%TF.FileFunction,Legend,Top*%
%TF.FilePolarity,Positive*%
%FSLAX46Y46*%
G04 Gerber Fmt 4.6, Leading zero omitted, Abs format (unit mm)*
G04 Created by KiCad (PCBNEW 10.0.4) date 2026-07-26 01:16:41*
%MOMM*%
%LPD*%
G01*
G04 APERTURE LIST*
G04 Aperture macros list*
%AMRoundRect*
0 Rectangle with rounded corners*
0 $1 Rounding radius*
0 $2 $3 $4 $5 $6 $7 $8 $9 X,Y pos of 4 corners*
0 Add a 4 corners polygon primitive as box body*
4,1,4,$2,$3,$4,$5,$6,$7,$8,$9,$2,$3,0*
0 Add four circle primitives for the rounded corners*
1,1,$1+$1,$2,$3*
1,1,$1+$1,$4,$5*
1,1,$1+$1,$6,$7*
1,1,$1+$1,$8,$9*
0 Add four rect primitives between the rounded corners*
20,1,$1+$1,$2,$3,$4,$5,0*
20,1,$1+$1,$4,$5,$6,$7,0*
20,1,$1+$1,$6,$7,$8,$9,0*
20,1,$1+$1,$8,$9,$2,$3,0*%
%AMFreePoly0*
4,1,23,0.500000,-0.750000,0.000000,-0.750000,0.000000,-0.745722,-0.065263,-0.745722,-0.191342,-0.711940,-0.304381,-0.646677,-0.396677,-0.554381,-0.461940,-0.441342,-0.495722,-0.315263,-0.495722,-0.250000,-0.500000,-0.250000,-0.500000,0.250000,-0.495722,0.250000,-0.495722,0.315263,-0.461940,0.441342,-0.396677,0.554381,-0.304381,0.646677,-0.191342,0.711940,-0.065263,0.745722,0.000000,0.745722,
0.000000,0.750000,0.500000,0.750000,0.500000,-0.750000,0.500000,-0.750000,$1*%
%AMFreePoly1*
4,1,23,0.000000,0.745722,0.065263,0.745722,0.191342,0.711940,0.304381,0.646677,0.396677,0.554381,0.461940,0.441342,0.495722,0.315263,0.495722,0.250000,0.500000,0.250000,0.500000,-0.250000,0.495722,-0.250000,0.495722,-0.315263,0.461940,-0.441342,0.396677,-0.554381,0.304381,-0.646677,0.191342,-0.711940,0.065263,-0.745722,0.000000,-0.745722,0.000000,-0.750000,-0.500000,-0.750000,
-0.500000,0.750000,0.000000,0.750000,0.000000,0.745722,0.000000,0.745722,$1*%
G04 Aperture macros list end*
%ADD10C,0.150000*%
%ADD11C,0.120000*%
%ADD12R,1.700000X1.700000*%
%ADD13C,1.700000*%
%ADD14C,1.600000*%
%ADD15RoundRect,0.250000X-0.950000X-0.550000X0.950000X-0.550000X0.950000X0.550000X-0.950000X0.550000X0*%
%ADD16O,2.400000X1.600000*%
%ADD17C,1.500000*%
%ADD18FreePoly0,0.000000*%
%ADD19FreePoly1,0.000000*%
%ADD20R,1.800000X1.800000*%
%ADD21C,1.800000*%
%ADD22RoundRect,0.250000X-0.550000X-0.550000X0.550000X-0.550000X0.550000X0.550000X-0.550000X0.550000X0*%
G04 APERTURE END LIST*
D10*
X55671429Y-58008557D02*
X55242857Y-58008557D01*
X55242857Y-58008557D02*
X55200000Y-58437128D01*
X55200000Y-58437128D02*
X55242857Y-58394271D01*
X55242857Y-58394271D02*
X55328572Y-58351414D01*
X55328572Y-58351414D02*
X55542857Y-58351414D01*
X55542857Y-58351414D02*
X55628572Y-58394271D01*
X55628572Y-58394271D02*
X55671429Y-58437128D01*
X55671429Y-58437128D02*
X55714286Y-58522842D01*
X55714286Y-58522842D02*
X55714286Y-58737128D01*
X55714286Y-58737128D02*
X55671429Y-58822842D01*
X55671429Y-58822842D02*
X55628572Y-58865700D01*
X55628572Y-58865700D02*
X55542857Y-58908557D01*
X55542857Y-58908557D02*
X55328572Y-58908557D01*
X55328572Y-58908557D02*
X55242857Y-58865700D01*
X55242857Y-58865700D02*
X55200000Y-58822842D01*
X57128571Y-58865700D02*
X57042857Y-58908557D01*
X57042857Y-58908557D02*
X56871429Y-58908557D01*
X56871429Y-58908557D02*
X56785714Y-58865700D01*
X56785714Y-58865700D02*
X56742857Y-58779985D01*
X56742857Y-58779985D02*
X56742857Y-58437128D01*
X56742857Y-58437128D02*
X56785714Y-58351414D01*
X56785714Y-58351414D02*
X56871429Y-58308557D01*
X56871429Y-58308557D02*
X57042857Y-58308557D01*
X57042857Y-58308557D02*
X57128571Y-58351414D01*
X57128571Y-58351414D02*
X57171429Y-58437128D01*
X57171429Y-58437128D02*
X57171429Y-58522842D01*
X57171429Y-58522842D02*
X56742857Y-58608557D01*
X58671429Y-58008557D02*
X58242857Y-58008557D01*
X58242857Y-58008557D02*
X58200000Y-58437128D01*
X58200000Y-58437128D02*
X58242857Y-58394271D01*
X58242857Y-58394271D02*
X58328572Y-58351414D01*
X58328572Y-58351414D02*
X58542857Y-58351414D01*
X58542857Y-58351414D02*
X58628572Y-58394271D01*
X58628572Y-58394271D02*
X58671429Y-58437128D01*
X58671429Y-58437128D02*
X58714286Y-58522842D01*
X58714286Y-58522842D02*
X58714286Y-58737128D01*
X58714286Y-58737128D02*
X58671429Y-58822842D01*
X58671429Y-58822842D02*
X58628572Y-58865700D01*
X58628572Y-58865700D02*
X58542857Y-58908557D01*
X58542857Y-58908557D02*
X58328572Y-58908557D01*
X58328572Y-58908557D02*
X58242857Y-58865700D01*
X58242857Y-58865700D02*
X58200000Y-58822842D01*
X59057143Y-58094271D02*
X59100000Y-58051414D01*
X59100000Y-58051414D02*
X59185715Y-58008557D01*
X59185715Y-58008557D02*
X59400000Y-58008557D01*
X59400000Y-58008557D02*
X59485715Y-58051414D01*
X59485715Y-58051414D02*
X59528572Y-58094271D01*
X59528572Y-58094271D02*
X59571429Y-58179985D01*
X59571429Y-58179985D02*
X59571429Y-58265700D01*
X59571429Y-58265700D02*
X59528572Y-58394271D01*
X59528572Y-58394271D02*
X59014286Y-58908557D01*
X59014286Y-58908557D02*
X59571429Y-58908557D01*
X60642857Y-58437128D02*
X61328572Y-58437128D01*
X61328572Y-58694271D02*
X60642857Y-58694271D01*
X62914286Y-58051414D02*
X62828572Y-58008557D01*
X62828572Y-58008557D02*
X62700000Y-58008557D01*
X62700000Y-58008557D02*
X62571429Y-58051414D01*
X62571429Y-58051414D02*
X62485714Y-58137128D01*
X62485714Y-58137128D02*
X62442857Y-58222842D01*
X62442857Y-58222842D02*
X62400000Y-58394271D01*
X62400000Y-58394271D02*
X62400000Y-58522842D01*
X62400000Y-58522842D02*
X62442857Y-58694271D01*
X62442857Y-58694271D02*
X62485714Y-58779985D01*
X62485714Y-58779985D02*
X62571429Y-58865700D01*
X62571429Y-58865700D02*
X62700000Y-58908557D01*
X62700000Y-58908557D02*
X62785714Y-58908557D01*
X62785714Y-58908557D02*
X62914286Y-58865700D01*
X62914286Y-58865700D02*
X62957143Y-58822842D01*
X62957143Y-58822842D02*
X62957143Y-58522842D01*
X62957143Y-58522842D02*
X62785714Y-58522842D01*
X63342857Y-58908557D02*
X63342857Y-58008557D01*
X63342857Y-58008557D02*
X63857143Y-58908557D01*
X63857143Y-58908557D02*
X63857143Y-58008557D01*
X64285714Y-58908557D02*
X64285714Y-58008557D01*
X64285714Y-58008557D02*
X64500000Y-58008557D01*
X64500000Y-58008557D02*
X64628571Y-58051414D01*
X64628571Y-58051414D02*
X64714286Y-58137128D01*
X64714286Y-58137128D02*
X64757143Y-58222842D01*
X64757143Y-58222842D02*
X64800000Y-58394271D01*
X64800000Y-58394271D02*
X64800000Y-58522842D01*
X64800000Y-58522842D02*
X64757143Y-58694271D01*
X64757143Y-58694271D02*
X64714286Y-58779985D01*
X64714286Y-58779985D02*
X64628571Y-58865700D01*
X64628571Y-58865700D02*
X64500000Y-58908557D01*
X64500000Y-58908557D02*
X64285714Y-58908557D01*
X47757142Y-54001080D02*
X47757142Y-52901080D01*
X48385714Y-54001080D02*
X47914285Y-53372509D01*
X48385714Y-52901080D02*
X47757142Y-53529652D01*
X48857142Y-54001080D02*
X48857142Y-53267747D01*
X48857142Y-52901080D02*
X48804761Y-52953461D01*
X48804761Y-52953461D02*
X48857142Y-53005842D01*
X48857142Y-53005842D02*
X48909523Y-52953461D01*
X48909523Y-52953461D02*
X48857142Y-52901080D01*
X48857142Y-52901080D02*
X48857142Y-53005842D01*
X50009524Y-53896319D02*
X49957143Y-53948700D01*
X49957143Y-53948700D02*
X49800000Y-54001080D01*
X49800000Y-54001080D02*
X49695238Y-54001080D01*
X49695238Y-54001080D02*
X49538095Y-53948700D01*
X49538095Y-53948700D02*
X49433333Y-53843938D01*
X49433333Y-53843938D02*
X49380952Y-53739176D01*
X49380952Y-53739176D02*
X49328571Y-53529652D01*
X49328571Y-53529652D02*
X49328571Y-53372509D01*
X49328571Y-53372509D02*
X49380952Y-53162985D01*
X49380952Y-53162985D02*
X49433333Y-53058223D01*
X49433333Y-53058223D02*
X49538095Y-52953461D01*
X49538095Y-52953461D02*
X49695238Y-52901080D01*
X49695238Y-52901080D02*
X49800000Y-52901080D01*
X49800000Y-52901080D02*
X49957143Y-52953461D01*
X49957143Y-52953461D02*
X50009524Y-53005842D01*
X50952381Y-54001080D02*
X50952381Y-53424890D01*
X50952381Y-53424890D02*
X50900000Y-53320128D01*
X50900000Y-53320128D02*
X50795238Y-53267747D01*
X50795238Y-53267747D02*
X50585714Y-53267747D01*
X50585714Y-53267747D02*
X50480952Y-53320128D01*
X50952381Y-53948700D02*
X50847619Y-54001080D01*
X50847619Y-54001080D02*
X50585714Y-54001080D01*
X50585714Y-54001080D02*
X50480952Y-53948700D01*
X50480952Y-53948700D02*
X50428571Y-53843938D01*
X50428571Y-53843938D02*
X50428571Y-53739176D01*
X50428571Y-53739176D02*
X50480952Y-53634414D01*
X50480952Y-53634414D02*
X50585714Y-53582033D01*
X50585714Y-53582033D02*
X50847619Y-53582033D01*
X50847619Y-53582033D02*
X50952381Y-53529652D01*
X51947619Y-54001080D02*
X51947619Y-52901080D01*
X51947619Y-53948700D02*
X51842857Y-54001080D01*
X51842857Y-54001080D02*
X51633333Y-54001080D01*
X51633333Y-54001080D02*
X51528571Y-53948700D01*
X51528571Y-53948700D02*
X51476190Y-53896319D01*
X51476190Y-53896319D02*
X51423809Y-53791557D01*
X51423809Y-53791557D02*
X51423809Y-53477271D01*
X51423809Y-53477271D02*
X51476190Y-53372509D01*
X51476190Y-53372509D02*
X51528571Y-53320128D01*
X51528571Y-53320128D02*
X51633333Y-53267747D01*
X51633333Y-53267747D02*
X51842857Y-53267747D01*
X51842857Y-53267747D02*
X51947619Y-53320128D01*
X53204761Y-53267747D02*
X53466666Y-54001080D01*
X53466666Y-54001080D02*
X53728571Y-53267747D01*
X54723809Y-54001080D02*
X54095237Y-54001080D01*
X54409523Y-54001080D02*
X54409523Y-52901080D01*
X54409523Y-52901080D02*
X54304761Y-53058223D01*
X54304761Y-53058223D02*
X54199999Y-53162985D01*
X54199999Y-53162985D02*
X54095237Y-53215366D01*
X55195237Y-53896319D02*
X55247618Y-53948700D01*
X55247618Y-53948700D02*
X55195237Y-54001080D01*
X55195237Y-54001080D02*
X55142856Y-53948700D01*
X55142856Y-53948700D02*
X55195237Y-53896319D01*
X55195237Y-53896319D02*
X55195237Y-54001080D01*
X55928571Y-52901080D02*
X56033333Y-52901080D01*
X56033333Y-52901080D02*
X56138095Y-52953461D01*
X56138095Y-52953461D02*
X56190476Y-53005842D01*
X56190476Y-53005842D02*
X56242857Y-53110604D01*
X56242857Y-53110604D02*
X56295238Y-53320128D01*
X56295238Y-53320128D02*
X56295238Y-53582033D01*
X56295238Y-53582033D02*
X56242857Y-53791557D01*
X56242857Y-53791557D02*
X56190476Y-53896319D01*
X56190476Y-53896319D02*
X56138095Y-53948700D01*
X56138095Y-53948700D02*
X56033333Y-54001080D01*
X56033333Y-54001080D02*
X55928571Y-54001080D01*
X55928571Y-54001080D02*
X55823809Y-53948700D01*
X55823809Y-53948700D02*
X55771428Y-53896319D01*
X55771428Y-53896319D02*
X55719047Y-53791557D01*
X55719047Y-53791557D02*
X55666666Y-53582033D01*
X55666666Y-53582033D02*
X55666666Y-53320128D01*
X55666666Y-53320128D02*
X55719047Y-53110604D01*
X55719047Y-53110604D02*
X55771428Y-53005842D01*
X55771428Y-53005842D02*
X55823809Y-52953461D01*
X55823809Y-52953461D02*
X55928571Y-52901080D01*
X44914285Y-50132390D02*
X45828571Y-50132390D01*
X45371428Y-51732390D02*
X45371428Y-50132390D01*
X46361905Y-51732390D02*
X46361905Y-50132390D01*
X47276191Y-51732390D02*
X46590476Y-50818104D01*
X47276191Y-50132390D02*
X46361905Y-51046676D01*
X47961905Y-51732390D02*
X47961905Y-50132390D01*
X47961905Y-50132390D02*
X48495238Y-51275247D01*
X48495238Y-51275247D02*
X49028572Y-50132390D01*
X49028572Y-50132390D02*
X49028572Y-51732390D01*
X49790476Y-50894295D02*
X50323809Y-50894295D01*
X50552381Y-51732390D02*
X49790476Y-51732390D01*
X49790476Y-51732390D02*
X49790476Y-50132390D01*
X49790476Y-50132390D02*
X50552381Y-50132390D01*
X51238095Y-51732390D02*
X51238095Y-50132390D01*
X51238095Y-50132390D02*
X51771428Y-51275247D01*
X51771428Y-51275247D02*
X52304762Y-50132390D01*
X52304762Y-50132390D02*
X52304762Y-51732390D01*
X53066666Y-51122866D02*
X54285714Y-51122866D01*
X55885713Y-51732390D02*
X54971427Y-51732390D01*
X55428570Y-51732390D02*
X55428570Y-50132390D01*
X55428570Y-50132390D02*
X55276189Y-50360961D01*
X55276189Y-50360961D02*
X55123808Y-50513342D01*
X55123808Y-50513342D02*
X54971427Y-50589533D01*
X56495237Y-50284771D02*
X56571428Y-50208580D01*
X56571428Y-50208580D02*
X56723809Y-50132390D01*
X56723809Y-50132390D02*
X57104761Y-50132390D01*
X57104761Y-50132390D02*
X57257142Y-50208580D01*
X57257142Y-50208580D02*
X57333333Y-50284771D01*
X57333333Y-50284771D02*
X57409523Y-50437152D01*
X57409523Y-50437152D02*
X57409523Y-50589533D01*
X57409523Y-50589533D02*
X57333333Y-50818104D01*
X57333333Y-50818104D02*
X56419047Y-51732390D01*
X56419047Y-51732390D02*
X57409523Y-51732390D01*
X58323809Y-50818104D02*
X58171428Y-50741914D01*
X58171428Y-50741914D02*
X58095238Y-50665723D01*
X58095238Y-50665723D02*
X58019047Y-50513342D01*
X58019047Y-50513342D02*
X58019047Y-50437152D01*
X58019047Y-50437152D02*
X58095238Y-50284771D01*
X58095238Y-50284771D02*
X58171428Y-50208580D01*
X58171428Y-50208580D02*
X58323809Y-50132390D01*
X58323809Y-50132390D02*
X58628571Y-50132390D01*
X58628571Y-50132390D02*
X58780952Y-50208580D01*
X58780952Y-50208580D02*
X58857143Y-50284771D01*
X58857143Y-50284771D02*
X58933333Y-50437152D01*
X58933333Y-50437152D02*
X58933333Y-50513342D01*
X58933333Y-50513342D02*
X58857143Y-50665723D01*
X58857143Y-50665723D02*
X58780952Y-50741914D01*
X58780952Y-50741914D02*
X58628571Y-50818104D01*
X58628571Y-50818104D02*
X58323809Y-50818104D01*
X58323809Y-50818104D02*
X58171428Y-50894295D01*
X58171428Y-50894295D02*
X58095238Y-50970485D01*
X58095238Y-50970485D02*
X58019047Y-51122866D01*
X58019047Y-51122866D02*
X58019047Y-51427628D01*
X58019047Y-51427628D02*
X58095238Y-51580009D01*
X58095238Y-51580009D02*
X58171428Y-51656200D01*
X58171428Y-51656200D02*
X58323809Y-51732390D01*
X58323809Y-51732390D02*
X58628571Y-51732390D01*
X58628571Y-51732390D02*
X58780952Y-51656200D01*
X58780952Y-51656200D02*
X58857143Y-51580009D01*
X58857143Y-51580009D02*
X58933333Y-51427628D01*
X58933333Y-51427628D02*
X58933333Y-51122866D01*
X58933333Y-51122866D02*
X58857143Y-50970485D01*
X58857143Y-50970485D02*
X58780952Y-50894295D01*
X58780952Y-50894295D02*
X58628571Y-50818104D01*
X39036666Y-56684819D02*
X39036666Y-57399104D01*
X39036666Y-57399104D02*
X38989047Y-57541961D01*
X38989047Y-57541961D02*
X38893809Y-57637200D01*
X38893809Y-57637200D02*
X38750952Y-57684819D01*
X38750952Y-57684819D02*
X38655714Y-57684819D01*
X40036666Y-57684819D02*
X39465238Y-57684819D01*
X39750952Y-57684819D02*
X39750952Y-56684819D01*
X39750952Y-56684819D02*
X39655714Y-56827676D01*
X39655714Y-56827676D02*
X39560476Y-56922914D01*
X39560476Y-56922914D02*
X39465238Y-56970533D01*
X5337143Y-58438557D02*
X4822857Y-58438557D01*
X5080000Y-58438557D02*
X5080000Y-57538557D01*
X5080000Y-57538557D02*
X4994286Y-57667128D01*
X4994286Y-57667128D02*
X4908571Y-57752842D01*
X4908571Y-57752842D02*
X4822857Y-57795700D01*
X9945714Y-57538557D02*
X9517142Y-57538557D01*
X9517142Y-57538557D02*
X9474285Y-57967128D01*
X9474285Y-57967128D02*
X9517142Y-57924271D01*
X9517142Y-57924271D02*
X9602857Y-57881414D01*
X9602857Y-57881414D02*
X9817142Y-57881414D01*
X9817142Y-57881414D02*
X9902857Y-57924271D01*
X9902857Y-57924271D02*
X9945714Y-57967128D01*
X9945714Y-57967128D02*
X9988571Y-58052842D01*
X9988571Y-58052842D02*
X9988571Y-58267128D01*
X9988571Y-58267128D02*
X9945714Y-58352842D01*
X9945714Y-58352842D02*
X9902857Y-58395700D01*
X9902857Y-58395700D02*
X9817142Y-58438557D01*
X9817142Y-58438557D02*
X9602857Y-58438557D01*
X9602857Y-58438557D02*
X9517142Y-58395700D01*
X9517142Y-58395700D02*
X9474285Y-58352842D01*
X10760000Y-57538557D02*
X10588571Y-57538557D01*
X10588571Y-57538557D02*
X10502857Y-57581414D01*
X10502857Y-57581414D02*
X10460000Y-57624271D01*
X10460000Y-57624271D02*
X10374285Y-57752842D01*
X10374285Y-57752842D02*
X10331428Y-57924271D01*
X10331428Y-57924271D02*
X10331428Y-58267128D01*
X10331428Y-58267128D02*
X10374285Y-58352842D01*
X10374285Y-58352842D02*
X10417142Y-58395700D01*
X10417142Y-58395700D02*
X10502857Y-58438557D01*
X10502857Y-58438557D02*
X10674285Y-58438557D01*
X10674285Y-58438557D02*
X10760000Y-58395700D01*
X10760000Y-58395700D02*
X10802857Y-58352842D01*
X10802857Y-58352842D02*
X10845714Y-58267128D01*
X10845714Y-58267128D02*
X10845714Y-58052842D01*
X10845714Y-58052842D02*
X10802857Y-57967128D01*
X10802857Y-57967128D02*
X10760000Y-57924271D01*
X10760000Y-57924271D02*
X10674285Y-57881414D01*
X10674285Y-57881414D02*
X10502857Y-57881414D01*
X10502857Y-57881414D02*
X10417142Y-57924271D01*
X10417142Y-57924271D02*
X10374285Y-57967128D01*
X10374285Y-57967128D02*
X10331428Y-58052842D01*
X67894285Y-57624271D02*
X67937142Y-57581414D01*
X67937142Y-57581414D02*
X68022857Y-57538557D01*
X68022857Y-57538557D02*
X68237142Y-57538557D01*
X68237142Y-57538557D02*
X68322857Y-57581414D01*
X68322857Y-57581414D02*
X68365714Y-57624271D01*
X68365714Y-57624271D02*
X68408571Y-57709985D01*
X68408571Y-57709985D02*
X68408571Y-57795700D01*
X68408571Y-57795700D02*
X68365714Y-57924271D01*
X68365714Y-57924271D02*
X67851428Y-58438557D01*
X67851428Y-58438557D02*
X68408571Y-58438557D01*
X68837142Y-58438557D02*
X69008571Y-58438557D01*
X69008571Y-58438557D02*
X69094285Y-58395700D01*
X69094285Y-58395700D02*
X69137142Y-58352842D01*
X69137142Y-58352842D02*
X69222857Y-58224271D01*
X69222857Y-58224271D02*
X69265714Y-58052842D01*
X69265714Y-58052842D02*
X69265714Y-57709985D01*
X69265714Y-57709985D02*
X69222857Y-57624271D01*
X69222857Y-57624271D02*
X69180000Y-57581414D01*
X69180000Y-57581414D02*
X69094285Y-57538557D01*
X69094285Y-57538557D02*
X68922857Y-57538557D01*
X68922857Y-57538557D02*
X68837142Y-57581414D01*
X68837142Y-57581414D02*
X68794285Y-57624271D01*
X68794285Y-57624271D02*
X68751428Y-57709985D01*
X68751428Y-57709985D02*
X68751428Y-57924271D01*
X68751428Y-57924271D02*
X68794285Y-58009985D01*
X68794285Y-58009985D02*
X68837142Y-58052842D01*
X68837142Y-58052842D02*
X68922857Y-58095700D01*
X68922857Y-58095700D02*
X69094285Y-58095700D01*
X69094285Y-58095700D02*
X69180000Y-58052842D01*
X69180000Y-58052842D02*
X69222857Y-58009985D01*
X69222857Y-58009985D02*
X69265714Y-57924271D01*
X72974285Y-57624271D02*
X73017142Y-57581414D01*
X73017142Y-57581414D02*
X73102857Y-57538557D01*
X73102857Y-57538557D02*
X73317142Y-57538557D01*
X73317142Y-57538557D02*
X73402857Y-57581414D01*
X73402857Y-57581414D02*
X73445714Y-57624271D01*
X73445714Y-57624271D02*
X73488571Y-57709985D01*
X73488571Y-57709985D02*
X73488571Y-57795700D01*
X73488571Y-57795700D02*
X73445714Y-57924271D01*
X73445714Y-57924271D02*
X72931428Y-58438557D01*
X72931428Y-58438557D02*
X73488571Y-58438557D01*
X74002857Y-57924271D02*
X73917142Y-57881414D01*
X73917142Y-57881414D02*
X73874285Y-57838557D01*
X73874285Y-57838557D02*
X73831428Y-57752842D01*
X73831428Y-57752842D02*
X73831428Y-57709985D01*
X73831428Y-57709985D02*
X73874285Y-57624271D01*
X73874285Y-57624271D02*
X73917142Y-57581414D01*
X73917142Y-57581414D02*
X74002857Y-57538557D01*
X74002857Y-57538557D02*
X74174285Y-57538557D01*
X74174285Y-57538557D02*
X74260000Y-57581414D01*
X74260000Y-57581414D02*
X74302857Y-57624271D01*
X74302857Y-57624271D02*
X74345714Y-57709985D01*
X74345714Y-57709985D02*
X74345714Y-57752842D01*
X74345714Y-57752842D02*
X74302857Y-57838557D01*
X74302857Y-57838557D02*
X74260000Y-57881414D01*
X74260000Y-57881414D02*
X74174285Y-57924271D01*
X74174285Y-57924271D02*
X74002857Y-57924271D01*
X74002857Y-57924271D02*
X73917142Y-57967128D01*
X73917142Y-57967128D02*
X73874285Y-58009985D01*
X73874285Y-58009985D02*
X73831428Y-58095700D01*
X73831428Y-58095700D02*
X73831428Y-58267128D01*
X73831428Y-58267128D02*
X73874285Y-58352842D01*
X73874285Y-58352842D02*
X73917142Y-58395700D01*
X73917142Y-58395700D02*
X74002857Y-58438557D01*
X74002857Y-58438557D02*
X74174285Y-58438557D01*
X74174285Y-58438557D02*
X74260000Y-58395700D01*
X74260000Y-58395700D02*
X74302857Y-58352842D01*
X74302857Y-58352842D02*
X74345714Y-58267128D01*
X74345714Y-58267128D02*
X74345714Y-58095700D01*
X74345714Y-58095700D02*
X74302857Y-58009985D01*
X74302857Y-58009985D02*
X74260000Y-57967128D01*
X74260000Y-57967128D02*
X74174285Y-57924271D01*
X30333333Y-45059580D02*
X30285714Y-45107200D01*
X30285714Y-45107200D02*
X30142857Y-45154819D01*
X30142857Y-45154819D02*
X30047619Y-45154819D01*
X30047619Y-45154819D02*
X29904762Y-45107200D01*
X29904762Y-45107200D02*
X29809524Y-45011961D01*
X29809524Y-45011961D02*
X29761905Y-44916723D01*
X29761905Y-44916723D02*
X29714286Y-44726247D01*
X29714286Y-44726247D02*
X29714286Y-44583390D01*
X29714286Y-44583390D02*
X29761905Y-44392914D01*
X29761905Y-44392914D02*
X29809524Y-44297676D01*
X29809524Y-44297676D02*
X29904762Y-44202438D01*
X29904762Y-44202438D02*
X30047619Y-44154819D01*
X30047619Y-44154819D02*
X30142857Y-44154819D01*
X30142857Y-44154819D02*
X30285714Y-44202438D01*
X30285714Y-44202438D02*
X30333333Y-44250057D01*
X30714286Y-44250057D02*
X30761905Y-44202438D01*
X30761905Y-44202438D02*
X30857143Y-44154819D01*
X30857143Y-44154819D02*
X31095238Y-44154819D01*
X31095238Y-44154819D02*
X31190476Y-44202438D01*
X31190476Y-44202438D02*
X31238095Y-44250057D01*
X31238095Y-44250057D02*
X31285714Y-44345295D01*
X31285714Y-44345295D02*
X31285714Y-44440533D01*
X31285714Y-44440533D02*
X31238095Y-44583390D01*
X31238095Y-44583390D02*
X30666667Y-45154819D01*
X30666667Y-45154819D02*
X31285714Y-45154819D01*
X18103333Y-51384819D02*
X17770000Y-50908628D01*
X17531905Y-51384819D02*
X17531905Y-50384819D01*
X17531905Y-50384819D02*
X17912857Y-50384819D01*
X17912857Y-50384819D02*
X18008095Y-50432438D01*
X18008095Y-50432438D02*
X18055714Y-50480057D01*
X18055714Y-50480057D02*
X18103333Y-50575295D01*
X18103333Y-50575295D02*
X18103333Y-50718152D01*
X18103333Y-50718152D02*
X18055714Y-50813390D01*
X18055714Y-50813390D02*
X18008095Y-50861009D01*
X18008095Y-50861009D02*
X17912857Y-50908628D01*
X17912857Y-50908628D02*
X17531905Y-50908628D01*
X19008095Y-50384819D02*
X18531905Y-50384819D01*
X18531905Y-50384819D02*
X18484286Y-50861009D01*
X18484286Y-50861009D02*
X18531905Y-50813390D01*
X18531905Y-50813390D02*
X18627143Y-50765771D01*
X18627143Y-50765771D02*
X18865238Y-50765771D01*
X18865238Y-50765771D02*
X18960476Y-50813390D01*
X18960476Y-50813390D02*
X19008095Y-50861009D01*
X19008095Y-50861009D02*
X19055714Y-50956247D01*
X19055714Y-50956247D02*
X19055714Y-51194342D01*
X19055714Y-51194342D02*
X19008095Y-51289580D01*
X19008095Y-51289580D02*
X18960476Y-51337200D01*
X18960476Y-51337200D02*
X18865238Y-51384819D01*
X18865238Y-51384819D02*
X18627143Y-51384819D01*
X18627143Y-51384819D02*
X18531905Y-51337200D01*
X18531905Y-51337200D02*
X18484286Y-51289580D01*
X70666666Y-5074819D02*
X70666666Y-5789104D01*
X70666666Y-5789104D02*
X70619047Y-5931961D01*
X70619047Y-5931961D02*
X70523809Y-6027200D01*
X70523809Y-6027200D02*
X70380952Y-6074819D01*
X70380952Y-6074819D02*
X70285714Y-6074819D01*
X71142857Y-6074819D02*
X71142857Y-5074819D01*
X71142857Y-5074819D02*
X71523809Y-5074819D01*
X71523809Y-5074819D02*
X71619047Y-5122438D01*
X71619047Y-5122438D02*
X71666666Y-5170057D01*
X71666666Y-5170057D02*
X71714285Y-5265295D01*
X71714285Y-5265295D02*
X71714285Y-5408152D01*
X71714285Y-5408152D02*
X71666666Y-5503390D01*
X71666666Y-5503390D02*
X71619047Y-5551009D01*
X71619047Y-5551009D02*
X71523809Y-5598628D01*
X71523809Y-5598628D02*
X71142857Y-5598628D01*
X72666666Y-6074819D02*
X72095238Y-6074819D01*
X72380952Y-6074819D02*
X72380952Y-5074819D01*
X72380952Y-5074819D02*
X72285714Y-5217676D01*
X72285714Y-5217676D02*
X72190476Y-5312914D01*
X72190476Y-5312914D02*
X72095238Y-5360533D01*
X70666666Y-14074819D02*
X70666666Y-14789104D01*
X70666666Y-14789104D02*
X70619047Y-14931961D01*
X70619047Y-14931961D02*
X70523809Y-15027200D01*
X70523809Y-15027200D02*
X70380952Y-15074819D01*
X70380952Y-15074819D02*
X70285714Y-15074819D01*
X71142857Y-15074819D02*
X71142857Y-14074819D01*
X71142857Y-14074819D02*
X71523809Y-14074819D01*
X71523809Y-14074819D02*
X71619047Y-14122438D01*
X71619047Y-14122438D02*
X71666666Y-14170057D01*
X71666666Y-14170057D02*
X71714285Y-14265295D01*
X71714285Y-14265295D02*
X71714285Y-14408152D01*
X71714285Y-14408152D02*
X71666666Y-14503390D01*
X71666666Y-14503390D02*
X71619047Y-14551009D01*
X71619047Y-14551009D02*
X71523809Y-14598628D01*
X71523809Y-14598628D02*
X71142857Y-14598628D01*
X72095238Y-14170057D02*
X72142857Y-14122438D01*
X72142857Y-14122438D02*
X72238095Y-14074819D01*
X72238095Y-14074819D02*
X72476190Y-14074819D01*
X72476190Y-14074819D02*
X72571428Y-14122438D01*
X72571428Y-14122438D02*
X72619047Y-14170057D01*
X72619047Y-14170057D02*
X72666666Y-14265295D01*
X72666666Y-14265295D02*
X72666666Y-14360533D01*
X72666666Y-14360533D02*
X72619047Y-14503390D01*
X72619047Y-14503390D02*
X72047619Y-15074819D01*
X72047619Y-15074819D02*
X72666666Y-15074819D01*
X13208095Y-2204819D02*
X13208095Y-3014342D01*
X13208095Y-3014342D02*
X13255714Y-3109580D01*
X13255714Y-3109580D02*
X13303333Y-3157200D01*
X13303333Y-3157200D02*
X13398571Y-3204819D01*
X13398571Y-3204819D02*
X13589047Y-3204819D01*
X13589047Y-3204819D02*
X13684285Y-3157200D01*
X13684285Y-3157200D02*
X13731904Y-3109580D01*
X13731904Y-3109580D02*
X13779523Y-3014342D01*
X13779523Y-3014342D02*
X13779523Y-2204819D01*
X14160476Y-2204819D02*
X14779523Y-2204819D01*
X14779523Y-2204819D02*
X14446190Y-2585771D01*
X14446190Y-2585771D02*
X14589047Y-2585771D01*
X14589047Y-2585771D02*
X14684285Y-2633390D01*
X14684285Y-2633390D02*
X14731904Y-2681009D01*
X14731904Y-2681009D02*
X14779523Y-2776247D01*
X14779523Y-2776247D02*
X14779523Y-3014342D01*
X14779523Y-3014342D02*
X14731904Y-3109580D01*
X14731904Y-3109580D02*
X14684285Y-3157200D01*
X14684285Y-3157200D02*
X14589047Y-3204819D01*
X14589047Y-3204819D02*
X14303333Y-3204819D01*
X14303333Y-3204819D02*
X14208095Y-3157200D01*
X14208095Y-3157200D02*
X14160476Y-3109580D01*
X58738095Y-45006819D02*
X59309523Y-45006819D01*
X59023809Y-46006819D02*
X59023809Y-45006819D01*
X59642857Y-46006819D02*
X59642857Y-45006819D01*
X59642857Y-45006819D02*
X60023809Y-45006819D01*
X60023809Y-45006819D02*
X60119047Y-45054438D01*
X60119047Y-45054438D02*
X60166666Y-45102057D01*
X60166666Y-45102057D02*
X60214285Y-45197295D01*
X60214285Y-45197295D02*
X60214285Y-45340152D01*
X60214285Y-45340152D02*
X60166666Y-45435390D01*
X60166666Y-45435390D02*
X60119047Y-45483009D01*
X60119047Y-45483009D02*
X60023809Y-45530628D01*
X60023809Y-45530628D02*
X59642857Y-45530628D01*
X61166666Y-46006819D02*
X60595238Y-46006819D01*
X60880952Y-46006819D02*
X60880952Y-45006819D01*
X60880952Y-45006819D02*
X60785714Y-45149676D01*
X60785714Y-45149676D02*
X60690476Y-45244914D01*
X60690476Y-45244914D02*
X60595238Y-45292533D01*
X70666666Y-23074819D02*
X70666666Y-23789104D01*
X70666666Y-23789104D02*
X70619047Y-23931961D01*
X70619047Y-23931961D02*
X70523809Y-24027200D01*
X70523809Y-24027200D02*
X70380952Y-24074819D01*
X70380952Y-24074819D02*
X70285714Y-24074819D01*
X71142857Y-24074819D02*
X71142857Y-23074819D01*
X71142857Y-23074819D02*
X71523809Y-23074819D01*
X71523809Y-23074819D02*
X71619047Y-23122438D01*
X71619047Y-23122438D02*
X71666666Y-23170057D01*
X71666666Y-23170057D02*
X71714285Y-23265295D01*
X71714285Y-23265295D02*
X71714285Y-23408152D01*
X71714285Y-23408152D02*
X71666666Y-23503390D01*
X71666666Y-23503390D02*
X71619047Y-23551009D01*
X71619047Y-23551009D02*
X71523809Y-23598628D01*
X71523809Y-23598628D02*
X71142857Y-23598628D01*
X72047619Y-23074819D02*
X72666666Y-23074819D01*
X72666666Y-23074819D02*
X72333333Y-23455771D01*
X72333333Y-23455771D02*
X72476190Y-23455771D01*
X72476190Y-23455771D02*
X72571428Y-23503390D01*
X72571428Y-23503390D02*
X72619047Y-23551009D01*
X72619047Y-23551009D02*
X72666666Y-23646247D01*
X72666666Y-23646247D02*
X72666666Y-23884342D01*
X72666666Y-23884342D02*
X72619047Y-23979580D01*
X72619047Y-23979580D02*
X72571428Y-24027200D01*
X72571428Y-24027200D02*
X72476190Y-24074819D01*
X72476190Y-24074819D02*
X72190476Y-24074819D01*
X72190476Y-24074819D02*
X72095238Y-24027200D01*
X72095238Y-24027200D02*
X72047619Y-23979580D01*
X29857143Y-51907200D02*
X30000000Y-51954819D01*
X30000000Y-51954819D02*
X30238095Y-51954819D01*
X30238095Y-51954819D02*
X30333333Y-51907200D01*
X30333333Y-51907200D02*
X30380952Y-51859580D01*
X30380952Y-51859580D02*
X30428571Y-51764342D01*
X30428571Y-51764342D02*
X30428571Y-51669104D01*
X30428571Y-51669104D02*
X30380952Y-51573866D01*
X30380952Y-51573866D02*
X30333333Y-51526247D01*
X30333333Y-51526247D02*
X30238095Y-51478628D01*
X30238095Y-51478628D02*
X30047619Y-51431009D01*
X30047619Y-51431009D02*
X29952381Y-51383390D01*
X29952381Y-51383390D02*
X29904762Y-51335771D01*
X29904762Y-51335771D02*
X29857143Y-51240533D01*
X29857143Y-51240533D02*
X29857143Y-51145295D01*
X29857143Y-51145295D02*
X29904762Y-51050057D01*
X29904762Y-51050057D02*
X29952381Y-51002438D01*
X29952381Y-51002438D02*
X30047619Y-50954819D01*
X30047619Y-50954819D02*
X30285714Y-50954819D01*
X30285714Y-50954819D02*
X30428571Y-51002438D01*
X31142857Y-50954819D02*
X31142857Y-51669104D01*
X31142857Y-51669104D02*
X31095238Y-51811961D01*
X31095238Y-51811961D02*
X31000000Y-51907200D01*
X31000000Y-51907200D02*
X30857143Y-51954819D01*
X30857143Y-51954819D02*
X30761905Y-51954819D01*
X32142857Y-51954819D02*
X31571429Y-51954819D01*
X31857143Y-51954819D02*
X31857143Y-50954819D01*
X31857143Y-50954819D02*
X31761905Y-51097676D01*
X31761905Y-51097676D02*
X31666667Y-51192914D01*
X31666667Y-51192914D02*
X31571429Y-51240533D01*
X33528095Y-4744819D02*
X33528095Y-5554342D01*
X33528095Y-5554342D02*
X33575714Y-5649580D01*
X33575714Y-5649580D02*
X33623333Y-5697200D01*
X33623333Y-5697200D02*
X33718571Y-5744819D01*
X33718571Y-5744819D02*
X33909047Y-5744819D01*
X33909047Y-5744819D02*
X34004285Y-5697200D01*
X34004285Y-5697200D02*
X34051904Y-5649580D01*
X34051904Y-5649580D02*
X34099523Y-5554342D01*
X34099523Y-5554342D02*
X34099523Y-4744819D01*
X35004285Y-5078152D02*
X35004285Y-5744819D01*
X34766190Y-4697200D02*
X34528095Y-5411485D01*
X34528095Y-5411485D02*
X35147142Y-5411485D01*
X6103333Y-51384819D02*
X5770000Y-50908628D01*
X5531905Y-51384819D02*
X5531905Y-50384819D01*
X5531905Y-50384819D02*
X5912857Y-50384819D01*
X5912857Y-50384819D02*
X6008095Y-50432438D01*
X6008095Y-50432438D02*
X6055714Y-50480057D01*
X6055714Y-50480057D02*
X6103333Y-50575295D01*
X6103333Y-50575295D02*
X6103333Y-50718152D01*
X6103333Y-50718152D02*
X6055714Y-50813390D01*
X6055714Y-50813390D02*
X6008095Y-50861009D01*
X6008095Y-50861009D02*
X5912857Y-50908628D01*
X5912857Y-50908628D02*
X5531905Y-50908628D01*
X6484286Y-50480057D02*
X6531905Y-50432438D01*
X6531905Y-50432438D02*
X6627143Y-50384819D01*
X6627143Y-50384819D02*
X6865238Y-50384819D01*
X6865238Y-50384819D02*
X6960476Y-50432438D01*
X6960476Y-50432438D02*
X7008095Y-50480057D01*
X7008095Y-50480057D02*
X7055714Y-50575295D01*
X7055714Y-50575295D02*
X7055714Y-50670533D01*
X7055714Y-50670533D02*
X7008095Y-50813390D01*
X7008095Y-50813390D02*
X6436667Y-51384819D01*
X6436667Y-51384819D02*
X7055714Y-51384819D01*
X52531905Y-44694819D02*
X52531905Y-43694819D01*
X52531905Y-43694819D02*
X52770000Y-43694819D01*
X52770000Y-43694819D02*
X52912857Y-43742438D01*
X52912857Y-43742438D02*
X53008095Y-43837676D01*
X53008095Y-43837676D02*
X53055714Y-43932914D01*
X53055714Y-43932914D02*
X53103333Y-44123390D01*
X53103333Y-44123390D02*
X53103333Y-44266247D01*
X53103333Y-44266247D02*
X53055714Y-44456723D01*
X53055714Y-44456723D02*
X53008095Y-44551961D01*
X53008095Y-44551961D02*
X52912857Y-44647200D01*
X52912857Y-44647200D02*
X52770000Y-44694819D01*
X52770000Y-44694819D02*
X52531905Y-44694819D01*
X54055714Y-44694819D02*
X53484286Y-44694819D01*
X53770000Y-44694819D02*
X53770000Y-43694819D01*
X53770000Y-43694819D02*
X53674762Y-43837676D01*
X53674762Y-43837676D02*
X53579524Y-43932914D01*
X53579524Y-43932914D02*
X53484286Y-43980533D01*
X24103333Y-51384819D02*
X23770000Y-50908628D01*
X23531905Y-51384819D02*
X23531905Y-50384819D01*
X23531905Y-50384819D02*
X23912857Y-50384819D01*
X23912857Y-50384819D02*
X24008095Y-50432438D01*
X24008095Y-50432438D02*
X24055714Y-50480057D01*
X24055714Y-50480057D02*
X24103333Y-50575295D01*
X24103333Y-50575295D02*
X24103333Y-50718152D01*
X24103333Y-50718152D02*
X24055714Y-50813390D01*
X24055714Y-50813390D02*
X24008095Y-50861009D01*
X24008095Y-50861009D02*
X23912857Y-50908628D01*
X23912857Y-50908628D02*
X23531905Y-50908628D01*
X24436667Y-50384819D02*
X25055714Y-50384819D01*
X25055714Y-50384819D02*
X24722381Y-50765771D01*
X24722381Y-50765771D02*
X24865238Y-50765771D01*
X24865238Y-50765771D02*
X24960476Y-50813390D01*
X24960476Y-50813390D02*
X25008095Y-50861009D01*
X25008095Y-50861009D02*
X25055714Y-50956247D01*
X25055714Y-50956247D02*
X25055714Y-51194342D01*
X25055714Y-51194342D02*
X25008095Y-51289580D01*
X25008095Y-51289580D02*
X24960476Y-51337200D01*
X24960476Y-51337200D02*
X24865238Y-51384819D01*
X24865238Y-51384819D02*
X24579524Y-51384819D01*
X24579524Y-51384819D02*
X24484286Y-51337200D01*
X24484286Y-51337200D02*
X24436667Y-51289580D01*
X6333333Y-45059580D02*
X6285714Y-45107200D01*
X6285714Y-45107200D02*
X6142857Y-45154819D01*
X6142857Y-45154819D02*
X6047619Y-45154819D01*
X6047619Y-45154819D02*
X5904762Y-45107200D01*
X5904762Y-45107200D02*
X5809524Y-45011961D01*
X5809524Y-45011961D02*
X5761905Y-44916723D01*
X5761905Y-44916723D02*
X5714286Y-44726247D01*
X5714286Y-44726247D02*
X5714286Y-44583390D01*
X5714286Y-44583390D02*
X5761905Y-44392914D01*
X5761905Y-44392914D02*
X5809524Y-44297676D01*
X5809524Y-44297676D02*
X5904762Y-44202438D01*
X5904762Y-44202438D02*
X6047619Y-44154819D01*
X6047619Y-44154819D02*
X6142857Y-44154819D01*
X6142857Y-44154819D02*
X6285714Y-44202438D01*
X6285714Y-44202438D02*
X6333333Y-44250057D01*
X6666667Y-44154819D02*
X7285714Y-44154819D01*
X7285714Y-44154819D02*
X6952381Y-44535771D01*
X6952381Y-44535771D02*
X7095238Y-44535771D01*
X7095238Y-44535771D02*
X7190476Y-44583390D01*
X7190476Y-44583390D02*
X7238095Y-44631009D01*
X7238095Y-44631009D02*
X7285714Y-44726247D01*
X7285714Y-44726247D02*
X7285714Y-44964342D01*
X7285714Y-44964342D02*
X7238095Y-45059580D01*
X7238095Y-45059580D02*
X7190476Y-45107200D01*
X7190476Y-45107200D02*
X7095238Y-45154819D01*
X7095238Y-45154819D02*
X6809524Y-45154819D01*
X6809524Y-45154819D02*
X6714286Y-45107200D01*
X6714286Y-45107200D02*
X6666667Y-45059580D01*
X62738095Y-45006819D02*
X63309523Y-45006819D01*
X63023809Y-46006819D02*
X63023809Y-45006819D01*
X63642857Y-46006819D02*
X63642857Y-45006819D01*
X63642857Y-45006819D02*
X64023809Y-45006819D01*
X64023809Y-45006819D02*
X64119047Y-45054438D01*
X64119047Y-45054438D02*
X64166666Y-45102057D01*
X64166666Y-45102057D02*
X64214285Y-45197295D01*
X64214285Y-45197295D02*
X64214285Y-45340152D01*
X64214285Y-45340152D02*
X64166666Y-45435390D01*
X64166666Y-45435390D02*
X64119047Y-45483009D01*
X64119047Y-45483009D02*
X64023809Y-45530628D01*
X64023809Y-45530628D02*
X63642857Y-45530628D01*
X64595238Y-45102057D02*
X64642857Y-45054438D01*
X64642857Y-45054438D02*
X64738095Y-45006819D01*
X64738095Y-45006819D02*
X64976190Y-45006819D01*
X64976190Y-45006819D02*
X65071428Y-45054438D01*
X65071428Y-45054438D02*
X65119047Y-45102057D01*
X65119047Y-45102057D02*
X65166666Y-45197295D01*
X65166666Y-45197295D02*
X65166666Y-45292533D01*
X65166666Y-45292533D02*
X65119047Y-45435390D01*
X65119047Y-45435390D02*
X64547619Y-46006819D01*
X64547619Y-46006819D02*
X65166666Y-46006819D01*
X70666666Y-30574819D02*
X70666666Y-31289104D01*
X70666666Y-31289104D02*
X70619047Y-31431961D01*
X70619047Y-31431961D02*
X70523809Y-31527200D01*
X70523809Y-31527200D02*
X70380952Y-31574819D01*
X70380952Y-31574819D02*
X70285714Y-31574819D01*
X71142857Y-31574819D02*
X71142857Y-30574819D01*
X71142857Y-30574819D02*
X71523809Y-30574819D01*
X71523809Y-30574819D02*
X71619047Y-30622438D01*
X71619047Y-30622438D02*
X71666666Y-30670057D01*
X71666666Y-30670057D02*
X71714285Y-30765295D01*
X71714285Y-30765295D02*
X71714285Y-30908152D01*
X71714285Y-30908152D02*
X71666666Y-31003390D01*
X71666666Y-31003390D02*
X71619047Y-31051009D01*
X71619047Y-31051009D02*
X71523809Y-31098628D01*
X71523809Y-31098628D02*
X71142857Y-31098628D01*
X72571428Y-30908152D02*
X72571428Y-31574819D01*
X72333333Y-30527200D02*
X72095238Y-31241485D01*
X72095238Y-31241485D02*
X72714285Y-31241485D01*
X12103333Y-51384819D02*
X11770000Y-50908628D01*
X11531905Y-51384819D02*
X11531905Y-50384819D01*
X11531905Y-50384819D02*
X11912857Y-50384819D01*
X11912857Y-50384819D02*
X12008095Y-50432438D01*
X12008095Y-50432438D02*
X12055714Y-50480057D01*
X12055714Y-50480057D02*
X12103333Y-50575295D01*
X12103333Y-50575295D02*
X12103333Y-50718152D01*
X12103333Y-50718152D02*
X12055714Y-50813390D01*
X12055714Y-50813390D02*
X12008095Y-50861009D01*
X12008095Y-50861009D02*
X11912857Y-50908628D01*
X11912857Y-50908628D02*
X11531905Y-50908628D01*
X12960476Y-50718152D02*
X12960476Y-51384819D01*
X12722381Y-50337200D02*
X12484286Y-51051485D01*
X12484286Y-51051485D02*
X13103333Y-51051485D01*
X38333333Y-45059580D02*
X38285714Y-45107200D01*
X38285714Y-45107200D02*
X38142857Y-45154819D01*
X38142857Y-45154819D02*
X38047619Y-45154819D01*
X38047619Y-45154819D02*
X37904762Y-45107200D01*
X37904762Y-45107200D02*
X37809524Y-45011961D01*
X37809524Y-45011961D02*
X37761905Y-44916723D01*
X37761905Y-44916723D02*
X37714286Y-44726247D01*
X37714286Y-44726247D02*
X37714286Y-44583390D01*
X37714286Y-44583390D02*
X37761905Y-44392914D01*
X37761905Y-44392914D02*
X37809524Y-44297676D01*
X37809524Y-44297676D02*
X37904762Y-44202438D01*
X37904762Y-44202438D02*
X38047619Y-44154819D01*
X38047619Y-44154819D02*
X38142857Y-44154819D01*
X38142857Y-44154819D02*
X38285714Y-44202438D01*
X38285714Y-44202438D02*
X38333333Y-44250057D01*
X39238095Y-44154819D02*
X38761905Y-44154819D01*
X38761905Y-44154819D02*
X38714286Y-44631009D01*
X38714286Y-44631009D02*
X38761905Y-44583390D01*
X38761905Y-44583390D02*
X38857143Y-44535771D01*
X38857143Y-44535771D02*
X39095238Y-44535771D01*
X39095238Y-44535771D02*
X39190476Y-44583390D01*
X39190476Y-44583390D02*
X39238095Y-44631009D01*
X39238095Y-44631009D02*
X39285714Y-44726247D01*
X39285714Y-44726247D02*
X39285714Y-44964342D01*
X39285714Y-44964342D02*
X39238095Y-45059580D01*
X39238095Y-45059580D02*
X39190476Y-45107200D01*
X39190476Y-45107200D02*
X39095238Y-45154819D01*
X39095238Y-45154819D02*
X38857143Y-45154819D01*
X38857143Y-45154819D02*
X38761905Y-45107200D01*
X38761905Y-45107200D02*
X38714286Y-45059580D01*
X50038095Y-7284819D02*
X50038095Y-8094342D01*
X50038095Y-8094342D02*
X50085714Y-8189580D01*
X50085714Y-8189580D02*
X50133333Y-8237200D01*
X50133333Y-8237200D02*
X50228571Y-8284819D01*
X50228571Y-8284819D02*
X50419047Y-8284819D01*
X50419047Y-8284819D02*
X50514285Y-8237200D01*
X50514285Y-8237200D02*
X50561904Y-8189580D01*
X50561904Y-8189580D02*
X50609523Y-8094342D01*
X50609523Y-8094342D02*
X50609523Y-7284819D01*
X51609523Y-8284819D02*
X51038095Y-8284819D01*
X51323809Y-8284819D02*
X51323809Y-7284819D01*
X51323809Y-7284819D02*
X51228571Y-7427676D01*
X51228571Y-7427676D02*
X51133333Y-7522914D01*
X51133333Y-7522914D02*
X51038095Y-7570533D01*
X35857143Y-51907200D02*
X36000000Y-51954819D01*
X36000000Y-51954819D02*
X36238095Y-51954819D01*
X36238095Y-51954819D02*
X36333333Y-51907200D01*
X36333333Y-51907200D02*
X36380952Y-51859580D01*
X36380952Y-51859580D02*
X36428571Y-51764342D01*
X36428571Y-51764342D02*
X36428571Y-51669104D01*
X36428571Y-51669104D02*
X36380952Y-51573866D01*
X36380952Y-51573866D02*
X36333333Y-51526247D01*
X36333333Y-51526247D02*
X36238095Y-51478628D01*
X36238095Y-51478628D02*
X36047619Y-51431009D01*
X36047619Y-51431009D02*
X35952381Y-51383390D01*
X35952381Y-51383390D02*
X35904762Y-51335771D01*
X35904762Y-51335771D02*
X35857143Y-51240533D01*
X35857143Y-51240533D02*
X35857143Y-51145295D01*
X35857143Y-51145295D02*
X35904762Y-51050057D01*
X35904762Y-51050057D02*
X35952381Y-51002438D01*
X35952381Y-51002438D02*
X36047619Y-50954819D01*
X36047619Y-50954819D02*
X36285714Y-50954819D01*
X36285714Y-50954819D02*
X36428571Y-51002438D01*
X37142857Y-50954819D02*
X37142857Y-51669104D01*
X37142857Y-51669104D02*
X37095238Y-51811961D01*
X37095238Y-51811961D02*
X37000000Y-51907200D01*
X37000000Y-51907200D02*
X36857143Y-51954819D01*
X36857143Y-51954819D02*
X36761905Y-51954819D01*
X37571429Y-51050057D02*
X37619048Y-51002438D01*
X37619048Y-51002438D02*
X37714286Y-50954819D01*
X37714286Y-50954819D02*
X37952381Y-50954819D01*
X37952381Y-50954819D02*
X38047619Y-51002438D01*
X38047619Y-51002438D02*
X38095238Y-51050057D01*
X38095238Y-51050057D02*
X38142857Y-51145295D01*
X38142857Y-51145295D02*
X38142857Y-51240533D01*
X38142857Y-51240533D02*
X38095238Y-51383390D01*
X38095238Y-51383390D02*
X37523810Y-51954819D01*
X37523810Y-51954819D02*
X38142857Y-51954819D01*
X44833333Y-43809580D02*
X44785714Y-43857200D01*
X44785714Y-43857200D02*
X44642857Y-43904819D01*
X44642857Y-43904819D02*
X44547619Y-43904819D01*
X44547619Y-43904819D02*
X44404762Y-43857200D01*
X44404762Y-43857200D02*
X44309524Y-43761961D01*
X44309524Y-43761961D02*
X44261905Y-43666723D01*
X44261905Y-43666723D02*
X44214286Y-43476247D01*
X44214286Y-43476247D02*
X44214286Y-43333390D01*
X44214286Y-43333390D02*
X44261905Y-43142914D01*
X44261905Y-43142914D02*
X44309524Y-43047676D01*
X44309524Y-43047676D02*
X44404762Y-42952438D01*
X44404762Y-42952438D02*
X44547619Y-42904819D01*
X44547619Y-42904819D02*
X44642857Y-42904819D01*
X44642857Y-42904819D02*
X44785714Y-42952438D01*
X44785714Y-42952438D02*
X44833333Y-43000057D01*
X45690476Y-42904819D02*
X45500000Y-42904819D01*
X45500000Y-42904819D02*
X45404762Y-42952438D01*
X45404762Y-42952438D02*
X45357143Y-43000057D01*
X45357143Y-43000057D02*
X45261905Y-43142914D01*
X45261905Y-43142914D02*
X45214286Y-43333390D01*
X45214286Y-43333390D02*
X45214286Y-43714342D01*
X45214286Y-43714342D02*
X45261905Y-43809580D01*
X45261905Y-43809580D02*
X45309524Y-43857200D01*
X45309524Y-43857200D02*
X45404762Y-43904819D01*
X45404762Y-43904819D02*
X45595238Y-43904819D01*
X45595238Y-43904819D02*
X45690476Y-43857200D01*
X45690476Y-43857200D02*
X45738095Y-43809580D01*
X45738095Y-43809580D02*
X45785714Y-43714342D01*
X45785714Y-43714342D02*
X45785714Y-43476247D01*
X45785714Y-43476247D02*
X45738095Y-43381009D01*
X45738095Y-43381009D02*
X45690476Y-43333390D01*
X45690476Y-43333390D02*
X45595238Y-43285771D01*
X45595238Y-43285771D02*
X45404762Y-43285771D01*
X45404762Y-43285771D02*
X45309524Y-43333390D01*
X45309524Y-43333390D02*
X45261905Y-43381009D01*
X45261905Y-43381009D02*
X45214286Y-43476247D01*
X62738095Y-9824819D02*
X62738095Y-10634342D01*
X62738095Y-10634342D02*
X62785714Y-10729580D01*
X62785714Y-10729580D02*
X62833333Y-10777200D01*
X62833333Y-10777200D02*
X62928571Y-10824819D01*
X62928571Y-10824819D02*
X63119047Y-10824819D01*
X63119047Y-10824819D02*
X63214285Y-10777200D01*
X63214285Y-10777200D02*
X63261904Y-10729580D01*
X63261904Y-10729580D02*
X63309523Y-10634342D01*
X63309523Y-10634342D02*
X63309523Y-9824819D01*
X63738095Y-9920057D02*
X63785714Y-9872438D01*
X63785714Y-9872438D02*
X63880952Y-9824819D01*
X63880952Y-9824819D02*
X64119047Y-9824819D01*
X64119047Y-9824819D02*
X64214285Y-9872438D01*
X64214285Y-9872438D02*
X64261904Y-9920057D01*
X64261904Y-9920057D02*
X64309523Y-10015295D01*
X64309523Y-10015295D02*
X64309523Y-10110533D01*
X64309523Y-10110533D02*
X64261904Y-10253390D01*
X64261904Y-10253390D02*
X63690476Y-10824819D01*
X63690476Y-10824819D02*
X64309523Y-10824819D01*
X14333333Y-45059580D02*
X14285714Y-45107200D01*
X14285714Y-45107200D02*
X14142857Y-45154819D01*
X14142857Y-45154819D02*
X14047619Y-45154819D01*
X14047619Y-45154819D02*
X13904762Y-45107200D01*
X13904762Y-45107200D02*
X13809524Y-45011961D01*
X13809524Y-45011961D02*
X13761905Y-44916723D01*
X13761905Y-44916723D02*
X13714286Y-44726247D01*
X13714286Y-44726247D02*
X13714286Y-44583390D01*
X13714286Y-44583390D02*
X13761905Y-44392914D01*
X13761905Y-44392914D02*
X13809524Y-44297676D01*
X13809524Y-44297676D02*
X13904762Y-44202438D01*
X13904762Y-44202438D02*
X14047619Y-44154819D01*
X14047619Y-44154819D02*
X14142857Y-44154819D01*
X14142857Y-44154819D02*
X14285714Y-44202438D01*
X14285714Y-44202438D02*
X14333333Y-44250057D01*
X15190476Y-44488152D02*
X15190476Y-45154819D01*
X14952381Y-44107200D02*
X14714286Y-44821485D01*
X14714286Y-44821485D02*
X15333333Y-44821485D01*
X22333333Y-45059580D02*
X22285714Y-45107200D01*
X22285714Y-45107200D02*
X22142857Y-45154819D01*
X22142857Y-45154819D02*
X22047619Y-45154819D01*
X22047619Y-45154819D02*
X21904762Y-45107200D01*
X21904762Y-45107200D02*
X21809524Y-45011961D01*
X21809524Y-45011961D02*
X21761905Y-44916723D01*
X21761905Y-44916723D02*
X21714286Y-44726247D01*
X21714286Y-44726247D02*
X21714286Y-44583390D01*
X21714286Y-44583390D02*
X21761905Y-44392914D01*
X21761905Y-44392914D02*
X21809524Y-44297676D01*
X21809524Y-44297676D02*
X21904762Y-44202438D01*
X21904762Y-44202438D02*
X22047619Y-44154819D01*
X22047619Y-44154819D02*
X22142857Y-44154819D01*
X22142857Y-44154819D02*
X22285714Y-44202438D01*
X22285714Y-44202438D02*
X22333333Y-44250057D01*
X23285714Y-45154819D02*
X22714286Y-45154819D01*
X23000000Y-45154819D02*
X23000000Y-44154819D01*
X23000000Y-44154819D02*
X22904762Y-44297676D01*
X22904762Y-44297676D02*
X22809524Y-44392914D01*
X22809524Y-44392914D02*
X22714286Y-44440533D01*
%TO.C,J1*%
X3180000Y-59030000D02*
X75560000Y-59030000D01*
X3180000Y-65430000D02*
X3180000Y-59030000D01*
X75560000Y-59030000D02*
X75560000Y-65430000D01*
X75560000Y-65430000D02*
X3180000Y-65430000D01*
%TO.C,C2*%
D11*
X27880000Y-45830000D02*
X33120000Y-45830000D01*
X27880000Y-46167000D02*
X27880000Y-45830000D01*
X27880000Y-48570000D02*
X27880000Y-48233000D01*
X33120000Y-45830000D02*
X33120000Y-46167000D01*
X33120000Y-48233000D02*
X33120000Y-48570000D01*
X33120000Y-48570000D02*
X27880000Y-48570000D01*
%TO.C,R5*%
X18370000Y-53300000D02*
X18440000Y-53300000D01*
X18370000Y-53300000D02*
G75*
G02*
X15630000Y-53300000I-1370000J0D01*
G01*
X15630000Y-53300000D02*
G75*
G02*
X18370000Y-53300000I1370000J0D01*
G01*
%TO.C,JP1*%
X70120000Y-6620000D02*
X71500000Y-6620000D01*
X70120000Y-8000000D02*
X70120000Y-6620000D01*
X70120000Y-9270000D02*
X70120000Y-14460000D01*
X70120000Y-9270000D02*
X72880000Y-9270000D01*
X70120000Y-14460000D02*
X72880000Y-14460000D01*
X72880000Y-9270000D02*
X72880000Y-14460000D01*
%TO.C,JP2*%
X70120000Y-15620000D02*
X71500000Y-15620000D01*
X70120000Y-17000000D02*
X70120000Y-15620000D01*
X70120000Y-18270000D02*
X70120000Y-23460000D01*
X70120000Y-18270000D02*
X72880000Y-18270000D01*
X70120000Y-23460000D02*
X72880000Y-23460000D01*
X72880000Y-18270000D02*
X72880000Y-23460000D01*
%TO.C,U3*%
X7910000Y-3750000D02*
X7910000Y-44510000D01*
X7910000Y-44510000D02*
X20030000Y-44510000D01*
X12970000Y-3750000D02*
X7910000Y-3750000D01*
X20030000Y-3750000D02*
X14970000Y-3750000D01*
X20030000Y-44510000D02*
X20030000Y-3750000D01*
X4910000Y-3690000D02*
X23030000Y-3690000D01*
X23030000Y-44570000D01*
X4910000Y-44570000D01*
X4910000Y-3690000D01*
X14970000Y-3750000D02*
G75*
G02*
X12970000Y-3750000I-1000000J0D01*
G01*
%TO.C,TP1*%
X60950000Y-47200000D02*
G75*
G02*
X59050000Y-47200000I-950000J0D01*
G01*
X59050000Y-47200000D02*
G75*
G02*
X60950000Y-47200000I950000J0D01*
G01*
%TO.C,JP3*%
X70120000Y-24620000D02*
X71500000Y-24620000D01*
X70120000Y-26000000D02*
X70120000Y-24620000D01*
X70120000Y-27270000D02*
X70120000Y-29920000D01*
X70120000Y-27270000D02*
X72880000Y-27270000D01*
X70120000Y-29920000D02*
X72880000Y-29920000D01*
X72880000Y-27270000D02*
X72880000Y-29920000D01*
%TO.C,SJ1*%
X29600000Y-53600000D02*
X29600000Y-53000000D01*
X30300000Y-52300000D02*
X31700000Y-52300000D01*
X31700000Y-54300000D02*
X30300000Y-54300000D01*
X32400000Y-53000000D02*
X32400000Y-53600000D01*
X29600000Y-53000000D02*
G75*
G02*
X30300000Y-52300000I699999J1D01*
G01*
X30300000Y-54300000D02*
G75*
G02*
X29600000Y-53600000I-1J699999D01*
G01*
X31700000Y-52300000D02*
G75*
G02*
X32400000Y-53000000I0J-700000D01*
G01*
X32400000Y-53600000D02*
G75*
G02*
X31700000Y-54300000I-700000J0D01*
G01*
%TO.C,U4*%
X28230000Y-6290000D02*
X28230000Y-41970000D01*
X28230000Y-41970000D02*
X40350000Y-41970000D01*
X33290000Y-6290000D02*
X28230000Y-6290000D01*
X40350000Y-6290000D02*
X35290000Y-6290000D01*
X40350000Y-41970000D02*
X40350000Y-6290000D01*
X25230000Y-6230000D02*
X43350000Y-6230000D01*
X43350000Y-42030000D01*
X25230000Y-42030000D01*
X25230000Y-6230000D01*
X35290000Y-6290000D02*
G75*
G02*
X33290000Y-6290000I-1000000J0D01*
G01*
%TO.C,R2*%
X6370000Y-53300000D02*
X6440000Y-53300000D01*
X6370000Y-53300000D02*
G75*
G02*
X3630000Y-53300000I-1370000J0D01*
G01*
X3630000Y-53300000D02*
G75*
G02*
X6370000Y-53300000I1370000J0D01*
G01*
%TO.C,D1*%
X51710000Y-45964000D02*
X51710000Y-46120000D01*
X51710000Y-48280000D02*
X51710000Y-48436000D01*
X51710000Y-45964484D02*
G75*
G02*
X54941437Y-46120000I1560000J-1235516D01*
G01*
X52229039Y-46120000D02*
G75*
G02*
X54310961Y-46120000I1040961J-1080000D01*
G01*
X54310961Y-48280000D02*
G75*
G02*
X52229039Y-48280000I-1040961J1080000D01*
G01*
X54941437Y-48280000D02*
G75*
G02*
X51710000Y-48435516I-1671437J1080000D01*
G01*
%TO.C,R3*%
X24370000Y-53300000D02*
X24440000Y-53300000D01*
X24370000Y-53300000D02*
G75*
G02*
X21630000Y-53300000I-1370000J0D01*
G01*
X21630000Y-53300000D02*
G75*
G02*
X24370000Y-53300000I1370000J0D01*
G01*
%TO.C,C3*%
X3880000Y-45830000D02*
X9120000Y-45830000D01*
X3880000Y-46167000D02*
X3880000Y-45830000D01*
X3880000Y-48570000D02*
X3880000Y-48233000D01*
X9120000Y-45830000D02*
X9120000Y-46167000D01*
X9120000Y-48233000D02*
X9120000Y-48570000D01*
X9120000Y-48570000D02*
X3880000Y-48570000D01*
%TO.C,TP2*%
X64950000Y-47200000D02*
G75*
G02*
X63050000Y-47200000I-950000J0D01*
G01*
X63050000Y-47200000D02*
G75*
G02*
X64950000Y-47200000I950000J0D01*
G01*
%TO.C,JP4*%
X70120000Y-32120000D02*
X71500000Y-32120000D01*
X70120000Y-33500000D02*
X70120000Y-32120000D01*
X70120000Y-34770000D02*
X70120000Y-37420000D01*
X70120000Y-34770000D02*
X72880000Y-34770000D01*
X70120000Y-37420000D02*
X72880000Y-37420000D01*
X72880000Y-34770000D02*
X72880000Y-37420000D01*
%TO.C,R4*%
X12370000Y-53300000D02*
X12440000Y-53300000D01*
X12370000Y-53300000D02*
G75*
G02*
X9630000Y-53300000I-1370000J0D01*
G01*
X9630000Y-53300000D02*
G75*
G02*
X12370000Y-53300000I1370000J0D01*
G01*
%TO.C,C5*%
X35880000Y-45830000D02*
X41120000Y-45830000D01*
X35880000Y-46167000D02*
X35880000Y-45830000D01*
X35880000Y-48570000D02*
X35880000Y-48233000D01*
X41120000Y-45830000D02*
X41120000Y-46167000D01*
X41120000Y-48233000D02*
X41120000Y-48570000D01*
X41120000Y-48570000D02*
X35880000Y-48570000D01*
%TO.C,U1*%
X48550000Y-8830000D02*
X48550000Y-39430000D01*
X48550000Y-39430000D02*
X53050000Y-39430000D01*
X49800000Y-8830000D02*
X48550000Y-8830000D01*
X53050000Y-8830000D02*
X51800000Y-8830000D01*
X53050000Y-39430000D02*
X53050000Y-8830000D01*
X45550000Y-8770000D02*
X56050000Y-8770000D01*
X56050000Y-39490000D01*
X45550000Y-39490000D01*
X45550000Y-8770000D01*
X51800000Y-8830000D02*
G75*
G02*
X49800000Y-8830000I-1000000J0D01*
G01*
%TO.C,SJ2*%
X35600000Y-53600000D02*
X35600000Y-53000000D01*
X36300000Y-52300000D02*
X37700000Y-52300000D01*
X37700000Y-54300000D02*
X36300000Y-54300000D01*
X38400000Y-53000000D02*
X38400000Y-53600000D01*
X35600000Y-53000000D02*
G75*
G02*
X36300000Y-52300000I699999J1D01*
G01*
X36300000Y-54300000D02*
G75*
G02*
X35600000Y-53600000I-1J699999D01*
G01*
X37700000Y-52300000D02*
G75*
G02*
X38400000Y-53000000I0J-700000D01*
G01*
X38400000Y-53600000D02*
G75*
G02*
X37700000Y-54300000I-700000J0D01*
G01*
%TO.C,C6*%
X42195225Y-45725000D02*
X42695225Y-45725000D01*
X42445225Y-45475000D02*
X42445225Y-45975000D01*
X45000000Y-44620000D02*
X45000000Y-46160000D01*
X45000000Y-48240000D02*
X45000000Y-49780000D01*
X45040000Y-44620000D02*
X45040000Y-46160000D01*
X45040000Y-48240000D02*
X45040000Y-49780000D01*
X45080000Y-44621000D02*
X45080000Y-46160000D01*
X45080000Y-48240000D02*
X45080000Y-49779000D01*
X45120000Y-44623000D02*
X45120000Y-46160000D01*
X45120000Y-48240000D02*
X45120000Y-49777000D01*
X45160000Y-44625000D02*
X45160000Y-46160000D01*
X45160000Y-48240000D02*
X45160000Y-49775000D01*
X45200000Y-44628000D02*
X45200000Y-46160000D01*
X45200000Y-48240000D02*
X45200000Y-49772000D01*
X45240000Y-44631000D02*
X45240000Y-46160000D01*
X45240000Y-48240000D02*
X45240000Y-49769000D01*
X45280000Y-44635000D02*
X45280000Y-46160000D01*
X45280000Y-48240000D02*
X45280000Y-49765000D01*
X45320000Y-44640000D02*
X45320000Y-46160000D01*
X45320000Y-48240000D02*
X45320000Y-49760000D01*
X45360000Y-44645000D02*
X45360000Y-46160000D01*
X45360000Y-48240000D02*
X45360000Y-49755000D01*
X45400000Y-44651000D02*
X45400000Y-46160000D01*
X45400000Y-48240000D02*
X45400000Y-49749000D01*
X45440000Y-44657000D02*
X45440000Y-46160000D01*
X45440000Y-48240000D02*
X45440000Y-49743000D01*
X45480000Y-44664000D02*
X45480000Y-46160000D01*
X45480000Y-48240000D02*
X45480000Y-49736000D01*
X45520000Y-44672000D02*
X45520000Y-46160000D01*
X45520000Y-48240000D02*
X45520000Y-49728000D01*
X45560000Y-44681000D02*
X45560000Y-46160000D01*
X45560000Y-48240000D02*
X45560000Y-49719000D01*
X45600000Y-44690000D02*
X45600000Y-46160000D01*
X45600000Y-48240000D02*
X45600000Y-49710000D01*
X45640000Y-44699000D02*
X45640000Y-46160000D01*
X45640000Y-48240000D02*
X45640000Y-49701000D01*
X45680000Y-44710000D02*
X45680000Y-46160000D01*
X45680000Y-48240000D02*
X45680000Y-49690000D01*
X45720000Y-44721000D02*
X45720000Y-46160000D01*
X45720000Y-48240000D02*
X45720000Y-49679000D01*
X45760000Y-44733000D02*
X45760000Y-46160000D01*
X45760000Y-48240000D02*
X45760000Y-49667000D01*
X45800000Y-44745000D02*
X45800000Y-46160000D01*
X45800000Y-48240000D02*
X45800000Y-49655000D01*
X45840000Y-44758000D02*
X45840000Y-46160000D01*
X45840000Y-48240000D02*
X45840000Y-49642000D01*
X45880000Y-44772000D02*
X45880000Y-46160000D01*
X45880000Y-48240000D02*
X45880000Y-49628000D01*
X45920000Y-44787000D02*
X45920000Y-46160000D01*
X45920000Y-48240000D02*
X45920000Y-49613000D01*
X45960000Y-44802000D02*
X45960000Y-46160000D01*
X45960000Y-48240000D02*
X45960000Y-49598000D01*
X46000000Y-44818000D02*
X46000000Y-46160000D01*
X46000000Y-48240000D02*
X46000000Y-49582000D01*
X46040000Y-44835000D02*
X46040000Y-46160000D01*
X46040000Y-48240000D02*
X46040000Y-49565000D01*
X46080000Y-44853000D02*
X46080000Y-46160000D01*
X46080000Y-48240000D02*
X46080000Y-49547000D01*
X46120000Y-44871000D02*
X46120000Y-46160000D01*
X46120000Y-48240000D02*
X46120000Y-49529000D01*
X46160000Y-44891000D02*
X46160000Y-46160000D01*
X46160000Y-48240000D02*
X46160000Y-49509000D01*
X46200000Y-44911000D02*
X46200000Y-46160000D01*
X46200000Y-48240000D02*
X46200000Y-49489000D01*
X46240000Y-44932000D02*
X46240000Y-46160000D01*
X46240000Y-48240000D02*
X46240000Y-49468000D01*
X46280000Y-44954000D02*
X46280000Y-46160000D01*
X46280000Y-48240000D02*
X46280000Y-49446000D01*
X46320000Y-44977000D02*
X46320000Y-46160000D01*
X46320000Y-48240000D02*
X46320000Y-49423000D01*
X46360000Y-45001000D02*
X46360000Y-46160000D01*
X46360000Y-48240000D02*
X46360000Y-49399000D01*
X46400000Y-45025000D02*
X46400000Y-46160000D01*
X46400000Y-48240000D02*
X46400000Y-49375000D01*
X46440000Y-45051000D02*
X46440000Y-46160000D01*
X46440000Y-48240000D02*
X46440000Y-49349000D01*
X46480000Y-45078000D02*
X46480000Y-46160000D01*
X46480000Y-48240000D02*
X46480000Y-49322000D01*
X46520000Y-45106000D02*
X46520000Y-46160000D01*
X46520000Y-48240000D02*
X46520000Y-49294000D01*
X46560000Y-45135000D02*
X46560000Y-46160000D01*
X46560000Y-48240000D02*
X46560000Y-49265000D01*
X46600000Y-45165000D02*
X46600000Y-46160000D01*
X46600000Y-48240000D02*
X46600000Y-49235000D01*
X46640000Y-45197000D02*
X46640000Y-46160000D01*
X46640000Y-48240000D02*
X46640000Y-49203000D01*
X46680000Y-45230000D02*
X46680000Y-46160000D01*
X46680000Y-48240000D02*
X46680000Y-49170000D01*
X46720000Y-45264000D02*
X46720000Y-46160000D01*
X46720000Y-48240000D02*
X46720000Y-49136000D01*
X46760000Y-45299000D02*
X46760000Y-46160000D01*
X46760000Y-48240000D02*
X46760000Y-49101000D01*
X46800000Y-45336000D02*
X46800000Y-46160000D01*
X46800000Y-48240000D02*
X46800000Y-49064000D01*
X46840000Y-45375000D02*
X46840000Y-46160000D01*
X46840000Y-48240000D02*
X46840000Y-49025000D01*
X46880000Y-45415000D02*
X46880000Y-46160000D01*
X46880000Y-48240000D02*
X46880000Y-48985000D01*
X46920000Y-45457000D02*
X46920000Y-46160000D01*
X46920000Y-48240000D02*
X46920000Y-48943000D01*
X46960000Y-45501000D02*
X46960000Y-46160000D01*
X46960000Y-48240000D02*
X46960000Y-48899000D01*
X47000000Y-45548000D02*
X47000000Y-46160000D01*
X47000000Y-48240000D02*
X47000000Y-48852000D01*
X47040000Y-45596000D02*
X47040000Y-48804000D01*
X47080000Y-45647000D02*
X47080000Y-48753000D01*
X47120000Y-45701000D02*
X47120000Y-48699000D01*
X47160000Y-45757000D02*
X47160000Y-48643000D01*
X47200000Y-45817000D02*
X47200000Y-48583000D01*
X47240000Y-45881000D02*
X47240000Y-48519000D01*
X47280000Y-45949000D02*
X47280000Y-48451000D01*
X47320000Y-46023000D02*
X47320000Y-48377000D01*
X47360000Y-46102000D02*
X47360000Y-48298000D01*
X47400000Y-46189000D02*
X47400000Y-48211000D01*
X47440000Y-46286000D02*
X47440000Y-48114000D01*
X47480000Y-46395000D02*
X47480000Y-48005000D01*
X47520000Y-46523000D02*
X47520000Y-47877000D01*
X47560000Y-46683000D02*
X47560000Y-47717000D01*
X47600000Y-46917000D02*
X47600000Y-47483000D01*
X47620000Y-47200000D02*
G75*
G02*
X42380000Y-47200000I-2620000J0D01*
G01*
X42380000Y-47200000D02*
G75*
G02*
X47620000Y-47200000I2620000J0D01*
G01*
%TO.C,U2*%
X61250000Y-11370000D02*
X61250000Y-36890000D01*
X61250000Y-36890000D02*
X65750000Y-36890000D01*
X62500000Y-11370000D02*
X61250000Y-11370000D01*
X65750000Y-11370000D02*
X64500000Y-11370000D01*
X65750000Y-36890000D02*
X65750000Y-11370000D01*
X58250000Y-11310000D02*
X68750000Y-11310000D01*
X68750000Y-36950000D01*
X58250000Y-36950000D01*
X58250000Y-11310000D01*
X64500000Y-11370000D02*
G75*
G02*
X62500000Y-11370000I-1000000J0D01*
G01*
%TO.C,C4*%
X11880000Y-45830000D02*
X17120000Y-45830000D01*
X11880000Y-46167000D02*
X11880000Y-45830000D01*
X11880000Y-48570000D02*
X11880000Y-48233000D01*
X17120000Y-45830000D02*
X17120000Y-46167000D01*
X17120000Y-48233000D02*
X17120000Y-48570000D01*
X17120000Y-48570000D02*
X11880000Y-48570000D01*
%TO.C,C1*%
X19880000Y-45830000D02*
X25120000Y-45830000D01*
X19880000Y-46167000D02*
X19880000Y-45830000D01*
X19880000Y-48570000D02*
X19880000Y-48233000D01*
X25120000Y-45830000D02*
X25120000Y-46167000D01*
X25120000Y-48233000D02*
X25120000Y-48570000D01*
X25120000Y-48570000D02*
X19880000Y-48570000D01*
%TD*%
%LPC*%
%TO.C,SJ1*%
G36*
X30850000Y-52550000D02*
G01*
X31150000Y-52550000D01*
X31150000Y-54050000D01*
X30850000Y-54050000D01*
X30850000Y-52550000D01*
G37*
%TO.C,SJ2*%
G36*
X36850000Y-52550000D02*
G01*
X37150000Y-52550000D01*
X37150000Y-54050000D01*
X36850000Y-54050000D01*
X36850000Y-52550000D01*
G37*
%TD*%
D12*
%TO.C,J1*%
X5080000Y-63500000D03*
D13*
X7620000Y-63500000D03*
X10160000Y-63500000D03*
X12700000Y-63500000D03*
X15240000Y-63500000D03*
X17780000Y-63500000D03*
X20320000Y-63500000D03*
X22860000Y-63500000D03*
X25400000Y-63500000D03*
X27940000Y-63500000D03*
X30480000Y-63500000D03*
X33020000Y-63500000D03*
X35560000Y-63500000D03*
X38100000Y-63500000D03*
X40640000Y-63500000D03*
X43180000Y-63500000D03*
X45720000Y-63500000D03*
X48260000Y-63500000D03*
X50800000Y-63500000D03*
X53340000Y-63500000D03*
X55880000Y-63500000D03*
X58420000Y-63500000D03*
X60960000Y-63500000D03*
X63500000Y-63500000D03*
X66040000Y-63500000D03*
X68580000Y-63500000D03*
X71120000Y-63500000D03*
X73660000Y-63500000D03*
X73660000Y-60960000D03*
X71120000Y-60960000D03*
X68580000Y-60960000D03*
X66040000Y-60960000D03*
X63500000Y-60960000D03*
X60960000Y-60960000D03*
X58420000Y-60960000D03*
X55880000Y-60960000D03*
X53340000Y-60960000D03*
X50800000Y-60960000D03*
X48260000Y-60960000D03*
X45720000Y-60960000D03*
X43180000Y-60960000D03*
X40640000Y-60960000D03*
X38100000Y-60960000D03*
X35560000Y-60960000D03*
X33020000Y-60960000D03*
X30480000Y-60960000D03*
X27940000Y-60960000D03*
X25400000Y-60960000D03*
X22860000Y-60960000D03*
X20320000Y-60960000D03*
X17780000Y-60960000D03*
X15240000Y-60960000D03*
X12700000Y-60960000D03*
X10160000Y-60960000D03*
X7620000Y-60960000D03*
X5080000Y-60960000D03*
%TD*%
D14*
%TO.C,C2*%
X28000000Y-47200000D03*
X33000000Y-47200000D03*
%TD*%
%TO.C,R5*%
X17000000Y-53300000D03*
X19540000Y-53300000D03*
%TD*%
D12*
%TO.C,JP1*%
X71500000Y-8000000D03*
D13*
X71500000Y-10540000D03*
X71500000Y-13080000D03*
%TD*%
D12*
%TO.C,JP2*%
X71500000Y-17000000D03*
D13*
X71500000Y-19540000D03*
X71500000Y-22080000D03*
%TD*%
D15*
%TO.C,U3*%
X6350000Y-5080000D03*
D16*
X6350000Y-7620000D03*
X6350000Y-10160000D03*
X6350000Y-12700000D03*
X6350000Y-15240000D03*
X6350000Y-17780000D03*
X6350000Y-20320000D03*
X6350000Y-22860000D03*
X6350000Y-25400000D03*
X6350000Y-27940000D03*
X6350000Y-30480000D03*
X6350000Y-33020000D03*
X6350000Y-35560000D03*
X6350000Y-38100000D03*
X6350000Y-40640000D03*
X6350000Y-43180000D03*
X21590000Y-43180000D03*
X21590000Y-40640000D03*
X21590000Y-38100000D03*
X21590000Y-35560000D03*
X21590000Y-33020000D03*
X21590000Y-30480000D03*
X21590000Y-27940000D03*
X21590000Y-25400000D03*
X21590000Y-22860000D03*
X21590000Y-20320000D03*
X21590000Y-17780000D03*
X21590000Y-15240000D03*
X21590000Y-12700000D03*
X21590000Y-10160000D03*
X21590000Y-7620000D03*
X21590000Y-5080000D03*
%TD*%
D17*
%TO.C,TP1*%
X60000000Y-47200000D03*
%TD*%
D12*
%TO.C,JP3*%
X71500000Y-26000000D03*
D13*
X71500000Y-28540000D03*
%TD*%
D18*
%TO.C,SJ1*%
X30350000Y-53300000D03*
D19*
X31650000Y-53300000D03*
%TD*%
D15*
%TO.C,U4*%
X26670000Y-7620000D03*
D16*
X26670000Y-10160000D03*
X26670000Y-12700000D03*
X26670000Y-15240000D03*
X26670000Y-17780000D03*
X26670000Y-20320000D03*
X26670000Y-22860000D03*
X26670000Y-25400000D03*
X26670000Y-27940000D03*
X26670000Y-30480000D03*
X26670000Y-33020000D03*
X26670000Y-35560000D03*
X26670000Y-38100000D03*
X26670000Y-40640000D03*
X41910000Y-40640000D03*
X41910000Y-38100000D03*
X41910000Y-35560000D03*
X41910000Y-33020000D03*
X41910000Y-30480000D03*
X41910000Y-27940000D03*
X41910000Y-25400000D03*
X41910000Y-22860000D03*
X41910000Y-20320000D03*
X41910000Y-17780000D03*
X41910000Y-15240000D03*
X41910000Y-12700000D03*
X41910000Y-10160000D03*
X41910000Y-7620000D03*
%TD*%
D14*
%TO.C,R2*%
X5000000Y-53300000D03*
X7540000Y-53300000D03*
%TD*%
D20*
%TO.C,D1*%
X52000000Y-47200000D03*
D21*
X54540000Y-47200000D03*
%TD*%
D14*
%TO.C,R3*%
X23000000Y-53300000D03*
X25540000Y-53300000D03*
%TD*%
%TO.C,C3*%
X4000000Y-47200000D03*
X9000000Y-47200000D03*
%TD*%
D17*
%TO.C,TP2*%
X64000000Y-47200000D03*
%TD*%
D12*
%TO.C,JP4*%
X71500000Y-33500000D03*
D13*
X71500000Y-36040000D03*
%TD*%
D14*
%TO.C,R4*%
X11000000Y-53300000D03*
X13540000Y-53300000D03*
%TD*%
%TO.C,C5*%
X36000000Y-47200000D03*
X41000000Y-47200000D03*
%TD*%
D15*
%TO.C,U1*%
X46990000Y-10160000D03*
D16*
X46990000Y-12700000D03*
X46990000Y-15240000D03*
X46990000Y-17780000D03*
X46990000Y-20320000D03*
X46990000Y-22860000D03*
X46990000Y-25400000D03*
X46990000Y-27940000D03*
X46990000Y-30480000D03*
X46990000Y-33020000D03*
X46990000Y-35560000D03*
X46990000Y-38100000D03*
X54610000Y-38100000D03*
X54610000Y-35560000D03*
X54610000Y-33020000D03*
X54610000Y-30480000D03*
X54610000Y-27940000D03*
X54610000Y-25400000D03*
X54610000Y-22860000D03*
X54610000Y-20320000D03*
X54610000Y-17780000D03*
X54610000Y-15240000D03*
X54610000Y-12700000D03*
X54610000Y-10160000D03*
%TD*%
D18*
%TO.C,SJ2*%
X36350000Y-53300000D03*
D19*
X37650000Y-53300000D03*
%TD*%
D22*
%TO.C,C6*%
X44000000Y-47200000D03*
D14*
X46000000Y-47200000D03*
%TD*%
D15*
%TO.C,U2*%
X59690000Y-12700000D03*
D16*
X59690000Y-15240000D03*
X59690000Y-17780000D03*
X59690000Y-20320000D03*
X59690000Y-22860000D03*
X59690000Y-25400000D03*
X59690000Y-27940000D03*
X59690000Y-30480000D03*
X59690000Y-33020000D03*
X59690000Y-35560000D03*
X67310000Y-35560000D03*
X67310000Y-33020000D03*
X67310000Y-30480000D03*
X67310000Y-27940000D03*
X67310000Y-25400000D03*
X67310000Y-22860000D03*
X67310000Y-20320000D03*
X67310000Y-17780000D03*
X67310000Y-15240000D03*
X67310000Y-12700000D03*
%TD*%
D14*
%TO.C,C4*%
X12000000Y-47200000D03*
X17000000Y-47200000D03*
%TD*%
%TO.C,C1*%
X20000000Y-47200000D03*
X25000000Y-47200000D03*
%TD*%
%LPD*%
M02*
