%TF.GenerationSoftware,KiCad,Pcbnew,10.0.4*%
%TF.CreationDate,2026-08-31T21:30:00-03:00*%
%TF.ProjectId,tkmem128-ii,746b6d65-6d31-4323-982d-69692e6b6963,rev?*%
%TF.SameCoordinates,Original*%
%TF.FileFunction,Legend,Bot*%
%TF.FilePolarity,Positive*%
%FSLAX46Y46*%
G04 Gerber Fmt 4.6, Leading zero omitted, Abs format (unit mm)*
G04 Created by KiCad (PCBNEW 10.0.4) date 2026-08-31 21:30:00*
%MOMM*%
%LPD*%
G01*
G04 APERTURE LIST*
%ADD10C,0.150000*%
%ADD11C,0.180000*%
%ADD12C,0.240000*%
%ADD13C,0.200000*%
%ADD14C,0.160000*%
G04 APERTURE END LIST*
D10*
X3000000Y-29800000D02*
X3000000Y-35800000D01*
X3000000Y-29800000D02*
X17800000Y-29800000D01*
X3000000Y-31800000D02*
X17800000Y-31800000D01*
X3000000Y-33800000D02*
X17800000Y-33800000D01*
X3000000Y-35800000D02*
X17800000Y-35800000D01*
X8700000Y-29800000D02*
X8700000Y-35800000D01*
X17800000Y-29800000D02*
X17800000Y-35800000D01*
X24000000Y-29800000D02*
X24000000Y-37800000D01*
X24000000Y-29800000D02*
X44800000Y-29800000D01*
X24000000Y-31800000D02*
X44800000Y-31800000D01*
X24000000Y-33800000D02*
X44800000Y-33800000D01*
X24000000Y-35800000D02*
X44800000Y-35800000D01*
X24000000Y-37800000D02*
X44800000Y-37800000D01*
X37100000Y-29800000D02*
X37100000Y-37800000D01*
X44800000Y-29800000D02*
X44800000Y-37800000D01*
X55000000Y-20620000D02*
X55000000Y-26620000D01*
X55000000Y-20620000D02*
X72900000Y-20620000D01*
X55000000Y-22620000D02*
X72900000Y-22620000D01*
X55000000Y-24620000D02*
X72900000Y-24620000D01*
X55000000Y-26620000D02*
X72900000Y-26620000D01*
X68100000Y-20620000D02*
X68100000Y-26620000D01*
X72900000Y-20620000D02*
X72900000Y-26620000D01*
D11*
X36599998Y-49945782D02*
X36999998Y-49374354D01*
X37285712Y-49945782D02*
X37285712Y-48745782D01*
X37285712Y-48745782D02*
X36828569Y-48745782D01*
X36828569Y-48745782D02*
X36714284Y-48802925D01*
X36714284Y-48802925D02*
X36657141Y-48860068D01*
X36657141Y-48860068D02*
X36599998Y-48974354D01*
X36599998Y-48974354D02*
X36599998Y-49145782D01*
X36599998Y-49145782D02*
X36657141Y-49260068D01*
X36657141Y-49260068D02*
X36714284Y-49317211D01*
X36714284Y-49317211D02*
X36828569Y-49374354D01*
X36828569Y-49374354D02*
X37285712Y-49374354D01*
X35571427Y-49145782D02*
X35571427Y-49945782D01*
X35857141Y-48688640D02*
X36142855Y-49545782D01*
X36142855Y-49545782D02*
X35399998Y-49545782D01*
X34942855Y-49831497D02*
X34885712Y-49888640D01*
X34885712Y-49888640D02*
X34942855Y-49945782D01*
X34942855Y-49945782D02*
X34999998Y-49888640D01*
X34999998Y-49888640D02*
X34942855Y-49831497D01*
X34942855Y-49831497D02*
X34942855Y-49945782D01*
X34942855Y-49202925D02*
X34885712Y-49260068D01*
X34885712Y-49260068D02*
X34942855Y-49317211D01*
X34942855Y-49317211D02*
X34999998Y-49260068D01*
X34999998Y-49260068D02*
X34942855Y-49202925D01*
X34942855Y-49202925D02*
X34942855Y-49317211D01*
X33457140Y-49145782D02*
X33457140Y-50345782D01*
X33457140Y-49202925D02*
X33342855Y-49145782D01*
X33342855Y-49145782D02*
X33114283Y-49145782D01*
X33114283Y-49145782D02*
X32999997Y-49202925D01*
X32999997Y-49202925D02*
X32942855Y-49260068D01*
X32942855Y-49260068D02*
X32885712Y-49374354D01*
X32885712Y-49374354D02*
X32885712Y-49717211D01*
X32885712Y-49717211D02*
X32942855Y-49831497D01*
X32942855Y-49831497D02*
X32999997Y-49888640D01*
X32999997Y-49888640D02*
X33114283Y-49945782D01*
X33114283Y-49945782D02*
X33342855Y-49945782D01*
X33342855Y-49945782D02*
X33457140Y-49888640D01*
X31857141Y-49145782D02*
X31857141Y-49945782D01*
X32371426Y-49145782D02*
X32371426Y-49774354D01*
X32371426Y-49774354D02*
X32314283Y-49888640D01*
X32314283Y-49888640D02*
X32199998Y-49945782D01*
X32199998Y-49945782D02*
X32028569Y-49945782D01*
X32028569Y-49945782D02*
X31914283Y-49888640D01*
X31914283Y-49888640D02*
X31857141Y-49831497D01*
X31114284Y-49945782D02*
X31228569Y-49888640D01*
X31228569Y-49888640D02*
X31285712Y-49774354D01*
X31285712Y-49774354D02*
X31285712Y-48745782D01*
X30485713Y-49945782D02*
X30599998Y-49888640D01*
X30599998Y-49888640D02*
X30657141Y-49774354D01*
X30657141Y-49774354D02*
X30657141Y-48745782D01*
X30028570Y-49488640D02*
X29114285Y-49488640D01*
X28028571Y-49145782D02*
X28028571Y-49945782D01*
X28542856Y-49145782D02*
X28542856Y-49774354D01*
X28542856Y-49774354D02*
X28485713Y-49888640D01*
X28485713Y-49888640D02*
X28371428Y-49945782D01*
X28371428Y-49945782D02*
X28199999Y-49945782D01*
X28199999Y-49945782D02*
X28085713Y-49888640D01*
X28085713Y-49888640D02*
X28028571Y-49831497D01*
X27457142Y-49145782D02*
X27457142Y-50345782D01*
X27457142Y-49202925D02*
X27342857Y-49145782D01*
X27342857Y-49145782D02*
X27114285Y-49145782D01*
X27114285Y-49145782D02*
X26999999Y-49202925D01*
X26999999Y-49202925D02*
X26942857Y-49260068D01*
X26942857Y-49260068D02*
X26885714Y-49374354D01*
X26885714Y-49374354D02*
X26885714Y-49717211D01*
X26885714Y-49717211D02*
X26942857Y-49831497D01*
X26942857Y-49831497D02*
X26999999Y-49888640D01*
X26999999Y-49888640D02*
X27114285Y-49945782D01*
X27114285Y-49945782D02*
X27342857Y-49945782D01*
X27342857Y-49945782D02*
X27457142Y-49888640D01*
X24942857Y-49945782D02*
X24942857Y-48745782D01*
X24942857Y-49888640D02*
X25057142Y-49945782D01*
X25057142Y-49945782D02*
X25285714Y-49945782D01*
X25285714Y-49945782D02*
X25399999Y-49888640D01*
X25399999Y-49888640D02*
X25457142Y-49831497D01*
X25457142Y-49831497D02*
X25514285Y-49717211D01*
X25514285Y-49717211D02*
X25514285Y-49374354D01*
X25514285Y-49374354D02*
X25457142Y-49260068D01*
X25457142Y-49260068D02*
X25399999Y-49202925D01*
X25399999Y-49202925D02*
X25285714Y-49145782D01*
X25285714Y-49145782D02*
X25057142Y-49145782D01*
X25057142Y-49145782D02*
X24942857Y-49202925D01*
X24200000Y-49945782D02*
X24314285Y-49888640D01*
X24314285Y-49888640D02*
X24371428Y-49831497D01*
X24371428Y-49831497D02*
X24428571Y-49717211D01*
X24428571Y-49717211D02*
X24428571Y-49374354D01*
X24428571Y-49374354D02*
X24371428Y-49260068D01*
X24371428Y-49260068D02*
X24314285Y-49202925D01*
X24314285Y-49202925D02*
X24200000Y-49145782D01*
X24200000Y-49145782D02*
X24028571Y-49145782D01*
X24028571Y-49145782D02*
X23914285Y-49202925D01*
X23914285Y-49202925D02*
X23857143Y-49260068D01*
X23857143Y-49260068D02*
X23800000Y-49374354D01*
X23800000Y-49374354D02*
X23800000Y-49717211D01*
X23800000Y-49717211D02*
X23857143Y-49831497D01*
X23857143Y-49831497D02*
X23914285Y-49888640D01*
X23914285Y-49888640D02*
X24028571Y-49945782D01*
X24028571Y-49945782D02*
X24200000Y-49945782D01*
X22371428Y-49145782D02*
X22371428Y-50345782D01*
X22371428Y-49202925D02*
X22257143Y-49145782D01*
X22257143Y-49145782D02*
X22028571Y-49145782D01*
X22028571Y-49145782D02*
X21914285Y-49202925D01*
X21914285Y-49202925D02*
X21857143Y-49260068D01*
X21857143Y-49260068D02*
X21800000Y-49374354D01*
X21800000Y-49374354D02*
X21800000Y-49717211D01*
X21800000Y-49717211D02*
X21857143Y-49831497D01*
X21857143Y-49831497D02*
X21914285Y-49888640D01*
X21914285Y-49888640D02*
X22028571Y-49945782D01*
X22028571Y-49945782D02*
X22257143Y-49945782D01*
X22257143Y-49945782D02*
X22371428Y-49888640D01*
X21285714Y-49945782D02*
X21285714Y-49145782D01*
X21285714Y-48745782D02*
X21342857Y-48802925D01*
X21342857Y-48802925D02*
X21285714Y-48860068D01*
X21285714Y-48860068D02*
X21228571Y-48802925D01*
X21228571Y-48802925D02*
X21285714Y-48745782D01*
X21285714Y-48745782D02*
X21285714Y-48860068D01*
X20714285Y-49145782D02*
X20714285Y-49945782D01*
X20714285Y-49260068D02*
X20657142Y-49202925D01*
X20657142Y-49202925D02*
X20542857Y-49145782D01*
X20542857Y-49145782D02*
X20371428Y-49145782D01*
X20371428Y-49145782D02*
X20257142Y-49202925D01*
X20257142Y-49202925D02*
X20200000Y-49317211D01*
X20200000Y-49317211D02*
X20200000Y-49945782D01*
X19457143Y-49945782D02*
X19571428Y-49888640D01*
X19571428Y-49888640D02*
X19628571Y-49831497D01*
X19628571Y-49831497D02*
X19685714Y-49717211D01*
X19685714Y-49717211D02*
X19685714Y-49374354D01*
X19685714Y-49374354D02*
X19628571Y-49260068D01*
X19628571Y-49260068D02*
X19571428Y-49202925D01*
X19571428Y-49202925D02*
X19457143Y-49145782D01*
X19457143Y-49145782D02*
X19285714Y-49145782D01*
X19285714Y-49145782D02*
X19171428Y-49202925D01*
X19171428Y-49202925D02*
X19114286Y-49260068D01*
X19114286Y-49260068D02*
X19057143Y-49374354D01*
X19057143Y-49374354D02*
X19057143Y-49717211D01*
X19057143Y-49717211D02*
X19114286Y-49831497D01*
X19114286Y-49831497D02*
X19171428Y-49888640D01*
X19171428Y-49888640D02*
X19285714Y-49945782D01*
X19285714Y-49945782D02*
X19457143Y-49945782D01*
X17685714Y-48860068D02*
X17628571Y-48802925D01*
X17628571Y-48802925D02*
X17514286Y-48745782D01*
X17514286Y-48745782D02*
X17228571Y-48745782D01*
X17228571Y-48745782D02*
X17114286Y-48802925D01*
X17114286Y-48802925D02*
X17057143Y-48860068D01*
X17057143Y-48860068D02*
X17000000Y-48974354D01*
X17000000Y-48974354D02*
X17000000Y-49088640D01*
X17000000Y-49088640D02*
X17057143Y-49260068D01*
X17057143Y-49260068D02*
X17742857Y-49945782D01*
X17742857Y-49945782D02*
X17000000Y-49945782D01*
X16428571Y-49945782D02*
X16200000Y-49945782D01*
X16200000Y-49945782D02*
X16085714Y-49888640D01*
X16085714Y-49888640D02*
X16028571Y-49831497D01*
X16028571Y-49831497D02*
X15914286Y-49660068D01*
X15914286Y-49660068D02*
X15857143Y-49431497D01*
X15857143Y-49431497D02*
X15857143Y-48974354D01*
X15857143Y-48974354D02*
X15914286Y-48860068D01*
X15914286Y-48860068D02*
X15971429Y-48802925D01*
X15971429Y-48802925D02*
X16085714Y-48745782D01*
X16085714Y-48745782D02*
X16314286Y-48745782D01*
X16314286Y-48745782D02*
X16428571Y-48802925D01*
X16428571Y-48802925D02*
X16485714Y-48860068D01*
X16485714Y-48860068D02*
X16542857Y-48974354D01*
X16542857Y-48974354D02*
X16542857Y-49260068D01*
X16542857Y-49260068D02*
X16485714Y-49374354D01*
X16485714Y-49374354D02*
X16428571Y-49431497D01*
X16428571Y-49431497D02*
X16314286Y-49488640D01*
X16314286Y-49488640D02*
X16085714Y-49488640D01*
X16085714Y-49488640D02*
X15971429Y-49431497D01*
X15971429Y-49431497D02*
X15914286Y-49374354D01*
X15914286Y-49374354D02*
X15857143Y-49260068D01*
X44685712Y-52602925D02*
X44742855Y-52545782D01*
X44742855Y-52545782D02*
X44857141Y-52374354D01*
X44857141Y-52374354D02*
X44914284Y-52260068D01*
X44914284Y-52260068D02*
X44971426Y-52088640D01*
X44971426Y-52088640D02*
X45028569Y-51802925D01*
X45028569Y-51802925D02*
X45028569Y-51574354D01*
X45028569Y-51574354D02*
X44971426Y-51288640D01*
X44971426Y-51288640D02*
X44914284Y-51117211D01*
X44914284Y-51117211D02*
X44857141Y-51002925D01*
X44857141Y-51002925D02*
X44742855Y-50831497D01*
X44742855Y-50831497D02*
X44685712Y-50774354D01*
X43714284Y-52145782D02*
X43714284Y-51517211D01*
X43714284Y-51517211D02*
X43771426Y-51402925D01*
X43771426Y-51402925D02*
X43885712Y-51345782D01*
X43885712Y-51345782D02*
X44114284Y-51345782D01*
X44114284Y-51345782D02*
X44228569Y-51402925D01*
X43714284Y-52088640D02*
X43828569Y-52145782D01*
X43828569Y-52145782D02*
X44114284Y-52145782D01*
X44114284Y-52145782D02*
X44228569Y-52088640D01*
X44228569Y-52088640D02*
X44285712Y-51974354D01*
X44285712Y-51974354D02*
X44285712Y-51860068D01*
X44285712Y-51860068D02*
X44228569Y-51745782D01*
X44228569Y-51745782D02*
X44114284Y-51688640D01*
X44114284Y-51688640D02*
X43828569Y-51688640D01*
X43828569Y-51688640D02*
X43714284Y-51631497D01*
X42628570Y-51345782D02*
X42628570Y-52145782D01*
X43142855Y-51345782D02*
X43142855Y-51974354D01*
X43142855Y-51974354D02*
X43085712Y-52088640D01*
X43085712Y-52088640D02*
X42971427Y-52145782D01*
X42971427Y-52145782D02*
X42799998Y-52145782D01*
X42799998Y-52145782D02*
X42685712Y-52088640D01*
X42685712Y-52088640D02*
X42628570Y-52031497D01*
X42228570Y-51345782D02*
X41771427Y-51345782D01*
X42057141Y-50945782D02*
X42057141Y-51974354D01*
X42057141Y-51974354D02*
X41999998Y-52088640D01*
X41999998Y-52088640D02*
X41885713Y-52145782D01*
X41885713Y-52145782D02*
X41771427Y-52145782D01*
X41199999Y-52145782D02*
X41314284Y-52088640D01*
X41314284Y-52088640D02*
X41371427Y-52031497D01*
X41371427Y-52031497D02*
X41428570Y-51917211D01*
X41428570Y-51917211D02*
X41428570Y-51574354D01*
X41428570Y-51574354D02*
X41371427Y-51460068D01*
X41371427Y-51460068D02*
X41314284Y-51402925D01*
X41314284Y-51402925D02*
X41199999Y-51345782D01*
X41199999Y-51345782D02*
X41028570Y-51345782D01*
X41028570Y-51345782D02*
X40914284Y-51402925D01*
X40914284Y-51402925D02*
X40857142Y-51460068D01*
X40857142Y-51460068D02*
X40799999Y-51574354D01*
X40799999Y-51574354D02*
X40799999Y-51917211D01*
X40799999Y-51917211D02*
X40857142Y-52031497D01*
X40857142Y-52031497D02*
X40914284Y-52088640D01*
X40914284Y-52088640D02*
X41028570Y-52145782D01*
X41028570Y-52145782D02*
X41199999Y-52145782D01*
X40285713Y-51688640D02*
X39371428Y-51688640D01*
X38285714Y-52145782D02*
X38285714Y-50945782D01*
X38285714Y-52088640D02*
X38399999Y-52145782D01*
X38399999Y-52145782D02*
X38628571Y-52145782D01*
X38628571Y-52145782D02*
X38742856Y-52088640D01*
X38742856Y-52088640D02*
X38799999Y-52031497D01*
X38799999Y-52031497D02*
X38857142Y-51917211D01*
X38857142Y-51917211D02*
X38857142Y-51574354D01*
X38857142Y-51574354D02*
X38799999Y-51460068D01*
X38799999Y-51460068D02*
X38742856Y-51402925D01*
X38742856Y-51402925D02*
X38628571Y-51345782D01*
X38628571Y-51345782D02*
X38399999Y-51345782D01*
X38399999Y-51345782D02*
X38285714Y-51402925D01*
X37257142Y-52088640D02*
X37371428Y-52145782D01*
X37371428Y-52145782D02*
X37600000Y-52145782D01*
X37600000Y-52145782D02*
X37714285Y-52088640D01*
X37714285Y-52088640D02*
X37771428Y-51974354D01*
X37771428Y-51974354D02*
X37771428Y-51517211D01*
X37771428Y-51517211D02*
X37714285Y-51402925D01*
X37714285Y-51402925D02*
X37600000Y-51345782D01*
X37600000Y-51345782D02*
X37371428Y-51345782D01*
X37371428Y-51345782D02*
X37257142Y-51402925D01*
X37257142Y-51402925D02*
X37200000Y-51517211D01*
X37200000Y-51517211D02*
X37200000Y-51631497D01*
X37200000Y-51631497D02*
X37771428Y-51745782D01*
X36742857Y-52088640D02*
X36628571Y-52145782D01*
X36628571Y-52145782D02*
X36400000Y-52145782D01*
X36400000Y-52145782D02*
X36285714Y-52088640D01*
X36285714Y-52088640D02*
X36228571Y-51974354D01*
X36228571Y-51974354D02*
X36228571Y-51917211D01*
X36228571Y-51917211D02*
X36285714Y-51802925D01*
X36285714Y-51802925D02*
X36400000Y-51745782D01*
X36400000Y-51745782D02*
X36571429Y-51745782D01*
X36571429Y-51745782D02*
X36685714Y-51688640D01*
X36685714Y-51688640D02*
X36742857Y-51574354D01*
X36742857Y-51574354D02*
X36742857Y-51517211D01*
X36742857Y-51517211D02*
X36685714Y-51402925D01*
X36685714Y-51402925D02*
X36571429Y-51345782D01*
X36571429Y-51345782D02*
X36400000Y-51345782D01*
X36400000Y-51345782D02*
X36285714Y-51402925D01*
X35200000Y-52145782D02*
X35200000Y-51517211D01*
X35200000Y-51517211D02*
X35257142Y-51402925D01*
X35257142Y-51402925D02*
X35371428Y-51345782D01*
X35371428Y-51345782D02*
X35600000Y-51345782D01*
X35600000Y-51345782D02*
X35714285Y-51402925D01*
X35200000Y-52088640D02*
X35314285Y-52145782D01*
X35314285Y-52145782D02*
X35600000Y-52145782D01*
X35600000Y-52145782D02*
X35714285Y-52088640D01*
X35714285Y-52088640D02*
X35771428Y-51974354D01*
X35771428Y-51974354D02*
X35771428Y-51860068D01*
X35771428Y-51860068D02*
X35714285Y-51745782D01*
X35714285Y-51745782D02*
X35600000Y-51688640D01*
X35600000Y-51688640D02*
X35314285Y-51688640D01*
X35314285Y-51688640D02*
X35200000Y-51631497D01*
X34800000Y-51345782D02*
X34342857Y-51345782D01*
X34628571Y-50945782D02*
X34628571Y-51974354D01*
X34628571Y-51974354D02*
X34571428Y-52088640D01*
X34571428Y-52088640D02*
X34457143Y-52145782D01*
X34457143Y-52145782D02*
X34342857Y-52145782D01*
X33942857Y-52145782D02*
X33942857Y-51345782D01*
X33942857Y-50945782D02*
X34000000Y-51002925D01*
X34000000Y-51002925D02*
X33942857Y-51060068D01*
X33942857Y-51060068D02*
X33885714Y-51002925D01*
X33885714Y-51002925D02*
X33942857Y-50945782D01*
X33942857Y-50945782D02*
X33942857Y-51060068D01*
X33485714Y-51345782D02*
X33200000Y-52145782D01*
X33200000Y-52145782D02*
X32914285Y-51345782D01*
X31942857Y-52145782D02*
X31942857Y-51517211D01*
X31942857Y-51517211D02*
X31999999Y-51402925D01*
X31999999Y-51402925D02*
X32114285Y-51345782D01*
X32114285Y-51345782D02*
X32342857Y-51345782D01*
X32342857Y-51345782D02*
X32457142Y-51402925D01*
X31942857Y-52088640D02*
X32057142Y-52145782D01*
X32057142Y-52145782D02*
X32342857Y-52145782D01*
X32342857Y-52145782D02*
X32457142Y-52088640D01*
X32457142Y-52088640D02*
X32514285Y-51974354D01*
X32514285Y-51974354D02*
X32514285Y-51860068D01*
X32514285Y-51860068D02*
X32457142Y-51745782D01*
X32457142Y-51745782D02*
X32342857Y-51688640D01*
X32342857Y-51688640D02*
X32057142Y-51688640D01*
X32057142Y-51688640D02*
X31942857Y-51631497D01*
X29942857Y-52145782D02*
X29942857Y-51517211D01*
X29942857Y-51517211D02*
X29999999Y-51402925D01*
X29999999Y-51402925D02*
X30114285Y-51345782D01*
X30114285Y-51345782D02*
X30342857Y-51345782D01*
X30342857Y-51345782D02*
X30457142Y-51402925D01*
X29942857Y-52088640D02*
X30057142Y-52145782D01*
X30057142Y-52145782D02*
X30342857Y-52145782D01*
X30342857Y-52145782D02*
X30457142Y-52088640D01*
X30457142Y-52088640D02*
X30514285Y-51974354D01*
X30514285Y-51974354D02*
X30514285Y-51860068D01*
X30514285Y-51860068D02*
X30457142Y-51745782D01*
X30457142Y-51745782D02*
X30342857Y-51688640D01*
X30342857Y-51688640D02*
X30057142Y-51688640D01*
X30057142Y-51688640D02*
X29942857Y-51631497D01*
X27771428Y-52145782D02*
X28171428Y-51574354D01*
X28457142Y-52145782D02*
X28457142Y-50945782D01*
X28457142Y-50945782D02*
X27999999Y-50945782D01*
X27999999Y-50945782D02*
X27885714Y-51002925D01*
X27885714Y-51002925D02*
X27828571Y-51060068D01*
X27828571Y-51060068D02*
X27771428Y-51174354D01*
X27771428Y-51174354D02*
X27771428Y-51345782D01*
X27771428Y-51345782D02*
X27828571Y-51460068D01*
X27828571Y-51460068D02*
X27885714Y-51517211D01*
X27885714Y-51517211D02*
X27999999Y-51574354D01*
X27999999Y-51574354D02*
X28457142Y-51574354D01*
X27314285Y-51802925D02*
X26742857Y-51802925D01*
X27428571Y-52145782D02*
X27028571Y-50945782D01*
X27028571Y-50945782D02*
X26628571Y-52145782D01*
X26228571Y-52145782D02*
X26228571Y-50945782D01*
X26228571Y-50945782D02*
X25828571Y-51802925D01*
X25828571Y-51802925D02*
X25428571Y-50945782D01*
X25428571Y-50945782D02*
X25428571Y-52145782D01*
X23428571Y-52145782D02*
X23428571Y-50945782D01*
X23428571Y-52088640D02*
X23542856Y-52145782D01*
X23542856Y-52145782D02*
X23771428Y-52145782D01*
X23771428Y-52145782D02*
X23885713Y-52088640D01*
X23885713Y-52088640D02*
X23942856Y-52031497D01*
X23942856Y-52031497D02*
X23999999Y-51917211D01*
X23999999Y-51917211D02*
X23999999Y-51574354D01*
X23999999Y-51574354D02*
X23942856Y-51460068D01*
X23942856Y-51460068D02*
X23885713Y-51402925D01*
X23885713Y-51402925D02*
X23771428Y-51345782D01*
X23771428Y-51345782D02*
X23542856Y-51345782D01*
X23542856Y-51345782D02*
X23428571Y-51402925D01*
X22399999Y-52088640D02*
X22514285Y-52145782D01*
X22514285Y-52145782D02*
X22742857Y-52145782D01*
X22742857Y-52145782D02*
X22857142Y-52088640D01*
X22857142Y-52088640D02*
X22914285Y-51974354D01*
X22914285Y-51974354D02*
X22914285Y-51517211D01*
X22914285Y-51517211D02*
X22857142Y-51402925D01*
X22857142Y-51402925D02*
X22742857Y-51345782D01*
X22742857Y-51345782D02*
X22514285Y-51345782D01*
X22514285Y-51345782D02*
X22399999Y-51402925D01*
X22399999Y-51402925D02*
X22342857Y-51517211D01*
X22342857Y-51517211D02*
X22342857Y-51631497D01*
X22342857Y-51631497D02*
X22914285Y-51745782D01*
X21028571Y-50945782D02*
X20285714Y-50945782D01*
X20285714Y-50945782D02*
X20685714Y-51402925D01*
X20685714Y-51402925D02*
X20514285Y-51402925D01*
X20514285Y-51402925D02*
X20400000Y-51460068D01*
X20400000Y-51460068D02*
X20342857Y-51517211D01*
X20342857Y-51517211D02*
X20285714Y-51631497D01*
X20285714Y-51631497D02*
X20285714Y-51917211D01*
X20285714Y-51917211D02*
X20342857Y-52031497D01*
X20342857Y-52031497D02*
X20400000Y-52088640D01*
X20400000Y-52088640D02*
X20514285Y-52145782D01*
X20514285Y-52145782D02*
X20857142Y-52145782D01*
X20857142Y-52145782D02*
X20971428Y-52088640D01*
X20971428Y-52088640D02*
X21028571Y-52031497D01*
X19828571Y-51060068D02*
X19771428Y-51002925D01*
X19771428Y-51002925D02*
X19657143Y-50945782D01*
X19657143Y-50945782D02*
X19371428Y-50945782D01*
X19371428Y-50945782D02*
X19257143Y-51002925D01*
X19257143Y-51002925D02*
X19200000Y-51060068D01*
X19200000Y-51060068D02*
X19142857Y-51174354D01*
X19142857Y-51174354D02*
X19142857Y-51288640D01*
X19142857Y-51288640D02*
X19200000Y-51460068D01*
X19200000Y-51460068D02*
X19885714Y-52145782D01*
X19885714Y-52145782D02*
X19142857Y-52145782D01*
X18628571Y-52145782D02*
X18628571Y-50945782D01*
X17942857Y-52145782D02*
X18457143Y-51460068D01*
X17942857Y-50945782D02*
X18628571Y-51631497D01*
X16000000Y-52145782D02*
X16000000Y-50945782D01*
X16000000Y-52088640D02*
X16114285Y-52145782D01*
X16114285Y-52145782D02*
X16342857Y-52145782D01*
X16342857Y-52145782D02*
X16457142Y-52088640D01*
X16457142Y-52088640D02*
X16514285Y-52031497D01*
X16514285Y-52031497D02*
X16571428Y-51917211D01*
X16571428Y-51917211D02*
X16571428Y-51574354D01*
X16571428Y-51574354D02*
X16514285Y-51460068D01*
X16514285Y-51460068D02*
X16457142Y-51402925D01*
X16457142Y-51402925D02*
X16342857Y-51345782D01*
X16342857Y-51345782D02*
X16114285Y-51345782D01*
X16114285Y-51345782D02*
X16000000Y-51402925D01*
X15257143Y-52145782D02*
X15371428Y-52088640D01*
X15371428Y-52088640D02*
X15428571Y-52031497D01*
X15428571Y-52031497D02*
X15485714Y-51917211D01*
X15485714Y-51917211D02*
X15485714Y-51574354D01*
X15485714Y-51574354D02*
X15428571Y-51460068D01*
X15428571Y-51460068D02*
X15371428Y-51402925D01*
X15371428Y-51402925D02*
X15257143Y-51345782D01*
X15257143Y-51345782D02*
X15085714Y-51345782D01*
X15085714Y-51345782D02*
X14971428Y-51402925D01*
X14971428Y-51402925D02*
X14914286Y-51460068D01*
X14914286Y-51460068D02*
X14857143Y-51574354D01*
X14857143Y-51574354D02*
X14857143Y-51917211D01*
X14857143Y-51917211D02*
X14914286Y-52031497D01*
X14914286Y-52031497D02*
X14971428Y-52088640D01*
X14971428Y-52088640D02*
X15085714Y-52145782D01*
X15085714Y-52145782D02*
X15257143Y-52145782D01*
X13428571Y-52145782D02*
X13428571Y-51345782D01*
X13428571Y-51460068D02*
X13371428Y-51402925D01*
X13371428Y-51402925D02*
X13257143Y-51345782D01*
X13257143Y-51345782D02*
X13085714Y-51345782D01*
X13085714Y-51345782D02*
X12971428Y-51402925D01*
X12971428Y-51402925D02*
X12914286Y-51517211D01*
X12914286Y-51517211D02*
X12914286Y-52145782D01*
X12914286Y-51517211D02*
X12857143Y-51402925D01*
X12857143Y-51402925D02*
X12742857Y-51345782D01*
X12742857Y-51345782D02*
X12571428Y-51345782D01*
X12571428Y-51345782D02*
X12457143Y-51402925D01*
X12457143Y-51402925D02*
X12400000Y-51517211D01*
X12400000Y-51517211D02*
X12400000Y-52145782D01*
X11828571Y-52145782D02*
X11828571Y-51345782D01*
X11828571Y-50945782D02*
X11885714Y-51002925D01*
X11885714Y-51002925D02*
X11828571Y-51060068D01*
X11828571Y-51060068D02*
X11771428Y-51002925D01*
X11771428Y-51002925D02*
X11828571Y-50945782D01*
X11828571Y-50945782D02*
X11828571Y-51060068D01*
X10742857Y-52088640D02*
X10857142Y-52145782D01*
X10857142Y-52145782D02*
X11085714Y-52145782D01*
X11085714Y-52145782D02*
X11199999Y-52088640D01*
X11199999Y-52088640D02*
X11257142Y-52031497D01*
X11257142Y-52031497D02*
X11314285Y-51917211D01*
X11314285Y-51917211D02*
X11314285Y-51574354D01*
X11314285Y-51574354D02*
X11257142Y-51460068D01*
X11257142Y-51460068D02*
X11199999Y-51402925D01*
X11199999Y-51402925D02*
X11085714Y-51345782D01*
X11085714Y-51345782D02*
X10857142Y-51345782D01*
X10857142Y-51345782D02*
X10742857Y-51402925D01*
X10228571Y-52145782D02*
X10228571Y-51345782D01*
X10228571Y-51574354D02*
X10171428Y-51460068D01*
X10171428Y-51460068D02*
X10114286Y-51402925D01*
X10114286Y-51402925D02*
X10000000Y-51345782D01*
X10000000Y-51345782D02*
X9885714Y-51345782D01*
X9314286Y-52145782D02*
X9428571Y-52088640D01*
X9428571Y-52088640D02*
X9485714Y-52031497D01*
X9485714Y-52031497D02*
X9542857Y-51917211D01*
X9542857Y-51917211D02*
X9542857Y-51574354D01*
X9542857Y-51574354D02*
X9485714Y-51460068D01*
X9485714Y-51460068D02*
X9428571Y-51402925D01*
X9428571Y-51402925D02*
X9314286Y-51345782D01*
X9314286Y-51345782D02*
X9142857Y-51345782D01*
X9142857Y-51345782D02*
X9028571Y-51402925D01*
X9028571Y-51402925D02*
X8971429Y-51460068D01*
X8971429Y-51460068D02*
X8914286Y-51574354D01*
X8914286Y-51574354D02*
X8914286Y-51917211D01*
X8914286Y-51917211D02*
X8971429Y-52031497D01*
X8971429Y-52031497D02*
X9028571Y-52088640D01*
X9028571Y-52088640D02*
X9142857Y-52145782D01*
X9142857Y-52145782D02*
X9314286Y-52145782D01*
X8514286Y-52602925D02*
X8457143Y-52545782D01*
X8457143Y-52545782D02*
X8342857Y-52374354D01*
X8342857Y-52374354D02*
X8285715Y-52260068D01*
X8285715Y-52260068D02*
X8228572Y-52088640D01*
X8228572Y-52088640D02*
X8171429Y-51802925D01*
X8171429Y-51802925D02*
X8171429Y-51574354D01*
X8171429Y-51574354D02*
X8228572Y-51288640D01*
X8228572Y-51288640D02*
X8285715Y-51117211D01*
X8285715Y-51117211D02*
X8342857Y-51002925D01*
X8342857Y-51002925D02*
X8457143Y-50831497D01*
X8457143Y-50831497D02*
X8514286Y-50774354D01*
X63085710Y-17045782D02*
X63085710Y-15845782D01*
X63085710Y-15845782D02*
X62799996Y-15845782D01*
X62799996Y-15845782D02*
X62628567Y-15902925D01*
X62628567Y-15902925D02*
X62514282Y-16017211D01*
X62514282Y-16017211D02*
X62457139Y-16131497D01*
X62457139Y-16131497D02*
X62399996Y-16360068D01*
X62399996Y-16360068D02*
X62399996Y-16531497D01*
X62399996Y-16531497D02*
X62457139Y-16760068D01*
X62457139Y-16760068D02*
X62514282Y-16874354D01*
X62514282Y-16874354D02*
X62628567Y-16988640D01*
X62628567Y-16988640D02*
X62799996Y-17045782D01*
X62799996Y-17045782D02*
X63085710Y-17045782D01*
X61428567Y-16988640D02*
X61542853Y-17045782D01*
X61542853Y-17045782D02*
X61771425Y-17045782D01*
X61771425Y-17045782D02*
X61885710Y-16988640D01*
X61885710Y-16988640D02*
X61942853Y-16874354D01*
X61942853Y-16874354D02*
X61942853Y-16417211D01*
X61942853Y-16417211D02*
X61885710Y-16302925D01*
X61885710Y-16302925D02*
X61771425Y-16245782D01*
X61771425Y-16245782D02*
X61542853Y-16245782D01*
X61542853Y-16245782D02*
X61428567Y-16302925D01*
X61428567Y-16302925D02*
X61371425Y-16417211D01*
X61371425Y-16417211D02*
X61371425Y-16531497D01*
X61371425Y-16531497D02*
X61942853Y-16645782D01*
X60857139Y-17045782D02*
X60857139Y-16245782D01*
X60857139Y-16474354D02*
X60799996Y-16360068D01*
X60799996Y-16360068D02*
X60742854Y-16302925D01*
X60742854Y-16302925D02*
X60628568Y-16245782D01*
X60628568Y-16245782D02*
X60514282Y-16245782D01*
X60114282Y-17045782D02*
X60114282Y-16245782D01*
X60114282Y-15845782D02*
X60171425Y-15902925D01*
X60171425Y-15902925D02*
X60114282Y-15960068D01*
X60114282Y-15960068D02*
X60057139Y-15902925D01*
X60057139Y-15902925D02*
X60114282Y-15845782D01*
X60114282Y-15845782D02*
X60114282Y-15960068D01*
X59657139Y-16245782D02*
X59371425Y-17045782D01*
X59371425Y-17045782D02*
X59085710Y-16245782D01*
X58114282Y-17045782D02*
X58114282Y-16417211D01*
X58114282Y-16417211D02*
X58171424Y-16302925D01*
X58171424Y-16302925D02*
X58285710Y-16245782D01*
X58285710Y-16245782D02*
X58514282Y-16245782D01*
X58514282Y-16245782D02*
X58628567Y-16302925D01*
X58114282Y-16988640D02*
X58228567Y-17045782D01*
X58228567Y-17045782D02*
X58514282Y-17045782D01*
X58514282Y-17045782D02*
X58628567Y-16988640D01*
X58628567Y-16988640D02*
X58685710Y-16874354D01*
X58685710Y-16874354D02*
X58685710Y-16760068D01*
X58685710Y-16760068D02*
X58628567Y-16645782D01*
X58628567Y-16645782D02*
X58514282Y-16588640D01*
X58514282Y-16588640D02*
X58228567Y-16588640D01*
X58228567Y-16588640D02*
X58114282Y-16531497D01*
X57028568Y-17045782D02*
X57028568Y-15845782D01*
X57028568Y-16988640D02*
X57142853Y-17045782D01*
X57142853Y-17045782D02*
X57371425Y-17045782D01*
X57371425Y-17045782D02*
X57485710Y-16988640D01*
X57485710Y-16988640D02*
X57542853Y-16931497D01*
X57542853Y-16931497D02*
X57599996Y-16817211D01*
X57599996Y-16817211D02*
X57599996Y-16474354D01*
X57599996Y-16474354D02*
X57542853Y-16360068D01*
X57542853Y-16360068D02*
X57485710Y-16302925D01*
X57485710Y-16302925D02*
X57371425Y-16245782D01*
X57371425Y-16245782D02*
X57142853Y-16245782D01*
X57142853Y-16245782D02*
X57028568Y-16302925D01*
X56285711Y-17045782D02*
X56399996Y-16988640D01*
X56399996Y-16988640D02*
X56457139Y-16931497D01*
X56457139Y-16931497D02*
X56514282Y-16817211D01*
X56514282Y-16817211D02*
X56514282Y-16474354D01*
X56514282Y-16474354D02*
X56457139Y-16360068D01*
X56457139Y-16360068D02*
X56399996Y-16302925D01*
X56399996Y-16302925D02*
X56285711Y-16245782D01*
X56285711Y-16245782D02*
X56114282Y-16245782D01*
X56114282Y-16245782D02*
X55999996Y-16302925D01*
X55999996Y-16302925D02*
X55942854Y-16360068D01*
X55942854Y-16360068D02*
X55885711Y-16474354D01*
X55885711Y-16474354D02*
X55885711Y-16817211D01*
X55885711Y-16817211D02*
X55942854Y-16931497D01*
X55942854Y-16931497D02*
X55999996Y-16988640D01*
X55999996Y-16988640D02*
X56114282Y-17045782D01*
X56114282Y-17045782D02*
X56285711Y-17045782D01*
X53942854Y-17045782D02*
X53942854Y-15845782D01*
X53942854Y-16988640D02*
X54057139Y-17045782D01*
X54057139Y-17045782D02*
X54285711Y-17045782D01*
X54285711Y-17045782D02*
X54399996Y-16988640D01*
X54399996Y-16988640D02*
X54457139Y-16931497D01*
X54457139Y-16931497D02*
X54514282Y-16817211D01*
X54514282Y-16817211D02*
X54514282Y-16474354D01*
X54514282Y-16474354D02*
X54457139Y-16360068D01*
X54457139Y-16360068D02*
X54399996Y-16302925D01*
X54399996Y-16302925D02*
X54285711Y-16245782D01*
X54285711Y-16245782D02*
X54057139Y-16245782D01*
X54057139Y-16245782D02*
X53942854Y-16302925D01*
X52914282Y-16988640D02*
X53028568Y-17045782D01*
X53028568Y-17045782D02*
X53257140Y-17045782D01*
X53257140Y-17045782D02*
X53371425Y-16988640D01*
X53371425Y-16988640D02*
X53428568Y-16874354D01*
X53428568Y-16874354D02*
X53428568Y-16417211D01*
X53428568Y-16417211D02*
X53371425Y-16302925D01*
X53371425Y-16302925D02*
X53257140Y-16245782D01*
X53257140Y-16245782D02*
X53028568Y-16245782D01*
X53028568Y-16245782D02*
X52914282Y-16302925D01*
X52914282Y-16302925D02*
X52857140Y-16417211D01*
X52857140Y-16417211D02*
X52857140Y-16531497D01*
X52857140Y-16531497D02*
X53428568Y-16645782D01*
X51599997Y-15845782D02*
X51199997Y-17045782D01*
X51199997Y-17045782D02*
X50799997Y-15845782D01*
X49942854Y-16988640D02*
X50057140Y-17045782D01*
X50057140Y-17045782D02*
X50285712Y-17045782D01*
X50285712Y-17045782D02*
X50399997Y-16988640D01*
X50399997Y-16988640D02*
X50457140Y-16874354D01*
X50457140Y-16874354D02*
X50457140Y-16417211D01*
X50457140Y-16417211D02*
X50399997Y-16302925D01*
X50399997Y-16302925D02*
X50285712Y-16245782D01*
X50285712Y-16245782D02*
X50057140Y-16245782D01*
X50057140Y-16245782D02*
X49942854Y-16302925D01*
X49942854Y-16302925D02*
X49885712Y-16417211D01*
X49885712Y-16417211D02*
X49885712Y-16531497D01*
X49885712Y-16531497D02*
X50457140Y-16645782D01*
X49199998Y-17045782D02*
X49314283Y-16988640D01*
X49314283Y-16988640D02*
X49371426Y-16874354D01*
X49371426Y-16874354D02*
X49371426Y-15845782D01*
X48285712Y-16988640D02*
X48399998Y-17045782D01*
X48399998Y-17045782D02*
X48628570Y-17045782D01*
X48628570Y-17045782D02*
X48742855Y-16988640D01*
X48742855Y-16988640D02*
X48799998Y-16874354D01*
X48799998Y-16874354D02*
X48799998Y-16417211D01*
X48799998Y-16417211D02*
X48742855Y-16302925D01*
X48742855Y-16302925D02*
X48628570Y-16245782D01*
X48628570Y-16245782D02*
X48399998Y-16245782D01*
X48399998Y-16245782D02*
X48285712Y-16302925D01*
X48285712Y-16302925D02*
X48228570Y-16417211D01*
X48228570Y-16417211D02*
X48228570Y-16531497D01*
X48228570Y-16531497D02*
X48799998Y-16645782D01*
X47771427Y-16988640D02*
X47657141Y-17045782D01*
X47657141Y-17045782D02*
X47428570Y-17045782D01*
X47428570Y-17045782D02*
X47314284Y-16988640D01*
X47314284Y-16988640D02*
X47257141Y-16874354D01*
X47257141Y-16874354D02*
X47257141Y-16817211D01*
X47257141Y-16817211D02*
X47314284Y-16702925D01*
X47314284Y-16702925D02*
X47428570Y-16645782D01*
X47428570Y-16645782D02*
X47599999Y-16645782D01*
X47599999Y-16645782D02*
X47714284Y-16588640D01*
X47714284Y-16588640D02*
X47771427Y-16474354D01*
X47771427Y-16474354D02*
X47771427Y-16417211D01*
X47771427Y-16417211D02*
X47714284Y-16302925D01*
X47714284Y-16302925D02*
X47599999Y-16245782D01*
X47599999Y-16245782D02*
X47428570Y-16245782D01*
X47428570Y-16245782D02*
X47314284Y-16302925D01*
X46571427Y-17045782D02*
X46685712Y-16988640D01*
X46685712Y-16988640D02*
X46742855Y-16931497D01*
X46742855Y-16931497D02*
X46799998Y-16817211D01*
X46799998Y-16817211D02*
X46799998Y-16474354D01*
X46799998Y-16474354D02*
X46742855Y-16360068D01*
X46742855Y-16360068D02*
X46685712Y-16302925D01*
X46685712Y-16302925D02*
X46571427Y-16245782D01*
X46571427Y-16245782D02*
X46399998Y-16245782D01*
X46399998Y-16245782D02*
X46285712Y-16302925D01*
X46285712Y-16302925D02*
X46228570Y-16360068D01*
X46228570Y-16360068D02*
X46171427Y-16474354D01*
X46171427Y-16474354D02*
X46171427Y-16817211D01*
X46171427Y-16817211D02*
X46228570Y-16931497D01*
X46228570Y-16931497D02*
X46285712Y-16988640D01*
X46285712Y-16988640D02*
X46399998Y-17045782D01*
X46399998Y-17045782D02*
X46571427Y-17045782D01*
X45828570Y-16245782D02*
X45371427Y-16245782D01*
X45657141Y-17045782D02*
X45657141Y-16017211D01*
X45657141Y-16017211D02*
X45599998Y-15902925D01*
X45599998Y-15902925D02*
X45485713Y-15845782D01*
X45485713Y-15845782D02*
X45371427Y-15845782D01*
X45142856Y-16245782D02*
X44685713Y-16245782D01*
X44971427Y-15845782D02*
X44971427Y-16874354D01*
X44971427Y-16874354D02*
X44914284Y-16988640D01*
X44914284Y-16988640D02*
X44799999Y-17045782D01*
X44799999Y-17045782D02*
X44685713Y-17045782D01*
X43428570Y-15960068D02*
X43371427Y-15902925D01*
X43371427Y-15902925D02*
X43257142Y-15845782D01*
X43257142Y-15845782D02*
X42971427Y-15845782D01*
X42971427Y-15845782D02*
X42857142Y-15902925D01*
X42857142Y-15902925D02*
X42799999Y-15960068D01*
X42799999Y-15960068D02*
X42742856Y-16074354D01*
X42742856Y-16074354D02*
X42742856Y-16188640D01*
X42742856Y-16188640D02*
X42799999Y-16360068D01*
X42799999Y-16360068D02*
X43485713Y-17045782D01*
X43485713Y-17045782D02*
X42742856Y-17045782D01*
X41999999Y-15845782D02*
X41885713Y-15845782D01*
X41885713Y-15845782D02*
X41771427Y-15902925D01*
X41771427Y-15902925D02*
X41714285Y-15960068D01*
X41714285Y-15960068D02*
X41657142Y-16074354D01*
X41657142Y-16074354D02*
X41599999Y-16302925D01*
X41599999Y-16302925D02*
X41599999Y-16588640D01*
X41599999Y-16588640D02*
X41657142Y-16817211D01*
X41657142Y-16817211D02*
X41714285Y-16931497D01*
X41714285Y-16931497D02*
X41771427Y-16988640D01*
X41771427Y-16988640D02*
X41885713Y-17045782D01*
X41885713Y-17045782D02*
X41999999Y-17045782D01*
X41999999Y-17045782D02*
X42114285Y-16988640D01*
X42114285Y-16988640D02*
X42171427Y-16931497D01*
X42171427Y-16931497D02*
X42228570Y-16817211D01*
X42228570Y-16817211D02*
X42285713Y-16588640D01*
X42285713Y-16588640D02*
X42285713Y-16302925D01*
X42285713Y-16302925D02*
X42228570Y-16074354D01*
X42228570Y-16074354D02*
X42171427Y-15960068D01*
X42171427Y-15960068D02*
X42114285Y-15902925D01*
X42114285Y-15902925D02*
X41999999Y-15845782D01*
X40857142Y-15845782D02*
X40742856Y-15845782D01*
X40742856Y-15845782D02*
X40628570Y-15902925D01*
X40628570Y-15902925D02*
X40571428Y-15960068D01*
X40571428Y-15960068D02*
X40514285Y-16074354D01*
X40514285Y-16074354D02*
X40457142Y-16302925D01*
X40457142Y-16302925D02*
X40457142Y-16588640D01*
X40457142Y-16588640D02*
X40514285Y-16817211D01*
X40514285Y-16817211D02*
X40571428Y-16931497D01*
X40571428Y-16931497D02*
X40628570Y-16988640D01*
X40628570Y-16988640D02*
X40742856Y-17045782D01*
X40742856Y-17045782D02*
X40857142Y-17045782D01*
X40857142Y-17045782D02*
X40971428Y-16988640D01*
X40971428Y-16988640D02*
X41028570Y-16931497D01*
X41028570Y-16931497D02*
X41085713Y-16817211D01*
X41085713Y-16817211D02*
X41142856Y-16588640D01*
X41142856Y-16588640D02*
X41142856Y-16302925D01*
X41142856Y-16302925D02*
X41085713Y-16074354D01*
X41085713Y-16074354D02*
X41028570Y-15960068D01*
X41028570Y-15960068D02*
X40971428Y-15902925D01*
X40971428Y-15902925D02*
X40857142Y-15845782D01*
X39885713Y-17045782D02*
X39657142Y-17045782D01*
X39657142Y-17045782D02*
X39542856Y-16988640D01*
X39542856Y-16988640D02*
X39485713Y-16931497D01*
X39485713Y-16931497D02*
X39371428Y-16760068D01*
X39371428Y-16760068D02*
X39314285Y-16531497D01*
X39314285Y-16531497D02*
X39314285Y-16074354D01*
X39314285Y-16074354D02*
X39371428Y-15960068D01*
X39371428Y-15960068D02*
X39428571Y-15902925D01*
X39428571Y-15902925D02*
X39542856Y-15845782D01*
X39542856Y-15845782D02*
X39771428Y-15845782D01*
X39771428Y-15845782D02*
X39885713Y-15902925D01*
X39885713Y-15902925D02*
X39942856Y-15960068D01*
X39942856Y-15960068D02*
X39999999Y-16074354D01*
X39999999Y-16074354D02*
X39999999Y-16360068D01*
X39999999Y-16360068D02*
X39942856Y-16474354D01*
X39942856Y-16474354D02*
X39885713Y-16531497D01*
X39885713Y-16531497D02*
X39771428Y-16588640D01*
X39771428Y-16588640D02*
X39542856Y-16588640D01*
X39542856Y-16588640D02*
X39428571Y-16531497D01*
X39428571Y-16531497D02*
X39371428Y-16474354D01*
X39371428Y-16474354D02*
X39314285Y-16360068D01*
X37428570Y-16988640D02*
X37542856Y-17045782D01*
X37542856Y-17045782D02*
X37771428Y-17045782D01*
X37771428Y-17045782D02*
X37885713Y-16988640D01*
X37885713Y-16988640D02*
X37942856Y-16874354D01*
X37942856Y-16874354D02*
X37942856Y-16417211D01*
X37942856Y-16417211D02*
X37885713Y-16302925D01*
X37885713Y-16302925D02*
X37771428Y-16245782D01*
X37771428Y-16245782D02*
X37542856Y-16245782D01*
X37542856Y-16245782D02*
X37428570Y-16302925D01*
X37428570Y-16302925D02*
X37371428Y-16417211D01*
X37371428Y-16417211D02*
X37371428Y-16531497D01*
X37371428Y-16531497D02*
X37942856Y-16645782D01*
X35371428Y-17045782D02*
X35942856Y-17045782D01*
X35942856Y-17045782D02*
X35942856Y-15845782D01*
X34457142Y-16245782D02*
X34457142Y-17045782D01*
X34971427Y-16245782D02*
X34971427Y-16874354D01*
X34971427Y-16874354D02*
X34914284Y-16988640D01*
X34914284Y-16988640D02*
X34799999Y-17045782D01*
X34799999Y-17045782D02*
X34628570Y-17045782D01*
X34628570Y-17045782D02*
X34514284Y-16988640D01*
X34514284Y-16988640D02*
X34457142Y-16931497D01*
X33371428Y-16988640D02*
X33485713Y-17045782D01*
X33485713Y-17045782D02*
X33714285Y-17045782D01*
X33714285Y-17045782D02*
X33828570Y-16988640D01*
X33828570Y-16988640D02*
X33885713Y-16931497D01*
X33885713Y-16931497D02*
X33942856Y-16817211D01*
X33942856Y-16817211D02*
X33942856Y-16474354D01*
X33942856Y-16474354D02*
X33885713Y-16360068D01*
X33885713Y-16360068D02*
X33828570Y-16302925D01*
X33828570Y-16302925D02*
X33714285Y-16245782D01*
X33714285Y-16245782D02*
X33485713Y-16245782D01*
X33485713Y-16245782D02*
X33371428Y-16302925D01*
X32342857Y-16988640D02*
X32457142Y-17045782D01*
X32457142Y-17045782D02*
X32685714Y-17045782D01*
X32685714Y-17045782D02*
X32799999Y-16988640D01*
X32799999Y-16988640D02*
X32857142Y-16931497D01*
X32857142Y-16931497D02*
X32914285Y-16817211D01*
X32914285Y-16817211D02*
X32914285Y-16474354D01*
X32914285Y-16474354D02*
X32857142Y-16360068D01*
X32857142Y-16360068D02*
X32799999Y-16302925D01*
X32799999Y-16302925D02*
X32685714Y-16245782D01*
X32685714Y-16245782D02*
X32457142Y-16245782D01*
X32457142Y-16245782D02*
X32342857Y-16302925D01*
X31314286Y-17045782D02*
X31314286Y-16417211D01*
X31314286Y-16417211D02*
X31371428Y-16302925D01*
X31371428Y-16302925D02*
X31485714Y-16245782D01*
X31485714Y-16245782D02*
X31714286Y-16245782D01*
X31714286Y-16245782D02*
X31828571Y-16302925D01*
X31314286Y-16988640D02*
X31428571Y-17045782D01*
X31428571Y-17045782D02*
X31714286Y-17045782D01*
X31714286Y-17045782D02*
X31828571Y-16988640D01*
X31828571Y-16988640D02*
X31885714Y-16874354D01*
X31885714Y-16874354D02*
X31885714Y-16760068D01*
X31885714Y-16760068D02*
X31828571Y-16645782D01*
X31828571Y-16645782D02*
X31714286Y-16588640D01*
X31714286Y-16588640D02*
X31428571Y-16588640D01*
X31428571Y-16588640D02*
X31314286Y-16531497D01*
X30800000Y-16988640D02*
X30685714Y-17045782D01*
X30685714Y-17045782D02*
X30457143Y-17045782D01*
X30457143Y-17045782D02*
X30342857Y-16988640D01*
X30342857Y-16988640D02*
X30285714Y-16874354D01*
X30285714Y-16874354D02*
X30285714Y-16817211D01*
X30285714Y-16817211D02*
X30342857Y-16702925D01*
X30342857Y-16702925D02*
X30457143Y-16645782D01*
X30457143Y-16645782D02*
X30628572Y-16645782D01*
X30628572Y-16645782D02*
X30742857Y-16588640D01*
X30742857Y-16588640D02*
X30800000Y-16474354D01*
X30800000Y-16474354D02*
X30800000Y-16417211D01*
X30800000Y-16417211D02*
X30742857Y-16302925D01*
X30742857Y-16302925D02*
X30628572Y-16245782D01*
X30628572Y-16245782D02*
X30457143Y-16245782D01*
X30457143Y-16245782D02*
X30342857Y-16302925D01*
X28857142Y-16417211D02*
X28457142Y-16417211D01*
X28285714Y-17045782D02*
X28857142Y-17045782D01*
X28857142Y-17045782D02*
X28857142Y-15845782D01*
X28857142Y-15845782D02*
X28285714Y-15845782D01*
X27600000Y-17045782D02*
X27714285Y-16988640D01*
X27714285Y-16988640D02*
X27771428Y-16874354D01*
X27771428Y-16874354D02*
X27771428Y-15845782D01*
X26685714Y-16988640D02*
X26800000Y-17045782D01*
X26800000Y-17045782D02*
X27028572Y-17045782D01*
X27028572Y-17045782D02*
X27142857Y-16988640D01*
X27142857Y-16988640D02*
X27200000Y-16874354D01*
X27200000Y-16874354D02*
X27200000Y-16417211D01*
X27200000Y-16417211D02*
X27142857Y-16302925D01*
X27142857Y-16302925D02*
X27028572Y-16245782D01*
X27028572Y-16245782D02*
X26800000Y-16245782D01*
X26800000Y-16245782D02*
X26685714Y-16302925D01*
X26685714Y-16302925D02*
X26628572Y-16417211D01*
X26628572Y-16417211D02*
X26628572Y-16531497D01*
X26628572Y-16531497D02*
X27200000Y-16645782D01*
X26285715Y-16245782D02*
X25828572Y-16245782D01*
X26114286Y-15845782D02*
X26114286Y-16874354D01*
X26114286Y-16874354D02*
X26057143Y-16988640D01*
X26057143Y-16988640D02*
X25942858Y-17045782D01*
X25942858Y-17045782D02*
X25828572Y-17045782D01*
X25428572Y-17045782D02*
X25428572Y-16245782D01*
X25428572Y-16474354D02*
X25371429Y-16360068D01*
X25371429Y-16360068D02*
X25314287Y-16302925D01*
X25314287Y-16302925D02*
X25200001Y-16245782D01*
X25200001Y-16245782D02*
X25085715Y-16245782D01*
X24514287Y-17045782D02*
X24628572Y-16988640D01*
X24628572Y-16988640D02*
X24685715Y-16931497D01*
X24685715Y-16931497D02*
X24742858Y-16817211D01*
X24742858Y-16817211D02*
X24742858Y-16474354D01*
X24742858Y-16474354D02*
X24685715Y-16360068D01*
X24685715Y-16360068D02*
X24628572Y-16302925D01*
X24628572Y-16302925D02*
X24514287Y-16245782D01*
X24514287Y-16245782D02*
X24342858Y-16245782D01*
X24342858Y-16245782D02*
X24228572Y-16302925D01*
X24228572Y-16302925D02*
X24171430Y-16360068D01*
X24171430Y-16360068D02*
X24114287Y-16474354D01*
X24114287Y-16474354D02*
X24114287Y-16817211D01*
X24114287Y-16817211D02*
X24171430Y-16931497D01*
X24171430Y-16931497D02*
X24228572Y-16988640D01*
X24228572Y-16988640D02*
X24342858Y-17045782D01*
X24342858Y-17045782D02*
X24514287Y-17045782D01*
X24628572Y-15960068D02*
X24400001Y-15788640D01*
X24400001Y-15788640D02*
X24171430Y-15960068D01*
X23600001Y-16245782D02*
X23600001Y-17045782D01*
X23600001Y-16360068D02*
X23542858Y-16302925D01*
X23542858Y-16302925D02*
X23428573Y-16245782D01*
X23428573Y-16245782D02*
X23257144Y-16245782D01*
X23257144Y-16245782D02*
X23142858Y-16302925D01*
X23142858Y-16302925D02*
X23085716Y-16417211D01*
X23085716Y-16417211D02*
X23085716Y-17045782D01*
X22514287Y-17045782D02*
X22514287Y-16245782D01*
X22514287Y-15845782D02*
X22571430Y-15902925D01*
X22571430Y-15902925D02*
X22514287Y-15960068D01*
X22514287Y-15960068D02*
X22457144Y-15902925D01*
X22457144Y-15902925D02*
X22514287Y-15845782D01*
X22514287Y-15845782D02*
X22514287Y-15960068D01*
X21428573Y-16988640D02*
X21542858Y-17045782D01*
X21542858Y-17045782D02*
X21771430Y-17045782D01*
X21771430Y-17045782D02*
X21885715Y-16988640D01*
X21885715Y-16988640D02*
X21942858Y-16931497D01*
X21942858Y-16931497D02*
X22000001Y-16817211D01*
X22000001Y-16817211D02*
X22000001Y-16474354D01*
X22000001Y-16474354D02*
X21942858Y-16360068D01*
X21942858Y-16360068D02*
X21885715Y-16302925D01*
X21885715Y-16302925D02*
X21771430Y-16245782D01*
X21771430Y-16245782D02*
X21542858Y-16245782D01*
X21542858Y-16245782D02*
X21428573Y-16302925D01*
X20400002Y-17045782D02*
X20400002Y-16417211D01*
X20400002Y-16417211D02*
X20457144Y-16302925D01*
X20457144Y-16302925D02*
X20571430Y-16245782D01*
X20571430Y-16245782D02*
X20800002Y-16245782D01*
X20800002Y-16245782D02*
X20914287Y-16302925D01*
X20400002Y-16988640D02*
X20514287Y-17045782D01*
X20514287Y-17045782D02*
X20800002Y-17045782D01*
X20800002Y-17045782D02*
X20914287Y-16988640D01*
X20914287Y-16988640D02*
X20971430Y-16874354D01*
X20971430Y-16874354D02*
X20971430Y-16760068D01*
X20971430Y-16760068D02*
X20914287Y-16645782D01*
X20914287Y-16645782D02*
X20800002Y-16588640D01*
X20800002Y-16588640D02*
X20514287Y-16588640D01*
X20514287Y-16588640D02*
X20400002Y-16531497D01*
X18971430Y-15960068D02*
X18914287Y-15902925D01*
X18914287Y-15902925D02*
X18800002Y-15845782D01*
X18800002Y-15845782D02*
X18514287Y-15845782D01*
X18514287Y-15845782D02*
X18400002Y-15902925D01*
X18400002Y-15902925D02*
X18342859Y-15960068D01*
X18342859Y-15960068D02*
X18285716Y-16074354D01*
X18285716Y-16074354D02*
X18285716Y-16188640D01*
X18285716Y-16188640D02*
X18342859Y-16360068D01*
X18342859Y-16360068D02*
X19028573Y-17045782D01*
X19028573Y-17045782D02*
X18285716Y-17045782D01*
X17542859Y-15845782D02*
X17428573Y-15845782D01*
X17428573Y-15845782D02*
X17314287Y-15902925D01*
X17314287Y-15902925D02*
X17257145Y-15960068D01*
X17257145Y-15960068D02*
X17200002Y-16074354D01*
X17200002Y-16074354D02*
X17142859Y-16302925D01*
X17142859Y-16302925D02*
X17142859Y-16588640D01*
X17142859Y-16588640D02*
X17200002Y-16817211D01*
X17200002Y-16817211D02*
X17257145Y-16931497D01*
X17257145Y-16931497D02*
X17314287Y-16988640D01*
X17314287Y-16988640D02*
X17428573Y-17045782D01*
X17428573Y-17045782D02*
X17542859Y-17045782D01*
X17542859Y-17045782D02*
X17657145Y-16988640D01*
X17657145Y-16988640D02*
X17714287Y-16931497D01*
X17714287Y-16931497D02*
X17771430Y-16817211D01*
X17771430Y-16817211D02*
X17828573Y-16588640D01*
X17828573Y-16588640D02*
X17828573Y-16302925D01*
X17828573Y-16302925D02*
X17771430Y-16074354D01*
X17771430Y-16074354D02*
X17714287Y-15960068D01*
X17714287Y-15960068D02*
X17657145Y-15902925D01*
X17657145Y-15902925D02*
X17542859Y-15845782D01*
X16000002Y-17045782D02*
X16685716Y-17045782D01*
X16342859Y-17045782D02*
X16342859Y-15845782D01*
X16342859Y-15845782D02*
X16457145Y-16017211D01*
X16457145Y-16017211D02*
X16571430Y-16131497D01*
X16571430Y-16131497D02*
X16685716Y-16188640D01*
X15542859Y-15960068D02*
X15485716Y-15902925D01*
X15485716Y-15902925D02*
X15371431Y-15845782D01*
X15371431Y-15845782D02*
X15085716Y-15845782D01*
X15085716Y-15845782D02*
X14971431Y-15902925D01*
X14971431Y-15902925D02*
X14914288Y-15960068D01*
X14914288Y-15960068D02*
X14857145Y-16074354D01*
X14857145Y-16074354D02*
X14857145Y-16188640D01*
X14857145Y-16188640D02*
X14914288Y-16360068D01*
X14914288Y-16360068D02*
X15600002Y-17045782D01*
X15600002Y-17045782D02*
X14857145Y-17045782D01*
X53099999Y-12745782D02*
X53099999Y-13717211D01*
X53099999Y-13717211D02*
X53157141Y-13831497D01*
X53157141Y-13831497D02*
X53214284Y-13888640D01*
X53214284Y-13888640D02*
X53328570Y-13945782D01*
X53328570Y-13945782D02*
X53499999Y-13945782D01*
X53499999Y-13945782D02*
X53614284Y-13888640D01*
X53099999Y-13488640D02*
X53214284Y-13545782D01*
X53214284Y-13545782D02*
X53442856Y-13545782D01*
X53442856Y-13545782D02*
X53557141Y-13488640D01*
X53557141Y-13488640D02*
X53614284Y-13431497D01*
X53614284Y-13431497D02*
X53671427Y-13317211D01*
X53671427Y-13317211D02*
X53671427Y-12974354D01*
X53671427Y-12974354D02*
X53614284Y-12860068D01*
X53614284Y-12860068D02*
X53557141Y-12802925D01*
X53557141Y-12802925D02*
X53442856Y-12745782D01*
X53442856Y-12745782D02*
X53214284Y-12745782D01*
X53214284Y-12745782D02*
X53099999Y-12802925D01*
X52528570Y-13545782D02*
X52528570Y-12745782D01*
X52528570Y-12345782D02*
X52585713Y-12402925D01*
X52585713Y-12402925D02*
X52528570Y-12460068D01*
X52528570Y-12460068D02*
X52471427Y-12402925D01*
X52471427Y-12402925D02*
X52528570Y-12345782D01*
X52528570Y-12345782D02*
X52528570Y-12460068D01*
X52128570Y-12745782D02*
X51671427Y-12745782D01*
X51957141Y-12345782D02*
X51957141Y-13374354D01*
X51957141Y-13374354D02*
X51899998Y-13488640D01*
X51899998Y-13488640D02*
X51785713Y-13545782D01*
X51785713Y-13545782D02*
X51671427Y-13545782D01*
X51271427Y-13545782D02*
X51271427Y-12345782D01*
X50757142Y-13545782D02*
X50757142Y-12917211D01*
X50757142Y-12917211D02*
X50814284Y-12802925D01*
X50814284Y-12802925D02*
X50928570Y-12745782D01*
X50928570Y-12745782D02*
X51099999Y-12745782D01*
X51099999Y-12745782D02*
X51214284Y-12802925D01*
X51214284Y-12802925D02*
X51271427Y-12860068D01*
X49671428Y-12745782D02*
X49671428Y-13545782D01*
X50185713Y-12745782D02*
X50185713Y-13374354D01*
X50185713Y-13374354D02*
X50128570Y-13488640D01*
X50128570Y-13488640D02*
X50014285Y-13545782D01*
X50014285Y-13545782D02*
X49842856Y-13545782D01*
X49842856Y-13545782D02*
X49728570Y-13488640D01*
X49728570Y-13488640D02*
X49671428Y-13431497D01*
X49099999Y-13545782D02*
X49099999Y-12345782D01*
X49099999Y-12802925D02*
X48985714Y-12745782D01*
X48985714Y-12745782D02*
X48757142Y-12745782D01*
X48757142Y-12745782D02*
X48642856Y-12802925D01*
X48642856Y-12802925D02*
X48585714Y-12860068D01*
X48585714Y-12860068D02*
X48528571Y-12974354D01*
X48528571Y-12974354D02*
X48528571Y-13317211D01*
X48528571Y-13317211D02*
X48585714Y-13431497D01*
X48585714Y-13431497D02*
X48642856Y-13488640D01*
X48642856Y-13488640D02*
X48757142Y-13545782D01*
X48757142Y-13545782D02*
X48985714Y-13545782D01*
X48985714Y-13545782D02*
X49099999Y-13488640D01*
X48014285Y-13431497D02*
X47957142Y-13488640D01*
X47957142Y-13488640D02*
X48014285Y-13545782D01*
X48014285Y-13545782D02*
X48071428Y-13488640D01*
X48071428Y-13488640D02*
X48014285Y-13431497D01*
X48014285Y-13431497D02*
X48014285Y-13545782D01*
X46928571Y-13488640D02*
X47042856Y-13545782D01*
X47042856Y-13545782D02*
X47271428Y-13545782D01*
X47271428Y-13545782D02*
X47385713Y-13488640D01*
X47385713Y-13488640D02*
X47442856Y-13431497D01*
X47442856Y-13431497D02*
X47499999Y-13317211D01*
X47499999Y-13317211D02*
X47499999Y-12974354D01*
X47499999Y-12974354D02*
X47442856Y-12860068D01*
X47442856Y-12860068D02*
X47385713Y-12802925D01*
X47385713Y-12802925D02*
X47271428Y-12745782D01*
X47271428Y-12745782D02*
X47042856Y-12745782D01*
X47042856Y-12745782D02*
X46928571Y-12802925D01*
X46242857Y-13545782D02*
X46357142Y-13488640D01*
X46357142Y-13488640D02*
X46414285Y-13431497D01*
X46414285Y-13431497D02*
X46471428Y-13317211D01*
X46471428Y-13317211D02*
X46471428Y-12974354D01*
X46471428Y-12974354D02*
X46414285Y-12860068D01*
X46414285Y-12860068D02*
X46357142Y-12802925D01*
X46357142Y-12802925D02*
X46242857Y-12745782D01*
X46242857Y-12745782D02*
X46071428Y-12745782D01*
X46071428Y-12745782D02*
X45957142Y-12802925D01*
X45957142Y-12802925D02*
X45900000Y-12860068D01*
X45900000Y-12860068D02*
X45842857Y-12974354D01*
X45842857Y-12974354D02*
X45842857Y-13317211D01*
X45842857Y-13317211D02*
X45900000Y-13431497D01*
X45900000Y-13431497D02*
X45957142Y-13488640D01*
X45957142Y-13488640D02*
X46071428Y-13545782D01*
X46071428Y-13545782D02*
X46242857Y-13545782D01*
X45328571Y-13545782D02*
X45328571Y-12745782D01*
X45328571Y-12860068D02*
X45271428Y-12802925D01*
X45271428Y-12802925D02*
X45157143Y-12745782D01*
X45157143Y-12745782D02*
X44985714Y-12745782D01*
X44985714Y-12745782D02*
X44871428Y-12802925D01*
X44871428Y-12802925D02*
X44814286Y-12917211D01*
X44814286Y-12917211D02*
X44814286Y-13545782D01*
X44814286Y-12917211D02*
X44757143Y-12802925D01*
X44757143Y-12802925D02*
X44642857Y-12745782D01*
X44642857Y-12745782D02*
X44471428Y-12745782D01*
X44471428Y-12745782D02*
X44357143Y-12802925D01*
X44357143Y-12802925D02*
X44300000Y-12917211D01*
X44300000Y-12917211D02*
X44300000Y-13545782D01*
X42871428Y-12288640D02*
X43900000Y-13831497D01*
X42300000Y-13545782D02*
X42414285Y-13488640D01*
X42414285Y-13488640D02*
X42471428Y-13374354D01*
X42471428Y-13374354D02*
X42471428Y-12345782D01*
X41842857Y-13545782D02*
X41842857Y-12745782D01*
X41842857Y-12974354D02*
X41785714Y-12860068D01*
X41785714Y-12860068D02*
X41728572Y-12802925D01*
X41728572Y-12802925D02*
X41614286Y-12745782D01*
X41614286Y-12745782D02*
X41500000Y-12745782D01*
X41100000Y-13545782D02*
X41100000Y-12745782D01*
X41100000Y-12974354D02*
X41042857Y-12860068D01*
X41042857Y-12860068D02*
X40985715Y-12802925D01*
X40985715Y-12802925D02*
X40871429Y-12745782D01*
X40871429Y-12745782D02*
X40757143Y-12745782D01*
X40185715Y-13545782D02*
X40300000Y-13488640D01*
X40300000Y-13488640D02*
X40357143Y-13431497D01*
X40357143Y-13431497D02*
X40414286Y-13317211D01*
X40414286Y-13317211D02*
X40414286Y-12974354D01*
X40414286Y-12974354D02*
X40357143Y-12860068D01*
X40357143Y-12860068D02*
X40300000Y-12802925D01*
X40300000Y-12802925D02*
X40185715Y-12745782D01*
X40185715Y-12745782D02*
X40014286Y-12745782D01*
X40014286Y-12745782D02*
X39900000Y-12802925D01*
X39900000Y-12802925D02*
X39842858Y-12860068D01*
X39842858Y-12860068D02*
X39785715Y-12974354D01*
X39785715Y-12974354D02*
X39785715Y-13317211D01*
X39785715Y-13317211D02*
X39842858Y-13431497D01*
X39842858Y-13431497D02*
X39900000Y-13488640D01*
X39900000Y-13488640D02*
X40014286Y-13545782D01*
X40014286Y-13545782D02*
X40185715Y-13545782D01*
X39328572Y-13488640D02*
X39214286Y-13545782D01*
X39214286Y-13545782D02*
X38985715Y-13545782D01*
X38985715Y-13545782D02*
X38871429Y-13488640D01*
X38871429Y-13488640D02*
X38814286Y-13374354D01*
X38814286Y-13374354D02*
X38814286Y-13317211D01*
X38814286Y-13317211D02*
X38871429Y-13202925D01*
X38871429Y-13202925D02*
X38985715Y-13145782D01*
X38985715Y-13145782D02*
X39157144Y-13145782D01*
X39157144Y-13145782D02*
X39271429Y-13088640D01*
X39271429Y-13088640D02*
X39328572Y-12974354D01*
X39328572Y-12974354D02*
X39328572Y-12917211D01*
X39328572Y-12917211D02*
X39271429Y-12802925D01*
X39271429Y-12802925D02*
X39157144Y-12745782D01*
X39157144Y-12745782D02*
X38985715Y-12745782D01*
X38985715Y-12745782D02*
X38871429Y-12802925D01*
X37785715Y-13545782D02*
X37785715Y-12917211D01*
X37785715Y-12917211D02*
X37842857Y-12802925D01*
X37842857Y-12802925D02*
X37957143Y-12745782D01*
X37957143Y-12745782D02*
X38185715Y-12745782D01*
X38185715Y-12745782D02*
X38300000Y-12802925D01*
X37785715Y-13488640D02*
X37900000Y-13545782D01*
X37900000Y-13545782D02*
X38185715Y-13545782D01*
X38185715Y-13545782D02*
X38300000Y-13488640D01*
X38300000Y-13488640D02*
X38357143Y-13374354D01*
X38357143Y-13374354D02*
X38357143Y-13260068D01*
X38357143Y-13260068D02*
X38300000Y-13145782D01*
X38300000Y-13145782D02*
X38185715Y-13088640D01*
X38185715Y-13088640D02*
X37900000Y-13088640D01*
X37900000Y-13088640D02*
X37785715Y-13031497D01*
X36357143Y-12288640D02*
X37385715Y-13831497D01*
X36128572Y-12745782D02*
X35671429Y-12745782D01*
X35957143Y-12345782D02*
X35957143Y-13374354D01*
X35957143Y-13374354D02*
X35900000Y-13488640D01*
X35900000Y-13488640D02*
X35785715Y-13545782D01*
X35785715Y-13545782D02*
X35671429Y-13545782D01*
X35271429Y-13545782D02*
X35271429Y-12345782D01*
X35157144Y-13088640D02*
X34814286Y-13545782D01*
X34814286Y-12745782D02*
X35271429Y-13202925D01*
X34300000Y-13545782D02*
X34300000Y-12745782D01*
X34300000Y-12860068D02*
X34242857Y-12802925D01*
X34242857Y-12802925D02*
X34128572Y-12745782D01*
X34128572Y-12745782D02*
X33957143Y-12745782D01*
X33957143Y-12745782D02*
X33842857Y-12802925D01*
X33842857Y-12802925D02*
X33785715Y-12917211D01*
X33785715Y-12917211D02*
X33785715Y-13545782D01*
X33785715Y-12917211D02*
X33728572Y-12802925D01*
X33728572Y-12802925D02*
X33614286Y-12745782D01*
X33614286Y-12745782D02*
X33442857Y-12745782D01*
X33442857Y-12745782D02*
X33328572Y-12802925D01*
X33328572Y-12802925D02*
X33271429Y-12917211D01*
X33271429Y-12917211D02*
X33271429Y-13545782D01*
X32242857Y-13488640D02*
X32357143Y-13545782D01*
X32357143Y-13545782D02*
X32585715Y-13545782D01*
X32585715Y-13545782D02*
X32700000Y-13488640D01*
X32700000Y-13488640D02*
X32757143Y-13374354D01*
X32757143Y-13374354D02*
X32757143Y-12917211D01*
X32757143Y-12917211D02*
X32700000Y-12802925D01*
X32700000Y-12802925D02*
X32585715Y-12745782D01*
X32585715Y-12745782D02*
X32357143Y-12745782D01*
X32357143Y-12745782D02*
X32242857Y-12802925D01*
X32242857Y-12802925D02*
X32185715Y-12917211D01*
X32185715Y-12917211D02*
X32185715Y-13031497D01*
X32185715Y-13031497D02*
X32757143Y-13145782D01*
X31671429Y-13545782D02*
X31671429Y-12745782D01*
X31671429Y-12860068D02*
X31614286Y-12802925D01*
X31614286Y-12802925D02*
X31500001Y-12745782D01*
X31500001Y-12745782D02*
X31328572Y-12745782D01*
X31328572Y-12745782D02*
X31214286Y-12802925D01*
X31214286Y-12802925D02*
X31157144Y-12917211D01*
X31157144Y-12917211D02*
X31157144Y-13545782D01*
X31157144Y-12917211D02*
X31100001Y-12802925D01*
X31100001Y-12802925D02*
X30985715Y-12745782D01*
X30985715Y-12745782D02*
X30814286Y-12745782D01*
X30814286Y-12745782D02*
X30700001Y-12802925D01*
X30700001Y-12802925D02*
X30642858Y-12917211D01*
X30642858Y-12917211D02*
X30642858Y-13545782D01*
X29442858Y-13545782D02*
X30128572Y-13545782D01*
X29785715Y-13545782D02*
X29785715Y-12345782D01*
X29785715Y-12345782D02*
X29900001Y-12517211D01*
X29900001Y-12517211D02*
X30014286Y-12631497D01*
X30014286Y-12631497D02*
X30128572Y-12688640D01*
X28985715Y-12460068D02*
X28928572Y-12402925D01*
X28928572Y-12402925D02*
X28814287Y-12345782D01*
X28814287Y-12345782D02*
X28528572Y-12345782D01*
X28528572Y-12345782D02*
X28414287Y-12402925D01*
X28414287Y-12402925D02*
X28357144Y-12460068D01*
X28357144Y-12460068D02*
X28300001Y-12574354D01*
X28300001Y-12574354D02*
X28300001Y-12688640D01*
X28300001Y-12688640D02*
X28357144Y-12860068D01*
X28357144Y-12860068D02*
X29042858Y-13545782D01*
X29042858Y-13545782D02*
X28300001Y-13545782D01*
X27614287Y-12860068D02*
X27728572Y-12802925D01*
X27728572Y-12802925D02*
X27785715Y-12745782D01*
X27785715Y-12745782D02*
X27842858Y-12631497D01*
X27842858Y-12631497D02*
X27842858Y-12574354D01*
X27842858Y-12574354D02*
X27785715Y-12460068D01*
X27785715Y-12460068D02*
X27728572Y-12402925D01*
X27728572Y-12402925D02*
X27614287Y-12345782D01*
X27614287Y-12345782D02*
X27385715Y-12345782D01*
X27385715Y-12345782D02*
X27271430Y-12402925D01*
X27271430Y-12402925D02*
X27214287Y-12460068D01*
X27214287Y-12460068D02*
X27157144Y-12574354D01*
X27157144Y-12574354D02*
X27157144Y-12631497D01*
X27157144Y-12631497D02*
X27214287Y-12745782D01*
X27214287Y-12745782D02*
X27271430Y-12802925D01*
X27271430Y-12802925D02*
X27385715Y-12860068D01*
X27385715Y-12860068D02*
X27614287Y-12860068D01*
X27614287Y-12860068D02*
X27728572Y-12917211D01*
X27728572Y-12917211D02*
X27785715Y-12974354D01*
X27785715Y-12974354D02*
X27842858Y-13088640D01*
X27842858Y-13088640D02*
X27842858Y-13317211D01*
X27842858Y-13317211D02*
X27785715Y-13431497D01*
X27785715Y-13431497D02*
X27728572Y-13488640D01*
X27728572Y-13488640D02*
X27614287Y-13545782D01*
X27614287Y-13545782D02*
X27385715Y-13545782D01*
X27385715Y-13545782D02*
X27271430Y-13488640D01*
X27271430Y-13488640D02*
X27214287Y-13431497D01*
X27214287Y-13431497D02*
X27157144Y-13317211D01*
X27157144Y-13317211D02*
X27157144Y-13088640D01*
X27157144Y-13088640D02*
X27214287Y-12974354D01*
X27214287Y-12974354D02*
X27271430Y-12917211D01*
X27271430Y-12917211D02*
X27385715Y-12860068D01*
X26642858Y-13088640D02*
X25728573Y-13088640D01*
X25157144Y-13545782D02*
X25157144Y-12745782D01*
X25157144Y-12345782D02*
X25214287Y-12402925D01*
X25214287Y-12402925D02*
X25157144Y-12460068D01*
X25157144Y-12460068D02*
X25100001Y-12402925D01*
X25100001Y-12402925D02*
X25157144Y-12345782D01*
X25157144Y-12345782D02*
X25157144Y-12460068D01*
X24585715Y-13545782D02*
X24585715Y-12745782D01*
X24585715Y-12345782D02*
X24642858Y-12402925D01*
X24642858Y-12402925D02*
X24585715Y-12460068D01*
X24585715Y-12460068D02*
X24528572Y-12402925D01*
X24528572Y-12402925D02*
X24585715Y-12345782D01*
X24585715Y-12345782D02*
X24585715Y-12460068D01*
X46185714Y-11431497D02*
X46242857Y-11488640D01*
X46242857Y-11488640D02*
X46414285Y-11545782D01*
X46414285Y-11545782D02*
X46528571Y-11545782D01*
X46528571Y-11545782D02*
X46700000Y-11488640D01*
X46700000Y-11488640D02*
X46814285Y-11374354D01*
X46814285Y-11374354D02*
X46871428Y-11260068D01*
X46871428Y-11260068D02*
X46928571Y-11031497D01*
X46928571Y-11031497D02*
X46928571Y-10860068D01*
X46928571Y-10860068D02*
X46871428Y-10631497D01*
X46871428Y-10631497D02*
X46814285Y-10517211D01*
X46814285Y-10517211D02*
X46700000Y-10402925D01*
X46700000Y-10402925D02*
X46528571Y-10345782D01*
X46528571Y-10345782D02*
X46414285Y-10345782D01*
X46414285Y-10345782D02*
X46242857Y-10402925D01*
X46242857Y-10402925D02*
X46185714Y-10460068D01*
X45671428Y-10917211D02*
X45271428Y-10917211D01*
X45100000Y-11545782D02*
X45671428Y-11545782D01*
X45671428Y-11545782D02*
X45671428Y-10345782D01*
X45671428Y-10345782D02*
X45100000Y-10345782D01*
X43900000Y-11545782D02*
X44300000Y-10974354D01*
X44585714Y-11545782D02*
X44585714Y-10345782D01*
X44585714Y-10345782D02*
X44128571Y-10345782D01*
X44128571Y-10345782D02*
X44014286Y-10402925D01*
X44014286Y-10402925D02*
X43957143Y-10460068D01*
X43957143Y-10460068D02*
X43900000Y-10574354D01*
X43900000Y-10574354D02*
X43900000Y-10745782D01*
X43900000Y-10745782D02*
X43957143Y-10860068D01*
X43957143Y-10860068D02*
X44014286Y-10917211D01*
X44014286Y-10917211D02*
X44128571Y-10974354D01*
X44128571Y-10974354D02*
X44585714Y-10974354D01*
X43385714Y-11545782D02*
X43385714Y-10345782D01*
X43385714Y-10345782D02*
X42700000Y-11545782D01*
X42700000Y-11545782D02*
X42700000Y-10345782D01*
X42128571Y-11088640D02*
X41214286Y-11088640D01*
X40414286Y-10345782D02*
X40185714Y-10345782D01*
X40185714Y-10345782D02*
X40071429Y-10402925D01*
X40071429Y-10402925D02*
X39957143Y-10517211D01*
X39957143Y-10517211D02*
X39900000Y-10745782D01*
X39900000Y-10745782D02*
X39900000Y-11145782D01*
X39900000Y-11145782D02*
X39957143Y-11374354D01*
X39957143Y-11374354D02*
X40071429Y-11488640D01*
X40071429Y-11488640D02*
X40185714Y-11545782D01*
X40185714Y-11545782D02*
X40414286Y-11545782D01*
X40414286Y-11545782D02*
X40528572Y-11488640D01*
X40528572Y-11488640D02*
X40642857Y-11374354D01*
X40642857Y-11374354D02*
X40700000Y-11145782D01*
X40700000Y-11145782D02*
X40700000Y-10745782D01*
X40700000Y-10745782D02*
X40642857Y-10517211D01*
X40642857Y-10517211D02*
X40528572Y-10402925D01*
X40528572Y-10402925D02*
X40414286Y-10345782D01*
X39385714Y-11545782D02*
X39385714Y-10345782D01*
X39385714Y-10917211D02*
X38700000Y-10917211D01*
X38700000Y-11545782D02*
X38700000Y-10345782D01*
X37557143Y-11545782D02*
X38128571Y-11545782D01*
X38128571Y-11545782D02*
X38128571Y-10345782D01*
X37157142Y-11088640D02*
X36242857Y-11088640D01*
X35728571Y-11488640D02*
X35557143Y-11545782D01*
X35557143Y-11545782D02*
X35271428Y-11545782D01*
X35271428Y-11545782D02*
X35157143Y-11488640D01*
X35157143Y-11488640D02*
X35100000Y-11431497D01*
X35100000Y-11431497D02*
X35042857Y-11317211D01*
X35042857Y-11317211D02*
X35042857Y-11202925D01*
X35042857Y-11202925D02*
X35100000Y-11088640D01*
X35100000Y-11088640D02*
X35157143Y-11031497D01*
X35157143Y-11031497D02*
X35271428Y-10974354D01*
X35271428Y-10974354D02*
X35500000Y-10917211D01*
X35500000Y-10917211D02*
X35614285Y-10860068D01*
X35614285Y-10860068D02*
X35671428Y-10802925D01*
X35671428Y-10802925D02*
X35728571Y-10688640D01*
X35728571Y-10688640D02*
X35728571Y-10574354D01*
X35728571Y-10574354D02*
X35671428Y-10460068D01*
X35671428Y-10460068D02*
X35614285Y-10402925D01*
X35614285Y-10402925D02*
X35500000Y-10345782D01*
X35500000Y-10345782D02*
X35214285Y-10345782D01*
X35214285Y-10345782D02*
X35042857Y-10402925D01*
X33728571Y-10745782D02*
X33442857Y-11545782D01*
X33442857Y-11545782D02*
X33157142Y-10745782D01*
X32757142Y-10460068D02*
X32699999Y-10402925D01*
X32699999Y-10402925D02*
X32585714Y-10345782D01*
X32585714Y-10345782D02*
X32299999Y-10345782D01*
X32299999Y-10345782D02*
X32185714Y-10402925D01*
X32185714Y-10402925D02*
X32128571Y-10460068D01*
X32128571Y-10460068D02*
X32071428Y-10574354D01*
X32071428Y-10574354D02*
X32071428Y-10688640D01*
X32071428Y-10688640D02*
X32128571Y-10860068D01*
X32128571Y-10860068D02*
X32814285Y-11545782D01*
X32814285Y-11545782D02*
X32071428Y-11545782D01*
D12*
X7249999Y-33392662D02*
X7935713Y-33392662D01*
X7592856Y-33392662D02*
X7592856Y-32192662D01*
X7592856Y-32192662D02*
X7707142Y-32364091D01*
X7707142Y-32364091D02*
X7821427Y-32478377D01*
X7821427Y-32478377D02*
X7935713Y-32535520D01*
X6792856Y-32306948D02*
X6735713Y-32249805D01*
X6735713Y-32249805D02*
X6621428Y-32192662D01*
X6621428Y-32192662D02*
X6335713Y-32192662D01*
X6335713Y-32192662D02*
X6221428Y-32249805D01*
X6221428Y-32249805D02*
X6164285Y-32306948D01*
X6164285Y-32306948D02*
X6107142Y-32421234D01*
X6107142Y-32421234D02*
X6107142Y-32535520D01*
X6107142Y-32535520D02*
X6164285Y-32706948D01*
X6164285Y-32706948D02*
X6849999Y-33392662D01*
X6849999Y-33392662D02*
X6107142Y-33392662D01*
X5421428Y-32706948D02*
X5535713Y-32649805D01*
X5535713Y-32649805D02*
X5592856Y-32592662D01*
X5592856Y-32592662D02*
X5649999Y-32478377D01*
X5649999Y-32478377D02*
X5649999Y-32421234D01*
X5649999Y-32421234D02*
X5592856Y-32306948D01*
X5592856Y-32306948D02*
X5535713Y-32249805D01*
X5535713Y-32249805D02*
X5421428Y-32192662D01*
X5421428Y-32192662D02*
X5192856Y-32192662D01*
X5192856Y-32192662D02*
X5078571Y-32249805D01*
X5078571Y-32249805D02*
X5021428Y-32306948D01*
X5021428Y-32306948D02*
X4964285Y-32421234D01*
X4964285Y-32421234D02*
X4964285Y-32478377D01*
X4964285Y-32478377D02*
X5021428Y-32592662D01*
X5021428Y-32592662D02*
X5078571Y-32649805D01*
X5078571Y-32649805D02*
X5192856Y-32706948D01*
X5192856Y-32706948D02*
X5421428Y-32706948D01*
X5421428Y-32706948D02*
X5535713Y-32764091D01*
X5535713Y-32764091D02*
X5592856Y-32821234D01*
X5592856Y-32821234D02*
X5649999Y-32935520D01*
X5649999Y-32935520D02*
X5649999Y-33164091D01*
X5649999Y-33164091D02*
X5592856Y-33278377D01*
X5592856Y-33278377D02*
X5535713Y-33335520D01*
X5535713Y-33335520D02*
X5421428Y-33392662D01*
X5421428Y-33392662D02*
X5192856Y-33392662D01*
X5192856Y-33392662D02*
X5078571Y-33335520D01*
X5078571Y-33335520D02*
X5021428Y-33278377D01*
X5021428Y-33278377D02*
X4964285Y-33164091D01*
X4964285Y-33164091D02*
X4964285Y-32935520D01*
X4964285Y-32935520D02*
X5021428Y-32821234D01*
X5021428Y-32821234D02*
X5078571Y-32764091D01*
X5078571Y-32764091D02*
X5192856Y-32706948D01*
X4449999Y-33392662D02*
X4449999Y-32192662D01*
X3764285Y-33392662D02*
X4278571Y-32706948D01*
X3764285Y-32192662D02*
X4449999Y-32878377D01*
X7307142Y-34192662D02*
X7878570Y-34192662D01*
X7878570Y-34192662D02*
X7935713Y-34764091D01*
X7935713Y-34764091D02*
X7878570Y-34706948D01*
X7878570Y-34706948D02*
X7764285Y-34649805D01*
X7764285Y-34649805D02*
X7478570Y-34649805D01*
X7478570Y-34649805D02*
X7364285Y-34706948D01*
X7364285Y-34706948D02*
X7307142Y-34764091D01*
X7307142Y-34764091D02*
X7249999Y-34878377D01*
X7249999Y-34878377D02*
X7249999Y-35164091D01*
X7249999Y-35164091D02*
X7307142Y-35278377D01*
X7307142Y-35278377D02*
X7364285Y-35335520D01*
X7364285Y-35335520D02*
X7478570Y-35392662D01*
X7478570Y-35392662D02*
X7764285Y-35392662D01*
X7764285Y-35392662D02*
X7878570Y-35335520D01*
X7878570Y-35335520D02*
X7935713Y-35278377D01*
X6107142Y-35392662D02*
X6792856Y-35392662D01*
X6449999Y-35392662D02*
X6449999Y-34192662D01*
X6449999Y-34192662D02*
X6564285Y-34364091D01*
X6564285Y-34364091D02*
X6678570Y-34478377D01*
X6678570Y-34478377D02*
X6792856Y-34535520D01*
X5649999Y-34306948D02*
X5592856Y-34249805D01*
X5592856Y-34249805D02*
X5478571Y-34192662D01*
X5478571Y-34192662D02*
X5192856Y-34192662D01*
X5192856Y-34192662D02*
X5078571Y-34249805D01*
X5078571Y-34249805D02*
X5021428Y-34306948D01*
X5021428Y-34306948D02*
X4964285Y-34421234D01*
X4964285Y-34421234D02*
X4964285Y-34535520D01*
X4964285Y-34535520D02*
X5021428Y-34706948D01*
X5021428Y-34706948D02*
X5707142Y-35392662D01*
X5707142Y-35392662D02*
X4964285Y-35392662D01*
X4449999Y-35392662D02*
X4449999Y-34192662D01*
X3764285Y-35392662D02*
X4278571Y-34706948D01*
X3764285Y-34192662D02*
X4449999Y-34878377D01*
X14249999Y-30192662D02*
X14249999Y-31049805D01*
X14249999Y-31049805D02*
X14307142Y-31221234D01*
X14307142Y-31221234D02*
X14421428Y-31335520D01*
X14421428Y-31335520D02*
X14592856Y-31392662D01*
X14592856Y-31392662D02*
X14707142Y-31392662D01*
X13678570Y-31392662D02*
X13678570Y-30192662D01*
X13678570Y-30192662D02*
X13221427Y-30192662D01*
X13221427Y-30192662D02*
X13107142Y-30249805D01*
X13107142Y-30249805D02*
X13049999Y-30306948D01*
X13049999Y-30306948D02*
X12992856Y-30421234D01*
X12992856Y-30421234D02*
X12992856Y-30592662D01*
X12992856Y-30592662D02*
X13049999Y-30706948D01*
X13049999Y-30706948D02*
X13107142Y-30764091D01*
X13107142Y-30764091D02*
X13221427Y-30821234D01*
X13221427Y-30821234D02*
X13678570Y-30821234D01*
X12592856Y-30192662D02*
X11849999Y-30192662D01*
X11849999Y-30192662D02*
X12249999Y-30649805D01*
X12249999Y-30649805D02*
X12078570Y-30649805D01*
X12078570Y-30649805D02*
X11964285Y-30706948D01*
X11964285Y-30706948D02*
X11907142Y-30764091D01*
X11907142Y-30764091D02*
X11849999Y-30878377D01*
X11849999Y-30878377D02*
X11849999Y-31164091D01*
X11849999Y-31164091D02*
X11907142Y-31278377D01*
X11907142Y-31278377D02*
X11964285Y-31335520D01*
X11964285Y-31335520D02*
X12078570Y-31392662D01*
X12078570Y-31392662D02*
X12421427Y-31392662D01*
X12421427Y-31392662D02*
X12535713Y-31335520D01*
X12535713Y-31335520D02*
X12592856Y-31278377D01*
X16364285Y-33049805D02*
X15792857Y-33049805D01*
X16478571Y-33392662D02*
X16078571Y-32192662D01*
X16078571Y-32192662D02*
X15678571Y-33392662D01*
X14878571Y-32764091D02*
X14707143Y-32821234D01*
X14707143Y-32821234D02*
X14650000Y-32878377D01*
X14650000Y-32878377D02*
X14592857Y-32992662D01*
X14592857Y-32992662D02*
X14592857Y-33164091D01*
X14592857Y-33164091D02*
X14650000Y-33278377D01*
X14650000Y-33278377D02*
X14707143Y-33335520D01*
X14707143Y-33335520D02*
X14821428Y-33392662D01*
X14821428Y-33392662D02*
X15278571Y-33392662D01*
X15278571Y-33392662D02*
X15278571Y-32192662D01*
X15278571Y-32192662D02*
X14878571Y-32192662D01*
X14878571Y-32192662D02*
X14764286Y-32249805D01*
X14764286Y-32249805D02*
X14707143Y-32306948D01*
X14707143Y-32306948D02*
X14650000Y-32421234D01*
X14650000Y-32421234D02*
X14650000Y-32535520D01*
X14650000Y-32535520D02*
X14707143Y-32649805D01*
X14707143Y-32649805D02*
X14764286Y-32706948D01*
X14764286Y-32706948D02*
X14878571Y-32764091D01*
X14878571Y-32764091D02*
X15278571Y-32764091D01*
X14078571Y-32764091D02*
X13678571Y-32764091D01*
X13507143Y-33392662D02*
X14078571Y-33392662D01*
X14078571Y-33392662D02*
X14078571Y-32192662D01*
X14078571Y-32192662D02*
X13507143Y-32192662D01*
X12307143Y-33392662D02*
X12707143Y-32821234D01*
X12992857Y-33392662D02*
X12992857Y-32192662D01*
X12992857Y-32192662D02*
X12535714Y-32192662D01*
X12535714Y-32192662D02*
X12421429Y-32249805D01*
X12421429Y-32249805D02*
X12364286Y-32306948D01*
X12364286Y-32306948D02*
X12307143Y-32421234D01*
X12307143Y-32421234D02*
X12307143Y-32592662D01*
X12307143Y-32592662D02*
X12364286Y-32706948D01*
X12364286Y-32706948D02*
X12421429Y-32764091D01*
X12421429Y-32764091D02*
X12535714Y-32821234D01*
X12535714Y-32821234D02*
X12992857Y-32821234D01*
X11964286Y-32192662D02*
X11278572Y-32192662D01*
X11621429Y-33392662D02*
X11621429Y-32192662D01*
X10650000Y-32192662D02*
X10421428Y-32192662D01*
X10421428Y-32192662D02*
X10307143Y-32249805D01*
X10307143Y-32249805D02*
X10192857Y-32364091D01*
X10192857Y-32364091D02*
X10135714Y-32592662D01*
X10135714Y-32592662D02*
X10135714Y-32992662D01*
X10135714Y-32992662D02*
X10192857Y-33221234D01*
X10192857Y-33221234D02*
X10307143Y-33335520D01*
X10307143Y-33335520D02*
X10421428Y-33392662D01*
X10421428Y-33392662D02*
X10650000Y-33392662D01*
X10650000Y-33392662D02*
X10764286Y-33335520D01*
X10764286Y-33335520D02*
X10878571Y-33221234D01*
X10878571Y-33221234D02*
X10935714Y-32992662D01*
X10935714Y-32992662D02*
X10935714Y-32592662D01*
X10935714Y-32592662D02*
X10878571Y-32364091D01*
X10878571Y-32364091D02*
X10764286Y-32249805D01*
X10764286Y-32249805D02*
X10650000Y-32192662D01*
X16592856Y-34764091D02*
X16992856Y-34764091D01*
X16992856Y-35392662D02*
X16992856Y-34192662D01*
X16992856Y-34192662D02*
X16421428Y-34192662D01*
X15964285Y-34764091D02*
X15564285Y-34764091D01*
X15392857Y-35392662D02*
X15964285Y-35392662D01*
X15964285Y-35392662D02*
X15964285Y-34192662D01*
X15964285Y-34192662D02*
X15392857Y-34192662D01*
X14192857Y-35278377D02*
X14250000Y-35335520D01*
X14250000Y-35335520D02*
X14421428Y-35392662D01*
X14421428Y-35392662D02*
X14535714Y-35392662D01*
X14535714Y-35392662D02*
X14707143Y-35335520D01*
X14707143Y-35335520D02*
X14821428Y-35221234D01*
X14821428Y-35221234D02*
X14878571Y-35106948D01*
X14878571Y-35106948D02*
X14935714Y-34878377D01*
X14935714Y-34878377D02*
X14935714Y-34706948D01*
X14935714Y-34706948D02*
X14878571Y-34478377D01*
X14878571Y-34478377D02*
X14821428Y-34364091D01*
X14821428Y-34364091D02*
X14707143Y-34249805D01*
X14707143Y-34249805D02*
X14535714Y-34192662D01*
X14535714Y-34192662D02*
X14421428Y-34192662D01*
X14421428Y-34192662D02*
X14250000Y-34249805D01*
X14250000Y-34249805D02*
X14192857Y-34306948D01*
X13678571Y-35392662D02*
X13678571Y-34192662D01*
X13678571Y-34764091D02*
X12992857Y-34764091D01*
X12992857Y-35392662D02*
X12992857Y-34192662D01*
X12478571Y-35049805D02*
X11907143Y-35049805D01*
X12592857Y-35392662D02*
X12192857Y-34192662D01*
X12192857Y-34192662D02*
X11792857Y-35392662D01*
X11392857Y-35392662D02*
X11392857Y-34192662D01*
X11392857Y-34192662D02*
X11107143Y-34192662D01*
X11107143Y-34192662D02*
X10935714Y-34249805D01*
X10935714Y-34249805D02*
X10821429Y-34364091D01*
X10821429Y-34364091D02*
X10764286Y-34478377D01*
X10764286Y-34478377D02*
X10707143Y-34706948D01*
X10707143Y-34706948D02*
X10707143Y-34878377D01*
X10707143Y-34878377D02*
X10764286Y-35106948D01*
X10764286Y-35106948D02*
X10821429Y-35221234D01*
X10821429Y-35221234D02*
X10935714Y-35335520D01*
X10935714Y-35335520D02*
X11107143Y-35392662D01*
X11107143Y-35392662D02*
X11392857Y-35392662D01*
X9964286Y-34192662D02*
X9735714Y-34192662D01*
X9735714Y-34192662D02*
X9621429Y-34249805D01*
X9621429Y-34249805D02*
X9507143Y-34364091D01*
X9507143Y-34364091D02*
X9450000Y-34592662D01*
X9450000Y-34592662D02*
X9450000Y-34992662D01*
X9450000Y-34992662D02*
X9507143Y-35221234D01*
X9507143Y-35221234D02*
X9621429Y-35335520D01*
X9621429Y-35335520D02*
X9735714Y-35392662D01*
X9735714Y-35392662D02*
X9964286Y-35392662D01*
X9964286Y-35392662D02*
X10078572Y-35335520D01*
X10078572Y-35335520D02*
X10192857Y-35221234D01*
X10192857Y-35221234D02*
X10250000Y-34992662D01*
X10250000Y-34992662D02*
X10250000Y-34592662D01*
X10250000Y-34592662D02*
X10192857Y-34364091D01*
X10192857Y-34364091D02*
X10078572Y-34249805D01*
X10078572Y-34249805D02*
X9964286Y-34192662D01*
X35607143Y-33392662D02*
X36007143Y-32821234D01*
X36292857Y-33392662D02*
X36292857Y-32192662D01*
X36292857Y-32192662D02*
X35835714Y-32192662D01*
X35835714Y-32192662D02*
X35721429Y-32249805D01*
X35721429Y-32249805D02*
X35664286Y-32306948D01*
X35664286Y-32306948D02*
X35607143Y-32421234D01*
X35607143Y-32421234D02*
X35607143Y-32592662D01*
X35607143Y-32592662D02*
X35664286Y-32706948D01*
X35664286Y-32706948D02*
X35721429Y-32764091D01*
X35721429Y-32764091D02*
X35835714Y-32821234D01*
X35835714Y-32821234D02*
X36292857Y-32821234D01*
X34864286Y-32192662D02*
X34635714Y-32192662D01*
X34635714Y-32192662D02*
X34521429Y-32249805D01*
X34521429Y-32249805D02*
X34407143Y-32364091D01*
X34407143Y-32364091D02*
X34350000Y-32592662D01*
X34350000Y-32592662D02*
X34350000Y-32992662D01*
X34350000Y-32992662D02*
X34407143Y-33221234D01*
X34407143Y-33221234D02*
X34521429Y-33335520D01*
X34521429Y-33335520D02*
X34635714Y-33392662D01*
X34635714Y-33392662D02*
X34864286Y-33392662D01*
X34864286Y-33392662D02*
X34978572Y-33335520D01*
X34978572Y-33335520D02*
X35092857Y-33221234D01*
X35092857Y-33221234D02*
X35150000Y-32992662D01*
X35150000Y-32992662D02*
X35150000Y-32592662D01*
X35150000Y-32592662D02*
X35092857Y-32364091D01*
X35092857Y-32364091D02*
X34978572Y-32249805D01*
X34978572Y-32249805D02*
X34864286Y-32192662D01*
X33835714Y-33392662D02*
X33835714Y-32192662D01*
X33835714Y-32192662D02*
X33435714Y-33049805D01*
X33435714Y-33049805D02*
X33035714Y-32192662D01*
X33035714Y-32192662D02*
X33035714Y-33392662D01*
X31549999Y-33392662D02*
X31549999Y-32192662D01*
X30978570Y-33392662D02*
X30978570Y-32192662D01*
X30978570Y-32192662D02*
X30292856Y-33392662D01*
X30292856Y-33392662D02*
X30292856Y-32192662D01*
X29892856Y-32192662D02*
X29207142Y-32192662D01*
X29549999Y-33392662D02*
X29549999Y-32192662D01*
X28807141Y-32764091D02*
X28407141Y-32764091D01*
X28235713Y-33392662D02*
X28807141Y-33392662D01*
X28807141Y-33392662D02*
X28807141Y-32192662D01*
X28807141Y-32192662D02*
X28235713Y-32192662D01*
X27035713Y-33392662D02*
X27435713Y-32821234D01*
X27721427Y-33392662D02*
X27721427Y-32192662D01*
X27721427Y-32192662D02*
X27264284Y-32192662D01*
X27264284Y-32192662D02*
X27149999Y-32249805D01*
X27149999Y-32249805D02*
X27092856Y-32306948D01*
X27092856Y-32306948D02*
X27035713Y-32421234D01*
X27035713Y-32421234D02*
X27035713Y-32592662D01*
X27035713Y-32592662D02*
X27092856Y-32706948D01*
X27092856Y-32706948D02*
X27149999Y-32764091D01*
X27149999Y-32764091D02*
X27264284Y-32821234D01*
X27264284Y-32821234D02*
X27721427Y-32821234D01*
X26521427Y-33392662D02*
X26521427Y-32192662D01*
X26521427Y-32192662D02*
X25835713Y-33392662D01*
X25835713Y-33392662D02*
X25835713Y-32192662D01*
X25321427Y-33049805D02*
X24749999Y-33049805D01*
X25435713Y-33392662D02*
X25035713Y-32192662D01*
X25035713Y-32192662D02*
X24635713Y-33392662D01*
X34721428Y-35392662D02*
X35121428Y-34821234D01*
X35407142Y-35392662D02*
X35407142Y-34192662D01*
X35407142Y-34192662D02*
X34949999Y-34192662D01*
X34949999Y-34192662D02*
X34835714Y-34249805D01*
X34835714Y-34249805D02*
X34778571Y-34306948D01*
X34778571Y-34306948D02*
X34721428Y-34421234D01*
X34721428Y-34421234D02*
X34721428Y-34592662D01*
X34721428Y-34592662D02*
X34778571Y-34706948D01*
X34778571Y-34706948D02*
X34835714Y-34764091D01*
X34835714Y-34764091D02*
X34949999Y-34821234D01*
X34949999Y-34821234D02*
X35407142Y-34821234D01*
X33978571Y-34192662D02*
X33749999Y-34192662D01*
X33749999Y-34192662D02*
X33635714Y-34249805D01*
X33635714Y-34249805D02*
X33521428Y-34364091D01*
X33521428Y-34364091D02*
X33464285Y-34592662D01*
X33464285Y-34592662D02*
X33464285Y-34992662D01*
X33464285Y-34992662D02*
X33521428Y-35221234D01*
X33521428Y-35221234D02*
X33635714Y-35335520D01*
X33635714Y-35335520D02*
X33749999Y-35392662D01*
X33749999Y-35392662D02*
X33978571Y-35392662D01*
X33978571Y-35392662D02*
X34092857Y-35335520D01*
X34092857Y-35335520D02*
X34207142Y-35221234D01*
X34207142Y-35221234D02*
X34264285Y-34992662D01*
X34264285Y-34992662D02*
X34264285Y-34592662D01*
X34264285Y-34592662D02*
X34207142Y-34364091D01*
X34207142Y-34364091D02*
X34092857Y-34249805D01*
X34092857Y-34249805D02*
X33978571Y-34192662D01*
X32949999Y-35392662D02*
X32949999Y-34192662D01*
X32949999Y-34192662D02*
X32549999Y-35049805D01*
X32549999Y-35049805D02*
X32149999Y-34192662D01*
X32149999Y-34192662D02*
X32149999Y-35392662D01*
X30892856Y-35278377D02*
X30949999Y-35335520D01*
X30949999Y-35335520D02*
X31121427Y-35392662D01*
X31121427Y-35392662D02*
X31235713Y-35392662D01*
X31235713Y-35392662D02*
X31407142Y-35335520D01*
X31407142Y-35335520D02*
X31521427Y-35221234D01*
X31521427Y-35221234D02*
X31578570Y-35106948D01*
X31578570Y-35106948D02*
X31635713Y-34878377D01*
X31635713Y-34878377D02*
X31635713Y-34706948D01*
X31635713Y-34706948D02*
X31578570Y-34478377D01*
X31578570Y-34478377D02*
X31521427Y-34364091D01*
X31521427Y-34364091D02*
X31407142Y-34249805D01*
X31407142Y-34249805D02*
X31235713Y-34192662D01*
X31235713Y-34192662D02*
X31121427Y-34192662D01*
X31121427Y-34192662D02*
X30949999Y-34249805D01*
X30949999Y-34249805D02*
X30892856Y-34306948D01*
X30435713Y-35335520D02*
X30264285Y-35392662D01*
X30264285Y-35392662D02*
X29978570Y-35392662D01*
X29978570Y-35392662D02*
X29864285Y-35335520D01*
X29864285Y-35335520D02*
X29807142Y-35278377D01*
X29807142Y-35278377D02*
X29749999Y-35164091D01*
X29749999Y-35164091D02*
X29749999Y-35049805D01*
X29749999Y-35049805D02*
X29807142Y-34935520D01*
X29807142Y-34935520D02*
X29864285Y-34878377D01*
X29864285Y-34878377D02*
X29978570Y-34821234D01*
X29978570Y-34821234D02*
X30207142Y-34764091D01*
X30207142Y-34764091D02*
X30321427Y-34706948D01*
X30321427Y-34706948D02*
X30378570Y-34649805D01*
X30378570Y-34649805D02*
X30435713Y-34535520D01*
X30435713Y-34535520D02*
X30435713Y-34421234D01*
X30435713Y-34421234D02*
X30378570Y-34306948D01*
X30378570Y-34306948D02*
X30321427Y-34249805D01*
X30321427Y-34249805D02*
X30207142Y-34192662D01*
X30207142Y-34192662D02*
X29921427Y-34192662D01*
X29921427Y-34192662D02*
X29749999Y-34249805D01*
X27692856Y-34249805D02*
X27807142Y-34192662D01*
X27807142Y-34192662D02*
X27978570Y-34192662D01*
X27978570Y-34192662D02*
X28149999Y-34249805D01*
X28149999Y-34249805D02*
X28264284Y-34364091D01*
X28264284Y-34364091D02*
X28321427Y-34478377D01*
X28321427Y-34478377D02*
X28378570Y-34706948D01*
X28378570Y-34706948D02*
X28378570Y-34878377D01*
X28378570Y-34878377D02*
X28321427Y-35106948D01*
X28321427Y-35106948D02*
X28264284Y-35221234D01*
X28264284Y-35221234D02*
X28149999Y-35335520D01*
X28149999Y-35335520D02*
X27978570Y-35392662D01*
X27978570Y-35392662D02*
X27864284Y-35392662D01*
X27864284Y-35392662D02*
X27692856Y-35335520D01*
X27692856Y-35335520D02*
X27635713Y-35278377D01*
X27635713Y-35278377D02*
X27635713Y-34878377D01*
X27635713Y-34878377D02*
X27864284Y-34878377D01*
X27178570Y-35049805D02*
X26607142Y-35049805D01*
X27292856Y-35392662D02*
X26892856Y-34192662D01*
X26892856Y-34192662D02*
X26492856Y-35392662D01*
X25521428Y-35392662D02*
X26092856Y-35392662D01*
X26092856Y-35392662D02*
X26092856Y-34192662D01*
X35264286Y-37392662D02*
X35664286Y-36821234D01*
X35950000Y-37392662D02*
X35950000Y-36192662D01*
X35950000Y-36192662D02*
X35492857Y-36192662D01*
X35492857Y-36192662D02*
X35378572Y-36249805D01*
X35378572Y-36249805D02*
X35321429Y-36306948D01*
X35321429Y-36306948D02*
X35264286Y-36421234D01*
X35264286Y-36421234D02*
X35264286Y-36592662D01*
X35264286Y-36592662D02*
X35321429Y-36706948D01*
X35321429Y-36706948D02*
X35378572Y-36764091D01*
X35378572Y-36764091D02*
X35492857Y-36821234D01*
X35492857Y-36821234D02*
X35950000Y-36821234D01*
X34521429Y-36192662D02*
X34292857Y-36192662D01*
X34292857Y-36192662D02*
X34178572Y-36249805D01*
X34178572Y-36249805D02*
X34064286Y-36364091D01*
X34064286Y-36364091D02*
X34007143Y-36592662D01*
X34007143Y-36592662D02*
X34007143Y-36992662D01*
X34007143Y-36992662D02*
X34064286Y-37221234D01*
X34064286Y-37221234D02*
X34178572Y-37335520D01*
X34178572Y-37335520D02*
X34292857Y-37392662D01*
X34292857Y-37392662D02*
X34521429Y-37392662D01*
X34521429Y-37392662D02*
X34635715Y-37335520D01*
X34635715Y-37335520D02*
X34750000Y-37221234D01*
X34750000Y-37221234D02*
X34807143Y-36992662D01*
X34807143Y-36992662D02*
X34807143Y-36592662D01*
X34807143Y-36592662D02*
X34750000Y-36364091D01*
X34750000Y-36364091D02*
X34635715Y-36249805D01*
X34635715Y-36249805D02*
X34521429Y-36192662D01*
X33492857Y-37392662D02*
X33492857Y-36192662D01*
X33492857Y-36192662D02*
X33092857Y-37049805D01*
X33092857Y-37049805D02*
X32692857Y-36192662D01*
X32692857Y-36192662D02*
X32692857Y-37392662D01*
X31435714Y-37278377D02*
X31492857Y-37335520D01*
X31492857Y-37335520D02*
X31664285Y-37392662D01*
X31664285Y-37392662D02*
X31778571Y-37392662D01*
X31778571Y-37392662D02*
X31950000Y-37335520D01*
X31950000Y-37335520D02*
X32064285Y-37221234D01*
X32064285Y-37221234D02*
X32121428Y-37106948D01*
X32121428Y-37106948D02*
X32178571Y-36878377D01*
X32178571Y-36878377D02*
X32178571Y-36706948D01*
X32178571Y-36706948D02*
X32121428Y-36478377D01*
X32121428Y-36478377D02*
X32064285Y-36364091D01*
X32064285Y-36364091D02*
X31950000Y-36249805D01*
X31950000Y-36249805D02*
X31778571Y-36192662D01*
X31778571Y-36192662D02*
X31664285Y-36192662D01*
X31664285Y-36192662D02*
X31492857Y-36249805D01*
X31492857Y-36249805D02*
X31435714Y-36306948D01*
X30978571Y-37335520D02*
X30807143Y-37392662D01*
X30807143Y-37392662D02*
X30521428Y-37392662D01*
X30521428Y-37392662D02*
X30407143Y-37335520D01*
X30407143Y-37335520D02*
X30350000Y-37278377D01*
X30350000Y-37278377D02*
X30292857Y-37164091D01*
X30292857Y-37164091D02*
X30292857Y-37049805D01*
X30292857Y-37049805D02*
X30350000Y-36935520D01*
X30350000Y-36935520D02*
X30407143Y-36878377D01*
X30407143Y-36878377D02*
X30521428Y-36821234D01*
X30521428Y-36821234D02*
X30750000Y-36764091D01*
X30750000Y-36764091D02*
X30864285Y-36706948D01*
X30864285Y-36706948D02*
X30921428Y-36649805D01*
X30921428Y-36649805D02*
X30978571Y-36535520D01*
X30978571Y-36535520D02*
X30978571Y-36421234D01*
X30978571Y-36421234D02*
X30921428Y-36306948D01*
X30921428Y-36306948D02*
X30864285Y-36249805D01*
X30864285Y-36249805D02*
X30750000Y-36192662D01*
X30750000Y-36192662D02*
X30464285Y-36192662D01*
X30464285Y-36192662D02*
X30292857Y-36249805D01*
X28864285Y-37392662D02*
X28864285Y-36192662D01*
X28864285Y-36764091D02*
X28178571Y-36764091D01*
X28178571Y-37392662D02*
X28178571Y-36192662D01*
X27607142Y-37392662D02*
X27607142Y-36192662D01*
X26407142Y-36249805D02*
X26521428Y-36192662D01*
X26521428Y-36192662D02*
X26692856Y-36192662D01*
X26692856Y-36192662D02*
X26864285Y-36249805D01*
X26864285Y-36249805D02*
X26978570Y-36364091D01*
X26978570Y-36364091D02*
X27035713Y-36478377D01*
X27035713Y-36478377D02*
X27092856Y-36706948D01*
X27092856Y-36706948D02*
X27092856Y-36878377D01*
X27092856Y-36878377D02*
X27035713Y-37106948D01*
X27035713Y-37106948D02*
X26978570Y-37221234D01*
X26978570Y-37221234D02*
X26864285Y-37335520D01*
X26864285Y-37335520D02*
X26692856Y-37392662D01*
X26692856Y-37392662D02*
X26578570Y-37392662D01*
X26578570Y-37392662D02*
X26407142Y-37335520D01*
X26407142Y-37335520D02*
X26349999Y-37278377D01*
X26349999Y-37278377D02*
X26349999Y-36878377D01*
X26349999Y-36878377D02*
X26578570Y-36878377D01*
X25835713Y-37392662D02*
X25835713Y-36192662D01*
X25835713Y-36764091D02*
X25149999Y-36764091D01*
X25149999Y-37392662D02*
X25149999Y-36192662D01*
X41949999Y-30142662D02*
X41949999Y-30999805D01*
X41949999Y-30999805D02*
X42007142Y-31171234D01*
X42007142Y-31171234D02*
X42121428Y-31285520D01*
X42121428Y-31285520D02*
X42292856Y-31342662D01*
X42292856Y-31342662D02*
X42407142Y-31342662D01*
X41378570Y-31342662D02*
X41378570Y-30142662D01*
X41378570Y-30142662D02*
X40921427Y-30142662D01*
X40921427Y-30142662D02*
X40807142Y-30199805D01*
X40807142Y-30199805D02*
X40749999Y-30256948D01*
X40749999Y-30256948D02*
X40692856Y-30371234D01*
X40692856Y-30371234D02*
X40692856Y-30542662D01*
X40692856Y-30542662D02*
X40749999Y-30656948D01*
X40749999Y-30656948D02*
X40807142Y-30714091D01*
X40807142Y-30714091D02*
X40921427Y-30771234D01*
X40921427Y-30771234D02*
X41378570Y-30771234D01*
X40235713Y-30256948D02*
X40178570Y-30199805D01*
X40178570Y-30199805D02*
X40064285Y-30142662D01*
X40064285Y-30142662D02*
X39778570Y-30142662D01*
X39778570Y-30142662D02*
X39664285Y-30199805D01*
X39664285Y-30199805D02*
X39607142Y-30256948D01*
X39607142Y-30256948D02*
X39549999Y-30371234D01*
X39549999Y-30371234D02*
X39549999Y-30485520D01*
X39549999Y-30485520D02*
X39607142Y-30656948D01*
X39607142Y-30656948D02*
X40292856Y-31342662D01*
X40292856Y-31342662D02*
X39549999Y-31342662D01*
X44064285Y-33049805D02*
X43492857Y-33049805D01*
X44178571Y-33392662D02*
X43778571Y-32192662D01*
X43778571Y-32192662D02*
X43378571Y-33392662D01*
X42578571Y-32764091D02*
X42407143Y-32821234D01*
X42407143Y-32821234D02*
X42350000Y-32878377D01*
X42350000Y-32878377D02*
X42292857Y-32992662D01*
X42292857Y-32992662D02*
X42292857Y-33164091D01*
X42292857Y-33164091D02*
X42350000Y-33278377D01*
X42350000Y-33278377D02*
X42407143Y-33335520D01*
X42407143Y-33335520D02*
X42521428Y-33392662D01*
X42521428Y-33392662D02*
X42978571Y-33392662D01*
X42978571Y-33392662D02*
X42978571Y-32192662D01*
X42978571Y-32192662D02*
X42578571Y-32192662D01*
X42578571Y-32192662D02*
X42464286Y-32249805D01*
X42464286Y-32249805D02*
X42407143Y-32306948D01*
X42407143Y-32306948D02*
X42350000Y-32421234D01*
X42350000Y-32421234D02*
X42350000Y-32535520D01*
X42350000Y-32535520D02*
X42407143Y-32649805D01*
X42407143Y-32649805D02*
X42464286Y-32706948D01*
X42464286Y-32706948D02*
X42578571Y-32764091D01*
X42578571Y-32764091D02*
X42978571Y-32764091D01*
X41778571Y-32764091D02*
X41378571Y-32764091D01*
X41207143Y-33392662D02*
X41778571Y-33392662D01*
X41778571Y-33392662D02*
X41778571Y-32192662D01*
X41778571Y-32192662D02*
X41207143Y-32192662D01*
X40007143Y-33392662D02*
X40407143Y-32821234D01*
X40692857Y-33392662D02*
X40692857Y-32192662D01*
X40692857Y-32192662D02*
X40235714Y-32192662D01*
X40235714Y-32192662D02*
X40121429Y-32249805D01*
X40121429Y-32249805D02*
X40064286Y-32306948D01*
X40064286Y-32306948D02*
X40007143Y-32421234D01*
X40007143Y-32421234D02*
X40007143Y-32592662D01*
X40007143Y-32592662D02*
X40064286Y-32706948D01*
X40064286Y-32706948D02*
X40121429Y-32764091D01*
X40121429Y-32764091D02*
X40235714Y-32821234D01*
X40235714Y-32821234D02*
X40692857Y-32821234D01*
X39664286Y-32192662D02*
X38978572Y-32192662D01*
X39321429Y-33392662D02*
X39321429Y-32192662D01*
X38350000Y-32192662D02*
X38121428Y-32192662D01*
X38121428Y-32192662D02*
X38007143Y-32249805D01*
X38007143Y-32249805D02*
X37892857Y-32364091D01*
X37892857Y-32364091D02*
X37835714Y-32592662D01*
X37835714Y-32592662D02*
X37835714Y-32992662D01*
X37835714Y-32992662D02*
X37892857Y-33221234D01*
X37892857Y-33221234D02*
X38007143Y-33335520D01*
X38007143Y-33335520D02*
X38121428Y-33392662D01*
X38121428Y-33392662D02*
X38350000Y-33392662D01*
X38350000Y-33392662D02*
X38464286Y-33335520D01*
X38464286Y-33335520D02*
X38578571Y-33221234D01*
X38578571Y-33221234D02*
X38635714Y-32992662D01*
X38635714Y-32992662D02*
X38635714Y-32592662D01*
X38635714Y-32592662D02*
X38578571Y-32364091D01*
X38578571Y-32364091D02*
X38464286Y-32249805D01*
X38464286Y-32249805D02*
X38350000Y-32192662D01*
X41921428Y-35392662D02*
X42607142Y-35392662D01*
X42264285Y-35392662D02*
X42264285Y-34192662D01*
X42264285Y-34192662D02*
X42378571Y-34364091D01*
X42378571Y-34364091D02*
X42492856Y-34478377D01*
X42492856Y-34478377D02*
X42607142Y-34535520D01*
X41407142Y-34935520D02*
X40492857Y-34935520D01*
X39978571Y-34306948D02*
X39921428Y-34249805D01*
X39921428Y-34249805D02*
X39807143Y-34192662D01*
X39807143Y-34192662D02*
X39521428Y-34192662D01*
X39521428Y-34192662D02*
X39407143Y-34249805D01*
X39407143Y-34249805D02*
X39350000Y-34306948D01*
X39350000Y-34306948D02*
X39292857Y-34421234D01*
X39292857Y-34421234D02*
X39292857Y-34535520D01*
X39292857Y-34535520D02*
X39350000Y-34706948D01*
X39350000Y-34706948D02*
X40035714Y-35392662D01*
X40035714Y-35392662D02*
X39292857Y-35392662D01*
X42607142Y-36306948D02*
X42549999Y-36249805D01*
X42549999Y-36249805D02*
X42435714Y-36192662D01*
X42435714Y-36192662D02*
X42149999Y-36192662D01*
X42149999Y-36192662D02*
X42035714Y-36249805D01*
X42035714Y-36249805D02*
X41978571Y-36306948D01*
X41978571Y-36306948D02*
X41921428Y-36421234D01*
X41921428Y-36421234D02*
X41921428Y-36535520D01*
X41921428Y-36535520D02*
X41978571Y-36706948D01*
X41978571Y-36706948D02*
X42664285Y-37392662D01*
X42664285Y-37392662D02*
X41921428Y-37392662D01*
X41407142Y-36935520D02*
X40492857Y-36935520D01*
X40035714Y-36192662D02*
X39292857Y-36192662D01*
X39292857Y-36192662D02*
X39692857Y-36649805D01*
X39692857Y-36649805D02*
X39521428Y-36649805D01*
X39521428Y-36649805D02*
X39407143Y-36706948D01*
X39407143Y-36706948D02*
X39350000Y-36764091D01*
X39350000Y-36764091D02*
X39292857Y-36878377D01*
X39292857Y-36878377D02*
X39292857Y-37164091D01*
X39292857Y-37164091D02*
X39350000Y-37278377D01*
X39350000Y-37278377D02*
X39407143Y-37335520D01*
X39407143Y-37335520D02*
X39521428Y-37392662D01*
X39521428Y-37392662D02*
X39864285Y-37392662D01*
X39864285Y-37392662D02*
X39978571Y-37335520D01*
X39978571Y-37335520D02*
X40035714Y-37278377D01*
X65921429Y-24192662D02*
X66321429Y-23621234D01*
X66607143Y-24192662D02*
X66607143Y-22992662D01*
X66607143Y-22992662D02*
X66150000Y-22992662D01*
X66150000Y-22992662D02*
X66035715Y-23049805D01*
X66035715Y-23049805D02*
X65978572Y-23106948D01*
X65978572Y-23106948D02*
X65921429Y-23221234D01*
X65921429Y-23221234D02*
X65921429Y-23392662D01*
X65921429Y-23392662D02*
X65978572Y-23506948D01*
X65978572Y-23506948D02*
X66035715Y-23564091D01*
X66035715Y-23564091D02*
X66150000Y-23621234D01*
X66150000Y-23621234D02*
X66607143Y-23621234D01*
X65178572Y-22992662D02*
X64950000Y-22992662D01*
X64950000Y-22992662D02*
X64835715Y-23049805D01*
X64835715Y-23049805D02*
X64721429Y-23164091D01*
X64721429Y-23164091D02*
X64664286Y-23392662D01*
X64664286Y-23392662D02*
X64664286Y-23792662D01*
X64664286Y-23792662D02*
X64721429Y-24021234D01*
X64721429Y-24021234D02*
X64835715Y-24135520D01*
X64835715Y-24135520D02*
X64950000Y-24192662D01*
X64950000Y-24192662D02*
X65178572Y-24192662D01*
X65178572Y-24192662D02*
X65292858Y-24135520D01*
X65292858Y-24135520D02*
X65407143Y-24021234D01*
X65407143Y-24021234D02*
X65464286Y-23792662D01*
X65464286Y-23792662D02*
X65464286Y-23392662D01*
X65464286Y-23392662D02*
X65407143Y-23164091D01*
X65407143Y-23164091D02*
X65292858Y-23049805D01*
X65292858Y-23049805D02*
X65178572Y-22992662D01*
X64150000Y-24192662D02*
X64150000Y-22992662D01*
X64150000Y-22992662D02*
X63750000Y-23849805D01*
X63750000Y-23849805D02*
X63350000Y-22992662D01*
X63350000Y-22992662D02*
X63350000Y-24192662D01*
X62035714Y-22992662D02*
X61350000Y-22992662D01*
X61692857Y-24192662D02*
X61692857Y-22992662D01*
X60949999Y-24192662D02*
X60949999Y-22992662D01*
X60264285Y-24192662D02*
X60778571Y-23506948D01*
X60264285Y-22992662D02*
X60949999Y-23678377D01*
X59749999Y-24192662D02*
X59749999Y-22992662D01*
X59749999Y-22992662D02*
X59349999Y-23849805D01*
X59349999Y-23849805D02*
X58949999Y-22992662D01*
X58949999Y-22992662D02*
X58949999Y-24192662D01*
X58378570Y-23564091D02*
X57978570Y-23564091D01*
X57807142Y-24192662D02*
X58378570Y-24192662D01*
X58378570Y-24192662D02*
X58378570Y-22992662D01*
X58378570Y-22992662D02*
X57807142Y-22992662D01*
X57292856Y-24192662D02*
X57292856Y-22992662D01*
X57292856Y-22992662D02*
X56892856Y-23849805D01*
X56892856Y-23849805D02*
X56492856Y-22992662D01*
X56492856Y-22992662D02*
X56492856Y-24192662D01*
X66607143Y-26192662D02*
X67007143Y-25621234D01*
X67292857Y-26192662D02*
X67292857Y-24992662D01*
X67292857Y-24992662D02*
X66835714Y-24992662D01*
X66835714Y-24992662D02*
X66721429Y-25049805D01*
X66721429Y-25049805D02*
X66664286Y-25106948D01*
X66664286Y-25106948D02*
X66607143Y-25221234D01*
X66607143Y-25221234D02*
X66607143Y-25392662D01*
X66607143Y-25392662D02*
X66664286Y-25506948D01*
X66664286Y-25506948D02*
X66721429Y-25564091D01*
X66721429Y-25564091D02*
X66835714Y-25621234D01*
X66835714Y-25621234D02*
X67292857Y-25621234D01*
X65864286Y-24992662D02*
X65635714Y-24992662D01*
X65635714Y-24992662D02*
X65521429Y-25049805D01*
X65521429Y-25049805D02*
X65407143Y-25164091D01*
X65407143Y-25164091D02*
X65350000Y-25392662D01*
X65350000Y-25392662D02*
X65350000Y-25792662D01*
X65350000Y-25792662D02*
X65407143Y-26021234D01*
X65407143Y-26021234D02*
X65521429Y-26135520D01*
X65521429Y-26135520D02*
X65635714Y-26192662D01*
X65635714Y-26192662D02*
X65864286Y-26192662D01*
X65864286Y-26192662D02*
X65978572Y-26135520D01*
X65978572Y-26135520D02*
X66092857Y-26021234D01*
X66092857Y-26021234D02*
X66150000Y-25792662D01*
X66150000Y-25792662D02*
X66150000Y-25392662D01*
X66150000Y-25392662D02*
X66092857Y-25164091D01*
X66092857Y-25164091D02*
X65978572Y-25049805D01*
X65978572Y-25049805D02*
X65864286Y-24992662D01*
X64835714Y-26192662D02*
X64835714Y-24992662D01*
X64835714Y-24992662D02*
X64435714Y-25849805D01*
X64435714Y-25849805D02*
X64035714Y-24992662D01*
X64035714Y-24992662D02*
X64035714Y-26192662D01*
X62549999Y-26192662D02*
X62549999Y-24992662D01*
X61978570Y-26192662D02*
X61978570Y-24992662D01*
X61978570Y-24992662D02*
X61292856Y-26192662D01*
X61292856Y-26192662D02*
X61292856Y-24992662D01*
X60892856Y-24992662D02*
X60207142Y-24992662D01*
X60549999Y-26192662D02*
X60549999Y-24992662D01*
X59807141Y-25564091D02*
X59407141Y-25564091D01*
X59235713Y-26192662D02*
X59807141Y-26192662D01*
X59807141Y-26192662D02*
X59807141Y-24992662D01*
X59807141Y-24992662D02*
X59235713Y-24992662D01*
X58035713Y-26192662D02*
X58435713Y-25621234D01*
X58721427Y-26192662D02*
X58721427Y-24992662D01*
X58721427Y-24992662D02*
X58264284Y-24992662D01*
X58264284Y-24992662D02*
X58149999Y-25049805D01*
X58149999Y-25049805D02*
X58092856Y-25106948D01*
X58092856Y-25106948D02*
X58035713Y-25221234D01*
X58035713Y-25221234D02*
X58035713Y-25392662D01*
X58035713Y-25392662D02*
X58092856Y-25506948D01*
X58092856Y-25506948D02*
X58149999Y-25564091D01*
X58149999Y-25564091D02*
X58264284Y-25621234D01*
X58264284Y-25621234D02*
X58721427Y-25621234D01*
X57521427Y-26192662D02*
X57521427Y-24992662D01*
X57521427Y-24992662D02*
X56835713Y-26192662D01*
X56835713Y-26192662D02*
X56835713Y-24992662D01*
X56321427Y-25849805D02*
X55749999Y-25849805D01*
X56435713Y-26192662D02*
X56035713Y-24992662D01*
X56035713Y-24992662D02*
X55635713Y-26192662D01*
X71499999Y-20992662D02*
X71499999Y-21849805D01*
X71499999Y-21849805D02*
X71557142Y-22021234D01*
X71557142Y-22021234D02*
X71671428Y-22135520D01*
X71671428Y-22135520D02*
X71842856Y-22192662D01*
X71842856Y-22192662D02*
X71957142Y-22192662D01*
X70928570Y-22192662D02*
X70928570Y-20992662D01*
X70928570Y-20992662D02*
X70471427Y-20992662D01*
X70471427Y-20992662D02*
X70357142Y-21049805D01*
X70357142Y-21049805D02*
X70299999Y-21106948D01*
X70299999Y-21106948D02*
X70242856Y-21221234D01*
X70242856Y-21221234D02*
X70242856Y-21392662D01*
X70242856Y-21392662D02*
X70299999Y-21506948D01*
X70299999Y-21506948D02*
X70357142Y-21564091D01*
X70357142Y-21564091D02*
X70471427Y-21621234D01*
X70471427Y-21621234D02*
X70928570Y-21621234D01*
X69099999Y-22192662D02*
X69785713Y-22192662D01*
X69442856Y-22192662D02*
X69442856Y-20992662D01*
X69442856Y-20992662D02*
X69557142Y-21164091D01*
X69557142Y-21164091D02*
X69671427Y-21278377D01*
X69671427Y-21278377D02*
X69785713Y-21335520D01*
X71471428Y-24192662D02*
X72157142Y-24192662D01*
X71814285Y-24192662D02*
X71814285Y-22992662D01*
X71814285Y-22992662D02*
X71928571Y-23164091D01*
X71928571Y-23164091D02*
X72042856Y-23278377D01*
X72042856Y-23278377D02*
X72157142Y-23335520D01*
X70957142Y-23735520D02*
X70042857Y-23735520D01*
X69528571Y-23106948D02*
X69471428Y-23049805D01*
X69471428Y-23049805D02*
X69357143Y-22992662D01*
X69357143Y-22992662D02*
X69071428Y-22992662D01*
X69071428Y-22992662D02*
X68957143Y-23049805D01*
X68957143Y-23049805D02*
X68900000Y-23106948D01*
X68900000Y-23106948D02*
X68842857Y-23221234D01*
X68842857Y-23221234D02*
X68842857Y-23335520D01*
X68842857Y-23335520D02*
X68900000Y-23506948D01*
X68900000Y-23506948D02*
X69585714Y-24192662D01*
X69585714Y-24192662D02*
X68842857Y-24192662D01*
X72157142Y-25106948D02*
X72099999Y-25049805D01*
X72099999Y-25049805D02*
X71985714Y-24992662D01*
X71985714Y-24992662D02*
X71699999Y-24992662D01*
X71699999Y-24992662D02*
X71585714Y-25049805D01*
X71585714Y-25049805D02*
X71528571Y-25106948D01*
X71528571Y-25106948D02*
X71471428Y-25221234D01*
X71471428Y-25221234D02*
X71471428Y-25335520D01*
X71471428Y-25335520D02*
X71528571Y-25506948D01*
X71528571Y-25506948D02*
X72214285Y-26192662D01*
X72214285Y-26192662D02*
X71471428Y-26192662D01*
X70957142Y-25735520D02*
X70042857Y-25735520D01*
X69585714Y-24992662D02*
X68842857Y-24992662D01*
X68842857Y-24992662D02*
X69242857Y-25449805D01*
X69242857Y-25449805D02*
X69071428Y-25449805D01*
X69071428Y-25449805D02*
X68957143Y-25506948D01*
X68957143Y-25506948D02*
X68900000Y-25564091D01*
X68900000Y-25564091D02*
X68842857Y-25678377D01*
X68842857Y-25678377D02*
X68842857Y-25964091D01*
X68842857Y-25964091D02*
X68900000Y-26078377D01*
X68900000Y-26078377D02*
X68957143Y-26135520D01*
X68957143Y-26135520D02*
X69071428Y-26192662D01*
X69071428Y-26192662D02*
X69414285Y-26192662D01*
X69414285Y-26192662D02*
X69528571Y-26135520D01*
X69528571Y-26135520D02*
X69585714Y-26078377D01*
D13*
X39769999Y-53844742D02*
X39769999Y-54701885D01*
X39769999Y-54701885D02*
X39827142Y-54873314D01*
X39827142Y-54873314D02*
X39941428Y-54987600D01*
X39941428Y-54987600D02*
X40112856Y-55044742D01*
X40112856Y-55044742D02*
X40227142Y-55044742D01*
X38569999Y-55044742D02*
X39255713Y-55044742D01*
X38912856Y-55044742D02*
X38912856Y-53844742D01*
X38912856Y-53844742D02*
X39027142Y-54016171D01*
X39027142Y-54016171D02*
X39141427Y-54130457D01*
X39141427Y-54130457D02*
X39255713Y-54187600D01*
X2414285Y-57459028D02*
X2357142Y-57401885D01*
X2357142Y-57401885D02*
X2242857Y-57344742D01*
X2242857Y-57344742D02*
X1957142Y-57344742D01*
X1957142Y-57344742D02*
X1842857Y-57401885D01*
X1842857Y-57401885D02*
X1785714Y-57459028D01*
X1785714Y-57459028D02*
X1728571Y-57573314D01*
X1728571Y-57573314D02*
X1728571Y-57687600D01*
X1728571Y-57687600D02*
X1785714Y-57859028D01*
X1785714Y-57859028D02*
X2471428Y-58544742D01*
X2471428Y-58544742D02*
X1728571Y-58544742D01*
X1157142Y-58544742D02*
X928571Y-58544742D01*
X928571Y-58544742D02*
X814285Y-58487600D01*
X814285Y-58487600D02*
X757142Y-58430457D01*
X757142Y-58430457D02*
X642857Y-58259028D01*
X642857Y-58259028D02*
X585714Y-58030457D01*
X585714Y-58030457D02*
X585714Y-57573314D01*
X585714Y-57573314D02*
X642857Y-57459028D01*
X642857Y-57459028D02*
X700000Y-57401885D01*
X700000Y-57401885D02*
X814285Y-57344742D01*
X814285Y-57344742D02*
X1042857Y-57344742D01*
X1042857Y-57344742D02*
X1157142Y-57401885D01*
X1157142Y-57401885D02*
X1214285Y-57459028D01*
X1214285Y-57459028D02*
X1271428Y-57573314D01*
X1271428Y-57573314D02*
X1271428Y-57859028D01*
X1271428Y-57859028D02*
X1214285Y-57973314D01*
X1214285Y-57973314D02*
X1157142Y-58030457D01*
X1157142Y-58030457D02*
X1042857Y-58087600D01*
X1042857Y-58087600D02*
X814285Y-58087600D01*
X814285Y-58087600D02*
X700000Y-58030457D01*
X700000Y-58030457D02*
X642857Y-57973314D01*
X642857Y-57973314D02*
X585714Y-57859028D01*
X2414285Y-62459028D02*
X2357142Y-62401885D01*
X2357142Y-62401885D02*
X2242857Y-62344742D01*
X2242857Y-62344742D02*
X1957142Y-62344742D01*
X1957142Y-62344742D02*
X1842857Y-62401885D01*
X1842857Y-62401885D02*
X1785714Y-62459028D01*
X1785714Y-62459028D02*
X1728571Y-62573314D01*
X1728571Y-62573314D02*
X1728571Y-62687600D01*
X1728571Y-62687600D02*
X1785714Y-62859028D01*
X1785714Y-62859028D02*
X2471428Y-63544742D01*
X2471428Y-63544742D02*
X1728571Y-63544742D01*
X1042857Y-62859028D02*
X1157142Y-62801885D01*
X1157142Y-62801885D02*
X1214285Y-62744742D01*
X1214285Y-62744742D02*
X1271428Y-62630457D01*
X1271428Y-62630457D02*
X1271428Y-62573314D01*
X1271428Y-62573314D02*
X1214285Y-62459028D01*
X1214285Y-62459028D02*
X1157142Y-62401885D01*
X1157142Y-62401885D02*
X1042857Y-62344742D01*
X1042857Y-62344742D02*
X814285Y-62344742D01*
X814285Y-62344742D02*
X700000Y-62401885D01*
X700000Y-62401885D02*
X642857Y-62459028D01*
X642857Y-62459028D02*
X585714Y-62573314D01*
X585714Y-62573314D02*
X585714Y-62630457D01*
X585714Y-62630457D02*
X642857Y-62744742D01*
X642857Y-62744742D02*
X700000Y-62801885D01*
X700000Y-62801885D02*
X814285Y-62859028D01*
X814285Y-62859028D02*
X1042857Y-62859028D01*
X1042857Y-62859028D02*
X1157142Y-62916171D01*
X1157142Y-62916171D02*
X1214285Y-62973314D01*
X1214285Y-62973314D02*
X1271428Y-63087600D01*
X1271428Y-63087600D02*
X1271428Y-63316171D01*
X1271428Y-63316171D02*
X1214285Y-63430457D01*
X1214285Y-63430457D02*
X1157142Y-63487600D01*
X1157142Y-63487600D02*
X1042857Y-63544742D01*
X1042857Y-63544742D02*
X814285Y-63544742D01*
X814285Y-63544742D02*
X700000Y-63487600D01*
X700000Y-63487600D02*
X642857Y-63430457D01*
X642857Y-63430457D02*
X585714Y-63316171D01*
X585714Y-63316171D02*
X585714Y-63087600D01*
X585714Y-63087600D02*
X642857Y-62973314D01*
X642857Y-62973314D02*
X700000Y-62916171D01*
X700000Y-62916171D02*
X814285Y-62859028D01*
D14*
X63709523Y-54349870D02*
X63785713Y-54311775D01*
X63785713Y-54311775D02*
X63899999Y-54311775D01*
X63899999Y-54311775D02*
X64014285Y-54349870D01*
X64014285Y-54349870D02*
X64090475Y-54426060D01*
X64090475Y-54426060D02*
X64128570Y-54502251D01*
X64128570Y-54502251D02*
X64166666Y-54654632D01*
X64166666Y-54654632D02*
X64166666Y-54768918D01*
X64166666Y-54768918D02*
X64128570Y-54921299D01*
X64128570Y-54921299D02*
X64090475Y-54997489D01*
X64090475Y-54997489D02*
X64014285Y-55073680D01*
X64014285Y-55073680D02*
X63899999Y-55111775D01*
X63899999Y-55111775D02*
X63823808Y-55111775D01*
X63823808Y-55111775D02*
X63709523Y-55073680D01*
X63709523Y-55073680D02*
X63671427Y-55035584D01*
X63671427Y-55035584D02*
X63671427Y-54768918D01*
X63671427Y-54768918D02*
X63823808Y-54768918D01*
X63328570Y-54311775D02*
X63328570Y-54959394D01*
X63328570Y-54959394D02*
X63290475Y-55035584D01*
X63290475Y-55035584D02*
X63252380Y-55073680D01*
X63252380Y-55073680D02*
X63176189Y-55111775D01*
X63176189Y-55111775D02*
X63023808Y-55111775D01*
X63023808Y-55111775D02*
X62947618Y-55073680D01*
X62947618Y-55073680D02*
X62909523Y-55035584D01*
X62909523Y-55035584D02*
X62871427Y-54959394D01*
X62871427Y-54959394D02*
X62871427Y-54311775D01*
X62490475Y-55111775D02*
X62490475Y-54311775D01*
X62147619Y-54883203D02*
X61766666Y-54883203D01*
X62223809Y-55111775D02*
X61957142Y-54311775D01*
X61957142Y-54311775D02*
X61690476Y-55111775D01*
X60433333Y-54311775D02*
X60814285Y-54311775D01*
X60814285Y-54311775D02*
X60852381Y-54692727D01*
X60852381Y-54692727D02*
X60814285Y-54654632D01*
X60814285Y-54654632D02*
X60738095Y-54616537D01*
X60738095Y-54616537D02*
X60547619Y-54616537D01*
X60547619Y-54616537D02*
X60471428Y-54654632D01*
X60471428Y-54654632D02*
X60433333Y-54692727D01*
X60433333Y-54692727D02*
X60395238Y-54768918D01*
X60395238Y-54768918D02*
X60395238Y-54959394D01*
X60395238Y-54959394D02*
X60433333Y-55035584D01*
X60433333Y-55035584D02*
X60471428Y-55073680D01*
X60471428Y-55073680D02*
X60547619Y-55111775D01*
X60547619Y-55111775D02*
X60738095Y-55111775D01*
X60738095Y-55111775D02*
X60814285Y-55073680D01*
X60814285Y-55073680D02*
X60852381Y-55035584D01*
X59480952Y-54273680D02*
X60166666Y-55302251D01*
X58833333Y-54311775D02*
X59214285Y-54311775D01*
X59214285Y-54311775D02*
X59252381Y-54692727D01*
X59252381Y-54692727D02*
X59214285Y-54654632D01*
X59214285Y-54654632D02*
X59138095Y-54616537D01*
X59138095Y-54616537D02*
X58947619Y-54616537D01*
X58947619Y-54616537D02*
X58871428Y-54654632D01*
X58871428Y-54654632D02*
X58833333Y-54692727D01*
X58833333Y-54692727D02*
X58795238Y-54768918D01*
X58795238Y-54768918D02*
X58795238Y-54959394D01*
X58795238Y-54959394D02*
X58833333Y-55035584D01*
X58833333Y-55035584D02*
X58871428Y-55073680D01*
X58871428Y-55073680D02*
X58947619Y-55111775D01*
X58947619Y-55111775D02*
X59138095Y-55111775D01*
X59138095Y-55111775D02*
X59214285Y-55073680D01*
X59214285Y-55073680D02*
X59252381Y-55035584D01*
X58490476Y-54387965D02*
X58452380Y-54349870D01*
X58452380Y-54349870D02*
X58376190Y-54311775D01*
X58376190Y-54311775D02*
X58185714Y-54311775D01*
X58185714Y-54311775D02*
X58109523Y-54349870D01*
X58109523Y-54349870D02*
X58071428Y-54387965D01*
X58071428Y-54387965D02*
X58033333Y-54464156D01*
X58033333Y-54464156D02*
X58033333Y-54540346D01*
X58033333Y-54540346D02*
X58071428Y-54654632D01*
X58071428Y-54654632D02*
X58528571Y-55111775D01*
X58528571Y-55111775D02*
X58033333Y-55111775D01*
D13*
X76157142Y-63544742D02*
X76842856Y-63544742D01*
X76499999Y-63544742D02*
X76499999Y-62344742D01*
X76499999Y-62344742D02*
X76614285Y-62516171D01*
X76614285Y-62516171D02*
X76728570Y-62630457D01*
X76728570Y-62630457D02*
X76842856Y-62687600D01*
X77285714Y-57344742D02*
X77857142Y-57344742D01*
X77857142Y-57344742D02*
X77914285Y-57916171D01*
X77914285Y-57916171D02*
X77857142Y-57859028D01*
X77857142Y-57859028D02*
X77742857Y-57801885D01*
X77742857Y-57801885D02*
X77457142Y-57801885D01*
X77457142Y-57801885D02*
X77342857Y-57859028D01*
X77342857Y-57859028D02*
X77285714Y-57916171D01*
X77285714Y-57916171D02*
X77228571Y-58030457D01*
X77228571Y-58030457D02*
X77228571Y-58316171D01*
X77228571Y-58316171D02*
X77285714Y-58430457D01*
X77285714Y-58430457D02*
X77342857Y-58487600D01*
X77342857Y-58487600D02*
X77457142Y-58544742D01*
X77457142Y-58544742D02*
X77742857Y-58544742D01*
X77742857Y-58544742D02*
X77857142Y-58487600D01*
X77857142Y-58487600D02*
X77914285Y-58430457D01*
X76200000Y-57344742D02*
X76428571Y-57344742D01*
X76428571Y-57344742D02*
X76542857Y-57401885D01*
X76542857Y-57401885D02*
X76600000Y-57459028D01*
X76600000Y-57459028D02*
X76714285Y-57630457D01*
X76714285Y-57630457D02*
X76771428Y-57859028D01*
X76771428Y-57859028D02*
X76771428Y-58316171D01*
X76771428Y-58316171D02*
X76714285Y-58430457D01*
X76714285Y-58430457D02*
X76657142Y-58487600D01*
X76657142Y-58487600D02*
X76542857Y-58544742D01*
X76542857Y-58544742D02*
X76314285Y-58544742D01*
X76314285Y-58544742D02*
X76200000Y-58487600D01*
X76200000Y-58487600D02*
X76142857Y-58430457D01*
X76142857Y-58430457D02*
X76085714Y-58316171D01*
X76085714Y-58316171D02*
X76085714Y-58030457D01*
X76085714Y-58030457D02*
X76142857Y-57916171D01*
X76142857Y-57916171D02*
X76200000Y-57859028D01*
X76200000Y-57859028D02*
X76314285Y-57801885D01*
X76314285Y-57801885D02*
X76542857Y-57801885D01*
X76542857Y-57801885D02*
X76657142Y-57859028D01*
X76657142Y-57859028D02*
X76714285Y-57916171D01*
X76714285Y-57916171D02*
X76771428Y-58030457D01*
%TO.C,J1*%
D10*
X2880000Y-55730000D02*
X75860000Y-55730000D01*
X2880000Y-65730000D02*
X2880000Y-55730000D01*
X63500000Y-55730000D02*
X63500000Y-65730000D01*
X75860000Y-55730000D02*
X75860000Y-65730000D01*
X75860000Y-65730000D02*
X2880000Y-65730000D01*
%TD*%
M02*
