%TF.GenerationSoftware,KiCad,Pcbnew,10.0.4*%
%TF.CreationDate,2026-07-27T02:18:27-03:00*%
%TF.ProjectId,tkmem128,746b6d65-6d31-4323-982e-6b696361645f,rev?*%
%TF.SameCoordinates,Original*%
%TF.FileFunction,Legend,Bot*%
%TF.FilePolarity,Positive*%
%FSLAX46Y46*%
G04 Gerber Fmt 4.6, Leading zero omitted, Abs format (unit mm)*
G04 Created by KiCad (PCBNEW 10.0.4) date 2026-07-27 02:18:27*
%MOMM*%
%LPD*%
G01*
G04 APERTURE LIST*
G04 Aperture macros list*
%AMRoundRect*
0 Rectangle with rounded corners*
0 $1 Rounding radius*
0 $2 $3 $4 $5 $6 $7 $8 $9 X,Y pos of 4 corners*
0 Add a 4 corners polygon primitive as box body*
4,1,4,$2,$3,$4,$5,$6,$7,$8,$9,$2,$3,0*
0 Add four circle primitives for the rounded corners*
1,1,$1+$1,$2,$3*
1,1,$1+$1,$4,$5*
1,1,$1+$1,$6,$7*
1,1,$1+$1,$8,$9*
0 Add four rect primitives between the rounded corners*
20,1,$1+$1,$2,$3,$4,$5,0*
20,1,$1+$1,$4,$5,$6,$7,0*
20,1,$1+$1,$6,$7,$8,$9,0*
20,1,$1+$1,$8,$9,$2,$3,0*%
G04 Aperture macros list end*
%ADD10C,0.150000*%
%ADD11RoundRect,0.250000X-0.950000X-0.550000X0.950000X-0.550000X0.950000X0.550000X-0.950000X0.550000X0*%
%ADD12O,2.400000X1.600000*%
%ADD13R,1.700000X1.700000*%
%ADD14C,1.700000*%
%ADD15C,1.500000*%
%ADD16C,1.600000*%
%ADD17RoundRect,0.250000X-0.550000X-0.550000X0.550000X-0.550000X0.550000X0.550000X-0.550000X0.550000X0*%
%ADD18R,1.800000X1.800000*%
%ADD19C,1.800000*%
%ADD20R,1.750000X1.750000*%
%ADD21C,1.750000*%
G04 APERTURE END LIST*
D10*
X30114572Y-44457142D02*
X30964572Y-44457142D01*
X30964572Y-44457142D02*
X30114572Y-43971427D01*
X30114572Y-43971427D02*
X30964572Y-43971427D01*
X30357429Y-43607142D02*
X30357429Y-43202380D01*
X30114572Y-43688094D02*
X30964572Y-43404761D01*
X30964572Y-43404761D02*
X30114572Y-43121427D01*
X31166953Y-43607142D02*
X31207429Y-43566666D01*
X31207429Y-43566666D02*
X31247906Y-43485713D01*
X31247906Y-43485713D02*
X31166953Y-43323808D01*
X31166953Y-43323808D02*
X31207429Y-43242856D01*
X31207429Y-43242856D02*
X31247906Y-43202380D01*
X30964572Y-42676190D02*
X30964572Y-42514285D01*
X30964572Y-42514285D02*
X30924096Y-42433333D01*
X30924096Y-42433333D02*
X30843144Y-42352380D01*
X30843144Y-42352380D02*
X30681239Y-42311904D01*
X30681239Y-42311904D02*
X30397906Y-42311904D01*
X30397906Y-42311904D02*
X30236001Y-42352380D01*
X30236001Y-42352380D02*
X30155049Y-42433333D01*
X30155049Y-42433333D02*
X30114572Y-42514285D01*
X30114572Y-42514285D02*
X30114572Y-42676190D01*
X30114572Y-42676190D02*
X30155049Y-42757142D01*
X30155049Y-42757142D02*
X30236001Y-42838095D01*
X30236001Y-42838095D02*
X30397906Y-42878571D01*
X30397906Y-42878571D02*
X30681239Y-42878571D01*
X30681239Y-42878571D02*
X30843144Y-42838095D01*
X30843144Y-42838095D02*
X30924096Y-42757142D01*
X30924096Y-42757142D02*
X30964572Y-42676190D01*
X30681239Y-41421428D02*
X30681239Y-41097619D01*
X30114572Y-41300000D02*
X30843144Y-41300000D01*
X30843144Y-41300000D02*
X30924096Y-41259523D01*
X30924096Y-41259523D02*
X30964572Y-41178571D01*
X30964572Y-41178571D02*
X30964572Y-41097619D01*
X30155049Y-40490476D02*
X30114572Y-40571428D01*
X30114572Y-40571428D02*
X30114572Y-40733333D01*
X30114572Y-40733333D02*
X30155049Y-40814286D01*
X30155049Y-40814286D02*
X30236001Y-40854762D01*
X30236001Y-40854762D02*
X30559810Y-40854762D01*
X30559810Y-40854762D02*
X30640763Y-40814286D01*
X30640763Y-40814286D02*
X30681239Y-40733333D01*
X30681239Y-40733333D02*
X30681239Y-40571428D01*
X30681239Y-40571428D02*
X30640763Y-40490476D01*
X30640763Y-40490476D02*
X30559810Y-40450000D01*
X30559810Y-40450000D02*
X30478858Y-40450000D01*
X30478858Y-40450000D02*
X30397906Y-40854762D01*
X30155049Y-39721429D02*
X30114572Y-39802381D01*
X30114572Y-39802381D02*
X30114572Y-39964286D01*
X30114572Y-39964286D02*
X30155049Y-40045238D01*
X30155049Y-40045238D02*
X30195525Y-40085715D01*
X30195525Y-40085715D02*
X30276477Y-40126191D01*
X30276477Y-40126191D02*
X30519334Y-40126191D01*
X30519334Y-40126191D02*
X30600287Y-40085715D01*
X30600287Y-40085715D02*
X30640763Y-40045238D01*
X30640763Y-40045238D02*
X30681239Y-39964286D01*
X30681239Y-39964286D02*
X30681239Y-39802381D01*
X30681239Y-39802381D02*
X30640763Y-39721429D01*
X30114572Y-39357144D02*
X30964572Y-39357144D01*
X30114572Y-38992858D02*
X30559810Y-38992858D01*
X30559810Y-38992858D02*
X30640763Y-39033334D01*
X30640763Y-39033334D02*
X30681239Y-39114286D01*
X30681239Y-39114286D02*
X30681239Y-39235715D01*
X30681239Y-39235715D02*
X30640763Y-39316667D01*
X30640763Y-39316667D02*
X30600287Y-39357144D01*
X30155049Y-38264286D02*
X30114572Y-38345238D01*
X30114572Y-38345238D02*
X30114572Y-38507143D01*
X30114572Y-38507143D02*
X30155049Y-38588096D01*
X30155049Y-38588096D02*
X30236001Y-38628572D01*
X30236001Y-38628572D02*
X30559810Y-38628572D01*
X30559810Y-38628572D02*
X30640763Y-38588096D01*
X30640763Y-38588096D02*
X30681239Y-38507143D01*
X30681239Y-38507143D02*
X30681239Y-38345238D01*
X30681239Y-38345238D02*
X30640763Y-38264286D01*
X30640763Y-38264286D02*
X30559810Y-38223810D01*
X30559810Y-38223810D02*
X30478858Y-38223810D01*
X30478858Y-38223810D02*
X30397906Y-38628572D01*
X30964572Y-36969048D02*
X30357429Y-36969048D01*
X30357429Y-36969048D02*
X30236001Y-37009525D01*
X30236001Y-37009525D02*
X30155049Y-37090477D01*
X30155049Y-37090477D02*
X30114572Y-37211906D01*
X30114572Y-37211906D02*
X30114572Y-37292858D01*
X30114572Y-36564287D02*
X30964572Y-36564287D01*
X30964572Y-36564287D02*
X30964572Y-36240477D01*
X30964572Y-36240477D02*
X30924096Y-36159525D01*
X30924096Y-36159525D02*
X30883620Y-36119048D01*
X30883620Y-36119048D02*
X30802668Y-36078572D01*
X30802668Y-36078572D02*
X30681239Y-36078572D01*
X30681239Y-36078572D02*
X30600287Y-36119048D01*
X30600287Y-36119048D02*
X30559810Y-36159525D01*
X30559810Y-36159525D02*
X30519334Y-36240477D01*
X30519334Y-36240477D02*
X30519334Y-36564287D01*
X30681239Y-35350001D02*
X30114572Y-35350001D01*
X31005049Y-35552382D02*
X30397906Y-35754763D01*
X30397906Y-35754763D02*
X30397906Y-35228572D01*
X30155049Y-33933334D02*
X30114572Y-34014286D01*
X30114572Y-34014286D02*
X30114572Y-34176191D01*
X30114572Y-34176191D02*
X30155049Y-34257144D01*
X30155049Y-34257144D02*
X30236001Y-34297620D01*
X30236001Y-34297620D02*
X30559810Y-34297620D01*
X30559810Y-34297620D02*
X30640763Y-34257144D01*
X30640763Y-34257144D02*
X30681239Y-34176191D01*
X30681239Y-34176191D02*
X30681239Y-34014286D01*
X30681239Y-34014286D02*
X30640763Y-33933334D01*
X30640763Y-33933334D02*
X30559810Y-33892858D01*
X30559810Y-33892858D02*
X30478858Y-33892858D01*
X30478858Y-33892858D02*
X30397906Y-34297620D01*
X30114572Y-33528573D02*
X30681239Y-33528573D01*
X30600287Y-33528573D02*
X30640763Y-33488096D01*
X30640763Y-33488096D02*
X30681239Y-33407144D01*
X30681239Y-33407144D02*
X30681239Y-33285715D01*
X30681239Y-33285715D02*
X30640763Y-33204763D01*
X30640763Y-33204763D02*
X30559810Y-33164287D01*
X30559810Y-33164287D02*
X30114572Y-33164287D01*
X30559810Y-33164287D02*
X30640763Y-33123811D01*
X30640763Y-33123811D02*
X30681239Y-33042858D01*
X30681239Y-33042858D02*
X30681239Y-32921430D01*
X30681239Y-32921430D02*
X30640763Y-32840477D01*
X30640763Y-32840477D02*
X30559810Y-32800001D01*
X30559810Y-32800001D02*
X30114572Y-32800001D01*
X30964572Y-31828573D02*
X30964572Y-31261906D01*
X30964572Y-31261906D02*
X30114572Y-31828573D01*
X30114572Y-31828573D02*
X30114572Y-31261906D01*
X30964572Y-31019049D02*
X30114572Y-30452382D01*
X30964572Y-30452382D02*
X30114572Y-31019049D01*
X30155049Y-29521430D02*
X30114572Y-29400001D01*
X30114572Y-29400001D02*
X30114572Y-29197620D01*
X30114572Y-29197620D02*
X30155049Y-29116668D01*
X30155049Y-29116668D02*
X30195525Y-29076192D01*
X30195525Y-29076192D02*
X30276477Y-29035715D01*
X30276477Y-29035715D02*
X30357429Y-29035715D01*
X30357429Y-29035715D02*
X30438382Y-29076192D01*
X30438382Y-29076192D02*
X30478858Y-29116668D01*
X30478858Y-29116668D02*
X30519334Y-29197620D01*
X30519334Y-29197620D02*
X30559810Y-29359525D01*
X30559810Y-29359525D02*
X30600287Y-29440477D01*
X30600287Y-29440477D02*
X30640763Y-29480954D01*
X30640763Y-29480954D02*
X30721715Y-29521430D01*
X30721715Y-29521430D02*
X30802668Y-29521430D01*
X30802668Y-29521430D02*
X30883620Y-29480954D01*
X30883620Y-29480954D02*
X30924096Y-29440477D01*
X30924096Y-29440477D02*
X30964572Y-29359525D01*
X30964572Y-29359525D02*
X30964572Y-29157144D01*
X30964572Y-29157144D02*
X30924096Y-29035715D01*
X30681239Y-28671430D02*
X29831239Y-28671430D01*
X30640763Y-28671430D02*
X30681239Y-28590477D01*
X30681239Y-28590477D02*
X30681239Y-28428572D01*
X30681239Y-28428572D02*
X30640763Y-28347620D01*
X30640763Y-28347620D02*
X30600287Y-28307144D01*
X30600287Y-28307144D02*
X30519334Y-28266668D01*
X30519334Y-28266668D02*
X30276477Y-28266668D01*
X30276477Y-28266668D02*
X30195525Y-28307144D01*
X30195525Y-28307144D02*
X30155049Y-28347620D01*
X30155049Y-28347620D02*
X30114572Y-28428572D01*
X30114572Y-28428572D02*
X30114572Y-28590477D01*
X30114572Y-28590477D02*
X30155049Y-28671430D01*
X30155049Y-27578572D02*
X30114572Y-27659524D01*
X30114572Y-27659524D02*
X30114572Y-27821429D01*
X30114572Y-27821429D02*
X30155049Y-27902382D01*
X30155049Y-27902382D02*
X30236001Y-27942858D01*
X30236001Y-27942858D02*
X30559810Y-27942858D01*
X30559810Y-27942858D02*
X30640763Y-27902382D01*
X30640763Y-27902382D02*
X30681239Y-27821429D01*
X30681239Y-27821429D02*
X30681239Y-27659524D01*
X30681239Y-27659524D02*
X30640763Y-27578572D01*
X30640763Y-27578572D02*
X30559810Y-27538096D01*
X30559810Y-27538096D02*
X30478858Y-27538096D01*
X30478858Y-27538096D02*
X30397906Y-27942858D01*
X30155049Y-26809525D02*
X30114572Y-26890477D01*
X30114572Y-26890477D02*
X30114572Y-27052382D01*
X30114572Y-27052382D02*
X30155049Y-27133334D01*
X30155049Y-27133334D02*
X30195525Y-27173811D01*
X30195525Y-27173811D02*
X30276477Y-27214287D01*
X30276477Y-27214287D02*
X30519334Y-27214287D01*
X30519334Y-27214287D02*
X30600287Y-27173811D01*
X30600287Y-27173811D02*
X30640763Y-27133334D01*
X30640763Y-27133334D02*
X30681239Y-27052382D01*
X30681239Y-27052382D02*
X30681239Y-26890477D01*
X30681239Y-26890477D02*
X30640763Y-26809525D01*
X30681239Y-26566668D02*
X30681239Y-26242859D01*
X30964572Y-26445240D02*
X30236001Y-26445240D01*
X30236001Y-26445240D02*
X30155049Y-26404763D01*
X30155049Y-26404763D02*
X30114572Y-26323811D01*
X30114572Y-26323811D02*
X30114572Y-26242859D01*
X30114572Y-25959526D02*
X30681239Y-25959526D01*
X30519334Y-25959526D02*
X30600287Y-25919049D01*
X30600287Y-25919049D02*
X30640763Y-25878573D01*
X30640763Y-25878573D02*
X30681239Y-25797621D01*
X30681239Y-25797621D02*
X30681239Y-25716668D01*
X30681239Y-25069050D02*
X30114572Y-25069050D01*
X30681239Y-25433336D02*
X30236001Y-25433336D01*
X30236001Y-25433336D02*
X30155049Y-25392859D01*
X30155049Y-25392859D02*
X30114572Y-25311907D01*
X30114572Y-25311907D02*
X30114572Y-25190478D01*
X30114572Y-25190478D02*
X30155049Y-25109526D01*
X30155049Y-25109526D02*
X30195525Y-25069050D01*
X30114572Y-24664288D02*
X30681239Y-24664288D01*
X30600287Y-24664288D02*
X30640763Y-24623811D01*
X30640763Y-24623811D02*
X30681239Y-24542859D01*
X30681239Y-24542859D02*
X30681239Y-24421430D01*
X30681239Y-24421430D02*
X30640763Y-24340478D01*
X30640763Y-24340478D02*
X30559810Y-24300002D01*
X30559810Y-24300002D02*
X30114572Y-24300002D01*
X30559810Y-24300002D02*
X30640763Y-24259526D01*
X30640763Y-24259526D02*
X30681239Y-24178573D01*
X30681239Y-24178573D02*
X30681239Y-24057145D01*
X30681239Y-24057145D02*
X30640763Y-23976192D01*
X30640763Y-23976192D02*
X30559810Y-23935716D01*
X30559810Y-23935716D02*
X30114572Y-23935716D01*
X30195525Y-23530955D02*
X30155049Y-23490478D01*
X30155049Y-23490478D02*
X30114572Y-23530955D01*
X30114572Y-23530955D02*
X30155049Y-23571431D01*
X30155049Y-23571431D02*
X30195525Y-23530955D01*
X30195525Y-23530955D02*
X30114572Y-23530955D01*
X30640763Y-23530955D02*
X30600287Y-23490478D01*
X30600287Y-23490478D02*
X30559810Y-23530955D01*
X30559810Y-23530955D02*
X30600287Y-23571431D01*
X30600287Y-23571431D02*
X30640763Y-23530955D01*
X30640763Y-23530955D02*
X30559810Y-23530955D01*
X30114572Y-22357145D02*
X30155049Y-22438097D01*
X30155049Y-22438097D02*
X30195525Y-22478574D01*
X30195525Y-22478574D02*
X30276477Y-22519050D01*
X30276477Y-22519050D02*
X30519334Y-22519050D01*
X30519334Y-22519050D02*
X30600287Y-22478574D01*
X30600287Y-22478574D02*
X30640763Y-22438097D01*
X30640763Y-22438097D02*
X30681239Y-22357145D01*
X30681239Y-22357145D02*
X30681239Y-22235716D01*
X30681239Y-22235716D02*
X30640763Y-22154764D01*
X30640763Y-22154764D02*
X30600287Y-22114288D01*
X30600287Y-22114288D02*
X30519334Y-22073812D01*
X30519334Y-22073812D02*
X30276477Y-22073812D01*
X30276477Y-22073812D02*
X30195525Y-22114288D01*
X30195525Y-22114288D02*
X30155049Y-22154764D01*
X30155049Y-22154764D02*
X30114572Y-22235716D01*
X30114572Y-22235716D02*
X30114572Y-22357145D01*
X30681239Y-21061907D02*
X29831239Y-21061907D01*
X30640763Y-21061907D02*
X30681239Y-20980954D01*
X30681239Y-20980954D02*
X30681239Y-20819049D01*
X30681239Y-20819049D02*
X30640763Y-20738097D01*
X30640763Y-20738097D02*
X30600287Y-20697621D01*
X30600287Y-20697621D02*
X30519334Y-20657145D01*
X30519334Y-20657145D02*
X30276477Y-20657145D01*
X30276477Y-20657145D02*
X30195525Y-20697621D01*
X30195525Y-20697621D02*
X30155049Y-20738097D01*
X30155049Y-20738097D02*
X30114572Y-20819049D01*
X30114572Y-20819049D02*
X30114572Y-20980954D01*
X30114572Y-20980954D02*
X30155049Y-21061907D01*
X30114572Y-20292859D02*
X30681239Y-20292859D01*
X30964572Y-20292859D02*
X30924096Y-20333335D01*
X30924096Y-20333335D02*
X30883620Y-20292859D01*
X30883620Y-20292859D02*
X30924096Y-20252382D01*
X30924096Y-20252382D02*
X30964572Y-20292859D01*
X30964572Y-20292859D02*
X30883620Y-20292859D01*
X30681239Y-19888097D02*
X30114572Y-19888097D01*
X30600287Y-19888097D02*
X30640763Y-19847620D01*
X30640763Y-19847620D02*
X30681239Y-19766668D01*
X30681239Y-19766668D02*
X30681239Y-19645239D01*
X30681239Y-19645239D02*
X30640763Y-19564287D01*
X30640763Y-19564287D02*
X30559810Y-19523811D01*
X30559810Y-19523811D02*
X30114572Y-19523811D01*
X30114572Y-18997620D02*
X30155049Y-19078572D01*
X30155049Y-19078572D02*
X30195525Y-19119049D01*
X30195525Y-19119049D02*
X30276477Y-19159525D01*
X30276477Y-19159525D02*
X30519334Y-19159525D01*
X30519334Y-19159525D02*
X30600287Y-19119049D01*
X30600287Y-19119049D02*
X30640763Y-19078572D01*
X30640763Y-19078572D02*
X30681239Y-18997620D01*
X30681239Y-18997620D02*
X30681239Y-18876191D01*
X30681239Y-18876191D02*
X30640763Y-18795239D01*
X30640763Y-18795239D02*
X30600287Y-18754763D01*
X30600287Y-18754763D02*
X30519334Y-18714287D01*
X30519334Y-18714287D02*
X30276477Y-18714287D01*
X30276477Y-18714287D02*
X30195525Y-18754763D01*
X30195525Y-18754763D02*
X30155049Y-18795239D01*
X30155049Y-18795239D02*
X30114572Y-18876191D01*
X30114572Y-18876191D02*
X30114572Y-18997620D01*
X30114572Y-17257143D02*
X30114572Y-17742858D01*
X30114572Y-17500001D02*
X30964572Y-17500001D01*
X30964572Y-17500001D02*
X30843144Y-17580953D01*
X30843144Y-17580953D02*
X30762191Y-17661905D01*
X30762191Y-17661905D02*
X30721715Y-17742858D01*
X30964572Y-16973810D02*
X30964572Y-16407143D01*
X30964572Y-16407143D02*
X30114572Y-16771429D01*
X30114572Y-15314286D02*
X30155049Y-15395238D01*
X30155049Y-15395238D02*
X30236001Y-15435715D01*
X30236001Y-15435715D02*
X30964572Y-15435715D01*
X30114572Y-14626191D02*
X30559810Y-14626191D01*
X30559810Y-14626191D02*
X30640763Y-14666667D01*
X30640763Y-14666667D02*
X30681239Y-14747619D01*
X30681239Y-14747619D02*
X30681239Y-14909524D01*
X30681239Y-14909524D02*
X30640763Y-14990477D01*
X30155049Y-14626191D02*
X30114572Y-14707143D01*
X30114572Y-14707143D02*
X30114572Y-14909524D01*
X30114572Y-14909524D02*
X30155049Y-14990477D01*
X30155049Y-14990477D02*
X30236001Y-15030953D01*
X30236001Y-15030953D02*
X30316953Y-15030953D01*
X30316953Y-15030953D02*
X30397906Y-14990477D01*
X30397906Y-14990477D02*
X30438382Y-14909524D01*
X30438382Y-14909524D02*
X30438382Y-14707143D01*
X30438382Y-14707143D02*
X30478858Y-14626191D01*
X31005049Y-14747619D02*
X30883620Y-14869048D01*
X30155049Y-13250000D02*
X30114572Y-13330952D01*
X30114572Y-13330952D02*
X30114572Y-13492857D01*
X30114572Y-13492857D02*
X30155049Y-13573810D01*
X30155049Y-13573810D02*
X30236001Y-13614286D01*
X30236001Y-13614286D02*
X30559810Y-13614286D01*
X30559810Y-13614286D02*
X30640763Y-13573810D01*
X30640763Y-13573810D02*
X30681239Y-13492857D01*
X30681239Y-13492857D02*
X30681239Y-13330952D01*
X30681239Y-13330952D02*
X30640763Y-13250000D01*
X30640763Y-13250000D02*
X30559810Y-13209524D01*
X30559810Y-13209524D02*
X30478858Y-13209524D01*
X30478858Y-13209524D02*
X30397906Y-13614286D01*
X31005049Y-13330952D02*
X30883620Y-13452381D01*
X30114572Y-12076191D02*
X30155049Y-12157143D01*
X30155049Y-12157143D02*
X30195525Y-12197620D01*
X30195525Y-12197620D02*
X30276477Y-12238096D01*
X30276477Y-12238096D02*
X30519334Y-12238096D01*
X30519334Y-12238096D02*
X30600287Y-12197620D01*
X30600287Y-12197620D02*
X30640763Y-12157143D01*
X30640763Y-12157143D02*
X30681239Y-12076191D01*
X30681239Y-12076191D02*
X30681239Y-11954762D01*
X30681239Y-11954762D02*
X30640763Y-11873810D01*
X30640763Y-11873810D02*
X30600287Y-11833334D01*
X30600287Y-11833334D02*
X30519334Y-11792858D01*
X30519334Y-11792858D02*
X30276477Y-11792858D01*
X30276477Y-11792858D02*
X30195525Y-11833334D01*
X30195525Y-11833334D02*
X30155049Y-11873810D01*
X30155049Y-11873810D02*
X30114572Y-11954762D01*
X30114572Y-11954762D02*
X30114572Y-12076191D01*
X30964572Y-10902381D02*
X30114572Y-10619048D01*
X30114572Y-10619048D02*
X30964572Y-10335714D01*
X30114572Y-9040477D02*
X30964572Y-9040477D01*
X30155049Y-9040477D02*
X30114572Y-9121429D01*
X30114572Y-9121429D02*
X30114572Y-9283334D01*
X30114572Y-9283334D02*
X30155049Y-9364286D01*
X30155049Y-9364286D02*
X30195525Y-9404763D01*
X30195525Y-9404763D02*
X30276477Y-9445239D01*
X30276477Y-9445239D02*
X30519334Y-9445239D01*
X30519334Y-9445239D02*
X30600287Y-9404763D01*
X30600287Y-9404763D02*
X30640763Y-9364286D01*
X30640763Y-9364286D02*
X30681239Y-9283334D01*
X30681239Y-9283334D02*
X30681239Y-9121429D01*
X30681239Y-9121429D02*
X30640763Y-9040477D01*
X30114572Y-8514286D02*
X30155049Y-8595238D01*
X30155049Y-8595238D02*
X30195525Y-8635715D01*
X30195525Y-8635715D02*
X30276477Y-8676191D01*
X30276477Y-8676191D02*
X30519334Y-8676191D01*
X30519334Y-8676191D02*
X30600287Y-8635715D01*
X30600287Y-8635715D02*
X30640763Y-8595238D01*
X30640763Y-8595238D02*
X30681239Y-8514286D01*
X30681239Y-8514286D02*
X30681239Y-8392857D01*
X30681239Y-8392857D02*
X30640763Y-8311905D01*
X30640763Y-8311905D02*
X30600287Y-8271429D01*
X30600287Y-8271429D02*
X30519334Y-8230953D01*
X30519334Y-8230953D02*
X30276477Y-8230953D01*
X30276477Y-8230953D02*
X30195525Y-8271429D01*
X30195525Y-8271429D02*
X30155049Y-8311905D01*
X30155049Y-8311905D02*
X30114572Y-8392857D01*
X30114572Y-8392857D02*
X30114572Y-8514286D01*
X30681239Y-7300000D02*
X30114572Y-7097619D01*
X30114572Y-7097619D02*
X30681239Y-6895238D01*
X30114572Y-6571429D02*
X30681239Y-6571429D01*
X31005049Y-6490476D02*
X30883620Y-6611905D01*
X30114572Y-5802381D02*
X30964572Y-5802381D01*
X30155049Y-5802381D02*
X30114572Y-5883333D01*
X30114572Y-5883333D02*
X30114572Y-6045238D01*
X30114572Y-6045238D02*
X30155049Y-6126190D01*
X30155049Y-6126190D02*
X30195525Y-6166667D01*
X30195525Y-6166667D02*
X30276477Y-6207143D01*
X30276477Y-6207143D02*
X30519334Y-6207143D01*
X30519334Y-6207143D02*
X30600287Y-6166667D01*
X30600287Y-6166667D02*
X30640763Y-6126190D01*
X30640763Y-6126190D02*
X30681239Y-6045238D01*
X30681239Y-6045238D02*
X30681239Y-5883333D01*
X30681239Y-5883333D02*
X30640763Y-5802381D01*
X30155049Y-5073809D02*
X30114572Y-5154761D01*
X30114572Y-5154761D02*
X30114572Y-5316666D01*
X30114572Y-5316666D02*
X30155049Y-5397619D01*
X30155049Y-5397619D02*
X30236001Y-5438095D01*
X30236001Y-5438095D02*
X30559810Y-5438095D01*
X30559810Y-5438095D02*
X30640763Y-5397619D01*
X30640763Y-5397619D02*
X30681239Y-5316666D01*
X30681239Y-5316666D02*
X30681239Y-5154761D01*
X30681239Y-5154761D02*
X30640763Y-5073809D01*
X30640763Y-5073809D02*
X30559810Y-5033333D01*
X30559810Y-5033333D02*
X30478858Y-5033333D01*
X30478858Y-5033333D02*
X30397906Y-5438095D01*
X30114572Y-4547619D02*
X30155049Y-4628571D01*
X30155049Y-4628571D02*
X30195525Y-4669048D01*
X30195525Y-4669048D02*
X30276477Y-4709524D01*
X30276477Y-4709524D02*
X30519334Y-4709524D01*
X30519334Y-4709524D02*
X30600287Y-4669048D01*
X30600287Y-4669048D02*
X30640763Y-4628571D01*
X30640763Y-4628571D02*
X30681239Y-4547619D01*
X30681239Y-4547619D02*
X30681239Y-4426190D01*
X30681239Y-4426190D02*
X30640763Y-4345238D01*
X30640763Y-4345238D02*
X30600287Y-4304762D01*
X30600287Y-4304762D02*
X30519334Y-4264286D01*
X30519334Y-4264286D02*
X30276477Y-4264286D01*
X30276477Y-4264286D02*
X30195525Y-4304762D01*
X30195525Y-4304762D02*
X30155049Y-4345238D01*
X30155049Y-4345238D02*
X30114572Y-4426190D01*
X30114572Y-4426190D02*
X30114572Y-4547619D01*
X10634300Y-44328571D02*
X10591442Y-44200000D01*
X10591442Y-44200000D02*
X10591442Y-43985714D01*
X10591442Y-43985714D02*
X10634300Y-43900000D01*
X10634300Y-43900000D02*
X10677157Y-43857142D01*
X10677157Y-43857142D02*
X10762871Y-43814285D01*
X10762871Y-43814285D02*
X10848585Y-43814285D01*
X10848585Y-43814285D02*
X10934300Y-43857142D01*
X10934300Y-43857142D02*
X10977157Y-43900000D01*
X10977157Y-43900000D02*
X11020014Y-43985714D01*
X11020014Y-43985714D02*
X11062871Y-44157142D01*
X11062871Y-44157142D02*
X11105728Y-44242857D01*
X11105728Y-44242857D02*
X11148585Y-44285714D01*
X11148585Y-44285714D02*
X11234300Y-44328571D01*
X11234300Y-44328571D02*
X11320014Y-44328571D01*
X11320014Y-44328571D02*
X11405728Y-44285714D01*
X11405728Y-44285714D02*
X11448585Y-44242857D01*
X11448585Y-44242857D02*
X11491442Y-44157142D01*
X11491442Y-44157142D02*
X11491442Y-43942857D01*
X11491442Y-43942857D02*
X11448585Y-43814285D01*
X11491442Y-43171428D02*
X10848585Y-43171428D01*
X10848585Y-43171428D02*
X10720014Y-43214285D01*
X10720014Y-43214285D02*
X10634300Y-43299999D01*
X10634300Y-43299999D02*
X10591442Y-43428571D01*
X10591442Y-43428571D02*
X10591442Y-43514285D01*
X11405728Y-42785714D02*
X11448585Y-42742857D01*
X11448585Y-42742857D02*
X11491442Y-42657143D01*
X11491442Y-42657143D02*
X11491442Y-42442857D01*
X11491442Y-42442857D02*
X11448585Y-42357143D01*
X11448585Y-42357143D02*
X11405728Y-42314285D01*
X11405728Y-42314285D02*
X11320014Y-42271428D01*
X11320014Y-42271428D02*
X11234300Y-42271428D01*
X11234300Y-42271428D02*
X11105728Y-42314285D01*
X11105728Y-42314285D02*
X10591442Y-42828571D01*
X10591442Y-42828571D02*
X10591442Y-42271428D01*
X11191442Y-40642857D02*
X11191442Y-40300000D01*
X10591442Y-40514286D02*
X11362871Y-40514286D01*
X11362871Y-40514286D02*
X11448585Y-40471429D01*
X11448585Y-40471429D02*
X11491442Y-40385714D01*
X11491442Y-40385714D02*
X11491442Y-40300000D01*
X10634300Y-39657143D02*
X10591442Y-39742857D01*
X10591442Y-39742857D02*
X10591442Y-39914286D01*
X10591442Y-39914286D02*
X10634300Y-40000000D01*
X10634300Y-40000000D02*
X10720014Y-40042857D01*
X10720014Y-40042857D02*
X11062871Y-40042857D01*
X11062871Y-40042857D02*
X11148585Y-40000000D01*
X11148585Y-40000000D02*
X11191442Y-39914286D01*
X11191442Y-39914286D02*
X11191442Y-39742857D01*
X11191442Y-39742857D02*
X11148585Y-39657143D01*
X11148585Y-39657143D02*
X11062871Y-39614286D01*
X11062871Y-39614286D02*
X10977157Y-39614286D01*
X10977157Y-39614286D02*
X10891442Y-40042857D01*
X10634300Y-38842857D02*
X10591442Y-38928571D01*
X10591442Y-38928571D02*
X10591442Y-39099999D01*
X10591442Y-39099999D02*
X10634300Y-39185714D01*
X10634300Y-39185714D02*
X10677157Y-39228571D01*
X10677157Y-39228571D02*
X10762871Y-39271428D01*
X10762871Y-39271428D02*
X11020014Y-39271428D01*
X11020014Y-39271428D02*
X11105728Y-39228571D01*
X11105728Y-39228571D02*
X11148585Y-39185714D01*
X11148585Y-39185714D02*
X11191442Y-39099999D01*
X11191442Y-39099999D02*
X11191442Y-38928571D01*
X11191442Y-38928571D02*
X11148585Y-38842857D01*
X10591442Y-38457142D02*
X11491442Y-38457142D01*
X10591442Y-38071428D02*
X11062871Y-38071428D01*
X11062871Y-38071428D02*
X11148585Y-38114285D01*
X11148585Y-38114285D02*
X11191442Y-38199999D01*
X11191442Y-38199999D02*
X11191442Y-38328570D01*
X11191442Y-38328570D02*
X11148585Y-38414285D01*
X11148585Y-38414285D02*
X11105728Y-38457142D01*
X10591442Y-37257142D02*
X11062871Y-37257142D01*
X11062871Y-37257142D02*
X11148585Y-37299999D01*
X11148585Y-37299999D02*
X11191442Y-37385713D01*
X11191442Y-37385713D02*
X11191442Y-37557142D01*
X11191442Y-37557142D02*
X11148585Y-37642856D01*
X10634300Y-37257142D02*
X10591442Y-37342856D01*
X10591442Y-37342856D02*
X10591442Y-37557142D01*
X10591442Y-37557142D02*
X10634300Y-37642856D01*
X10634300Y-37642856D02*
X10720014Y-37685713D01*
X10720014Y-37685713D02*
X10805728Y-37685713D01*
X10805728Y-37685713D02*
X10891442Y-37642856D01*
X10891442Y-37642856D02*
X10934300Y-37557142D01*
X10934300Y-37557142D02*
X10934300Y-37342856D01*
X10934300Y-37342856D02*
X10977157Y-37257142D01*
X10591442Y-36828570D02*
X11191442Y-36828570D01*
X11020014Y-36828570D02*
X11105728Y-36785713D01*
X11105728Y-36785713D02*
X11148585Y-36742856D01*
X11148585Y-36742856D02*
X11191442Y-36657141D01*
X11191442Y-36657141D02*
X11191442Y-36571427D01*
X10634300Y-35628570D02*
X10591442Y-35499999D01*
X10591442Y-35499999D02*
X10591442Y-35285713D01*
X10591442Y-35285713D02*
X10634300Y-35199999D01*
X10634300Y-35199999D02*
X10677157Y-35157141D01*
X10677157Y-35157141D02*
X10762871Y-35114284D01*
X10762871Y-35114284D02*
X10848585Y-35114284D01*
X10848585Y-35114284D02*
X10934300Y-35157141D01*
X10934300Y-35157141D02*
X10977157Y-35199999D01*
X10977157Y-35199999D02*
X11020014Y-35285713D01*
X11020014Y-35285713D02*
X11062871Y-35457141D01*
X11062871Y-35457141D02*
X11105728Y-35542856D01*
X11105728Y-35542856D02*
X11148585Y-35585713D01*
X11148585Y-35585713D02*
X11234300Y-35628570D01*
X11234300Y-35628570D02*
X11320014Y-35628570D01*
X11320014Y-35628570D02*
X11405728Y-35585713D01*
X11405728Y-35585713D02*
X11448585Y-35542856D01*
X11448585Y-35542856D02*
X11491442Y-35457141D01*
X11491442Y-35457141D02*
X11491442Y-35242856D01*
X11491442Y-35242856D02*
X11448585Y-35114284D01*
X11491442Y-34557141D02*
X11491442Y-34385713D01*
X11491442Y-34385713D02*
X11448585Y-34299998D01*
X11448585Y-34299998D02*
X11362871Y-34214284D01*
X11362871Y-34214284D02*
X11191442Y-34171427D01*
X11191442Y-34171427D02*
X10891442Y-34171427D01*
X10891442Y-34171427D02*
X10720014Y-34214284D01*
X10720014Y-34214284D02*
X10634300Y-34299998D01*
X10634300Y-34299998D02*
X10591442Y-34385713D01*
X10591442Y-34385713D02*
X10591442Y-34557141D01*
X10591442Y-34557141D02*
X10634300Y-34642856D01*
X10634300Y-34642856D02*
X10720014Y-34728570D01*
X10720014Y-34728570D02*
X10891442Y-34771427D01*
X10891442Y-34771427D02*
X11191442Y-34771427D01*
X11191442Y-34771427D02*
X11362871Y-34728570D01*
X11362871Y-34728570D02*
X11448585Y-34642856D01*
X11448585Y-34642856D02*
X11491442Y-34557141D01*
X11834300Y-34385713D02*
X11705728Y-34514284D01*
X10634300Y-32757142D02*
X10591442Y-32842856D01*
X10591442Y-32842856D02*
X10591442Y-33014285D01*
X10591442Y-33014285D02*
X10634300Y-33099999D01*
X10634300Y-33099999D02*
X10720014Y-33142856D01*
X10720014Y-33142856D02*
X11062871Y-33142856D01*
X11062871Y-33142856D02*
X11148585Y-33099999D01*
X11148585Y-33099999D02*
X11191442Y-33014285D01*
X11191442Y-33014285D02*
X11191442Y-32842856D01*
X11191442Y-32842856D02*
X11148585Y-32757142D01*
X11148585Y-32757142D02*
X11062871Y-32714285D01*
X11062871Y-32714285D02*
X10977157Y-32714285D01*
X10977157Y-32714285D02*
X10891442Y-33142856D01*
X10591442Y-32328570D02*
X11191442Y-32328570D01*
X11105728Y-32328570D02*
X11148585Y-32285713D01*
X11148585Y-32285713D02*
X11191442Y-32199998D01*
X11191442Y-32199998D02*
X11191442Y-32071427D01*
X11191442Y-32071427D02*
X11148585Y-31985713D01*
X11148585Y-31985713D02*
X11062871Y-31942856D01*
X11062871Y-31942856D02*
X10591442Y-31942856D01*
X11062871Y-31942856D02*
X11148585Y-31899998D01*
X11148585Y-31899998D02*
X11191442Y-31814284D01*
X11191442Y-31814284D02*
X11191442Y-31685713D01*
X11191442Y-31685713D02*
X11148585Y-31599998D01*
X11148585Y-31599998D02*
X11062871Y-31557141D01*
X11062871Y-31557141D02*
X10591442Y-31557141D01*
X11491442Y-30571427D02*
X11491442Y-30057142D01*
X10591442Y-30314284D02*
X11491442Y-30314284D01*
X10591442Y-29757142D02*
X11491442Y-29757142D01*
X10591442Y-29242856D02*
X11105728Y-29628570D01*
X11491442Y-29242856D02*
X10977157Y-29757142D01*
X10591442Y-28814285D02*
X10591442Y-28642856D01*
X10591442Y-28642856D02*
X10634300Y-28557142D01*
X10634300Y-28557142D02*
X10677157Y-28514285D01*
X10677157Y-28514285D02*
X10805728Y-28428570D01*
X10805728Y-28428570D02*
X10977157Y-28385713D01*
X10977157Y-28385713D02*
X11320014Y-28385713D01*
X11320014Y-28385713D02*
X11405728Y-28428570D01*
X11405728Y-28428570D02*
X11448585Y-28471428D01*
X11448585Y-28471428D02*
X11491442Y-28557142D01*
X11491442Y-28557142D02*
X11491442Y-28728570D01*
X11491442Y-28728570D02*
X11448585Y-28814285D01*
X11448585Y-28814285D02*
X11405728Y-28857142D01*
X11405728Y-28857142D02*
X11320014Y-28899999D01*
X11320014Y-28899999D02*
X11105728Y-28899999D01*
X11105728Y-28899999D02*
X11020014Y-28857142D01*
X11020014Y-28857142D02*
X10977157Y-28814285D01*
X10977157Y-28814285D02*
X10934300Y-28728570D01*
X10934300Y-28728570D02*
X10934300Y-28557142D01*
X10934300Y-28557142D02*
X10977157Y-28471428D01*
X10977157Y-28471428D02*
X11020014Y-28428570D01*
X11020014Y-28428570D02*
X11105728Y-28385713D01*
X11491442Y-27828570D02*
X11491442Y-27742856D01*
X11491442Y-27742856D02*
X11448585Y-27657142D01*
X11448585Y-27657142D02*
X11405728Y-27614285D01*
X11405728Y-27614285D02*
X11320014Y-27571427D01*
X11320014Y-27571427D02*
X11148585Y-27528570D01*
X11148585Y-27528570D02*
X10934300Y-27528570D01*
X10934300Y-27528570D02*
X10762871Y-27571427D01*
X10762871Y-27571427D02*
X10677157Y-27614285D01*
X10677157Y-27614285D02*
X10634300Y-27657142D01*
X10634300Y-27657142D02*
X10591442Y-27742856D01*
X10591442Y-27742856D02*
X10591442Y-27828570D01*
X10591442Y-27828570D02*
X10634300Y-27914285D01*
X10634300Y-27914285D02*
X10677157Y-27957142D01*
X10677157Y-27957142D02*
X10762871Y-27999999D01*
X10762871Y-27999999D02*
X10934300Y-28042856D01*
X10934300Y-28042856D02*
X11148585Y-28042856D01*
X11148585Y-28042856D02*
X11320014Y-27999999D01*
X11320014Y-27999999D02*
X11405728Y-27957142D01*
X11405728Y-27957142D02*
X11448585Y-27914285D01*
X11448585Y-27914285D02*
X11491442Y-27828570D01*
X11491442Y-27228570D02*
X10591442Y-26628570D01*
X11491442Y-26628570D02*
X10591442Y-27228570D01*
X11534300Y-25642856D02*
X10377157Y-26414284D01*
X11491442Y-25471427D02*
X11491442Y-24957142D01*
X10591442Y-25214284D02*
X11491442Y-25214284D01*
X10591442Y-24657142D02*
X11491442Y-24657142D01*
X10591442Y-24142856D02*
X11105728Y-24528570D01*
X11491442Y-24142856D02*
X10977157Y-24657142D01*
X10591442Y-23714285D02*
X10591442Y-23542856D01*
X10591442Y-23542856D02*
X10634300Y-23457142D01*
X10634300Y-23457142D02*
X10677157Y-23414285D01*
X10677157Y-23414285D02*
X10805728Y-23328570D01*
X10805728Y-23328570D02*
X10977157Y-23285713D01*
X10977157Y-23285713D02*
X11320014Y-23285713D01*
X11320014Y-23285713D02*
X11405728Y-23328570D01*
X11405728Y-23328570D02*
X11448585Y-23371428D01*
X11448585Y-23371428D02*
X11491442Y-23457142D01*
X11491442Y-23457142D02*
X11491442Y-23628570D01*
X11491442Y-23628570D02*
X11448585Y-23714285D01*
X11448585Y-23714285D02*
X11405728Y-23757142D01*
X11405728Y-23757142D02*
X11320014Y-23799999D01*
X11320014Y-23799999D02*
X11105728Y-23799999D01*
X11105728Y-23799999D02*
X11020014Y-23757142D01*
X11020014Y-23757142D02*
X10977157Y-23714285D01*
X10977157Y-23714285D02*
X10934300Y-23628570D01*
X10934300Y-23628570D02*
X10934300Y-23457142D01*
X10934300Y-23457142D02*
X10977157Y-23371428D01*
X10977157Y-23371428D02*
X11020014Y-23328570D01*
X11020014Y-23328570D02*
X11105728Y-23285713D01*
X11491442Y-22471427D02*
X11491442Y-22899999D01*
X11491442Y-22899999D02*
X11062871Y-22942856D01*
X11062871Y-22942856D02*
X11105728Y-22899999D01*
X11105728Y-22899999D02*
X11148585Y-22814285D01*
X11148585Y-22814285D02*
X11148585Y-22599999D01*
X11148585Y-22599999D02*
X11105728Y-22514285D01*
X11105728Y-22514285D02*
X11062871Y-22471427D01*
X11062871Y-22471427D02*
X10977157Y-22428570D01*
X10977157Y-22428570D02*
X10762871Y-22428570D01*
X10762871Y-22428570D02*
X10677157Y-22471427D01*
X10677157Y-22471427D02*
X10634300Y-22514285D01*
X10634300Y-22514285D02*
X10591442Y-22599999D01*
X10591442Y-22599999D02*
X10591442Y-22814285D01*
X10591442Y-22814285D02*
X10634300Y-22899999D01*
X10634300Y-22899999D02*
X10677157Y-22942856D01*
X10248585Y-21099999D02*
X10291442Y-21142856D01*
X10291442Y-21142856D02*
X10420014Y-21228570D01*
X10420014Y-21228570D02*
X10505728Y-21271428D01*
X10505728Y-21271428D02*
X10634300Y-21314285D01*
X10634300Y-21314285D02*
X10848585Y-21357142D01*
X10848585Y-21357142D02*
X11020014Y-21357142D01*
X11020014Y-21357142D02*
X11234300Y-21314285D01*
X11234300Y-21314285D02*
X11362871Y-21271428D01*
X11362871Y-21271428D02*
X11448585Y-21228570D01*
X11448585Y-21228570D02*
X11577157Y-21142856D01*
X11577157Y-21142856D02*
X11620014Y-21099999D01*
X11191442Y-20757142D02*
X10291442Y-20757142D01*
X11148585Y-20757142D02*
X11191442Y-20671428D01*
X11191442Y-20671428D02*
X11191442Y-20499999D01*
X11191442Y-20499999D02*
X11148585Y-20414285D01*
X11148585Y-20414285D02*
X11105728Y-20371428D01*
X11105728Y-20371428D02*
X11020014Y-20328570D01*
X11020014Y-20328570D02*
X10762871Y-20328570D01*
X10762871Y-20328570D02*
X10677157Y-20371428D01*
X10677157Y-20371428D02*
X10634300Y-20414285D01*
X10634300Y-20414285D02*
X10591442Y-20499999D01*
X10591442Y-20499999D02*
X10591442Y-20671428D01*
X10591442Y-20671428D02*
X10634300Y-20757142D01*
X10591442Y-19942856D02*
X11191442Y-19942856D01*
X11491442Y-19942856D02*
X11448585Y-19985713D01*
X11448585Y-19985713D02*
X11405728Y-19942856D01*
X11405728Y-19942856D02*
X11448585Y-19899999D01*
X11448585Y-19899999D02*
X11491442Y-19942856D01*
X11491442Y-19942856D02*
X11405728Y-19942856D01*
X11191442Y-19514285D02*
X10591442Y-19514285D01*
X11105728Y-19514285D02*
X11148585Y-19471428D01*
X11148585Y-19471428D02*
X11191442Y-19385713D01*
X11191442Y-19385713D02*
X11191442Y-19257142D01*
X11191442Y-19257142D02*
X11148585Y-19171428D01*
X11148585Y-19171428D02*
X11062871Y-19128571D01*
X11062871Y-19128571D02*
X10591442Y-19128571D01*
X10591442Y-18571427D02*
X10634300Y-18657142D01*
X10634300Y-18657142D02*
X10677157Y-18699999D01*
X10677157Y-18699999D02*
X10762871Y-18742856D01*
X10762871Y-18742856D02*
X11020014Y-18742856D01*
X11020014Y-18742856D02*
X11105728Y-18699999D01*
X11105728Y-18699999D02*
X11148585Y-18657142D01*
X11148585Y-18657142D02*
X11191442Y-18571427D01*
X11191442Y-18571427D02*
X11191442Y-18442856D01*
X11191442Y-18442856D02*
X11148585Y-18357142D01*
X11148585Y-18357142D02*
X11105728Y-18314285D01*
X11105728Y-18314285D02*
X11020014Y-18271427D01*
X11020014Y-18271427D02*
X10762871Y-18271427D01*
X10762871Y-18271427D02*
X10677157Y-18314285D01*
X10677157Y-18314285D02*
X10634300Y-18357142D01*
X10634300Y-18357142D02*
X10591442Y-18442856D01*
X10591442Y-18442856D02*
X10591442Y-18571427D01*
X10591442Y-16728570D02*
X10591442Y-17242856D01*
X10591442Y-16985713D02*
X11491442Y-16985713D01*
X11491442Y-16985713D02*
X11362871Y-17071427D01*
X11362871Y-17071427D02*
X11277157Y-17157142D01*
X11277157Y-17157142D02*
X11234300Y-17242856D01*
X11491442Y-15914284D02*
X11491442Y-16342856D01*
X11491442Y-16342856D02*
X11062871Y-16385713D01*
X11062871Y-16385713D02*
X11105728Y-16342856D01*
X11105728Y-16342856D02*
X11148585Y-16257142D01*
X11148585Y-16257142D02*
X11148585Y-16042856D01*
X11148585Y-16042856D02*
X11105728Y-15957142D01*
X11105728Y-15957142D02*
X11062871Y-15914284D01*
X11062871Y-15914284D02*
X10977157Y-15871427D01*
X10977157Y-15871427D02*
X10762871Y-15871427D01*
X10762871Y-15871427D02*
X10677157Y-15914284D01*
X10677157Y-15914284D02*
X10634300Y-15957142D01*
X10634300Y-15957142D02*
X10591442Y-16042856D01*
X10591442Y-16042856D02*
X10591442Y-16257142D01*
X10591442Y-16257142D02*
X10634300Y-16342856D01*
X10634300Y-16342856D02*
X10677157Y-16385713D01*
X11062871Y-14799999D02*
X11062871Y-14114285D01*
X10805728Y-14114285D02*
X10805728Y-14799999D01*
X11448585Y-12528570D02*
X11491442Y-12614285D01*
X11491442Y-12614285D02*
X11491442Y-12742856D01*
X11491442Y-12742856D02*
X11448585Y-12871427D01*
X11448585Y-12871427D02*
X11362871Y-12957142D01*
X11362871Y-12957142D02*
X11277157Y-12999999D01*
X11277157Y-12999999D02*
X11105728Y-13042856D01*
X11105728Y-13042856D02*
X10977157Y-13042856D01*
X10977157Y-13042856D02*
X10805728Y-12999999D01*
X10805728Y-12999999D02*
X10720014Y-12957142D01*
X10720014Y-12957142D02*
X10634300Y-12871427D01*
X10634300Y-12871427D02*
X10591442Y-12742856D01*
X10591442Y-12742856D02*
X10591442Y-12657142D01*
X10591442Y-12657142D02*
X10634300Y-12528570D01*
X10634300Y-12528570D02*
X10677157Y-12485713D01*
X10677157Y-12485713D02*
X10977157Y-12485713D01*
X10977157Y-12485713D02*
X10977157Y-12657142D01*
X10591442Y-12099999D02*
X11491442Y-12099999D01*
X11491442Y-12099999D02*
X10591442Y-11585713D01*
X10591442Y-11585713D02*
X11491442Y-11585713D01*
X10591442Y-11157142D02*
X11491442Y-11157142D01*
X11491442Y-11157142D02*
X11491442Y-10942856D01*
X11491442Y-10942856D02*
X11448585Y-10814285D01*
X11448585Y-10814285D02*
X11362871Y-10728570D01*
X11362871Y-10728570D02*
X11277157Y-10685713D01*
X11277157Y-10685713D02*
X11105728Y-10642856D01*
X11105728Y-10642856D02*
X10977157Y-10642856D01*
X10977157Y-10642856D02*
X10805728Y-10685713D01*
X10805728Y-10685713D02*
X10720014Y-10728570D01*
X10720014Y-10728570D02*
X10634300Y-10814285D01*
X10634300Y-10814285D02*
X10591442Y-10942856D01*
X10591442Y-10942856D02*
X10591442Y-11157142D01*
X10591442Y-9442856D02*
X10634300Y-9528571D01*
X10634300Y-9528571D02*
X10720014Y-9571428D01*
X10720014Y-9571428D02*
X11491442Y-9571428D01*
X10591442Y-8714285D02*
X11062871Y-8714285D01*
X11062871Y-8714285D02*
X11148585Y-8757142D01*
X11148585Y-8757142D02*
X11191442Y-8842856D01*
X11191442Y-8842856D02*
X11191442Y-9014285D01*
X11191442Y-9014285D02*
X11148585Y-9099999D01*
X10634300Y-8714285D02*
X10591442Y-8799999D01*
X10591442Y-8799999D02*
X10591442Y-9014285D01*
X10591442Y-9014285D02*
X10634300Y-9099999D01*
X10634300Y-9099999D02*
X10720014Y-9142856D01*
X10720014Y-9142856D02*
X10805728Y-9142856D01*
X10805728Y-9142856D02*
X10891442Y-9099999D01*
X10891442Y-9099999D02*
X10934300Y-9014285D01*
X10934300Y-9014285D02*
X10934300Y-8799999D01*
X10934300Y-8799999D02*
X10977157Y-8714285D01*
X11534300Y-8842856D02*
X11405728Y-8971427D01*
X10248585Y-8371427D02*
X10291442Y-8328570D01*
X10291442Y-8328570D02*
X10420014Y-8242856D01*
X10420014Y-8242856D02*
X10505728Y-8199999D01*
X10505728Y-8199999D02*
X10634300Y-8157141D01*
X10634300Y-8157141D02*
X10848585Y-8114284D01*
X10848585Y-8114284D02*
X11020014Y-8114284D01*
X11020014Y-8114284D02*
X11234300Y-8157141D01*
X11234300Y-8157141D02*
X11362871Y-8199999D01*
X11362871Y-8199999D02*
X11448585Y-8242856D01*
X11448585Y-8242856D02*
X11577157Y-8328570D01*
X11577157Y-8328570D02*
X11620014Y-8371427D01*
X13134300Y-44350001D02*
X13091442Y-44221430D01*
X13091442Y-44221430D02*
X13091442Y-44007144D01*
X13091442Y-44007144D02*
X13134300Y-43921430D01*
X13134300Y-43921430D02*
X13177157Y-43878572D01*
X13177157Y-43878572D02*
X13262871Y-43835715D01*
X13262871Y-43835715D02*
X13348585Y-43835715D01*
X13348585Y-43835715D02*
X13434300Y-43878572D01*
X13434300Y-43878572D02*
X13477157Y-43921430D01*
X13477157Y-43921430D02*
X13520014Y-44007144D01*
X13520014Y-44007144D02*
X13562871Y-44178572D01*
X13562871Y-44178572D02*
X13605728Y-44264287D01*
X13605728Y-44264287D02*
X13648585Y-44307144D01*
X13648585Y-44307144D02*
X13734300Y-44350001D01*
X13734300Y-44350001D02*
X13820014Y-44350001D01*
X13820014Y-44350001D02*
X13905728Y-44307144D01*
X13905728Y-44307144D02*
X13948585Y-44264287D01*
X13948585Y-44264287D02*
X13991442Y-44178572D01*
X13991442Y-44178572D02*
X13991442Y-43964287D01*
X13991442Y-43964287D02*
X13948585Y-43835715D01*
X13991442Y-43192858D02*
X13348585Y-43192858D01*
X13348585Y-43192858D02*
X13220014Y-43235715D01*
X13220014Y-43235715D02*
X13134300Y-43321429D01*
X13134300Y-43321429D02*
X13091442Y-43450001D01*
X13091442Y-43450001D02*
X13091442Y-43535715D01*
X13091442Y-42292858D02*
X13091442Y-42807144D01*
X13091442Y-42550001D02*
X13991442Y-42550001D01*
X13991442Y-42550001D02*
X13862871Y-42635715D01*
X13862871Y-42635715D02*
X13777157Y-42721430D01*
X13777157Y-42721430D02*
X13734300Y-42807144D01*
X13691442Y-40664287D02*
X13691442Y-40321430D01*
X13091442Y-40535716D02*
X13862871Y-40535716D01*
X13862871Y-40535716D02*
X13948585Y-40492859D01*
X13948585Y-40492859D02*
X13991442Y-40407144D01*
X13991442Y-40407144D02*
X13991442Y-40321430D01*
X13134300Y-39678573D02*
X13091442Y-39764287D01*
X13091442Y-39764287D02*
X13091442Y-39935716D01*
X13091442Y-39935716D02*
X13134300Y-40021430D01*
X13134300Y-40021430D02*
X13220014Y-40064287D01*
X13220014Y-40064287D02*
X13562871Y-40064287D01*
X13562871Y-40064287D02*
X13648585Y-40021430D01*
X13648585Y-40021430D02*
X13691442Y-39935716D01*
X13691442Y-39935716D02*
X13691442Y-39764287D01*
X13691442Y-39764287D02*
X13648585Y-39678573D01*
X13648585Y-39678573D02*
X13562871Y-39635716D01*
X13562871Y-39635716D02*
X13477157Y-39635716D01*
X13477157Y-39635716D02*
X13391442Y-40064287D01*
X13134300Y-38864287D02*
X13091442Y-38950001D01*
X13091442Y-38950001D02*
X13091442Y-39121429D01*
X13091442Y-39121429D02*
X13134300Y-39207144D01*
X13134300Y-39207144D02*
X13177157Y-39250001D01*
X13177157Y-39250001D02*
X13262871Y-39292858D01*
X13262871Y-39292858D02*
X13520014Y-39292858D01*
X13520014Y-39292858D02*
X13605728Y-39250001D01*
X13605728Y-39250001D02*
X13648585Y-39207144D01*
X13648585Y-39207144D02*
X13691442Y-39121429D01*
X13691442Y-39121429D02*
X13691442Y-38950001D01*
X13691442Y-38950001D02*
X13648585Y-38864287D01*
X13091442Y-38478572D02*
X13991442Y-38478572D01*
X13091442Y-38092858D02*
X13562871Y-38092858D01*
X13562871Y-38092858D02*
X13648585Y-38135715D01*
X13648585Y-38135715D02*
X13691442Y-38221429D01*
X13691442Y-38221429D02*
X13691442Y-38350000D01*
X13691442Y-38350000D02*
X13648585Y-38435715D01*
X13648585Y-38435715D02*
X13605728Y-38478572D01*
X13091442Y-37278572D02*
X13562871Y-37278572D01*
X13562871Y-37278572D02*
X13648585Y-37321429D01*
X13648585Y-37321429D02*
X13691442Y-37407143D01*
X13691442Y-37407143D02*
X13691442Y-37578572D01*
X13691442Y-37578572D02*
X13648585Y-37664286D01*
X13134300Y-37278572D02*
X13091442Y-37364286D01*
X13091442Y-37364286D02*
X13091442Y-37578572D01*
X13091442Y-37578572D02*
X13134300Y-37664286D01*
X13134300Y-37664286D02*
X13220014Y-37707143D01*
X13220014Y-37707143D02*
X13305728Y-37707143D01*
X13305728Y-37707143D02*
X13391442Y-37664286D01*
X13391442Y-37664286D02*
X13434300Y-37578572D01*
X13434300Y-37578572D02*
X13434300Y-37364286D01*
X13434300Y-37364286D02*
X13477157Y-37278572D01*
X13091442Y-36850000D02*
X13691442Y-36850000D01*
X13520014Y-36850000D02*
X13605728Y-36807143D01*
X13605728Y-36807143D02*
X13648585Y-36764286D01*
X13648585Y-36764286D02*
X13691442Y-36678571D01*
X13691442Y-36678571D02*
X13691442Y-36592857D01*
X13134300Y-35650000D02*
X13091442Y-35521429D01*
X13091442Y-35521429D02*
X13091442Y-35307143D01*
X13091442Y-35307143D02*
X13134300Y-35221429D01*
X13134300Y-35221429D02*
X13177157Y-35178571D01*
X13177157Y-35178571D02*
X13262871Y-35135714D01*
X13262871Y-35135714D02*
X13348585Y-35135714D01*
X13348585Y-35135714D02*
X13434300Y-35178571D01*
X13434300Y-35178571D02*
X13477157Y-35221429D01*
X13477157Y-35221429D02*
X13520014Y-35307143D01*
X13520014Y-35307143D02*
X13562871Y-35478571D01*
X13562871Y-35478571D02*
X13605728Y-35564286D01*
X13605728Y-35564286D02*
X13648585Y-35607143D01*
X13648585Y-35607143D02*
X13734300Y-35650000D01*
X13734300Y-35650000D02*
X13820014Y-35650000D01*
X13820014Y-35650000D02*
X13905728Y-35607143D01*
X13905728Y-35607143D02*
X13948585Y-35564286D01*
X13948585Y-35564286D02*
X13991442Y-35478571D01*
X13991442Y-35478571D02*
X13991442Y-35264286D01*
X13991442Y-35264286D02*
X13948585Y-35135714D01*
X13991442Y-34578571D02*
X13991442Y-34407143D01*
X13991442Y-34407143D02*
X13948585Y-34321428D01*
X13948585Y-34321428D02*
X13862871Y-34235714D01*
X13862871Y-34235714D02*
X13691442Y-34192857D01*
X13691442Y-34192857D02*
X13391442Y-34192857D01*
X13391442Y-34192857D02*
X13220014Y-34235714D01*
X13220014Y-34235714D02*
X13134300Y-34321428D01*
X13134300Y-34321428D02*
X13091442Y-34407143D01*
X13091442Y-34407143D02*
X13091442Y-34578571D01*
X13091442Y-34578571D02*
X13134300Y-34664286D01*
X13134300Y-34664286D02*
X13220014Y-34750000D01*
X13220014Y-34750000D02*
X13391442Y-34792857D01*
X13391442Y-34792857D02*
X13691442Y-34792857D01*
X13691442Y-34792857D02*
X13862871Y-34750000D01*
X13862871Y-34750000D02*
X13948585Y-34664286D01*
X13948585Y-34664286D02*
X13991442Y-34578571D01*
X14334300Y-34407143D02*
X14205728Y-34535714D01*
X13134300Y-32778572D02*
X13091442Y-32864286D01*
X13091442Y-32864286D02*
X13091442Y-33035715D01*
X13091442Y-33035715D02*
X13134300Y-33121429D01*
X13134300Y-33121429D02*
X13220014Y-33164286D01*
X13220014Y-33164286D02*
X13562871Y-33164286D01*
X13562871Y-33164286D02*
X13648585Y-33121429D01*
X13648585Y-33121429D02*
X13691442Y-33035715D01*
X13691442Y-33035715D02*
X13691442Y-32864286D01*
X13691442Y-32864286D02*
X13648585Y-32778572D01*
X13648585Y-32778572D02*
X13562871Y-32735715D01*
X13562871Y-32735715D02*
X13477157Y-32735715D01*
X13477157Y-32735715D02*
X13391442Y-33164286D01*
X13091442Y-32350000D02*
X13691442Y-32350000D01*
X13605728Y-32350000D02*
X13648585Y-32307143D01*
X13648585Y-32307143D02*
X13691442Y-32221428D01*
X13691442Y-32221428D02*
X13691442Y-32092857D01*
X13691442Y-32092857D02*
X13648585Y-32007143D01*
X13648585Y-32007143D02*
X13562871Y-31964286D01*
X13562871Y-31964286D02*
X13091442Y-31964286D01*
X13562871Y-31964286D02*
X13648585Y-31921428D01*
X13648585Y-31921428D02*
X13691442Y-31835714D01*
X13691442Y-31835714D02*
X13691442Y-31707143D01*
X13691442Y-31707143D02*
X13648585Y-31621428D01*
X13648585Y-31621428D02*
X13562871Y-31578571D01*
X13562871Y-31578571D02*
X13091442Y-31578571D01*
X13991442Y-30550000D02*
X13991442Y-29950000D01*
X13991442Y-29950000D02*
X13091442Y-30550000D01*
X13091442Y-30550000D02*
X13091442Y-29950000D01*
X13991442Y-29692857D02*
X13091442Y-29092857D01*
X13991442Y-29092857D02*
X13091442Y-29692857D01*
X13134300Y-28107143D02*
X13091442Y-27978572D01*
X13091442Y-27978572D02*
X13091442Y-27764286D01*
X13091442Y-27764286D02*
X13134300Y-27678572D01*
X13134300Y-27678572D02*
X13177157Y-27635714D01*
X13177157Y-27635714D02*
X13262871Y-27592857D01*
X13262871Y-27592857D02*
X13348585Y-27592857D01*
X13348585Y-27592857D02*
X13434300Y-27635714D01*
X13434300Y-27635714D02*
X13477157Y-27678572D01*
X13477157Y-27678572D02*
X13520014Y-27764286D01*
X13520014Y-27764286D02*
X13562871Y-27935714D01*
X13562871Y-27935714D02*
X13605728Y-28021429D01*
X13605728Y-28021429D02*
X13648585Y-28064286D01*
X13648585Y-28064286D02*
X13734300Y-28107143D01*
X13734300Y-28107143D02*
X13820014Y-28107143D01*
X13820014Y-28107143D02*
X13905728Y-28064286D01*
X13905728Y-28064286D02*
X13948585Y-28021429D01*
X13948585Y-28021429D02*
X13991442Y-27935714D01*
X13991442Y-27935714D02*
X13991442Y-27721429D01*
X13991442Y-27721429D02*
X13948585Y-27592857D01*
X13691442Y-27207143D02*
X12791442Y-27207143D01*
X13648585Y-27207143D02*
X13691442Y-27121429D01*
X13691442Y-27121429D02*
X13691442Y-26950000D01*
X13691442Y-26950000D02*
X13648585Y-26864286D01*
X13648585Y-26864286D02*
X13605728Y-26821429D01*
X13605728Y-26821429D02*
X13520014Y-26778571D01*
X13520014Y-26778571D02*
X13262871Y-26778571D01*
X13262871Y-26778571D02*
X13177157Y-26821429D01*
X13177157Y-26821429D02*
X13134300Y-26864286D01*
X13134300Y-26864286D02*
X13091442Y-26950000D01*
X13091442Y-26950000D02*
X13091442Y-27121429D01*
X13091442Y-27121429D02*
X13134300Y-27207143D01*
X13134300Y-26050000D02*
X13091442Y-26135714D01*
X13091442Y-26135714D02*
X13091442Y-26307143D01*
X13091442Y-26307143D02*
X13134300Y-26392857D01*
X13134300Y-26392857D02*
X13220014Y-26435714D01*
X13220014Y-26435714D02*
X13562871Y-26435714D01*
X13562871Y-26435714D02*
X13648585Y-26392857D01*
X13648585Y-26392857D02*
X13691442Y-26307143D01*
X13691442Y-26307143D02*
X13691442Y-26135714D01*
X13691442Y-26135714D02*
X13648585Y-26050000D01*
X13648585Y-26050000D02*
X13562871Y-26007143D01*
X13562871Y-26007143D02*
X13477157Y-26007143D01*
X13477157Y-26007143D02*
X13391442Y-26435714D01*
X13134300Y-25235714D02*
X13091442Y-25321428D01*
X13091442Y-25321428D02*
X13091442Y-25492856D01*
X13091442Y-25492856D02*
X13134300Y-25578571D01*
X13134300Y-25578571D02*
X13177157Y-25621428D01*
X13177157Y-25621428D02*
X13262871Y-25664285D01*
X13262871Y-25664285D02*
X13520014Y-25664285D01*
X13520014Y-25664285D02*
X13605728Y-25621428D01*
X13605728Y-25621428D02*
X13648585Y-25578571D01*
X13648585Y-25578571D02*
X13691442Y-25492856D01*
X13691442Y-25492856D02*
X13691442Y-25321428D01*
X13691442Y-25321428D02*
X13648585Y-25235714D01*
X13691442Y-24978570D02*
X13691442Y-24635713D01*
X13991442Y-24849999D02*
X13220014Y-24849999D01*
X13220014Y-24849999D02*
X13134300Y-24807142D01*
X13134300Y-24807142D02*
X13091442Y-24721427D01*
X13091442Y-24721427D02*
X13091442Y-24635713D01*
X13091442Y-24335713D02*
X13691442Y-24335713D01*
X13520014Y-24335713D02*
X13605728Y-24292856D01*
X13605728Y-24292856D02*
X13648585Y-24249999D01*
X13648585Y-24249999D02*
X13691442Y-24164284D01*
X13691442Y-24164284D02*
X13691442Y-24078570D01*
X13691442Y-23392856D02*
X13091442Y-23392856D01*
X13691442Y-23778570D02*
X13220014Y-23778570D01*
X13220014Y-23778570D02*
X13134300Y-23735713D01*
X13134300Y-23735713D02*
X13091442Y-23649998D01*
X13091442Y-23649998D02*
X13091442Y-23521427D01*
X13091442Y-23521427D02*
X13134300Y-23435713D01*
X13134300Y-23435713D02*
X13177157Y-23392856D01*
X13091442Y-22964284D02*
X13691442Y-22964284D01*
X13605728Y-22964284D02*
X13648585Y-22921427D01*
X13648585Y-22921427D02*
X13691442Y-22835712D01*
X13691442Y-22835712D02*
X13691442Y-22707141D01*
X13691442Y-22707141D02*
X13648585Y-22621427D01*
X13648585Y-22621427D02*
X13562871Y-22578570D01*
X13562871Y-22578570D02*
X13091442Y-22578570D01*
X13562871Y-22578570D02*
X13648585Y-22535712D01*
X13648585Y-22535712D02*
X13691442Y-22449998D01*
X13691442Y-22449998D02*
X13691442Y-22321427D01*
X13691442Y-22321427D02*
X13648585Y-22235712D01*
X13648585Y-22235712D02*
X13562871Y-22192855D01*
X13562871Y-22192855D02*
X13091442Y-22192855D01*
X12748585Y-20821427D02*
X12791442Y-20864284D01*
X12791442Y-20864284D02*
X12920014Y-20949998D01*
X12920014Y-20949998D02*
X13005728Y-20992856D01*
X13005728Y-20992856D02*
X13134300Y-21035713D01*
X13134300Y-21035713D02*
X13348585Y-21078570D01*
X13348585Y-21078570D02*
X13520014Y-21078570D01*
X13520014Y-21078570D02*
X13734300Y-21035713D01*
X13734300Y-21035713D02*
X13862871Y-20992856D01*
X13862871Y-20992856D02*
X13948585Y-20949998D01*
X13948585Y-20949998D02*
X14077157Y-20864284D01*
X14077157Y-20864284D02*
X14120014Y-20821427D01*
X13691442Y-20478570D02*
X12791442Y-20478570D01*
X13648585Y-20478570D02*
X13691442Y-20392856D01*
X13691442Y-20392856D02*
X13691442Y-20221427D01*
X13691442Y-20221427D02*
X13648585Y-20135713D01*
X13648585Y-20135713D02*
X13605728Y-20092856D01*
X13605728Y-20092856D02*
X13520014Y-20049998D01*
X13520014Y-20049998D02*
X13262871Y-20049998D01*
X13262871Y-20049998D02*
X13177157Y-20092856D01*
X13177157Y-20092856D02*
X13134300Y-20135713D01*
X13134300Y-20135713D02*
X13091442Y-20221427D01*
X13091442Y-20221427D02*
X13091442Y-20392856D01*
X13091442Y-20392856D02*
X13134300Y-20478570D01*
X13091442Y-19664284D02*
X13691442Y-19664284D01*
X13991442Y-19664284D02*
X13948585Y-19707141D01*
X13948585Y-19707141D02*
X13905728Y-19664284D01*
X13905728Y-19664284D02*
X13948585Y-19621427D01*
X13948585Y-19621427D02*
X13991442Y-19664284D01*
X13991442Y-19664284D02*
X13905728Y-19664284D01*
X13691442Y-19235713D02*
X13091442Y-19235713D01*
X13605728Y-19235713D02*
X13648585Y-19192856D01*
X13648585Y-19192856D02*
X13691442Y-19107141D01*
X13691442Y-19107141D02*
X13691442Y-18978570D01*
X13691442Y-18978570D02*
X13648585Y-18892856D01*
X13648585Y-18892856D02*
X13562871Y-18849999D01*
X13562871Y-18849999D02*
X13091442Y-18849999D01*
X13091442Y-18292855D02*
X13134300Y-18378570D01*
X13134300Y-18378570D02*
X13177157Y-18421427D01*
X13177157Y-18421427D02*
X13262871Y-18464284D01*
X13262871Y-18464284D02*
X13520014Y-18464284D01*
X13520014Y-18464284D02*
X13605728Y-18421427D01*
X13605728Y-18421427D02*
X13648585Y-18378570D01*
X13648585Y-18378570D02*
X13691442Y-18292855D01*
X13691442Y-18292855D02*
X13691442Y-18164284D01*
X13691442Y-18164284D02*
X13648585Y-18078570D01*
X13648585Y-18078570D02*
X13605728Y-18035713D01*
X13605728Y-18035713D02*
X13520014Y-17992855D01*
X13520014Y-17992855D02*
X13262871Y-17992855D01*
X13262871Y-17992855D02*
X13177157Y-18035713D01*
X13177157Y-18035713D02*
X13134300Y-18078570D01*
X13134300Y-18078570D02*
X13091442Y-18164284D01*
X13091442Y-18164284D02*
X13091442Y-18292855D01*
X13991442Y-17007141D02*
X13991442Y-16407141D01*
X13991442Y-16407141D02*
X13091442Y-16792855D01*
X13562871Y-15378570D02*
X13562871Y-14692856D01*
X13305728Y-14692856D02*
X13305728Y-15378570D01*
X13948585Y-13107141D02*
X13991442Y-13192856D01*
X13991442Y-13192856D02*
X13991442Y-13321427D01*
X13991442Y-13321427D02*
X13948585Y-13449998D01*
X13948585Y-13449998D02*
X13862871Y-13535713D01*
X13862871Y-13535713D02*
X13777157Y-13578570D01*
X13777157Y-13578570D02*
X13605728Y-13621427D01*
X13605728Y-13621427D02*
X13477157Y-13621427D01*
X13477157Y-13621427D02*
X13305728Y-13578570D01*
X13305728Y-13578570D02*
X13220014Y-13535713D01*
X13220014Y-13535713D02*
X13134300Y-13449998D01*
X13134300Y-13449998D02*
X13091442Y-13321427D01*
X13091442Y-13321427D02*
X13091442Y-13235713D01*
X13091442Y-13235713D02*
X13134300Y-13107141D01*
X13134300Y-13107141D02*
X13177157Y-13064284D01*
X13177157Y-13064284D02*
X13477157Y-13064284D01*
X13477157Y-13064284D02*
X13477157Y-13235713D01*
X13091442Y-12678570D02*
X13991442Y-12678570D01*
X13991442Y-12678570D02*
X13091442Y-12164284D01*
X13091442Y-12164284D02*
X13991442Y-12164284D01*
X13091442Y-11735713D02*
X13991442Y-11735713D01*
X13991442Y-11735713D02*
X13991442Y-11521427D01*
X13991442Y-11521427D02*
X13948585Y-11392856D01*
X13948585Y-11392856D02*
X13862871Y-11307141D01*
X13862871Y-11307141D02*
X13777157Y-11264284D01*
X13777157Y-11264284D02*
X13605728Y-11221427D01*
X13605728Y-11221427D02*
X13477157Y-11221427D01*
X13477157Y-11221427D02*
X13305728Y-11264284D01*
X13305728Y-11264284D02*
X13220014Y-11307141D01*
X13220014Y-11307141D02*
X13134300Y-11392856D01*
X13134300Y-11392856D02*
X13091442Y-11521427D01*
X13091442Y-11521427D02*
X13091442Y-11735713D01*
X13091442Y-10021427D02*
X13134300Y-10107142D01*
X13134300Y-10107142D02*
X13220014Y-10149999D01*
X13220014Y-10149999D02*
X13991442Y-10149999D01*
X13091442Y-9292856D02*
X13562871Y-9292856D01*
X13562871Y-9292856D02*
X13648585Y-9335713D01*
X13648585Y-9335713D02*
X13691442Y-9421427D01*
X13691442Y-9421427D02*
X13691442Y-9592856D01*
X13691442Y-9592856D02*
X13648585Y-9678570D01*
X13134300Y-9292856D02*
X13091442Y-9378570D01*
X13091442Y-9378570D02*
X13091442Y-9592856D01*
X13091442Y-9592856D02*
X13134300Y-9678570D01*
X13134300Y-9678570D02*
X13220014Y-9721427D01*
X13220014Y-9721427D02*
X13305728Y-9721427D01*
X13305728Y-9721427D02*
X13391442Y-9678570D01*
X13391442Y-9678570D02*
X13434300Y-9592856D01*
X13434300Y-9592856D02*
X13434300Y-9378570D01*
X13434300Y-9378570D02*
X13477157Y-9292856D01*
X14034300Y-9421427D02*
X13905728Y-9549998D01*
X12748585Y-8949998D02*
X12791442Y-8907141D01*
X12791442Y-8907141D02*
X12920014Y-8821427D01*
X12920014Y-8821427D02*
X13005728Y-8778570D01*
X13005728Y-8778570D02*
X13134300Y-8735712D01*
X13134300Y-8735712D02*
X13348585Y-8692855D01*
X13348585Y-8692855D02*
X13520014Y-8692855D01*
X13520014Y-8692855D02*
X13734300Y-8735712D01*
X13734300Y-8735712D02*
X13862871Y-8778570D01*
X13862871Y-8778570D02*
X13948585Y-8821427D01*
X13948585Y-8821427D02*
X14077157Y-8907141D01*
X14077157Y-8907141D02*
X14120014Y-8949998D01*
X15634300Y-44264287D02*
X15591442Y-44135716D01*
X15591442Y-44135716D02*
X15591442Y-43921430D01*
X15591442Y-43921430D02*
X15634300Y-43835716D01*
X15634300Y-43835716D02*
X15677157Y-43792858D01*
X15677157Y-43792858D02*
X15762871Y-43750001D01*
X15762871Y-43750001D02*
X15848585Y-43750001D01*
X15848585Y-43750001D02*
X15934300Y-43792858D01*
X15934300Y-43792858D02*
X15977157Y-43835716D01*
X15977157Y-43835716D02*
X16020014Y-43921430D01*
X16020014Y-43921430D02*
X16062871Y-44092858D01*
X16062871Y-44092858D02*
X16105728Y-44178573D01*
X16105728Y-44178573D02*
X16148585Y-44221430D01*
X16148585Y-44221430D02*
X16234300Y-44264287D01*
X16234300Y-44264287D02*
X16320014Y-44264287D01*
X16320014Y-44264287D02*
X16405728Y-44221430D01*
X16405728Y-44221430D02*
X16448585Y-44178573D01*
X16448585Y-44178573D02*
X16491442Y-44092858D01*
X16491442Y-44092858D02*
X16491442Y-43878573D01*
X16491442Y-43878573D02*
X16448585Y-43750001D01*
X16491442Y-43107144D02*
X15848585Y-43107144D01*
X15848585Y-43107144D02*
X15720014Y-43150001D01*
X15720014Y-43150001D02*
X15634300Y-43235715D01*
X15634300Y-43235715D02*
X15591442Y-43364287D01*
X15591442Y-43364287D02*
X15591442Y-43450001D01*
X15591442Y-42207144D02*
X15591442Y-42721430D01*
X15591442Y-42464287D02*
X16491442Y-42464287D01*
X16491442Y-42464287D02*
X16362871Y-42550001D01*
X16362871Y-42550001D02*
X16277157Y-42635716D01*
X16277157Y-42635716D02*
X16234300Y-42721430D01*
X15634300Y-40792859D02*
X15591442Y-40878573D01*
X15591442Y-40878573D02*
X15591442Y-41050002D01*
X15591442Y-41050002D02*
X15634300Y-41135716D01*
X15634300Y-41135716D02*
X15720014Y-41178573D01*
X15720014Y-41178573D02*
X16062871Y-41178573D01*
X16062871Y-41178573D02*
X16148585Y-41135716D01*
X16148585Y-41135716D02*
X16191442Y-41050002D01*
X16191442Y-41050002D02*
X16191442Y-40878573D01*
X16191442Y-40878573D02*
X16148585Y-40792859D01*
X16148585Y-40792859D02*
X16062871Y-40750002D01*
X16062871Y-40750002D02*
X15977157Y-40750002D01*
X15977157Y-40750002D02*
X15891442Y-41178573D01*
X15634300Y-39721430D02*
X15591442Y-39592859D01*
X15591442Y-39592859D02*
X15591442Y-39378573D01*
X15591442Y-39378573D02*
X15634300Y-39292859D01*
X15634300Y-39292859D02*
X15677157Y-39250001D01*
X15677157Y-39250001D02*
X15762871Y-39207144D01*
X15762871Y-39207144D02*
X15848585Y-39207144D01*
X15848585Y-39207144D02*
X15934300Y-39250001D01*
X15934300Y-39250001D02*
X15977157Y-39292859D01*
X15977157Y-39292859D02*
X16020014Y-39378573D01*
X16020014Y-39378573D02*
X16062871Y-39550001D01*
X16062871Y-39550001D02*
X16105728Y-39635716D01*
X16105728Y-39635716D02*
X16148585Y-39678573D01*
X16148585Y-39678573D02*
X16234300Y-39721430D01*
X16234300Y-39721430D02*
X16320014Y-39721430D01*
X16320014Y-39721430D02*
X16405728Y-39678573D01*
X16405728Y-39678573D02*
X16448585Y-39635716D01*
X16448585Y-39635716D02*
X16491442Y-39550001D01*
X16491442Y-39550001D02*
X16491442Y-39335716D01*
X16491442Y-39335716D02*
X16448585Y-39207144D01*
X16491442Y-38564287D02*
X15848585Y-38564287D01*
X15848585Y-38564287D02*
X15720014Y-38607144D01*
X15720014Y-38607144D02*
X15634300Y-38692858D01*
X15634300Y-38692858D02*
X15591442Y-38821430D01*
X15591442Y-38821430D02*
X15591442Y-38907144D01*
X16405728Y-38178573D02*
X16448585Y-38135716D01*
X16448585Y-38135716D02*
X16491442Y-38050002D01*
X16491442Y-38050002D02*
X16491442Y-37835716D01*
X16491442Y-37835716D02*
X16448585Y-37750002D01*
X16448585Y-37750002D02*
X16405728Y-37707144D01*
X16405728Y-37707144D02*
X16320014Y-37664287D01*
X16320014Y-37664287D02*
X16234300Y-37664287D01*
X16234300Y-37664287D02*
X16105728Y-37707144D01*
X16105728Y-37707144D02*
X15591442Y-38221430D01*
X15591442Y-38221430D02*
X15591442Y-37664287D01*
X15634300Y-36635716D02*
X15591442Y-36550002D01*
X15591442Y-36550002D02*
X15591442Y-36378573D01*
X15591442Y-36378573D02*
X15634300Y-36292859D01*
X15634300Y-36292859D02*
X15720014Y-36250002D01*
X15720014Y-36250002D02*
X15762871Y-36250002D01*
X15762871Y-36250002D02*
X15848585Y-36292859D01*
X15848585Y-36292859D02*
X15891442Y-36378573D01*
X15891442Y-36378573D02*
X15891442Y-36507145D01*
X15891442Y-36507145D02*
X15934300Y-36592859D01*
X15934300Y-36592859D02*
X16020014Y-36635716D01*
X16020014Y-36635716D02*
X16062871Y-36635716D01*
X16062871Y-36635716D02*
X16148585Y-36592859D01*
X16148585Y-36592859D02*
X16191442Y-36507145D01*
X16191442Y-36507145D02*
X16191442Y-36378573D01*
X16191442Y-36378573D02*
X16148585Y-36292859D01*
X15591442Y-35478574D02*
X16062871Y-35478574D01*
X16062871Y-35478574D02*
X16148585Y-35521431D01*
X16148585Y-35521431D02*
X16191442Y-35607145D01*
X16191442Y-35607145D02*
X16191442Y-35778574D01*
X16191442Y-35778574D02*
X16148585Y-35864288D01*
X15634300Y-35478574D02*
X15591442Y-35564288D01*
X15591442Y-35564288D02*
X15591442Y-35778574D01*
X15591442Y-35778574D02*
X15634300Y-35864288D01*
X15634300Y-35864288D02*
X15720014Y-35907145D01*
X15720014Y-35907145D02*
X15805728Y-35907145D01*
X15805728Y-35907145D02*
X15891442Y-35864288D01*
X15891442Y-35864288D02*
X15934300Y-35778574D01*
X15934300Y-35778574D02*
X15934300Y-35564288D01*
X15934300Y-35564288D02*
X15977157Y-35478574D01*
X16405728Y-35907145D02*
X16448585Y-35864288D01*
X16448585Y-35864288D02*
X16491442Y-35778574D01*
X16491442Y-35778574D02*
X16405728Y-35607145D01*
X16405728Y-35607145D02*
X16448585Y-35521431D01*
X16448585Y-35521431D02*
X16491442Y-35478574D01*
X15591442Y-34921430D02*
X15634300Y-35007145D01*
X15634300Y-35007145D02*
X15677157Y-35050002D01*
X15677157Y-35050002D02*
X15762871Y-35092859D01*
X15762871Y-35092859D02*
X16020014Y-35092859D01*
X16020014Y-35092859D02*
X16105728Y-35050002D01*
X16105728Y-35050002D02*
X16148585Y-35007145D01*
X16148585Y-35007145D02*
X16191442Y-34921430D01*
X16191442Y-34921430D02*
X16191442Y-34792859D01*
X16191442Y-34792859D02*
X16148585Y-34707145D01*
X16148585Y-34707145D02*
X16105728Y-34664288D01*
X16105728Y-34664288D02*
X16020014Y-34621430D01*
X16020014Y-34621430D02*
X15762871Y-34621430D01*
X15762871Y-34621430D02*
X15677157Y-34664288D01*
X15677157Y-34664288D02*
X15634300Y-34707145D01*
X15634300Y-34707145D02*
X15591442Y-34792859D01*
X15591442Y-34792859D02*
X15591442Y-34921430D01*
X16191442Y-33678573D02*
X16191442Y-33335716D01*
X16491442Y-33550002D02*
X15720014Y-33550002D01*
X15720014Y-33550002D02*
X15634300Y-33507145D01*
X15634300Y-33507145D02*
X15591442Y-33421430D01*
X15591442Y-33421430D02*
X15591442Y-33335716D01*
X15634300Y-32692859D02*
X15591442Y-32778573D01*
X15591442Y-32778573D02*
X15591442Y-32950002D01*
X15591442Y-32950002D02*
X15634300Y-33035716D01*
X15634300Y-33035716D02*
X15720014Y-33078573D01*
X15720014Y-33078573D02*
X16062871Y-33078573D01*
X16062871Y-33078573D02*
X16148585Y-33035716D01*
X16148585Y-33035716D02*
X16191442Y-32950002D01*
X16191442Y-32950002D02*
X16191442Y-32778573D01*
X16191442Y-32778573D02*
X16148585Y-32692859D01*
X16148585Y-32692859D02*
X16062871Y-32650002D01*
X16062871Y-32650002D02*
X15977157Y-32650002D01*
X15977157Y-32650002D02*
X15891442Y-33078573D01*
X15591442Y-32264287D02*
X16191442Y-32264287D01*
X16020014Y-32264287D02*
X16105728Y-32221430D01*
X16105728Y-32221430D02*
X16148585Y-32178573D01*
X16148585Y-32178573D02*
X16191442Y-32092858D01*
X16191442Y-32092858D02*
X16191442Y-32007144D01*
X15591442Y-31707144D02*
X16191442Y-31707144D01*
X16020014Y-31707144D02*
X16105728Y-31664287D01*
X16105728Y-31664287D02*
X16148585Y-31621430D01*
X16148585Y-31621430D02*
X16191442Y-31535715D01*
X16191442Y-31535715D02*
X16191442Y-31450001D01*
X15591442Y-30764287D02*
X16062871Y-30764287D01*
X16062871Y-30764287D02*
X16148585Y-30807144D01*
X16148585Y-30807144D02*
X16191442Y-30892858D01*
X16191442Y-30892858D02*
X16191442Y-31064287D01*
X16191442Y-31064287D02*
X16148585Y-31150001D01*
X15634300Y-30764287D02*
X15591442Y-30850001D01*
X15591442Y-30850001D02*
X15591442Y-31064287D01*
X15591442Y-31064287D02*
X15634300Y-31150001D01*
X15634300Y-31150001D02*
X15720014Y-31192858D01*
X15720014Y-31192858D02*
X15805728Y-31192858D01*
X15805728Y-31192858D02*
X15891442Y-31150001D01*
X15891442Y-31150001D02*
X15934300Y-31064287D01*
X15934300Y-31064287D02*
X15934300Y-30850001D01*
X15934300Y-30850001D02*
X15977157Y-30764287D01*
X15634300Y-29307144D02*
X15591442Y-29392858D01*
X15591442Y-29392858D02*
X15591442Y-29564287D01*
X15591442Y-29564287D02*
X15634300Y-29650001D01*
X15634300Y-29650001D02*
X15720014Y-29692858D01*
X15720014Y-29692858D02*
X16062871Y-29692858D01*
X16062871Y-29692858D02*
X16148585Y-29650001D01*
X16148585Y-29650001D02*
X16191442Y-29564287D01*
X16191442Y-29564287D02*
X16191442Y-29392858D01*
X16191442Y-29392858D02*
X16148585Y-29307144D01*
X16148585Y-29307144D02*
X16062871Y-29264287D01*
X16062871Y-29264287D02*
X15977157Y-29264287D01*
X15977157Y-29264287D02*
X15891442Y-29692858D01*
X15591442Y-28964286D02*
X16191442Y-28492858D01*
X16191442Y-28964286D02*
X15591442Y-28492858D01*
X16191442Y-28278572D02*
X16191442Y-27935715D01*
X16491442Y-28150001D02*
X15720014Y-28150001D01*
X15720014Y-28150001D02*
X15634300Y-28107144D01*
X15634300Y-28107144D02*
X15591442Y-28021429D01*
X15591442Y-28021429D02*
X15591442Y-27935715D01*
X15591442Y-27635715D02*
X16191442Y-27635715D01*
X16020014Y-27635715D02*
X16105728Y-27592858D01*
X16105728Y-27592858D02*
X16148585Y-27550001D01*
X16148585Y-27550001D02*
X16191442Y-27464286D01*
X16191442Y-27464286D02*
X16191442Y-27378572D01*
X15591442Y-26692858D02*
X16062871Y-26692858D01*
X16062871Y-26692858D02*
X16148585Y-26735715D01*
X16148585Y-26735715D02*
X16191442Y-26821429D01*
X16191442Y-26821429D02*
X16191442Y-26992858D01*
X16191442Y-26992858D02*
X16148585Y-27078572D01*
X15634300Y-26692858D02*
X15591442Y-26778572D01*
X15591442Y-26778572D02*
X15591442Y-26992858D01*
X15591442Y-26992858D02*
X15634300Y-27078572D01*
X15634300Y-27078572D02*
X15720014Y-27121429D01*
X15720014Y-27121429D02*
X15805728Y-27121429D01*
X15805728Y-27121429D02*
X15891442Y-27078572D01*
X15891442Y-27078572D02*
X15934300Y-26992858D01*
X15934300Y-26992858D02*
X15934300Y-26778572D01*
X15934300Y-26778572D02*
X15977157Y-26692858D01*
X15634300Y-26221429D02*
X15591442Y-26221429D01*
X15591442Y-26221429D02*
X15505728Y-26264286D01*
X15505728Y-26264286D02*
X15462871Y-26307143D01*
X15591442Y-25021429D02*
X15634300Y-25107144D01*
X15634300Y-25107144D02*
X15677157Y-25150001D01*
X15677157Y-25150001D02*
X15762871Y-25192858D01*
X15762871Y-25192858D02*
X16020014Y-25192858D01*
X16020014Y-25192858D02*
X16105728Y-25150001D01*
X16105728Y-25150001D02*
X16148585Y-25107144D01*
X16148585Y-25107144D02*
X16191442Y-25021429D01*
X16191442Y-25021429D02*
X16191442Y-24892858D01*
X16191442Y-24892858D02*
X16148585Y-24807144D01*
X16148585Y-24807144D02*
X16105728Y-24764287D01*
X16105728Y-24764287D02*
X16020014Y-24721429D01*
X16020014Y-24721429D02*
X15762871Y-24721429D01*
X15762871Y-24721429D02*
X15677157Y-24764287D01*
X15677157Y-24764287D02*
X15634300Y-24807144D01*
X15634300Y-24807144D02*
X15591442Y-24892858D01*
X15591442Y-24892858D02*
X15591442Y-25021429D01*
X16191442Y-24335715D02*
X15291442Y-24335715D01*
X16148585Y-24335715D02*
X16191442Y-24250001D01*
X16191442Y-24250001D02*
X16191442Y-24078572D01*
X16191442Y-24078572D02*
X16148585Y-23992858D01*
X16148585Y-23992858D02*
X16105728Y-23950001D01*
X16105728Y-23950001D02*
X16020014Y-23907143D01*
X16020014Y-23907143D02*
X15762871Y-23907143D01*
X15762871Y-23907143D02*
X15677157Y-23950001D01*
X15677157Y-23950001D02*
X15634300Y-23992858D01*
X15634300Y-23992858D02*
X15591442Y-24078572D01*
X15591442Y-24078572D02*
X15591442Y-24250001D01*
X15591442Y-24250001D02*
X15634300Y-24335715D01*
X15634300Y-23135715D02*
X15591442Y-23221429D01*
X15591442Y-23221429D02*
X15591442Y-23392857D01*
X15591442Y-23392857D02*
X15634300Y-23478572D01*
X15634300Y-23478572D02*
X15677157Y-23521429D01*
X15677157Y-23521429D02*
X15762871Y-23564286D01*
X15762871Y-23564286D02*
X16020014Y-23564286D01*
X16020014Y-23564286D02*
X16105728Y-23521429D01*
X16105728Y-23521429D02*
X16148585Y-23478572D01*
X16148585Y-23478572D02*
X16191442Y-23392857D01*
X16191442Y-23392857D02*
X16191442Y-23221429D01*
X16191442Y-23221429D02*
X16148585Y-23135715D01*
X15591442Y-22750000D02*
X16191442Y-22750000D01*
X16491442Y-22750000D02*
X16448585Y-22792857D01*
X16448585Y-22792857D02*
X16405728Y-22750000D01*
X16405728Y-22750000D02*
X16448585Y-22707143D01*
X16448585Y-22707143D02*
X16491442Y-22750000D01*
X16491442Y-22750000D02*
X16405728Y-22750000D01*
X15591442Y-22192857D02*
X15634300Y-22278572D01*
X15634300Y-22278572D02*
X15677157Y-22321429D01*
X15677157Y-22321429D02*
X15762871Y-22364286D01*
X15762871Y-22364286D02*
X16020014Y-22364286D01*
X16020014Y-22364286D02*
X16105728Y-22321429D01*
X16105728Y-22321429D02*
X16148585Y-22278572D01*
X16148585Y-22278572D02*
X16191442Y-22192857D01*
X16191442Y-22192857D02*
X16191442Y-22064286D01*
X16191442Y-22064286D02*
X16148585Y-21978572D01*
X16148585Y-21978572D02*
X16105728Y-21935715D01*
X16105728Y-21935715D02*
X16020014Y-21892857D01*
X16020014Y-21892857D02*
X15762871Y-21892857D01*
X15762871Y-21892857D02*
X15677157Y-21935715D01*
X15677157Y-21935715D02*
X15634300Y-21978572D01*
X15634300Y-21978572D02*
X15591442Y-22064286D01*
X15591442Y-22064286D02*
X15591442Y-22192857D01*
X16191442Y-21507143D02*
X15591442Y-21507143D01*
X16105728Y-21507143D02*
X16148585Y-21464286D01*
X16148585Y-21464286D02*
X16191442Y-21378571D01*
X16191442Y-21378571D02*
X16191442Y-21250000D01*
X16191442Y-21250000D02*
X16148585Y-21164286D01*
X16148585Y-21164286D02*
X16062871Y-21121429D01*
X16062871Y-21121429D02*
X15591442Y-21121429D01*
X15591442Y-20307143D02*
X16062871Y-20307143D01*
X16062871Y-20307143D02*
X16148585Y-20350000D01*
X16148585Y-20350000D02*
X16191442Y-20435714D01*
X16191442Y-20435714D02*
X16191442Y-20607143D01*
X16191442Y-20607143D02*
X16148585Y-20692857D01*
X15634300Y-20307143D02*
X15591442Y-20392857D01*
X15591442Y-20392857D02*
X15591442Y-20607143D01*
X15591442Y-20607143D02*
X15634300Y-20692857D01*
X15634300Y-20692857D02*
X15720014Y-20735714D01*
X15720014Y-20735714D02*
X15805728Y-20735714D01*
X15805728Y-20735714D02*
X15891442Y-20692857D01*
X15891442Y-20692857D02*
X15934300Y-20607143D01*
X15934300Y-20607143D02*
X15934300Y-20392857D01*
X15934300Y-20392857D02*
X15977157Y-20307143D01*
X15591442Y-19878571D02*
X16191442Y-19878571D01*
X16491442Y-19878571D02*
X16448585Y-19921428D01*
X16448585Y-19921428D02*
X16405728Y-19878571D01*
X16405728Y-19878571D02*
X16448585Y-19835714D01*
X16448585Y-19835714D02*
X16491442Y-19878571D01*
X16491442Y-19878571D02*
X16405728Y-19878571D01*
X15634300Y-19492857D02*
X15591442Y-19407143D01*
X15591442Y-19407143D02*
X15591442Y-19235714D01*
X15591442Y-19235714D02*
X15634300Y-19150000D01*
X15634300Y-19150000D02*
X15720014Y-19107143D01*
X15720014Y-19107143D02*
X15762871Y-19107143D01*
X15762871Y-19107143D02*
X15848585Y-19150000D01*
X15848585Y-19150000D02*
X15891442Y-19235714D01*
X15891442Y-19235714D02*
X15891442Y-19364286D01*
X15891442Y-19364286D02*
X15934300Y-19450000D01*
X15934300Y-19450000D02*
X16020014Y-19492857D01*
X16020014Y-19492857D02*
X16062871Y-19492857D01*
X16062871Y-19492857D02*
X16148585Y-19450000D01*
X16148585Y-19450000D02*
X16191442Y-19364286D01*
X16191442Y-19364286D02*
X16191442Y-19235714D01*
X16191442Y-19235714D02*
X16148585Y-19150000D01*
X15934300Y-18035715D02*
X15934300Y-17350001D01*
X16191442Y-16235715D02*
X15291442Y-16235715D01*
X16148585Y-16235715D02*
X16191442Y-16150001D01*
X16191442Y-16150001D02*
X16191442Y-15978572D01*
X16191442Y-15978572D02*
X16148585Y-15892858D01*
X16148585Y-15892858D02*
X16105728Y-15850001D01*
X16105728Y-15850001D02*
X16020014Y-15807143D01*
X16020014Y-15807143D02*
X15762871Y-15807143D01*
X15762871Y-15807143D02*
X15677157Y-15850001D01*
X15677157Y-15850001D02*
X15634300Y-15892858D01*
X15634300Y-15892858D02*
X15591442Y-15978572D01*
X15591442Y-15978572D02*
X15591442Y-16150001D01*
X15591442Y-16150001D02*
X15634300Y-16235715D01*
X15591442Y-15292857D02*
X15634300Y-15378572D01*
X15634300Y-15378572D02*
X15677157Y-15421429D01*
X15677157Y-15421429D02*
X15762871Y-15464286D01*
X15762871Y-15464286D02*
X16020014Y-15464286D01*
X16020014Y-15464286D02*
X16105728Y-15421429D01*
X16105728Y-15421429D02*
X16148585Y-15378572D01*
X16148585Y-15378572D02*
X16191442Y-15292857D01*
X16191442Y-15292857D02*
X16191442Y-15164286D01*
X16191442Y-15164286D02*
X16148585Y-15078572D01*
X16148585Y-15078572D02*
X16105728Y-15035715D01*
X16105728Y-15035715D02*
X16020014Y-14992857D01*
X16020014Y-14992857D02*
X15762871Y-14992857D01*
X15762871Y-14992857D02*
X15677157Y-15035715D01*
X15677157Y-15035715D02*
X15634300Y-15078572D01*
X15634300Y-15078572D02*
X15591442Y-15164286D01*
X15591442Y-15164286D02*
X15591442Y-15292857D01*
X15591442Y-14221429D02*
X16491442Y-14221429D01*
X15634300Y-14221429D02*
X15591442Y-14307143D01*
X15591442Y-14307143D02*
X15591442Y-14478571D01*
X15591442Y-14478571D02*
X15634300Y-14564286D01*
X15634300Y-14564286D02*
X15677157Y-14607143D01*
X15677157Y-14607143D02*
X15762871Y-14650000D01*
X15762871Y-14650000D02*
X16020014Y-14650000D01*
X16020014Y-14650000D02*
X16105728Y-14607143D01*
X16105728Y-14607143D02*
X16148585Y-14564286D01*
X16148585Y-14564286D02*
X16191442Y-14478571D01*
X16191442Y-14478571D02*
X16191442Y-14307143D01*
X16191442Y-14307143D02*
X16148585Y-14221429D01*
X15634300Y-13450000D02*
X15591442Y-13535714D01*
X15591442Y-13535714D02*
X15591442Y-13707143D01*
X15591442Y-13707143D02*
X15634300Y-13792857D01*
X15634300Y-13792857D02*
X15720014Y-13835714D01*
X15720014Y-13835714D02*
X16062871Y-13835714D01*
X16062871Y-13835714D02*
X16148585Y-13792857D01*
X16148585Y-13792857D02*
X16191442Y-13707143D01*
X16191442Y-13707143D02*
X16191442Y-13535714D01*
X16191442Y-13535714D02*
X16148585Y-13450000D01*
X16148585Y-13450000D02*
X16062871Y-13407143D01*
X16062871Y-13407143D02*
X15977157Y-13407143D01*
X15977157Y-13407143D02*
X15891442Y-13835714D01*
X15591442Y-13021428D02*
X16191442Y-13021428D01*
X16105728Y-13021428D02*
X16148585Y-12978571D01*
X16148585Y-12978571D02*
X16191442Y-12892856D01*
X16191442Y-12892856D02*
X16191442Y-12764285D01*
X16191442Y-12764285D02*
X16148585Y-12678571D01*
X16148585Y-12678571D02*
X16062871Y-12635714D01*
X16062871Y-12635714D02*
X15591442Y-12635714D01*
X16062871Y-12635714D02*
X16148585Y-12592856D01*
X16148585Y-12592856D02*
X16191442Y-12507142D01*
X16191442Y-12507142D02*
X16191442Y-12378571D01*
X16191442Y-12378571D02*
X16148585Y-12292856D01*
X16148585Y-12292856D02*
X16062871Y-12249999D01*
X16062871Y-12249999D02*
X15591442Y-12249999D01*
X16191442Y-11264285D02*
X16191442Y-10921428D01*
X15591442Y-11135714D02*
X16362871Y-11135714D01*
X16362871Y-11135714D02*
X16448585Y-11092857D01*
X16448585Y-11092857D02*
X16491442Y-11007142D01*
X16491442Y-11007142D02*
X16491442Y-10921428D01*
X15591442Y-10621428D02*
X16191442Y-10621428D01*
X16491442Y-10621428D02*
X16448585Y-10664285D01*
X16448585Y-10664285D02*
X16405728Y-10621428D01*
X16405728Y-10621428D02*
X16448585Y-10578571D01*
X16448585Y-10578571D02*
X16491442Y-10621428D01*
X16491442Y-10621428D02*
X16405728Y-10621428D01*
X15634300Y-9807143D02*
X15591442Y-9892857D01*
X15591442Y-9892857D02*
X15591442Y-10064285D01*
X15591442Y-10064285D02*
X15634300Y-10150000D01*
X15634300Y-10150000D02*
X15677157Y-10192857D01*
X15677157Y-10192857D02*
X15762871Y-10235714D01*
X15762871Y-10235714D02*
X16020014Y-10235714D01*
X16020014Y-10235714D02*
X16105728Y-10192857D01*
X16105728Y-10192857D02*
X16148585Y-10150000D01*
X16148585Y-10150000D02*
X16191442Y-10064285D01*
X16191442Y-10064285D02*
X16191442Y-9892857D01*
X16191442Y-9892857D02*
X16148585Y-9807143D01*
X15591442Y-9035714D02*
X16062871Y-9035714D01*
X16062871Y-9035714D02*
X16148585Y-9078571D01*
X16148585Y-9078571D02*
X16191442Y-9164285D01*
X16191442Y-9164285D02*
X16191442Y-9335714D01*
X16191442Y-9335714D02*
X16148585Y-9421428D01*
X15634300Y-9035714D02*
X15591442Y-9121428D01*
X15591442Y-9121428D02*
X15591442Y-9335714D01*
X15591442Y-9335714D02*
X15634300Y-9421428D01*
X15634300Y-9421428D02*
X15720014Y-9464285D01*
X15720014Y-9464285D02*
X15805728Y-9464285D01*
X15805728Y-9464285D02*
X15891442Y-9421428D01*
X15891442Y-9421428D02*
X15934300Y-9335714D01*
X15934300Y-9335714D02*
X15934300Y-9121428D01*
X15934300Y-9121428D02*
X15977157Y-9035714D01*
X15591442Y-8607142D02*
X16191442Y-8607142D01*
X16020014Y-8607142D02*
X16105728Y-8564285D01*
X16105728Y-8564285D02*
X16148585Y-8521428D01*
X16148585Y-8521428D02*
X16191442Y-8435713D01*
X16191442Y-8435713D02*
X16191442Y-8349999D01*
X15591442Y-6978571D02*
X16062871Y-6978571D01*
X16062871Y-6978571D02*
X16148585Y-7021428D01*
X16148585Y-7021428D02*
X16191442Y-7107142D01*
X16191442Y-7107142D02*
X16191442Y-7278571D01*
X16191442Y-7278571D02*
X16148585Y-7364285D01*
X15634300Y-6978571D02*
X15591442Y-7064285D01*
X15591442Y-7064285D02*
X15591442Y-7278571D01*
X15591442Y-7278571D02*
X15634300Y-7364285D01*
X15634300Y-7364285D02*
X15720014Y-7407142D01*
X15720014Y-7407142D02*
X15805728Y-7407142D01*
X15805728Y-7407142D02*
X15891442Y-7364285D01*
X15891442Y-7364285D02*
X15934300Y-7278571D01*
X15934300Y-7278571D02*
X15934300Y-7064285D01*
X15934300Y-7064285D02*
X15977157Y-6978571D01*
X15591442Y-6549999D02*
X16491442Y-6549999D01*
X16148585Y-6549999D02*
X16191442Y-6464285D01*
X16191442Y-6464285D02*
X16191442Y-6292856D01*
X16191442Y-6292856D02*
X16148585Y-6207142D01*
X16148585Y-6207142D02*
X16105728Y-6164285D01*
X16105728Y-6164285D02*
X16020014Y-6121427D01*
X16020014Y-6121427D02*
X15762871Y-6121427D01*
X15762871Y-6121427D02*
X15677157Y-6164285D01*
X15677157Y-6164285D02*
X15634300Y-6207142D01*
X15634300Y-6207142D02*
X15591442Y-6292856D01*
X15591442Y-6292856D02*
X15591442Y-6464285D01*
X15591442Y-6464285D02*
X15634300Y-6549999D01*
X15634300Y-5392856D02*
X15591442Y-5478570D01*
X15591442Y-5478570D02*
X15591442Y-5649999D01*
X15591442Y-5649999D02*
X15634300Y-5735713D01*
X15634300Y-5735713D02*
X15720014Y-5778570D01*
X15720014Y-5778570D02*
X16062871Y-5778570D01*
X16062871Y-5778570D02*
X16148585Y-5735713D01*
X16148585Y-5735713D02*
X16191442Y-5649999D01*
X16191442Y-5649999D02*
X16191442Y-5478570D01*
X16191442Y-5478570D02*
X16148585Y-5392856D01*
X16148585Y-5392856D02*
X16062871Y-5349999D01*
X16062871Y-5349999D02*
X15977157Y-5349999D01*
X15977157Y-5349999D02*
X15891442Y-5778570D01*
X15591442Y-4964284D02*
X16191442Y-4964284D01*
X16020014Y-4964284D02*
X16105728Y-4921427D01*
X16105728Y-4921427D02*
X16148585Y-4878570D01*
X16148585Y-4878570D02*
X16191442Y-4792855D01*
X16191442Y-4792855D02*
X16191442Y-4707141D01*
X16191442Y-4535712D02*
X16191442Y-4192855D01*
X16491442Y-4407141D02*
X15720014Y-4407141D01*
X15720014Y-4407141D02*
X15634300Y-4364284D01*
X15634300Y-4364284D02*
X15591442Y-4278569D01*
X15591442Y-4278569D02*
X15591442Y-4192855D01*
X15591442Y-3764283D02*
X15634300Y-3849998D01*
X15634300Y-3849998D02*
X15677157Y-3892855D01*
X15677157Y-3892855D02*
X15762871Y-3935712D01*
X15762871Y-3935712D02*
X16020014Y-3935712D01*
X16020014Y-3935712D02*
X16105728Y-3892855D01*
X16105728Y-3892855D02*
X16148585Y-3849998D01*
X16148585Y-3849998D02*
X16191442Y-3764283D01*
X16191442Y-3764283D02*
X16191442Y-3635712D01*
X16191442Y-3635712D02*
X16148585Y-3549998D01*
X16148585Y-3549998D02*
X16105728Y-3507141D01*
X16105728Y-3507141D02*
X16020014Y-3464283D01*
X16020014Y-3464283D02*
X15762871Y-3464283D01*
X15762871Y-3464283D02*
X15677157Y-3507141D01*
X15677157Y-3507141D02*
X15634300Y-3549998D01*
X15634300Y-3549998D02*
X15591442Y-3635712D01*
X15591442Y-3635712D02*
X15591442Y-3764283D01*
X15634300Y-3121426D02*
X15591442Y-3035712D01*
X15591442Y-3035712D02*
X15591442Y-2864283D01*
X15591442Y-2864283D02*
X15634300Y-2778569D01*
X15634300Y-2778569D02*
X15720014Y-2735712D01*
X15720014Y-2735712D02*
X15762871Y-2735712D01*
X15762871Y-2735712D02*
X15848585Y-2778569D01*
X15848585Y-2778569D02*
X15891442Y-2864283D01*
X15891442Y-2864283D02*
X15891442Y-2992855D01*
X15891442Y-2992855D02*
X15934300Y-3078569D01*
X15934300Y-3078569D02*
X16020014Y-3121426D01*
X16020014Y-3121426D02*
X16062871Y-3121426D01*
X16062871Y-3121426D02*
X16148585Y-3078569D01*
X16148585Y-3078569D02*
X16191442Y-2992855D01*
X16191442Y-2992855D02*
X16191442Y-2864283D01*
X16191442Y-2864283D02*
X16148585Y-2778569D01*
X57564288Y-58408557D02*
X57564288Y-57508557D01*
X57564288Y-57508557D02*
X57350002Y-57508557D01*
X57350002Y-57508557D02*
X57221431Y-57551414D01*
X57221431Y-57551414D02*
X57135716Y-57637128D01*
X57135716Y-57637128D02*
X57092859Y-57722842D01*
X57092859Y-57722842D02*
X57050002Y-57894271D01*
X57050002Y-57894271D02*
X57050002Y-58022842D01*
X57050002Y-58022842D02*
X57092859Y-58194271D01*
X57092859Y-58194271D02*
X57135716Y-58279985D01*
X57135716Y-58279985D02*
X57221431Y-58365700D01*
X57221431Y-58365700D02*
X57350002Y-58408557D01*
X57350002Y-58408557D02*
X57564288Y-58408557D01*
X56321431Y-58365700D02*
X56407145Y-58408557D01*
X56407145Y-58408557D02*
X56578574Y-58408557D01*
X56578574Y-58408557D02*
X56664288Y-58365700D01*
X56664288Y-58365700D02*
X56707145Y-58279985D01*
X56707145Y-58279985D02*
X56707145Y-57937128D01*
X56707145Y-57937128D02*
X56664288Y-57851414D01*
X56664288Y-57851414D02*
X56578574Y-57808557D01*
X56578574Y-57808557D02*
X56407145Y-57808557D01*
X56407145Y-57808557D02*
X56321431Y-57851414D01*
X56321431Y-57851414D02*
X56278574Y-57937128D01*
X56278574Y-57937128D02*
X56278574Y-58022842D01*
X56278574Y-58022842D02*
X56707145Y-58108557D01*
X55892859Y-58408557D02*
X55892859Y-57808557D01*
X55892859Y-57979985D02*
X55850002Y-57894271D01*
X55850002Y-57894271D02*
X55807145Y-57851414D01*
X55807145Y-57851414D02*
X55721430Y-57808557D01*
X55721430Y-57808557D02*
X55635716Y-57808557D01*
X55335716Y-58408557D02*
X55335716Y-57808557D01*
X55335716Y-57508557D02*
X55378573Y-57551414D01*
X55378573Y-57551414D02*
X55335716Y-57594271D01*
X55335716Y-57594271D02*
X55292859Y-57551414D01*
X55292859Y-57551414D02*
X55335716Y-57508557D01*
X55335716Y-57508557D02*
X55335716Y-57594271D01*
X54992859Y-57808557D02*
X54778573Y-58408557D01*
X54778573Y-58408557D02*
X54564288Y-57808557D01*
X53835717Y-58408557D02*
X53835717Y-57937128D01*
X53835717Y-57937128D02*
X53878574Y-57851414D01*
X53878574Y-57851414D02*
X53964288Y-57808557D01*
X53964288Y-57808557D02*
X54135717Y-57808557D01*
X54135717Y-57808557D02*
X54221431Y-57851414D01*
X53835717Y-58365700D02*
X53921431Y-58408557D01*
X53921431Y-58408557D02*
X54135717Y-58408557D01*
X54135717Y-58408557D02*
X54221431Y-58365700D01*
X54221431Y-58365700D02*
X54264288Y-58279985D01*
X54264288Y-58279985D02*
X54264288Y-58194271D01*
X54264288Y-58194271D02*
X54221431Y-58108557D01*
X54221431Y-58108557D02*
X54135717Y-58065700D01*
X54135717Y-58065700D02*
X53921431Y-58065700D01*
X53921431Y-58065700D02*
X53835717Y-58022842D01*
X53021431Y-58408557D02*
X53021431Y-57508557D01*
X53021431Y-58365700D02*
X53107145Y-58408557D01*
X53107145Y-58408557D02*
X53278573Y-58408557D01*
X53278573Y-58408557D02*
X53364288Y-58365700D01*
X53364288Y-58365700D02*
X53407145Y-58322842D01*
X53407145Y-58322842D02*
X53450002Y-58237128D01*
X53450002Y-58237128D02*
X53450002Y-57979985D01*
X53450002Y-57979985D02*
X53407145Y-57894271D01*
X53407145Y-57894271D02*
X53364288Y-57851414D01*
X53364288Y-57851414D02*
X53278573Y-57808557D01*
X53278573Y-57808557D02*
X53107145Y-57808557D01*
X53107145Y-57808557D02*
X53021431Y-57851414D01*
X52464287Y-58408557D02*
X52550002Y-58365700D01*
X52550002Y-58365700D02*
X52592859Y-58322842D01*
X52592859Y-58322842D02*
X52635716Y-58237128D01*
X52635716Y-58237128D02*
X52635716Y-57979985D01*
X52635716Y-57979985D02*
X52592859Y-57894271D01*
X52592859Y-57894271D02*
X52550002Y-57851414D01*
X52550002Y-57851414D02*
X52464287Y-57808557D01*
X52464287Y-57808557D02*
X52335716Y-57808557D01*
X52335716Y-57808557D02*
X52250002Y-57851414D01*
X52250002Y-57851414D02*
X52207145Y-57894271D01*
X52207145Y-57894271D02*
X52164287Y-57979985D01*
X52164287Y-57979985D02*
X52164287Y-58237128D01*
X52164287Y-58237128D02*
X52207145Y-58322842D01*
X52207145Y-58322842D02*
X52250002Y-58365700D01*
X52250002Y-58365700D02*
X52335716Y-58408557D01*
X52335716Y-58408557D02*
X52464287Y-58408557D01*
X50707145Y-58408557D02*
X50707145Y-57508557D01*
X50707145Y-58365700D02*
X50792859Y-58408557D01*
X50792859Y-58408557D02*
X50964287Y-58408557D01*
X50964287Y-58408557D02*
X51050002Y-58365700D01*
X51050002Y-58365700D02*
X51092859Y-58322842D01*
X51092859Y-58322842D02*
X51135716Y-58237128D01*
X51135716Y-58237128D02*
X51135716Y-57979985D01*
X51135716Y-57979985D02*
X51092859Y-57894271D01*
X51092859Y-57894271D02*
X51050002Y-57851414D01*
X51050002Y-57851414D02*
X50964287Y-57808557D01*
X50964287Y-57808557D02*
X50792859Y-57808557D01*
X50792859Y-57808557D02*
X50707145Y-57851414D01*
X49935716Y-58365700D02*
X50021430Y-58408557D01*
X50021430Y-58408557D02*
X50192859Y-58408557D01*
X50192859Y-58408557D02*
X50278573Y-58365700D01*
X50278573Y-58365700D02*
X50321430Y-58279985D01*
X50321430Y-58279985D02*
X50321430Y-57937128D01*
X50321430Y-57937128D02*
X50278573Y-57851414D01*
X50278573Y-57851414D02*
X50192859Y-57808557D01*
X50192859Y-57808557D02*
X50021430Y-57808557D01*
X50021430Y-57808557D02*
X49935716Y-57851414D01*
X49935716Y-57851414D02*
X49892859Y-57937128D01*
X49892859Y-57937128D02*
X49892859Y-58022842D01*
X49892859Y-58022842D02*
X50321430Y-58108557D01*
X48950001Y-57508557D02*
X48650001Y-58408557D01*
X48650001Y-58408557D02*
X48350001Y-57508557D01*
X47707144Y-58365700D02*
X47792858Y-58408557D01*
X47792858Y-58408557D02*
X47964287Y-58408557D01*
X47964287Y-58408557D02*
X48050001Y-58365700D01*
X48050001Y-58365700D02*
X48092858Y-58279985D01*
X48092858Y-58279985D02*
X48092858Y-57937128D01*
X48092858Y-57937128D02*
X48050001Y-57851414D01*
X48050001Y-57851414D02*
X47964287Y-57808557D01*
X47964287Y-57808557D02*
X47792858Y-57808557D01*
X47792858Y-57808557D02*
X47707144Y-57851414D01*
X47707144Y-57851414D02*
X47664287Y-57937128D01*
X47664287Y-57937128D02*
X47664287Y-58022842D01*
X47664287Y-58022842D02*
X48092858Y-58108557D01*
X47150000Y-58408557D02*
X47235715Y-58365700D01*
X47235715Y-58365700D02*
X47278572Y-58279985D01*
X47278572Y-58279985D02*
X47278572Y-57508557D01*
X46464286Y-58365700D02*
X46550000Y-58408557D01*
X46550000Y-58408557D02*
X46721429Y-58408557D01*
X46721429Y-58408557D02*
X46807143Y-58365700D01*
X46807143Y-58365700D02*
X46850000Y-58279985D01*
X46850000Y-58279985D02*
X46850000Y-57937128D01*
X46850000Y-57937128D02*
X46807143Y-57851414D01*
X46807143Y-57851414D02*
X46721429Y-57808557D01*
X46721429Y-57808557D02*
X46550000Y-57808557D01*
X46550000Y-57808557D02*
X46464286Y-57851414D01*
X46464286Y-57851414D02*
X46421429Y-57937128D01*
X46421429Y-57937128D02*
X46421429Y-58022842D01*
X46421429Y-58022842D02*
X46850000Y-58108557D01*
X46078571Y-58365700D02*
X45992857Y-58408557D01*
X45992857Y-58408557D02*
X45821428Y-58408557D01*
X45821428Y-58408557D02*
X45735714Y-58365700D01*
X45735714Y-58365700D02*
X45692857Y-58279985D01*
X45692857Y-58279985D02*
X45692857Y-58237128D01*
X45692857Y-58237128D02*
X45735714Y-58151414D01*
X45735714Y-58151414D02*
X45821428Y-58108557D01*
X45821428Y-58108557D02*
X45950000Y-58108557D01*
X45950000Y-58108557D02*
X46035714Y-58065700D01*
X46035714Y-58065700D02*
X46078571Y-57979985D01*
X46078571Y-57979985D02*
X46078571Y-57937128D01*
X46078571Y-57937128D02*
X46035714Y-57851414D01*
X46035714Y-57851414D02*
X45950000Y-57808557D01*
X45950000Y-57808557D02*
X45821428Y-57808557D01*
X45821428Y-57808557D02*
X45735714Y-57851414D01*
X45178571Y-58408557D02*
X45264286Y-58365700D01*
X45264286Y-58365700D02*
X45307143Y-58322842D01*
X45307143Y-58322842D02*
X45350000Y-58237128D01*
X45350000Y-58237128D02*
X45350000Y-57979985D01*
X45350000Y-57979985D02*
X45307143Y-57894271D01*
X45307143Y-57894271D02*
X45264286Y-57851414D01*
X45264286Y-57851414D02*
X45178571Y-57808557D01*
X45178571Y-57808557D02*
X45050000Y-57808557D01*
X45050000Y-57808557D02*
X44964286Y-57851414D01*
X44964286Y-57851414D02*
X44921429Y-57894271D01*
X44921429Y-57894271D02*
X44878571Y-57979985D01*
X44878571Y-57979985D02*
X44878571Y-58237128D01*
X44878571Y-58237128D02*
X44921429Y-58322842D01*
X44921429Y-58322842D02*
X44964286Y-58365700D01*
X44964286Y-58365700D02*
X45050000Y-58408557D01*
X45050000Y-58408557D02*
X45178571Y-58408557D01*
X44621428Y-57808557D02*
X44278571Y-57808557D01*
X44492857Y-58408557D02*
X44492857Y-57637128D01*
X44492857Y-57637128D02*
X44450000Y-57551414D01*
X44450000Y-57551414D02*
X44364285Y-57508557D01*
X44364285Y-57508557D02*
X44278571Y-57508557D01*
X44107142Y-57808557D02*
X43764285Y-57808557D01*
X43978571Y-57508557D02*
X43978571Y-58279985D01*
X43978571Y-58279985D02*
X43935714Y-58365700D01*
X43935714Y-58365700D02*
X43849999Y-58408557D01*
X43849999Y-58408557D02*
X43764285Y-58408557D01*
X42821428Y-57594271D02*
X42778571Y-57551414D01*
X42778571Y-57551414D02*
X42692857Y-57508557D01*
X42692857Y-57508557D02*
X42478571Y-57508557D01*
X42478571Y-57508557D02*
X42392857Y-57551414D01*
X42392857Y-57551414D02*
X42349999Y-57594271D01*
X42349999Y-57594271D02*
X42307142Y-57679985D01*
X42307142Y-57679985D02*
X42307142Y-57765700D01*
X42307142Y-57765700D02*
X42349999Y-57894271D01*
X42349999Y-57894271D02*
X42864285Y-58408557D01*
X42864285Y-58408557D02*
X42307142Y-58408557D01*
X41749999Y-57508557D02*
X41664285Y-57508557D01*
X41664285Y-57508557D02*
X41578571Y-57551414D01*
X41578571Y-57551414D02*
X41535714Y-57594271D01*
X41535714Y-57594271D02*
X41492856Y-57679985D01*
X41492856Y-57679985D02*
X41449999Y-57851414D01*
X41449999Y-57851414D02*
X41449999Y-58065700D01*
X41449999Y-58065700D02*
X41492856Y-58237128D01*
X41492856Y-58237128D02*
X41535714Y-58322842D01*
X41535714Y-58322842D02*
X41578571Y-58365700D01*
X41578571Y-58365700D02*
X41664285Y-58408557D01*
X41664285Y-58408557D02*
X41749999Y-58408557D01*
X41749999Y-58408557D02*
X41835714Y-58365700D01*
X41835714Y-58365700D02*
X41878571Y-58322842D01*
X41878571Y-58322842D02*
X41921428Y-58237128D01*
X41921428Y-58237128D02*
X41964285Y-58065700D01*
X41964285Y-58065700D02*
X41964285Y-57851414D01*
X41964285Y-57851414D02*
X41921428Y-57679985D01*
X41921428Y-57679985D02*
X41878571Y-57594271D01*
X41878571Y-57594271D02*
X41835714Y-57551414D01*
X41835714Y-57551414D02*
X41749999Y-57508557D01*
X40892856Y-57508557D02*
X40807142Y-57508557D01*
X40807142Y-57508557D02*
X40721428Y-57551414D01*
X40721428Y-57551414D02*
X40678571Y-57594271D01*
X40678571Y-57594271D02*
X40635713Y-57679985D01*
X40635713Y-57679985D02*
X40592856Y-57851414D01*
X40592856Y-57851414D02*
X40592856Y-58065700D01*
X40592856Y-58065700D02*
X40635713Y-58237128D01*
X40635713Y-58237128D02*
X40678571Y-58322842D01*
X40678571Y-58322842D02*
X40721428Y-58365700D01*
X40721428Y-58365700D02*
X40807142Y-58408557D01*
X40807142Y-58408557D02*
X40892856Y-58408557D01*
X40892856Y-58408557D02*
X40978571Y-58365700D01*
X40978571Y-58365700D02*
X41021428Y-58322842D01*
X41021428Y-58322842D02*
X41064285Y-58237128D01*
X41064285Y-58237128D02*
X41107142Y-58065700D01*
X41107142Y-58065700D02*
X41107142Y-57851414D01*
X41107142Y-57851414D02*
X41064285Y-57679985D01*
X41064285Y-57679985D02*
X41021428Y-57594271D01*
X41021428Y-57594271D02*
X40978571Y-57551414D01*
X40978571Y-57551414D02*
X40892856Y-57508557D01*
X40164285Y-58408557D02*
X39992856Y-58408557D01*
X39992856Y-58408557D02*
X39907142Y-58365700D01*
X39907142Y-58365700D02*
X39864285Y-58322842D01*
X39864285Y-58322842D02*
X39778570Y-58194271D01*
X39778570Y-58194271D02*
X39735713Y-58022842D01*
X39735713Y-58022842D02*
X39735713Y-57679985D01*
X39735713Y-57679985D02*
X39778570Y-57594271D01*
X39778570Y-57594271D02*
X39821428Y-57551414D01*
X39821428Y-57551414D02*
X39907142Y-57508557D01*
X39907142Y-57508557D02*
X40078570Y-57508557D01*
X40078570Y-57508557D02*
X40164285Y-57551414D01*
X40164285Y-57551414D02*
X40207142Y-57594271D01*
X40207142Y-57594271D02*
X40249999Y-57679985D01*
X40249999Y-57679985D02*
X40249999Y-57894271D01*
X40249999Y-57894271D02*
X40207142Y-57979985D01*
X40207142Y-57979985D02*
X40164285Y-58022842D01*
X40164285Y-58022842D02*
X40078570Y-58065700D01*
X40078570Y-58065700D02*
X39907142Y-58065700D01*
X39907142Y-58065700D02*
X39821428Y-58022842D01*
X39821428Y-58022842D02*
X39778570Y-57979985D01*
X39778570Y-57979985D02*
X39735713Y-57894271D01*
X38321428Y-58365700D02*
X38407142Y-58408557D01*
X38407142Y-58408557D02*
X38578571Y-58408557D01*
X38578571Y-58408557D02*
X38664285Y-58365700D01*
X38664285Y-58365700D02*
X38707142Y-58279985D01*
X38707142Y-58279985D02*
X38707142Y-57937128D01*
X38707142Y-57937128D02*
X38664285Y-57851414D01*
X38664285Y-57851414D02*
X38578571Y-57808557D01*
X38578571Y-57808557D02*
X38407142Y-57808557D01*
X38407142Y-57808557D02*
X38321428Y-57851414D01*
X38321428Y-57851414D02*
X38278571Y-57937128D01*
X38278571Y-57937128D02*
X38278571Y-58022842D01*
X38278571Y-58022842D02*
X38707142Y-58108557D01*
X36778570Y-58408557D02*
X37207142Y-58408557D01*
X37207142Y-58408557D02*
X37207142Y-57508557D01*
X36092857Y-57808557D02*
X36092857Y-58408557D01*
X36478571Y-57808557D02*
X36478571Y-58279985D01*
X36478571Y-58279985D02*
X36435714Y-58365700D01*
X36435714Y-58365700D02*
X36349999Y-58408557D01*
X36349999Y-58408557D02*
X36221428Y-58408557D01*
X36221428Y-58408557D02*
X36135714Y-58365700D01*
X36135714Y-58365700D02*
X36092857Y-58322842D01*
X35278571Y-58365700D02*
X35364285Y-58408557D01*
X35364285Y-58408557D02*
X35535713Y-58408557D01*
X35535713Y-58408557D02*
X35621428Y-58365700D01*
X35621428Y-58365700D02*
X35664285Y-58322842D01*
X35664285Y-58322842D02*
X35707142Y-58237128D01*
X35707142Y-58237128D02*
X35707142Y-57979985D01*
X35707142Y-57979985D02*
X35664285Y-57894271D01*
X35664285Y-57894271D02*
X35621428Y-57851414D01*
X35621428Y-57851414D02*
X35535713Y-57808557D01*
X35535713Y-57808557D02*
X35364285Y-57808557D01*
X35364285Y-57808557D02*
X35278571Y-57851414D01*
X34507142Y-58365700D02*
X34592856Y-58408557D01*
X34592856Y-58408557D02*
X34764284Y-58408557D01*
X34764284Y-58408557D02*
X34849999Y-58365700D01*
X34849999Y-58365700D02*
X34892856Y-58322842D01*
X34892856Y-58322842D02*
X34935713Y-58237128D01*
X34935713Y-58237128D02*
X34935713Y-57979985D01*
X34935713Y-57979985D02*
X34892856Y-57894271D01*
X34892856Y-57894271D02*
X34849999Y-57851414D01*
X34849999Y-57851414D02*
X34764284Y-57808557D01*
X34764284Y-57808557D02*
X34592856Y-57808557D01*
X34592856Y-57808557D02*
X34507142Y-57851414D01*
X33735713Y-58408557D02*
X33735713Y-57937128D01*
X33735713Y-57937128D02*
X33778570Y-57851414D01*
X33778570Y-57851414D02*
X33864284Y-57808557D01*
X33864284Y-57808557D02*
X34035713Y-57808557D01*
X34035713Y-57808557D02*
X34121427Y-57851414D01*
X33735713Y-58365700D02*
X33821427Y-58408557D01*
X33821427Y-58408557D02*
X34035713Y-58408557D01*
X34035713Y-58408557D02*
X34121427Y-58365700D01*
X34121427Y-58365700D02*
X34164284Y-58279985D01*
X34164284Y-58279985D02*
X34164284Y-58194271D01*
X34164284Y-58194271D02*
X34121427Y-58108557D01*
X34121427Y-58108557D02*
X34035713Y-58065700D01*
X34035713Y-58065700D02*
X33821427Y-58065700D01*
X33821427Y-58065700D02*
X33735713Y-58022842D01*
X33349998Y-58365700D02*
X33264284Y-58408557D01*
X33264284Y-58408557D02*
X33092855Y-58408557D01*
X33092855Y-58408557D02*
X33007141Y-58365700D01*
X33007141Y-58365700D02*
X32964284Y-58279985D01*
X32964284Y-58279985D02*
X32964284Y-58237128D01*
X32964284Y-58237128D02*
X33007141Y-58151414D01*
X33007141Y-58151414D02*
X33092855Y-58108557D01*
X33092855Y-58108557D02*
X33221427Y-58108557D01*
X33221427Y-58108557D02*
X33307141Y-58065700D01*
X33307141Y-58065700D02*
X33349998Y-57979985D01*
X33349998Y-57979985D02*
X33349998Y-57937128D01*
X33349998Y-57937128D02*
X33307141Y-57851414D01*
X33307141Y-57851414D02*
X33221427Y-57808557D01*
X33221427Y-57808557D02*
X33092855Y-57808557D01*
X33092855Y-57808557D02*
X33007141Y-57851414D01*
X31892856Y-57937128D02*
X31592856Y-57937128D01*
X31464284Y-58408557D02*
X31892856Y-58408557D01*
X31892856Y-58408557D02*
X31892856Y-57508557D01*
X31892856Y-57508557D02*
X31464284Y-57508557D01*
X30949998Y-58408557D02*
X31035713Y-58365700D01*
X31035713Y-58365700D02*
X31078570Y-58279985D01*
X31078570Y-58279985D02*
X31078570Y-57508557D01*
X30264284Y-58365700D02*
X30349998Y-58408557D01*
X30349998Y-58408557D02*
X30521427Y-58408557D01*
X30521427Y-58408557D02*
X30607141Y-58365700D01*
X30607141Y-58365700D02*
X30649998Y-58279985D01*
X30649998Y-58279985D02*
X30649998Y-57937128D01*
X30649998Y-57937128D02*
X30607141Y-57851414D01*
X30607141Y-57851414D02*
X30521427Y-57808557D01*
X30521427Y-57808557D02*
X30349998Y-57808557D01*
X30349998Y-57808557D02*
X30264284Y-57851414D01*
X30264284Y-57851414D02*
X30221427Y-57937128D01*
X30221427Y-57937128D02*
X30221427Y-58022842D01*
X30221427Y-58022842D02*
X30649998Y-58108557D01*
X29964283Y-57808557D02*
X29621426Y-57808557D01*
X29835712Y-57508557D02*
X29835712Y-58279985D01*
X29835712Y-58279985D02*
X29792855Y-58365700D01*
X29792855Y-58365700D02*
X29707140Y-58408557D01*
X29707140Y-58408557D02*
X29621426Y-58408557D01*
X29321426Y-58408557D02*
X29321426Y-57808557D01*
X29321426Y-57979985D02*
X29278569Y-57894271D01*
X29278569Y-57894271D02*
X29235712Y-57851414D01*
X29235712Y-57851414D02*
X29149997Y-57808557D01*
X29149997Y-57808557D02*
X29064283Y-57808557D01*
X28635711Y-58408557D02*
X28721426Y-58365700D01*
X28721426Y-58365700D02*
X28764283Y-58322842D01*
X28764283Y-58322842D02*
X28807140Y-58237128D01*
X28807140Y-58237128D02*
X28807140Y-57979985D01*
X28807140Y-57979985D02*
X28764283Y-57894271D01*
X28764283Y-57894271D02*
X28721426Y-57851414D01*
X28721426Y-57851414D02*
X28635711Y-57808557D01*
X28635711Y-57808557D02*
X28507140Y-57808557D01*
X28507140Y-57808557D02*
X28421426Y-57851414D01*
X28421426Y-57851414D02*
X28378569Y-57894271D01*
X28378569Y-57894271D02*
X28335711Y-57979985D01*
X28335711Y-57979985D02*
X28335711Y-58237128D01*
X28335711Y-58237128D02*
X28378569Y-58322842D01*
X28378569Y-58322842D02*
X28421426Y-58365700D01*
X28421426Y-58365700D02*
X28507140Y-58408557D01*
X28507140Y-58408557D02*
X28635711Y-58408557D01*
X28721426Y-57594271D02*
X28549997Y-57465700D01*
X28549997Y-57465700D02*
X28378569Y-57594271D01*
X27949997Y-57808557D02*
X27949997Y-58408557D01*
X27949997Y-57894271D02*
X27907140Y-57851414D01*
X27907140Y-57851414D02*
X27821425Y-57808557D01*
X27821425Y-57808557D02*
X27692854Y-57808557D01*
X27692854Y-57808557D02*
X27607140Y-57851414D01*
X27607140Y-57851414D02*
X27564283Y-57937128D01*
X27564283Y-57937128D02*
X27564283Y-58408557D01*
X27135711Y-58408557D02*
X27135711Y-57808557D01*
X27135711Y-57508557D02*
X27178568Y-57551414D01*
X27178568Y-57551414D02*
X27135711Y-57594271D01*
X27135711Y-57594271D02*
X27092854Y-57551414D01*
X27092854Y-57551414D02*
X27135711Y-57508557D01*
X27135711Y-57508557D02*
X27135711Y-57594271D01*
X26321426Y-58365700D02*
X26407140Y-58408557D01*
X26407140Y-58408557D02*
X26578568Y-58408557D01*
X26578568Y-58408557D02*
X26664283Y-58365700D01*
X26664283Y-58365700D02*
X26707140Y-58322842D01*
X26707140Y-58322842D02*
X26749997Y-58237128D01*
X26749997Y-58237128D02*
X26749997Y-57979985D01*
X26749997Y-57979985D02*
X26707140Y-57894271D01*
X26707140Y-57894271D02*
X26664283Y-57851414D01*
X26664283Y-57851414D02*
X26578568Y-57808557D01*
X26578568Y-57808557D02*
X26407140Y-57808557D01*
X26407140Y-57808557D02*
X26321426Y-57851414D01*
X25549997Y-58408557D02*
X25549997Y-57937128D01*
X25549997Y-57937128D02*
X25592854Y-57851414D01*
X25592854Y-57851414D02*
X25678568Y-57808557D01*
X25678568Y-57808557D02*
X25849997Y-57808557D01*
X25849997Y-57808557D02*
X25935711Y-57851414D01*
X25549997Y-58365700D02*
X25635711Y-58408557D01*
X25635711Y-58408557D02*
X25849997Y-58408557D01*
X25849997Y-58408557D02*
X25935711Y-58365700D01*
X25935711Y-58365700D02*
X25978568Y-58279985D01*
X25978568Y-58279985D02*
X25978568Y-58194271D01*
X25978568Y-58194271D02*
X25935711Y-58108557D01*
X25935711Y-58108557D02*
X25849997Y-58065700D01*
X25849997Y-58065700D02*
X25635711Y-58065700D01*
X25635711Y-58065700D02*
X25549997Y-58022842D01*
X24478568Y-57594271D02*
X24435711Y-57551414D01*
X24435711Y-57551414D02*
X24349997Y-57508557D01*
X24349997Y-57508557D02*
X24135711Y-57508557D01*
X24135711Y-57508557D02*
X24049997Y-57551414D01*
X24049997Y-57551414D02*
X24007139Y-57594271D01*
X24007139Y-57594271D02*
X23964282Y-57679985D01*
X23964282Y-57679985D02*
X23964282Y-57765700D01*
X23964282Y-57765700D02*
X24007139Y-57894271D01*
X24007139Y-57894271D02*
X24521425Y-58408557D01*
X24521425Y-58408557D02*
X23964282Y-58408557D01*
X23407139Y-57508557D02*
X23321425Y-57508557D01*
X23321425Y-57508557D02*
X23235711Y-57551414D01*
X23235711Y-57551414D02*
X23192854Y-57594271D01*
X23192854Y-57594271D02*
X23149996Y-57679985D01*
X23149996Y-57679985D02*
X23107139Y-57851414D01*
X23107139Y-57851414D02*
X23107139Y-58065700D01*
X23107139Y-58065700D02*
X23149996Y-58237128D01*
X23149996Y-58237128D02*
X23192854Y-58322842D01*
X23192854Y-58322842D02*
X23235711Y-58365700D01*
X23235711Y-58365700D02*
X23321425Y-58408557D01*
X23321425Y-58408557D02*
X23407139Y-58408557D01*
X23407139Y-58408557D02*
X23492854Y-58365700D01*
X23492854Y-58365700D02*
X23535711Y-58322842D01*
X23535711Y-58322842D02*
X23578568Y-58237128D01*
X23578568Y-58237128D02*
X23621425Y-58065700D01*
X23621425Y-58065700D02*
X23621425Y-57851414D01*
X23621425Y-57851414D02*
X23578568Y-57679985D01*
X23578568Y-57679985D02*
X23535711Y-57594271D01*
X23535711Y-57594271D02*
X23492854Y-57551414D01*
X23492854Y-57551414D02*
X23407139Y-57508557D01*
X22249996Y-58408557D02*
X22764282Y-58408557D01*
X22507139Y-58408557D02*
X22507139Y-57508557D01*
X22507139Y-57508557D02*
X22592853Y-57637128D01*
X22592853Y-57637128D02*
X22678568Y-57722842D01*
X22678568Y-57722842D02*
X22764282Y-57765700D01*
X21907139Y-57594271D02*
X21864282Y-57551414D01*
X21864282Y-57551414D02*
X21778568Y-57508557D01*
X21778568Y-57508557D02*
X21564282Y-57508557D01*
X21564282Y-57508557D02*
X21478568Y-57551414D01*
X21478568Y-57551414D02*
X21435710Y-57594271D01*
X21435710Y-57594271D02*
X21392853Y-57679985D01*
X21392853Y-57679985D02*
X21392853Y-57765700D01*
X21392853Y-57765700D02*
X21435710Y-57894271D01*
X21435710Y-57894271D02*
X21949996Y-58408557D01*
X21949996Y-58408557D02*
X21392853Y-58408557D01*
X33545180Y-44142859D02*
X32830895Y-44142859D01*
X32830895Y-44142859D02*
X32688038Y-44190478D01*
X32688038Y-44190478D02*
X32592800Y-44285716D01*
X32592800Y-44285716D02*
X32545180Y-44428573D01*
X32545180Y-44428573D02*
X32545180Y-44523811D01*
X32545180Y-43666668D02*
X33545180Y-43666668D01*
X33545180Y-43666668D02*
X33545180Y-43285716D01*
X33545180Y-43285716D02*
X33497561Y-43190478D01*
X33497561Y-43190478D02*
X33449942Y-43142859D01*
X33449942Y-43142859D02*
X33354704Y-43095240D01*
X33354704Y-43095240D02*
X33211847Y-43095240D01*
X33211847Y-43095240D02*
X33116609Y-43142859D01*
X33116609Y-43142859D02*
X33068990Y-43190478D01*
X33068990Y-43190478D02*
X33021371Y-43285716D01*
X33021371Y-43285716D02*
X33021371Y-43666668D01*
X33211847Y-42238097D02*
X32545180Y-42238097D01*
X33592800Y-42476192D02*
X32878514Y-42714287D01*
X32878514Y-42714287D02*
X32878514Y-42095240D01*
X33211847Y-40333334D02*
X33211847Y-39952382D01*
X32545180Y-40190477D02*
X33402323Y-40190477D01*
X33402323Y-40190477D02*
X33497561Y-40142858D01*
X33497561Y-40142858D02*
X33545180Y-40047620D01*
X33545180Y-40047620D02*
X33545180Y-39952382D01*
X32592800Y-39238096D02*
X32545180Y-39333334D01*
X32545180Y-39333334D02*
X32545180Y-39523810D01*
X32545180Y-39523810D02*
X32592800Y-39619048D01*
X32592800Y-39619048D02*
X32688038Y-39666667D01*
X32688038Y-39666667D02*
X33068990Y-39666667D01*
X33068990Y-39666667D02*
X33164228Y-39619048D01*
X33164228Y-39619048D02*
X33211847Y-39523810D01*
X33211847Y-39523810D02*
X33211847Y-39333334D01*
X33211847Y-39333334D02*
X33164228Y-39238096D01*
X33164228Y-39238096D02*
X33068990Y-39190477D01*
X33068990Y-39190477D02*
X32973752Y-39190477D01*
X32973752Y-39190477D02*
X32878514Y-39666667D01*
X32592800Y-38333334D02*
X32545180Y-38428572D01*
X32545180Y-38428572D02*
X32545180Y-38619048D01*
X32545180Y-38619048D02*
X32592800Y-38714286D01*
X32592800Y-38714286D02*
X32640419Y-38761905D01*
X32640419Y-38761905D02*
X32735657Y-38809524D01*
X32735657Y-38809524D02*
X33021371Y-38809524D01*
X33021371Y-38809524D02*
X33116609Y-38761905D01*
X33116609Y-38761905D02*
X33164228Y-38714286D01*
X33164228Y-38714286D02*
X33211847Y-38619048D01*
X33211847Y-38619048D02*
X33211847Y-38428572D01*
X33211847Y-38428572D02*
X33164228Y-38333334D01*
X32545180Y-37904762D02*
X33545180Y-37904762D01*
X32545180Y-37476191D02*
X33068990Y-37476191D01*
X33068990Y-37476191D02*
X33164228Y-37523810D01*
X33164228Y-37523810D02*
X33211847Y-37619048D01*
X33211847Y-37619048D02*
X33211847Y-37761905D01*
X33211847Y-37761905D02*
X33164228Y-37857143D01*
X33164228Y-37857143D02*
X33116609Y-37904762D01*
X32545180Y-36571429D02*
X33068990Y-36571429D01*
X33068990Y-36571429D02*
X33164228Y-36619048D01*
X33164228Y-36619048D02*
X33211847Y-36714286D01*
X33211847Y-36714286D02*
X33211847Y-36904762D01*
X33211847Y-36904762D02*
X33164228Y-37000000D01*
X32592800Y-36571429D02*
X32545180Y-36666667D01*
X32545180Y-36666667D02*
X32545180Y-36904762D01*
X32545180Y-36904762D02*
X32592800Y-37000000D01*
X32592800Y-37000000D02*
X32688038Y-37047619D01*
X32688038Y-37047619D02*
X32783276Y-37047619D01*
X32783276Y-37047619D02*
X32878514Y-37000000D01*
X32878514Y-37000000D02*
X32926133Y-36904762D01*
X32926133Y-36904762D02*
X32926133Y-36666667D01*
X32926133Y-36666667D02*
X32973752Y-36571429D01*
X32545180Y-35666667D02*
X33545180Y-35666667D01*
X32592800Y-35666667D02*
X32545180Y-35761905D01*
X32545180Y-35761905D02*
X32545180Y-35952381D01*
X32545180Y-35952381D02*
X32592800Y-36047619D01*
X32592800Y-36047619D02*
X32640419Y-36095238D01*
X32640419Y-36095238D02*
X32735657Y-36142857D01*
X32735657Y-36142857D02*
X33021371Y-36142857D01*
X33021371Y-36142857D02*
X33116609Y-36095238D01*
X33116609Y-36095238D02*
X33164228Y-36047619D01*
X33164228Y-36047619D02*
X33211847Y-35952381D01*
X33211847Y-35952381D02*
X33211847Y-35761905D01*
X33211847Y-35761905D02*
X33164228Y-35666667D01*
X32545180Y-35047619D02*
X32592800Y-35142857D01*
X32592800Y-35142857D02*
X32640419Y-35190476D01*
X32640419Y-35190476D02*
X32735657Y-35238095D01*
X32735657Y-35238095D02*
X33021371Y-35238095D01*
X33021371Y-35238095D02*
X33116609Y-35190476D01*
X33116609Y-35190476D02*
X33164228Y-35142857D01*
X33164228Y-35142857D02*
X33211847Y-35047619D01*
X33211847Y-35047619D02*
X33211847Y-34904762D01*
X33211847Y-34904762D02*
X33164228Y-34809524D01*
X33164228Y-34809524D02*
X33116609Y-34761905D01*
X33116609Y-34761905D02*
X33021371Y-34714286D01*
X33021371Y-34714286D02*
X32735657Y-34714286D01*
X32735657Y-34714286D02*
X32640419Y-34761905D01*
X32640419Y-34761905D02*
X32592800Y-34809524D01*
X32592800Y-34809524D02*
X32545180Y-34904762D01*
X32545180Y-34904762D02*
X32545180Y-35047619D01*
X33068990Y-33523809D02*
X33068990Y-32761905D01*
X32783276Y-32761905D02*
X32783276Y-33523809D01*
X32545180Y-31095238D02*
X33068990Y-31095238D01*
X33068990Y-31095238D02*
X33164228Y-31142857D01*
X33164228Y-31142857D02*
X33211847Y-31238095D01*
X33211847Y-31238095D02*
X33211847Y-31428571D01*
X33211847Y-31428571D02*
X33164228Y-31523809D01*
X32592800Y-31095238D02*
X32545180Y-31190476D01*
X32545180Y-31190476D02*
X32545180Y-31428571D01*
X32545180Y-31428571D02*
X32592800Y-31523809D01*
X32592800Y-31523809D02*
X32688038Y-31571428D01*
X32688038Y-31571428D02*
X32783276Y-31571428D01*
X32783276Y-31571428D02*
X32878514Y-31523809D01*
X32878514Y-31523809D02*
X32926133Y-31428571D01*
X32926133Y-31428571D02*
X32926133Y-31190476D01*
X32926133Y-31190476D02*
X32973752Y-31095238D01*
X33211847Y-30190476D02*
X32545180Y-30190476D01*
X33211847Y-30619047D02*
X32688038Y-30619047D01*
X32688038Y-30619047D02*
X32592800Y-30571428D01*
X32592800Y-30571428D02*
X32545180Y-30476190D01*
X32545180Y-30476190D02*
X32545180Y-30333333D01*
X32545180Y-30333333D02*
X32592800Y-30238095D01*
X32592800Y-30238095D02*
X32640419Y-30190476D01*
X33211847Y-29857142D02*
X33211847Y-29476190D01*
X33545180Y-29714285D02*
X32688038Y-29714285D01*
X32688038Y-29714285D02*
X32592800Y-29666666D01*
X32592800Y-29666666D02*
X32545180Y-29571428D01*
X32545180Y-29571428D02*
X32545180Y-29476190D01*
X32545180Y-28999999D02*
X32592800Y-29095237D01*
X32592800Y-29095237D02*
X32640419Y-29142856D01*
X32640419Y-29142856D02*
X32735657Y-29190475D01*
X32735657Y-29190475D02*
X33021371Y-29190475D01*
X33021371Y-29190475D02*
X33116609Y-29142856D01*
X33116609Y-29142856D02*
X33164228Y-29095237D01*
X33164228Y-29095237D02*
X33211847Y-28999999D01*
X33211847Y-28999999D02*
X33211847Y-28857142D01*
X33211847Y-28857142D02*
X33164228Y-28761904D01*
X33164228Y-28761904D02*
X33116609Y-28714285D01*
X33116609Y-28714285D02*
X33021371Y-28666666D01*
X33021371Y-28666666D02*
X32735657Y-28666666D01*
X32735657Y-28666666D02*
X32640419Y-28714285D01*
X32640419Y-28714285D02*
X32592800Y-28761904D01*
X32592800Y-28761904D02*
X32545180Y-28857142D01*
X32545180Y-28857142D02*
X32545180Y-28999999D01*
X32926133Y-28238094D02*
X32926133Y-27476190D01*
X32545180Y-26571428D02*
X33545180Y-26571428D01*
X32592800Y-26571428D02*
X32545180Y-26666666D01*
X32545180Y-26666666D02*
X32545180Y-26857142D01*
X32545180Y-26857142D02*
X32592800Y-26952380D01*
X32592800Y-26952380D02*
X32640419Y-26999999D01*
X32640419Y-26999999D02*
X32735657Y-27047618D01*
X32735657Y-27047618D02*
X33021371Y-27047618D01*
X33021371Y-27047618D02*
X33116609Y-26999999D01*
X33116609Y-26999999D02*
X33164228Y-26952380D01*
X33164228Y-26952380D02*
X33211847Y-26857142D01*
X33211847Y-26857142D02*
X33211847Y-26666666D01*
X33211847Y-26666666D02*
X33164228Y-26571428D01*
X32592800Y-25714285D02*
X32545180Y-25809523D01*
X32545180Y-25809523D02*
X32545180Y-25999999D01*
X32545180Y-25999999D02*
X32592800Y-26095237D01*
X32592800Y-26095237D02*
X32688038Y-26142856D01*
X32688038Y-26142856D02*
X33068990Y-26142856D01*
X33068990Y-26142856D02*
X33164228Y-26095237D01*
X33164228Y-26095237D02*
X33211847Y-25999999D01*
X33211847Y-25999999D02*
X33211847Y-25809523D01*
X33211847Y-25809523D02*
X33164228Y-25714285D01*
X33164228Y-25714285D02*
X33068990Y-25666666D01*
X33068990Y-25666666D02*
X32973752Y-25666666D01*
X32973752Y-25666666D02*
X32878514Y-26142856D01*
X32592800Y-25285713D02*
X32545180Y-25190475D01*
X32545180Y-25190475D02*
X32545180Y-24999999D01*
X32545180Y-24999999D02*
X32592800Y-24904761D01*
X32592800Y-24904761D02*
X32688038Y-24857142D01*
X32688038Y-24857142D02*
X32735657Y-24857142D01*
X32735657Y-24857142D02*
X32830895Y-24904761D01*
X32830895Y-24904761D02*
X32878514Y-24999999D01*
X32878514Y-24999999D02*
X32878514Y-25142856D01*
X32878514Y-25142856D02*
X32926133Y-25238094D01*
X32926133Y-25238094D02*
X33021371Y-25285713D01*
X33021371Y-25285713D02*
X33068990Y-25285713D01*
X33068990Y-25285713D02*
X33164228Y-25238094D01*
X33164228Y-25238094D02*
X33211847Y-25142856D01*
X33211847Y-25142856D02*
X33211847Y-24999999D01*
X33211847Y-24999999D02*
X33164228Y-24904761D01*
X32545180Y-23999999D02*
X33068990Y-23999999D01*
X33068990Y-23999999D02*
X33164228Y-24047618D01*
X33164228Y-24047618D02*
X33211847Y-24142856D01*
X33211847Y-24142856D02*
X33211847Y-24333332D01*
X33211847Y-24333332D02*
X33164228Y-24428570D01*
X32592800Y-23999999D02*
X32545180Y-24095237D01*
X32545180Y-24095237D02*
X32545180Y-24333332D01*
X32545180Y-24333332D02*
X32592800Y-24428570D01*
X32592800Y-24428570D02*
X32688038Y-24476189D01*
X32688038Y-24476189D02*
X32783276Y-24476189D01*
X32783276Y-24476189D02*
X32878514Y-24428570D01*
X32878514Y-24428570D02*
X32926133Y-24333332D01*
X32926133Y-24333332D02*
X32926133Y-24095237D01*
X32926133Y-24095237D02*
X32973752Y-23999999D01*
X33211847Y-23666665D02*
X33211847Y-23285713D01*
X33545180Y-23523808D02*
X32688038Y-23523808D01*
X32688038Y-23523808D02*
X32592800Y-23476189D01*
X32592800Y-23476189D02*
X32545180Y-23380951D01*
X32545180Y-23380951D02*
X32545180Y-23285713D01*
X32545180Y-22952379D02*
X33211847Y-22952379D01*
X33545180Y-22952379D02*
X33497561Y-22999998D01*
X33497561Y-22999998D02*
X33449942Y-22952379D01*
X33449942Y-22952379D02*
X33497561Y-22904760D01*
X33497561Y-22904760D02*
X33545180Y-22952379D01*
X33545180Y-22952379D02*
X33449942Y-22952379D01*
X33211847Y-22571427D02*
X32545180Y-22333332D01*
X32545180Y-22333332D02*
X33211847Y-22095237D01*
X32545180Y-21285713D02*
X33068990Y-21285713D01*
X33068990Y-21285713D02*
X33164228Y-21333332D01*
X33164228Y-21333332D02*
X33211847Y-21428570D01*
X33211847Y-21428570D02*
X33211847Y-21619046D01*
X33211847Y-21619046D02*
X33164228Y-21714284D01*
X32592800Y-21285713D02*
X32545180Y-21380951D01*
X32545180Y-21380951D02*
X32545180Y-21619046D01*
X32545180Y-21619046D02*
X32592800Y-21714284D01*
X32592800Y-21714284D02*
X32688038Y-21761903D01*
X32688038Y-21761903D02*
X32783276Y-21761903D01*
X32783276Y-21761903D02*
X32878514Y-21714284D01*
X32878514Y-21714284D02*
X32926133Y-21619046D01*
X32926133Y-21619046D02*
X32926133Y-21380951D01*
X32926133Y-21380951D02*
X32973752Y-21285713D01*
X32545180Y-19619046D02*
X33068990Y-19619046D01*
X33068990Y-19619046D02*
X33164228Y-19666665D01*
X33164228Y-19666665D02*
X33211847Y-19761903D01*
X33211847Y-19761903D02*
X33211847Y-19952379D01*
X33211847Y-19952379D02*
X33164228Y-20047617D01*
X32592800Y-19619046D02*
X32545180Y-19714284D01*
X32545180Y-19714284D02*
X32545180Y-19952379D01*
X32545180Y-19952379D02*
X32592800Y-20047617D01*
X32592800Y-20047617D02*
X32688038Y-20095236D01*
X32688038Y-20095236D02*
X32783276Y-20095236D01*
X32783276Y-20095236D02*
X32878514Y-20047617D01*
X32878514Y-20047617D02*
X32926133Y-19952379D01*
X32926133Y-19952379D02*
X32926133Y-19714284D01*
X32926133Y-19714284D02*
X32973752Y-19619046D01*
X32545180Y-17809522D02*
X33021371Y-18142855D01*
X32545180Y-18380950D02*
X33545180Y-18380950D01*
X33545180Y-18380950D02*
X33545180Y-17999998D01*
X33545180Y-17999998D02*
X33497561Y-17904760D01*
X33497561Y-17904760D02*
X33449942Y-17857141D01*
X33449942Y-17857141D02*
X33354704Y-17809522D01*
X33354704Y-17809522D02*
X33211847Y-17809522D01*
X33211847Y-17809522D02*
X33116609Y-17857141D01*
X33116609Y-17857141D02*
X33068990Y-17904760D01*
X33068990Y-17904760D02*
X33021371Y-17999998D01*
X33021371Y-17999998D02*
X33021371Y-18380950D01*
X32830895Y-17428569D02*
X32830895Y-16952379D01*
X32545180Y-17523807D02*
X33545180Y-17190474D01*
X33545180Y-17190474D02*
X32545180Y-16857141D01*
X32545180Y-16523807D02*
X33545180Y-16523807D01*
X33545180Y-16523807D02*
X32830895Y-16190474D01*
X32830895Y-16190474D02*
X33545180Y-15857141D01*
X33545180Y-15857141D02*
X32545180Y-15857141D01*
X32545180Y-14190474D02*
X33545180Y-14190474D01*
X32592800Y-14190474D02*
X32545180Y-14285712D01*
X32545180Y-14285712D02*
X32545180Y-14476188D01*
X32545180Y-14476188D02*
X32592800Y-14571426D01*
X32592800Y-14571426D02*
X32640419Y-14619045D01*
X32640419Y-14619045D02*
X32735657Y-14666664D01*
X32735657Y-14666664D02*
X33021371Y-14666664D01*
X33021371Y-14666664D02*
X33116609Y-14619045D01*
X33116609Y-14619045D02*
X33164228Y-14571426D01*
X33164228Y-14571426D02*
X33211847Y-14476188D01*
X33211847Y-14476188D02*
X33211847Y-14285712D01*
X33211847Y-14285712D02*
X33164228Y-14190474D01*
X32592800Y-13333331D02*
X32545180Y-13428569D01*
X32545180Y-13428569D02*
X32545180Y-13619045D01*
X32545180Y-13619045D02*
X32592800Y-13714283D01*
X32592800Y-13714283D02*
X32688038Y-13761902D01*
X32688038Y-13761902D02*
X33068990Y-13761902D01*
X33068990Y-13761902D02*
X33164228Y-13714283D01*
X33164228Y-13714283D02*
X33211847Y-13619045D01*
X33211847Y-13619045D02*
X33211847Y-13428569D01*
X33211847Y-13428569D02*
X33164228Y-13333331D01*
X33164228Y-13333331D02*
X33068990Y-13285712D01*
X33068990Y-13285712D02*
X32973752Y-13285712D01*
X32973752Y-13285712D02*
X32878514Y-13761902D01*
X33545180Y-12190473D02*
X33545180Y-11571426D01*
X33545180Y-11571426D02*
X33164228Y-11904759D01*
X33164228Y-11904759D02*
X33164228Y-11761902D01*
X33164228Y-11761902D02*
X33116609Y-11666664D01*
X33116609Y-11666664D02*
X33068990Y-11619045D01*
X33068990Y-11619045D02*
X32973752Y-11571426D01*
X32973752Y-11571426D02*
X32735657Y-11571426D01*
X32735657Y-11571426D02*
X32640419Y-11619045D01*
X32640419Y-11619045D02*
X32592800Y-11666664D01*
X32592800Y-11666664D02*
X32545180Y-11761902D01*
X32545180Y-11761902D02*
X32545180Y-12047616D01*
X32545180Y-12047616D02*
X32592800Y-12142854D01*
X32592800Y-12142854D02*
X32640419Y-12190473D01*
X33449942Y-11190473D02*
X33497561Y-11142854D01*
X33497561Y-11142854D02*
X33545180Y-11047616D01*
X33545180Y-11047616D02*
X33545180Y-10809521D01*
X33545180Y-10809521D02*
X33497561Y-10714283D01*
X33497561Y-10714283D02*
X33449942Y-10666664D01*
X33449942Y-10666664D02*
X33354704Y-10619045D01*
X33354704Y-10619045D02*
X33259466Y-10619045D01*
X33259466Y-10619045D02*
X33116609Y-10666664D01*
X33116609Y-10666664D02*
X32545180Y-11238092D01*
X32545180Y-11238092D02*
X32545180Y-10619045D01*
X32545180Y-10190473D02*
X33545180Y-10190473D01*
X32545180Y-9619045D02*
X33116609Y-10047616D01*
X33545180Y-9619045D02*
X32973752Y-10190473D01*
X32545180Y-7999997D02*
X33545180Y-7999997D01*
X32592800Y-7999997D02*
X32545180Y-8095235D01*
X32545180Y-8095235D02*
X32545180Y-8285711D01*
X32545180Y-8285711D02*
X32592800Y-8380949D01*
X32592800Y-8380949D02*
X32640419Y-8428568D01*
X32640419Y-8428568D02*
X32735657Y-8476187D01*
X32735657Y-8476187D02*
X33021371Y-8476187D01*
X33021371Y-8476187D02*
X33116609Y-8428568D01*
X33116609Y-8428568D02*
X33164228Y-8380949D01*
X33164228Y-8380949D02*
X33211847Y-8285711D01*
X33211847Y-8285711D02*
X33211847Y-8095235D01*
X33211847Y-8095235D02*
X33164228Y-7999997D01*
X32545180Y-7380949D02*
X32592800Y-7476187D01*
X32592800Y-7476187D02*
X32640419Y-7523806D01*
X32640419Y-7523806D02*
X32735657Y-7571425D01*
X32735657Y-7571425D02*
X33021371Y-7571425D01*
X33021371Y-7571425D02*
X33116609Y-7523806D01*
X33116609Y-7523806D02*
X33164228Y-7476187D01*
X33164228Y-7476187D02*
X33211847Y-7380949D01*
X33211847Y-7380949D02*
X33211847Y-7238092D01*
X33211847Y-7238092D02*
X33164228Y-7142854D01*
X33164228Y-7142854D02*
X33116609Y-7095235D01*
X33116609Y-7095235D02*
X33021371Y-7047616D01*
X33021371Y-7047616D02*
X32735657Y-7047616D01*
X32735657Y-7047616D02*
X32640419Y-7095235D01*
X32640419Y-7095235D02*
X32592800Y-7142854D01*
X32592800Y-7142854D02*
X32545180Y-7238092D01*
X32545180Y-7238092D02*
X32545180Y-7380949D01*
X33545180Y-5999996D02*
X33545180Y-5428568D01*
X32545180Y-5714282D02*
X33545180Y-5714282D01*
X32545180Y-5095234D02*
X33545180Y-5095234D01*
X32545180Y-4523806D02*
X33116609Y-4952377D01*
X33545180Y-4523806D02*
X32973752Y-5095234D01*
X38545180Y-44394177D02*
X37830895Y-44394177D01*
X37830895Y-44394177D02*
X37688038Y-44441796D01*
X37688038Y-44441796D02*
X37592800Y-44537034D01*
X37592800Y-44537034D02*
X37545180Y-44679891D01*
X37545180Y-44679891D02*
X37545180Y-44775129D01*
X37545180Y-43917986D02*
X38545180Y-43917986D01*
X38545180Y-43917986D02*
X38545180Y-43537034D01*
X38545180Y-43537034D02*
X38497561Y-43441796D01*
X38497561Y-43441796D02*
X38449942Y-43394177D01*
X38449942Y-43394177D02*
X38354704Y-43346558D01*
X38354704Y-43346558D02*
X38211847Y-43346558D01*
X38211847Y-43346558D02*
X38116609Y-43394177D01*
X38116609Y-43394177D02*
X38068990Y-43441796D01*
X38068990Y-43441796D02*
X38021371Y-43537034D01*
X38021371Y-43537034D02*
X38021371Y-43917986D01*
X38545180Y-43013224D02*
X38545180Y-42394177D01*
X38545180Y-42394177D02*
X38164228Y-42727510D01*
X38164228Y-42727510D02*
X38164228Y-42584653D01*
X38164228Y-42584653D02*
X38116609Y-42489415D01*
X38116609Y-42489415D02*
X38068990Y-42441796D01*
X38068990Y-42441796D02*
X37973752Y-42394177D01*
X37973752Y-42394177D02*
X37735657Y-42394177D01*
X37735657Y-42394177D02*
X37640419Y-42441796D01*
X37640419Y-42441796D02*
X37592800Y-42489415D01*
X37592800Y-42489415D02*
X37545180Y-42584653D01*
X37545180Y-42584653D02*
X37545180Y-42870367D01*
X37545180Y-42870367D02*
X37592800Y-42965605D01*
X37592800Y-42965605D02*
X37640419Y-43013224D01*
X38211847Y-40584652D02*
X38211847Y-40203700D01*
X37545180Y-40441795D02*
X38402323Y-40441795D01*
X38402323Y-40441795D02*
X38497561Y-40394176D01*
X38497561Y-40394176D02*
X38545180Y-40298938D01*
X38545180Y-40298938D02*
X38545180Y-40203700D01*
X37592800Y-39489414D02*
X37545180Y-39584652D01*
X37545180Y-39584652D02*
X37545180Y-39775128D01*
X37545180Y-39775128D02*
X37592800Y-39870366D01*
X37592800Y-39870366D02*
X37688038Y-39917985D01*
X37688038Y-39917985D02*
X38068990Y-39917985D01*
X38068990Y-39917985D02*
X38164228Y-39870366D01*
X38164228Y-39870366D02*
X38211847Y-39775128D01*
X38211847Y-39775128D02*
X38211847Y-39584652D01*
X38211847Y-39584652D02*
X38164228Y-39489414D01*
X38164228Y-39489414D02*
X38068990Y-39441795D01*
X38068990Y-39441795D02*
X37973752Y-39441795D01*
X37973752Y-39441795D02*
X37878514Y-39917985D01*
X37592800Y-38584652D02*
X37545180Y-38679890D01*
X37545180Y-38679890D02*
X37545180Y-38870366D01*
X37545180Y-38870366D02*
X37592800Y-38965604D01*
X37592800Y-38965604D02*
X37640419Y-39013223D01*
X37640419Y-39013223D02*
X37735657Y-39060842D01*
X37735657Y-39060842D02*
X38021371Y-39060842D01*
X38021371Y-39060842D02*
X38116609Y-39013223D01*
X38116609Y-39013223D02*
X38164228Y-38965604D01*
X38164228Y-38965604D02*
X38211847Y-38870366D01*
X38211847Y-38870366D02*
X38211847Y-38679890D01*
X38211847Y-38679890D02*
X38164228Y-38584652D01*
X37545180Y-38156080D02*
X38545180Y-38156080D01*
X37545180Y-37727509D02*
X38068990Y-37727509D01*
X38068990Y-37727509D02*
X38164228Y-37775128D01*
X38164228Y-37775128D02*
X38211847Y-37870366D01*
X38211847Y-37870366D02*
X38211847Y-38013223D01*
X38211847Y-38013223D02*
X38164228Y-38108461D01*
X38164228Y-38108461D02*
X38116609Y-38156080D01*
X37545180Y-36822747D02*
X38068990Y-36822747D01*
X38068990Y-36822747D02*
X38164228Y-36870366D01*
X38164228Y-36870366D02*
X38211847Y-36965604D01*
X38211847Y-36965604D02*
X38211847Y-37156080D01*
X38211847Y-37156080D02*
X38164228Y-37251318D01*
X37592800Y-36822747D02*
X37545180Y-36917985D01*
X37545180Y-36917985D02*
X37545180Y-37156080D01*
X37545180Y-37156080D02*
X37592800Y-37251318D01*
X37592800Y-37251318D02*
X37688038Y-37298937D01*
X37688038Y-37298937D02*
X37783276Y-37298937D01*
X37783276Y-37298937D02*
X37878514Y-37251318D01*
X37878514Y-37251318D02*
X37926133Y-37156080D01*
X37926133Y-37156080D02*
X37926133Y-36917985D01*
X37926133Y-36917985D02*
X37973752Y-36822747D01*
X37545180Y-35917985D02*
X38545180Y-35917985D01*
X37592800Y-35917985D02*
X37545180Y-36013223D01*
X37545180Y-36013223D02*
X37545180Y-36203699D01*
X37545180Y-36203699D02*
X37592800Y-36298937D01*
X37592800Y-36298937D02*
X37640419Y-36346556D01*
X37640419Y-36346556D02*
X37735657Y-36394175D01*
X37735657Y-36394175D02*
X38021371Y-36394175D01*
X38021371Y-36394175D02*
X38116609Y-36346556D01*
X38116609Y-36346556D02*
X38164228Y-36298937D01*
X38164228Y-36298937D02*
X38211847Y-36203699D01*
X38211847Y-36203699D02*
X38211847Y-36013223D01*
X38211847Y-36013223D02*
X38164228Y-35917985D01*
X37545180Y-35298937D02*
X37592800Y-35394175D01*
X37592800Y-35394175D02*
X37640419Y-35441794D01*
X37640419Y-35441794D02*
X37735657Y-35489413D01*
X37735657Y-35489413D02*
X38021371Y-35489413D01*
X38021371Y-35489413D02*
X38116609Y-35441794D01*
X38116609Y-35441794D02*
X38164228Y-35394175D01*
X38164228Y-35394175D02*
X38211847Y-35298937D01*
X38211847Y-35298937D02*
X38211847Y-35156080D01*
X38211847Y-35156080D02*
X38164228Y-35060842D01*
X38164228Y-35060842D02*
X38116609Y-35013223D01*
X38116609Y-35013223D02*
X38021371Y-34965604D01*
X38021371Y-34965604D02*
X37735657Y-34965604D01*
X37735657Y-34965604D02*
X37640419Y-35013223D01*
X37640419Y-35013223D02*
X37592800Y-35060842D01*
X37592800Y-35060842D02*
X37545180Y-35156080D01*
X37545180Y-35156080D02*
X37545180Y-35298937D01*
X38068990Y-33775127D02*
X38068990Y-33013223D01*
X37783276Y-33013223D02*
X37783276Y-33775127D01*
X38545180Y-31298937D02*
X38545180Y-31775127D01*
X38545180Y-31775127D02*
X38068990Y-31822746D01*
X38068990Y-31822746D02*
X38116609Y-31775127D01*
X38116609Y-31775127D02*
X38164228Y-31679889D01*
X38164228Y-31679889D02*
X38164228Y-31441794D01*
X38164228Y-31441794D02*
X38116609Y-31346556D01*
X38116609Y-31346556D02*
X38068990Y-31298937D01*
X38068990Y-31298937D02*
X37973752Y-31251318D01*
X37973752Y-31251318D02*
X37735657Y-31251318D01*
X37735657Y-31251318D02*
X37640419Y-31298937D01*
X37640419Y-31298937D02*
X37592800Y-31346556D01*
X37592800Y-31346556D02*
X37545180Y-31441794D01*
X37545180Y-31441794D02*
X37545180Y-31679889D01*
X37545180Y-31679889D02*
X37592800Y-31775127D01*
X37592800Y-31775127D02*
X37640419Y-31822746D01*
X37545180Y-30298937D02*
X37545180Y-30870365D01*
X37545180Y-30584651D02*
X38545180Y-30584651D01*
X38545180Y-30584651D02*
X38402323Y-30679889D01*
X38402323Y-30679889D02*
X38307085Y-30775127D01*
X38307085Y-30775127D02*
X38259466Y-30870365D01*
X38449942Y-29917984D02*
X38497561Y-29870365D01*
X38497561Y-29870365D02*
X38545180Y-29775127D01*
X38545180Y-29775127D02*
X38545180Y-29537032D01*
X38545180Y-29537032D02*
X38497561Y-29441794D01*
X38497561Y-29441794D02*
X38449942Y-29394175D01*
X38449942Y-29394175D02*
X38354704Y-29346556D01*
X38354704Y-29346556D02*
X38259466Y-29346556D01*
X38259466Y-29346556D02*
X38116609Y-29394175D01*
X38116609Y-29394175D02*
X37545180Y-29965603D01*
X37545180Y-29965603D02*
X37545180Y-29346556D01*
X37545180Y-28917984D02*
X38545180Y-28917984D01*
X37545180Y-28346556D02*
X38116609Y-28775127D01*
X38545180Y-28346556D02*
X37973752Y-28917984D01*
X37164228Y-26870365D02*
X37211847Y-26917984D01*
X37211847Y-26917984D02*
X37354704Y-27013222D01*
X37354704Y-27013222D02*
X37449942Y-27060841D01*
X37449942Y-27060841D02*
X37592800Y-27108460D01*
X37592800Y-27108460D02*
X37830895Y-27156079D01*
X37830895Y-27156079D02*
X38021371Y-27156079D01*
X38021371Y-27156079D02*
X38259466Y-27108460D01*
X38259466Y-27108460D02*
X38402323Y-27060841D01*
X38402323Y-27060841D02*
X38497561Y-27013222D01*
X38497561Y-27013222D02*
X38640419Y-26917984D01*
X38640419Y-26917984D02*
X38688038Y-26870365D01*
X37830895Y-26537031D02*
X37830895Y-26060841D01*
X37545180Y-26632269D02*
X38545180Y-26298936D01*
X38545180Y-26298936D02*
X37545180Y-25965603D01*
X37592800Y-25679888D02*
X37545180Y-25537031D01*
X37545180Y-25537031D02*
X37545180Y-25298936D01*
X37545180Y-25298936D02*
X37592800Y-25203698D01*
X37592800Y-25203698D02*
X37640419Y-25156079D01*
X37640419Y-25156079D02*
X37735657Y-25108460D01*
X37735657Y-25108460D02*
X37830895Y-25108460D01*
X37830895Y-25108460D02*
X37926133Y-25156079D01*
X37926133Y-25156079D02*
X37973752Y-25203698D01*
X37973752Y-25203698D02*
X38021371Y-25298936D01*
X38021371Y-25298936D02*
X38068990Y-25489412D01*
X38068990Y-25489412D02*
X38116609Y-25584650D01*
X38116609Y-25584650D02*
X38164228Y-25632269D01*
X38164228Y-25632269D02*
X38259466Y-25679888D01*
X38259466Y-25679888D02*
X38354704Y-25679888D01*
X38354704Y-25679888D02*
X38449942Y-25632269D01*
X38449942Y-25632269D02*
X38497561Y-25584650D01*
X38497561Y-25584650D02*
X38545180Y-25489412D01*
X38545180Y-25489412D02*
X38545180Y-25251317D01*
X38545180Y-25251317D02*
X38497561Y-25108460D01*
X38545180Y-24251317D02*
X38545180Y-24441793D01*
X38545180Y-24441793D02*
X38497561Y-24537031D01*
X38497561Y-24537031D02*
X38449942Y-24584650D01*
X38449942Y-24584650D02*
X38307085Y-24679888D01*
X38307085Y-24679888D02*
X38116609Y-24727507D01*
X38116609Y-24727507D02*
X37735657Y-24727507D01*
X37735657Y-24727507D02*
X37640419Y-24679888D01*
X37640419Y-24679888D02*
X37592800Y-24632269D01*
X37592800Y-24632269D02*
X37545180Y-24537031D01*
X37545180Y-24537031D02*
X37545180Y-24346555D01*
X37545180Y-24346555D02*
X37592800Y-24251317D01*
X37592800Y-24251317D02*
X37640419Y-24203698D01*
X37640419Y-24203698D02*
X37735657Y-24156079D01*
X37735657Y-24156079D02*
X37973752Y-24156079D01*
X37973752Y-24156079D02*
X38068990Y-24203698D01*
X38068990Y-24203698D02*
X38116609Y-24251317D01*
X38116609Y-24251317D02*
X38164228Y-24346555D01*
X38164228Y-24346555D02*
X38164228Y-24537031D01*
X38164228Y-24537031D02*
X38116609Y-24632269D01*
X38116609Y-24632269D02*
X38068990Y-24679888D01*
X38068990Y-24679888D02*
X37973752Y-24727507D01*
X37640419Y-23156079D02*
X37592800Y-23203698D01*
X37592800Y-23203698D02*
X37545180Y-23346555D01*
X37545180Y-23346555D02*
X37545180Y-23441793D01*
X37545180Y-23441793D02*
X37592800Y-23584650D01*
X37592800Y-23584650D02*
X37688038Y-23679888D01*
X37688038Y-23679888D02*
X37783276Y-23727507D01*
X37783276Y-23727507D02*
X37973752Y-23775126D01*
X37973752Y-23775126D02*
X38116609Y-23775126D01*
X38116609Y-23775126D02*
X38307085Y-23727507D01*
X38307085Y-23727507D02*
X38402323Y-23679888D01*
X38402323Y-23679888D02*
X38497561Y-23584650D01*
X38497561Y-23584650D02*
X38545180Y-23441793D01*
X38545180Y-23441793D02*
X38545180Y-23346555D01*
X38545180Y-23346555D02*
X38497561Y-23203698D01*
X38497561Y-23203698D02*
X38449942Y-23156079D01*
X38211847Y-22298936D02*
X37545180Y-22298936D01*
X38592800Y-22537031D02*
X37878514Y-22775126D01*
X37878514Y-22775126D02*
X37878514Y-22156079D01*
X38545180Y-21584650D02*
X38545180Y-21489412D01*
X38545180Y-21489412D02*
X38497561Y-21394174D01*
X38497561Y-21394174D02*
X38449942Y-21346555D01*
X38449942Y-21346555D02*
X38354704Y-21298936D01*
X38354704Y-21298936D02*
X38164228Y-21251317D01*
X38164228Y-21251317D02*
X37926133Y-21251317D01*
X37926133Y-21251317D02*
X37735657Y-21298936D01*
X37735657Y-21298936D02*
X37640419Y-21346555D01*
X37640419Y-21346555D02*
X37592800Y-21394174D01*
X37592800Y-21394174D02*
X37545180Y-21489412D01*
X37545180Y-21489412D02*
X37545180Y-21584650D01*
X37545180Y-21584650D02*
X37592800Y-21679888D01*
X37592800Y-21679888D02*
X37640419Y-21727507D01*
X37640419Y-21727507D02*
X37735657Y-21775126D01*
X37735657Y-21775126D02*
X37926133Y-21822745D01*
X37926133Y-21822745D02*
X38164228Y-21822745D01*
X38164228Y-21822745D02*
X38354704Y-21775126D01*
X38354704Y-21775126D02*
X38449942Y-21727507D01*
X38449942Y-21727507D02*
X38497561Y-21679888D01*
X38497561Y-21679888D02*
X38545180Y-21584650D01*
X38545180Y-20632269D02*
X38545180Y-20537031D01*
X38545180Y-20537031D02*
X38497561Y-20441793D01*
X38497561Y-20441793D02*
X38449942Y-20394174D01*
X38449942Y-20394174D02*
X38354704Y-20346555D01*
X38354704Y-20346555D02*
X38164228Y-20298936D01*
X38164228Y-20298936D02*
X37926133Y-20298936D01*
X37926133Y-20298936D02*
X37735657Y-20346555D01*
X37735657Y-20346555D02*
X37640419Y-20394174D01*
X37640419Y-20394174D02*
X37592800Y-20441793D01*
X37592800Y-20441793D02*
X37545180Y-20537031D01*
X37545180Y-20537031D02*
X37545180Y-20632269D01*
X37545180Y-20632269D02*
X37592800Y-20727507D01*
X37592800Y-20727507D02*
X37640419Y-20775126D01*
X37640419Y-20775126D02*
X37735657Y-20822745D01*
X37735657Y-20822745D02*
X37926133Y-20870364D01*
X37926133Y-20870364D02*
X38164228Y-20870364D01*
X38164228Y-20870364D02*
X38354704Y-20822745D01*
X38354704Y-20822745D02*
X38449942Y-20775126D01*
X38449942Y-20775126D02*
X38497561Y-20727507D01*
X38497561Y-20727507D02*
X38545180Y-20632269D01*
X38116609Y-19727507D02*
X38164228Y-19822745D01*
X38164228Y-19822745D02*
X38211847Y-19870364D01*
X38211847Y-19870364D02*
X38307085Y-19917983D01*
X38307085Y-19917983D02*
X38354704Y-19917983D01*
X38354704Y-19917983D02*
X38449942Y-19870364D01*
X38449942Y-19870364D02*
X38497561Y-19822745D01*
X38497561Y-19822745D02*
X38545180Y-19727507D01*
X38545180Y-19727507D02*
X38545180Y-19537031D01*
X38545180Y-19537031D02*
X38497561Y-19441793D01*
X38497561Y-19441793D02*
X38449942Y-19394174D01*
X38449942Y-19394174D02*
X38354704Y-19346555D01*
X38354704Y-19346555D02*
X38307085Y-19346555D01*
X38307085Y-19346555D02*
X38211847Y-19394174D01*
X38211847Y-19394174D02*
X38164228Y-19441793D01*
X38164228Y-19441793D02*
X38116609Y-19537031D01*
X38116609Y-19537031D02*
X38116609Y-19727507D01*
X38116609Y-19727507D02*
X38068990Y-19822745D01*
X38068990Y-19822745D02*
X38021371Y-19870364D01*
X38021371Y-19870364D02*
X37926133Y-19917983D01*
X37926133Y-19917983D02*
X37735657Y-19917983D01*
X37735657Y-19917983D02*
X37640419Y-19870364D01*
X37640419Y-19870364D02*
X37592800Y-19822745D01*
X37592800Y-19822745D02*
X37545180Y-19727507D01*
X37545180Y-19727507D02*
X37545180Y-19537031D01*
X37545180Y-19537031D02*
X37592800Y-19441793D01*
X37592800Y-19441793D02*
X37640419Y-19394174D01*
X37640419Y-19394174D02*
X37735657Y-19346555D01*
X37735657Y-19346555D02*
X37926133Y-19346555D01*
X37926133Y-19346555D02*
X38021371Y-19394174D01*
X38021371Y-19394174D02*
X38068990Y-19441793D01*
X38068990Y-19441793D02*
X38116609Y-19537031D01*
X37164228Y-19013221D02*
X37211847Y-18965602D01*
X37211847Y-18965602D02*
X37354704Y-18870364D01*
X37354704Y-18870364D02*
X37449942Y-18822745D01*
X37449942Y-18822745D02*
X37592800Y-18775126D01*
X37592800Y-18775126D02*
X37830895Y-18727507D01*
X37830895Y-18727507D02*
X38021371Y-18727507D01*
X38021371Y-18727507D02*
X38259466Y-18775126D01*
X38259466Y-18775126D02*
X38402323Y-18822745D01*
X38402323Y-18822745D02*
X38497561Y-18870364D01*
X38497561Y-18870364D02*
X38640419Y-18965602D01*
X38640419Y-18965602D02*
X38688038Y-19013221D01*
X63045180Y-52738098D02*
X62330895Y-52738098D01*
X62330895Y-52738098D02*
X62188038Y-52785717D01*
X62188038Y-52785717D02*
X62092800Y-52880955D01*
X62092800Y-52880955D02*
X62045180Y-53023812D01*
X62045180Y-53023812D02*
X62045180Y-53119050D01*
X62045180Y-52261907D02*
X63045180Y-52261907D01*
X63045180Y-52261907D02*
X63045180Y-51880955D01*
X63045180Y-51880955D02*
X62997561Y-51785717D01*
X62997561Y-51785717D02*
X62949942Y-51738098D01*
X62949942Y-51738098D02*
X62854704Y-51690479D01*
X62854704Y-51690479D02*
X62711847Y-51690479D01*
X62711847Y-51690479D02*
X62616609Y-51738098D01*
X62616609Y-51738098D02*
X62568990Y-51785717D01*
X62568990Y-51785717D02*
X62521371Y-51880955D01*
X62521371Y-51880955D02*
X62521371Y-52261907D01*
X62949942Y-51309526D02*
X62997561Y-51261907D01*
X62997561Y-51261907D02*
X63045180Y-51166669D01*
X63045180Y-51166669D02*
X63045180Y-50928574D01*
X63045180Y-50928574D02*
X62997561Y-50833336D01*
X62997561Y-50833336D02*
X62949942Y-50785717D01*
X62949942Y-50785717D02*
X62854704Y-50738098D01*
X62854704Y-50738098D02*
X62759466Y-50738098D01*
X62759466Y-50738098D02*
X62616609Y-50785717D01*
X62616609Y-50785717D02*
X62045180Y-51357145D01*
X62045180Y-51357145D02*
X62045180Y-50738098D01*
X62045180Y-48357145D02*
X62568990Y-48357145D01*
X62568990Y-48357145D02*
X62664228Y-48404764D01*
X62664228Y-48404764D02*
X62711847Y-48500002D01*
X62711847Y-48500002D02*
X62711847Y-48690478D01*
X62711847Y-48690478D02*
X62664228Y-48785716D01*
X62092800Y-48357145D02*
X62045180Y-48452383D01*
X62045180Y-48452383D02*
X62045180Y-48690478D01*
X62045180Y-48690478D02*
X62092800Y-48785716D01*
X62092800Y-48785716D02*
X62188038Y-48833335D01*
X62188038Y-48833335D02*
X62283276Y-48833335D01*
X62283276Y-48833335D02*
X62378514Y-48785716D01*
X62378514Y-48785716D02*
X62426133Y-48690478D01*
X62426133Y-48690478D02*
X62426133Y-48452383D01*
X62426133Y-48452383D02*
X62473752Y-48357145D01*
X62045180Y-47880954D02*
X63045180Y-47880954D01*
X62664228Y-47880954D02*
X62711847Y-47785716D01*
X62711847Y-47785716D02*
X62711847Y-47595240D01*
X62711847Y-47595240D02*
X62664228Y-47500002D01*
X62664228Y-47500002D02*
X62616609Y-47452383D01*
X62616609Y-47452383D02*
X62521371Y-47404764D01*
X62521371Y-47404764D02*
X62235657Y-47404764D01*
X62235657Y-47404764D02*
X62140419Y-47452383D01*
X62140419Y-47452383D02*
X62092800Y-47500002D01*
X62092800Y-47500002D02*
X62045180Y-47595240D01*
X62045180Y-47595240D02*
X62045180Y-47785716D01*
X62045180Y-47785716D02*
X62092800Y-47880954D01*
X62092800Y-46595240D02*
X62045180Y-46690478D01*
X62045180Y-46690478D02*
X62045180Y-46880954D01*
X62045180Y-46880954D02*
X62092800Y-46976192D01*
X62092800Y-46976192D02*
X62188038Y-47023811D01*
X62188038Y-47023811D02*
X62568990Y-47023811D01*
X62568990Y-47023811D02*
X62664228Y-46976192D01*
X62664228Y-46976192D02*
X62711847Y-46880954D01*
X62711847Y-46880954D02*
X62711847Y-46690478D01*
X62711847Y-46690478D02*
X62664228Y-46595240D01*
X62664228Y-46595240D02*
X62568990Y-46547621D01*
X62568990Y-46547621D02*
X62473752Y-46547621D01*
X62473752Y-46547621D02*
X62378514Y-47023811D01*
X62045180Y-46119049D02*
X62711847Y-46119049D01*
X62521371Y-46119049D02*
X62616609Y-46071430D01*
X62616609Y-46071430D02*
X62664228Y-46023811D01*
X62664228Y-46023811D02*
X62711847Y-45928573D01*
X62711847Y-45928573D02*
X62711847Y-45833335D01*
X62711847Y-45642858D02*
X62711847Y-45261906D01*
X63045180Y-45500001D02*
X62188038Y-45500001D01*
X62188038Y-45500001D02*
X62092800Y-45452382D01*
X62092800Y-45452382D02*
X62045180Y-45357144D01*
X62045180Y-45357144D02*
X62045180Y-45261906D01*
X62045180Y-44785715D02*
X62092800Y-44880953D01*
X62092800Y-44880953D02*
X62140419Y-44928572D01*
X62140419Y-44928572D02*
X62235657Y-44976191D01*
X62235657Y-44976191D02*
X62521371Y-44976191D01*
X62521371Y-44976191D02*
X62616609Y-44928572D01*
X62616609Y-44928572D02*
X62664228Y-44880953D01*
X62664228Y-44880953D02*
X62711847Y-44785715D01*
X62711847Y-44785715D02*
X62711847Y-44642858D01*
X62711847Y-44642858D02*
X62664228Y-44547620D01*
X62664228Y-44547620D02*
X62616609Y-44500001D01*
X62616609Y-44500001D02*
X62521371Y-44452382D01*
X62521371Y-44452382D02*
X62235657Y-44452382D01*
X62235657Y-44452382D02*
X62140419Y-44500001D01*
X62140419Y-44500001D02*
X62092800Y-44547620D01*
X62092800Y-44547620D02*
X62045180Y-44642858D01*
X62045180Y-44642858D02*
X62045180Y-44785715D01*
X62568990Y-43261905D02*
X62568990Y-42500001D01*
X62283276Y-42500001D02*
X62283276Y-43261905D01*
X62045180Y-40690477D02*
X62521371Y-41023810D01*
X62045180Y-41261905D02*
X63045180Y-41261905D01*
X63045180Y-41261905D02*
X63045180Y-40880953D01*
X63045180Y-40880953D02*
X62997561Y-40785715D01*
X62997561Y-40785715D02*
X62949942Y-40738096D01*
X62949942Y-40738096D02*
X62854704Y-40690477D01*
X62854704Y-40690477D02*
X62711847Y-40690477D01*
X62711847Y-40690477D02*
X62616609Y-40738096D01*
X62616609Y-40738096D02*
X62568990Y-40785715D01*
X62568990Y-40785715D02*
X62521371Y-40880953D01*
X62521371Y-40880953D02*
X62521371Y-41261905D01*
X63045180Y-40071429D02*
X63045180Y-39880953D01*
X63045180Y-39880953D02*
X62997561Y-39785715D01*
X62997561Y-39785715D02*
X62902323Y-39690477D01*
X62902323Y-39690477D02*
X62711847Y-39642858D01*
X62711847Y-39642858D02*
X62378514Y-39642858D01*
X62378514Y-39642858D02*
X62188038Y-39690477D01*
X62188038Y-39690477D02*
X62092800Y-39785715D01*
X62092800Y-39785715D02*
X62045180Y-39880953D01*
X62045180Y-39880953D02*
X62045180Y-40071429D01*
X62045180Y-40071429D02*
X62092800Y-40166667D01*
X62092800Y-40166667D02*
X62188038Y-40261905D01*
X62188038Y-40261905D02*
X62378514Y-40309524D01*
X62378514Y-40309524D02*
X62711847Y-40309524D01*
X62711847Y-40309524D02*
X62902323Y-40261905D01*
X62902323Y-40261905D02*
X62997561Y-40166667D01*
X62997561Y-40166667D02*
X63045180Y-40071429D01*
X62045180Y-39214286D02*
X63045180Y-39214286D01*
X63045180Y-39214286D02*
X62330895Y-38880953D01*
X62330895Y-38880953D02*
X63045180Y-38547620D01*
X63045180Y-38547620D02*
X62045180Y-38547620D01*
X62045180Y-36880953D02*
X63045180Y-36880953D01*
X62092800Y-36880953D02*
X62045180Y-36976191D01*
X62045180Y-36976191D02*
X62045180Y-37166667D01*
X62045180Y-37166667D02*
X62092800Y-37261905D01*
X62092800Y-37261905D02*
X62140419Y-37309524D01*
X62140419Y-37309524D02*
X62235657Y-37357143D01*
X62235657Y-37357143D02*
X62521371Y-37357143D01*
X62521371Y-37357143D02*
X62616609Y-37309524D01*
X62616609Y-37309524D02*
X62664228Y-37261905D01*
X62664228Y-37261905D02*
X62711847Y-37166667D01*
X62711847Y-37166667D02*
X62711847Y-36976191D01*
X62711847Y-36976191D02*
X62664228Y-36880953D01*
X62045180Y-36261905D02*
X62092800Y-36357143D01*
X62092800Y-36357143D02*
X62140419Y-36404762D01*
X62140419Y-36404762D02*
X62235657Y-36452381D01*
X62235657Y-36452381D02*
X62521371Y-36452381D01*
X62521371Y-36452381D02*
X62616609Y-36404762D01*
X62616609Y-36404762D02*
X62664228Y-36357143D01*
X62664228Y-36357143D02*
X62711847Y-36261905D01*
X62711847Y-36261905D02*
X62711847Y-36119048D01*
X62711847Y-36119048D02*
X62664228Y-36023810D01*
X62664228Y-36023810D02*
X62616609Y-35976191D01*
X62616609Y-35976191D02*
X62521371Y-35928572D01*
X62521371Y-35928572D02*
X62235657Y-35928572D01*
X62235657Y-35928572D02*
X62140419Y-35976191D01*
X62140419Y-35976191D02*
X62092800Y-36023810D01*
X62092800Y-36023810D02*
X62045180Y-36119048D01*
X62045180Y-36119048D02*
X62045180Y-36261905D01*
X63045180Y-34880952D02*
X63045180Y-34309524D01*
X62045180Y-34595238D02*
X63045180Y-34595238D01*
X62045180Y-33976190D02*
X63045180Y-33976190D01*
X62045180Y-33404762D02*
X62616609Y-33833333D01*
X63045180Y-33404762D02*
X62473752Y-33976190D01*
X61711847Y-31214285D02*
X63140419Y-31214285D01*
X62045180Y-28452380D02*
X62045180Y-29023808D01*
X62045180Y-28738094D02*
X63045180Y-28738094D01*
X63045180Y-28738094D02*
X62902323Y-28833332D01*
X62902323Y-28833332D02*
X62807085Y-28928570D01*
X62807085Y-28928570D02*
X62759466Y-29023808D01*
X62426133Y-28023808D02*
X62426133Y-27261904D01*
X62949942Y-26833332D02*
X62997561Y-26785713D01*
X62997561Y-26785713D02*
X63045180Y-26690475D01*
X63045180Y-26690475D02*
X63045180Y-26452380D01*
X63045180Y-26452380D02*
X62997561Y-26357142D01*
X62997561Y-26357142D02*
X62949942Y-26309523D01*
X62949942Y-26309523D02*
X62854704Y-26261904D01*
X62854704Y-26261904D02*
X62759466Y-26261904D01*
X62759466Y-26261904D02*
X62616609Y-26309523D01*
X62616609Y-26309523D02*
X62045180Y-26880951D01*
X62045180Y-26880951D02*
X62045180Y-26261904D01*
X62568990Y-25071427D02*
X62568990Y-24309523D01*
X62283276Y-24309523D02*
X62283276Y-25071427D01*
X62711847Y-23071427D02*
X61711847Y-23071427D01*
X62664228Y-23071427D02*
X62711847Y-22976189D01*
X62711847Y-22976189D02*
X62711847Y-22785713D01*
X62711847Y-22785713D02*
X62664228Y-22690475D01*
X62664228Y-22690475D02*
X62616609Y-22642856D01*
X62616609Y-22642856D02*
X62521371Y-22595237D01*
X62521371Y-22595237D02*
X62235657Y-22595237D01*
X62235657Y-22595237D02*
X62140419Y-22642856D01*
X62140419Y-22642856D02*
X62092800Y-22690475D01*
X62092800Y-22690475D02*
X62045180Y-22785713D01*
X62045180Y-22785713D02*
X62045180Y-22976189D01*
X62045180Y-22976189D02*
X62092800Y-23071427D01*
X62092800Y-21785713D02*
X62045180Y-21880951D01*
X62045180Y-21880951D02*
X62045180Y-22071427D01*
X62045180Y-22071427D02*
X62092800Y-22166665D01*
X62092800Y-22166665D02*
X62188038Y-22214284D01*
X62188038Y-22214284D02*
X62568990Y-22214284D01*
X62568990Y-22214284D02*
X62664228Y-22166665D01*
X62664228Y-22166665D02*
X62711847Y-22071427D01*
X62711847Y-22071427D02*
X62711847Y-21880951D01*
X62711847Y-21880951D02*
X62664228Y-21785713D01*
X62664228Y-21785713D02*
X62568990Y-21738094D01*
X62568990Y-21738094D02*
X62473752Y-21738094D01*
X62473752Y-21738094D02*
X62378514Y-22214284D01*
X62045180Y-21166665D02*
X62092800Y-21261903D01*
X62092800Y-21261903D02*
X62188038Y-21309522D01*
X62188038Y-21309522D02*
X63045180Y-21309522D01*
X62045180Y-20642855D02*
X62092800Y-20738093D01*
X62092800Y-20738093D02*
X62140419Y-20785712D01*
X62140419Y-20785712D02*
X62235657Y-20833331D01*
X62235657Y-20833331D02*
X62521371Y-20833331D01*
X62521371Y-20833331D02*
X62616609Y-20785712D01*
X62616609Y-20785712D02*
X62664228Y-20738093D01*
X62664228Y-20738093D02*
X62711847Y-20642855D01*
X62711847Y-20642855D02*
X62711847Y-20499998D01*
X62711847Y-20499998D02*
X62664228Y-20404760D01*
X62664228Y-20404760D02*
X62616609Y-20357141D01*
X62616609Y-20357141D02*
X62521371Y-20309522D01*
X62521371Y-20309522D02*
X62235657Y-20309522D01*
X62235657Y-20309522D02*
X62140419Y-20357141D01*
X62140419Y-20357141D02*
X62092800Y-20404760D01*
X62092800Y-20404760D02*
X62045180Y-20499998D01*
X62045180Y-20499998D02*
X62045180Y-20642855D01*
X62997561Y-18595236D02*
X63045180Y-18690474D01*
X63045180Y-18690474D02*
X63045180Y-18833331D01*
X63045180Y-18833331D02*
X62997561Y-18976188D01*
X62997561Y-18976188D02*
X62902323Y-19071426D01*
X62902323Y-19071426D02*
X62807085Y-19119045D01*
X62807085Y-19119045D02*
X62616609Y-19166664D01*
X62616609Y-19166664D02*
X62473752Y-19166664D01*
X62473752Y-19166664D02*
X62283276Y-19119045D01*
X62283276Y-19119045D02*
X62188038Y-19071426D01*
X62188038Y-19071426D02*
X62092800Y-18976188D01*
X62092800Y-18976188D02*
X62045180Y-18833331D01*
X62045180Y-18833331D02*
X62045180Y-18738093D01*
X62045180Y-18738093D02*
X62092800Y-18595236D01*
X62092800Y-18595236D02*
X62140419Y-18547617D01*
X62140419Y-18547617D02*
X62473752Y-18547617D01*
X62473752Y-18547617D02*
X62473752Y-18738093D01*
X62330895Y-18166664D02*
X62330895Y-17690474D01*
X62045180Y-18261902D02*
X63045180Y-17928569D01*
X63045180Y-17928569D02*
X62045180Y-17595236D01*
X62045180Y-16785712D02*
X62045180Y-17261902D01*
X62045180Y-17261902D02*
X63045180Y-17261902D01*
X61711847Y-14690473D02*
X63140419Y-14690473D01*
X62949942Y-12499996D02*
X62997561Y-12452377D01*
X62997561Y-12452377D02*
X63045180Y-12357139D01*
X63045180Y-12357139D02*
X63045180Y-12119044D01*
X63045180Y-12119044D02*
X62997561Y-12023806D01*
X62997561Y-12023806D02*
X62949942Y-11976187D01*
X62949942Y-11976187D02*
X62854704Y-11928568D01*
X62854704Y-11928568D02*
X62759466Y-11928568D01*
X62759466Y-11928568D02*
X62616609Y-11976187D01*
X62616609Y-11976187D02*
X62045180Y-12547615D01*
X62045180Y-12547615D02*
X62045180Y-11928568D01*
X62426133Y-11499996D02*
X62426133Y-10738092D01*
X63045180Y-10357139D02*
X63045180Y-9738092D01*
X63045180Y-9738092D02*
X62664228Y-10071425D01*
X62664228Y-10071425D02*
X62664228Y-9928568D01*
X62664228Y-9928568D02*
X62616609Y-9833330D01*
X62616609Y-9833330D02*
X62568990Y-9785711D01*
X62568990Y-9785711D02*
X62473752Y-9738092D01*
X62473752Y-9738092D02*
X62235657Y-9738092D01*
X62235657Y-9738092D02*
X62140419Y-9785711D01*
X62140419Y-9785711D02*
X62092800Y-9833330D01*
X62092800Y-9833330D02*
X62045180Y-9928568D01*
X62045180Y-9928568D02*
X62045180Y-10214282D01*
X62045180Y-10214282D02*
X62092800Y-10309520D01*
X62092800Y-10309520D02*
X62140419Y-10357139D01*
X62568990Y-8547615D02*
X62568990Y-7785711D01*
X62283276Y-7785711D02*
X62283276Y-8547615D01*
X62426133Y-6547615D02*
X62426133Y-5785711D01*
X62045180Y-6166663D02*
X62807085Y-6166663D01*
X63045180Y-4833330D02*
X63045180Y-5309520D01*
X63045180Y-5309520D02*
X62568990Y-5357139D01*
X62568990Y-5357139D02*
X62616609Y-5309520D01*
X62616609Y-5309520D02*
X62664228Y-5214282D01*
X62664228Y-5214282D02*
X62664228Y-4976187D01*
X62664228Y-4976187D02*
X62616609Y-4880949D01*
X62616609Y-4880949D02*
X62568990Y-4833330D01*
X62568990Y-4833330D02*
X62473752Y-4785711D01*
X62473752Y-4785711D02*
X62235657Y-4785711D01*
X62235657Y-4785711D02*
X62140419Y-4833330D01*
X62140419Y-4833330D02*
X62092800Y-4880949D01*
X62092800Y-4880949D02*
X62045180Y-4976187D01*
X62045180Y-4976187D02*
X62045180Y-5214282D01*
X62045180Y-5214282D02*
X62092800Y-5309520D01*
X62092800Y-5309520D02*
X62140419Y-5357139D01*
X63045180Y-4499996D02*
X62045180Y-4166663D01*
X62045180Y-4166663D02*
X63045180Y-3833330D01*
X65545180Y-52809525D02*
X64830895Y-52809525D01*
X64830895Y-52809525D02*
X64688038Y-52857144D01*
X64688038Y-52857144D02*
X64592800Y-52952382D01*
X64592800Y-52952382D02*
X64545180Y-53095239D01*
X64545180Y-53095239D02*
X64545180Y-53190477D01*
X64545180Y-52333334D02*
X65545180Y-52333334D01*
X65545180Y-52333334D02*
X65545180Y-51952382D01*
X65545180Y-51952382D02*
X65497561Y-51857144D01*
X65497561Y-51857144D02*
X65449942Y-51809525D01*
X65449942Y-51809525D02*
X65354704Y-51761906D01*
X65354704Y-51761906D02*
X65211847Y-51761906D01*
X65211847Y-51761906D02*
X65116609Y-51809525D01*
X65116609Y-51809525D02*
X65068990Y-51857144D01*
X65068990Y-51857144D02*
X65021371Y-51952382D01*
X65021371Y-51952382D02*
X65021371Y-52333334D01*
X64545180Y-50809525D02*
X64545180Y-51380953D01*
X64545180Y-51095239D02*
X65545180Y-51095239D01*
X65545180Y-51095239D02*
X65402323Y-51190477D01*
X65402323Y-51190477D02*
X65307085Y-51285715D01*
X65307085Y-51285715D02*
X65259466Y-51380953D01*
X64545180Y-48333334D02*
X64545180Y-48904762D01*
X64545180Y-48619048D02*
X65545180Y-48619048D01*
X65545180Y-48619048D02*
X65402323Y-48714286D01*
X65402323Y-48714286D02*
X65307085Y-48809524D01*
X65307085Y-48809524D02*
X65259466Y-48904762D01*
X64926133Y-47904762D02*
X64926133Y-47142858D01*
X65449942Y-46714286D02*
X65497561Y-46666667D01*
X65497561Y-46666667D02*
X65545180Y-46571429D01*
X65545180Y-46571429D02*
X65545180Y-46333334D01*
X65545180Y-46333334D02*
X65497561Y-46238096D01*
X65497561Y-46238096D02*
X65449942Y-46190477D01*
X65449942Y-46190477D02*
X65354704Y-46142858D01*
X65354704Y-46142858D02*
X65259466Y-46142858D01*
X65259466Y-46142858D02*
X65116609Y-46190477D01*
X65116609Y-46190477D02*
X64545180Y-46761905D01*
X64545180Y-46761905D02*
X64545180Y-46142858D01*
X65068990Y-44952381D02*
X65068990Y-44190477D01*
X64783276Y-44190477D02*
X64783276Y-44952381D01*
X64545180Y-42380953D02*
X65021371Y-42714286D01*
X64545180Y-42952381D02*
X65545180Y-42952381D01*
X65545180Y-42952381D02*
X65545180Y-42571429D01*
X65545180Y-42571429D02*
X65497561Y-42476191D01*
X65497561Y-42476191D02*
X65449942Y-42428572D01*
X65449942Y-42428572D02*
X65354704Y-42380953D01*
X65354704Y-42380953D02*
X65211847Y-42380953D01*
X65211847Y-42380953D02*
X65116609Y-42428572D01*
X65116609Y-42428572D02*
X65068990Y-42476191D01*
X65068990Y-42476191D02*
X65021371Y-42571429D01*
X65021371Y-42571429D02*
X65021371Y-42952381D01*
X65545180Y-41761905D02*
X65545180Y-41571429D01*
X65545180Y-41571429D02*
X65497561Y-41476191D01*
X65497561Y-41476191D02*
X65402323Y-41380953D01*
X65402323Y-41380953D02*
X65211847Y-41333334D01*
X65211847Y-41333334D02*
X64878514Y-41333334D01*
X64878514Y-41333334D02*
X64688038Y-41380953D01*
X64688038Y-41380953D02*
X64592800Y-41476191D01*
X64592800Y-41476191D02*
X64545180Y-41571429D01*
X64545180Y-41571429D02*
X64545180Y-41761905D01*
X64545180Y-41761905D02*
X64592800Y-41857143D01*
X64592800Y-41857143D02*
X64688038Y-41952381D01*
X64688038Y-41952381D02*
X64878514Y-42000000D01*
X64878514Y-42000000D02*
X65211847Y-42000000D01*
X65211847Y-42000000D02*
X65402323Y-41952381D01*
X65402323Y-41952381D02*
X65497561Y-41857143D01*
X65497561Y-41857143D02*
X65545180Y-41761905D01*
X64545180Y-40904762D02*
X65545180Y-40904762D01*
X65545180Y-40904762D02*
X64830895Y-40571429D01*
X64830895Y-40571429D02*
X65545180Y-40238096D01*
X65545180Y-40238096D02*
X64545180Y-40238096D01*
X64545180Y-38476191D02*
X64545180Y-39047619D01*
X64545180Y-38761905D02*
X65545180Y-38761905D01*
X65545180Y-38761905D02*
X65402323Y-38857143D01*
X65402323Y-38857143D02*
X65307085Y-38952381D01*
X65307085Y-38952381D02*
X65259466Y-39047619D01*
X65449942Y-38095238D02*
X65497561Y-38047619D01*
X65497561Y-38047619D02*
X65545180Y-37952381D01*
X65545180Y-37952381D02*
X65545180Y-37714286D01*
X65545180Y-37714286D02*
X65497561Y-37619048D01*
X65497561Y-37619048D02*
X65449942Y-37571429D01*
X65449942Y-37571429D02*
X65354704Y-37523810D01*
X65354704Y-37523810D02*
X65259466Y-37523810D01*
X65259466Y-37523810D02*
X65116609Y-37571429D01*
X65116609Y-37571429D02*
X64545180Y-38142857D01*
X64545180Y-38142857D02*
X64545180Y-37523810D01*
X65116609Y-36952381D02*
X65164228Y-37047619D01*
X65164228Y-37047619D02*
X65211847Y-37095238D01*
X65211847Y-37095238D02*
X65307085Y-37142857D01*
X65307085Y-37142857D02*
X65354704Y-37142857D01*
X65354704Y-37142857D02*
X65449942Y-37095238D01*
X65449942Y-37095238D02*
X65497561Y-37047619D01*
X65497561Y-37047619D02*
X65545180Y-36952381D01*
X65545180Y-36952381D02*
X65545180Y-36761905D01*
X65545180Y-36761905D02*
X65497561Y-36666667D01*
X65497561Y-36666667D02*
X65449942Y-36619048D01*
X65449942Y-36619048D02*
X65354704Y-36571429D01*
X65354704Y-36571429D02*
X65307085Y-36571429D01*
X65307085Y-36571429D02*
X65211847Y-36619048D01*
X65211847Y-36619048D02*
X65164228Y-36666667D01*
X65164228Y-36666667D02*
X65116609Y-36761905D01*
X65116609Y-36761905D02*
X65116609Y-36952381D01*
X65116609Y-36952381D02*
X65068990Y-37047619D01*
X65068990Y-37047619D02*
X65021371Y-37095238D01*
X65021371Y-37095238D02*
X64926133Y-37142857D01*
X64926133Y-37142857D02*
X64735657Y-37142857D01*
X64735657Y-37142857D02*
X64640419Y-37095238D01*
X64640419Y-37095238D02*
X64592800Y-37047619D01*
X64592800Y-37047619D02*
X64545180Y-36952381D01*
X64545180Y-36952381D02*
X64545180Y-36761905D01*
X64545180Y-36761905D02*
X64592800Y-36666667D01*
X64592800Y-36666667D02*
X64640419Y-36619048D01*
X64640419Y-36619048D02*
X64735657Y-36571429D01*
X64735657Y-36571429D02*
X64926133Y-36571429D01*
X64926133Y-36571429D02*
X65021371Y-36619048D01*
X65021371Y-36619048D02*
X65068990Y-36666667D01*
X65068990Y-36666667D02*
X65116609Y-36761905D01*
X64211847Y-33619047D02*
X65640419Y-33619047D01*
X65449942Y-30666665D02*
X65497561Y-30619046D01*
X65497561Y-30619046D02*
X65545180Y-30523808D01*
X65545180Y-30523808D02*
X65545180Y-30285713D01*
X65545180Y-30285713D02*
X65497561Y-30190475D01*
X65497561Y-30190475D02*
X65449942Y-30142856D01*
X65449942Y-30142856D02*
X65354704Y-30095237D01*
X65354704Y-30095237D02*
X65259466Y-30095237D01*
X65259466Y-30095237D02*
X65116609Y-30142856D01*
X65116609Y-30142856D02*
X64545180Y-30714284D01*
X64545180Y-30714284D02*
X64545180Y-30095237D01*
X64926133Y-29666665D02*
X64926133Y-28904761D01*
X65545180Y-28523808D02*
X65545180Y-27904761D01*
X65545180Y-27904761D02*
X65164228Y-28238094D01*
X65164228Y-28238094D02*
X65164228Y-28095237D01*
X65164228Y-28095237D02*
X65116609Y-27999999D01*
X65116609Y-27999999D02*
X65068990Y-27952380D01*
X65068990Y-27952380D02*
X64973752Y-27904761D01*
X64973752Y-27904761D02*
X64735657Y-27904761D01*
X64735657Y-27904761D02*
X64640419Y-27952380D01*
X64640419Y-27952380D02*
X64592800Y-27999999D01*
X64592800Y-27999999D02*
X64545180Y-28095237D01*
X64545180Y-28095237D02*
X64545180Y-28380951D01*
X64545180Y-28380951D02*
X64592800Y-28476189D01*
X64592800Y-28476189D02*
X64640419Y-28523808D01*
X65068990Y-26714284D02*
X65068990Y-25952380D01*
X64783276Y-25952380D02*
X64783276Y-26714284D01*
X64545180Y-24142856D02*
X65021371Y-24476189D01*
X64545180Y-24714284D02*
X65545180Y-24714284D01*
X65545180Y-24714284D02*
X65545180Y-24333332D01*
X65545180Y-24333332D02*
X65497561Y-24238094D01*
X65497561Y-24238094D02*
X65449942Y-24190475D01*
X65449942Y-24190475D02*
X65354704Y-24142856D01*
X65354704Y-24142856D02*
X65211847Y-24142856D01*
X65211847Y-24142856D02*
X65116609Y-24190475D01*
X65116609Y-24190475D02*
X65068990Y-24238094D01*
X65068990Y-24238094D02*
X65021371Y-24333332D01*
X65021371Y-24333332D02*
X65021371Y-24714284D01*
X65545180Y-23523808D02*
X65545180Y-23333332D01*
X65545180Y-23333332D02*
X65497561Y-23238094D01*
X65497561Y-23238094D02*
X65402323Y-23142856D01*
X65402323Y-23142856D02*
X65211847Y-23095237D01*
X65211847Y-23095237D02*
X64878514Y-23095237D01*
X64878514Y-23095237D02*
X64688038Y-23142856D01*
X64688038Y-23142856D02*
X64592800Y-23238094D01*
X64592800Y-23238094D02*
X64545180Y-23333332D01*
X64545180Y-23333332D02*
X64545180Y-23523808D01*
X64545180Y-23523808D02*
X64592800Y-23619046D01*
X64592800Y-23619046D02*
X64688038Y-23714284D01*
X64688038Y-23714284D02*
X64878514Y-23761903D01*
X64878514Y-23761903D02*
X65211847Y-23761903D01*
X65211847Y-23761903D02*
X65402323Y-23714284D01*
X65402323Y-23714284D02*
X65497561Y-23619046D01*
X65497561Y-23619046D02*
X65545180Y-23523808D01*
X64545180Y-22666665D02*
X65545180Y-22666665D01*
X65545180Y-22666665D02*
X64830895Y-22333332D01*
X64830895Y-22333332D02*
X65545180Y-21999999D01*
X65545180Y-21999999D02*
X64545180Y-21999999D01*
X64545180Y-20333332D02*
X65545180Y-20333332D01*
X64592800Y-20333332D02*
X64545180Y-20428570D01*
X64545180Y-20428570D02*
X64545180Y-20619046D01*
X64545180Y-20619046D02*
X64592800Y-20714284D01*
X64592800Y-20714284D02*
X64640419Y-20761903D01*
X64640419Y-20761903D02*
X64735657Y-20809522D01*
X64735657Y-20809522D02*
X65021371Y-20809522D01*
X65021371Y-20809522D02*
X65116609Y-20761903D01*
X65116609Y-20761903D02*
X65164228Y-20714284D01*
X65164228Y-20714284D02*
X65211847Y-20619046D01*
X65211847Y-20619046D02*
X65211847Y-20428570D01*
X65211847Y-20428570D02*
X65164228Y-20333332D01*
X64545180Y-19714284D02*
X64592800Y-19809522D01*
X64592800Y-19809522D02*
X64640419Y-19857141D01*
X64640419Y-19857141D02*
X64735657Y-19904760D01*
X64735657Y-19904760D02*
X65021371Y-19904760D01*
X65021371Y-19904760D02*
X65116609Y-19857141D01*
X65116609Y-19857141D02*
X65164228Y-19809522D01*
X65164228Y-19809522D02*
X65211847Y-19714284D01*
X65211847Y-19714284D02*
X65211847Y-19571427D01*
X65211847Y-19571427D02*
X65164228Y-19476189D01*
X65164228Y-19476189D02*
X65116609Y-19428570D01*
X65116609Y-19428570D02*
X65021371Y-19380951D01*
X65021371Y-19380951D02*
X64735657Y-19380951D01*
X64735657Y-19380951D02*
X64640419Y-19428570D01*
X64640419Y-19428570D02*
X64592800Y-19476189D01*
X64592800Y-19476189D02*
X64545180Y-19571427D01*
X64545180Y-19571427D02*
X64545180Y-19714284D01*
X65545180Y-18333331D02*
X65545180Y-17761903D01*
X64545180Y-18047617D02*
X65545180Y-18047617D01*
X64545180Y-17428569D02*
X65545180Y-17428569D01*
X64545180Y-16857141D02*
X65116609Y-17285712D01*
X65545180Y-16857141D02*
X64973752Y-17428569D01*
X52666667Y-54788152D02*
X52666667Y-55597676D01*
X52666667Y-55597676D02*
X52714286Y-55692914D01*
X52714286Y-55692914D02*
X52761905Y-55740533D01*
X52761905Y-55740533D02*
X52857143Y-55788152D01*
X52857143Y-55788152D02*
X53000000Y-55788152D01*
X53000000Y-55788152D02*
X53095238Y-55740533D01*
X52666667Y-55407200D02*
X52761905Y-55454819D01*
X52761905Y-55454819D02*
X52952381Y-55454819D01*
X52952381Y-55454819D02*
X53047619Y-55407200D01*
X53047619Y-55407200D02*
X53095238Y-55359580D01*
X53095238Y-55359580D02*
X53142857Y-55264342D01*
X53142857Y-55264342D02*
X53142857Y-54978628D01*
X53142857Y-54978628D02*
X53095238Y-54883390D01*
X53095238Y-54883390D02*
X53047619Y-54835771D01*
X53047619Y-54835771D02*
X52952381Y-54788152D01*
X52952381Y-54788152D02*
X52761905Y-54788152D01*
X52761905Y-54788152D02*
X52666667Y-54835771D01*
X52190476Y-55454819D02*
X52190476Y-54788152D01*
X52190476Y-54454819D02*
X52238095Y-54502438D01*
X52238095Y-54502438D02*
X52190476Y-54550057D01*
X52190476Y-54550057D02*
X52142857Y-54502438D01*
X52142857Y-54502438D02*
X52190476Y-54454819D01*
X52190476Y-54454819D02*
X52190476Y-54550057D01*
X51857143Y-54788152D02*
X51476191Y-54788152D01*
X51714286Y-54454819D02*
X51714286Y-55311961D01*
X51714286Y-55311961D02*
X51666667Y-55407200D01*
X51666667Y-55407200D02*
X51571429Y-55454819D01*
X51571429Y-55454819D02*
X51476191Y-55454819D01*
X51142857Y-55454819D02*
X51142857Y-54454819D01*
X50714286Y-55454819D02*
X50714286Y-54931009D01*
X50714286Y-54931009D02*
X50761905Y-54835771D01*
X50761905Y-54835771D02*
X50857143Y-54788152D01*
X50857143Y-54788152D02*
X51000000Y-54788152D01*
X51000000Y-54788152D02*
X51095238Y-54835771D01*
X51095238Y-54835771D02*
X51142857Y-54883390D01*
X49809524Y-54788152D02*
X49809524Y-55454819D01*
X50238095Y-54788152D02*
X50238095Y-55311961D01*
X50238095Y-55311961D02*
X50190476Y-55407200D01*
X50190476Y-55407200D02*
X50095238Y-55454819D01*
X50095238Y-55454819D02*
X49952381Y-55454819D01*
X49952381Y-55454819D02*
X49857143Y-55407200D01*
X49857143Y-55407200D02*
X49809524Y-55359580D01*
X49333333Y-55454819D02*
X49333333Y-54454819D01*
X49333333Y-54835771D02*
X49238095Y-54788152D01*
X49238095Y-54788152D02*
X49047619Y-54788152D01*
X49047619Y-54788152D02*
X48952381Y-54835771D01*
X48952381Y-54835771D02*
X48904762Y-54883390D01*
X48904762Y-54883390D02*
X48857143Y-54978628D01*
X48857143Y-54978628D02*
X48857143Y-55264342D01*
X48857143Y-55264342D02*
X48904762Y-55359580D01*
X48904762Y-55359580D02*
X48952381Y-55407200D01*
X48952381Y-55407200D02*
X49047619Y-55454819D01*
X49047619Y-55454819D02*
X49238095Y-55454819D01*
X49238095Y-55454819D02*
X49333333Y-55407200D01*
X48428571Y-55359580D02*
X48380952Y-55407200D01*
X48380952Y-55407200D02*
X48428571Y-55454819D01*
X48428571Y-55454819D02*
X48476190Y-55407200D01*
X48476190Y-55407200D02*
X48428571Y-55359580D01*
X48428571Y-55359580D02*
X48428571Y-55454819D01*
X47523810Y-55407200D02*
X47619048Y-55454819D01*
X47619048Y-55454819D02*
X47809524Y-55454819D01*
X47809524Y-55454819D02*
X47904762Y-55407200D01*
X47904762Y-55407200D02*
X47952381Y-55359580D01*
X47952381Y-55359580D02*
X48000000Y-55264342D01*
X48000000Y-55264342D02*
X48000000Y-54978628D01*
X48000000Y-54978628D02*
X47952381Y-54883390D01*
X47952381Y-54883390D02*
X47904762Y-54835771D01*
X47904762Y-54835771D02*
X47809524Y-54788152D01*
X47809524Y-54788152D02*
X47619048Y-54788152D01*
X47619048Y-54788152D02*
X47523810Y-54835771D01*
X46952381Y-55454819D02*
X47047619Y-55407200D01*
X47047619Y-55407200D02*
X47095238Y-55359580D01*
X47095238Y-55359580D02*
X47142857Y-55264342D01*
X47142857Y-55264342D02*
X47142857Y-54978628D01*
X47142857Y-54978628D02*
X47095238Y-54883390D01*
X47095238Y-54883390D02*
X47047619Y-54835771D01*
X47047619Y-54835771D02*
X46952381Y-54788152D01*
X46952381Y-54788152D02*
X46809524Y-54788152D01*
X46809524Y-54788152D02*
X46714286Y-54835771D01*
X46714286Y-54835771D02*
X46666667Y-54883390D01*
X46666667Y-54883390D02*
X46619048Y-54978628D01*
X46619048Y-54978628D02*
X46619048Y-55264342D01*
X46619048Y-55264342D02*
X46666667Y-55359580D01*
X46666667Y-55359580D02*
X46714286Y-55407200D01*
X46714286Y-55407200D02*
X46809524Y-55454819D01*
X46809524Y-55454819D02*
X46952381Y-55454819D01*
X46190476Y-55454819D02*
X46190476Y-54788152D01*
X46190476Y-54883390D02*
X46142857Y-54835771D01*
X46142857Y-54835771D02*
X46047619Y-54788152D01*
X46047619Y-54788152D02*
X45904762Y-54788152D01*
X45904762Y-54788152D02*
X45809524Y-54835771D01*
X45809524Y-54835771D02*
X45761905Y-54931009D01*
X45761905Y-54931009D02*
X45761905Y-55454819D01*
X45761905Y-54931009D02*
X45714286Y-54835771D01*
X45714286Y-54835771D02*
X45619048Y-54788152D01*
X45619048Y-54788152D02*
X45476191Y-54788152D01*
X45476191Y-54788152D02*
X45380952Y-54835771D01*
X45380952Y-54835771D02*
X45333333Y-54931009D01*
X45333333Y-54931009D02*
X45333333Y-55454819D01*
X44142858Y-54407200D02*
X45000000Y-55692914D01*
X43666667Y-55454819D02*
X43761905Y-55407200D01*
X43761905Y-55407200D02*
X43809524Y-55311961D01*
X43809524Y-55311961D02*
X43809524Y-54454819D01*
X43285714Y-55454819D02*
X43285714Y-54788152D01*
X43285714Y-54978628D02*
X43238095Y-54883390D01*
X43238095Y-54883390D02*
X43190476Y-54835771D01*
X43190476Y-54835771D02*
X43095238Y-54788152D01*
X43095238Y-54788152D02*
X43000000Y-54788152D01*
X42666666Y-55454819D02*
X42666666Y-54788152D01*
X42666666Y-54978628D02*
X42619047Y-54883390D01*
X42619047Y-54883390D02*
X42571428Y-54835771D01*
X42571428Y-54835771D02*
X42476190Y-54788152D01*
X42476190Y-54788152D02*
X42380952Y-54788152D01*
X41904761Y-55454819D02*
X41999999Y-55407200D01*
X41999999Y-55407200D02*
X42047618Y-55359580D01*
X42047618Y-55359580D02*
X42095237Y-55264342D01*
X42095237Y-55264342D02*
X42095237Y-54978628D01*
X42095237Y-54978628D02*
X42047618Y-54883390D01*
X42047618Y-54883390D02*
X41999999Y-54835771D01*
X41999999Y-54835771D02*
X41904761Y-54788152D01*
X41904761Y-54788152D02*
X41761904Y-54788152D01*
X41761904Y-54788152D02*
X41666666Y-54835771D01*
X41666666Y-54835771D02*
X41619047Y-54883390D01*
X41619047Y-54883390D02*
X41571428Y-54978628D01*
X41571428Y-54978628D02*
X41571428Y-55264342D01*
X41571428Y-55264342D02*
X41619047Y-55359580D01*
X41619047Y-55359580D02*
X41666666Y-55407200D01*
X41666666Y-55407200D02*
X41761904Y-55454819D01*
X41761904Y-55454819D02*
X41904761Y-55454819D01*
X41190475Y-55407200D02*
X41095237Y-55454819D01*
X41095237Y-55454819D02*
X40904761Y-55454819D01*
X40904761Y-55454819D02*
X40809523Y-55407200D01*
X40809523Y-55407200D02*
X40761904Y-55311961D01*
X40761904Y-55311961D02*
X40761904Y-55264342D01*
X40761904Y-55264342D02*
X40809523Y-55169104D01*
X40809523Y-55169104D02*
X40904761Y-55121485D01*
X40904761Y-55121485D02*
X41047618Y-55121485D01*
X41047618Y-55121485D02*
X41142856Y-55073866D01*
X41142856Y-55073866D02*
X41190475Y-54978628D01*
X41190475Y-54978628D02*
X41190475Y-54931009D01*
X41190475Y-54931009D02*
X41142856Y-54835771D01*
X41142856Y-54835771D02*
X41047618Y-54788152D01*
X41047618Y-54788152D02*
X40904761Y-54788152D01*
X40904761Y-54788152D02*
X40809523Y-54835771D01*
X39904761Y-55454819D02*
X39904761Y-54931009D01*
X39904761Y-54931009D02*
X39952380Y-54835771D01*
X39952380Y-54835771D02*
X40047618Y-54788152D01*
X40047618Y-54788152D02*
X40238094Y-54788152D01*
X40238094Y-54788152D02*
X40333332Y-54835771D01*
X39904761Y-55407200D02*
X39999999Y-55454819D01*
X39999999Y-55454819D02*
X40238094Y-55454819D01*
X40238094Y-55454819D02*
X40333332Y-55407200D01*
X40333332Y-55407200D02*
X40380951Y-55311961D01*
X40380951Y-55311961D02*
X40380951Y-55216723D01*
X40380951Y-55216723D02*
X40333332Y-55121485D01*
X40333332Y-55121485D02*
X40238094Y-55073866D01*
X40238094Y-55073866D02*
X39999999Y-55073866D01*
X39999999Y-55073866D02*
X39904761Y-55026247D01*
X38714285Y-54407200D02*
X39571427Y-55692914D01*
X38523808Y-54788152D02*
X38142856Y-54788152D01*
X38380951Y-54454819D02*
X38380951Y-55311961D01*
X38380951Y-55311961D02*
X38333332Y-55407200D01*
X38333332Y-55407200D02*
X38238094Y-55454819D01*
X38238094Y-55454819D02*
X38142856Y-55454819D01*
X37809522Y-55454819D02*
X37809522Y-54454819D01*
X37714284Y-55073866D02*
X37428570Y-55454819D01*
X37428570Y-54788152D02*
X37809522Y-55169104D01*
X36999998Y-55454819D02*
X36999998Y-54788152D01*
X36999998Y-54883390D02*
X36952379Y-54835771D01*
X36952379Y-54835771D02*
X36857141Y-54788152D01*
X36857141Y-54788152D02*
X36714284Y-54788152D01*
X36714284Y-54788152D02*
X36619046Y-54835771D01*
X36619046Y-54835771D02*
X36571427Y-54931009D01*
X36571427Y-54931009D02*
X36571427Y-55454819D01*
X36571427Y-54931009D02*
X36523808Y-54835771D01*
X36523808Y-54835771D02*
X36428570Y-54788152D01*
X36428570Y-54788152D02*
X36285713Y-54788152D01*
X36285713Y-54788152D02*
X36190474Y-54835771D01*
X36190474Y-54835771D02*
X36142855Y-54931009D01*
X36142855Y-54931009D02*
X36142855Y-55454819D01*
X35285713Y-55407200D02*
X35380951Y-55454819D01*
X35380951Y-55454819D02*
X35571427Y-55454819D01*
X35571427Y-55454819D02*
X35666665Y-55407200D01*
X35666665Y-55407200D02*
X35714284Y-55311961D01*
X35714284Y-55311961D02*
X35714284Y-54931009D01*
X35714284Y-54931009D02*
X35666665Y-54835771D01*
X35666665Y-54835771D02*
X35571427Y-54788152D01*
X35571427Y-54788152D02*
X35380951Y-54788152D01*
X35380951Y-54788152D02*
X35285713Y-54835771D01*
X35285713Y-54835771D02*
X35238094Y-54931009D01*
X35238094Y-54931009D02*
X35238094Y-55026247D01*
X35238094Y-55026247D02*
X35714284Y-55121485D01*
X34809522Y-55454819D02*
X34809522Y-54788152D01*
X34809522Y-54883390D02*
X34761903Y-54835771D01*
X34761903Y-54835771D02*
X34666665Y-54788152D01*
X34666665Y-54788152D02*
X34523808Y-54788152D01*
X34523808Y-54788152D02*
X34428570Y-54835771D01*
X34428570Y-54835771D02*
X34380951Y-54931009D01*
X34380951Y-54931009D02*
X34380951Y-55454819D01*
X34380951Y-54931009D02*
X34333332Y-54835771D01*
X34333332Y-54835771D02*
X34238094Y-54788152D01*
X34238094Y-54788152D02*
X34095237Y-54788152D01*
X34095237Y-54788152D02*
X33999998Y-54835771D01*
X33999998Y-54835771D02*
X33952379Y-54931009D01*
X33952379Y-54931009D02*
X33952379Y-55454819D01*
X32952380Y-55454819D02*
X33523808Y-55454819D01*
X33238094Y-55454819D02*
X33238094Y-54454819D01*
X33238094Y-54454819D02*
X33333332Y-54597676D01*
X33333332Y-54597676D02*
X33428570Y-54692914D01*
X33428570Y-54692914D02*
X33523808Y-54740533D01*
X32571427Y-54550057D02*
X32523808Y-54502438D01*
X32523808Y-54502438D02*
X32428570Y-54454819D01*
X32428570Y-54454819D02*
X32190475Y-54454819D01*
X32190475Y-54454819D02*
X32095237Y-54502438D01*
X32095237Y-54502438D02*
X32047618Y-54550057D01*
X32047618Y-54550057D02*
X31999999Y-54645295D01*
X31999999Y-54645295D02*
X31999999Y-54740533D01*
X31999999Y-54740533D02*
X32047618Y-54883390D01*
X32047618Y-54883390D02*
X32619046Y-55454819D01*
X32619046Y-55454819D02*
X31999999Y-55454819D01*
X31428570Y-54883390D02*
X31523808Y-54835771D01*
X31523808Y-54835771D02*
X31571427Y-54788152D01*
X31571427Y-54788152D02*
X31619046Y-54692914D01*
X31619046Y-54692914D02*
X31619046Y-54645295D01*
X31619046Y-54645295D02*
X31571427Y-54550057D01*
X31571427Y-54550057D02*
X31523808Y-54502438D01*
X31523808Y-54502438D02*
X31428570Y-54454819D01*
X31428570Y-54454819D02*
X31238094Y-54454819D01*
X31238094Y-54454819D02*
X31142856Y-54502438D01*
X31142856Y-54502438D02*
X31095237Y-54550057D01*
X31095237Y-54550057D02*
X31047618Y-54645295D01*
X31047618Y-54645295D02*
X31047618Y-54692914D01*
X31047618Y-54692914D02*
X31095237Y-54788152D01*
X31095237Y-54788152D02*
X31142856Y-54835771D01*
X31142856Y-54835771D02*
X31238094Y-54883390D01*
X31238094Y-54883390D02*
X31428570Y-54883390D01*
X31428570Y-54883390D02*
X31523808Y-54931009D01*
X31523808Y-54931009D02*
X31571427Y-54978628D01*
X31571427Y-54978628D02*
X31619046Y-55073866D01*
X31619046Y-55073866D02*
X31619046Y-55264342D01*
X31619046Y-55264342D02*
X31571427Y-55359580D01*
X31571427Y-55359580D02*
X31523808Y-55407200D01*
X31523808Y-55407200D02*
X31428570Y-55454819D01*
X31428570Y-55454819D02*
X31238094Y-55454819D01*
X31238094Y-55454819D02*
X31142856Y-55407200D01*
X31142856Y-55407200D02*
X31095237Y-55359580D01*
X31095237Y-55359580D02*
X31047618Y-55264342D01*
X31047618Y-55264342D02*
X31047618Y-55073866D01*
X31047618Y-55073866D02*
X31095237Y-54978628D01*
X31095237Y-54978628D02*
X31142856Y-54931009D01*
X31142856Y-54931009D02*
X31238094Y-54883390D01*
X30619046Y-55073866D02*
X29857142Y-55073866D01*
X29380951Y-55454819D02*
X29380951Y-54454819D01*
X29285713Y-55073866D02*
X28999999Y-55454819D01*
X28999999Y-54788152D02*
X29380951Y-55169104D01*
X28571427Y-55454819D02*
X28571427Y-54788152D01*
X28571427Y-54454819D02*
X28619046Y-54502438D01*
X28619046Y-54502438D02*
X28571427Y-54550057D01*
X28571427Y-54550057D02*
X28523808Y-54502438D01*
X28523808Y-54502438D02*
X28571427Y-54454819D01*
X28571427Y-54454819D02*
X28571427Y-54550057D01*
X27666666Y-55407200D02*
X27761904Y-55454819D01*
X27761904Y-55454819D02*
X27952380Y-55454819D01*
X27952380Y-55454819D02*
X28047618Y-55407200D01*
X28047618Y-55407200D02*
X28095237Y-55359580D01*
X28095237Y-55359580D02*
X28142856Y-55264342D01*
X28142856Y-55264342D02*
X28142856Y-54978628D01*
X28142856Y-54978628D02*
X28095237Y-54883390D01*
X28095237Y-54883390D02*
X28047618Y-54835771D01*
X28047618Y-54835771D02*
X27952380Y-54788152D01*
X27952380Y-54788152D02*
X27761904Y-54788152D01*
X27761904Y-54788152D02*
X27666666Y-54835771D01*
X26809523Y-55454819D02*
X26809523Y-54931009D01*
X26809523Y-54931009D02*
X26857142Y-54835771D01*
X26857142Y-54835771D02*
X26952380Y-54788152D01*
X26952380Y-54788152D02*
X27142856Y-54788152D01*
X27142856Y-54788152D02*
X27238094Y-54835771D01*
X26809523Y-55407200D02*
X26904761Y-55454819D01*
X26904761Y-55454819D02*
X27142856Y-55454819D01*
X27142856Y-55454819D02*
X27238094Y-55407200D01*
X27238094Y-55407200D02*
X27285713Y-55311961D01*
X27285713Y-55311961D02*
X27285713Y-55216723D01*
X27285713Y-55216723D02*
X27238094Y-55121485D01*
X27238094Y-55121485D02*
X27142856Y-55073866D01*
X27142856Y-55073866D02*
X26904761Y-55073866D01*
X26904761Y-55073866D02*
X26809523Y-55026247D01*
X25904761Y-55454819D02*
X25904761Y-54454819D01*
X25904761Y-55407200D02*
X25999999Y-55454819D01*
X25999999Y-55454819D02*
X26190475Y-55454819D01*
X26190475Y-55454819D02*
X26285713Y-55407200D01*
X26285713Y-55407200D02*
X26333332Y-55359580D01*
X26333332Y-55359580D02*
X26380951Y-55264342D01*
X26380951Y-55264342D02*
X26380951Y-54978628D01*
X26380951Y-54978628D02*
X26333332Y-54883390D01*
X26333332Y-54883390D02*
X26285713Y-54835771D01*
X26285713Y-54835771D02*
X26190475Y-54788152D01*
X26190475Y-54788152D02*
X25999999Y-54788152D01*
X25999999Y-54788152D02*
X25904761Y-54835771D01*
X46742857Y-52469795D02*
X46804761Y-52531700D01*
X46804761Y-52531700D02*
X46990476Y-52593604D01*
X46990476Y-52593604D02*
X47114285Y-52593604D01*
X47114285Y-52593604D02*
X47299999Y-52531700D01*
X47299999Y-52531700D02*
X47423809Y-52407890D01*
X47423809Y-52407890D02*
X47485714Y-52284080D01*
X47485714Y-52284080D02*
X47547618Y-52036461D01*
X47547618Y-52036461D02*
X47547618Y-51850747D01*
X47547618Y-51850747D02*
X47485714Y-51603128D01*
X47485714Y-51603128D02*
X47423809Y-51479319D01*
X47423809Y-51479319D02*
X47299999Y-51355509D01*
X47299999Y-51355509D02*
X47114285Y-51293604D01*
X47114285Y-51293604D02*
X46990476Y-51293604D01*
X46990476Y-51293604D02*
X46804761Y-51355509D01*
X46804761Y-51355509D02*
X46742857Y-51417414D01*
X46185714Y-51912652D02*
X45752380Y-51912652D01*
X45566666Y-52593604D02*
X46185714Y-52593604D01*
X46185714Y-52593604D02*
X46185714Y-51293604D01*
X46185714Y-51293604D02*
X45566666Y-51293604D01*
X44266667Y-52593604D02*
X44700000Y-51974557D01*
X45009524Y-52593604D02*
X45009524Y-51293604D01*
X45009524Y-51293604D02*
X44514286Y-51293604D01*
X44514286Y-51293604D02*
X44390476Y-51355509D01*
X44390476Y-51355509D02*
X44328571Y-51417414D01*
X44328571Y-51417414D02*
X44266667Y-51541223D01*
X44266667Y-51541223D02*
X44266667Y-51726938D01*
X44266667Y-51726938D02*
X44328571Y-51850747D01*
X44328571Y-51850747D02*
X44390476Y-51912652D01*
X44390476Y-51912652D02*
X44514286Y-51974557D01*
X44514286Y-51974557D02*
X45009524Y-51974557D01*
X43709524Y-52593604D02*
X43709524Y-51293604D01*
X43709524Y-51293604D02*
X42966667Y-52593604D01*
X42966667Y-52593604D02*
X42966667Y-51293604D01*
X42347619Y-52098366D02*
X41357143Y-52098366D01*
X40490476Y-51293604D02*
X40242857Y-51293604D01*
X40242857Y-51293604D02*
X40119047Y-51355509D01*
X40119047Y-51355509D02*
X39995238Y-51479319D01*
X39995238Y-51479319D02*
X39933333Y-51726938D01*
X39933333Y-51726938D02*
X39933333Y-52160271D01*
X39933333Y-52160271D02*
X39995238Y-52407890D01*
X39995238Y-52407890D02*
X40119047Y-52531700D01*
X40119047Y-52531700D02*
X40242857Y-52593604D01*
X40242857Y-52593604D02*
X40490476Y-52593604D01*
X40490476Y-52593604D02*
X40614285Y-52531700D01*
X40614285Y-52531700D02*
X40738095Y-52407890D01*
X40738095Y-52407890D02*
X40799999Y-52160271D01*
X40799999Y-52160271D02*
X40799999Y-51726938D01*
X40799999Y-51726938D02*
X40738095Y-51479319D01*
X40738095Y-51479319D02*
X40614285Y-51355509D01*
X40614285Y-51355509D02*
X40490476Y-51293604D01*
X39376190Y-52593604D02*
X39376190Y-51293604D01*
X39376190Y-51912652D02*
X38633333Y-51912652D01*
X38633333Y-52593604D02*
X38633333Y-51293604D01*
X37395237Y-52593604D02*
X38014285Y-52593604D01*
X38014285Y-52593604D02*
X38014285Y-51293604D01*
X36961904Y-52098366D02*
X35971428Y-52098366D01*
X35414284Y-52531700D02*
X35228570Y-52593604D01*
X35228570Y-52593604D02*
X34919046Y-52593604D01*
X34919046Y-52593604D02*
X34795237Y-52531700D01*
X34795237Y-52531700D02*
X34733332Y-52469795D01*
X34733332Y-52469795D02*
X34671427Y-52345985D01*
X34671427Y-52345985D02*
X34671427Y-52222176D01*
X34671427Y-52222176D02*
X34733332Y-52098366D01*
X34733332Y-52098366D02*
X34795237Y-52036461D01*
X34795237Y-52036461D02*
X34919046Y-51974557D01*
X34919046Y-51974557D02*
X35166665Y-51912652D01*
X35166665Y-51912652D02*
X35290475Y-51850747D01*
X35290475Y-51850747D02*
X35352380Y-51788842D01*
X35352380Y-51788842D02*
X35414284Y-51665033D01*
X35414284Y-51665033D02*
X35414284Y-51541223D01*
X35414284Y-51541223D02*
X35352380Y-51417414D01*
X35352380Y-51417414D02*
X35290475Y-51355509D01*
X35290475Y-51355509D02*
X35166665Y-51293604D01*
X35166665Y-51293604D02*
X34857142Y-51293604D01*
X34857142Y-51293604D02*
X34671427Y-51355509D01*
X33247618Y-51726938D02*
X32938094Y-52593604D01*
X32938094Y-52593604D02*
X32628571Y-51726938D01*
X32195237Y-51417414D02*
X32133333Y-51355509D01*
X32133333Y-51355509D02*
X32009523Y-51293604D01*
X32009523Y-51293604D02*
X31699999Y-51293604D01*
X31699999Y-51293604D02*
X31576190Y-51355509D01*
X31576190Y-51355509D02*
X31514285Y-51417414D01*
X31514285Y-51417414D02*
X31452380Y-51541223D01*
X31452380Y-51541223D02*
X31452380Y-51665033D01*
X31452380Y-51665033D02*
X31514285Y-51850747D01*
X31514285Y-51850747D02*
X32257142Y-52593604D01*
X32257142Y-52593604D02*
X31452380Y-52593604D01*
X39703333Y-55184819D02*
X39703333Y-55899104D01*
X39703333Y-55899104D02*
X39750952Y-56041961D01*
X39750952Y-56041961D02*
X39846190Y-56137200D01*
X39846190Y-56137200D02*
X39989047Y-56184819D01*
X39989047Y-56184819D02*
X40084285Y-56184819D01*
X38703333Y-56184819D02*
X39274761Y-56184819D01*
X38989047Y-56184819D02*
X38989047Y-55184819D01*
X38989047Y-55184819D02*
X39084285Y-55327676D01*
X39084285Y-55327676D02*
X39179523Y-55422914D01*
X39179523Y-55422914D02*
X39274761Y-55470533D01*
X5841904Y-55580057D02*
X5794285Y-55532438D01*
X5794285Y-55532438D02*
X5699047Y-55484819D01*
X5699047Y-55484819D02*
X5460952Y-55484819D01*
X5460952Y-55484819D02*
X5365714Y-55532438D01*
X5365714Y-55532438D02*
X5318095Y-55580057D01*
X5318095Y-55580057D02*
X5270476Y-55675295D01*
X5270476Y-55675295D02*
X5270476Y-55770533D01*
X5270476Y-55770533D02*
X5318095Y-55913390D01*
X5318095Y-55913390D02*
X5889523Y-56484819D01*
X5889523Y-56484819D02*
X5270476Y-56484819D01*
X4794285Y-56484819D02*
X4603809Y-56484819D01*
X4603809Y-56484819D02*
X4508571Y-56437200D01*
X4508571Y-56437200D02*
X4460952Y-56389580D01*
X4460952Y-56389580D02*
X4365714Y-56246723D01*
X4365714Y-56246723D02*
X4318095Y-56056247D01*
X4318095Y-56056247D02*
X4318095Y-55675295D01*
X4318095Y-55675295D02*
X4365714Y-55580057D01*
X4365714Y-55580057D02*
X4413333Y-55532438D01*
X4413333Y-55532438D02*
X4508571Y-55484819D01*
X4508571Y-55484819D02*
X4699047Y-55484819D01*
X4699047Y-55484819D02*
X4794285Y-55532438D01*
X4794285Y-55532438D02*
X4841904Y-55580057D01*
X4841904Y-55580057D02*
X4889523Y-55675295D01*
X4889523Y-55675295D02*
X4889523Y-55913390D01*
X4889523Y-55913390D02*
X4841904Y-56008628D01*
X4841904Y-56008628D02*
X4794285Y-56056247D01*
X4794285Y-56056247D02*
X4699047Y-56103866D01*
X4699047Y-56103866D02*
X4508571Y-56103866D01*
X4508571Y-56103866D02*
X4413333Y-56056247D01*
X4413333Y-56056247D02*
X4365714Y-56008628D01*
X4365714Y-56008628D02*
X4318095Y-55913390D01*
X5841904Y-67980057D02*
X5794285Y-67932438D01*
X5794285Y-67932438D02*
X5699047Y-67884819D01*
X5699047Y-67884819D02*
X5460952Y-67884819D01*
X5460952Y-67884819D02*
X5365714Y-67932438D01*
X5365714Y-67932438D02*
X5318095Y-67980057D01*
X5318095Y-67980057D02*
X5270476Y-68075295D01*
X5270476Y-68075295D02*
X5270476Y-68170533D01*
X5270476Y-68170533D02*
X5318095Y-68313390D01*
X5318095Y-68313390D02*
X5889523Y-68884819D01*
X5889523Y-68884819D02*
X5270476Y-68884819D01*
X4699047Y-68313390D02*
X4794285Y-68265771D01*
X4794285Y-68265771D02*
X4841904Y-68218152D01*
X4841904Y-68218152D02*
X4889523Y-68122914D01*
X4889523Y-68122914D02*
X4889523Y-68075295D01*
X4889523Y-68075295D02*
X4841904Y-67980057D01*
X4841904Y-67980057D02*
X4794285Y-67932438D01*
X4794285Y-67932438D02*
X4699047Y-67884819D01*
X4699047Y-67884819D02*
X4508571Y-67884819D01*
X4508571Y-67884819D02*
X4413333Y-67932438D01*
X4413333Y-67932438D02*
X4365714Y-67980057D01*
X4365714Y-67980057D02*
X4318095Y-68075295D01*
X4318095Y-68075295D02*
X4318095Y-68122914D01*
X4318095Y-68122914D02*
X4365714Y-68218152D01*
X4365714Y-68218152D02*
X4413333Y-68265771D01*
X4413333Y-68265771D02*
X4508571Y-68313390D01*
X4508571Y-68313390D02*
X4699047Y-68313390D01*
X4699047Y-68313390D02*
X4794285Y-68361009D01*
X4794285Y-68361009D02*
X4841904Y-68408628D01*
X4841904Y-68408628D02*
X4889523Y-68503866D01*
X4889523Y-68503866D02*
X4889523Y-68694342D01*
X4889523Y-68694342D02*
X4841904Y-68789580D01*
X4841904Y-68789580D02*
X4794285Y-68837200D01*
X4794285Y-68837200D02*
X4699047Y-68884819D01*
X4699047Y-68884819D02*
X4508571Y-68884819D01*
X4508571Y-68884819D02*
X4413333Y-68837200D01*
X4413333Y-68837200D02*
X4365714Y-68789580D01*
X4365714Y-68789580D02*
X4318095Y-68694342D01*
X4318095Y-68694342D02*
X4318095Y-68503866D01*
X4318095Y-68503866D02*
X4365714Y-68408628D01*
X4365714Y-68408628D02*
X4413333Y-68361009D01*
X4413333Y-68361009D02*
X4508571Y-68313390D01*
X61109523Y-61830390D02*
X61185713Y-61792295D01*
X61185713Y-61792295D02*
X61299999Y-61792295D01*
X61299999Y-61792295D02*
X61414285Y-61830390D01*
X61414285Y-61830390D02*
X61490475Y-61906580D01*
X61490475Y-61906580D02*
X61528570Y-61982771D01*
X61528570Y-61982771D02*
X61566666Y-62135152D01*
X61566666Y-62135152D02*
X61566666Y-62249438D01*
X61566666Y-62249438D02*
X61528570Y-62401819D01*
X61528570Y-62401819D02*
X61490475Y-62478009D01*
X61490475Y-62478009D02*
X61414285Y-62554200D01*
X61414285Y-62554200D02*
X61299999Y-62592295D01*
X61299999Y-62592295D02*
X61223808Y-62592295D01*
X61223808Y-62592295D02*
X61109523Y-62554200D01*
X61109523Y-62554200D02*
X61071427Y-62516104D01*
X61071427Y-62516104D02*
X61071427Y-62249438D01*
X61071427Y-62249438D02*
X61223808Y-62249438D01*
X60728570Y-61792295D02*
X60728570Y-62439914D01*
X60728570Y-62439914D02*
X60690475Y-62516104D01*
X60690475Y-62516104D02*
X60652380Y-62554200D01*
X60652380Y-62554200D02*
X60576189Y-62592295D01*
X60576189Y-62592295D02*
X60423808Y-62592295D01*
X60423808Y-62592295D02*
X60347618Y-62554200D01*
X60347618Y-62554200D02*
X60309523Y-62516104D01*
X60309523Y-62516104D02*
X60271427Y-62439914D01*
X60271427Y-62439914D02*
X60271427Y-61792295D01*
X59890475Y-62592295D02*
X59890475Y-61792295D01*
X59547619Y-62363723D02*
X59166666Y-62363723D01*
X59623809Y-62592295D02*
X59357142Y-61792295D01*
X59357142Y-61792295D02*
X59090476Y-62592295D01*
X57833333Y-61792295D02*
X58214285Y-61792295D01*
X58214285Y-61792295D02*
X58252381Y-62173247D01*
X58252381Y-62173247D02*
X58214285Y-62135152D01*
X58214285Y-62135152D02*
X58138095Y-62097057D01*
X58138095Y-62097057D02*
X57947619Y-62097057D01*
X57947619Y-62097057D02*
X57871428Y-62135152D01*
X57871428Y-62135152D02*
X57833333Y-62173247D01*
X57833333Y-62173247D02*
X57795238Y-62249438D01*
X57795238Y-62249438D02*
X57795238Y-62439914D01*
X57795238Y-62439914D02*
X57833333Y-62516104D01*
X57833333Y-62516104D02*
X57871428Y-62554200D01*
X57871428Y-62554200D02*
X57947619Y-62592295D01*
X57947619Y-62592295D02*
X58138095Y-62592295D01*
X58138095Y-62592295D02*
X58214285Y-62554200D01*
X58214285Y-62554200D02*
X58252381Y-62516104D01*
X56880952Y-61754200D02*
X57566666Y-62782771D01*
X56233333Y-61792295D02*
X56614285Y-61792295D01*
X56614285Y-61792295D02*
X56652381Y-62173247D01*
X56652381Y-62173247D02*
X56614285Y-62135152D01*
X56614285Y-62135152D02*
X56538095Y-62097057D01*
X56538095Y-62097057D02*
X56347619Y-62097057D01*
X56347619Y-62097057D02*
X56271428Y-62135152D01*
X56271428Y-62135152D02*
X56233333Y-62173247D01*
X56233333Y-62173247D02*
X56195238Y-62249438D01*
X56195238Y-62249438D02*
X56195238Y-62439914D01*
X56195238Y-62439914D02*
X56233333Y-62516104D01*
X56233333Y-62516104D02*
X56271428Y-62554200D01*
X56271428Y-62554200D02*
X56347619Y-62592295D01*
X56347619Y-62592295D02*
X56538095Y-62592295D01*
X56538095Y-62592295D02*
X56614285Y-62554200D01*
X56614285Y-62554200D02*
X56652381Y-62516104D01*
X55890476Y-61868485D02*
X55852380Y-61830390D01*
X55852380Y-61830390D02*
X55776190Y-61792295D01*
X55776190Y-61792295D02*
X55585714Y-61792295D01*
X55585714Y-61792295D02*
X55509523Y-61830390D01*
X55509523Y-61830390D02*
X55471428Y-61868485D01*
X55471428Y-61868485D02*
X55433333Y-61944676D01*
X55433333Y-61944676D02*
X55433333Y-62020866D01*
X55433333Y-62020866D02*
X55471428Y-62135152D01*
X55471428Y-62135152D02*
X55928571Y-62592295D01*
X55928571Y-62592295D02*
X55433333Y-62592295D01*
X73898095Y-55484819D02*
X74374285Y-55484819D01*
X74374285Y-55484819D02*
X74421904Y-55961009D01*
X74421904Y-55961009D02*
X74374285Y-55913390D01*
X74374285Y-55913390D02*
X74279047Y-55865771D01*
X74279047Y-55865771D02*
X74040952Y-55865771D01*
X74040952Y-55865771D02*
X73945714Y-55913390D01*
X73945714Y-55913390D02*
X73898095Y-55961009D01*
X73898095Y-55961009D02*
X73850476Y-56056247D01*
X73850476Y-56056247D02*
X73850476Y-56294342D01*
X73850476Y-56294342D02*
X73898095Y-56389580D01*
X73898095Y-56389580D02*
X73945714Y-56437200D01*
X73945714Y-56437200D02*
X74040952Y-56484819D01*
X74040952Y-56484819D02*
X74279047Y-56484819D01*
X74279047Y-56484819D02*
X74374285Y-56437200D01*
X74374285Y-56437200D02*
X74421904Y-56389580D01*
X72993333Y-55484819D02*
X73183809Y-55484819D01*
X73183809Y-55484819D02*
X73279047Y-55532438D01*
X73279047Y-55532438D02*
X73326666Y-55580057D01*
X73326666Y-55580057D02*
X73421904Y-55722914D01*
X73421904Y-55722914D02*
X73469523Y-55913390D01*
X73469523Y-55913390D02*
X73469523Y-56294342D01*
X73469523Y-56294342D02*
X73421904Y-56389580D01*
X73421904Y-56389580D02*
X73374285Y-56437200D01*
X73374285Y-56437200D02*
X73279047Y-56484819D01*
X73279047Y-56484819D02*
X73088571Y-56484819D01*
X73088571Y-56484819D02*
X72993333Y-56437200D01*
X72993333Y-56437200D02*
X72945714Y-56389580D01*
X72945714Y-56389580D02*
X72898095Y-56294342D01*
X72898095Y-56294342D02*
X72898095Y-56056247D01*
X72898095Y-56056247D02*
X72945714Y-55961009D01*
X72945714Y-55961009D02*
X72993333Y-55913390D01*
X72993333Y-55913390D02*
X73088571Y-55865771D01*
X73088571Y-55865771D02*
X73279047Y-55865771D01*
X73279047Y-55865771D02*
X73374285Y-55913390D01*
X73374285Y-55913390D02*
X73421904Y-55961009D01*
X73421904Y-55961009D02*
X73469523Y-56056247D01*
X73374285Y-68884819D02*
X73945713Y-68884819D01*
X73659999Y-68884819D02*
X73659999Y-67884819D01*
X73659999Y-67884819D02*
X73755237Y-68027676D01*
X73755237Y-68027676D02*
X73850475Y-68122914D01*
X73850475Y-68122914D02*
X73945713Y-68170533D01*
%TO.C,J1*%
X2880000Y-57230000D02*
X2880000Y-67230000D01*
X2880000Y-67230000D02*
X75860000Y-67230000D01*
X63500000Y-57230000D02*
X63500000Y-67230000D01*
X75860000Y-57230000D02*
X2880000Y-57230000D01*
X75860000Y-67230000D02*
X75860000Y-57230000D01*
%TD*%
%LPC*%
D11*
%TO.C,U3*%
X6350000Y-5080000D03*
D12*
X6350000Y-7620000D03*
X6350000Y-10160000D03*
X6350000Y-12700000D03*
X6350000Y-15240000D03*
X6350000Y-17780000D03*
X6350000Y-20320000D03*
X6350000Y-22860000D03*
X6350000Y-25400000D03*
X6350000Y-27940000D03*
X6350000Y-30480000D03*
X6350000Y-33020000D03*
X6350000Y-35560000D03*
X6350000Y-38100000D03*
X6350000Y-40640000D03*
X6350000Y-43180000D03*
X21590000Y-43180000D03*
X21590000Y-40640000D03*
X21590000Y-38100000D03*
X21590000Y-35560000D03*
X21590000Y-33020000D03*
X21590000Y-30480000D03*
X21590000Y-27940000D03*
X21590000Y-25400000D03*
X21590000Y-22860000D03*
X21590000Y-20320000D03*
X21590000Y-17780000D03*
X21590000Y-15240000D03*
X21590000Y-12700000D03*
X21590000Y-10160000D03*
X21590000Y-7620000D03*
X21590000Y-5080000D03*
%TD*%
D13*
%TO.C,JP2*%
X71500000Y-17000000D03*
D14*
X71500000Y-19540000D03*
X71500000Y-22080000D03*
%TD*%
D15*
%TO.C,TP2*%
X64000000Y-47200000D03*
%TD*%
D13*
%TO.C,JP1*%
X71500000Y-8000000D03*
D14*
X71500000Y-10540000D03*
X71500000Y-13080000D03*
%TD*%
D16*
%TO.C,C5*%
X36000000Y-47200000D03*
X41000000Y-47200000D03*
%TD*%
%TO.C,C4*%
X12000000Y-47200000D03*
X17000000Y-47200000D03*
%TD*%
D11*
%TO.C,U2*%
X59690000Y-12700000D03*
D12*
X59690000Y-15240000D03*
X59690000Y-17780000D03*
X59690000Y-20320000D03*
X59690000Y-22860000D03*
X59690000Y-25400000D03*
X59690000Y-27940000D03*
X59690000Y-30480000D03*
X59690000Y-33020000D03*
X59690000Y-35560000D03*
X67310000Y-35560000D03*
X67310000Y-33020000D03*
X67310000Y-30480000D03*
X67310000Y-27940000D03*
X67310000Y-25400000D03*
X67310000Y-22860000D03*
X67310000Y-20320000D03*
X67310000Y-17780000D03*
X67310000Y-15240000D03*
X67310000Y-12700000D03*
%TD*%
D16*
%TO.C,R3*%
X23000000Y-53300000D03*
X25540000Y-53300000D03*
%TD*%
D15*
%TO.C,TP1*%
X60000000Y-47200000D03*
%TD*%
D11*
%TO.C,U4*%
X26670000Y-7620000D03*
D12*
X26670000Y-10160000D03*
X26670000Y-12700000D03*
X26670000Y-15240000D03*
X26670000Y-17780000D03*
X26670000Y-20320000D03*
X26670000Y-22860000D03*
X26670000Y-25400000D03*
X26670000Y-27940000D03*
X26670000Y-30480000D03*
X26670000Y-33020000D03*
X26670000Y-35560000D03*
X26670000Y-38100000D03*
X26670000Y-40640000D03*
X41910000Y-40640000D03*
X41910000Y-38100000D03*
X41910000Y-35560000D03*
X41910000Y-33020000D03*
X41910000Y-30480000D03*
X41910000Y-27940000D03*
X41910000Y-25400000D03*
X41910000Y-22860000D03*
X41910000Y-20320000D03*
X41910000Y-17780000D03*
X41910000Y-15240000D03*
X41910000Y-12700000D03*
X41910000Y-10160000D03*
X41910000Y-7620000D03*
%TD*%
D16*
%TO.C,C2*%
X28000000Y-47200000D03*
X33000000Y-47200000D03*
%TD*%
D13*
%TO.C,JP4*%
X71500000Y-33500000D03*
D14*
X71500000Y-36040000D03*
%TD*%
D16*
%TO.C,R5*%
X17000000Y-53300000D03*
X19540000Y-53300000D03*
%TD*%
D17*
%TO.C,C6*%
X44000000Y-47200000D03*
D16*
X46000000Y-47200000D03*
%TD*%
D18*
%TO.C,D1*%
X52000000Y-47200000D03*
D19*
X54540000Y-47200000D03*
%TD*%
D11*
%TO.C,U1*%
X46990000Y-10160000D03*
D12*
X46990000Y-12700000D03*
X46990000Y-15240000D03*
X46990000Y-17780000D03*
X46990000Y-20320000D03*
X46990000Y-22860000D03*
X46990000Y-25400000D03*
X46990000Y-27940000D03*
X46990000Y-30480000D03*
X46990000Y-33020000D03*
X46990000Y-35560000D03*
X46990000Y-38100000D03*
X54610000Y-38100000D03*
X54610000Y-35560000D03*
X54610000Y-33020000D03*
X54610000Y-30480000D03*
X54610000Y-27940000D03*
X54610000Y-25400000D03*
X54610000Y-22860000D03*
X54610000Y-20320000D03*
X54610000Y-17780000D03*
X54610000Y-15240000D03*
X54610000Y-12700000D03*
X54610000Y-10160000D03*
%TD*%
D16*
%TO.C,C1*%
X20000000Y-47200000D03*
X25000000Y-47200000D03*
%TD*%
%TO.C,C3*%
X4000000Y-47200000D03*
X9000000Y-47200000D03*
%TD*%
%TO.C,R4*%
X11000000Y-53300000D03*
X13540000Y-53300000D03*
%TD*%
%TO.C,R2*%
X5000000Y-53300000D03*
X7540000Y-53300000D03*
%TD*%
D13*
%TO.C,JP3*%
X71500000Y-26000000D03*
D14*
X71500000Y-28540000D03*
%TD*%
D20*
%TO.C,J1*%
X73660000Y-64655000D03*
D21*
X71120000Y-64655000D03*
X68580000Y-64655000D03*
X66040000Y-64655000D03*
X60960000Y-64655000D03*
X58420000Y-64655000D03*
X55880000Y-64655000D03*
X53340000Y-64655000D03*
X50800000Y-64655000D03*
X48260000Y-64655000D03*
X45720000Y-64655000D03*
X43180000Y-64655000D03*
X40640000Y-64655000D03*
X38100000Y-64655000D03*
X35560000Y-64655000D03*
X33020000Y-64655000D03*
X30480000Y-64655000D03*
X27940000Y-64655000D03*
X25400000Y-64655000D03*
X22860000Y-64655000D03*
X20320000Y-64655000D03*
X17780000Y-64655000D03*
X15240000Y-64655000D03*
X12700000Y-64655000D03*
X10160000Y-64655000D03*
X7620000Y-64655000D03*
X5080000Y-64655000D03*
X5080000Y-59805000D03*
X7620000Y-59805000D03*
X10160000Y-59805000D03*
X12700000Y-59805000D03*
X15240000Y-59805000D03*
X17780000Y-59805000D03*
X20320000Y-59805000D03*
X22860000Y-59805000D03*
X25400000Y-59805000D03*
X27940000Y-59805000D03*
X30480000Y-59805000D03*
X33020000Y-59805000D03*
X35560000Y-59805000D03*
X38100000Y-59805000D03*
X40640000Y-59805000D03*
X43180000Y-59805000D03*
X45720000Y-59805000D03*
X48260000Y-59805000D03*
X50800000Y-59805000D03*
X53340000Y-59805000D03*
X55880000Y-59805000D03*
X58420000Y-59805000D03*
X60960000Y-59805000D03*
X66040000Y-59805000D03*
X68580000Y-59805000D03*
X71120000Y-59805000D03*
X73660000Y-59805000D03*
%TD*%
%LPD*%
M02*
