%TF.GenerationSoftware,KiCad,Pcbnew,10.0.4*%
%TF.CreationDate,2026-07-28T00:15:56-03:00*%
%TF.ProjectId,tkmem128,746b6d65-6d31-4323-982e-6b696361645f,rev?*%
%TF.SameCoordinates,Original*%
%TF.FileFunction,Legend,Top*%
%TF.FilePolarity,Positive*%
%FSLAX46Y46*%
G04 Gerber Fmt 4.6, Leading zero omitted, Abs format (unit mm)*
G04 Created by KiCad (PCBNEW 10.0.4) date 2026-07-28 00:15:56*
%MOMM*%
%LPD*%
G01*
G04 APERTURE LIST*
%ADD10C,0.180000*%
%ADD11C,0.320000*%
%ADD12C,0.200000*%
%ADD13C,0.160000*%
%ADD14C,0.120000*%
%ADD15C,0.150000*%
G04 APERTURE END LIST*
D10*
X32078571Y-43092711D02*
X32121428Y-43049854D01*
X32121428Y-43049854D02*
X32207143Y-43006997D01*
X32207143Y-43006997D02*
X32421428Y-43006997D01*
X32421428Y-43006997D02*
X32507143Y-43049854D01*
X32507143Y-43049854D02*
X32550000Y-43092711D01*
X32550000Y-43092711D02*
X32592857Y-43178425D01*
X32592857Y-43178425D02*
X32592857Y-43264140D01*
X32592857Y-43264140D02*
X32550000Y-43392711D01*
X32550000Y-43392711D02*
X32035714Y-43906997D01*
X32035714Y-43906997D02*
X32592857Y-43906997D01*
X32892857Y-43006997D02*
X33492857Y-43006997D01*
X33492857Y-43006997D02*
X33107143Y-43906997D01*
X34350000Y-43821282D02*
X34307143Y-43864140D01*
X34307143Y-43864140D02*
X34178571Y-43906997D01*
X34178571Y-43906997D02*
X34092857Y-43906997D01*
X34092857Y-43906997D02*
X33964286Y-43864140D01*
X33964286Y-43864140D02*
X33878571Y-43778425D01*
X33878571Y-43778425D02*
X33835714Y-43692711D01*
X33835714Y-43692711D02*
X33792857Y-43521282D01*
X33792857Y-43521282D02*
X33792857Y-43392711D01*
X33792857Y-43392711D02*
X33835714Y-43221282D01*
X33835714Y-43221282D02*
X33878571Y-43135568D01*
X33878571Y-43135568D02*
X33964286Y-43049854D01*
X33964286Y-43049854D02*
X34092857Y-43006997D01*
X34092857Y-43006997D02*
X34178571Y-43006997D01*
X34178571Y-43006997D02*
X34307143Y-43049854D01*
X34307143Y-43049854D02*
X34350000Y-43092711D01*
X34692857Y-43092711D02*
X34735714Y-43049854D01*
X34735714Y-43049854D02*
X34821429Y-43006997D01*
X34821429Y-43006997D02*
X35035714Y-43006997D01*
X35035714Y-43006997D02*
X35121429Y-43049854D01*
X35121429Y-43049854D02*
X35164286Y-43092711D01*
X35164286Y-43092711D02*
X35207143Y-43178425D01*
X35207143Y-43178425D02*
X35207143Y-43264140D01*
X35207143Y-43264140D02*
X35164286Y-43392711D01*
X35164286Y-43392711D02*
X34650000Y-43906997D01*
X34650000Y-43906997D02*
X35207143Y-43906997D01*
X36021429Y-43006997D02*
X35592857Y-43006997D01*
X35592857Y-43006997D02*
X35550000Y-43435568D01*
X35550000Y-43435568D02*
X35592857Y-43392711D01*
X35592857Y-43392711D02*
X35678572Y-43349854D01*
X35678572Y-43349854D02*
X35892857Y-43349854D01*
X35892857Y-43349854D02*
X35978572Y-43392711D01*
X35978572Y-43392711D02*
X36021429Y-43435568D01*
X36021429Y-43435568D02*
X36064286Y-43521282D01*
X36064286Y-43521282D02*
X36064286Y-43735568D01*
X36064286Y-43735568D02*
X36021429Y-43821282D01*
X36021429Y-43821282D02*
X35978572Y-43864140D01*
X35978572Y-43864140D02*
X35892857Y-43906997D01*
X35892857Y-43906997D02*
X35678572Y-43906997D01*
X35678572Y-43906997D02*
X35592857Y-43864140D01*
X35592857Y-43864140D02*
X35550000Y-43821282D01*
X36835715Y-43006997D02*
X36664286Y-43006997D01*
X36664286Y-43006997D02*
X36578572Y-43049854D01*
X36578572Y-43049854D02*
X36535715Y-43092711D01*
X36535715Y-43092711D02*
X36450000Y-43221282D01*
X36450000Y-43221282D02*
X36407143Y-43392711D01*
X36407143Y-43392711D02*
X36407143Y-43735568D01*
X36407143Y-43735568D02*
X36450000Y-43821282D01*
X36450000Y-43821282D02*
X36492857Y-43864140D01*
X36492857Y-43864140D02*
X36578572Y-43906997D01*
X36578572Y-43906997D02*
X36750000Y-43906997D01*
X36750000Y-43906997D02*
X36835715Y-43864140D01*
X36835715Y-43864140D02*
X36878572Y-43821282D01*
X36878572Y-43821282D02*
X36921429Y-43735568D01*
X36921429Y-43735568D02*
X36921429Y-43521282D01*
X36921429Y-43521282D02*
X36878572Y-43435568D01*
X36878572Y-43435568D02*
X36835715Y-43392711D01*
X36835715Y-43392711D02*
X36750000Y-43349854D01*
X36750000Y-43349854D02*
X36578572Y-43349854D01*
X36578572Y-43349854D02*
X36492857Y-43392711D01*
X36492857Y-43392711D02*
X36450000Y-43435568D01*
X36450000Y-43435568D02*
X36407143Y-43521282D01*
X47935713Y-41149854D02*
X48364285Y-41149854D01*
X47849999Y-41406997D02*
X48149999Y-40506997D01*
X48149999Y-40506997D02*
X48449999Y-41406997D01*
X48621428Y-40506997D02*
X49135714Y-40506997D01*
X48878571Y-41406997D02*
X48878571Y-40506997D01*
X49735713Y-40935568D02*
X49435713Y-40935568D01*
X49435713Y-41406997D02*
X49435713Y-40506997D01*
X49435713Y-40506997D02*
X49864285Y-40506997D01*
X50164285Y-40592711D02*
X50207142Y-40549854D01*
X50207142Y-40549854D02*
X50292857Y-40506997D01*
X50292857Y-40506997D02*
X50507142Y-40506997D01*
X50507142Y-40506997D02*
X50592857Y-40549854D01*
X50592857Y-40549854D02*
X50635714Y-40592711D01*
X50635714Y-40592711D02*
X50678571Y-40678425D01*
X50678571Y-40678425D02*
X50678571Y-40764140D01*
X50678571Y-40764140D02*
X50635714Y-40892711D01*
X50635714Y-40892711D02*
X50121428Y-41406997D01*
X50121428Y-41406997D02*
X50678571Y-41406997D01*
X51235714Y-40506997D02*
X51321428Y-40506997D01*
X51321428Y-40506997D02*
X51407142Y-40549854D01*
X51407142Y-40549854D02*
X51450000Y-40592711D01*
X51450000Y-40592711D02*
X51492857Y-40678425D01*
X51492857Y-40678425D02*
X51535714Y-40849854D01*
X51535714Y-40849854D02*
X51535714Y-41064140D01*
X51535714Y-41064140D02*
X51492857Y-41235568D01*
X51492857Y-41235568D02*
X51450000Y-41321282D01*
X51450000Y-41321282D02*
X51407142Y-41364140D01*
X51407142Y-41364140D02*
X51321428Y-41406997D01*
X51321428Y-41406997D02*
X51235714Y-41406997D01*
X51235714Y-41406997D02*
X51150000Y-41364140D01*
X51150000Y-41364140D02*
X51107142Y-41321282D01*
X51107142Y-41321282D02*
X51064285Y-41235568D01*
X51064285Y-41235568D02*
X51021428Y-41064140D01*
X51021428Y-41064140D02*
X51021428Y-40849854D01*
X51021428Y-40849854D02*
X51064285Y-40678425D01*
X51064285Y-40678425D02*
X51107142Y-40592711D01*
X51107142Y-40592711D02*
X51150000Y-40549854D01*
X51150000Y-40549854D02*
X51235714Y-40506997D01*
X51792857Y-40506997D02*
X52092857Y-41406997D01*
X52092857Y-41406997D02*
X52392857Y-40506997D01*
X52821429Y-40892711D02*
X52735714Y-40849854D01*
X52735714Y-40849854D02*
X52692857Y-40806997D01*
X52692857Y-40806997D02*
X52650000Y-40721282D01*
X52650000Y-40721282D02*
X52650000Y-40678425D01*
X52650000Y-40678425D02*
X52692857Y-40592711D01*
X52692857Y-40592711D02*
X52735714Y-40549854D01*
X52735714Y-40549854D02*
X52821429Y-40506997D01*
X52821429Y-40506997D02*
X52992857Y-40506997D01*
X52992857Y-40506997D02*
X53078572Y-40549854D01*
X53078572Y-40549854D02*
X53121429Y-40592711D01*
X53121429Y-40592711D02*
X53164286Y-40678425D01*
X53164286Y-40678425D02*
X53164286Y-40721282D01*
X53164286Y-40721282D02*
X53121429Y-40806997D01*
X53121429Y-40806997D02*
X53078572Y-40849854D01*
X53078572Y-40849854D02*
X52992857Y-40892711D01*
X52992857Y-40892711D02*
X52821429Y-40892711D01*
X52821429Y-40892711D02*
X52735714Y-40935568D01*
X52735714Y-40935568D02*
X52692857Y-40978425D01*
X52692857Y-40978425D02*
X52650000Y-41064140D01*
X52650000Y-41064140D02*
X52650000Y-41235568D01*
X52650000Y-41235568D02*
X52692857Y-41321282D01*
X52692857Y-41321282D02*
X52735714Y-41364140D01*
X52735714Y-41364140D02*
X52821429Y-41406997D01*
X52821429Y-41406997D02*
X52992857Y-41406997D01*
X52992857Y-41406997D02*
X53078572Y-41364140D01*
X53078572Y-41364140D02*
X53121429Y-41321282D01*
X53121429Y-41321282D02*
X53164286Y-41235568D01*
X53164286Y-41235568D02*
X53164286Y-41064140D01*
X53164286Y-41064140D02*
X53121429Y-40978425D01*
X53121429Y-40978425D02*
X53078572Y-40935568D01*
X53078572Y-40935568D02*
X52992857Y-40892711D01*
X53850000Y-40935568D02*
X53978572Y-40978425D01*
X53978572Y-40978425D02*
X54021429Y-41021282D01*
X54021429Y-41021282D02*
X54064286Y-41106997D01*
X54064286Y-41106997D02*
X54064286Y-41235568D01*
X54064286Y-41235568D02*
X54021429Y-41321282D01*
X54021429Y-41321282D02*
X53978572Y-41364140D01*
X53978572Y-41364140D02*
X53892857Y-41406997D01*
X53892857Y-41406997D02*
X53550000Y-41406997D01*
X53550000Y-41406997D02*
X53550000Y-40506997D01*
X53550000Y-40506997D02*
X53850000Y-40506997D01*
X53850000Y-40506997D02*
X53935715Y-40549854D01*
X53935715Y-40549854D02*
X53978572Y-40592711D01*
X53978572Y-40592711D02*
X54021429Y-40678425D01*
X54021429Y-40678425D02*
X54021429Y-40764140D01*
X54021429Y-40764140D02*
X53978572Y-40849854D01*
X53978572Y-40849854D02*
X53935715Y-40892711D01*
X53935715Y-40892711D02*
X53850000Y-40935568D01*
X53850000Y-40935568D02*
X53550000Y-40935568D01*
X60221428Y-38006997D02*
X60821428Y-38006997D01*
X60821428Y-38006997D02*
X60435714Y-38906997D01*
X61550000Y-38306997D02*
X61550000Y-38906997D01*
X61335714Y-37964140D02*
X61121428Y-38606997D01*
X61121428Y-38606997D02*
X61678571Y-38606997D01*
X62021428Y-38906997D02*
X62021428Y-38006997D01*
X62021428Y-38435568D02*
X62535714Y-38435568D01*
X62535714Y-38906997D02*
X62535714Y-38006997D01*
X63478571Y-38821282D02*
X63435714Y-38864140D01*
X63435714Y-38864140D02*
X63307142Y-38906997D01*
X63307142Y-38906997D02*
X63221428Y-38906997D01*
X63221428Y-38906997D02*
X63092857Y-38864140D01*
X63092857Y-38864140D02*
X63007142Y-38778425D01*
X63007142Y-38778425D02*
X62964285Y-38692711D01*
X62964285Y-38692711D02*
X62921428Y-38521282D01*
X62921428Y-38521282D02*
X62921428Y-38392711D01*
X62921428Y-38392711D02*
X62964285Y-38221282D01*
X62964285Y-38221282D02*
X63007142Y-38135568D01*
X63007142Y-38135568D02*
X63092857Y-38049854D01*
X63092857Y-38049854D02*
X63221428Y-38006997D01*
X63221428Y-38006997D02*
X63307142Y-38006997D01*
X63307142Y-38006997D02*
X63435714Y-38049854D01*
X63435714Y-38049854D02*
X63478571Y-38092711D01*
X63735714Y-38006997D02*
X64250000Y-38006997D01*
X63992857Y-38906997D02*
X63992857Y-38006997D01*
X64507142Y-38092711D02*
X64549999Y-38049854D01*
X64549999Y-38049854D02*
X64635714Y-38006997D01*
X64635714Y-38006997D02*
X64849999Y-38006997D01*
X64849999Y-38006997D02*
X64935714Y-38049854D01*
X64935714Y-38049854D02*
X64978571Y-38092711D01*
X64978571Y-38092711D02*
X65021428Y-38178425D01*
X65021428Y-38178425D02*
X65021428Y-38264140D01*
X65021428Y-38264140D02*
X64978571Y-38392711D01*
X64978571Y-38392711D02*
X64464285Y-38906997D01*
X64464285Y-38906997D02*
X65021428Y-38906997D01*
X65321428Y-38006997D02*
X65921428Y-38006997D01*
X65921428Y-38006997D02*
X65535714Y-38906997D01*
X66178571Y-38006997D02*
X66735714Y-38006997D01*
X66735714Y-38006997D02*
X66435714Y-38349854D01*
X66435714Y-38349854D02*
X66564285Y-38349854D01*
X66564285Y-38349854D02*
X66650000Y-38392711D01*
X66650000Y-38392711D02*
X66692857Y-38435568D01*
X66692857Y-38435568D02*
X66735714Y-38521282D01*
X66735714Y-38521282D02*
X66735714Y-38735568D01*
X66735714Y-38735568D02*
X66692857Y-38821282D01*
X66692857Y-38821282D02*
X66650000Y-38864140D01*
X66650000Y-38864140D02*
X66564285Y-38906997D01*
X66564285Y-38906997D02*
X66307142Y-38906997D01*
X66307142Y-38906997D02*
X66221428Y-38864140D01*
X66221428Y-38864140D02*
X66178571Y-38821282D01*
X3649854Y-37371429D02*
X3649854Y-36942858D01*
X3906997Y-37457143D02*
X3006997Y-37157143D01*
X3006997Y-37157143D02*
X3906997Y-36857143D01*
X3864140Y-36600000D02*
X3906997Y-36471429D01*
X3906997Y-36471429D02*
X3906997Y-36257143D01*
X3906997Y-36257143D02*
X3864140Y-36171429D01*
X3864140Y-36171429D02*
X3821282Y-36128571D01*
X3821282Y-36128571D02*
X3735568Y-36085714D01*
X3735568Y-36085714D02*
X3649854Y-36085714D01*
X3649854Y-36085714D02*
X3564140Y-36128571D01*
X3564140Y-36128571D02*
X3521282Y-36171429D01*
X3521282Y-36171429D02*
X3478425Y-36257143D01*
X3478425Y-36257143D02*
X3435568Y-36428571D01*
X3435568Y-36428571D02*
X3392711Y-36514286D01*
X3392711Y-36514286D02*
X3349854Y-36557143D01*
X3349854Y-36557143D02*
X3264140Y-36600000D01*
X3264140Y-36600000D02*
X3178425Y-36600000D01*
X3178425Y-36600000D02*
X3092711Y-36557143D01*
X3092711Y-36557143D02*
X3049854Y-36514286D01*
X3049854Y-36514286D02*
X3006997Y-36428571D01*
X3006997Y-36428571D02*
X3006997Y-36214286D01*
X3006997Y-36214286D02*
X3049854Y-36085714D01*
X3006997Y-35314286D02*
X3006997Y-35485714D01*
X3006997Y-35485714D02*
X3049854Y-35571428D01*
X3049854Y-35571428D02*
X3092711Y-35614286D01*
X3092711Y-35614286D02*
X3221282Y-35700000D01*
X3221282Y-35700000D02*
X3392711Y-35742857D01*
X3392711Y-35742857D02*
X3735568Y-35742857D01*
X3735568Y-35742857D02*
X3821282Y-35700000D01*
X3821282Y-35700000D02*
X3864140Y-35657143D01*
X3864140Y-35657143D02*
X3906997Y-35571428D01*
X3906997Y-35571428D02*
X3906997Y-35400000D01*
X3906997Y-35400000D02*
X3864140Y-35314286D01*
X3864140Y-35314286D02*
X3821282Y-35271428D01*
X3821282Y-35271428D02*
X3735568Y-35228571D01*
X3735568Y-35228571D02*
X3521282Y-35228571D01*
X3521282Y-35228571D02*
X3435568Y-35271428D01*
X3435568Y-35271428D02*
X3392711Y-35314286D01*
X3392711Y-35314286D02*
X3349854Y-35400000D01*
X3349854Y-35400000D02*
X3349854Y-35571428D01*
X3349854Y-35571428D02*
X3392711Y-35657143D01*
X3392711Y-35657143D02*
X3435568Y-35700000D01*
X3435568Y-35700000D02*
X3521282Y-35742857D01*
X3821282Y-34328571D02*
X3864140Y-34371428D01*
X3864140Y-34371428D02*
X3906997Y-34500000D01*
X3906997Y-34500000D02*
X3906997Y-34585714D01*
X3906997Y-34585714D02*
X3864140Y-34714285D01*
X3864140Y-34714285D02*
X3778425Y-34800000D01*
X3778425Y-34800000D02*
X3692711Y-34842857D01*
X3692711Y-34842857D02*
X3521282Y-34885714D01*
X3521282Y-34885714D02*
X3392711Y-34885714D01*
X3392711Y-34885714D02*
X3221282Y-34842857D01*
X3221282Y-34842857D02*
X3135568Y-34800000D01*
X3135568Y-34800000D02*
X3049854Y-34714285D01*
X3049854Y-34714285D02*
X3006997Y-34585714D01*
X3006997Y-34585714D02*
X3006997Y-34500000D01*
X3006997Y-34500000D02*
X3049854Y-34371428D01*
X3049854Y-34371428D02*
X3092711Y-34328571D01*
X3906997Y-33471428D02*
X3906997Y-33985714D01*
X3906997Y-33728571D02*
X3006997Y-33728571D01*
X3006997Y-33728571D02*
X3135568Y-33814285D01*
X3135568Y-33814285D02*
X3221282Y-33900000D01*
X3221282Y-33900000D02*
X3264140Y-33985714D01*
X3006997Y-32914285D02*
X3006997Y-32828571D01*
X3006997Y-32828571D02*
X3049854Y-32742857D01*
X3049854Y-32742857D02*
X3092711Y-32700000D01*
X3092711Y-32700000D02*
X3178425Y-32657142D01*
X3178425Y-32657142D02*
X3349854Y-32614285D01*
X3349854Y-32614285D02*
X3564140Y-32614285D01*
X3564140Y-32614285D02*
X3735568Y-32657142D01*
X3735568Y-32657142D02*
X3821282Y-32700000D01*
X3821282Y-32700000D02*
X3864140Y-32742857D01*
X3864140Y-32742857D02*
X3906997Y-32828571D01*
X3906997Y-32828571D02*
X3906997Y-32914285D01*
X3906997Y-32914285D02*
X3864140Y-33000000D01*
X3864140Y-33000000D02*
X3821282Y-33042857D01*
X3821282Y-33042857D02*
X3735568Y-33085714D01*
X3735568Y-33085714D02*
X3564140Y-33128571D01*
X3564140Y-33128571D02*
X3349854Y-33128571D01*
X3349854Y-33128571D02*
X3178425Y-33085714D01*
X3178425Y-33085714D02*
X3092711Y-33042857D01*
X3092711Y-33042857D02*
X3049854Y-33000000D01*
X3049854Y-33000000D02*
X3006997Y-32914285D01*
X3006997Y-32057142D02*
X3006997Y-31971428D01*
X3006997Y-31971428D02*
X3049854Y-31885714D01*
X3049854Y-31885714D02*
X3092711Y-31842857D01*
X3092711Y-31842857D02*
X3178425Y-31799999D01*
X3178425Y-31799999D02*
X3349854Y-31757142D01*
X3349854Y-31757142D02*
X3564140Y-31757142D01*
X3564140Y-31757142D02*
X3735568Y-31799999D01*
X3735568Y-31799999D02*
X3821282Y-31842857D01*
X3821282Y-31842857D02*
X3864140Y-31885714D01*
X3864140Y-31885714D02*
X3906997Y-31971428D01*
X3906997Y-31971428D02*
X3906997Y-32057142D01*
X3906997Y-32057142D02*
X3864140Y-32142857D01*
X3864140Y-32142857D02*
X3821282Y-32185714D01*
X3821282Y-32185714D02*
X3735568Y-32228571D01*
X3735568Y-32228571D02*
X3564140Y-32271428D01*
X3564140Y-32271428D02*
X3349854Y-32271428D01*
X3349854Y-32271428D02*
X3178425Y-32228571D01*
X3178425Y-32228571D02*
X3092711Y-32185714D01*
X3092711Y-32185714D02*
X3049854Y-32142857D01*
X3049854Y-32142857D02*
X3006997Y-32057142D01*
X3392711Y-31242856D02*
X3349854Y-31328571D01*
X3349854Y-31328571D02*
X3306997Y-31371428D01*
X3306997Y-31371428D02*
X3221282Y-31414285D01*
X3221282Y-31414285D02*
X3178425Y-31414285D01*
X3178425Y-31414285D02*
X3092711Y-31371428D01*
X3092711Y-31371428D02*
X3049854Y-31328571D01*
X3049854Y-31328571D02*
X3006997Y-31242856D01*
X3006997Y-31242856D02*
X3006997Y-31071428D01*
X3006997Y-31071428D02*
X3049854Y-30985714D01*
X3049854Y-30985714D02*
X3092711Y-30942856D01*
X3092711Y-30942856D02*
X3178425Y-30899999D01*
X3178425Y-30899999D02*
X3221282Y-30899999D01*
X3221282Y-30899999D02*
X3306997Y-30942856D01*
X3306997Y-30942856D02*
X3349854Y-30985714D01*
X3349854Y-30985714D02*
X3392711Y-31071428D01*
X3392711Y-31071428D02*
X3392711Y-31242856D01*
X3392711Y-31242856D02*
X3435568Y-31328571D01*
X3435568Y-31328571D02*
X3478425Y-31371428D01*
X3478425Y-31371428D02*
X3564140Y-31414285D01*
X3564140Y-31414285D02*
X3735568Y-31414285D01*
X3735568Y-31414285D02*
X3821282Y-31371428D01*
X3821282Y-31371428D02*
X3864140Y-31328571D01*
X3864140Y-31328571D02*
X3906997Y-31242856D01*
X3906997Y-31242856D02*
X3906997Y-31071428D01*
X3906997Y-31071428D02*
X3864140Y-30985714D01*
X3864140Y-30985714D02*
X3821282Y-30942856D01*
X3821282Y-30942856D02*
X3735568Y-30899999D01*
X3735568Y-30899999D02*
X3564140Y-30899999D01*
X3564140Y-30899999D02*
X3478425Y-30942856D01*
X3478425Y-30942856D02*
X3435568Y-30985714D01*
X3435568Y-30985714D02*
X3392711Y-31071428D01*
X3564140Y-30514285D02*
X3564140Y-29828571D01*
X3006997Y-28971427D02*
X3006997Y-29399999D01*
X3006997Y-29399999D02*
X3435568Y-29442856D01*
X3435568Y-29442856D02*
X3392711Y-29399999D01*
X3392711Y-29399999D02*
X3349854Y-29314285D01*
X3349854Y-29314285D02*
X3349854Y-29099999D01*
X3349854Y-29099999D02*
X3392711Y-29014285D01*
X3392711Y-29014285D02*
X3435568Y-28971427D01*
X3435568Y-28971427D02*
X3521282Y-28928570D01*
X3521282Y-28928570D02*
X3735568Y-28928570D01*
X3735568Y-28928570D02*
X3821282Y-28971427D01*
X3821282Y-28971427D02*
X3864140Y-29014285D01*
X3864140Y-29014285D02*
X3906997Y-29099999D01*
X3906997Y-29099999D02*
X3906997Y-29314285D01*
X3906997Y-29314285D02*
X3864140Y-29399999D01*
X3864140Y-29399999D02*
X3821282Y-29442856D01*
X3006997Y-28114284D02*
X3006997Y-28542856D01*
X3006997Y-28542856D02*
X3435568Y-28585713D01*
X3435568Y-28585713D02*
X3392711Y-28542856D01*
X3392711Y-28542856D02*
X3349854Y-28457142D01*
X3349854Y-28457142D02*
X3349854Y-28242856D01*
X3349854Y-28242856D02*
X3392711Y-28157142D01*
X3392711Y-28157142D02*
X3435568Y-28114284D01*
X3435568Y-28114284D02*
X3521282Y-28071427D01*
X3521282Y-28071427D02*
X3735568Y-28071427D01*
X3735568Y-28071427D02*
X3821282Y-28114284D01*
X3821282Y-28114284D02*
X3864140Y-28157142D01*
X3864140Y-28157142D02*
X3906997Y-28242856D01*
X3906997Y-28242856D02*
X3906997Y-28457142D01*
X3906997Y-28457142D02*
X3864140Y-28542856D01*
X3864140Y-28542856D02*
X3821282Y-28585713D01*
X3906997Y-27685713D02*
X3006997Y-27685713D01*
X3006997Y-27685713D02*
X3006997Y-27342856D01*
X3006997Y-27342856D02*
X3049854Y-27257141D01*
X3049854Y-27257141D02*
X3092711Y-27214284D01*
X3092711Y-27214284D02*
X3178425Y-27171427D01*
X3178425Y-27171427D02*
X3306997Y-27171427D01*
X3306997Y-27171427D02*
X3392711Y-27214284D01*
X3392711Y-27214284D02*
X3435568Y-27257141D01*
X3435568Y-27257141D02*
X3478425Y-27342856D01*
X3478425Y-27342856D02*
X3478425Y-27685713D01*
X3821282Y-26271427D02*
X3864140Y-26314284D01*
X3864140Y-26314284D02*
X3906997Y-26442856D01*
X3906997Y-26442856D02*
X3906997Y-26528570D01*
X3906997Y-26528570D02*
X3864140Y-26657141D01*
X3864140Y-26657141D02*
X3778425Y-26742856D01*
X3778425Y-26742856D02*
X3692711Y-26785713D01*
X3692711Y-26785713D02*
X3521282Y-26828570D01*
X3521282Y-26828570D02*
X3392711Y-26828570D01*
X3392711Y-26828570D02*
X3221282Y-26785713D01*
X3221282Y-26785713D02*
X3135568Y-26742856D01*
X3135568Y-26742856D02*
X3049854Y-26657141D01*
X3049854Y-26657141D02*
X3006997Y-26528570D01*
X3006997Y-26528570D02*
X3006997Y-26442856D01*
X3006997Y-26442856D02*
X3049854Y-26314284D01*
X3049854Y-26314284D02*
X3092711Y-26271427D01*
X3906997Y-25885713D02*
X3006997Y-25885713D01*
X3006997Y-25885713D02*
X3906997Y-25371427D01*
X3906997Y-25371427D02*
X3006997Y-25371427D01*
X2964140Y-23614285D02*
X4121282Y-24385713D01*
X3649854Y-22671428D02*
X3649854Y-22242857D01*
X3906997Y-22757142D02*
X3006997Y-22457142D01*
X3006997Y-22457142D02*
X3906997Y-22157142D01*
X3864140Y-21899999D02*
X3906997Y-21771428D01*
X3906997Y-21771428D02*
X3906997Y-21557142D01*
X3906997Y-21557142D02*
X3864140Y-21471428D01*
X3864140Y-21471428D02*
X3821282Y-21428570D01*
X3821282Y-21428570D02*
X3735568Y-21385713D01*
X3735568Y-21385713D02*
X3649854Y-21385713D01*
X3649854Y-21385713D02*
X3564140Y-21428570D01*
X3564140Y-21428570D02*
X3521282Y-21471428D01*
X3521282Y-21471428D02*
X3478425Y-21557142D01*
X3478425Y-21557142D02*
X3435568Y-21728570D01*
X3435568Y-21728570D02*
X3392711Y-21814285D01*
X3392711Y-21814285D02*
X3349854Y-21857142D01*
X3349854Y-21857142D02*
X3264140Y-21899999D01*
X3264140Y-21899999D02*
X3178425Y-21899999D01*
X3178425Y-21899999D02*
X3092711Y-21857142D01*
X3092711Y-21857142D02*
X3049854Y-21814285D01*
X3049854Y-21814285D02*
X3006997Y-21728570D01*
X3006997Y-21728570D02*
X3006997Y-21514285D01*
X3006997Y-21514285D02*
X3049854Y-21385713D01*
X3006997Y-20614285D02*
X3006997Y-20785713D01*
X3006997Y-20785713D02*
X3049854Y-20871427D01*
X3049854Y-20871427D02*
X3092711Y-20914285D01*
X3092711Y-20914285D02*
X3221282Y-20999999D01*
X3221282Y-20999999D02*
X3392711Y-21042856D01*
X3392711Y-21042856D02*
X3735568Y-21042856D01*
X3735568Y-21042856D02*
X3821282Y-20999999D01*
X3821282Y-20999999D02*
X3864140Y-20957142D01*
X3864140Y-20957142D02*
X3906997Y-20871427D01*
X3906997Y-20871427D02*
X3906997Y-20699999D01*
X3906997Y-20699999D02*
X3864140Y-20614285D01*
X3864140Y-20614285D02*
X3821282Y-20571427D01*
X3821282Y-20571427D02*
X3735568Y-20528570D01*
X3735568Y-20528570D02*
X3521282Y-20528570D01*
X3521282Y-20528570D02*
X3435568Y-20571427D01*
X3435568Y-20571427D02*
X3392711Y-20614285D01*
X3392711Y-20614285D02*
X3349854Y-20699999D01*
X3349854Y-20699999D02*
X3349854Y-20871427D01*
X3349854Y-20871427D02*
X3392711Y-20957142D01*
X3392711Y-20957142D02*
X3435568Y-20999999D01*
X3435568Y-20999999D02*
X3521282Y-21042856D01*
X3821282Y-19628570D02*
X3864140Y-19671427D01*
X3864140Y-19671427D02*
X3906997Y-19799999D01*
X3906997Y-19799999D02*
X3906997Y-19885713D01*
X3906997Y-19885713D02*
X3864140Y-20014284D01*
X3864140Y-20014284D02*
X3778425Y-20099999D01*
X3778425Y-20099999D02*
X3692711Y-20142856D01*
X3692711Y-20142856D02*
X3521282Y-20185713D01*
X3521282Y-20185713D02*
X3392711Y-20185713D01*
X3392711Y-20185713D02*
X3221282Y-20142856D01*
X3221282Y-20142856D02*
X3135568Y-20099999D01*
X3135568Y-20099999D02*
X3049854Y-20014284D01*
X3049854Y-20014284D02*
X3006997Y-19885713D01*
X3006997Y-19885713D02*
X3006997Y-19799999D01*
X3006997Y-19799999D02*
X3049854Y-19671427D01*
X3049854Y-19671427D02*
X3092711Y-19628570D01*
X3306997Y-18857142D02*
X3906997Y-18857142D01*
X2964140Y-19071427D02*
X3606997Y-19285713D01*
X3606997Y-19285713D02*
X3606997Y-18728570D01*
X3006997Y-18214284D02*
X3006997Y-18128570D01*
X3006997Y-18128570D02*
X3049854Y-18042856D01*
X3049854Y-18042856D02*
X3092711Y-17999999D01*
X3092711Y-17999999D02*
X3178425Y-17957141D01*
X3178425Y-17957141D02*
X3349854Y-17914284D01*
X3349854Y-17914284D02*
X3564140Y-17914284D01*
X3564140Y-17914284D02*
X3735568Y-17957141D01*
X3735568Y-17957141D02*
X3821282Y-17999999D01*
X3821282Y-17999999D02*
X3864140Y-18042856D01*
X3864140Y-18042856D02*
X3906997Y-18128570D01*
X3906997Y-18128570D02*
X3906997Y-18214284D01*
X3906997Y-18214284D02*
X3864140Y-18299999D01*
X3864140Y-18299999D02*
X3821282Y-18342856D01*
X3821282Y-18342856D02*
X3735568Y-18385713D01*
X3735568Y-18385713D02*
X3564140Y-18428570D01*
X3564140Y-18428570D02*
X3349854Y-18428570D01*
X3349854Y-18428570D02*
X3178425Y-18385713D01*
X3178425Y-18385713D02*
X3092711Y-18342856D01*
X3092711Y-18342856D02*
X3049854Y-18299999D01*
X3049854Y-18299999D02*
X3006997Y-18214284D01*
X3006997Y-17357141D02*
X3006997Y-17271427D01*
X3006997Y-17271427D02*
X3049854Y-17185713D01*
X3049854Y-17185713D02*
X3092711Y-17142856D01*
X3092711Y-17142856D02*
X3178425Y-17099998D01*
X3178425Y-17099998D02*
X3349854Y-17057141D01*
X3349854Y-17057141D02*
X3564140Y-17057141D01*
X3564140Y-17057141D02*
X3735568Y-17099998D01*
X3735568Y-17099998D02*
X3821282Y-17142856D01*
X3821282Y-17142856D02*
X3864140Y-17185713D01*
X3864140Y-17185713D02*
X3906997Y-17271427D01*
X3906997Y-17271427D02*
X3906997Y-17357141D01*
X3906997Y-17357141D02*
X3864140Y-17442856D01*
X3864140Y-17442856D02*
X3821282Y-17485713D01*
X3821282Y-17485713D02*
X3735568Y-17528570D01*
X3735568Y-17528570D02*
X3564140Y-17571427D01*
X3564140Y-17571427D02*
X3349854Y-17571427D01*
X3349854Y-17571427D02*
X3178425Y-17528570D01*
X3178425Y-17528570D02*
X3092711Y-17485713D01*
X3092711Y-17485713D02*
X3049854Y-17442856D01*
X3049854Y-17442856D02*
X3006997Y-17357141D01*
X3392711Y-16542855D02*
X3349854Y-16628570D01*
X3349854Y-16628570D02*
X3306997Y-16671427D01*
X3306997Y-16671427D02*
X3221282Y-16714284D01*
X3221282Y-16714284D02*
X3178425Y-16714284D01*
X3178425Y-16714284D02*
X3092711Y-16671427D01*
X3092711Y-16671427D02*
X3049854Y-16628570D01*
X3049854Y-16628570D02*
X3006997Y-16542855D01*
X3006997Y-16542855D02*
X3006997Y-16371427D01*
X3006997Y-16371427D02*
X3049854Y-16285713D01*
X3049854Y-16285713D02*
X3092711Y-16242855D01*
X3092711Y-16242855D02*
X3178425Y-16199998D01*
X3178425Y-16199998D02*
X3221282Y-16199998D01*
X3221282Y-16199998D02*
X3306997Y-16242855D01*
X3306997Y-16242855D02*
X3349854Y-16285713D01*
X3349854Y-16285713D02*
X3392711Y-16371427D01*
X3392711Y-16371427D02*
X3392711Y-16542855D01*
X3392711Y-16542855D02*
X3435568Y-16628570D01*
X3435568Y-16628570D02*
X3478425Y-16671427D01*
X3478425Y-16671427D02*
X3564140Y-16714284D01*
X3564140Y-16714284D02*
X3735568Y-16714284D01*
X3735568Y-16714284D02*
X3821282Y-16671427D01*
X3821282Y-16671427D02*
X3864140Y-16628570D01*
X3864140Y-16628570D02*
X3906997Y-16542855D01*
X3906997Y-16542855D02*
X3906997Y-16371427D01*
X3906997Y-16371427D02*
X3864140Y-16285713D01*
X3864140Y-16285713D02*
X3821282Y-16242855D01*
X3821282Y-16242855D02*
X3735568Y-16199998D01*
X3735568Y-16199998D02*
X3564140Y-16199998D01*
X3564140Y-16199998D02*
X3478425Y-16242855D01*
X3478425Y-16242855D02*
X3435568Y-16285713D01*
X3435568Y-16285713D02*
X3392711Y-16371427D01*
X3564140Y-15814284D02*
X3564140Y-15128570D01*
X3006997Y-14271426D02*
X3006997Y-14699998D01*
X3006997Y-14699998D02*
X3435568Y-14742855D01*
X3435568Y-14742855D02*
X3392711Y-14699998D01*
X3392711Y-14699998D02*
X3349854Y-14614284D01*
X3349854Y-14614284D02*
X3349854Y-14399998D01*
X3349854Y-14399998D02*
X3392711Y-14314284D01*
X3392711Y-14314284D02*
X3435568Y-14271426D01*
X3435568Y-14271426D02*
X3521282Y-14228569D01*
X3521282Y-14228569D02*
X3735568Y-14228569D01*
X3735568Y-14228569D02*
X3821282Y-14271426D01*
X3821282Y-14271426D02*
X3864140Y-14314284D01*
X3864140Y-14314284D02*
X3906997Y-14399998D01*
X3906997Y-14399998D02*
X3906997Y-14614284D01*
X3906997Y-14614284D02*
X3864140Y-14699998D01*
X3864140Y-14699998D02*
X3821282Y-14742855D01*
X3006997Y-13414283D02*
X3006997Y-13842855D01*
X3006997Y-13842855D02*
X3435568Y-13885712D01*
X3435568Y-13885712D02*
X3392711Y-13842855D01*
X3392711Y-13842855D02*
X3349854Y-13757141D01*
X3349854Y-13757141D02*
X3349854Y-13542855D01*
X3349854Y-13542855D02*
X3392711Y-13457141D01*
X3392711Y-13457141D02*
X3435568Y-13414283D01*
X3435568Y-13414283D02*
X3521282Y-13371426D01*
X3521282Y-13371426D02*
X3735568Y-13371426D01*
X3735568Y-13371426D02*
X3821282Y-13414283D01*
X3821282Y-13414283D02*
X3864140Y-13457141D01*
X3864140Y-13457141D02*
X3906997Y-13542855D01*
X3906997Y-13542855D02*
X3906997Y-13757141D01*
X3906997Y-13757141D02*
X3864140Y-13842855D01*
X3864140Y-13842855D02*
X3821282Y-13885712D01*
X3906997Y-12985712D02*
X3006997Y-12985712D01*
X3006997Y-12985712D02*
X3006997Y-12642855D01*
X3006997Y-12642855D02*
X3049854Y-12557140D01*
X3049854Y-12557140D02*
X3092711Y-12514283D01*
X3092711Y-12514283D02*
X3178425Y-12471426D01*
X3178425Y-12471426D02*
X3306997Y-12471426D01*
X3306997Y-12471426D02*
X3392711Y-12514283D01*
X3392711Y-12514283D02*
X3435568Y-12557140D01*
X3435568Y-12557140D02*
X3478425Y-12642855D01*
X3478425Y-12642855D02*
X3478425Y-12985712D01*
X3821282Y-11571426D02*
X3864140Y-11614283D01*
X3864140Y-11614283D02*
X3906997Y-11742855D01*
X3906997Y-11742855D02*
X3906997Y-11828569D01*
X3906997Y-11828569D02*
X3864140Y-11957140D01*
X3864140Y-11957140D02*
X3778425Y-12042855D01*
X3778425Y-12042855D02*
X3692711Y-12085712D01*
X3692711Y-12085712D02*
X3521282Y-12128569D01*
X3521282Y-12128569D02*
X3392711Y-12128569D01*
X3392711Y-12128569D02*
X3221282Y-12085712D01*
X3221282Y-12085712D02*
X3135568Y-12042855D01*
X3135568Y-12042855D02*
X3049854Y-11957140D01*
X3049854Y-11957140D02*
X3006997Y-11828569D01*
X3006997Y-11828569D02*
X3006997Y-11742855D01*
X3006997Y-11742855D02*
X3049854Y-11614283D01*
X3049854Y-11614283D02*
X3092711Y-11571426D01*
X3906997Y-11185712D02*
X3006997Y-11185712D01*
X3006997Y-11185712D02*
X3906997Y-10671426D01*
X3906997Y-10671426D02*
X3006997Y-10671426D01*
D11*
X36461901Y-2123550D02*
X37376187Y-2123550D01*
X36919044Y-3723550D02*
X36919044Y-2123550D01*
X37909521Y-3723550D02*
X37909521Y-2123550D01*
X38823807Y-3723550D02*
X38138092Y-2809264D01*
X38823807Y-2123550D02*
X37909521Y-3037836D01*
X39509521Y-3723550D02*
X39509521Y-2123550D01*
X39509521Y-2123550D02*
X40042854Y-3266407D01*
X40042854Y-3266407D02*
X40576188Y-2123550D01*
X40576188Y-2123550D02*
X40576188Y-3723550D01*
X41338092Y-2885455D02*
X41871425Y-2885455D01*
X42099997Y-3723550D02*
X41338092Y-3723550D01*
X41338092Y-3723550D02*
X41338092Y-2123550D01*
X41338092Y-2123550D02*
X42099997Y-2123550D01*
X42785711Y-3723550D02*
X42785711Y-2123550D01*
X42785711Y-2123550D02*
X43319044Y-3266407D01*
X43319044Y-3266407D02*
X43852378Y-2123550D01*
X43852378Y-2123550D02*
X43852378Y-3723550D01*
X44614282Y-3114026D02*
X45833330Y-3114026D01*
X47433329Y-3723550D02*
X46519043Y-3723550D01*
X46976186Y-3723550D02*
X46976186Y-2123550D01*
X46976186Y-2123550D02*
X46823805Y-2352121D01*
X46823805Y-2352121D02*
X46671424Y-2504502D01*
X46671424Y-2504502D02*
X46519043Y-2580693D01*
X48042853Y-2275931D02*
X48119044Y-2199740D01*
X48119044Y-2199740D02*
X48271425Y-2123550D01*
X48271425Y-2123550D02*
X48652377Y-2123550D01*
X48652377Y-2123550D02*
X48804758Y-2199740D01*
X48804758Y-2199740D02*
X48880949Y-2275931D01*
X48880949Y-2275931D02*
X48957139Y-2428312D01*
X48957139Y-2428312D02*
X48957139Y-2580693D01*
X48957139Y-2580693D02*
X48880949Y-2809264D01*
X48880949Y-2809264D02*
X47966663Y-3723550D01*
X47966663Y-3723550D02*
X48957139Y-3723550D01*
X49871425Y-2809264D02*
X49719044Y-2733074D01*
X49719044Y-2733074D02*
X49642854Y-2656883D01*
X49642854Y-2656883D02*
X49566663Y-2504502D01*
X49566663Y-2504502D02*
X49566663Y-2428312D01*
X49566663Y-2428312D02*
X49642854Y-2275931D01*
X49642854Y-2275931D02*
X49719044Y-2199740D01*
X49719044Y-2199740D02*
X49871425Y-2123550D01*
X49871425Y-2123550D02*
X50176187Y-2123550D01*
X50176187Y-2123550D02*
X50328568Y-2199740D01*
X50328568Y-2199740D02*
X50404759Y-2275931D01*
X50404759Y-2275931D02*
X50480949Y-2428312D01*
X50480949Y-2428312D02*
X50480949Y-2504502D01*
X50480949Y-2504502D02*
X50404759Y-2656883D01*
X50404759Y-2656883D02*
X50328568Y-2733074D01*
X50328568Y-2733074D02*
X50176187Y-2809264D01*
X50176187Y-2809264D02*
X49871425Y-2809264D01*
X49871425Y-2809264D02*
X49719044Y-2885455D01*
X49719044Y-2885455D02*
X49642854Y-2961645D01*
X49642854Y-2961645D02*
X49566663Y-3114026D01*
X49566663Y-3114026D02*
X49566663Y-3418788D01*
X49566663Y-3418788D02*
X49642854Y-3571169D01*
X49642854Y-3571169D02*
X49719044Y-3647360D01*
X49719044Y-3647360D02*
X49871425Y-3723550D01*
X49871425Y-3723550D02*
X50176187Y-3723550D01*
X50176187Y-3723550D02*
X50328568Y-3647360D01*
X50328568Y-3647360D02*
X50404759Y-3571169D01*
X50404759Y-3571169D02*
X50480949Y-3418788D01*
X50480949Y-3418788D02*
X50480949Y-3114026D01*
X50480949Y-3114026D02*
X50404759Y-2961645D01*
X50404759Y-2961645D02*
X50328568Y-2885455D01*
X50328568Y-2885455D02*
X50176187Y-2809264D01*
X55585713Y-3723550D02*
X54823808Y-3723550D01*
X54823808Y-3723550D02*
X54823808Y-2123550D01*
X57033332Y-3723550D02*
X56499998Y-2961645D01*
X56119046Y-3723550D02*
X56119046Y-2123550D01*
X56119046Y-2123550D02*
X56728570Y-2123550D01*
X56728570Y-2123550D02*
X56880951Y-2199740D01*
X56880951Y-2199740D02*
X56957141Y-2275931D01*
X56957141Y-2275931D02*
X57033332Y-2428312D01*
X57033332Y-2428312D02*
X57033332Y-2656883D01*
X57033332Y-2656883D02*
X56957141Y-2809264D01*
X56957141Y-2809264D02*
X56880951Y-2885455D01*
X56880951Y-2885455D02*
X56728570Y-2961645D01*
X56728570Y-2961645D02*
X56119046Y-2961645D01*
X58633332Y-3723550D02*
X58099998Y-2961645D01*
X57719046Y-3723550D02*
X57719046Y-2123550D01*
X57719046Y-2123550D02*
X58328570Y-2123550D01*
X58328570Y-2123550D02*
X58480951Y-2199740D01*
X58480951Y-2199740D02*
X58557141Y-2275931D01*
X58557141Y-2275931D02*
X58633332Y-2428312D01*
X58633332Y-2428312D02*
X58633332Y-2656883D01*
X58633332Y-2656883D02*
X58557141Y-2809264D01*
X58557141Y-2809264D02*
X58480951Y-2885455D01*
X58480951Y-2885455D02*
X58328570Y-2961645D01*
X58328570Y-2961645D02*
X57719046Y-2961645D01*
X59547617Y-3723550D02*
X59395236Y-3647360D01*
X59395236Y-3647360D02*
X59319046Y-3571169D01*
X59319046Y-3571169D02*
X59242855Y-3418788D01*
X59242855Y-3418788D02*
X59242855Y-2961645D01*
X59242855Y-2961645D02*
X59319046Y-2809264D01*
X59319046Y-2809264D02*
X59395236Y-2733074D01*
X59395236Y-2733074D02*
X59547617Y-2656883D01*
X59547617Y-2656883D02*
X59776189Y-2656883D01*
X59776189Y-2656883D02*
X59928570Y-2733074D01*
X59928570Y-2733074D02*
X60004760Y-2809264D01*
X60004760Y-2809264D02*
X60080951Y-2961645D01*
X60080951Y-2961645D02*
X60080951Y-3418788D01*
X60080951Y-3418788D02*
X60004760Y-3571169D01*
X60004760Y-3571169D02*
X59928570Y-3647360D01*
X59928570Y-3647360D02*
X59776189Y-3723550D01*
X59776189Y-3723550D02*
X59547617Y-3723550D01*
X60690474Y-3647360D02*
X60842855Y-3723550D01*
X60842855Y-3723550D02*
X61147617Y-3723550D01*
X61147617Y-3723550D02*
X61299998Y-3647360D01*
X61299998Y-3647360D02*
X61376189Y-3494979D01*
X61376189Y-3494979D02*
X61376189Y-3418788D01*
X61376189Y-3418788D02*
X61299998Y-3266407D01*
X61299998Y-3266407D02*
X61147617Y-3190217D01*
X61147617Y-3190217D02*
X60919046Y-3190217D01*
X60919046Y-3190217D02*
X60766665Y-3114026D01*
X60766665Y-3114026D02*
X60690474Y-2961645D01*
X60690474Y-2961645D02*
X60690474Y-2885455D01*
X60690474Y-2885455D02*
X60766665Y-2733074D01*
X60766665Y-2733074D02*
X60919046Y-2656883D01*
X60919046Y-2656883D02*
X61147617Y-2656883D01*
X61147617Y-2656883D02*
X61299998Y-2733074D01*
X62747617Y-3723550D02*
X62747617Y-2885455D01*
X62747617Y-2885455D02*
X62671427Y-2733074D01*
X62671427Y-2733074D02*
X62519046Y-2656883D01*
X62519046Y-2656883D02*
X62214284Y-2656883D01*
X62214284Y-2656883D02*
X62061903Y-2733074D01*
X62747617Y-3647360D02*
X62595236Y-3723550D01*
X62595236Y-3723550D02*
X62214284Y-3723550D01*
X62214284Y-3723550D02*
X62061903Y-3647360D01*
X62061903Y-3647360D02*
X61985712Y-3494979D01*
X61985712Y-3494979D02*
X61985712Y-3342598D01*
X61985712Y-3342598D02*
X62061903Y-3190217D01*
X62061903Y-3190217D02*
X62214284Y-3114026D01*
X62214284Y-3114026D02*
X62595236Y-3114026D01*
X62595236Y-3114026D02*
X62747617Y-3037836D01*
X64652379Y-2275931D02*
X64728570Y-2199740D01*
X64728570Y-2199740D02*
X64880951Y-2123550D01*
X64880951Y-2123550D02*
X65261903Y-2123550D01*
X65261903Y-2123550D02*
X65414284Y-2199740D01*
X65414284Y-2199740D02*
X65490475Y-2275931D01*
X65490475Y-2275931D02*
X65566665Y-2428312D01*
X65566665Y-2428312D02*
X65566665Y-2580693D01*
X65566665Y-2580693D02*
X65490475Y-2809264D01*
X65490475Y-2809264D02*
X64576189Y-3723550D01*
X64576189Y-3723550D02*
X65566665Y-3723550D01*
X66557142Y-2123550D02*
X66709523Y-2123550D01*
X66709523Y-2123550D02*
X66861904Y-2199740D01*
X66861904Y-2199740D02*
X66938094Y-2275931D01*
X66938094Y-2275931D02*
X67014285Y-2428312D01*
X67014285Y-2428312D02*
X67090475Y-2733074D01*
X67090475Y-2733074D02*
X67090475Y-3114026D01*
X67090475Y-3114026D02*
X67014285Y-3418788D01*
X67014285Y-3418788D02*
X66938094Y-3571169D01*
X66938094Y-3571169D02*
X66861904Y-3647360D01*
X66861904Y-3647360D02*
X66709523Y-3723550D01*
X66709523Y-3723550D02*
X66557142Y-3723550D01*
X66557142Y-3723550D02*
X66404761Y-3647360D01*
X66404761Y-3647360D02*
X66328570Y-3571169D01*
X66328570Y-3571169D02*
X66252380Y-3418788D01*
X66252380Y-3418788D02*
X66176189Y-3114026D01*
X66176189Y-3114026D02*
X66176189Y-2733074D01*
X66176189Y-2733074D02*
X66252380Y-2428312D01*
X66252380Y-2428312D02*
X66328570Y-2275931D01*
X66328570Y-2275931D02*
X66404761Y-2199740D01*
X66404761Y-2199740D02*
X66557142Y-2123550D01*
X67699999Y-2275931D02*
X67776190Y-2199740D01*
X67776190Y-2199740D02*
X67928571Y-2123550D01*
X67928571Y-2123550D02*
X68309523Y-2123550D01*
X68309523Y-2123550D02*
X68461904Y-2199740D01*
X68461904Y-2199740D02*
X68538095Y-2275931D01*
X68538095Y-2275931D02*
X68614285Y-2428312D01*
X68614285Y-2428312D02*
X68614285Y-2580693D01*
X68614285Y-2580693D02*
X68538095Y-2809264D01*
X68538095Y-2809264D02*
X67623809Y-3723550D01*
X67623809Y-3723550D02*
X68614285Y-3723550D01*
X69985714Y-2123550D02*
X69680952Y-2123550D01*
X69680952Y-2123550D02*
X69528571Y-2199740D01*
X69528571Y-2199740D02*
X69452381Y-2275931D01*
X69452381Y-2275931D02*
X69300000Y-2504502D01*
X69300000Y-2504502D02*
X69223809Y-2809264D01*
X69223809Y-2809264D02*
X69223809Y-3418788D01*
X69223809Y-3418788D02*
X69300000Y-3571169D01*
X69300000Y-3571169D02*
X69376190Y-3647360D01*
X69376190Y-3647360D02*
X69528571Y-3723550D01*
X69528571Y-3723550D02*
X69833333Y-3723550D01*
X69833333Y-3723550D02*
X69985714Y-3647360D01*
X69985714Y-3647360D02*
X70061905Y-3571169D01*
X70061905Y-3571169D02*
X70138095Y-3418788D01*
X70138095Y-3418788D02*
X70138095Y-3037836D01*
X70138095Y-3037836D02*
X70061905Y-2885455D01*
X70061905Y-2885455D02*
X69985714Y-2809264D01*
X69985714Y-2809264D02*
X69833333Y-2733074D01*
X69833333Y-2733074D02*
X69528571Y-2733074D01*
X69528571Y-2733074D02*
X69376190Y-2809264D01*
X69376190Y-2809264D02*
X69300000Y-2885455D01*
X69300000Y-2885455D02*
X69223809Y-3037836D01*
X71890477Y-2656883D02*
X72271429Y-3723550D01*
X72271429Y-3723550D02*
X72652382Y-2656883D01*
X74100001Y-3723550D02*
X73185715Y-3723550D01*
X73642858Y-3723550D02*
X73642858Y-2123550D01*
X73642858Y-2123550D02*
X73490477Y-2352121D01*
X73490477Y-2352121D02*
X73338096Y-2504502D01*
X73338096Y-2504502D02*
X73185715Y-2580693D01*
X74785716Y-3571169D02*
X74861906Y-3647360D01*
X74861906Y-3647360D02*
X74785716Y-3723550D01*
X74785716Y-3723550D02*
X74709525Y-3647360D01*
X74709525Y-3647360D02*
X74785716Y-3571169D01*
X74785716Y-3571169D02*
X74785716Y-3723550D01*
X75852383Y-2123550D02*
X76004764Y-2123550D01*
X76004764Y-2123550D02*
X76157145Y-2199740D01*
X76157145Y-2199740D02*
X76233335Y-2275931D01*
X76233335Y-2275931D02*
X76309526Y-2428312D01*
X76309526Y-2428312D02*
X76385716Y-2733074D01*
X76385716Y-2733074D02*
X76385716Y-3114026D01*
X76385716Y-3114026D02*
X76309526Y-3418788D01*
X76309526Y-3418788D02*
X76233335Y-3571169D01*
X76233335Y-3571169D02*
X76157145Y-3647360D01*
X76157145Y-3647360D02*
X76004764Y-3723550D01*
X76004764Y-3723550D02*
X75852383Y-3723550D01*
X75852383Y-3723550D02*
X75700002Y-3647360D01*
X75700002Y-3647360D02*
X75623811Y-3571169D01*
X75623811Y-3571169D02*
X75547621Y-3418788D01*
X75547621Y-3418788D02*
X75471430Y-3114026D01*
X75471430Y-3114026D02*
X75471430Y-2733074D01*
X75471430Y-2733074D02*
X75547621Y-2428312D01*
X75547621Y-2428312D02*
X75623811Y-2275931D01*
X75623811Y-2275931D02*
X75700002Y-2199740D01*
X75700002Y-2199740D02*
X75852383Y-2123550D01*
D12*
X13208095Y-2152219D02*
X13208095Y-2961742D01*
X13208095Y-2961742D02*
X13255714Y-3056980D01*
X13255714Y-3056980D02*
X13303333Y-3104600D01*
X13303333Y-3104600D02*
X13398571Y-3152219D01*
X13398571Y-3152219D02*
X13589047Y-3152219D01*
X13589047Y-3152219D02*
X13684285Y-3104600D01*
X13684285Y-3104600D02*
X13731904Y-3056980D01*
X13731904Y-3056980D02*
X13779523Y-2961742D01*
X13779523Y-2961742D02*
X13779523Y-2152219D01*
X14160476Y-2152219D02*
X14779523Y-2152219D01*
X14779523Y-2152219D02*
X14446190Y-2533171D01*
X14446190Y-2533171D02*
X14589047Y-2533171D01*
X14589047Y-2533171D02*
X14684285Y-2580790D01*
X14684285Y-2580790D02*
X14731904Y-2628409D01*
X14731904Y-2628409D02*
X14779523Y-2723647D01*
X14779523Y-2723647D02*
X14779523Y-2961742D01*
X14779523Y-2961742D02*
X14731904Y-3056980D01*
X14731904Y-3056980D02*
X14684285Y-3104600D01*
X14684285Y-3104600D02*
X14589047Y-3152219D01*
X14589047Y-3152219D02*
X14303333Y-3152219D01*
X14303333Y-3152219D02*
X14208095Y-3104600D01*
X14208095Y-3104600D02*
X14160476Y-3056980D01*
X73952219Y-20833333D02*
X74666504Y-20833333D01*
X74666504Y-20833333D02*
X74809361Y-20880952D01*
X74809361Y-20880952D02*
X74904600Y-20976190D01*
X74904600Y-20976190D02*
X74952219Y-21119047D01*
X74952219Y-21119047D02*
X74952219Y-21214285D01*
X74952219Y-20357142D02*
X73952219Y-20357142D01*
X73952219Y-20357142D02*
X73952219Y-19976190D01*
X73952219Y-19976190D02*
X73999838Y-19880952D01*
X73999838Y-19880952D02*
X74047457Y-19833333D01*
X74047457Y-19833333D02*
X74142695Y-19785714D01*
X74142695Y-19785714D02*
X74285552Y-19785714D01*
X74285552Y-19785714D02*
X74380790Y-19833333D01*
X74380790Y-19833333D02*
X74428409Y-19880952D01*
X74428409Y-19880952D02*
X74476028Y-19976190D01*
X74476028Y-19976190D02*
X74476028Y-20357142D01*
X74047457Y-19404761D02*
X73999838Y-19357142D01*
X73999838Y-19357142D02*
X73952219Y-19261904D01*
X73952219Y-19261904D02*
X73952219Y-19023809D01*
X73952219Y-19023809D02*
X73999838Y-18928571D01*
X73999838Y-18928571D02*
X74047457Y-18880952D01*
X74047457Y-18880952D02*
X74142695Y-18833333D01*
X74142695Y-18833333D02*
X74237933Y-18833333D01*
X74237933Y-18833333D02*
X74380790Y-18880952D01*
X74380790Y-18880952D02*
X74952219Y-19452380D01*
X74952219Y-19452380D02*
X74952219Y-18833333D01*
X62738095Y-48952219D02*
X63309523Y-48952219D01*
X63023809Y-49952219D02*
X63023809Y-48952219D01*
X63642857Y-49952219D02*
X63642857Y-48952219D01*
X63642857Y-48952219D02*
X64023809Y-48952219D01*
X64023809Y-48952219D02*
X64119047Y-48999838D01*
X64119047Y-48999838D02*
X64166666Y-49047457D01*
X64166666Y-49047457D02*
X64214285Y-49142695D01*
X64214285Y-49142695D02*
X64214285Y-49285552D01*
X64214285Y-49285552D02*
X64166666Y-49380790D01*
X64166666Y-49380790D02*
X64119047Y-49428409D01*
X64119047Y-49428409D02*
X64023809Y-49476028D01*
X64023809Y-49476028D02*
X63642857Y-49476028D01*
X64595238Y-49047457D02*
X64642857Y-48999838D01*
X64642857Y-48999838D02*
X64738095Y-48952219D01*
X64738095Y-48952219D02*
X64976190Y-48952219D01*
X64976190Y-48952219D02*
X65071428Y-48999838D01*
X65071428Y-48999838D02*
X65119047Y-49047457D01*
X65119047Y-49047457D02*
X65166666Y-49142695D01*
X65166666Y-49142695D02*
X65166666Y-49237933D01*
X65166666Y-49237933D02*
X65119047Y-49380790D01*
X65119047Y-49380790D02*
X64547619Y-49952219D01*
X64547619Y-49952219D02*
X65166666Y-49952219D01*
X73952219Y-11333333D02*
X74666504Y-11333333D01*
X74666504Y-11333333D02*
X74809361Y-11380952D01*
X74809361Y-11380952D02*
X74904600Y-11476190D01*
X74904600Y-11476190D02*
X74952219Y-11619047D01*
X74952219Y-11619047D02*
X74952219Y-11714285D01*
X74952219Y-10857142D02*
X73952219Y-10857142D01*
X73952219Y-10857142D02*
X73952219Y-10476190D01*
X73952219Y-10476190D02*
X73999838Y-10380952D01*
X73999838Y-10380952D02*
X74047457Y-10333333D01*
X74047457Y-10333333D02*
X74142695Y-10285714D01*
X74142695Y-10285714D02*
X74285552Y-10285714D01*
X74285552Y-10285714D02*
X74380790Y-10333333D01*
X74380790Y-10333333D02*
X74428409Y-10380952D01*
X74428409Y-10380952D02*
X74476028Y-10476190D01*
X74476028Y-10476190D02*
X74476028Y-10857142D01*
X74952219Y-9333333D02*
X74952219Y-9904761D01*
X74952219Y-9619047D02*
X73952219Y-9619047D01*
X73952219Y-9619047D02*
X74095076Y-9714285D01*
X74095076Y-9714285D02*
X74190314Y-9809523D01*
X74190314Y-9809523D02*
X74237933Y-9904761D01*
X38333333Y-50056980D02*
X38285714Y-50104600D01*
X38285714Y-50104600D02*
X38142857Y-50152219D01*
X38142857Y-50152219D02*
X38047619Y-50152219D01*
X38047619Y-50152219D02*
X37904762Y-50104600D01*
X37904762Y-50104600D02*
X37809524Y-50009361D01*
X37809524Y-50009361D02*
X37761905Y-49914123D01*
X37761905Y-49914123D02*
X37714286Y-49723647D01*
X37714286Y-49723647D02*
X37714286Y-49580790D01*
X37714286Y-49580790D02*
X37761905Y-49390314D01*
X37761905Y-49390314D02*
X37809524Y-49295076D01*
X37809524Y-49295076D02*
X37904762Y-49199838D01*
X37904762Y-49199838D02*
X38047619Y-49152219D01*
X38047619Y-49152219D02*
X38142857Y-49152219D01*
X38142857Y-49152219D02*
X38285714Y-49199838D01*
X38285714Y-49199838D02*
X38333333Y-49247457D01*
X39238095Y-49152219D02*
X38761905Y-49152219D01*
X38761905Y-49152219D02*
X38714286Y-49628409D01*
X38714286Y-49628409D02*
X38761905Y-49580790D01*
X38761905Y-49580790D02*
X38857143Y-49533171D01*
X38857143Y-49533171D02*
X39095238Y-49533171D01*
X39095238Y-49533171D02*
X39190476Y-49580790D01*
X39190476Y-49580790D02*
X39238095Y-49628409D01*
X39238095Y-49628409D02*
X39285714Y-49723647D01*
X39285714Y-49723647D02*
X39285714Y-49961742D01*
X39285714Y-49961742D02*
X39238095Y-50056980D01*
X39238095Y-50056980D02*
X39190476Y-50104600D01*
X39190476Y-50104600D02*
X39095238Y-50152219D01*
X39095238Y-50152219D02*
X38857143Y-50152219D01*
X38857143Y-50152219D02*
X38761905Y-50104600D01*
X38761905Y-50104600D02*
X38714286Y-50056980D01*
X14333333Y-50056980D02*
X14285714Y-50104600D01*
X14285714Y-50104600D02*
X14142857Y-50152219D01*
X14142857Y-50152219D02*
X14047619Y-50152219D01*
X14047619Y-50152219D02*
X13904762Y-50104600D01*
X13904762Y-50104600D02*
X13809524Y-50009361D01*
X13809524Y-50009361D02*
X13761905Y-49914123D01*
X13761905Y-49914123D02*
X13714286Y-49723647D01*
X13714286Y-49723647D02*
X13714286Y-49580790D01*
X13714286Y-49580790D02*
X13761905Y-49390314D01*
X13761905Y-49390314D02*
X13809524Y-49295076D01*
X13809524Y-49295076D02*
X13904762Y-49199838D01*
X13904762Y-49199838D02*
X14047619Y-49152219D01*
X14047619Y-49152219D02*
X14142857Y-49152219D01*
X14142857Y-49152219D02*
X14285714Y-49199838D01*
X14285714Y-49199838D02*
X14333333Y-49247457D01*
X15190476Y-49485552D02*
X15190476Y-50152219D01*
X14952381Y-49104600D02*
X14714286Y-49818885D01*
X14714286Y-49818885D02*
X15333333Y-49818885D01*
X62738095Y-9822219D02*
X62738095Y-10631742D01*
X62738095Y-10631742D02*
X62785714Y-10726980D01*
X62785714Y-10726980D02*
X62833333Y-10774600D01*
X62833333Y-10774600D02*
X62928571Y-10822219D01*
X62928571Y-10822219D02*
X63119047Y-10822219D01*
X63119047Y-10822219D02*
X63214285Y-10774600D01*
X63214285Y-10774600D02*
X63261904Y-10726980D01*
X63261904Y-10726980D02*
X63309523Y-10631742D01*
X63309523Y-10631742D02*
X63309523Y-9822219D01*
X63738095Y-9917457D02*
X63785714Y-9869838D01*
X63785714Y-9869838D02*
X63880952Y-9822219D01*
X63880952Y-9822219D02*
X64119047Y-9822219D01*
X64119047Y-9822219D02*
X64214285Y-9869838D01*
X64214285Y-9869838D02*
X64261904Y-9917457D01*
X64261904Y-9917457D02*
X64309523Y-10012695D01*
X64309523Y-10012695D02*
X64309523Y-10107933D01*
X64309523Y-10107933D02*
X64261904Y-10250790D01*
X64261904Y-10250790D02*
X63690476Y-10822219D01*
X63690476Y-10822219D02*
X64309523Y-10822219D01*
X22833333Y-56152219D02*
X22500000Y-55676028D01*
X22261905Y-56152219D02*
X22261905Y-55152219D01*
X22261905Y-55152219D02*
X22642857Y-55152219D01*
X22642857Y-55152219D02*
X22738095Y-55199838D01*
X22738095Y-55199838D02*
X22785714Y-55247457D01*
X22785714Y-55247457D02*
X22833333Y-55342695D01*
X22833333Y-55342695D02*
X22833333Y-55485552D01*
X22833333Y-55485552D02*
X22785714Y-55580790D01*
X22785714Y-55580790D02*
X22738095Y-55628409D01*
X22738095Y-55628409D02*
X22642857Y-55676028D01*
X22642857Y-55676028D02*
X22261905Y-55676028D01*
X23166667Y-55152219D02*
X23785714Y-55152219D01*
X23785714Y-55152219D02*
X23452381Y-55533171D01*
X23452381Y-55533171D02*
X23595238Y-55533171D01*
X23595238Y-55533171D02*
X23690476Y-55580790D01*
X23690476Y-55580790D02*
X23738095Y-55628409D01*
X23738095Y-55628409D02*
X23785714Y-55723647D01*
X23785714Y-55723647D02*
X23785714Y-55961742D01*
X23785714Y-55961742D02*
X23738095Y-56056980D01*
X23738095Y-56056980D02*
X23690476Y-56104600D01*
X23690476Y-56104600D02*
X23595238Y-56152219D01*
X23595238Y-56152219D02*
X23309524Y-56152219D01*
X23309524Y-56152219D02*
X23214286Y-56104600D01*
X23214286Y-56104600D02*
X23166667Y-56056980D01*
X58738095Y-48952219D02*
X59309523Y-48952219D01*
X59023809Y-49952219D02*
X59023809Y-48952219D01*
X59642857Y-49952219D02*
X59642857Y-48952219D01*
X59642857Y-48952219D02*
X60023809Y-48952219D01*
X60023809Y-48952219D02*
X60119047Y-48999838D01*
X60119047Y-48999838D02*
X60166666Y-49047457D01*
X60166666Y-49047457D02*
X60214285Y-49142695D01*
X60214285Y-49142695D02*
X60214285Y-49285552D01*
X60214285Y-49285552D02*
X60166666Y-49380790D01*
X60166666Y-49380790D02*
X60119047Y-49428409D01*
X60119047Y-49428409D02*
X60023809Y-49476028D01*
X60023809Y-49476028D02*
X59642857Y-49476028D01*
X61166666Y-49952219D02*
X60595238Y-49952219D01*
X60880952Y-49952219D02*
X60880952Y-48952219D01*
X60880952Y-48952219D02*
X60785714Y-49095076D01*
X60785714Y-49095076D02*
X60690476Y-49190314D01*
X60690476Y-49190314D02*
X60595238Y-49237933D01*
X33528095Y-4702219D02*
X33528095Y-5511742D01*
X33528095Y-5511742D02*
X33575714Y-5606980D01*
X33575714Y-5606980D02*
X33623333Y-5654600D01*
X33623333Y-5654600D02*
X33718571Y-5702219D01*
X33718571Y-5702219D02*
X33909047Y-5702219D01*
X33909047Y-5702219D02*
X34004285Y-5654600D01*
X34004285Y-5654600D02*
X34051904Y-5606980D01*
X34051904Y-5606980D02*
X34099523Y-5511742D01*
X34099523Y-5511742D02*
X34099523Y-4702219D01*
X35004285Y-5035552D02*
X35004285Y-5702219D01*
X34766190Y-4654600D02*
X34528095Y-5368885D01*
X34528095Y-5368885D02*
X35147142Y-5368885D01*
X30333333Y-50056980D02*
X30285714Y-50104600D01*
X30285714Y-50104600D02*
X30142857Y-50152219D01*
X30142857Y-50152219D02*
X30047619Y-50152219D01*
X30047619Y-50152219D02*
X29904762Y-50104600D01*
X29904762Y-50104600D02*
X29809524Y-50009361D01*
X29809524Y-50009361D02*
X29761905Y-49914123D01*
X29761905Y-49914123D02*
X29714286Y-49723647D01*
X29714286Y-49723647D02*
X29714286Y-49580790D01*
X29714286Y-49580790D02*
X29761905Y-49390314D01*
X29761905Y-49390314D02*
X29809524Y-49295076D01*
X29809524Y-49295076D02*
X29904762Y-49199838D01*
X29904762Y-49199838D02*
X30047619Y-49152219D01*
X30047619Y-49152219D02*
X30142857Y-49152219D01*
X30142857Y-49152219D02*
X30285714Y-49199838D01*
X30285714Y-49199838D02*
X30333333Y-49247457D01*
X30714286Y-49247457D02*
X30761905Y-49199838D01*
X30761905Y-49199838D02*
X30857143Y-49152219D01*
X30857143Y-49152219D02*
X31095238Y-49152219D01*
X31095238Y-49152219D02*
X31190476Y-49199838D01*
X31190476Y-49199838D02*
X31238095Y-49247457D01*
X31238095Y-49247457D02*
X31285714Y-49342695D01*
X31285714Y-49342695D02*
X31285714Y-49437933D01*
X31285714Y-49437933D02*
X31238095Y-49580790D01*
X31238095Y-49580790D02*
X30666667Y-50152219D01*
X30666667Y-50152219D02*
X31285714Y-50152219D01*
X73952219Y-35333333D02*
X74666504Y-35333333D01*
X74666504Y-35333333D02*
X74809361Y-35380952D01*
X74809361Y-35380952D02*
X74904600Y-35476190D01*
X74904600Y-35476190D02*
X74952219Y-35619047D01*
X74952219Y-35619047D02*
X74952219Y-35714285D01*
X74952219Y-34857142D02*
X73952219Y-34857142D01*
X73952219Y-34857142D02*
X73952219Y-34476190D01*
X73952219Y-34476190D02*
X73999838Y-34380952D01*
X73999838Y-34380952D02*
X74047457Y-34333333D01*
X74047457Y-34333333D02*
X74142695Y-34285714D01*
X74142695Y-34285714D02*
X74285552Y-34285714D01*
X74285552Y-34285714D02*
X74380790Y-34333333D01*
X74380790Y-34333333D02*
X74428409Y-34380952D01*
X74428409Y-34380952D02*
X74476028Y-34476190D01*
X74476028Y-34476190D02*
X74476028Y-34857142D01*
X74285552Y-33428571D02*
X74952219Y-33428571D01*
X73904600Y-33666666D02*
X74618885Y-33904761D01*
X74618885Y-33904761D02*
X74618885Y-33285714D01*
X16833333Y-56152219D02*
X16500000Y-55676028D01*
X16261905Y-56152219D02*
X16261905Y-55152219D01*
X16261905Y-55152219D02*
X16642857Y-55152219D01*
X16642857Y-55152219D02*
X16738095Y-55199838D01*
X16738095Y-55199838D02*
X16785714Y-55247457D01*
X16785714Y-55247457D02*
X16833333Y-55342695D01*
X16833333Y-55342695D02*
X16833333Y-55485552D01*
X16833333Y-55485552D02*
X16785714Y-55580790D01*
X16785714Y-55580790D02*
X16738095Y-55628409D01*
X16738095Y-55628409D02*
X16642857Y-55676028D01*
X16642857Y-55676028D02*
X16261905Y-55676028D01*
X17738095Y-55152219D02*
X17261905Y-55152219D01*
X17261905Y-55152219D02*
X17214286Y-55628409D01*
X17214286Y-55628409D02*
X17261905Y-55580790D01*
X17261905Y-55580790D02*
X17357143Y-55533171D01*
X17357143Y-55533171D02*
X17595238Y-55533171D01*
X17595238Y-55533171D02*
X17690476Y-55580790D01*
X17690476Y-55580790D02*
X17738095Y-55628409D01*
X17738095Y-55628409D02*
X17785714Y-55723647D01*
X17785714Y-55723647D02*
X17785714Y-55961742D01*
X17785714Y-55961742D02*
X17738095Y-56056980D01*
X17738095Y-56056980D02*
X17690476Y-56104600D01*
X17690476Y-56104600D02*
X17595238Y-56152219D01*
X17595238Y-56152219D02*
X17357143Y-56152219D01*
X17357143Y-56152219D02*
X17261905Y-56104600D01*
X17261905Y-56104600D02*
X17214286Y-56056980D01*
X44833333Y-51356980D02*
X44785714Y-51404600D01*
X44785714Y-51404600D02*
X44642857Y-51452219D01*
X44642857Y-51452219D02*
X44547619Y-51452219D01*
X44547619Y-51452219D02*
X44404762Y-51404600D01*
X44404762Y-51404600D02*
X44309524Y-51309361D01*
X44309524Y-51309361D02*
X44261905Y-51214123D01*
X44261905Y-51214123D02*
X44214286Y-51023647D01*
X44214286Y-51023647D02*
X44214286Y-50880790D01*
X44214286Y-50880790D02*
X44261905Y-50690314D01*
X44261905Y-50690314D02*
X44309524Y-50595076D01*
X44309524Y-50595076D02*
X44404762Y-50499838D01*
X44404762Y-50499838D02*
X44547619Y-50452219D01*
X44547619Y-50452219D02*
X44642857Y-50452219D01*
X44642857Y-50452219D02*
X44785714Y-50499838D01*
X44785714Y-50499838D02*
X44833333Y-50547457D01*
X45690476Y-50452219D02*
X45500000Y-50452219D01*
X45500000Y-50452219D02*
X45404762Y-50499838D01*
X45404762Y-50499838D02*
X45357143Y-50547457D01*
X45357143Y-50547457D02*
X45261905Y-50690314D01*
X45261905Y-50690314D02*
X45214286Y-50880790D01*
X45214286Y-50880790D02*
X45214286Y-51261742D01*
X45214286Y-51261742D02*
X45261905Y-51356980D01*
X45261905Y-51356980D02*
X45309524Y-51404600D01*
X45309524Y-51404600D02*
X45404762Y-51452219D01*
X45404762Y-51452219D02*
X45595238Y-51452219D01*
X45595238Y-51452219D02*
X45690476Y-51404600D01*
X45690476Y-51404600D02*
X45738095Y-51356980D01*
X45738095Y-51356980D02*
X45785714Y-51261742D01*
X45785714Y-51261742D02*
X45785714Y-51023647D01*
X45785714Y-51023647D02*
X45738095Y-50928409D01*
X45738095Y-50928409D02*
X45690476Y-50880790D01*
X45690476Y-50880790D02*
X45595238Y-50833171D01*
X45595238Y-50833171D02*
X45404762Y-50833171D01*
X45404762Y-50833171D02*
X45309524Y-50880790D01*
X45309524Y-50880790D02*
X45261905Y-50928409D01*
X45261905Y-50928409D02*
X45214286Y-51023647D01*
X52761905Y-50952219D02*
X52761905Y-49952219D01*
X52761905Y-49952219D02*
X53000000Y-49952219D01*
X53000000Y-49952219D02*
X53142857Y-49999838D01*
X53142857Y-49999838D02*
X53238095Y-50095076D01*
X53238095Y-50095076D02*
X53285714Y-50190314D01*
X53285714Y-50190314D02*
X53333333Y-50380790D01*
X53333333Y-50380790D02*
X53333333Y-50523647D01*
X53333333Y-50523647D02*
X53285714Y-50714123D01*
X53285714Y-50714123D02*
X53238095Y-50809361D01*
X53238095Y-50809361D02*
X53142857Y-50904600D01*
X53142857Y-50904600D02*
X53000000Y-50952219D01*
X53000000Y-50952219D02*
X52761905Y-50952219D01*
X54285714Y-50952219D02*
X53714286Y-50952219D01*
X54000000Y-50952219D02*
X54000000Y-49952219D01*
X54000000Y-49952219D02*
X53904762Y-50095076D01*
X53904762Y-50095076D02*
X53809524Y-50190314D01*
X53809524Y-50190314D02*
X53714286Y-50237933D01*
X50038095Y-7282219D02*
X50038095Y-8091742D01*
X50038095Y-8091742D02*
X50085714Y-8186980D01*
X50085714Y-8186980D02*
X50133333Y-8234600D01*
X50133333Y-8234600D02*
X50228571Y-8282219D01*
X50228571Y-8282219D02*
X50419047Y-8282219D01*
X50419047Y-8282219D02*
X50514285Y-8234600D01*
X50514285Y-8234600D02*
X50561904Y-8186980D01*
X50561904Y-8186980D02*
X50609523Y-8091742D01*
X50609523Y-8091742D02*
X50609523Y-7282219D01*
X51609523Y-8282219D02*
X51038095Y-8282219D01*
X51323809Y-8282219D02*
X51323809Y-7282219D01*
X51323809Y-7282219D02*
X51228571Y-7425076D01*
X51228571Y-7425076D02*
X51133333Y-7520314D01*
X51133333Y-7520314D02*
X51038095Y-7567933D01*
X29857143Y-55904600D02*
X30000000Y-55952219D01*
X30000000Y-55952219D02*
X30238095Y-55952219D01*
X30238095Y-55952219D02*
X30333333Y-55904600D01*
X30333333Y-55904600D02*
X30380952Y-55856980D01*
X30380952Y-55856980D02*
X30428571Y-55761742D01*
X30428571Y-55761742D02*
X30428571Y-55666504D01*
X30428571Y-55666504D02*
X30380952Y-55571266D01*
X30380952Y-55571266D02*
X30333333Y-55523647D01*
X30333333Y-55523647D02*
X30238095Y-55476028D01*
X30238095Y-55476028D02*
X30047619Y-55428409D01*
X30047619Y-55428409D02*
X29952381Y-55380790D01*
X29952381Y-55380790D02*
X29904762Y-55333171D01*
X29904762Y-55333171D02*
X29857143Y-55237933D01*
X29857143Y-55237933D02*
X29857143Y-55142695D01*
X29857143Y-55142695D02*
X29904762Y-55047457D01*
X29904762Y-55047457D02*
X29952381Y-54999838D01*
X29952381Y-54999838D02*
X30047619Y-54952219D01*
X30047619Y-54952219D02*
X30285714Y-54952219D01*
X30285714Y-54952219D02*
X30428571Y-54999838D01*
X31142857Y-54952219D02*
X31142857Y-55666504D01*
X31142857Y-55666504D02*
X31095238Y-55809361D01*
X31095238Y-55809361D02*
X31000000Y-55904600D01*
X31000000Y-55904600D02*
X30857143Y-55952219D01*
X30857143Y-55952219D02*
X30761905Y-55952219D01*
X32142857Y-55952219D02*
X31571429Y-55952219D01*
X31857143Y-55952219D02*
X31857143Y-54952219D01*
X31857143Y-54952219D02*
X31761905Y-55095076D01*
X31761905Y-55095076D02*
X31666667Y-55190314D01*
X31666667Y-55190314D02*
X31571429Y-55237933D01*
X22333333Y-50056980D02*
X22285714Y-50104600D01*
X22285714Y-50104600D02*
X22142857Y-50152219D01*
X22142857Y-50152219D02*
X22047619Y-50152219D01*
X22047619Y-50152219D02*
X21904762Y-50104600D01*
X21904762Y-50104600D02*
X21809524Y-50009361D01*
X21809524Y-50009361D02*
X21761905Y-49914123D01*
X21761905Y-49914123D02*
X21714286Y-49723647D01*
X21714286Y-49723647D02*
X21714286Y-49580790D01*
X21714286Y-49580790D02*
X21761905Y-49390314D01*
X21761905Y-49390314D02*
X21809524Y-49295076D01*
X21809524Y-49295076D02*
X21904762Y-49199838D01*
X21904762Y-49199838D02*
X22047619Y-49152219D01*
X22047619Y-49152219D02*
X22142857Y-49152219D01*
X22142857Y-49152219D02*
X22285714Y-49199838D01*
X22285714Y-49199838D02*
X22333333Y-49247457D01*
X23285714Y-50152219D02*
X22714286Y-50152219D01*
X23000000Y-50152219D02*
X23000000Y-49152219D01*
X23000000Y-49152219D02*
X22904762Y-49295076D01*
X22904762Y-49295076D02*
X22809524Y-49390314D01*
X22809524Y-49390314D02*
X22714286Y-49437933D01*
X6333333Y-50056980D02*
X6285714Y-50104600D01*
X6285714Y-50104600D02*
X6142857Y-50152219D01*
X6142857Y-50152219D02*
X6047619Y-50152219D01*
X6047619Y-50152219D02*
X5904762Y-50104600D01*
X5904762Y-50104600D02*
X5809524Y-50009361D01*
X5809524Y-50009361D02*
X5761905Y-49914123D01*
X5761905Y-49914123D02*
X5714286Y-49723647D01*
X5714286Y-49723647D02*
X5714286Y-49580790D01*
X5714286Y-49580790D02*
X5761905Y-49390314D01*
X5761905Y-49390314D02*
X5809524Y-49295076D01*
X5809524Y-49295076D02*
X5904762Y-49199838D01*
X5904762Y-49199838D02*
X6047619Y-49152219D01*
X6047619Y-49152219D02*
X6142857Y-49152219D01*
X6142857Y-49152219D02*
X6285714Y-49199838D01*
X6285714Y-49199838D02*
X6333333Y-49247457D01*
X6666667Y-49152219D02*
X7285714Y-49152219D01*
X7285714Y-49152219D02*
X6952381Y-49533171D01*
X6952381Y-49533171D02*
X7095238Y-49533171D01*
X7095238Y-49533171D02*
X7190476Y-49580790D01*
X7190476Y-49580790D02*
X7238095Y-49628409D01*
X7238095Y-49628409D02*
X7285714Y-49723647D01*
X7285714Y-49723647D02*
X7285714Y-49961742D01*
X7285714Y-49961742D02*
X7238095Y-50056980D01*
X7238095Y-50056980D02*
X7190476Y-50104600D01*
X7190476Y-50104600D02*
X7095238Y-50152219D01*
X7095238Y-50152219D02*
X6809524Y-50152219D01*
X6809524Y-50152219D02*
X6714286Y-50104600D01*
X6714286Y-50104600D02*
X6666667Y-50056980D01*
X10833333Y-56152219D02*
X10500000Y-55676028D01*
X10261905Y-56152219D02*
X10261905Y-55152219D01*
X10261905Y-55152219D02*
X10642857Y-55152219D01*
X10642857Y-55152219D02*
X10738095Y-55199838D01*
X10738095Y-55199838D02*
X10785714Y-55247457D01*
X10785714Y-55247457D02*
X10833333Y-55342695D01*
X10833333Y-55342695D02*
X10833333Y-55485552D01*
X10833333Y-55485552D02*
X10785714Y-55580790D01*
X10785714Y-55580790D02*
X10738095Y-55628409D01*
X10738095Y-55628409D02*
X10642857Y-55676028D01*
X10642857Y-55676028D02*
X10261905Y-55676028D01*
X11690476Y-55485552D02*
X11690476Y-56152219D01*
X11452381Y-55104600D02*
X11214286Y-55818885D01*
X11214286Y-55818885D02*
X11833333Y-55818885D01*
X35857143Y-55904600D02*
X36000000Y-55952219D01*
X36000000Y-55952219D02*
X36238095Y-55952219D01*
X36238095Y-55952219D02*
X36333333Y-55904600D01*
X36333333Y-55904600D02*
X36380952Y-55856980D01*
X36380952Y-55856980D02*
X36428571Y-55761742D01*
X36428571Y-55761742D02*
X36428571Y-55666504D01*
X36428571Y-55666504D02*
X36380952Y-55571266D01*
X36380952Y-55571266D02*
X36333333Y-55523647D01*
X36333333Y-55523647D02*
X36238095Y-55476028D01*
X36238095Y-55476028D02*
X36047619Y-55428409D01*
X36047619Y-55428409D02*
X35952381Y-55380790D01*
X35952381Y-55380790D02*
X35904762Y-55333171D01*
X35904762Y-55333171D02*
X35857143Y-55237933D01*
X35857143Y-55237933D02*
X35857143Y-55142695D01*
X35857143Y-55142695D02*
X35904762Y-55047457D01*
X35904762Y-55047457D02*
X35952381Y-54999838D01*
X35952381Y-54999838D02*
X36047619Y-54952219D01*
X36047619Y-54952219D02*
X36285714Y-54952219D01*
X36285714Y-54952219D02*
X36428571Y-54999838D01*
X37142857Y-54952219D02*
X37142857Y-55666504D01*
X37142857Y-55666504D02*
X37095238Y-55809361D01*
X37095238Y-55809361D02*
X37000000Y-55904600D01*
X37000000Y-55904600D02*
X36857143Y-55952219D01*
X36857143Y-55952219D02*
X36761905Y-55952219D01*
X37571429Y-55047457D02*
X37619048Y-54999838D01*
X37619048Y-54999838D02*
X37714286Y-54952219D01*
X37714286Y-54952219D02*
X37952381Y-54952219D01*
X37952381Y-54952219D02*
X38047619Y-54999838D01*
X38047619Y-54999838D02*
X38095238Y-55047457D01*
X38095238Y-55047457D02*
X38142857Y-55142695D01*
X38142857Y-55142695D02*
X38142857Y-55237933D01*
X38142857Y-55237933D02*
X38095238Y-55380790D01*
X38095238Y-55380790D02*
X37523810Y-55952219D01*
X37523810Y-55952219D02*
X38142857Y-55952219D01*
X4833333Y-56152219D02*
X4500000Y-55676028D01*
X4261905Y-56152219D02*
X4261905Y-55152219D01*
X4261905Y-55152219D02*
X4642857Y-55152219D01*
X4642857Y-55152219D02*
X4738095Y-55199838D01*
X4738095Y-55199838D02*
X4785714Y-55247457D01*
X4785714Y-55247457D02*
X4833333Y-55342695D01*
X4833333Y-55342695D02*
X4833333Y-55485552D01*
X4833333Y-55485552D02*
X4785714Y-55580790D01*
X4785714Y-55580790D02*
X4738095Y-55628409D01*
X4738095Y-55628409D02*
X4642857Y-55676028D01*
X4642857Y-55676028D02*
X4261905Y-55676028D01*
X5214286Y-55247457D02*
X5261905Y-55199838D01*
X5261905Y-55199838D02*
X5357143Y-55152219D01*
X5357143Y-55152219D02*
X5595238Y-55152219D01*
X5595238Y-55152219D02*
X5690476Y-55199838D01*
X5690476Y-55199838D02*
X5738095Y-55247457D01*
X5738095Y-55247457D02*
X5785714Y-55342695D01*
X5785714Y-55342695D02*
X5785714Y-55437933D01*
X5785714Y-55437933D02*
X5738095Y-55580790D01*
X5738095Y-55580790D02*
X5166667Y-56152219D01*
X5166667Y-56152219D02*
X5785714Y-56152219D01*
X73952219Y-28333333D02*
X74666504Y-28333333D01*
X74666504Y-28333333D02*
X74809361Y-28380952D01*
X74809361Y-28380952D02*
X74904600Y-28476190D01*
X74904600Y-28476190D02*
X74952219Y-28619047D01*
X74952219Y-28619047D02*
X74952219Y-28714285D01*
X74952219Y-27857142D02*
X73952219Y-27857142D01*
X73952219Y-27857142D02*
X73952219Y-27476190D01*
X73952219Y-27476190D02*
X73999838Y-27380952D01*
X73999838Y-27380952D02*
X74047457Y-27333333D01*
X74047457Y-27333333D02*
X74142695Y-27285714D01*
X74142695Y-27285714D02*
X74285552Y-27285714D01*
X74285552Y-27285714D02*
X74380790Y-27333333D01*
X74380790Y-27333333D02*
X74428409Y-27380952D01*
X74428409Y-27380952D02*
X74476028Y-27476190D01*
X74476028Y-27476190D02*
X74476028Y-27857142D01*
X73952219Y-26952380D02*
X73952219Y-26333333D01*
X73952219Y-26333333D02*
X74333171Y-26666666D01*
X74333171Y-26666666D02*
X74333171Y-26523809D01*
X74333171Y-26523809D02*
X74380790Y-26428571D01*
X74380790Y-26428571D02*
X74428409Y-26380952D01*
X74428409Y-26380952D02*
X74523647Y-26333333D01*
X74523647Y-26333333D02*
X74761742Y-26333333D01*
X74761742Y-26333333D02*
X74856980Y-26380952D01*
X74856980Y-26380952D02*
X74904600Y-26428571D01*
X74904600Y-26428571D02*
X74952219Y-26523809D01*
X74952219Y-26523809D02*
X74952219Y-26809523D01*
X74952219Y-26809523D02*
X74904600Y-26904761D01*
X74904600Y-26904761D02*
X74856980Y-26952380D01*
X738095Y-59047457D02*
X785714Y-58999838D01*
X785714Y-58999838D02*
X880952Y-58952219D01*
X880952Y-58952219D02*
X1119047Y-58952219D01*
X1119047Y-58952219D02*
X1214285Y-58999838D01*
X1214285Y-58999838D02*
X1261904Y-59047457D01*
X1261904Y-59047457D02*
X1309523Y-59142695D01*
X1309523Y-59142695D02*
X1309523Y-59237933D01*
X1309523Y-59237933D02*
X1261904Y-59380790D01*
X1261904Y-59380790D02*
X690476Y-59952219D01*
X690476Y-59952219D02*
X1309523Y-59952219D01*
X1785714Y-59952219D02*
X1976190Y-59952219D01*
X1976190Y-59952219D02*
X2071428Y-59904600D01*
X2071428Y-59904600D02*
X2119047Y-59856980D01*
X2119047Y-59856980D02*
X2214285Y-59714123D01*
X2214285Y-59714123D02*
X2261904Y-59523647D01*
X2261904Y-59523647D02*
X2261904Y-59142695D01*
X2261904Y-59142695D02*
X2214285Y-59047457D01*
X2214285Y-59047457D02*
X2166666Y-58999838D01*
X2166666Y-58999838D02*
X2071428Y-58952219D01*
X2071428Y-58952219D02*
X1880952Y-58952219D01*
X1880952Y-58952219D02*
X1785714Y-58999838D01*
X1785714Y-58999838D02*
X1738095Y-59047457D01*
X1738095Y-59047457D02*
X1690476Y-59142695D01*
X1690476Y-59142695D02*
X1690476Y-59380790D01*
X1690476Y-59380790D02*
X1738095Y-59476028D01*
X1738095Y-59476028D02*
X1785714Y-59523647D01*
X1785714Y-59523647D02*
X1880952Y-59571266D01*
X1880952Y-59571266D02*
X2071428Y-59571266D01*
X2071428Y-59571266D02*
X2166666Y-59523647D01*
X2166666Y-59523647D02*
X2214285Y-59476028D01*
X2214285Y-59476028D02*
X2261904Y-59380790D01*
X738095Y-64047457D02*
X785714Y-63999838D01*
X785714Y-63999838D02*
X880952Y-63952219D01*
X880952Y-63952219D02*
X1119047Y-63952219D01*
X1119047Y-63952219D02*
X1214285Y-63999838D01*
X1214285Y-63999838D02*
X1261904Y-64047457D01*
X1261904Y-64047457D02*
X1309523Y-64142695D01*
X1309523Y-64142695D02*
X1309523Y-64237933D01*
X1309523Y-64237933D02*
X1261904Y-64380790D01*
X1261904Y-64380790D02*
X690476Y-64952219D01*
X690476Y-64952219D02*
X1309523Y-64952219D01*
X1880952Y-64380790D02*
X1785714Y-64333171D01*
X1785714Y-64333171D02*
X1738095Y-64285552D01*
X1738095Y-64285552D02*
X1690476Y-64190314D01*
X1690476Y-64190314D02*
X1690476Y-64142695D01*
X1690476Y-64142695D02*
X1738095Y-64047457D01*
X1738095Y-64047457D02*
X1785714Y-63999838D01*
X1785714Y-63999838D02*
X1880952Y-63952219D01*
X1880952Y-63952219D02*
X2071428Y-63952219D01*
X2071428Y-63952219D02*
X2166666Y-63999838D01*
X2166666Y-63999838D02*
X2214285Y-64047457D01*
X2214285Y-64047457D02*
X2261904Y-64142695D01*
X2261904Y-64142695D02*
X2261904Y-64190314D01*
X2261904Y-64190314D02*
X2214285Y-64285552D01*
X2214285Y-64285552D02*
X2166666Y-64333171D01*
X2166666Y-64333171D02*
X2071428Y-64380790D01*
X2071428Y-64380790D02*
X1880952Y-64380790D01*
X1880952Y-64380790D02*
X1785714Y-64428409D01*
X1785714Y-64428409D02*
X1738095Y-64476028D01*
X1738095Y-64476028D02*
X1690476Y-64571266D01*
X1690476Y-64571266D02*
X1690476Y-64761742D01*
X1690476Y-64761742D02*
X1738095Y-64856980D01*
X1738095Y-64856980D02*
X1785714Y-64904600D01*
X1785714Y-64904600D02*
X1880952Y-64952219D01*
X1880952Y-64952219D02*
X2071428Y-64952219D01*
X2071428Y-64952219D02*
X2166666Y-64904600D01*
X2166666Y-64904600D02*
X2214285Y-64856980D01*
X2214285Y-64856980D02*
X2261904Y-64761742D01*
X2261904Y-64761742D02*
X2261904Y-64571266D01*
X2261904Y-64571266D02*
X2214285Y-64476028D01*
X2214285Y-64476028D02*
X2166666Y-64428409D01*
X2166666Y-64428409D02*
X2071428Y-64380790D01*
D13*
X60890476Y-56099870D02*
X60814286Y-56061775D01*
X60814286Y-56061775D02*
X60700000Y-56061775D01*
X60700000Y-56061775D02*
X60585714Y-56099870D01*
X60585714Y-56099870D02*
X60509524Y-56176060D01*
X60509524Y-56176060D02*
X60471429Y-56252251D01*
X60471429Y-56252251D02*
X60433333Y-56404632D01*
X60433333Y-56404632D02*
X60433333Y-56518918D01*
X60433333Y-56518918D02*
X60471429Y-56671299D01*
X60471429Y-56671299D02*
X60509524Y-56747489D01*
X60509524Y-56747489D02*
X60585714Y-56823680D01*
X60585714Y-56823680D02*
X60700000Y-56861775D01*
X60700000Y-56861775D02*
X60776191Y-56861775D01*
X60776191Y-56861775D02*
X60890476Y-56823680D01*
X60890476Y-56823680D02*
X60928572Y-56785584D01*
X60928572Y-56785584D02*
X60928572Y-56518918D01*
X60928572Y-56518918D02*
X60776191Y-56518918D01*
X61271429Y-56061775D02*
X61271429Y-56709394D01*
X61271429Y-56709394D02*
X61309524Y-56785584D01*
X61309524Y-56785584D02*
X61347619Y-56823680D01*
X61347619Y-56823680D02*
X61423810Y-56861775D01*
X61423810Y-56861775D02*
X61576191Y-56861775D01*
X61576191Y-56861775D02*
X61652381Y-56823680D01*
X61652381Y-56823680D02*
X61690476Y-56785584D01*
X61690476Y-56785584D02*
X61728572Y-56709394D01*
X61728572Y-56709394D02*
X61728572Y-56061775D01*
X62109524Y-56861775D02*
X62109524Y-56061775D01*
X62452380Y-56633203D02*
X62833333Y-56633203D01*
X62376190Y-56861775D02*
X62642857Y-56061775D01*
X62642857Y-56061775D02*
X62909523Y-56861775D01*
X64166666Y-56061775D02*
X63785714Y-56061775D01*
X63785714Y-56061775D02*
X63747618Y-56442727D01*
X63747618Y-56442727D02*
X63785714Y-56404632D01*
X63785714Y-56404632D02*
X63861904Y-56366537D01*
X63861904Y-56366537D02*
X64052380Y-56366537D01*
X64052380Y-56366537D02*
X64128571Y-56404632D01*
X64128571Y-56404632D02*
X64166666Y-56442727D01*
X64166666Y-56442727D02*
X64204761Y-56518918D01*
X64204761Y-56518918D02*
X64204761Y-56709394D01*
X64204761Y-56709394D02*
X64166666Y-56785584D01*
X64166666Y-56785584D02*
X64128571Y-56823680D01*
X64128571Y-56823680D02*
X64052380Y-56861775D01*
X64052380Y-56861775D02*
X63861904Y-56861775D01*
X63861904Y-56861775D02*
X63785714Y-56823680D01*
X63785714Y-56823680D02*
X63747618Y-56785584D01*
X65119047Y-56023680D02*
X64433333Y-57052251D01*
X65766666Y-56061775D02*
X65385714Y-56061775D01*
X65385714Y-56061775D02*
X65347618Y-56442727D01*
X65347618Y-56442727D02*
X65385714Y-56404632D01*
X65385714Y-56404632D02*
X65461904Y-56366537D01*
X65461904Y-56366537D02*
X65652380Y-56366537D01*
X65652380Y-56366537D02*
X65728571Y-56404632D01*
X65728571Y-56404632D02*
X65766666Y-56442727D01*
X65766666Y-56442727D02*
X65804761Y-56518918D01*
X65804761Y-56518918D02*
X65804761Y-56709394D01*
X65804761Y-56709394D02*
X65766666Y-56785584D01*
X65766666Y-56785584D02*
X65728571Y-56823680D01*
X65728571Y-56823680D02*
X65652380Y-56861775D01*
X65652380Y-56861775D02*
X65461904Y-56861775D01*
X65461904Y-56861775D02*
X65385714Y-56823680D01*
X65385714Y-56823680D02*
X65347618Y-56785584D01*
X66109523Y-56137965D02*
X66147619Y-56099870D01*
X66147619Y-56099870D02*
X66223809Y-56061775D01*
X66223809Y-56061775D02*
X66414285Y-56061775D01*
X66414285Y-56061775D02*
X66490476Y-56099870D01*
X66490476Y-56099870D02*
X66528571Y-56137965D01*
X66528571Y-56137965D02*
X66566666Y-56214156D01*
X66566666Y-56214156D02*
X66566666Y-56290346D01*
X66566666Y-56290346D02*
X66528571Y-56404632D01*
X66528571Y-56404632D02*
X66071428Y-56861775D01*
X66071428Y-56861775D02*
X66566666Y-56861775D01*
D12*
X76961904Y-58952219D02*
X76485714Y-58952219D01*
X76485714Y-58952219D02*
X76438095Y-59428409D01*
X76438095Y-59428409D02*
X76485714Y-59380790D01*
X76485714Y-59380790D02*
X76580952Y-59333171D01*
X76580952Y-59333171D02*
X76819047Y-59333171D01*
X76819047Y-59333171D02*
X76914285Y-59380790D01*
X76914285Y-59380790D02*
X76961904Y-59428409D01*
X76961904Y-59428409D02*
X77009523Y-59523647D01*
X77009523Y-59523647D02*
X77009523Y-59761742D01*
X77009523Y-59761742D02*
X76961904Y-59856980D01*
X76961904Y-59856980D02*
X76914285Y-59904600D01*
X76914285Y-59904600D02*
X76819047Y-59952219D01*
X76819047Y-59952219D02*
X76580952Y-59952219D01*
X76580952Y-59952219D02*
X76485714Y-59904600D01*
X76485714Y-59904600D02*
X76438095Y-59856980D01*
X77866666Y-58952219D02*
X77676190Y-58952219D01*
X77676190Y-58952219D02*
X77580952Y-58999838D01*
X77580952Y-58999838D02*
X77533333Y-59047457D01*
X77533333Y-59047457D02*
X77438095Y-59190314D01*
X77438095Y-59190314D02*
X77390476Y-59380790D01*
X77390476Y-59380790D02*
X77390476Y-59761742D01*
X77390476Y-59761742D02*
X77438095Y-59856980D01*
X77438095Y-59856980D02*
X77485714Y-59904600D01*
X77485714Y-59904600D02*
X77580952Y-59952219D01*
X77580952Y-59952219D02*
X77771428Y-59952219D01*
X77771428Y-59952219D02*
X77866666Y-59904600D01*
X77866666Y-59904600D02*
X77914285Y-59856980D01*
X77914285Y-59856980D02*
X77961904Y-59761742D01*
X77961904Y-59761742D02*
X77961904Y-59523647D01*
X77961904Y-59523647D02*
X77914285Y-59428409D01*
X77914285Y-59428409D02*
X77866666Y-59380790D01*
X77866666Y-59380790D02*
X77771428Y-59333171D01*
X77771428Y-59333171D02*
X77580952Y-59333171D01*
X77580952Y-59333171D02*
X77485714Y-59380790D01*
X77485714Y-59380790D02*
X77438095Y-59428409D01*
X77438095Y-59428409D02*
X77390476Y-59523647D01*
X77485714Y-64952219D02*
X76914286Y-64952219D01*
X77200000Y-64952219D02*
X77200000Y-63952219D01*
X77200000Y-63952219D02*
X77104762Y-64095076D01*
X77104762Y-64095076D02*
X77009524Y-64190314D01*
X77009524Y-64190314D02*
X76914286Y-64237933D01*
%TO.C,U3*%
D14*
X7910000Y-3750000D02*
X7910000Y-44510000D01*
X7910000Y-44510000D02*
X20030000Y-44510000D01*
X12970000Y-3750000D02*
X7910000Y-3750000D01*
X20030000Y-3750000D02*
X14970000Y-3750000D01*
X20030000Y-44510000D02*
X20030000Y-3750000D01*
X4910000Y-3690000D02*
X23030000Y-3690000D01*
X23030000Y-44570000D01*
X4910000Y-44570000D01*
X4910000Y-3690000D01*
X14970000Y-3750000D02*
G75*
G02*
X12970000Y-3750000I-1000000J0D01*
G01*
%TO.C,JP2*%
X70120000Y-15620000D02*
X71500000Y-15620000D01*
X70120000Y-17000000D02*
X70120000Y-15620000D01*
X70120000Y-18270000D02*
X70120000Y-23460000D01*
X70120000Y-18270000D02*
X72880000Y-18270000D01*
X70120000Y-23460000D02*
X72880000Y-23460000D01*
X72880000Y-18270000D02*
X72880000Y-23460000D01*
%TO.C,TP2*%
X64950000Y-47200000D02*
G75*
G02*
X63050000Y-47200000I-950000J0D01*
G01*
X63050000Y-47200000D02*
G75*
G02*
X64950000Y-47200000I950000J0D01*
G01*
%TO.C,JP1*%
X70120000Y-6620000D02*
X71500000Y-6620000D01*
X70120000Y-8000000D02*
X70120000Y-6620000D01*
X70120000Y-9270000D02*
X70120000Y-14460000D01*
X70120000Y-9270000D02*
X72880000Y-9270000D01*
X70120000Y-14460000D02*
X72880000Y-14460000D01*
X72880000Y-9270000D02*
X72880000Y-14460000D01*
%TO.C,C5*%
X35880000Y-45830000D02*
X41120000Y-45830000D01*
X35880000Y-46167000D02*
X35880000Y-45830000D01*
X35880000Y-48570000D02*
X35880000Y-48233000D01*
X41120000Y-45830000D02*
X41120000Y-46167000D01*
X41120000Y-48233000D02*
X41120000Y-48570000D01*
X41120000Y-48570000D02*
X35880000Y-48570000D01*
%TO.C,C4*%
X11880000Y-45830000D02*
X17120000Y-45830000D01*
X11880000Y-46167000D02*
X11880000Y-45830000D01*
X11880000Y-48570000D02*
X11880000Y-48233000D01*
X17120000Y-45830000D02*
X17120000Y-46167000D01*
X17120000Y-48233000D02*
X17120000Y-48570000D01*
X17120000Y-48570000D02*
X11880000Y-48570000D01*
%TO.C,U2*%
X61250000Y-11370000D02*
X61250000Y-36890000D01*
X61250000Y-36890000D02*
X65750000Y-36890000D01*
X62500000Y-11370000D02*
X61250000Y-11370000D01*
X65750000Y-11370000D02*
X64500000Y-11370000D01*
X65750000Y-36890000D02*
X65750000Y-11370000D01*
X58250000Y-11310000D02*
X68750000Y-11310000D01*
X68750000Y-36950000D01*
X58250000Y-36950000D01*
X58250000Y-11310000D01*
X64500000Y-11370000D02*
G75*
G02*
X62500000Y-11370000I-1000000J0D01*
G01*
%TO.C,R3*%
X24370000Y-53300000D02*
X24440000Y-53300000D01*
X24370000Y-53300000D02*
G75*
G02*
X21630000Y-53300000I-1370000J0D01*
G01*
X21630000Y-53300000D02*
G75*
G02*
X24370000Y-53300000I1370000J0D01*
G01*
%TO.C,TP1*%
X60950000Y-47200000D02*
G75*
G02*
X59050000Y-47200000I-950000J0D01*
G01*
X59050000Y-47200000D02*
G75*
G02*
X60950000Y-47200000I950000J0D01*
G01*
%TO.C,U4*%
X28230000Y-6290000D02*
X28230000Y-41970000D01*
X28230000Y-41970000D02*
X40350000Y-41970000D01*
X33290000Y-6290000D02*
X28230000Y-6290000D01*
X40350000Y-6290000D02*
X35290000Y-6290000D01*
X40350000Y-41970000D02*
X40350000Y-6290000D01*
X25230000Y-6230000D02*
X43350000Y-6230000D01*
X43350000Y-42030000D01*
X25230000Y-42030000D01*
X25230000Y-6230000D01*
X35290000Y-6290000D02*
G75*
G02*
X33290000Y-6290000I-1000000J0D01*
G01*
%TO.C,C2*%
X27880000Y-45830000D02*
X33120000Y-45830000D01*
X27880000Y-46167000D02*
X27880000Y-45830000D01*
X27880000Y-48570000D02*
X27880000Y-48233000D01*
X33120000Y-45830000D02*
X33120000Y-46167000D01*
X33120000Y-48233000D02*
X33120000Y-48570000D01*
X33120000Y-48570000D02*
X27880000Y-48570000D01*
%TO.C,JP4*%
X70120000Y-32120000D02*
X71500000Y-32120000D01*
X70120000Y-33500000D02*
X70120000Y-32120000D01*
X70120000Y-34770000D02*
X70120000Y-37420000D01*
X70120000Y-34770000D02*
X72880000Y-34770000D01*
X70120000Y-37420000D02*
X72880000Y-37420000D01*
X72880000Y-34770000D02*
X72880000Y-37420000D01*
%TO.C,R5*%
X18370000Y-53300000D02*
X18440000Y-53300000D01*
X18370000Y-53300000D02*
G75*
G02*
X15630000Y-53300000I-1370000J0D01*
G01*
X15630000Y-53300000D02*
G75*
G02*
X18370000Y-53300000I1370000J0D01*
G01*
%TO.C,C6*%
X42195225Y-45725000D02*
X42695225Y-45725000D01*
X42445225Y-45475000D02*
X42445225Y-45975000D01*
X45000000Y-44620000D02*
X45000000Y-46160000D01*
X45000000Y-48240000D02*
X45000000Y-49780000D01*
X45040000Y-44620000D02*
X45040000Y-46160000D01*
X45040000Y-48240000D02*
X45040000Y-49780000D01*
X45080000Y-44621000D02*
X45080000Y-46160000D01*
X45080000Y-48240000D02*
X45080000Y-49779000D01*
X45120000Y-44623000D02*
X45120000Y-46160000D01*
X45120000Y-48240000D02*
X45120000Y-49777000D01*
X45160000Y-44625000D02*
X45160000Y-46160000D01*
X45160000Y-48240000D02*
X45160000Y-49775000D01*
X45200000Y-44628000D02*
X45200000Y-46160000D01*
X45200000Y-48240000D02*
X45200000Y-49772000D01*
X45240000Y-44631000D02*
X45240000Y-46160000D01*
X45240000Y-48240000D02*
X45240000Y-49769000D01*
X45280000Y-44635000D02*
X45280000Y-46160000D01*
X45280000Y-48240000D02*
X45280000Y-49765000D01*
X45320000Y-44640000D02*
X45320000Y-46160000D01*
X45320000Y-48240000D02*
X45320000Y-49760000D01*
X45360000Y-44645000D02*
X45360000Y-46160000D01*
X45360000Y-48240000D02*
X45360000Y-49755000D01*
X45400000Y-44651000D02*
X45400000Y-46160000D01*
X45400000Y-48240000D02*
X45400000Y-49749000D01*
X45440000Y-44657000D02*
X45440000Y-46160000D01*
X45440000Y-48240000D02*
X45440000Y-49743000D01*
X45480000Y-44664000D02*
X45480000Y-46160000D01*
X45480000Y-48240000D02*
X45480000Y-49736000D01*
X45520000Y-44672000D02*
X45520000Y-46160000D01*
X45520000Y-48240000D02*
X45520000Y-49728000D01*
X45560000Y-44681000D02*
X45560000Y-46160000D01*
X45560000Y-48240000D02*
X45560000Y-49719000D01*
X45600000Y-44690000D02*
X45600000Y-46160000D01*
X45600000Y-48240000D02*
X45600000Y-49710000D01*
X45640000Y-44699000D02*
X45640000Y-46160000D01*
X45640000Y-48240000D02*
X45640000Y-49701000D01*
X45680000Y-44710000D02*
X45680000Y-46160000D01*
X45680000Y-48240000D02*
X45680000Y-49690000D01*
X45720000Y-44721000D02*
X45720000Y-46160000D01*
X45720000Y-48240000D02*
X45720000Y-49679000D01*
X45760000Y-44733000D02*
X45760000Y-46160000D01*
X45760000Y-48240000D02*
X45760000Y-49667000D01*
X45800000Y-44745000D02*
X45800000Y-46160000D01*
X45800000Y-48240000D02*
X45800000Y-49655000D01*
X45840000Y-44758000D02*
X45840000Y-46160000D01*
X45840000Y-48240000D02*
X45840000Y-49642000D01*
X45880000Y-44772000D02*
X45880000Y-46160000D01*
X45880000Y-48240000D02*
X45880000Y-49628000D01*
X45920000Y-44787000D02*
X45920000Y-46160000D01*
X45920000Y-48240000D02*
X45920000Y-49613000D01*
X45960000Y-44802000D02*
X45960000Y-46160000D01*
X45960000Y-48240000D02*
X45960000Y-49598000D01*
X46000000Y-44818000D02*
X46000000Y-46160000D01*
X46000000Y-48240000D02*
X46000000Y-49582000D01*
X46040000Y-44835000D02*
X46040000Y-46160000D01*
X46040000Y-48240000D02*
X46040000Y-49565000D01*
X46080000Y-44853000D02*
X46080000Y-46160000D01*
X46080000Y-48240000D02*
X46080000Y-49547000D01*
X46120000Y-44871000D02*
X46120000Y-46160000D01*
X46120000Y-48240000D02*
X46120000Y-49529000D01*
X46160000Y-44891000D02*
X46160000Y-46160000D01*
X46160000Y-48240000D02*
X46160000Y-49509000D01*
X46200000Y-44911000D02*
X46200000Y-46160000D01*
X46200000Y-48240000D02*
X46200000Y-49489000D01*
X46240000Y-44932000D02*
X46240000Y-46160000D01*
X46240000Y-48240000D02*
X46240000Y-49468000D01*
X46280000Y-44954000D02*
X46280000Y-46160000D01*
X46280000Y-48240000D02*
X46280000Y-49446000D01*
X46320000Y-44977000D02*
X46320000Y-46160000D01*
X46320000Y-48240000D02*
X46320000Y-49423000D01*
X46360000Y-45001000D02*
X46360000Y-46160000D01*
X46360000Y-48240000D02*
X46360000Y-49399000D01*
X46400000Y-45025000D02*
X46400000Y-46160000D01*
X46400000Y-48240000D02*
X46400000Y-49375000D01*
X46440000Y-45051000D02*
X46440000Y-46160000D01*
X46440000Y-48240000D02*
X46440000Y-49349000D01*
X46480000Y-45078000D02*
X46480000Y-46160000D01*
X46480000Y-48240000D02*
X46480000Y-49322000D01*
X46520000Y-45106000D02*
X46520000Y-46160000D01*
X46520000Y-48240000D02*
X46520000Y-49294000D01*
X46560000Y-45135000D02*
X46560000Y-46160000D01*
X46560000Y-48240000D02*
X46560000Y-49265000D01*
X46600000Y-45165000D02*
X46600000Y-46160000D01*
X46600000Y-48240000D02*
X46600000Y-49235000D01*
X46640000Y-45197000D02*
X46640000Y-46160000D01*
X46640000Y-48240000D02*
X46640000Y-49203000D01*
X46680000Y-45230000D02*
X46680000Y-46160000D01*
X46680000Y-48240000D02*
X46680000Y-49170000D01*
X46720000Y-45264000D02*
X46720000Y-46160000D01*
X46720000Y-48240000D02*
X46720000Y-49136000D01*
X46760000Y-45299000D02*
X46760000Y-46160000D01*
X46760000Y-48240000D02*
X46760000Y-49101000D01*
X46800000Y-45336000D02*
X46800000Y-46160000D01*
X46800000Y-48240000D02*
X46800000Y-49064000D01*
X46840000Y-45375000D02*
X46840000Y-46160000D01*
X46840000Y-48240000D02*
X46840000Y-49025000D01*
X46880000Y-45415000D02*
X46880000Y-46160000D01*
X46880000Y-48240000D02*
X46880000Y-48985000D01*
X46920000Y-45457000D02*
X46920000Y-46160000D01*
X46920000Y-48240000D02*
X46920000Y-48943000D01*
X46960000Y-45501000D02*
X46960000Y-46160000D01*
X46960000Y-48240000D02*
X46960000Y-48899000D01*
X47000000Y-45548000D02*
X47000000Y-46160000D01*
X47000000Y-48240000D02*
X47000000Y-48852000D01*
X47040000Y-45596000D02*
X47040000Y-48804000D01*
X47080000Y-45647000D02*
X47080000Y-48753000D01*
X47120000Y-45701000D02*
X47120000Y-48699000D01*
X47160000Y-45757000D02*
X47160000Y-48643000D01*
X47200000Y-45817000D02*
X47200000Y-48583000D01*
X47240000Y-45881000D02*
X47240000Y-48519000D01*
X47280000Y-45949000D02*
X47280000Y-48451000D01*
X47320000Y-46023000D02*
X47320000Y-48377000D01*
X47360000Y-46102000D02*
X47360000Y-48298000D01*
X47400000Y-46189000D02*
X47400000Y-48211000D01*
X47440000Y-46286000D02*
X47440000Y-48114000D01*
X47480000Y-46395000D02*
X47480000Y-48005000D01*
X47520000Y-46523000D02*
X47520000Y-47877000D01*
X47560000Y-46683000D02*
X47560000Y-47717000D01*
X47600000Y-46917000D02*
X47600000Y-47483000D01*
X47620000Y-47200000D02*
G75*
G02*
X42380000Y-47200000I-2620000J0D01*
G01*
X42380000Y-47200000D02*
G75*
G02*
X47620000Y-47200000I2620000J0D01*
G01*
%TO.C,D1*%
X51710000Y-45964000D02*
X51710000Y-46120000D01*
X51710000Y-48280000D02*
X51710000Y-48436000D01*
X51710000Y-45964484D02*
G75*
G02*
X54941437Y-46120000I1560000J-1235516D01*
G01*
X52229039Y-46120000D02*
G75*
G02*
X54310961Y-46120000I1040961J-1080000D01*
G01*
X54310961Y-48280000D02*
G75*
G02*
X52229039Y-48280000I-1040961J1080000D01*
G01*
X54941437Y-48280000D02*
G75*
G02*
X51710000Y-48435516I-1671437J1080000D01*
G01*
%TO.C,U1*%
X48550000Y-8830000D02*
X48550000Y-39430000D01*
X48550000Y-39430000D02*
X53050000Y-39430000D01*
X49800000Y-8830000D02*
X48550000Y-8830000D01*
X53050000Y-8830000D02*
X51800000Y-8830000D01*
X53050000Y-39430000D02*
X53050000Y-8830000D01*
X45550000Y-8770000D02*
X56050000Y-8770000D01*
X56050000Y-39490000D01*
X45550000Y-39490000D01*
X45550000Y-8770000D01*
X51800000Y-8830000D02*
G75*
G02*
X49800000Y-8830000I-1000000J0D01*
G01*
%TO.C,SJ1*%
X29600000Y-53600000D02*
X29600000Y-53000000D01*
X30300000Y-52300000D02*
X31700000Y-52300000D01*
X31700000Y-54300000D02*
X30300000Y-54300000D01*
X32400000Y-53000000D02*
X32400000Y-53600000D01*
X29600000Y-53000000D02*
G75*
G02*
X30300000Y-52300000I699999J1D01*
G01*
X30300000Y-54300000D02*
G75*
G02*
X29600000Y-53600000I-1J699999D01*
G01*
X31700000Y-52300000D02*
G75*
G02*
X32400000Y-53000000I0J-700000D01*
G01*
X32400000Y-53600000D02*
G75*
G02*
X31700000Y-54300000I-700000J0D01*
G01*
%TO.C,C1*%
X19880000Y-45830000D02*
X25120000Y-45830000D01*
X19880000Y-46167000D02*
X19880000Y-45830000D01*
X19880000Y-48570000D02*
X19880000Y-48233000D01*
X25120000Y-45830000D02*
X25120000Y-46167000D01*
X25120000Y-48233000D02*
X25120000Y-48570000D01*
X25120000Y-48570000D02*
X19880000Y-48570000D01*
%TO.C,C3*%
X3880000Y-45830000D02*
X9120000Y-45830000D01*
X3880000Y-46167000D02*
X3880000Y-45830000D01*
X3880000Y-48570000D02*
X3880000Y-48233000D01*
X9120000Y-45830000D02*
X9120000Y-46167000D01*
X9120000Y-48233000D02*
X9120000Y-48570000D01*
X9120000Y-48570000D02*
X3880000Y-48570000D01*
%TO.C,R4*%
X12370000Y-53300000D02*
X12440000Y-53300000D01*
X12370000Y-53300000D02*
G75*
G02*
X9630000Y-53300000I-1370000J0D01*
G01*
X9630000Y-53300000D02*
G75*
G02*
X12370000Y-53300000I1370000J0D01*
G01*
%TO.C,SJ2*%
X35600000Y-53600000D02*
X35600000Y-53000000D01*
X36300000Y-52300000D02*
X37700000Y-52300000D01*
X37700000Y-54300000D02*
X36300000Y-54300000D01*
X38400000Y-53000000D02*
X38400000Y-53600000D01*
X35600000Y-53000000D02*
G75*
G02*
X36300000Y-52300000I699999J1D01*
G01*
X36300000Y-54300000D02*
G75*
G02*
X35600000Y-53600000I-1J699999D01*
G01*
X37700000Y-52300000D02*
G75*
G02*
X38400000Y-53000000I0J-700000D01*
G01*
X38400000Y-53600000D02*
G75*
G02*
X37700000Y-54300000I-700000J0D01*
G01*
%TO.C,R2*%
X6370000Y-53300000D02*
X6440000Y-53300000D01*
X6370000Y-53300000D02*
G75*
G02*
X3630000Y-53300000I-1370000J0D01*
G01*
X3630000Y-53300000D02*
G75*
G02*
X6370000Y-53300000I1370000J0D01*
G01*
%TO.C,JP3*%
X70120000Y-24620000D02*
X71500000Y-24620000D01*
X70120000Y-26000000D02*
X70120000Y-24620000D01*
X70120000Y-27270000D02*
X70120000Y-29920000D01*
X70120000Y-27270000D02*
X72880000Y-27270000D01*
X70120000Y-29920000D02*
X72880000Y-29920000D01*
X72880000Y-27270000D02*
X72880000Y-29920000D01*
%TO.C,J1*%
D15*
X2880000Y-57230000D02*
X2880000Y-65740000D01*
X63500000Y-57230000D02*
X63500000Y-65740000D01*
X75860000Y-57230000D02*
X2880000Y-57230000D01*
X75860000Y-65740000D02*
X75860000Y-57230000D01*
%TD*%
M02*
