%TF.GenerationSoftware,KiCad,Pcbnew,10.0.4*%
%TF.CreationDate,2026-08-08T01:09:29-03:00*%
%TF.ProjectId,tkmem128-ii,746b6d65-6d31-4323-982d-69692e6b6963,rev?*%
%TF.SameCoordinates,Original*%
%TF.FileFunction,Legend,Top*%
%TF.FilePolarity,Positive*%
%FSLAX46Y46*%
G04 Gerber Fmt 4.6, Leading zero omitted, Abs format (unit mm)*
G04 Created by KiCad (PCBNEW 10.0.4) date 2026-08-08 01:09:29*
%MOMM*%
%LPD*%
G01*
G04 APERTURE LIST*
%ADD10C,0.180000*%
%ADD11C,0.300000*%
%ADD12C,0.440000*%
%ADD13C,0.200000*%
%ADD14C,0.120000*%
%ADD15C,0.150000*%
G04 APERTURE END LIST*
D10*
X14812382Y-12235854D02*
X14874286Y-12173949D01*
X14874286Y-12173949D02*
X14998096Y-12112044D01*
X14998096Y-12112044D02*
X15307620Y-12112044D01*
X15307620Y-12112044D02*
X15431429Y-12173949D01*
X15431429Y-12173949D02*
X15493334Y-12235854D01*
X15493334Y-12235854D02*
X15555239Y-12359663D01*
X15555239Y-12359663D02*
X15555239Y-12483473D01*
X15555239Y-12483473D02*
X15493334Y-12669187D01*
X15493334Y-12669187D02*
X14750477Y-13412044D01*
X14750477Y-13412044D02*
X15555239Y-13412044D01*
X15988572Y-12112044D02*
X16855238Y-12112044D01*
X16855238Y-12112044D02*
X16298096Y-13412044D01*
X18093333Y-13288235D02*
X18031429Y-13350140D01*
X18031429Y-13350140D02*
X17845714Y-13412044D01*
X17845714Y-13412044D02*
X17721905Y-13412044D01*
X17721905Y-13412044D02*
X17536191Y-13350140D01*
X17536191Y-13350140D02*
X17412381Y-13226330D01*
X17412381Y-13226330D02*
X17350476Y-13102520D01*
X17350476Y-13102520D02*
X17288572Y-12854901D01*
X17288572Y-12854901D02*
X17288572Y-12669187D01*
X17288572Y-12669187D02*
X17350476Y-12421568D01*
X17350476Y-12421568D02*
X17412381Y-12297759D01*
X17412381Y-12297759D02*
X17536191Y-12173949D01*
X17536191Y-12173949D02*
X17721905Y-12112044D01*
X17721905Y-12112044D02*
X17845714Y-12112044D01*
X17845714Y-12112044D02*
X18031429Y-12173949D01*
X18031429Y-12173949D02*
X18093333Y-12235854D01*
X18588572Y-12235854D02*
X18650476Y-12173949D01*
X18650476Y-12173949D02*
X18774286Y-12112044D01*
X18774286Y-12112044D02*
X19083810Y-12112044D01*
X19083810Y-12112044D02*
X19207619Y-12173949D01*
X19207619Y-12173949D02*
X19269524Y-12235854D01*
X19269524Y-12235854D02*
X19331429Y-12359663D01*
X19331429Y-12359663D02*
X19331429Y-12483473D01*
X19331429Y-12483473D02*
X19269524Y-12669187D01*
X19269524Y-12669187D02*
X18526667Y-13412044D01*
X18526667Y-13412044D02*
X19331429Y-13412044D01*
X20507619Y-12112044D02*
X19888571Y-12112044D01*
X19888571Y-12112044D02*
X19826667Y-12731092D01*
X19826667Y-12731092D02*
X19888571Y-12669187D01*
X19888571Y-12669187D02*
X20012381Y-12607282D01*
X20012381Y-12607282D02*
X20321905Y-12607282D01*
X20321905Y-12607282D02*
X20445714Y-12669187D01*
X20445714Y-12669187D02*
X20507619Y-12731092D01*
X20507619Y-12731092D02*
X20569524Y-12854901D01*
X20569524Y-12854901D02*
X20569524Y-13164425D01*
X20569524Y-13164425D02*
X20507619Y-13288235D01*
X20507619Y-13288235D02*
X20445714Y-13350140D01*
X20445714Y-13350140D02*
X20321905Y-13412044D01*
X20321905Y-13412044D02*
X20012381Y-13412044D01*
X20012381Y-13412044D02*
X19888571Y-13350140D01*
X19888571Y-13350140D02*
X19826667Y-13288235D01*
X21683809Y-12112044D02*
X21436190Y-12112044D01*
X21436190Y-12112044D02*
X21312381Y-12173949D01*
X21312381Y-12173949D02*
X21250476Y-12235854D01*
X21250476Y-12235854D02*
X21126666Y-12421568D01*
X21126666Y-12421568D02*
X21064762Y-12669187D01*
X21064762Y-12669187D02*
X21064762Y-13164425D01*
X21064762Y-13164425D02*
X21126666Y-13288235D01*
X21126666Y-13288235D02*
X21188571Y-13350140D01*
X21188571Y-13350140D02*
X21312381Y-13412044D01*
X21312381Y-13412044D02*
X21560000Y-13412044D01*
X21560000Y-13412044D02*
X21683809Y-13350140D01*
X21683809Y-13350140D02*
X21745714Y-13288235D01*
X21745714Y-13288235D02*
X21807619Y-13164425D01*
X21807619Y-13164425D02*
X21807619Y-12854901D01*
X21807619Y-12854901D02*
X21745714Y-12731092D01*
X21745714Y-12731092D02*
X21683809Y-12669187D01*
X21683809Y-12669187D02*
X21560000Y-12607282D01*
X21560000Y-12607282D02*
X21312381Y-12607282D01*
X21312381Y-12607282D02*
X21188571Y-12669187D01*
X21188571Y-12669187D02*
X21126666Y-12731092D01*
X21126666Y-12731092D02*
X21064762Y-12854901D01*
X3485716Y-36040616D02*
X4104763Y-36040616D01*
X3361906Y-36412044D02*
X3795239Y-35112044D01*
X3795239Y-35112044D02*
X4228573Y-36412044D01*
X4600002Y-36350140D02*
X4785716Y-36412044D01*
X4785716Y-36412044D02*
X5095240Y-36412044D01*
X5095240Y-36412044D02*
X5219049Y-36350140D01*
X5219049Y-36350140D02*
X5280954Y-36288235D01*
X5280954Y-36288235D02*
X5342859Y-36164425D01*
X5342859Y-36164425D02*
X5342859Y-36040616D01*
X5342859Y-36040616D02*
X5280954Y-35916806D01*
X5280954Y-35916806D02*
X5219049Y-35854901D01*
X5219049Y-35854901D02*
X5095240Y-35792997D01*
X5095240Y-35792997D02*
X4847621Y-35731092D01*
X4847621Y-35731092D02*
X4723811Y-35669187D01*
X4723811Y-35669187D02*
X4661906Y-35607282D01*
X4661906Y-35607282D02*
X4600002Y-35483473D01*
X4600002Y-35483473D02*
X4600002Y-35359663D01*
X4600002Y-35359663D02*
X4661906Y-35235854D01*
X4661906Y-35235854D02*
X4723811Y-35173949D01*
X4723811Y-35173949D02*
X4847621Y-35112044D01*
X4847621Y-35112044D02*
X5157144Y-35112044D01*
X5157144Y-35112044D02*
X5342859Y-35173949D01*
X6457144Y-35112044D02*
X6209525Y-35112044D01*
X6209525Y-35112044D02*
X6085716Y-35173949D01*
X6085716Y-35173949D02*
X6023811Y-35235854D01*
X6023811Y-35235854D02*
X5900001Y-35421568D01*
X5900001Y-35421568D02*
X5838097Y-35669187D01*
X5838097Y-35669187D02*
X5838097Y-36164425D01*
X5838097Y-36164425D02*
X5900001Y-36288235D01*
X5900001Y-36288235D02*
X5961906Y-36350140D01*
X5961906Y-36350140D02*
X6085716Y-36412044D01*
X6085716Y-36412044D02*
X6333335Y-36412044D01*
X6333335Y-36412044D02*
X6457144Y-36350140D01*
X6457144Y-36350140D02*
X6519049Y-36288235D01*
X6519049Y-36288235D02*
X6580954Y-36164425D01*
X6580954Y-36164425D02*
X6580954Y-35854901D01*
X6580954Y-35854901D02*
X6519049Y-35731092D01*
X6519049Y-35731092D02*
X6457144Y-35669187D01*
X6457144Y-35669187D02*
X6333335Y-35607282D01*
X6333335Y-35607282D02*
X6085716Y-35607282D01*
X6085716Y-35607282D02*
X5961906Y-35669187D01*
X5961906Y-35669187D02*
X5900001Y-35731092D01*
X5900001Y-35731092D02*
X5838097Y-35854901D01*
X7880953Y-36288235D02*
X7819049Y-36350140D01*
X7819049Y-36350140D02*
X7633334Y-36412044D01*
X7633334Y-36412044D02*
X7509525Y-36412044D01*
X7509525Y-36412044D02*
X7323811Y-36350140D01*
X7323811Y-36350140D02*
X7200001Y-36226330D01*
X7200001Y-36226330D02*
X7138096Y-36102520D01*
X7138096Y-36102520D02*
X7076192Y-35854901D01*
X7076192Y-35854901D02*
X7076192Y-35669187D01*
X7076192Y-35669187D02*
X7138096Y-35421568D01*
X7138096Y-35421568D02*
X7200001Y-35297759D01*
X7200001Y-35297759D02*
X7323811Y-35173949D01*
X7323811Y-35173949D02*
X7509525Y-35112044D01*
X7509525Y-35112044D02*
X7633334Y-35112044D01*
X7633334Y-35112044D02*
X7819049Y-35173949D01*
X7819049Y-35173949D02*
X7880953Y-35235854D01*
X9119049Y-36412044D02*
X8376192Y-36412044D01*
X8747620Y-36412044D02*
X8747620Y-35112044D01*
X8747620Y-35112044D02*
X8623811Y-35297759D01*
X8623811Y-35297759D02*
X8500001Y-35421568D01*
X8500001Y-35421568D02*
X8376192Y-35483473D01*
X9923810Y-35112044D02*
X10047620Y-35112044D01*
X10047620Y-35112044D02*
X10171429Y-35173949D01*
X10171429Y-35173949D02*
X10233334Y-35235854D01*
X10233334Y-35235854D02*
X10295239Y-35359663D01*
X10295239Y-35359663D02*
X10357144Y-35607282D01*
X10357144Y-35607282D02*
X10357144Y-35916806D01*
X10357144Y-35916806D02*
X10295239Y-36164425D01*
X10295239Y-36164425D02*
X10233334Y-36288235D01*
X10233334Y-36288235D02*
X10171429Y-36350140D01*
X10171429Y-36350140D02*
X10047620Y-36412044D01*
X10047620Y-36412044D02*
X9923810Y-36412044D01*
X9923810Y-36412044D02*
X9800001Y-36350140D01*
X9800001Y-36350140D02*
X9738096Y-36288235D01*
X9738096Y-36288235D02*
X9676191Y-36164425D01*
X9676191Y-36164425D02*
X9614287Y-35916806D01*
X9614287Y-35916806D02*
X9614287Y-35607282D01*
X9614287Y-35607282D02*
X9676191Y-35359663D01*
X9676191Y-35359663D02*
X9738096Y-35235854D01*
X9738096Y-35235854D02*
X9800001Y-35173949D01*
X9800001Y-35173949D02*
X9923810Y-35112044D01*
X11161905Y-35112044D02*
X11285715Y-35112044D01*
X11285715Y-35112044D02*
X11409524Y-35173949D01*
X11409524Y-35173949D02*
X11471429Y-35235854D01*
X11471429Y-35235854D02*
X11533334Y-35359663D01*
X11533334Y-35359663D02*
X11595239Y-35607282D01*
X11595239Y-35607282D02*
X11595239Y-35916806D01*
X11595239Y-35916806D02*
X11533334Y-36164425D01*
X11533334Y-36164425D02*
X11471429Y-36288235D01*
X11471429Y-36288235D02*
X11409524Y-36350140D01*
X11409524Y-36350140D02*
X11285715Y-36412044D01*
X11285715Y-36412044D02*
X11161905Y-36412044D01*
X11161905Y-36412044D02*
X11038096Y-36350140D01*
X11038096Y-36350140D02*
X10976191Y-36288235D01*
X10976191Y-36288235D02*
X10914286Y-36164425D01*
X10914286Y-36164425D02*
X10852382Y-35916806D01*
X10852382Y-35916806D02*
X10852382Y-35607282D01*
X10852382Y-35607282D02*
X10914286Y-35359663D01*
X10914286Y-35359663D02*
X10976191Y-35235854D01*
X10976191Y-35235854D02*
X11038096Y-35173949D01*
X11038096Y-35173949D02*
X11161905Y-35112044D01*
X12338096Y-35669187D02*
X12214286Y-35607282D01*
X12214286Y-35607282D02*
X12152381Y-35545378D01*
X12152381Y-35545378D02*
X12090477Y-35421568D01*
X12090477Y-35421568D02*
X12090477Y-35359663D01*
X12090477Y-35359663D02*
X12152381Y-35235854D01*
X12152381Y-35235854D02*
X12214286Y-35173949D01*
X12214286Y-35173949D02*
X12338096Y-35112044D01*
X12338096Y-35112044D02*
X12585715Y-35112044D01*
X12585715Y-35112044D02*
X12709524Y-35173949D01*
X12709524Y-35173949D02*
X12771429Y-35235854D01*
X12771429Y-35235854D02*
X12833334Y-35359663D01*
X12833334Y-35359663D02*
X12833334Y-35421568D01*
X12833334Y-35421568D02*
X12771429Y-35545378D01*
X12771429Y-35545378D02*
X12709524Y-35607282D01*
X12709524Y-35607282D02*
X12585715Y-35669187D01*
X12585715Y-35669187D02*
X12338096Y-35669187D01*
X12338096Y-35669187D02*
X12214286Y-35731092D01*
X12214286Y-35731092D02*
X12152381Y-35792997D01*
X12152381Y-35792997D02*
X12090477Y-35916806D01*
X12090477Y-35916806D02*
X12090477Y-36164425D01*
X12090477Y-36164425D02*
X12152381Y-36288235D01*
X12152381Y-36288235D02*
X12214286Y-36350140D01*
X12214286Y-36350140D02*
X12338096Y-36412044D01*
X12338096Y-36412044D02*
X12585715Y-36412044D01*
X12585715Y-36412044D02*
X12709524Y-36350140D01*
X12709524Y-36350140D02*
X12771429Y-36288235D01*
X12771429Y-36288235D02*
X12833334Y-36164425D01*
X12833334Y-36164425D02*
X12833334Y-35916806D01*
X12833334Y-35916806D02*
X12771429Y-35792997D01*
X12771429Y-35792997D02*
X12709524Y-35731092D01*
X12709524Y-35731092D02*
X12585715Y-35669187D01*
X13390476Y-35916806D02*
X14380953Y-35916806D01*
X15619048Y-35112044D02*
X15000000Y-35112044D01*
X15000000Y-35112044D02*
X14938096Y-35731092D01*
X14938096Y-35731092D02*
X15000000Y-35669187D01*
X15000000Y-35669187D02*
X15123810Y-35607282D01*
X15123810Y-35607282D02*
X15433334Y-35607282D01*
X15433334Y-35607282D02*
X15557143Y-35669187D01*
X15557143Y-35669187D02*
X15619048Y-35731092D01*
X15619048Y-35731092D02*
X15680953Y-35854901D01*
X15680953Y-35854901D02*
X15680953Y-36164425D01*
X15680953Y-36164425D02*
X15619048Y-36288235D01*
X15619048Y-36288235D02*
X15557143Y-36350140D01*
X15557143Y-36350140D02*
X15433334Y-36412044D01*
X15433334Y-36412044D02*
X15123810Y-36412044D01*
X15123810Y-36412044D02*
X15000000Y-36350140D01*
X15000000Y-36350140D02*
X14938096Y-36288235D01*
X16857143Y-35112044D02*
X16238095Y-35112044D01*
X16238095Y-35112044D02*
X16176191Y-35731092D01*
X16176191Y-35731092D02*
X16238095Y-35669187D01*
X16238095Y-35669187D02*
X16361905Y-35607282D01*
X16361905Y-35607282D02*
X16671429Y-35607282D01*
X16671429Y-35607282D02*
X16795238Y-35669187D01*
X16795238Y-35669187D02*
X16857143Y-35731092D01*
X16857143Y-35731092D02*
X16919048Y-35854901D01*
X16919048Y-35854901D02*
X16919048Y-36164425D01*
X16919048Y-36164425D02*
X16857143Y-36288235D01*
X16857143Y-36288235D02*
X16795238Y-36350140D01*
X16795238Y-36350140D02*
X16671429Y-36412044D01*
X16671429Y-36412044D02*
X16361905Y-36412044D01*
X16361905Y-36412044D02*
X16238095Y-36350140D01*
X16238095Y-36350140D02*
X16176191Y-36288235D01*
X17476190Y-36412044D02*
X17476190Y-35112044D01*
X17476190Y-35112044D02*
X17971428Y-35112044D01*
X17971428Y-35112044D02*
X18095238Y-35173949D01*
X18095238Y-35173949D02*
X18157143Y-35235854D01*
X18157143Y-35235854D02*
X18219047Y-35359663D01*
X18219047Y-35359663D02*
X18219047Y-35545378D01*
X18219047Y-35545378D02*
X18157143Y-35669187D01*
X18157143Y-35669187D02*
X18095238Y-35731092D01*
X18095238Y-35731092D02*
X17971428Y-35792997D01*
X17971428Y-35792997D02*
X17476190Y-35792997D01*
X19519047Y-36288235D02*
X19457143Y-36350140D01*
X19457143Y-36350140D02*
X19271428Y-36412044D01*
X19271428Y-36412044D02*
X19147619Y-36412044D01*
X19147619Y-36412044D02*
X18961905Y-36350140D01*
X18961905Y-36350140D02*
X18838095Y-36226330D01*
X18838095Y-36226330D02*
X18776190Y-36102520D01*
X18776190Y-36102520D02*
X18714286Y-35854901D01*
X18714286Y-35854901D02*
X18714286Y-35669187D01*
X18714286Y-35669187D02*
X18776190Y-35421568D01*
X18776190Y-35421568D02*
X18838095Y-35297759D01*
X18838095Y-35297759D02*
X18961905Y-35173949D01*
X18961905Y-35173949D02*
X19147619Y-35112044D01*
X19147619Y-35112044D02*
X19271428Y-35112044D01*
X19271428Y-35112044D02*
X19457143Y-35173949D01*
X19457143Y-35173949D02*
X19519047Y-35235854D01*
X20076190Y-36412044D02*
X20076190Y-35112044D01*
X20076190Y-35112044D02*
X20819047Y-36412044D01*
X20819047Y-36412044D02*
X20819047Y-35112044D01*
X23357143Y-35050140D02*
X22242857Y-36721568D01*
X24719048Y-36040616D02*
X25338095Y-36040616D01*
X24595238Y-36412044D02*
X25028571Y-35112044D01*
X25028571Y-35112044D02*
X25461905Y-36412044D01*
X25833334Y-36350140D02*
X26019048Y-36412044D01*
X26019048Y-36412044D02*
X26328572Y-36412044D01*
X26328572Y-36412044D02*
X26452381Y-36350140D01*
X26452381Y-36350140D02*
X26514286Y-36288235D01*
X26514286Y-36288235D02*
X26576191Y-36164425D01*
X26576191Y-36164425D02*
X26576191Y-36040616D01*
X26576191Y-36040616D02*
X26514286Y-35916806D01*
X26514286Y-35916806D02*
X26452381Y-35854901D01*
X26452381Y-35854901D02*
X26328572Y-35792997D01*
X26328572Y-35792997D02*
X26080953Y-35731092D01*
X26080953Y-35731092D02*
X25957143Y-35669187D01*
X25957143Y-35669187D02*
X25895238Y-35607282D01*
X25895238Y-35607282D02*
X25833334Y-35483473D01*
X25833334Y-35483473D02*
X25833334Y-35359663D01*
X25833334Y-35359663D02*
X25895238Y-35235854D01*
X25895238Y-35235854D02*
X25957143Y-35173949D01*
X25957143Y-35173949D02*
X26080953Y-35112044D01*
X26080953Y-35112044D02*
X26390476Y-35112044D01*
X26390476Y-35112044D02*
X26576191Y-35173949D01*
X27690476Y-35112044D02*
X27442857Y-35112044D01*
X27442857Y-35112044D02*
X27319048Y-35173949D01*
X27319048Y-35173949D02*
X27257143Y-35235854D01*
X27257143Y-35235854D02*
X27133333Y-35421568D01*
X27133333Y-35421568D02*
X27071429Y-35669187D01*
X27071429Y-35669187D02*
X27071429Y-36164425D01*
X27071429Y-36164425D02*
X27133333Y-36288235D01*
X27133333Y-36288235D02*
X27195238Y-36350140D01*
X27195238Y-36350140D02*
X27319048Y-36412044D01*
X27319048Y-36412044D02*
X27566667Y-36412044D01*
X27566667Y-36412044D02*
X27690476Y-36350140D01*
X27690476Y-36350140D02*
X27752381Y-36288235D01*
X27752381Y-36288235D02*
X27814286Y-36164425D01*
X27814286Y-36164425D02*
X27814286Y-35854901D01*
X27814286Y-35854901D02*
X27752381Y-35731092D01*
X27752381Y-35731092D02*
X27690476Y-35669187D01*
X27690476Y-35669187D02*
X27566667Y-35607282D01*
X27566667Y-35607282D02*
X27319048Y-35607282D01*
X27319048Y-35607282D02*
X27195238Y-35669187D01*
X27195238Y-35669187D02*
X27133333Y-35731092D01*
X27133333Y-35731092D02*
X27071429Y-35854901D01*
X29114285Y-36288235D02*
X29052381Y-36350140D01*
X29052381Y-36350140D02*
X28866666Y-36412044D01*
X28866666Y-36412044D02*
X28742857Y-36412044D01*
X28742857Y-36412044D02*
X28557143Y-36350140D01*
X28557143Y-36350140D02*
X28433333Y-36226330D01*
X28433333Y-36226330D02*
X28371428Y-36102520D01*
X28371428Y-36102520D02*
X28309524Y-35854901D01*
X28309524Y-35854901D02*
X28309524Y-35669187D01*
X28309524Y-35669187D02*
X28371428Y-35421568D01*
X28371428Y-35421568D02*
X28433333Y-35297759D01*
X28433333Y-35297759D02*
X28557143Y-35173949D01*
X28557143Y-35173949D02*
X28742857Y-35112044D01*
X28742857Y-35112044D02*
X28866666Y-35112044D01*
X28866666Y-35112044D02*
X29052381Y-35173949D01*
X29052381Y-35173949D02*
X29114285Y-35235854D01*
X30228571Y-35545378D02*
X30228571Y-36412044D01*
X29919047Y-35050140D02*
X29609524Y-35978711D01*
X29609524Y-35978711D02*
X30414285Y-35978711D01*
X31157142Y-35112044D02*
X31280952Y-35112044D01*
X31280952Y-35112044D02*
X31404761Y-35173949D01*
X31404761Y-35173949D02*
X31466666Y-35235854D01*
X31466666Y-35235854D02*
X31528571Y-35359663D01*
X31528571Y-35359663D02*
X31590476Y-35607282D01*
X31590476Y-35607282D02*
X31590476Y-35916806D01*
X31590476Y-35916806D02*
X31528571Y-36164425D01*
X31528571Y-36164425D02*
X31466666Y-36288235D01*
X31466666Y-36288235D02*
X31404761Y-36350140D01*
X31404761Y-36350140D02*
X31280952Y-36412044D01*
X31280952Y-36412044D02*
X31157142Y-36412044D01*
X31157142Y-36412044D02*
X31033333Y-36350140D01*
X31033333Y-36350140D02*
X30971428Y-36288235D01*
X30971428Y-36288235D02*
X30909523Y-36164425D01*
X30909523Y-36164425D02*
X30847619Y-35916806D01*
X30847619Y-35916806D02*
X30847619Y-35607282D01*
X30847619Y-35607282D02*
X30909523Y-35359663D01*
X30909523Y-35359663D02*
X30971428Y-35235854D01*
X30971428Y-35235854D02*
X31033333Y-35173949D01*
X31033333Y-35173949D02*
X31157142Y-35112044D01*
X32395237Y-35112044D02*
X32519047Y-35112044D01*
X32519047Y-35112044D02*
X32642856Y-35173949D01*
X32642856Y-35173949D02*
X32704761Y-35235854D01*
X32704761Y-35235854D02*
X32766666Y-35359663D01*
X32766666Y-35359663D02*
X32828571Y-35607282D01*
X32828571Y-35607282D02*
X32828571Y-35916806D01*
X32828571Y-35916806D02*
X32766666Y-36164425D01*
X32766666Y-36164425D02*
X32704761Y-36288235D01*
X32704761Y-36288235D02*
X32642856Y-36350140D01*
X32642856Y-36350140D02*
X32519047Y-36412044D01*
X32519047Y-36412044D02*
X32395237Y-36412044D01*
X32395237Y-36412044D02*
X32271428Y-36350140D01*
X32271428Y-36350140D02*
X32209523Y-36288235D01*
X32209523Y-36288235D02*
X32147618Y-36164425D01*
X32147618Y-36164425D02*
X32085714Y-35916806D01*
X32085714Y-35916806D02*
X32085714Y-35607282D01*
X32085714Y-35607282D02*
X32147618Y-35359663D01*
X32147618Y-35359663D02*
X32209523Y-35235854D01*
X32209523Y-35235854D02*
X32271428Y-35173949D01*
X32271428Y-35173949D02*
X32395237Y-35112044D01*
X33571428Y-35669187D02*
X33447618Y-35607282D01*
X33447618Y-35607282D02*
X33385713Y-35545378D01*
X33385713Y-35545378D02*
X33323809Y-35421568D01*
X33323809Y-35421568D02*
X33323809Y-35359663D01*
X33323809Y-35359663D02*
X33385713Y-35235854D01*
X33385713Y-35235854D02*
X33447618Y-35173949D01*
X33447618Y-35173949D02*
X33571428Y-35112044D01*
X33571428Y-35112044D02*
X33819047Y-35112044D01*
X33819047Y-35112044D02*
X33942856Y-35173949D01*
X33942856Y-35173949D02*
X34004761Y-35235854D01*
X34004761Y-35235854D02*
X34066666Y-35359663D01*
X34066666Y-35359663D02*
X34066666Y-35421568D01*
X34066666Y-35421568D02*
X34004761Y-35545378D01*
X34004761Y-35545378D02*
X33942856Y-35607282D01*
X33942856Y-35607282D02*
X33819047Y-35669187D01*
X33819047Y-35669187D02*
X33571428Y-35669187D01*
X33571428Y-35669187D02*
X33447618Y-35731092D01*
X33447618Y-35731092D02*
X33385713Y-35792997D01*
X33385713Y-35792997D02*
X33323809Y-35916806D01*
X33323809Y-35916806D02*
X33323809Y-36164425D01*
X33323809Y-36164425D02*
X33385713Y-36288235D01*
X33385713Y-36288235D02*
X33447618Y-36350140D01*
X33447618Y-36350140D02*
X33571428Y-36412044D01*
X33571428Y-36412044D02*
X33819047Y-36412044D01*
X33819047Y-36412044D02*
X33942856Y-36350140D01*
X33942856Y-36350140D02*
X34004761Y-36288235D01*
X34004761Y-36288235D02*
X34066666Y-36164425D01*
X34066666Y-36164425D02*
X34066666Y-35916806D01*
X34066666Y-35916806D02*
X34004761Y-35792997D01*
X34004761Y-35792997D02*
X33942856Y-35731092D01*
X33942856Y-35731092D02*
X33819047Y-35669187D01*
X34623808Y-35916806D02*
X35614285Y-35916806D01*
X36852380Y-35112044D02*
X36233332Y-35112044D01*
X36233332Y-35112044D02*
X36171428Y-35731092D01*
X36171428Y-35731092D02*
X36233332Y-35669187D01*
X36233332Y-35669187D02*
X36357142Y-35607282D01*
X36357142Y-35607282D02*
X36666666Y-35607282D01*
X36666666Y-35607282D02*
X36790475Y-35669187D01*
X36790475Y-35669187D02*
X36852380Y-35731092D01*
X36852380Y-35731092D02*
X36914285Y-35854901D01*
X36914285Y-35854901D02*
X36914285Y-36164425D01*
X36914285Y-36164425D02*
X36852380Y-36288235D01*
X36852380Y-36288235D02*
X36790475Y-36350140D01*
X36790475Y-36350140D02*
X36666666Y-36412044D01*
X36666666Y-36412044D02*
X36357142Y-36412044D01*
X36357142Y-36412044D02*
X36233332Y-36350140D01*
X36233332Y-36350140D02*
X36171428Y-36288235D01*
X38090475Y-35112044D02*
X37471427Y-35112044D01*
X37471427Y-35112044D02*
X37409523Y-35731092D01*
X37409523Y-35731092D02*
X37471427Y-35669187D01*
X37471427Y-35669187D02*
X37595237Y-35607282D01*
X37595237Y-35607282D02*
X37904761Y-35607282D01*
X37904761Y-35607282D02*
X38028570Y-35669187D01*
X38028570Y-35669187D02*
X38090475Y-35731092D01*
X38090475Y-35731092D02*
X38152380Y-35854901D01*
X38152380Y-35854901D02*
X38152380Y-36164425D01*
X38152380Y-36164425D02*
X38090475Y-36288235D01*
X38090475Y-36288235D02*
X38028570Y-36350140D01*
X38028570Y-36350140D02*
X37904761Y-36412044D01*
X37904761Y-36412044D02*
X37595237Y-36412044D01*
X37595237Y-36412044D02*
X37471427Y-36350140D01*
X37471427Y-36350140D02*
X37409523Y-36288235D01*
X38709522Y-36412044D02*
X38709522Y-35112044D01*
X38709522Y-35112044D02*
X39204760Y-35112044D01*
X39204760Y-35112044D02*
X39328570Y-35173949D01*
X39328570Y-35173949D02*
X39390475Y-35235854D01*
X39390475Y-35235854D02*
X39452379Y-35359663D01*
X39452379Y-35359663D02*
X39452379Y-35545378D01*
X39452379Y-35545378D02*
X39390475Y-35669187D01*
X39390475Y-35669187D02*
X39328570Y-35731092D01*
X39328570Y-35731092D02*
X39204760Y-35792997D01*
X39204760Y-35792997D02*
X38709522Y-35792997D01*
X40752379Y-36288235D02*
X40690475Y-36350140D01*
X40690475Y-36350140D02*
X40504760Y-36412044D01*
X40504760Y-36412044D02*
X40380951Y-36412044D01*
X40380951Y-36412044D02*
X40195237Y-36350140D01*
X40195237Y-36350140D02*
X40071427Y-36226330D01*
X40071427Y-36226330D02*
X40009522Y-36102520D01*
X40009522Y-36102520D02*
X39947618Y-35854901D01*
X39947618Y-35854901D02*
X39947618Y-35669187D01*
X39947618Y-35669187D02*
X40009522Y-35421568D01*
X40009522Y-35421568D02*
X40071427Y-35297759D01*
X40071427Y-35297759D02*
X40195237Y-35173949D01*
X40195237Y-35173949D02*
X40380951Y-35112044D01*
X40380951Y-35112044D02*
X40504760Y-35112044D01*
X40504760Y-35112044D02*
X40690475Y-35173949D01*
X40690475Y-35173949D02*
X40752379Y-35235854D01*
X41309522Y-36412044D02*
X41309522Y-35112044D01*
X41309522Y-35112044D02*
X42052379Y-36412044D01*
X42052379Y-36412044D02*
X42052379Y-35112044D01*
X57494286Y-44802044D02*
X58360952Y-44802044D01*
X58360952Y-44802044D02*
X57803810Y-46102044D01*
X59413333Y-45235378D02*
X59413333Y-46102044D01*
X59103809Y-44740140D02*
X58794286Y-45668711D01*
X58794286Y-45668711D02*
X59599047Y-45668711D01*
X60094285Y-46102044D02*
X60094285Y-44802044D01*
X60094285Y-45421092D02*
X60837142Y-45421092D01*
X60837142Y-46102044D02*
X60837142Y-44802044D01*
X62199047Y-45978235D02*
X62137143Y-46040140D01*
X62137143Y-46040140D02*
X61951428Y-46102044D01*
X61951428Y-46102044D02*
X61827619Y-46102044D01*
X61827619Y-46102044D02*
X61641905Y-46040140D01*
X61641905Y-46040140D02*
X61518095Y-45916330D01*
X61518095Y-45916330D02*
X61456190Y-45792520D01*
X61456190Y-45792520D02*
X61394286Y-45544901D01*
X61394286Y-45544901D02*
X61394286Y-45359187D01*
X61394286Y-45359187D02*
X61456190Y-45111568D01*
X61456190Y-45111568D02*
X61518095Y-44987759D01*
X61518095Y-44987759D02*
X61641905Y-44863949D01*
X61641905Y-44863949D02*
X61827619Y-44802044D01*
X61827619Y-44802044D02*
X61951428Y-44802044D01*
X61951428Y-44802044D02*
X62137143Y-44863949D01*
X62137143Y-44863949D02*
X62199047Y-44925854D01*
X62570476Y-44802044D02*
X63313333Y-44802044D01*
X62941905Y-46102044D02*
X62941905Y-44802044D01*
X63684762Y-44925854D02*
X63746666Y-44863949D01*
X63746666Y-44863949D02*
X63870476Y-44802044D01*
X63870476Y-44802044D02*
X64180000Y-44802044D01*
X64180000Y-44802044D02*
X64303809Y-44863949D01*
X64303809Y-44863949D02*
X64365714Y-44925854D01*
X64365714Y-44925854D02*
X64427619Y-45049663D01*
X64427619Y-45049663D02*
X64427619Y-45173473D01*
X64427619Y-45173473D02*
X64365714Y-45359187D01*
X64365714Y-45359187D02*
X63622857Y-46102044D01*
X63622857Y-46102044D02*
X64427619Y-46102044D01*
X64860952Y-44802044D02*
X65727618Y-44802044D01*
X65727618Y-44802044D02*
X65170476Y-46102044D01*
X66099047Y-44802044D02*
X66903809Y-44802044D01*
X66903809Y-44802044D02*
X66470475Y-45297282D01*
X66470475Y-45297282D02*
X66656190Y-45297282D01*
X66656190Y-45297282D02*
X66779999Y-45359187D01*
X66779999Y-45359187D02*
X66841904Y-45421092D01*
X66841904Y-45421092D02*
X66903809Y-45544901D01*
X66903809Y-45544901D02*
X66903809Y-45854425D01*
X66903809Y-45854425D02*
X66841904Y-45978235D01*
X66841904Y-45978235D02*
X66779999Y-46040140D01*
X66779999Y-46040140D02*
X66656190Y-46102044D01*
X66656190Y-46102044D02*
X66284761Y-46102044D01*
X66284761Y-46102044D02*
X66160952Y-46040140D01*
X66160952Y-46040140D02*
X66099047Y-45978235D01*
X57848810Y-32230616D02*
X58467857Y-32230616D01*
X57725000Y-32602044D02*
X58158333Y-31302044D01*
X58158333Y-31302044D02*
X58591667Y-32602044D01*
X58839286Y-31302044D02*
X59582143Y-31302044D01*
X59210715Y-32602044D02*
X59210715Y-31302044D01*
X60448810Y-31921092D02*
X60015476Y-31921092D01*
X60015476Y-32602044D02*
X60015476Y-31302044D01*
X60015476Y-31302044D02*
X60634524Y-31302044D01*
X61067858Y-31425854D02*
X61129762Y-31363949D01*
X61129762Y-31363949D02*
X61253572Y-31302044D01*
X61253572Y-31302044D02*
X61563096Y-31302044D01*
X61563096Y-31302044D02*
X61686905Y-31363949D01*
X61686905Y-31363949D02*
X61748810Y-31425854D01*
X61748810Y-31425854D02*
X61810715Y-31549663D01*
X61810715Y-31549663D02*
X61810715Y-31673473D01*
X61810715Y-31673473D02*
X61748810Y-31859187D01*
X61748810Y-31859187D02*
X61005953Y-32602044D01*
X61005953Y-32602044D02*
X61810715Y-32602044D01*
X62615476Y-31302044D02*
X62739286Y-31302044D01*
X62739286Y-31302044D02*
X62863095Y-31363949D01*
X62863095Y-31363949D02*
X62925000Y-31425854D01*
X62925000Y-31425854D02*
X62986905Y-31549663D01*
X62986905Y-31549663D02*
X63048810Y-31797282D01*
X63048810Y-31797282D02*
X63048810Y-32106806D01*
X63048810Y-32106806D02*
X62986905Y-32354425D01*
X62986905Y-32354425D02*
X62925000Y-32478235D01*
X62925000Y-32478235D02*
X62863095Y-32540140D01*
X62863095Y-32540140D02*
X62739286Y-32602044D01*
X62739286Y-32602044D02*
X62615476Y-32602044D01*
X62615476Y-32602044D02*
X62491667Y-32540140D01*
X62491667Y-32540140D02*
X62429762Y-32478235D01*
X62429762Y-32478235D02*
X62367857Y-32354425D01*
X62367857Y-32354425D02*
X62305953Y-32106806D01*
X62305953Y-32106806D02*
X62305953Y-31797282D01*
X62305953Y-31797282D02*
X62367857Y-31549663D01*
X62367857Y-31549663D02*
X62429762Y-31425854D01*
X62429762Y-31425854D02*
X62491667Y-31363949D01*
X62491667Y-31363949D02*
X62615476Y-31302044D01*
X63420238Y-31302044D02*
X63853571Y-32602044D01*
X63853571Y-32602044D02*
X64286905Y-31302044D01*
X64905953Y-31859187D02*
X64782143Y-31797282D01*
X64782143Y-31797282D02*
X64720238Y-31735378D01*
X64720238Y-31735378D02*
X64658334Y-31611568D01*
X64658334Y-31611568D02*
X64658334Y-31549663D01*
X64658334Y-31549663D02*
X64720238Y-31425854D01*
X64720238Y-31425854D02*
X64782143Y-31363949D01*
X64782143Y-31363949D02*
X64905953Y-31302044D01*
X64905953Y-31302044D02*
X65153572Y-31302044D01*
X65153572Y-31302044D02*
X65277381Y-31363949D01*
X65277381Y-31363949D02*
X65339286Y-31425854D01*
X65339286Y-31425854D02*
X65401191Y-31549663D01*
X65401191Y-31549663D02*
X65401191Y-31611568D01*
X65401191Y-31611568D02*
X65339286Y-31735378D01*
X65339286Y-31735378D02*
X65277381Y-31797282D01*
X65277381Y-31797282D02*
X65153572Y-31859187D01*
X65153572Y-31859187D02*
X64905953Y-31859187D01*
X64905953Y-31859187D02*
X64782143Y-31921092D01*
X64782143Y-31921092D02*
X64720238Y-31982997D01*
X64720238Y-31982997D02*
X64658334Y-32106806D01*
X64658334Y-32106806D02*
X64658334Y-32354425D01*
X64658334Y-32354425D02*
X64720238Y-32478235D01*
X64720238Y-32478235D02*
X64782143Y-32540140D01*
X64782143Y-32540140D02*
X64905953Y-32602044D01*
X64905953Y-32602044D02*
X65153572Y-32602044D01*
X65153572Y-32602044D02*
X65277381Y-32540140D01*
X65277381Y-32540140D02*
X65339286Y-32478235D01*
X65339286Y-32478235D02*
X65401191Y-32354425D01*
X65401191Y-32354425D02*
X65401191Y-32106806D01*
X65401191Y-32106806D02*
X65339286Y-31982997D01*
X65339286Y-31982997D02*
X65277381Y-31921092D01*
X65277381Y-31921092D02*
X65153572Y-31859187D01*
X66391667Y-31921092D02*
X66577381Y-31982997D01*
X66577381Y-31982997D02*
X66639286Y-32044901D01*
X66639286Y-32044901D02*
X66701190Y-32168711D01*
X66701190Y-32168711D02*
X66701190Y-32354425D01*
X66701190Y-32354425D02*
X66639286Y-32478235D01*
X66639286Y-32478235D02*
X66577381Y-32540140D01*
X66577381Y-32540140D02*
X66453571Y-32602044D01*
X66453571Y-32602044D02*
X65958333Y-32602044D01*
X65958333Y-32602044D02*
X65958333Y-31302044D01*
X65958333Y-31302044D02*
X66391667Y-31302044D01*
X66391667Y-31302044D02*
X66515476Y-31363949D01*
X66515476Y-31363949D02*
X66577381Y-31425854D01*
X66577381Y-31425854D02*
X66639286Y-31549663D01*
X66639286Y-31549663D02*
X66639286Y-31673473D01*
X66639286Y-31673473D02*
X66577381Y-31797282D01*
X66577381Y-31797282D02*
X66515476Y-31859187D01*
X66515476Y-31859187D02*
X66391667Y-31921092D01*
X66391667Y-31921092D02*
X65958333Y-31921092D01*
D11*
X17142858Y-54478328D02*
X16428572Y-54478328D01*
X16428572Y-54478328D02*
X16428572Y-52978328D01*
X18500001Y-54478328D02*
X18000001Y-53764042D01*
X17642858Y-54478328D02*
X17642858Y-52978328D01*
X17642858Y-52978328D02*
X18214287Y-52978328D01*
X18214287Y-52978328D02*
X18357144Y-53049757D01*
X18357144Y-53049757D02*
X18428573Y-53121185D01*
X18428573Y-53121185D02*
X18500001Y-53264042D01*
X18500001Y-53264042D02*
X18500001Y-53478328D01*
X18500001Y-53478328D02*
X18428573Y-53621185D01*
X18428573Y-53621185D02*
X18357144Y-53692614D01*
X18357144Y-53692614D02*
X18214287Y-53764042D01*
X18214287Y-53764042D02*
X17642858Y-53764042D01*
X20000001Y-54478328D02*
X19500001Y-53764042D01*
X19142858Y-54478328D02*
X19142858Y-52978328D01*
X19142858Y-52978328D02*
X19714287Y-52978328D01*
X19714287Y-52978328D02*
X19857144Y-53049757D01*
X19857144Y-53049757D02*
X19928573Y-53121185D01*
X19928573Y-53121185D02*
X20000001Y-53264042D01*
X20000001Y-53264042D02*
X20000001Y-53478328D01*
X20000001Y-53478328D02*
X19928573Y-53621185D01*
X19928573Y-53621185D02*
X19857144Y-53692614D01*
X19857144Y-53692614D02*
X19714287Y-53764042D01*
X19714287Y-53764042D02*
X19142858Y-53764042D01*
X20857144Y-54478328D02*
X20714287Y-54406900D01*
X20714287Y-54406900D02*
X20642858Y-54335471D01*
X20642858Y-54335471D02*
X20571430Y-54192614D01*
X20571430Y-54192614D02*
X20571430Y-53764042D01*
X20571430Y-53764042D02*
X20642858Y-53621185D01*
X20642858Y-53621185D02*
X20714287Y-53549757D01*
X20714287Y-53549757D02*
X20857144Y-53478328D01*
X20857144Y-53478328D02*
X21071430Y-53478328D01*
X21071430Y-53478328D02*
X21214287Y-53549757D01*
X21214287Y-53549757D02*
X21285716Y-53621185D01*
X21285716Y-53621185D02*
X21357144Y-53764042D01*
X21357144Y-53764042D02*
X21357144Y-54192614D01*
X21357144Y-54192614D02*
X21285716Y-54335471D01*
X21285716Y-54335471D02*
X21214287Y-54406900D01*
X21214287Y-54406900D02*
X21071430Y-54478328D01*
X21071430Y-54478328D02*
X20857144Y-54478328D01*
X21928573Y-54406900D02*
X22071430Y-54478328D01*
X22071430Y-54478328D02*
X22357144Y-54478328D01*
X22357144Y-54478328D02*
X22500001Y-54406900D01*
X22500001Y-54406900D02*
X22571430Y-54264042D01*
X22571430Y-54264042D02*
X22571430Y-54192614D01*
X22571430Y-54192614D02*
X22500001Y-54049757D01*
X22500001Y-54049757D02*
X22357144Y-53978328D01*
X22357144Y-53978328D02*
X22142859Y-53978328D01*
X22142859Y-53978328D02*
X22000001Y-53906900D01*
X22000001Y-53906900D02*
X21928573Y-53764042D01*
X21928573Y-53764042D02*
X21928573Y-53692614D01*
X21928573Y-53692614D02*
X22000001Y-53549757D01*
X22000001Y-53549757D02*
X22142859Y-53478328D01*
X22142859Y-53478328D02*
X22357144Y-53478328D01*
X22357144Y-53478328D02*
X22500001Y-53549757D01*
X23857145Y-54478328D02*
X23857145Y-53692614D01*
X23857145Y-53692614D02*
X23785716Y-53549757D01*
X23785716Y-53549757D02*
X23642859Y-53478328D01*
X23642859Y-53478328D02*
X23357145Y-53478328D01*
X23357145Y-53478328D02*
X23214287Y-53549757D01*
X23857145Y-54406900D02*
X23714287Y-54478328D01*
X23714287Y-54478328D02*
X23357145Y-54478328D01*
X23357145Y-54478328D02*
X23214287Y-54406900D01*
X23214287Y-54406900D02*
X23142859Y-54264042D01*
X23142859Y-54264042D02*
X23142859Y-54121185D01*
X23142859Y-54121185D02*
X23214287Y-53978328D01*
X23214287Y-53978328D02*
X23357145Y-53906900D01*
X23357145Y-53906900D02*
X23714287Y-53906900D01*
X23714287Y-53906900D02*
X23857145Y-53835471D01*
X25642859Y-53121185D02*
X25714287Y-53049757D01*
X25714287Y-53049757D02*
X25857145Y-52978328D01*
X25857145Y-52978328D02*
X26214287Y-52978328D01*
X26214287Y-52978328D02*
X26357145Y-53049757D01*
X26357145Y-53049757D02*
X26428573Y-53121185D01*
X26428573Y-53121185D02*
X26500002Y-53264042D01*
X26500002Y-53264042D02*
X26500002Y-53406900D01*
X26500002Y-53406900D02*
X26428573Y-53621185D01*
X26428573Y-53621185D02*
X25571430Y-54478328D01*
X25571430Y-54478328D02*
X26500002Y-54478328D01*
X27428573Y-52978328D02*
X27571430Y-52978328D01*
X27571430Y-52978328D02*
X27714287Y-53049757D01*
X27714287Y-53049757D02*
X27785716Y-53121185D01*
X27785716Y-53121185D02*
X27857144Y-53264042D01*
X27857144Y-53264042D02*
X27928573Y-53549757D01*
X27928573Y-53549757D02*
X27928573Y-53906900D01*
X27928573Y-53906900D02*
X27857144Y-54192614D01*
X27857144Y-54192614D02*
X27785716Y-54335471D01*
X27785716Y-54335471D02*
X27714287Y-54406900D01*
X27714287Y-54406900D02*
X27571430Y-54478328D01*
X27571430Y-54478328D02*
X27428573Y-54478328D01*
X27428573Y-54478328D02*
X27285716Y-54406900D01*
X27285716Y-54406900D02*
X27214287Y-54335471D01*
X27214287Y-54335471D02*
X27142858Y-54192614D01*
X27142858Y-54192614D02*
X27071430Y-53906900D01*
X27071430Y-53906900D02*
X27071430Y-53549757D01*
X27071430Y-53549757D02*
X27142858Y-53264042D01*
X27142858Y-53264042D02*
X27214287Y-53121185D01*
X27214287Y-53121185D02*
X27285716Y-53049757D01*
X27285716Y-53049757D02*
X27428573Y-52978328D01*
X28500001Y-53121185D02*
X28571429Y-53049757D01*
X28571429Y-53049757D02*
X28714287Y-52978328D01*
X28714287Y-52978328D02*
X29071429Y-52978328D01*
X29071429Y-52978328D02*
X29214287Y-53049757D01*
X29214287Y-53049757D02*
X29285715Y-53121185D01*
X29285715Y-53121185D02*
X29357144Y-53264042D01*
X29357144Y-53264042D02*
X29357144Y-53406900D01*
X29357144Y-53406900D02*
X29285715Y-53621185D01*
X29285715Y-53621185D02*
X28428572Y-54478328D01*
X28428572Y-54478328D02*
X29357144Y-54478328D01*
X30642858Y-52978328D02*
X30357143Y-52978328D01*
X30357143Y-52978328D02*
X30214286Y-53049757D01*
X30214286Y-53049757D02*
X30142858Y-53121185D01*
X30142858Y-53121185D02*
X30000000Y-53335471D01*
X30000000Y-53335471D02*
X29928572Y-53621185D01*
X29928572Y-53621185D02*
X29928572Y-54192614D01*
X29928572Y-54192614D02*
X30000000Y-54335471D01*
X30000000Y-54335471D02*
X30071429Y-54406900D01*
X30071429Y-54406900D02*
X30214286Y-54478328D01*
X30214286Y-54478328D02*
X30500000Y-54478328D01*
X30500000Y-54478328D02*
X30642858Y-54406900D01*
X30642858Y-54406900D02*
X30714286Y-54335471D01*
X30714286Y-54335471D02*
X30785715Y-54192614D01*
X30785715Y-54192614D02*
X30785715Y-53835471D01*
X30785715Y-53835471D02*
X30714286Y-53692614D01*
X30714286Y-53692614D02*
X30642858Y-53621185D01*
X30642858Y-53621185D02*
X30500000Y-53549757D01*
X30500000Y-53549757D02*
X30214286Y-53549757D01*
X30214286Y-53549757D02*
X30071429Y-53621185D01*
X30071429Y-53621185D02*
X30000000Y-53692614D01*
X30000000Y-53692614D02*
X29928572Y-53835471D01*
X32428571Y-53478328D02*
X32785714Y-54478328D01*
X32785714Y-54478328D02*
X33142857Y-53478328D01*
X34500000Y-54478328D02*
X33642857Y-54478328D01*
X34071428Y-54478328D02*
X34071428Y-52978328D01*
X34071428Y-52978328D02*
X33928571Y-53192614D01*
X33928571Y-53192614D02*
X33785714Y-53335471D01*
X33785714Y-53335471D02*
X33642857Y-53406900D01*
X35142856Y-54335471D02*
X35214285Y-54406900D01*
X35214285Y-54406900D02*
X35142856Y-54478328D01*
X35142856Y-54478328D02*
X35071428Y-54406900D01*
X35071428Y-54406900D02*
X35142856Y-54335471D01*
X35142856Y-54335471D02*
X35142856Y-54478328D01*
X36142857Y-52978328D02*
X36285714Y-52978328D01*
X36285714Y-52978328D02*
X36428571Y-53049757D01*
X36428571Y-53049757D02*
X36500000Y-53121185D01*
X36500000Y-53121185D02*
X36571428Y-53264042D01*
X36571428Y-53264042D02*
X36642857Y-53549757D01*
X36642857Y-53549757D02*
X36642857Y-53906900D01*
X36642857Y-53906900D02*
X36571428Y-54192614D01*
X36571428Y-54192614D02*
X36500000Y-54335471D01*
X36500000Y-54335471D02*
X36428571Y-54406900D01*
X36428571Y-54406900D02*
X36285714Y-54478328D01*
X36285714Y-54478328D02*
X36142857Y-54478328D01*
X36142857Y-54478328D02*
X36000000Y-54406900D01*
X36000000Y-54406900D02*
X35928571Y-54335471D01*
X35928571Y-54335471D02*
X35857142Y-54192614D01*
X35857142Y-54192614D02*
X35785714Y-53906900D01*
X35785714Y-53906900D02*
X35785714Y-53549757D01*
X35785714Y-53549757D02*
X35857142Y-53264042D01*
X35857142Y-53264042D02*
X35928571Y-53121185D01*
X35928571Y-53121185D02*
X36000000Y-53049757D01*
X36000000Y-53049757D02*
X36142857Y-52978328D01*
D12*
X14871428Y-49494881D02*
X16128571Y-49494881D01*
X15500000Y-51694881D02*
X15500000Y-49494881D01*
X16861904Y-51694881D02*
X16861904Y-49494881D01*
X18119047Y-51694881D02*
X17176190Y-50437739D01*
X18119047Y-49494881D02*
X16861904Y-50752024D01*
X19061904Y-51694881D02*
X19061904Y-49494881D01*
X19061904Y-49494881D02*
X19795237Y-51066310D01*
X19795237Y-51066310D02*
X20528571Y-49494881D01*
X20528571Y-49494881D02*
X20528571Y-51694881D01*
X21576190Y-50542500D02*
X22309523Y-50542500D01*
X22623809Y-51694881D02*
X21576190Y-51694881D01*
X21576190Y-51694881D02*
X21576190Y-49494881D01*
X21576190Y-49494881D02*
X22623809Y-49494881D01*
X23566666Y-51694881D02*
X23566666Y-49494881D01*
X23566666Y-49494881D02*
X24299999Y-51066310D01*
X24299999Y-51066310D02*
X25033333Y-49494881D01*
X25033333Y-49494881D02*
X25033333Y-51694881D01*
X26080952Y-50856786D02*
X27757143Y-50856786D01*
X29957143Y-51694881D02*
X28700000Y-51694881D01*
X29328572Y-51694881D02*
X29328572Y-49494881D01*
X29328572Y-49494881D02*
X29119048Y-49809167D01*
X29119048Y-49809167D02*
X28909524Y-50018691D01*
X28909524Y-50018691D02*
X28700000Y-50123453D01*
X30795238Y-49704405D02*
X30900000Y-49599643D01*
X30900000Y-49599643D02*
X31109524Y-49494881D01*
X31109524Y-49494881D02*
X31633333Y-49494881D01*
X31633333Y-49494881D02*
X31842857Y-49599643D01*
X31842857Y-49599643D02*
X31947619Y-49704405D01*
X31947619Y-49704405D02*
X32052381Y-49913929D01*
X32052381Y-49913929D02*
X32052381Y-50123453D01*
X32052381Y-50123453D02*
X31947619Y-50437739D01*
X31947619Y-50437739D02*
X30690476Y-51694881D01*
X30690476Y-51694881D02*
X32052381Y-51694881D01*
X33309524Y-50437739D02*
X33100000Y-50332977D01*
X33100000Y-50332977D02*
X32995238Y-50228215D01*
X32995238Y-50228215D02*
X32890476Y-50018691D01*
X32890476Y-50018691D02*
X32890476Y-49913929D01*
X32890476Y-49913929D02*
X32995238Y-49704405D01*
X32995238Y-49704405D02*
X33100000Y-49599643D01*
X33100000Y-49599643D02*
X33309524Y-49494881D01*
X33309524Y-49494881D02*
X33728571Y-49494881D01*
X33728571Y-49494881D02*
X33938095Y-49599643D01*
X33938095Y-49599643D02*
X34042857Y-49704405D01*
X34042857Y-49704405D02*
X34147619Y-49913929D01*
X34147619Y-49913929D02*
X34147619Y-50018691D01*
X34147619Y-50018691D02*
X34042857Y-50228215D01*
X34042857Y-50228215D02*
X33938095Y-50332977D01*
X33938095Y-50332977D02*
X33728571Y-50437739D01*
X33728571Y-50437739D02*
X33309524Y-50437739D01*
X33309524Y-50437739D02*
X33100000Y-50542500D01*
X33100000Y-50542500D02*
X32995238Y-50647262D01*
X32995238Y-50647262D02*
X32890476Y-50856786D01*
X32890476Y-50856786D02*
X32890476Y-51275834D01*
X32890476Y-51275834D02*
X32995238Y-51485358D01*
X32995238Y-51485358D02*
X33100000Y-51590120D01*
X33100000Y-51590120D02*
X33309524Y-51694881D01*
X33309524Y-51694881D02*
X33728571Y-51694881D01*
X33728571Y-51694881D02*
X33938095Y-51590120D01*
X33938095Y-51590120D02*
X34042857Y-51485358D01*
X34042857Y-51485358D02*
X34147619Y-51275834D01*
X34147619Y-51275834D02*
X34147619Y-50856786D01*
X34147619Y-50856786D02*
X34042857Y-50647262D01*
X34042857Y-50647262D02*
X33938095Y-50542500D01*
X33938095Y-50542500D02*
X33728571Y-50437739D01*
X36766666Y-51694881D02*
X36766666Y-49494881D01*
X37814285Y-51694881D02*
X37814285Y-49494881D01*
D13*
X344742Y-36734285D02*
X1316171Y-36734285D01*
X1316171Y-36734285D02*
X1430457Y-36677142D01*
X1430457Y-36677142D02*
X1487600Y-36620000D01*
X1487600Y-36620000D02*
X1544742Y-36505714D01*
X1544742Y-36505714D02*
X1544742Y-36277142D01*
X1544742Y-36277142D02*
X1487600Y-36162857D01*
X1487600Y-36162857D02*
X1430457Y-36105714D01*
X1430457Y-36105714D02*
X1316171Y-36048571D01*
X1316171Y-36048571D02*
X344742Y-36048571D01*
X344742Y-35591428D02*
X344742Y-34848571D01*
X344742Y-34848571D02*
X801885Y-35248571D01*
X801885Y-35248571D02*
X801885Y-35077142D01*
X801885Y-35077142D02*
X859028Y-34962857D01*
X859028Y-34962857D02*
X916171Y-34905714D01*
X916171Y-34905714D02*
X1030457Y-34848571D01*
X1030457Y-34848571D02*
X1316171Y-34848571D01*
X1316171Y-34848571D02*
X1430457Y-34905714D01*
X1430457Y-34905714D02*
X1487600Y-34962857D01*
X1487600Y-34962857D02*
X1544742Y-35077142D01*
X1544742Y-35077142D02*
X1544742Y-35419999D01*
X1544742Y-35419999D02*
X1487600Y-35534285D01*
X1487600Y-35534285D02*
X1430457Y-35591428D01*
X57344742Y-7999999D02*
X58201885Y-7999999D01*
X58201885Y-7999999D02*
X58373314Y-8057142D01*
X58373314Y-8057142D02*
X58487600Y-8171428D01*
X58487600Y-8171428D02*
X58544742Y-8342856D01*
X58544742Y-8342856D02*
X58544742Y-8457142D01*
X58544742Y-7428570D02*
X57344742Y-7428570D01*
X57344742Y-7428570D02*
X57344742Y-6971427D01*
X57344742Y-6971427D02*
X57401885Y-6857142D01*
X57401885Y-6857142D02*
X57459028Y-6799999D01*
X57459028Y-6799999D02*
X57573314Y-6742856D01*
X57573314Y-6742856D02*
X57744742Y-6742856D01*
X57744742Y-6742856D02*
X57859028Y-6799999D01*
X57859028Y-6799999D02*
X57916171Y-6857142D01*
X57916171Y-6857142D02*
X57973314Y-6971427D01*
X57973314Y-6971427D02*
X57973314Y-7428570D01*
X57459028Y-6285713D02*
X57401885Y-6228570D01*
X57401885Y-6228570D02*
X57344742Y-6114285D01*
X57344742Y-6114285D02*
X57344742Y-5828570D01*
X57344742Y-5828570D02*
X57401885Y-5714285D01*
X57401885Y-5714285D02*
X57459028Y-5657142D01*
X57459028Y-5657142D02*
X57573314Y-5599999D01*
X57573314Y-5599999D02*
X57687600Y-5599999D01*
X57687600Y-5599999D02*
X57859028Y-5657142D01*
X57859028Y-5657142D02*
X58544742Y-6342856D01*
X58544742Y-6342856D02*
X58544742Y-5599999D01*
X57485714Y-19844742D02*
X58171429Y-19844742D01*
X57828571Y-21044742D02*
X57828571Y-19844742D01*
X58571429Y-21044742D02*
X58571429Y-19844742D01*
X58571429Y-19844742D02*
X59028572Y-19844742D01*
X59028572Y-19844742D02*
X59142857Y-19901885D01*
X59142857Y-19901885D02*
X59200000Y-19959028D01*
X59200000Y-19959028D02*
X59257143Y-20073314D01*
X59257143Y-20073314D02*
X59257143Y-20244742D01*
X59257143Y-20244742D02*
X59200000Y-20359028D01*
X59200000Y-20359028D02*
X59142857Y-20416171D01*
X59142857Y-20416171D02*
X59028572Y-20473314D01*
X59028572Y-20473314D02*
X58571429Y-20473314D01*
X59714286Y-19959028D02*
X59771429Y-19901885D01*
X59771429Y-19901885D02*
X59885715Y-19844742D01*
X59885715Y-19844742D02*
X60171429Y-19844742D01*
X60171429Y-19844742D02*
X60285715Y-19901885D01*
X60285715Y-19901885D02*
X60342857Y-19959028D01*
X60342857Y-19959028D02*
X60400000Y-20073314D01*
X60400000Y-20073314D02*
X60400000Y-20187600D01*
X60400000Y-20187600D02*
X60342857Y-20359028D01*
X60342857Y-20359028D02*
X59657143Y-21044742D01*
X59657143Y-21044742D02*
X60400000Y-21044742D01*
X48844742Y-7499999D02*
X49701885Y-7499999D01*
X49701885Y-7499999D02*
X49873314Y-7557142D01*
X49873314Y-7557142D02*
X49987600Y-7671428D01*
X49987600Y-7671428D02*
X50044742Y-7842856D01*
X50044742Y-7842856D02*
X50044742Y-7957142D01*
X50044742Y-6928570D02*
X48844742Y-6928570D01*
X48844742Y-6928570D02*
X48844742Y-6471427D01*
X48844742Y-6471427D02*
X48901885Y-6357142D01*
X48901885Y-6357142D02*
X48959028Y-6299999D01*
X48959028Y-6299999D02*
X49073314Y-6242856D01*
X49073314Y-6242856D02*
X49244742Y-6242856D01*
X49244742Y-6242856D02*
X49359028Y-6299999D01*
X49359028Y-6299999D02*
X49416171Y-6357142D01*
X49416171Y-6357142D02*
X49473314Y-6471427D01*
X49473314Y-6471427D02*
X49473314Y-6928570D01*
X50044742Y-5099999D02*
X50044742Y-5785713D01*
X50044742Y-5442856D02*
X48844742Y-5442856D01*
X48844742Y-5442856D02*
X49016171Y-5557142D01*
X49016171Y-5557142D02*
X49130457Y-5671427D01*
X49130457Y-5671427D02*
X49187600Y-5785713D01*
X60300000Y-55930457D02*
X60242857Y-55987600D01*
X60242857Y-55987600D02*
X60071429Y-56044742D01*
X60071429Y-56044742D02*
X59957143Y-56044742D01*
X59957143Y-56044742D02*
X59785714Y-55987600D01*
X59785714Y-55987600D02*
X59671429Y-55873314D01*
X59671429Y-55873314D02*
X59614286Y-55759028D01*
X59614286Y-55759028D02*
X59557143Y-55530457D01*
X59557143Y-55530457D02*
X59557143Y-55359028D01*
X59557143Y-55359028D02*
X59614286Y-55130457D01*
X59614286Y-55130457D02*
X59671429Y-55016171D01*
X59671429Y-55016171D02*
X59785714Y-54901885D01*
X59785714Y-54901885D02*
X59957143Y-54844742D01*
X59957143Y-54844742D02*
X60071429Y-54844742D01*
X60071429Y-54844742D02*
X60242857Y-54901885D01*
X60242857Y-54901885D02*
X60300000Y-54959028D01*
X61385714Y-54844742D02*
X60814286Y-54844742D01*
X60814286Y-54844742D02*
X60757143Y-55416171D01*
X60757143Y-55416171D02*
X60814286Y-55359028D01*
X60814286Y-55359028D02*
X60928572Y-55301885D01*
X60928572Y-55301885D02*
X61214286Y-55301885D01*
X61214286Y-55301885D02*
X61328572Y-55359028D01*
X61328572Y-55359028D02*
X61385714Y-55416171D01*
X61385714Y-55416171D02*
X61442857Y-55530457D01*
X61442857Y-55530457D02*
X61442857Y-55816171D01*
X61442857Y-55816171D02*
X61385714Y-55930457D01*
X61385714Y-55930457D02*
X61328572Y-55987600D01*
X61328572Y-55987600D02*
X61214286Y-56044742D01*
X61214286Y-56044742D02*
X60928572Y-56044742D01*
X60928572Y-56044742D02*
X60814286Y-55987600D01*
X60814286Y-55987600D02*
X60757143Y-55930457D01*
X19430457Y-24199999D02*
X19487600Y-24257142D01*
X19487600Y-24257142D02*
X19544742Y-24428570D01*
X19544742Y-24428570D02*
X19544742Y-24542856D01*
X19544742Y-24542856D02*
X19487600Y-24714285D01*
X19487600Y-24714285D02*
X19373314Y-24828570D01*
X19373314Y-24828570D02*
X19259028Y-24885713D01*
X19259028Y-24885713D02*
X19030457Y-24942856D01*
X19030457Y-24942856D02*
X18859028Y-24942856D01*
X18859028Y-24942856D02*
X18630457Y-24885713D01*
X18630457Y-24885713D02*
X18516171Y-24828570D01*
X18516171Y-24828570D02*
X18401885Y-24714285D01*
X18401885Y-24714285D02*
X18344742Y-24542856D01*
X18344742Y-24542856D02*
X18344742Y-24428570D01*
X18344742Y-24428570D02*
X18401885Y-24257142D01*
X18401885Y-24257142D02*
X18459028Y-24199999D01*
X18744742Y-23171428D02*
X19544742Y-23171428D01*
X18287600Y-23457142D02*
X19144742Y-23742856D01*
X19144742Y-23742856D02*
X19144742Y-22999999D01*
X47814742Y-46424285D02*
X48786171Y-46424285D01*
X48786171Y-46424285D02*
X48900457Y-46367142D01*
X48900457Y-46367142D02*
X48957600Y-46310000D01*
X48957600Y-46310000D02*
X49014742Y-46195714D01*
X49014742Y-46195714D02*
X49014742Y-45967142D01*
X49014742Y-45967142D02*
X48957600Y-45852857D01*
X48957600Y-45852857D02*
X48900457Y-45795714D01*
X48900457Y-45795714D02*
X48786171Y-45738571D01*
X48786171Y-45738571D02*
X47814742Y-45738571D01*
X47929028Y-45224285D02*
X47871885Y-45167142D01*
X47871885Y-45167142D02*
X47814742Y-45052857D01*
X47814742Y-45052857D02*
X47814742Y-44767142D01*
X47814742Y-44767142D02*
X47871885Y-44652857D01*
X47871885Y-44652857D02*
X47929028Y-44595714D01*
X47929028Y-44595714D02*
X48043314Y-44538571D01*
X48043314Y-44538571D02*
X48157600Y-44538571D01*
X48157600Y-44538571D02*
X48329028Y-44595714D01*
X48329028Y-44595714D02*
X49014742Y-45281428D01*
X49014742Y-45281428D02*
X49014742Y-44538571D01*
X62800000Y-17544742D02*
X62400000Y-16973314D01*
X62114286Y-17544742D02*
X62114286Y-16344742D01*
X62114286Y-16344742D02*
X62571429Y-16344742D01*
X62571429Y-16344742D02*
X62685714Y-16401885D01*
X62685714Y-16401885D02*
X62742857Y-16459028D01*
X62742857Y-16459028D02*
X62800000Y-16573314D01*
X62800000Y-16573314D02*
X62800000Y-16744742D01*
X62800000Y-16744742D02*
X62742857Y-16859028D01*
X62742857Y-16859028D02*
X62685714Y-16916171D01*
X62685714Y-16916171D02*
X62571429Y-16973314D01*
X62571429Y-16973314D02*
X62114286Y-16973314D01*
X63200000Y-16344742D02*
X63942857Y-16344742D01*
X63942857Y-16344742D02*
X63542857Y-16801885D01*
X63542857Y-16801885D02*
X63714286Y-16801885D01*
X63714286Y-16801885D02*
X63828572Y-16859028D01*
X63828572Y-16859028D02*
X63885714Y-16916171D01*
X63885714Y-16916171D02*
X63942857Y-17030457D01*
X63942857Y-17030457D02*
X63942857Y-17316171D01*
X63942857Y-17316171D02*
X63885714Y-17430457D01*
X63885714Y-17430457D02*
X63828572Y-17487600D01*
X63828572Y-17487600D02*
X63714286Y-17544742D01*
X63714286Y-17544742D02*
X63371429Y-17544742D01*
X63371429Y-17544742D02*
X63257143Y-17487600D01*
X63257143Y-17487600D02*
X63200000Y-17430457D01*
X51485714Y-16744742D02*
X52171429Y-16744742D01*
X51828571Y-17944742D02*
X51828571Y-16744742D01*
X52571429Y-17944742D02*
X52571429Y-16744742D01*
X52571429Y-16744742D02*
X53028572Y-16744742D01*
X53028572Y-16744742D02*
X53142857Y-16801885D01*
X53142857Y-16801885D02*
X53200000Y-16859028D01*
X53200000Y-16859028D02*
X53257143Y-16973314D01*
X53257143Y-16973314D02*
X53257143Y-17144742D01*
X53257143Y-17144742D02*
X53200000Y-17259028D01*
X53200000Y-17259028D02*
X53142857Y-17316171D01*
X53142857Y-17316171D02*
X53028572Y-17373314D01*
X53028572Y-17373314D02*
X52571429Y-17373314D01*
X54400000Y-17944742D02*
X53714286Y-17944742D01*
X54057143Y-17944742D02*
X54057143Y-16744742D01*
X54057143Y-16744742D02*
X53942857Y-16916171D01*
X53942857Y-16916171D02*
X53828572Y-17030457D01*
X53828572Y-17030457D02*
X53714286Y-17087600D01*
X37044742Y-18614285D02*
X38016171Y-18614285D01*
X38016171Y-18614285D02*
X38130457Y-18557142D01*
X38130457Y-18557142D02*
X38187600Y-18500000D01*
X38187600Y-18500000D02*
X38244742Y-18385714D01*
X38244742Y-18385714D02*
X38244742Y-18157142D01*
X38244742Y-18157142D02*
X38187600Y-18042857D01*
X38187600Y-18042857D02*
X38130457Y-17985714D01*
X38130457Y-17985714D02*
X38016171Y-17928571D01*
X38016171Y-17928571D02*
X37044742Y-17928571D01*
X37444742Y-16842857D02*
X38244742Y-16842857D01*
X36987600Y-17128571D02*
X37844742Y-17414285D01*
X37844742Y-17414285D02*
X37844742Y-16671428D01*
X49600000Y-55930457D02*
X49542857Y-55987600D01*
X49542857Y-55987600D02*
X49371429Y-56044742D01*
X49371429Y-56044742D02*
X49257143Y-56044742D01*
X49257143Y-56044742D02*
X49085714Y-55987600D01*
X49085714Y-55987600D02*
X48971429Y-55873314D01*
X48971429Y-55873314D02*
X48914286Y-55759028D01*
X48914286Y-55759028D02*
X48857143Y-55530457D01*
X48857143Y-55530457D02*
X48857143Y-55359028D01*
X48857143Y-55359028D02*
X48914286Y-55130457D01*
X48914286Y-55130457D02*
X48971429Y-55016171D01*
X48971429Y-55016171D02*
X49085714Y-54901885D01*
X49085714Y-54901885D02*
X49257143Y-54844742D01*
X49257143Y-54844742D02*
X49371429Y-54844742D01*
X49371429Y-54844742D02*
X49542857Y-54901885D01*
X49542857Y-54901885D02*
X49600000Y-54959028D01*
X50057143Y-54959028D02*
X50114286Y-54901885D01*
X50114286Y-54901885D02*
X50228572Y-54844742D01*
X50228572Y-54844742D02*
X50514286Y-54844742D01*
X50514286Y-54844742D02*
X50628572Y-54901885D01*
X50628572Y-54901885D02*
X50685714Y-54959028D01*
X50685714Y-54959028D02*
X50742857Y-55073314D01*
X50742857Y-55073314D02*
X50742857Y-55187600D01*
X50742857Y-55187600D02*
X50685714Y-55359028D01*
X50685714Y-55359028D02*
X50000000Y-56044742D01*
X50000000Y-56044742D02*
X50742857Y-56044742D01*
X57300000Y-17544742D02*
X56900000Y-16973314D01*
X56614286Y-17544742D02*
X56614286Y-16344742D01*
X56614286Y-16344742D02*
X57071429Y-16344742D01*
X57071429Y-16344742D02*
X57185714Y-16401885D01*
X57185714Y-16401885D02*
X57242857Y-16459028D01*
X57242857Y-16459028D02*
X57300000Y-16573314D01*
X57300000Y-16573314D02*
X57300000Y-16744742D01*
X57300000Y-16744742D02*
X57242857Y-16859028D01*
X57242857Y-16859028D02*
X57185714Y-16916171D01*
X57185714Y-16916171D02*
X57071429Y-16973314D01*
X57071429Y-16973314D02*
X56614286Y-16973314D01*
X58385714Y-16344742D02*
X57814286Y-16344742D01*
X57814286Y-16344742D02*
X57757143Y-16916171D01*
X57757143Y-16916171D02*
X57814286Y-16859028D01*
X57814286Y-16859028D02*
X57928572Y-16801885D01*
X57928572Y-16801885D02*
X58214286Y-16801885D01*
X58214286Y-16801885D02*
X58328572Y-16859028D01*
X58328572Y-16859028D02*
X58385714Y-16916171D01*
X58385714Y-16916171D02*
X58442857Y-17030457D01*
X58442857Y-17030457D02*
X58442857Y-17316171D01*
X58442857Y-17316171D02*
X58385714Y-17430457D01*
X58385714Y-17430457D02*
X58328572Y-17487600D01*
X58328572Y-17487600D02*
X58214286Y-17544742D01*
X58214286Y-17544742D02*
X57928572Y-17544742D01*
X57928572Y-17544742D02*
X57814286Y-17487600D01*
X57814286Y-17487600D02*
X57757143Y-17430457D01*
X72200000Y-54730457D02*
X72142857Y-54787600D01*
X72142857Y-54787600D02*
X71971429Y-54844742D01*
X71971429Y-54844742D02*
X71857143Y-54844742D01*
X71857143Y-54844742D02*
X71685714Y-54787600D01*
X71685714Y-54787600D02*
X71571429Y-54673314D01*
X71571429Y-54673314D02*
X71514286Y-54559028D01*
X71514286Y-54559028D02*
X71457143Y-54330457D01*
X71457143Y-54330457D02*
X71457143Y-54159028D01*
X71457143Y-54159028D02*
X71514286Y-53930457D01*
X71514286Y-53930457D02*
X71571429Y-53816171D01*
X71571429Y-53816171D02*
X71685714Y-53701885D01*
X71685714Y-53701885D02*
X71857143Y-53644742D01*
X71857143Y-53644742D02*
X71971429Y-53644742D01*
X71971429Y-53644742D02*
X72142857Y-53701885D01*
X72142857Y-53701885D02*
X72200000Y-53759028D01*
X73228572Y-53644742D02*
X73000000Y-53644742D01*
X73000000Y-53644742D02*
X72885714Y-53701885D01*
X72885714Y-53701885D02*
X72828572Y-53759028D01*
X72828572Y-53759028D02*
X72714286Y-53930457D01*
X72714286Y-53930457D02*
X72657143Y-54159028D01*
X72657143Y-54159028D02*
X72657143Y-54616171D01*
X72657143Y-54616171D02*
X72714286Y-54730457D01*
X72714286Y-54730457D02*
X72771429Y-54787600D01*
X72771429Y-54787600D02*
X72885714Y-54844742D01*
X72885714Y-54844742D02*
X73114286Y-54844742D01*
X73114286Y-54844742D02*
X73228572Y-54787600D01*
X73228572Y-54787600D02*
X73285714Y-54730457D01*
X73285714Y-54730457D02*
X73342857Y-54616171D01*
X73342857Y-54616171D02*
X73342857Y-54330457D01*
X73342857Y-54330457D02*
X73285714Y-54216171D01*
X73285714Y-54216171D02*
X73228572Y-54159028D01*
X73228572Y-54159028D02*
X73114286Y-54101885D01*
X73114286Y-54101885D02*
X72885714Y-54101885D01*
X72885714Y-54101885D02*
X72771429Y-54159028D01*
X72771429Y-54159028D02*
X72714286Y-54216171D01*
X72714286Y-54216171D02*
X72657143Y-54330457D01*
X43114286Y-20044742D02*
X43114286Y-18844742D01*
X43114286Y-18844742D02*
X43400000Y-18844742D01*
X43400000Y-18844742D02*
X43571429Y-18901885D01*
X43571429Y-18901885D02*
X43685714Y-19016171D01*
X43685714Y-19016171D02*
X43742857Y-19130457D01*
X43742857Y-19130457D02*
X43800000Y-19359028D01*
X43800000Y-19359028D02*
X43800000Y-19530457D01*
X43800000Y-19530457D02*
X43742857Y-19759028D01*
X43742857Y-19759028D02*
X43685714Y-19873314D01*
X43685714Y-19873314D02*
X43571429Y-19987600D01*
X43571429Y-19987600D02*
X43400000Y-20044742D01*
X43400000Y-20044742D02*
X43114286Y-20044742D01*
X44942857Y-20044742D02*
X44257143Y-20044742D01*
X44600000Y-20044742D02*
X44600000Y-18844742D01*
X44600000Y-18844742D02*
X44485714Y-19016171D01*
X44485714Y-19016171D02*
X44371429Y-19130457D01*
X44371429Y-19130457D02*
X44257143Y-19187600D01*
X45314742Y-32924285D02*
X46286171Y-32924285D01*
X46286171Y-32924285D02*
X46400457Y-32867142D01*
X46400457Y-32867142D02*
X46457600Y-32810000D01*
X46457600Y-32810000D02*
X46514742Y-32695714D01*
X46514742Y-32695714D02*
X46514742Y-32467142D01*
X46514742Y-32467142D02*
X46457600Y-32352857D01*
X46457600Y-32352857D02*
X46400457Y-32295714D01*
X46400457Y-32295714D02*
X46286171Y-32238571D01*
X46286171Y-32238571D02*
X45314742Y-32238571D01*
X46514742Y-31038571D02*
X46514742Y-31724285D01*
X46514742Y-31381428D02*
X45314742Y-31381428D01*
X45314742Y-31381428D02*
X45486171Y-31495714D01*
X45486171Y-31495714D02*
X45600457Y-31609999D01*
X45600457Y-31609999D02*
X45657600Y-31724285D01*
X55300000Y-23930457D02*
X55242857Y-23987600D01*
X55242857Y-23987600D02*
X55071429Y-24044742D01*
X55071429Y-24044742D02*
X54957143Y-24044742D01*
X54957143Y-24044742D02*
X54785714Y-23987600D01*
X54785714Y-23987600D02*
X54671429Y-23873314D01*
X54671429Y-23873314D02*
X54614286Y-23759028D01*
X54614286Y-23759028D02*
X54557143Y-23530457D01*
X54557143Y-23530457D02*
X54557143Y-23359028D01*
X54557143Y-23359028D02*
X54614286Y-23130457D01*
X54614286Y-23130457D02*
X54671429Y-23016171D01*
X54671429Y-23016171D02*
X54785714Y-22901885D01*
X54785714Y-22901885D02*
X54957143Y-22844742D01*
X54957143Y-22844742D02*
X55071429Y-22844742D01*
X55071429Y-22844742D02*
X55242857Y-22901885D01*
X55242857Y-22901885D02*
X55300000Y-22959028D01*
X56442857Y-24044742D02*
X55757143Y-24044742D01*
X56100000Y-24044742D02*
X56100000Y-22844742D01*
X56100000Y-22844742D02*
X55985714Y-23016171D01*
X55985714Y-23016171D02*
X55871429Y-23130457D01*
X55871429Y-23130457D02*
X55757143Y-23187600D01*
X1930457Y-24199999D02*
X1987600Y-24257142D01*
X1987600Y-24257142D02*
X2044742Y-24428570D01*
X2044742Y-24428570D02*
X2044742Y-24542856D01*
X2044742Y-24542856D02*
X1987600Y-24714285D01*
X1987600Y-24714285D02*
X1873314Y-24828570D01*
X1873314Y-24828570D02*
X1759028Y-24885713D01*
X1759028Y-24885713D02*
X1530457Y-24942856D01*
X1530457Y-24942856D02*
X1359028Y-24942856D01*
X1359028Y-24942856D02*
X1130457Y-24885713D01*
X1130457Y-24885713D02*
X1016171Y-24828570D01*
X1016171Y-24828570D02*
X901885Y-24714285D01*
X901885Y-24714285D02*
X844742Y-24542856D01*
X844742Y-24542856D02*
X844742Y-24428570D01*
X844742Y-24428570D02*
X901885Y-24257142D01*
X901885Y-24257142D02*
X959028Y-24199999D01*
X844742Y-23799999D02*
X844742Y-23057142D01*
X844742Y-23057142D02*
X1301885Y-23457142D01*
X1301885Y-23457142D02*
X1301885Y-23285713D01*
X1301885Y-23285713D02*
X1359028Y-23171428D01*
X1359028Y-23171428D02*
X1416171Y-23114285D01*
X1416171Y-23114285D02*
X1530457Y-23057142D01*
X1530457Y-23057142D02*
X1816171Y-23057142D01*
X1816171Y-23057142D02*
X1930457Y-23114285D01*
X1930457Y-23114285D02*
X1987600Y-23171428D01*
X1987600Y-23171428D02*
X2044742Y-23285713D01*
X2044742Y-23285713D02*
X2044742Y-23628570D01*
X2044742Y-23628570D02*
X1987600Y-23742856D01*
X1987600Y-23742856D02*
X1930457Y-23799999D01*
X3800000Y-50544742D02*
X3400000Y-49973314D01*
X3114286Y-50544742D02*
X3114286Y-49344742D01*
X3114286Y-49344742D02*
X3571429Y-49344742D01*
X3571429Y-49344742D02*
X3685714Y-49401885D01*
X3685714Y-49401885D02*
X3742857Y-49459028D01*
X3742857Y-49459028D02*
X3800000Y-49573314D01*
X3800000Y-49573314D02*
X3800000Y-49744742D01*
X3800000Y-49744742D02*
X3742857Y-49859028D01*
X3742857Y-49859028D02*
X3685714Y-49916171D01*
X3685714Y-49916171D02*
X3571429Y-49973314D01*
X3571429Y-49973314D02*
X3114286Y-49973314D01*
X4828572Y-49744742D02*
X4828572Y-50544742D01*
X4542857Y-49287600D02*
X4257143Y-50144742D01*
X4257143Y-50144742D02*
X5000000Y-50144742D01*
X43300000Y-15044742D02*
X42900000Y-14473314D01*
X42614286Y-15044742D02*
X42614286Y-13844742D01*
X42614286Y-13844742D02*
X43071429Y-13844742D01*
X43071429Y-13844742D02*
X43185714Y-13901885D01*
X43185714Y-13901885D02*
X43242857Y-13959028D01*
X43242857Y-13959028D02*
X43300000Y-14073314D01*
X43300000Y-14073314D02*
X43300000Y-14244742D01*
X43300000Y-14244742D02*
X43242857Y-14359028D01*
X43242857Y-14359028D02*
X43185714Y-14416171D01*
X43185714Y-14416171D02*
X43071429Y-14473314D01*
X43071429Y-14473314D02*
X42614286Y-14473314D01*
X43757143Y-13959028D02*
X43814286Y-13901885D01*
X43814286Y-13901885D02*
X43928572Y-13844742D01*
X43928572Y-13844742D02*
X44214286Y-13844742D01*
X44214286Y-13844742D02*
X44328572Y-13901885D01*
X44328572Y-13901885D02*
X44385714Y-13959028D01*
X44385714Y-13959028D02*
X44442857Y-14073314D01*
X44442857Y-14073314D02*
X44442857Y-14187600D01*
X44442857Y-14187600D02*
X44385714Y-14359028D01*
X44385714Y-14359028D02*
X43700000Y-15044742D01*
X43700000Y-15044742D02*
X44442857Y-15044742D01*
X65844742Y-6499999D02*
X66701885Y-6499999D01*
X66701885Y-6499999D02*
X66873314Y-6557142D01*
X66873314Y-6557142D02*
X66987600Y-6671428D01*
X66987600Y-6671428D02*
X67044742Y-6842856D01*
X67044742Y-6842856D02*
X67044742Y-6957142D01*
X67044742Y-5928570D02*
X65844742Y-5928570D01*
X65844742Y-5928570D02*
X65844742Y-5471427D01*
X65844742Y-5471427D02*
X65901885Y-5357142D01*
X65901885Y-5357142D02*
X65959028Y-5299999D01*
X65959028Y-5299999D02*
X66073314Y-5242856D01*
X66073314Y-5242856D02*
X66244742Y-5242856D01*
X66244742Y-5242856D02*
X66359028Y-5299999D01*
X66359028Y-5299999D02*
X66416171Y-5357142D01*
X66416171Y-5357142D02*
X66473314Y-5471427D01*
X66473314Y-5471427D02*
X66473314Y-5928570D01*
X65844742Y-4842856D02*
X65844742Y-4099999D01*
X65844742Y-4099999D02*
X66301885Y-4499999D01*
X66301885Y-4499999D02*
X66301885Y-4328570D01*
X66301885Y-4328570D02*
X66359028Y-4214285D01*
X66359028Y-4214285D02*
X66416171Y-4157142D01*
X66416171Y-4157142D02*
X66530457Y-4099999D01*
X66530457Y-4099999D02*
X66816171Y-4099999D01*
X66816171Y-4099999D02*
X66930457Y-4157142D01*
X66930457Y-4157142D02*
X66987600Y-4214285D01*
X66987600Y-4214285D02*
X67044742Y-4328570D01*
X67044742Y-4328570D02*
X67044742Y-4671427D01*
X67044742Y-4671427D02*
X66987600Y-4785713D01*
X66987600Y-4785713D02*
X66930457Y-4842856D01*
X585714Y-57459028D02*
X642857Y-57401885D01*
X642857Y-57401885D02*
X757143Y-57344742D01*
X757143Y-57344742D02*
X1042857Y-57344742D01*
X1042857Y-57344742D02*
X1157143Y-57401885D01*
X1157143Y-57401885D02*
X1214285Y-57459028D01*
X1214285Y-57459028D02*
X1271428Y-57573314D01*
X1271428Y-57573314D02*
X1271428Y-57687600D01*
X1271428Y-57687600D02*
X1214285Y-57859028D01*
X1214285Y-57859028D02*
X528571Y-58544742D01*
X528571Y-58544742D02*
X1271428Y-58544742D01*
X1842857Y-58544742D02*
X2071428Y-58544742D01*
X2071428Y-58544742D02*
X2185714Y-58487600D01*
X2185714Y-58487600D02*
X2242857Y-58430457D01*
X2242857Y-58430457D02*
X2357142Y-58259028D01*
X2357142Y-58259028D02*
X2414285Y-58030457D01*
X2414285Y-58030457D02*
X2414285Y-57573314D01*
X2414285Y-57573314D02*
X2357142Y-57459028D01*
X2357142Y-57459028D02*
X2300000Y-57401885D01*
X2300000Y-57401885D02*
X2185714Y-57344742D01*
X2185714Y-57344742D02*
X1957142Y-57344742D01*
X1957142Y-57344742D02*
X1842857Y-57401885D01*
X1842857Y-57401885D02*
X1785714Y-57459028D01*
X1785714Y-57459028D02*
X1728571Y-57573314D01*
X1728571Y-57573314D02*
X1728571Y-57859028D01*
X1728571Y-57859028D02*
X1785714Y-57973314D01*
X1785714Y-57973314D02*
X1842857Y-58030457D01*
X1842857Y-58030457D02*
X1957142Y-58087600D01*
X1957142Y-58087600D02*
X2185714Y-58087600D01*
X2185714Y-58087600D02*
X2300000Y-58030457D01*
X2300000Y-58030457D02*
X2357142Y-57973314D01*
X2357142Y-57973314D02*
X2414285Y-57859028D01*
X585714Y-62459028D02*
X642857Y-62401885D01*
X642857Y-62401885D02*
X757143Y-62344742D01*
X757143Y-62344742D02*
X1042857Y-62344742D01*
X1042857Y-62344742D02*
X1157143Y-62401885D01*
X1157143Y-62401885D02*
X1214285Y-62459028D01*
X1214285Y-62459028D02*
X1271428Y-62573314D01*
X1271428Y-62573314D02*
X1271428Y-62687600D01*
X1271428Y-62687600D02*
X1214285Y-62859028D01*
X1214285Y-62859028D02*
X528571Y-63544742D01*
X528571Y-63544742D02*
X1271428Y-63544742D01*
X1957142Y-62859028D02*
X1842857Y-62801885D01*
X1842857Y-62801885D02*
X1785714Y-62744742D01*
X1785714Y-62744742D02*
X1728571Y-62630457D01*
X1728571Y-62630457D02*
X1728571Y-62573314D01*
X1728571Y-62573314D02*
X1785714Y-62459028D01*
X1785714Y-62459028D02*
X1842857Y-62401885D01*
X1842857Y-62401885D02*
X1957142Y-62344742D01*
X1957142Y-62344742D02*
X2185714Y-62344742D01*
X2185714Y-62344742D02*
X2300000Y-62401885D01*
X2300000Y-62401885D02*
X2357142Y-62459028D01*
X2357142Y-62459028D02*
X2414285Y-62573314D01*
X2414285Y-62573314D02*
X2414285Y-62630457D01*
X2414285Y-62630457D02*
X2357142Y-62744742D01*
X2357142Y-62744742D02*
X2300000Y-62801885D01*
X2300000Y-62801885D02*
X2185714Y-62859028D01*
X2185714Y-62859028D02*
X1957142Y-62859028D01*
X1957142Y-62859028D02*
X1842857Y-62916171D01*
X1842857Y-62916171D02*
X1785714Y-62973314D01*
X1785714Y-62973314D02*
X1728571Y-63087600D01*
X1728571Y-63087600D02*
X1728571Y-63316171D01*
X1728571Y-63316171D02*
X1785714Y-63430457D01*
X1785714Y-63430457D02*
X1842857Y-63487600D01*
X1842857Y-63487600D02*
X1957142Y-63544742D01*
X1957142Y-63544742D02*
X2185714Y-63544742D01*
X2185714Y-63544742D02*
X2300000Y-63487600D01*
X2300000Y-63487600D02*
X2357142Y-63430457D01*
X2357142Y-63430457D02*
X2414285Y-63316171D01*
X2414285Y-63316171D02*
X2414285Y-63087600D01*
X2414285Y-63087600D02*
X2357142Y-62973314D01*
X2357142Y-62973314D02*
X2300000Y-62916171D01*
X2300000Y-62916171D02*
X2185714Y-62859028D01*
X76842857Y-63544742D02*
X76157143Y-63544742D01*
X76500000Y-63544742D02*
X76500000Y-62344742D01*
X76500000Y-62344742D02*
X76385714Y-62516171D01*
X76385714Y-62516171D02*
X76271429Y-62630457D01*
X76271429Y-62630457D02*
X76157143Y-62687600D01*
X76714285Y-57344742D02*
X76142857Y-57344742D01*
X76142857Y-57344742D02*
X76085714Y-57916171D01*
X76085714Y-57916171D02*
X76142857Y-57859028D01*
X76142857Y-57859028D02*
X76257143Y-57801885D01*
X76257143Y-57801885D02*
X76542857Y-57801885D01*
X76542857Y-57801885D02*
X76657143Y-57859028D01*
X76657143Y-57859028D02*
X76714285Y-57916171D01*
X76714285Y-57916171D02*
X76771428Y-58030457D01*
X76771428Y-58030457D02*
X76771428Y-58316171D01*
X76771428Y-58316171D02*
X76714285Y-58430457D01*
X76714285Y-58430457D02*
X76657143Y-58487600D01*
X76657143Y-58487600D02*
X76542857Y-58544742D01*
X76542857Y-58544742D02*
X76257143Y-58544742D01*
X76257143Y-58544742D02*
X76142857Y-58487600D01*
X76142857Y-58487600D02*
X76085714Y-58430457D01*
X77800000Y-57344742D02*
X77571428Y-57344742D01*
X77571428Y-57344742D02*
X77457142Y-57401885D01*
X77457142Y-57401885D02*
X77400000Y-57459028D01*
X77400000Y-57459028D02*
X77285714Y-57630457D01*
X77285714Y-57630457D02*
X77228571Y-57859028D01*
X77228571Y-57859028D02*
X77228571Y-58316171D01*
X77228571Y-58316171D02*
X77285714Y-58430457D01*
X77285714Y-58430457D02*
X77342857Y-58487600D01*
X77342857Y-58487600D02*
X77457142Y-58544742D01*
X77457142Y-58544742D02*
X77685714Y-58544742D01*
X77685714Y-58544742D02*
X77800000Y-58487600D01*
X77800000Y-58487600D02*
X77857142Y-58430457D01*
X77857142Y-58430457D02*
X77914285Y-58316171D01*
X77914285Y-58316171D02*
X77914285Y-58030457D01*
X77914285Y-58030457D02*
X77857142Y-57916171D01*
X77857142Y-57916171D02*
X77800000Y-57859028D01*
X77800000Y-57859028D02*
X77685714Y-57801885D01*
X77685714Y-57801885D02*
X77457142Y-57801885D01*
X77457142Y-57801885D02*
X77342857Y-57859028D01*
X77342857Y-57859028D02*
X77285714Y-57916171D01*
X77285714Y-57916171D02*
X77228571Y-58030457D01*
%TO.C,U3*%
D14*
X1970000Y-29760000D02*
X1970000Y-34820000D01*
X1970000Y-36820000D02*
X1970000Y-41880000D01*
X1970000Y-41880000D02*
X42730000Y-41880000D01*
X42730000Y-29760000D02*
X1970000Y-29760000D01*
X42730000Y-41880000D02*
X42730000Y-29760000D01*
X1910000Y-26760000D02*
X42790000Y-26760000D01*
X42790000Y-44880000D01*
X1910000Y-44880000D01*
X1910000Y-26760000D01*
X1970000Y-34820000D02*
G75*
G02*
X1970000Y-36820000I0J-1000000D01*
G01*
%TO.C,JP2*%
X53620000Y-2620000D02*
X55000000Y-2620000D01*
X53620000Y-4000000D02*
X53620000Y-2620000D01*
X53620000Y-5270000D02*
X53620000Y-10460000D01*
X53620000Y-5270000D02*
X56380000Y-5270000D01*
X53620000Y-10460000D02*
X56380000Y-10460000D01*
X56380000Y-5270000D02*
X56380000Y-10460000D01*
%TO.C,TP2*%
X56950000Y-19500000D02*
G75*
G02*
X55050000Y-19500000I-950000J0D01*
G01*
X55050000Y-19500000D02*
G75*
G02*
X56950000Y-19500000I950000J0D01*
G01*
%TO.C,JP1*%
X45120000Y-2620000D02*
X46500000Y-2620000D01*
X45120000Y-4000000D02*
X45120000Y-2620000D01*
X45120000Y-5270000D02*
X45120000Y-10460000D01*
X45120000Y-5270000D02*
X47880000Y-5270000D01*
X45120000Y-10460000D02*
X47880000Y-10460000D01*
X47880000Y-5270000D02*
X47880000Y-10460000D01*
%TO.C,C5*%
X57880000Y-51630000D02*
X63120000Y-51630000D01*
X57880000Y-51967000D02*
X57880000Y-51630000D01*
X57880000Y-54370000D02*
X57880000Y-54033000D01*
X63120000Y-51630000D02*
X63120000Y-51967000D01*
X63120000Y-54033000D02*
X63120000Y-54370000D01*
X63120000Y-54370000D02*
X57880000Y-54370000D01*
%TO.C,C4*%
X11880000Y-22630000D02*
X17120000Y-22630000D01*
X11880000Y-22967000D02*
X11880000Y-22630000D01*
X11880000Y-25370000D02*
X11880000Y-25033000D01*
X17120000Y-22630000D02*
X17120000Y-22967000D01*
X17120000Y-25033000D02*
X17120000Y-25370000D01*
X17120000Y-25370000D02*
X11880000Y-25370000D01*
%TO.C,U2*%
X49470000Y-43260000D02*
X49470000Y-44510000D01*
X49470000Y-46510000D02*
X49470000Y-47760000D01*
X49470000Y-47760000D02*
X74990000Y-47760000D01*
X74990000Y-43260000D02*
X49470000Y-43260000D01*
X74990000Y-47760000D02*
X74990000Y-43260000D01*
X49410000Y-40260000D02*
X75050000Y-40260000D01*
X75050000Y-50760000D01*
X49410000Y-50760000D01*
X49410000Y-40260000D01*
X49470000Y-44510000D02*
G75*
G02*
X49470000Y-46510000I0J-1000000D01*
G01*
%TO.C,R3*%
X64370000Y-14500000D02*
X64440000Y-14500000D01*
X64370000Y-14500000D02*
G75*
G02*
X61630000Y-14500000I-1370000J0D01*
G01*
X61630000Y-14500000D02*
G75*
G02*
X64370000Y-14500000I1370000J0D01*
G01*
%TO.C,TP1*%
X52950000Y-19500000D02*
G75*
G02*
X51050000Y-19500000I-950000J0D01*
G01*
X51050000Y-19500000D02*
G75*
G02*
X52950000Y-19500000I950000J0D01*
G01*
%TO.C,U4*%
X470000Y-6760000D02*
X470000Y-11820000D01*
X470000Y-13820000D02*
X470000Y-18880000D01*
X470000Y-18880000D02*
X36150000Y-18880000D01*
X36150000Y-6760000D02*
X470000Y-6760000D01*
X36150000Y-18880000D02*
X36150000Y-6760000D01*
X410000Y-3760000D02*
X36210000Y-3760000D01*
X36210000Y-21880000D01*
X410000Y-21880000D01*
X410000Y-3760000D01*
X470000Y-11820000D02*
G75*
G02*
X470000Y-13820000I0J-1000000D01*
G01*
%TO.C,C2*%
X47180000Y-51630000D02*
X52420000Y-51630000D01*
X47180000Y-51967000D02*
X47180000Y-51630000D01*
X47180000Y-54370000D02*
X47180000Y-54033000D01*
X52420000Y-51630000D02*
X52420000Y-51967000D01*
X52420000Y-54033000D02*
X52420000Y-54370000D01*
X52420000Y-54370000D02*
X47180000Y-54370000D01*
%TO.C,R5*%
X58870000Y-14500000D02*
X58940000Y-14500000D01*
X58870000Y-14500000D02*
G75*
G02*
X56130000Y-14500000I-1370000J0D01*
G01*
X56130000Y-14500000D02*
G75*
G02*
X58870000Y-14500000I1370000J0D01*
G01*
%TO.C,C6*%
X65395225Y-52825000D02*
X65895225Y-52825000D01*
X65645225Y-52575000D02*
X65645225Y-53075000D01*
X68200000Y-51720000D02*
X68200000Y-53260000D01*
X68200000Y-55340000D02*
X68200000Y-56880000D01*
X68240000Y-51720000D02*
X68240000Y-53260000D01*
X68240000Y-55340000D02*
X68240000Y-56880000D01*
X68280000Y-51721000D02*
X68280000Y-53260000D01*
X68280000Y-55340000D02*
X68280000Y-56879000D01*
X68320000Y-51723000D02*
X68320000Y-53260000D01*
X68320000Y-55340000D02*
X68320000Y-56877000D01*
X68360000Y-51725000D02*
X68360000Y-53260000D01*
X68360000Y-55340000D02*
X68360000Y-56875000D01*
X68400000Y-51728000D02*
X68400000Y-53260000D01*
X68400000Y-55340000D02*
X68400000Y-56872000D01*
X68440000Y-51731000D02*
X68440000Y-53260000D01*
X68440000Y-55340000D02*
X68440000Y-56869000D01*
X68480000Y-51735000D02*
X68480000Y-53260000D01*
X68480000Y-55340000D02*
X68480000Y-56865000D01*
X68520000Y-51740000D02*
X68520000Y-53260000D01*
X68520000Y-55340000D02*
X68520000Y-56860000D01*
X68560000Y-51745000D02*
X68560000Y-53260000D01*
X68560000Y-55340000D02*
X68560000Y-56855000D01*
X68600000Y-51751000D02*
X68600000Y-53260000D01*
X68600000Y-55340000D02*
X68600000Y-56849000D01*
X68640000Y-51757000D02*
X68640000Y-53260000D01*
X68640000Y-55340000D02*
X68640000Y-56843000D01*
X68680000Y-51764000D02*
X68680000Y-53260000D01*
X68680000Y-55340000D02*
X68680000Y-56836000D01*
X68720000Y-51772000D02*
X68720000Y-53260000D01*
X68720000Y-55340000D02*
X68720000Y-56828000D01*
X68760000Y-51781000D02*
X68760000Y-53260000D01*
X68760000Y-55340000D02*
X68760000Y-56819000D01*
X68800000Y-51790000D02*
X68800000Y-53260000D01*
X68800000Y-55340000D02*
X68800000Y-56810000D01*
X68840000Y-51799000D02*
X68840000Y-53260000D01*
X68840000Y-55340000D02*
X68840000Y-56801000D01*
X68880000Y-51810000D02*
X68880000Y-53260000D01*
X68880000Y-55340000D02*
X68880000Y-56790000D01*
X68920000Y-51821000D02*
X68920000Y-53260000D01*
X68920000Y-55340000D02*
X68920000Y-56779000D01*
X68960000Y-51833000D02*
X68960000Y-53260000D01*
X68960000Y-55340000D02*
X68960000Y-56767000D01*
X69000000Y-51845000D02*
X69000000Y-53260000D01*
X69000000Y-55340000D02*
X69000000Y-56755000D01*
X69040000Y-51858000D02*
X69040000Y-53260000D01*
X69040000Y-55340000D02*
X69040000Y-56742000D01*
X69080000Y-51872000D02*
X69080000Y-53260000D01*
X69080000Y-55340000D02*
X69080000Y-56728000D01*
X69120000Y-51887000D02*
X69120000Y-53260000D01*
X69120000Y-55340000D02*
X69120000Y-56713000D01*
X69160000Y-51902000D02*
X69160000Y-53260000D01*
X69160000Y-55340000D02*
X69160000Y-56698000D01*
X69200000Y-51918000D02*
X69200000Y-53260000D01*
X69200000Y-55340000D02*
X69200000Y-56682000D01*
X69240000Y-51935000D02*
X69240000Y-53260000D01*
X69240000Y-55340000D02*
X69240000Y-56665000D01*
X69280000Y-51953000D02*
X69280000Y-53260000D01*
X69280000Y-55340000D02*
X69280000Y-56647000D01*
X69320000Y-51971000D02*
X69320000Y-53260000D01*
X69320000Y-55340000D02*
X69320000Y-56629000D01*
X69360000Y-51991000D02*
X69360000Y-53260000D01*
X69360000Y-55340000D02*
X69360000Y-56609000D01*
X69400000Y-52011000D02*
X69400000Y-53260000D01*
X69400000Y-55340000D02*
X69400000Y-56589000D01*
X69440000Y-52032000D02*
X69440000Y-53260000D01*
X69440000Y-55340000D02*
X69440000Y-56568000D01*
X69480000Y-52054000D02*
X69480000Y-53260000D01*
X69480000Y-55340000D02*
X69480000Y-56546000D01*
X69520000Y-52077000D02*
X69520000Y-53260000D01*
X69520000Y-55340000D02*
X69520000Y-56523000D01*
X69560000Y-52101000D02*
X69560000Y-53260000D01*
X69560000Y-55340000D02*
X69560000Y-56499000D01*
X69600000Y-52125000D02*
X69600000Y-53260000D01*
X69600000Y-55340000D02*
X69600000Y-56475000D01*
X69640000Y-52151000D02*
X69640000Y-53260000D01*
X69640000Y-55340000D02*
X69640000Y-56449000D01*
X69680000Y-52178000D02*
X69680000Y-53260000D01*
X69680000Y-55340000D02*
X69680000Y-56422000D01*
X69720000Y-52206000D02*
X69720000Y-53260000D01*
X69720000Y-55340000D02*
X69720000Y-56394000D01*
X69760000Y-52235000D02*
X69760000Y-53260000D01*
X69760000Y-55340000D02*
X69760000Y-56365000D01*
X69800000Y-52265000D02*
X69800000Y-53260000D01*
X69800000Y-55340000D02*
X69800000Y-56335000D01*
X69840000Y-52297000D02*
X69840000Y-53260000D01*
X69840000Y-55340000D02*
X69840000Y-56303000D01*
X69880000Y-52330000D02*
X69880000Y-53260000D01*
X69880000Y-55340000D02*
X69880000Y-56270000D01*
X69920000Y-52364000D02*
X69920000Y-53260000D01*
X69920000Y-55340000D02*
X69920000Y-56236000D01*
X69960000Y-52399000D02*
X69960000Y-53260000D01*
X69960000Y-55340000D02*
X69960000Y-56201000D01*
X70000000Y-52436000D02*
X70000000Y-53260000D01*
X70000000Y-55340000D02*
X70000000Y-56164000D01*
X70040000Y-52475000D02*
X70040000Y-53260000D01*
X70040000Y-55340000D02*
X70040000Y-56125000D01*
X70080000Y-52515000D02*
X70080000Y-53260000D01*
X70080000Y-55340000D02*
X70080000Y-56085000D01*
X70120000Y-52557000D02*
X70120000Y-53260000D01*
X70120000Y-55340000D02*
X70120000Y-56043000D01*
X70160000Y-52601000D02*
X70160000Y-53260000D01*
X70160000Y-55340000D02*
X70160000Y-55999000D01*
X70200000Y-52648000D02*
X70200000Y-53260000D01*
X70200000Y-55340000D02*
X70200000Y-55952000D01*
X70240000Y-52696000D02*
X70240000Y-55904000D01*
X70280000Y-52747000D02*
X70280000Y-55853000D01*
X70320000Y-52801000D02*
X70320000Y-55799000D01*
X70360000Y-52857000D02*
X70360000Y-55743000D01*
X70400000Y-52917000D02*
X70400000Y-55683000D01*
X70440000Y-52981000D02*
X70440000Y-55619000D01*
X70480000Y-53049000D02*
X70480000Y-55551000D01*
X70520000Y-53123000D02*
X70520000Y-55477000D01*
X70560000Y-53202000D02*
X70560000Y-55398000D01*
X70600000Y-53289000D02*
X70600000Y-55311000D01*
X70640000Y-53386000D02*
X70640000Y-55214000D01*
X70680000Y-53495000D02*
X70680000Y-55105000D01*
X70720000Y-53623000D02*
X70720000Y-54977000D01*
X70760000Y-53783000D02*
X70760000Y-54817000D01*
X70800000Y-54017000D02*
X70800000Y-54583000D01*
X70820000Y-54300000D02*
G75*
G02*
X65580000Y-54300000I-2620000J0D01*
G01*
X65580000Y-54300000D02*
G75*
G02*
X70820000Y-54300000I2620000J0D01*
G01*
%TO.C,D1*%
X46210000Y-18264000D02*
X46210000Y-18420000D01*
X46210000Y-20580000D02*
X46210000Y-20736000D01*
X46210000Y-18264484D02*
G75*
G02*
X49441437Y-18420000I1560000J-1235516D01*
G01*
X46729039Y-18420000D02*
G75*
G02*
X48810961Y-18420000I1040961J-1080000D01*
G01*
X48810961Y-20580000D02*
G75*
G02*
X46729039Y-20580000I-1040961J1080000D01*
G01*
X49441437Y-20580000D02*
G75*
G02*
X46210000Y-20735516I-1671437J1080000D01*
G01*
%TO.C,U1*%
X46970000Y-29760000D02*
X46970000Y-31010000D01*
X46970000Y-33010000D02*
X46970000Y-34260000D01*
X46970000Y-34260000D02*
X77570000Y-34260000D01*
X77570000Y-29760000D02*
X46970000Y-29760000D01*
X77570000Y-34260000D02*
X77570000Y-29760000D01*
X46910000Y-26760000D02*
X77630000Y-26760000D01*
X77630000Y-37260000D01*
X46910000Y-37260000D01*
X46910000Y-26760000D01*
X46970000Y-31010000D02*
G75*
G02*
X46970000Y-33010000I0J-1000000D01*
G01*
%TO.C,C1*%
X48180000Y-22130000D02*
X53420000Y-22130000D01*
X48180000Y-22467000D02*
X48180000Y-22130000D01*
X48180000Y-24870000D02*
X48180000Y-24533000D01*
X53420000Y-22130000D02*
X53420000Y-22467000D01*
X53420000Y-24533000D02*
X53420000Y-24870000D01*
X53420000Y-24870000D02*
X48180000Y-24870000D01*
%TO.C,C3*%
X3180000Y-22630000D02*
X8420000Y-22630000D01*
X3180000Y-22967000D02*
X3180000Y-22630000D01*
X3180000Y-25370000D02*
X3180000Y-25033000D01*
X8420000Y-22630000D02*
X8420000Y-22967000D01*
X8420000Y-25033000D02*
X8420000Y-25370000D01*
X8420000Y-25370000D02*
X3180000Y-25370000D01*
%TO.C,R4*%
X5370000Y-52500000D02*
X5440000Y-52500000D01*
X5370000Y-52500000D02*
G75*
G02*
X2630000Y-52500000I-1370000J0D01*
G01*
X2630000Y-52500000D02*
G75*
G02*
X5370000Y-52500000I1370000J0D01*
G01*
%TO.C,R2*%
X47870000Y-14500000D02*
X47940000Y-14500000D01*
X47870000Y-14500000D02*
G75*
G02*
X45130000Y-14500000I-1370000J0D01*
G01*
X45130000Y-14500000D02*
G75*
G02*
X47870000Y-14500000I1370000J0D01*
G01*
%TO.C,JP3*%
X62120000Y-2620000D02*
X63500000Y-2620000D01*
X62120000Y-4000000D02*
X62120000Y-2620000D01*
X62120000Y-5270000D02*
X62120000Y-7920000D01*
X62120000Y-5270000D02*
X64880000Y-5270000D01*
X62120000Y-7920000D02*
X64880000Y-7920000D01*
X64880000Y-5270000D02*
X64880000Y-7920000D01*
%TO.C,J1*%
D15*
X2880000Y-65730000D02*
X2880000Y-55730000D01*
X63500000Y-55730000D02*
X63500000Y-65730000D01*
X75860000Y-55730000D02*
X75860000Y-65730000D01*
X75860000Y-65730000D02*
X2880000Y-65730000D01*
%TD*%
M02*
