%TF.GenerationSoftware,KiCad,Pcbnew,10.0.4*%
%TF.CreationDate,2026-07-26T22:00:24-03:00*%
%TF.ProjectId,tkmem128,746b6d65-6d31-4323-982e-6b696361645f,rev?*%
%TF.SameCoordinates,Original*%
%TF.FileFunction,Legend,Bot*%
%TF.FilePolarity,Positive*%
%FSLAX46Y46*%
G04 Gerber Fmt 4.6, Leading zero omitted, Abs format (unit mm)*
G04 Created by KiCad (PCBNEW 10.0.4) date 2026-07-26 22:00:24*
%MOMM*%
%LPD*%
G01*
G04 APERTURE LIST*
G04 Aperture macros list*
%AMRoundRect*
0 Rectangle with rounded corners*
0 $1 Rounding radius*
0 $2 $3 $4 $5 $6 $7 $8 $9 X,Y pos of 4 corners*
0 Add a 4 corners polygon primitive as box body*
4,1,4,$2,$3,$4,$5,$6,$7,$8,$9,$2,$3,0*
0 Add four circle primitives for the rounded corners*
1,1,$1+$1,$2,$3*
1,1,$1+$1,$4,$5*
1,1,$1+$1,$6,$7*
1,1,$1+$1,$8,$9*
0 Add four rect primitives between the rounded corners*
20,1,$1+$1,$2,$3,$4,$5,0*
20,1,$1+$1,$4,$5,$6,$7,0*
20,1,$1+$1,$6,$7,$8,$9,0*
20,1,$1+$1,$8,$9,$2,$3,0*%
G04 Aperture macros list end*
%ADD10C,0.150000*%
%ADD11RoundRect,0.250000X-0.950000X-0.550000X0.950000X-0.550000X0.950000X0.550000X-0.950000X0.550000X0*%
%ADD12O,2.400000X1.600000*%
%ADD13R,1.700000X1.700000*%
%ADD14C,1.700000*%
%ADD15C,1.500000*%
%ADD16C,1.600000*%
%ADD17RoundRect,0.250000X-0.550000X-0.550000X0.550000X-0.550000X0.550000X0.550000X-0.550000X0.550000X0*%
%ADD18R,1.800000X1.800000*%
%ADD19C,1.800000*%
G04 APERTURE END LIST*
D10*
X57827142Y-19885427D02*
X57827142Y-19035427D01*
X57827142Y-19035427D02*
X57341427Y-19885427D01*
X57341427Y-19885427D02*
X57341427Y-19035427D01*
X56977142Y-19642570D02*
X56572380Y-19642570D01*
X57058094Y-19885427D02*
X56774761Y-19035427D01*
X56774761Y-19035427D02*
X56491427Y-19885427D01*
X56046190Y-19035427D02*
X55884285Y-19035427D01*
X55884285Y-19035427D02*
X55803333Y-19075903D01*
X55803333Y-19075903D02*
X55722380Y-19156855D01*
X55722380Y-19156855D02*
X55681904Y-19318760D01*
X55681904Y-19318760D02*
X55681904Y-19602093D01*
X55681904Y-19602093D02*
X55722380Y-19763998D01*
X55722380Y-19763998D02*
X55803333Y-19844951D01*
X55803333Y-19844951D02*
X55884285Y-19885427D01*
X55884285Y-19885427D02*
X56046190Y-19885427D01*
X56046190Y-19885427D02*
X56127142Y-19844951D01*
X56127142Y-19844951D02*
X56208095Y-19763998D01*
X56208095Y-19763998D02*
X56248571Y-19602093D01*
X56248571Y-19602093D02*
X56248571Y-19318760D01*
X56248571Y-19318760D02*
X56208095Y-19156855D01*
X56208095Y-19156855D02*
X56127142Y-19075903D01*
X56127142Y-19075903D02*
X56046190Y-19035427D01*
X54791428Y-19318760D02*
X54467619Y-19318760D01*
X54670000Y-19885427D02*
X54670000Y-19156855D01*
X54670000Y-19156855D02*
X54629523Y-19075903D01*
X54629523Y-19075903D02*
X54548571Y-19035427D01*
X54548571Y-19035427D02*
X54467619Y-19035427D01*
X53860476Y-19844951D02*
X53941428Y-19885427D01*
X53941428Y-19885427D02*
X54103333Y-19885427D01*
X54103333Y-19885427D02*
X54184286Y-19844951D01*
X54184286Y-19844951D02*
X54224762Y-19763998D01*
X54224762Y-19763998D02*
X54224762Y-19440189D01*
X54224762Y-19440189D02*
X54184286Y-19359236D01*
X54184286Y-19359236D02*
X54103333Y-19318760D01*
X54103333Y-19318760D02*
X53941428Y-19318760D01*
X53941428Y-19318760D02*
X53860476Y-19359236D01*
X53860476Y-19359236D02*
X53820000Y-19440189D01*
X53820000Y-19440189D02*
X53820000Y-19521141D01*
X53820000Y-19521141D02*
X54224762Y-19602093D01*
X53091429Y-19844951D02*
X53172381Y-19885427D01*
X53172381Y-19885427D02*
X53334286Y-19885427D01*
X53334286Y-19885427D02*
X53415238Y-19844951D01*
X53415238Y-19844951D02*
X53455715Y-19804474D01*
X53455715Y-19804474D02*
X53496191Y-19723522D01*
X53496191Y-19723522D02*
X53496191Y-19480665D01*
X53496191Y-19480665D02*
X53455715Y-19399712D01*
X53455715Y-19399712D02*
X53415238Y-19359236D01*
X53415238Y-19359236D02*
X53334286Y-19318760D01*
X53334286Y-19318760D02*
X53172381Y-19318760D01*
X53172381Y-19318760D02*
X53091429Y-19359236D01*
X52727144Y-19885427D02*
X52727144Y-19035427D01*
X52362858Y-19885427D02*
X52362858Y-19440189D01*
X52362858Y-19440189D02*
X52403334Y-19359236D01*
X52403334Y-19359236D02*
X52484286Y-19318760D01*
X52484286Y-19318760D02*
X52605715Y-19318760D01*
X52605715Y-19318760D02*
X52686667Y-19359236D01*
X52686667Y-19359236D02*
X52727144Y-19399712D01*
X51634286Y-19844951D02*
X51715238Y-19885427D01*
X51715238Y-19885427D02*
X51877143Y-19885427D01*
X51877143Y-19885427D02*
X51958096Y-19844951D01*
X51958096Y-19844951D02*
X51998572Y-19763998D01*
X51998572Y-19763998D02*
X51998572Y-19440189D01*
X51998572Y-19440189D02*
X51958096Y-19359236D01*
X51958096Y-19359236D02*
X51877143Y-19318760D01*
X51877143Y-19318760D02*
X51715238Y-19318760D01*
X51715238Y-19318760D02*
X51634286Y-19359236D01*
X51634286Y-19359236D02*
X51593810Y-19440189D01*
X51593810Y-19440189D02*
X51593810Y-19521141D01*
X51593810Y-19521141D02*
X51998572Y-19602093D01*
X50339048Y-19035427D02*
X50339048Y-19642570D01*
X50339048Y-19642570D02*
X50379525Y-19763998D01*
X50379525Y-19763998D02*
X50460477Y-19844951D01*
X50460477Y-19844951D02*
X50581906Y-19885427D01*
X50581906Y-19885427D02*
X50662858Y-19885427D01*
X49934287Y-19885427D02*
X49934287Y-19035427D01*
X49934287Y-19035427D02*
X49610477Y-19035427D01*
X49610477Y-19035427D02*
X49529525Y-19075903D01*
X49529525Y-19075903D02*
X49489048Y-19116379D01*
X49489048Y-19116379D02*
X49448572Y-19197331D01*
X49448572Y-19197331D02*
X49448572Y-19318760D01*
X49448572Y-19318760D02*
X49489048Y-19399712D01*
X49489048Y-19399712D02*
X49529525Y-19440189D01*
X49529525Y-19440189D02*
X49610477Y-19480665D01*
X49610477Y-19480665D02*
X49934287Y-19480665D01*
X48720001Y-19318760D02*
X48720001Y-19885427D01*
X48922382Y-18994951D02*
X49124763Y-19602093D01*
X49124763Y-19602093D02*
X48598572Y-19602093D01*
X47303334Y-19844951D02*
X47384286Y-19885427D01*
X47384286Y-19885427D02*
X47546191Y-19885427D01*
X47546191Y-19885427D02*
X47627144Y-19844951D01*
X47627144Y-19844951D02*
X47667620Y-19763998D01*
X47667620Y-19763998D02*
X47667620Y-19440189D01*
X47667620Y-19440189D02*
X47627144Y-19359236D01*
X47627144Y-19359236D02*
X47546191Y-19318760D01*
X47546191Y-19318760D02*
X47384286Y-19318760D01*
X47384286Y-19318760D02*
X47303334Y-19359236D01*
X47303334Y-19359236D02*
X47262858Y-19440189D01*
X47262858Y-19440189D02*
X47262858Y-19521141D01*
X47262858Y-19521141D02*
X47667620Y-19602093D01*
X46898573Y-19885427D02*
X46898573Y-19318760D01*
X46898573Y-19399712D02*
X46858096Y-19359236D01*
X46858096Y-19359236D02*
X46777144Y-19318760D01*
X46777144Y-19318760D02*
X46655715Y-19318760D01*
X46655715Y-19318760D02*
X46574763Y-19359236D01*
X46574763Y-19359236D02*
X46534287Y-19440189D01*
X46534287Y-19440189D02*
X46534287Y-19885427D01*
X46534287Y-19440189D02*
X46493811Y-19359236D01*
X46493811Y-19359236D02*
X46412858Y-19318760D01*
X46412858Y-19318760D02*
X46291430Y-19318760D01*
X46291430Y-19318760D02*
X46210477Y-19359236D01*
X46210477Y-19359236D02*
X46170001Y-19440189D01*
X46170001Y-19440189D02*
X46170001Y-19885427D01*
X45198573Y-19035427D02*
X44631906Y-19035427D01*
X44631906Y-19035427D02*
X45198573Y-19885427D01*
X45198573Y-19885427D02*
X44631906Y-19885427D01*
X44389049Y-19035427D02*
X43822382Y-19885427D01*
X43822382Y-19035427D02*
X44389049Y-19885427D01*
X42891430Y-19844951D02*
X42770001Y-19885427D01*
X42770001Y-19885427D02*
X42567620Y-19885427D01*
X42567620Y-19885427D02*
X42486668Y-19844951D01*
X42486668Y-19844951D02*
X42446192Y-19804474D01*
X42446192Y-19804474D02*
X42405715Y-19723522D01*
X42405715Y-19723522D02*
X42405715Y-19642570D01*
X42405715Y-19642570D02*
X42446192Y-19561617D01*
X42446192Y-19561617D02*
X42486668Y-19521141D01*
X42486668Y-19521141D02*
X42567620Y-19480665D01*
X42567620Y-19480665D02*
X42729525Y-19440189D01*
X42729525Y-19440189D02*
X42810477Y-19399712D01*
X42810477Y-19399712D02*
X42850954Y-19359236D01*
X42850954Y-19359236D02*
X42891430Y-19278284D01*
X42891430Y-19278284D02*
X42891430Y-19197331D01*
X42891430Y-19197331D02*
X42850954Y-19116379D01*
X42850954Y-19116379D02*
X42810477Y-19075903D01*
X42810477Y-19075903D02*
X42729525Y-19035427D01*
X42729525Y-19035427D02*
X42527144Y-19035427D01*
X42527144Y-19035427D02*
X42405715Y-19075903D01*
X42041430Y-19318760D02*
X42041430Y-20168760D01*
X42041430Y-19359236D02*
X41960477Y-19318760D01*
X41960477Y-19318760D02*
X41798572Y-19318760D01*
X41798572Y-19318760D02*
X41717620Y-19359236D01*
X41717620Y-19359236D02*
X41677144Y-19399712D01*
X41677144Y-19399712D02*
X41636668Y-19480665D01*
X41636668Y-19480665D02*
X41636668Y-19723522D01*
X41636668Y-19723522D02*
X41677144Y-19804474D01*
X41677144Y-19804474D02*
X41717620Y-19844951D01*
X41717620Y-19844951D02*
X41798572Y-19885427D01*
X41798572Y-19885427D02*
X41960477Y-19885427D01*
X41960477Y-19885427D02*
X42041430Y-19844951D01*
X40948572Y-19844951D02*
X41029524Y-19885427D01*
X41029524Y-19885427D02*
X41191429Y-19885427D01*
X41191429Y-19885427D02*
X41272382Y-19844951D01*
X41272382Y-19844951D02*
X41312858Y-19763998D01*
X41312858Y-19763998D02*
X41312858Y-19440189D01*
X41312858Y-19440189D02*
X41272382Y-19359236D01*
X41272382Y-19359236D02*
X41191429Y-19318760D01*
X41191429Y-19318760D02*
X41029524Y-19318760D01*
X41029524Y-19318760D02*
X40948572Y-19359236D01*
X40948572Y-19359236D02*
X40908096Y-19440189D01*
X40908096Y-19440189D02*
X40908096Y-19521141D01*
X40908096Y-19521141D02*
X41312858Y-19602093D01*
X40179525Y-19844951D02*
X40260477Y-19885427D01*
X40260477Y-19885427D02*
X40422382Y-19885427D01*
X40422382Y-19885427D02*
X40503334Y-19844951D01*
X40503334Y-19844951D02*
X40543811Y-19804474D01*
X40543811Y-19804474D02*
X40584287Y-19723522D01*
X40584287Y-19723522D02*
X40584287Y-19480665D01*
X40584287Y-19480665D02*
X40543811Y-19399712D01*
X40543811Y-19399712D02*
X40503334Y-19359236D01*
X40503334Y-19359236D02*
X40422382Y-19318760D01*
X40422382Y-19318760D02*
X40260477Y-19318760D01*
X40260477Y-19318760D02*
X40179525Y-19359236D01*
X39936668Y-19318760D02*
X39612859Y-19318760D01*
X39815240Y-19035427D02*
X39815240Y-19763998D01*
X39815240Y-19763998D02*
X39774763Y-19844951D01*
X39774763Y-19844951D02*
X39693811Y-19885427D01*
X39693811Y-19885427D02*
X39612859Y-19885427D01*
X39329526Y-19885427D02*
X39329526Y-19318760D01*
X39329526Y-19480665D02*
X39289049Y-19399712D01*
X39289049Y-19399712D02*
X39248573Y-19359236D01*
X39248573Y-19359236D02*
X39167621Y-19318760D01*
X39167621Y-19318760D02*
X39086668Y-19318760D01*
X38439050Y-19318760D02*
X38439050Y-19885427D01*
X38803336Y-19318760D02*
X38803336Y-19763998D01*
X38803336Y-19763998D02*
X38762859Y-19844951D01*
X38762859Y-19844951D02*
X38681907Y-19885427D01*
X38681907Y-19885427D02*
X38560478Y-19885427D01*
X38560478Y-19885427D02*
X38479526Y-19844951D01*
X38479526Y-19844951D02*
X38439050Y-19804474D01*
X38034288Y-19885427D02*
X38034288Y-19318760D01*
X38034288Y-19399712D02*
X37993811Y-19359236D01*
X37993811Y-19359236D02*
X37912859Y-19318760D01*
X37912859Y-19318760D02*
X37791430Y-19318760D01*
X37791430Y-19318760D02*
X37710478Y-19359236D01*
X37710478Y-19359236D02*
X37670002Y-19440189D01*
X37670002Y-19440189D02*
X37670002Y-19885427D01*
X37670002Y-19440189D02*
X37629526Y-19359236D01*
X37629526Y-19359236D02*
X37548573Y-19318760D01*
X37548573Y-19318760D02*
X37427145Y-19318760D01*
X37427145Y-19318760D02*
X37346192Y-19359236D01*
X37346192Y-19359236D02*
X37305716Y-19440189D01*
X37305716Y-19440189D02*
X37305716Y-19885427D01*
X36900955Y-19804474D02*
X36860478Y-19844951D01*
X36860478Y-19844951D02*
X36900955Y-19885427D01*
X36900955Y-19885427D02*
X36941431Y-19844951D01*
X36941431Y-19844951D02*
X36900955Y-19804474D01*
X36900955Y-19804474D02*
X36900955Y-19885427D01*
X36900955Y-19359236D02*
X36860478Y-19399712D01*
X36860478Y-19399712D02*
X36900955Y-19440189D01*
X36900955Y-19440189D02*
X36941431Y-19399712D01*
X36941431Y-19399712D02*
X36900955Y-19359236D01*
X36900955Y-19359236D02*
X36900955Y-19440189D01*
X35727145Y-19885427D02*
X35808097Y-19844951D01*
X35808097Y-19844951D02*
X35848574Y-19804474D01*
X35848574Y-19804474D02*
X35889050Y-19723522D01*
X35889050Y-19723522D02*
X35889050Y-19480665D01*
X35889050Y-19480665D02*
X35848574Y-19399712D01*
X35848574Y-19399712D02*
X35808097Y-19359236D01*
X35808097Y-19359236D02*
X35727145Y-19318760D01*
X35727145Y-19318760D02*
X35605716Y-19318760D01*
X35605716Y-19318760D02*
X35524764Y-19359236D01*
X35524764Y-19359236D02*
X35484288Y-19399712D01*
X35484288Y-19399712D02*
X35443812Y-19480665D01*
X35443812Y-19480665D02*
X35443812Y-19723522D01*
X35443812Y-19723522D02*
X35484288Y-19804474D01*
X35484288Y-19804474D02*
X35524764Y-19844951D01*
X35524764Y-19844951D02*
X35605716Y-19885427D01*
X35605716Y-19885427D02*
X35727145Y-19885427D01*
X34431907Y-19318760D02*
X34431907Y-20168760D01*
X34431907Y-19359236D02*
X34350954Y-19318760D01*
X34350954Y-19318760D02*
X34189049Y-19318760D01*
X34189049Y-19318760D02*
X34108097Y-19359236D01*
X34108097Y-19359236D02*
X34067621Y-19399712D01*
X34067621Y-19399712D02*
X34027145Y-19480665D01*
X34027145Y-19480665D02*
X34027145Y-19723522D01*
X34027145Y-19723522D02*
X34067621Y-19804474D01*
X34067621Y-19804474D02*
X34108097Y-19844951D01*
X34108097Y-19844951D02*
X34189049Y-19885427D01*
X34189049Y-19885427D02*
X34350954Y-19885427D01*
X34350954Y-19885427D02*
X34431907Y-19844951D01*
X33662859Y-19885427D02*
X33662859Y-19318760D01*
X33662859Y-19035427D02*
X33703335Y-19075903D01*
X33703335Y-19075903D02*
X33662859Y-19116379D01*
X33662859Y-19116379D02*
X33622382Y-19075903D01*
X33622382Y-19075903D02*
X33662859Y-19035427D01*
X33662859Y-19035427D02*
X33662859Y-19116379D01*
X33258097Y-19318760D02*
X33258097Y-19885427D01*
X33258097Y-19399712D02*
X33217620Y-19359236D01*
X33217620Y-19359236D02*
X33136668Y-19318760D01*
X33136668Y-19318760D02*
X33015239Y-19318760D01*
X33015239Y-19318760D02*
X32934287Y-19359236D01*
X32934287Y-19359236D02*
X32893811Y-19440189D01*
X32893811Y-19440189D02*
X32893811Y-19885427D01*
X32367620Y-19885427D02*
X32448572Y-19844951D01*
X32448572Y-19844951D02*
X32489049Y-19804474D01*
X32489049Y-19804474D02*
X32529525Y-19723522D01*
X32529525Y-19723522D02*
X32529525Y-19480665D01*
X32529525Y-19480665D02*
X32489049Y-19399712D01*
X32489049Y-19399712D02*
X32448572Y-19359236D01*
X32448572Y-19359236D02*
X32367620Y-19318760D01*
X32367620Y-19318760D02*
X32246191Y-19318760D01*
X32246191Y-19318760D02*
X32165239Y-19359236D01*
X32165239Y-19359236D02*
X32124763Y-19399712D01*
X32124763Y-19399712D02*
X32084287Y-19480665D01*
X32084287Y-19480665D02*
X32084287Y-19723522D01*
X32084287Y-19723522D02*
X32124763Y-19804474D01*
X32124763Y-19804474D02*
X32165239Y-19844951D01*
X32165239Y-19844951D02*
X32246191Y-19885427D01*
X32246191Y-19885427D02*
X32367620Y-19885427D01*
X30627143Y-19885427D02*
X31112858Y-19885427D01*
X30870001Y-19885427D02*
X30870001Y-19035427D01*
X30870001Y-19035427D02*
X30950953Y-19156855D01*
X30950953Y-19156855D02*
X31031905Y-19237808D01*
X31031905Y-19237808D02*
X31112858Y-19278284D01*
X30343810Y-19035427D02*
X29777143Y-19035427D01*
X29777143Y-19035427D02*
X30141429Y-19885427D01*
X28684286Y-19885427D02*
X28765238Y-19844951D01*
X28765238Y-19844951D02*
X28805715Y-19763998D01*
X28805715Y-19763998D02*
X28805715Y-19035427D01*
X27996191Y-19885427D02*
X27996191Y-19440189D01*
X27996191Y-19440189D02*
X28036667Y-19359236D01*
X28036667Y-19359236D02*
X28117619Y-19318760D01*
X28117619Y-19318760D02*
X28279524Y-19318760D01*
X28279524Y-19318760D02*
X28360477Y-19359236D01*
X27996191Y-19844951D02*
X28077143Y-19885427D01*
X28077143Y-19885427D02*
X28279524Y-19885427D01*
X28279524Y-19885427D02*
X28360477Y-19844951D01*
X28360477Y-19844951D02*
X28400953Y-19763998D01*
X28400953Y-19763998D02*
X28400953Y-19683046D01*
X28400953Y-19683046D02*
X28360477Y-19602093D01*
X28360477Y-19602093D02*
X28279524Y-19561617D01*
X28279524Y-19561617D02*
X28077143Y-19561617D01*
X28077143Y-19561617D02*
X27996191Y-19521141D01*
X26620000Y-19844951D02*
X26700952Y-19885427D01*
X26700952Y-19885427D02*
X26862857Y-19885427D01*
X26862857Y-19885427D02*
X26943810Y-19844951D01*
X26943810Y-19844951D02*
X26984286Y-19763998D01*
X26984286Y-19763998D02*
X26984286Y-19440189D01*
X26984286Y-19440189D02*
X26943810Y-19359236D01*
X26943810Y-19359236D02*
X26862857Y-19318760D01*
X26862857Y-19318760D02*
X26700952Y-19318760D01*
X26700952Y-19318760D02*
X26620000Y-19359236D01*
X26620000Y-19359236D02*
X26579524Y-19440189D01*
X26579524Y-19440189D02*
X26579524Y-19521141D01*
X26579524Y-19521141D02*
X26984286Y-19602093D01*
X25446191Y-19885427D02*
X25527143Y-19844951D01*
X25527143Y-19844951D02*
X25567620Y-19804474D01*
X25567620Y-19804474D02*
X25608096Y-19723522D01*
X25608096Y-19723522D02*
X25608096Y-19480665D01*
X25608096Y-19480665D02*
X25567620Y-19399712D01*
X25567620Y-19399712D02*
X25527143Y-19359236D01*
X25527143Y-19359236D02*
X25446191Y-19318760D01*
X25446191Y-19318760D02*
X25324762Y-19318760D01*
X25324762Y-19318760D02*
X25243810Y-19359236D01*
X25243810Y-19359236D02*
X25203334Y-19399712D01*
X25203334Y-19399712D02*
X25162858Y-19480665D01*
X25162858Y-19480665D02*
X25162858Y-19723522D01*
X25162858Y-19723522D02*
X25203334Y-19804474D01*
X25203334Y-19804474D02*
X25243810Y-19844951D01*
X25243810Y-19844951D02*
X25324762Y-19885427D01*
X25324762Y-19885427D02*
X25446191Y-19885427D01*
X24272381Y-19035427D02*
X23989048Y-19885427D01*
X23989048Y-19885427D02*
X23705714Y-19035427D01*
X22410477Y-19885427D02*
X22410477Y-19035427D01*
X22410477Y-19844951D02*
X22491429Y-19885427D01*
X22491429Y-19885427D02*
X22653334Y-19885427D01*
X22653334Y-19885427D02*
X22734286Y-19844951D01*
X22734286Y-19844951D02*
X22774763Y-19804474D01*
X22774763Y-19804474D02*
X22815239Y-19723522D01*
X22815239Y-19723522D02*
X22815239Y-19480665D01*
X22815239Y-19480665D02*
X22774763Y-19399712D01*
X22774763Y-19399712D02*
X22734286Y-19359236D01*
X22734286Y-19359236D02*
X22653334Y-19318760D01*
X22653334Y-19318760D02*
X22491429Y-19318760D01*
X22491429Y-19318760D02*
X22410477Y-19359236D01*
X21884286Y-19885427D02*
X21965238Y-19844951D01*
X21965238Y-19844951D02*
X22005715Y-19804474D01*
X22005715Y-19804474D02*
X22046191Y-19723522D01*
X22046191Y-19723522D02*
X22046191Y-19480665D01*
X22046191Y-19480665D02*
X22005715Y-19399712D01*
X22005715Y-19399712D02*
X21965238Y-19359236D01*
X21965238Y-19359236D02*
X21884286Y-19318760D01*
X21884286Y-19318760D02*
X21762857Y-19318760D01*
X21762857Y-19318760D02*
X21681905Y-19359236D01*
X21681905Y-19359236D02*
X21641429Y-19399712D01*
X21641429Y-19399712D02*
X21600953Y-19480665D01*
X21600953Y-19480665D02*
X21600953Y-19723522D01*
X21600953Y-19723522D02*
X21641429Y-19804474D01*
X21641429Y-19804474D02*
X21681905Y-19844951D01*
X21681905Y-19844951D02*
X21762857Y-19885427D01*
X21762857Y-19885427D02*
X21884286Y-19885427D01*
X20670000Y-19318760D02*
X20467619Y-19885427D01*
X20467619Y-19885427D02*
X20265238Y-19318760D01*
X19941429Y-19885427D02*
X19941429Y-19318760D01*
X19941429Y-19035427D02*
X19981905Y-19075903D01*
X19981905Y-19075903D02*
X19941429Y-19116379D01*
X19941429Y-19116379D02*
X19900952Y-19075903D01*
X19900952Y-19075903D02*
X19941429Y-19035427D01*
X19941429Y-19035427D02*
X19941429Y-19116379D01*
X19172381Y-19885427D02*
X19172381Y-19035427D01*
X19172381Y-19844951D02*
X19253333Y-19885427D01*
X19253333Y-19885427D02*
X19415238Y-19885427D01*
X19415238Y-19885427D02*
X19496190Y-19844951D01*
X19496190Y-19844951D02*
X19536667Y-19804474D01*
X19536667Y-19804474D02*
X19577143Y-19723522D01*
X19577143Y-19723522D02*
X19577143Y-19480665D01*
X19577143Y-19480665D02*
X19536667Y-19399712D01*
X19536667Y-19399712D02*
X19496190Y-19359236D01*
X19496190Y-19359236D02*
X19415238Y-19318760D01*
X19415238Y-19318760D02*
X19253333Y-19318760D01*
X19253333Y-19318760D02*
X19172381Y-19359236D01*
X18443809Y-19844951D02*
X18524761Y-19885427D01*
X18524761Y-19885427D02*
X18686666Y-19885427D01*
X18686666Y-19885427D02*
X18767619Y-19844951D01*
X18767619Y-19844951D02*
X18808095Y-19763998D01*
X18808095Y-19763998D02*
X18808095Y-19440189D01*
X18808095Y-19440189D02*
X18767619Y-19359236D01*
X18767619Y-19359236D02*
X18686666Y-19318760D01*
X18686666Y-19318760D02*
X18524761Y-19318760D01*
X18524761Y-19318760D02*
X18443809Y-19359236D01*
X18443809Y-19359236D02*
X18403333Y-19440189D01*
X18403333Y-19440189D02*
X18403333Y-19521141D01*
X18403333Y-19521141D02*
X18808095Y-19602093D01*
X17917619Y-19885427D02*
X17998571Y-19844951D01*
X17998571Y-19844951D02*
X18039048Y-19804474D01*
X18039048Y-19804474D02*
X18079524Y-19723522D01*
X18079524Y-19723522D02*
X18079524Y-19480665D01*
X18079524Y-19480665D02*
X18039048Y-19399712D01*
X18039048Y-19399712D02*
X17998571Y-19359236D01*
X17998571Y-19359236D02*
X17917619Y-19318760D01*
X17917619Y-19318760D02*
X17796190Y-19318760D01*
X17796190Y-19318760D02*
X17715238Y-19359236D01*
X17715238Y-19359236D02*
X17674762Y-19399712D01*
X17674762Y-19399712D02*
X17634286Y-19480665D01*
X17634286Y-19480665D02*
X17634286Y-19723522D01*
X17634286Y-19723522D02*
X17674762Y-19804474D01*
X17674762Y-19804474D02*
X17715238Y-19844951D01*
X17715238Y-19844951D02*
X17796190Y-19885427D01*
X17796190Y-19885427D02*
X17917619Y-19885427D01*
X60134287Y-22865700D02*
X60005716Y-22908557D01*
X60005716Y-22908557D02*
X59791430Y-22908557D01*
X59791430Y-22908557D02*
X59705716Y-22865700D01*
X59705716Y-22865700D02*
X59662858Y-22822842D01*
X59662858Y-22822842D02*
X59620001Y-22737128D01*
X59620001Y-22737128D02*
X59620001Y-22651414D01*
X59620001Y-22651414D02*
X59662858Y-22565700D01*
X59662858Y-22565700D02*
X59705716Y-22522842D01*
X59705716Y-22522842D02*
X59791430Y-22479985D01*
X59791430Y-22479985D02*
X59962858Y-22437128D01*
X59962858Y-22437128D02*
X60048573Y-22394271D01*
X60048573Y-22394271D02*
X60091430Y-22351414D01*
X60091430Y-22351414D02*
X60134287Y-22265700D01*
X60134287Y-22265700D02*
X60134287Y-22179985D01*
X60134287Y-22179985D02*
X60091430Y-22094271D01*
X60091430Y-22094271D02*
X60048573Y-22051414D01*
X60048573Y-22051414D02*
X59962858Y-22008557D01*
X59962858Y-22008557D02*
X59748573Y-22008557D01*
X59748573Y-22008557D02*
X59620001Y-22051414D01*
X58977144Y-22008557D02*
X58977144Y-22651414D01*
X58977144Y-22651414D02*
X59020001Y-22779985D01*
X59020001Y-22779985D02*
X59105715Y-22865700D01*
X59105715Y-22865700D02*
X59234287Y-22908557D01*
X59234287Y-22908557D02*
X59320001Y-22908557D01*
X58077144Y-22908557D02*
X58591430Y-22908557D01*
X58334287Y-22908557D02*
X58334287Y-22008557D01*
X58334287Y-22008557D02*
X58420001Y-22137128D01*
X58420001Y-22137128D02*
X58505716Y-22222842D01*
X58505716Y-22222842D02*
X58591430Y-22265700D01*
X56662859Y-22865700D02*
X56748573Y-22908557D01*
X56748573Y-22908557D02*
X56920002Y-22908557D01*
X56920002Y-22908557D02*
X57005716Y-22865700D01*
X57005716Y-22865700D02*
X57048573Y-22779985D01*
X57048573Y-22779985D02*
X57048573Y-22437128D01*
X57048573Y-22437128D02*
X57005716Y-22351414D01*
X57005716Y-22351414D02*
X56920002Y-22308557D01*
X56920002Y-22308557D02*
X56748573Y-22308557D01*
X56748573Y-22308557D02*
X56662859Y-22351414D01*
X56662859Y-22351414D02*
X56620002Y-22437128D01*
X56620002Y-22437128D02*
X56620002Y-22522842D01*
X56620002Y-22522842D02*
X57048573Y-22608557D01*
X55591430Y-22865700D02*
X55462859Y-22908557D01*
X55462859Y-22908557D02*
X55248573Y-22908557D01*
X55248573Y-22908557D02*
X55162859Y-22865700D01*
X55162859Y-22865700D02*
X55120001Y-22822842D01*
X55120001Y-22822842D02*
X55077144Y-22737128D01*
X55077144Y-22737128D02*
X55077144Y-22651414D01*
X55077144Y-22651414D02*
X55120001Y-22565700D01*
X55120001Y-22565700D02*
X55162859Y-22522842D01*
X55162859Y-22522842D02*
X55248573Y-22479985D01*
X55248573Y-22479985D02*
X55420001Y-22437128D01*
X55420001Y-22437128D02*
X55505716Y-22394271D01*
X55505716Y-22394271D02*
X55548573Y-22351414D01*
X55548573Y-22351414D02*
X55591430Y-22265700D01*
X55591430Y-22265700D02*
X55591430Y-22179985D01*
X55591430Y-22179985D02*
X55548573Y-22094271D01*
X55548573Y-22094271D02*
X55505716Y-22051414D01*
X55505716Y-22051414D02*
X55420001Y-22008557D01*
X55420001Y-22008557D02*
X55205716Y-22008557D01*
X55205716Y-22008557D02*
X55077144Y-22051414D01*
X54434287Y-22008557D02*
X54434287Y-22651414D01*
X54434287Y-22651414D02*
X54477144Y-22779985D01*
X54477144Y-22779985D02*
X54562858Y-22865700D01*
X54562858Y-22865700D02*
X54691430Y-22908557D01*
X54691430Y-22908557D02*
X54777144Y-22908557D01*
X54048573Y-22094271D02*
X54005716Y-22051414D01*
X54005716Y-22051414D02*
X53920002Y-22008557D01*
X53920002Y-22008557D02*
X53705716Y-22008557D01*
X53705716Y-22008557D02*
X53620002Y-22051414D01*
X53620002Y-22051414D02*
X53577144Y-22094271D01*
X53577144Y-22094271D02*
X53534287Y-22179985D01*
X53534287Y-22179985D02*
X53534287Y-22265700D01*
X53534287Y-22265700D02*
X53577144Y-22394271D01*
X53577144Y-22394271D02*
X54091430Y-22908557D01*
X54091430Y-22908557D02*
X53534287Y-22908557D01*
X52505716Y-22865700D02*
X52420002Y-22908557D01*
X52420002Y-22908557D02*
X52248573Y-22908557D01*
X52248573Y-22908557D02*
X52162859Y-22865700D01*
X52162859Y-22865700D02*
X52120002Y-22779985D01*
X52120002Y-22779985D02*
X52120002Y-22737128D01*
X52120002Y-22737128D02*
X52162859Y-22651414D01*
X52162859Y-22651414D02*
X52248573Y-22608557D01*
X52248573Y-22608557D02*
X52377145Y-22608557D01*
X52377145Y-22608557D02*
X52462859Y-22565700D01*
X52462859Y-22565700D02*
X52505716Y-22479985D01*
X52505716Y-22479985D02*
X52505716Y-22437128D01*
X52505716Y-22437128D02*
X52462859Y-22351414D01*
X52462859Y-22351414D02*
X52377145Y-22308557D01*
X52377145Y-22308557D02*
X52248573Y-22308557D01*
X52248573Y-22308557D02*
X52162859Y-22351414D01*
X51348574Y-22908557D02*
X51348574Y-22437128D01*
X51348574Y-22437128D02*
X51391431Y-22351414D01*
X51391431Y-22351414D02*
X51477145Y-22308557D01*
X51477145Y-22308557D02*
X51648574Y-22308557D01*
X51648574Y-22308557D02*
X51734288Y-22351414D01*
X51348574Y-22865700D02*
X51434288Y-22908557D01*
X51434288Y-22908557D02*
X51648574Y-22908557D01*
X51648574Y-22908557D02*
X51734288Y-22865700D01*
X51734288Y-22865700D02*
X51777145Y-22779985D01*
X51777145Y-22779985D02*
X51777145Y-22694271D01*
X51777145Y-22694271D02*
X51734288Y-22608557D01*
X51734288Y-22608557D02*
X51648574Y-22565700D01*
X51648574Y-22565700D02*
X51434288Y-22565700D01*
X51434288Y-22565700D02*
X51348574Y-22522842D01*
X50791430Y-22908557D02*
X50877145Y-22865700D01*
X50877145Y-22865700D02*
X50920002Y-22822842D01*
X50920002Y-22822842D02*
X50962859Y-22737128D01*
X50962859Y-22737128D02*
X50962859Y-22479985D01*
X50962859Y-22479985D02*
X50920002Y-22394271D01*
X50920002Y-22394271D02*
X50877145Y-22351414D01*
X50877145Y-22351414D02*
X50791430Y-22308557D01*
X50791430Y-22308557D02*
X50662859Y-22308557D01*
X50662859Y-22308557D02*
X50577145Y-22351414D01*
X50577145Y-22351414D02*
X50534288Y-22394271D01*
X50534288Y-22394271D02*
X50491430Y-22479985D01*
X50491430Y-22479985D02*
X50491430Y-22737128D01*
X50491430Y-22737128D02*
X50534288Y-22822842D01*
X50534288Y-22822842D02*
X50577145Y-22865700D01*
X50577145Y-22865700D02*
X50662859Y-22908557D01*
X50662859Y-22908557D02*
X50791430Y-22908557D01*
X49548573Y-22308557D02*
X49205716Y-22308557D01*
X49420002Y-22008557D02*
X49420002Y-22779985D01*
X49420002Y-22779985D02*
X49377145Y-22865700D01*
X49377145Y-22865700D02*
X49291430Y-22908557D01*
X49291430Y-22908557D02*
X49205716Y-22908557D01*
X48562859Y-22865700D02*
X48648573Y-22908557D01*
X48648573Y-22908557D02*
X48820002Y-22908557D01*
X48820002Y-22908557D02*
X48905716Y-22865700D01*
X48905716Y-22865700D02*
X48948573Y-22779985D01*
X48948573Y-22779985D02*
X48948573Y-22437128D01*
X48948573Y-22437128D02*
X48905716Y-22351414D01*
X48905716Y-22351414D02*
X48820002Y-22308557D01*
X48820002Y-22308557D02*
X48648573Y-22308557D01*
X48648573Y-22308557D02*
X48562859Y-22351414D01*
X48562859Y-22351414D02*
X48520002Y-22437128D01*
X48520002Y-22437128D02*
X48520002Y-22522842D01*
X48520002Y-22522842D02*
X48948573Y-22608557D01*
X48134287Y-22908557D02*
X48134287Y-22308557D01*
X48134287Y-22479985D02*
X48091430Y-22394271D01*
X48091430Y-22394271D02*
X48048573Y-22351414D01*
X48048573Y-22351414D02*
X47962858Y-22308557D01*
X47962858Y-22308557D02*
X47877144Y-22308557D01*
X47577144Y-22908557D02*
X47577144Y-22308557D01*
X47577144Y-22479985D02*
X47534287Y-22394271D01*
X47534287Y-22394271D02*
X47491430Y-22351414D01*
X47491430Y-22351414D02*
X47405715Y-22308557D01*
X47405715Y-22308557D02*
X47320001Y-22308557D01*
X46634287Y-22908557D02*
X46634287Y-22437128D01*
X46634287Y-22437128D02*
X46677144Y-22351414D01*
X46677144Y-22351414D02*
X46762858Y-22308557D01*
X46762858Y-22308557D02*
X46934287Y-22308557D01*
X46934287Y-22308557D02*
X47020001Y-22351414D01*
X46634287Y-22865700D02*
X46720001Y-22908557D01*
X46720001Y-22908557D02*
X46934287Y-22908557D01*
X46934287Y-22908557D02*
X47020001Y-22865700D01*
X47020001Y-22865700D02*
X47062858Y-22779985D01*
X47062858Y-22779985D02*
X47062858Y-22694271D01*
X47062858Y-22694271D02*
X47020001Y-22608557D01*
X47020001Y-22608557D02*
X46934287Y-22565700D01*
X46934287Y-22565700D02*
X46720001Y-22565700D01*
X46720001Y-22565700D02*
X46634287Y-22522842D01*
X45177144Y-22865700D02*
X45262858Y-22908557D01*
X45262858Y-22908557D02*
X45434287Y-22908557D01*
X45434287Y-22908557D02*
X45520001Y-22865700D01*
X45520001Y-22865700D02*
X45562858Y-22779985D01*
X45562858Y-22779985D02*
X45562858Y-22437128D01*
X45562858Y-22437128D02*
X45520001Y-22351414D01*
X45520001Y-22351414D02*
X45434287Y-22308557D01*
X45434287Y-22308557D02*
X45262858Y-22308557D01*
X45262858Y-22308557D02*
X45177144Y-22351414D01*
X45177144Y-22351414D02*
X45134287Y-22437128D01*
X45134287Y-22437128D02*
X45134287Y-22522842D01*
X45134287Y-22522842D02*
X45562858Y-22608557D01*
X44834286Y-22908557D02*
X44362858Y-22308557D01*
X44834286Y-22308557D02*
X44362858Y-22908557D01*
X44148572Y-22308557D02*
X43805715Y-22308557D01*
X44020001Y-22008557D02*
X44020001Y-22779985D01*
X44020001Y-22779985D02*
X43977144Y-22865700D01*
X43977144Y-22865700D02*
X43891429Y-22908557D01*
X43891429Y-22908557D02*
X43805715Y-22908557D01*
X43505715Y-22908557D02*
X43505715Y-22308557D01*
X43505715Y-22479985D02*
X43462858Y-22394271D01*
X43462858Y-22394271D02*
X43420001Y-22351414D01*
X43420001Y-22351414D02*
X43334286Y-22308557D01*
X43334286Y-22308557D02*
X43248572Y-22308557D01*
X42562858Y-22908557D02*
X42562858Y-22437128D01*
X42562858Y-22437128D02*
X42605715Y-22351414D01*
X42605715Y-22351414D02*
X42691429Y-22308557D01*
X42691429Y-22308557D02*
X42862858Y-22308557D01*
X42862858Y-22308557D02*
X42948572Y-22351414D01*
X42562858Y-22865700D02*
X42648572Y-22908557D01*
X42648572Y-22908557D02*
X42862858Y-22908557D01*
X42862858Y-22908557D02*
X42948572Y-22865700D01*
X42948572Y-22865700D02*
X42991429Y-22779985D01*
X42991429Y-22779985D02*
X42991429Y-22694271D01*
X42991429Y-22694271D02*
X42948572Y-22608557D01*
X42948572Y-22608557D02*
X42862858Y-22565700D01*
X42862858Y-22565700D02*
X42648572Y-22565700D01*
X42648572Y-22565700D02*
X42562858Y-22522842D01*
X42091429Y-22865700D02*
X42091429Y-22908557D01*
X42091429Y-22908557D02*
X42134286Y-22994271D01*
X42134286Y-22994271D02*
X42177143Y-23037128D01*
X40891429Y-22908557D02*
X40977144Y-22865700D01*
X40977144Y-22865700D02*
X41020001Y-22822842D01*
X41020001Y-22822842D02*
X41062858Y-22737128D01*
X41062858Y-22737128D02*
X41062858Y-22479985D01*
X41062858Y-22479985D02*
X41020001Y-22394271D01*
X41020001Y-22394271D02*
X40977144Y-22351414D01*
X40977144Y-22351414D02*
X40891429Y-22308557D01*
X40891429Y-22308557D02*
X40762858Y-22308557D01*
X40762858Y-22308557D02*
X40677144Y-22351414D01*
X40677144Y-22351414D02*
X40634287Y-22394271D01*
X40634287Y-22394271D02*
X40591429Y-22479985D01*
X40591429Y-22479985D02*
X40591429Y-22737128D01*
X40591429Y-22737128D02*
X40634287Y-22822842D01*
X40634287Y-22822842D02*
X40677144Y-22865700D01*
X40677144Y-22865700D02*
X40762858Y-22908557D01*
X40762858Y-22908557D02*
X40891429Y-22908557D01*
X40205715Y-22308557D02*
X40205715Y-23208557D01*
X40205715Y-22351414D02*
X40120001Y-22308557D01*
X40120001Y-22308557D02*
X39948572Y-22308557D01*
X39948572Y-22308557D02*
X39862858Y-22351414D01*
X39862858Y-22351414D02*
X39820001Y-22394271D01*
X39820001Y-22394271D02*
X39777143Y-22479985D01*
X39777143Y-22479985D02*
X39777143Y-22737128D01*
X39777143Y-22737128D02*
X39820001Y-22822842D01*
X39820001Y-22822842D02*
X39862858Y-22865700D01*
X39862858Y-22865700D02*
X39948572Y-22908557D01*
X39948572Y-22908557D02*
X40120001Y-22908557D01*
X40120001Y-22908557D02*
X40205715Y-22865700D01*
X39005715Y-22865700D02*
X39091429Y-22908557D01*
X39091429Y-22908557D02*
X39262857Y-22908557D01*
X39262857Y-22908557D02*
X39348572Y-22865700D01*
X39348572Y-22865700D02*
X39391429Y-22822842D01*
X39391429Y-22822842D02*
X39434286Y-22737128D01*
X39434286Y-22737128D02*
X39434286Y-22479985D01*
X39434286Y-22479985D02*
X39391429Y-22394271D01*
X39391429Y-22394271D02*
X39348572Y-22351414D01*
X39348572Y-22351414D02*
X39262857Y-22308557D01*
X39262857Y-22308557D02*
X39091429Y-22308557D01*
X39091429Y-22308557D02*
X39005715Y-22351414D01*
X38620000Y-22908557D02*
X38620000Y-22308557D01*
X38620000Y-22008557D02*
X38662857Y-22051414D01*
X38662857Y-22051414D02*
X38620000Y-22094271D01*
X38620000Y-22094271D02*
X38577143Y-22051414D01*
X38577143Y-22051414D02*
X38620000Y-22008557D01*
X38620000Y-22008557D02*
X38620000Y-22094271D01*
X38062857Y-22908557D02*
X38148572Y-22865700D01*
X38148572Y-22865700D02*
X38191429Y-22822842D01*
X38191429Y-22822842D02*
X38234286Y-22737128D01*
X38234286Y-22737128D02*
X38234286Y-22479985D01*
X38234286Y-22479985D02*
X38191429Y-22394271D01*
X38191429Y-22394271D02*
X38148572Y-22351414D01*
X38148572Y-22351414D02*
X38062857Y-22308557D01*
X38062857Y-22308557D02*
X37934286Y-22308557D01*
X37934286Y-22308557D02*
X37848572Y-22351414D01*
X37848572Y-22351414D02*
X37805715Y-22394271D01*
X37805715Y-22394271D02*
X37762857Y-22479985D01*
X37762857Y-22479985D02*
X37762857Y-22737128D01*
X37762857Y-22737128D02*
X37805715Y-22822842D01*
X37805715Y-22822842D02*
X37848572Y-22865700D01*
X37848572Y-22865700D02*
X37934286Y-22908557D01*
X37934286Y-22908557D02*
X38062857Y-22908557D01*
X37377143Y-22308557D02*
X37377143Y-22908557D01*
X37377143Y-22394271D02*
X37334286Y-22351414D01*
X37334286Y-22351414D02*
X37248571Y-22308557D01*
X37248571Y-22308557D02*
X37120000Y-22308557D01*
X37120000Y-22308557D02*
X37034286Y-22351414D01*
X37034286Y-22351414D02*
X36991429Y-22437128D01*
X36991429Y-22437128D02*
X36991429Y-22908557D01*
X36177143Y-22908557D02*
X36177143Y-22437128D01*
X36177143Y-22437128D02*
X36220000Y-22351414D01*
X36220000Y-22351414D02*
X36305714Y-22308557D01*
X36305714Y-22308557D02*
X36477143Y-22308557D01*
X36477143Y-22308557D02*
X36562857Y-22351414D01*
X36177143Y-22865700D02*
X36262857Y-22908557D01*
X36262857Y-22908557D02*
X36477143Y-22908557D01*
X36477143Y-22908557D02*
X36562857Y-22865700D01*
X36562857Y-22865700D02*
X36605714Y-22779985D01*
X36605714Y-22779985D02*
X36605714Y-22694271D01*
X36605714Y-22694271D02*
X36562857Y-22608557D01*
X36562857Y-22608557D02*
X36477143Y-22565700D01*
X36477143Y-22565700D02*
X36262857Y-22565700D01*
X36262857Y-22565700D02*
X36177143Y-22522842D01*
X35748571Y-22908557D02*
X35748571Y-22308557D01*
X35748571Y-22008557D02*
X35791428Y-22051414D01*
X35791428Y-22051414D02*
X35748571Y-22094271D01*
X35748571Y-22094271D02*
X35705714Y-22051414D01*
X35705714Y-22051414D02*
X35748571Y-22008557D01*
X35748571Y-22008557D02*
X35748571Y-22094271D01*
X35362857Y-22865700D02*
X35277143Y-22908557D01*
X35277143Y-22908557D02*
X35105714Y-22908557D01*
X35105714Y-22908557D02*
X35020000Y-22865700D01*
X35020000Y-22865700D02*
X34977143Y-22779985D01*
X34977143Y-22779985D02*
X34977143Y-22737128D01*
X34977143Y-22737128D02*
X35020000Y-22651414D01*
X35020000Y-22651414D02*
X35105714Y-22608557D01*
X35105714Y-22608557D02*
X35234286Y-22608557D01*
X35234286Y-22608557D02*
X35320000Y-22565700D01*
X35320000Y-22565700D02*
X35362857Y-22479985D01*
X35362857Y-22479985D02*
X35362857Y-22437128D01*
X35362857Y-22437128D02*
X35320000Y-22351414D01*
X35320000Y-22351414D02*
X35234286Y-22308557D01*
X35234286Y-22308557D02*
X35105714Y-22308557D01*
X35105714Y-22308557D02*
X35020000Y-22351414D01*
X33905715Y-22565700D02*
X33220001Y-22565700D01*
X32105715Y-22308557D02*
X32105715Y-23208557D01*
X32105715Y-22351414D02*
X32020001Y-22308557D01*
X32020001Y-22308557D02*
X31848572Y-22308557D01*
X31848572Y-22308557D02*
X31762858Y-22351414D01*
X31762858Y-22351414D02*
X31720001Y-22394271D01*
X31720001Y-22394271D02*
X31677143Y-22479985D01*
X31677143Y-22479985D02*
X31677143Y-22737128D01*
X31677143Y-22737128D02*
X31720001Y-22822842D01*
X31720001Y-22822842D02*
X31762858Y-22865700D01*
X31762858Y-22865700D02*
X31848572Y-22908557D01*
X31848572Y-22908557D02*
X32020001Y-22908557D01*
X32020001Y-22908557D02*
X32105715Y-22865700D01*
X31162857Y-22908557D02*
X31248572Y-22865700D01*
X31248572Y-22865700D02*
X31291429Y-22822842D01*
X31291429Y-22822842D02*
X31334286Y-22737128D01*
X31334286Y-22737128D02*
X31334286Y-22479985D01*
X31334286Y-22479985D02*
X31291429Y-22394271D01*
X31291429Y-22394271D02*
X31248572Y-22351414D01*
X31248572Y-22351414D02*
X31162857Y-22308557D01*
X31162857Y-22308557D02*
X31034286Y-22308557D01*
X31034286Y-22308557D02*
X30948572Y-22351414D01*
X30948572Y-22351414D02*
X30905715Y-22394271D01*
X30905715Y-22394271D02*
X30862857Y-22479985D01*
X30862857Y-22479985D02*
X30862857Y-22737128D01*
X30862857Y-22737128D02*
X30905715Y-22822842D01*
X30905715Y-22822842D02*
X30948572Y-22865700D01*
X30948572Y-22865700D02*
X31034286Y-22908557D01*
X31034286Y-22908557D02*
X31162857Y-22908557D01*
X30091429Y-22908557D02*
X30091429Y-22008557D01*
X30091429Y-22865700D02*
X30177143Y-22908557D01*
X30177143Y-22908557D02*
X30348571Y-22908557D01*
X30348571Y-22908557D02*
X30434286Y-22865700D01*
X30434286Y-22865700D02*
X30477143Y-22822842D01*
X30477143Y-22822842D02*
X30520000Y-22737128D01*
X30520000Y-22737128D02*
X30520000Y-22479985D01*
X30520000Y-22479985D02*
X30477143Y-22394271D01*
X30477143Y-22394271D02*
X30434286Y-22351414D01*
X30434286Y-22351414D02*
X30348571Y-22308557D01*
X30348571Y-22308557D02*
X30177143Y-22308557D01*
X30177143Y-22308557D02*
X30091429Y-22351414D01*
X29320000Y-22865700D02*
X29405714Y-22908557D01*
X29405714Y-22908557D02*
X29577143Y-22908557D01*
X29577143Y-22908557D02*
X29662857Y-22865700D01*
X29662857Y-22865700D02*
X29705714Y-22779985D01*
X29705714Y-22779985D02*
X29705714Y-22437128D01*
X29705714Y-22437128D02*
X29662857Y-22351414D01*
X29662857Y-22351414D02*
X29577143Y-22308557D01*
X29577143Y-22308557D02*
X29405714Y-22308557D01*
X29405714Y-22308557D02*
X29320000Y-22351414D01*
X29320000Y-22351414D02*
X29277143Y-22437128D01*
X29277143Y-22437128D02*
X29277143Y-22522842D01*
X29277143Y-22522842D02*
X29705714Y-22608557D01*
X28891428Y-22908557D02*
X28891428Y-22308557D01*
X28891428Y-22394271D02*
X28848571Y-22351414D01*
X28848571Y-22351414D02*
X28762856Y-22308557D01*
X28762856Y-22308557D02*
X28634285Y-22308557D01*
X28634285Y-22308557D02*
X28548571Y-22351414D01*
X28548571Y-22351414D02*
X28505714Y-22437128D01*
X28505714Y-22437128D02*
X28505714Y-22908557D01*
X28505714Y-22437128D02*
X28462856Y-22351414D01*
X28462856Y-22351414D02*
X28377142Y-22308557D01*
X28377142Y-22308557D02*
X28248571Y-22308557D01*
X28248571Y-22308557D02*
X28162856Y-22351414D01*
X28162856Y-22351414D02*
X28119999Y-22437128D01*
X28119999Y-22437128D02*
X28119999Y-22908557D01*
X27134285Y-22308557D02*
X26791428Y-22308557D01*
X27005714Y-22908557D02*
X27005714Y-22137128D01*
X27005714Y-22137128D02*
X26962857Y-22051414D01*
X26962857Y-22051414D02*
X26877142Y-22008557D01*
X26877142Y-22008557D02*
X26791428Y-22008557D01*
X26491428Y-22908557D02*
X26491428Y-22308557D01*
X26491428Y-22008557D02*
X26534285Y-22051414D01*
X26534285Y-22051414D02*
X26491428Y-22094271D01*
X26491428Y-22094271D02*
X26448571Y-22051414D01*
X26448571Y-22051414D02*
X26491428Y-22008557D01*
X26491428Y-22008557D02*
X26491428Y-22094271D01*
X25677143Y-22865700D02*
X25762857Y-22908557D01*
X25762857Y-22908557D02*
X25934285Y-22908557D01*
X25934285Y-22908557D02*
X26020000Y-22865700D01*
X26020000Y-22865700D02*
X26062857Y-22822842D01*
X26062857Y-22822842D02*
X26105714Y-22737128D01*
X26105714Y-22737128D02*
X26105714Y-22479985D01*
X26105714Y-22479985D02*
X26062857Y-22394271D01*
X26062857Y-22394271D02*
X26020000Y-22351414D01*
X26020000Y-22351414D02*
X25934285Y-22308557D01*
X25934285Y-22308557D02*
X25762857Y-22308557D01*
X25762857Y-22308557D02*
X25677143Y-22351414D01*
X24905714Y-22908557D02*
X24905714Y-22437128D01*
X24905714Y-22437128D02*
X24948571Y-22351414D01*
X24948571Y-22351414D02*
X25034285Y-22308557D01*
X25034285Y-22308557D02*
X25205714Y-22308557D01*
X25205714Y-22308557D02*
X25291428Y-22351414D01*
X24905714Y-22865700D02*
X24991428Y-22908557D01*
X24991428Y-22908557D02*
X25205714Y-22908557D01*
X25205714Y-22908557D02*
X25291428Y-22865700D01*
X25291428Y-22865700D02*
X25334285Y-22779985D01*
X25334285Y-22779985D02*
X25334285Y-22694271D01*
X25334285Y-22694271D02*
X25291428Y-22608557D01*
X25291428Y-22608557D02*
X25205714Y-22565700D01*
X25205714Y-22565700D02*
X24991428Y-22565700D01*
X24991428Y-22565700D02*
X24905714Y-22522842D01*
X24477142Y-22908557D02*
X24477142Y-22308557D01*
X24477142Y-22479985D02*
X24434285Y-22394271D01*
X24434285Y-22394271D02*
X24391428Y-22351414D01*
X24391428Y-22351414D02*
X24305713Y-22308557D01*
X24305713Y-22308557D02*
X24219999Y-22308557D01*
X22848571Y-22908557D02*
X22848571Y-22437128D01*
X22848571Y-22437128D02*
X22891428Y-22351414D01*
X22891428Y-22351414D02*
X22977142Y-22308557D01*
X22977142Y-22308557D02*
X23148571Y-22308557D01*
X23148571Y-22308557D02*
X23234285Y-22351414D01*
X22848571Y-22865700D02*
X22934285Y-22908557D01*
X22934285Y-22908557D02*
X23148571Y-22908557D01*
X23148571Y-22908557D02*
X23234285Y-22865700D01*
X23234285Y-22865700D02*
X23277142Y-22779985D01*
X23277142Y-22779985D02*
X23277142Y-22694271D01*
X23277142Y-22694271D02*
X23234285Y-22608557D01*
X23234285Y-22608557D02*
X23148571Y-22565700D01*
X23148571Y-22565700D02*
X22934285Y-22565700D01*
X22934285Y-22565700D02*
X22848571Y-22522842D01*
X22419999Y-22908557D02*
X22419999Y-22008557D01*
X22419999Y-22351414D02*
X22334285Y-22308557D01*
X22334285Y-22308557D02*
X22162856Y-22308557D01*
X22162856Y-22308557D02*
X22077142Y-22351414D01*
X22077142Y-22351414D02*
X22034285Y-22394271D01*
X22034285Y-22394271D02*
X21991427Y-22479985D01*
X21991427Y-22479985D02*
X21991427Y-22737128D01*
X21991427Y-22737128D02*
X22034285Y-22822842D01*
X22034285Y-22822842D02*
X22077142Y-22865700D01*
X22077142Y-22865700D02*
X22162856Y-22908557D01*
X22162856Y-22908557D02*
X22334285Y-22908557D01*
X22334285Y-22908557D02*
X22419999Y-22865700D01*
X21262856Y-22865700D02*
X21348570Y-22908557D01*
X21348570Y-22908557D02*
X21519999Y-22908557D01*
X21519999Y-22908557D02*
X21605713Y-22865700D01*
X21605713Y-22865700D02*
X21648570Y-22779985D01*
X21648570Y-22779985D02*
X21648570Y-22437128D01*
X21648570Y-22437128D02*
X21605713Y-22351414D01*
X21605713Y-22351414D02*
X21519999Y-22308557D01*
X21519999Y-22308557D02*
X21348570Y-22308557D01*
X21348570Y-22308557D02*
X21262856Y-22351414D01*
X21262856Y-22351414D02*
X21219999Y-22437128D01*
X21219999Y-22437128D02*
X21219999Y-22522842D01*
X21219999Y-22522842D02*
X21648570Y-22608557D01*
X20834284Y-22908557D02*
X20834284Y-22308557D01*
X20834284Y-22479985D02*
X20791427Y-22394271D01*
X20791427Y-22394271D02*
X20748570Y-22351414D01*
X20748570Y-22351414D02*
X20662855Y-22308557D01*
X20662855Y-22308557D02*
X20577141Y-22308557D01*
X20405712Y-22308557D02*
X20062855Y-22308557D01*
X20277141Y-22008557D02*
X20277141Y-22779985D01*
X20277141Y-22779985D02*
X20234284Y-22865700D01*
X20234284Y-22865700D02*
X20148569Y-22908557D01*
X20148569Y-22908557D02*
X20062855Y-22908557D01*
X19634283Y-22908557D02*
X19719998Y-22865700D01*
X19719998Y-22865700D02*
X19762855Y-22822842D01*
X19762855Y-22822842D02*
X19805712Y-22737128D01*
X19805712Y-22737128D02*
X19805712Y-22479985D01*
X19805712Y-22479985D02*
X19762855Y-22394271D01*
X19762855Y-22394271D02*
X19719998Y-22351414D01*
X19719998Y-22351414D02*
X19634283Y-22308557D01*
X19634283Y-22308557D02*
X19505712Y-22308557D01*
X19505712Y-22308557D02*
X19419998Y-22351414D01*
X19419998Y-22351414D02*
X19377141Y-22394271D01*
X19377141Y-22394271D02*
X19334283Y-22479985D01*
X19334283Y-22479985D02*
X19334283Y-22737128D01*
X19334283Y-22737128D02*
X19377141Y-22822842D01*
X19377141Y-22822842D02*
X19419998Y-22865700D01*
X19419998Y-22865700D02*
X19505712Y-22908557D01*
X19505712Y-22908557D02*
X19634283Y-22908557D01*
X18991426Y-22865700D02*
X18905712Y-22908557D01*
X18905712Y-22908557D02*
X18734283Y-22908557D01*
X18734283Y-22908557D02*
X18648569Y-22865700D01*
X18648569Y-22865700D02*
X18605712Y-22779985D01*
X18605712Y-22779985D02*
X18605712Y-22737128D01*
X18605712Y-22737128D02*
X18648569Y-22651414D01*
X18648569Y-22651414D02*
X18734283Y-22608557D01*
X18734283Y-22608557D02*
X18862855Y-22608557D01*
X18862855Y-22608557D02*
X18948569Y-22565700D01*
X18948569Y-22565700D02*
X18991426Y-22479985D01*
X18991426Y-22479985D02*
X18991426Y-22437128D01*
X18991426Y-22437128D02*
X18948569Y-22351414D01*
X18948569Y-22351414D02*
X18862855Y-22308557D01*
X18862855Y-22308557D02*
X18734283Y-22308557D01*
X18734283Y-22308557D02*
X18648569Y-22351414D01*
X57220001Y-25365700D02*
X57091430Y-25408557D01*
X57091430Y-25408557D02*
X56877144Y-25408557D01*
X56877144Y-25408557D02*
X56791430Y-25365700D01*
X56791430Y-25365700D02*
X56748572Y-25322842D01*
X56748572Y-25322842D02*
X56705715Y-25237128D01*
X56705715Y-25237128D02*
X56705715Y-25151414D01*
X56705715Y-25151414D02*
X56748572Y-25065700D01*
X56748572Y-25065700D02*
X56791430Y-25022842D01*
X56791430Y-25022842D02*
X56877144Y-24979985D01*
X56877144Y-24979985D02*
X57048572Y-24937128D01*
X57048572Y-24937128D02*
X57134287Y-24894271D01*
X57134287Y-24894271D02*
X57177144Y-24851414D01*
X57177144Y-24851414D02*
X57220001Y-24765700D01*
X57220001Y-24765700D02*
X57220001Y-24679985D01*
X57220001Y-24679985D02*
X57177144Y-24594271D01*
X57177144Y-24594271D02*
X57134287Y-24551414D01*
X57134287Y-24551414D02*
X57048572Y-24508557D01*
X57048572Y-24508557D02*
X56834287Y-24508557D01*
X56834287Y-24508557D02*
X56705715Y-24551414D01*
X56062858Y-24508557D02*
X56062858Y-25151414D01*
X56062858Y-25151414D02*
X56105715Y-25279985D01*
X56105715Y-25279985D02*
X56191429Y-25365700D01*
X56191429Y-25365700D02*
X56320001Y-25408557D01*
X56320001Y-25408557D02*
X56405715Y-25408557D01*
X55162858Y-25408557D02*
X55677144Y-25408557D01*
X55420001Y-25408557D02*
X55420001Y-24508557D01*
X55420001Y-24508557D02*
X55505715Y-24637128D01*
X55505715Y-24637128D02*
X55591430Y-24722842D01*
X55591430Y-24722842D02*
X55677144Y-24765700D01*
X53534287Y-24808557D02*
X53191430Y-24808557D01*
X53405716Y-25408557D02*
X53405716Y-24637128D01*
X53405716Y-24637128D02*
X53362859Y-24551414D01*
X53362859Y-24551414D02*
X53277144Y-24508557D01*
X53277144Y-24508557D02*
X53191430Y-24508557D01*
X52548573Y-25365700D02*
X52634287Y-25408557D01*
X52634287Y-25408557D02*
X52805716Y-25408557D01*
X52805716Y-25408557D02*
X52891430Y-25365700D01*
X52891430Y-25365700D02*
X52934287Y-25279985D01*
X52934287Y-25279985D02*
X52934287Y-24937128D01*
X52934287Y-24937128D02*
X52891430Y-24851414D01*
X52891430Y-24851414D02*
X52805716Y-24808557D01*
X52805716Y-24808557D02*
X52634287Y-24808557D01*
X52634287Y-24808557D02*
X52548573Y-24851414D01*
X52548573Y-24851414D02*
X52505716Y-24937128D01*
X52505716Y-24937128D02*
X52505716Y-25022842D01*
X52505716Y-25022842D02*
X52934287Y-25108557D01*
X51734287Y-25365700D02*
X51820001Y-25408557D01*
X51820001Y-25408557D02*
X51991429Y-25408557D01*
X51991429Y-25408557D02*
X52077144Y-25365700D01*
X52077144Y-25365700D02*
X52120001Y-25322842D01*
X52120001Y-25322842D02*
X52162858Y-25237128D01*
X52162858Y-25237128D02*
X52162858Y-24979985D01*
X52162858Y-24979985D02*
X52120001Y-24894271D01*
X52120001Y-24894271D02*
X52077144Y-24851414D01*
X52077144Y-24851414D02*
X51991429Y-24808557D01*
X51991429Y-24808557D02*
X51820001Y-24808557D01*
X51820001Y-24808557D02*
X51734287Y-24851414D01*
X51348572Y-25408557D02*
X51348572Y-24508557D01*
X50962858Y-25408557D02*
X50962858Y-24937128D01*
X50962858Y-24937128D02*
X51005715Y-24851414D01*
X51005715Y-24851414D02*
X51091429Y-24808557D01*
X51091429Y-24808557D02*
X51220000Y-24808557D01*
X51220000Y-24808557D02*
X51305715Y-24851414D01*
X51305715Y-24851414D02*
X51348572Y-24894271D01*
X50148572Y-25408557D02*
X50148572Y-24937128D01*
X50148572Y-24937128D02*
X50191429Y-24851414D01*
X50191429Y-24851414D02*
X50277143Y-24808557D01*
X50277143Y-24808557D02*
X50448572Y-24808557D01*
X50448572Y-24808557D02*
X50534286Y-24851414D01*
X50148572Y-25365700D02*
X50234286Y-25408557D01*
X50234286Y-25408557D02*
X50448572Y-25408557D01*
X50448572Y-25408557D02*
X50534286Y-25365700D01*
X50534286Y-25365700D02*
X50577143Y-25279985D01*
X50577143Y-25279985D02*
X50577143Y-25194271D01*
X50577143Y-25194271D02*
X50534286Y-25108557D01*
X50534286Y-25108557D02*
X50448572Y-25065700D01*
X50448572Y-25065700D02*
X50234286Y-25065700D01*
X50234286Y-25065700D02*
X50148572Y-25022842D01*
X49720000Y-25408557D02*
X49720000Y-24808557D01*
X49720000Y-24979985D02*
X49677143Y-24894271D01*
X49677143Y-24894271D02*
X49634286Y-24851414D01*
X49634286Y-24851414D02*
X49548571Y-24808557D01*
X49548571Y-24808557D02*
X49462857Y-24808557D01*
X48520000Y-25365700D02*
X48391429Y-25408557D01*
X48391429Y-25408557D02*
X48177143Y-25408557D01*
X48177143Y-25408557D02*
X48091429Y-25365700D01*
X48091429Y-25365700D02*
X48048571Y-25322842D01*
X48048571Y-25322842D02*
X48005714Y-25237128D01*
X48005714Y-25237128D02*
X48005714Y-25151414D01*
X48005714Y-25151414D02*
X48048571Y-25065700D01*
X48048571Y-25065700D02*
X48091429Y-25022842D01*
X48091429Y-25022842D02*
X48177143Y-24979985D01*
X48177143Y-24979985D02*
X48348571Y-24937128D01*
X48348571Y-24937128D02*
X48434286Y-24894271D01*
X48434286Y-24894271D02*
X48477143Y-24851414D01*
X48477143Y-24851414D02*
X48520000Y-24765700D01*
X48520000Y-24765700D02*
X48520000Y-24679985D01*
X48520000Y-24679985D02*
X48477143Y-24594271D01*
X48477143Y-24594271D02*
X48434286Y-24551414D01*
X48434286Y-24551414D02*
X48348571Y-24508557D01*
X48348571Y-24508557D02*
X48134286Y-24508557D01*
X48134286Y-24508557D02*
X48005714Y-24551414D01*
X47448571Y-24508557D02*
X47277143Y-24508557D01*
X47277143Y-24508557D02*
X47191428Y-24551414D01*
X47191428Y-24551414D02*
X47105714Y-24637128D01*
X47105714Y-24637128D02*
X47062857Y-24808557D01*
X47062857Y-24808557D02*
X47062857Y-25108557D01*
X47062857Y-25108557D02*
X47105714Y-25279985D01*
X47105714Y-25279985D02*
X47191428Y-25365700D01*
X47191428Y-25365700D02*
X47277143Y-25408557D01*
X47277143Y-25408557D02*
X47448571Y-25408557D01*
X47448571Y-25408557D02*
X47534286Y-25365700D01*
X47534286Y-25365700D02*
X47620000Y-25279985D01*
X47620000Y-25279985D02*
X47662857Y-25108557D01*
X47662857Y-25108557D02*
X47662857Y-24808557D01*
X47662857Y-24808557D02*
X47620000Y-24637128D01*
X47620000Y-24637128D02*
X47534286Y-24551414D01*
X47534286Y-24551414D02*
X47448571Y-24508557D01*
X45648572Y-25365700D02*
X45734286Y-25408557D01*
X45734286Y-25408557D02*
X45905715Y-25408557D01*
X45905715Y-25408557D02*
X45991429Y-25365700D01*
X45991429Y-25365700D02*
X46034286Y-25279985D01*
X46034286Y-25279985D02*
X46034286Y-24937128D01*
X46034286Y-24937128D02*
X45991429Y-24851414D01*
X45991429Y-24851414D02*
X45905715Y-24808557D01*
X45905715Y-24808557D02*
X45734286Y-24808557D01*
X45734286Y-24808557D02*
X45648572Y-24851414D01*
X45648572Y-24851414D02*
X45605715Y-24937128D01*
X45605715Y-24937128D02*
X45605715Y-25022842D01*
X45605715Y-25022842D02*
X46034286Y-25108557D01*
X45220000Y-25408557D02*
X45220000Y-24808557D01*
X45220000Y-24894271D02*
X45177143Y-24851414D01*
X45177143Y-24851414D02*
X45091428Y-24808557D01*
X45091428Y-24808557D02*
X44962857Y-24808557D01*
X44962857Y-24808557D02*
X44877143Y-24851414D01*
X44877143Y-24851414D02*
X44834286Y-24937128D01*
X44834286Y-24937128D02*
X44834286Y-25408557D01*
X44834286Y-24937128D02*
X44791428Y-24851414D01*
X44791428Y-24851414D02*
X44705714Y-24808557D01*
X44705714Y-24808557D02*
X44577143Y-24808557D01*
X44577143Y-24808557D02*
X44491428Y-24851414D01*
X44491428Y-24851414D02*
X44448571Y-24937128D01*
X44448571Y-24937128D02*
X44448571Y-25408557D01*
X43420000Y-24508557D02*
X42820000Y-24508557D01*
X42820000Y-24508557D02*
X43420000Y-25408557D01*
X43420000Y-25408557D02*
X42820000Y-25408557D01*
X42562857Y-24508557D02*
X41962857Y-25408557D01*
X41962857Y-24508557D02*
X42562857Y-25408557D01*
X40977143Y-25365700D02*
X40848572Y-25408557D01*
X40848572Y-25408557D02*
X40634286Y-25408557D01*
X40634286Y-25408557D02*
X40548572Y-25365700D01*
X40548572Y-25365700D02*
X40505714Y-25322842D01*
X40505714Y-25322842D02*
X40462857Y-25237128D01*
X40462857Y-25237128D02*
X40462857Y-25151414D01*
X40462857Y-25151414D02*
X40505714Y-25065700D01*
X40505714Y-25065700D02*
X40548572Y-25022842D01*
X40548572Y-25022842D02*
X40634286Y-24979985D01*
X40634286Y-24979985D02*
X40805714Y-24937128D01*
X40805714Y-24937128D02*
X40891429Y-24894271D01*
X40891429Y-24894271D02*
X40934286Y-24851414D01*
X40934286Y-24851414D02*
X40977143Y-24765700D01*
X40977143Y-24765700D02*
X40977143Y-24679985D01*
X40977143Y-24679985D02*
X40934286Y-24594271D01*
X40934286Y-24594271D02*
X40891429Y-24551414D01*
X40891429Y-24551414D02*
X40805714Y-24508557D01*
X40805714Y-24508557D02*
X40591429Y-24508557D01*
X40591429Y-24508557D02*
X40462857Y-24551414D01*
X40077143Y-24808557D02*
X40077143Y-25708557D01*
X40077143Y-24851414D02*
X39991429Y-24808557D01*
X39991429Y-24808557D02*
X39820000Y-24808557D01*
X39820000Y-24808557D02*
X39734286Y-24851414D01*
X39734286Y-24851414D02*
X39691429Y-24894271D01*
X39691429Y-24894271D02*
X39648571Y-24979985D01*
X39648571Y-24979985D02*
X39648571Y-25237128D01*
X39648571Y-25237128D02*
X39691429Y-25322842D01*
X39691429Y-25322842D02*
X39734286Y-25365700D01*
X39734286Y-25365700D02*
X39820000Y-25408557D01*
X39820000Y-25408557D02*
X39991429Y-25408557D01*
X39991429Y-25408557D02*
X40077143Y-25365700D01*
X38920000Y-25365700D02*
X39005714Y-25408557D01*
X39005714Y-25408557D02*
X39177143Y-25408557D01*
X39177143Y-25408557D02*
X39262857Y-25365700D01*
X39262857Y-25365700D02*
X39305714Y-25279985D01*
X39305714Y-25279985D02*
X39305714Y-24937128D01*
X39305714Y-24937128D02*
X39262857Y-24851414D01*
X39262857Y-24851414D02*
X39177143Y-24808557D01*
X39177143Y-24808557D02*
X39005714Y-24808557D01*
X39005714Y-24808557D02*
X38920000Y-24851414D01*
X38920000Y-24851414D02*
X38877143Y-24937128D01*
X38877143Y-24937128D02*
X38877143Y-25022842D01*
X38877143Y-25022842D02*
X39305714Y-25108557D01*
X38105714Y-25365700D02*
X38191428Y-25408557D01*
X38191428Y-25408557D02*
X38362856Y-25408557D01*
X38362856Y-25408557D02*
X38448571Y-25365700D01*
X38448571Y-25365700D02*
X38491428Y-25322842D01*
X38491428Y-25322842D02*
X38534285Y-25237128D01*
X38534285Y-25237128D02*
X38534285Y-24979985D01*
X38534285Y-24979985D02*
X38491428Y-24894271D01*
X38491428Y-24894271D02*
X38448571Y-24851414D01*
X38448571Y-24851414D02*
X38362856Y-24808557D01*
X38362856Y-24808557D02*
X38191428Y-24808557D01*
X38191428Y-24808557D02*
X38105714Y-24851414D01*
X37848570Y-24808557D02*
X37505713Y-24808557D01*
X37719999Y-24508557D02*
X37719999Y-25279985D01*
X37719999Y-25279985D02*
X37677142Y-25365700D01*
X37677142Y-25365700D02*
X37591427Y-25408557D01*
X37591427Y-25408557D02*
X37505713Y-25408557D01*
X37205713Y-25408557D02*
X37205713Y-24808557D01*
X37205713Y-24979985D02*
X37162856Y-24894271D01*
X37162856Y-24894271D02*
X37119999Y-24851414D01*
X37119999Y-24851414D02*
X37034284Y-24808557D01*
X37034284Y-24808557D02*
X36948570Y-24808557D01*
X36262856Y-24808557D02*
X36262856Y-25408557D01*
X36648570Y-24808557D02*
X36648570Y-25279985D01*
X36648570Y-25279985D02*
X36605713Y-25365700D01*
X36605713Y-25365700D02*
X36519998Y-25408557D01*
X36519998Y-25408557D02*
X36391427Y-25408557D01*
X36391427Y-25408557D02*
X36305713Y-25365700D01*
X36305713Y-25365700D02*
X36262856Y-25322842D01*
X35834284Y-25408557D02*
X35834284Y-24808557D01*
X35834284Y-24894271D02*
X35791427Y-24851414D01*
X35791427Y-24851414D02*
X35705712Y-24808557D01*
X35705712Y-24808557D02*
X35577141Y-24808557D01*
X35577141Y-24808557D02*
X35491427Y-24851414D01*
X35491427Y-24851414D02*
X35448570Y-24937128D01*
X35448570Y-24937128D02*
X35448570Y-25408557D01*
X35448570Y-24937128D02*
X35405712Y-24851414D01*
X35405712Y-24851414D02*
X35319998Y-24808557D01*
X35319998Y-24808557D02*
X35191427Y-24808557D01*
X35191427Y-24808557D02*
X35105712Y-24851414D01*
X35105712Y-24851414D02*
X35062855Y-24937128D01*
X35062855Y-24937128D02*
X35062855Y-25408557D01*
X33691427Y-25751414D02*
X33734284Y-25708557D01*
X33734284Y-25708557D02*
X33819998Y-25579985D01*
X33819998Y-25579985D02*
X33862856Y-25494271D01*
X33862856Y-25494271D02*
X33905713Y-25365700D01*
X33905713Y-25365700D02*
X33948570Y-25151414D01*
X33948570Y-25151414D02*
X33948570Y-24979985D01*
X33948570Y-24979985D02*
X33905713Y-24765700D01*
X33905713Y-24765700D02*
X33862856Y-24637128D01*
X33862856Y-24637128D02*
X33819998Y-24551414D01*
X33819998Y-24551414D02*
X33734284Y-24422842D01*
X33734284Y-24422842D02*
X33691427Y-24379985D01*
X33348570Y-24808557D02*
X33348570Y-25708557D01*
X33348570Y-24851414D02*
X33262856Y-24808557D01*
X33262856Y-24808557D02*
X33091427Y-24808557D01*
X33091427Y-24808557D02*
X33005713Y-24851414D01*
X33005713Y-24851414D02*
X32962856Y-24894271D01*
X32962856Y-24894271D02*
X32919998Y-24979985D01*
X32919998Y-24979985D02*
X32919998Y-25237128D01*
X32919998Y-25237128D02*
X32962856Y-25322842D01*
X32962856Y-25322842D02*
X33005713Y-25365700D01*
X33005713Y-25365700D02*
X33091427Y-25408557D01*
X33091427Y-25408557D02*
X33262856Y-25408557D01*
X33262856Y-25408557D02*
X33348570Y-25365700D01*
X32534284Y-25408557D02*
X32534284Y-24808557D01*
X32534284Y-24508557D02*
X32577141Y-24551414D01*
X32577141Y-24551414D02*
X32534284Y-24594271D01*
X32534284Y-24594271D02*
X32491427Y-24551414D01*
X32491427Y-24551414D02*
X32534284Y-24508557D01*
X32534284Y-24508557D02*
X32534284Y-24594271D01*
X32105713Y-24808557D02*
X32105713Y-25408557D01*
X32105713Y-24894271D02*
X32062856Y-24851414D01*
X32062856Y-24851414D02*
X31977141Y-24808557D01*
X31977141Y-24808557D02*
X31848570Y-24808557D01*
X31848570Y-24808557D02*
X31762856Y-24851414D01*
X31762856Y-24851414D02*
X31719999Y-24937128D01*
X31719999Y-24937128D02*
X31719999Y-25408557D01*
X31162855Y-25408557D02*
X31248570Y-25365700D01*
X31248570Y-25365700D02*
X31291427Y-25322842D01*
X31291427Y-25322842D02*
X31334284Y-25237128D01*
X31334284Y-25237128D02*
X31334284Y-24979985D01*
X31334284Y-24979985D02*
X31291427Y-24894271D01*
X31291427Y-24894271D02*
X31248570Y-24851414D01*
X31248570Y-24851414D02*
X31162855Y-24808557D01*
X31162855Y-24808557D02*
X31034284Y-24808557D01*
X31034284Y-24808557D02*
X30948570Y-24851414D01*
X30948570Y-24851414D02*
X30905713Y-24894271D01*
X30905713Y-24894271D02*
X30862855Y-24979985D01*
X30862855Y-24979985D02*
X30862855Y-25237128D01*
X30862855Y-25237128D02*
X30905713Y-25322842D01*
X30905713Y-25322842D02*
X30948570Y-25365700D01*
X30948570Y-25365700D02*
X31034284Y-25408557D01*
X31034284Y-25408557D02*
X31162855Y-25408557D01*
X29877141Y-24508557D02*
X29277141Y-24508557D01*
X29277141Y-24508557D02*
X29662855Y-25408557D01*
X28248570Y-24937128D02*
X27562856Y-24937128D01*
X27562856Y-25194271D02*
X28248570Y-25194271D01*
X25977141Y-24551414D02*
X26062856Y-24508557D01*
X26062856Y-24508557D02*
X26191427Y-24508557D01*
X26191427Y-24508557D02*
X26319998Y-24551414D01*
X26319998Y-24551414D02*
X26405713Y-24637128D01*
X26405713Y-24637128D02*
X26448570Y-24722842D01*
X26448570Y-24722842D02*
X26491427Y-24894271D01*
X26491427Y-24894271D02*
X26491427Y-25022842D01*
X26491427Y-25022842D02*
X26448570Y-25194271D01*
X26448570Y-25194271D02*
X26405713Y-25279985D01*
X26405713Y-25279985D02*
X26319998Y-25365700D01*
X26319998Y-25365700D02*
X26191427Y-25408557D01*
X26191427Y-25408557D02*
X26105713Y-25408557D01*
X26105713Y-25408557D02*
X25977141Y-25365700D01*
X25977141Y-25365700D02*
X25934284Y-25322842D01*
X25934284Y-25322842D02*
X25934284Y-25022842D01*
X25934284Y-25022842D02*
X26105713Y-25022842D01*
X25548570Y-25408557D02*
X25548570Y-24508557D01*
X25548570Y-24508557D02*
X25034284Y-25408557D01*
X25034284Y-25408557D02*
X25034284Y-24508557D01*
X24605713Y-25408557D02*
X24605713Y-24508557D01*
X24605713Y-24508557D02*
X24391427Y-24508557D01*
X24391427Y-24508557D02*
X24262856Y-24551414D01*
X24262856Y-24551414D02*
X24177141Y-24637128D01*
X24177141Y-24637128D02*
X24134284Y-24722842D01*
X24134284Y-24722842D02*
X24091427Y-24894271D01*
X24091427Y-24894271D02*
X24091427Y-25022842D01*
X24091427Y-25022842D02*
X24134284Y-25194271D01*
X24134284Y-25194271D02*
X24177141Y-25279985D01*
X24177141Y-25279985D02*
X24262856Y-25365700D01*
X24262856Y-25365700D02*
X24391427Y-25408557D01*
X24391427Y-25408557D02*
X24605713Y-25408557D01*
X22891427Y-25408557D02*
X22977142Y-25365700D01*
X22977142Y-25365700D02*
X23019999Y-25279985D01*
X23019999Y-25279985D02*
X23019999Y-24508557D01*
X22162856Y-25408557D02*
X22162856Y-24937128D01*
X22162856Y-24937128D02*
X22205713Y-24851414D01*
X22205713Y-24851414D02*
X22291427Y-24808557D01*
X22291427Y-24808557D02*
X22462856Y-24808557D01*
X22462856Y-24808557D02*
X22548570Y-24851414D01*
X22162856Y-25365700D02*
X22248570Y-25408557D01*
X22248570Y-25408557D02*
X22462856Y-25408557D01*
X22462856Y-25408557D02*
X22548570Y-25365700D01*
X22548570Y-25365700D02*
X22591427Y-25279985D01*
X22591427Y-25279985D02*
X22591427Y-25194271D01*
X22591427Y-25194271D02*
X22548570Y-25108557D01*
X22548570Y-25108557D02*
X22462856Y-25065700D01*
X22462856Y-25065700D02*
X22248570Y-25065700D01*
X22248570Y-25065700D02*
X22162856Y-25022842D01*
X21819998Y-25751414D02*
X21777141Y-25708557D01*
X21777141Y-25708557D02*
X21691427Y-25579985D01*
X21691427Y-25579985D02*
X21648570Y-25494271D01*
X21648570Y-25494271D02*
X21605712Y-25365700D01*
X21605712Y-25365700D02*
X21562855Y-25151414D01*
X21562855Y-25151414D02*
X21562855Y-24979985D01*
X21562855Y-24979985D02*
X21605712Y-24765700D01*
X21605712Y-24765700D02*
X21648570Y-24637128D01*
X21648570Y-24637128D02*
X21691427Y-24551414D01*
X21691427Y-24551414D02*
X21777141Y-24422842D01*
X21777141Y-24422842D02*
X21819998Y-24379985D01*
X57498571Y-27865700D02*
X57370000Y-27908557D01*
X57370000Y-27908557D02*
X57155714Y-27908557D01*
X57155714Y-27908557D02*
X57070000Y-27865700D01*
X57070000Y-27865700D02*
X57027142Y-27822842D01*
X57027142Y-27822842D02*
X56984285Y-27737128D01*
X56984285Y-27737128D02*
X56984285Y-27651414D01*
X56984285Y-27651414D02*
X57027142Y-27565700D01*
X57027142Y-27565700D02*
X57070000Y-27522842D01*
X57070000Y-27522842D02*
X57155714Y-27479985D01*
X57155714Y-27479985D02*
X57327142Y-27437128D01*
X57327142Y-27437128D02*
X57412857Y-27394271D01*
X57412857Y-27394271D02*
X57455714Y-27351414D01*
X57455714Y-27351414D02*
X57498571Y-27265700D01*
X57498571Y-27265700D02*
X57498571Y-27179985D01*
X57498571Y-27179985D02*
X57455714Y-27094271D01*
X57455714Y-27094271D02*
X57412857Y-27051414D01*
X57412857Y-27051414D02*
X57327142Y-27008557D01*
X57327142Y-27008557D02*
X57112857Y-27008557D01*
X57112857Y-27008557D02*
X56984285Y-27051414D01*
X56341428Y-27008557D02*
X56341428Y-27651414D01*
X56341428Y-27651414D02*
X56384285Y-27779985D01*
X56384285Y-27779985D02*
X56469999Y-27865700D01*
X56469999Y-27865700D02*
X56598571Y-27908557D01*
X56598571Y-27908557D02*
X56684285Y-27908557D01*
X55955714Y-27094271D02*
X55912857Y-27051414D01*
X55912857Y-27051414D02*
X55827143Y-27008557D01*
X55827143Y-27008557D02*
X55612857Y-27008557D01*
X55612857Y-27008557D02*
X55527143Y-27051414D01*
X55527143Y-27051414D02*
X55484285Y-27094271D01*
X55484285Y-27094271D02*
X55441428Y-27179985D01*
X55441428Y-27179985D02*
X55441428Y-27265700D01*
X55441428Y-27265700D02*
X55484285Y-27394271D01*
X55484285Y-27394271D02*
X55998571Y-27908557D01*
X55998571Y-27908557D02*
X55441428Y-27908557D01*
X53812857Y-27308557D02*
X53470000Y-27308557D01*
X53684286Y-27908557D02*
X53684286Y-27137128D01*
X53684286Y-27137128D02*
X53641429Y-27051414D01*
X53641429Y-27051414D02*
X53555714Y-27008557D01*
X53555714Y-27008557D02*
X53470000Y-27008557D01*
X52827143Y-27865700D02*
X52912857Y-27908557D01*
X52912857Y-27908557D02*
X53084286Y-27908557D01*
X53084286Y-27908557D02*
X53170000Y-27865700D01*
X53170000Y-27865700D02*
X53212857Y-27779985D01*
X53212857Y-27779985D02*
X53212857Y-27437128D01*
X53212857Y-27437128D02*
X53170000Y-27351414D01*
X53170000Y-27351414D02*
X53084286Y-27308557D01*
X53084286Y-27308557D02*
X52912857Y-27308557D01*
X52912857Y-27308557D02*
X52827143Y-27351414D01*
X52827143Y-27351414D02*
X52784286Y-27437128D01*
X52784286Y-27437128D02*
X52784286Y-27522842D01*
X52784286Y-27522842D02*
X53212857Y-27608557D01*
X52012857Y-27865700D02*
X52098571Y-27908557D01*
X52098571Y-27908557D02*
X52269999Y-27908557D01*
X52269999Y-27908557D02*
X52355714Y-27865700D01*
X52355714Y-27865700D02*
X52398571Y-27822842D01*
X52398571Y-27822842D02*
X52441428Y-27737128D01*
X52441428Y-27737128D02*
X52441428Y-27479985D01*
X52441428Y-27479985D02*
X52398571Y-27394271D01*
X52398571Y-27394271D02*
X52355714Y-27351414D01*
X52355714Y-27351414D02*
X52269999Y-27308557D01*
X52269999Y-27308557D02*
X52098571Y-27308557D01*
X52098571Y-27308557D02*
X52012857Y-27351414D01*
X51627142Y-27908557D02*
X51627142Y-27008557D01*
X51241428Y-27908557D02*
X51241428Y-27437128D01*
X51241428Y-27437128D02*
X51284285Y-27351414D01*
X51284285Y-27351414D02*
X51369999Y-27308557D01*
X51369999Y-27308557D02*
X51498570Y-27308557D01*
X51498570Y-27308557D02*
X51584285Y-27351414D01*
X51584285Y-27351414D02*
X51627142Y-27394271D01*
X50427142Y-27908557D02*
X50427142Y-27437128D01*
X50427142Y-27437128D02*
X50469999Y-27351414D01*
X50469999Y-27351414D02*
X50555713Y-27308557D01*
X50555713Y-27308557D02*
X50727142Y-27308557D01*
X50727142Y-27308557D02*
X50812856Y-27351414D01*
X50427142Y-27865700D02*
X50512856Y-27908557D01*
X50512856Y-27908557D02*
X50727142Y-27908557D01*
X50727142Y-27908557D02*
X50812856Y-27865700D01*
X50812856Y-27865700D02*
X50855713Y-27779985D01*
X50855713Y-27779985D02*
X50855713Y-27694271D01*
X50855713Y-27694271D02*
X50812856Y-27608557D01*
X50812856Y-27608557D02*
X50727142Y-27565700D01*
X50727142Y-27565700D02*
X50512856Y-27565700D01*
X50512856Y-27565700D02*
X50427142Y-27522842D01*
X49998570Y-27908557D02*
X49998570Y-27308557D01*
X49998570Y-27479985D02*
X49955713Y-27394271D01*
X49955713Y-27394271D02*
X49912856Y-27351414D01*
X49912856Y-27351414D02*
X49827141Y-27308557D01*
X49827141Y-27308557D02*
X49741427Y-27308557D01*
X48798570Y-27865700D02*
X48669999Y-27908557D01*
X48669999Y-27908557D02*
X48455713Y-27908557D01*
X48455713Y-27908557D02*
X48369999Y-27865700D01*
X48369999Y-27865700D02*
X48327141Y-27822842D01*
X48327141Y-27822842D02*
X48284284Y-27737128D01*
X48284284Y-27737128D02*
X48284284Y-27651414D01*
X48284284Y-27651414D02*
X48327141Y-27565700D01*
X48327141Y-27565700D02*
X48369999Y-27522842D01*
X48369999Y-27522842D02*
X48455713Y-27479985D01*
X48455713Y-27479985D02*
X48627141Y-27437128D01*
X48627141Y-27437128D02*
X48712856Y-27394271D01*
X48712856Y-27394271D02*
X48755713Y-27351414D01*
X48755713Y-27351414D02*
X48798570Y-27265700D01*
X48798570Y-27265700D02*
X48798570Y-27179985D01*
X48798570Y-27179985D02*
X48755713Y-27094271D01*
X48755713Y-27094271D02*
X48712856Y-27051414D01*
X48712856Y-27051414D02*
X48627141Y-27008557D01*
X48627141Y-27008557D02*
X48412856Y-27008557D01*
X48412856Y-27008557D02*
X48284284Y-27051414D01*
X47727141Y-27008557D02*
X47555713Y-27008557D01*
X47555713Y-27008557D02*
X47469998Y-27051414D01*
X47469998Y-27051414D02*
X47384284Y-27137128D01*
X47384284Y-27137128D02*
X47341427Y-27308557D01*
X47341427Y-27308557D02*
X47341427Y-27608557D01*
X47341427Y-27608557D02*
X47384284Y-27779985D01*
X47384284Y-27779985D02*
X47469998Y-27865700D01*
X47469998Y-27865700D02*
X47555713Y-27908557D01*
X47555713Y-27908557D02*
X47727141Y-27908557D01*
X47727141Y-27908557D02*
X47812856Y-27865700D01*
X47812856Y-27865700D02*
X47898570Y-27779985D01*
X47898570Y-27779985D02*
X47941427Y-27608557D01*
X47941427Y-27608557D02*
X47941427Y-27308557D01*
X47941427Y-27308557D02*
X47898570Y-27137128D01*
X47898570Y-27137128D02*
X47812856Y-27051414D01*
X47812856Y-27051414D02*
X47727141Y-27008557D01*
X45927142Y-27865700D02*
X46012856Y-27908557D01*
X46012856Y-27908557D02*
X46184285Y-27908557D01*
X46184285Y-27908557D02*
X46269999Y-27865700D01*
X46269999Y-27865700D02*
X46312856Y-27779985D01*
X46312856Y-27779985D02*
X46312856Y-27437128D01*
X46312856Y-27437128D02*
X46269999Y-27351414D01*
X46269999Y-27351414D02*
X46184285Y-27308557D01*
X46184285Y-27308557D02*
X46012856Y-27308557D01*
X46012856Y-27308557D02*
X45927142Y-27351414D01*
X45927142Y-27351414D02*
X45884285Y-27437128D01*
X45884285Y-27437128D02*
X45884285Y-27522842D01*
X45884285Y-27522842D02*
X46312856Y-27608557D01*
X45498570Y-27908557D02*
X45498570Y-27308557D01*
X45498570Y-27394271D02*
X45455713Y-27351414D01*
X45455713Y-27351414D02*
X45369998Y-27308557D01*
X45369998Y-27308557D02*
X45241427Y-27308557D01*
X45241427Y-27308557D02*
X45155713Y-27351414D01*
X45155713Y-27351414D02*
X45112856Y-27437128D01*
X45112856Y-27437128D02*
X45112856Y-27908557D01*
X45112856Y-27437128D02*
X45069998Y-27351414D01*
X45069998Y-27351414D02*
X44984284Y-27308557D01*
X44984284Y-27308557D02*
X44855713Y-27308557D01*
X44855713Y-27308557D02*
X44769998Y-27351414D01*
X44769998Y-27351414D02*
X44727141Y-27437128D01*
X44727141Y-27437128D02*
X44727141Y-27908557D01*
X43741427Y-27008557D02*
X43227142Y-27008557D01*
X43484284Y-27908557D02*
X43484284Y-27008557D01*
X42927142Y-27908557D02*
X42927142Y-27008557D01*
X42412856Y-27908557D02*
X42798570Y-27394271D01*
X42412856Y-27008557D02*
X42927142Y-27522842D01*
X41984285Y-27908557D02*
X41812856Y-27908557D01*
X41812856Y-27908557D02*
X41727142Y-27865700D01*
X41727142Y-27865700D02*
X41684285Y-27822842D01*
X41684285Y-27822842D02*
X41598570Y-27694271D01*
X41598570Y-27694271D02*
X41555713Y-27522842D01*
X41555713Y-27522842D02*
X41555713Y-27179985D01*
X41555713Y-27179985D02*
X41598570Y-27094271D01*
X41598570Y-27094271D02*
X41641428Y-27051414D01*
X41641428Y-27051414D02*
X41727142Y-27008557D01*
X41727142Y-27008557D02*
X41898570Y-27008557D01*
X41898570Y-27008557D02*
X41984285Y-27051414D01*
X41984285Y-27051414D02*
X42027142Y-27094271D01*
X42027142Y-27094271D02*
X42069999Y-27179985D01*
X42069999Y-27179985D02*
X42069999Y-27394271D01*
X42069999Y-27394271D02*
X42027142Y-27479985D01*
X42027142Y-27479985D02*
X41984285Y-27522842D01*
X41984285Y-27522842D02*
X41898570Y-27565700D01*
X41898570Y-27565700D02*
X41727142Y-27565700D01*
X41727142Y-27565700D02*
X41641428Y-27522842D01*
X41641428Y-27522842D02*
X41598570Y-27479985D01*
X41598570Y-27479985D02*
X41555713Y-27394271D01*
X40998570Y-27008557D02*
X40912856Y-27008557D01*
X40912856Y-27008557D02*
X40827142Y-27051414D01*
X40827142Y-27051414D02*
X40784285Y-27094271D01*
X40784285Y-27094271D02*
X40741427Y-27179985D01*
X40741427Y-27179985D02*
X40698570Y-27351414D01*
X40698570Y-27351414D02*
X40698570Y-27565700D01*
X40698570Y-27565700D02*
X40741427Y-27737128D01*
X40741427Y-27737128D02*
X40784285Y-27822842D01*
X40784285Y-27822842D02*
X40827142Y-27865700D01*
X40827142Y-27865700D02*
X40912856Y-27908557D01*
X40912856Y-27908557D02*
X40998570Y-27908557D01*
X40998570Y-27908557D02*
X41084285Y-27865700D01*
X41084285Y-27865700D02*
X41127142Y-27822842D01*
X41127142Y-27822842D02*
X41169999Y-27737128D01*
X41169999Y-27737128D02*
X41212856Y-27565700D01*
X41212856Y-27565700D02*
X41212856Y-27351414D01*
X41212856Y-27351414D02*
X41169999Y-27179985D01*
X41169999Y-27179985D02*
X41127142Y-27094271D01*
X41127142Y-27094271D02*
X41084285Y-27051414D01*
X41084285Y-27051414D02*
X40998570Y-27008557D01*
X40398570Y-27008557D02*
X39798570Y-27908557D01*
X39798570Y-27008557D02*
X40398570Y-27908557D01*
X38812856Y-26965700D02*
X39584284Y-28122842D01*
X38641427Y-27008557D02*
X38127142Y-27008557D01*
X38384284Y-27908557D02*
X38384284Y-27008557D01*
X37827142Y-27908557D02*
X37827142Y-27008557D01*
X37312856Y-27908557D02*
X37698570Y-27394271D01*
X37312856Y-27008557D02*
X37827142Y-27522842D01*
X36884285Y-27908557D02*
X36712856Y-27908557D01*
X36712856Y-27908557D02*
X36627142Y-27865700D01*
X36627142Y-27865700D02*
X36584285Y-27822842D01*
X36584285Y-27822842D02*
X36498570Y-27694271D01*
X36498570Y-27694271D02*
X36455713Y-27522842D01*
X36455713Y-27522842D02*
X36455713Y-27179985D01*
X36455713Y-27179985D02*
X36498570Y-27094271D01*
X36498570Y-27094271D02*
X36541428Y-27051414D01*
X36541428Y-27051414D02*
X36627142Y-27008557D01*
X36627142Y-27008557D02*
X36798570Y-27008557D01*
X36798570Y-27008557D02*
X36884285Y-27051414D01*
X36884285Y-27051414D02*
X36927142Y-27094271D01*
X36927142Y-27094271D02*
X36969999Y-27179985D01*
X36969999Y-27179985D02*
X36969999Y-27394271D01*
X36969999Y-27394271D02*
X36927142Y-27479985D01*
X36927142Y-27479985D02*
X36884285Y-27522842D01*
X36884285Y-27522842D02*
X36798570Y-27565700D01*
X36798570Y-27565700D02*
X36627142Y-27565700D01*
X36627142Y-27565700D02*
X36541428Y-27522842D01*
X36541428Y-27522842D02*
X36498570Y-27479985D01*
X36498570Y-27479985D02*
X36455713Y-27394271D01*
X35641427Y-27008557D02*
X36069999Y-27008557D01*
X36069999Y-27008557D02*
X36112856Y-27437128D01*
X36112856Y-27437128D02*
X36069999Y-27394271D01*
X36069999Y-27394271D02*
X35984285Y-27351414D01*
X35984285Y-27351414D02*
X35769999Y-27351414D01*
X35769999Y-27351414D02*
X35684285Y-27394271D01*
X35684285Y-27394271D02*
X35641427Y-27437128D01*
X35641427Y-27437128D02*
X35598570Y-27522842D01*
X35598570Y-27522842D02*
X35598570Y-27737128D01*
X35598570Y-27737128D02*
X35641427Y-27822842D01*
X35641427Y-27822842D02*
X35684285Y-27865700D01*
X35684285Y-27865700D02*
X35769999Y-27908557D01*
X35769999Y-27908557D02*
X35984285Y-27908557D01*
X35984285Y-27908557D02*
X36069999Y-27865700D01*
X36069999Y-27865700D02*
X36112856Y-27822842D01*
X34269999Y-28251414D02*
X34312856Y-28208557D01*
X34312856Y-28208557D02*
X34398570Y-28079985D01*
X34398570Y-28079985D02*
X34441428Y-27994271D01*
X34441428Y-27994271D02*
X34484285Y-27865700D01*
X34484285Y-27865700D02*
X34527142Y-27651414D01*
X34527142Y-27651414D02*
X34527142Y-27479985D01*
X34527142Y-27479985D02*
X34484285Y-27265700D01*
X34484285Y-27265700D02*
X34441428Y-27137128D01*
X34441428Y-27137128D02*
X34398570Y-27051414D01*
X34398570Y-27051414D02*
X34312856Y-26922842D01*
X34312856Y-26922842D02*
X34269999Y-26879985D01*
X33927142Y-27308557D02*
X33927142Y-28208557D01*
X33927142Y-27351414D02*
X33841428Y-27308557D01*
X33841428Y-27308557D02*
X33669999Y-27308557D01*
X33669999Y-27308557D02*
X33584285Y-27351414D01*
X33584285Y-27351414D02*
X33541428Y-27394271D01*
X33541428Y-27394271D02*
X33498570Y-27479985D01*
X33498570Y-27479985D02*
X33498570Y-27737128D01*
X33498570Y-27737128D02*
X33541428Y-27822842D01*
X33541428Y-27822842D02*
X33584285Y-27865700D01*
X33584285Y-27865700D02*
X33669999Y-27908557D01*
X33669999Y-27908557D02*
X33841428Y-27908557D01*
X33841428Y-27908557D02*
X33927142Y-27865700D01*
X33112856Y-27908557D02*
X33112856Y-27308557D01*
X33112856Y-27008557D02*
X33155713Y-27051414D01*
X33155713Y-27051414D02*
X33112856Y-27094271D01*
X33112856Y-27094271D02*
X33069999Y-27051414D01*
X33069999Y-27051414D02*
X33112856Y-27008557D01*
X33112856Y-27008557D02*
X33112856Y-27094271D01*
X32684285Y-27308557D02*
X32684285Y-27908557D01*
X32684285Y-27394271D02*
X32641428Y-27351414D01*
X32641428Y-27351414D02*
X32555713Y-27308557D01*
X32555713Y-27308557D02*
X32427142Y-27308557D01*
X32427142Y-27308557D02*
X32341428Y-27351414D01*
X32341428Y-27351414D02*
X32298571Y-27437128D01*
X32298571Y-27437128D02*
X32298571Y-27908557D01*
X31741427Y-27908557D02*
X31827142Y-27865700D01*
X31827142Y-27865700D02*
X31869999Y-27822842D01*
X31869999Y-27822842D02*
X31912856Y-27737128D01*
X31912856Y-27737128D02*
X31912856Y-27479985D01*
X31912856Y-27479985D02*
X31869999Y-27394271D01*
X31869999Y-27394271D02*
X31827142Y-27351414D01*
X31827142Y-27351414D02*
X31741427Y-27308557D01*
X31741427Y-27308557D02*
X31612856Y-27308557D01*
X31612856Y-27308557D02*
X31527142Y-27351414D01*
X31527142Y-27351414D02*
X31484285Y-27394271D01*
X31484285Y-27394271D02*
X31441427Y-27479985D01*
X31441427Y-27479985D02*
X31441427Y-27737128D01*
X31441427Y-27737128D02*
X31484285Y-27822842D01*
X31484285Y-27822842D02*
X31527142Y-27865700D01*
X31527142Y-27865700D02*
X31612856Y-27908557D01*
X31612856Y-27908557D02*
X31741427Y-27908557D01*
X29898570Y-27908557D02*
X30412856Y-27908557D01*
X30155713Y-27908557D02*
X30155713Y-27008557D01*
X30155713Y-27008557D02*
X30241427Y-27137128D01*
X30241427Y-27137128D02*
X30327142Y-27222842D01*
X30327142Y-27222842D02*
X30412856Y-27265700D01*
X29084284Y-27008557D02*
X29512856Y-27008557D01*
X29512856Y-27008557D02*
X29555713Y-27437128D01*
X29555713Y-27437128D02*
X29512856Y-27394271D01*
X29512856Y-27394271D02*
X29427142Y-27351414D01*
X29427142Y-27351414D02*
X29212856Y-27351414D01*
X29212856Y-27351414D02*
X29127142Y-27394271D01*
X29127142Y-27394271D02*
X29084284Y-27437128D01*
X29084284Y-27437128D02*
X29041427Y-27522842D01*
X29041427Y-27522842D02*
X29041427Y-27737128D01*
X29041427Y-27737128D02*
X29084284Y-27822842D01*
X29084284Y-27822842D02*
X29127142Y-27865700D01*
X29127142Y-27865700D02*
X29212856Y-27908557D01*
X29212856Y-27908557D02*
X29427142Y-27908557D01*
X29427142Y-27908557D02*
X29512856Y-27865700D01*
X29512856Y-27865700D02*
X29555713Y-27822842D01*
X27969999Y-27437128D02*
X27284285Y-27437128D01*
X27284285Y-27694271D02*
X27969999Y-27694271D01*
X25698570Y-27051414D02*
X25784285Y-27008557D01*
X25784285Y-27008557D02*
X25912856Y-27008557D01*
X25912856Y-27008557D02*
X26041427Y-27051414D01*
X26041427Y-27051414D02*
X26127142Y-27137128D01*
X26127142Y-27137128D02*
X26169999Y-27222842D01*
X26169999Y-27222842D02*
X26212856Y-27394271D01*
X26212856Y-27394271D02*
X26212856Y-27522842D01*
X26212856Y-27522842D02*
X26169999Y-27694271D01*
X26169999Y-27694271D02*
X26127142Y-27779985D01*
X26127142Y-27779985D02*
X26041427Y-27865700D01*
X26041427Y-27865700D02*
X25912856Y-27908557D01*
X25912856Y-27908557D02*
X25827142Y-27908557D01*
X25827142Y-27908557D02*
X25698570Y-27865700D01*
X25698570Y-27865700D02*
X25655713Y-27822842D01*
X25655713Y-27822842D02*
X25655713Y-27522842D01*
X25655713Y-27522842D02*
X25827142Y-27522842D01*
X25269999Y-27908557D02*
X25269999Y-27008557D01*
X25269999Y-27008557D02*
X24755713Y-27908557D01*
X24755713Y-27908557D02*
X24755713Y-27008557D01*
X24327142Y-27908557D02*
X24327142Y-27008557D01*
X24327142Y-27008557D02*
X24112856Y-27008557D01*
X24112856Y-27008557D02*
X23984285Y-27051414D01*
X23984285Y-27051414D02*
X23898570Y-27137128D01*
X23898570Y-27137128D02*
X23855713Y-27222842D01*
X23855713Y-27222842D02*
X23812856Y-27394271D01*
X23812856Y-27394271D02*
X23812856Y-27522842D01*
X23812856Y-27522842D02*
X23855713Y-27694271D01*
X23855713Y-27694271D02*
X23898570Y-27779985D01*
X23898570Y-27779985D02*
X23984285Y-27865700D01*
X23984285Y-27865700D02*
X24112856Y-27908557D01*
X24112856Y-27908557D02*
X24327142Y-27908557D01*
X22612856Y-27908557D02*
X22698571Y-27865700D01*
X22698571Y-27865700D02*
X22741428Y-27779985D01*
X22741428Y-27779985D02*
X22741428Y-27008557D01*
X21884285Y-27908557D02*
X21884285Y-27437128D01*
X21884285Y-27437128D02*
X21927142Y-27351414D01*
X21927142Y-27351414D02*
X22012856Y-27308557D01*
X22012856Y-27308557D02*
X22184285Y-27308557D01*
X22184285Y-27308557D02*
X22269999Y-27351414D01*
X21884285Y-27865700D02*
X21969999Y-27908557D01*
X21969999Y-27908557D02*
X22184285Y-27908557D01*
X22184285Y-27908557D02*
X22269999Y-27865700D01*
X22269999Y-27865700D02*
X22312856Y-27779985D01*
X22312856Y-27779985D02*
X22312856Y-27694271D01*
X22312856Y-27694271D02*
X22269999Y-27608557D01*
X22269999Y-27608557D02*
X22184285Y-27565700D01*
X22184285Y-27565700D02*
X21969999Y-27565700D01*
X21969999Y-27565700D02*
X21884285Y-27522842D01*
X21541427Y-28251414D02*
X21498570Y-28208557D01*
X21498570Y-28208557D02*
X21412856Y-28079985D01*
X21412856Y-28079985D02*
X21369999Y-27994271D01*
X21369999Y-27994271D02*
X21327141Y-27865700D01*
X21327141Y-27865700D02*
X21284284Y-27651414D01*
X21284284Y-27651414D02*
X21284284Y-27479985D01*
X21284284Y-27479985D02*
X21327141Y-27265700D01*
X21327141Y-27265700D02*
X21369999Y-27137128D01*
X21369999Y-27137128D02*
X21412856Y-27051414D01*
X21412856Y-27051414D02*
X21498570Y-26922842D01*
X21498570Y-26922842D02*
X21541427Y-26879985D01*
X57434288Y-38408557D02*
X57434288Y-37508557D01*
X57434288Y-37508557D02*
X57220002Y-37508557D01*
X57220002Y-37508557D02*
X57091431Y-37551414D01*
X57091431Y-37551414D02*
X57005716Y-37637128D01*
X57005716Y-37637128D02*
X56962859Y-37722842D01*
X56962859Y-37722842D02*
X56920002Y-37894271D01*
X56920002Y-37894271D02*
X56920002Y-38022842D01*
X56920002Y-38022842D02*
X56962859Y-38194271D01*
X56962859Y-38194271D02*
X57005716Y-38279985D01*
X57005716Y-38279985D02*
X57091431Y-38365700D01*
X57091431Y-38365700D02*
X57220002Y-38408557D01*
X57220002Y-38408557D02*
X57434288Y-38408557D01*
X56191431Y-38365700D02*
X56277145Y-38408557D01*
X56277145Y-38408557D02*
X56448574Y-38408557D01*
X56448574Y-38408557D02*
X56534288Y-38365700D01*
X56534288Y-38365700D02*
X56577145Y-38279985D01*
X56577145Y-38279985D02*
X56577145Y-37937128D01*
X56577145Y-37937128D02*
X56534288Y-37851414D01*
X56534288Y-37851414D02*
X56448574Y-37808557D01*
X56448574Y-37808557D02*
X56277145Y-37808557D01*
X56277145Y-37808557D02*
X56191431Y-37851414D01*
X56191431Y-37851414D02*
X56148574Y-37937128D01*
X56148574Y-37937128D02*
X56148574Y-38022842D01*
X56148574Y-38022842D02*
X56577145Y-38108557D01*
X55762859Y-38408557D02*
X55762859Y-37808557D01*
X55762859Y-37979985D02*
X55720002Y-37894271D01*
X55720002Y-37894271D02*
X55677145Y-37851414D01*
X55677145Y-37851414D02*
X55591430Y-37808557D01*
X55591430Y-37808557D02*
X55505716Y-37808557D01*
X55205716Y-38408557D02*
X55205716Y-37808557D01*
X55205716Y-37508557D02*
X55248573Y-37551414D01*
X55248573Y-37551414D02*
X55205716Y-37594271D01*
X55205716Y-37594271D02*
X55162859Y-37551414D01*
X55162859Y-37551414D02*
X55205716Y-37508557D01*
X55205716Y-37508557D02*
X55205716Y-37594271D01*
X54862859Y-37808557D02*
X54648573Y-38408557D01*
X54648573Y-38408557D02*
X54434288Y-37808557D01*
X53705717Y-38408557D02*
X53705717Y-37937128D01*
X53705717Y-37937128D02*
X53748574Y-37851414D01*
X53748574Y-37851414D02*
X53834288Y-37808557D01*
X53834288Y-37808557D02*
X54005717Y-37808557D01*
X54005717Y-37808557D02*
X54091431Y-37851414D01*
X53705717Y-38365700D02*
X53791431Y-38408557D01*
X53791431Y-38408557D02*
X54005717Y-38408557D01*
X54005717Y-38408557D02*
X54091431Y-38365700D01*
X54091431Y-38365700D02*
X54134288Y-38279985D01*
X54134288Y-38279985D02*
X54134288Y-38194271D01*
X54134288Y-38194271D02*
X54091431Y-38108557D01*
X54091431Y-38108557D02*
X54005717Y-38065700D01*
X54005717Y-38065700D02*
X53791431Y-38065700D01*
X53791431Y-38065700D02*
X53705717Y-38022842D01*
X52891431Y-38408557D02*
X52891431Y-37508557D01*
X52891431Y-38365700D02*
X52977145Y-38408557D01*
X52977145Y-38408557D02*
X53148573Y-38408557D01*
X53148573Y-38408557D02*
X53234288Y-38365700D01*
X53234288Y-38365700D02*
X53277145Y-38322842D01*
X53277145Y-38322842D02*
X53320002Y-38237128D01*
X53320002Y-38237128D02*
X53320002Y-37979985D01*
X53320002Y-37979985D02*
X53277145Y-37894271D01*
X53277145Y-37894271D02*
X53234288Y-37851414D01*
X53234288Y-37851414D02*
X53148573Y-37808557D01*
X53148573Y-37808557D02*
X52977145Y-37808557D01*
X52977145Y-37808557D02*
X52891431Y-37851414D01*
X52334287Y-38408557D02*
X52420002Y-38365700D01*
X52420002Y-38365700D02*
X52462859Y-38322842D01*
X52462859Y-38322842D02*
X52505716Y-38237128D01*
X52505716Y-38237128D02*
X52505716Y-37979985D01*
X52505716Y-37979985D02*
X52462859Y-37894271D01*
X52462859Y-37894271D02*
X52420002Y-37851414D01*
X52420002Y-37851414D02*
X52334287Y-37808557D01*
X52334287Y-37808557D02*
X52205716Y-37808557D01*
X52205716Y-37808557D02*
X52120002Y-37851414D01*
X52120002Y-37851414D02*
X52077145Y-37894271D01*
X52077145Y-37894271D02*
X52034287Y-37979985D01*
X52034287Y-37979985D02*
X52034287Y-38237128D01*
X52034287Y-38237128D02*
X52077145Y-38322842D01*
X52077145Y-38322842D02*
X52120002Y-38365700D01*
X52120002Y-38365700D02*
X52205716Y-38408557D01*
X52205716Y-38408557D02*
X52334287Y-38408557D01*
X50577145Y-38408557D02*
X50577145Y-37508557D01*
X50577145Y-38365700D02*
X50662859Y-38408557D01*
X50662859Y-38408557D02*
X50834287Y-38408557D01*
X50834287Y-38408557D02*
X50920002Y-38365700D01*
X50920002Y-38365700D02*
X50962859Y-38322842D01*
X50962859Y-38322842D02*
X51005716Y-38237128D01*
X51005716Y-38237128D02*
X51005716Y-37979985D01*
X51005716Y-37979985D02*
X50962859Y-37894271D01*
X50962859Y-37894271D02*
X50920002Y-37851414D01*
X50920002Y-37851414D02*
X50834287Y-37808557D01*
X50834287Y-37808557D02*
X50662859Y-37808557D01*
X50662859Y-37808557D02*
X50577145Y-37851414D01*
X49805716Y-38365700D02*
X49891430Y-38408557D01*
X49891430Y-38408557D02*
X50062859Y-38408557D01*
X50062859Y-38408557D02*
X50148573Y-38365700D01*
X50148573Y-38365700D02*
X50191430Y-38279985D01*
X50191430Y-38279985D02*
X50191430Y-37937128D01*
X50191430Y-37937128D02*
X50148573Y-37851414D01*
X50148573Y-37851414D02*
X50062859Y-37808557D01*
X50062859Y-37808557D02*
X49891430Y-37808557D01*
X49891430Y-37808557D02*
X49805716Y-37851414D01*
X49805716Y-37851414D02*
X49762859Y-37937128D01*
X49762859Y-37937128D02*
X49762859Y-38022842D01*
X49762859Y-38022842D02*
X50191430Y-38108557D01*
X48820001Y-37508557D02*
X48520001Y-38408557D01*
X48520001Y-38408557D02*
X48220001Y-37508557D01*
X47577144Y-38365700D02*
X47662858Y-38408557D01*
X47662858Y-38408557D02*
X47834287Y-38408557D01*
X47834287Y-38408557D02*
X47920001Y-38365700D01*
X47920001Y-38365700D02*
X47962858Y-38279985D01*
X47962858Y-38279985D02*
X47962858Y-37937128D01*
X47962858Y-37937128D02*
X47920001Y-37851414D01*
X47920001Y-37851414D02*
X47834287Y-37808557D01*
X47834287Y-37808557D02*
X47662858Y-37808557D01*
X47662858Y-37808557D02*
X47577144Y-37851414D01*
X47577144Y-37851414D02*
X47534287Y-37937128D01*
X47534287Y-37937128D02*
X47534287Y-38022842D01*
X47534287Y-38022842D02*
X47962858Y-38108557D01*
X47020000Y-38408557D02*
X47105715Y-38365700D01*
X47105715Y-38365700D02*
X47148572Y-38279985D01*
X47148572Y-38279985D02*
X47148572Y-37508557D01*
X46334286Y-38365700D02*
X46420000Y-38408557D01*
X46420000Y-38408557D02*
X46591429Y-38408557D01*
X46591429Y-38408557D02*
X46677143Y-38365700D01*
X46677143Y-38365700D02*
X46720000Y-38279985D01*
X46720000Y-38279985D02*
X46720000Y-37937128D01*
X46720000Y-37937128D02*
X46677143Y-37851414D01*
X46677143Y-37851414D02*
X46591429Y-37808557D01*
X46591429Y-37808557D02*
X46420000Y-37808557D01*
X46420000Y-37808557D02*
X46334286Y-37851414D01*
X46334286Y-37851414D02*
X46291429Y-37937128D01*
X46291429Y-37937128D02*
X46291429Y-38022842D01*
X46291429Y-38022842D02*
X46720000Y-38108557D01*
X45948571Y-38365700D02*
X45862857Y-38408557D01*
X45862857Y-38408557D02*
X45691428Y-38408557D01*
X45691428Y-38408557D02*
X45605714Y-38365700D01*
X45605714Y-38365700D02*
X45562857Y-38279985D01*
X45562857Y-38279985D02*
X45562857Y-38237128D01*
X45562857Y-38237128D02*
X45605714Y-38151414D01*
X45605714Y-38151414D02*
X45691428Y-38108557D01*
X45691428Y-38108557D02*
X45820000Y-38108557D01*
X45820000Y-38108557D02*
X45905714Y-38065700D01*
X45905714Y-38065700D02*
X45948571Y-37979985D01*
X45948571Y-37979985D02*
X45948571Y-37937128D01*
X45948571Y-37937128D02*
X45905714Y-37851414D01*
X45905714Y-37851414D02*
X45820000Y-37808557D01*
X45820000Y-37808557D02*
X45691428Y-37808557D01*
X45691428Y-37808557D02*
X45605714Y-37851414D01*
X45048571Y-38408557D02*
X45134286Y-38365700D01*
X45134286Y-38365700D02*
X45177143Y-38322842D01*
X45177143Y-38322842D02*
X45220000Y-38237128D01*
X45220000Y-38237128D02*
X45220000Y-37979985D01*
X45220000Y-37979985D02*
X45177143Y-37894271D01*
X45177143Y-37894271D02*
X45134286Y-37851414D01*
X45134286Y-37851414D02*
X45048571Y-37808557D01*
X45048571Y-37808557D02*
X44920000Y-37808557D01*
X44920000Y-37808557D02*
X44834286Y-37851414D01*
X44834286Y-37851414D02*
X44791429Y-37894271D01*
X44791429Y-37894271D02*
X44748571Y-37979985D01*
X44748571Y-37979985D02*
X44748571Y-38237128D01*
X44748571Y-38237128D02*
X44791429Y-38322842D01*
X44791429Y-38322842D02*
X44834286Y-38365700D01*
X44834286Y-38365700D02*
X44920000Y-38408557D01*
X44920000Y-38408557D02*
X45048571Y-38408557D01*
X44491428Y-37808557D02*
X44148571Y-37808557D01*
X44362857Y-38408557D02*
X44362857Y-37637128D01*
X44362857Y-37637128D02*
X44320000Y-37551414D01*
X44320000Y-37551414D02*
X44234285Y-37508557D01*
X44234285Y-37508557D02*
X44148571Y-37508557D01*
X43977142Y-37808557D02*
X43634285Y-37808557D01*
X43848571Y-37508557D02*
X43848571Y-38279985D01*
X43848571Y-38279985D02*
X43805714Y-38365700D01*
X43805714Y-38365700D02*
X43719999Y-38408557D01*
X43719999Y-38408557D02*
X43634285Y-38408557D01*
X42691428Y-37594271D02*
X42648571Y-37551414D01*
X42648571Y-37551414D02*
X42562857Y-37508557D01*
X42562857Y-37508557D02*
X42348571Y-37508557D01*
X42348571Y-37508557D02*
X42262857Y-37551414D01*
X42262857Y-37551414D02*
X42219999Y-37594271D01*
X42219999Y-37594271D02*
X42177142Y-37679985D01*
X42177142Y-37679985D02*
X42177142Y-37765700D01*
X42177142Y-37765700D02*
X42219999Y-37894271D01*
X42219999Y-37894271D02*
X42734285Y-38408557D01*
X42734285Y-38408557D02*
X42177142Y-38408557D01*
X41619999Y-37508557D02*
X41534285Y-37508557D01*
X41534285Y-37508557D02*
X41448571Y-37551414D01*
X41448571Y-37551414D02*
X41405714Y-37594271D01*
X41405714Y-37594271D02*
X41362856Y-37679985D01*
X41362856Y-37679985D02*
X41319999Y-37851414D01*
X41319999Y-37851414D02*
X41319999Y-38065700D01*
X41319999Y-38065700D02*
X41362856Y-38237128D01*
X41362856Y-38237128D02*
X41405714Y-38322842D01*
X41405714Y-38322842D02*
X41448571Y-38365700D01*
X41448571Y-38365700D02*
X41534285Y-38408557D01*
X41534285Y-38408557D02*
X41619999Y-38408557D01*
X41619999Y-38408557D02*
X41705714Y-38365700D01*
X41705714Y-38365700D02*
X41748571Y-38322842D01*
X41748571Y-38322842D02*
X41791428Y-38237128D01*
X41791428Y-38237128D02*
X41834285Y-38065700D01*
X41834285Y-38065700D02*
X41834285Y-37851414D01*
X41834285Y-37851414D02*
X41791428Y-37679985D01*
X41791428Y-37679985D02*
X41748571Y-37594271D01*
X41748571Y-37594271D02*
X41705714Y-37551414D01*
X41705714Y-37551414D02*
X41619999Y-37508557D01*
X40762856Y-37508557D02*
X40677142Y-37508557D01*
X40677142Y-37508557D02*
X40591428Y-37551414D01*
X40591428Y-37551414D02*
X40548571Y-37594271D01*
X40548571Y-37594271D02*
X40505713Y-37679985D01*
X40505713Y-37679985D02*
X40462856Y-37851414D01*
X40462856Y-37851414D02*
X40462856Y-38065700D01*
X40462856Y-38065700D02*
X40505713Y-38237128D01*
X40505713Y-38237128D02*
X40548571Y-38322842D01*
X40548571Y-38322842D02*
X40591428Y-38365700D01*
X40591428Y-38365700D02*
X40677142Y-38408557D01*
X40677142Y-38408557D02*
X40762856Y-38408557D01*
X40762856Y-38408557D02*
X40848571Y-38365700D01*
X40848571Y-38365700D02*
X40891428Y-38322842D01*
X40891428Y-38322842D02*
X40934285Y-38237128D01*
X40934285Y-38237128D02*
X40977142Y-38065700D01*
X40977142Y-38065700D02*
X40977142Y-37851414D01*
X40977142Y-37851414D02*
X40934285Y-37679985D01*
X40934285Y-37679985D02*
X40891428Y-37594271D01*
X40891428Y-37594271D02*
X40848571Y-37551414D01*
X40848571Y-37551414D02*
X40762856Y-37508557D01*
X40034285Y-38408557D02*
X39862856Y-38408557D01*
X39862856Y-38408557D02*
X39777142Y-38365700D01*
X39777142Y-38365700D02*
X39734285Y-38322842D01*
X39734285Y-38322842D02*
X39648570Y-38194271D01*
X39648570Y-38194271D02*
X39605713Y-38022842D01*
X39605713Y-38022842D02*
X39605713Y-37679985D01*
X39605713Y-37679985D02*
X39648570Y-37594271D01*
X39648570Y-37594271D02*
X39691428Y-37551414D01*
X39691428Y-37551414D02*
X39777142Y-37508557D01*
X39777142Y-37508557D02*
X39948570Y-37508557D01*
X39948570Y-37508557D02*
X40034285Y-37551414D01*
X40034285Y-37551414D02*
X40077142Y-37594271D01*
X40077142Y-37594271D02*
X40119999Y-37679985D01*
X40119999Y-37679985D02*
X40119999Y-37894271D01*
X40119999Y-37894271D02*
X40077142Y-37979985D01*
X40077142Y-37979985D02*
X40034285Y-38022842D01*
X40034285Y-38022842D02*
X39948570Y-38065700D01*
X39948570Y-38065700D02*
X39777142Y-38065700D01*
X39777142Y-38065700D02*
X39691428Y-38022842D01*
X39691428Y-38022842D02*
X39648570Y-37979985D01*
X39648570Y-37979985D02*
X39605713Y-37894271D01*
X38191428Y-38365700D02*
X38277142Y-38408557D01*
X38277142Y-38408557D02*
X38448571Y-38408557D01*
X38448571Y-38408557D02*
X38534285Y-38365700D01*
X38534285Y-38365700D02*
X38577142Y-38279985D01*
X38577142Y-38279985D02*
X38577142Y-37937128D01*
X38577142Y-37937128D02*
X38534285Y-37851414D01*
X38534285Y-37851414D02*
X38448571Y-37808557D01*
X38448571Y-37808557D02*
X38277142Y-37808557D01*
X38277142Y-37808557D02*
X38191428Y-37851414D01*
X38191428Y-37851414D02*
X38148571Y-37937128D01*
X38148571Y-37937128D02*
X38148571Y-38022842D01*
X38148571Y-38022842D02*
X38577142Y-38108557D01*
X36648570Y-38408557D02*
X37077142Y-38408557D01*
X37077142Y-38408557D02*
X37077142Y-37508557D01*
X35962857Y-37808557D02*
X35962857Y-38408557D01*
X36348571Y-37808557D02*
X36348571Y-38279985D01*
X36348571Y-38279985D02*
X36305714Y-38365700D01*
X36305714Y-38365700D02*
X36219999Y-38408557D01*
X36219999Y-38408557D02*
X36091428Y-38408557D01*
X36091428Y-38408557D02*
X36005714Y-38365700D01*
X36005714Y-38365700D02*
X35962857Y-38322842D01*
X35148571Y-38365700D02*
X35234285Y-38408557D01*
X35234285Y-38408557D02*
X35405713Y-38408557D01*
X35405713Y-38408557D02*
X35491428Y-38365700D01*
X35491428Y-38365700D02*
X35534285Y-38322842D01*
X35534285Y-38322842D02*
X35577142Y-38237128D01*
X35577142Y-38237128D02*
X35577142Y-37979985D01*
X35577142Y-37979985D02*
X35534285Y-37894271D01*
X35534285Y-37894271D02*
X35491428Y-37851414D01*
X35491428Y-37851414D02*
X35405713Y-37808557D01*
X35405713Y-37808557D02*
X35234285Y-37808557D01*
X35234285Y-37808557D02*
X35148571Y-37851414D01*
X34377142Y-38365700D02*
X34462856Y-38408557D01*
X34462856Y-38408557D02*
X34634284Y-38408557D01*
X34634284Y-38408557D02*
X34719999Y-38365700D01*
X34719999Y-38365700D02*
X34762856Y-38322842D01*
X34762856Y-38322842D02*
X34805713Y-38237128D01*
X34805713Y-38237128D02*
X34805713Y-37979985D01*
X34805713Y-37979985D02*
X34762856Y-37894271D01*
X34762856Y-37894271D02*
X34719999Y-37851414D01*
X34719999Y-37851414D02*
X34634284Y-37808557D01*
X34634284Y-37808557D02*
X34462856Y-37808557D01*
X34462856Y-37808557D02*
X34377142Y-37851414D01*
X33605713Y-38408557D02*
X33605713Y-37937128D01*
X33605713Y-37937128D02*
X33648570Y-37851414D01*
X33648570Y-37851414D02*
X33734284Y-37808557D01*
X33734284Y-37808557D02*
X33905713Y-37808557D01*
X33905713Y-37808557D02*
X33991427Y-37851414D01*
X33605713Y-38365700D02*
X33691427Y-38408557D01*
X33691427Y-38408557D02*
X33905713Y-38408557D01*
X33905713Y-38408557D02*
X33991427Y-38365700D01*
X33991427Y-38365700D02*
X34034284Y-38279985D01*
X34034284Y-38279985D02*
X34034284Y-38194271D01*
X34034284Y-38194271D02*
X33991427Y-38108557D01*
X33991427Y-38108557D02*
X33905713Y-38065700D01*
X33905713Y-38065700D02*
X33691427Y-38065700D01*
X33691427Y-38065700D02*
X33605713Y-38022842D01*
X33219998Y-38365700D02*
X33134284Y-38408557D01*
X33134284Y-38408557D02*
X32962855Y-38408557D01*
X32962855Y-38408557D02*
X32877141Y-38365700D01*
X32877141Y-38365700D02*
X32834284Y-38279985D01*
X32834284Y-38279985D02*
X32834284Y-38237128D01*
X32834284Y-38237128D02*
X32877141Y-38151414D01*
X32877141Y-38151414D02*
X32962855Y-38108557D01*
X32962855Y-38108557D02*
X33091427Y-38108557D01*
X33091427Y-38108557D02*
X33177141Y-38065700D01*
X33177141Y-38065700D02*
X33219998Y-37979985D01*
X33219998Y-37979985D02*
X33219998Y-37937128D01*
X33219998Y-37937128D02*
X33177141Y-37851414D01*
X33177141Y-37851414D02*
X33091427Y-37808557D01*
X33091427Y-37808557D02*
X32962855Y-37808557D01*
X32962855Y-37808557D02*
X32877141Y-37851414D01*
X31762856Y-37937128D02*
X31462856Y-37937128D01*
X31334284Y-38408557D02*
X31762856Y-38408557D01*
X31762856Y-38408557D02*
X31762856Y-37508557D01*
X31762856Y-37508557D02*
X31334284Y-37508557D01*
X30819998Y-38408557D02*
X30905713Y-38365700D01*
X30905713Y-38365700D02*
X30948570Y-38279985D01*
X30948570Y-38279985D02*
X30948570Y-37508557D01*
X30134284Y-38365700D02*
X30219998Y-38408557D01*
X30219998Y-38408557D02*
X30391427Y-38408557D01*
X30391427Y-38408557D02*
X30477141Y-38365700D01*
X30477141Y-38365700D02*
X30519998Y-38279985D01*
X30519998Y-38279985D02*
X30519998Y-37937128D01*
X30519998Y-37937128D02*
X30477141Y-37851414D01*
X30477141Y-37851414D02*
X30391427Y-37808557D01*
X30391427Y-37808557D02*
X30219998Y-37808557D01*
X30219998Y-37808557D02*
X30134284Y-37851414D01*
X30134284Y-37851414D02*
X30091427Y-37937128D01*
X30091427Y-37937128D02*
X30091427Y-38022842D01*
X30091427Y-38022842D02*
X30519998Y-38108557D01*
X29834283Y-37808557D02*
X29491426Y-37808557D01*
X29705712Y-37508557D02*
X29705712Y-38279985D01*
X29705712Y-38279985D02*
X29662855Y-38365700D01*
X29662855Y-38365700D02*
X29577140Y-38408557D01*
X29577140Y-38408557D02*
X29491426Y-38408557D01*
X29191426Y-38408557D02*
X29191426Y-37808557D01*
X29191426Y-37979985D02*
X29148569Y-37894271D01*
X29148569Y-37894271D02*
X29105712Y-37851414D01*
X29105712Y-37851414D02*
X29019997Y-37808557D01*
X29019997Y-37808557D02*
X28934283Y-37808557D01*
X28505711Y-38408557D02*
X28591426Y-38365700D01*
X28591426Y-38365700D02*
X28634283Y-38322842D01*
X28634283Y-38322842D02*
X28677140Y-38237128D01*
X28677140Y-38237128D02*
X28677140Y-37979985D01*
X28677140Y-37979985D02*
X28634283Y-37894271D01*
X28634283Y-37894271D02*
X28591426Y-37851414D01*
X28591426Y-37851414D02*
X28505711Y-37808557D01*
X28505711Y-37808557D02*
X28377140Y-37808557D01*
X28377140Y-37808557D02*
X28291426Y-37851414D01*
X28291426Y-37851414D02*
X28248569Y-37894271D01*
X28248569Y-37894271D02*
X28205711Y-37979985D01*
X28205711Y-37979985D02*
X28205711Y-38237128D01*
X28205711Y-38237128D02*
X28248569Y-38322842D01*
X28248569Y-38322842D02*
X28291426Y-38365700D01*
X28291426Y-38365700D02*
X28377140Y-38408557D01*
X28377140Y-38408557D02*
X28505711Y-38408557D01*
X27819997Y-37808557D02*
X27819997Y-38408557D01*
X27819997Y-37894271D02*
X27777140Y-37851414D01*
X27777140Y-37851414D02*
X27691425Y-37808557D01*
X27691425Y-37808557D02*
X27562854Y-37808557D01*
X27562854Y-37808557D02*
X27477140Y-37851414D01*
X27477140Y-37851414D02*
X27434283Y-37937128D01*
X27434283Y-37937128D02*
X27434283Y-38408557D01*
X27005711Y-38408557D02*
X27005711Y-37808557D01*
X27005711Y-37508557D02*
X27048568Y-37551414D01*
X27048568Y-37551414D02*
X27005711Y-37594271D01*
X27005711Y-37594271D02*
X26962854Y-37551414D01*
X26962854Y-37551414D02*
X27005711Y-37508557D01*
X27005711Y-37508557D02*
X27005711Y-37594271D01*
X26191426Y-38365700D02*
X26277140Y-38408557D01*
X26277140Y-38408557D02*
X26448568Y-38408557D01*
X26448568Y-38408557D02*
X26534283Y-38365700D01*
X26534283Y-38365700D02*
X26577140Y-38322842D01*
X26577140Y-38322842D02*
X26619997Y-38237128D01*
X26619997Y-38237128D02*
X26619997Y-37979985D01*
X26619997Y-37979985D02*
X26577140Y-37894271D01*
X26577140Y-37894271D02*
X26534283Y-37851414D01*
X26534283Y-37851414D02*
X26448568Y-37808557D01*
X26448568Y-37808557D02*
X26277140Y-37808557D01*
X26277140Y-37808557D02*
X26191426Y-37851414D01*
X25419997Y-38408557D02*
X25419997Y-37937128D01*
X25419997Y-37937128D02*
X25462854Y-37851414D01*
X25462854Y-37851414D02*
X25548568Y-37808557D01*
X25548568Y-37808557D02*
X25719997Y-37808557D01*
X25719997Y-37808557D02*
X25805711Y-37851414D01*
X25419997Y-38365700D02*
X25505711Y-38408557D01*
X25505711Y-38408557D02*
X25719997Y-38408557D01*
X25719997Y-38408557D02*
X25805711Y-38365700D01*
X25805711Y-38365700D02*
X25848568Y-38279985D01*
X25848568Y-38279985D02*
X25848568Y-38194271D01*
X25848568Y-38194271D02*
X25805711Y-38108557D01*
X25805711Y-38108557D02*
X25719997Y-38065700D01*
X25719997Y-38065700D02*
X25505711Y-38065700D01*
X25505711Y-38065700D02*
X25419997Y-38022842D01*
X24348568Y-37594271D02*
X24305711Y-37551414D01*
X24305711Y-37551414D02*
X24219997Y-37508557D01*
X24219997Y-37508557D02*
X24005711Y-37508557D01*
X24005711Y-37508557D02*
X23919997Y-37551414D01*
X23919997Y-37551414D02*
X23877139Y-37594271D01*
X23877139Y-37594271D02*
X23834282Y-37679985D01*
X23834282Y-37679985D02*
X23834282Y-37765700D01*
X23834282Y-37765700D02*
X23877139Y-37894271D01*
X23877139Y-37894271D02*
X24391425Y-38408557D01*
X24391425Y-38408557D02*
X23834282Y-38408557D01*
X23277139Y-37508557D02*
X23191425Y-37508557D01*
X23191425Y-37508557D02*
X23105711Y-37551414D01*
X23105711Y-37551414D02*
X23062854Y-37594271D01*
X23062854Y-37594271D02*
X23019996Y-37679985D01*
X23019996Y-37679985D02*
X22977139Y-37851414D01*
X22977139Y-37851414D02*
X22977139Y-38065700D01*
X22977139Y-38065700D02*
X23019996Y-38237128D01*
X23019996Y-38237128D02*
X23062854Y-38322842D01*
X23062854Y-38322842D02*
X23105711Y-38365700D01*
X23105711Y-38365700D02*
X23191425Y-38408557D01*
X23191425Y-38408557D02*
X23277139Y-38408557D01*
X23277139Y-38408557D02*
X23362854Y-38365700D01*
X23362854Y-38365700D02*
X23405711Y-38322842D01*
X23405711Y-38322842D02*
X23448568Y-38237128D01*
X23448568Y-38237128D02*
X23491425Y-38065700D01*
X23491425Y-38065700D02*
X23491425Y-37851414D01*
X23491425Y-37851414D02*
X23448568Y-37679985D01*
X23448568Y-37679985D02*
X23405711Y-37594271D01*
X23405711Y-37594271D02*
X23362854Y-37551414D01*
X23362854Y-37551414D02*
X23277139Y-37508557D01*
X22119996Y-38408557D02*
X22634282Y-38408557D01*
X22377139Y-38408557D02*
X22377139Y-37508557D01*
X22377139Y-37508557D02*
X22462853Y-37637128D01*
X22462853Y-37637128D02*
X22548568Y-37722842D01*
X22548568Y-37722842D02*
X22634282Y-37765700D01*
X21777139Y-37594271D02*
X21734282Y-37551414D01*
X21734282Y-37551414D02*
X21648568Y-37508557D01*
X21648568Y-37508557D02*
X21434282Y-37508557D01*
X21434282Y-37508557D02*
X21348568Y-37551414D01*
X21348568Y-37551414D02*
X21305710Y-37594271D01*
X21305710Y-37594271D02*
X21262853Y-37679985D01*
X21262853Y-37679985D02*
X21262853Y-37765700D01*
X21262853Y-37765700D02*
X21305710Y-37894271D01*
X21305710Y-37894271D02*
X21819996Y-38408557D01*
X21819996Y-38408557D02*
X21262853Y-38408557D01*
X57179525Y-7454819D02*
X57179525Y-8169104D01*
X57179525Y-8169104D02*
X57227144Y-8311961D01*
X57227144Y-8311961D02*
X57322382Y-8407200D01*
X57322382Y-8407200D02*
X57465239Y-8454819D01*
X57465239Y-8454819D02*
X57560477Y-8454819D01*
X56703334Y-8454819D02*
X56703334Y-7454819D01*
X56703334Y-7454819D02*
X56322382Y-7454819D01*
X56322382Y-7454819D02*
X56227144Y-7502438D01*
X56227144Y-7502438D02*
X56179525Y-7550057D01*
X56179525Y-7550057D02*
X56131906Y-7645295D01*
X56131906Y-7645295D02*
X56131906Y-7788152D01*
X56131906Y-7788152D02*
X56179525Y-7883390D01*
X56179525Y-7883390D02*
X56227144Y-7931009D01*
X56227144Y-7931009D02*
X56322382Y-7978628D01*
X56322382Y-7978628D02*
X56703334Y-7978628D01*
X55179525Y-8454819D02*
X55750953Y-8454819D01*
X55465239Y-8454819D02*
X55465239Y-7454819D01*
X55465239Y-7454819D02*
X55560477Y-7597676D01*
X55560477Y-7597676D02*
X55655715Y-7692914D01*
X55655715Y-7692914D02*
X55750953Y-7740533D01*
X52703334Y-8454819D02*
X53274762Y-8454819D01*
X52989048Y-8454819D02*
X52989048Y-7454819D01*
X52989048Y-7454819D02*
X53084286Y-7597676D01*
X53084286Y-7597676D02*
X53179524Y-7692914D01*
X53179524Y-7692914D02*
X53274762Y-7740533D01*
X52274762Y-8073866D02*
X51512858Y-8073866D01*
X51084286Y-7550057D02*
X51036667Y-7502438D01*
X51036667Y-7502438D02*
X50941429Y-7454819D01*
X50941429Y-7454819D02*
X50703334Y-7454819D01*
X50703334Y-7454819D02*
X50608096Y-7502438D01*
X50608096Y-7502438D02*
X50560477Y-7550057D01*
X50560477Y-7550057D02*
X50512858Y-7645295D01*
X50512858Y-7645295D02*
X50512858Y-7740533D01*
X50512858Y-7740533D02*
X50560477Y-7883390D01*
X50560477Y-7883390D02*
X51131905Y-8454819D01*
X51131905Y-8454819D02*
X50512858Y-8454819D01*
X49322381Y-7931009D02*
X48560477Y-7931009D01*
X48560477Y-8216723D02*
X49322381Y-8216723D01*
X46750953Y-8454819D02*
X47084286Y-7978628D01*
X47322381Y-8454819D02*
X47322381Y-7454819D01*
X47322381Y-7454819D02*
X46941429Y-7454819D01*
X46941429Y-7454819D02*
X46846191Y-7502438D01*
X46846191Y-7502438D02*
X46798572Y-7550057D01*
X46798572Y-7550057D02*
X46750953Y-7645295D01*
X46750953Y-7645295D02*
X46750953Y-7788152D01*
X46750953Y-7788152D02*
X46798572Y-7883390D01*
X46798572Y-7883390D02*
X46846191Y-7931009D01*
X46846191Y-7931009D02*
X46941429Y-7978628D01*
X46941429Y-7978628D02*
X47322381Y-7978628D01*
X46131905Y-7454819D02*
X45941429Y-7454819D01*
X45941429Y-7454819D02*
X45846191Y-7502438D01*
X45846191Y-7502438D02*
X45750953Y-7597676D01*
X45750953Y-7597676D02*
X45703334Y-7788152D01*
X45703334Y-7788152D02*
X45703334Y-8121485D01*
X45703334Y-8121485D02*
X45750953Y-8311961D01*
X45750953Y-8311961D02*
X45846191Y-8407200D01*
X45846191Y-8407200D02*
X45941429Y-8454819D01*
X45941429Y-8454819D02*
X46131905Y-8454819D01*
X46131905Y-8454819D02*
X46227143Y-8407200D01*
X46227143Y-8407200D02*
X46322381Y-8311961D01*
X46322381Y-8311961D02*
X46370000Y-8121485D01*
X46370000Y-8121485D02*
X46370000Y-7788152D01*
X46370000Y-7788152D02*
X46322381Y-7597676D01*
X46322381Y-7597676D02*
X46227143Y-7502438D01*
X46227143Y-7502438D02*
X46131905Y-7454819D01*
X45274762Y-8454819D02*
X45274762Y-7454819D01*
X45274762Y-7454819D02*
X44941429Y-8169104D01*
X44941429Y-8169104D02*
X44608096Y-7454819D01*
X44608096Y-7454819D02*
X44608096Y-8454819D01*
X42846191Y-8454819D02*
X43417619Y-8454819D01*
X43131905Y-8454819D02*
X43131905Y-7454819D01*
X43131905Y-7454819D02*
X43227143Y-7597676D01*
X43227143Y-7597676D02*
X43322381Y-7692914D01*
X43322381Y-7692914D02*
X43417619Y-7740533D01*
X42465238Y-7550057D02*
X42417619Y-7502438D01*
X42417619Y-7502438D02*
X42322381Y-7454819D01*
X42322381Y-7454819D02*
X42084286Y-7454819D01*
X42084286Y-7454819D02*
X41989048Y-7502438D01*
X41989048Y-7502438D02*
X41941429Y-7550057D01*
X41941429Y-7550057D02*
X41893810Y-7645295D01*
X41893810Y-7645295D02*
X41893810Y-7740533D01*
X41893810Y-7740533D02*
X41941429Y-7883390D01*
X41941429Y-7883390D02*
X42512857Y-8454819D01*
X42512857Y-8454819D02*
X41893810Y-8454819D01*
X41322381Y-7883390D02*
X41417619Y-7835771D01*
X41417619Y-7835771D02*
X41465238Y-7788152D01*
X41465238Y-7788152D02*
X41512857Y-7692914D01*
X41512857Y-7692914D02*
X41512857Y-7645295D01*
X41512857Y-7645295D02*
X41465238Y-7550057D01*
X41465238Y-7550057D02*
X41417619Y-7502438D01*
X41417619Y-7502438D02*
X41322381Y-7454819D01*
X41322381Y-7454819D02*
X41131905Y-7454819D01*
X41131905Y-7454819D02*
X41036667Y-7502438D01*
X41036667Y-7502438D02*
X40989048Y-7550057D01*
X40989048Y-7550057D02*
X40941429Y-7645295D01*
X40941429Y-7645295D02*
X40941429Y-7692914D01*
X40941429Y-7692914D02*
X40989048Y-7788152D01*
X40989048Y-7788152D02*
X41036667Y-7835771D01*
X41036667Y-7835771D02*
X41131905Y-7883390D01*
X41131905Y-7883390D02*
X41322381Y-7883390D01*
X41322381Y-7883390D02*
X41417619Y-7931009D01*
X41417619Y-7931009D02*
X41465238Y-7978628D01*
X41465238Y-7978628D02*
X41512857Y-8073866D01*
X41512857Y-8073866D02*
X41512857Y-8264342D01*
X41512857Y-8264342D02*
X41465238Y-8359580D01*
X41465238Y-8359580D02*
X41417619Y-8407200D01*
X41417619Y-8407200D02*
X41322381Y-8454819D01*
X41322381Y-8454819D02*
X41131905Y-8454819D01*
X41131905Y-8454819D02*
X41036667Y-8407200D01*
X41036667Y-8407200D02*
X40989048Y-8359580D01*
X40989048Y-8359580D02*
X40941429Y-8264342D01*
X40941429Y-8264342D02*
X40941429Y-8073866D01*
X40941429Y-8073866D02*
X40989048Y-7978628D01*
X40989048Y-7978628D02*
X41036667Y-7931009D01*
X41036667Y-7931009D02*
X41131905Y-7883390D01*
X37989047Y-8788152D02*
X37989047Y-7359580D01*
X35036665Y-7550057D02*
X34989046Y-7502438D01*
X34989046Y-7502438D02*
X34893808Y-7454819D01*
X34893808Y-7454819D02*
X34655713Y-7454819D01*
X34655713Y-7454819D02*
X34560475Y-7502438D01*
X34560475Y-7502438D02*
X34512856Y-7550057D01*
X34512856Y-7550057D02*
X34465237Y-7645295D01*
X34465237Y-7645295D02*
X34465237Y-7740533D01*
X34465237Y-7740533D02*
X34512856Y-7883390D01*
X34512856Y-7883390D02*
X35084284Y-8454819D01*
X35084284Y-8454819D02*
X34465237Y-8454819D01*
X34036665Y-8073866D02*
X33274761Y-8073866D01*
X32893808Y-7454819D02*
X32274761Y-7454819D01*
X32274761Y-7454819D02*
X32608094Y-7835771D01*
X32608094Y-7835771D02*
X32465237Y-7835771D01*
X32465237Y-7835771D02*
X32369999Y-7883390D01*
X32369999Y-7883390D02*
X32322380Y-7931009D01*
X32322380Y-7931009D02*
X32274761Y-8026247D01*
X32274761Y-8026247D02*
X32274761Y-8264342D01*
X32274761Y-8264342D02*
X32322380Y-8359580D01*
X32322380Y-8359580D02*
X32369999Y-8407200D01*
X32369999Y-8407200D02*
X32465237Y-8454819D01*
X32465237Y-8454819D02*
X32750951Y-8454819D01*
X32750951Y-8454819D02*
X32846189Y-8407200D01*
X32846189Y-8407200D02*
X32893808Y-8359580D01*
X31084284Y-7931009D02*
X30322380Y-7931009D01*
X30322380Y-8216723D02*
X31084284Y-8216723D01*
X28512856Y-8454819D02*
X28846189Y-7978628D01*
X29084284Y-8454819D02*
X29084284Y-7454819D01*
X29084284Y-7454819D02*
X28703332Y-7454819D01*
X28703332Y-7454819D02*
X28608094Y-7502438D01*
X28608094Y-7502438D02*
X28560475Y-7550057D01*
X28560475Y-7550057D02*
X28512856Y-7645295D01*
X28512856Y-7645295D02*
X28512856Y-7788152D01*
X28512856Y-7788152D02*
X28560475Y-7883390D01*
X28560475Y-7883390D02*
X28608094Y-7931009D01*
X28608094Y-7931009D02*
X28703332Y-7978628D01*
X28703332Y-7978628D02*
X29084284Y-7978628D01*
X27893808Y-7454819D02*
X27703332Y-7454819D01*
X27703332Y-7454819D02*
X27608094Y-7502438D01*
X27608094Y-7502438D02*
X27512856Y-7597676D01*
X27512856Y-7597676D02*
X27465237Y-7788152D01*
X27465237Y-7788152D02*
X27465237Y-8121485D01*
X27465237Y-8121485D02*
X27512856Y-8311961D01*
X27512856Y-8311961D02*
X27608094Y-8407200D01*
X27608094Y-8407200D02*
X27703332Y-8454819D01*
X27703332Y-8454819D02*
X27893808Y-8454819D01*
X27893808Y-8454819D02*
X27989046Y-8407200D01*
X27989046Y-8407200D02*
X28084284Y-8311961D01*
X28084284Y-8311961D02*
X28131903Y-8121485D01*
X28131903Y-8121485D02*
X28131903Y-7788152D01*
X28131903Y-7788152D02*
X28084284Y-7597676D01*
X28084284Y-7597676D02*
X27989046Y-7502438D01*
X27989046Y-7502438D02*
X27893808Y-7454819D01*
X27036665Y-8454819D02*
X27036665Y-7454819D01*
X27036665Y-7454819D02*
X26703332Y-8169104D01*
X26703332Y-8169104D02*
X26369999Y-7454819D01*
X26369999Y-7454819D02*
X26369999Y-8454819D01*
X24703332Y-8454819D02*
X24703332Y-7454819D01*
X24703332Y-8407200D02*
X24798570Y-8454819D01*
X24798570Y-8454819D02*
X24989046Y-8454819D01*
X24989046Y-8454819D02*
X25084284Y-8407200D01*
X25084284Y-8407200D02*
X25131903Y-8359580D01*
X25131903Y-8359580D02*
X25179522Y-8264342D01*
X25179522Y-8264342D02*
X25179522Y-7978628D01*
X25179522Y-7978628D02*
X25131903Y-7883390D01*
X25131903Y-7883390D02*
X25084284Y-7835771D01*
X25084284Y-7835771D02*
X24989046Y-7788152D01*
X24989046Y-7788152D02*
X24798570Y-7788152D01*
X24798570Y-7788152D02*
X24703332Y-7835771D01*
X24084284Y-8454819D02*
X24179522Y-8407200D01*
X24179522Y-8407200D02*
X24227141Y-8359580D01*
X24227141Y-8359580D02*
X24274760Y-8264342D01*
X24274760Y-8264342D02*
X24274760Y-7978628D01*
X24274760Y-7978628D02*
X24227141Y-7883390D01*
X24227141Y-7883390D02*
X24179522Y-7835771D01*
X24179522Y-7835771D02*
X24084284Y-7788152D01*
X24084284Y-7788152D02*
X23941427Y-7788152D01*
X23941427Y-7788152D02*
X23846189Y-7835771D01*
X23846189Y-7835771D02*
X23798570Y-7883390D01*
X23798570Y-7883390D02*
X23750951Y-7978628D01*
X23750951Y-7978628D02*
X23750951Y-8264342D01*
X23750951Y-8264342D02*
X23798570Y-8359580D01*
X23798570Y-8359580D02*
X23846189Y-8407200D01*
X23846189Y-8407200D02*
X23941427Y-8454819D01*
X23941427Y-8454819D02*
X24084284Y-8454819D01*
X22703331Y-7454819D02*
X22131903Y-7454819D01*
X22417617Y-8454819D02*
X22417617Y-7454819D01*
X21798569Y-8454819D02*
X21798569Y-7454819D01*
X21227141Y-8454819D02*
X21655712Y-7883390D01*
X21227141Y-7454819D02*
X21798569Y-8026247D01*
X63608098Y-10454819D02*
X63608098Y-11169104D01*
X63608098Y-11169104D02*
X63655717Y-11311961D01*
X63655717Y-11311961D02*
X63750955Y-11407200D01*
X63750955Y-11407200D02*
X63893812Y-11454819D01*
X63893812Y-11454819D02*
X63989050Y-11454819D01*
X63131907Y-11454819D02*
X63131907Y-10454819D01*
X63131907Y-10454819D02*
X62750955Y-10454819D01*
X62750955Y-10454819D02*
X62655717Y-10502438D01*
X62655717Y-10502438D02*
X62608098Y-10550057D01*
X62608098Y-10550057D02*
X62560479Y-10645295D01*
X62560479Y-10645295D02*
X62560479Y-10788152D01*
X62560479Y-10788152D02*
X62608098Y-10883390D01*
X62608098Y-10883390D02*
X62655717Y-10931009D01*
X62655717Y-10931009D02*
X62750955Y-10978628D01*
X62750955Y-10978628D02*
X63131907Y-10978628D01*
X62179526Y-10550057D02*
X62131907Y-10502438D01*
X62131907Y-10502438D02*
X62036669Y-10454819D01*
X62036669Y-10454819D02*
X61798574Y-10454819D01*
X61798574Y-10454819D02*
X61703336Y-10502438D01*
X61703336Y-10502438D02*
X61655717Y-10550057D01*
X61655717Y-10550057D02*
X61608098Y-10645295D01*
X61608098Y-10645295D02*
X61608098Y-10740533D01*
X61608098Y-10740533D02*
X61655717Y-10883390D01*
X61655717Y-10883390D02*
X62227145Y-11454819D01*
X62227145Y-11454819D02*
X61608098Y-11454819D01*
X59227145Y-11454819D02*
X59227145Y-10931009D01*
X59227145Y-10931009D02*
X59274764Y-10835771D01*
X59274764Y-10835771D02*
X59370002Y-10788152D01*
X59370002Y-10788152D02*
X59560478Y-10788152D01*
X59560478Y-10788152D02*
X59655716Y-10835771D01*
X59227145Y-11407200D02*
X59322383Y-11454819D01*
X59322383Y-11454819D02*
X59560478Y-11454819D01*
X59560478Y-11454819D02*
X59655716Y-11407200D01*
X59655716Y-11407200D02*
X59703335Y-11311961D01*
X59703335Y-11311961D02*
X59703335Y-11216723D01*
X59703335Y-11216723D02*
X59655716Y-11121485D01*
X59655716Y-11121485D02*
X59560478Y-11073866D01*
X59560478Y-11073866D02*
X59322383Y-11073866D01*
X59322383Y-11073866D02*
X59227145Y-11026247D01*
X58750954Y-11454819D02*
X58750954Y-10454819D01*
X58750954Y-10835771D02*
X58655716Y-10788152D01*
X58655716Y-10788152D02*
X58465240Y-10788152D01*
X58465240Y-10788152D02*
X58370002Y-10835771D01*
X58370002Y-10835771D02*
X58322383Y-10883390D01*
X58322383Y-10883390D02*
X58274764Y-10978628D01*
X58274764Y-10978628D02*
X58274764Y-11264342D01*
X58274764Y-11264342D02*
X58322383Y-11359580D01*
X58322383Y-11359580D02*
X58370002Y-11407200D01*
X58370002Y-11407200D02*
X58465240Y-11454819D01*
X58465240Y-11454819D02*
X58655716Y-11454819D01*
X58655716Y-11454819D02*
X58750954Y-11407200D01*
X57465240Y-11407200D02*
X57560478Y-11454819D01*
X57560478Y-11454819D02*
X57750954Y-11454819D01*
X57750954Y-11454819D02*
X57846192Y-11407200D01*
X57846192Y-11407200D02*
X57893811Y-11311961D01*
X57893811Y-11311961D02*
X57893811Y-10931009D01*
X57893811Y-10931009D02*
X57846192Y-10835771D01*
X57846192Y-10835771D02*
X57750954Y-10788152D01*
X57750954Y-10788152D02*
X57560478Y-10788152D01*
X57560478Y-10788152D02*
X57465240Y-10835771D01*
X57465240Y-10835771D02*
X57417621Y-10931009D01*
X57417621Y-10931009D02*
X57417621Y-11026247D01*
X57417621Y-11026247D02*
X57893811Y-11121485D01*
X56989049Y-11454819D02*
X56989049Y-10788152D01*
X56989049Y-10978628D02*
X56941430Y-10883390D01*
X56941430Y-10883390D02*
X56893811Y-10835771D01*
X56893811Y-10835771D02*
X56798573Y-10788152D01*
X56798573Y-10788152D02*
X56703335Y-10788152D01*
X56512858Y-10788152D02*
X56131906Y-10788152D01*
X56370001Y-10454819D02*
X56370001Y-11311961D01*
X56370001Y-11311961D02*
X56322382Y-11407200D01*
X56322382Y-11407200D02*
X56227144Y-11454819D01*
X56227144Y-11454819D02*
X56131906Y-11454819D01*
X55655715Y-11454819D02*
X55750953Y-11407200D01*
X55750953Y-11407200D02*
X55798572Y-11359580D01*
X55798572Y-11359580D02*
X55846191Y-11264342D01*
X55846191Y-11264342D02*
X55846191Y-10978628D01*
X55846191Y-10978628D02*
X55798572Y-10883390D01*
X55798572Y-10883390D02*
X55750953Y-10835771D01*
X55750953Y-10835771D02*
X55655715Y-10788152D01*
X55655715Y-10788152D02*
X55512858Y-10788152D01*
X55512858Y-10788152D02*
X55417620Y-10835771D01*
X55417620Y-10835771D02*
X55370001Y-10883390D01*
X55370001Y-10883390D02*
X55322382Y-10978628D01*
X55322382Y-10978628D02*
X55322382Y-11264342D01*
X55322382Y-11264342D02*
X55370001Y-11359580D01*
X55370001Y-11359580D02*
X55417620Y-11407200D01*
X55417620Y-11407200D02*
X55512858Y-11454819D01*
X55512858Y-11454819D02*
X55655715Y-11454819D01*
X54131905Y-10931009D02*
X53370001Y-10931009D01*
X53370001Y-11216723D02*
X54131905Y-11216723D01*
X51560477Y-11454819D02*
X51893810Y-10978628D01*
X52131905Y-11454819D02*
X52131905Y-10454819D01*
X52131905Y-10454819D02*
X51750953Y-10454819D01*
X51750953Y-10454819D02*
X51655715Y-10502438D01*
X51655715Y-10502438D02*
X51608096Y-10550057D01*
X51608096Y-10550057D02*
X51560477Y-10645295D01*
X51560477Y-10645295D02*
X51560477Y-10788152D01*
X51560477Y-10788152D02*
X51608096Y-10883390D01*
X51608096Y-10883390D02*
X51655715Y-10931009D01*
X51655715Y-10931009D02*
X51750953Y-10978628D01*
X51750953Y-10978628D02*
X52131905Y-10978628D01*
X50941429Y-10454819D02*
X50750953Y-10454819D01*
X50750953Y-10454819D02*
X50655715Y-10502438D01*
X50655715Y-10502438D02*
X50560477Y-10597676D01*
X50560477Y-10597676D02*
X50512858Y-10788152D01*
X50512858Y-10788152D02*
X50512858Y-11121485D01*
X50512858Y-11121485D02*
X50560477Y-11311961D01*
X50560477Y-11311961D02*
X50655715Y-11407200D01*
X50655715Y-11407200D02*
X50750953Y-11454819D01*
X50750953Y-11454819D02*
X50941429Y-11454819D01*
X50941429Y-11454819D02*
X51036667Y-11407200D01*
X51036667Y-11407200D02*
X51131905Y-11311961D01*
X51131905Y-11311961D02*
X51179524Y-11121485D01*
X51179524Y-11121485D02*
X51179524Y-10788152D01*
X51179524Y-10788152D02*
X51131905Y-10597676D01*
X51131905Y-10597676D02*
X51036667Y-10502438D01*
X51036667Y-10502438D02*
X50941429Y-10454819D01*
X50084286Y-11454819D02*
X50084286Y-10454819D01*
X50084286Y-10454819D02*
X49750953Y-11169104D01*
X49750953Y-11169104D02*
X49417620Y-10454819D01*
X49417620Y-10454819D02*
X49417620Y-11454819D01*
X47750953Y-11454819D02*
X47750953Y-10454819D01*
X47750953Y-11407200D02*
X47846191Y-11454819D01*
X47846191Y-11454819D02*
X48036667Y-11454819D01*
X48036667Y-11454819D02*
X48131905Y-11407200D01*
X48131905Y-11407200D02*
X48179524Y-11359580D01*
X48179524Y-11359580D02*
X48227143Y-11264342D01*
X48227143Y-11264342D02*
X48227143Y-10978628D01*
X48227143Y-10978628D02*
X48179524Y-10883390D01*
X48179524Y-10883390D02*
X48131905Y-10835771D01*
X48131905Y-10835771D02*
X48036667Y-10788152D01*
X48036667Y-10788152D02*
X47846191Y-10788152D01*
X47846191Y-10788152D02*
X47750953Y-10835771D01*
X47131905Y-11454819D02*
X47227143Y-11407200D01*
X47227143Y-11407200D02*
X47274762Y-11359580D01*
X47274762Y-11359580D02*
X47322381Y-11264342D01*
X47322381Y-11264342D02*
X47322381Y-10978628D01*
X47322381Y-10978628D02*
X47274762Y-10883390D01*
X47274762Y-10883390D02*
X47227143Y-10835771D01*
X47227143Y-10835771D02*
X47131905Y-10788152D01*
X47131905Y-10788152D02*
X46989048Y-10788152D01*
X46989048Y-10788152D02*
X46893810Y-10835771D01*
X46893810Y-10835771D02*
X46846191Y-10883390D01*
X46846191Y-10883390D02*
X46798572Y-10978628D01*
X46798572Y-10978628D02*
X46798572Y-11264342D01*
X46798572Y-11264342D02*
X46846191Y-11359580D01*
X46846191Y-11359580D02*
X46893810Y-11407200D01*
X46893810Y-11407200D02*
X46989048Y-11454819D01*
X46989048Y-11454819D02*
X47131905Y-11454819D01*
X45750952Y-10454819D02*
X45179524Y-10454819D01*
X45465238Y-11454819D02*
X45465238Y-10454819D01*
X44846190Y-11454819D02*
X44846190Y-10454819D01*
X44274762Y-11454819D02*
X44703333Y-10883390D01*
X44274762Y-10454819D02*
X44846190Y-11026247D01*
X42084285Y-11788152D02*
X42084285Y-10359580D01*
X39322380Y-11454819D02*
X39893808Y-11454819D01*
X39608094Y-11454819D02*
X39608094Y-10454819D01*
X39608094Y-10454819D02*
X39703332Y-10597676D01*
X39703332Y-10597676D02*
X39798570Y-10692914D01*
X39798570Y-10692914D02*
X39893808Y-10740533D01*
X38893808Y-11073866D02*
X38131904Y-11073866D01*
X37703332Y-10550057D02*
X37655713Y-10502438D01*
X37655713Y-10502438D02*
X37560475Y-10454819D01*
X37560475Y-10454819D02*
X37322380Y-10454819D01*
X37322380Y-10454819D02*
X37227142Y-10502438D01*
X37227142Y-10502438D02*
X37179523Y-10550057D01*
X37179523Y-10550057D02*
X37131904Y-10645295D01*
X37131904Y-10645295D02*
X37131904Y-10740533D01*
X37131904Y-10740533D02*
X37179523Y-10883390D01*
X37179523Y-10883390D02*
X37750951Y-11454819D01*
X37750951Y-11454819D02*
X37131904Y-11454819D01*
X35941427Y-10931009D02*
X35179523Y-10931009D01*
X35179523Y-11216723D02*
X35941427Y-11216723D01*
X33941427Y-10788152D02*
X33941427Y-11788152D01*
X33941427Y-10835771D02*
X33846189Y-10788152D01*
X33846189Y-10788152D02*
X33655713Y-10788152D01*
X33655713Y-10788152D02*
X33560475Y-10835771D01*
X33560475Y-10835771D02*
X33512856Y-10883390D01*
X33512856Y-10883390D02*
X33465237Y-10978628D01*
X33465237Y-10978628D02*
X33465237Y-11264342D01*
X33465237Y-11264342D02*
X33512856Y-11359580D01*
X33512856Y-11359580D02*
X33560475Y-11407200D01*
X33560475Y-11407200D02*
X33655713Y-11454819D01*
X33655713Y-11454819D02*
X33846189Y-11454819D01*
X33846189Y-11454819D02*
X33941427Y-11407200D01*
X32655713Y-11407200D02*
X32750951Y-11454819D01*
X32750951Y-11454819D02*
X32941427Y-11454819D01*
X32941427Y-11454819D02*
X33036665Y-11407200D01*
X33036665Y-11407200D02*
X33084284Y-11311961D01*
X33084284Y-11311961D02*
X33084284Y-10931009D01*
X33084284Y-10931009D02*
X33036665Y-10835771D01*
X33036665Y-10835771D02*
X32941427Y-10788152D01*
X32941427Y-10788152D02*
X32750951Y-10788152D01*
X32750951Y-10788152D02*
X32655713Y-10835771D01*
X32655713Y-10835771D02*
X32608094Y-10931009D01*
X32608094Y-10931009D02*
X32608094Y-11026247D01*
X32608094Y-11026247D02*
X33084284Y-11121485D01*
X32036665Y-11454819D02*
X32131903Y-11407200D01*
X32131903Y-11407200D02*
X32179522Y-11311961D01*
X32179522Y-11311961D02*
X32179522Y-10454819D01*
X31512855Y-11454819D02*
X31608093Y-11407200D01*
X31608093Y-11407200D02*
X31655712Y-11359580D01*
X31655712Y-11359580D02*
X31703331Y-11264342D01*
X31703331Y-11264342D02*
X31703331Y-10978628D01*
X31703331Y-10978628D02*
X31655712Y-10883390D01*
X31655712Y-10883390D02*
X31608093Y-10835771D01*
X31608093Y-10835771D02*
X31512855Y-10788152D01*
X31512855Y-10788152D02*
X31369998Y-10788152D01*
X31369998Y-10788152D02*
X31274760Y-10835771D01*
X31274760Y-10835771D02*
X31227141Y-10883390D01*
X31227141Y-10883390D02*
X31179522Y-10978628D01*
X31179522Y-10978628D02*
X31179522Y-11264342D01*
X31179522Y-11264342D02*
X31227141Y-11359580D01*
X31227141Y-11359580D02*
X31274760Y-11407200D01*
X31274760Y-11407200D02*
X31369998Y-11454819D01*
X31369998Y-11454819D02*
X31512855Y-11454819D01*
X29465236Y-10502438D02*
X29560474Y-10454819D01*
X29560474Y-10454819D02*
X29703331Y-10454819D01*
X29703331Y-10454819D02*
X29846188Y-10502438D01*
X29846188Y-10502438D02*
X29941426Y-10597676D01*
X29941426Y-10597676D02*
X29989045Y-10692914D01*
X29989045Y-10692914D02*
X30036664Y-10883390D01*
X30036664Y-10883390D02*
X30036664Y-11026247D01*
X30036664Y-11026247D02*
X29989045Y-11216723D01*
X29989045Y-11216723D02*
X29941426Y-11311961D01*
X29941426Y-11311961D02*
X29846188Y-11407200D01*
X29846188Y-11407200D02*
X29703331Y-11454819D01*
X29703331Y-11454819D02*
X29608093Y-11454819D01*
X29608093Y-11454819D02*
X29465236Y-11407200D01*
X29465236Y-11407200D02*
X29417617Y-11359580D01*
X29417617Y-11359580D02*
X29417617Y-11026247D01*
X29417617Y-11026247D02*
X29608093Y-11026247D01*
X29036664Y-11169104D02*
X28560474Y-11169104D01*
X29131902Y-11454819D02*
X28798569Y-10454819D01*
X28798569Y-10454819D02*
X28465236Y-11454819D01*
X27655712Y-11454819D02*
X28131902Y-11454819D01*
X28131902Y-11454819D02*
X28131902Y-10454819D01*
X25560473Y-11788152D02*
X25560473Y-10359580D01*
X23369996Y-10550057D02*
X23322377Y-10502438D01*
X23322377Y-10502438D02*
X23227139Y-10454819D01*
X23227139Y-10454819D02*
X22989044Y-10454819D01*
X22989044Y-10454819D02*
X22893806Y-10502438D01*
X22893806Y-10502438D02*
X22846187Y-10550057D01*
X22846187Y-10550057D02*
X22798568Y-10645295D01*
X22798568Y-10645295D02*
X22798568Y-10740533D01*
X22798568Y-10740533D02*
X22846187Y-10883390D01*
X22846187Y-10883390D02*
X23417615Y-11454819D01*
X23417615Y-11454819D02*
X22798568Y-11454819D01*
X22369996Y-11073866D02*
X21608092Y-11073866D01*
X21227139Y-10454819D02*
X20608092Y-10454819D01*
X20608092Y-10454819D02*
X20941425Y-10835771D01*
X20941425Y-10835771D02*
X20798568Y-10835771D01*
X20798568Y-10835771D02*
X20703330Y-10883390D01*
X20703330Y-10883390D02*
X20655711Y-10931009D01*
X20655711Y-10931009D02*
X20608092Y-11026247D01*
X20608092Y-11026247D02*
X20608092Y-11264342D01*
X20608092Y-11264342D02*
X20655711Y-11359580D01*
X20655711Y-11359580D02*
X20703330Y-11407200D01*
X20703330Y-11407200D02*
X20798568Y-11454819D01*
X20798568Y-11454819D02*
X21084282Y-11454819D01*
X21084282Y-11454819D02*
X21179520Y-11407200D01*
X21179520Y-11407200D02*
X21227139Y-11359580D01*
X19417615Y-10931009D02*
X18655711Y-10931009D01*
X18655711Y-11216723D02*
X19417615Y-11216723D01*
X17417615Y-11073866D02*
X16655711Y-11073866D01*
X17036663Y-11454819D02*
X17036663Y-10692914D01*
X15703330Y-10454819D02*
X16179520Y-10454819D01*
X16179520Y-10454819D02*
X16227139Y-10931009D01*
X16227139Y-10931009D02*
X16179520Y-10883390D01*
X16179520Y-10883390D02*
X16084282Y-10835771D01*
X16084282Y-10835771D02*
X15846187Y-10835771D01*
X15846187Y-10835771D02*
X15750949Y-10883390D01*
X15750949Y-10883390D02*
X15703330Y-10931009D01*
X15703330Y-10931009D02*
X15655711Y-11026247D01*
X15655711Y-11026247D02*
X15655711Y-11264342D01*
X15655711Y-11264342D02*
X15703330Y-11359580D01*
X15703330Y-11359580D02*
X15750949Y-11407200D01*
X15750949Y-11407200D02*
X15846187Y-11454819D01*
X15846187Y-11454819D02*
X16084282Y-11454819D01*
X16084282Y-11454819D02*
X16179520Y-11407200D01*
X16179520Y-11407200D02*
X16227139Y-11359580D01*
X15369996Y-10454819D02*
X15036663Y-11454819D01*
X15036663Y-11454819D02*
X14703330Y-10454819D01*
X52060477Y-13454819D02*
X52060477Y-14169104D01*
X52060477Y-14169104D02*
X52108096Y-14311961D01*
X52108096Y-14311961D02*
X52203334Y-14407200D01*
X52203334Y-14407200D02*
X52346191Y-14454819D01*
X52346191Y-14454819D02*
X52441429Y-14454819D01*
X51584286Y-14454819D02*
X51584286Y-13454819D01*
X51584286Y-13454819D02*
X51203334Y-13454819D01*
X51203334Y-13454819D02*
X51108096Y-13502438D01*
X51108096Y-13502438D02*
X51060477Y-13550057D01*
X51060477Y-13550057D02*
X51012858Y-13645295D01*
X51012858Y-13645295D02*
X51012858Y-13788152D01*
X51012858Y-13788152D02*
X51060477Y-13883390D01*
X51060477Y-13883390D02*
X51108096Y-13931009D01*
X51108096Y-13931009D02*
X51203334Y-13978628D01*
X51203334Y-13978628D02*
X51584286Y-13978628D01*
X50679524Y-13454819D02*
X50060477Y-13454819D01*
X50060477Y-13454819D02*
X50393810Y-13835771D01*
X50393810Y-13835771D02*
X50250953Y-13835771D01*
X50250953Y-13835771D02*
X50155715Y-13883390D01*
X50155715Y-13883390D02*
X50108096Y-13931009D01*
X50108096Y-13931009D02*
X50060477Y-14026247D01*
X50060477Y-14026247D02*
X50060477Y-14264342D01*
X50060477Y-14264342D02*
X50108096Y-14359580D01*
X50108096Y-14359580D02*
X50155715Y-14407200D01*
X50155715Y-14407200D02*
X50250953Y-14454819D01*
X50250953Y-14454819D02*
X50536667Y-14454819D01*
X50536667Y-14454819D02*
X50631905Y-14407200D01*
X50631905Y-14407200D02*
X50679524Y-14359580D01*
X48250952Y-13788152D02*
X47870000Y-13788152D01*
X48108095Y-14454819D02*
X48108095Y-13597676D01*
X48108095Y-13597676D02*
X48060476Y-13502438D01*
X48060476Y-13502438D02*
X47965238Y-13454819D01*
X47965238Y-13454819D02*
X47870000Y-13454819D01*
X47155714Y-14407200D02*
X47250952Y-14454819D01*
X47250952Y-14454819D02*
X47441428Y-14454819D01*
X47441428Y-14454819D02*
X47536666Y-14407200D01*
X47536666Y-14407200D02*
X47584285Y-14311961D01*
X47584285Y-14311961D02*
X47584285Y-13931009D01*
X47584285Y-13931009D02*
X47536666Y-13835771D01*
X47536666Y-13835771D02*
X47441428Y-13788152D01*
X47441428Y-13788152D02*
X47250952Y-13788152D01*
X47250952Y-13788152D02*
X47155714Y-13835771D01*
X47155714Y-13835771D02*
X47108095Y-13931009D01*
X47108095Y-13931009D02*
X47108095Y-14026247D01*
X47108095Y-14026247D02*
X47584285Y-14121485D01*
X46250952Y-14407200D02*
X46346190Y-14454819D01*
X46346190Y-14454819D02*
X46536666Y-14454819D01*
X46536666Y-14454819D02*
X46631904Y-14407200D01*
X46631904Y-14407200D02*
X46679523Y-14359580D01*
X46679523Y-14359580D02*
X46727142Y-14264342D01*
X46727142Y-14264342D02*
X46727142Y-13978628D01*
X46727142Y-13978628D02*
X46679523Y-13883390D01*
X46679523Y-13883390D02*
X46631904Y-13835771D01*
X46631904Y-13835771D02*
X46536666Y-13788152D01*
X46536666Y-13788152D02*
X46346190Y-13788152D01*
X46346190Y-13788152D02*
X46250952Y-13835771D01*
X45822380Y-14454819D02*
X45822380Y-13454819D01*
X45393809Y-14454819D02*
X45393809Y-13931009D01*
X45393809Y-13931009D02*
X45441428Y-13835771D01*
X45441428Y-13835771D02*
X45536666Y-13788152D01*
X45536666Y-13788152D02*
X45679523Y-13788152D01*
X45679523Y-13788152D02*
X45774761Y-13835771D01*
X45774761Y-13835771D02*
X45822380Y-13883390D01*
X44489047Y-14454819D02*
X44489047Y-13931009D01*
X44489047Y-13931009D02*
X44536666Y-13835771D01*
X44536666Y-13835771D02*
X44631904Y-13788152D01*
X44631904Y-13788152D02*
X44822380Y-13788152D01*
X44822380Y-13788152D02*
X44917618Y-13835771D01*
X44489047Y-14407200D02*
X44584285Y-14454819D01*
X44584285Y-14454819D02*
X44822380Y-14454819D01*
X44822380Y-14454819D02*
X44917618Y-14407200D01*
X44917618Y-14407200D02*
X44965237Y-14311961D01*
X44965237Y-14311961D02*
X44965237Y-14216723D01*
X44965237Y-14216723D02*
X44917618Y-14121485D01*
X44917618Y-14121485D02*
X44822380Y-14073866D01*
X44822380Y-14073866D02*
X44584285Y-14073866D01*
X44584285Y-14073866D02*
X44489047Y-14026247D01*
X43584285Y-14454819D02*
X43584285Y-13454819D01*
X43584285Y-14407200D02*
X43679523Y-14454819D01*
X43679523Y-14454819D02*
X43869999Y-14454819D01*
X43869999Y-14454819D02*
X43965237Y-14407200D01*
X43965237Y-14407200D02*
X44012856Y-14359580D01*
X44012856Y-14359580D02*
X44060475Y-14264342D01*
X44060475Y-14264342D02*
X44060475Y-13978628D01*
X44060475Y-13978628D02*
X44012856Y-13883390D01*
X44012856Y-13883390D02*
X43965237Y-13835771D01*
X43965237Y-13835771D02*
X43869999Y-13788152D01*
X43869999Y-13788152D02*
X43679523Y-13788152D01*
X43679523Y-13788152D02*
X43584285Y-13835771D01*
X42965237Y-14454819D02*
X43060475Y-14407200D01*
X43060475Y-14407200D02*
X43108094Y-14359580D01*
X43108094Y-14359580D02*
X43155713Y-14264342D01*
X43155713Y-14264342D02*
X43155713Y-13978628D01*
X43155713Y-13978628D02*
X43108094Y-13883390D01*
X43108094Y-13883390D02*
X43060475Y-13835771D01*
X43060475Y-13835771D02*
X42965237Y-13788152D01*
X42965237Y-13788152D02*
X42822380Y-13788152D01*
X42822380Y-13788152D02*
X42727142Y-13835771D01*
X42727142Y-13835771D02*
X42679523Y-13883390D01*
X42679523Y-13883390D02*
X42631904Y-13978628D01*
X42631904Y-13978628D02*
X42631904Y-14264342D01*
X42631904Y-14264342D02*
X42679523Y-14359580D01*
X42679523Y-14359580D02*
X42727142Y-14407200D01*
X42727142Y-14407200D02*
X42822380Y-14454819D01*
X42822380Y-14454819D02*
X42965237Y-14454819D01*
X41441427Y-13931009D02*
X40679523Y-13931009D01*
X40679523Y-14216723D02*
X41441427Y-14216723D01*
X38965237Y-13454819D02*
X39441427Y-13454819D01*
X39441427Y-13454819D02*
X39489046Y-13931009D01*
X39489046Y-13931009D02*
X39441427Y-13883390D01*
X39441427Y-13883390D02*
X39346189Y-13835771D01*
X39346189Y-13835771D02*
X39108094Y-13835771D01*
X39108094Y-13835771D02*
X39012856Y-13883390D01*
X39012856Y-13883390D02*
X38965237Y-13931009D01*
X38965237Y-13931009D02*
X38917618Y-14026247D01*
X38917618Y-14026247D02*
X38917618Y-14264342D01*
X38917618Y-14264342D02*
X38965237Y-14359580D01*
X38965237Y-14359580D02*
X39012856Y-14407200D01*
X39012856Y-14407200D02*
X39108094Y-14454819D01*
X39108094Y-14454819D02*
X39346189Y-14454819D01*
X39346189Y-14454819D02*
X39441427Y-14407200D01*
X39441427Y-14407200D02*
X39489046Y-14359580D01*
X37965237Y-14454819D02*
X38536665Y-14454819D01*
X38250951Y-14454819D02*
X38250951Y-13454819D01*
X38250951Y-13454819D02*
X38346189Y-13597676D01*
X38346189Y-13597676D02*
X38441427Y-13692914D01*
X38441427Y-13692914D02*
X38536665Y-13740533D01*
X37584284Y-13550057D02*
X37536665Y-13502438D01*
X37536665Y-13502438D02*
X37441427Y-13454819D01*
X37441427Y-13454819D02*
X37203332Y-13454819D01*
X37203332Y-13454819D02*
X37108094Y-13502438D01*
X37108094Y-13502438D02*
X37060475Y-13550057D01*
X37060475Y-13550057D02*
X37012856Y-13645295D01*
X37012856Y-13645295D02*
X37012856Y-13740533D01*
X37012856Y-13740533D02*
X37060475Y-13883390D01*
X37060475Y-13883390D02*
X37631903Y-14454819D01*
X37631903Y-14454819D02*
X37012856Y-14454819D01*
X36584284Y-14454819D02*
X36584284Y-13454819D01*
X36012856Y-14454819D02*
X36441427Y-13883390D01*
X36012856Y-13454819D02*
X36584284Y-14026247D01*
X34536665Y-14835771D02*
X34584284Y-14788152D01*
X34584284Y-14788152D02*
X34679522Y-14645295D01*
X34679522Y-14645295D02*
X34727141Y-14550057D01*
X34727141Y-14550057D02*
X34774760Y-14407200D01*
X34774760Y-14407200D02*
X34822379Y-14169104D01*
X34822379Y-14169104D02*
X34822379Y-13978628D01*
X34822379Y-13978628D02*
X34774760Y-13740533D01*
X34774760Y-13740533D02*
X34727141Y-13597676D01*
X34727141Y-13597676D02*
X34679522Y-13502438D01*
X34679522Y-13502438D02*
X34584284Y-13359580D01*
X34584284Y-13359580D02*
X34536665Y-13311961D01*
X34203331Y-14169104D02*
X33727141Y-14169104D01*
X34298569Y-14454819D02*
X33965236Y-13454819D01*
X33965236Y-13454819D02*
X33631903Y-14454819D01*
X33346188Y-14407200D02*
X33203331Y-14454819D01*
X33203331Y-14454819D02*
X32965236Y-14454819D01*
X32965236Y-14454819D02*
X32869998Y-14407200D01*
X32869998Y-14407200D02*
X32822379Y-14359580D01*
X32822379Y-14359580D02*
X32774760Y-14264342D01*
X32774760Y-14264342D02*
X32774760Y-14169104D01*
X32774760Y-14169104D02*
X32822379Y-14073866D01*
X32822379Y-14073866D02*
X32869998Y-14026247D01*
X32869998Y-14026247D02*
X32965236Y-13978628D01*
X32965236Y-13978628D02*
X33155712Y-13931009D01*
X33155712Y-13931009D02*
X33250950Y-13883390D01*
X33250950Y-13883390D02*
X33298569Y-13835771D01*
X33298569Y-13835771D02*
X33346188Y-13740533D01*
X33346188Y-13740533D02*
X33346188Y-13645295D01*
X33346188Y-13645295D02*
X33298569Y-13550057D01*
X33298569Y-13550057D02*
X33250950Y-13502438D01*
X33250950Y-13502438D02*
X33155712Y-13454819D01*
X33155712Y-13454819D02*
X32917617Y-13454819D01*
X32917617Y-13454819D02*
X32774760Y-13502438D01*
X31917617Y-13454819D02*
X32108093Y-13454819D01*
X32108093Y-13454819D02*
X32203331Y-13502438D01*
X32203331Y-13502438D02*
X32250950Y-13550057D01*
X32250950Y-13550057D02*
X32346188Y-13692914D01*
X32346188Y-13692914D02*
X32393807Y-13883390D01*
X32393807Y-13883390D02*
X32393807Y-14264342D01*
X32393807Y-14264342D02*
X32346188Y-14359580D01*
X32346188Y-14359580D02*
X32298569Y-14407200D01*
X32298569Y-14407200D02*
X32203331Y-14454819D01*
X32203331Y-14454819D02*
X32012855Y-14454819D01*
X32012855Y-14454819D02*
X31917617Y-14407200D01*
X31917617Y-14407200D02*
X31869998Y-14359580D01*
X31869998Y-14359580D02*
X31822379Y-14264342D01*
X31822379Y-14264342D02*
X31822379Y-14026247D01*
X31822379Y-14026247D02*
X31869998Y-13931009D01*
X31869998Y-13931009D02*
X31917617Y-13883390D01*
X31917617Y-13883390D02*
X32012855Y-13835771D01*
X32012855Y-13835771D02*
X32203331Y-13835771D01*
X32203331Y-13835771D02*
X32298569Y-13883390D01*
X32298569Y-13883390D02*
X32346188Y-13931009D01*
X32346188Y-13931009D02*
X32393807Y-14026247D01*
X30822379Y-14359580D02*
X30869998Y-14407200D01*
X30869998Y-14407200D02*
X31012855Y-14454819D01*
X31012855Y-14454819D02*
X31108093Y-14454819D01*
X31108093Y-14454819D02*
X31250950Y-14407200D01*
X31250950Y-14407200D02*
X31346188Y-14311961D01*
X31346188Y-14311961D02*
X31393807Y-14216723D01*
X31393807Y-14216723D02*
X31441426Y-14026247D01*
X31441426Y-14026247D02*
X31441426Y-13883390D01*
X31441426Y-13883390D02*
X31393807Y-13692914D01*
X31393807Y-13692914D02*
X31346188Y-13597676D01*
X31346188Y-13597676D02*
X31250950Y-13502438D01*
X31250950Y-13502438D02*
X31108093Y-13454819D01*
X31108093Y-13454819D02*
X31012855Y-13454819D01*
X31012855Y-13454819D02*
X30869998Y-13502438D01*
X30869998Y-13502438D02*
X30822379Y-13550057D01*
X29965236Y-13788152D02*
X29965236Y-14454819D01*
X30203331Y-13407200D02*
X30441426Y-14121485D01*
X30441426Y-14121485D02*
X29822379Y-14121485D01*
X29250950Y-13454819D02*
X29155712Y-13454819D01*
X29155712Y-13454819D02*
X29060474Y-13502438D01*
X29060474Y-13502438D02*
X29012855Y-13550057D01*
X29012855Y-13550057D02*
X28965236Y-13645295D01*
X28965236Y-13645295D02*
X28917617Y-13835771D01*
X28917617Y-13835771D02*
X28917617Y-14073866D01*
X28917617Y-14073866D02*
X28965236Y-14264342D01*
X28965236Y-14264342D02*
X29012855Y-14359580D01*
X29012855Y-14359580D02*
X29060474Y-14407200D01*
X29060474Y-14407200D02*
X29155712Y-14454819D01*
X29155712Y-14454819D02*
X29250950Y-14454819D01*
X29250950Y-14454819D02*
X29346188Y-14407200D01*
X29346188Y-14407200D02*
X29393807Y-14359580D01*
X29393807Y-14359580D02*
X29441426Y-14264342D01*
X29441426Y-14264342D02*
X29489045Y-14073866D01*
X29489045Y-14073866D02*
X29489045Y-13835771D01*
X29489045Y-13835771D02*
X29441426Y-13645295D01*
X29441426Y-13645295D02*
X29393807Y-13550057D01*
X29393807Y-13550057D02*
X29346188Y-13502438D01*
X29346188Y-13502438D02*
X29250950Y-13454819D01*
X28298569Y-13454819D02*
X28203331Y-13454819D01*
X28203331Y-13454819D02*
X28108093Y-13502438D01*
X28108093Y-13502438D02*
X28060474Y-13550057D01*
X28060474Y-13550057D02*
X28012855Y-13645295D01*
X28012855Y-13645295D02*
X27965236Y-13835771D01*
X27965236Y-13835771D02*
X27965236Y-14073866D01*
X27965236Y-14073866D02*
X28012855Y-14264342D01*
X28012855Y-14264342D02*
X28060474Y-14359580D01*
X28060474Y-14359580D02*
X28108093Y-14407200D01*
X28108093Y-14407200D02*
X28203331Y-14454819D01*
X28203331Y-14454819D02*
X28298569Y-14454819D01*
X28298569Y-14454819D02*
X28393807Y-14407200D01*
X28393807Y-14407200D02*
X28441426Y-14359580D01*
X28441426Y-14359580D02*
X28489045Y-14264342D01*
X28489045Y-14264342D02*
X28536664Y-14073866D01*
X28536664Y-14073866D02*
X28536664Y-13835771D01*
X28536664Y-13835771D02*
X28489045Y-13645295D01*
X28489045Y-13645295D02*
X28441426Y-13550057D01*
X28441426Y-13550057D02*
X28393807Y-13502438D01*
X28393807Y-13502438D02*
X28298569Y-13454819D01*
X27393807Y-13883390D02*
X27489045Y-13835771D01*
X27489045Y-13835771D02*
X27536664Y-13788152D01*
X27536664Y-13788152D02*
X27584283Y-13692914D01*
X27584283Y-13692914D02*
X27584283Y-13645295D01*
X27584283Y-13645295D02*
X27536664Y-13550057D01*
X27536664Y-13550057D02*
X27489045Y-13502438D01*
X27489045Y-13502438D02*
X27393807Y-13454819D01*
X27393807Y-13454819D02*
X27203331Y-13454819D01*
X27203331Y-13454819D02*
X27108093Y-13502438D01*
X27108093Y-13502438D02*
X27060474Y-13550057D01*
X27060474Y-13550057D02*
X27012855Y-13645295D01*
X27012855Y-13645295D02*
X27012855Y-13692914D01*
X27012855Y-13692914D02*
X27060474Y-13788152D01*
X27060474Y-13788152D02*
X27108093Y-13835771D01*
X27108093Y-13835771D02*
X27203331Y-13883390D01*
X27203331Y-13883390D02*
X27393807Y-13883390D01*
X27393807Y-13883390D02*
X27489045Y-13931009D01*
X27489045Y-13931009D02*
X27536664Y-13978628D01*
X27536664Y-13978628D02*
X27584283Y-14073866D01*
X27584283Y-14073866D02*
X27584283Y-14264342D01*
X27584283Y-14264342D02*
X27536664Y-14359580D01*
X27536664Y-14359580D02*
X27489045Y-14407200D01*
X27489045Y-14407200D02*
X27393807Y-14454819D01*
X27393807Y-14454819D02*
X27203331Y-14454819D01*
X27203331Y-14454819D02*
X27108093Y-14407200D01*
X27108093Y-14407200D02*
X27060474Y-14359580D01*
X27060474Y-14359580D02*
X27012855Y-14264342D01*
X27012855Y-14264342D02*
X27012855Y-14073866D01*
X27012855Y-14073866D02*
X27060474Y-13978628D01*
X27060474Y-13978628D02*
X27108093Y-13931009D01*
X27108093Y-13931009D02*
X27203331Y-13883390D01*
X26679521Y-14835771D02*
X26631902Y-14788152D01*
X26631902Y-14788152D02*
X26536664Y-14645295D01*
X26536664Y-14645295D02*
X26489045Y-14550057D01*
X26489045Y-14550057D02*
X26441426Y-14407200D01*
X26441426Y-14407200D02*
X26393807Y-14169104D01*
X26393807Y-14169104D02*
X26393807Y-13978628D01*
X26393807Y-13978628D02*
X26441426Y-13740533D01*
X26441426Y-13740533D02*
X26489045Y-13597676D01*
X26489045Y-13597676D02*
X26536664Y-13502438D01*
X26536664Y-13502438D02*
X26631902Y-13359580D01*
X26631902Y-13359580D02*
X26679521Y-13311961D01*
X59012859Y-16454819D02*
X59012859Y-17169104D01*
X59012859Y-17169104D02*
X59060478Y-17311961D01*
X59060478Y-17311961D02*
X59155716Y-17407200D01*
X59155716Y-17407200D02*
X59298573Y-17454819D01*
X59298573Y-17454819D02*
X59393811Y-17454819D01*
X58536668Y-17454819D02*
X58536668Y-16454819D01*
X58536668Y-16454819D02*
X58155716Y-16454819D01*
X58155716Y-16454819D02*
X58060478Y-16502438D01*
X58060478Y-16502438D02*
X58012859Y-16550057D01*
X58012859Y-16550057D02*
X57965240Y-16645295D01*
X57965240Y-16645295D02*
X57965240Y-16788152D01*
X57965240Y-16788152D02*
X58012859Y-16883390D01*
X58012859Y-16883390D02*
X58060478Y-16931009D01*
X58060478Y-16931009D02*
X58155716Y-16978628D01*
X58155716Y-16978628D02*
X58536668Y-16978628D01*
X57108097Y-16788152D02*
X57108097Y-17454819D01*
X57346192Y-16407200D02*
X57584287Y-17121485D01*
X57584287Y-17121485D02*
X56965240Y-17121485D01*
X55203334Y-16788152D02*
X54822382Y-16788152D01*
X55060477Y-17454819D02*
X55060477Y-16597676D01*
X55060477Y-16597676D02*
X55012858Y-16502438D01*
X55012858Y-16502438D02*
X54917620Y-16454819D01*
X54917620Y-16454819D02*
X54822382Y-16454819D01*
X54108096Y-17407200D02*
X54203334Y-17454819D01*
X54203334Y-17454819D02*
X54393810Y-17454819D01*
X54393810Y-17454819D02*
X54489048Y-17407200D01*
X54489048Y-17407200D02*
X54536667Y-17311961D01*
X54536667Y-17311961D02*
X54536667Y-16931009D01*
X54536667Y-16931009D02*
X54489048Y-16835771D01*
X54489048Y-16835771D02*
X54393810Y-16788152D01*
X54393810Y-16788152D02*
X54203334Y-16788152D01*
X54203334Y-16788152D02*
X54108096Y-16835771D01*
X54108096Y-16835771D02*
X54060477Y-16931009D01*
X54060477Y-16931009D02*
X54060477Y-17026247D01*
X54060477Y-17026247D02*
X54536667Y-17121485D01*
X53203334Y-17407200D02*
X53298572Y-17454819D01*
X53298572Y-17454819D02*
X53489048Y-17454819D01*
X53489048Y-17454819D02*
X53584286Y-17407200D01*
X53584286Y-17407200D02*
X53631905Y-17359580D01*
X53631905Y-17359580D02*
X53679524Y-17264342D01*
X53679524Y-17264342D02*
X53679524Y-16978628D01*
X53679524Y-16978628D02*
X53631905Y-16883390D01*
X53631905Y-16883390D02*
X53584286Y-16835771D01*
X53584286Y-16835771D02*
X53489048Y-16788152D01*
X53489048Y-16788152D02*
X53298572Y-16788152D01*
X53298572Y-16788152D02*
X53203334Y-16835771D01*
X52774762Y-17454819D02*
X52774762Y-16454819D01*
X52346191Y-17454819D02*
X52346191Y-16931009D01*
X52346191Y-16931009D02*
X52393810Y-16835771D01*
X52393810Y-16835771D02*
X52489048Y-16788152D01*
X52489048Y-16788152D02*
X52631905Y-16788152D01*
X52631905Y-16788152D02*
X52727143Y-16835771D01*
X52727143Y-16835771D02*
X52774762Y-16883390D01*
X51441429Y-17454819D02*
X51441429Y-16931009D01*
X51441429Y-16931009D02*
X51489048Y-16835771D01*
X51489048Y-16835771D02*
X51584286Y-16788152D01*
X51584286Y-16788152D02*
X51774762Y-16788152D01*
X51774762Y-16788152D02*
X51870000Y-16835771D01*
X51441429Y-17407200D02*
X51536667Y-17454819D01*
X51536667Y-17454819D02*
X51774762Y-17454819D01*
X51774762Y-17454819D02*
X51870000Y-17407200D01*
X51870000Y-17407200D02*
X51917619Y-17311961D01*
X51917619Y-17311961D02*
X51917619Y-17216723D01*
X51917619Y-17216723D02*
X51870000Y-17121485D01*
X51870000Y-17121485D02*
X51774762Y-17073866D01*
X51774762Y-17073866D02*
X51536667Y-17073866D01*
X51536667Y-17073866D02*
X51441429Y-17026247D01*
X50536667Y-17454819D02*
X50536667Y-16454819D01*
X50536667Y-17407200D02*
X50631905Y-17454819D01*
X50631905Y-17454819D02*
X50822381Y-17454819D01*
X50822381Y-17454819D02*
X50917619Y-17407200D01*
X50917619Y-17407200D02*
X50965238Y-17359580D01*
X50965238Y-17359580D02*
X51012857Y-17264342D01*
X51012857Y-17264342D02*
X51012857Y-16978628D01*
X51012857Y-16978628D02*
X50965238Y-16883390D01*
X50965238Y-16883390D02*
X50917619Y-16835771D01*
X50917619Y-16835771D02*
X50822381Y-16788152D01*
X50822381Y-16788152D02*
X50631905Y-16788152D01*
X50631905Y-16788152D02*
X50536667Y-16835771D01*
X49917619Y-17454819D02*
X50012857Y-17407200D01*
X50012857Y-17407200D02*
X50060476Y-17359580D01*
X50060476Y-17359580D02*
X50108095Y-17264342D01*
X50108095Y-17264342D02*
X50108095Y-16978628D01*
X50108095Y-16978628D02*
X50060476Y-16883390D01*
X50060476Y-16883390D02*
X50012857Y-16835771D01*
X50012857Y-16835771D02*
X49917619Y-16788152D01*
X49917619Y-16788152D02*
X49774762Y-16788152D01*
X49774762Y-16788152D02*
X49679524Y-16835771D01*
X49679524Y-16835771D02*
X49631905Y-16883390D01*
X49631905Y-16883390D02*
X49584286Y-16978628D01*
X49584286Y-16978628D02*
X49584286Y-17264342D01*
X49584286Y-17264342D02*
X49631905Y-17359580D01*
X49631905Y-17359580D02*
X49679524Y-17407200D01*
X49679524Y-17407200D02*
X49774762Y-17454819D01*
X49774762Y-17454819D02*
X49917619Y-17454819D01*
X48393809Y-16931009D02*
X47631905Y-16931009D01*
X47631905Y-17216723D02*
X48393809Y-17216723D01*
X45965238Y-17454819D02*
X45965238Y-16931009D01*
X45965238Y-16931009D02*
X46012857Y-16835771D01*
X46012857Y-16835771D02*
X46108095Y-16788152D01*
X46108095Y-16788152D02*
X46298571Y-16788152D01*
X46298571Y-16788152D02*
X46393809Y-16835771D01*
X45965238Y-17407200D02*
X46060476Y-17454819D01*
X46060476Y-17454819D02*
X46298571Y-17454819D01*
X46298571Y-17454819D02*
X46393809Y-17407200D01*
X46393809Y-17407200D02*
X46441428Y-17311961D01*
X46441428Y-17311961D02*
X46441428Y-17216723D01*
X46441428Y-17216723D02*
X46393809Y-17121485D01*
X46393809Y-17121485D02*
X46298571Y-17073866D01*
X46298571Y-17073866D02*
X46060476Y-17073866D01*
X46060476Y-17073866D02*
X45965238Y-17026247D01*
X45060476Y-16788152D02*
X45060476Y-17454819D01*
X45489047Y-16788152D02*
X45489047Y-17311961D01*
X45489047Y-17311961D02*
X45441428Y-17407200D01*
X45441428Y-17407200D02*
X45346190Y-17454819D01*
X45346190Y-17454819D02*
X45203333Y-17454819D01*
X45203333Y-17454819D02*
X45108095Y-17407200D01*
X45108095Y-17407200D02*
X45060476Y-17359580D01*
X44727142Y-16788152D02*
X44346190Y-16788152D01*
X44584285Y-16454819D02*
X44584285Y-17311961D01*
X44584285Y-17311961D02*
X44536666Y-17407200D01*
X44536666Y-17407200D02*
X44441428Y-17454819D01*
X44441428Y-17454819D02*
X44346190Y-17454819D01*
X43869999Y-17454819D02*
X43965237Y-17407200D01*
X43965237Y-17407200D02*
X44012856Y-17359580D01*
X44012856Y-17359580D02*
X44060475Y-17264342D01*
X44060475Y-17264342D02*
X44060475Y-16978628D01*
X44060475Y-16978628D02*
X44012856Y-16883390D01*
X44012856Y-16883390D02*
X43965237Y-16835771D01*
X43965237Y-16835771D02*
X43869999Y-16788152D01*
X43869999Y-16788152D02*
X43727142Y-16788152D01*
X43727142Y-16788152D02*
X43631904Y-16835771D01*
X43631904Y-16835771D02*
X43584285Y-16883390D01*
X43584285Y-16883390D02*
X43536666Y-16978628D01*
X43536666Y-16978628D02*
X43536666Y-17264342D01*
X43536666Y-17264342D02*
X43584285Y-17359580D01*
X43584285Y-17359580D02*
X43631904Y-17407200D01*
X43631904Y-17407200D02*
X43727142Y-17454819D01*
X43727142Y-17454819D02*
X43869999Y-17454819D01*
X43108094Y-17073866D02*
X42346190Y-17073866D01*
X41441428Y-17454819D02*
X41441428Y-16454819D01*
X41441428Y-17407200D02*
X41536666Y-17454819D01*
X41536666Y-17454819D02*
X41727142Y-17454819D01*
X41727142Y-17454819D02*
X41822380Y-17407200D01*
X41822380Y-17407200D02*
X41869999Y-17359580D01*
X41869999Y-17359580D02*
X41917618Y-17264342D01*
X41917618Y-17264342D02*
X41917618Y-16978628D01*
X41917618Y-16978628D02*
X41869999Y-16883390D01*
X41869999Y-16883390D02*
X41822380Y-16835771D01*
X41822380Y-16835771D02*
X41727142Y-16788152D01*
X41727142Y-16788152D02*
X41536666Y-16788152D01*
X41536666Y-16788152D02*
X41441428Y-16835771D01*
X40584285Y-17407200D02*
X40679523Y-17454819D01*
X40679523Y-17454819D02*
X40869999Y-17454819D01*
X40869999Y-17454819D02*
X40965237Y-17407200D01*
X40965237Y-17407200D02*
X41012856Y-17311961D01*
X41012856Y-17311961D02*
X41012856Y-16931009D01*
X41012856Y-16931009D02*
X40965237Y-16835771D01*
X40965237Y-16835771D02*
X40869999Y-16788152D01*
X40869999Y-16788152D02*
X40679523Y-16788152D01*
X40679523Y-16788152D02*
X40584285Y-16835771D01*
X40584285Y-16835771D02*
X40536666Y-16931009D01*
X40536666Y-16931009D02*
X40536666Y-17026247D01*
X40536666Y-17026247D02*
X41012856Y-17121485D01*
X40155713Y-17407200D02*
X40060475Y-17454819D01*
X40060475Y-17454819D02*
X39869999Y-17454819D01*
X39869999Y-17454819D02*
X39774761Y-17407200D01*
X39774761Y-17407200D02*
X39727142Y-17311961D01*
X39727142Y-17311961D02*
X39727142Y-17264342D01*
X39727142Y-17264342D02*
X39774761Y-17169104D01*
X39774761Y-17169104D02*
X39869999Y-17121485D01*
X39869999Y-17121485D02*
X40012856Y-17121485D01*
X40012856Y-17121485D02*
X40108094Y-17073866D01*
X40108094Y-17073866D02*
X40155713Y-16978628D01*
X40155713Y-16978628D02*
X40155713Y-16931009D01*
X40155713Y-16931009D02*
X40108094Y-16835771D01*
X40108094Y-16835771D02*
X40012856Y-16788152D01*
X40012856Y-16788152D02*
X39869999Y-16788152D01*
X39869999Y-16788152D02*
X39774761Y-16835771D01*
X38869999Y-17454819D02*
X38869999Y-16931009D01*
X38869999Y-16931009D02*
X38917618Y-16835771D01*
X38917618Y-16835771D02*
X39012856Y-16788152D01*
X39012856Y-16788152D02*
X39203332Y-16788152D01*
X39203332Y-16788152D02*
X39298570Y-16835771D01*
X38869999Y-17407200D02*
X38965237Y-17454819D01*
X38965237Y-17454819D02*
X39203332Y-17454819D01*
X39203332Y-17454819D02*
X39298570Y-17407200D01*
X39298570Y-17407200D02*
X39346189Y-17311961D01*
X39346189Y-17311961D02*
X39346189Y-17216723D01*
X39346189Y-17216723D02*
X39298570Y-17121485D01*
X39298570Y-17121485D02*
X39203332Y-17073866D01*
X39203332Y-17073866D02*
X38965237Y-17073866D01*
X38965237Y-17073866D02*
X38869999Y-17026247D01*
X38536665Y-16788152D02*
X38155713Y-16788152D01*
X38393808Y-16454819D02*
X38393808Y-17311961D01*
X38393808Y-17311961D02*
X38346189Y-17407200D01*
X38346189Y-17407200D02*
X38250951Y-17454819D01*
X38250951Y-17454819D02*
X38155713Y-17454819D01*
X37822379Y-17454819D02*
X37822379Y-16788152D01*
X37822379Y-16454819D02*
X37869998Y-16502438D01*
X37869998Y-16502438D02*
X37822379Y-16550057D01*
X37822379Y-16550057D02*
X37774760Y-16502438D01*
X37774760Y-16502438D02*
X37822379Y-16454819D01*
X37822379Y-16454819D02*
X37822379Y-16550057D01*
X37441427Y-16788152D02*
X37203332Y-17454819D01*
X37203332Y-17454819D02*
X36965237Y-16788152D01*
X36155713Y-17454819D02*
X36155713Y-16931009D01*
X36155713Y-16931009D02*
X36203332Y-16835771D01*
X36203332Y-16835771D02*
X36298570Y-16788152D01*
X36298570Y-16788152D02*
X36489046Y-16788152D01*
X36489046Y-16788152D02*
X36584284Y-16835771D01*
X36155713Y-17407200D02*
X36250951Y-17454819D01*
X36250951Y-17454819D02*
X36489046Y-17454819D01*
X36489046Y-17454819D02*
X36584284Y-17407200D01*
X36584284Y-17407200D02*
X36631903Y-17311961D01*
X36631903Y-17311961D02*
X36631903Y-17216723D01*
X36631903Y-17216723D02*
X36584284Y-17121485D01*
X36584284Y-17121485D02*
X36489046Y-17073866D01*
X36489046Y-17073866D02*
X36250951Y-17073866D01*
X36250951Y-17073866D02*
X36155713Y-17026247D01*
X34489046Y-17454819D02*
X34489046Y-16931009D01*
X34489046Y-16931009D02*
X34536665Y-16835771D01*
X34536665Y-16835771D02*
X34631903Y-16788152D01*
X34631903Y-16788152D02*
X34822379Y-16788152D01*
X34822379Y-16788152D02*
X34917617Y-16835771D01*
X34489046Y-17407200D02*
X34584284Y-17454819D01*
X34584284Y-17454819D02*
X34822379Y-17454819D01*
X34822379Y-17454819D02*
X34917617Y-17407200D01*
X34917617Y-17407200D02*
X34965236Y-17311961D01*
X34965236Y-17311961D02*
X34965236Y-17216723D01*
X34965236Y-17216723D02*
X34917617Y-17121485D01*
X34917617Y-17121485D02*
X34822379Y-17073866D01*
X34822379Y-17073866D02*
X34584284Y-17073866D01*
X34584284Y-17073866D02*
X34489046Y-17026247D01*
X32679522Y-17454819D02*
X33012855Y-16978628D01*
X33250950Y-17454819D02*
X33250950Y-16454819D01*
X33250950Y-16454819D02*
X32869998Y-16454819D01*
X32869998Y-16454819D02*
X32774760Y-16502438D01*
X32774760Y-16502438D02*
X32727141Y-16550057D01*
X32727141Y-16550057D02*
X32679522Y-16645295D01*
X32679522Y-16645295D02*
X32679522Y-16788152D01*
X32679522Y-16788152D02*
X32727141Y-16883390D01*
X32727141Y-16883390D02*
X32774760Y-16931009D01*
X32774760Y-16931009D02*
X32869998Y-16978628D01*
X32869998Y-16978628D02*
X33250950Y-16978628D01*
X32298569Y-17169104D02*
X31822379Y-17169104D01*
X32393807Y-17454819D02*
X32060474Y-16454819D01*
X32060474Y-16454819D02*
X31727141Y-17454819D01*
X31393807Y-17454819D02*
X31393807Y-16454819D01*
X31393807Y-16454819D02*
X31060474Y-17169104D01*
X31060474Y-17169104D02*
X30727141Y-16454819D01*
X30727141Y-16454819D02*
X30727141Y-17454819D01*
X29060474Y-17454819D02*
X29060474Y-16454819D01*
X29060474Y-17407200D02*
X29155712Y-17454819D01*
X29155712Y-17454819D02*
X29346188Y-17454819D01*
X29346188Y-17454819D02*
X29441426Y-17407200D01*
X29441426Y-17407200D02*
X29489045Y-17359580D01*
X29489045Y-17359580D02*
X29536664Y-17264342D01*
X29536664Y-17264342D02*
X29536664Y-16978628D01*
X29536664Y-16978628D02*
X29489045Y-16883390D01*
X29489045Y-16883390D02*
X29441426Y-16835771D01*
X29441426Y-16835771D02*
X29346188Y-16788152D01*
X29346188Y-16788152D02*
X29155712Y-16788152D01*
X29155712Y-16788152D02*
X29060474Y-16835771D01*
X28203331Y-17407200D02*
X28298569Y-17454819D01*
X28298569Y-17454819D02*
X28489045Y-17454819D01*
X28489045Y-17454819D02*
X28584283Y-17407200D01*
X28584283Y-17407200D02*
X28631902Y-17311961D01*
X28631902Y-17311961D02*
X28631902Y-16931009D01*
X28631902Y-16931009D02*
X28584283Y-16835771D01*
X28584283Y-16835771D02*
X28489045Y-16788152D01*
X28489045Y-16788152D02*
X28298569Y-16788152D01*
X28298569Y-16788152D02*
X28203331Y-16835771D01*
X28203331Y-16835771D02*
X28155712Y-16931009D01*
X28155712Y-16931009D02*
X28155712Y-17026247D01*
X28155712Y-17026247D02*
X28631902Y-17121485D01*
X27060473Y-16454819D02*
X26441426Y-16454819D01*
X26441426Y-16454819D02*
X26774759Y-16835771D01*
X26774759Y-16835771D02*
X26631902Y-16835771D01*
X26631902Y-16835771D02*
X26536664Y-16883390D01*
X26536664Y-16883390D02*
X26489045Y-16931009D01*
X26489045Y-16931009D02*
X26441426Y-17026247D01*
X26441426Y-17026247D02*
X26441426Y-17264342D01*
X26441426Y-17264342D02*
X26489045Y-17359580D01*
X26489045Y-17359580D02*
X26536664Y-17407200D01*
X26536664Y-17407200D02*
X26631902Y-17454819D01*
X26631902Y-17454819D02*
X26917616Y-17454819D01*
X26917616Y-17454819D02*
X27012854Y-17407200D01*
X27012854Y-17407200D02*
X27060473Y-17359580D01*
X26060473Y-16550057D02*
X26012854Y-16502438D01*
X26012854Y-16502438D02*
X25917616Y-16454819D01*
X25917616Y-16454819D02*
X25679521Y-16454819D01*
X25679521Y-16454819D02*
X25584283Y-16502438D01*
X25584283Y-16502438D02*
X25536664Y-16550057D01*
X25536664Y-16550057D02*
X25489045Y-16645295D01*
X25489045Y-16645295D02*
X25489045Y-16740533D01*
X25489045Y-16740533D02*
X25536664Y-16883390D01*
X25536664Y-16883390D02*
X26108092Y-17454819D01*
X26108092Y-17454819D02*
X25489045Y-17454819D01*
X25060473Y-17454819D02*
X25060473Y-16454819D01*
X24489045Y-17454819D02*
X24917616Y-16883390D01*
X24489045Y-16454819D02*
X25060473Y-17026247D01*
X22869997Y-17454819D02*
X22869997Y-16454819D01*
X22869997Y-17407200D02*
X22965235Y-17454819D01*
X22965235Y-17454819D02*
X23155711Y-17454819D01*
X23155711Y-17454819D02*
X23250949Y-17407200D01*
X23250949Y-17407200D02*
X23298568Y-17359580D01*
X23298568Y-17359580D02*
X23346187Y-17264342D01*
X23346187Y-17264342D02*
X23346187Y-16978628D01*
X23346187Y-16978628D02*
X23298568Y-16883390D01*
X23298568Y-16883390D02*
X23250949Y-16835771D01*
X23250949Y-16835771D02*
X23155711Y-16788152D01*
X23155711Y-16788152D02*
X22965235Y-16788152D01*
X22965235Y-16788152D02*
X22869997Y-16835771D01*
X22250949Y-17454819D02*
X22346187Y-17407200D01*
X22346187Y-17407200D02*
X22393806Y-17359580D01*
X22393806Y-17359580D02*
X22441425Y-17264342D01*
X22441425Y-17264342D02*
X22441425Y-16978628D01*
X22441425Y-16978628D02*
X22393806Y-16883390D01*
X22393806Y-16883390D02*
X22346187Y-16835771D01*
X22346187Y-16835771D02*
X22250949Y-16788152D01*
X22250949Y-16788152D02*
X22108092Y-16788152D01*
X22108092Y-16788152D02*
X22012854Y-16835771D01*
X22012854Y-16835771D02*
X21965235Y-16883390D01*
X21965235Y-16883390D02*
X21917616Y-16978628D01*
X21917616Y-16978628D02*
X21917616Y-17264342D01*
X21917616Y-17264342D02*
X21965235Y-17359580D01*
X21965235Y-17359580D02*
X22012854Y-17407200D01*
X22012854Y-17407200D02*
X22108092Y-17454819D01*
X22108092Y-17454819D02*
X22250949Y-17454819D01*
X20869996Y-16454819D02*
X20298568Y-16454819D01*
X20584282Y-17454819D02*
X20584282Y-16454819D01*
X19965234Y-17454819D02*
X19965234Y-16454819D01*
X19393806Y-17454819D02*
X19822377Y-16883390D01*
X19393806Y-16454819D02*
X19965234Y-17026247D01*
X52536667Y-34788152D02*
X52536667Y-35597676D01*
X52536667Y-35597676D02*
X52584286Y-35692914D01*
X52584286Y-35692914D02*
X52631905Y-35740533D01*
X52631905Y-35740533D02*
X52727143Y-35788152D01*
X52727143Y-35788152D02*
X52870000Y-35788152D01*
X52870000Y-35788152D02*
X52965238Y-35740533D01*
X52536667Y-35407200D02*
X52631905Y-35454819D01*
X52631905Y-35454819D02*
X52822381Y-35454819D01*
X52822381Y-35454819D02*
X52917619Y-35407200D01*
X52917619Y-35407200D02*
X52965238Y-35359580D01*
X52965238Y-35359580D02*
X53012857Y-35264342D01*
X53012857Y-35264342D02*
X53012857Y-34978628D01*
X53012857Y-34978628D02*
X52965238Y-34883390D01*
X52965238Y-34883390D02*
X52917619Y-34835771D01*
X52917619Y-34835771D02*
X52822381Y-34788152D01*
X52822381Y-34788152D02*
X52631905Y-34788152D01*
X52631905Y-34788152D02*
X52536667Y-34835771D01*
X52060476Y-35454819D02*
X52060476Y-34788152D01*
X52060476Y-34454819D02*
X52108095Y-34502438D01*
X52108095Y-34502438D02*
X52060476Y-34550057D01*
X52060476Y-34550057D02*
X52012857Y-34502438D01*
X52012857Y-34502438D02*
X52060476Y-34454819D01*
X52060476Y-34454819D02*
X52060476Y-34550057D01*
X51727143Y-34788152D02*
X51346191Y-34788152D01*
X51584286Y-34454819D02*
X51584286Y-35311961D01*
X51584286Y-35311961D02*
X51536667Y-35407200D01*
X51536667Y-35407200D02*
X51441429Y-35454819D01*
X51441429Y-35454819D02*
X51346191Y-35454819D01*
X51012857Y-35454819D02*
X51012857Y-34454819D01*
X50584286Y-35454819D02*
X50584286Y-34931009D01*
X50584286Y-34931009D02*
X50631905Y-34835771D01*
X50631905Y-34835771D02*
X50727143Y-34788152D01*
X50727143Y-34788152D02*
X50870000Y-34788152D01*
X50870000Y-34788152D02*
X50965238Y-34835771D01*
X50965238Y-34835771D02*
X51012857Y-34883390D01*
X49679524Y-34788152D02*
X49679524Y-35454819D01*
X50108095Y-34788152D02*
X50108095Y-35311961D01*
X50108095Y-35311961D02*
X50060476Y-35407200D01*
X50060476Y-35407200D02*
X49965238Y-35454819D01*
X49965238Y-35454819D02*
X49822381Y-35454819D01*
X49822381Y-35454819D02*
X49727143Y-35407200D01*
X49727143Y-35407200D02*
X49679524Y-35359580D01*
X49203333Y-35454819D02*
X49203333Y-34454819D01*
X49203333Y-34835771D02*
X49108095Y-34788152D01*
X49108095Y-34788152D02*
X48917619Y-34788152D01*
X48917619Y-34788152D02*
X48822381Y-34835771D01*
X48822381Y-34835771D02*
X48774762Y-34883390D01*
X48774762Y-34883390D02*
X48727143Y-34978628D01*
X48727143Y-34978628D02*
X48727143Y-35264342D01*
X48727143Y-35264342D02*
X48774762Y-35359580D01*
X48774762Y-35359580D02*
X48822381Y-35407200D01*
X48822381Y-35407200D02*
X48917619Y-35454819D01*
X48917619Y-35454819D02*
X49108095Y-35454819D01*
X49108095Y-35454819D02*
X49203333Y-35407200D01*
X48298571Y-35359580D02*
X48250952Y-35407200D01*
X48250952Y-35407200D02*
X48298571Y-35454819D01*
X48298571Y-35454819D02*
X48346190Y-35407200D01*
X48346190Y-35407200D02*
X48298571Y-35359580D01*
X48298571Y-35359580D02*
X48298571Y-35454819D01*
X47393810Y-35407200D02*
X47489048Y-35454819D01*
X47489048Y-35454819D02*
X47679524Y-35454819D01*
X47679524Y-35454819D02*
X47774762Y-35407200D01*
X47774762Y-35407200D02*
X47822381Y-35359580D01*
X47822381Y-35359580D02*
X47870000Y-35264342D01*
X47870000Y-35264342D02*
X47870000Y-34978628D01*
X47870000Y-34978628D02*
X47822381Y-34883390D01*
X47822381Y-34883390D02*
X47774762Y-34835771D01*
X47774762Y-34835771D02*
X47679524Y-34788152D01*
X47679524Y-34788152D02*
X47489048Y-34788152D01*
X47489048Y-34788152D02*
X47393810Y-34835771D01*
X46822381Y-35454819D02*
X46917619Y-35407200D01*
X46917619Y-35407200D02*
X46965238Y-35359580D01*
X46965238Y-35359580D02*
X47012857Y-35264342D01*
X47012857Y-35264342D02*
X47012857Y-34978628D01*
X47012857Y-34978628D02*
X46965238Y-34883390D01*
X46965238Y-34883390D02*
X46917619Y-34835771D01*
X46917619Y-34835771D02*
X46822381Y-34788152D01*
X46822381Y-34788152D02*
X46679524Y-34788152D01*
X46679524Y-34788152D02*
X46584286Y-34835771D01*
X46584286Y-34835771D02*
X46536667Y-34883390D01*
X46536667Y-34883390D02*
X46489048Y-34978628D01*
X46489048Y-34978628D02*
X46489048Y-35264342D01*
X46489048Y-35264342D02*
X46536667Y-35359580D01*
X46536667Y-35359580D02*
X46584286Y-35407200D01*
X46584286Y-35407200D02*
X46679524Y-35454819D01*
X46679524Y-35454819D02*
X46822381Y-35454819D01*
X46060476Y-35454819D02*
X46060476Y-34788152D01*
X46060476Y-34883390D02*
X46012857Y-34835771D01*
X46012857Y-34835771D02*
X45917619Y-34788152D01*
X45917619Y-34788152D02*
X45774762Y-34788152D01*
X45774762Y-34788152D02*
X45679524Y-34835771D01*
X45679524Y-34835771D02*
X45631905Y-34931009D01*
X45631905Y-34931009D02*
X45631905Y-35454819D01*
X45631905Y-34931009D02*
X45584286Y-34835771D01*
X45584286Y-34835771D02*
X45489048Y-34788152D01*
X45489048Y-34788152D02*
X45346191Y-34788152D01*
X45346191Y-34788152D02*
X45250952Y-34835771D01*
X45250952Y-34835771D02*
X45203333Y-34931009D01*
X45203333Y-34931009D02*
X45203333Y-35454819D01*
X44012858Y-34407200D02*
X44870000Y-35692914D01*
X43536667Y-35454819D02*
X43631905Y-35407200D01*
X43631905Y-35407200D02*
X43679524Y-35311961D01*
X43679524Y-35311961D02*
X43679524Y-34454819D01*
X43155714Y-35454819D02*
X43155714Y-34788152D01*
X43155714Y-34978628D02*
X43108095Y-34883390D01*
X43108095Y-34883390D02*
X43060476Y-34835771D01*
X43060476Y-34835771D02*
X42965238Y-34788152D01*
X42965238Y-34788152D02*
X42870000Y-34788152D01*
X42536666Y-35454819D02*
X42536666Y-34788152D01*
X42536666Y-34978628D02*
X42489047Y-34883390D01*
X42489047Y-34883390D02*
X42441428Y-34835771D01*
X42441428Y-34835771D02*
X42346190Y-34788152D01*
X42346190Y-34788152D02*
X42250952Y-34788152D01*
X41774761Y-35454819D02*
X41869999Y-35407200D01*
X41869999Y-35407200D02*
X41917618Y-35359580D01*
X41917618Y-35359580D02*
X41965237Y-35264342D01*
X41965237Y-35264342D02*
X41965237Y-34978628D01*
X41965237Y-34978628D02*
X41917618Y-34883390D01*
X41917618Y-34883390D02*
X41869999Y-34835771D01*
X41869999Y-34835771D02*
X41774761Y-34788152D01*
X41774761Y-34788152D02*
X41631904Y-34788152D01*
X41631904Y-34788152D02*
X41536666Y-34835771D01*
X41536666Y-34835771D02*
X41489047Y-34883390D01*
X41489047Y-34883390D02*
X41441428Y-34978628D01*
X41441428Y-34978628D02*
X41441428Y-35264342D01*
X41441428Y-35264342D02*
X41489047Y-35359580D01*
X41489047Y-35359580D02*
X41536666Y-35407200D01*
X41536666Y-35407200D02*
X41631904Y-35454819D01*
X41631904Y-35454819D02*
X41774761Y-35454819D01*
X41060475Y-35407200D02*
X40965237Y-35454819D01*
X40965237Y-35454819D02*
X40774761Y-35454819D01*
X40774761Y-35454819D02*
X40679523Y-35407200D01*
X40679523Y-35407200D02*
X40631904Y-35311961D01*
X40631904Y-35311961D02*
X40631904Y-35264342D01*
X40631904Y-35264342D02*
X40679523Y-35169104D01*
X40679523Y-35169104D02*
X40774761Y-35121485D01*
X40774761Y-35121485D02*
X40917618Y-35121485D01*
X40917618Y-35121485D02*
X41012856Y-35073866D01*
X41012856Y-35073866D02*
X41060475Y-34978628D01*
X41060475Y-34978628D02*
X41060475Y-34931009D01*
X41060475Y-34931009D02*
X41012856Y-34835771D01*
X41012856Y-34835771D02*
X40917618Y-34788152D01*
X40917618Y-34788152D02*
X40774761Y-34788152D01*
X40774761Y-34788152D02*
X40679523Y-34835771D01*
X39774761Y-35454819D02*
X39774761Y-34931009D01*
X39774761Y-34931009D02*
X39822380Y-34835771D01*
X39822380Y-34835771D02*
X39917618Y-34788152D01*
X39917618Y-34788152D02*
X40108094Y-34788152D01*
X40108094Y-34788152D02*
X40203332Y-34835771D01*
X39774761Y-35407200D02*
X39869999Y-35454819D01*
X39869999Y-35454819D02*
X40108094Y-35454819D01*
X40108094Y-35454819D02*
X40203332Y-35407200D01*
X40203332Y-35407200D02*
X40250951Y-35311961D01*
X40250951Y-35311961D02*
X40250951Y-35216723D01*
X40250951Y-35216723D02*
X40203332Y-35121485D01*
X40203332Y-35121485D02*
X40108094Y-35073866D01*
X40108094Y-35073866D02*
X39869999Y-35073866D01*
X39869999Y-35073866D02*
X39774761Y-35026247D01*
X38584285Y-34407200D02*
X39441427Y-35692914D01*
X38393808Y-34788152D02*
X38012856Y-34788152D01*
X38250951Y-34454819D02*
X38250951Y-35311961D01*
X38250951Y-35311961D02*
X38203332Y-35407200D01*
X38203332Y-35407200D02*
X38108094Y-35454819D01*
X38108094Y-35454819D02*
X38012856Y-35454819D01*
X37679522Y-35454819D02*
X37679522Y-34454819D01*
X37584284Y-35073866D02*
X37298570Y-35454819D01*
X37298570Y-34788152D02*
X37679522Y-35169104D01*
X36869998Y-35454819D02*
X36869998Y-34788152D01*
X36869998Y-34883390D02*
X36822379Y-34835771D01*
X36822379Y-34835771D02*
X36727141Y-34788152D01*
X36727141Y-34788152D02*
X36584284Y-34788152D01*
X36584284Y-34788152D02*
X36489046Y-34835771D01*
X36489046Y-34835771D02*
X36441427Y-34931009D01*
X36441427Y-34931009D02*
X36441427Y-35454819D01*
X36441427Y-34931009D02*
X36393808Y-34835771D01*
X36393808Y-34835771D02*
X36298570Y-34788152D01*
X36298570Y-34788152D02*
X36155713Y-34788152D01*
X36155713Y-34788152D02*
X36060474Y-34835771D01*
X36060474Y-34835771D02*
X36012855Y-34931009D01*
X36012855Y-34931009D02*
X36012855Y-35454819D01*
X35155713Y-35407200D02*
X35250951Y-35454819D01*
X35250951Y-35454819D02*
X35441427Y-35454819D01*
X35441427Y-35454819D02*
X35536665Y-35407200D01*
X35536665Y-35407200D02*
X35584284Y-35311961D01*
X35584284Y-35311961D02*
X35584284Y-34931009D01*
X35584284Y-34931009D02*
X35536665Y-34835771D01*
X35536665Y-34835771D02*
X35441427Y-34788152D01*
X35441427Y-34788152D02*
X35250951Y-34788152D01*
X35250951Y-34788152D02*
X35155713Y-34835771D01*
X35155713Y-34835771D02*
X35108094Y-34931009D01*
X35108094Y-34931009D02*
X35108094Y-35026247D01*
X35108094Y-35026247D02*
X35584284Y-35121485D01*
X34679522Y-35454819D02*
X34679522Y-34788152D01*
X34679522Y-34883390D02*
X34631903Y-34835771D01*
X34631903Y-34835771D02*
X34536665Y-34788152D01*
X34536665Y-34788152D02*
X34393808Y-34788152D01*
X34393808Y-34788152D02*
X34298570Y-34835771D01*
X34298570Y-34835771D02*
X34250951Y-34931009D01*
X34250951Y-34931009D02*
X34250951Y-35454819D01*
X34250951Y-34931009D02*
X34203332Y-34835771D01*
X34203332Y-34835771D02*
X34108094Y-34788152D01*
X34108094Y-34788152D02*
X33965237Y-34788152D01*
X33965237Y-34788152D02*
X33869998Y-34835771D01*
X33869998Y-34835771D02*
X33822379Y-34931009D01*
X33822379Y-34931009D02*
X33822379Y-35454819D01*
X32822380Y-35454819D02*
X33393808Y-35454819D01*
X33108094Y-35454819D02*
X33108094Y-34454819D01*
X33108094Y-34454819D02*
X33203332Y-34597676D01*
X33203332Y-34597676D02*
X33298570Y-34692914D01*
X33298570Y-34692914D02*
X33393808Y-34740533D01*
X32441427Y-34550057D02*
X32393808Y-34502438D01*
X32393808Y-34502438D02*
X32298570Y-34454819D01*
X32298570Y-34454819D02*
X32060475Y-34454819D01*
X32060475Y-34454819D02*
X31965237Y-34502438D01*
X31965237Y-34502438D02*
X31917618Y-34550057D01*
X31917618Y-34550057D02*
X31869999Y-34645295D01*
X31869999Y-34645295D02*
X31869999Y-34740533D01*
X31869999Y-34740533D02*
X31917618Y-34883390D01*
X31917618Y-34883390D02*
X32489046Y-35454819D01*
X32489046Y-35454819D02*
X31869999Y-35454819D01*
X31298570Y-34883390D02*
X31393808Y-34835771D01*
X31393808Y-34835771D02*
X31441427Y-34788152D01*
X31441427Y-34788152D02*
X31489046Y-34692914D01*
X31489046Y-34692914D02*
X31489046Y-34645295D01*
X31489046Y-34645295D02*
X31441427Y-34550057D01*
X31441427Y-34550057D02*
X31393808Y-34502438D01*
X31393808Y-34502438D02*
X31298570Y-34454819D01*
X31298570Y-34454819D02*
X31108094Y-34454819D01*
X31108094Y-34454819D02*
X31012856Y-34502438D01*
X31012856Y-34502438D02*
X30965237Y-34550057D01*
X30965237Y-34550057D02*
X30917618Y-34645295D01*
X30917618Y-34645295D02*
X30917618Y-34692914D01*
X30917618Y-34692914D02*
X30965237Y-34788152D01*
X30965237Y-34788152D02*
X31012856Y-34835771D01*
X31012856Y-34835771D02*
X31108094Y-34883390D01*
X31108094Y-34883390D02*
X31298570Y-34883390D01*
X31298570Y-34883390D02*
X31393808Y-34931009D01*
X31393808Y-34931009D02*
X31441427Y-34978628D01*
X31441427Y-34978628D02*
X31489046Y-35073866D01*
X31489046Y-35073866D02*
X31489046Y-35264342D01*
X31489046Y-35264342D02*
X31441427Y-35359580D01*
X31441427Y-35359580D02*
X31393808Y-35407200D01*
X31393808Y-35407200D02*
X31298570Y-35454819D01*
X31298570Y-35454819D02*
X31108094Y-35454819D01*
X31108094Y-35454819D02*
X31012856Y-35407200D01*
X31012856Y-35407200D02*
X30965237Y-35359580D01*
X30965237Y-35359580D02*
X30917618Y-35264342D01*
X30917618Y-35264342D02*
X30917618Y-35073866D01*
X30917618Y-35073866D02*
X30965237Y-34978628D01*
X30965237Y-34978628D02*
X31012856Y-34931009D01*
X31012856Y-34931009D02*
X31108094Y-34883390D01*
X30489046Y-35073866D02*
X29727142Y-35073866D01*
X29250951Y-35454819D02*
X29250951Y-34454819D01*
X29155713Y-35073866D02*
X28869999Y-35454819D01*
X28869999Y-34788152D02*
X29250951Y-35169104D01*
X28441427Y-35454819D02*
X28441427Y-34788152D01*
X28441427Y-34454819D02*
X28489046Y-34502438D01*
X28489046Y-34502438D02*
X28441427Y-34550057D01*
X28441427Y-34550057D02*
X28393808Y-34502438D01*
X28393808Y-34502438D02*
X28441427Y-34454819D01*
X28441427Y-34454819D02*
X28441427Y-34550057D01*
X27536666Y-35407200D02*
X27631904Y-35454819D01*
X27631904Y-35454819D02*
X27822380Y-35454819D01*
X27822380Y-35454819D02*
X27917618Y-35407200D01*
X27917618Y-35407200D02*
X27965237Y-35359580D01*
X27965237Y-35359580D02*
X28012856Y-35264342D01*
X28012856Y-35264342D02*
X28012856Y-34978628D01*
X28012856Y-34978628D02*
X27965237Y-34883390D01*
X27965237Y-34883390D02*
X27917618Y-34835771D01*
X27917618Y-34835771D02*
X27822380Y-34788152D01*
X27822380Y-34788152D02*
X27631904Y-34788152D01*
X27631904Y-34788152D02*
X27536666Y-34835771D01*
X26679523Y-35454819D02*
X26679523Y-34931009D01*
X26679523Y-34931009D02*
X26727142Y-34835771D01*
X26727142Y-34835771D02*
X26822380Y-34788152D01*
X26822380Y-34788152D02*
X27012856Y-34788152D01*
X27012856Y-34788152D02*
X27108094Y-34835771D01*
X26679523Y-35407200D02*
X26774761Y-35454819D01*
X26774761Y-35454819D02*
X27012856Y-35454819D01*
X27012856Y-35454819D02*
X27108094Y-35407200D01*
X27108094Y-35407200D02*
X27155713Y-35311961D01*
X27155713Y-35311961D02*
X27155713Y-35216723D01*
X27155713Y-35216723D02*
X27108094Y-35121485D01*
X27108094Y-35121485D02*
X27012856Y-35073866D01*
X27012856Y-35073866D02*
X26774761Y-35073866D01*
X26774761Y-35073866D02*
X26679523Y-35026247D01*
X25774761Y-35454819D02*
X25774761Y-34454819D01*
X25774761Y-35407200D02*
X25869999Y-35454819D01*
X25869999Y-35454819D02*
X26060475Y-35454819D01*
X26060475Y-35454819D02*
X26155713Y-35407200D01*
X26155713Y-35407200D02*
X26203332Y-35359580D01*
X26203332Y-35359580D02*
X26250951Y-35264342D01*
X26250951Y-35264342D02*
X26250951Y-34978628D01*
X26250951Y-34978628D02*
X26203332Y-34883390D01*
X26203332Y-34883390D02*
X26155713Y-34835771D01*
X26155713Y-34835771D02*
X26060475Y-34788152D01*
X26060475Y-34788152D02*
X25869999Y-34788152D01*
X25869999Y-34788152D02*
X25774761Y-34835771D01*
X46612857Y-32469795D02*
X46674761Y-32531700D01*
X46674761Y-32531700D02*
X46860476Y-32593604D01*
X46860476Y-32593604D02*
X46984285Y-32593604D01*
X46984285Y-32593604D02*
X47169999Y-32531700D01*
X47169999Y-32531700D02*
X47293809Y-32407890D01*
X47293809Y-32407890D02*
X47355714Y-32284080D01*
X47355714Y-32284080D02*
X47417618Y-32036461D01*
X47417618Y-32036461D02*
X47417618Y-31850747D01*
X47417618Y-31850747D02*
X47355714Y-31603128D01*
X47355714Y-31603128D02*
X47293809Y-31479319D01*
X47293809Y-31479319D02*
X47169999Y-31355509D01*
X47169999Y-31355509D02*
X46984285Y-31293604D01*
X46984285Y-31293604D02*
X46860476Y-31293604D01*
X46860476Y-31293604D02*
X46674761Y-31355509D01*
X46674761Y-31355509D02*
X46612857Y-31417414D01*
X46055714Y-31912652D02*
X45622380Y-31912652D01*
X45436666Y-32593604D02*
X46055714Y-32593604D01*
X46055714Y-32593604D02*
X46055714Y-31293604D01*
X46055714Y-31293604D02*
X45436666Y-31293604D01*
X44136667Y-32593604D02*
X44570000Y-31974557D01*
X44879524Y-32593604D02*
X44879524Y-31293604D01*
X44879524Y-31293604D02*
X44384286Y-31293604D01*
X44384286Y-31293604D02*
X44260476Y-31355509D01*
X44260476Y-31355509D02*
X44198571Y-31417414D01*
X44198571Y-31417414D02*
X44136667Y-31541223D01*
X44136667Y-31541223D02*
X44136667Y-31726938D01*
X44136667Y-31726938D02*
X44198571Y-31850747D01*
X44198571Y-31850747D02*
X44260476Y-31912652D01*
X44260476Y-31912652D02*
X44384286Y-31974557D01*
X44384286Y-31974557D02*
X44879524Y-31974557D01*
X43579524Y-32593604D02*
X43579524Y-31293604D01*
X43579524Y-31293604D02*
X42836667Y-32593604D01*
X42836667Y-32593604D02*
X42836667Y-31293604D01*
X42217619Y-32098366D02*
X41227143Y-32098366D01*
X40360476Y-31293604D02*
X40112857Y-31293604D01*
X40112857Y-31293604D02*
X39989047Y-31355509D01*
X39989047Y-31355509D02*
X39865238Y-31479319D01*
X39865238Y-31479319D02*
X39803333Y-31726938D01*
X39803333Y-31726938D02*
X39803333Y-32160271D01*
X39803333Y-32160271D02*
X39865238Y-32407890D01*
X39865238Y-32407890D02*
X39989047Y-32531700D01*
X39989047Y-32531700D02*
X40112857Y-32593604D01*
X40112857Y-32593604D02*
X40360476Y-32593604D01*
X40360476Y-32593604D02*
X40484285Y-32531700D01*
X40484285Y-32531700D02*
X40608095Y-32407890D01*
X40608095Y-32407890D02*
X40669999Y-32160271D01*
X40669999Y-32160271D02*
X40669999Y-31726938D01*
X40669999Y-31726938D02*
X40608095Y-31479319D01*
X40608095Y-31479319D02*
X40484285Y-31355509D01*
X40484285Y-31355509D02*
X40360476Y-31293604D01*
X39246190Y-32593604D02*
X39246190Y-31293604D01*
X39246190Y-31912652D02*
X38503333Y-31912652D01*
X38503333Y-32593604D02*
X38503333Y-31293604D01*
X37265237Y-32593604D02*
X37884285Y-32593604D01*
X37884285Y-32593604D02*
X37884285Y-31293604D01*
X36831904Y-32098366D02*
X35841428Y-32098366D01*
X35284284Y-32531700D02*
X35098570Y-32593604D01*
X35098570Y-32593604D02*
X34789046Y-32593604D01*
X34789046Y-32593604D02*
X34665237Y-32531700D01*
X34665237Y-32531700D02*
X34603332Y-32469795D01*
X34603332Y-32469795D02*
X34541427Y-32345985D01*
X34541427Y-32345985D02*
X34541427Y-32222176D01*
X34541427Y-32222176D02*
X34603332Y-32098366D01*
X34603332Y-32098366D02*
X34665237Y-32036461D01*
X34665237Y-32036461D02*
X34789046Y-31974557D01*
X34789046Y-31974557D02*
X35036665Y-31912652D01*
X35036665Y-31912652D02*
X35160475Y-31850747D01*
X35160475Y-31850747D02*
X35222380Y-31788842D01*
X35222380Y-31788842D02*
X35284284Y-31665033D01*
X35284284Y-31665033D02*
X35284284Y-31541223D01*
X35284284Y-31541223D02*
X35222380Y-31417414D01*
X35222380Y-31417414D02*
X35160475Y-31355509D01*
X35160475Y-31355509D02*
X35036665Y-31293604D01*
X35036665Y-31293604D02*
X34727142Y-31293604D01*
X34727142Y-31293604D02*
X34541427Y-31355509D01*
X33117618Y-31726938D02*
X32808094Y-32593604D01*
X32808094Y-32593604D02*
X32498571Y-31726938D01*
X32065237Y-31417414D02*
X32003333Y-31355509D01*
X32003333Y-31355509D02*
X31879523Y-31293604D01*
X31879523Y-31293604D02*
X31569999Y-31293604D01*
X31569999Y-31293604D02*
X31446190Y-31355509D01*
X31446190Y-31355509D02*
X31384285Y-31417414D01*
X31384285Y-31417414D02*
X31322380Y-31541223D01*
X31322380Y-31541223D02*
X31322380Y-31665033D01*
X31322380Y-31665033D02*
X31384285Y-31850747D01*
X31384285Y-31850747D02*
X32127142Y-32593604D01*
X32127142Y-32593604D02*
X31322380Y-32593604D01*
%LPC*%
D11*
%TO.C,U3*%
X6350000Y-5080000D03*
D12*
X6350000Y-7620000D03*
X6350000Y-10160000D03*
X6350000Y-12700000D03*
X6350000Y-15240000D03*
X6350000Y-17780000D03*
X6350000Y-20320000D03*
X6350000Y-22860000D03*
X6350000Y-25400000D03*
X6350000Y-27940000D03*
X6350000Y-30480000D03*
X6350000Y-33020000D03*
X6350000Y-35560000D03*
X6350000Y-38100000D03*
X6350000Y-40640000D03*
X6350000Y-43180000D03*
X21590000Y-43180000D03*
X21590000Y-40640000D03*
X21590000Y-38100000D03*
X21590000Y-35560000D03*
X21590000Y-33020000D03*
X21590000Y-30480000D03*
X21590000Y-27940000D03*
X21590000Y-25400000D03*
X21590000Y-22860000D03*
X21590000Y-20320000D03*
X21590000Y-17780000D03*
X21590000Y-15240000D03*
X21590000Y-12700000D03*
X21590000Y-10160000D03*
X21590000Y-7620000D03*
X21590000Y-5080000D03*
%TD*%
D13*
%TO.C,JP2*%
X71500000Y-17000000D03*
D14*
X71500000Y-19540000D03*
X71500000Y-22080000D03*
%TD*%
D15*
%TO.C,TP2*%
X64000000Y-47200000D03*
%TD*%
D13*
%TO.C,JP1*%
X71500000Y-8000000D03*
D14*
X71500000Y-10540000D03*
X71500000Y-13080000D03*
%TD*%
D16*
%TO.C,C5*%
X36000000Y-47200000D03*
X41000000Y-47200000D03*
%TD*%
%TO.C,C4*%
X12000000Y-47200000D03*
X17000000Y-47200000D03*
%TD*%
D11*
%TO.C,U2*%
X59690000Y-12700000D03*
D12*
X59690000Y-15240000D03*
X59690000Y-17780000D03*
X59690000Y-20320000D03*
X59690000Y-22860000D03*
X59690000Y-25400000D03*
X59690000Y-27940000D03*
X59690000Y-30480000D03*
X59690000Y-33020000D03*
X59690000Y-35560000D03*
X67310000Y-35560000D03*
X67310000Y-33020000D03*
X67310000Y-30480000D03*
X67310000Y-27940000D03*
X67310000Y-25400000D03*
X67310000Y-22860000D03*
X67310000Y-20320000D03*
X67310000Y-17780000D03*
X67310000Y-15240000D03*
X67310000Y-12700000D03*
%TD*%
D16*
%TO.C,R3*%
X23000000Y-53300000D03*
X25540000Y-53300000D03*
%TD*%
D15*
%TO.C,TP1*%
X60000000Y-47200000D03*
%TD*%
D11*
%TO.C,U4*%
X26670000Y-7620000D03*
D12*
X26670000Y-10160000D03*
X26670000Y-12700000D03*
X26670000Y-15240000D03*
X26670000Y-17780000D03*
X26670000Y-20320000D03*
X26670000Y-22860000D03*
X26670000Y-25400000D03*
X26670000Y-27940000D03*
X26670000Y-30480000D03*
X26670000Y-33020000D03*
X26670000Y-35560000D03*
X26670000Y-38100000D03*
X26670000Y-40640000D03*
X41910000Y-40640000D03*
X41910000Y-38100000D03*
X41910000Y-35560000D03*
X41910000Y-33020000D03*
X41910000Y-30480000D03*
X41910000Y-27940000D03*
X41910000Y-25400000D03*
X41910000Y-22860000D03*
X41910000Y-20320000D03*
X41910000Y-17780000D03*
X41910000Y-15240000D03*
X41910000Y-12700000D03*
X41910000Y-10160000D03*
X41910000Y-7620000D03*
%TD*%
D16*
%TO.C,C2*%
X28000000Y-47200000D03*
X33000000Y-47200000D03*
%TD*%
D13*
%TO.C,JP4*%
X71500000Y-33500000D03*
D14*
X71500000Y-36040000D03*
%TD*%
D16*
%TO.C,R5*%
X17000000Y-53300000D03*
X19540000Y-53300000D03*
%TD*%
D13*
%TO.C,J1*%
X5080000Y-63500000D03*
D14*
X7620000Y-63500000D03*
X10160000Y-63500000D03*
X12700000Y-63500000D03*
X15240000Y-63500000D03*
X17780000Y-63500000D03*
X20320000Y-63500000D03*
X22860000Y-63500000D03*
X25400000Y-63500000D03*
X27940000Y-63500000D03*
X30480000Y-63500000D03*
X33020000Y-63500000D03*
X35560000Y-63500000D03*
X38100000Y-63500000D03*
X40640000Y-63500000D03*
X43180000Y-63500000D03*
X45720000Y-63500000D03*
X48260000Y-63500000D03*
X50800000Y-63500000D03*
X53340000Y-63500000D03*
X55880000Y-63500000D03*
X58420000Y-63500000D03*
X60960000Y-63500000D03*
X63500000Y-63500000D03*
X66040000Y-63500000D03*
X68580000Y-63500000D03*
X71120000Y-63500000D03*
X73660000Y-63500000D03*
X73660000Y-60960000D03*
X71120000Y-60960000D03*
X68580000Y-60960000D03*
X66040000Y-60960000D03*
X63500000Y-60960000D03*
X60960000Y-60960000D03*
X58420000Y-60960000D03*
X55880000Y-60960000D03*
X53340000Y-60960000D03*
X50800000Y-60960000D03*
X48260000Y-60960000D03*
X45720000Y-60960000D03*
X43180000Y-60960000D03*
X40640000Y-60960000D03*
X38100000Y-60960000D03*
X35560000Y-60960000D03*
X33020000Y-60960000D03*
X30480000Y-60960000D03*
X27940000Y-60960000D03*
X25400000Y-60960000D03*
X22860000Y-60960000D03*
X20320000Y-60960000D03*
X17780000Y-60960000D03*
X15240000Y-60960000D03*
X12700000Y-60960000D03*
X10160000Y-60960000D03*
X7620000Y-60960000D03*
X5080000Y-60960000D03*
%TD*%
D17*
%TO.C,C6*%
X44000000Y-47200000D03*
D16*
X46000000Y-47200000D03*
%TD*%
D18*
%TO.C,D1*%
X52000000Y-47200000D03*
D19*
X54540000Y-47200000D03*
%TD*%
D11*
%TO.C,U1*%
X46990000Y-10160000D03*
D12*
X46990000Y-12700000D03*
X46990000Y-15240000D03*
X46990000Y-17780000D03*
X46990000Y-20320000D03*
X46990000Y-22860000D03*
X46990000Y-25400000D03*
X46990000Y-27940000D03*
X46990000Y-30480000D03*
X46990000Y-33020000D03*
X46990000Y-35560000D03*
X46990000Y-38100000D03*
X54610000Y-38100000D03*
X54610000Y-35560000D03*
X54610000Y-33020000D03*
X54610000Y-30480000D03*
X54610000Y-27940000D03*
X54610000Y-25400000D03*
X54610000Y-22860000D03*
X54610000Y-20320000D03*
X54610000Y-17780000D03*
X54610000Y-15240000D03*
X54610000Y-12700000D03*
X54610000Y-10160000D03*
%TD*%
D16*
%TO.C,C1*%
X20000000Y-47200000D03*
X25000000Y-47200000D03*
%TD*%
%TO.C,C3*%
X4000000Y-47200000D03*
X9000000Y-47200000D03*
%TD*%
%TO.C,R4*%
X11000000Y-53300000D03*
X13540000Y-53300000D03*
%TD*%
%TO.C,R2*%
X5000000Y-53300000D03*
X7540000Y-53300000D03*
%TD*%
D13*
%TO.C,JP3*%
X71500000Y-26000000D03*
D14*
X71500000Y-28540000D03*
%TD*%
%LPD*%
M02*
