%TF.GenerationSoftware,KiCad,Pcbnew,10.0.4*%
%TF.CreationDate,2026-07-29T00:21:54-03:00*%
%TF.ProjectId,tkmem128,746b6d65-6d31-4323-982e-6b696361645f,rev?*%
%TF.SameCoordinates,Original*%
%TF.FileFunction,Copper,L1,Top*%
%TF.FilePolarity,Positive*%
%FSLAX46Y46*%
G04 Gerber Fmt 4.6, Leading zero omitted, Abs format (unit mm)*
G04 Created by KiCad (PCBNEW 10.0.4) date 2026-07-29 00:21:54*
%MOMM*%
%LPD*%
G01*
G04 APERTURE LIST*
G04 Aperture macros list*
%AMRoundRect*
0 Rectangle with rounded corners*
0 $1 Rounding radius*
0 $2 $3 $4 $5 $6 $7 $8 $9 X,Y pos of 4 corners*
0 Add a 4 corners polygon primitive as box body*
4,1,4,$2,$3,$4,$5,$6,$7,$8,$9,$2,$3,0*
0 Add four circle primitives for the rounded corners*
1,1,$1+$1,$2,$3*
1,1,$1+$1,$4,$5*
1,1,$1+$1,$6,$7*
1,1,$1+$1,$8,$9*
0 Add four rect primitives between the rounded corners*
20,1,$1+$1,$2,$3,$4,$5,0*
20,1,$1+$1,$4,$5,$6,$7,0*
20,1,$1+$1,$6,$7,$8,$9,0*
20,1,$1+$1,$8,$9,$2,$3,0*%
G04 Aperture macros list end*
%TA.AperFunction,ComponentPad*%
%ADD10RoundRect,0.250000X0.550000X-0.950000X0.550000X0.950000X-0.550000X0.950000X-0.550000X-0.950000X0*%
%TD*%
%TA.AperFunction,ComponentPad*%
%ADD11O,1.600000X2.400000*%
%TD*%
%TA.AperFunction,ComponentPad*%
%ADD12R,1.700000X1.700000*%
%TD*%
%TA.AperFunction,ComponentPad*%
%ADD13C,1.700000*%
%TD*%
%TA.AperFunction,ComponentPad*%
%ADD14C,1.500000*%
%TD*%
%TA.AperFunction,ComponentPad*%
%ADD15C,1.600000*%
%TD*%
%TA.AperFunction,ComponentPad*%
%ADD16RoundRect,0.250000X-0.550000X-0.550000X0.550000X-0.550000X0.550000X0.550000X-0.550000X0.550000X0*%
%TD*%
%TA.AperFunction,ComponentPad*%
%ADD17R,1.800000X1.800000*%
%TD*%
%TA.AperFunction,ComponentPad*%
%ADD18C,1.800000*%
%TD*%
%TA.AperFunction,ComponentPad*%
%ADD19R,1.500000X1.500000*%
%TD*%
%TA.AperFunction,ViaPad*%
%ADD20C,0.800000*%
%TD*%
%TA.AperFunction,Conductor*%
%ADD21C,0.500000*%
%TD*%
G04 APERTURE END LIST*
D10*
%TO.P,U3,1*%
%TO.N,SA18*%
X3300000Y-43440000D03*
D11*
%TO.P,U3,2*%
%TO.N,SA16*%
X5840000Y-43440000D03*
%TO.P,U3,3*%
%TO.N,SA14*%
X8380000Y-43440000D03*
%TO.P,U3,4*%
%TO.N,A12*%
X10920000Y-43440000D03*
%TO.P,U3,5*%
%TO.N,A7*%
X13460000Y-43440000D03*
%TO.P,U3,6*%
%TO.N,A6*%
X16000000Y-43440000D03*
%TO.P,U3,7*%
%TO.N,A5*%
X18540000Y-43440000D03*
%TO.P,U3,8*%
%TO.N,A4*%
X21080000Y-43440000D03*
%TO.P,U3,9*%
%TO.N,A3*%
X23620000Y-43440000D03*
%TO.P,U3,10*%
%TO.N,A2*%
X26160000Y-43440000D03*
%TO.P,U3,11*%
%TO.N,A1*%
X28700000Y-43440000D03*
%TO.P,U3,12*%
%TO.N,A0*%
X31240000Y-43440000D03*
%TO.P,U3,13*%
%TO.N,D0*%
X33780000Y-43440000D03*
%TO.P,U3,14*%
%TO.N,D1*%
X36320000Y-43440000D03*
%TO.P,U3,15*%
%TO.N,D2*%
X38860000Y-43440000D03*
%TO.P,U3,16*%
%TO.N,GND*%
X41400000Y-43440000D03*
%TO.P,U3,17*%
%TO.N,D3*%
X41400000Y-28200000D03*
%TO.P,U3,18*%
%TO.N,D4*%
X38860000Y-28200000D03*
%TO.P,U3,19*%
%TO.N,D5*%
X36320000Y-28200000D03*
%TO.P,U3,20*%
%TO.N,D6*%
X33780000Y-28200000D03*
%TO.P,U3,21*%
%TO.N,D7*%
X31240000Y-28200000D03*
%TO.P,U3,22*%
%TO.N,RAMCS_N*%
X28700000Y-28200000D03*
%TO.P,U3,23*%
%TO.N,A10*%
X26160000Y-28200000D03*
%TO.P,U3,24*%
%TO.N,RD_N*%
X23620000Y-28200000D03*
%TO.P,U3,25*%
%TO.N,A11*%
X21080000Y-28200000D03*
%TO.P,U3,26*%
%TO.N,A9*%
X18540000Y-28200000D03*
%TO.P,U3,27*%
%TO.N,A8*%
X16000000Y-28200000D03*
%TO.P,U3,28*%
%TO.N,A13*%
X13460000Y-28200000D03*
%TO.P,U3,29*%
%TO.N,WR_N*%
X10920000Y-28200000D03*
%TO.P,U3,30*%
%TO.N,SA17_CE2*%
X8380000Y-28200000D03*
%TO.P,U3,31*%
%TO.N,SA15*%
X5840000Y-28200000D03*
%TO.P,U3,32*%
%TO.N,+5V*%
X3300000Y-28200000D03*
%TD*%
D12*
%TO.P,JP2,1*%
%TO.N,ROMCS_N*%
X55000000Y-4000000D03*
D13*
%TO.P,JP2,2*%
%TO.N,ROMCS_DRV*%
X55000000Y-6540000D03*
%TO.P,JP2,3*%
%TO.N,+5V*%
X55000000Y-9080000D03*
%TD*%
D14*
%TO.P,TP2,1*%
%TO.N,CLK7FFD*%
X56000000Y-19500000D03*
%TD*%
D12*
%TO.P,JP1,1*%
%TO.N,ROMCS_N*%
X46500000Y-4000000D03*
D13*
%TO.P,JP1,2*%
%TO.N,ROMCE_N*%
X46500000Y-6540000D03*
%TO.P,JP1,3*%
%TO.N,+5V*%
X46500000Y-9080000D03*
%TD*%
D15*
%TO.P,C5,1*%
%TO.N,+5V*%
X58000000Y-53000000D03*
%TO.P,C5,2*%
%TO.N,GND*%
X63000000Y-53000000D03*
%TD*%
%TO.P,C4,1*%
%TO.N,+5V*%
X12000000Y-24000000D03*
%TO.P,C4,2*%
%TO.N,GND*%
X17000000Y-24000000D03*
%TD*%
D10*
%TO.P,U2,1*%
%TO.N,RESET_N*%
X50800000Y-49320000D03*
D11*
%TO.P,U2,2*%
%TO.N,BANK0*%
X53340000Y-49320000D03*
%TO.P,U2,3*%
%TO.N,D0*%
X55880000Y-49320000D03*
%TO.P,U2,4*%
%TO.N,D1*%
X58420000Y-49320000D03*
%TO.P,U2,5*%
%TO.N,BANK1*%
X60960000Y-49320000D03*
%TO.P,U2,6*%
%TO.N,BANK2*%
X63500000Y-49320000D03*
%TO.P,U2,7*%
%TO.N,D2*%
X66040000Y-49320000D03*
%TO.P,U2,8*%
%TO.N,D3*%
X68580000Y-49320000D03*
%TO.P,U2,9*%
%TO.N,VRAM*%
X71120000Y-49320000D03*
%TO.P,U2,10*%
%TO.N,GND*%
X73660000Y-49320000D03*
%TO.P,U2,11*%
%TO.N,CLK7FFD*%
X73660000Y-41700000D03*
%TO.P,U2,12*%
%TO.N,ROMA14*%
X71120000Y-41700000D03*
%TO.P,U2,13*%
%TO.N,D4*%
X68580000Y-41700000D03*
%TO.P,U2,14*%
%TO.N,D5*%
X66040000Y-41700000D03*
%TO.P,U2,15*%
%TO.N,DIS128*%
X63500000Y-41700000D03*
%TO.P,U2,16*%
%TO.N,BANK3*%
X60960000Y-41700000D03*
%TO.P,U2,17*%
%TO.N,D6*%
X58420000Y-41700000D03*
%TO.P,U2,18*%
%TO.N,D7*%
X55880000Y-41700000D03*
%TO.P,U2,19*%
%TO.N,BANK4*%
X53340000Y-41700000D03*
%TO.P,U2,20*%
%TO.N,+5V*%
X50800000Y-41700000D03*
%TD*%
D15*
%TO.P,R3,1*%
%TO.N,+5V*%
X63000000Y-14500000D03*
%TO.P,R3,2*%
%TO.N,LED_A*%
X65540000Y-14500000D03*
%TD*%
D14*
%TO.P,TP1,1*%
%TO.N,VRAM*%
X52000000Y-19500000D03*
%TD*%
D10*
%TO.P,U4,1*%
%TO.N,+5V*%
X3300000Y-20440000D03*
D11*
%TO.P,U4,2*%
%TO.N,A12*%
X5840000Y-20440000D03*
%TO.P,U4,3*%
%TO.N,A7*%
X8380000Y-20440000D03*
%TO.P,U4,4*%
%TO.N,A6*%
X10920000Y-20440000D03*
%TO.P,U4,5*%
%TO.N,A5*%
X13460000Y-20440000D03*
%TO.P,U4,6*%
%TO.N,A4*%
X16000000Y-20440000D03*
%TO.P,U4,7*%
%TO.N,A3*%
X18540000Y-20440000D03*
%TO.P,U4,8*%
%TO.N,A2*%
X21080000Y-20440000D03*
%TO.P,U4,9*%
%TO.N,A1*%
X23620000Y-20440000D03*
%TO.P,U4,10*%
%TO.N,A0*%
X26160000Y-20440000D03*
%TO.P,U4,11*%
%TO.N,D0*%
X28700000Y-20440000D03*
%TO.P,U4,12*%
%TO.N,D1*%
X31240000Y-20440000D03*
%TO.P,U4,13*%
%TO.N,D2*%
X33780000Y-20440000D03*
%TO.P,U4,14*%
%TO.N,GND*%
X36320000Y-20440000D03*
%TO.P,U4,15*%
%TO.N,D3*%
X36320000Y-5200000D03*
%TO.P,U4,16*%
%TO.N,D4*%
X33780000Y-5200000D03*
%TO.P,U4,17*%
%TO.N,D5*%
X31240000Y-5200000D03*
%TO.P,U4,18*%
%TO.N,D6*%
X28700000Y-5200000D03*
%TO.P,U4,19*%
%TO.N,D7*%
X26160000Y-5200000D03*
%TO.P,U4,20*%
%TO.N,ROMCE_N*%
X23620000Y-5200000D03*
%TO.P,U4,21*%
%TO.N,A10*%
X21080000Y-5200000D03*
%TO.P,U4,22*%
%TO.N,RD_N*%
X18540000Y-5200000D03*
%TO.P,U4,23*%
%TO.N,A11*%
X16000000Y-5200000D03*
%TO.P,U4,24*%
%TO.N,A9*%
X13460000Y-5200000D03*
%TO.P,U4,25*%
%TO.N,A8*%
X10920000Y-5200000D03*
%TO.P,U4,26*%
%TO.N,A13*%
X8380000Y-5200000D03*
%TO.P,U4,27*%
%TO.N,ROMA14*%
X5840000Y-5200000D03*
%TO.P,U4,28*%
%TO.N,+5V*%
X3300000Y-5200000D03*
%TD*%
D15*
%TO.P,C2,1*%
%TO.N,+5V*%
X47300000Y-53000000D03*
%TO.P,C2,2*%
%TO.N,GND*%
X52300000Y-53000000D03*
%TD*%
D12*
%TO.P,JP4,1*%
%TO.N,RAMDIS_DRV*%
X70000000Y-4000000D03*
D13*
%TO.P,JP4,2*%
%TO.N,RAMDIS*%
X70000000Y-6540000D03*
%TD*%
D15*
%TO.P,R5,1*%
%TO.N,ROMCS_DRV*%
X57500000Y-14500000D03*
%TO.P,R5,2*%
%TO.N,ROMCS_BUS*%
X60040000Y-14500000D03*
%TD*%
D16*
%TO.P,C6,1*%
%TO.N,+5V*%
X68000000Y-55000000D03*
D15*
%TO.P,C6,2*%
%TO.N,GND*%
X70000000Y-55000000D03*
%TD*%
D17*
%TO.P,D1,1*%
%TO.N,GND*%
X46500000Y-19500000D03*
D18*
%TO.P,D1,2*%
%TO.N,LED_A*%
X49040000Y-19500000D03*
%TD*%
D10*
%TO.P,U1,1*%
%TO.N,MREQ_N*%
X48300000Y-35820000D03*
D11*
%TO.P,U1,2*%
%TO.N,ZX512*%
X50840000Y-35820000D03*
%TO.P,U1,3*%
%TO.N,A1*%
X53380000Y-35820000D03*
%TO.P,U1,4*%
%TO.N,WR_N*%
X55920000Y-35820000D03*
%TO.P,U1,5*%
%TO.N,DIS128*%
X58460000Y-35820000D03*
%TO.P,U1,6*%
%TO.N,BANK2*%
X61000000Y-35820000D03*
%TO.P,U1,7*%
%TO.N,A5*%
X63540000Y-35820000D03*
%TO.P,U1,8*%
%TO.N,BANK0*%
X66080000Y-35820000D03*
%TO.P,U1,9*%
%TO.N,BANK4*%
X68620000Y-35820000D03*
%TO.P,U1,10*%
%TO.N,BANK3*%
X71160000Y-35820000D03*
%TO.P,U1,11*%
%TO.N,BANK1*%
X73700000Y-35820000D03*
%TO.P,U1,12*%
%TO.N,GND*%
X76240000Y-35820000D03*
%TO.P,U1,13*%
%TO.N,A15*%
X76240000Y-28200000D03*
%TO.P,U1,14*%
%TO.N,A14*%
X73700000Y-28200000D03*
%TO.P,U1,15*%
%TO.N,ROMCS_N*%
X71160000Y-28200000D03*
%TO.P,U1,16*%
%TO.N,CLK7FFD*%
X68620000Y-28200000D03*
%TO.P,U1,17*%
%TO.N,SA18*%
X66080000Y-28200000D03*
%TO.P,U1,18*%
%TO.N,SA17_CE2*%
X63540000Y-28200000D03*
%TO.P,U1,19*%
%TO.N,RAMCS_N*%
X61000000Y-28200000D03*
%TO.P,U1,20*%
%TO.N,SA16*%
X58460000Y-28200000D03*
%TO.P,U1,21*%
%TO.N,SA15*%
X55920000Y-28200000D03*
%TO.P,U1,22*%
%TO.N,SA14*%
X53380000Y-28200000D03*
%TO.P,U1,23*%
%TO.N,IORQ_N*%
X50840000Y-28200000D03*
%TO.P,U1,24*%
%TO.N,+5V*%
X48300000Y-28200000D03*
%TD*%
D15*
%TO.P,C1,1*%
%TO.N,+5V*%
X48300000Y-23500000D03*
%TO.P,C1,2*%
%TO.N,GND*%
X53300000Y-23500000D03*
%TD*%
%TO.P,C3,1*%
%TO.N,+5V*%
X3300000Y-24000000D03*
%TO.P,C3,2*%
%TO.N,GND*%
X8300000Y-24000000D03*
%TD*%
%TO.P,R4,1*%
%TO.N,+5V*%
X52000000Y-14500000D03*
%TO.P,R4,2*%
%TO.N,RAMDIS_DRV*%
X54540000Y-14500000D03*
%TD*%
%TO.P,R2,1*%
%TO.N,+5V*%
X46500000Y-14500000D03*
%TO.P,R2,2*%
%TO.N,ZX512*%
X49040000Y-14500000D03*
%TD*%
D12*
%TO.P,JP3,1*%
%TO.N,ZX512*%
X63500000Y-4000000D03*
D13*
%TO.P,JP3,2*%
%TO.N,GND*%
X63500000Y-6540000D03*
%TD*%
D19*
%TO.P,J1,1*%
%TO.N,A14*%
X73660000Y-64655000D03*
D14*
%TO.P,J1,2*%
%TO.N,A12*%
X71120000Y-64655000D03*
%TO.P,J1,3*%
%TO.N,+5V*%
X68580000Y-64655000D03*
%TO.P,J1,4*%
%TO.N,BUS_9V*%
X66040000Y-64655000D03*
%TO.P,J1,6*%
%TO.N,GND*%
X60960000Y-64655000D03*
%TO.P,J1,7*%
%TO.N,BUS_P07*%
X58420000Y-64655000D03*
%TO.P,J1,8*%
%TO.N,BUS_CLK*%
X55880000Y-64655000D03*
%TO.P,J1,9*%
%TO.N,A0*%
X53340000Y-64655000D03*
%TO.P,J1,10*%
%TO.N,A1*%
X50800000Y-64655000D03*
%TO.P,J1,11*%
%TO.N,A2*%
X48260000Y-64655000D03*
%TO.P,J1,12*%
%TO.N,A3*%
X45720000Y-64655000D03*
%TO.P,J1,13*%
%TO.N,BUS_IORQGE*%
X43180000Y-64655000D03*
%TO.P,J1,14*%
%TO.N,GND*%
X40640000Y-64655000D03*
%TO.P,J1,15*%
%TO.N,BUS_P15*%
X38100000Y-64655000D03*
%TO.P,J1,16*%
%TO.N,BUS_P16*%
X35560000Y-64655000D03*
%TO.P,J1,17*%
%TO.N,RAMDIS*%
X33020000Y-64655000D03*
%TO.P,J1,18*%
%TO.N,BUS_P18*%
X30480000Y-64655000D03*
%TO.P,J1,19*%
%TO.N,BUS_BUSREQ*%
X27940000Y-64655000D03*
%TO.P,J1,20*%
%TO.N,RESET_N*%
X25400000Y-64655000D03*
%TO.P,J1,21*%
%TO.N,A7*%
X22860000Y-64655000D03*
%TO.P,J1,22*%
%TO.N,A6*%
X20320000Y-64655000D03*
%TO.P,J1,23*%
%TO.N,A5*%
X17780000Y-64655000D03*
%TO.P,J1,24*%
%TO.N,A4*%
X15240000Y-64655000D03*
%TO.P,J1,25*%
%TO.N,ROMCS_BUS*%
X12700000Y-64655000D03*
%TO.P,J1,26*%
%TO.N,BUS_BUSACK*%
X10160000Y-64655000D03*
%TO.P,J1,27*%
%TO.N,A9*%
X7620000Y-64655000D03*
%TO.P,J1,28*%
%TO.N,A11*%
X5080000Y-64655000D03*
%TO.P,J1,29*%
%TO.N,BUS_P29*%
X5080000Y-59805000D03*
%TO.P,J1,30*%
%TO.N,A10*%
X7620000Y-59805000D03*
%TO.P,J1,31*%
%TO.N,A8*%
X10160000Y-59805000D03*
%TO.P,J1,32*%
%TO.N,BUS_RFSH*%
X12700000Y-59805000D03*
%TO.P,J1,33*%
%TO.N,BUS_M1*%
X15240000Y-59805000D03*
%TO.P,J1,34*%
%TO.N,BUS_P34*%
X17780000Y-59805000D03*
%TO.P,J1,35*%
%TO.N,BUS_P35*%
X20320000Y-59805000D03*
%TO.P,J1,36*%
%TO.N,BUS_WAIT*%
X22860000Y-59805000D03*
%TO.P,J1,37*%
%TO.N,BUS_P37*%
X25400000Y-59805000D03*
%TO.P,J1,38*%
%TO.N,WR_N*%
X27940000Y-59805000D03*
%TO.P,J1,39*%
%TO.N,RD_N*%
X30480000Y-59805000D03*
%TO.P,J1,40*%
%TO.N,IORQ_N*%
X33020000Y-59805000D03*
%TO.P,J1,41*%
%TO.N,MREQ_N*%
X35560000Y-59805000D03*
%TO.P,J1,42*%
%TO.N,BUS_HALT*%
X38100000Y-59805000D03*
%TO.P,J1,43*%
%TO.N,BUS_NMI*%
X40640000Y-59805000D03*
%TO.P,J1,44*%
%TO.N,BUS_INT*%
X43180000Y-59805000D03*
%TO.P,J1,45*%
%TO.N,D4*%
X45720000Y-59805000D03*
%TO.P,J1,46*%
%TO.N,D3*%
X48260000Y-59805000D03*
%TO.P,J1,47*%
%TO.N,D5*%
X50800000Y-59805000D03*
%TO.P,J1,48*%
%TO.N,D6*%
X53340000Y-59805000D03*
%TO.P,J1,49*%
%TO.N,D2*%
X55880000Y-59805000D03*
%TO.P,J1,50*%
%TO.N,D1*%
X58420000Y-59805000D03*
%TO.P,J1,51*%
%TO.N,D0*%
X60960000Y-59805000D03*
%TO.P,J1,53*%
%TO.N,BUS_SOUNDIN*%
X66040000Y-59805000D03*
%TO.P,J1,54*%
%TO.N,D7*%
X68580000Y-59805000D03*
%TO.P,J1,55*%
%TO.N,A13*%
X71120000Y-59805000D03*
%TO.P,J1,56*%
%TO.N,A15*%
X73660000Y-59805000D03*
%TD*%
D20*
%TO.N,A7*%
X16510000Y-61245900D03*
%TO.N,A6*%
X17251600Y-41178600D03*
%TO.N,A5*%
X20133200Y-62548200D03*
X19479400Y-49180600D03*
%TO.N,A4*%
X5459800Y-30885000D03*
X15600000Y-54107000D03*
%TO.N,A3*%
X28339900Y-47918600D03*
%TO.N,A2*%
X43678200Y-58382900D03*
X36578600Y-51283300D03*
X39240000Y-19309600D03*
X42342100Y-35530900D03*
%TO.N,A1*%
X25392200Y-40757100D03*
%TO.N,D1*%
X55896600Y-44833400D03*
X34689800Y-41002400D03*
%TO.N,D4*%
X45399600Y-56229100D03*
X46377000Y-48964600D03*
X41570600Y-52471200D03*
%TO.N,D5*%
X35041400Y-24309600D03*
X37653000Y-23083400D03*
%TO.N,D6*%
X36677600Y-38389300D03*
%TO.N,D7*%
X33735100Y-40135700D03*
%TO.N,A10*%
X26160000Y-33982400D03*
%TO.N,A11*%
X17273300Y-26658000D03*
X15439800Y-32562600D03*
%TO.N,A9*%
X23451600Y-54782700D03*
%TO.N,A8*%
X9650000Y-26658800D03*
%TO.N,A13*%
X46027400Y-28768800D03*
X67453300Y-57661700D03*
%TO.N,WR_N*%
X53918600Y-46504600D03*
%TO.N,BANK0*%
X54756500Y-37520000D03*
%TO.N,ROMA14*%
X42466000Y-12411400D03*
%TO.N,RAMDIS*%
X77506700Y-7595600D03*
X71913100Y-62534900D03*
X46703600Y-62534900D03*
X44919300Y-62555200D03*
%TO.N,ROMCS_BUS*%
X4668700Y-15766700D03*
%TO.N,MREQ_N*%
X48300000Y-50852600D03*
%TO.N,ZX512*%
X45117400Y-34120000D03*
%TO.N,IORQ_N*%
X49173200Y-47498300D03*
%TD*%
%TO.N,SA18*%
D21*
X13249400Y-45890700D02*
X5537700Y-45890700D01*
X43954400Y-32408400D02*
X43596000Y-32766800D01*
X14730000Y-44410100D02*
X13249400Y-45890700D01*
X43596000Y-32766800D02*
X24394900Y-32766800D01*
X3300000Y-43653000D02*
X3300000Y-43440000D01*
X5537700Y-45890700D02*
X3300000Y-43653000D01*
X66080000Y-29900000D02*
X63571600Y-32408400D01*
X24394900Y-32766800D02*
X14730000Y-42431700D01*
X66080000Y-28200000D02*
X66080000Y-29900000D01*
X14730000Y-42431700D02*
X14730000Y-44410100D01*
X63571600Y-32408400D02*
X43954400Y-32408400D01*
%TO.N,SA16*%
X58460000Y-28200000D02*
X58460000Y-29900000D01*
X57026600Y-31333400D02*
X44015700Y-31333400D01*
X8901500Y-45140000D02*
X5840000Y-45140000D01*
X20094900Y-32050100D02*
X9650100Y-42494900D01*
X58460000Y-29900000D02*
X57026600Y-31333400D01*
X5840000Y-43440000D02*
X5840000Y-45140000D01*
X44015700Y-31333400D02*
X43299000Y-32050100D01*
X9650100Y-42494900D02*
X9650100Y-44391400D01*
X9650100Y-44391400D02*
X8901500Y-45140000D01*
X43299000Y-32050100D02*
X20094900Y-32050100D01*
%TO.N,SA14*%
X53380000Y-29900000D02*
X52663300Y-30616700D01*
X18786600Y-31333400D02*
X8380000Y-41740000D01*
X43002000Y-31333400D02*
X18786600Y-31333400D01*
X43718700Y-30616700D02*
X43002000Y-31333400D01*
X52663300Y-30616700D02*
X43718700Y-30616700D01*
X53380000Y-28200000D02*
X53380000Y-29900000D01*
X8380000Y-43440000D02*
X8380000Y-41740000D01*
%TO.N,A12*%
X67350000Y-29138300D02*
X67350000Y-27256500D01*
X74970000Y-60805000D02*
X74970000Y-34821200D01*
X72163600Y-32014800D02*
X70226500Y-32014800D01*
X39179500Y-18023300D02*
X6556700Y-18023300D01*
X70226500Y-32014800D02*
X67350000Y-29138300D01*
X74970000Y-34821200D02*
X72163600Y-32014800D01*
X5840000Y-20440000D02*
X5840000Y-18740000D01*
X43044800Y-21888600D02*
X39179500Y-18023300D01*
X61982100Y-21888600D02*
X43044800Y-21888600D01*
X6556700Y-18023300D02*
X5840000Y-18740000D01*
X67350000Y-27256500D02*
X61982100Y-21888600D01*
X71120000Y-64655000D02*
X74970000Y-60805000D01*
%TO.N,A7*%
X22860000Y-64049200D02*
X20056700Y-61245900D01*
X22860000Y-64655000D02*
X22860000Y-64049200D01*
X20056700Y-61245900D02*
X16510000Y-61245900D01*
%TO.N,A6*%
X16000000Y-42430200D02*
X17251600Y-41178600D01*
X16000000Y-43440000D02*
X16000000Y-42430200D01*
%TO.N,A5*%
X17780000Y-64655000D02*
X19886800Y-62548200D01*
X63540000Y-34120000D02*
X62633700Y-33213700D01*
X19886800Y-62548200D02*
X20133200Y-62548200D01*
X19479400Y-49180600D02*
X18540000Y-48241200D01*
X18540000Y-48241200D02*
X18540000Y-43440000D01*
X43070000Y-34664200D02*
X27315800Y-34664200D01*
X44520500Y-33213700D02*
X43070000Y-34664200D01*
X62633700Y-33213700D02*
X44520500Y-33213700D01*
X27315800Y-34664200D02*
X18540000Y-43440000D01*
X63540000Y-35820000D02*
X63540000Y-34120000D01*
%TO.N,A4*%
X16000000Y-20440000D02*
X16000000Y-22140000D01*
X15600000Y-54107000D02*
X15778800Y-54107000D01*
X4573300Y-25933200D02*
X4573300Y-29998500D01*
X8366500Y-22140000D02*
X4573300Y-25933200D01*
X16000000Y-22140000D02*
X8366500Y-22140000D01*
X21080000Y-48805800D02*
X21080000Y-43440000D01*
X4573300Y-29998500D02*
X5459800Y-30885000D01*
X15778800Y-54107000D02*
X21080000Y-48805800D01*
%TO.N,A3*%
X28339900Y-47918600D02*
X25561300Y-45140000D01*
X25561300Y-45140000D02*
X23620000Y-45140000D01*
X23620000Y-43440000D02*
X23620000Y-45140000D01*
%TO.N,A2*%
X26160000Y-41740000D02*
X25077400Y-41740000D01*
X25077400Y-41740000D02*
X24491400Y-41154000D01*
X39240000Y-19309600D02*
X38670400Y-18740000D01*
X43678200Y-58382900D02*
X44502100Y-59206800D01*
X21080000Y-20440000D02*
X21080000Y-18740000D01*
X44502100Y-59206800D02*
X44502100Y-60897100D01*
X26160000Y-43440000D02*
X34003300Y-51283300D01*
X26160000Y-43440000D02*
X26160000Y-41740000D01*
X34003300Y-51283300D02*
X36578600Y-51283300D01*
X38670400Y-18740000D02*
X21080000Y-18740000D01*
X24491400Y-41154000D02*
X24491400Y-40400400D01*
X47598000Y-64655000D02*
X48260000Y-64655000D01*
X45836900Y-62231900D02*
X45836900Y-62893900D01*
X29360900Y-35530900D02*
X42342100Y-35530900D01*
X24491400Y-40400400D02*
X29360900Y-35530900D01*
X44502100Y-60897100D02*
X45836900Y-62231900D01*
X45836900Y-62893900D02*
X47598000Y-64655000D01*
%TO.N,A1*%
X32920000Y-37520000D02*
X53380000Y-37520000D01*
X27717100Y-40757100D02*
X28700000Y-41740000D01*
X28700000Y-41740000D02*
X32920000Y-37520000D01*
X53380000Y-35820000D02*
X53380000Y-37520000D01*
X28700000Y-43440000D02*
X28700000Y-41740000D01*
X25392200Y-40757100D02*
X27717100Y-40757100D01*
%TO.N,D0*%
X33780000Y-43440000D02*
X33780000Y-41740000D01*
X47984300Y-45637800D02*
X54289800Y-45637800D01*
X44086500Y-41740000D02*
X47984300Y-45637800D01*
X35048900Y-41869100D02*
X35178000Y-41740000D01*
X35178000Y-41740000D02*
X44086500Y-41740000D01*
X34330800Y-41869100D02*
X35048900Y-41869100D01*
X54289800Y-45637800D02*
X55880000Y-47228000D01*
X33780000Y-41740000D02*
X34201700Y-41740000D01*
X55880000Y-49320000D02*
X55880000Y-47620000D01*
X55880000Y-47228000D02*
X55880000Y-47620000D01*
X34201700Y-41740000D02*
X34330800Y-41869100D01*
%TO.N,D1*%
X49255100Y-44833400D02*
X55896600Y-44833400D01*
X45424100Y-41002400D02*
X49255100Y-44833400D01*
X34689800Y-41002400D02*
X45424100Y-41002400D01*
%TO.N,D2*%
X66040000Y-51781200D02*
X62947900Y-54873300D01*
X62947900Y-54873300D02*
X60559200Y-54873300D01*
X60559200Y-54873300D02*
X55880000Y-59552500D01*
X55880000Y-59552500D02*
X55880000Y-59805000D01*
X66040000Y-49320000D02*
X66040000Y-51781200D01*
%TO.N,D3*%
X57150000Y-59323100D02*
X59770500Y-56702600D01*
X62897400Y-56702600D02*
X68580000Y-51020000D01*
X59770500Y-56702600D02*
X62897400Y-56702600D01*
X57150000Y-60277700D02*
X57150000Y-59323100D01*
X68580000Y-49320000D02*
X68580000Y-51020000D01*
X55640200Y-61787500D02*
X57150000Y-60277700D01*
X50242500Y-61787500D02*
X55640200Y-61787500D01*
X48260000Y-59805000D02*
X50242500Y-61787500D01*
%TO.N,D4*%
X59693300Y-54226900D02*
X59693300Y-47858000D01*
X59693300Y-47858000D02*
X64151300Y-43400000D01*
X52070100Y-59325600D02*
X52070100Y-60295200D01*
X52845700Y-61070800D02*
X53840000Y-61070800D01*
X53840000Y-61070800D02*
X54610000Y-60300800D01*
X45077200Y-48964600D02*
X46377000Y-48964600D01*
X45399600Y-56229100D02*
X48973600Y-56229100D01*
X68580000Y-41700000D02*
X68580000Y-43400000D01*
X54610000Y-59310200D02*
X59693300Y-54226900D01*
X48973600Y-56229100D02*
X52070100Y-59325600D01*
X54610000Y-60300800D02*
X54610000Y-59310200D01*
X41570600Y-52471200D02*
X45077200Y-48964600D01*
X52070100Y-60295200D02*
X52845700Y-61070800D01*
X64151300Y-43400000D02*
X68580000Y-43400000D01*
%TO.N,D5*%
X36267600Y-23083400D02*
X37653000Y-23083400D01*
X35041400Y-24309600D02*
X36267600Y-23083400D01*
%TO.N,D6*%
X53340000Y-55590000D02*
X53340000Y-59805000D01*
X58420000Y-40000000D02*
X55371200Y-40000000D01*
X54610000Y-42657900D02*
X53867900Y-43400000D01*
X58420000Y-41700000D02*
X58420000Y-40000000D01*
X58420000Y-43400000D02*
X57150000Y-44670000D01*
X54610000Y-40761200D02*
X54610000Y-42657900D01*
X55371200Y-40000000D02*
X54610000Y-40761200D01*
X58420000Y-41700000D02*
X58420000Y-43400000D01*
X53867900Y-43400000D02*
X49850900Y-43400000D01*
X57150000Y-44670000D02*
X57150000Y-51780000D01*
X57150000Y-51780000D02*
X53340000Y-55590000D01*
X49850900Y-43400000D02*
X44840200Y-38389300D01*
X44840200Y-38389300D02*
X36677600Y-38389300D01*
%TO.N,D7*%
X55880000Y-43400000D02*
X55163300Y-44116700D01*
X49553900Y-44116700D02*
X45572900Y-40135700D01*
X55163300Y-44116700D02*
X49553900Y-44116700D01*
X45572900Y-40135700D02*
X33735100Y-40135700D01*
X55880000Y-41700000D02*
X55880000Y-43400000D01*
%TO.N,RAMCS_N*%
X28700000Y-28200000D02*
X28700000Y-26500000D01*
X47282300Y-25783300D02*
X60283300Y-25783300D01*
X46565600Y-26500000D02*
X47282300Y-25783300D01*
X60283300Y-25783300D02*
X61000000Y-26500000D01*
X61000000Y-28200000D02*
X61000000Y-26500000D01*
X28700000Y-26500000D02*
X46565600Y-26500000D01*
%TO.N,A10*%
X7620000Y-59805000D02*
X17268500Y-50156500D01*
X17268500Y-42504500D02*
X25790600Y-33982400D01*
X17268500Y-50156500D02*
X17268500Y-42504500D01*
X25790600Y-33982400D02*
X26160000Y-33982400D01*
%TO.N,A11*%
X11640000Y-32562600D02*
X1975100Y-42227500D01*
X21080000Y-26500000D02*
X17431300Y-26500000D01*
X1975100Y-42227500D02*
X1975100Y-61550100D01*
X21080000Y-28200000D02*
X21080000Y-26500000D01*
X15439800Y-32562600D02*
X11640000Y-32562600D01*
X1975100Y-61550100D02*
X5080000Y-64655000D01*
X17431300Y-26500000D02*
X17273300Y-26658000D01*
%TO.N,A9*%
X13970000Y-59333900D02*
X18521200Y-54782700D01*
X13970000Y-60290600D02*
X13970000Y-59333900D01*
X18521200Y-54782700D02*
X23451600Y-54782700D01*
X12085400Y-62175200D02*
X13970000Y-60290600D01*
X10099800Y-62175200D02*
X12085400Y-62175200D01*
X7620000Y-64655000D02*
X10099800Y-62175200D01*
%TO.N,A8*%
X16000000Y-28200000D02*
X16000000Y-26500000D01*
X16000000Y-26500000D02*
X9808800Y-26500000D01*
X9808800Y-26500000D02*
X9650000Y-26658800D01*
%TO.N,A13*%
X42408000Y-29900000D02*
X13460000Y-29900000D01*
X68976700Y-57661700D02*
X67453300Y-57661700D01*
X13460000Y-28200000D02*
X13460000Y-29900000D01*
X71120000Y-59805000D02*
X68976700Y-57661700D01*
X46027400Y-28768800D02*
X43539200Y-28768800D01*
X43539200Y-28768800D02*
X42408000Y-29900000D01*
%TO.N,WR_N*%
X36176000Y-54753800D02*
X44425200Y-46504600D01*
X27940000Y-59805000D02*
X32991200Y-54753800D01*
X44425200Y-46504600D02*
X53918600Y-46504600D01*
X32991200Y-54753800D02*
X36176000Y-54753800D01*
%TO.N,SA17_CE2*%
X43680400Y-25066600D02*
X62106600Y-25066600D01*
X9099700Y-25780300D02*
X42966700Y-25780300D01*
X63540000Y-28200000D02*
X63540000Y-26500000D01*
X62106600Y-25066600D02*
X63540000Y-26500000D01*
X42966700Y-25780300D02*
X43680400Y-25066600D01*
X8380000Y-28200000D02*
X8380000Y-26500000D01*
X8380000Y-26500000D02*
X9099700Y-25780300D01*
%TO.N,SA15*%
X55920000Y-28200000D02*
X55920000Y-26500000D01*
X42705000Y-30616700D02*
X6556700Y-30616700D01*
X48791500Y-29900000D02*
X43421700Y-29900000D01*
X49566700Y-27269500D02*
X49566700Y-29124800D01*
X55920000Y-26500000D02*
X50336200Y-26500000D01*
X50336200Y-26500000D02*
X49566700Y-27269500D01*
X43421700Y-29900000D02*
X42705000Y-30616700D01*
X49566700Y-29124800D02*
X48791500Y-29900000D01*
X5840000Y-28200000D02*
X5840000Y-29900000D01*
X6556700Y-30616700D02*
X5840000Y-29900000D01*
%TO.N,ROMCS_N*%
X46500000Y-4000000D02*
X55000000Y-4000000D01*
%TO.N,CLK7FFD*%
X68620000Y-28200000D02*
X68620000Y-26500000D01*
X68620000Y-26500000D02*
X61620000Y-19500000D01*
X61620000Y-19500000D02*
X56000000Y-19500000D01*
%TO.N,ROMCE_N*%
X23620000Y-6900000D02*
X46140000Y-6900000D01*
X23620000Y-5200000D02*
X23620000Y-6900000D01*
X46140000Y-6900000D02*
X46500000Y-6540000D01*
%TO.N,RESET_N*%
X28286400Y-61768600D02*
X25400000Y-64655000D01*
X39370000Y-59133700D02*
X39370000Y-60280600D01*
X39370000Y-60280600D02*
X37882000Y-61768600D01*
X50800000Y-49320000D02*
X50800000Y-49612500D01*
X48679200Y-51733300D02*
X46770400Y-51733300D01*
X50800000Y-49612500D02*
X48679200Y-51733300D01*
X46770400Y-51733300D02*
X39370000Y-59133700D01*
X37882000Y-61768600D02*
X28286400Y-61768600D01*
%TO.N,BANK0*%
X66080000Y-37520000D02*
X54756500Y-37520000D01*
X66080000Y-35820000D02*
X66080000Y-37520000D01*
%TO.N,BANK1*%
X72390000Y-42668600D02*
X72390000Y-38830000D01*
X67438600Y-47620000D02*
X72390000Y-42668600D01*
X72390000Y-38830000D02*
X73700000Y-37520000D01*
X60960000Y-49320000D02*
X60960000Y-47620000D01*
X73700000Y-35820000D02*
X73700000Y-37520000D01*
X60960000Y-47620000D02*
X67438600Y-47620000D01*
%TO.N,ROMA14*%
X5840000Y-5200000D02*
X5840000Y-6900000D01*
X42466000Y-12411400D02*
X11351400Y-12411400D01*
X11351400Y-12411400D02*
X5840000Y-6900000D01*
%TO.N,BANK3*%
X71160000Y-35820000D02*
X71160000Y-37520000D01*
X60960000Y-41700000D02*
X60960000Y-40000000D01*
X68680000Y-40000000D02*
X60960000Y-40000000D01*
X71160000Y-37520000D02*
X68680000Y-40000000D01*
%TO.N,BANK4*%
X55265600Y-38236700D02*
X67903300Y-38236700D01*
X53340000Y-41700000D02*
X53340000Y-40000000D01*
X53502300Y-40000000D02*
X55265600Y-38236700D01*
X53340000Y-40000000D02*
X53502300Y-40000000D01*
X67903300Y-38236700D02*
X68620000Y-37520000D01*
X68620000Y-35820000D02*
X68620000Y-37520000D01*
%TO.N,LED_A*%
X49040000Y-19500000D02*
X51655600Y-16884400D01*
X51655600Y-16884400D02*
X63155600Y-16884400D01*
X63155600Y-16884400D02*
X65540000Y-14500000D01*
%TO.N,RAMDIS_DRV*%
X58726300Y-10313700D02*
X54540000Y-14500000D01*
X68650000Y-4000000D02*
X62336300Y-10313700D01*
X62336300Y-10313700D02*
X58726300Y-10313700D01*
X70000000Y-4000000D02*
X68650000Y-4000000D01*
%TO.N,RAMDIS*%
X71055600Y-7595600D02*
X77506700Y-7595600D01*
X46703600Y-62534900D02*
X71913100Y-62534900D01*
X70000000Y-6540000D02*
X71055600Y-7595600D01*
X35119800Y-62555200D02*
X44919300Y-62555200D01*
X33020000Y-64655000D02*
X35119800Y-62555200D01*
%TO.N,ROMCS_BUS*%
X60040000Y-14500000D02*
X58773300Y-15766700D01*
X58773300Y-15766700D02*
X4668700Y-15766700D01*
%TO.N,MREQ_N*%
X44512400Y-50852600D02*
X48300000Y-50852600D01*
X35560000Y-59805000D02*
X44512400Y-50852600D01*
%TO.N,ZX512*%
X50819200Y-12720800D02*
X49040000Y-14500000D01*
X50840000Y-35820000D02*
X50840000Y-34120000D01*
X53429200Y-12720800D02*
X50819200Y-12720800D01*
X62150000Y-4000000D02*
X53429200Y-12720800D01*
X50840000Y-34120000D02*
X45117400Y-34120000D01*
X63500000Y-4000000D02*
X62150000Y-4000000D01*
%TO.N,A14*%
X73700000Y-28200000D02*
X73700000Y-29900000D01*
X77506700Y-33706700D02*
X73700000Y-29900000D01*
X77506700Y-59558300D02*
X77506700Y-33706700D01*
X73660000Y-64655000D02*
X73660000Y-63405000D01*
X73660000Y-63405000D02*
X77506700Y-59558300D01*
%TO.N,IORQ_N*%
X45317800Y-47498300D02*
X33020000Y-59796100D01*
X49173200Y-47498300D02*
X45317800Y-47498300D01*
%TD*%
M02*
