%TF.GenerationSoftware,KiCad,Pcbnew,10.0.4*%
%TF.CreationDate,2026-07-27T02:18:27-03:00*%
%TF.ProjectId,tkmem128,746b6d65-6d31-4323-982e-6b696361645f,rev?*%
%TF.SameCoordinates,Original*%
%TF.FileFunction,Drillmap*%
%TF.FilePolarity,Positive*%
%FSLAX45Y45*%
G04 Gerber Fmt 4.5, Leading zero omitted, Abs format (unit mm)*
G04 Created by KiCad (PCBNEW 10.0.4) date 2026-07-27 02:18:27*
%MOMM*%
%LPD*%
G01*
G04 APERTURE LIST*
%ADD10C,0.100000*%
%ADD11C,0.200000*%
%ADD12C,0.102000*%
G04 APERTURE END LIST*
D10*
X0Y0D02*
X0Y-6604000D01*
X0Y0D02*
X7874000Y0D01*
X0Y-6604000D02*
X7874000Y-6604000D01*
X7874000Y0D02*
X7874000Y-6604000D01*
D11*
D10*
X183090Y-5699120D02*
X218090Y-5734120D01*
X218090Y-5699120D02*
X183090Y-5734120D01*
X941800Y-2268500D02*
X976800Y-2303500D01*
X976800Y-2268500D02*
X941800Y-2303500D01*
X1427090Y-5020030D02*
X1462090Y-5055030D01*
X1462090Y-5020030D02*
X1427090Y-5055030D01*
X2163750Y-4479220D02*
X2198750Y-4514220D01*
X2198750Y-4479220D02*
X2163750Y-4514220D01*
X2304930Y-5610480D02*
X2339930Y-5645480D01*
X2339930Y-5610480D02*
X2304930Y-5645480D01*
X2332820Y-2167230D02*
X2367820Y-2202230D01*
X2367820Y-2167230D02*
X2332820Y-2202230D01*
X2398190Y-4603950D02*
X2433190Y-4638950D01*
X2433190Y-4603950D02*
X2398190Y-4638950D01*
X2432640Y-655650D02*
X2467640Y-690650D01*
X2467640Y-655650D02*
X2432640Y-690650D01*
X2526690Y-4955820D02*
X2561690Y-4990820D01*
X2561690Y-4955820D02*
X2526690Y-4990820D01*
X2975050Y-2268500D02*
X3010050Y-2303500D01*
X3010050Y-2268500D02*
X2975050Y-2303500D01*
X3014090Y-4760090D02*
X3049090Y-4795090D01*
X3049090Y-4760090D02*
X3014090Y-4795090D01*
X3029350Y-4654690D02*
X3064350Y-4689690D01*
X3064350Y-4654690D02*
X3029350Y-4689690D01*
X3101610Y-6211160D02*
X3136610Y-6246160D01*
X3136610Y-6211160D02*
X3101610Y-6246160D01*
X3239210Y-1760500D02*
X3274210Y-1795500D01*
X3274210Y-1760500D02*
X3239210Y-1795500D01*
X3239210Y-2268440D02*
X3274210Y-2303440D01*
X3274210Y-2268440D02*
X3239210Y-2303440D01*
X3457850Y-5834570D02*
X3492850Y-5869570D01*
X3492850Y-5834570D02*
X3457850Y-5869570D01*
X3587140Y-1696780D02*
X3622140Y-1731780D01*
X3622140Y-1696780D02*
X3587140Y-1731780D01*
X3606340Y-4029600D02*
X3641340Y-4064600D01*
X3641340Y-4029600D02*
X3606340Y-4064600D01*
X3634420Y-1486610D02*
X3669420Y-1521610D01*
X3669420Y-1486610D02*
X3634420Y-1521610D01*
X3676090Y-3544130D02*
X3711090Y-3579130D01*
X3711090Y-3544130D02*
X3676090Y-3579130D01*
X3704050Y-5020960D02*
X3739050Y-5055960D01*
X3739050Y-5020960D02*
X3704050Y-5055960D01*
X3900540Y-1483730D02*
X3935540Y-1518730D01*
X3935540Y-1483730D02*
X3900540Y-1518730D01*
X3958210Y-3792500D02*
X3993210Y-3827500D01*
X3993210Y-3792500D02*
X3958210Y-3827500D01*
X4162660Y-6041430D02*
X4197660Y-6076430D01*
X4197660Y-6041430D02*
X4162660Y-6076430D01*
X4302310Y-3166730D02*
X4337310Y-3201730D01*
X4337310Y-3166730D02*
X4302310Y-3201730D01*
X4364530Y-2302020D02*
X4399530Y-2337020D01*
X4399530Y-2302020D02*
X4364530Y-2337020D01*
X4382400Y-3946860D02*
X4417400Y-3981860D01*
X4417400Y-3946860D02*
X4382400Y-3981860D01*
X4414670Y-6171760D02*
X4449670Y-6206760D01*
X4449670Y-6171760D02*
X4414670Y-6206760D01*
X4424730Y-1332660D02*
X4459730Y-1367660D01*
X4459730Y-1332660D02*
X4424730Y-1367660D01*
X4424790Y-1106140D02*
X4459790Y-1141140D01*
X4459790Y-1106140D02*
X4424790Y-1141140D01*
X4486390Y-3259780D02*
X4521390Y-3294780D01*
X4521390Y-3259780D02*
X4486390Y-3294780D01*
X4607300Y-4544510D02*
X4642300Y-4579510D01*
X4642300Y-4544510D02*
X4607300Y-4579510D01*
X4784580Y-5825470D02*
X4819580Y-5860470D01*
X4819580Y-5825470D02*
X4784580Y-5860470D01*
X4828170Y-2444720D02*
X4863170Y-2479720D01*
X4863170Y-2444720D02*
X4828170Y-2479720D01*
X4863030Y-4805890D02*
X4898030Y-4840890D01*
X4898030Y-4805890D02*
X4863030Y-4840890D01*
X4876610Y-2886640D02*
X4911610Y-2921640D01*
X4911610Y-2886640D02*
X4876610Y-2921640D01*
X4936140Y-3148140D02*
X4971140Y-3183140D01*
X4971140Y-3148140D02*
X4936140Y-3183140D01*
X5248420Y-3431770D02*
X5283420Y-3466770D01*
X5283420Y-3431770D02*
X5248420Y-3466770D01*
X5248420Y-4239350D02*
X5283420Y-4274350D01*
X5283420Y-4239350D02*
X5248420Y-4274350D01*
X5379860Y-4031150D02*
X5414860Y-4066150D01*
X5414860Y-4031150D02*
X5379860Y-4066150D01*
X5589210Y-2416080D02*
X5624210Y-2451080D01*
X5624210Y-2416080D02*
X5589210Y-2451080D01*
X5758230Y-3946860D02*
X5793230Y-3981860D01*
X5793230Y-3946860D02*
X5758230Y-3981860D01*
X6328750Y-6053130D02*
X6363750Y-6088130D01*
X6363750Y-6053130D02*
X6328750Y-6088130D01*
X7049060Y-3040880D02*
X7084060Y-3075880D01*
X7084060Y-3040880D02*
X7049060Y-3075880D01*
X6035000Y-4720000D02*
G75*
G02*
X5965000Y-4720000I-35000J0D01*
G01*
X5965000Y-4720000D02*
G75*
G02*
X6035000Y-4720000I35000J0D01*
G01*
X6435000Y-4720000D02*
G75*
G02*
X6365000Y-4720000I-35000J0D01*
G01*
X6365000Y-4720000D02*
G75*
G02*
X6435000Y-4720000I35000J0D01*
G01*
X400000Y-4680000D02*
X400000Y-4760000D01*
X360000Y-4720000D02*
X440000Y-4720000D01*
X500000Y-5290000D02*
X500000Y-5370000D01*
X460000Y-5330000D02*
X540000Y-5330000D01*
X635000Y-468000D02*
X635000Y-548000D01*
X595000Y-508000D02*
X675000Y-508000D01*
X635000Y-722000D02*
X635000Y-802000D01*
X595000Y-762000D02*
X675000Y-762000D01*
X635000Y-976000D02*
X635000Y-1056000D01*
X595000Y-1016000D02*
X675000Y-1016000D01*
X635000Y-1230000D02*
X635000Y-1310000D01*
X595000Y-1270000D02*
X675000Y-1270000D01*
X635000Y-1484000D02*
X635000Y-1564000D01*
X595000Y-1524000D02*
X675000Y-1524000D01*
X635000Y-1738000D02*
X635000Y-1818000D01*
X595000Y-1778000D02*
X675000Y-1778000D01*
X635000Y-1992000D02*
X635000Y-2072000D01*
X595000Y-2032000D02*
X675000Y-2032000D01*
X635000Y-2246000D02*
X635000Y-2326000D01*
X595000Y-2286000D02*
X675000Y-2286000D01*
X635000Y-2500000D02*
X635000Y-2580000D01*
X595000Y-2540000D02*
X675000Y-2540000D01*
X635000Y-2754000D02*
X635000Y-2834000D01*
X595000Y-2794000D02*
X675000Y-2794000D01*
X635000Y-3008000D02*
X635000Y-3088000D01*
X595000Y-3048000D02*
X675000Y-3048000D01*
X635000Y-3262000D02*
X635000Y-3342000D01*
X595000Y-3302000D02*
X675000Y-3302000D01*
X635000Y-3516000D02*
X635000Y-3596000D01*
X595000Y-3556000D02*
X675000Y-3556000D01*
X635000Y-3770000D02*
X635000Y-3850000D01*
X595000Y-3810000D02*
X675000Y-3810000D01*
X635000Y-4024000D02*
X635000Y-4104000D01*
X595000Y-4064000D02*
X675000Y-4064000D01*
X635000Y-4278000D02*
X635000Y-4358000D01*
X595000Y-4318000D02*
X675000Y-4318000D01*
X754000Y-5290000D02*
X754000Y-5370000D01*
X714000Y-5330000D02*
X794000Y-5330000D01*
X900000Y-4680000D02*
X900000Y-4760000D01*
X860000Y-4720000D02*
X940000Y-4720000D01*
X1100000Y-5290000D02*
X1100000Y-5370000D01*
X1060000Y-5330000D02*
X1140000Y-5330000D01*
X1200000Y-4680000D02*
X1200000Y-4760000D01*
X1160000Y-4720000D02*
X1240000Y-4720000D01*
X1354000Y-5290000D02*
X1354000Y-5370000D01*
X1314000Y-5330000D02*
X1394000Y-5330000D01*
X1700000Y-4680000D02*
X1700000Y-4760000D01*
X1660000Y-4720000D02*
X1740000Y-4720000D01*
X1700000Y-5290000D02*
X1700000Y-5370000D01*
X1660000Y-5330000D02*
X1740000Y-5330000D01*
X1954000Y-5290000D02*
X1954000Y-5370000D01*
X1914000Y-5330000D02*
X1994000Y-5330000D01*
X2000000Y-4680000D02*
X2000000Y-4760000D01*
X1960000Y-4720000D02*
X2040000Y-4720000D01*
X2159000Y-468000D02*
X2159000Y-548000D01*
X2119000Y-508000D02*
X2199000Y-508000D01*
X2159000Y-722000D02*
X2159000Y-802000D01*
X2119000Y-762000D02*
X2199000Y-762000D01*
X2159000Y-976000D02*
X2159000Y-1056000D01*
X2119000Y-1016000D02*
X2199000Y-1016000D01*
X2159000Y-1230000D02*
X2159000Y-1310000D01*
X2119000Y-1270000D02*
X2199000Y-1270000D01*
X2159000Y-1484000D02*
X2159000Y-1564000D01*
X2119000Y-1524000D02*
X2199000Y-1524000D01*
X2159000Y-1738000D02*
X2159000Y-1818000D01*
X2119000Y-1778000D02*
X2199000Y-1778000D01*
X2159000Y-1992000D02*
X2159000Y-2072000D01*
X2119000Y-2032000D02*
X2199000Y-2032000D01*
X2159000Y-2246000D02*
X2159000Y-2326000D01*
X2119000Y-2286000D02*
X2199000Y-2286000D01*
X2159000Y-2500000D02*
X2159000Y-2580000D01*
X2119000Y-2540000D02*
X2199000Y-2540000D01*
X2159000Y-2754000D02*
X2159000Y-2834000D01*
X2119000Y-2794000D02*
X2199000Y-2794000D01*
X2159000Y-3008000D02*
X2159000Y-3088000D01*
X2119000Y-3048000D02*
X2199000Y-3048000D01*
X2159000Y-3262000D02*
X2159000Y-3342000D01*
X2119000Y-3302000D02*
X2199000Y-3302000D01*
X2159000Y-3516000D02*
X2159000Y-3596000D01*
X2119000Y-3556000D02*
X2199000Y-3556000D01*
X2159000Y-3770000D02*
X2159000Y-3850000D01*
X2119000Y-3810000D02*
X2199000Y-3810000D01*
X2159000Y-4024000D02*
X2159000Y-4104000D01*
X2119000Y-4064000D02*
X2199000Y-4064000D01*
X2159000Y-4278000D02*
X2159000Y-4358000D01*
X2119000Y-4318000D02*
X2199000Y-4318000D01*
X2300000Y-5290000D02*
X2300000Y-5370000D01*
X2260000Y-5330000D02*
X2340000Y-5330000D01*
X2500000Y-4680000D02*
X2500000Y-4760000D01*
X2460000Y-4720000D02*
X2540000Y-4720000D01*
X2554000Y-5290000D02*
X2554000Y-5370000D01*
X2514000Y-5330000D02*
X2594000Y-5330000D01*
X2667000Y-722000D02*
X2667000Y-802000D01*
X2627000Y-762000D02*
X2707000Y-762000D01*
X2667000Y-976000D02*
X2667000Y-1056000D01*
X2627000Y-1016000D02*
X2707000Y-1016000D01*
X2667000Y-1230000D02*
X2667000Y-1310000D01*
X2627000Y-1270000D02*
X2707000Y-1270000D01*
X2667000Y-1484000D02*
X2667000Y-1564000D01*
X2627000Y-1524000D02*
X2707000Y-1524000D01*
X2667000Y-1738000D02*
X2667000Y-1818000D01*
X2627000Y-1778000D02*
X2707000Y-1778000D01*
X2667000Y-1992000D02*
X2667000Y-2072000D01*
X2627000Y-2032000D02*
X2707000Y-2032000D01*
X2667000Y-2246000D02*
X2667000Y-2326000D01*
X2627000Y-2286000D02*
X2707000Y-2286000D01*
X2667000Y-2500000D02*
X2667000Y-2580000D01*
X2627000Y-2540000D02*
X2707000Y-2540000D01*
X2667000Y-2754000D02*
X2667000Y-2834000D01*
X2627000Y-2794000D02*
X2707000Y-2794000D01*
X2667000Y-3008000D02*
X2667000Y-3088000D01*
X2627000Y-3048000D02*
X2707000Y-3048000D01*
X2667000Y-3262000D02*
X2667000Y-3342000D01*
X2627000Y-3302000D02*
X2707000Y-3302000D01*
X2667000Y-3516000D02*
X2667000Y-3596000D01*
X2627000Y-3556000D02*
X2707000Y-3556000D01*
X2667000Y-3770000D02*
X2667000Y-3850000D01*
X2627000Y-3810000D02*
X2707000Y-3810000D01*
X2667000Y-4024000D02*
X2667000Y-4104000D01*
X2627000Y-4064000D02*
X2707000Y-4064000D01*
X2800000Y-4680000D02*
X2800000Y-4760000D01*
X2760000Y-4720000D02*
X2840000Y-4720000D01*
X3300000Y-4680000D02*
X3300000Y-4760000D01*
X3260000Y-4720000D02*
X3340000Y-4720000D01*
X3600000Y-4680000D02*
X3600000Y-4760000D01*
X3560000Y-4720000D02*
X3640000Y-4720000D01*
X4100000Y-4680000D02*
X4100000Y-4760000D01*
X4060000Y-4720000D02*
X4140000Y-4720000D01*
X4191000Y-722000D02*
X4191000Y-802000D01*
X4151000Y-762000D02*
X4231000Y-762000D01*
X4191000Y-976000D02*
X4191000Y-1056000D01*
X4151000Y-1016000D02*
X4231000Y-1016000D01*
X4191000Y-1230000D02*
X4191000Y-1310000D01*
X4151000Y-1270000D02*
X4231000Y-1270000D01*
X4191000Y-1484000D02*
X4191000Y-1564000D01*
X4151000Y-1524000D02*
X4231000Y-1524000D01*
X4191000Y-1738000D02*
X4191000Y-1818000D01*
X4151000Y-1778000D02*
X4231000Y-1778000D01*
X4191000Y-1992000D02*
X4191000Y-2072000D01*
X4151000Y-2032000D02*
X4231000Y-2032000D01*
X4191000Y-2246000D02*
X4191000Y-2326000D01*
X4151000Y-2286000D02*
X4231000Y-2286000D01*
X4191000Y-2500000D02*
X4191000Y-2580000D01*
X4151000Y-2540000D02*
X4231000Y-2540000D01*
X4191000Y-2754000D02*
X4191000Y-2834000D01*
X4151000Y-2794000D02*
X4231000Y-2794000D01*
X4191000Y-3008000D02*
X4191000Y-3088000D01*
X4151000Y-3048000D02*
X4231000Y-3048000D01*
X4191000Y-3262000D02*
X4191000Y-3342000D01*
X4151000Y-3302000D02*
X4231000Y-3302000D01*
X4191000Y-3516000D02*
X4191000Y-3596000D01*
X4151000Y-3556000D02*
X4231000Y-3556000D01*
X4191000Y-3770000D02*
X4191000Y-3850000D01*
X4151000Y-3810000D02*
X4231000Y-3810000D01*
X4191000Y-4024000D02*
X4191000Y-4104000D01*
X4151000Y-4064000D02*
X4231000Y-4064000D01*
X4400000Y-4680000D02*
X4400000Y-4760000D01*
X4360000Y-4720000D02*
X4440000Y-4720000D01*
X4600000Y-4680000D02*
X4600000Y-4760000D01*
X4560000Y-4720000D02*
X4640000Y-4720000D01*
X4699000Y-976000D02*
X4699000Y-1056000D01*
X4659000Y-1016000D02*
X4739000Y-1016000D01*
X4699000Y-1230000D02*
X4699000Y-1310000D01*
X4659000Y-1270000D02*
X4739000Y-1270000D01*
X4699000Y-1484000D02*
X4699000Y-1564000D01*
X4659000Y-1524000D02*
X4739000Y-1524000D01*
X4699000Y-1738000D02*
X4699000Y-1818000D01*
X4659000Y-1778000D02*
X4739000Y-1778000D01*
X4699000Y-1992000D02*
X4699000Y-2072000D01*
X4659000Y-2032000D02*
X4739000Y-2032000D01*
X4699000Y-2246000D02*
X4699000Y-2326000D01*
X4659000Y-2286000D02*
X4739000Y-2286000D01*
X4699000Y-2500000D02*
X4699000Y-2580000D01*
X4659000Y-2540000D02*
X4739000Y-2540000D01*
X4699000Y-2754000D02*
X4699000Y-2834000D01*
X4659000Y-2794000D02*
X4739000Y-2794000D01*
X4699000Y-3008000D02*
X4699000Y-3088000D01*
X4659000Y-3048000D02*
X4739000Y-3048000D01*
X4699000Y-3262000D02*
X4699000Y-3342000D01*
X4659000Y-3302000D02*
X4739000Y-3302000D01*
X4699000Y-3516000D02*
X4699000Y-3596000D01*
X4659000Y-3556000D02*
X4739000Y-3556000D01*
X4699000Y-3770000D02*
X4699000Y-3850000D01*
X4659000Y-3810000D02*
X4739000Y-3810000D01*
X5461000Y-976000D02*
X5461000Y-1056000D01*
X5421000Y-1016000D02*
X5501000Y-1016000D01*
X5461000Y-1230000D02*
X5461000Y-1310000D01*
X5421000Y-1270000D02*
X5501000Y-1270000D01*
X5461000Y-1484000D02*
X5461000Y-1564000D01*
X5421000Y-1524000D02*
X5501000Y-1524000D01*
X5461000Y-1738000D02*
X5461000Y-1818000D01*
X5421000Y-1778000D02*
X5501000Y-1778000D01*
X5461000Y-1992000D02*
X5461000Y-2072000D01*
X5421000Y-2032000D02*
X5501000Y-2032000D01*
X5461000Y-2246000D02*
X5461000Y-2326000D01*
X5421000Y-2286000D02*
X5501000Y-2286000D01*
X5461000Y-2500000D02*
X5461000Y-2580000D01*
X5421000Y-2540000D02*
X5501000Y-2540000D01*
X5461000Y-2754000D02*
X5461000Y-2834000D01*
X5421000Y-2794000D02*
X5501000Y-2794000D01*
X5461000Y-3008000D02*
X5461000Y-3088000D01*
X5421000Y-3048000D02*
X5501000Y-3048000D01*
X5461000Y-3262000D02*
X5461000Y-3342000D01*
X5421000Y-3302000D02*
X5501000Y-3302000D01*
X5461000Y-3516000D02*
X5461000Y-3596000D01*
X5421000Y-3556000D02*
X5501000Y-3556000D01*
X5461000Y-3770000D02*
X5461000Y-3850000D01*
X5421000Y-3810000D02*
X5501000Y-3810000D01*
X5969000Y-1230000D02*
X5969000Y-1310000D01*
X5929000Y-1270000D02*
X6009000Y-1270000D01*
X5969000Y-1484000D02*
X5969000Y-1564000D01*
X5929000Y-1524000D02*
X6009000Y-1524000D01*
X5969000Y-1738000D02*
X5969000Y-1818000D01*
X5929000Y-1778000D02*
X6009000Y-1778000D01*
X5969000Y-1992000D02*
X5969000Y-2072000D01*
X5929000Y-2032000D02*
X6009000Y-2032000D01*
X5969000Y-2246000D02*
X5969000Y-2326000D01*
X5929000Y-2286000D02*
X6009000Y-2286000D01*
X5969000Y-2500000D02*
X5969000Y-2580000D01*
X5929000Y-2540000D02*
X6009000Y-2540000D01*
X5969000Y-2754000D02*
X5969000Y-2834000D01*
X5929000Y-2794000D02*
X6009000Y-2794000D01*
X5969000Y-3008000D02*
X5969000Y-3088000D01*
X5929000Y-3048000D02*
X6009000Y-3048000D01*
X5969000Y-3262000D02*
X5969000Y-3342000D01*
X5929000Y-3302000D02*
X6009000Y-3302000D01*
X5969000Y-3516000D02*
X5969000Y-3596000D01*
X5929000Y-3556000D02*
X6009000Y-3556000D01*
X6731000Y-1230000D02*
X6731000Y-1310000D01*
X6691000Y-1270000D02*
X6771000Y-1270000D01*
X6731000Y-1484000D02*
X6731000Y-1564000D01*
X6691000Y-1524000D02*
X6771000Y-1524000D01*
X6731000Y-1738000D02*
X6731000Y-1818000D01*
X6691000Y-1778000D02*
X6771000Y-1778000D01*
X6731000Y-1992000D02*
X6731000Y-2072000D01*
X6691000Y-2032000D02*
X6771000Y-2032000D01*
X6731000Y-2246000D02*
X6731000Y-2326000D01*
X6691000Y-2286000D02*
X6771000Y-2286000D01*
X6731000Y-2500000D02*
X6731000Y-2580000D01*
X6691000Y-2540000D02*
X6771000Y-2540000D01*
X6731000Y-2754000D02*
X6731000Y-2834000D01*
X6691000Y-2794000D02*
X6771000Y-2794000D01*
X6731000Y-3008000D02*
X6731000Y-3088000D01*
X6691000Y-3048000D02*
X6771000Y-3048000D01*
X6731000Y-3262000D02*
X6731000Y-3342000D01*
X6691000Y-3302000D02*
X6771000Y-3302000D01*
X6731000Y-3516000D02*
X6731000Y-3596000D01*
X6691000Y-3556000D02*
X6771000Y-3556000D01*
X5231820Y-4751820D02*
X5231820Y-4688180D01*
X5168180Y-4688180D01*
X5168180Y-4751820D01*
X5231820Y-4751820D01*
X5485820Y-4751820D02*
X5485820Y-4688180D01*
X5422180Y-4688180D01*
X5422180Y-4751820D01*
X5485820Y-4751820D01*
X7150000Y-850000D02*
X7200000Y-800000D01*
X7150000Y-750000D01*
X7100000Y-800000D01*
X7150000Y-850000D01*
X7150000Y-1104000D02*
X7200000Y-1054000D01*
X7150000Y-1004000D01*
X7100000Y-1054000D01*
X7150000Y-1104000D01*
X7150000Y-1358000D02*
X7200000Y-1308000D01*
X7150000Y-1258000D01*
X7100000Y-1308000D01*
X7150000Y-1358000D01*
X7150000Y-1750000D02*
X7200000Y-1700000D01*
X7150000Y-1650000D01*
X7100000Y-1700000D01*
X7150000Y-1750000D01*
X7150000Y-2004000D02*
X7200000Y-1954000D01*
X7150000Y-1904000D01*
X7100000Y-1954000D01*
X7150000Y-2004000D01*
X7150000Y-2258000D02*
X7200000Y-2208000D01*
X7150000Y-2158000D01*
X7100000Y-2208000D01*
X7150000Y-2258000D01*
X7150000Y-2650000D02*
X7200000Y-2600000D01*
X7150000Y-2550000D01*
X7100000Y-2600000D01*
X7150000Y-2650000D01*
X7150000Y-2904000D02*
X7200000Y-2854000D01*
X7150000Y-2804000D01*
X7100000Y-2854000D01*
X7150000Y-2904000D01*
X7150000Y-3400000D02*
X7200000Y-3350000D01*
X7150000Y-3300000D01*
X7100000Y-3350000D01*
X7150000Y-3400000D01*
X7150000Y-3654000D02*
X7200000Y-3604000D01*
X7150000Y-3554000D01*
X7100000Y-3604000D01*
X7150000Y-3654000D01*
D12*
X457000Y-5929500D02*
X559000Y-6031500D01*
X559000Y-5929500D02*
X457000Y-6031500D01*
X559000Y-5980500D02*
G75*
G02*
X457000Y-5980500I-51000J0D01*
G01*
X457000Y-5980500D02*
G75*
G02*
X559000Y-5980500I51000J0D01*
G01*
X457000Y-6414500D02*
X559000Y-6516500D01*
X559000Y-6414500D02*
X457000Y-6516500D01*
X559000Y-6465500D02*
G75*
G02*
X457000Y-6465500I-51000J0D01*
G01*
X457000Y-6465500D02*
G75*
G02*
X559000Y-6465500I51000J0D01*
G01*
X711000Y-5929500D02*
X813000Y-6031500D01*
X813000Y-5929500D02*
X711000Y-6031500D01*
X813000Y-5980500D02*
G75*
G02*
X711000Y-5980500I-51000J0D01*
G01*
X711000Y-5980500D02*
G75*
G02*
X813000Y-5980500I51000J0D01*
G01*
X711000Y-6414500D02*
X813000Y-6516500D01*
X813000Y-6414500D02*
X711000Y-6516500D01*
X813000Y-6465500D02*
G75*
G02*
X711000Y-6465500I-51000J0D01*
G01*
X711000Y-6465500D02*
G75*
G02*
X813000Y-6465500I51000J0D01*
G01*
X965000Y-5929500D02*
X1067000Y-6031500D01*
X1067000Y-5929500D02*
X965000Y-6031500D01*
X1067000Y-5980500D02*
G75*
G02*
X965000Y-5980500I-51000J0D01*
G01*
X965000Y-5980500D02*
G75*
G02*
X1067000Y-5980500I51000J0D01*
G01*
X965000Y-6414500D02*
X1067000Y-6516500D01*
X1067000Y-6414500D02*
X965000Y-6516500D01*
X1067000Y-6465500D02*
G75*
G02*
X965000Y-6465500I-51000J0D01*
G01*
X965000Y-6465500D02*
G75*
G02*
X1067000Y-6465500I51000J0D01*
G01*
X1219000Y-5929500D02*
X1321000Y-6031500D01*
X1321000Y-5929500D02*
X1219000Y-6031500D01*
X1321000Y-5980500D02*
G75*
G02*
X1219000Y-5980500I-51000J0D01*
G01*
X1219000Y-5980500D02*
G75*
G02*
X1321000Y-5980500I51000J0D01*
G01*
X1219000Y-6414500D02*
X1321000Y-6516500D01*
X1321000Y-6414500D02*
X1219000Y-6516500D01*
X1321000Y-6465500D02*
G75*
G02*
X1219000Y-6465500I-51000J0D01*
G01*
X1219000Y-6465500D02*
G75*
G02*
X1321000Y-6465500I51000J0D01*
G01*
X1473000Y-5929500D02*
X1575000Y-6031500D01*
X1575000Y-5929500D02*
X1473000Y-6031500D01*
X1575000Y-5980500D02*
G75*
G02*
X1473000Y-5980500I-51000J0D01*
G01*
X1473000Y-5980500D02*
G75*
G02*
X1575000Y-5980500I51000J0D01*
G01*
X1473000Y-6414500D02*
X1575000Y-6516500D01*
X1575000Y-6414500D02*
X1473000Y-6516500D01*
X1575000Y-6465500D02*
G75*
G02*
X1473000Y-6465500I-51000J0D01*
G01*
X1473000Y-6465500D02*
G75*
G02*
X1575000Y-6465500I51000J0D01*
G01*
X1727000Y-5929500D02*
X1829000Y-6031500D01*
X1829000Y-5929500D02*
X1727000Y-6031500D01*
X1829000Y-5980500D02*
G75*
G02*
X1727000Y-5980500I-51000J0D01*
G01*
X1727000Y-5980500D02*
G75*
G02*
X1829000Y-5980500I51000J0D01*
G01*
X1727000Y-6414500D02*
X1829000Y-6516500D01*
X1829000Y-6414500D02*
X1727000Y-6516500D01*
X1829000Y-6465500D02*
G75*
G02*
X1727000Y-6465500I-51000J0D01*
G01*
X1727000Y-6465500D02*
G75*
G02*
X1829000Y-6465500I51000J0D01*
G01*
X1981000Y-5929500D02*
X2083000Y-6031500D01*
X2083000Y-5929500D02*
X1981000Y-6031500D01*
X2083000Y-5980500D02*
G75*
G02*
X1981000Y-5980500I-51000J0D01*
G01*
X1981000Y-5980500D02*
G75*
G02*
X2083000Y-5980500I51000J0D01*
G01*
X1981000Y-6414500D02*
X2083000Y-6516500D01*
X2083000Y-6414500D02*
X1981000Y-6516500D01*
X2083000Y-6465500D02*
G75*
G02*
X1981000Y-6465500I-51000J0D01*
G01*
X1981000Y-6465500D02*
G75*
G02*
X2083000Y-6465500I51000J0D01*
G01*
X2235000Y-5929500D02*
X2337000Y-6031500D01*
X2337000Y-5929500D02*
X2235000Y-6031500D01*
X2337000Y-5980500D02*
G75*
G02*
X2235000Y-5980500I-51000J0D01*
G01*
X2235000Y-5980500D02*
G75*
G02*
X2337000Y-5980500I51000J0D01*
G01*
X2235000Y-6414500D02*
X2337000Y-6516500D01*
X2337000Y-6414500D02*
X2235000Y-6516500D01*
X2337000Y-6465500D02*
G75*
G02*
X2235000Y-6465500I-51000J0D01*
G01*
X2235000Y-6465500D02*
G75*
G02*
X2337000Y-6465500I51000J0D01*
G01*
X2489000Y-5929500D02*
X2591000Y-6031500D01*
X2591000Y-5929500D02*
X2489000Y-6031500D01*
X2591000Y-5980500D02*
G75*
G02*
X2489000Y-5980500I-51000J0D01*
G01*
X2489000Y-5980500D02*
G75*
G02*
X2591000Y-5980500I51000J0D01*
G01*
X2489000Y-6414500D02*
X2591000Y-6516500D01*
X2591000Y-6414500D02*
X2489000Y-6516500D01*
X2591000Y-6465500D02*
G75*
G02*
X2489000Y-6465500I-51000J0D01*
G01*
X2489000Y-6465500D02*
G75*
G02*
X2591000Y-6465500I51000J0D01*
G01*
X2743000Y-5929500D02*
X2845000Y-6031500D01*
X2845000Y-5929500D02*
X2743000Y-6031500D01*
X2845000Y-5980500D02*
G75*
G02*
X2743000Y-5980500I-51000J0D01*
G01*
X2743000Y-5980500D02*
G75*
G02*
X2845000Y-5980500I51000J0D01*
G01*
X2743000Y-6414500D02*
X2845000Y-6516500D01*
X2845000Y-6414500D02*
X2743000Y-6516500D01*
X2845000Y-6465500D02*
G75*
G02*
X2743000Y-6465500I-51000J0D01*
G01*
X2743000Y-6465500D02*
G75*
G02*
X2845000Y-6465500I51000J0D01*
G01*
X2997000Y-5929500D02*
X3099000Y-6031500D01*
X3099000Y-5929500D02*
X2997000Y-6031500D01*
X3099000Y-5980500D02*
G75*
G02*
X2997000Y-5980500I-51000J0D01*
G01*
X2997000Y-5980500D02*
G75*
G02*
X3099000Y-5980500I51000J0D01*
G01*
X2997000Y-6414500D02*
X3099000Y-6516500D01*
X3099000Y-6414500D02*
X2997000Y-6516500D01*
X3099000Y-6465500D02*
G75*
G02*
X2997000Y-6465500I-51000J0D01*
G01*
X2997000Y-6465500D02*
G75*
G02*
X3099000Y-6465500I51000J0D01*
G01*
X3251000Y-5929500D02*
X3353000Y-6031500D01*
X3353000Y-5929500D02*
X3251000Y-6031500D01*
X3353000Y-5980500D02*
G75*
G02*
X3251000Y-5980500I-51000J0D01*
G01*
X3251000Y-5980500D02*
G75*
G02*
X3353000Y-5980500I51000J0D01*
G01*
X3251000Y-6414500D02*
X3353000Y-6516500D01*
X3353000Y-6414500D02*
X3251000Y-6516500D01*
X3353000Y-6465500D02*
G75*
G02*
X3251000Y-6465500I-51000J0D01*
G01*
X3251000Y-6465500D02*
G75*
G02*
X3353000Y-6465500I51000J0D01*
G01*
X3505000Y-5929500D02*
X3607000Y-6031500D01*
X3607000Y-5929500D02*
X3505000Y-6031500D01*
X3607000Y-5980500D02*
G75*
G02*
X3505000Y-5980500I-51000J0D01*
G01*
X3505000Y-5980500D02*
G75*
G02*
X3607000Y-5980500I51000J0D01*
G01*
X3505000Y-6414500D02*
X3607000Y-6516500D01*
X3607000Y-6414500D02*
X3505000Y-6516500D01*
X3607000Y-6465500D02*
G75*
G02*
X3505000Y-6465500I-51000J0D01*
G01*
X3505000Y-6465500D02*
G75*
G02*
X3607000Y-6465500I51000J0D01*
G01*
X3759000Y-5929500D02*
X3861000Y-6031500D01*
X3861000Y-5929500D02*
X3759000Y-6031500D01*
X3861000Y-5980500D02*
G75*
G02*
X3759000Y-5980500I-51000J0D01*
G01*
X3759000Y-5980500D02*
G75*
G02*
X3861000Y-5980500I51000J0D01*
G01*
X3759000Y-6414500D02*
X3861000Y-6516500D01*
X3861000Y-6414500D02*
X3759000Y-6516500D01*
X3861000Y-6465500D02*
G75*
G02*
X3759000Y-6465500I-51000J0D01*
G01*
X3759000Y-6465500D02*
G75*
G02*
X3861000Y-6465500I51000J0D01*
G01*
X4013000Y-5929500D02*
X4115000Y-6031500D01*
X4115000Y-5929500D02*
X4013000Y-6031500D01*
X4115000Y-5980500D02*
G75*
G02*
X4013000Y-5980500I-51000J0D01*
G01*
X4013000Y-5980500D02*
G75*
G02*
X4115000Y-5980500I51000J0D01*
G01*
X4013000Y-6414500D02*
X4115000Y-6516500D01*
X4115000Y-6414500D02*
X4013000Y-6516500D01*
X4115000Y-6465500D02*
G75*
G02*
X4013000Y-6465500I-51000J0D01*
G01*
X4013000Y-6465500D02*
G75*
G02*
X4115000Y-6465500I51000J0D01*
G01*
X4267000Y-5929500D02*
X4369000Y-6031500D01*
X4369000Y-5929500D02*
X4267000Y-6031500D01*
X4369000Y-5980500D02*
G75*
G02*
X4267000Y-5980500I-51000J0D01*
G01*
X4267000Y-5980500D02*
G75*
G02*
X4369000Y-5980500I51000J0D01*
G01*
X4267000Y-6414500D02*
X4369000Y-6516500D01*
X4369000Y-6414500D02*
X4267000Y-6516500D01*
X4369000Y-6465500D02*
G75*
G02*
X4267000Y-6465500I-51000J0D01*
G01*
X4267000Y-6465500D02*
G75*
G02*
X4369000Y-6465500I51000J0D01*
G01*
X4521000Y-5929500D02*
X4623000Y-6031500D01*
X4623000Y-5929500D02*
X4521000Y-6031500D01*
X4623000Y-5980500D02*
G75*
G02*
X4521000Y-5980500I-51000J0D01*
G01*
X4521000Y-5980500D02*
G75*
G02*
X4623000Y-5980500I51000J0D01*
G01*
X4521000Y-6414500D02*
X4623000Y-6516500D01*
X4623000Y-6414500D02*
X4521000Y-6516500D01*
X4623000Y-6465500D02*
G75*
G02*
X4521000Y-6465500I-51000J0D01*
G01*
X4521000Y-6465500D02*
G75*
G02*
X4623000Y-6465500I51000J0D01*
G01*
X4775000Y-5929500D02*
X4877000Y-6031500D01*
X4877000Y-5929500D02*
X4775000Y-6031500D01*
X4877000Y-5980500D02*
G75*
G02*
X4775000Y-5980500I-51000J0D01*
G01*
X4775000Y-5980500D02*
G75*
G02*
X4877000Y-5980500I51000J0D01*
G01*
X4775000Y-6414500D02*
X4877000Y-6516500D01*
X4877000Y-6414500D02*
X4775000Y-6516500D01*
X4877000Y-6465500D02*
G75*
G02*
X4775000Y-6465500I-51000J0D01*
G01*
X4775000Y-6465500D02*
G75*
G02*
X4877000Y-6465500I51000J0D01*
G01*
X5029000Y-5929500D02*
X5131000Y-6031500D01*
X5131000Y-5929500D02*
X5029000Y-6031500D01*
X5131000Y-5980500D02*
G75*
G02*
X5029000Y-5980500I-51000J0D01*
G01*
X5029000Y-5980500D02*
G75*
G02*
X5131000Y-5980500I51000J0D01*
G01*
X5029000Y-6414500D02*
X5131000Y-6516500D01*
X5131000Y-6414500D02*
X5029000Y-6516500D01*
X5131000Y-6465500D02*
G75*
G02*
X5029000Y-6465500I-51000J0D01*
G01*
X5029000Y-6465500D02*
G75*
G02*
X5131000Y-6465500I51000J0D01*
G01*
X5283000Y-5929500D02*
X5385000Y-6031500D01*
X5385000Y-5929500D02*
X5283000Y-6031500D01*
X5385000Y-5980500D02*
G75*
G02*
X5283000Y-5980500I-51000J0D01*
G01*
X5283000Y-5980500D02*
G75*
G02*
X5385000Y-5980500I51000J0D01*
G01*
X5283000Y-6414500D02*
X5385000Y-6516500D01*
X5385000Y-6414500D02*
X5283000Y-6516500D01*
X5385000Y-6465500D02*
G75*
G02*
X5283000Y-6465500I-51000J0D01*
G01*
X5283000Y-6465500D02*
G75*
G02*
X5385000Y-6465500I51000J0D01*
G01*
X5537000Y-5929500D02*
X5639000Y-6031500D01*
X5639000Y-5929500D02*
X5537000Y-6031500D01*
X5639000Y-5980500D02*
G75*
G02*
X5537000Y-5980500I-51000J0D01*
G01*
X5537000Y-5980500D02*
G75*
G02*
X5639000Y-5980500I51000J0D01*
G01*
X5537000Y-6414500D02*
X5639000Y-6516500D01*
X5639000Y-6414500D02*
X5537000Y-6516500D01*
X5639000Y-6465500D02*
G75*
G02*
X5537000Y-6465500I-51000J0D01*
G01*
X5537000Y-6465500D02*
G75*
G02*
X5639000Y-6465500I51000J0D01*
G01*
X5791000Y-5929500D02*
X5893000Y-6031500D01*
X5893000Y-5929500D02*
X5791000Y-6031500D01*
X5893000Y-5980500D02*
G75*
G02*
X5791000Y-5980500I-51000J0D01*
G01*
X5791000Y-5980500D02*
G75*
G02*
X5893000Y-5980500I51000J0D01*
G01*
X5791000Y-6414500D02*
X5893000Y-6516500D01*
X5893000Y-6414500D02*
X5791000Y-6516500D01*
X5893000Y-6465500D02*
G75*
G02*
X5791000Y-6465500I-51000J0D01*
G01*
X5791000Y-6465500D02*
G75*
G02*
X5893000Y-6465500I51000J0D01*
G01*
X6045000Y-5929500D02*
X6147000Y-6031500D01*
X6147000Y-5929500D02*
X6045000Y-6031500D01*
X6147000Y-5980500D02*
G75*
G02*
X6045000Y-5980500I-51000J0D01*
G01*
X6045000Y-5980500D02*
G75*
G02*
X6147000Y-5980500I51000J0D01*
G01*
X6045000Y-6414500D02*
X6147000Y-6516500D01*
X6147000Y-6414500D02*
X6045000Y-6516500D01*
X6147000Y-6465500D02*
G75*
G02*
X6045000Y-6465500I-51000J0D01*
G01*
X6045000Y-6465500D02*
G75*
G02*
X6147000Y-6465500I51000J0D01*
G01*
X6553000Y-5929500D02*
X6655000Y-6031500D01*
X6655000Y-5929500D02*
X6553000Y-6031500D01*
X6655000Y-5980500D02*
G75*
G02*
X6553000Y-5980500I-51000J0D01*
G01*
X6553000Y-5980500D02*
G75*
G02*
X6655000Y-5980500I51000J0D01*
G01*
X6553000Y-6414500D02*
X6655000Y-6516500D01*
X6655000Y-6414500D02*
X6553000Y-6516500D01*
X6655000Y-6465500D02*
G75*
G02*
X6553000Y-6465500I-51000J0D01*
G01*
X6553000Y-6465500D02*
G75*
G02*
X6655000Y-6465500I51000J0D01*
G01*
X6807000Y-5929500D02*
X6909000Y-6031500D01*
X6909000Y-5929500D02*
X6807000Y-6031500D01*
X6909000Y-5980500D02*
G75*
G02*
X6807000Y-5980500I-51000J0D01*
G01*
X6807000Y-5980500D02*
G75*
G02*
X6909000Y-5980500I51000J0D01*
G01*
X6807000Y-6414500D02*
X6909000Y-6516500D01*
X6909000Y-6414500D02*
X6807000Y-6516500D01*
X6909000Y-6465500D02*
G75*
G02*
X6807000Y-6465500I-51000J0D01*
G01*
X6807000Y-6465500D02*
G75*
G02*
X6909000Y-6465500I51000J0D01*
G01*
X7061000Y-5929500D02*
X7163000Y-6031500D01*
X7163000Y-5929500D02*
X7061000Y-6031500D01*
X7163000Y-5980500D02*
G75*
G02*
X7061000Y-5980500I-51000J0D01*
G01*
X7061000Y-5980500D02*
G75*
G02*
X7163000Y-5980500I51000J0D01*
G01*
X7061000Y-6414500D02*
X7163000Y-6516500D01*
X7163000Y-6414500D02*
X7061000Y-6516500D01*
X7163000Y-6465500D02*
G75*
G02*
X7061000Y-6465500I-51000J0D01*
G01*
X7061000Y-6465500D02*
G75*
G02*
X7163000Y-6465500I51000J0D01*
G01*
X7315000Y-5929500D02*
X7417000Y-6031500D01*
X7417000Y-5929500D02*
X7315000Y-6031500D01*
X7417000Y-5980500D02*
G75*
G02*
X7315000Y-5980500I-51000J0D01*
G01*
X7315000Y-5980500D02*
G75*
G02*
X7417000Y-5980500I51000J0D01*
G01*
X7315000Y-6414500D02*
X7417000Y-6516500D01*
X7417000Y-6414500D02*
X7315000Y-6516500D01*
X7417000Y-6465500D02*
G75*
G02*
X7315000Y-6465500I-51000J0D01*
G01*
X7315000Y-6465500D02*
G75*
G02*
X7417000Y-6465500I51000J0D01*
G01*
D11*
X255777Y-6920484D02*
X255777Y-6720484D01*
X255777Y-6720484D02*
X303396Y-6720484D01*
X303396Y-6720484D02*
X331967Y-6730008D01*
X331967Y-6730008D02*
X351015Y-6749055D01*
X351015Y-6749055D02*
X360539Y-6768103D01*
X360539Y-6768103D02*
X370062Y-6806198D01*
X370062Y-6806198D02*
X370062Y-6834769D01*
X370062Y-6834769D02*
X360539Y-6872865D01*
X360539Y-6872865D02*
X351015Y-6891912D01*
X351015Y-6891912D02*
X331967Y-6910960D01*
X331967Y-6910960D02*
X303396Y-6920484D01*
X303396Y-6920484D02*
X255777Y-6920484D01*
X455777Y-6920484D02*
X455777Y-6787150D01*
X455777Y-6825246D02*
X465301Y-6806198D01*
X465301Y-6806198D02*
X474824Y-6796674D01*
X474824Y-6796674D02*
X493872Y-6787150D01*
X493872Y-6787150D02*
X512920Y-6787150D01*
X579586Y-6920484D02*
X579586Y-6787150D01*
X579586Y-6720484D02*
X570063Y-6730008D01*
X570063Y-6730008D02*
X579586Y-6739531D01*
X579586Y-6739531D02*
X589110Y-6730008D01*
X589110Y-6730008D02*
X579586Y-6720484D01*
X579586Y-6720484D02*
X579586Y-6739531D01*
X703396Y-6920484D02*
X684348Y-6910960D01*
X684348Y-6910960D02*
X674824Y-6891912D01*
X674824Y-6891912D02*
X674824Y-6720484D01*
X808158Y-6920484D02*
X789110Y-6910960D01*
X789110Y-6910960D02*
X779586Y-6891912D01*
X779586Y-6891912D02*
X779586Y-6720484D01*
X1036729Y-6920484D02*
X1036729Y-6720484D01*
X1036729Y-6720484D02*
X1103396Y-6863341D01*
X1103396Y-6863341D02*
X1170063Y-6720484D01*
X1170063Y-6720484D02*
X1170063Y-6920484D01*
X1351015Y-6920484D02*
X1351015Y-6815722D01*
X1351015Y-6815722D02*
X1341491Y-6796674D01*
X1341491Y-6796674D02*
X1322444Y-6787150D01*
X1322444Y-6787150D02*
X1284348Y-6787150D01*
X1284348Y-6787150D02*
X1265301Y-6796674D01*
X1351015Y-6910960D02*
X1331967Y-6920484D01*
X1331967Y-6920484D02*
X1284348Y-6920484D01*
X1284348Y-6920484D02*
X1265301Y-6910960D01*
X1265301Y-6910960D02*
X1255777Y-6891912D01*
X1255777Y-6891912D02*
X1255777Y-6872865D01*
X1255777Y-6872865D02*
X1265301Y-6853817D01*
X1265301Y-6853817D02*
X1284348Y-6844293D01*
X1284348Y-6844293D02*
X1331967Y-6844293D01*
X1331967Y-6844293D02*
X1351015Y-6834769D01*
X1446253Y-6787150D02*
X1446253Y-6987150D01*
X1446253Y-6796674D02*
X1465301Y-6787150D01*
X1465301Y-6787150D02*
X1503396Y-6787150D01*
X1503396Y-6787150D02*
X1522443Y-6796674D01*
X1522443Y-6796674D02*
X1531967Y-6806198D01*
X1531967Y-6806198D02*
X1541491Y-6825246D01*
X1541491Y-6825246D02*
X1541491Y-6882388D01*
X1541491Y-6882388D02*
X1531967Y-6901436D01*
X1531967Y-6901436D02*
X1522443Y-6910960D01*
X1522443Y-6910960D02*
X1503396Y-6920484D01*
X1503396Y-6920484D02*
X1465301Y-6920484D01*
X1465301Y-6920484D02*
X1446253Y-6910960D01*
X1627205Y-6901436D02*
X1636729Y-6910960D01*
X1636729Y-6910960D02*
X1627205Y-6920484D01*
X1627205Y-6920484D02*
X1617682Y-6910960D01*
X1617682Y-6910960D02*
X1627205Y-6901436D01*
X1627205Y-6901436D02*
X1627205Y-6920484D01*
X1627205Y-6796674D02*
X1636729Y-6806198D01*
X1636729Y-6806198D02*
X1627205Y-6815722D01*
X1627205Y-6815722D02*
X1617682Y-6806198D01*
X1617682Y-6806198D02*
X1627205Y-6796674D01*
X1627205Y-6796674D02*
X1627205Y-6815722D01*
D10*
X-40000Y-7231500D02*
X-5000Y-7266500D01*
X-5000Y-7231500D02*
X-40000Y-7266500D01*
D11*
X293872Y-7140484D02*
X312920Y-7140484D01*
X312920Y-7140484D02*
X331967Y-7150008D01*
X331967Y-7150008D02*
X341491Y-7159531D01*
X341491Y-7159531D02*
X351015Y-7178579D01*
X351015Y-7178579D02*
X360539Y-7216674D01*
X360539Y-7216674D02*
X360539Y-7264293D01*
X360539Y-7264293D02*
X351015Y-7302388D01*
X351015Y-7302388D02*
X341491Y-7321436D01*
X341491Y-7321436D02*
X331967Y-7330960D01*
X331967Y-7330960D02*
X312920Y-7340484D01*
X312920Y-7340484D02*
X293872Y-7340484D01*
X293872Y-7340484D02*
X274824Y-7330960D01*
X274824Y-7330960D02*
X265301Y-7321436D01*
X265301Y-7321436D02*
X255777Y-7302388D01*
X255777Y-7302388D02*
X246253Y-7264293D01*
X246253Y-7264293D02*
X246253Y-7216674D01*
X246253Y-7216674D02*
X255777Y-7178579D01*
X255777Y-7178579D02*
X265301Y-7159531D01*
X265301Y-7159531D02*
X274824Y-7150008D01*
X274824Y-7150008D02*
X293872Y-7140484D01*
X455777Y-7330960D02*
X455777Y-7340484D01*
X455777Y-7340484D02*
X446253Y-7359531D01*
X446253Y-7359531D02*
X436729Y-7369055D01*
X522443Y-7140484D02*
X646253Y-7140484D01*
X646253Y-7140484D02*
X579586Y-7216674D01*
X579586Y-7216674D02*
X608158Y-7216674D01*
X608158Y-7216674D02*
X627205Y-7226198D01*
X627205Y-7226198D02*
X636729Y-7235722D01*
X636729Y-7235722D02*
X646253Y-7254769D01*
X646253Y-7254769D02*
X646253Y-7302388D01*
X646253Y-7302388D02*
X636729Y-7321436D01*
X636729Y-7321436D02*
X627205Y-7330960D01*
X627205Y-7330960D02*
X608158Y-7340484D01*
X608158Y-7340484D02*
X551015Y-7340484D01*
X551015Y-7340484D02*
X531967Y-7330960D01*
X531967Y-7330960D02*
X522443Y-7321436D01*
X827205Y-7140484D02*
X731967Y-7140484D01*
X731967Y-7140484D02*
X722443Y-7235722D01*
X722443Y-7235722D02*
X731967Y-7226198D01*
X731967Y-7226198D02*
X751015Y-7216674D01*
X751015Y-7216674D02*
X798634Y-7216674D01*
X798634Y-7216674D02*
X817682Y-7226198D01*
X817682Y-7226198D02*
X827205Y-7235722D01*
X827205Y-7235722D02*
X836729Y-7254769D01*
X836729Y-7254769D02*
X836729Y-7302388D01*
X836729Y-7302388D02*
X827205Y-7321436D01*
X827205Y-7321436D02*
X817682Y-7330960D01*
X817682Y-7330960D02*
X798634Y-7340484D01*
X798634Y-7340484D02*
X751015Y-7340484D01*
X751015Y-7340484D02*
X731967Y-7330960D01*
X731967Y-7330960D02*
X722443Y-7321436D01*
X960539Y-7140484D02*
X979586Y-7140484D01*
X979586Y-7140484D02*
X998634Y-7150008D01*
X998634Y-7150008D02*
X1008158Y-7159531D01*
X1008158Y-7159531D02*
X1017682Y-7178579D01*
X1017682Y-7178579D02*
X1027205Y-7216674D01*
X1027205Y-7216674D02*
X1027205Y-7264293D01*
X1027205Y-7264293D02*
X1017682Y-7302388D01*
X1017682Y-7302388D02*
X1008158Y-7321436D01*
X1008158Y-7321436D02*
X998634Y-7330960D01*
X998634Y-7330960D02*
X979586Y-7340484D01*
X979586Y-7340484D02*
X960539Y-7340484D01*
X960539Y-7340484D02*
X941491Y-7330960D01*
X941491Y-7330960D02*
X931967Y-7321436D01*
X931967Y-7321436D02*
X922443Y-7302388D01*
X922443Y-7302388D02*
X912920Y-7264293D01*
X912920Y-7264293D02*
X912920Y-7216674D01*
X912920Y-7216674D02*
X922443Y-7178579D01*
X922443Y-7178579D02*
X931967Y-7159531D01*
X931967Y-7159531D02*
X941491Y-7150008D01*
X941491Y-7150008D02*
X960539Y-7140484D01*
X1112920Y-7340484D02*
X1112920Y-7207150D01*
X1112920Y-7226198D02*
X1122444Y-7216674D01*
X1122444Y-7216674D02*
X1141491Y-7207150D01*
X1141491Y-7207150D02*
X1170063Y-7207150D01*
X1170063Y-7207150D02*
X1189110Y-7216674D01*
X1189110Y-7216674D02*
X1198634Y-7235722D01*
X1198634Y-7235722D02*
X1198634Y-7340484D01*
X1198634Y-7235722D02*
X1208158Y-7216674D01*
X1208158Y-7216674D02*
X1227205Y-7207150D01*
X1227205Y-7207150D02*
X1255777Y-7207150D01*
X1255777Y-7207150D02*
X1274825Y-7216674D01*
X1274825Y-7216674D02*
X1284348Y-7235722D01*
X1284348Y-7235722D02*
X1284348Y-7340484D01*
X1379586Y-7340484D02*
X1379586Y-7207150D01*
X1379586Y-7226198D02*
X1389110Y-7216674D01*
X1389110Y-7216674D02*
X1408158Y-7207150D01*
X1408158Y-7207150D02*
X1436729Y-7207150D01*
X1436729Y-7207150D02*
X1455777Y-7216674D01*
X1455777Y-7216674D02*
X1465301Y-7235722D01*
X1465301Y-7235722D02*
X1465301Y-7340484D01*
X1465301Y-7235722D02*
X1474824Y-7216674D01*
X1474824Y-7216674D02*
X1493872Y-7207150D01*
X1493872Y-7207150D02*
X1522443Y-7207150D01*
X1522443Y-7207150D02*
X1541491Y-7216674D01*
X1541491Y-7216674D02*
X1551015Y-7235722D01*
X1551015Y-7235722D02*
X1551015Y-7340484D01*
X1941491Y-7130960D02*
X1770063Y-7388103D01*
X2198634Y-7140484D02*
X2217682Y-7140484D01*
X2217682Y-7140484D02*
X2236729Y-7150008D01*
X2236729Y-7150008D02*
X2246253Y-7159531D01*
X2246253Y-7159531D02*
X2255777Y-7178579D01*
X2255777Y-7178579D02*
X2265301Y-7216674D01*
X2265301Y-7216674D02*
X2265301Y-7264293D01*
X2265301Y-7264293D02*
X2255777Y-7302388D01*
X2255777Y-7302388D02*
X2246253Y-7321436D01*
X2246253Y-7321436D02*
X2236729Y-7330960D01*
X2236729Y-7330960D02*
X2217682Y-7340484D01*
X2217682Y-7340484D02*
X2198634Y-7340484D01*
X2198634Y-7340484D02*
X2179587Y-7330960D01*
X2179587Y-7330960D02*
X2170063Y-7321436D01*
X2170063Y-7321436D02*
X2160539Y-7302388D01*
X2160539Y-7302388D02*
X2151015Y-7264293D01*
X2151015Y-7264293D02*
X2151015Y-7216674D01*
X2151015Y-7216674D02*
X2160539Y-7178579D01*
X2160539Y-7178579D02*
X2170063Y-7159531D01*
X2170063Y-7159531D02*
X2179587Y-7150008D01*
X2179587Y-7150008D02*
X2198634Y-7140484D01*
X2360539Y-7330960D02*
X2360539Y-7340484D01*
X2360539Y-7340484D02*
X2351015Y-7359531D01*
X2351015Y-7359531D02*
X2341491Y-7369055D01*
X2484348Y-7140484D02*
X2503396Y-7140484D01*
X2503396Y-7140484D02*
X2522444Y-7150008D01*
X2522444Y-7150008D02*
X2531968Y-7159531D01*
X2531968Y-7159531D02*
X2541491Y-7178579D01*
X2541491Y-7178579D02*
X2551015Y-7216674D01*
X2551015Y-7216674D02*
X2551015Y-7264293D01*
X2551015Y-7264293D02*
X2541491Y-7302388D01*
X2541491Y-7302388D02*
X2531968Y-7321436D01*
X2531968Y-7321436D02*
X2522444Y-7330960D01*
X2522444Y-7330960D02*
X2503396Y-7340484D01*
X2503396Y-7340484D02*
X2484348Y-7340484D01*
X2484348Y-7340484D02*
X2465301Y-7330960D01*
X2465301Y-7330960D02*
X2455777Y-7321436D01*
X2455777Y-7321436D02*
X2446253Y-7302388D01*
X2446253Y-7302388D02*
X2436729Y-7264293D01*
X2436729Y-7264293D02*
X2436729Y-7216674D01*
X2436729Y-7216674D02*
X2446253Y-7178579D01*
X2446253Y-7178579D02*
X2455777Y-7159531D01*
X2455777Y-7159531D02*
X2465301Y-7150008D01*
X2465301Y-7150008D02*
X2484348Y-7140484D01*
X2741491Y-7340484D02*
X2627206Y-7340484D01*
X2684348Y-7340484D02*
X2684348Y-7140484D01*
X2684348Y-7140484D02*
X2665301Y-7169055D01*
X2665301Y-7169055D02*
X2646253Y-7188103D01*
X2646253Y-7188103D02*
X2627206Y-7197627D01*
X2808158Y-7140484D02*
X2931967Y-7140484D01*
X2931967Y-7140484D02*
X2865301Y-7216674D01*
X2865301Y-7216674D02*
X2893872Y-7216674D01*
X2893872Y-7216674D02*
X2912920Y-7226198D01*
X2912920Y-7226198D02*
X2922444Y-7235722D01*
X2922444Y-7235722D02*
X2931967Y-7254769D01*
X2931967Y-7254769D02*
X2931967Y-7302388D01*
X2931967Y-7302388D02*
X2922444Y-7321436D01*
X2922444Y-7321436D02*
X2912920Y-7330960D01*
X2912920Y-7330960D02*
X2893872Y-7340484D01*
X2893872Y-7340484D02*
X2836729Y-7340484D01*
X2836729Y-7340484D02*
X2817682Y-7330960D01*
X2817682Y-7330960D02*
X2808158Y-7321436D01*
X3046253Y-7226198D02*
X3027206Y-7216674D01*
X3027206Y-7216674D02*
X3017682Y-7207150D01*
X3017682Y-7207150D02*
X3008158Y-7188103D01*
X3008158Y-7188103D02*
X3008158Y-7178579D01*
X3008158Y-7178579D02*
X3017682Y-7159531D01*
X3017682Y-7159531D02*
X3027206Y-7150008D01*
X3027206Y-7150008D02*
X3046253Y-7140484D01*
X3046253Y-7140484D02*
X3084348Y-7140484D01*
X3084348Y-7140484D02*
X3103396Y-7150008D01*
X3103396Y-7150008D02*
X3112920Y-7159531D01*
X3112920Y-7159531D02*
X3122444Y-7178579D01*
X3122444Y-7178579D02*
X3122444Y-7188103D01*
X3122444Y-7188103D02*
X3112920Y-7207150D01*
X3112920Y-7207150D02*
X3103396Y-7216674D01*
X3103396Y-7216674D02*
X3084348Y-7226198D01*
X3084348Y-7226198D02*
X3046253Y-7226198D01*
X3046253Y-7226198D02*
X3027206Y-7235722D01*
X3027206Y-7235722D02*
X3017682Y-7245246D01*
X3017682Y-7245246D02*
X3008158Y-7264293D01*
X3008158Y-7264293D02*
X3008158Y-7302388D01*
X3008158Y-7302388D02*
X3017682Y-7321436D01*
X3017682Y-7321436D02*
X3027206Y-7330960D01*
X3027206Y-7330960D02*
X3046253Y-7340484D01*
X3046253Y-7340484D02*
X3084348Y-7340484D01*
X3084348Y-7340484D02*
X3103396Y-7330960D01*
X3103396Y-7330960D02*
X3112920Y-7321436D01*
X3112920Y-7321436D02*
X3122444Y-7302388D01*
X3122444Y-7302388D02*
X3122444Y-7264293D01*
X3122444Y-7264293D02*
X3112920Y-7245246D01*
X3112920Y-7245246D02*
X3103396Y-7235722D01*
X3103396Y-7235722D02*
X3084348Y-7226198D01*
X3198634Y-7140484D02*
X3198634Y-7178579D01*
X3274825Y-7140484D02*
X3274825Y-7178579D01*
X3570063Y-7416674D02*
X3560539Y-7407150D01*
X3560539Y-7407150D02*
X3541491Y-7378579D01*
X3541491Y-7378579D02*
X3531968Y-7359531D01*
X3531968Y-7359531D02*
X3522444Y-7330960D01*
X3522444Y-7330960D02*
X3512920Y-7283341D01*
X3512920Y-7283341D02*
X3512920Y-7245246D01*
X3512920Y-7245246D02*
X3522444Y-7197627D01*
X3522444Y-7197627D02*
X3531968Y-7169055D01*
X3531968Y-7169055D02*
X3541491Y-7150008D01*
X3541491Y-7150008D02*
X3560539Y-7121436D01*
X3560539Y-7121436D02*
X3570063Y-7111912D01*
X3731968Y-7207150D02*
X3731968Y-7340484D01*
X3684348Y-7130960D02*
X3636729Y-7273817D01*
X3636729Y-7273817D02*
X3760539Y-7273817D01*
X3922444Y-7207150D02*
X3922444Y-7340484D01*
X3874825Y-7130960D02*
X3827206Y-7273817D01*
X3827206Y-7273817D02*
X3951015Y-7273817D01*
X4179587Y-7340484D02*
X4179587Y-7140484D01*
X4265301Y-7340484D02*
X4265301Y-7235722D01*
X4265301Y-7235722D02*
X4255777Y-7216674D01*
X4255777Y-7216674D02*
X4236730Y-7207150D01*
X4236730Y-7207150D02*
X4208158Y-7207150D01*
X4208158Y-7207150D02*
X4189110Y-7216674D01*
X4189110Y-7216674D02*
X4179587Y-7226198D01*
X4389111Y-7340484D02*
X4370063Y-7330960D01*
X4370063Y-7330960D02*
X4360539Y-7321436D01*
X4360539Y-7321436D02*
X4351015Y-7302388D01*
X4351015Y-7302388D02*
X4351015Y-7245246D01*
X4351015Y-7245246D02*
X4360539Y-7226198D01*
X4360539Y-7226198D02*
X4370063Y-7216674D01*
X4370063Y-7216674D02*
X4389111Y-7207150D01*
X4389111Y-7207150D02*
X4417682Y-7207150D01*
X4417682Y-7207150D02*
X4436730Y-7216674D01*
X4436730Y-7216674D02*
X4446253Y-7226198D01*
X4446253Y-7226198D02*
X4455777Y-7245246D01*
X4455777Y-7245246D02*
X4455777Y-7302388D01*
X4455777Y-7302388D02*
X4446253Y-7321436D01*
X4446253Y-7321436D02*
X4436730Y-7330960D01*
X4436730Y-7330960D02*
X4417682Y-7340484D01*
X4417682Y-7340484D02*
X4389111Y-7340484D01*
X4570063Y-7340484D02*
X4551015Y-7330960D01*
X4551015Y-7330960D02*
X4541492Y-7311912D01*
X4541492Y-7311912D02*
X4541492Y-7140484D01*
X4722444Y-7330960D02*
X4703396Y-7340484D01*
X4703396Y-7340484D02*
X4665301Y-7340484D01*
X4665301Y-7340484D02*
X4646253Y-7330960D01*
X4646253Y-7330960D02*
X4636730Y-7311912D01*
X4636730Y-7311912D02*
X4636730Y-7235722D01*
X4636730Y-7235722D02*
X4646253Y-7216674D01*
X4646253Y-7216674D02*
X4665301Y-7207150D01*
X4665301Y-7207150D02*
X4703396Y-7207150D01*
X4703396Y-7207150D02*
X4722444Y-7216674D01*
X4722444Y-7216674D02*
X4731968Y-7235722D01*
X4731968Y-7235722D02*
X4731968Y-7254769D01*
X4731968Y-7254769D02*
X4636730Y-7273817D01*
X4808158Y-7330960D02*
X4827206Y-7340484D01*
X4827206Y-7340484D02*
X4865301Y-7340484D01*
X4865301Y-7340484D02*
X4884349Y-7330960D01*
X4884349Y-7330960D02*
X4893873Y-7311912D01*
X4893873Y-7311912D02*
X4893873Y-7302388D01*
X4893873Y-7302388D02*
X4884349Y-7283341D01*
X4884349Y-7283341D02*
X4865301Y-7273817D01*
X4865301Y-7273817D02*
X4836730Y-7273817D01*
X4836730Y-7273817D02*
X4817682Y-7264293D01*
X4817682Y-7264293D02*
X4808158Y-7245246D01*
X4808158Y-7245246D02*
X4808158Y-7235722D01*
X4808158Y-7235722D02*
X4817682Y-7216674D01*
X4817682Y-7216674D02*
X4836730Y-7207150D01*
X4836730Y-7207150D02*
X4865301Y-7207150D01*
X4865301Y-7207150D02*
X4884349Y-7216674D01*
X4960539Y-7416674D02*
X4970063Y-7407150D01*
X4970063Y-7407150D02*
X4989111Y-7378579D01*
X4989111Y-7378579D02*
X4998634Y-7359531D01*
X4998634Y-7359531D02*
X5008158Y-7330960D01*
X5008158Y-7330960D02*
X5017682Y-7283341D01*
X5017682Y-7283341D02*
X5017682Y-7245246D01*
X5017682Y-7245246D02*
X5008158Y-7197627D01*
X5008158Y-7197627D02*
X4998634Y-7169055D01*
X4998634Y-7169055D02*
X4989111Y-7150008D01*
X4989111Y-7150008D02*
X4970063Y-7121436D01*
X4970063Y-7121436D02*
X4960539Y-7111912D01*
D10*
X-5000Y-7513000D02*
G75*
G02*
X-75000Y-7513000I-35000J0D01*
G01*
X-75000Y-7513000D02*
G75*
G02*
X-5000Y-7513000I35000J0D01*
G01*
D11*
X293872Y-7404484D02*
X312920Y-7404484D01*
X312920Y-7404484D02*
X331967Y-7414008D01*
X331967Y-7414008D02*
X341491Y-7423531D01*
X341491Y-7423531D02*
X351015Y-7442579D01*
X351015Y-7442579D02*
X360539Y-7480674D01*
X360539Y-7480674D02*
X360539Y-7528293D01*
X360539Y-7528293D02*
X351015Y-7566388D01*
X351015Y-7566388D02*
X341491Y-7585436D01*
X341491Y-7585436D02*
X331967Y-7594960D01*
X331967Y-7594960D02*
X312920Y-7604484D01*
X312920Y-7604484D02*
X293872Y-7604484D01*
X293872Y-7604484D02*
X274824Y-7594960D01*
X274824Y-7594960D02*
X265301Y-7585436D01*
X265301Y-7585436D02*
X255777Y-7566388D01*
X255777Y-7566388D02*
X246253Y-7528293D01*
X246253Y-7528293D02*
X246253Y-7480674D01*
X246253Y-7480674D02*
X255777Y-7442579D01*
X255777Y-7442579D02*
X265301Y-7423531D01*
X265301Y-7423531D02*
X274824Y-7414008D01*
X274824Y-7414008D02*
X293872Y-7404484D01*
X455777Y-7594960D02*
X455777Y-7604484D01*
X455777Y-7604484D02*
X446253Y-7623531D01*
X446253Y-7623531D02*
X436729Y-7633055D01*
X522443Y-7404484D02*
X655777Y-7404484D01*
X655777Y-7404484D02*
X570063Y-7604484D01*
X770062Y-7404484D02*
X789110Y-7404484D01*
X789110Y-7404484D02*
X808158Y-7414008D01*
X808158Y-7414008D02*
X817682Y-7423531D01*
X817682Y-7423531D02*
X827205Y-7442579D01*
X827205Y-7442579D02*
X836729Y-7480674D01*
X836729Y-7480674D02*
X836729Y-7528293D01*
X836729Y-7528293D02*
X827205Y-7566388D01*
X827205Y-7566388D02*
X817682Y-7585436D01*
X817682Y-7585436D02*
X808158Y-7594960D01*
X808158Y-7594960D02*
X789110Y-7604484D01*
X789110Y-7604484D02*
X770062Y-7604484D01*
X770062Y-7604484D02*
X751015Y-7594960D01*
X751015Y-7594960D02*
X741491Y-7585436D01*
X741491Y-7585436D02*
X731967Y-7566388D01*
X731967Y-7566388D02*
X722443Y-7528293D01*
X722443Y-7528293D02*
X722443Y-7480674D01*
X722443Y-7480674D02*
X731967Y-7442579D01*
X731967Y-7442579D02*
X741491Y-7423531D01*
X741491Y-7423531D02*
X751015Y-7414008D01*
X751015Y-7414008D02*
X770062Y-7404484D01*
X960539Y-7404484D02*
X979586Y-7404484D01*
X979586Y-7404484D02*
X998634Y-7414008D01*
X998634Y-7414008D02*
X1008158Y-7423531D01*
X1008158Y-7423531D02*
X1017682Y-7442579D01*
X1017682Y-7442579D02*
X1027205Y-7480674D01*
X1027205Y-7480674D02*
X1027205Y-7528293D01*
X1027205Y-7528293D02*
X1017682Y-7566388D01*
X1017682Y-7566388D02*
X1008158Y-7585436D01*
X1008158Y-7585436D02*
X998634Y-7594960D01*
X998634Y-7594960D02*
X979586Y-7604484D01*
X979586Y-7604484D02*
X960539Y-7604484D01*
X960539Y-7604484D02*
X941491Y-7594960D01*
X941491Y-7594960D02*
X931967Y-7585436D01*
X931967Y-7585436D02*
X922443Y-7566388D01*
X922443Y-7566388D02*
X912920Y-7528293D01*
X912920Y-7528293D02*
X912920Y-7480674D01*
X912920Y-7480674D02*
X922443Y-7442579D01*
X922443Y-7442579D02*
X931967Y-7423531D01*
X931967Y-7423531D02*
X941491Y-7414008D01*
X941491Y-7414008D02*
X960539Y-7404484D01*
X1112920Y-7604484D02*
X1112920Y-7471150D01*
X1112920Y-7490198D02*
X1122444Y-7480674D01*
X1122444Y-7480674D02*
X1141491Y-7471150D01*
X1141491Y-7471150D02*
X1170063Y-7471150D01*
X1170063Y-7471150D02*
X1189110Y-7480674D01*
X1189110Y-7480674D02*
X1198634Y-7499722D01*
X1198634Y-7499722D02*
X1198634Y-7604484D01*
X1198634Y-7499722D02*
X1208158Y-7480674D01*
X1208158Y-7480674D02*
X1227205Y-7471150D01*
X1227205Y-7471150D02*
X1255777Y-7471150D01*
X1255777Y-7471150D02*
X1274825Y-7480674D01*
X1274825Y-7480674D02*
X1284348Y-7499722D01*
X1284348Y-7499722D02*
X1284348Y-7604484D01*
X1379586Y-7604484D02*
X1379586Y-7471150D01*
X1379586Y-7490198D02*
X1389110Y-7480674D01*
X1389110Y-7480674D02*
X1408158Y-7471150D01*
X1408158Y-7471150D02*
X1436729Y-7471150D01*
X1436729Y-7471150D02*
X1455777Y-7480674D01*
X1455777Y-7480674D02*
X1465301Y-7499722D01*
X1465301Y-7499722D02*
X1465301Y-7604484D01*
X1465301Y-7499722D02*
X1474824Y-7480674D01*
X1474824Y-7480674D02*
X1493872Y-7471150D01*
X1493872Y-7471150D02*
X1522443Y-7471150D01*
X1522443Y-7471150D02*
X1541491Y-7480674D01*
X1541491Y-7480674D02*
X1551015Y-7499722D01*
X1551015Y-7499722D02*
X1551015Y-7604484D01*
X1941491Y-7394960D02*
X1770063Y-7652103D01*
X2198634Y-7404484D02*
X2217682Y-7404484D01*
X2217682Y-7404484D02*
X2236729Y-7414008D01*
X2236729Y-7414008D02*
X2246253Y-7423531D01*
X2246253Y-7423531D02*
X2255777Y-7442579D01*
X2255777Y-7442579D02*
X2265301Y-7480674D01*
X2265301Y-7480674D02*
X2265301Y-7528293D01*
X2265301Y-7528293D02*
X2255777Y-7566388D01*
X2255777Y-7566388D02*
X2246253Y-7585436D01*
X2246253Y-7585436D02*
X2236729Y-7594960D01*
X2236729Y-7594960D02*
X2217682Y-7604484D01*
X2217682Y-7604484D02*
X2198634Y-7604484D01*
X2198634Y-7604484D02*
X2179587Y-7594960D01*
X2179587Y-7594960D02*
X2170063Y-7585436D01*
X2170063Y-7585436D02*
X2160539Y-7566388D01*
X2160539Y-7566388D02*
X2151015Y-7528293D01*
X2151015Y-7528293D02*
X2151015Y-7480674D01*
X2151015Y-7480674D02*
X2160539Y-7442579D01*
X2160539Y-7442579D02*
X2170063Y-7423531D01*
X2170063Y-7423531D02*
X2179587Y-7414008D01*
X2179587Y-7414008D02*
X2198634Y-7404484D01*
X2360539Y-7594960D02*
X2360539Y-7604484D01*
X2360539Y-7604484D02*
X2351015Y-7623531D01*
X2351015Y-7623531D02*
X2341491Y-7633055D01*
X2484348Y-7404484D02*
X2503396Y-7404484D01*
X2503396Y-7404484D02*
X2522444Y-7414008D01*
X2522444Y-7414008D02*
X2531968Y-7423531D01*
X2531968Y-7423531D02*
X2541491Y-7442579D01*
X2541491Y-7442579D02*
X2551015Y-7480674D01*
X2551015Y-7480674D02*
X2551015Y-7528293D01*
X2551015Y-7528293D02*
X2541491Y-7566388D01*
X2541491Y-7566388D02*
X2531968Y-7585436D01*
X2531968Y-7585436D02*
X2522444Y-7594960D01*
X2522444Y-7594960D02*
X2503396Y-7604484D01*
X2503396Y-7604484D02*
X2484348Y-7604484D01*
X2484348Y-7604484D02*
X2465301Y-7594960D01*
X2465301Y-7594960D02*
X2455777Y-7585436D01*
X2455777Y-7585436D02*
X2446253Y-7566388D01*
X2446253Y-7566388D02*
X2436729Y-7528293D01*
X2436729Y-7528293D02*
X2436729Y-7480674D01*
X2436729Y-7480674D02*
X2446253Y-7442579D01*
X2446253Y-7442579D02*
X2455777Y-7423531D01*
X2455777Y-7423531D02*
X2465301Y-7414008D01*
X2465301Y-7414008D02*
X2484348Y-7404484D01*
X2627206Y-7423531D02*
X2636729Y-7414008D01*
X2636729Y-7414008D02*
X2655777Y-7404484D01*
X2655777Y-7404484D02*
X2703396Y-7404484D01*
X2703396Y-7404484D02*
X2722444Y-7414008D01*
X2722444Y-7414008D02*
X2731968Y-7423531D01*
X2731968Y-7423531D02*
X2741491Y-7442579D01*
X2741491Y-7442579D02*
X2741491Y-7461627D01*
X2741491Y-7461627D02*
X2731968Y-7490198D01*
X2731968Y-7490198D02*
X2617682Y-7604484D01*
X2617682Y-7604484D02*
X2741491Y-7604484D01*
X2808158Y-7404484D02*
X2941491Y-7404484D01*
X2941491Y-7404484D02*
X2855777Y-7604484D01*
X3103396Y-7404484D02*
X3065301Y-7404484D01*
X3065301Y-7404484D02*
X3046253Y-7414008D01*
X3046253Y-7414008D02*
X3036729Y-7423531D01*
X3036729Y-7423531D02*
X3017682Y-7452103D01*
X3017682Y-7452103D02*
X3008158Y-7490198D01*
X3008158Y-7490198D02*
X3008158Y-7566388D01*
X3008158Y-7566388D02*
X3017682Y-7585436D01*
X3017682Y-7585436D02*
X3027206Y-7594960D01*
X3027206Y-7594960D02*
X3046253Y-7604484D01*
X3046253Y-7604484D02*
X3084348Y-7604484D01*
X3084348Y-7604484D02*
X3103396Y-7594960D01*
X3103396Y-7594960D02*
X3112920Y-7585436D01*
X3112920Y-7585436D02*
X3122444Y-7566388D01*
X3122444Y-7566388D02*
X3122444Y-7518769D01*
X3122444Y-7518769D02*
X3112920Y-7499722D01*
X3112920Y-7499722D02*
X3103396Y-7490198D01*
X3103396Y-7490198D02*
X3084348Y-7480674D01*
X3084348Y-7480674D02*
X3046253Y-7480674D01*
X3046253Y-7480674D02*
X3027206Y-7490198D01*
X3027206Y-7490198D02*
X3017682Y-7499722D01*
X3017682Y-7499722D02*
X3008158Y-7518769D01*
X3198634Y-7404484D02*
X3198634Y-7442579D01*
X3274825Y-7404484D02*
X3274825Y-7442579D01*
X3570063Y-7680674D02*
X3560539Y-7671150D01*
X3560539Y-7671150D02*
X3541491Y-7642579D01*
X3541491Y-7642579D02*
X3531968Y-7623531D01*
X3531968Y-7623531D02*
X3522444Y-7594960D01*
X3522444Y-7594960D02*
X3512920Y-7547341D01*
X3512920Y-7547341D02*
X3512920Y-7509246D01*
X3512920Y-7509246D02*
X3522444Y-7461627D01*
X3522444Y-7461627D02*
X3531968Y-7433055D01*
X3531968Y-7433055D02*
X3541491Y-7414008D01*
X3541491Y-7414008D02*
X3560539Y-7385436D01*
X3560539Y-7385436D02*
X3570063Y-7375912D01*
X3636729Y-7423531D02*
X3646253Y-7414008D01*
X3646253Y-7414008D02*
X3665301Y-7404484D01*
X3665301Y-7404484D02*
X3712920Y-7404484D01*
X3712920Y-7404484D02*
X3731968Y-7414008D01*
X3731968Y-7414008D02*
X3741491Y-7423531D01*
X3741491Y-7423531D02*
X3751015Y-7442579D01*
X3751015Y-7442579D02*
X3751015Y-7461627D01*
X3751015Y-7461627D02*
X3741491Y-7490198D01*
X3741491Y-7490198D02*
X3627206Y-7604484D01*
X3627206Y-7604484D02*
X3751015Y-7604484D01*
X3989110Y-7604484D02*
X3989110Y-7404484D01*
X4074825Y-7604484D02*
X4074825Y-7499722D01*
X4074825Y-7499722D02*
X4065301Y-7480674D01*
X4065301Y-7480674D02*
X4046253Y-7471150D01*
X4046253Y-7471150D02*
X4017682Y-7471150D01*
X4017682Y-7471150D02*
X3998634Y-7480674D01*
X3998634Y-7480674D02*
X3989110Y-7490198D01*
X4198634Y-7604484D02*
X4179587Y-7594960D01*
X4179587Y-7594960D02*
X4170063Y-7585436D01*
X4170063Y-7585436D02*
X4160539Y-7566388D01*
X4160539Y-7566388D02*
X4160539Y-7509246D01*
X4160539Y-7509246D02*
X4170063Y-7490198D01*
X4170063Y-7490198D02*
X4179587Y-7480674D01*
X4179587Y-7480674D02*
X4198634Y-7471150D01*
X4198634Y-7471150D02*
X4227206Y-7471150D01*
X4227206Y-7471150D02*
X4246253Y-7480674D01*
X4246253Y-7480674D02*
X4255777Y-7490198D01*
X4255777Y-7490198D02*
X4265301Y-7509246D01*
X4265301Y-7509246D02*
X4265301Y-7566388D01*
X4265301Y-7566388D02*
X4255777Y-7585436D01*
X4255777Y-7585436D02*
X4246253Y-7594960D01*
X4246253Y-7594960D02*
X4227206Y-7604484D01*
X4227206Y-7604484D02*
X4198634Y-7604484D01*
X4379587Y-7604484D02*
X4360539Y-7594960D01*
X4360539Y-7594960D02*
X4351015Y-7575912D01*
X4351015Y-7575912D02*
X4351015Y-7404484D01*
X4531968Y-7594960D02*
X4512920Y-7604484D01*
X4512920Y-7604484D02*
X4474825Y-7604484D01*
X4474825Y-7604484D02*
X4455777Y-7594960D01*
X4455777Y-7594960D02*
X4446253Y-7575912D01*
X4446253Y-7575912D02*
X4446253Y-7499722D01*
X4446253Y-7499722D02*
X4455777Y-7480674D01*
X4455777Y-7480674D02*
X4474825Y-7471150D01*
X4474825Y-7471150D02*
X4512920Y-7471150D01*
X4512920Y-7471150D02*
X4531968Y-7480674D01*
X4531968Y-7480674D02*
X4541492Y-7499722D01*
X4541492Y-7499722D02*
X4541492Y-7518769D01*
X4541492Y-7518769D02*
X4446253Y-7537817D01*
X4617682Y-7594960D02*
X4636730Y-7604484D01*
X4636730Y-7604484D02*
X4674825Y-7604484D01*
X4674825Y-7604484D02*
X4693873Y-7594960D01*
X4693873Y-7594960D02*
X4703396Y-7575912D01*
X4703396Y-7575912D02*
X4703396Y-7566388D01*
X4703396Y-7566388D02*
X4693873Y-7547341D01*
X4693873Y-7547341D02*
X4674825Y-7537817D01*
X4674825Y-7537817D02*
X4646253Y-7537817D01*
X4646253Y-7537817D02*
X4627206Y-7528293D01*
X4627206Y-7528293D02*
X4617682Y-7509246D01*
X4617682Y-7509246D02*
X4617682Y-7499722D01*
X4617682Y-7499722D02*
X4627206Y-7480674D01*
X4627206Y-7480674D02*
X4646253Y-7471150D01*
X4646253Y-7471150D02*
X4674825Y-7471150D01*
X4674825Y-7471150D02*
X4693873Y-7480674D01*
X4770063Y-7680674D02*
X4779587Y-7671150D01*
X4779587Y-7671150D02*
X4798634Y-7642579D01*
X4798634Y-7642579D02*
X4808158Y-7623531D01*
X4808158Y-7623531D02*
X4817682Y-7594960D01*
X4817682Y-7594960D02*
X4827206Y-7547341D01*
X4827206Y-7547341D02*
X4827206Y-7509246D01*
X4827206Y-7509246D02*
X4817682Y-7461627D01*
X4817682Y-7461627D02*
X4808158Y-7433055D01*
X4808158Y-7433055D02*
X4798634Y-7414008D01*
X4798634Y-7414008D02*
X4779587Y-7385436D01*
X4779587Y-7385436D02*
X4770063Y-7375912D01*
D10*
X-45000Y-7737000D02*
X-45000Y-7817000D01*
X-85000Y-7777000D02*
X-5000Y-7777000D01*
D11*
X293872Y-7668484D02*
X312920Y-7668484D01*
X312920Y-7668484D02*
X331967Y-7678008D01*
X331967Y-7678008D02*
X341491Y-7687531D01*
X341491Y-7687531D02*
X351015Y-7706579D01*
X351015Y-7706579D02*
X360539Y-7744674D01*
X360539Y-7744674D02*
X360539Y-7792293D01*
X360539Y-7792293D02*
X351015Y-7830388D01*
X351015Y-7830388D02*
X341491Y-7849436D01*
X341491Y-7849436D02*
X331967Y-7858960D01*
X331967Y-7858960D02*
X312920Y-7868484D01*
X312920Y-7868484D02*
X293872Y-7868484D01*
X293872Y-7868484D02*
X274824Y-7858960D01*
X274824Y-7858960D02*
X265301Y-7849436D01*
X265301Y-7849436D02*
X255777Y-7830388D01*
X255777Y-7830388D02*
X246253Y-7792293D01*
X246253Y-7792293D02*
X246253Y-7744674D01*
X246253Y-7744674D02*
X255777Y-7706579D01*
X255777Y-7706579D02*
X265301Y-7687531D01*
X265301Y-7687531D02*
X274824Y-7678008D01*
X274824Y-7678008D02*
X293872Y-7668484D01*
X455777Y-7858960D02*
X455777Y-7868484D01*
X455777Y-7868484D02*
X446253Y-7887531D01*
X446253Y-7887531D02*
X436729Y-7897055D01*
X570063Y-7754198D02*
X551015Y-7744674D01*
X551015Y-7744674D02*
X541491Y-7735150D01*
X541491Y-7735150D02*
X531967Y-7716103D01*
X531967Y-7716103D02*
X531967Y-7706579D01*
X531967Y-7706579D02*
X541491Y-7687531D01*
X541491Y-7687531D02*
X551015Y-7678008D01*
X551015Y-7678008D02*
X570063Y-7668484D01*
X570063Y-7668484D02*
X608158Y-7668484D01*
X608158Y-7668484D02*
X627205Y-7678008D01*
X627205Y-7678008D02*
X636729Y-7687531D01*
X636729Y-7687531D02*
X646253Y-7706579D01*
X646253Y-7706579D02*
X646253Y-7716103D01*
X646253Y-7716103D02*
X636729Y-7735150D01*
X636729Y-7735150D02*
X627205Y-7744674D01*
X627205Y-7744674D02*
X608158Y-7754198D01*
X608158Y-7754198D02*
X570063Y-7754198D01*
X570063Y-7754198D02*
X551015Y-7763722D01*
X551015Y-7763722D02*
X541491Y-7773246D01*
X541491Y-7773246D02*
X531967Y-7792293D01*
X531967Y-7792293D02*
X531967Y-7830388D01*
X531967Y-7830388D02*
X541491Y-7849436D01*
X541491Y-7849436D02*
X551015Y-7858960D01*
X551015Y-7858960D02*
X570063Y-7868484D01*
X570063Y-7868484D02*
X608158Y-7868484D01*
X608158Y-7868484D02*
X627205Y-7858960D01*
X627205Y-7858960D02*
X636729Y-7849436D01*
X636729Y-7849436D02*
X646253Y-7830388D01*
X646253Y-7830388D02*
X646253Y-7792293D01*
X646253Y-7792293D02*
X636729Y-7773246D01*
X636729Y-7773246D02*
X627205Y-7763722D01*
X627205Y-7763722D02*
X608158Y-7754198D01*
X770062Y-7668484D02*
X789110Y-7668484D01*
X789110Y-7668484D02*
X808158Y-7678008D01*
X808158Y-7678008D02*
X817682Y-7687531D01*
X817682Y-7687531D02*
X827205Y-7706579D01*
X827205Y-7706579D02*
X836729Y-7744674D01*
X836729Y-7744674D02*
X836729Y-7792293D01*
X836729Y-7792293D02*
X827205Y-7830388D01*
X827205Y-7830388D02*
X817682Y-7849436D01*
X817682Y-7849436D02*
X808158Y-7858960D01*
X808158Y-7858960D02*
X789110Y-7868484D01*
X789110Y-7868484D02*
X770062Y-7868484D01*
X770062Y-7868484D02*
X751015Y-7858960D01*
X751015Y-7858960D02*
X741491Y-7849436D01*
X741491Y-7849436D02*
X731967Y-7830388D01*
X731967Y-7830388D02*
X722443Y-7792293D01*
X722443Y-7792293D02*
X722443Y-7744674D01*
X722443Y-7744674D02*
X731967Y-7706579D01*
X731967Y-7706579D02*
X741491Y-7687531D01*
X741491Y-7687531D02*
X751015Y-7678008D01*
X751015Y-7678008D02*
X770062Y-7668484D01*
X960539Y-7668484D02*
X979586Y-7668484D01*
X979586Y-7668484D02*
X998634Y-7678008D01*
X998634Y-7678008D02*
X1008158Y-7687531D01*
X1008158Y-7687531D02*
X1017682Y-7706579D01*
X1017682Y-7706579D02*
X1027205Y-7744674D01*
X1027205Y-7744674D02*
X1027205Y-7792293D01*
X1027205Y-7792293D02*
X1017682Y-7830388D01*
X1017682Y-7830388D02*
X1008158Y-7849436D01*
X1008158Y-7849436D02*
X998634Y-7858960D01*
X998634Y-7858960D02*
X979586Y-7868484D01*
X979586Y-7868484D02*
X960539Y-7868484D01*
X960539Y-7868484D02*
X941491Y-7858960D01*
X941491Y-7858960D02*
X931967Y-7849436D01*
X931967Y-7849436D02*
X922443Y-7830388D01*
X922443Y-7830388D02*
X912920Y-7792293D01*
X912920Y-7792293D02*
X912920Y-7744674D01*
X912920Y-7744674D02*
X922443Y-7706579D01*
X922443Y-7706579D02*
X931967Y-7687531D01*
X931967Y-7687531D02*
X941491Y-7678008D01*
X941491Y-7678008D02*
X960539Y-7668484D01*
X1112920Y-7868484D02*
X1112920Y-7735150D01*
X1112920Y-7754198D02*
X1122444Y-7744674D01*
X1122444Y-7744674D02*
X1141491Y-7735150D01*
X1141491Y-7735150D02*
X1170063Y-7735150D01*
X1170063Y-7735150D02*
X1189110Y-7744674D01*
X1189110Y-7744674D02*
X1198634Y-7763722D01*
X1198634Y-7763722D02*
X1198634Y-7868484D01*
X1198634Y-7763722D02*
X1208158Y-7744674D01*
X1208158Y-7744674D02*
X1227205Y-7735150D01*
X1227205Y-7735150D02*
X1255777Y-7735150D01*
X1255777Y-7735150D02*
X1274825Y-7744674D01*
X1274825Y-7744674D02*
X1284348Y-7763722D01*
X1284348Y-7763722D02*
X1284348Y-7868484D01*
X1379586Y-7868484D02*
X1379586Y-7735150D01*
X1379586Y-7754198D02*
X1389110Y-7744674D01*
X1389110Y-7744674D02*
X1408158Y-7735150D01*
X1408158Y-7735150D02*
X1436729Y-7735150D01*
X1436729Y-7735150D02*
X1455777Y-7744674D01*
X1455777Y-7744674D02*
X1465301Y-7763722D01*
X1465301Y-7763722D02*
X1465301Y-7868484D01*
X1465301Y-7763722D02*
X1474824Y-7744674D01*
X1474824Y-7744674D02*
X1493872Y-7735150D01*
X1493872Y-7735150D02*
X1522443Y-7735150D01*
X1522443Y-7735150D02*
X1541491Y-7744674D01*
X1541491Y-7744674D02*
X1551015Y-7763722D01*
X1551015Y-7763722D02*
X1551015Y-7868484D01*
X1941491Y-7658960D02*
X1770063Y-7916103D01*
X2198634Y-7668484D02*
X2217682Y-7668484D01*
X2217682Y-7668484D02*
X2236729Y-7678008D01*
X2236729Y-7678008D02*
X2246253Y-7687531D01*
X2246253Y-7687531D02*
X2255777Y-7706579D01*
X2255777Y-7706579D02*
X2265301Y-7744674D01*
X2265301Y-7744674D02*
X2265301Y-7792293D01*
X2265301Y-7792293D02*
X2255777Y-7830388D01*
X2255777Y-7830388D02*
X2246253Y-7849436D01*
X2246253Y-7849436D02*
X2236729Y-7858960D01*
X2236729Y-7858960D02*
X2217682Y-7868484D01*
X2217682Y-7868484D02*
X2198634Y-7868484D01*
X2198634Y-7868484D02*
X2179587Y-7858960D01*
X2179587Y-7858960D02*
X2170063Y-7849436D01*
X2170063Y-7849436D02*
X2160539Y-7830388D01*
X2160539Y-7830388D02*
X2151015Y-7792293D01*
X2151015Y-7792293D02*
X2151015Y-7744674D01*
X2151015Y-7744674D02*
X2160539Y-7706579D01*
X2160539Y-7706579D02*
X2170063Y-7687531D01*
X2170063Y-7687531D02*
X2179587Y-7678008D01*
X2179587Y-7678008D02*
X2198634Y-7668484D01*
X2360539Y-7858960D02*
X2360539Y-7868484D01*
X2360539Y-7868484D02*
X2351015Y-7887531D01*
X2351015Y-7887531D02*
X2341491Y-7897055D01*
X2484348Y-7668484D02*
X2503396Y-7668484D01*
X2503396Y-7668484D02*
X2522444Y-7678008D01*
X2522444Y-7678008D02*
X2531968Y-7687531D01*
X2531968Y-7687531D02*
X2541491Y-7706579D01*
X2541491Y-7706579D02*
X2551015Y-7744674D01*
X2551015Y-7744674D02*
X2551015Y-7792293D01*
X2551015Y-7792293D02*
X2541491Y-7830388D01*
X2541491Y-7830388D02*
X2531968Y-7849436D01*
X2531968Y-7849436D02*
X2522444Y-7858960D01*
X2522444Y-7858960D02*
X2503396Y-7868484D01*
X2503396Y-7868484D02*
X2484348Y-7868484D01*
X2484348Y-7868484D02*
X2465301Y-7858960D01*
X2465301Y-7858960D02*
X2455777Y-7849436D01*
X2455777Y-7849436D02*
X2446253Y-7830388D01*
X2446253Y-7830388D02*
X2436729Y-7792293D01*
X2436729Y-7792293D02*
X2436729Y-7744674D01*
X2436729Y-7744674D02*
X2446253Y-7706579D01*
X2446253Y-7706579D02*
X2455777Y-7687531D01*
X2455777Y-7687531D02*
X2465301Y-7678008D01*
X2465301Y-7678008D02*
X2484348Y-7668484D01*
X2617682Y-7668484D02*
X2741491Y-7668484D01*
X2741491Y-7668484D02*
X2674825Y-7744674D01*
X2674825Y-7744674D02*
X2703396Y-7744674D01*
X2703396Y-7744674D02*
X2722444Y-7754198D01*
X2722444Y-7754198D02*
X2731968Y-7763722D01*
X2731968Y-7763722D02*
X2741491Y-7782769D01*
X2741491Y-7782769D02*
X2741491Y-7830388D01*
X2741491Y-7830388D02*
X2731968Y-7849436D01*
X2731968Y-7849436D02*
X2722444Y-7858960D01*
X2722444Y-7858960D02*
X2703396Y-7868484D01*
X2703396Y-7868484D02*
X2646253Y-7868484D01*
X2646253Y-7868484D02*
X2627206Y-7858960D01*
X2627206Y-7858960D02*
X2617682Y-7849436D01*
X2931967Y-7868484D02*
X2817682Y-7868484D01*
X2874825Y-7868484D02*
X2874825Y-7668484D01*
X2874825Y-7668484D02*
X2855777Y-7697055D01*
X2855777Y-7697055D02*
X2836729Y-7716103D01*
X2836729Y-7716103D02*
X2817682Y-7725627D01*
X3112920Y-7668484D02*
X3017682Y-7668484D01*
X3017682Y-7668484D02*
X3008158Y-7763722D01*
X3008158Y-7763722D02*
X3017682Y-7754198D01*
X3017682Y-7754198D02*
X3036729Y-7744674D01*
X3036729Y-7744674D02*
X3084348Y-7744674D01*
X3084348Y-7744674D02*
X3103396Y-7754198D01*
X3103396Y-7754198D02*
X3112920Y-7763722D01*
X3112920Y-7763722D02*
X3122444Y-7782769D01*
X3122444Y-7782769D02*
X3122444Y-7830388D01*
X3122444Y-7830388D02*
X3112920Y-7849436D01*
X3112920Y-7849436D02*
X3103396Y-7858960D01*
X3103396Y-7858960D02*
X3084348Y-7868484D01*
X3084348Y-7868484D02*
X3036729Y-7868484D01*
X3036729Y-7868484D02*
X3017682Y-7858960D01*
X3017682Y-7858960D02*
X3008158Y-7849436D01*
X3198634Y-7668484D02*
X3198634Y-7706579D01*
X3274825Y-7668484D02*
X3274825Y-7706579D01*
X3570063Y-7944674D02*
X3560539Y-7935150D01*
X3560539Y-7935150D02*
X3541491Y-7906579D01*
X3541491Y-7906579D02*
X3531968Y-7887531D01*
X3531968Y-7887531D02*
X3522444Y-7858960D01*
X3522444Y-7858960D02*
X3512920Y-7811341D01*
X3512920Y-7811341D02*
X3512920Y-7773246D01*
X3512920Y-7773246D02*
X3522444Y-7725627D01*
X3522444Y-7725627D02*
X3531968Y-7697055D01*
X3531968Y-7697055D02*
X3541491Y-7678008D01*
X3541491Y-7678008D02*
X3560539Y-7649436D01*
X3560539Y-7649436D02*
X3570063Y-7639912D01*
X3751015Y-7868484D02*
X3636729Y-7868484D01*
X3693872Y-7868484D02*
X3693872Y-7668484D01*
X3693872Y-7668484D02*
X3674825Y-7697055D01*
X3674825Y-7697055D02*
X3655777Y-7716103D01*
X3655777Y-7716103D02*
X3636729Y-7725627D01*
X3827206Y-7687531D02*
X3836729Y-7678008D01*
X3836729Y-7678008D02*
X3855777Y-7668484D01*
X3855777Y-7668484D02*
X3903396Y-7668484D01*
X3903396Y-7668484D02*
X3922444Y-7678008D01*
X3922444Y-7678008D02*
X3931968Y-7687531D01*
X3931968Y-7687531D02*
X3941491Y-7706579D01*
X3941491Y-7706579D02*
X3941491Y-7725627D01*
X3941491Y-7725627D02*
X3931968Y-7754198D01*
X3931968Y-7754198D02*
X3817682Y-7868484D01*
X3817682Y-7868484D02*
X3941491Y-7868484D01*
X4112920Y-7735150D02*
X4112920Y-7868484D01*
X4065301Y-7658960D02*
X4017682Y-7801817D01*
X4017682Y-7801817D02*
X4141491Y-7801817D01*
X4370063Y-7868484D02*
X4370063Y-7668484D01*
X4455777Y-7868484D02*
X4455777Y-7763722D01*
X4455777Y-7763722D02*
X4446253Y-7744674D01*
X4446253Y-7744674D02*
X4427206Y-7735150D01*
X4427206Y-7735150D02*
X4398634Y-7735150D01*
X4398634Y-7735150D02*
X4379587Y-7744674D01*
X4379587Y-7744674D02*
X4370063Y-7754198D01*
X4579587Y-7868484D02*
X4560539Y-7858960D01*
X4560539Y-7858960D02*
X4551015Y-7849436D01*
X4551015Y-7849436D02*
X4541492Y-7830388D01*
X4541492Y-7830388D02*
X4541492Y-7773246D01*
X4541492Y-7773246D02*
X4551015Y-7754198D01*
X4551015Y-7754198D02*
X4560539Y-7744674D01*
X4560539Y-7744674D02*
X4579587Y-7735150D01*
X4579587Y-7735150D02*
X4608158Y-7735150D01*
X4608158Y-7735150D02*
X4627206Y-7744674D01*
X4627206Y-7744674D02*
X4636730Y-7754198D01*
X4636730Y-7754198D02*
X4646253Y-7773246D01*
X4646253Y-7773246D02*
X4646253Y-7830388D01*
X4646253Y-7830388D02*
X4636730Y-7849436D01*
X4636730Y-7849436D02*
X4627206Y-7858960D01*
X4627206Y-7858960D02*
X4608158Y-7868484D01*
X4608158Y-7868484D02*
X4579587Y-7868484D01*
X4760539Y-7868484D02*
X4741492Y-7858960D01*
X4741492Y-7858960D02*
X4731968Y-7839912D01*
X4731968Y-7839912D02*
X4731968Y-7668484D01*
X4912920Y-7858960D02*
X4893873Y-7868484D01*
X4893873Y-7868484D02*
X4855777Y-7868484D01*
X4855777Y-7868484D02*
X4836730Y-7858960D01*
X4836730Y-7858960D02*
X4827206Y-7839912D01*
X4827206Y-7839912D02*
X4827206Y-7763722D01*
X4827206Y-7763722D02*
X4836730Y-7744674D01*
X4836730Y-7744674D02*
X4855777Y-7735150D01*
X4855777Y-7735150D02*
X4893873Y-7735150D01*
X4893873Y-7735150D02*
X4912920Y-7744674D01*
X4912920Y-7744674D02*
X4922444Y-7763722D01*
X4922444Y-7763722D02*
X4922444Y-7782769D01*
X4922444Y-7782769D02*
X4827206Y-7801817D01*
X4998634Y-7858960D02*
X5017682Y-7868484D01*
X5017682Y-7868484D02*
X5055777Y-7868484D01*
X5055777Y-7868484D02*
X5074825Y-7858960D01*
X5074825Y-7858960D02*
X5084349Y-7839912D01*
X5084349Y-7839912D02*
X5084349Y-7830388D01*
X5084349Y-7830388D02*
X5074825Y-7811341D01*
X5074825Y-7811341D02*
X5055777Y-7801817D01*
X5055777Y-7801817D02*
X5027206Y-7801817D01*
X5027206Y-7801817D02*
X5008158Y-7792293D01*
X5008158Y-7792293D02*
X4998634Y-7773246D01*
X4998634Y-7773246D02*
X4998634Y-7763722D01*
X4998634Y-7763722D02*
X5008158Y-7744674D01*
X5008158Y-7744674D02*
X5027206Y-7735150D01*
X5027206Y-7735150D02*
X5055777Y-7735150D01*
X5055777Y-7735150D02*
X5074825Y-7744674D01*
X5151015Y-7944674D02*
X5160539Y-7935150D01*
X5160539Y-7935150D02*
X5179587Y-7906579D01*
X5179587Y-7906579D02*
X5189111Y-7887531D01*
X5189111Y-7887531D02*
X5198634Y-7858960D01*
X5198634Y-7858960D02*
X5208158Y-7811341D01*
X5208158Y-7811341D02*
X5208158Y-7773246D01*
X5208158Y-7773246D02*
X5198634Y-7725627D01*
X5198634Y-7725627D02*
X5189111Y-7697055D01*
X5189111Y-7697055D02*
X5179587Y-7678008D01*
X5179587Y-7678008D02*
X5160539Y-7649436D01*
X5160539Y-7649436D02*
X5151015Y-7639912D01*
D10*
X-18180Y-8072820D02*
X-18180Y-8009180D01*
X-81820Y-8009180D01*
X-81820Y-8072820D01*
X-18180Y-8072820D01*
D11*
X293872Y-7932484D02*
X312920Y-7932484D01*
X312920Y-7932484D02*
X331967Y-7942008D01*
X331967Y-7942008D02*
X341491Y-7951531D01*
X341491Y-7951531D02*
X351015Y-7970579D01*
X351015Y-7970579D02*
X360539Y-8008674D01*
X360539Y-8008674D02*
X360539Y-8056293D01*
X360539Y-8056293D02*
X351015Y-8094388D01*
X351015Y-8094388D02*
X341491Y-8113436D01*
X341491Y-8113436D02*
X331967Y-8122960D01*
X331967Y-8122960D02*
X312920Y-8132484D01*
X312920Y-8132484D02*
X293872Y-8132484D01*
X293872Y-8132484D02*
X274824Y-8122960D01*
X274824Y-8122960D02*
X265301Y-8113436D01*
X265301Y-8113436D02*
X255777Y-8094388D01*
X255777Y-8094388D02*
X246253Y-8056293D01*
X246253Y-8056293D02*
X246253Y-8008674D01*
X246253Y-8008674D02*
X255777Y-7970579D01*
X255777Y-7970579D02*
X265301Y-7951531D01*
X265301Y-7951531D02*
X274824Y-7942008D01*
X274824Y-7942008D02*
X293872Y-7932484D01*
X455777Y-8122960D02*
X455777Y-8132484D01*
X455777Y-8132484D02*
X446253Y-8151531D01*
X446253Y-8151531D02*
X436729Y-8161055D01*
X551015Y-8132484D02*
X589110Y-8132484D01*
X589110Y-8132484D02*
X608158Y-8122960D01*
X608158Y-8122960D02*
X617682Y-8113436D01*
X617682Y-8113436D02*
X636729Y-8084865D01*
X636729Y-8084865D02*
X646253Y-8046769D01*
X646253Y-8046769D02*
X646253Y-7970579D01*
X646253Y-7970579D02*
X636729Y-7951531D01*
X636729Y-7951531D02*
X627205Y-7942008D01*
X627205Y-7942008D02*
X608158Y-7932484D01*
X608158Y-7932484D02*
X570063Y-7932484D01*
X570063Y-7932484D02*
X551015Y-7942008D01*
X551015Y-7942008D02*
X541491Y-7951531D01*
X541491Y-7951531D02*
X531967Y-7970579D01*
X531967Y-7970579D02*
X531967Y-8018198D01*
X531967Y-8018198D02*
X541491Y-8037246D01*
X541491Y-8037246D02*
X551015Y-8046769D01*
X551015Y-8046769D02*
X570063Y-8056293D01*
X570063Y-8056293D02*
X608158Y-8056293D01*
X608158Y-8056293D02*
X627205Y-8046769D01*
X627205Y-8046769D02*
X636729Y-8037246D01*
X636729Y-8037246D02*
X646253Y-8018198D01*
X770062Y-7932484D02*
X789110Y-7932484D01*
X789110Y-7932484D02*
X808158Y-7942008D01*
X808158Y-7942008D02*
X817682Y-7951531D01*
X817682Y-7951531D02*
X827205Y-7970579D01*
X827205Y-7970579D02*
X836729Y-8008674D01*
X836729Y-8008674D02*
X836729Y-8056293D01*
X836729Y-8056293D02*
X827205Y-8094388D01*
X827205Y-8094388D02*
X817682Y-8113436D01*
X817682Y-8113436D02*
X808158Y-8122960D01*
X808158Y-8122960D02*
X789110Y-8132484D01*
X789110Y-8132484D02*
X770062Y-8132484D01*
X770062Y-8132484D02*
X751015Y-8122960D01*
X751015Y-8122960D02*
X741491Y-8113436D01*
X741491Y-8113436D02*
X731967Y-8094388D01*
X731967Y-8094388D02*
X722443Y-8056293D01*
X722443Y-8056293D02*
X722443Y-8008674D01*
X722443Y-8008674D02*
X731967Y-7970579D01*
X731967Y-7970579D02*
X741491Y-7951531D01*
X741491Y-7951531D02*
X751015Y-7942008D01*
X751015Y-7942008D02*
X770062Y-7932484D01*
X960539Y-7932484D02*
X979586Y-7932484D01*
X979586Y-7932484D02*
X998634Y-7942008D01*
X998634Y-7942008D02*
X1008158Y-7951531D01*
X1008158Y-7951531D02*
X1017682Y-7970579D01*
X1017682Y-7970579D02*
X1027205Y-8008674D01*
X1027205Y-8008674D02*
X1027205Y-8056293D01*
X1027205Y-8056293D02*
X1017682Y-8094388D01*
X1017682Y-8094388D02*
X1008158Y-8113436D01*
X1008158Y-8113436D02*
X998634Y-8122960D01*
X998634Y-8122960D02*
X979586Y-8132484D01*
X979586Y-8132484D02*
X960539Y-8132484D01*
X960539Y-8132484D02*
X941491Y-8122960D01*
X941491Y-8122960D02*
X931967Y-8113436D01*
X931967Y-8113436D02*
X922443Y-8094388D01*
X922443Y-8094388D02*
X912920Y-8056293D01*
X912920Y-8056293D02*
X912920Y-8008674D01*
X912920Y-8008674D02*
X922443Y-7970579D01*
X922443Y-7970579D02*
X931967Y-7951531D01*
X931967Y-7951531D02*
X941491Y-7942008D01*
X941491Y-7942008D02*
X960539Y-7932484D01*
X1112920Y-8132484D02*
X1112920Y-7999150D01*
X1112920Y-8018198D02*
X1122444Y-8008674D01*
X1122444Y-8008674D02*
X1141491Y-7999150D01*
X1141491Y-7999150D02*
X1170063Y-7999150D01*
X1170063Y-7999150D02*
X1189110Y-8008674D01*
X1189110Y-8008674D02*
X1198634Y-8027722D01*
X1198634Y-8027722D02*
X1198634Y-8132484D01*
X1198634Y-8027722D02*
X1208158Y-8008674D01*
X1208158Y-8008674D02*
X1227205Y-7999150D01*
X1227205Y-7999150D02*
X1255777Y-7999150D01*
X1255777Y-7999150D02*
X1274825Y-8008674D01*
X1274825Y-8008674D02*
X1284348Y-8027722D01*
X1284348Y-8027722D02*
X1284348Y-8132484D01*
X1379586Y-8132484D02*
X1379586Y-7999150D01*
X1379586Y-8018198D02*
X1389110Y-8008674D01*
X1389110Y-8008674D02*
X1408158Y-7999150D01*
X1408158Y-7999150D02*
X1436729Y-7999150D01*
X1436729Y-7999150D02*
X1455777Y-8008674D01*
X1455777Y-8008674D02*
X1465301Y-8027722D01*
X1465301Y-8027722D02*
X1465301Y-8132484D01*
X1465301Y-8027722D02*
X1474824Y-8008674D01*
X1474824Y-8008674D02*
X1493872Y-7999150D01*
X1493872Y-7999150D02*
X1522443Y-7999150D01*
X1522443Y-7999150D02*
X1541491Y-8008674D01*
X1541491Y-8008674D02*
X1551015Y-8027722D01*
X1551015Y-8027722D02*
X1551015Y-8132484D01*
X1941491Y-7922960D02*
X1770063Y-8180103D01*
X2198634Y-7932484D02*
X2217682Y-7932484D01*
X2217682Y-7932484D02*
X2236729Y-7942008D01*
X2236729Y-7942008D02*
X2246253Y-7951531D01*
X2246253Y-7951531D02*
X2255777Y-7970579D01*
X2255777Y-7970579D02*
X2265301Y-8008674D01*
X2265301Y-8008674D02*
X2265301Y-8056293D01*
X2265301Y-8056293D02*
X2255777Y-8094388D01*
X2255777Y-8094388D02*
X2246253Y-8113436D01*
X2246253Y-8113436D02*
X2236729Y-8122960D01*
X2236729Y-8122960D02*
X2217682Y-8132484D01*
X2217682Y-8132484D02*
X2198634Y-8132484D01*
X2198634Y-8132484D02*
X2179587Y-8122960D01*
X2179587Y-8122960D02*
X2170063Y-8113436D01*
X2170063Y-8113436D02*
X2160539Y-8094388D01*
X2160539Y-8094388D02*
X2151015Y-8056293D01*
X2151015Y-8056293D02*
X2151015Y-8008674D01*
X2151015Y-8008674D02*
X2160539Y-7970579D01*
X2160539Y-7970579D02*
X2170063Y-7951531D01*
X2170063Y-7951531D02*
X2179587Y-7942008D01*
X2179587Y-7942008D02*
X2198634Y-7932484D01*
X2360539Y-8122960D02*
X2360539Y-8132484D01*
X2360539Y-8132484D02*
X2351015Y-8151531D01*
X2351015Y-8151531D02*
X2341491Y-8161055D01*
X2484348Y-7932484D02*
X2503396Y-7932484D01*
X2503396Y-7932484D02*
X2522444Y-7942008D01*
X2522444Y-7942008D02*
X2531968Y-7951531D01*
X2531968Y-7951531D02*
X2541491Y-7970579D01*
X2541491Y-7970579D02*
X2551015Y-8008674D01*
X2551015Y-8008674D02*
X2551015Y-8056293D01*
X2551015Y-8056293D02*
X2541491Y-8094388D01*
X2541491Y-8094388D02*
X2531968Y-8113436D01*
X2531968Y-8113436D02*
X2522444Y-8122960D01*
X2522444Y-8122960D02*
X2503396Y-8132484D01*
X2503396Y-8132484D02*
X2484348Y-8132484D01*
X2484348Y-8132484D02*
X2465301Y-8122960D01*
X2465301Y-8122960D02*
X2455777Y-8113436D01*
X2455777Y-8113436D02*
X2446253Y-8094388D01*
X2446253Y-8094388D02*
X2436729Y-8056293D01*
X2436729Y-8056293D02*
X2436729Y-8008674D01*
X2436729Y-8008674D02*
X2446253Y-7970579D01*
X2446253Y-7970579D02*
X2455777Y-7951531D01*
X2455777Y-7951531D02*
X2465301Y-7942008D01*
X2465301Y-7942008D02*
X2484348Y-7932484D01*
X2617682Y-7932484D02*
X2741491Y-7932484D01*
X2741491Y-7932484D02*
X2674825Y-8008674D01*
X2674825Y-8008674D02*
X2703396Y-8008674D01*
X2703396Y-8008674D02*
X2722444Y-8018198D01*
X2722444Y-8018198D02*
X2731968Y-8027722D01*
X2731968Y-8027722D02*
X2741491Y-8046769D01*
X2741491Y-8046769D02*
X2741491Y-8094388D01*
X2741491Y-8094388D02*
X2731968Y-8113436D01*
X2731968Y-8113436D02*
X2722444Y-8122960D01*
X2722444Y-8122960D02*
X2703396Y-8132484D01*
X2703396Y-8132484D02*
X2646253Y-8132484D01*
X2646253Y-8132484D02*
X2627206Y-8122960D01*
X2627206Y-8122960D02*
X2617682Y-8113436D01*
X2922444Y-7932484D02*
X2827206Y-7932484D01*
X2827206Y-7932484D02*
X2817682Y-8027722D01*
X2817682Y-8027722D02*
X2827206Y-8018198D01*
X2827206Y-8018198D02*
X2846253Y-8008674D01*
X2846253Y-8008674D02*
X2893872Y-8008674D01*
X2893872Y-8008674D02*
X2912920Y-8018198D01*
X2912920Y-8018198D02*
X2922444Y-8027722D01*
X2922444Y-8027722D02*
X2931967Y-8046769D01*
X2931967Y-8046769D02*
X2931967Y-8094388D01*
X2931967Y-8094388D02*
X2922444Y-8113436D01*
X2922444Y-8113436D02*
X2912920Y-8122960D01*
X2912920Y-8122960D02*
X2893872Y-8132484D01*
X2893872Y-8132484D02*
X2846253Y-8132484D01*
X2846253Y-8132484D02*
X2827206Y-8122960D01*
X2827206Y-8122960D02*
X2817682Y-8113436D01*
X3103396Y-7999150D02*
X3103396Y-8132484D01*
X3055777Y-7922960D02*
X3008158Y-8065817D01*
X3008158Y-8065817D02*
X3131967Y-8065817D01*
X3198634Y-7932484D02*
X3198634Y-7970579D01*
X3274825Y-7932484D02*
X3274825Y-7970579D01*
X3570063Y-8208674D02*
X3560539Y-8199150D01*
X3560539Y-8199150D02*
X3541491Y-8170579D01*
X3541491Y-8170579D02*
X3531968Y-8151531D01*
X3531968Y-8151531D02*
X3522444Y-8122960D01*
X3522444Y-8122960D02*
X3512920Y-8075341D01*
X3512920Y-8075341D02*
X3512920Y-8037246D01*
X3512920Y-8037246D02*
X3522444Y-7989627D01*
X3522444Y-7989627D02*
X3531968Y-7961055D01*
X3531968Y-7961055D02*
X3541491Y-7942008D01*
X3541491Y-7942008D02*
X3560539Y-7913436D01*
X3560539Y-7913436D02*
X3570063Y-7903912D01*
X3636729Y-7951531D02*
X3646253Y-7942008D01*
X3646253Y-7942008D02*
X3665301Y-7932484D01*
X3665301Y-7932484D02*
X3712920Y-7932484D01*
X3712920Y-7932484D02*
X3731968Y-7942008D01*
X3731968Y-7942008D02*
X3741491Y-7951531D01*
X3741491Y-7951531D02*
X3751015Y-7970579D01*
X3751015Y-7970579D02*
X3751015Y-7989627D01*
X3751015Y-7989627D02*
X3741491Y-8018198D01*
X3741491Y-8018198D02*
X3627206Y-8132484D01*
X3627206Y-8132484D02*
X3751015Y-8132484D01*
X3989110Y-8132484D02*
X3989110Y-7932484D01*
X4074825Y-8132484D02*
X4074825Y-8027722D01*
X4074825Y-8027722D02*
X4065301Y-8008674D01*
X4065301Y-8008674D02*
X4046253Y-7999150D01*
X4046253Y-7999150D02*
X4017682Y-7999150D01*
X4017682Y-7999150D02*
X3998634Y-8008674D01*
X3998634Y-8008674D02*
X3989110Y-8018198D01*
X4198634Y-8132484D02*
X4179587Y-8122960D01*
X4179587Y-8122960D02*
X4170063Y-8113436D01*
X4170063Y-8113436D02*
X4160539Y-8094388D01*
X4160539Y-8094388D02*
X4160539Y-8037246D01*
X4160539Y-8037246D02*
X4170063Y-8018198D01*
X4170063Y-8018198D02*
X4179587Y-8008674D01*
X4179587Y-8008674D02*
X4198634Y-7999150D01*
X4198634Y-7999150D02*
X4227206Y-7999150D01*
X4227206Y-7999150D02*
X4246253Y-8008674D01*
X4246253Y-8008674D02*
X4255777Y-8018198D01*
X4255777Y-8018198D02*
X4265301Y-8037246D01*
X4265301Y-8037246D02*
X4265301Y-8094388D01*
X4265301Y-8094388D02*
X4255777Y-8113436D01*
X4255777Y-8113436D02*
X4246253Y-8122960D01*
X4246253Y-8122960D02*
X4227206Y-8132484D01*
X4227206Y-8132484D02*
X4198634Y-8132484D01*
X4379587Y-8132484D02*
X4360539Y-8122960D01*
X4360539Y-8122960D02*
X4351015Y-8103912D01*
X4351015Y-8103912D02*
X4351015Y-7932484D01*
X4531968Y-8122960D02*
X4512920Y-8132484D01*
X4512920Y-8132484D02*
X4474825Y-8132484D01*
X4474825Y-8132484D02*
X4455777Y-8122960D01*
X4455777Y-8122960D02*
X4446253Y-8103912D01*
X4446253Y-8103912D02*
X4446253Y-8027722D01*
X4446253Y-8027722D02*
X4455777Y-8008674D01*
X4455777Y-8008674D02*
X4474825Y-7999150D01*
X4474825Y-7999150D02*
X4512920Y-7999150D01*
X4512920Y-7999150D02*
X4531968Y-8008674D01*
X4531968Y-8008674D02*
X4541492Y-8027722D01*
X4541492Y-8027722D02*
X4541492Y-8046769D01*
X4541492Y-8046769D02*
X4446253Y-8065817D01*
X4617682Y-8122960D02*
X4636730Y-8132484D01*
X4636730Y-8132484D02*
X4674825Y-8132484D01*
X4674825Y-8132484D02*
X4693873Y-8122960D01*
X4693873Y-8122960D02*
X4703396Y-8103912D01*
X4703396Y-8103912D02*
X4703396Y-8094388D01*
X4703396Y-8094388D02*
X4693873Y-8075341D01*
X4693873Y-8075341D02*
X4674825Y-8065817D01*
X4674825Y-8065817D02*
X4646253Y-8065817D01*
X4646253Y-8065817D02*
X4627206Y-8056293D01*
X4627206Y-8056293D02*
X4617682Y-8037246D01*
X4617682Y-8037246D02*
X4617682Y-8027722D01*
X4617682Y-8027722D02*
X4627206Y-8008674D01*
X4627206Y-8008674D02*
X4646253Y-7999150D01*
X4646253Y-7999150D02*
X4674825Y-7999150D01*
X4674825Y-7999150D02*
X4693873Y-8008674D01*
X4770063Y-8208674D02*
X4779587Y-8199150D01*
X4779587Y-8199150D02*
X4798634Y-8170579D01*
X4798634Y-8170579D02*
X4808158Y-8151531D01*
X4808158Y-8151531D02*
X4817682Y-8122960D01*
X4817682Y-8122960D02*
X4827206Y-8075341D01*
X4827206Y-8075341D02*
X4827206Y-8037246D01*
X4827206Y-8037246D02*
X4817682Y-7989627D01*
X4817682Y-7989627D02*
X4808158Y-7961055D01*
X4808158Y-7961055D02*
X4798634Y-7942008D01*
X4798634Y-7942008D02*
X4779587Y-7913436D01*
X4779587Y-7913436D02*
X4770063Y-7903912D01*
D10*
X-55000Y-8355000D02*
X-5000Y-8305000D01*
X-55000Y-8255000D01*
X-105000Y-8305000D01*
X-55000Y-8355000D01*
D11*
X360539Y-8396484D02*
X246253Y-8396484D01*
X303396Y-8396484D02*
X303396Y-8196484D01*
X303396Y-8196484D02*
X284348Y-8225055D01*
X284348Y-8225055D02*
X265301Y-8244103D01*
X265301Y-8244103D02*
X246253Y-8253627D01*
X455777Y-8386960D02*
X455777Y-8396484D01*
X455777Y-8396484D02*
X446253Y-8415531D01*
X446253Y-8415531D02*
X436729Y-8425055D01*
X579586Y-8196484D02*
X598634Y-8196484D01*
X598634Y-8196484D02*
X617682Y-8206008D01*
X617682Y-8206008D02*
X627205Y-8215531D01*
X627205Y-8215531D02*
X636729Y-8234579D01*
X636729Y-8234579D02*
X646253Y-8272674D01*
X646253Y-8272674D02*
X646253Y-8320293D01*
X646253Y-8320293D02*
X636729Y-8358388D01*
X636729Y-8358388D02*
X627205Y-8377436D01*
X627205Y-8377436D02*
X617682Y-8386960D01*
X617682Y-8386960D02*
X598634Y-8396484D01*
X598634Y-8396484D02*
X579586Y-8396484D01*
X579586Y-8396484D02*
X560539Y-8386960D01*
X560539Y-8386960D02*
X551015Y-8377436D01*
X551015Y-8377436D02*
X541491Y-8358388D01*
X541491Y-8358388D02*
X531967Y-8320293D01*
X531967Y-8320293D02*
X531967Y-8272674D01*
X531967Y-8272674D02*
X541491Y-8234579D01*
X541491Y-8234579D02*
X551015Y-8215531D01*
X551015Y-8215531D02*
X560539Y-8206008D01*
X560539Y-8206008D02*
X579586Y-8196484D01*
X770062Y-8196484D02*
X789110Y-8196484D01*
X789110Y-8196484D02*
X808158Y-8206008D01*
X808158Y-8206008D02*
X817682Y-8215531D01*
X817682Y-8215531D02*
X827205Y-8234579D01*
X827205Y-8234579D02*
X836729Y-8272674D01*
X836729Y-8272674D02*
X836729Y-8320293D01*
X836729Y-8320293D02*
X827205Y-8358388D01*
X827205Y-8358388D02*
X817682Y-8377436D01*
X817682Y-8377436D02*
X808158Y-8386960D01*
X808158Y-8386960D02*
X789110Y-8396484D01*
X789110Y-8396484D02*
X770062Y-8396484D01*
X770062Y-8396484D02*
X751015Y-8386960D01*
X751015Y-8386960D02*
X741491Y-8377436D01*
X741491Y-8377436D02*
X731967Y-8358388D01*
X731967Y-8358388D02*
X722443Y-8320293D01*
X722443Y-8320293D02*
X722443Y-8272674D01*
X722443Y-8272674D02*
X731967Y-8234579D01*
X731967Y-8234579D02*
X741491Y-8215531D01*
X741491Y-8215531D02*
X751015Y-8206008D01*
X751015Y-8206008D02*
X770062Y-8196484D01*
X960539Y-8196484D02*
X979586Y-8196484D01*
X979586Y-8196484D02*
X998634Y-8206008D01*
X998634Y-8206008D02*
X1008158Y-8215531D01*
X1008158Y-8215531D02*
X1017682Y-8234579D01*
X1017682Y-8234579D02*
X1027205Y-8272674D01*
X1027205Y-8272674D02*
X1027205Y-8320293D01*
X1027205Y-8320293D02*
X1017682Y-8358388D01*
X1017682Y-8358388D02*
X1008158Y-8377436D01*
X1008158Y-8377436D02*
X998634Y-8386960D01*
X998634Y-8386960D02*
X979586Y-8396484D01*
X979586Y-8396484D02*
X960539Y-8396484D01*
X960539Y-8396484D02*
X941491Y-8386960D01*
X941491Y-8386960D02*
X931967Y-8377436D01*
X931967Y-8377436D02*
X922443Y-8358388D01*
X922443Y-8358388D02*
X912920Y-8320293D01*
X912920Y-8320293D02*
X912920Y-8272674D01*
X912920Y-8272674D02*
X922443Y-8234579D01*
X922443Y-8234579D02*
X931967Y-8215531D01*
X931967Y-8215531D02*
X941491Y-8206008D01*
X941491Y-8206008D02*
X960539Y-8196484D01*
X1112920Y-8396484D02*
X1112920Y-8263150D01*
X1112920Y-8282198D02*
X1122444Y-8272674D01*
X1122444Y-8272674D02*
X1141491Y-8263150D01*
X1141491Y-8263150D02*
X1170063Y-8263150D01*
X1170063Y-8263150D02*
X1189110Y-8272674D01*
X1189110Y-8272674D02*
X1198634Y-8291722D01*
X1198634Y-8291722D02*
X1198634Y-8396484D01*
X1198634Y-8291722D02*
X1208158Y-8272674D01*
X1208158Y-8272674D02*
X1227205Y-8263150D01*
X1227205Y-8263150D02*
X1255777Y-8263150D01*
X1255777Y-8263150D02*
X1274825Y-8272674D01*
X1274825Y-8272674D02*
X1284348Y-8291722D01*
X1284348Y-8291722D02*
X1284348Y-8396484D01*
X1379586Y-8396484D02*
X1379586Y-8263150D01*
X1379586Y-8282198D02*
X1389110Y-8272674D01*
X1389110Y-8272674D02*
X1408158Y-8263150D01*
X1408158Y-8263150D02*
X1436729Y-8263150D01*
X1436729Y-8263150D02*
X1455777Y-8272674D01*
X1455777Y-8272674D02*
X1465301Y-8291722D01*
X1465301Y-8291722D02*
X1465301Y-8396484D01*
X1465301Y-8291722D02*
X1474824Y-8272674D01*
X1474824Y-8272674D02*
X1493872Y-8263150D01*
X1493872Y-8263150D02*
X1522443Y-8263150D01*
X1522443Y-8263150D02*
X1541491Y-8272674D01*
X1541491Y-8272674D02*
X1551015Y-8291722D01*
X1551015Y-8291722D02*
X1551015Y-8396484D01*
X1941491Y-8186960D02*
X1770063Y-8444103D01*
X2198634Y-8196484D02*
X2217682Y-8196484D01*
X2217682Y-8196484D02*
X2236729Y-8206008D01*
X2236729Y-8206008D02*
X2246253Y-8215531D01*
X2246253Y-8215531D02*
X2255777Y-8234579D01*
X2255777Y-8234579D02*
X2265301Y-8272674D01*
X2265301Y-8272674D02*
X2265301Y-8320293D01*
X2265301Y-8320293D02*
X2255777Y-8358388D01*
X2255777Y-8358388D02*
X2246253Y-8377436D01*
X2246253Y-8377436D02*
X2236729Y-8386960D01*
X2236729Y-8386960D02*
X2217682Y-8396484D01*
X2217682Y-8396484D02*
X2198634Y-8396484D01*
X2198634Y-8396484D02*
X2179587Y-8386960D01*
X2179587Y-8386960D02*
X2170063Y-8377436D01*
X2170063Y-8377436D02*
X2160539Y-8358388D01*
X2160539Y-8358388D02*
X2151015Y-8320293D01*
X2151015Y-8320293D02*
X2151015Y-8272674D01*
X2151015Y-8272674D02*
X2160539Y-8234579D01*
X2160539Y-8234579D02*
X2170063Y-8215531D01*
X2170063Y-8215531D02*
X2179587Y-8206008D01*
X2179587Y-8206008D02*
X2198634Y-8196484D01*
X2360539Y-8386960D02*
X2360539Y-8396484D01*
X2360539Y-8396484D02*
X2351015Y-8415531D01*
X2351015Y-8415531D02*
X2341491Y-8425055D01*
X2484348Y-8196484D02*
X2503396Y-8196484D01*
X2503396Y-8196484D02*
X2522444Y-8206008D01*
X2522444Y-8206008D02*
X2531968Y-8215531D01*
X2531968Y-8215531D02*
X2541491Y-8234579D01*
X2541491Y-8234579D02*
X2551015Y-8272674D01*
X2551015Y-8272674D02*
X2551015Y-8320293D01*
X2551015Y-8320293D02*
X2541491Y-8358388D01*
X2541491Y-8358388D02*
X2531968Y-8377436D01*
X2531968Y-8377436D02*
X2522444Y-8386960D01*
X2522444Y-8386960D02*
X2503396Y-8396484D01*
X2503396Y-8396484D02*
X2484348Y-8396484D01*
X2484348Y-8396484D02*
X2465301Y-8386960D01*
X2465301Y-8386960D02*
X2455777Y-8377436D01*
X2455777Y-8377436D02*
X2446253Y-8358388D01*
X2446253Y-8358388D02*
X2436729Y-8320293D01*
X2436729Y-8320293D02*
X2436729Y-8272674D01*
X2436729Y-8272674D02*
X2446253Y-8234579D01*
X2446253Y-8234579D02*
X2455777Y-8215531D01*
X2455777Y-8215531D02*
X2465301Y-8206008D01*
X2465301Y-8206008D02*
X2484348Y-8196484D01*
X2617682Y-8196484D02*
X2741491Y-8196484D01*
X2741491Y-8196484D02*
X2674825Y-8272674D01*
X2674825Y-8272674D02*
X2703396Y-8272674D01*
X2703396Y-8272674D02*
X2722444Y-8282198D01*
X2722444Y-8282198D02*
X2731968Y-8291722D01*
X2731968Y-8291722D02*
X2741491Y-8310769D01*
X2741491Y-8310769D02*
X2741491Y-8358388D01*
X2741491Y-8358388D02*
X2731968Y-8377436D01*
X2731968Y-8377436D02*
X2722444Y-8386960D01*
X2722444Y-8386960D02*
X2703396Y-8396484D01*
X2703396Y-8396484D02*
X2646253Y-8396484D01*
X2646253Y-8396484D02*
X2627206Y-8386960D01*
X2627206Y-8386960D02*
X2617682Y-8377436D01*
X2836729Y-8396484D02*
X2874825Y-8396484D01*
X2874825Y-8396484D02*
X2893872Y-8386960D01*
X2893872Y-8386960D02*
X2903396Y-8377436D01*
X2903396Y-8377436D02*
X2922444Y-8348865D01*
X2922444Y-8348865D02*
X2931967Y-8310769D01*
X2931967Y-8310769D02*
X2931967Y-8234579D01*
X2931967Y-8234579D02*
X2922444Y-8215531D01*
X2922444Y-8215531D02*
X2912920Y-8206008D01*
X2912920Y-8206008D02*
X2893872Y-8196484D01*
X2893872Y-8196484D02*
X2855777Y-8196484D01*
X2855777Y-8196484D02*
X2836729Y-8206008D01*
X2836729Y-8206008D02*
X2827206Y-8215531D01*
X2827206Y-8215531D02*
X2817682Y-8234579D01*
X2817682Y-8234579D02*
X2817682Y-8282198D01*
X2817682Y-8282198D02*
X2827206Y-8301246D01*
X2827206Y-8301246D02*
X2836729Y-8310769D01*
X2836729Y-8310769D02*
X2855777Y-8320293D01*
X2855777Y-8320293D02*
X2893872Y-8320293D01*
X2893872Y-8320293D02*
X2912920Y-8310769D01*
X2912920Y-8310769D02*
X2922444Y-8301246D01*
X2922444Y-8301246D02*
X2931967Y-8282198D01*
X3103396Y-8263150D02*
X3103396Y-8396484D01*
X3055777Y-8186960D02*
X3008158Y-8329817D01*
X3008158Y-8329817D02*
X3131967Y-8329817D01*
X3198634Y-8196484D02*
X3198634Y-8234579D01*
X3274825Y-8196484D02*
X3274825Y-8234579D01*
X3570063Y-8472674D02*
X3560539Y-8463150D01*
X3560539Y-8463150D02*
X3541491Y-8434579D01*
X3541491Y-8434579D02*
X3531968Y-8415531D01*
X3531968Y-8415531D02*
X3522444Y-8386960D01*
X3522444Y-8386960D02*
X3512920Y-8339341D01*
X3512920Y-8339341D02*
X3512920Y-8301246D01*
X3512920Y-8301246D02*
X3522444Y-8253627D01*
X3522444Y-8253627D02*
X3531968Y-8225055D01*
X3531968Y-8225055D02*
X3541491Y-8206008D01*
X3541491Y-8206008D02*
X3560539Y-8177436D01*
X3560539Y-8177436D02*
X3570063Y-8167912D01*
X3751015Y-8396484D02*
X3636729Y-8396484D01*
X3693872Y-8396484D02*
X3693872Y-8196484D01*
X3693872Y-8196484D02*
X3674825Y-8225055D01*
X3674825Y-8225055D02*
X3655777Y-8244103D01*
X3655777Y-8244103D02*
X3636729Y-8253627D01*
X3874825Y-8196484D02*
X3893872Y-8196484D01*
X3893872Y-8196484D02*
X3912920Y-8206008D01*
X3912920Y-8206008D02*
X3922444Y-8215531D01*
X3922444Y-8215531D02*
X3931968Y-8234579D01*
X3931968Y-8234579D02*
X3941491Y-8272674D01*
X3941491Y-8272674D02*
X3941491Y-8320293D01*
X3941491Y-8320293D02*
X3931968Y-8358388D01*
X3931968Y-8358388D02*
X3922444Y-8377436D01*
X3922444Y-8377436D02*
X3912920Y-8386960D01*
X3912920Y-8386960D02*
X3893872Y-8396484D01*
X3893872Y-8396484D02*
X3874825Y-8396484D01*
X3874825Y-8396484D02*
X3855777Y-8386960D01*
X3855777Y-8386960D02*
X3846253Y-8377436D01*
X3846253Y-8377436D02*
X3836729Y-8358388D01*
X3836729Y-8358388D02*
X3827206Y-8320293D01*
X3827206Y-8320293D02*
X3827206Y-8272674D01*
X3827206Y-8272674D02*
X3836729Y-8234579D01*
X3836729Y-8234579D02*
X3846253Y-8215531D01*
X3846253Y-8215531D02*
X3855777Y-8206008D01*
X3855777Y-8206008D02*
X3874825Y-8196484D01*
X4179587Y-8396484D02*
X4179587Y-8196484D01*
X4265301Y-8396484D02*
X4265301Y-8291722D01*
X4265301Y-8291722D02*
X4255777Y-8272674D01*
X4255777Y-8272674D02*
X4236730Y-8263150D01*
X4236730Y-8263150D02*
X4208158Y-8263150D01*
X4208158Y-8263150D02*
X4189110Y-8272674D01*
X4189110Y-8272674D02*
X4179587Y-8282198D01*
X4389111Y-8396484D02*
X4370063Y-8386960D01*
X4370063Y-8386960D02*
X4360539Y-8377436D01*
X4360539Y-8377436D02*
X4351015Y-8358388D01*
X4351015Y-8358388D02*
X4351015Y-8301246D01*
X4351015Y-8301246D02*
X4360539Y-8282198D01*
X4360539Y-8282198D02*
X4370063Y-8272674D01*
X4370063Y-8272674D02*
X4389111Y-8263150D01*
X4389111Y-8263150D02*
X4417682Y-8263150D01*
X4417682Y-8263150D02*
X4436730Y-8272674D01*
X4436730Y-8272674D02*
X4446253Y-8282198D01*
X4446253Y-8282198D02*
X4455777Y-8301246D01*
X4455777Y-8301246D02*
X4455777Y-8358388D01*
X4455777Y-8358388D02*
X4446253Y-8377436D01*
X4446253Y-8377436D02*
X4436730Y-8386960D01*
X4436730Y-8386960D02*
X4417682Y-8396484D01*
X4417682Y-8396484D02*
X4389111Y-8396484D01*
X4570063Y-8396484D02*
X4551015Y-8386960D01*
X4551015Y-8386960D02*
X4541492Y-8367912D01*
X4541492Y-8367912D02*
X4541492Y-8196484D01*
X4722444Y-8386960D02*
X4703396Y-8396484D01*
X4703396Y-8396484D02*
X4665301Y-8396484D01*
X4665301Y-8396484D02*
X4646253Y-8386960D01*
X4646253Y-8386960D02*
X4636730Y-8367912D01*
X4636730Y-8367912D02*
X4636730Y-8291722D01*
X4636730Y-8291722D02*
X4646253Y-8272674D01*
X4646253Y-8272674D02*
X4665301Y-8263150D01*
X4665301Y-8263150D02*
X4703396Y-8263150D01*
X4703396Y-8263150D02*
X4722444Y-8272674D01*
X4722444Y-8272674D02*
X4731968Y-8291722D01*
X4731968Y-8291722D02*
X4731968Y-8310769D01*
X4731968Y-8310769D02*
X4636730Y-8329817D01*
X4808158Y-8386960D02*
X4827206Y-8396484D01*
X4827206Y-8396484D02*
X4865301Y-8396484D01*
X4865301Y-8396484D02*
X4884349Y-8386960D01*
X4884349Y-8386960D02*
X4893873Y-8367912D01*
X4893873Y-8367912D02*
X4893873Y-8358388D01*
X4893873Y-8358388D02*
X4884349Y-8339341D01*
X4884349Y-8339341D02*
X4865301Y-8329817D01*
X4865301Y-8329817D02*
X4836730Y-8329817D01*
X4836730Y-8329817D02*
X4817682Y-8320293D01*
X4817682Y-8320293D02*
X4808158Y-8301246D01*
X4808158Y-8301246D02*
X4808158Y-8291722D01*
X4808158Y-8291722D02*
X4817682Y-8272674D01*
X4817682Y-8272674D02*
X4836730Y-8263150D01*
X4836730Y-8263150D02*
X4865301Y-8263150D01*
X4865301Y-8263150D02*
X4884349Y-8272674D01*
X4960539Y-8472674D02*
X4970063Y-8463150D01*
X4970063Y-8463150D02*
X4989111Y-8434579D01*
X4989111Y-8434579D02*
X4998634Y-8415531D01*
X4998634Y-8415531D02*
X5008158Y-8386960D01*
X5008158Y-8386960D02*
X5017682Y-8339341D01*
X5017682Y-8339341D02*
X5017682Y-8301246D01*
X5017682Y-8301246D02*
X5008158Y-8253627D01*
X5008158Y-8253627D02*
X4998634Y-8225055D01*
X4998634Y-8225055D02*
X4989111Y-8206008D01*
X4989111Y-8206008D02*
X4970063Y-8177436D01*
X4970063Y-8177436D02*
X4960539Y-8167912D01*
D12*
X-107000Y-8518000D02*
X-5000Y-8620000D01*
X-5000Y-8518000D02*
X-107000Y-8620000D01*
X-5000Y-8569000D02*
G75*
G02*
X-107000Y-8569000I-51000J0D01*
G01*
X-107000Y-8569000D02*
G75*
G02*
X-5000Y-8569000I51000J0D01*
G01*
D11*
X360539Y-8660484D02*
X246253Y-8660484D01*
X303396Y-8660484D02*
X303396Y-8460484D01*
X303396Y-8460484D02*
X284348Y-8489055D01*
X284348Y-8489055D02*
X265301Y-8508103D01*
X265301Y-8508103D02*
X246253Y-8517627D01*
X455777Y-8650960D02*
X455777Y-8660484D01*
X455777Y-8660484D02*
X446253Y-8679531D01*
X446253Y-8679531D02*
X436729Y-8689055D01*
X579586Y-8460484D02*
X598634Y-8460484D01*
X598634Y-8460484D02*
X617682Y-8470008D01*
X617682Y-8470008D02*
X627205Y-8479531D01*
X627205Y-8479531D02*
X636729Y-8498579D01*
X636729Y-8498579D02*
X646253Y-8536674D01*
X646253Y-8536674D02*
X646253Y-8584293D01*
X646253Y-8584293D02*
X636729Y-8622389D01*
X636729Y-8622389D02*
X627205Y-8641436D01*
X627205Y-8641436D02*
X617682Y-8650960D01*
X617682Y-8650960D02*
X598634Y-8660484D01*
X598634Y-8660484D02*
X579586Y-8660484D01*
X579586Y-8660484D02*
X560539Y-8650960D01*
X560539Y-8650960D02*
X551015Y-8641436D01*
X551015Y-8641436D02*
X541491Y-8622389D01*
X541491Y-8622389D02*
X531967Y-8584293D01*
X531967Y-8584293D02*
X531967Y-8536674D01*
X531967Y-8536674D02*
X541491Y-8498579D01*
X541491Y-8498579D02*
X551015Y-8479531D01*
X551015Y-8479531D02*
X560539Y-8470008D01*
X560539Y-8470008D02*
X579586Y-8460484D01*
X722443Y-8479531D02*
X731967Y-8470008D01*
X731967Y-8470008D02*
X751015Y-8460484D01*
X751015Y-8460484D02*
X798634Y-8460484D01*
X798634Y-8460484D02*
X817682Y-8470008D01*
X817682Y-8470008D02*
X827205Y-8479531D01*
X827205Y-8479531D02*
X836729Y-8498579D01*
X836729Y-8498579D02*
X836729Y-8517627D01*
X836729Y-8517627D02*
X827205Y-8546198D01*
X827205Y-8546198D02*
X712920Y-8660484D01*
X712920Y-8660484D02*
X836729Y-8660484D01*
X960539Y-8460484D02*
X979586Y-8460484D01*
X979586Y-8460484D02*
X998634Y-8470008D01*
X998634Y-8470008D02*
X1008158Y-8479531D01*
X1008158Y-8479531D02*
X1017682Y-8498579D01*
X1017682Y-8498579D02*
X1027205Y-8536674D01*
X1027205Y-8536674D02*
X1027205Y-8584293D01*
X1027205Y-8584293D02*
X1017682Y-8622389D01*
X1017682Y-8622389D02*
X1008158Y-8641436D01*
X1008158Y-8641436D02*
X998634Y-8650960D01*
X998634Y-8650960D02*
X979586Y-8660484D01*
X979586Y-8660484D02*
X960539Y-8660484D01*
X960539Y-8660484D02*
X941491Y-8650960D01*
X941491Y-8650960D02*
X931967Y-8641436D01*
X931967Y-8641436D02*
X922443Y-8622389D01*
X922443Y-8622389D02*
X912920Y-8584293D01*
X912920Y-8584293D02*
X912920Y-8536674D01*
X912920Y-8536674D02*
X922443Y-8498579D01*
X922443Y-8498579D02*
X931967Y-8479531D01*
X931967Y-8479531D02*
X941491Y-8470008D01*
X941491Y-8470008D02*
X960539Y-8460484D01*
X1112920Y-8660484D02*
X1112920Y-8527150D01*
X1112920Y-8546198D02*
X1122444Y-8536674D01*
X1122444Y-8536674D02*
X1141491Y-8527150D01*
X1141491Y-8527150D02*
X1170063Y-8527150D01*
X1170063Y-8527150D02*
X1189110Y-8536674D01*
X1189110Y-8536674D02*
X1198634Y-8555722D01*
X1198634Y-8555722D02*
X1198634Y-8660484D01*
X1198634Y-8555722D02*
X1208158Y-8536674D01*
X1208158Y-8536674D02*
X1227205Y-8527150D01*
X1227205Y-8527150D02*
X1255777Y-8527150D01*
X1255777Y-8527150D02*
X1274825Y-8536674D01*
X1274825Y-8536674D02*
X1284348Y-8555722D01*
X1284348Y-8555722D02*
X1284348Y-8660484D01*
X1379586Y-8660484D02*
X1379586Y-8527150D01*
X1379586Y-8546198D02*
X1389110Y-8536674D01*
X1389110Y-8536674D02*
X1408158Y-8527150D01*
X1408158Y-8527150D02*
X1436729Y-8527150D01*
X1436729Y-8527150D02*
X1455777Y-8536674D01*
X1455777Y-8536674D02*
X1465301Y-8555722D01*
X1465301Y-8555722D02*
X1465301Y-8660484D01*
X1465301Y-8555722D02*
X1474824Y-8536674D01*
X1474824Y-8536674D02*
X1493872Y-8527150D01*
X1493872Y-8527150D02*
X1522443Y-8527150D01*
X1522443Y-8527150D02*
X1541491Y-8536674D01*
X1541491Y-8536674D02*
X1551015Y-8555722D01*
X1551015Y-8555722D02*
X1551015Y-8660484D01*
X1941491Y-8450960D02*
X1770063Y-8708103D01*
X2198634Y-8460484D02*
X2217682Y-8460484D01*
X2217682Y-8460484D02*
X2236729Y-8470008D01*
X2236729Y-8470008D02*
X2246253Y-8479531D01*
X2246253Y-8479531D02*
X2255777Y-8498579D01*
X2255777Y-8498579D02*
X2265301Y-8536674D01*
X2265301Y-8536674D02*
X2265301Y-8584293D01*
X2265301Y-8584293D02*
X2255777Y-8622389D01*
X2255777Y-8622389D02*
X2246253Y-8641436D01*
X2246253Y-8641436D02*
X2236729Y-8650960D01*
X2236729Y-8650960D02*
X2217682Y-8660484D01*
X2217682Y-8660484D02*
X2198634Y-8660484D01*
X2198634Y-8660484D02*
X2179587Y-8650960D01*
X2179587Y-8650960D02*
X2170063Y-8641436D01*
X2170063Y-8641436D02*
X2160539Y-8622389D01*
X2160539Y-8622389D02*
X2151015Y-8584293D01*
X2151015Y-8584293D02*
X2151015Y-8536674D01*
X2151015Y-8536674D02*
X2160539Y-8498579D01*
X2160539Y-8498579D02*
X2170063Y-8479531D01*
X2170063Y-8479531D02*
X2179587Y-8470008D01*
X2179587Y-8470008D02*
X2198634Y-8460484D01*
X2360539Y-8650960D02*
X2360539Y-8660484D01*
X2360539Y-8660484D02*
X2351015Y-8679531D01*
X2351015Y-8679531D02*
X2341491Y-8689055D01*
X2484348Y-8460484D02*
X2503396Y-8460484D01*
X2503396Y-8460484D02*
X2522444Y-8470008D01*
X2522444Y-8470008D02*
X2531968Y-8479531D01*
X2531968Y-8479531D02*
X2541491Y-8498579D01*
X2541491Y-8498579D02*
X2551015Y-8536674D01*
X2551015Y-8536674D02*
X2551015Y-8584293D01*
X2551015Y-8584293D02*
X2541491Y-8622389D01*
X2541491Y-8622389D02*
X2531968Y-8641436D01*
X2531968Y-8641436D02*
X2522444Y-8650960D01*
X2522444Y-8650960D02*
X2503396Y-8660484D01*
X2503396Y-8660484D02*
X2484348Y-8660484D01*
X2484348Y-8660484D02*
X2465301Y-8650960D01*
X2465301Y-8650960D02*
X2455777Y-8641436D01*
X2455777Y-8641436D02*
X2446253Y-8622389D01*
X2446253Y-8622389D02*
X2436729Y-8584293D01*
X2436729Y-8584293D02*
X2436729Y-8536674D01*
X2436729Y-8536674D02*
X2446253Y-8498579D01*
X2446253Y-8498579D02*
X2455777Y-8479531D01*
X2455777Y-8479531D02*
X2465301Y-8470008D01*
X2465301Y-8470008D02*
X2484348Y-8460484D01*
X2722444Y-8527150D02*
X2722444Y-8660484D01*
X2674825Y-8450960D02*
X2627206Y-8593817D01*
X2627206Y-8593817D02*
X2751015Y-8593817D01*
X2865301Y-8460484D02*
X2884348Y-8460484D01*
X2884348Y-8460484D02*
X2903396Y-8470008D01*
X2903396Y-8470008D02*
X2912920Y-8479531D01*
X2912920Y-8479531D02*
X2922444Y-8498579D01*
X2922444Y-8498579D02*
X2931967Y-8536674D01*
X2931967Y-8536674D02*
X2931967Y-8584293D01*
X2931967Y-8584293D02*
X2922444Y-8622389D01*
X2922444Y-8622389D02*
X2912920Y-8641436D01*
X2912920Y-8641436D02*
X2903396Y-8650960D01*
X2903396Y-8650960D02*
X2884348Y-8660484D01*
X2884348Y-8660484D02*
X2865301Y-8660484D01*
X2865301Y-8660484D02*
X2846253Y-8650960D01*
X2846253Y-8650960D02*
X2836729Y-8641436D01*
X2836729Y-8641436D02*
X2827206Y-8622389D01*
X2827206Y-8622389D02*
X2817682Y-8584293D01*
X2817682Y-8584293D02*
X2817682Y-8536674D01*
X2817682Y-8536674D02*
X2827206Y-8498579D01*
X2827206Y-8498579D02*
X2836729Y-8479531D01*
X2836729Y-8479531D02*
X2846253Y-8470008D01*
X2846253Y-8470008D02*
X2865301Y-8460484D01*
X3008158Y-8479531D02*
X3017682Y-8470008D01*
X3017682Y-8470008D02*
X3036729Y-8460484D01*
X3036729Y-8460484D02*
X3084348Y-8460484D01*
X3084348Y-8460484D02*
X3103396Y-8470008D01*
X3103396Y-8470008D02*
X3112920Y-8479531D01*
X3112920Y-8479531D02*
X3122444Y-8498579D01*
X3122444Y-8498579D02*
X3122444Y-8517627D01*
X3122444Y-8517627D02*
X3112920Y-8546198D01*
X3112920Y-8546198D02*
X2998634Y-8660484D01*
X2998634Y-8660484D02*
X3122444Y-8660484D01*
X3198634Y-8460484D02*
X3198634Y-8498579D01*
X3274825Y-8460484D02*
X3274825Y-8498579D01*
X3570063Y-8736674D02*
X3560539Y-8727150D01*
X3560539Y-8727150D02*
X3541491Y-8698579D01*
X3541491Y-8698579D02*
X3531968Y-8679531D01*
X3531968Y-8679531D02*
X3522444Y-8650960D01*
X3522444Y-8650960D02*
X3512920Y-8603341D01*
X3512920Y-8603341D02*
X3512920Y-8565246D01*
X3512920Y-8565246D02*
X3522444Y-8517627D01*
X3522444Y-8517627D02*
X3531968Y-8489055D01*
X3531968Y-8489055D02*
X3541491Y-8470008D01*
X3541491Y-8470008D02*
X3560539Y-8441436D01*
X3560539Y-8441436D02*
X3570063Y-8431912D01*
X3741491Y-8460484D02*
X3646253Y-8460484D01*
X3646253Y-8460484D02*
X3636729Y-8555722D01*
X3636729Y-8555722D02*
X3646253Y-8546198D01*
X3646253Y-8546198D02*
X3665301Y-8536674D01*
X3665301Y-8536674D02*
X3712920Y-8536674D01*
X3712920Y-8536674D02*
X3731968Y-8546198D01*
X3731968Y-8546198D02*
X3741491Y-8555722D01*
X3741491Y-8555722D02*
X3751015Y-8574770D01*
X3751015Y-8574770D02*
X3751015Y-8622389D01*
X3751015Y-8622389D02*
X3741491Y-8641436D01*
X3741491Y-8641436D02*
X3731968Y-8650960D01*
X3731968Y-8650960D02*
X3712920Y-8660484D01*
X3712920Y-8660484D02*
X3665301Y-8660484D01*
X3665301Y-8660484D02*
X3646253Y-8650960D01*
X3646253Y-8650960D02*
X3636729Y-8641436D01*
X3922444Y-8527150D02*
X3922444Y-8660484D01*
X3874825Y-8450960D02*
X3827206Y-8593817D01*
X3827206Y-8593817D02*
X3951015Y-8593817D01*
X4179587Y-8660484D02*
X4179587Y-8460484D01*
X4265301Y-8660484D02*
X4265301Y-8555722D01*
X4265301Y-8555722D02*
X4255777Y-8536674D01*
X4255777Y-8536674D02*
X4236730Y-8527150D01*
X4236730Y-8527150D02*
X4208158Y-8527150D01*
X4208158Y-8527150D02*
X4189110Y-8536674D01*
X4189110Y-8536674D02*
X4179587Y-8546198D01*
X4389111Y-8660484D02*
X4370063Y-8650960D01*
X4370063Y-8650960D02*
X4360539Y-8641436D01*
X4360539Y-8641436D02*
X4351015Y-8622389D01*
X4351015Y-8622389D02*
X4351015Y-8565246D01*
X4351015Y-8565246D02*
X4360539Y-8546198D01*
X4360539Y-8546198D02*
X4370063Y-8536674D01*
X4370063Y-8536674D02*
X4389111Y-8527150D01*
X4389111Y-8527150D02*
X4417682Y-8527150D01*
X4417682Y-8527150D02*
X4436730Y-8536674D01*
X4436730Y-8536674D02*
X4446253Y-8546198D01*
X4446253Y-8546198D02*
X4455777Y-8565246D01*
X4455777Y-8565246D02*
X4455777Y-8622389D01*
X4455777Y-8622389D02*
X4446253Y-8641436D01*
X4446253Y-8641436D02*
X4436730Y-8650960D01*
X4436730Y-8650960D02*
X4417682Y-8660484D01*
X4417682Y-8660484D02*
X4389111Y-8660484D01*
X4570063Y-8660484D02*
X4551015Y-8650960D01*
X4551015Y-8650960D02*
X4541492Y-8631912D01*
X4541492Y-8631912D02*
X4541492Y-8460484D01*
X4722444Y-8650960D02*
X4703396Y-8660484D01*
X4703396Y-8660484D02*
X4665301Y-8660484D01*
X4665301Y-8660484D02*
X4646253Y-8650960D01*
X4646253Y-8650960D02*
X4636730Y-8631912D01*
X4636730Y-8631912D02*
X4636730Y-8555722D01*
X4636730Y-8555722D02*
X4646253Y-8536674D01*
X4646253Y-8536674D02*
X4665301Y-8527150D01*
X4665301Y-8527150D02*
X4703396Y-8527150D01*
X4703396Y-8527150D02*
X4722444Y-8536674D01*
X4722444Y-8536674D02*
X4731968Y-8555722D01*
X4731968Y-8555722D02*
X4731968Y-8574770D01*
X4731968Y-8574770D02*
X4636730Y-8593817D01*
X4808158Y-8650960D02*
X4827206Y-8660484D01*
X4827206Y-8660484D02*
X4865301Y-8660484D01*
X4865301Y-8660484D02*
X4884349Y-8650960D01*
X4884349Y-8650960D02*
X4893873Y-8631912D01*
X4893873Y-8631912D02*
X4893873Y-8622389D01*
X4893873Y-8622389D02*
X4884349Y-8603341D01*
X4884349Y-8603341D02*
X4865301Y-8593817D01*
X4865301Y-8593817D02*
X4836730Y-8593817D01*
X4836730Y-8593817D02*
X4817682Y-8584293D01*
X4817682Y-8584293D02*
X4808158Y-8565246D01*
X4808158Y-8565246D02*
X4808158Y-8555722D01*
X4808158Y-8555722D02*
X4817682Y-8536674D01*
X4817682Y-8536674D02*
X4836730Y-8527150D01*
X4836730Y-8527150D02*
X4865301Y-8527150D01*
X4865301Y-8527150D02*
X4884349Y-8536674D01*
X4960539Y-8736674D02*
X4970063Y-8727150D01*
X4970063Y-8727150D02*
X4989111Y-8698579D01*
X4989111Y-8698579D02*
X4998634Y-8679531D01*
X4998634Y-8679531D02*
X5008158Y-8650960D01*
X5008158Y-8650960D02*
X5017682Y-8603341D01*
X5017682Y-8603341D02*
X5017682Y-8565246D01*
X5017682Y-8565246D02*
X5008158Y-8517627D01*
X5008158Y-8517627D02*
X4998634Y-8489055D01*
X4998634Y-8489055D02*
X4989111Y-8470008D01*
X4989111Y-8470008D02*
X4970063Y-8441436D01*
X4970063Y-8441436D02*
X4960539Y-8431912D01*
M02*
