%TF.GenerationSoftware,KiCad,Pcbnew,10.0.4*%
%TF.CreationDate,2026-08-06T23:44:40-03:00*%
%TF.ProjectId,tkmem128-ii,746b6d65-6d31-4323-982d-69692e6b6963,rev?*%
%TF.SameCoordinates,Original*%
%TF.FileFunction,Copper,L1,Top*%
%TF.FilePolarity,Positive*%
%FSLAX46Y46*%
G04 Gerber Fmt 4.6, Leading zero omitted, Abs format (unit mm)*
G04 Created by KiCad (PCBNEW 10.0.4) date 2026-08-06 23:44:40*
%MOMM*%
%LPD*%
G01*
G04 APERTURE LIST*
G04 Aperture macros list*
%AMRoundRect*
0 Rectangle with rounded corners*
0 $1 Rounding radius*
0 $2 $3 $4 $5 $6 $7 $8 $9 X,Y pos of 4 corners*
0 Add a 4 corners polygon primitive as box body*
4,1,4,$2,$3,$4,$5,$6,$7,$8,$9,$2,$3,0*
0 Add four circle primitives for the rounded corners*
1,1,$1+$1,$2,$3*
1,1,$1+$1,$4,$5*
1,1,$1+$1,$6,$7*
1,1,$1+$1,$8,$9*
0 Add four rect primitives between the rounded corners*
20,1,$1+$1,$2,$3,$4,$5,0*
20,1,$1+$1,$4,$5,$6,$7,0*
20,1,$1+$1,$6,$7,$8,$9,0*
20,1,$1+$1,$8,$9,$2,$3,0*%
G04 Aperture macros list end*
%TA.AperFunction,ComponentPad*%
%ADD10RoundRect,0.250000X0.550000X-0.950000X0.550000X0.950000X-0.550000X0.950000X-0.550000X-0.950000X0*%
%TD*%
%TA.AperFunction,ComponentPad*%
%ADD11O,1.600000X2.400000*%
%TD*%
%TA.AperFunction,ComponentPad*%
%ADD12R,1.700000X1.700000*%
%TD*%
%TA.AperFunction,ComponentPad*%
%ADD13C,1.700000*%
%TD*%
%TA.AperFunction,ComponentPad*%
%ADD14C,1.500000*%
%TD*%
%TA.AperFunction,ComponentPad*%
%ADD15C,1.600000*%
%TD*%
%TA.AperFunction,ComponentPad*%
%ADD16RoundRect,0.250000X-0.550000X-0.550000X0.550000X-0.550000X0.550000X0.550000X-0.550000X0.550000X0*%
%TD*%
%TA.AperFunction,ComponentPad*%
%ADD17R,1.800000X1.800000*%
%TD*%
%TA.AperFunction,ComponentPad*%
%ADD18C,1.800000*%
%TD*%
%TA.AperFunction,ComponentPad*%
%ADD19R,1.500000X1.500000*%
%TD*%
%TA.AperFunction,ViaPad*%
%ADD20C,0.800000*%
%TD*%
%TA.AperFunction,Conductor*%
%ADD21C,0.500000*%
%TD*%
G04 APERTURE END LIST*
D10*
%TO.P,U3,1*%
%TO.N,SA18*%
X3300000Y-43440000D03*
D11*
%TO.P,U3,2*%
%TO.N,SA16*%
X5840000Y-43440000D03*
%TO.P,U3,3*%
%TO.N,SA14*%
X8380000Y-43440000D03*
%TO.P,U3,4*%
%TO.N,A12*%
X10920000Y-43440000D03*
%TO.P,U3,5*%
%TO.N,A7*%
X13460000Y-43440000D03*
%TO.P,U3,6*%
%TO.N,A6*%
X16000000Y-43440000D03*
%TO.P,U3,7*%
%TO.N,A5*%
X18540000Y-43440000D03*
%TO.P,U3,8*%
%TO.N,A4*%
X21080000Y-43440000D03*
%TO.P,U3,9*%
%TO.N,A3*%
X23620000Y-43440000D03*
%TO.P,U3,10*%
%TO.N,A2*%
X26160000Y-43440000D03*
%TO.P,U3,11*%
%TO.N,A1*%
X28700000Y-43440000D03*
%TO.P,U3,12*%
%TO.N,A0*%
X31240000Y-43440000D03*
%TO.P,U3,13*%
%TO.N,D0*%
X33780000Y-43440000D03*
%TO.P,U3,14*%
%TO.N,D1*%
X36320000Y-43440000D03*
%TO.P,U3,15*%
%TO.N,D2*%
X38860000Y-43440000D03*
%TO.P,U3,16*%
%TO.N,GND*%
X41400000Y-43440000D03*
%TO.P,U3,17*%
%TO.N,D3*%
X41400000Y-28200000D03*
%TO.P,U3,18*%
%TO.N,D4*%
X38860000Y-28200000D03*
%TO.P,U3,19*%
%TO.N,D5*%
X36320000Y-28200000D03*
%TO.P,U3,20*%
%TO.N,D6*%
X33780000Y-28200000D03*
%TO.P,U3,21*%
%TO.N,D7*%
X31240000Y-28200000D03*
%TO.P,U3,22*%
%TO.N,RAMCS_N*%
X28700000Y-28200000D03*
%TO.P,U3,23*%
%TO.N,A10*%
X26160000Y-28200000D03*
%TO.P,U3,24*%
%TO.N,RD_N*%
X23620000Y-28200000D03*
%TO.P,U3,25*%
%TO.N,A11*%
X21080000Y-28200000D03*
%TO.P,U3,26*%
%TO.N,A9*%
X18540000Y-28200000D03*
%TO.P,U3,27*%
%TO.N,A8*%
X16000000Y-28200000D03*
%TO.P,U3,28*%
%TO.N,A13*%
X13460000Y-28200000D03*
%TO.P,U3,29*%
%TO.N,WR_N*%
X10920000Y-28200000D03*
%TO.P,U3,30*%
%TO.N,SA17_CE2*%
X8380000Y-28200000D03*
%TO.P,U3,31*%
%TO.N,SA15*%
X5840000Y-28200000D03*
%TO.P,U3,32*%
%TO.N,+5V*%
X3300000Y-28200000D03*
%TD*%
D12*
%TO.P,JP2,1*%
%TO.N,ROMCS_N*%
X55000000Y-4000000D03*
D13*
%TO.P,JP2,2*%
%TO.N,ROMCS_DRV*%
X55000000Y-6540000D03*
%TO.P,JP2,3*%
%TO.N,+5V*%
X55000000Y-9080000D03*
%TD*%
D14*
%TO.P,TP2,1*%
%TO.N,CLK7FFD*%
X56000000Y-19500000D03*
%TD*%
D12*
%TO.P,JP1,1*%
%TO.N,ROMCS_N*%
X46500000Y-4000000D03*
D13*
%TO.P,JP1,2*%
%TO.N,ROMCE_N*%
X46500000Y-6540000D03*
%TO.P,JP1,3*%
%TO.N,+5V*%
X46500000Y-9080000D03*
%TD*%
D15*
%TO.P,C5,1*%
%TO.N,+5V*%
X58000000Y-53000000D03*
%TO.P,C5,2*%
%TO.N,GND*%
X63000000Y-53000000D03*
%TD*%
%TO.P,C4,1*%
%TO.N,+5V*%
X12000000Y-24000000D03*
%TO.P,C4,2*%
%TO.N,GND*%
X17000000Y-24000000D03*
%TD*%
D10*
%TO.P,U2,1*%
%TO.N,RESET_N*%
X50800000Y-49320000D03*
D11*
%TO.P,U2,2*%
%TO.N,BANK0*%
X53340000Y-49320000D03*
%TO.P,U2,3*%
%TO.N,D0*%
X55880000Y-49320000D03*
%TO.P,U2,4*%
%TO.N,D1*%
X58420000Y-49320000D03*
%TO.P,U2,5*%
%TO.N,BANK1*%
X60960000Y-49320000D03*
%TO.P,U2,6*%
%TO.N,BANK2*%
X63500000Y-49320000D03*
%TO.P,U2,7*%
%TO.N,D2*%
X66040000Y-49320000D03*
%TO.P,U2,8*%
%TO.N,D3*%
X68580000Y-49320000D03*
%TO.P,U2,9*%
%TO.N,VRAM*%
X71120000Y-49320000D03*
%TO.P,U2,10*%
%TO.N,GND*%
X73660000Y-49320000D03*
%TO.P,U2,11*%
%TO.N,CLK7FFD*%
X73660000Y-41700000D03*
%TO.P,U2,12*%
%TO.N,ROMA14*%
X71120000Y-41700000D03*
%TO.P,U2,13*%
%TO.N,D4*%
X68580000Y-41700000D03*
%TO.P,U2,14*%
%TO.N,D5*%
X66040000Y-41700000D03*
%TO.P,U2,15*%
%TO.N,DIS128*%
X63500000Y-41700000D03*
%TO.P,U2,16*%
%TO.N,BANK3*%
X60960000Y-41700000D03*
%TO.P,U2,17*%
%TO.N,D6*%
X58420000Y-41700000D03*
%TO.P,U2,18*%
%TO.N,D7*%
X55880000Y-41700000D03*
%TO.P,U2,19*%
%TO.N,BANK4*%
X53340000Y-41700000D03*
%TO.P,U2,20*%
%TO.N,+5V*%
X50800000Y-41700000D03*
%TD*%
D15*
%TO.P,R3,1*%
%TO.N,+5V*%
X63000000Y-14500000D03*
%TO.P,R3,2*%
%TO.N,LED_A*%
X65540000Y-14500000D03*
%TD*%
D14*
%TO.P,TP1,1*%
%TO.N,VRAM*%
X52000000Y-19500000D03*
%TD*%
D10*
%TO.P,U4,1*%
%TO.N,+5V*%
X1800000Y-20440000D03*
D11*
%TO.P,U4,2*%
%TO.N,A12*%
X4340000Y-20440000D03*
%TO.P,U4,3*%
%TO.N,A7*%
X6880000Y-20440000D03*
%TO.P,U4,4*%
%TO.N,A6*%
X9420000Y-20440000D03*
%TO.P,U4,5*%
%TO.N,A5*%
X11960000Y-20440000D03*
%TO.P,U4,6*%
%TO.N,A4*%
X14500000Y-20440000D03*
%TO.P,U4,7*%
%TO.N,A3*%
X17040000Y-20440000D03*
%TO.P,U4,8*%
%TO.N,A2*%
X19580000Y-20440000D03*
%TO.P,U4,9*%
%TO.N,A1*%
X22120000Y-20440000D03*
%TO.P,U4,10*%
%TO.N,A0*%
X24660000Y-20440000D03*
%TO.P,U4,11*%
%TO.N,D0*%
X27200000Y-20440000D03*
%TO.P,U4,12*%
%TO.N,D1*%
X29740000Y-20440000D03*
%TO.P,U4,13*%
%TO.N,D2*%
X32280000Y-20440000D03*
%TO.P,U4,14*%
%TO.N,GND*%
X34820000Y-20440000D03*
%TO.P,U4,15*%
%TO.N,D3*%
X34820000Y-5200000D03*
%TO.P,U4,16*%
%TO.N,D4*%
X32280000Y-5200000D03*
%TO.P,U4,17*%
%TO.N,D5*%
X29740000Y-5200000D03*
%TO.P,U4,18*%
%TO.N,D6*%
X27200000Y-5200000D03*
%TO.P,U4,19*%
%TO.N,D7*%
X24660000Y-5200000D03*
%TO.P,U4,20*%
%TO.N,ROMCE_N*%
X22120000Y-5200000D03*
%TO.P,U4,21*%
%TO.N,A10*%
X19580000Y-5200000D03*
%TO.P,U4,22*%
%TO.N,RD_N*%
X17040000Y-5200000D03*
%TO.P,U4,23*%
%TO.N,A11*%
X14500000Y-5200000D03*
%TO.P,U4,24*%
%TO.N,A9*%
X11960000Y-5200000D03*
%TO.P,U4,25*%
%TO.N,A8*%
X9420000Y-5200000D03*
%TO.P,U4,26*%
%TO.N,A13*%
X6880000Y-5200000D03*
%TO.P,U4,27*%
%TO.N,ROMA14*%
X4340000Y-5200000D03*
%TO.P,U4,28*%
%TO.N,+5V*%
X1800000Y-5200000D03*
%TD*%
D15*
%TO.P,C2,1*%
%TO.N,+5V*%
X47300000Y-53000000D03*
%TO.P,C2,2*%
%TO.N,GND*%
X52300000Y-53000000D03*
%TD*%
%TO.P,R5,1*%
%TO.N,ROMCS_DRV*%
X57500000Y-14500000D03*
%TO.P,R5,2*%
%TO.N,ROMCS_BUS*%
X60040000Y-14500000D03*
%TD*%
D16*
%TO.P,C6,1*%
%TO.N,+5V*%
X67200000Y-54300000D03*
D15*
%TO.P,C6,2*%
%TO.N,GND*%
X69200000Y-54300000D03*
%TD*%
D17*
%TO.P,D1,1*%
%TO.N,GND*%
X46500000Y-19500000D03*
D18*
%TO.P,D1,2*%
%TO.N,LED_A*%
X49040000Y-19500000D03*
%TD*%
D10*
%TO.P,U1,1*%
%TO.N,MREQ_N*%
X48300000Y-35820000D03*
D11*
%TO.P,U1,2*%
%TO.N,ZX512*%
X50840000Y-35820000D03*
%TO.P,U1,3*%
%TO.N,A1*%
X53380000Y-35820000D03*
%TO.P,U1,4*%
%TO.N,WR_N*%
X55920000Y-35820000D03*
%TO.P,U1,5*%
%TO.N,DIS128*%
X58460000Y-35820000D03*
%TO.P,U1,6*%
%TO.N,BANK2*%
X61000000Y-35820000D03*
%TO.P,U1,7*%
%TO.N,A5*%
X63540000Y-35820000D03*
%TO.P,U1,8*%
%TO.N,BANK0*%
X66080000Y-35820000D03*
%TO.P,U1,9*%
%TO.N,BANK4*%
X68620000Y-35820000D03*
%TO.P,U1,10*%
%TO.N,BANK3*%
X71160000Y-35820000D03*
%TO.P,U1,11*%
%TO.N,BANK1*%
X73700000Y-35820000D03*
%TO.P,U1,12*%
%TO.N,GND*%
X76240000Y-35820000D03*
%TO.P,U1,13*%
%TO.N,A15*%
X76240000Y-28200000D03*
%TO.P,U1,14*%
%TO.N,A14*%
X73700000Y-28200000D03*
%TO.P,U1,15*%
%TO.N,ROMCS_N*%
X71160000Y-28200000D03*
%TO.P,U1,16*%
%TO.N,CLK7FFD*%
X68620000Y-28200000D03*
%TO.P,U1,17*%
%TO.N,SA18*%
X66080000Y-28200000D03*
%TO.P,U1,18*%
%TO.N,SA17_CE2*%
X63540000Y-28200000D03*
%TO.P,U1,19*%
%TO.N,RAMCS_N*%
X61000000Y-28200000D03*
%TO.P,U1,20*%
%TO.N,SA16*%
X58460000Y-28200000D03*
%TO.P,U1,21*%
%TO.N,SA15*%
X55920000Y-28200000D03*
%TO.P,U1,22*%
%TO.N,SA14*%
X53380000Y-28200000D03*
%TO.P,U1,23*%
%TO.N,IORQ_N*%
X50840000Y-28200000D03*
%TO.P,U1,24*%
%TO.N,+5V*%
X48300000Y-28200000D03*
%TD*%
D15*
%TO.P,C1,1*%
%TO.N,+5V*%
X48300000Y-23500000D03*
%TO.P,C1,2*%
%TO.N,GND*%
X53300000Y-23500000D03*
%TD*%
%TO.P,C3,1*%
%TO.N,+5V*%
X3300000Y-24000000D03*
%TO.P,C3,2*%
%TO.N,GND*%
X8300000Y-24000000D03*
%TD*%
%TO.P,R4,1*%
%TO.N,+5V*%
X4000000Y-52500000D03*
%TO.P,R4,2*%
%TO.N,RAMDIS*%
X6540000Y-52500000D03*
%TD*%
%TO.P,R2,1*%
%TO.N,+5V*%
X46500000Y-14500000D03*
%TO.P,R2,2*%
%TO.N,ZX512*%
X49040000Y-14500000D03*
%TD*%
D12*
%TO.P,JP3,1*%
%TO.N,ZX512*%
X63500000Y-4000000D03*
D13*
%TO.P,JP3,2*%
%TO.N,GND*%
X63500000Y-6540000D03*
%TD*%
D19*
%TO.P,J1,1*%
%TO.N,A14*%
X73660000Y-63155000D03*
D14*
%TO.P,J1,2*%
%TO.N,A12*%
X71120000Y-63155000D03*
%TO.P,J1,3*%
%TO.N,+5V*%
X68580000Y-63155000D03*
%TO.P,J1,4*%
%TO.N,BUS_9V*%
X66040000Y-63155000D03*
%TO.P,J1,6*%
%TO.N,GND*%
X60960000Y-63155000D03*
%TO.P,J1,7*%
%TO.N,BUS_P07*%
X58420000Y-63155000D03*
%TO.P,J1,8*%
%TO.N,BUS_CLK*%
X55880000Y-63155000D03*
%TO.P,J1,9*%
%TO.N,A0*%
X53340000Y-63155000D03*
%TO.P,J1,10*%
%TO.N,A1*%
X50800000Y-63155000D03*
%TO.P,J1,11*%
%TO.N,A2*%
X48260000Y-63155000D03*
%TO.P,J1,12*%
%TO.N,A3*%
X45720000Y-63155000D03*
%TO.P,J1,13*%
%TO.N,BUS_IORQGE*%
X43180000Y-63155000D03*
%TO.P,J1,14*%
%TO.N,GND*%
X40640000Y-63155000D03*
%TO.P,J1,15*%
%TO.N,BUS_P15*%
X38100000Y-63155000D03*
%TO.P,J1,16*%
%TO.N,BUS_P16*%
X35560000Y-63155000D03*
%TO.P,J1,17*%
%TO.N,BUS_P17*%
X33020000Y-63155000D03*
%TO.P,J1,18*%
%TO.N,BUS_P18*%
X30480000Y-63155000D03*
%TO.P,J1,19*%
%TO.N,BUS_BUSREQ*%
X27940000Y-63155000D03*
%TO.P,J1,20*%
%TO.N,RESET_N*%
X25400000Y-63155000D03*
%TO.P,J1,21*%
%TO.N,A7*%
X22860000Y-63155000D03*
%TO.P,J1,22*%
%TO.N,A6*%
X20320000Y-63155000D03*
%TO.P,J1,23*%
%TO.N,A5*%
X17780000Y-63155000D03*
%TO.P,J1,24*%
%TO.N,A4*%
X15240000Y-63155000D03*
%TO.P,J1,25*%
%TO.N,ROMCS_BUS*%
X12700000Y-63155000D03*
%TO.P,J1,26*%
%TO.N,BUS_BUSACK*%
X10160000Y-63155000D03*
%TO.P,J1,27*%
%TO.N,A9*%
X7620000Y-63155000D03*
%TO.P,J1,28*%
%TO.N,A11*%
X5080000Y-63155000D03*
%TO.P,J1,29*%
%TO.N,RAMDIS*%
X5080000Y-58305000D03*
%TO.P,J1,30*%
%TO.N,A10*%
X7620000Y-58305000D03*
%TO.P,J1,31*%
%TO.N,A8*%
X10160000Y-58305000D03*
%TO.P,J1,32*%
%TO.N,BUS_RFSH*%
X12700000Y-58305000D03*
%TO.P,J1,33*%
%TO.N,BUS_M1*%
X15240000Y-58305000D03*
%TO.P,J1,34*%
%TO.N,BUS_P34*%
X17780000Y-58305000D03*
%TO.P,J1,35*%
%TO.N,BUS_P35*%
X20320000Y-58305000D03*
%TO.P,J1,36*%
%TO.N,BUS_WAIT*%
X22860000Y-58305000D03*
%TO.P,J1,37*%
%TO.N,BUS_P37*%
X25400000Y-58305000D03*
%TO.P,J1,38*%
%TO.N,WR_N*%
X27940000Y-58305000D03*
%TO.P,J1,39*%
%TO.N,RD_N*%
X30480000Y-58305000D03*
%TO.P,J1,40*%
%TO.N,IORQ_N*%
X33020000Y-58305000D03*
%TO.P,J1,41*%
%TO.N,MREQ_N*%
X35560000Y-58305000D03*
%TO.P,J1,42*%
%TO.N,BUS_HALT*%
X38100000Y-58305000D03*
%TO.P,J1,43*%
%TO.N,BUS_NMI*%
X40640000Y-58305000D03*
%TO.P,J1,44*%
%TO.N,BUS_INT*%
X43180000Y-58305000D03*
%TO.P,J1,45*%
%TO.N,D4*%
X45720000Y-58305000D03*
%TO.P,J1,46*%
%TO.N,D3*%
X48260000Y-58305000D03*
%TO.P,J1,47*%
%TO.N,D5*%
X50800000Y-58305000D03*
%TO.P,J1,48*%
%TO.N,D6*%
X53340000Y-58305000D03*
%TO.P,J1,49*%
%TO.N,D2*%
X55880000Y-58305000D03*
%TO.P,J1,50*%
%TO.N,D1*%
X58420000Y-58305000D03*
%TO.P,J1,51*%
%TO.N,D0*%
X60960000Y-58305000D03*
%TO.P,J1,53*%
%TO.N,BUS_SOUNDIN*%
X66040000Y-58305000D03*
%TO.P,J1,54*%
%TO.N,D7*%
X68580000Y-58305000D03*
%TO.P,J1,55*%
%TO.N,A13*%
X71120000Y-58305000D03*
%TO.P,J1,56*%
%TO.N,A15*%
X73660000Y-58305000D03*
%TD*%
D20*
%TO.N,A12*%
X10920000Y-48018300D03*
%TO.N,A5*%
X19490000Y-40125700D03*
%TO.N,A4*%
X42310000Y-20240400D03*
X43188800Y-36072400D03*
%TO.N,A0*%
X46984900Y-57636300D03*
%TO.N,D1*%
X51113500Y-45709200D03*
%TO.N,D3*%
X31788600Y-32712100D03*
%TO.N,D4*%
X38860000Y-20754000D03*
X68856800Y-39099600D03*
%TO.N,D7*%
X38817400Y-31907800D03*
%TO.N,RD_N*%
X24890100Y-39462600D03*
%TO.N,A11*%
X3244800Y-38714800D03*
X1101700Y-22643700D03*
X16438800Y-32901900D03*
%TO.N,A9*%
X12190000Y-38500800D03*
%TO.N,A13*%
X49083300Y-50351200D03*
X38685600Y-33053200D03*
%TO.N,WR_N*%
X17952800Y-31525100D03*
X22173200Y-38668200D03*
%TO.N,ROMA14*%
X49533500Y-12401000D03*
%TO.N,IORQ_N*%
X45626800Y-37859800D03*
%TD*%
%TO.N,SA18*%
D21*
X64010100Y-31969900D02*
X43591300Y-31969900D01*
X66080000Y-28200000D02*
X66080000Y-29900000D01*
X13191800Y-45910300D02*
X5770300Y-45910300D01*
X20754400Y-36445700D02*
X14730000Y-42470100D01*
X43591300Y-31969900D02*
X39115500Y-36445700D01*
X14730000Y-44372100D02*
X13191800Y-45910300D01*
X39115500Y-36445700D02*
X20754400Y-36445700D01*
X5770300Y-45910300D02*
X3300000Y-43440000D01*
X66080000Y-29900000D02*
X64010100Y-31969900D01*
X14730000Y-42470100D02*
X14730000Y-44372100D01*
%TO.N,SA16*%
X46464500Y-26500100D02*
X37952300Y-35012300D01*
X37952300Y-35012300D02*
X17683400Y-35012300D01*
X58460000Y-26500000D02*
X46464500Y-26500000D01*
X17683400Y-35012300D02*
X10955700Y-41740000D01*
X58460000Y-28200000D02*
X58460000Y-26500000D01*
X5840000Y-43440000D02*
X5840000Y-41740000D01*
X10955700Y-41740000D02*
X5840000Y-41740000D01*
%TO.N,SA14*%
X8380000Y-43440000D02*
X8380000Y-45140000D01*
X11470000Y-45140000D02*
X8380000Y-45140000D01*
X38461200Y-35729000D02*
X18914900Y-35729000D01*
X53380000Y-28200000D02*
X53380000Y-29900000D01*
X18914900Y-35729000D02*
X12189900Y-42454000D01*
X12189900Y-42454000D02*
X12189900Y-44420100D01*
X53380000Y-29900000D02*
X44290200Y-29900000D01*
X12189900Y-44420100D02*
X11470000Y-45140000D01*
X44290200Y-29900000D02*
X38461200Y-35729000D01*
%TO.N,A12*%
X24942300Y-64419800D02*
X24130000Y-63607500D01*
X24130000Y-63607500D02*
X24130000Y-57786400D01*
X69855200Y-64419800D02*
X24942300Y-64419800D01*
X14361900Y-48018300D02*
X10920000Y-48018300D01*
X71120000Y-63155000D02*
X69855200Y-64419800D01*
X24130000Y-57786400D02*
X14361900Y-48018300D01*
%TO.N,A5*%
X39859400Y-37162400D02*
X22453300Y-37162400D01*
X18540000Y-41075700D02*
X18540000Y-41740000D01*
X63540000Y-35820000D02*
X63540000Y-34120000D01*
X63540000Y-34120000D02*
X62106600Y-32686600D01*
X18540000Y-43440000D02*
X18540000Y-41740000D01*
X62106600Y-32686600D02*
X44335200Y-32686600D01*
X22453300Y-37162400D02*
X19490000Y-40125700D01*
X44335200Y-32686600D02*
X39859400Y-37162400D01*
X19490000Y-40125700D02*
X18540000Y-41075700D01*
%TO.N,A4*%
X40665300Y-38595900D02*
X43188800Y-36072400D01*
X21080000Y-41740000D02*
X24224100Y-38595900D01*
X24224100Y-38595900D02*
X40665300Y-38595900D01*
X42310000Y-20240400D02*
X40809600Y-18740000D01*
X40809600Y-18740000D02*
X14500000Y-18740000D01*
X14500000Y-20440000D02*
X14500000Y-18740000D01*
X21080000Y-43440000D02*
X21080000Y-41740000D01*
%TO.N,A1*%
X53380000Y-35820000D02*
X53380000Y-34120000D01*
X46564700Y-34120000D02*
X40378100Y-40306600D01*
X40378100Y-40306600D02*
X30133400Y-40306600D01*
X53380000Y-34120000D02*
X46564700Y-34120000D01*
X30133400Y-40306600D02*
X28700000Y-41740000D01*
X28700000Y-43440000D02*
X28700000Y-41740000D01*
%TO.N,A0*%
X53340000Y-63155000D02*
X50800100Y-60615100D01*
X50800100Y-60615100D02*
X48799600Y-60615100D01*
X46984900Y-58800400D02*
X46984900Y-57636300D01*
X48799600Y-60615100D02*
X46984900Y-58800400D01*
%TO.N,D0*%
X55880000Y-51020000D02*
X52846300Y-51020000D01*
X33780000Y-43440000D02*
X33780000Y-45140000D01*
X52846300Y-51020000D02*
X52070500Y-50244200D01*
X52070500Y-50244200D02*
X52070500Y-47997300D01*
X36273000Y-47633000D02*
X33780000Y-45140000D01*
X52070500Y-47997300D02*
X51706200Y-47633000D01*
X51706200Y-47633000D02*
X36273000Y-47633000D01*
X55880000Y-49320000D02*
X55880000Y-51020000D01*
%TO.N,D1*%
X36320000Y-43440000D02*
X36320000Y-45140000D01*
X36889200Y-45709200D02*
X51113500Y-45709200D01*
X36320000Y-45140000D02*
X36889200Y-45709200D01*
%TO.N,D2*%
X63165000Y-51020000D02*
X55880000Y-58305000D01*
X66040000Y-49320000D02*
X66040000Y-51020000D01*
X66040000Y-51020000D02*
X63165000Y-51020000D01*
%TO.N,D3*%
X49511200Y-59556200D02*
X51468600Y-59556200D01*
X68580000Y-49320000D02*
X68580000Y-51020000D01*
X41400000Y-28200000D02*
X41400000Y-29900000D01*
X41400000Y-29900000D02*
X34600700Y-29900000D01*
X52185300Y-60272900D02*
X70907700Y-60272900D01*
X34600700Y-29900000D02*
X31788600Y-32712100D01*
X72390000Y-58790600D02*
X72390000Y-54830000D01*
X48260000Y-58305000D02*
X49511200Y-59556200D01*
X51468600Y-59556200D02*
X52185300Y-60272900D01*
X70907700Y-60272900D02*
X72390000Y-58790600D01*
X72390000Y-54830000D02*
X68580000Y-51020000D01*
%TO.N,D4*%
X69890000Y-38066400D02*
X69890000Y-31685000D01*
X39622500Y-21516500D02*
X38860000Y-20754000D01*
X68856800Y-39099600D02*
X69890000Y-38066400D01*
X69890000Y-31685000D02*
X67350000Y-29145000D01*
X67350000Y-27233700D02*
X61632800Y-21516500D01*
X61632800Y-21516500D02*
X39622500Y-21516500D01*
X67350000Y-29145000D02*
X67350000Y-27233700D01*
%TO.N,D6*%
X57150000Y-44670000D02*
X57150000Y-51780000D01*
X58420000Y-43400000D02*
X57150000Y-44670000D01*
X53340000Y-55590000D02*
X53340000Y-58305000D01*
X57150000Y-51780000D02*
X53340000Y-55590000D01*
X58420000Y-41700000D02*
X58420000Y-43400000D01*
%TO.N,D7*%
X31240000Y-28200000D02*
X31240000Y-29900000D01*
X30882400Y-33079700D02*
X30882400Y-30257600D01*
X30882400Y-30257600D02*
X31240000Y-29900000D01*
X32198400Y-33578900D02*
X31381600Y-33578900D01*
X31381600Y-33578900D02*
X30882400Y-33079700D01*
X38817400Y-31907800D02*
X33869500Y-31907800D01*
X33869500Y-31907800D02*
X32198400Y-33578900D01*
%TO.N,RAMCS_N*%
X28700000Y-28200000D02*
X28700000Y-26500000D01*
X29438300Y-25761700D02*
X28700000Y-26500000D01*
X61000000Y-28200000D02*
X61000000Y-26500000D01*
X60261700Y-25761700D02*
X29438300Y-25761700D01*
X61000000Y-26500000D02*
X60261700Y-25761700D01*
%TO.N,RD_N*%
X30480000Y-58305000D02*
X24890100Y-52715100D01*
X24890100Y-52715100D02*
X24890100Y-39462600D01*
%TO.N,A11*%
X3822500Y-3500000D02*
X14500000Y-3500000D01*
X1101700Y-22643700D02*
X2178600Y-22643700D01*
X16438800Y-32901900D02*
X9057700Y-32901900D01*
X14500000Y-5200000D02*
X14500000Y-3500000D01*
X3070000Y-21752300D02*
X3070000Y-4252500D01*
X2178600Y-22643700D02*
X3070000Y-21752300D01*
X9057700Y-32901900D02*
X3244800Y-38714800D01*
X3070000Y-4252500D02*
X3822500Y-3500000D01*
%TO.N,A9*%
X18826000Y-31961100D02*
X12286300Y-38500800D01*
X18540000Y-28200000D02*
X18540000Y-29900000D01*
X18540000Y-29900000D02*
X18826000Y-30186000D01*
X18826000Y-30186000D02*
X18826000Y-31961100D01*
%TO.N,A8*%
X9650100Y-27219900D02*
X10370000Y-26500000D01*
X9650100Y-31052400D02*
X9650100Y-27219900D01*
X16000000Y-28200000D02*
X16000000Y-26500000D01*
X10370000Y-26500000D02*
X16000000Y-26500000D01*
X10160000Y-58305000D02*
X10160000Y-52816700D01*
X1981700Y-38720800D02*
X9650100Y-31052400D01*
X10160000Y-52816700D02*
X1981700Y-44638400D01*
X1981700Y-44638400D02*
X1981700Y-38720800D01*
%TO.N,A13*%
X17270100Y-27262800D02*
X17270100Y-29151400D01*
X19810000Y-29145000D02*
X19810000Y-27239900D01*
X19103300Y-26533200D02*
X17999700Y-26533200D01*
X19810000Y-27239900D02*
X19103300Y-26533200D01*
X52070000Y-55980700D02*
X49083300Y-52994000D01*
X49083300Y-52994000D02*
X49083300Y-50351200D01*
X24960600Y-34295600D02*
X19810000Y-29145000D01*
X38685600Y-33053200D02*
X37443200Y-34295600D01*
X16521500Y-29900000D02*
X13460000Y-29900000D01*
X17999700Y-26533200D02*
X17270100Y-27262800D01*
X71120000Y-58305000D02*
X69868800Y-59556200D01*
X52840000Y-59556200D02*
X52070000Y-58786200D01*
X17270100Y-29151400D02*
X16521500Y-29900000D01*
X69868800Y-59556200D02*
X52840000Y-59556200D01*
X52070000Y-58786200D02*
X52070000Y-55980700D01*
X37443200Y-34295600D02*
X24960600Y-34295600D01*
X13460000Y-28200000D02*
X13460000Y-29900000D01*
%TO.N,WR_N*%
X12545100Y-31525100D02*
X17952800Y-31525100D01*
X44632200Y-33403300D02*
X40156400Y-37879100D01*
X55203300Y-33403300D02*
X44632200Y-33403300D01*
X40156400Y-37879100D02*
X22962300Y-37879100D01*
X22962300Y-37879100D02*
X22173200Y-38668200D01*
X10920000Y-29900000D02*
X12545100Y-31525100D01*
X10920000Y-28200000D02*
X10920000Y-29900000D01*
X55920000Y-34120000D02*
X55203300Y-33403300D01*
X55920000Y-35820000D02*
X55920000Y-34120000D01*
%TO.N,SA17_CE2*%
X17764700Y-25026800D02*
X17008200Y-25783300D01*
X9715300Y-25783300D02*
X8998600Y-26500000D01*
X63540000Y-28200000D02*
X63540000Y-26500000D01*
X17008200Y-25783300D02*
X9715300Y-25783300D01*
X8380000Y-28200000D02*
X8380000Y-26500000D01*
X62066800Y-25026800D02*
X17764700Y-25026800D01*
X63540000Y-26500000D02*
X62066800Y-25026800D01*
X8998600Y-26500000D02*
X8380000Y-26500000D01*
%TO.N,SA15*%
X11861100Y-22233200D02*
X60306000Y-22233200D01*
X55920000Y-28200000D02*
X55920000Y-29900000D01*
X5840000Y-28200000D02*
X5840000Y-26500000D01*
X64808500Y-29181800D02*
X64090300Y-29900000D01*
X64808500Y-26735700D02*
X64808500Y-29181800D01*
X64090300Y-29900000D02*
X55920000Y-29900000D01*
X60306000Y-22233200D02*
X64808500Y-26735700D01*
X7070000Y-25270000D02*
X8824300Y-25270000D01*
X5840000Y-26500000D02*
X7070000Y-25270000D01*
X8824300Y-25270000D02*
X11861100Y-22233200D01*
%TO.N,ROMCS_N*%
X46500000Y-4000000D02*
X55000000Y-4000000D01*
%TO.N,CLK7FFD*%
X61620000Y-19500000D02*
X56000000Y-19500000D01*
X68620000Y-28200000D02*
X68620000Y-26500000D01*
X68620000Y-26500000D02*
X61620000Y-19500000D01*
%TO.N,ROMCE_N*%
X22755100Y-7535100D02*
X45504900Y-7535100D01*
X22120000Y-5200000D02*
X22120000Y-6900000D01*
X45504900Y-7535100D02*
X46500000Y-6540000D01*
X22120000Y-6900000D02*
X22755100Y-7535100D01*
%TO.N,RESET_N*%
X39370000Y-58790600D02*
X37485400Y-60675200D01*
X50800000Y-49320000D02*
X47814300Y-49320000D01*
X47814300Y-49320000D02*
X39370000Y-57764300D01*
X37485400Y-60675200D02*
X27879800Y-60675200D01*
X27879800Y-60675200D02*
X25400000Y-63155000D01*
X39370000Y-57764300D02*
X39370000Y-58790600D01*
%TO.N,BANK0*%
X52070100Y-40195100D02*
X52070100Y-46350100D01*
X54745200Y-37520000D02*
X52070100Y-40195100D01*
X66080000Y-35820000D02*
X66080000Y-37520000D01*
X53340000Y-49320000D02*
X53340000Y-47620000D01*
X52070100Y-46350100D02*
X53340000Y-47620000D01*
X66080000Y-37520000D02*
X54745200Y-37520000D01*
%TO.N,BANK1*%
X72390000Y-42689200D02*
X67459200Y-47620000D01*
X67459200Y-47620000D02*
X60960000Y-47620000D01*
X72390000Y-38830000D02*
X72390000Y-42689200D01*
X73700000Y-35820000D02*
X73700000Y-37520000D01*
X60960000Y-49320000D02*
X60960000Y-47620000D01*
X73700000Y-37520000D02*
X72390000Y-38830000D01*
%TO.N,VRAM*%
X71120000Y-49320000D02*
X71120000Y-47620000D01*
X74970000Y-34545200D02*
X72430000Y-32005200D01*
X74970000Y-43770000D02*
X74970000Y-34545200D01*
X53234600Y-18265400D02*
X52000000Y-19500000D01*
X71120000Y-47620000D02*
X74970000Y-43770000D01*
X72430000Y-32005200D02*
X72430000Y-27251400D01*
X72430000Y-27251400D02*
X63444000Y-18265400D01*
X63444000Y-18265400D02*
X53234600Y-18265400D01*
%TO.N,ROMA14*%
X9841000Y-12401000D02*
X49533500Y-12401000D01*
X4340000Y-5200000D02*
X4340000Y-6900000D01*
X4340000Y-6900000D02*
X9841000Y-12401000D01*
%TO.N,BANK3*%
X69182200Y-40000000D02*
X71160000Y-38022200D01*
X60960000Y-41700000D02*
X60960000Y-40000000D01*
X60960000Y-40000000D02*
X69182200Y-40000000D01*
X71160000Y-35820000D02*
X71160000Y-37520000D01*
X71160000Y-38022200D02*
X71160000Y-37520000D01*
%TO.N,BANK4*%
X55103300Y-38236700D02*
X53340000Y-40000000D01*
X67903300Y-38236700D02*
X55103300Y-38236700D01*
X53340000Y-41700000D02*
X53340000Y-40000000D01*
X68620000Y-35820000D02*
X68620000Y-37520000D01*
X68620000Y-37520000D02*
X67903300Y-38236700D01*
%TO.N,LED_A*%
X51837700Y-16702300D02*
X63337700Y-16702300D01*
X63337700Y-16702300D02*
X65540000Y-14500000D01*
X49040000Y-19500000D02*
X51837700Y-16702300D01*
%TO.N,ROMCS_BUS*%
X4570000Y-32384300D02*
X1265000Y-35689300D01*
X8150000Y-19469900D02*
X8150000Y-21396900D01*
X6350000Y-58810000D02*
X8270000Y-60730000D01*
X11799300Y-15820600D02*
X8150000Y-19469900D01*
X8270000Y-60730000D02*
X10275000Y-60730000D01*
X6350000Y-56734600D02*
X6350000Y-58810000D01*
X8150000Y-21396900D02*
X4570000Y-24976900D01*
X4570000Y-24976900D02*
X4570000Y-32384300D01*
X10275000Y-60730000D02*
X12700000Y-63155000D01*
X1265000Y-51649600D02*
X6350000Y-56734600D01*
X58719400Y-15820600D02*
X11799300Y-15820600D01*
X1265000Y-35689300D02*
X1265000Y-51649600D01*
X60040000Y-14500000D02*
X58719400Y-15820600D01*
%TO.N,MREQ_N*%
X32510000Y-55255000D02*
X32510000Y-42475600D01*
X33245600Y-41740000D02*
X42972400Y-41740000D01*
X48300000Y-36412400D02*
X48300000Y-35820000D01*
X42972400Y-41740000D02*
X48300000Y-36412400D01*
X35560000Y-58305000D02*
X32510000Y-55255000D01*
X32510000Y-42475600D02*
X33245600Y-41740000D01*
%TO.N,ZX512*%
X62150000Y-4000000D02*
X51650000Y-14500000D01*
X63500000Y-4000000D02*
X62150000Y-4000000D01*
X51650000Y-14500000D02*
X49040000Y-14500000D01*
%TO.N,A14*%
X78040000Y-24000000D02*
X73700000Y-24000000D01*
X73660000Y-63155000D02*
X78040000Y-63155000D01*
X73700000Y-24000000D02*
X73700000Y-28200000D01*
X78040000Y-63155000D02*
X78040000Y-24000000D01*
%TO.N,IORQ_N*%
X33020000Y-58305000D02*
X29970000Y-55255000D01*
X29970000Y-55255000D02*
X29970000Y-42477600D01*
X42463300Y-41023300D02*
X45626800Y-37859800D01*
X29970000Y-42477600D02*
X31424300Y-41023300D01*
X31424300Y-41023300D02*
X42463300Y-41023300D01*
%TD*%
M02*
