M48
; DRILL file KiCad 10.0.4 date 2026-07-27T01:33:31
; FORMAT={-:-/ absolute / metric / decimal}
; #@! TF.CreationDate,2026-07-27T01:33:31-03:00
; #@! TF.GenerationSoftware,Kicad,Pcbnew,10.0.4
; #@! TF.FileFunction,MixedPlating,1,2
FMAT,2
METRIC
; #@! TA.AperFunction,Plated,PTH,ViaDrill
T1C0.350
; #@! TA.AperFunction,Plated,PTH,ViaDrill
T2C0.450
; #@! TA.AperFunction,Plated,PTH,ComponentDrill
T3C0.700
; #@! TA.AperFunction,Plated,PTH,ComponentDrill
T4C0.800
; #@! TA.AperFunction,Plated,PTH,ComponentDrill
T5C0.900
; #@! TA.AperFunction,Plated,PTH,ComponentDrill
T6C1.000
; #@! TA.AperFunction,Plated,PTH,ComponentDrill
T7C1.020
%
G90
G05
T1
X9.92Y-45.764
X14.395Y-44.904
X16.603Y-62.615
X29.208Y-36.939
X29.755Y-57.166
X31.739Y-62.84
X31.862Y-14.786
X32.021Y-17.889
X32.748Y-34.39
X32.89Y-56.795
X33.14Y-43.547
X33.157Y-53.919
X36.59Y-54.72
X36.645Y-62.015
X38.892Y-19.186
X39.008Y-62.387
X39.587Y-41.094
X42.861Y-43.631
X44.758Y-41.785
X44.765Y-35.579
X45.263Y-10.97
X47.064Y-49.846
X48.176Y-41.14
X49.142Y-32.29
X49.28Y-16.058
X49.28Y-22.206
X50.524Y-49.846
X52.626Y-35.726
X52.935Y-42.374
X55.633Y-8.936
X56.416Y-19.857
X56.617Y-22.37
X57.095Y-30.351
X59.695Y-8.12
X60.328Y-7.544
X62.722Y-63.474
X63.858Y-61.523
X64.662Y-21.385
X64.768Y-32.147
X65.391Y-31.542
X65.446Y-61.4
X68.302Y-19.05
X69.89Y-21.382
X72.855Y-34.918
T2
X36.868Y-45.445
T3
X60.0Y-47.2
X64.0Y-47.2
T4
X4.0Y-47.2
X5.0Y-53.3
X6.35Y-5.08
X6.35Y-7.62
X6.35Y-10.16
X6.35Y-12.7
X6.35Y-15.24
X6.35Y-17.78
X6.35Y-20.32
X6.35Y-22.86
X6.35Y-25.4
X6.35Y-27.94
X6.35Y-30.48
X6.35Y-33.02
X6.35Y-35.56
X6.35Y-38.1
X6.35Y-40.64
X6.35Y-43.18
X7.54Y-53.3
X9.0Y-47.2
X11.0Y-53.3
X12.0Y-47.2
X13.54Y-53.3
X17.0Y-47.2
X17.0Y-53.3
X19.54Y-53.3
X20.0Y-47.2
X21.59Y-5.08
X21.59Y-7.62
X21.59Y-10.16
X21.59Y-12.7
X21.59Y-15.24
X21.59Y-17.78
X21.59Y-20.32
X21.59Y-22.86
X21.59Y-25.4
X21.59Y-27.94
X21.59Y-30.48
X21.59Y-33.02
X21.59Y-35.56
X21.59Y-38.1
X21.59Y-40.64
X21.59Y-43.18
X23.0Y-53.3
X25.0Y-47.2
X25.54Y-53.3
X26.67Y-7.62
X26.67Y-10.16
X26.67Y-12.7
X26.67Y-15.24
X26.67Y-17.78
X26.67Y-20.32
X26.67Y-22.86
X26.67Y-25.4
X26.67Y-27.94
X26.67Y-30.48
X26.67Y-33.02
X26.67Y-35.56
X26.67Y-38.1
X26.67Y-40.64
X28.0Y-47.2
X33.0Y-47.2
X36.0Y-47.2
X41.0Y-47.2
X41.91Y-7.62
X41.91Y-10.16
X41.91Y-12.7
X41.91Y-15.24
X41.91Y-17.78
X41.91Y-20.32
X41.91Y-22.86
X41.91Y-25.4
X41.91Y-27.94
X41.91Y-30.48
X41.91Y-33.02
X41.91Y-35.56
X41.91Y-38.1
X41.91Y-40.64
X44.0Y-47.2
X46.0Y-47.2
X46.99Y-10.16
X46.99Y-12.7
X46.99Y-15.24
X46.99Y-17.78
X46.99Y-20.32
X46.99Y-22.86
X46.99Y-25.4
X46.99Y-27.94
X46.99Y-30.48
X46.99Y-33.02
X46.99Y-35.56
X46.99Y-38.1
X54.61Y-10.16
X54.61Y-12.7
X54.61Y-15.24
X54.61Y-17.78
X54.61Y-20.32
X54.61Y-22.86
X54.61Y-25.4
X54.61Y-27.94
X54.61Y-30.48
X54.61Y-33.02
X54.61Y-35.56
X54.61Y-38.1
X59.69Y-12.7
X59.69Y-15.24
X59.69Y-17.78
X59.69Y-20.32
X59.69Y-22.86
X59.69Y-25.4
X59.69Y-27.94
X59.69Y-30.48
X59.69Y-33.02
X59.69Y-35.56
X67.31Y-12.7
X67.31Y-15.24
X67.31Y-17.78
X67.31Y-20.32
X67.31Y-22.86
X67.31Y-25.4
X67.31Y-27.94
X67.31Y-30.48
X67.31Y-33.02
X67.31Y-35.56
T5
X52.0Y-47.2
X54.54Y-47.2
T6
X71.5Y-8.0
X71.5Y-10.54
X71.5Y-13.08
X71.5Y-17.0
X71.5Y-19.54
X71.5Y-22.08
X71.5Y-26.0
X71.5Y-28.54
X71.5Y-33.5
X71.5Y-36.04
T7
X5.08Y-59.805
X5.08Y-64.655
X7.62Y-59.805
X7.62Y-64.655
X10.16Y-59.805
X10.16Y-64.655
X12.7Y-59.805
X12.7Y-64.655
X15.24Y-59.805
X15.24Y-64.655
X17.78Y-59.805
X17.78Y-64.655
X20.32Y-59.805
X20.32Y-64.655
X22.86Y-59.805
X22.86Y-64.655
X25.4Y-59.805
X25.4Y-64.655
X27.94Y-59.805
X27.94Y-64.655
X30.48Y-59.805
X30.48Y-64.655
X33.02Y-59.805
X33.02Y-64.655
X35.56Y-59.805
X35.56Y-64.655
X38.1Y-59.805
X38.1Y-64.655
X40.64Y-59.805
X40.64Y-64.655
X43.18Y-59.805
X43.18Y-64.655
X45.72Y-59.805
X45.72Y-64.655
X48.26Y-59.805
X48.26Y-64.655
X50.8Y-59.805
X50.8Y-64.655
X53.34Y-59.805
X53.34Y-64.655
X55.88Y-59.805
X55.88Y-64.655
X58.42Y-59.805
X58.42Y-64.655
X60.96Y-59.805
X60.96Y-64.655
X63.5Y-59.805
X63.5Y-64.655
X66.04Y-59.805
X66.04Y-64.655
X68.58Y-59.805
X68.58Y-64.655
X71.12Y-59.805
X71.12Y-64.655
X73.66Y-59.805
X73.66Y-64.655
M30
