%TF.GenerationSoftware,KiCad,Pcbnew,10.0.4*%
%TF.CreationDate,2026-08-06T21:42:36-03:00*%
%TF.ProjectId,tkmem128-ii,746b6d65-6d31-4323-982d-69692e6b6963,rev?*%
%TF.SameCoordinates,Original*%
%TF.FileFunction,Drillmap*%
%TF.FilePolarity,Positive*%
%FSLAX45Y45*%
G04 Gerber Fmt 4.5, Leading zero omitted, Abs format (unit mm)*
G04 Created by KiCad (PCBNEW 10.0.4) date 2026-08-06 21:42:36*
%MOMM*%
%LPD*%
G01*
G04 APERTURE LIST*
%ADD10C,0.100000*%
%ADD11C,0.200000*%
%ADD12C,0.102000*%
%ADD13C,0.270000*%
G04 APERTURE END LIST*
D10*
X0Y0D02*
X0Y-6604000D01*
X0Y0D02*
X7874000Y0D01*
X0Y-6604000D02*
X7874000Y-6604000D01*
X7874000Y0D02*
X7874000Y-6604000D01*
D11*
D10*
X437050Y-1561830D02*
X477050Y-1601830D01*
X477050Y-1561830D02*
X437050Y-1601830D01*
X869140Y-5977450D02*
X909140Y-6017450D01*
X909140Y-5977450D02*
X869140Y-6017450D01*
X1072000Y-3130460D02*
X1112000Y-3170460D01*
X1112000Y-3130460D02*
X1072000Y-3170460D01*
X1199960Y-4933320D02*
X1239960Y-4973320D01*
X1239960Y-4933320D02*
X1199960Y-4973320D01*
X2392990Y-6480960D02*
X2432990Y-6520960D01*
X2432990Y-6480960D02*
X2392990Y-6520960D01*
X2599450Y-4584710D02*
X2639450Y-4624710D01*
X2639450Y-4584710D02*
X2599450Y-4624710D01*
X2618700Y-3359980D02*
X2658700Y-3399980D01*
X2658700Y-3359980D02*
X2618700Y-3399980D01*
X2722470Y-4209950D02*
X2762470Y-4249950D01*
X2762470Y-4209950D02*
X2722470Y-4249950D01*
X3221030Y-3887210D02*
X3261030Y-3927210D01*
X3261030Y-3887210D02*
X3221030Y-3927210D01*
X3358000Y-3487870D02*
X3398000Y-3527870D01*
X3398000Y-3487870D02*
X3358000Y-3527870D01*
X3939140Y-3401400D02*
X3979140Y-3441400D01*
X3979140Y-3401400D02*
X3939140Y-3441400D01*
X3944920Y-3657710D02*
X3984920Y-3697710D01*
X3984920Y-3657710D02*
X3944920Y-3697710D01*
X3959750Y-3130460D02*
X3999750Y-3170460D01*
X3999750Y-3130460D02*
X3959750Y-3170460D01*
X3993010Y-1707910D02*
X4033010Y-1747910D01*
X4033010Y-1707910D02*
X3993010Y-1747910D01*
X4024870Y-5230630D02*
X4064870Y-5270630D01*
X4064870Y-5230630D02*
X4024870Y-5270630D01*
X4064750Y-4073920D02*
X4104750Y-4113920D01*
X4104750Y-4073920D02*
X4064750Y-4113920D01*
X4106330Y-4821340D02*
X4146330Y-4861340D01*
X4146330Y-4821340D02*
X4106330Y-4861340D01*
X4117700Y-3378180D02*
X4157700Y-3418180D01*
X4157700Y-3378180D02*
X4117700Y-3418180D01*
X4210710Y-670000D02*
X4250710Y-710000D01*
X4250710Y-670000D02*
X4210710Y-710000D01*
X4210710Y-1854000D02*
X4250710Y-1894000D01*
X4250710Y-1854000D02*
X4210710Y-1894000D01*
X4358600Y-3723640D02*
X4398600Y-3763640D01*
X4398600Y-3723640D02*
X4358600Y-3763640D01*
X4417110Y-2649440D02*
X4457110Y-2689440D01*
X4457110Y-2649440D02*
X4417110Y-2689440D01*
X4420310Y-5736880D02*
X4460310Y-5776880D01*
X4460310Y-5736880D02*
X4420310Y-5776880D01*
X4556290Y-4494000D02*
X4596290Y-4534000D01*
X4596290Y-4494000D02*
X4556290Y-4534000D01*
X4631760Y-3413550D02*
X4671760Y-3453550D01*
X4671760Y-3413550D02*
X4631760Y-3453550D01*
X4659200Y-4811590D02*
X4699200Y-4851590D01*
X4699200Y-4811590D02*
X4659200Y-4851590D01*
X4852170Y-4427600D02*
X4892170Y-4467600D01*
X4892170Y-4427600D02*
X4852170Y-4467600D01*
X5187160Y-3837060D02*
X5227160Y-3877060D01*
X5227160Y-3837060D02*
X5187160Y-3877060D01*
X5191600Y-2978020D02*
X5231600Y-3018020D01*
X5231600Y-2978020D02*
X5191600Y-3018020D01*
X5441000Y-4655150D02*
X5481000Y-4695150D01*
X5481000Y-4655150D02*
X5441000Y-4695150D01*
X5699000Y-3342540D02*
X5739000Y-3382540D01*
X5739000Y-3342540D02*
X5699000Y-3382540D01*
X6093680Y-4646690D02*
X6133680Y-4686690D01*
X6133680Y-4646690D02*
X6093680Y-4686690D01*
X6699080Y-3774060D02*
X6739080Y-3814060D01*
X6739080Y-3774060D02*
X6699080Y-3814060D01*
X5235000Y-1950000D02*
G75*
G02*
X5165000Y-1950000I-35000J0D01*
G01*
X5165000Y-1950000D02*
G75*
G02*
X5235000Y-1950000I35000J0D01*
G01*
X5635000Y-1950000D02*
G75*
G02*
X5565000Y-1950000I-35000J0D01*
G01*
X5565000Y-1950000D02*
G75*
G02*
X5635000Y-1950000I35000J0D01*
G01*
X330000Y-480000D02*
X330000Y-560000D01*
X290000Y-520000D02*
X370000Y-520000D01*
X330000Y-2004000D02*
X330000Y-2084000D01*
X290000Y-2044000D02*
X370000Y-2044000D01*
X330000Y-2360000D02*
X330000Y-2440000D01*
X290000Y-2400000D02*
X370000Y-2400000D01*
X330000Y-2780000D02*
X330000Y-2860000D01*
X290000Y-2820000D02*
X370000Y-2820000D01*
X330000Y-4304000D02*
X330000Y-4384000D01*
X290000Y-4344000D02*
X370000Y-4344000D01*
X400000Y-5210000D02*
X400000Y-5290000D01*
X360000Y-5250000D02*
X440000Y-5250000D01*
X584000Y-480000D02*
X584000Y-560000D01*
X544000Y-520000D02*
X624000Y-520000D01*
X584000Y-2004000D02*
X584000Y-2084000D01*
X544000Y-2044000D02*
X624000Y-2044000D01*
X584000Y-2780000D02*
X584000Y-2860000D01*
X544000Y-2820000D02*
X624000Y-2820000D01*
X584000Y-4304000D02*
X584000Y-4384000D01*
X544000Y-4344000D02*
X624000Y-4344000D01*
X654000Y-5210000D02*
X654000Y-5290000D01*
X614000Y-5250000D02*
X694000Y-5250000D01*
X830000Y-2360000D02*
X830000Y-2440000D01*
X790000Y-2400000D02*
X870000Y-2400000D01*
X838000Y-480000D02*
X838000Y-560000D01*
X798000Y-520000D02*
X878000Y-520000D01*
X838000Y-2004000D02*
X838000Y-2084000D01*
X798000Y-2044000D02*
X878000Y-2044000D01*
X838000Y-2780000D02*
X838000Y-2860000D01*
X798000Y-2820000D02*
X878000Y-2820000D01*
X838000Y-4304000D02*
X838000Y-4384000D01*
X798000Y-4344000D02*
X878000Y-4344000D01*
X1092000Y-480000D02*
X1092000Y-560000D01*
X1052000Y-520000D02*
X1132000Y-520000D01*
X1092000Y-2004000D02*
X1092000Y-2084000D01*
X1052000Y-2044000D02*
X1132000Y-2044000D01*
X1092000Y-2780000D02*
X1092000Y-2860000D01*
X1052000Y-2820000D02*
X1132000Y-2820000D01*
X1092000Y-4304000D02*
X1092000Y-4384000D01*
X1052000Y-4344000D02*
X1132000Y-4344000D01*
X1200000Y-2360000D02*
X1200000Y-2440000D01*
X1160000Y-2400000D02*
X1240000Y-2400000D01*
X1346000Y-480000D02*
X1346000Y-560000D01*
X1306000Y-520000D02*
X1386000Y-520000D01*
X1346000Y-2004000D02*
X1346000Y-2084000D01*
X1306000Y-2044000D02*
X1386000Y-2044000D01*
X1346000Y-2780000D02*
X1346000Y-2860000D01*
X1306000Y-2820000D02*
X1386000Y-2820000D01*
X1346000Y-4304000D02*
X1346000Y-4384000D01*
X1306000Y-4344000D02*
X1386000Y-4344000D01*
X1600000Y-480000D02*
X1600000Y-560000D01*
X1560000Y-520000D02*
X1640000Y-520000D01*
X1600000Y-2004000D02*
X1600000Y-2084000D01*
X1560000Y-2044000D02*
X1640000Y-2044000D01*
X1600000Y-2780000D02*
X1600000Y-2860000D01*
X1560000Y-2820000D02*
X1640000Y-2820000D01*
X1600000Y-4304000D02*
X1600000Y-4384000D01*
X1560000Y-4344000D02*
X1640000Y-4344000D01*
X1700000Y-2360000D02*
X1700000Y-2440000D01*
X1660000Y-2400000D02*
X1740000Y-2400000D01*
X1854000Y-480000D02*
X1854000Y-560000D01*
X1814000Y-520000D02*
X1894000Y-520000D01*
X1854000Y-2004000D02*
X1854000Y-2084000D01*
X1814000Y-2044000D02*
X1894000Y-2044000D01*
X1854000Y-2780000D02*
X1854000Y-2860000D01*
X1814000Y-2820000D02*
X1894000Y-2820000D01*
X1854000Y-4304000D02*
X1854000Y-4384000D01*
X1814000Y-4344000D02*
X1894000Y-4344000D01*
X2108000Y-480000D02*
X2108000Y-560000D01*
X2068000Y-520000D02*
X2148000Y-520000D01*
X2108000Y-2004000D02*
X2108000Y-2084000D01*
X2068000Y-2044000D02*
X2148000Y-2044000D01*
X2108000Y-2780000D02*
X2108000Y-2860000D01*
X2068000Y-2820000D02*
X2148000Y-2820000D01*
X2108000Y-4304000D02*
X2108000Y-4384000D01*
X2068000Y-4344000D02*
X2148000Y-4344000D01*
X2362000Y-480000D02*
X2362000Y-560000D01*
X2322000Y-520000D02*
X2402000Y-520000D01*
X2362000Y-2004000D02*
X2362000Y-2084000D01*
X2322000Y-2044000D02*
X2402000Y-2044000D01*
X2362000Y-2780000D02*
X2362000Y-2860000D01*
X2322000Y-2820000D02*
X2402000Y-2820000D01*
X2362000Y-4304000D02*
X2362000Y-4384000D01*
X2322000Y-4344000D02*
X2402000Y-4344000D01*
X2616000Y-480000D02*
X2616000Y-560000D01*
X2576000Y-520000D02*
X2656000Y-520000D01*
X2616000Y-2004000D02*
X2616000Y-2084000D01*
X2576000Y-2044000D02*
X2656000Y-2044000D01*
X2616000Y-2780000D02*
X2616000Y-2860000D01*
X2576000Y-2820000D02*
X2656000Y-2820000D01*
X2616000Y-4304000D02*
X2616000Y-4384000D01*
X2576000Y-4344000D02*
X2656000Y-4344000D01*
X2870000Y-480000D02*
X2870000Y-560000D01*
X2830000Y-520000D02*
X2910000Y-520000D01*
X2870000Y-2004000D02*
X2870000Y-2084000D01*
X2830000Y-2044000D02*
X2910000Y-2044000D01*
X2870000Y-2780000D02*
X2870000Y-2860000D01*
X2830000Y-2820000D02*
X2910000Y-2820000D01*
X2870000Y-4304000D02*
X2870000Y-4384000D01*
X2830000Y-4344000D02*
X2910000Y-4344000D01*
X3124000Y-480000D02*
X3124000Y-560000D01*
X3084000Y-520000D02*
X3164000Y-520000D01*
X3124000Y-2004000D02*
X3124000Y-2084000D01*
X3084000Y-2044000D02*
X3164000Y-2044000D01*
X3124000Y-2780000D02*
X3124000Y-2860000D01*
X3084000Y-2820000D02*
X3164000Y-2820000D01*
X3124000Y-4304000D02*
X3124000Y-4384000D01*
X3084000Y-4344000D02*
X3164000Y-4344000D01*
X3378000Y-480000D02*
X3378000Y-560000D01*
X3338000Y-520000D02*
X3418000Y-520000D01*
X3378000Y-2004000D02*
X3378000Y-2084000D01*
X3338000Y-2044000D02*
X3418000Y-2044000D01*
X3378000Y-2780000D02*
X3378000Y-2860000D01*
X3338000Y-2820000D02*
X3418000Y-2820000D01*
X3378000Y-4304000D02*
X3378000Y-4384000D01*
X3338000Y-4344000D02*
X3418000Y-4344000D01*
X3632000Y-480000D02*
X3632000Y-560000D01*
X3592000Y-520000D02*
X3672000Y-520000D01*
X3632000Y-2004000D02*
X3632000Y-2084000D01*
X3592000Y-2044000D02*
X3672000Y-2044000D01*
X3632000Y-2780000D02*
X3632000Y-2860000D01*
X3592000Y-2820000D02*
X3672000Y-2820000D01*
X3632000Y-4304000D02*
X3632000Y-4384000D01*
X3592000Y-4344000D02*
X3672000Y-4344000D01*
X3886000Y-2780000D02*
X3886000Y-2860000D01*
X3846000Y-2820000D02*
X3926000Y-2820000D01*
X3886000Y-4304000D02*
X3886000Y-4384000D01*
X3846000Y-4344000D02*
X3926000Y-4344000D01*
X4140000Y-2780000D02*
X4140000Y-2860000D01*
X4100000Y-2820000D02*
X4180000Y-2820000D01*
X4140000Y-4304000D02*
X4140000Y-4384000D01*
X4100000Y-4344000D02*
X4180000Y-4344000D01*
X4650000Y-1410000D02*
X4650000Y-1490000D01*
X4610000Y-1450000D02*
X4690000Y-1450000D01*
X4730000Y-5260000D02*
X4730000Y-5340000D01*
X4690000Y-5300000D02*
X4770000Y-5300000D01*
X4830000Y-2310000D02*
X4830000Y-2390000D01*
X4790000Y-2350000D02*
X4870000Y-2350000D01*
X4830000Y-2780000D02*
X4830000Y-2860000D01*
X4790000Y-2820000D02*
X4870000Y-2820000D01*
X4830000Y-3542000D02*
X4830000Y-3622000D01*
X4790000Y-3582000D02*
X4870000Y-3582000D01*
X4904000Y-1410000D02*
X4904000Y-1490000D01*
X4864000Y-1450000D02*
X4944000Y-1450000D01*
X5080000Y-4130000D02*
X5080000Y-4210000D01*
X5040000Y-4170000D02*
X5120000Y-4170000D01*
X5080000Y-4892000D02*
X5080000Y-4972000D01*
X5040000Y-4932000D02*
X5120000Y-4932000D01*
X5084000Y-2780000D02*
X5084000Y-2860000D01*
X5044000Y-2820000D02*
X5124000Y-2820000D01*
X5084000Y-3542000D02*
X5084000Y-3622000D01*
X5044000Y-3582000D02*
X5124000Y-3582000D01*
X5230000Y-5260000D02*
X5230000Y-5340000D01*
X5190000Y-5300000D02*
X5270000Y-5300000D01*
X5330000Y-2310000D02*
X5330000Y-2390000D01*
X5290000Y-2350000D02*
X5370000Y-2350000D01*
X5334000Y-4130000D02*
X5334000Y-4210000D01*
X5294000Y-4170000D02*
X5374000Y-4170000D01*
X5334000Y-4892000D02*
X5334000Y-4972000D01*
X5294000Y-4932000D02*
X5374000Y-4932000D01*
X5338000Y-2780000D02*
X5338000Y-2860000D01*
X5298000Y-2820000D02*
X5378000Y-2820000D01*
X5338000Y-3542000D02*
X5338000Y-3622000D01*
X5298000Y-3582000D02*
X5378000Y-3582000D01*
X5588000Y-4130000D02*
X5588000Y-4210000D01*
X5548000Y-4170000D02*
X5628000Y-4170000D01*
X5588000Y-4892000D02*
X5588000Y-4972000D01*
X5548000Y-4932000D02*
X5628000Y-4932000D01*
X5592000Y-2780000D02*
X5592000Y-2860000D01*
X5552000Y-2820000D02*
X5632000Y-2820000D01*
X5592000Y-3542000D02*
X5592000Y-3622000D01*
X5552000Y-3582000D02*
X5632000Y-3582000D01*
X5750000Y-1410000D02*
X5750000Y-1490000D01*
X5710000Y-1450000D02*
X5790000Y-1450000D01*
X5800000Y-5260000D02*
X5800000Y-5340000D01*
X5760000Y-5300000D02*
X5840000Y-5300000D01*
X5842000Y-4130000D02*
X5842000Y-4210000D01*
X5802000Y-4170000D02*
X5882000Y-4170000D01*
X5842000Y-4892000D02*
X5842000Y-4972000D01*
X5802000Y-4932000D02*
X5882000Y-4932000D01*
X5846000Y-2780000D02*
X5846000Y-2860000D01*
X5806000Y-2820000D02*
X5886000Y-2820000D01*
X5846000Y-3542000D02*
X5846000Y-3622000D01*
X5806000Y-3582000D02*
X5886000Y-3582000D01*
X6004000Y-1410000D02*
X6004000Y-1490000D01*
X5964000Y-1450000D02*
X6044000Y-1450000D01*
X6096000Y-4130000D02*
X6096000Y-4210000D01*
X6056000Y-4170000D02*
X6136000Y-4170000D01*
X6096000Y-4892000D02*
X6096000Y-4972000D01*
X6056000Y-4932000D02*
X6136000Y-4932000D01*
X6100000Y-2780000D02*
X6100000Y-2860000D01*
X6060000Y-2820000D02*
X6140000Y-2820000D01*
X6100000Y-3542000D02*
X6100000Y-3622000D01*
X6060000Y-3582000D02*
X6140000Y-3582000D01*
X6300000Y-1410000D02*
X6300000Y-1490000D01*
X6260000Y-1450000D02*
X6340000Y-1450000D01*
X6300000Y-5260000D02*
X6300000Y-5340000D01*
X6260000Y-5300000D02*
X6340000Y-5300000D01*
X6350000Y-4130000D02*
X6350000Y-4210000D01*
X6310000Y-4170000D02*
X6390000Y-4170000D01*
X6350000Y-4892000D02*
X6350000Y-4972000D01*
X6310000Y-4932000D02*
X6390000Y-4932000D01*
X6354000Y-2780000D02*
X6354000Y-2860000D01*
X6314000Y-2820000D02*
X6394000Y-2820000D01*
X6354000Y-3542000D02*
X6354000Y-3622000D01*
X6314000Y-3582000D02*
X6394000Y-3582000D01*
X6554000Y-1410000D02*
X6554000Y-1490000D01*
X6514000Y-1450000D02*
X6594000Y-1450000D01*
X6604000Y-4130000D02*
X6604000Y-4210000D01*
X6564000Y-4170000D02*
X6644000Y-4170000D01*
X6604000Y-4892000D02*
X6604000Y-4972000D01*
X6564000Y-4932000D02*
X6644000Y-4932000D01*
X6608000Y-2780000D02*
X6608000Y-2860000D01*
X6568000Y-2820000D02*
X6648000Y-2820000D01*
X6608000Y-3542000D02*
X6608000Y-3622000D01*
X6568000Y-3582000D02*
X6648000Y-3582000D01*
X6800000Y-5460000D02*
X6800000Y-5540000D01*
X6760000Y-5500000D02*
X6840000Y-5500000D01*
X6858000Y-4130000D02*
X6858000Y-4210000D01*
X6818000Y-4170000D02*
X6898000Y-4170000D01*
X6858000Y-4892000D02*
X6858000Y-4972000D01*
X6818000Y-4932000D02*
X6898000Y-4932000D01*
X6862000Y-2780000D02*
X6862000Y-2860000D01*
X6822000Y-2820000D02*
X6902000Y-2820000D01*
X6862000Y-3542000D02*
X6862000Y-3622000D01*
X6822000Y-3582000D02*
X6902000Y-3582000D01*
X7000000Y-5460000D02*
X7000000Y-5540000D01*
X6960000Y-5500000D02*
X7040000Y-5500000D01*
X7112000Y-4130000D02*
X7112000Y-4210000D01*
X7072000Y-4170000D02*
X7152000Y-4170000D01*
X7112000Y-4892000D02*
X7112000Y-4972000D01*
X7072000Y-4932000D02*
X7152000Y-4932000D01*
X7116000Y-2780000D02*
X7116000Y-2860000D01*
X7076000Y-2820000D02*
X7156000Y-2820000D01*
X7116000Y-3542000D02*
X7116000Y-3622000D01*
X7076000Y-3582000D02*
X7156000Y-3582000D01*
X7366000Y-4130000D02*
X7366000Y-4210000D01*
X7326000Y-4170000D02*
X7406000Y-4170000D01*
X7366000Y-4892000D02*
X7366000Y-4972000D01*
X7326000Y-4932000D02*
X7406000Y-4932000D01*
X7370000Y-2780000D02*
X7370000Y-2860000D01*
X7330000Y-2820000D02*
X7410000Y-2820000D01*
X7370000Y-3542000D02*
X7370000Y-3622000D01*
X7330000Y-3582000D02*
X7410000Y-3582000D01*
X7624000Y-2780000D02*
X7624000Y-2860000D01*
X7584000Y-2820000D02*
X7664000Y-2820000D01*
X7624000Y-3542000D02*
X7624000Y-3622000D01*
X7584000Y-3582000D02*
X7664000Y-3582000D01*
X4681820Y-1981820D02*
X4681820Y-1918180D01*
X4618180Y-1918180D01*
X4618180Y-1981820D01*
X4681820Y-1981820D01*
X4935820Y-1981820D02*
X4935820Y-1918180D01*
X4872180Y-1918180D01*
X4872180Y-1981820D01*
X4935820Y-1981820D01*
X4650000Y-450000D02*
X4700000Y-400000D01*
X4650000Y-350000D01*
X4600000Y-400000D01*
X4650000Y-450000D01*
X4650000Y-704000D02*
X4700000Y-654000D01*
X4650000Y-604000D01*
X4600000Y-654000D01*
X4650000Y-704000D01*
X4650000Y-958000D02*
X4700000Y-908000D01*
X4650000Y-858000D01*
X4600000Y-908000D01*
X4650000Y-958000D01*
X5500000Y-450000D02*
X5550000Y-400000D01*
X5500000Y-350000D01*
X5450000Y-400000D01*
X5500000Y-450000D01*
X5500000Y-704000D02*
X5550000Y-654000D01*
X5500000Y-604000D01*
X5450000Y-654000D01*
X5500000Y-704000D01*
X5500000Y-958000D02*
X5550000Y-908000D01*
X5500000Y-858000D01*
X5450000Y-908000D01*
X5500000Y-958000D01*
X6350000Y-450000D02*
X6400000Y-400000D01*
X6350000Y-350000D01*
X6300000Y-400000D01*
X6350000Y-450000D01*
X6350000Y-704000D02*
X6400000Y-654000D01*
X6350000Y-604000D01*
X6300000Y-654000D01*
X6350000Y-704000D01*
D12*
X457000Y-5779500D02*
X559000Y-5881500D01*
X559000Y-5779500D02*
X457000Y-5881500D01*
X559000Y-5830500D02*
G75*
G02*
X457000Y-5830500I-51000J0D01*
G01*
X457000Y-5830500D02*
G75*
G02*
X559000Y-5830500I51000J0D01*
G01*
X457000Y-6264500D02*
X559000Y-6366500D01*
X559000Y-6264500D02*
X457000Y-6366500D01*
X559000Y-6315500D02*
G75*
G02*
X457000Y-6315500I-51000J0D01*
G01*
X457000Y-6315500D02*
G75*
G02*
X559000Y-6315500I51000J0D01*
G01*
X711000Y-5779500D02*
X813000Y-5881500D01*
X813000Y-5779500D02*
X711000Y-5881500D01*
X813000Y-5830500D02*
G75*
G02*
X711000Y-5830500I-51000J0D01*
G01*
X711000Y-5830500D02*
G75*
G02*
X813000Y-5830500I51000J0D01*
G01*
X711000Y-6264500D02*
X813000Y-6366500D01*
X813000Y-6264500D02*
X711000Y-6366500D01*
X813000Y-6315500D02*
G75*
G02*
X711000Y-6315500I-51000J0D01*
G01*
X711000Y-6315500D02*
G75*
G02*
X813000Y-6315500I51000J0D01*
G01*
X965000Y-5779500D02*
X1067000Y-5881500D01*
X1067000Y-5779500D02*
X965000Y-5881500D01*
X1067000Y-5830500D02*
G75*
G02*
X965000Y-5830500I-51000J0D01*
G01*
X965000Y-5830500D02*
G75*
G02*
X1067000Y-5830500I51000J0D01*
G01*
X965000Y-6264500D02*
X1067000Y-6366500D01*
X1067000Y-6264500D02*
X965000Y-6366500D01*
X1067000Y-6315500D02*
G75*
G02*
X965000Y-6315500I-51000J0D01*
G01*
X965000Y-6315500D02*
G75*
G02*
X1067000Y-6315500I51000J0D01*
G01*
X1219000Y-5779500D02*
X1321000Y-5881500D01*
X1321000Y-5779500D02*
X1219000Y-5881500D01*
X1321000Y-5830500D02*
G75*
G02*
X1219000Y-5830500I-51000J0D01*
G01*
X1219000Y-5830500D02*
G75*
G02*
X1321000Y-5830500I51000J0D01*
G01*
X1219000Y-6264500D02*
X1321000Y-6366500D01*
X1321000Y-6264500D02*
X1219000Y-6366500D01*
X1321000Y-6315500D02*
G75*
G02*
X1219000Y-6315500I-51000J0D01*
G01*
X1219000Y-6315500D02*
G75*
G02*
X1321000Y-6315500I51000J0D01*
G01*
X1473000Y-5779500D02*
X1575000Y-5881500D01*
X1575000Y-5779500D02*
X1473000Y-5881500D01*
X1575000Y-5830500D02*
G75*
G02*
X1473000Y-5830500I-51000J0D01*
G01*
X1473000Y-5830500D02*
G75*
G02*
X1575000Y-5830500I51000J0D01*
G01*
X1473000Y-6264500D02*
X1575000Y-6366500D01*
X1575000Y-6264500D02*
X1473000Y-6366500D01*
X1575000Y-6315500D02*
G75*
G02*
X1473000Y-6315500I-51000J0D01*
G01*
X1473000Y-6315500D02*
G75*
G02*
X1575000Y-6315500I51000J0D01*
G01*
X1727000Y-5779500D02*
X1829000Y-5881500D01*
X1829000Y-5779500D02*
X1727000Y-5881500D01*
X1829000Y-5830500D02*
G75*
G02*
X1727000Y-5830500I-51000J0D01*
G01*
X1727000Y-5830500D02*
G75*
G02*
X1829000Y-5830500I51000J0D01*
G01*
X1727000Y-6264500D02*
X1829000Y-6366500D01*
X1829000Y-6264500D02*
X1727000Y-6366500D01*
X1829000Y-6315500D02*
G75*
G02*
X1727000Y-6315500I-51000J0D01*
G01*
X1727000Y-6315500D02*
G75*
G02*
X1829000Y-6315500I51000J0D01*
G01*
X1981000Y-5779500D02*
X2083000Y-5881500D01*
X2083000Y-5779500D02*
X1981000Y-5881500D01*
X2083000Y-5830500D02*
G75*
G02*
X1981000Y-5830500I-51000J0D01*
G01*
X1981000Y-5830500D02*
G75*
G02*
X2083000Y-5830500I51000J0D01*
G01*
X1981000Y-6264500D02*
X2083000Y-6366500D01*
X2083000Y-6264500D02*
X1981000Y-6366500D01*
X2083000Y-6315500D02*
G75*
G02*
X1981000Y-6315500I-51000J0D01*
G01*
X1981000Y-6315500D02*
G75*
G02*
X2083000Y-6315500I51000J0D01*
G01*
X2235000Y-5779500D02*
X2337000Y-5881500D01*
X2337000Y-5779500D02*
X2235000Y-5881500D01*
X2337000Y-5830500D02*
G75*
G02*
X2235000Y-5830500I-51000J0D01*
G01*
X2235000Y-5830500D02*
G75*
G02*
X2337000Y-5830500I51000J0D01*
G01*
X2235000Y-6264500D02*
X2337000Y-6366500D01*
X2337000Y-6264500D02*
X2235000Y-6366500D01*
X2337000Y-6315500D02*
G75*
G02*
X2235000Y-6315500I-51000J0D01*
G01*
X2235000Y-6315500D02*
G75*
G02*
X2337000Y-6315500I51000J0D01*
G01*
X2489000Y-5779500D02*
X2591000Y-5881500D01*
X2591000Y-5779500D02*
X2489000Y-5881500D01*
X2591000Y-5830500D02*
G75*
G02*
X2489000Y-5830500I-51000J0D01*
G01*
X2489000Y-5830500D02*
G75*
G02*
X2591000Y-5830500I51000J0D01*
G01*
X2489000Y-6264500D02*
X2591000Y-6366500D01*
X2591000Y-6264500D02*
X2489000Y-6366500D01*
X2591000Y-6315500D02*
G75*
G02*
X2489000Y-6315500I-51000J0D01*
G01*
X2489000Y-6315500D02*
G75*
G02*
X2591000Y-6315500I51000J0D01*
G01*
X2743000Y-5779500D02*
X2845000Y-5881500D01*
X2845000Y-5779500D02*
X2743000Y-5881500D01*
X2845000Y-5830500D02*
G75*
G02*
X2743000Y-5830500I-51000J0D01*
G01*
X2743000Y-5830500D02*
G75*
G02*
X2845000Y-5830500I51000J0D01*
G01*
X2743000Y-6264500D02*
X2845000Y-6366500D01*
X2845000Y-6264500D02*
X2743000Y-6366500D01*
X2845000Y-6315500D02*
G75*
G02*
X2743000Y-6315500I-51000J0D01*
G01*
X2743000Y-6315500D02*
G75*
G02*
X2845000Y-6315500I51000J0D01*
G01*
X2997000Y-5779500D02*
X3099000Y-5881500D01*
X3099000Y-5779500D02*
X2997000Y-5881500D01*
X3099000Y-5830500D02*
G75*
G02*
X2997000Y-5830500I-51000J0D01*
G01*
X2997000Y-5830500D02*
G75*
G02*
X3099000Y-5830500I51000J0D01*
G01*
X2997000Y-6264500D02*
X3099000Y-6366500D01*
X3099000Y-6264500D02*
X2997000Y-6366500D01*
X3099000Y-6315500D02*
G75*
G02*
X2997000Y-6315500I-51000J0D01*
G01*
X2997000Y-6315500D02*
G75*
G02*
X3099000Y-6315500I51000J0D01*
G01*
X3251000Y-5779500D02*
X3353000Y-5881500D01*
X3353000Y-5779500D02*
X3251000Y-5881500D01*
X3353000Y-5830500D02*
G75*
G02*
X3251000Y-5830500I-51000J0D01*
G01*
X3251000Y-5830500D02*
G75*
G02*
X3353000Y-5830500I51000J0D01*
G01*
X3251000Y-6264500D02*
X3353000Y-6366500D01*
X3353000Y-6264500D02*
X3251000Y-6366500D01*
X3353000Y-6315500D02*
G75*
G02*
X3251000Y-6315500I-51000J0D01*
G01*
X3251000Y-6315500D02*
G75*
G02*
X3353000Y-6315500I51000J0D01*
G01*
X3505000Y-5779500D02*
X3607000Y-5881500D01*
X3607000Y-5779500D02*
X3505000Y-5881500D01*
X3607000Y-5830500D02*
G75*
G02*
X3505000Y-5830500I-51000J0D01*
G01*
X3505000Y-5830500D02*
G75*
G02*
X3607000Y-5830500I51000J0D01*
G01*
X3505000Y-6264500D02*
X3607000Y-6366500D01*
X3607000Y-6264500D02*
X3505000Y-6366500D01*
X3607000Y-6315500D02*
G75*
G02*
X3505000Y-6315500I-51000J0D01*
G01*
X3505000Y-6315500D02*
G75*
G02*
X3607000Y-6315500I51000J0D01*
G01*
X3759000Y-5779500D02*
X3861000Y-5881500D01*
X3861000Y-5779500D02*
X3759000Y-5881500D01*
X3861000Y-5830500D02*
G75*
G02*
X3759000Y-5830500I-51000J0D01*
G01*
X3759000Y-5830500D02*
G75*
G02*
X3861000Y-5830500I51000J0D01*
G01*
X3759000Y-6264500D02*
X3861000Y-6366500D01*
X3861000Y-6264500D02*
X3759000Y-6366500D01*
X3861000Y-6315500D02*
G75*
G02*
X3759000Y-6315500I-51000J0D01*
G01*
X3759000Y-6315500D02*
G75*
G02*
X3861000Y-6315500I51000J0D01*
G01*
X4013000Y-5779500D02*
X4115000Y-5881500D01*
X4115000Y-5779500D02*
X4013000Y-5881500D01*
X4115000Y-5830500D02*
G75*
G02*
X4013000Y-5830500I-51000J0D01*
G01*
X4013000Y-5830500D02*
G75*
G02*
X4115000Y-5830500I51000J0D01*
G01*
X4013000Y-6264500D02*
X4115000Y-6366500D01*
X4115000Y-6264500D02*
X4013000Y-6366500D01*
X4115000Y-6315500D02*
G75*
G02*
X4013000Y-6315500I-51000J0D01*
G01*
X4013000Y-6315500D02*
G75*
G02*
X4115000Y-6315500I51000J0D01*
G01*
X4267000Y-5779500D02*
X4369000Y-5881500D01*
X4369000Y-5779500D02*
X4267000Y-5881500D01*
X4369000Y-5830500D02*
G75*
G02*
X4267000Y-5830500I-51000J0D01*
G01*
X4267000Y-5830500D02*
G75*
G02*
X4369000Y-5830500I51000J0D01*
G01*
X4267000Y-6264500D02*
X4369000Y-6366500D01*
X4369000Y-6264500D02*
X4267000Y-6366500D01*
X4369000Y-6315500D02*
G75*
G02*
X4267000Y-6315500I-51000J0D01*
G01*
X4267000Y-6315500D02*
G75*
G02*
X4369000Y-6315500I51000J0D01*
G01*
X4521000Y-5779500D02*
X4623000Y-5881500D01*
X4623000Y-5779500D02*
X4521000Y-5881500D01*
X4623000Y-5830500D02*
G75*
G02*
X4521000Y-5830500I-51000J0D01*
G01*
X4521000Y-5830500D02*
G75*
G02*
X4623000Y-5830500I51000J0D01*
G01*
X4521000Y-6264500D02*
X4623000Y-6366500D01*
X4623000Y-6264500D02*
X4521000Y-6366500D01*
X4623000Y-6315500D02*
G75*
G02*
X4521000Y-6315500I-51000J0D01*
G01*
X4521000Y-6315500D02*
G75*
G02*
X4623000Y-6315500I51000J0D01*
G01*
X4775000Y-5779500D02*
X4877000Y-5881500D01*
X4877000Y-5779500D02*
X4775000Y-5881500D01*
X4877000Y-5830500D02*
G75*
G02*
X4775000Y-5830500I-51000J0D01*
G01*
X4775000Y-5830500D02*
G75*
G02*
X4877000Y-5830500I51000J0D01*
G01*
X4775000Y-6264500D02*
X4877000Y-6366500D01*
X4877000Y-6264500D02*
X4775000Y-6366500D01*
X4877000Y-6315500D02*
G75*
G02*
X4775000Y-6315500I-51000J0D01*
G01*
X4775000Y-6315500D02*
G75*
G02*
X4877000Y-6315500I51000J0D01*
G01*
X5029000Y-5779500D02*
X5131000Y-5881500D01*
X5131000Y-5779500D02*
X5029000Y-5881500D01*
X5131000Y-5830500D02*
G75*
G02*
X5029000Y-5830500I-51000J0D01*
G01*
X5029000Y-5830500D02*
G75*
G02*
X5131000Y-5830500I51000J0D01*
G01*
X5029000Y-6264500D02*
X5131000Y-6366500D01*
X5131000Y-6264500D02*
X5029000Y-6366500D01*
X5131000Y-6315500D02*
G75*
G02*
X5029000Y-6315500I-51000J0D01*
G01*
X5029000Y-6315500D02*
G75*
G02*
X5131000Y-6315500I51000J0D01*
G01*
X5283000Y-5779500D02*
X5385000Y-5881500D01*
X5385000Y-5779500D02*
X5283000Y-5881500D01*
X5385000Y-5830500D02*
G75*
G02*
X5283000Y-5830500I-51000J0D01*
G01*
X5283000Y-5830500D02*
G75*
G02*
X5385000Y-5830500I51000J0D01*
G01*
X5283000Y-6264500D02*
X5385000Y-6366500D01*
X5385000Y-6264500D02*
X5283000Y-6366500D01*
X5385000Y-6315500D02*
G75*
G02*
X5283000Y-6315500I-51000J0D01*
G01*
X5283000Y-6315500D02*
G75*
G02*
X5385000Y-6315500I51000J0D01*
G01*
X5537000Y-5779500D02*
X5639000Y-5881500D01*
X5639000Y-5779500D02*
X5537000Y-5881500D01*
X5639000Y-5830500D02*
G75*
G02*
X5537000Y-5830500I-51000J0D01*
G01*
X5537000Y-5830500D02*
G75*
G02*
X5639000Y-5830500I51000J0D01*
G01*
X5537000Y-6264500D02*
X5639000Y-6366500D01*
X5639000Y-6264500D02*
X5537000Y-6366500D01*
X5639000Y-6315500D02*
G75*
G02*
X5537000Y-6315500I-51000J0D01*
G01*
X5537000Y-6315500D02*
G75*
G02*
X5639000Y-6315500I51000J0D01*
G01*
X5791000Y-5779500D02*
X5893000Y-5881500D01*
X5893000Y-5779500D02*
X5791000Y-5881500D01*
X5893000Y-5830500D02*
G75*
G02*
X5791000Y-5830500I-51000J0D01*
G01*
X5791000Y-5830500D02*
G75*
G02*
X5893000Y-5830500I51000J0D01*
G01*
X5791000Y-6264500D02*
X5893000Y-6366500D01*
X5893000Y-6264500D02*
X5791000Y-6366500D01*
X5893000Y-6315500D02*
G75*
G02*
X5791000Y-6315500I-51000J0D01*
G01*
X5791000Y-6315500D02*
G75*
G02*
X5893000Y-6315500I51000J0D01*
G01*
X6045000Y-5779500D02*
X6147000Y-5881500D01*
X6147000Y-5779500D02*
X6045000Y-5881500D01*
X6147000Y-5830500D02*
G75*
G02*
X6045000Y-5830500I-51000J0D01*
G01*
X6045000Y-5830500D02*
G75*
G02*
X6147000Y-5830500I51000J0D01*
G01*
X6045000Y-6264500D02*
X6147000Y-6366500D01*
X6147000Y-6264500D02*
X6045000Y-6366500D01*
X6147000Y-6315500D02*
G75*
G02*
X6045000Y-6315500I-51000J0D01*
G01*
X6045000Y-6315500D02*
G75*
G02*
X6147000Y-6315500I51000J0D01*
G01*
X6553000Y-5779500D02*
X6655000Y-5881500D01*
X6655000Y-5779500D02*
X6553000Y-5881500D01*
X6655000Y-5830500D02*
G75*
G02*
X6553000Y-5830500I-51000J0D01*
G01*
X6553000Y-5830500D02*
G75*
G02*
X6655000Y-5830500I51000J0D01*
G01*
X6553000Y-6264500D02*
X6655000Y-6366500D01*
X6655000Y-6264500D02*
X6553000Y-6366500D01*
X6655000Y-6315500D02*
G75*
G02*
X6553000Y-6315500I-51000J0D01*
G01*
X6553000Y-6315500D02*
G75*
G02*
X6655000Y-6315500I51000J0D01*
G01*
X6807000Y-5779500D02*
X6909000Y-5881500D01*
X6909000Y-5779500D02*
X6807000Y-5881500D01*
X6909000Y-5830500D02*
G75*
G02*
X6807000Y-5830500I-51000J0D01*
G01*
X6807000Y-5830500D02*
G75*
G02*
X6909000Y-5830500I51000J0D01*
G01*
X6807000Y-6264500D02*
X6909000Y-6366500D01*
X6909000Y-6264500D02*
X6807000Y-6366500D01*
X6909000Y-6315500D02*
G75*
G02*
X6807000Y-6315500I-51000J0D01*
G01*
X6807000Y-6315500D02*
G75*
G02*
X6909000Y-6315500I51000J0D01*
G01*
X7061000Y-5779500D02*
X7163000Y-5881500D01*
X7163000Y-5779500D02*
X7061000Y-5881500D01*
X7163000Y-5830500D02*
G75*
G02*
X7061000Y-5830500I-51000J0D01*
G01*
X7061000Y-5830500D02*
G75*
G02*
X7163000Y-5830500I51000J0D01*
G01*
X7061000Y-6264500D02*
X7163000Y-6366500D01*
X7163000Y-6264500D02*
X7061000Y-6366500D01*
X7163000Y-6315500D02*
G75*
G02*
X7061000Y-6315500I-51000J0D01*
G01*
X7061000Y-6315500D02*
G75*
G02*
X7163000Y-6315500I51000J0D01*
G01*
X7315000Y-5779500D02*
X7417000Y-5881500D01*
X7417000Y-5779500D02*
X7315000Y-5881500D01*
X7417000Y-5830500D02*
G75*
G02*
X7315000Y-5830500I-51000J0D01*
G01*
X7315000Y-5830500D02*
G75*
G02*
X7417000Y-5830500I51000J0D01*
G01*
X7315000Y-6264500D02*
X7417000Y-6366500D01*
X7417000Y-6264500D02*
X7315000Y-6366500D01*
X7417000Y-6315500D02*
G75*
G02*
X7315000Y-6315500I-51000J0D01*
G01*
X7315000Y-6315500D02*
G75*
G02*
X7417000Y-6315500I51000J0D01*
G01*
D13*
X3802000Y-267000D02*
X4072000Y-537000D01*
X4072000Y-267000D02*
X3802000Y-537000D01*
X3937000Y-267000D02*
X3937000Y-537000D01*
X3802000Y-402000D02*
X4072000Y-402000D01*
D11*
X255777Y-6920484D02*
X255777Y-6720484D01*
X255777Y-6720484D02*
X303396Y-6720484D01*
X303396Y-6720484D02*
X331967Y-6730008D01*
X331967Y-6730008D02*
X351015Y-6749055D01*
X351015Y-6749055D02*
X360539Y-6768103D01*
X360539Y-6768103D02*
X370062Y-6806198D01*
X370062Y-6806198D02*
X370062Y-6834769D01*
X370062Y-6834769D02*
X360539Y-6872865D01*
X360539Y-6872865D02*
X351015Y-6891912D01*
X351015Y-6891912D02*
X331967Y-6910960D01*
X331967Y-6910960D02*
X303396Y-6920484D01*
X303396Y-6920484D02*
X255777Y-6920484D01*
X455777Y-6920484D02*
X455777Y-6787150D01*
X455777Y-6825246D02*
X465301Y-6806198D01*
X465301Y-6806198D02*
X474824Y-6796674D01*
X474824Y-6796674D02*
X493872Y-6787150D01*
X493872Y-6787150D02*
X512920Y-6787150D01*
X579586Y-6920484D02*
X579586Y-6787150D01*
X579586Y-6720484D02*
X570063Y-6730008D01*
X570063Y-6730008D02*
X579586Y-6739531D01*
X579586Y-6739531D02*
X589110Y-6730008D01*
X589110Y-6730008D02*
X579586Y-6720484D01*
X579586Y-6720484D02*
X579586Y-6739531D01*
X703396Y-6920484D02*
X684348Y-6910960D01*
X684348Y-6910960D02*
X674824Y-6891912D01*
X674824Y-6891912D02*
X674824Y-6720484D01*
X808158Y-6920484D02*
X789110Y-6910960D01*
X789110Y-6910960D02*
X779586Y-6891912D01*
X779586Y-6891912D02*
X779586Y-6720484D01*
X1036729Y-6920484D02*
X1036729Y-6720484D01*
X1036729Y-6720484D02*
X1103396Y-6863341D01*
X1103396Y-6863341D02*
X1170063Y-6720484D01*
X1170063Y-6720484D02*
X1170063Y-6920484D01*
X1351015Y-6920484D02*
X1351015Y-6815722D01*
X1351015Y-6815722D02*
X1341491Y-6796674D01*
X1341491Y-6796674D02*
X1322444Y-6787150D01*
X1322444Y-6787150D02*
X1284348Y-6787150D01*
X1284348Y-6787150D02*
X1265301Y-6796674D01*
X1351015Y-6910960D02*
X1331967Y-6920484D01*
X1331967Y-6920484D02*
X1284348Y-6920484D01*
X1284348Y-6920484D02*
X1265301Y-6910960D01*
X1265301Y-6910960D02*
X1255777Y-6891912D01*
X1255777Y-6891912D02*
X1255777Y-6872865D01*
X1255777Y-6872865D02*
X1265301Y-6853817D01*
X1265301Y-6853817D02*
X1284348Y-6844293D01*
X1284348Y-6844293D02*
X1331967Y-6844293D01*
X1331967Y-6844293D02*
X1351015Y-6834769D01*
X1446253Y-6787150D02*
X1446253Y-6987150D01*
X1446253Y-6796674D02*
X1465301Y-6787150D01*
X1465301Y-6787150D02*
X1503396Y-6787150D01*
X1503396Y-6787150D02*
X1522443Y-6796674D01*
X1522443Y-6796674D02*
X1531967Y-6806198D01*
X1531967Y-6806198D02*
X1541491Y-6825246D01*
X1541491Y-6825246D02*
X1541491Y-6882388D01*
X1541491Y-6882388D02*
X1531967Y-6901436D01*
X1531967Y-6901436D02*
X1522443Y-6910960D01*
X1522443Y-6910960D02*
X1503396Y-6920484D01*
X1503396Y-6920484D02*
X1465301Y-6920484D01*
X1465301Y-6920484D02*
X1446253Y-6910960D01*
X1627205Y-6901436D02*
X1636729Y-6910960D01*
X1636729Y-6910960D02*
X1627205Y-6920484D01*
X1627205Y-6920484D02*
X1617682Y-6910960D01*
X1617682Y-6910960D02*
X1627205Y-6901436D01*
X1627205Y-6901436D02*
X1627205Y-6920484D01*
X1627205Y-6796674D02*
X1636729Y-6806198D01*
X1636729Y-6806198D02*
X1627205Y-6815722D01*
X1627205Y-6815722D02*
X1617682Y-6806198D01*
X1617682Y-6806198D02*
X1627205Y-6796674D01*
X1627205Y-6796674D02*
X1627205Y-6815722D01*
D10*
X-45000Y-7229000D02*
X-5000Y-7269000D01*
X-5000Y-7229000D02*
X-45000Y-7269000D01*
D11*
X293872Y-7140484D02*
X312920Y-7140484D01*
X312920Y-7140484D02*
X331967Y-7150008D01*
X331967Y-7150008D02*
X341491Y-7159531D01*
X341491Y-7159531D02*
X351015Y-7178579D01*
X351015Y-7178579D02*
X360539Y-7216674D01*
X360539Y-7216674D02*
X360539Y-7264293D01*
X360539Y-7264293D02*
X351015Y-7302388D01*
X351015Y-7302388D02*
X341491Y-7321436D01*
X341491Y-7321436D02*
X331967Y-7330960D01*
X331967Y-7330960D02*
X312920Y-7340484D01*
X312920Y-7340484D02*
X293872Y-7340484D01*
X293872Y-7340484D02*
X274824Y-7330960D01*
X274824Y-7330960D02*
X265301Y-7321436D01*
X265301Y-7321436D02*
X255777Y-7302388D01*
X255777Y-7302388D02*
X246253Y-7264293D01*
X246253Y-7264293D02*
X246253Y-7216674D01*
X246253Y-7216674D02*
X255777Y-7178579D01*
X255777Y-7178579D02*
X265301Y-7159531D01*
X265301Y-7159531D02*
X274824Y-7150008D01*
X274824Y-7150008D02*
X293872Y-7140484D01*
X455777Y-7330960D02*
X455777Y-7340484D01*
X455777Y-7340484D02*
X446253Y-7359531D01*
X446253Y-7359531D02*
X436729Y-7369055D01*
X627205Y-7207150D02*
X627205Y-7340484D01*
X579586Y-7130960D02*
X531967Y-7273817D01*
X531967Y-7273817D02*
X655777Y-7273817D01*
X770062Y-7140484D02*
X789110Y-7140484D01*
X789110Y-7140484D02*
X808158Y-7150008D01*
X808158Y-7150008D02*
X817682Y-7159531D01*
X817682Y-7159531D02*
X827205Y-7178579D01*
X827205Y-7178579D02*
X836729Y-7216674D01*
X836729Y-7216674D02*
X836729Y-7264293D01*
X836729Y-7264293D02*
X827205Y-7302388D01*
X827205Y-7302388D02*
X817682Y-7321436D01*
X817682Y-7321436D02*
X808158Y-7330960D01*
X808158Y-7330960D02*
X789110Y-7340484D01*
X789110Y-7340484D02*
X770062Y-7340484D01*
X770062Y-7340484D02*
X751015Y-7330960D01*
X751015Y-7330960D02*
X741491Y-7321436D01*
X741491Y-7321436D02*
X731967Y-7302388D01*
X731967Y-7302388D02*
X722443Y-7264293D01*
X722443Y-7264293D02*
X722443Y-7216674D01*
X722443Y-7216674D02*
X731967Y-7178579D01*
X731967Y-7178579D02*
X741491Y-7159531D01*
X741491Y-7159531D02*
X751015Y-7150008D01*
X751015Y-7150008D02*
X770062Y-7140484D01*
X960539Y-7140484D02*
X979586Y-7140484D01*
X979586Y-7140484D02*
X998634Y-7150008D01*
X998634Y-7150008D02*
X1008158Y-7159531D01*
X1008158Y-7159531D02*
X1017682Y-7178579D01*
X1017682Y-7178579D02*
X1027205Y-7216674D01*
X1027205Y-7216674D02*
X1027205Y-7264293D01*
X1027205Y-7264293D02*
X1017682Y-7302388D01*
X1017682Y-7302388D02*
X1008158Y-7321436D01*
X1008158Y-7321436D02*
X998634Y-7330960D01*
X998634Y-7330960D02*
X979586Y-7340484D01*
X979586Y-7340484D02*
X960539Y-7340484D01*
X960539Y-7340484D02*
X941491Y-7330960D01*
X941491Y-7330960D02*
X931967Y-7321436D01*
X931967Y-7321436D02*
X922443Y-7302388D01*
X922443Y-7302388D02*
X912920Y-7264293D01*
X912920Y-7264293D02*
X912920Y-7216674D01*
X912920Y-7216674D02*
X922443Y-7178579D01*
X922443Y-7178579D02*
X931967Y-7159531D01*
X931967Y-7159531D02*
X941491Y-7150008D01*
X941491Y-7150008D02*
X960539Y-7140484D01*
X1112920Y-7340484D02*
X1112920Y-7207150D01*
X1112920Y-7226198D02*
X1122444Y-7216674D01*
X1122444Y-7216674D02*
X1141491Y-7207150D01*
X1141491Y-7207150D02*
X1170063Y-7207150D01*
X1170063Y-7207150D02*
X1189110Y-7216674D01*
X1189110Y-7216674D02*
X1198634Y-7235722D01*
X1198634Y-7235722D02*
X1198634Y-7340484D01*
X1198634Y-7235722D02*
X1208158Y-7216674D01*
X1208158Y-7216674D02*
X1227205Y-7207150D01*
X1227205Y-7207150D02*
X1255777Y-7207150D01*
X1255777Y-7207150D02*
X1274825Y-7216674D01*
X1274825Y-7216674D02*
X1284348Y-7235722D01*
X1284348Y-7235722D02*
X1284348Y-7340484D01*
X1379586Y-7340484D02*
X1379586Y-7207150D01*
X1379586Y-7226198D02*
X1389110Y-7216674D01*
X1389110Y-7216674D02*
X1408158Y-7207150D01*
X1408158Y-7207150D02*
X1436729Y-7207150D01*
X1436729Y-7207150D02*
X1455777Y-7216674D01*
X1455777Y-7216674D02*
X1465301Y-7235722D01*
X1465301Y-7235722D02*
X1465301Y-7340484D01*
X1465301Y-7235722D02*
X1474824Y-7216674D01*
X1474824Y-7216674D02*
X1493872Y-7207150D01*
X1493872Y-7207150D02*
X1522443Y-7207150D01*
X1522443Y-7207150D02*
X1541491Y-7216674D01*
X1541491Y-7216674D02*
X1551015Y-7235722D01*
X1551015Y-7235722D02*
X1551015Y-7340484D01*
X1941491Y-7130960D02*
X1770063Y-7388103D01*
X2198634Y-7140484D02*
X2217682Y-7140484D01*
X2217682Y-7140484D02*
X2236729Y-7150008D01*
X2236729Y-7150008D02*
X2246253Y-7159531D01*
X2246253Y-7159531D02*
X2255777Y-7178579D01*
X2255777Y-7178579D02*
X2265301Y-7216674D01*
X2265301Y-7216674D02*
X2265301Y-7264293D01*
X2265301Y-7264293D02*
X2255777Y-7302388D01*
X2255777Y-7302388D02*
X2246253Y-7321436D01*
X2246253Y-7321436D02*
X2236729Y-7330960D01*
X2236729Y-7330960D02*
X2217682Y-7340484D01*
X2217682Y-7340484D02*
X2198634Y-7340484D01*
X2198634Y-7340484D02*
X2179587Y-7330960D01*
X2179587Y-7330960D02*
X2170063Y-7321436D01*
X2170063Y-7321436D02*
X2160539Y-7302388D01*
X2160539Y-7302388D02*
X2151015Y-7264293D01*
X2151015Y-7264293D02*
X2151015Y-7216674D01*
X2151015Y-7216674D02*
X2160539Y-7178579D01*
X2160539Y-7178579D02*
X2170063Y-7159531D01*
X2170063Y-7159531D02*
X2179587Y-7150008D01*
X2179587Y-7150008D02*
X2198634Y-7140484D01*
X2360539Y-7330960D02*
X2360539Y-7340484D01*
X2360539Y-7340484D02*
X2351015Y-7359531D01*
X2351015Y-7359531D02*
X2341491Y-7369055D01*
X2484348Y-7140484D02*
X2503396Y-7140484D01*
X2503396Y-7140484D02*
X2522444Y-7150008D01*
X2522444Y-7150008D02*
X2531968Y-7159531D01*
X2531968Y-7159531D02*
X2541491Y-7178579D01*
X2541491Y-7178579D02*
X2551015Y-7216674D01*
X2551015Y-7216674D02*
X2551015Y-7264293D01*
X2551015Y-7264293D02*
X2541491Y-7302388D01*
X2541491Y-7302388D02*
X2531968Y-7321436D01*
X2531968Y-7321436D02*
X2522444Y-7330960D01*
X2522444Y-7330960D02*
X2503396Y-7340484D01*
X2503396Y-7340484D02*
X2484348Y-7340484D01*
X2484348Y-7340484D02*
X2465301Y-7330960D01*
X2465301Y-7330960D02*
X2455777Y-7321436D01*
X2455777Y-7321436D02*
X2446253Y-7302388D01*
X2446253Y-7302388D02*
X2436729Y-7264293D01*
X2436729Y-7264293D02*
X2436729Y-7216674D01*
X2436729Y-7216674D02*
X2446253Y-7178579D01*
X2446253Y-7178579D02*
X2455777Y-7159531D01*
X2455777Y-7159531D02*
X2465301Y-7150008D01*
X2465301Y-7150008D02*
X2484348Y-7140484D01*
X2741491Y-7340484D02*
X2627206Y-7340484D01*
X2684348Y-7340484D02*
X2684348Y-7140484D01*
X2684348Y-7140484D02*
X2665301Y-7169055D01*
X2665301Y-7169055D02*
X2646253Y-7188103D01*
X2646253Y-7188103D02*
X2627206Y-7197627D01*
X2922444Y-7140484D02*
X2827206Y-7140484D01*
X2827206Y-7140484D02*
X2817682Y-7235722D01*
X2817682Y-7235722D02*
X2827206Y-7226198D01*
X2827206Y-7226198D02*
X2846253Y-7216674D01*
X2846253Y-7216674D02*
X2893872Y-7216674D01*
X2893872Y-7216674D02*
X2912920Y-7226198D01*
X2912920Y-7226198D02*
X2922444Y-7235722D01*
X2922444Y-7235722D02*
X2931967Y-7254769D01*
X2931967Y-7254769D02*
X2931967Y-7302388D01*
X2931967Y-7302388D02*
X2922444Y-7321436D01*
X2922444Y-7321436D02*
X2912920Y-7330960D01*
X2912920Y-7330960D02*
X2893872Y-7340484D01*
X2893872Y-7340484D02*
X2846253Y-7340484D01*
X2846253Y-7340484D02*
X2827206Y-7330960D01*
X2827206Y-7330960D02*
X2817682Y-7321436D01*
X2998634Y-7140484D02*
X3131967Y-7140484D01*
X3131967Y-7140484D02*
X3046253Y-7340484D01*
X3198634Y-7140484D02*
X3198634Y-7178579D01*
X3274825Y-7140484D02*
X3274825Y-7178579D01*
X3570063Y-7416674D02*
X3560539Y-7407150D01*
X3560539Y-7407150D02*
X3541491Y-7378579D01*
X3541491Y-7378579D02*
X3531968Y-7359531D01*
X3531968Y-7359531D02*
X3522444Y-7330960D01*
X3522444Y-7330960D02*
X3512920Y-7283341D01*
X3512920Y-7283341D02*
X3512920Y-7245246D01*
X3512920Y-7245246D02*
X3522444Y-7197627D01*
X3522444Y-7197627D02*
X3531968Y-7169055D01*
X3531968Y-7169055D02*
X3541491Y-7150008D01*
X3541491Y-7150008D02*
X3560539Y-7121436D01*
X3560539Y-7121436D02*
X3570063Y-7111912D01*
X3627206Y-7140484D02*
X3751015Y-7140484D01*
X3751015Y-7140484D02*
X3684348Y-7216674D01*
X3684348Y-7216674D02*
X3712920Y-7216674D01*
X3712920Y-7216674D02*
X3731968Y-7226198D01*
X3731968Y-7226198D02*
X3741491Y-7235722D01*
X3741491Y-7235722D02*
X3751015Y-7254769D01*
X3751015Y-7254769D02*
X3751015Y-7302388D01*
X3751015Y-7302388D02*
X3741491Y-7321436D01*
X3741491Y-7321436D02*
X3731968Y-7330960D01*
X3731968Y-7330960D02*
X3712920Y-7340484D01*
X3712920Y-7340484D02*
X3655777Y-7340484D01*
X3655777Y-7340484D02*
X3636729Y-7330960D01*
X3636729Y-7330960D02*
X3627206Y-7321436D01*
X3817682Y-7140484D02*
X3941491Y-7140484D01*
X3941491Y-7140484D02*
X3874825Y-7216674D01*
X3874825Y-7216674D02*
X3903396Y-7216674D01*
X3903396Y-7216674D02*
X3922444Y-7226198D01*
X3922444Y-7226198D02*
X3931968Y-7235722D01*
X3931968Y-7235722D02*
X3941491Y-7254769D01*
X3941491Y-7254769D02*
X3941491Y-7302388D01*
X3941491Y-7302388D02*
X3931968Y-7321436D01*
X3931968Y-7321436D02*
X3922444Y-7330960D01*
X3922444Y-7330960D02*
X3903396Y-7340484D01*
X3903396Y-7340484D02*
X3846253Y-7340484D01*
X3846253Y-7340484D02*
X3827206Y-7330960D01*
X3827206Y-7330960D02*
X3817682Y-7321436D01*
X4179587Y-7340484D02*
X4179587Y-7140484D01*
X4265301Y-7340484D02*
X4265301Y-7235722D01*
X4265301Y-7235722D02*
X4255777Y-7216674D01*
X4255777Y-7216674D02*
X4236730Y-7207150D01*
X4236730Y-7207150D02*
X4208158Y-7207150D01*
X4208158Y-7207150D02*
X4189110Y-7216674D01*
X4189110Y-7216674D02*
X4179587Y-7226198D01*
X4389111Y-7340484D02*
X4370063Y-7330960D01*
X4370063Y-7330960D02*
X4360539Y-7321436D01*
X4360539Y-7321436D02*
X4351015Y-7302388D01*
X4351015Y-7302388D02*
X4351015Y-7245246D01*
X4351015Y-7245246D02*
X4360539Y-7226198D01*
X4360539Y-7226198D02*
X4370063Y-7216674D01*
X4370063Y-7216674D02*
X4389111Y-7207150D01*
X4389111Y-7207150D02*
X4417682Y-7207150D01*
X4417682Y-7207150D02*
X4436730Y-7216674D01*
X4436730Y-7216674D02*
X4446253Y-7226198D01*
X4446253Y-7226198D02*
X4455777Y-7245246D01*
X4455777Y-7245246D02*
X4455777Y-7302388D01*
X4455777Y-7302388D02*
X4446253Y-7321436D01*
X4446253Y-7321436D02*
X4436730Y-7330960D01*
X4436730Y-7330960D02*
X4417682Y-7340484D01*
X4417682Y-7340484D02*
X4389111Y-7340484D01*
X4570063Y-7340484D02*
X4551015Y-7330960D01*
X4551015Y-7330960D02*
X4541492Y-7311912D01*
X4541492Y-7311912D02*
X4541492Y-7140484D01*
X4722444Y-7330960D02*
X4703396Y-7340484D01*
X4703396Y-7340484D02*
X4665301Y-7340484D01*
X4665301Y-7340484D02*
X4646253Y-7330960D01*
X4646253Y-7330960D02*
X4636730Y-7311912D01*
X4636730Y-7311912D02*
X4636730Y-7235722D01*
X4636730Y-7235722D02*
X4646253Y-7216674D01*
X4646253Y-7216674D02*
X4665301Y-7207150D01*
X4665301Y-7207150D02*
X4703396Y-7207150D01*
X4703396Y-7207150D02*
X4722444Y-7216674D01*
X4722444Y-7216674D02*
X4731968Y-7235722D01*
X4731968Y-7235722D02*
X4731968Y-7254769D01*
X4731968Y-7254769D02*
X4636730Y-7273817D01*
X4808158Y-7330960D02*
X4827206Y-7340484D01*
X4827206Y-7340484D02*
X4865301Y-7340484D01*
X4865301Y-7340484D02*
X4884349Y-7330960D01*
X4884349Y-7330960D02*
X4893873Y-7311912D01*
X4893873Y-7311912D02*
X4893873Y-7302388D01*
X4893873Y-7302388D02*
X4884349Y-7283341D01*
X4884349Y-7283341D02*
X4865301Y-7273817D01*
X4865301Y-7273817D02*
X4836730Y-7273817D01*
X4836730Y-7273817D02*
X4817682Y-7264293D01*
X4817682Y-7264293D02*
X4808158Y-7245246D01*
X4808158Y-7245246D02*
X4808158Y-7235722D01*
X4808158Y-7235722D02*
X4817682Y-7216674D01*
X4817682Y-7216674D02*
X4836730Y-7207150D01*
X4836730Y-7207150D02*
X4865301Y-7207150D01*
X4865301Y-7207150D02*
X4884349Y-7216674D01*
X4960539Y-7416674D02*
X4970063Y-7407150D01*
X4970063Y-7407150D02*
X4989111Y-7378579D01*
X4989111Y-7378579D02*
X4998634Y-7359531D01*
X4998634Y-7359531D02*
X5008158Y-7330960D01*
X5008158Y-7330960D02*
X5017682Y-7283341D01*
X5017682Y-7283341D02*
X5017682Y-7245246D01*
X5017682Y-7245246D02*
X5008158Y-7197627D01*
X5008158Y-7197627D02*
X4998634Y-7169055D01*
X4998634Y-7169055D02*
X4989111Y-7150008D01*
X4989111Y-7150008D02*
X4970063Y-7121436D01*
X4970063Y-7121436D02*
X4960539Y-7111912D01*
D10*
X-5000Y-7513000D02*
G75*
G02*
X-75000Y-7513000I-35000J0D01*
G01*
X-75000Y-7513000D02*
G75*
G02*
X-5000Y-7513000I35000J0D01*
G01*
D11*
X293872Y-7404484D02*
X312920Y-7404484D01*
X312920Y-7404484D02*
X331967Y-7414008D01*
X331967Y-7414008D02*
X341491Y-7423531D01*
X341491Y-7423531D02*
X351015Y-7442579D01*
X351015Y-7442579D02*
X360539Y-7480674D01*
X360539Y-7480674D02*
X360539Y-7528293D01*
X360539Y-7528293D02*
X351015Y-7566388D01*
X351015Y-7566388D02*
X341491Y-7585436D01*
X341491Y-7585436D02*
X331967Y-7594960D01*
X331967Y-7594960D02*
X312920Y-7604484D01*
X312920Y-7604484D02*
X293872Y-7604484D01*
X293872Y-7604484D02*
X274824Y-7594960D01*
X274824Y-7594960D02*
X265301Y-7585436D01*
X265301Y-7585436D02*
X255777Y-7566388D01*
X255777Y-7566388D02*
X246253Y-7528293D01*
X246253Y-7528293D02*
X246253Y-7480674D01*
X246253Y-7480674D02*
X255777Y-7442579D01*
X255777Y-7442579D02*
X265301Y-7423531D01*
X265301Y-7423531D02*
X274824Y-7414008D01*
X274824Y-7414008D02*
X293872Y-7404484D01*
X455777Y-7594960D02*
X455777Y-7604484D01*
X455777Y-7604484D02*
X446253Y-7623531D01*
X446253Y-7623531D02*
X436729Y-7633055D01*
X522443Y-7404484D02*
X655777Y-7404484D01*
X655777Y-7404484D02*
X570063Y-7604484D01*
X770062Y-7404484D02*
X789110Y-7404484D01*
X789110Y-7404484D02*
X808158Y-7414008D01*
X808158Y-7414008D02*
X817682Y-7423531D01*
X817682Y-7423531D02*
X827205Y-7442579D01*
X827205Y-7442579D02*
X836729Y-7480674D01*
X836729Y-7480674D02*
X836729Y-7528293D01*
X836729Y-7528293D02*
X827205Y-7566388D01*
X827205Y-7566388D02*
X817682Y-7585436D01*
X817682Y-7585436D02*
X808158Y-7594960D01*
X808158Y-7594960D02*
X789110Y-7604484D01*
X789110Y-7604484D02*
X770062Y-7604484D01*
X770062Y-7604484D02*
X751015Y-7594960D01*
X751015Y-7594960D02*
X741491Y-7585436D01*
X741491Y-7585436D02*
X731967Y-7566388D01*
X731967Y-7566388D02*
X722443Y-7528293D01*
X722443Y-7528293D02*
X722443Y-7480674D01*
X722443Y-7480674D02*
X731967Y-7442579D01*
X731967Y-7442579D02*
X741491Y-7423531D01*
X741491Y-7423531D02*
X751015Y-7414008D01*
X751015Y-7414008D02*
X770062Y-7404484D01*
X960539Y-7404484D02*
X979586Y-7404484D01*
X979586Y-7404484D02*
X998634Y-7414008D01*
X998634Y-7414008D02*
X1008158Y-7423531D01*
X1008158Y-7423531D02*
X1017682Y-7442579D01*
X1017682Y-7442579D02*
X1027205Y-7480674D01*
X1027205Y-7480674D02*
X1027205Y-7528293D01*
X1027205Y-7528293D02*
X1017682Y-7566388D01*
X1017682Y-7566388D02*
X1008158Y-7585436D01*
X1008158Y-7585436D02*
X998634Y-7594960D01*
X998634Y-7594960D02*
X979586Y-7604484D01*
X979586Y-7604484D02*
X960539Y-7604484D01*
X960539Y-7604484D02*
X941491Y-7594960D01*
X941491Y-7594960D02*
X931967Y-7585436D01*
X931967Y-7585436D02*
X922443Y-7566388D01*
X922443Y-7566388D02*
X912920Y-7528293D01*
X912920Y-7528293D02*
X912920Y-7480674D01*
X912920Y-7480674D02*
X922443Y-7442579D01*
X922443Y-7442579D02*
X931967Y-7423531D01*
X931967Y-7423531D02*
X941491Y-7414008D01*
X941491Y-7414008D02*
X960539Y-7404484D01*
X1112920Y-7604484D02*
X1112920Y-7471150D01*
X1112920Y-7490198D02*
X1122444Y-7480674D01*
X1122444Y-7480674D02*
X1141491Y-7471150D01*
X1141491Y-7471150D02*
X1170063Y-7471150D01*
X1170063Y-7471150D02*
X1189110Y-7480674D01*
X1189110Y-7480674D02*
X1198634Y-7499722D01*
X1198634Y-7499722D02*
X1198634Y-7604484D01*
X1198634Y-7499722D02*
X1208158Y-7480674D01*
X1208158Y-7480674D02*
X1227205Y-7471150D01*
X1227205Y-7471150D02*
X1255777Y-7471150D01*
X1255777Y-7471150D02*
X1274825Y-7480674D01*
X1274825Y-7480674D02*
X1284348Y-7499722D01*
X1284348Y-7499722D02*
X1284348Y-7604484D01*
X1379586Y-7604484D02*
X1379586Y-7471150D01*
X1379586Y-7490198D02*
X1389110Y-7480674D01*
X1389110Y-7480674D02*
X1408158Y-7471150D01*
X1408158Y-7471150D02*
X1436729Y-7471150D01*
X1436729Y-7471150D02*
X1455777Y-7480674D01*
X1455777Y-7480674D02*
X1465301Y-7499722D01*
X1465301Y-7499722D02*
X1465301Y-7604484D01*
X1465301Y-7499722D02*
X1474824Y-7480674D01*
X1474824Y-7480674D02*
X1493872Y-7471150D01*
X1493872Y-7471150D02*
X1522443Y-7471150D01*
X1522443Y-7471150D02*
X1541491Y-7480674D01*
X1541491Y-7480674D02*
X1551015Y-7499722D01*
X1551015Y-7499722D02*
X1551015Y-7604484D01*
X1941491Y-7394960D02*
X1770063Y-7652103D01*
X2198634Y-7404484D02*
X2217682Y-7404484D01*
X2217682Y-7404484D02*
X2236729Y-7414008D01*
X2236729Y-7414008D02*
X2246253Y-7423531D01*
X2246253Y-7423531D02*
X2255777Y-7442579D01*
X2255777Y-7442579D02*
X2265301Y-7480674D01*
X2265301Y-7480674D02*
X2265301Y-7528293D01*
X2265301Y-7528293D02*
X2255777Y-7566388D01*
X2255777Y-7566388D02*
X2246253Y-7585436D01*
X2246253Y-7585436D02*
X2236729Y-7594960D01*
X2236729Y-7594960D02*
X2217682Y-7604484D01*
X2217682Y-7604484D02*
X2198634Y-7604484D01*
X2198634Y-7604484D02*
X2179587Y-7594960D01*
X2179587Y-7594960D02*
X2170063Y-7585436D01*
X2170063Y-7585436D02*
X2160539Y-7566388D01*
X2160539Y-7566388D02*
X2151015Y-7528293D01*
X2151015Y-7528293D02*
X2151015Y-7480674D01*
X2151015Y-7480674D02*
X2160539Y-7442579D01*
X2160539Y-7442579D02*
X2170063Y-7423531D01*
X2170063Y-7423531D02*
X2179587Y-7414008D01*
X2179587Y-7414008D02*
X2198634Y-7404484D01*
X2360539Y-7594960D02*
X2360539Y-7604484D01*
X2360539Y-7604484D02*
X2351015Y-7623531D01*
X2351015Y-7623531D02*
X2341491Y-7633055D01*
X2484348Y-7404484D02*
X2503396Y-7404484D01*
X2503396Y-7404484D02*
X2522444Y-7414008D01*
X2522444Y-7414008D02*
X2531968Y-7423531D01*
X2531968Y-7423531D02*
X2541491Y-7442579D01*
X2541491Y-7442579D02*
X2551015Y-7480674D01*
X2551015Y-7480674D02*
X2551015Y-7528293D01*
X2551015Y-7528293D02*
X2541491Y-7566388D01*
X2541491Y-7566388D02*
X2531968Y-7585436D01*
X2531968Y-7585436D02*
X2522444Y-7594960D01*
X2522444Y-7594960D02*
X2503396Y-7604484D01*
X2503396Y-7604484D02*
X2484348Y-7604484D01*
X2484348Y-7604484D02*
X2465301Y-7594960D01*
X2465301Y-7594960D02*
X2455777Y-7585436D01*
X2455777Y-7585436D02*
X2446253Y-7566388D01*
X2446253Y-7566388D02*
X2436729Y-7528293D01*
X2436729Y-7528293D02*
X2436729Y-7480674D01*
X2436729Y-7480674D02*
X2446253Y-7442579D01*
X2446253Y-7442579D02*
X2455777Y-7423531D01*
X2455777Y-7423531D02*
X2465301Y-7414008D01*
X2465301Y-7414008D02*
X2484348Y-7404484D01*
X2627206Y-7423531D02*
X2636729Y-7414008D01*
X2636729Y-7414008D02*
X2655777Y-7404484D01*
X2655777Y-7404484D02*
X2703396Y-7404484D01*
X2703396Y-7404484D02*
X2722444Y-7414008D01*
X2722444Y-7414008D02*
X2731968Y-7423531D01*
X2731968Y-7423531D02*
X2741491Y-7442579D01*
X2741491Y-7442579D02*
X2741491Y-7461627D01*
X2741491Y-7461627D02*
X2731968Y-7490198D01*
X2731968Y-7490198D02*
X2617682Y-7604484D01*
X2617682Y-7604484D02*
X2741491Y-7604484D01*
X2808158Y-7404484D02*
X2941491Y-7404484D01*
X2941491Y-7404484D02*
X2855777Y-7604484D01*
X3103396Y-7404484D02*
X3065301Y-7404484D01*
X3065301Y-7404484D02*
X3046253Y-7414008D01*
X3046253Y-7414008D02*
X3036729Y-7423531D01*
X3036729Y-7423531D02*
X3017682Y-7452103D01*
X3017682Y-7452103D02*
X3008158Y-7490198D01*
X3008158Y-7490198D02*
X3008158Y-7566388D01*
X3008158Y-7566388D02*
X3017682Y-7585436D01*
X3017682Y-7585436D02*
X3027206Y-7594960D01*
X3027206Y-7594960D02*
X3046253Y-7604484D01*
X3046253Y-7604484D02*
X3084348Y-7604484D01*
X3084348Y-7604484D02*
X3103396Y-7594960D01*
X3103396Y-7594960D02*
X3112920Y-7585436D01*
X3112920Y-7585436D02*
X3122444Y-7566388D01*
X3122444Y-7566388D02*
X3122444Y-7518769D01*
X3122444Y-7518769D02*
X3112920Y-7499722D01*
X3112920Y-7499722D02*
X3103396Y-7490198D01*
X3103396Y-7490198D02*
X3084348Y-7480674D01*
X3084348Y-7480674D02*
X3046253Y-7480674D01*
X3046253Y-7480674D02*
X3027206Y-7490198D01*
X3027206Y-7490198D02*
X3017682Y-7499722D01*
X3017682Y-7499722D02*
X3008158Y-7518769D01*
X3198634Y-7404484D02*
X3198634Y-7442579D01*
X3274825Y-7404484D02*
X3274825Y-7442579D01*
X3570063Y-7680674D02*
X3560539Y-7671150D01*
X3560539Y-7671150D02*
X3541491Y-7642579D01*
X3541491Y-7642579D02*
X3531968Y-7623531D01*
X3531968Y-7623531D02*
X3522444Y-7594960D01*
X3522444Y-7594960D02*
X3512920Y-7547341D01*
X3512920Y-7547341D02*
X3512920Y-7509246D01*
X3512920Y-7509246D02*
X3522444Y-7461627D01*
X3522444Y-7461627D02*
X3531968Y-7433055D01*
X3531968Y-7433055D02*
X3541491Y-7414008D01*
X3541491Y-7414008D02*
X3560539Y-7385436D01*
X3560539Y-7385436D02*
X3570063Y-7375912D01*
X3636729Y-7423531D02*
X3646253Y-7414008D01*
X3646253Y-7414008D02*
X3665301Y-7404484D01*
X3665301Y-7404484D02*
X3712920Y-7404484D01*
X3712920Y-7404484D02*
X3731968Y-7414008D01*
X3731968Y-7414008D02*
X3741491Y-7423531D01*
X3741491Y-7423531D02*
X3751015Y-7442579D01*
X3751015Y-7442579D02*
X3751015Y-7461627D01*
X3751015Y-7461627D02*
X3741491Y-7490198D01*
X3741491Y-7490198D02*
X3627206Y-7604484D01*
X3627206Y-7604484D02*
X3751015Y-7604484D01*
X3989110Y-7604484D02*
X3989110Y-7404484D01*
X4074825Y-7604484D02*
X4074825Y-7499722D01*
X4074825Y-7499722D02*
X4065301Y-7480674D01*
X4065301Y-7480674D02*
X4046253Y-7471150D01*
X4046253Y-7471150D02*
X4017682Y-7471150D01*
X4017682Y-7471150D02*
X3998634Y-7480674D01*
X3998634Y-7480674D02*
X3989110Y-7490198D01*
X4198634Y-7604484D02*
X4179587Y-7594960D01*
X4179587Y-7594960D02*
X4170063Y-7585436D01*
X4170063Y-7585436D02*
X4160539Y-7566388D01*
X4160539Y-7566388D02*
X4160539Y-7509246D01*
X4160539Y-7509246D02*
X4170063Y-7490198D01*
X4170063Y-7490198D02*
X4179587Y-7480674D01*
X4179587Y-7480674D02*
X4198634Y-7471150D01*
X4198634Y-7471150D02*
X4227206Y-7471150D01*
X4227206Y-7471150D02*
X4246253Y-7480674D01*
X4246253Y-7480674D02*
X4255777Y-7490198D01*
X4255777Y-7490198D02*
X4265301Y-7509246D01*
X4265301Y-7509246D02*
X4265301Y-7566388D01*
X4265301Y-7566388D02*
X4255777Y-7585436D01*
X4255777Y-7585436D02*
X4246253Y-7594960D01*
X4246253Y-7594960D02*
X4227206Y-7604484D01*
X4227206Y-7604484D02*
X4198634Y-7604484D01*
X4379587Y-7604484D02*
X4360539Y-7594960D01*
X4360539Y-7594960D02*
X4351015Y-7575912D01*
X4351015Y-7575912D02*
X4351015Y-7404484D01*
X4531968Y-7594960D02*
X4512920Y-7604484D01*
X4512920Y-7604484D02*
X4474825Y-7604484D01*
X4474825Y-7604484D02*
X4455777Y-7594960D01*
X4455777Y-7594960D02*
X4446253Y-7575912D01*
X4446253Y-7575912D02*
X4446253Y-7499722D01*
X4446253Y-7499722D02*
X4455777Y-7480674D01*
X4455777Y-7480674D02*
X4474825Y-7471150D01*
X4474825Y-7471150D02*
X4512920Y-7471150D01*
X4512920Y-7471150D02*
X4531968Y-7480674D01*
X4531968Y-7480674D02*
X4541492Y-7499722D01*
X4541492Y-7499722D02*
X4541492Y-7518769D01*
X4541492Y-7518769D02*
X4446253Y-7537817D01*
X4617682Y-7594960D02*
X4636730Y-7604484D01*
X4636730Y-7604484D02*
X4674825Y-7604484D01*
X4674825Y-7604484D02*
X4693873Y-7594960D01*
X4693873Y-7594960D02*
X4703396Y-7575912D01*
X4703396Y-7575912D02*
X4703396Y-7566388D01*
X4703396Y-7566388D02*
X4693873Y-7547341D01*
X4693873Y-7547341D02*
X4674825Y-7537817D01*
X4674825Y-7537817D02*
X4646253Y-7537817D01*
X4646253Y-7537817D02*
X4627206Y-7528293D01*
X4627206Y-7528293D02*
X4617682Y-7509246D01*
X4617682Y-7509246D02*
X4617682Y-7499722D01*
X4617682Y-7499722D02*
X4627206Y-7480674D01*
X4627206Y-7480674D02*
X4646253Y-7471150D01*
X4646253Y-7471150D02*
X4674825Y-7471150D01*
X4674825Y-7471150D02*
X4693873Y-7480674D01*
X4770063Y-7680674D02*
X4779587Y-7671150D01*
X4779587Y-7671150D02*
X4798634Y-7642579D01*
X4798634Y-7642579D02*
X4808158Y-7623531D01*
X4808158Y-7623531D02*
X4817682Y-7594960D01*
X4817682Y-7594960D02*
X4827206Y-7547341D01*
X4827206Y-7547341D02*
X4827206Y-7509246D01*
X4827206Y-7509246D02*
X4817682Y-7461627D01*
X4817682Y-7461627D02*
X4808158Y-7433055D01*
X4808158Y-7433055D02*
X4798634Y-7414008D01*
X4798634Y-7414008D02*
X4779587Y-7385436D01*
X4779587Y-7385436D02*
X4770063Y-7375912D01*
D10*
X-45000Y-7737000D02*
X-45000Y-7817000D01*
X-85000Y-7777000D02*
X-5000Y-7777000D01*
D11*
X293872Y-7668484D02*
X312920Y-7668484D01*
X312920Y-7668484D02*
X331967Y-7678008D01*
X331967Y-7678008D02*
X341491Y-7687531D01*
X341491Y-7687531D02*
X351015Y-7706579D01*
X351015Y-7706579D02*
X360539Y-7744674D01*
X360539Y-7744674D02*
X360539Y-7792293D01*
X360539Y-7792293D02*
X351015Y-7830388D01*
X351015Y-7830388D02*
X341491Y-7849436D01*
X341491Y-7849436D02*
X331967Y-7858960D01*
X331967Y-7858960D02*
X312920Y-7868484D01*
X312920Y-7868484D02*
X293872Y-7868484D01*
X293872Y-7868484D02*
X274824Y-7858960D01*
X274824Y-7858960D02*
X265301Y-7849436D01*
X265301Y-7849436D02*
X255777Y-7830388D01*
X255777Y-7830388D02*
X246253Y-7792293D01*
X246253Y-7792293D02*
X246253Y-7744674D01*
X246253Y-7744674D02*
X255777Y-7706579D01*
X255777Y-7706579D02*
X265301Y-7687531D01*
X265301Y-7687531D02*
X274824Y-7678008D01*
X274824Y-7678008D02*
X293872Y-7668484D01*
X455777Y-7858960D02*
X455777Y-7868484D01*
X455777Y-7868484D02*
X446253Y-7887531D01*
X446253Y-7887531D02*
X436729Y-7897055D01*
X570063Y-7754198D02*
X551015Y-7744674D01*
X551015Y-7744674D02*
X541491Y-7735150D01*
X541491Y-7735150D02*
X531967Y-7716103D01*
X531967Y-7716103D02*
X531967Y-7706579D01*
X531967Y-7706579D02*
X541491Y-7687531D01*
X541491Y-7687531D02*
X551015Y-7678008D01*
X551015Y-7678008D02*
X570063Y-7668484D01*
X570063Y-7668484D02*
X608158Y-7668484D01*
X608158Y-7668484D02*
X627205Y-7678008D01*
X627205Y-7678008D02*
X636729Y-7687531D01*
X636729Y-7687531D02*
X646253Y-7706579D01*
X646253Y-7706579D02*
X646253Y-7716103D01*
X646253Y-7716103D02*
X636729Y-7735150D01*
X636729Y-7735150D02*
X627205Y-7744674D01*
X627205Y-7744674D02*
X608158Y-7754198D01*
X608158Y-7754198D02*
X570063Y-7754198D01*
X570063Y-7754198D02*
X551015Y-7763722D01*
X551015Y-7763722D02*
X541491Y-7773246D01*
X541491Y-7773246D02*
X531967Y-7792293D01*
X531967Y-7792293D02*
X531967Y-7830388D01*
X531967Y-7830388D02*
X541491Y-7849436D01*
X541491Y-7849436D02*
X551015Y-7858960D01*
X551015Y-7858960D02*
X570063Y-7868484D01*
X570063Y-7868484D02*
X608158Y-7868484D01*
X608158Y-7868484D02*
X627205Y-7858960D01*
X627205Y-7858960D02*
X636729Y-7849436D01*
X636729Y-7849436D02*
X646253Y-7830388D01*
X646253Y-7830388D02*
X646253Y-7792293D01*
X646253Y-7792293D02*
X636729Y-7773246D01*
X636729Y-7773246D02*
X627205Y-7763722D01*
X627205Y-7763722D02*
X608158Y-7754198D01*
X770062Y-7668484D02*
X789110Y-7668484D01*
X789110Y-7668484D02*
X808158Y-7678008D01*
X808158Y-7678008D02*
X817682Y-7687531D01*
X817682Y-7687531D02*
X827205Y-7706579D01*
X827205Y-7706579D02*
X836729Y-7744674D01*
X836729Y-7744674D02*
X836729Y-7792293D01*
X836729Y-7792293D02*
X827205Y-7830388D01*
X827205Y-7830388D02*
X817682Y-7849436D01*
X817682Y-7849436D02*
X808158Y-7858960D01*
X808158Y-7858960D02*
X789110Y-7868484D01*
X789110Y-7868484D02*
X770062Y-7868484D01*
X770062Y-7868484D02*
X751015Y-7858960D01*
X751015Y-7858960D02*
X741491Y-7849436D01*
X741491Y-7849436D02*
X731967Y-7830388D01*
X731967Y-7830388D02*
X722443Y-7792293D01*
X722443Y-7792293D02*
X722443Y-7744674D01*
X722443Y-7744674D02*
X731967Y-7706579D01*
X731967Y-7706579D02*
X741491Y-7687531D01*
X741491Y-7687531D02*
X751015Y-7678008D01*
X751015Y-7678008D02*
X770062Y-7668484D01*
X960539Y-7668484D02*
X979586Y-7668484D01*
X979586Y-7668484D02*
X998634Y-7678008D01*
X998634Y-7678008D02*
X1008158Y-7687531D01*
X1008158Y-7687531D02*
X1017682Y-7706579D01*
X1017682Y-7706579D02*
X1027205Y-7744674D01*
X1027205Y-7744674D02*
X1027205Y-7792293D01*
X1027205Y-7792293D02*
X1017682Y-7830388D01*
X1017682Y-7830388D02*
X1008158Y-7849436D01*
X1008158Y-7849436D02*
X998634Y-7858960D01*
X998634Y-7858960D02*
X979586Y-7868484D01*
X979586Y-7868484D02*
X960539Y-7868484D01*
X960539Y-7868484D02*
X941491Y-7858960D01*
X941491Y-7858960D02*
X931967Y-7849436D01*
X931967Y-7849436D02*
X922443Y-7830388D01*
X922443Y-7830388D02*
X912920Y-7792293D01*
X912920Y-7792293D02*
X912920Y-7744674D01*
X912920Y-7744674D02*
X922443Y-7706579D01*
X922443Y-7706579D02*
X931967Y-7687531D01*
X931967Y-7687531D02*
X941491Y-7678008D01*
X941491Y-7678008D02*
X960539Y-7668484D01*
X1112920Y-7868484D02*
X1112920Y-7735150D01*
X1112920Y-7754198D02*
X1122444Y-7744674D01*
X1122444Y-7744674D02*
X1141491Y-7735150D01*
X1141491Y-7735150D02*
X1170063Y-7735150D01*
X1170063Y-7735150D02*
X1189110Y-7744674D01*
X1189110Y-7744674D02*
X1198634Y-7763722D01*
X1198634Y-7763722D02*
X1198634Y-7868484D01*
X1198634Y-7763722D02*
X1208158Y-7744674D01*
X1208158Y-7744674D02*
X1227205Y-7735150D01*
X1227205Y-7735150D02*
X1255777Y-7735150D01*
X1255777Y-7735150D02*
X1274825Y-7744674D01*
X1274825Y-7744674D02*
X1284348Y-7763722D01*
X1284348Y-7763722D02*
X1284348Y-7868484D01*
X1379586Y-7868484D02*
X1379586Y-7735150D01*
X1379586Y-7754198D02*
X1389110Y-7744674D01*
X1389110Y-7744674D02*
X1408158Y-7735150D01*
X1408158Y-7735150D02*
X1436729Y-7735150D01*
X1436729Y-7735150D02*
X1455777Y-7744674D01*
X1455777Y-7744674D02*
X1465301Y-7763722D01*
X1465301Y-7763722D02*
X1465301Y-7868484D01*
X1465301Y-7763722D02*
X1474824Y-7744674D01*
X1474824Y-7744674D02*
X1493872Y-7735150D01*
X1493872Y-7735150D02*
X1522443Y-7735150D01*
X1522443Y-7735150D02*
X1541491Y-7744674D01*
X1541491Y-7744674D02*
X1551015Y-7763722D01*
X1551015Y-7763722D02*
X1551015Y-7868484D01*
X1941491Y-7658960D02*
X1770063Y-7916103D01*
X2198634Y-7668484D02*
X2217682Y-7668484D01*
X2217682Y-7668484D02*
X2236729Y-7678008D01*
X2236729Y-7678008D02*
X2246253Y-7687531D01*
X2246253Y-7687531D02*
X2255777Y-7706579D01*
X2255777Y-7706579D02*
X2265301Y-7744674D01*
X2265301Y-7744674D02*
X2265301Y-7792293D01*
X2265301Y-7792293D02*
X2255777Y-7830388D01*
X2255777Y-7830388D02*
X2246253Y-7849436D01*
X2246253Y-7849436D02*
X2236729Y-7858960D01*
X2236729Y-7858960D02*
X2217682Y-7868484D01*
X2217682Y-7868484D02*
X2198634Y-7868484D01*
X2198634Y-7868484D02*
X2179587Y-7858960D01*
X2179587Y-7858960D02*
X2170063Y-7849436D01*
X2170063Y-7849436D02*
X2160539Y-7830388D01*
X2160539Y-7830388D02*
X2151015Y-7792293D01*
X2151015Y-7792293D02*
X2151015Y-7744674D01*
X2151015Y-7744674D02*
X2160539Y-7706579D01*
X2160539Y-7706579D02*
X2170063Y-7687531D01*
X2170063Y-7687531D02*
X2179587Y-7678008D01*
X2179587Y-7678008D02*
X2198634Y-7668484D01*
X2360539Y-7858960D02*
X2360539Y-7868484D01*
X2360539Y-7868484D02*
X2351015Y-7887531D01*
X2351015Y-7887531D02*
X2341491Y-7897055D01*
X2484348Y-7668484D02*
X2503396Y-7668484D01*
X2503396Y-7668484D02*
X2522444Y-7678008D01*
X2522444Y-7678008D02*
X2531968Y-7687531D01*
X2531968Y-7687531D02*
X2541491Y-7706579D01*
X2541491Y-7706579D02*
X2551015Y-7744674D01*
X2551015Y-7744674D02*
X2551015Y-7792293D01*
X2551015Y-7792293D02*
X2541491Y-7830388D01*
X2541491Y-7830388D02*
X2531968Y-7849436D01*
X2531968Y-7849436D02*
X2522444Y-7858960D01*
X2522444Y-7858960D02*
X2503396Y-7868484D01*
X2503396Y-7868484D02*
X2484348Y-7868484D01*
X2484348Y-7868484D02*
X2465301Y-7858960D01*
X2465301Y-7858960D02*
X2455777Y-7849436D01*
X2455777Y-7849436D02*
X2446253Y-7830388D01*
X2446253Y-7830388D02*
X2436729Y-7792293D01*
X2436729Y-7792293D02*
X2436729Y-7744674D01*
X2436729Y-7744674D02*
X2446253Y-7706579D01*
X2446253Y-7706579D02*
X2455777Y-7687531D01*
X2455777Y-7687531D02*
X2465301Y-7678008D01*
X2465301Y-7678008D02*
X2484348Y-7668484D01*
X2617682Y-7668484D02*
X2741491Y-7668484D01*
X2741491Y-7668484D02*
X2674825Y-7744674D01*
X2674825Y-7744674D02*
X2703396Y-7744674D01*
X2703396Y-7744674D02*
X2722444Y-7754198D01*
X2722444Y-7754198D02*
X2731968Y-7763722D01*
X2731968Y-7763722D02*
X2741491Y-7782769D01*
X2741491Y-7782769D02*
X2741491Y-7830388D01*
X2741491Y-7830388D02*
X2731968Y-7849436D01*
X2731968Y-7849436D02*
X2722444Y-7858960D01*
X2722444Y-7858960D02*
X2703396Y-7868484D01*
X2703396Y-7868484D02*
X2646253Y-7868484D01*
X2646253Y-7868484D02*
X2627206Y-7858960D01*
X2627206Y-7858960D02*
X2617682Y-7849436D01*
X2931967Y-7868484D02*
X2817682Y-7868484D01*
X2874825Y-7868484D02*
X2874825Y-7668484D01*
X2874825Y-7668484D02*
X2855777Y-7697055D01*
X2855777Y-7697055D02*
X2836729Y-7716103D01*
X2836729Y-7716103D02*
X2817682Y-7725627D01*
X3112920Y-7668484D02*
X3017682Y-7668484D01*
X3017682Y-7668484D02*
X3008158Y-7763722D01*
X3008158Y-7763722D02*
X3017682Y-7754198D01*
X3017682Y-7754198D02*
X3036729Y-7744674D01*
X3036729Y-7744674D02*
X3084348Y-7744674D01*
X3084348Y-7744674D02*
X3103396Y-7754198D01*
X3103396Y-7754198D02*
X3112920Y-7763722D01*
X3112920Y-7763722D02*
X3122444Y-7782769D01*
X3122444Y-7782769D02*
X3122444Y-7830388D01*
X3122444Y-7830388D02*
X3112920Y-7849436D01*
X3112920Y-7849436D02*
X3103396Y-7858960D01*
X3103396Y-7858960D02*
X3084348Y-7868484D01*
X3084348Y-7868484D02*
X3036729Y-7868484D01*
X3036729Y-7868484D02*
X3017682Y-7858960D01*
X3017682Y-7858960D02*
X3008158Y-7849436D01*
X3198634Y-7668484D02*
X3198634Y-7706579D01*
X3274825Y-7668484D02*
X3274825Y-7706579D01*
X3570063Y-7944674D02*
X3560539Y-7935150D01*
X3560539Y-7935150D02*
X3541491Y-7906579D01*
X3541491Y-7906579D02*
X3531968Y-7887531D01*
X3531968Y-7887531D02*
X3522444Y-7858960D01*
X3522444Y-7858960D02*
X3512920Y-7811341D01*
X3512920Y-7811341D02*
X3512920Y-7773246D01*
X3512920Y-7773246D02*
X3522444Y-7725627D01*
X3522444Y-7725627D02*
X3531968Y-7697055D01*
X3531968Y-7697055D02*
X3541491Y-7678008D01*
X3541491Y-7678008D02*
X3560539Y-7649436D01*
X3560539Y-7649436D02*
X3570063Y-7639912D01*
X3751015Y-7868484D02*
X3636729Y-7868484D01*
X3693872Y-7868484D02*
X3693872Y-7668484D01*
X3693872Y-7668484D02*
X3674825Y-7697055D01*
X3674825Y-7697055D02*
X3655777Y-7716103D01*
X3655777Y-7716103D02*
X3636729Y-7725627D01*
X3827206Y-7687531D02*
X3836729Y-7678008D01*
X3836729Y-7678008D02*
X3855777Y-7668484D01*
X3855777Y-7668484D02*
X3903396Y-7668484D01*
X3903396Y-7668484D02*
X3922444Y-7678008D01*
X3922444Y-7678008D02*
X3931968Y-7687531D01*
X3931968Y-7687531D02*
X3941491Y-7706579D01*
X3941491Y-7706579D02*
X3941491Y-7725627D01*
X3941491Y-7725627D02*
X3931968Y-7754198D01*
X3931968Y-7754198D02*
X3817682Y-7868484D01*
X3817682Y-7868484D02*
X3941491Y-7868484D01*
X4112920Y-7735150D02*
X4112920Y-7868484D01*
X4065301Y-7658960D02*
X4017682Y-7801817D01*
X4017682Y-7801817D02*
X4141491Y-7801817D01*
X4370063Y-7868484D02*
X4370063Y-7668484D01*
X4455777Y-7868484D02*
X4455777Y-7763722D01*
X4455777Y-7763722D02*
X4446253Y-7744674D01*
X4446253Y-7744674D02*
X4427206Y-7735150D01*
X4427206Y-7735150D02*
X4398634Y-7735150D01*
X4398634Y-7735150D02*
X4379587Y-7744674D01*
X4379587Y-7744674D02*
X4370063Y-7754198D01*
X4579587Y-7868484D02*
X4560539Y-7858960D01*
X4560539Y-7858960D02*
X4551015Y-7849436D01*
X4551015Y-7849436D02*
X4541492Y-7830388D01*
X4541492Y-7830388D02*
X4541492Y-7773246D01*
X4541492Y-7773246D02*
X4551015Y-7754198D01*
X4551015Y-7754198D02*
X4560539Y-7744674D01*
X4560539Y-7744674D02*
X4579587Y-7735150D01*
X4579587Y-7735150D02*
X4608158Y-7735150D01*
X4608158Y-7735150D02*
X4627206Y-7744674D01*
X4627206Y-7744674D02*
X4636730Y-7754198D01*
X4636730Y-7754198D02*
X4646253Y-7773246D01*
X4646253Y-7773246D02*
X4646253Y-7830388D01*
X4646253Y-7830388D02*
X4636730Y-7849436D01*
X4636730Y-7849436D02*
X4627206Y-7858960D01*
X4627206Y-7858960D02*
X4608158Y-7868484D01*
X4608158Y-7868484D02*
X4579587Y-7868484D01*
X4760539Y-7868484D02*
X4741492Y-7858960D01*
X4741492Y-7858960D02*
X4731968Y-7839912D01*
X4731968Y-7839912D02*
X4731968Y-7668484D01*
X4912920Y-7858960D02*
X4893873Y-7868484D01*
X4893873Y-7868484D02*
X4855777Y-7868484D01*
X4855777Y-7868484D02*
X4836730Y-7858960D01*
X4836730Y-7858960D02*
X4827206Y-7839912D01*
X4827206Y-7839912D02*
X4827206Y-7763722D01*
X4827206Y-7763722D02*
X4836730Y-7744674D01*
X4836730Y-7744674D02*
X4855777Y-7735150D01*
X4855777Y-7735150D02*
X4893873Y-7735150D01*
X4893873Y-7735150D02*
X4912920Y-7744674D01*
X4912920Y-7744674D02*
X4922444Y-7763722D01*
X4922444Y-7763722D02*
X4922444Y-7782769D01*
X4922444Y-7782769D02*
X4827206Y-7801817D01*
X4998634Y-7858960D02*
X5017682Y-7868484D01*
X5017682Y-7868484D02*
X5055777Y-7868484D01*
X5055777Y-7868484D02*
X5074825Y-7858960D01*
X5074825Y-7858960D02*
X5084349Y-7839912D01*
X5084349Y-7839912D02*
X5084349Y-7830388D01*
X5084349Y-7830388D02*
X5074825Y-7811341D01*
X5074825Y-7811341D02*
X5055777Y-7801817D01*
X5055777Y-7801817D02*
X5027206Y-7801817D01*
X5027206Y-7801817D02*
X5008158Y-7792293D01*
X5008158Y-7792293D02*
X4998634Y-7773246D01*
X4998634Y-7773246D02*
X4998634Y-7763722D01*
X4998634Y-7763722D02*
X5008158Y-7744674D01*
X5008158Y-7744674D02*
X5027206Y-7735150D01*
X5027206Y-7735150D02*
X5055777Y-7735150D01*
X5055777Y-7735150D02*
X5074825Y-7744674D01*
X5151015Y-7944674D02*
X5160539Y-7935150D01*
X5160539Y-7935150D02*
X5179587Y-7906579D01*
X5179587Y-7906579D02*
X5189111Y-7887531D01*
X5189111Y-7887531D02*
X5198634Y-7858960D01*
X5198634Y-7858960D02*
X5208158Y-7811341D01*
X5208158Y-7811341D02*
X5208158Y-7773246D01*
X5208158Y-7773246D02*
X5198634Y-7725627D01*
X5198634Y-7725627D02*
X5189111Y-7697055D01*
X5189111Y-7697055D02*
X5179587Y-7678008D01*
X5179587Y-7678008D02*
X5160539Y-7649436D01*
X5160539Y-7649436D02*
X5151015Y-7639912D01*
D10*
X-18180Y-8072820D02*
X-18180Y-8009180D01*
X-81820Y-8009180D01*
X-81820Y-8072820D01*
X-18180Y-8072820D01*
D11*
X293872Y-7932484D02*
X312920Y-7932484D01*
X312920Y-7932484D02*
X331967Y-7942008D01*
X331967Y-7942008D02*
X341491Y-7951531D01*
X341491Y-7951531D02*
X351015Y-7970579D01*
X351015Y-7970579D02*
X360539Y-8008674D01*
X360539Y-8008674D02*
X360539Y-8056293D01*
X360539Y-8056293D02*
X351015Y-8094388D01*
X351015Y-8094388D02*
X341491Y-8113436D01*
X341491Y-8113436D02*
X331967Y-8122960D01*
X331967Y-8122960D02*
X312920Y-8132484D01*
X312920Y-8132484D02*
X293872Y-8132484D01*
X293872Y-8132484D02*
X274824Y-8122960D01*
X274824Y-8122960D02*
X265301Y-8113436D01*
X265301Y-8113436D02*
X255777Y-8094388D01*
X255777Y-8094388D02*
X246253Y-8056293D01*
X246253Y-8056293D02*
X246253Y-8008674D01*
X246253Y-8008674D02*
X255777Y-7970579D01*
X255777Y-7970579D02*
X265301Y-7951531D01*
X265301Y-7951531D02*
X274824Y-7942008D01*
X274824Y-7942008D02*
X293872Y-7932484D01*
X455777Y-8122960D02*
X455777Y-8132484D01*
X455777Y-8132484D02*
X446253Y-8151531D01*
X446253Y-8151531D02*
X436729Y-8161055D01*
X551015Y-8132484D02*
X589110Y-8132484D01*
X589110Y-8132484D02*
X608158Y-8122960D01*
X608158Y-8122960D02*
X617682Y-8113436D01*
X617682Y-8113436D02*
X636729Y-8084865D01*
X636729Y-8084865D02*
X646253Y-8046769D01*
X646253Y-8046769D02*
X646253Y-7970579D01*
X646253Y-7970579D02*
X636729Y-7951531D01*
X636729Y-7951531D02*
X627205Y-7942008D01*
X627205Y-7942008D02*
X608158Y-7932484D01*
X608158Y-7932484D02*
X570063Y-7932484D01*
X570063Y-7932484D02*
X551015Y-7942008D01*
X551015Y-7942008D02*
X541491Y-7951531D01*
X541491Y-7951531D02*
X531967Y-7970579D01*
X531967Y-7970579D02*
X531967Y-8018198D01*
X531967Y-8018198D02*
X541491Y-8037246D01*
X541491Y-8037246D02*
X551015Y-8046769D01*
X551015Y-8046769D02*
X570063Y-8056293D01*
X570063Y-8056293D02*
X608158Y-8056293D01*
X608158Y-8056293D02*
X627205Y-8046769D01*
X627205Y-8046769D02*
X636729Y-8037246D01*
X636729Y-8037246D02*
X646253Y-8018198D01*
X770062Y-7932484D02*
X789110Y-7932484D01*
X789110Y-7932484D02*
X808158Y-7942008D01*
X808158Y-7942008D02*
X817682Y-7951531D01*
X817682Y-7951531D02*
X827205Y-7970579D01*
X827205Y-7970579D02*
X836729Y-8008674D01*
X836729Y-8008674D02*
X836729Y-8056293D01*
X836729Y-8056293D02*
X827205Y-8094388D01*
X827205Y-8094388D02*
X817682Y-8113436D01*
X817682Y-8113436D02*
X808158Y-8122960D01*
X808158Y-8122960D02*
X789110Y-8132484D01*
X789110Y-8132484D02*
X770062Y-8132484D01*
X770062Y-8132484D02*
X751015Y-8122960D01*
X751015Y-8122960D02*
X741491Y-8113436D01*
X741491Y-8113436D02*
X731967Y-8094388D01*
X731967Y-8094388D02*
X722443Y-8056293D01*
X722443Y-8056293D02*
X722443Y-8008674D01*
X722443Y-8008674D02*
X731967Y-7970579D01*
X731967Y-7970579D02*
X741491Y-7951531D01*
X741491Y-7951531D02*
X751015Y-7942008D01*
X751015Y-7942008D02*
X770062Y-7932484D01*
X960539Y-7932484D02*
X979586Y-7932484D01*
X979586Y-7932484D02*
X998634Y-7942008D01*
X998634Y-7942008D02*
X1008158Y-7951531D01*
X1008158Y-7951531D02*
X1017682Y-7970579D01*
X1017682Y-7970579D02*
X1027205Y-8008674D01*
X1027205Y-8008674D02*
X1027205Y-8056293D01*
X1027205Y-8056293D02*
X1017682Y-8094388D01*
X1017682Y-8094388D02*
X1008158Y-8113436D01*
X1008158Y-8113436D02*
X998634Y-8122960D01*
X998634Y-8122960D02*
X979586Y-8132484D01*
X979586Y-8132484D02*
X960539Y-8132484D01*
X960539Y-8132484D02*
X941491Y-8122960D01*
X941491Y-8122960D02*
X931967Y-8113436D01*
X931967Y-8113436D02*
X922443Y-8094388D01*
X922443Y-8094388D02*
X912920Y-8056293D01*
X912920Y-8056293D02*
X912920Y-8008674D01*
X912920Y-8008674D02*
X922443Y-7970579D01*
X922443Y-7970579D02*
X931967Y-7951531D01*
X931967Y-7951531D02*
X941491Y-7942008D01*
X941491Y-7942008D02*
X960539Y-7932484D01*
X1112920Y-8132484D02*
X1112920Y-7999150D01*
X1112920Y-8018198D02*
X1122444Y-8008674D01*
X1122444Y-8008674D02*
X1141491Y-7999150D01*
X1141491Y-7999150D02*
X1170063Y-7999150D01*
X1170063Y-7999150D02*
X1189110Y-8008674D01*
X1189110Y-8008674D02*
X1198634Y-8027722D01*
X1198634Y-8027722D02*
X1198634Y-8132484D01*
X1198634Y-8027722D02*
X1208158Y-8008674D01*
X1208158Y-8008674D02*
X1227205Y-7999150D01*
X1227205Y-7999150D02*
X1255777Y-7999150D01*
X1255777Y-7999150D02*
X1274825Y-8008674D01*
X1274825Y-8008674D02*
X1284348Y-8027722D01*
X1284348Y-8027722D02*
X1284348Y-8132484D01*
X1379586Y-8132484D02*
X1379586Y-7999150D01*
X1379586Y-8018198D02*
X1389110Y-8008674D01*
X1389110Y-8008674D02*
X1408158Y-7999150D01*
X1408158Y-7999150D02*
X1436729Y-7999150D01*
X1436729Y-7999150D02*
X1455777Y-8008674D01*
X1455777Y-8008674D02*
X1465301Y-8027722D01*
X1465301Y-8027722D02*
X1465301Y-8132484D01*
X1465301Y-8027722D02*
X1474824Y-8008674D01*
X1474824Y-8008674D02*
X1493872Y-7999150D01*
X1493872Y-7999150D02*
X1522443Y-7999150D01*
X1522443Y-7999150D02*
X1541491Y-8008674D01*
X1541491Y-8008674D02*
X1551015Y-8027722D01*
X1551015Y-8027722D02*
X1551015Y-8132484D01*
X1941491Y-7922960D02*
X1770063Y-8180103D01*
X2198634Y-7932484D02*
X2217682Y-7932484D01*
X2217682Y-7932484D02*
X2236729Y-7942008D01*
X2236729Y-7942008D02*
X2246253Y-7951531D01*
X2246253Y-7951531D02*
X2255777Y-7970579D01*
X2255777Y-7970579D02*
X2265301Y-8008674D01*
X2265301Y-8008674D02*
X2265301Y-8056293D01*
X2265301Y-8056293D02*
X2255777Y-8094388D01*
X2255777Y-8094388D02*
X2246253Y-8113436D01*
X2246253Y-8113436D02*
X2236729Y-8122960D01*
X2236729Y-8122960D02*
X2217682Y-8132484D01*
X2217682Y-8132484D02*
X2198634Y-8132484D01*
X2198634Y-8132484D02*
X2179587Y-8122960D01*
X2179587Y-8122960D02*
X2170063Y-8113436D01*
X2170063Y-8113436D02*
X2160539Y-8094388D01*
X2160539Y-8094388D02*
X2151015Y-8056293D01*
X2151015Y-8056293D02*
X2151015Y-8008674D01*
X2151015Y-8008674D02*
X2160539Y-7970579D01*
X2160539Y-7970579D02*
X2170063Y-7951531D01*
X2170063Y-7951531D02*
X2179587Y-7942008D01*
X2179587Y-7942008D02*
X2198634Y-7932484D01*
X2360539Y-8122960D02*
X2360539Y-8132484D01*
X2360539Y-8132484D02*
X2351015Y-8151531D01*
X2351015Y-8151531D02*
X2341491Y-8161055D01*
X2484348Y-7932484D02*
X2503396Y-7932484D01*
X2503396Y-7932484D02*
X2522444Y-7942008D01*
X2522444Y-7942008D02*
X2531968Y-7951531D01*
X2531968Y-7951531D02*
X2541491Y-7970579D01*
X2541491Y-7970579D02*
X2551015Y-8008674D01*
X2551015Y-8008674D02*
X2551015Y-8056293D01*
X2551015Y-8056293D02*
X2541491Y-8094388D01*
X2541491Y-8094388D02*
X2531968Y-8113436D01*
X2531968Y-8113436D02*
X2522444Y-8122960D01*
X2522444Y-8122960D02*
X2503396Y-8132484D01*
X2503396Y-8132484D02*
X2484348Y-8132484D01*
X2484348Y-8132484D02*
X2465301Y-8122960D01*
X2465301Y-8122960D02*
X2455777Y-8113436D01*
X2455777Y-8113436D02*
X2446253Y-8094388D01*
X2446253Y-8094388D02*
X2436729Y-8056293D01*
X2436729Y-8056293D02*
X2436729Y-8008674D01*
X2436729Y-8008674D02*
X2446253Y-7970579D01*
X2446253Y-7970579D02*
X2455777Y-7951531D01*
X2455777Y-7951531D02*
X2465301Y-7942008D01*
X2465301Y-7942008D02*
X2484348Y-7932484D01*
X2617682Y-7932484D02*
X2741491Y-7932484D01*
X2741491Y-7932484D02*
X2674825Y-8008674D01*
X2674825Y-8008674D02*
X2703396Y-8008674D01*
X2703396Y-8008674D02*
X2722444Y-8018198D01*
X2722444Y-8018198D02*
X2731968Y-8027722D01*
X2731968Y-8027722D02*
X2741491Y-8046769D01*
X2741491Y-8046769D02*
X2741491Y-8094388D01*
X2741491Y-8094388D02*
X2731968Y-8113436D01*
X2731968Y-8113436D02*
X2722444Y-8122960D01*
X2722444Y-8122960D02*
X2703396Y-8132484D01*
X2703396Y-8132484D02*
X2646253Y-8132484D01*
X2646253Y-8132484D02*
X2627206Y-8122960D01*
X2627206Y-8122960D02*
X2617682Y-8113436D01*
X2922444Y-7932484D02*
X2827206Y-7932484D01*
X2827206Y-7932484D02*
X2817682Y-8027722D01*
X2817682Y-8027722D02*
X2827206Y-8018198D01*
X2827206Y-8018198D02*
X2846253Y-8008674D01*
X2846253Y-8008674D02*
X2893872Y-8008674D01*
X2893872Y-8008674D02*
X2912920Y-8018198D01*
X2912920Y-8018198D02*
X2922444Y-8027722D01*
X2922444Y-8027722D02*
X2931967Y-8046769D01*
X2931967Y-8046769D02*
X2931967Y-8094388D01*
X2931967Y-8094388D02*
X2922444Y-8113436D01*
X2922444Y-8113436D02*
X2912920Y-8122960D01*
X2912920Y-8122960D02*
X2893872Y-8132484D01*
X2893872Y-8132484D02*
X2846253Y-8132484D01*
X2846253Y-8132484D02*
X2827206Y-8122960D01*
X2827206Y-8122960D02*
X2817682Y-8113436D01*
X3103396Y-7999150D02*
X3103396Y-8132484D01*
X3055777Y-7922960D02*
X3008158Y-8065817D01*
X3008158Y-8065817D02*
X3131967Y-8065817D01*
X3198634Y-7932484D02*
X3198634Y-7970579D01*
X3274825Y-7932484D02*
X3274825Y-7970579D01*
X3570063Y-8208674D02*
X3560539Y-8199150D01*
X3560539Y-8199150D02*
X3541491Y-8170579D01*
X3541491Y-8170579D02*
X3531968Y-8151531D01*
X3531968Y-8151531D02*
X3522444Y-8122960D01*
X3522444Y-8122960D02*
X3512920Y-8075341D01*
X3512920Y-8075341D02*
X3512920Y-8037246D01*
X3512920Y-8037246D02*
X3522444Y-7989627D01*
X3522444Y-7989627D02*
X3531968Y-7961055D01*
X3531968Y-7961055D02*
X3541491Y-7942008D01*
X3541491Y-7942008D02*
X3560539Y-7913436D01*
X3560539Y-7913436D02*
X3570063Y-7903912D01*
X3636729Y-7951531D02*
X3646253Y-7942008D01*
X3646253Y-7942008D02*
X3665301Y-7932484D01*
X3665301Y-7932484D02*
X3712920Y-7932484D01*
X3712920Y-7932484D02*
X3731968Y-7942008D01*
X3731968Y-7942008D02*
X3741491Y-7951531D01*
X3741491Y-7951531D02*
X3751015Y-7970579D01*
X3751015Y-7970579D02*
X3751015Y-7989627D01*
X3751015Y-7989627D02*
X3741491Y-8018198D01*
X3741491Y-8018198D02*
X3627206Y-8132484D01*
X3627206Y-8132484D02*
X3751015Y-8132484D01*
X3989110Y-8132484D02*
X3989110Y-7932484D01*
X4074825Y-8132484D02*
X4074825Y-8027722D01*
X4074825Y-8027722D02*
X4065301Y-8008674D01*
X4065301Y-8008674D02*
X4046253Y-7999150D01*
X4046253Y-7999150D02*
X4017682Y-7999150D01*
X4017682Y-7999150D02*
X3998634Y-8008674D01*
X3998634Y-8008674D02*
X3989110Y-8018198D01*
X4198634Y-8132484D02*
X4179587Y-8122960D01*
X4179587Y-8122960D02*
X4170063Y-8113436D01*
X4170063Y-8113436D02*
X4160539Y-8094388D01*
X4160539Y-8094388D02*
X4160539Y-8037246D01*
X4160539Y-8037246D02*
X4170063Y-8018198D01*
X4170063Y-8018198D02*
X4179587Y-8008674D01*
X4179587Y-8008674D02*
X4198634Y-7999150D01*
X4198634Y-7999150D02*
X4227206Y-7999150D01*
X4227206Y-7999150D02*
X4246253Y-8008674D01*
X4246253Y-8008674D02*
X4255777Y-8018198D01*
X4255777Y-8018198D02*
X4265301Y-8037246D01*
X4265301Y-8037246D02*
X4265301Y-8094388D01*
X4265301Y-8094388D02*
X4255777Y-8113436D01*
X4255777Y-8113436D02*
X4246253Y-8122960D01*
X4246253Y-8122960D02*
X4227206Y-8132484D01*
X4227206Y-8132484D02*
X4198634Y-8132484D01*
X4379587Y-8132484D02*
X4360539Y-8122960D01*
X4360539Y-8122960D02*
X4351015Y-8103912D01*
X4351015Y-8103912D02*
X4351015Y-7932484D01*
X4531968Y-8122960D02*
X4512920Y-8132484D01*
X4512920Y-8132484D02*
X4474825Y-8132484D01*
X4474825Y-8132484D02*
X4455777Y-8122960D01*
X4455777Y-8122960D02*
X4446253Y-8103912D01*
X4446253Y-8103912D02*
X4446253Y-8027722D01*
X4446253Y-8027722D02*
X4455777Y-8008674D01*
X4455777Y-8008674D02*
X4474825Y-7999150D01*
X4474825Y-7999150D02*
X4512920Y-7999150D01*
X4512920Y-7999150D02*
X4531968Y-8008674D01*
X4531968Y-8008674D02*
X4541492Y-8027722D01*
X4541492Y-8027722D02*
X4541492Y-8046769D01*
X4541492Y-8046769D02*
X4446253Y-8065817D01*
X4617682Y-8122960D02*
X4636730Y-8132484D01*
X4636730Y-8132484D02*
X4674825Y-8132484D01*
X4674825Y-8132484D02*
X4693873Y-8122960D01*
X4693873Y-8122960D02*
X4703396Y-8103912D01*
X4703396Y-8103912D02*
X4703396Y-8094388D01*
X4703396Y-8094388D02*
X4693873Y-8075341D01*
X4693873Y-8075341D02*
X4674825Y-8065817D01*
X4674825Y-8065817D02*
X4646253Y-8065817D01*
X4646253Y-8065817D02*
X4627206Y-8056293D01*
X4627206Y-8056293D02*
X4617682Y-8037246D01*
X4617682Y-8037246D02*
X4617682Y-8027722D01*
X4617682Y-8027722D02*
X4627206Y-8008674D01*
X4627206Y-8008674D02*
X4646253Y-7999150D01*
X4646253Y-7999150D02*
X4674825Y-7999150D01*
X4674825Y-7999150D02*
X4693873Y-8008674D01*
X4770063Y-8208674D02*
X4779587Y-8199150D01*
X4779587Y-8199150D02*
X4798634Y-8170579D01*
X4798634Y-8170579D02*
X4808158Y-8151531D01*
X4808158Y-8151531D02*
X4817682Y-8122960D01*
X4817682Y-8122960D02*
X4827206Y-8075341D01*
X4827206Y-8075341D02*
X4827206Y-8037246D01*
X4827206Y-8037246D02*
X4817682Y-7989627D01*
X4817682Y-7989627D02*
X4808158Y-7961055D01*
X4808158Y-7961055D02*
X4798634Y-7942008D01*
X4798634Y-7942008D02*
X4779587Y-7913436D01*
X4779587Y-7913436D02*
X4770063Y-7903912D01*
D10*
X-55000Y-8355000D02*
X-5000Y-8305000D01*
X-55000Y-8255000D01*
X-105000Y-8305000D01*
X-55000Y-8355000D01*
D11*
X360539Y-8396484D02*
X246253Y-8396484D01*
X303396Y-8396484D02*
X303396Y-8196484D01*
X303396Y-8196484D02*
X284348Y-8225055D01*
X284348Y-8225055D02*
X265301Y-8244103D01*
X265301Y-8244103D02*
X246253Y-8253627D01*
X455777Y-8386960D02*
X455777Y-8396484D01*
X455777Y-8396484D02*
X446253Y-8415531D01*
X446253Y-8415531D02*
X436729Y-8425055D01*
X579586Y-8196484D02*
X598634Y-8196484D01*
X598634Y-8196484D02*
X617682Y-8206008D01*
X617682Y-8206008D02*
X627205Y-8215531D01*
X627205Y-8215531D02*
X636729Y-8234579D01*
X636729Y-8234579D02*
X646253Y-8272674D01*
X646253Y-8272674D02*
X646253Y-8320293D01*
X646253Y-8320293D02*
X636729Y-8358388D01*
X636729Y-8358388D02*
X627205Y-8377436D01*
X627205Y-8377436D02*
X617682Y-8386960D01*
X617682Y-8386960D02*
X598634Y-8396484D01*
X598634Y-8396484D02*
X579586Y-8396484D01*
X579586Y-8396484D02*
X560539Y-8386960D01*
X560539Y-8386960D02*
X551015Y-8377436D01*
X551015Y-8377436D02*
X541491Y-8358388D01*
X541491Y-8358388D02*
X531967Y-8320293D01*
X531967Y-8320293D02*
X531967Y-8272674D01*
X531967Y-8272674D02*
X541491Y-8234579D01*
X541491Y-8234579D02*
X551015Y-8215531D01*
X551015Y-8215531D02*
X560539Y-8206008D01*
X560539Y-8206008D02*
X579586Y-8196484D01*
X770062Y-8196484D02*
X789110Y-8196484D01*
X789110Y-8196484D02*
X808158Y-8206008D01*
X808158Y-8206008D02*
X817682Y-8215531D01*
X817682Y-8215531D02*
X827205Y-8234579D01*
X827205Y-8234579D02*
X836729Y-8272674D01*
X836729Y-8272674D02*
X836729Y-8320293D01*
X836729Y-8320293D02*
X827205Y-8358388D01*
X827205Y-8358388D02*
X817682Y-8377436D01*
X817682Y-8377436D02*
X808158Y-8386960D01*
X808158Y-8386960D02*
X789110Y-8396484D01*
X789110Y-8396484D02*
X770062Y-8396484D01*
X770062Y-8396484D02*
X751015Y-8386960D01*
X751015Y-8386960D02*
X741491Y-8377436D01*
X741491Y-8377436D02*
X731967Y-8358388D01*
X731967Y-8358388D02*
X722443Y-8320293D01*
X722443Y-8320293D02*
X722443Y-8272674D01*
X722443Y-8272674D02*
X731967Y-8234579D01*
X731967Y-8234579D02*
X741491Y-8215531D01*
X741491Y-8215531D02*
X751015Y-8206008D01*
X751015Y-8206008D02*
X770062Y-8196484D01*
X960539Y-8196484D02*
X979586Y-8196484D01*
X979586Y-8196484D02*
X998634Y-8206008D01*
X998634Y-8206008D02*
X1008158Y-8215531D01*
X1008158Y-8215531D02*
X1017682Y-8234579D01*
X1017682Y-8234579D02*
X1027205Y-8272674D01*
X1027205Y-8272674D02*
X1027205Y-8320293D01*
X1027205Y-8320293D02*
X1017682Y-8358388D01*
X1017682Y-8358388D02*
X1008158Y-8377436D01*
X1008158Y-8377436D02*
X998634Y-8386960D01*
X998634Y-8386960D02*
X979586Y-8396484D01*
X979586Y-8396484D02*
X960539Y-8396484D01*
X960539Y-8396484D02*
X941491Y-8386960D01*
X941491Y-8386960D02*
X931967Y-8377436D01*
X931967Y-8377436D02*
X922443Y-8358388D01*
X922443Y-8358388D02*
X912920Y-8320293D01*
X912920Y-8320293D02*
X912920Y-8272674D01*
X912920Y-8272674D02*
X922443Y-8234579D01*
X922443Y-8234579D02*
X931967Y-8215531D01*
X931967Y-8215531D02*
X941491Y-8206008D01*
X941491Y-8206008D02*
X960539Y-8196484D01*
X1112920Y-8396484D02*
X1112920Y-8263150D01*
X1112920Y-8282198D02*
X1122444Y-8272674D01*
X1122444Y-8272674D02*
X1141491Y-8263150D01*
X1141491Y-8263150D02*
X1170063Y-8263150D01*
X1170063Y-8263150D02*
X1189110Y-8272674D01*
X1189110Y-8272674D02*
X1198634Y-8291722D01*
X1198634Y-8291722D02*
X1198634Y-8396484D01*
X1198634Y-8291722D02*
X1208158Y-8272674D01*
X1208158Y-8272674D02*
X1227205Y-8263150D01*
X1227205Y-8263150D02*
X1255777Y-8263150D01*
X1255777Y-8263150D02*
X1274825Y-8272674D01*
X1274825Y-8272674D02*
X1284348Y-8291722D01*
X1284348Y-8291722D02*
X1284348Y-8396484D01*
X1379586Y-8396484D02*
X1379586Y-8263150D01*
X1379586Y-8282198D02*
X1389110Y-8272674D01*
X1389110Y-8272674D02*
X1408158Y-8263150D01*
X1408158Y-8263150D02*
X1436729Y-8263150D01*
X1436729Y-8263150D02*
X1455777Y-8272674D01*
X1455777Y-8272674D02*
X1465301Y-8291722D01*
X1465301Y-8291722D02*
X1465301Y-8396484D01*
X1465301Y-8291722D02*
X1474824Y-8272674D01*
X1474824Y-8272674D02*
X1493872Y-8263150D01*
X1493872Y-8263150D02*
X1522443Y-8263150D01*
X1522443Y-8263150D02*
X1541491Y-8272674D01*
X1541491Y-8272674D02*
X1551015Y-8291722D01*
X1551015Y-8291722D02*
X1551015Y-8396484D01*
X1941491Y-8186960D02*
X1770063Y-8444103D01*
X2198634Y-8196484D02*
X2217682Y-8196484D01*
X2217682Y-8196484D02*
X2236729Y-8206008D01*
X2236729Y-8206008D02*
X2246253Y-8215531D01*
X2246253Y-8215531D02*
X2255777Y-8234579D01*
X2255777Y-8234579D02*
X2265301Y-8272674D01*
X2265301Y-8272674D02*
X2265301Y-8320293D01*
X2265301Y-8320293D02*
X2255777Y-8358388D01*
X2255777Y-8358388D02*
X2246253Y-8377436D01*
X2246253Y-8377436D02*
X2236729Y-8386960D01*
X2236729Y-8386960D02*
X2217682Y-8396484D01*
X2217682Y-8396484D02*
X2198634Y-8396484D01*
X2198634Y-8396484D02*
X2179587Y-8386960D01*
X2179587Y-8386960D02*
X2170063Y-8377436D01*
X2170063Y-8377436D02*
X2160539Y-8358388D01*
X2160539Y-8358388D02*
X2151015Y-8320293D01*
X2151015Y-8320293D02*
X2151015Y-8272674D01*
X2151015Y-8272674D02*
X2160539Y-8234579D01*
X2160539Y-8234579D02*
X2170063Y-8215531D01*
X2170063Y-8215531D02*
X2179587Y-8206008D01*
X2179587Y-8206008D02*
X2198634Y-8196484D01*
X2360539Y-8386960D02*
X2360539Y-8396484D01*
X2360539Y-8396484D02*
X2351015Y-8415531D01*
X2351015Y-8415531D02*
X2341491Y-8425055D01*
X2484348Y-8196484D02*
X2503396Y-8196484D01*
X2503396Y-8196484D02*
X2522444Y-8206008D01*
X2522444Y-8206008D02*
X2531968Y-8215531D01*
X2531968Y-8215531D02*
X2541491Y-8234579D01*
X2541491Y-8234579D02*
X2551015Y-8272674D01*
X2551015Y-8272674D02*
X2551015Y-8320293D01*
X2551015Y-8320293D02*
X2541491Y-8358388D01*
X2541491Y-8358388D02*
X2531968Y-8377436D01*
X2531968Y-8377436D02*
X2522444Y-8386960D01*
X2522444Y-8386960D02*
X2503396Y-8396484D01*
X2503396Y-8396484D02*
X2484348Y-8396484D01*
X2484348Y-8396484D02*
X2465301Y-8386960D01*
X2465301Y-8386960D02*
X2455777Y-8377436D01*
X2455777Y-8377436D02*
X2446253Y-8358388D01*
X2446253Y-8358388D02*
X2436729Y-8320293D01*
X2436729Y-8320293D02*
X2436729Y-8272674D01*
X2436729Y-8272674D02*
X2446253Y-8234579D01*
X2446253Y-8234579D02*
X2455777Y-8215531D01*
X2455777Y-8215531D02*
X2465301Y-8206008D01*
X2465301Y-8206008D02*
X2484348Y-8196484D01*
X2617682Y-8196484D02*
X2741491Y-8196484D01*
X2741491Y-8196484D02*
X2674825Y-8272674D01*
X2674825Y-8272674D02*
X2703396Y-8272674D01*
X2703396Y-8272674D02*
X2722444Y-8282198D01*
X2722444Y-8282198D02*
X2731968Y-8291722D01*
X2731968Y-8291722D02*
X2741491Y-8310769D01*
X2741491Y-8310769D02*
X2741491Y-8358388D01*
X2741491Y-8358388D02*
X2731968Y-8377436D01*
X2731968Y-8377436D02*
X2722444Y-8386960D01*
X2722444Y-8386960D02*
X2703396Y-8396484D01*
X2703396Y-8396484D02*
X2646253Y-8396484D01*
X2646253Y-8396484D02*
X2627206Y-8386960D01*
X2627206Y-8386960D02*
X2617682Y-8377436D01*
X2836729Y-8396484D02*
X2874825Y-8396484D01*
X2874825Y-8396484D02*
X2893872Y-8386960D01*
X2893872Y-8386960D02*
X2903396Y-8377436D01*
X2903396Y-8377436D02*
X2922444Y-8348865D01*
X2922444Y-8348865D02*
X2931967Y-8310769D01*
X2931967Y-8310769D02*
X2931967Y-8234579D01*
X2931967Y-8234579D02*
X2922444Y-8215531D01*
X2922444Y-8215531D02*
X2912920Y-8206008D01*
X2912920Y-8206008D02*
X2893872Y-8196484D01*
X2893872Y-8196484D02*
X2855777Y-8196484D01*
X2855777Y-8196484D02*
X2836729Y-8206008D01*
X2836729Y-8206008D02*
X2827206Y-8215531D01*
X2827206Y-8215531D02*
X2817682Y-8234579D01*
X2817682Y-8234579D02*
X2817682Y-8282198D01*
X2817682Y-8282198D02*
X2827206Y-8301246D01*
X2827206Y-8301246D02*
X2836729Y-8310769D01*
X2836729Y-8310769D02*
X2855777Y-8320293D01*
X2855777Y-8320293D02*
X2893872Y-8320293D01*
X2893872Y-8320293D02*
X2912920Y-8310769D01*
X2912920Y-8310769D02*
X2922444Y-8301246D01*
X2922444Y-8301246D02*
X2931967Y-8282198D01*
X3103396Y-8263150D02*
X3103396Y-8396484D01*
X3055777Y-8186960D02*
X3008158Y-8329817D01*
X3008158Y-8329817D02*
X3131967Y-8329817D01*
X3198634Y-8196484D02*
X3198634Y-8234579D01*
X3274825Y-8196484D02*
X3274825Y-8234579D01*
X3570063Y-8472674D02*
X3560539Y-8463150D01*
X3560539Y-8463150D02*
X3541491Y-8434579D01*
X3541491Y-8434579D02*
X3531968Y-8415531D01*
X3531968Y-8415531D02*
X3522444Y-8386960D01*
X3522444Y-8386960D02*
X3512920Y-8339341D01*
X3512920Y-8339341D02*
X3512920Y-8301246D01*
X3512920Y-8301246D02*
X3522444Y-8253627D01*
X3522444Y-8253627D02*
X3531968Y-8225055D01*
X3531968Y-8225055D02*
X3541491Y-8206008D01*
X3541491Y-8206008D02*
X3560539Y-8177436D01*
X3560539Y-8177436D02*
X3570063Y-8167912D01*
X3674825Y-8282198D02*
X3655777Y-8272674D01*
X3655777Y-8272674D02*
X3646253Y-8263150D01*
X3646253Y-8263150D02*
X3636729Y-8244103D01*
X3636729Y-8244103D02*
X3636729Y-8234579D01*
X3636729Y-8234579D02*
X3646253Y-8215531D01*
X3646253Y-8215531D02*
X3655777Y-8206008D01*
X3655777Y-8206008D02*
X3674825Y-8196484D01*
X3674825Y-8196484D02*
X3712920Y-8196484D01*
X3712920Y-8196484D02*
X3731968Y-8206008D01*
X3731968Y-8206008D02*
X3741491Y-8215531D01*
X3741491Y-8215531D02*
X3751015Y-8234579D01*
X3751015Y-8234579D02*
X3751015Y-8244103D01*
X3751015Y-8244103D02*
X3741491Y-8263150D01*
X3741491Y-8263150D02*
X3731968Y-8272674D01*
X3731968Y-8272674D02*
X3712920Y-8282198D01*
X3712920Y-8282198D02*
X3674825Y-8282198D01*
X3674825Y-8282198D02*
X3655777Y-8291722D01*
X3655777Y-8291722D02*
X3646253Y-8301246D01*
X3646253Y-8301246D02*
X3636729Y-8320293D01*
X3636729Y-8320293D02*
X3636729Y-8358388D01*
X3636729Y-8358388D02*
X3646253Y-8377436D01*
X3646253Y-8377436D02*
X3655777Y-8386960D01*
X3655777Y-8386960D02*
X3674825Y-8396484D01*
X3674825Y-8396484D02*
X3712920Y-8396484D01*
X3712920Y-8396484D02*
X3731968Y-8386960D01*
X3731968Y-8386960D02*
X3741491Y-8377436D01*
X3741491Y-8377436D02*
X3751015Y-8358388D01*
X3751015Y-8358388D02*
X3751015Y-8320293D01*
X3751015Y-8320293D02*
X3741491Y-8301246D01*
X3741491Y-8301246D02*
X3731968Y-8291722D01*
X3731968Y-8291722D02*
X3712920Y-8282198D01*
X3989110Y-8396484D02*
X3989110Y-8196484D01*
X4074825Y-8396484D02*
X4074825Y-8291722D01*
X4074825Y-8291722D02*
X4065301Y-8272674D01*
X4065301Y-8272674D02*
X4046253Y-8263150D01*
X4046253Y-8263150D02*
X4017682Y-8263150D01*
X4017682Y-8263150D02*
X3998634Y-8272674D01*
X3998634Y-8272674D02*
X3989110Y-8282198D01*
X4198634Y-8396484D02*
X4179587Y-8386960D01*
X4179587Y-8386960D02*
X4170063Y-8377436D01*
X4170063Y-8377436D02*
X4160539Y-8358388D01*
X4160539Y-8358388D02*
X4160539Y-8301246D01*
X4160539Y-8301246D02*
X4170063Y-8282198D01*
X4170063Y-8282198D02*
X4179587Y-8272674D01*
X4179587Y-8272674D02*
X4198634Y-8263150D01*
X4198634Y-8263150D02*
X4227206Y-8263150D01*
X4227206Y-8263150D02*
X4246253Y-8272674D01*
X4246253Y-8272674D02*
X4255777Y-8282198D01*
X4255777Y-8282198D02*
X4265301Y-8301246D01*
X4265301Y-8301246D02*
X4265301Y-8358388D01*
X4265301Y-8358388D02*
X4255777Y-8377436D01*
X4255777Y-8377436D02*
X4246253Y-8386960D01*
X4246253Y-8386960D02*
X4227206Y-8396484D01*
X4227206Y-8396484D02*
X4198634Y-8396484D01*
X4379587Y-8396484D02*
X4360539Y-8386960D01*
X4360539Y-8386960D02*
X4351015Y-8367912D01*
X4351015Y-8367912D02*
X4351015Y-8196484D01*
X4531968Y-8386960D02*
X4512920Y-8396484D01*
X4512920Y-8396484D02*
X4474825Y-8396484D01*
X4474825Y-8396484D02*
X4455777Y-8386960D01*
X4455777Y-8386960D02*
X4446253Y-8367912D01*
X4446253Y-8367912D02*
X4446253Y-8291722D01*
X4446253Y-8291722D02*
X4455777Y-8272674D01*
X4455777Y-8272674D02*
X4474825Y-8263150D01*
X4474825Y-8263150D02*
X4512920Y-8263150D01*
X4512920Y-8263150D02*
X4531968Y-8272674D01*
X4531968Y-8272674D02*
X4541492Y-8291722D01*
X4541492Y-8291722D02*
X4541492Y-8310769D01*
X4541492Y-8310769D02*
X4446253Y-8329817D01*
X4617682Y-8386960D02*
X4636730Y-8396484D01*
X4636730Y-8396484D02*
X4674825Y-8396484D01*
X4674825Y-8396484D02*
X4693873Y-8386960D01*
X4693873Y-8386960D02*
X4703396Y-8367912D01*
X4703396Y-8367912D02*
X4703396Y-8358388D01*
X4703396Y-8358388D02*
X4693873Y-8339341D01*
X4693873Y-8339341D02*
X4674825Y-8329817D01*
X4674825Y-8329817D02*
X4646253Y-8329817D01*
X4646253Y-8329817D02*
X4627206Y-8320293D01*
X4627206Y-8320293D02*
X4617682Y-8301246D01*
X4617682Y-8301246D02*
X4617682Y-8291722D01*
X4617682Y-8291722D02*
X4627206Y-8272674D01*
X4627206Y-8272674D02*
X4646253Y-8263150D01*
X4646253Y-8263150D02*
X4674825Y-8263150D01*
X4674825Y-8263150D02*
X4693873Y-8272674D01*
X4770063Y-8472674D02*
X4779587Y-8463150D01*
X4779587Y-8463150D02*
X4798634Y-8434579D01*
X4798634Y-8434579D02*
X4808158Y-8415531D01*
X4808158Y-8415531D02*
X4817682Y-8386960D01*
X4817682Y-8386960D02*
X4827206Y-8339341D01*
X4827206Y-8339341D02*
X4827206Y-8301246D01*
X4827206Y-8301246D02*
X4817682Y-8253627D01*
X4817682Y-8253627D02*
X4808158Y-8225055D01*
X4808158Y-8225055D02*
X4798634Y-8206008D01*
X4798634Y-8206008D02*
X4779587Y-8177436D01*
X4779587Y-8177436D02*
X4770063Y-8167912D01*
D12*
X-107000Y-8518000D02*
X-5000Y-8620000D01*
X-5000Y-8518000D02*
X-107000Y-8620000D01*
X-5000Y-8569000D02*
G75*
G02*
X-107000Y-8569000I-51000J0D01*
G01*
X-107000Y-8569000D02*
G75*
G02*
X-5000Y-8569000I51000J0D01*
G01*
D11*
X360539Y-8660484D02*
X246253Y-8660484D01*
X303396Y-8660484D02*
X303396Y-8460484D01*
X303396Y-8460484D02*
X284348Y-8489055D01*
X284348Y-8489055D02*
X265301Y-8508103D01*
X265301Y-8508103D02*
X246253Y-8517627D01*
X455777Y-8650960D02*
X455777Y-8660484D01*
X455777Y-8660484D02*
X446253Y-8679531D01*
X446253Y-8679531D02*
X436729Y-8689055D01*
X579586Y-8460484D02*
X598634Y-8460484D01*
X598634Y-8460484D02*
X617682Y-8470008D01*
X617682Y-8470008D02*
X627205Y-8479531D01*
X627205Y-8479531D02*
X636729Y-8498579D01*
X636729Y-8498579D02*
X646253Y-8536674D01*
X646253Y-8536674D02*
X646253Y-8584293D01*
X646253Y-8584293D02*
X636729Y-8622389D01*
X636729Y-8622389D02*
X627205Y-8641436D01*
X627205Y-8641436D02*
X617682Y-8650960D01*
X617682Y-8650960D02*
X598634Y-8660484D01*
X598634Y-8660484D02*
X579586Y-8660484D01*
X579586Y-8660484D02*
X560539Y-8650960D01*
X560539Y-8650960D02*
X551015Y-8641436D01*
X551015Y-8641436D02*
X541491Y-8622389D01*
X541491Y-8622389D02*
X531967Y-8584293D01*
X531967Y-8584293D02*
X531967Y-8536674D01*
X531967Y-8536674D02*
X541491Y-8498579D01*
X541491Y-8498579D02*
X551015Y-8479531D01*
X551015Y-8479531D02*
X560539Y-8470008D01*
X560539Y-8470008D02*
X579586Y-8460484D01*
X722443Y-8479531D02*
X731967Y-8470008D01*
X731967Y-8470008D02*
X751015Y-8460484D01*
X751015Y-8460484D02*
X798634Y-8460484D01*
X798634Y-8460484D02*
X817682Y-8470008D01*
X817682Y-8470008D02*
X827205Y-8479531D01*
X827205Y-8479531D02*
X836729Y-8498579D01*
X836729Y-8498579D02*
X836729Y-8517627D01*
X836729Y-8517627D02*
X827205Y-8546198D01*
X827205Y-8546198D02*
X712920Y-8660484D01*
X712920Y-8660484D02*
X836729Y-8660484D01*
X960539Y-8460484D02*
X979586Y-8460484D01*
X979586Y-8460484D02*
X998634Y-8470008D01*
X998634Y-8470008D02*
X1008158Y-8479531D01*
X1008158Y-8479531D02*
X1017682Y-8498579D01*
X1017682Y-8498579D02*
X1027205Y-8536674D01*
X1027205Y-8536674D02*
X1027205Y-8584293D01*
X1027205Y-8584293D02*
X1017682Y-8622389D01*
X1017682Y-8622389D02*
X1008158Y-8641436D01*
X1008158Y-8641436D02*
X998634Y-8650960D01*
X998634Y-8650960D02*
X979586Y-8660484D01*
X979586Y-8660484D02*
X960539Y-8660484D01*
X960539Y-8660484D02*
X941491Y-8650960D01*
X941491Y-8650960D02*
X931967Y-8641436D01*
X931967Y-8641436D02*
X922443Y-8622389D01*
X922443Y-8622389D02*
X912920Y-8584293D01*
X912920Y-8584293D02*
X912920Y-8536674D01*
X912920Y-8536674D02*
X922443Y-8498579D01*
X922443Y-8498579D02*
X931967Y-8479531D01*
X931967Y-8479531D02*
X941491Y-8470008D01*
X941491Y-8470008D02*
X960539Y-8460484D01*
X1112920Y-8660484D02*
X1112920Y-8527150D01*
X1112920Y-8546198D02*
X1122444Y-8536674D01*
X1122444Y-8536674D02*
X1141491Y-8527150D01*
X1141491Y-8527150D02*
X1170063Y-8527150D01*
X1170063Y-8527150D02*
X1189110Y-8536674D01*
X1189110Y-8536674D02*
X1198634Y-8555722D01*
X1198634Y-8555722D02*
X1198634Y-8660484D01*
X1198634Y-8555722D02*
X1208158Y-8536674D01*
X1208158Y-8536674D02*
X1227205Y-8527150D01*
X1227205Y-8527150D02*
X1255777Y-8527150D01*
X1255777Y-8527150D02*
X1274825Y-8536674D01*
X1274825Y-8536674D02*
X1284348Y-8555722D01*
X1284348Y-8555722D02*
X1284348Y-8660484D01*
X1379586Y-8660484D02*
X1379586Y-8527150D01*
X1379586Y-8546198D02*
X1389110Y-8536674D01*
X1389110Y-8536674D02*
X1408158Y-8527150D01*
X1408158Y-8527150D02*
X1436729Y-8527150D01*
X1436729Y-8527150D02*
X1455777Y-8536674D01*
X1455777Y-8536674D02*
X1465301Y-8555722D01*
X1465301Y-8555722D02*
X1465301Y-8660484D01*
X1465301Y-8555722D02*
X1474824Y-8536674D01*
X1474824Y-8536674D02*
X1493872Y-8527150D01*
X1493872Y-8527150D02*
X1522443Y-8527150D01*
X1522443Y-8527150D02*
X1541491Y-8536674D01*
X1541491Y-8536674D02*
X1551015Y-8555722D01*
X1551015Y-8555722D02*
X1551015Y-8660484D01*
X1941491Y-8450960D02*
X1770063Y-8708103D01*
X2198634Y-8460484D02*
X2217682Y-8460484D01*
X2217682Y-8460484D02*
X2236729Y-8470008D01*
X2236729Y-8470008D02*
X2246253Y-8479531D01*
X2246253Y-8479531D02*
X2255777Y-8498579D01*
X2255777Y-8498579D02*
X2265301Y-8536674D01*
X2265301Y-8536674D02*
X2265301Y-8584293D01*
X2265301Y-8584293D02*
X2255777Y-8622389D01*
X2255777Y-8622389D02*
X2246253Y-8641436D01*
X2246253Y-8641436D02*
X2236729Y-8650960D01*
X2236729Y-8650960D02*
X2217682Y-8660484D01*
X2217682Y-8660484D02*
X2198634Y-8660484D01*
X2198634Y-8660484D02*
X2179587Y-8650960D01*
X2179587Y-8650960D02*
X2170063Y-8641436D01*
X2170063Y-8641436D02*
X2160539Y-8622389D01*
X2160539Y-8622389D02*
X2151015Y-8584293D01*
X2151015Y-8584293D02*
X2151015Y-8536674D01*
X2151015Y-8536674D02*
X2160539Y-8498579D01*
X2160539Y-8498579D02*
X2170063Y-8479531D01*
X2170063Y-8479531D02*
X2179587Y-8470008D01*
X2179587Y-8470008D02*
X2198634Y-8460484D01*
X2360539Y-8650960D02*
X2360539Y-8660484D01*
X2360539Y-8660484D02*
X2351015Y-8679531D01*
X2351015Y-8679531D02*
X2341491Y-8689055D01*
X2484348Y-8460484D02*
X2503396Y-8460484D01*
X2503396Y-8460484D02*
X2522444Y-8470008D01*
X2522444Y-8470008D02*
X2531968Y-8479531D01*
X2531968Y-8479531D02*
X2541491Y-8498579D01*
X2541491Y-8498579D02*
X2551015Y-8536674D01*
X2551015Y-8536674D02*
X2551015Y-8584293D01*
X2551015Y-8584293D02*
X2541491Y-8622389D01*
X2541491Y-8622389D02*
X2531968Y-8641436D01*
X2531968Y-8641436D02*
X2522444Y-8650960D01*
X2522444Y-8650960D02*
X2503396Y-8660484D01*
X2503396Y-8660484D02*
X2484348Y-8660484D01*
X2484348Y-8660484D02*
X2465301Y-8650960D01*
X2465301Y-8650960D02*
X2455777Y-8641436D01*
X2455777Y-8641436D02*
X2446253Y-8622389D01*
X2446253Y-8622389D02*
X2436729Y-8584293D01*
X2436729Y-8584293D02*
X2436729Y-8536674D01*
X2436729Y-8536674D02*
X2446253Y-8498579D01*
X2446253Y-8498579D02*
X2455777Y-8479531D01*
X2455777Y-8479531D02*
X2465301Y-8470008D01*
X2465301Y-8470008D02*
X2484348Y-8460484D01*
X2722444Y-8527150D02*
X2722444Y-8660484D01*
X2674825Y-8450960D02*
X2627206Y-8593817D01*
X2627206Y-8593817D02*
X2751015Y-8593817D01*
X2865301Y-8460484D02*
X2884348Y-8460484D01*
X2884348Y-8460484D02*
X2903396Y-8470008D01*
X2903396Y-8470008D02*
X2912920Y-8479531D01*
X2912920Y-8479531D02*
X2922444Y-8498579D01*
X2922444Y-8498579D02*
X2931967Y-8536674D01*
X2931967Y-8536674D02*
X2931967Y-8584293D01*
X2931967Y-8584293D02*
X2922444Y-8622389D01*
X2922444Y-8622389D02*
X2912920Y-8641436D01*
X2912920Y-8641436D02*
X2903396Y-8650960D01*
X2903396Y-8650960D02*
X2884348Y-8660484D01*
X2884348Y-8660484D02*
X2865301Y-8660484D01*
X2865301Y-8660484D02*
X2846253Y-8650960D01*
X2846253Y-8650960D02*
X2836729Y-8641436D01*
X2836729Y-8641436D02*
X2827206Y-8622389D01*
X2827206Y-8622389D02*
X2817682Y-8584293D01*
X2817682Y-8584293D02*
X2817682Y-8536674D01*
X2817682Y-8536674D02*
X2827206Y-8498579D01*
X2827206Y-8498579D02*
X2836729Y-8479531D01*
X2836729Y-8479531D02*
X2846253Y-8470008D01*
X2846253Y-8470008D02*
X2865301Y-8460484D01*
X3008158Y-8479531D02*
X3017682Y-8470008D01*
X3017682Y-8470008D02*
X3036729Y-8460484D01*
X3036729Y-8460484D02*
X3084348Y-8460484D01*
X3084348Y-8460484D02*
X3103396Y-8470008D01*
X3103396Y-8470008D02*
X3112920Y-8479531D01*
X3112920Y-8479531D02*
X3122444Y-8498579D01*
X3122444Y-8498579D02*
X3122444Y-8517627D01*
X3122444Y-8517627D02*
X3112920Y-8546198D01*
X3112920Y-8546198D02*
X2998634Y-8660484D01*
X2998634Y-8660484D02*
X3122444Y-8660484D01*
X3198634Y-8460484D02*
X3198634Y-8498579D01*
X3274825Y-8460484D02*
X3274825Y-8498579D01*
X3570063Y-8736674D02*
X3560539Y-8727150D01*
X3560539Y-8727150D02*
X3541491Y-8698579D01*
X3541491Y-8698579D02*
X3531968Y-8679531D01*
X3531968Y-8679531D02*
X3522444Y-8650960D01*
X3522444Y-8650960D02*
X3512920Y-8603341D01*
X3512920Y-8603341D02*
X3512920Y-8565246D01*
X3512920Y-8565246D02*
X3522444Y-8517627D01*
X3522444Y-8517627D02*
X3531968Y-8489055D01*
X3531968Y-8489055D02*
X3541491Y-8470008D01*
X3541491Y-8470008D02*
X3560539Y-8441436D01*
X3560539Y-8441436D02*
X3570063Y-8431912D01*
X3741491Y-8460484D02*
X3646253Y-8460484D01*
X3646253Y-8460484D02*
X3636729Y-8555722D01*
X3636729Y-8555722D02*
X3646253Y-8546198D01*
X3646253Y-8546198D02*
X3665301Y-8536674D01*
X3665301Y-8536674D02*
X3712920Y-8536674D01*
X3712920Y-8536674D02*
X3731968Y-8546198D01*
X3731968Y-8546198D02*
X3741491Y-8555722D01*
X3741491Y-8555722D02*
X3751015Y-8574770D01*
X3751015Y-8574770D02*
X3751015Y-8622389D01*
X3751015Y-8622389D02*
X3741491Y-8641436D01*
X3741491Y-8641436D02*
X3731968Y-8650960D01*
X3731968Y-8650960D02*
X3712920Y-8660484D01*
X3712920Y-8660484D02*
X3665301Y-8660484D01*
X3665301Y-8660484D02*
X3646253Y-8650960D01*
X3646253Y-8650960D02*
X3636729Y-8641436D01*
X3922444Y-8527150D02*
X3922444Y-8660484D01*
X3874825Y-8450960D02*
X3827206Y-8593817D01*
X3827206Y-8593817D02*
X3951015Y-8593817D01*
X4179587Y-8660484D02*
X4179587Y-8460484D01*
X4265301Y-8660484D02*
X4265301Y-8555722D01*
X4265301Y-8555722D02*
X4255777Y-8536674D01*
X4255777Y-8536674D02*
X4236730Y-8527150D01*
X4236730Y-8527150D02*
X4208158Y-8527150D01*
X4208158Y-8527150D02*
X4189110Y-8536674D01*
X4189110Y-8536674D02*
X4179587Y-8546198D01*
X4389111Y-8660484D02*
X4370063Y-8650960D01*
X4370063Y-8650960D02*
X4360539Y-8641436D01*
X4360539Y-8641436D02*
X4351015Y-8622389D01*
X4351015Y-8622389D02*
X4351015Y-8565246D01*
X4351015Y-8565246D02*
X4360539Y-8546198D01*
X4360539Y-8546198D02*
X4370063Y-8536674D01*
X4370063Y-8536674D02*
X4389111Y-8527150D01*
X4389111Y-8527150D02*
X4417682Y-8527150D01*
X4417682Y-8527150D02*
X4436730Y-8536674D01*
X4436730Y-8536674D02*
X4446253Y-8546198D01*
X4446253Y-8546198D02*
X4455777Y-8565246D01*
X4455777Y-8565246D02*
X4455777Y-8622389D01*
X4455777Y-8622389D02*
X4446253Y-8641436D01*
X4446253Y-8641436D02*
X4436730Y-8650960D01*
X4436730Y-8650960D02*
X4417682Y-8660484D01*
X4417682Y-8660484D02*
X4389111Y-8660484D01*
X4570063Y-8660484D02*
X4551015Y-8650960D01*
X4551015Y-8650960D02*
X4541492Y-8631912D01*
X4541492Y-8631912D02*
X4541492Y-8460484D01*
X4722444Y-8650960D02*
X4703396Y-8660484D01*
X4703396Y-8660484D02*
X4665301Y-8660484D01*
X4665301Y-8660484D02*
X4646253Y-8650960D01*
X4646253Y-8650960D02*
X4636730Y-8631912D01*
X4636730Y-8631912D02*
X4636730Y-8555722D01*
X4636730Y-8555722D02*
X4646253Y-8536674D01*
X4646253Y-8536674D02*
X4665301Y-8527150D01*
X4665301Y-8527150D02*
X4703396Y-8527150D01*
X4703396Y-8527150D02*
X4722444Y-8536674D01*
X4722444Y-8536674D02*
X4731968Y-8555722D01*
X4731968Y-8555722D02*
X4731968Y-8574770D01*
X4731968Y-8574770D02*
X4636730Y-8593817D01*
X4808158Y-8650960D02*
X4827206Y-8660484D01*
X4827206Y-8660484D02*
X4865301Y-8660484D01*
X4865301Y-8660484D02*
X4884349Y-8650960D01*
X4884349Y-8650960D02*
X4893873Y-8631912D01*
X4893873Y-8631912D02*
X4893873Y-8622389D01*
X4893873Y-8622389D02*
X4884349Y-8603341D01*
X4884349Y-8603341D02*
X4865301Y-8593817D01*
X4865301Y-8593817D02*
X4836730Y-8593817D01*
X4836730Y-8593817D02*
X4817682Y-8584293D01*
X4817682Y-8584293D02*
X4808158Y-8565246D01*
X4808158Y-8565246D02*
X4808158Y-8555722D01*
X4808158Y-8555722D02*
X4817682Y-8536674D01*
X4817682Y-8536674D02*
X4836730Y-8527150D01*
X4836730Y-8527150D02*
X4865301Y-8527150D01*
X4865301Y-8527150D02*
X4884349Y-8536674D01*
X4960539Y-8736674D02*
X4970063Y-8727150D01*
X4970063Y-8727150D02*
X4989111Y-8698579D01*
X4989111Y-8698579D02*
X4998634Y-8679531D01*
X4998634Y-8679531D02*
X5008158Y-8650960D01*
X5008158Y-8650960D02*
X5017682Y-8603341D01*
X5017682Y-8603341D02*
X5017682Y-8565246D01*
X5017682Y-8565246D02*
X5008158Y-8517627D01*
X5008158Y-8517627D02*
X4998634Y-8489055D01*
X4998634Y-8489055D02*
X4989111Y-8470008D01*
X4989111Y-8470008D02*
X4970063Y-8441436D01*
X4970063Y-8441436D02*
X4960539Y-8431912D01*
X-205000Y-8733000D02*
X-5000Y-8933000D01*
X-5000Y-8733000D02*
X-205000Y-8933000D01*
X-105000Y-8733000D02*
X-105000Y-8933000D01*
X-205000Y-8833000D02*
X-5000Y-8833000D01*
X246253Y-8743531D02*
X255777Y-8734008D01*
X255777Y-8734008D02*
X274824Y-8724484D01*
X274824Y-8724484D02*
X322444Y-8724484D01*
X322444Y-8724484D02*
X341491Y-8734008D01*
X341491Y-8734008D02*
X351015Y-8743531D01*
X351015Y-8743531D02*
X360539Y-8762579D01*
X360539Y-8762579D02*
X360539Y-8781627D01*
X360539Y-8781627D02*
X351015Y-8810198D01*
X351015Y-8810198D02*
X236729Y-8924484D01*
X236729Y-8924484D02*
X360539Y-8924484D01*
X455777Y-8914960D02*
X455777Y-8924484D01*
X455777Y-8924484D02*
X446253Y-8943531D01*
X446253Y-8943531D02*
X436729Y-8953055D01*
X522443Y-8724484D02*
X655777Y-8724484D01*
X655777Y-8724484D02*
X570063Y-8924484D01*
X770062Y-8724484D02*
X789110Y-8724484D01*
X789110Y-8724484D02*
X808158Y-8734008D01*
X808158Y-8734008D02*
X817682Y-8743531D01*
X817682Y-8743531D02*
X827205Y-8762579D01*
X827205Y-8762579D02*
X836729Y-8800674D01*
X836729Y-8800674D02*
X836729Y-8848293D01*
X836729Y-8848293D02*
X827205Y-8886389D01*
X827205Y-8886389D02*
X817682Y-8905436D01*
X817682Y-8905436D02*
X808158Y-8914960D01*
X808158Y-8914960D02*
X789110Y-8924484D01*
X789110Y-8924484D02*
X770062Y-8924484D01*
X770062Y-8924484D02*
X751015Y-8914960D01*
X751015Y-8914960D02*
X741491Y-8905436D01*
X741491Y-8905436D02*
X731967Y-8886389D01*
X731967Y-8886389D02*
X722443Y-8848293D01*
X722443Y-8848293D02*
X722443Y-8800674D01*
X722443Y-8800674D02*
X731967Y-8762579D01*
X731967Y-8762579D02*
X741491Y-8743531D01*
X741491Y-8743531D02*
X751015Y-8734008D01*
X751015Y-8734008D02*
X770062Y-8724484D01*
X960539Y-8724484D02*
X979586Y-8724484D01*
X979586Y-8724484D02*
X998634Y-8734008D01*
X998634Y-8734008D02*
X1008158Y-8743531D01*
X1008158Y-8743531D02*
X1017682Y-8762579D01*
X1017682Y-8762579D02*
X1027205Y-8800674D01*
X1027205Y-8800674D02*
X1027205Y-8848293D01*
X1027205Y-8848293D02*
X1017682Y-8886389D01*
X1017682Y-8886389D02*
X1008158Y-8905436D01*
X1008158Y-8905436D02*
X998634Y-8914960D01*
X998634Y-8914960D02*
X979586Y-8924484D01*
X979586Y-8924484D02*
X960539Y-8924484D01*
X960539Y-8924484D02*
X941491Y-8914960D01*
X941491Y-8914960D02*
X931967Y-8905436D01*
X931967Y-8905436D02*
X922443Y-8886389D01*
X922443Y-8886389D02*
X912920Y-8848293D01*
X912920Y-8848293D02*
X912920Y-8800674D01*
X912920Y-8800674D02*
X922443Y-8762579D01*
X922443Y-8762579D02*
X931967Y-8743531D01*
X931967Y-8743531D02*
X941491Y-8734008D01*
X941491Y-8734008D02*
X960539Y-8724484D01*
X1112920Y-8924484D02*
X1112920Y-8791150D01*
X1112920Y-8810198D02*
X1122444Y-8800674D01*
X1122444Y-8800674D02*
X1141491Y-8791150D01*
X1141491Y-8791150D02*
X1170063Y-8791150D01*
X1170063Y-8791150D02*
X1189110Y-8800674D01*
X1189110Y-8800674D02*
X1198634Y-8819722D01*
X1198634Y-8819722D02*
X1198634Y-8924484D01*
X1198634Y-8819722D02*
X1208158Y-8800674D01*
X1208158Y-8800674D02*
X1227205Y-8791150D01*
X1227205Y-8791150D02*
X1255777Y-8791150D01*
X1255777Y-8791150D02*
X1274825Y-8800674D01*
X1274825Y-8800674D02*
X1284348Y-8819722D01*
X1284348Y-8819722D02*
X1284348Y-8924484D01*
X1379586Y-8924484D02*
X1379586Y-8791150D01*
X1379586Y-8810198D02*
X1389110Y-8800674D01*
X1389110Y-8800674D02*
X1408158Y-8791150D01*
X1408158Y-8791150D02*
X1436729Y-8791150D01*
X1436729Y-8791150D02*
X1455777Y-8800674D01*
X1455777Y-8800674D02*
X1465301Y-8819722D01*
X1465301Y-8819722D02*
X1465301Y-8924484D01*
X1465301Y-8819722D02*
X1474824Y-8800674D01*
X1474824Y-8800674D02*
X1493872Y-8791150D01*
X1493872Y-8791150D02*
X1522443Y-8791150D01*
X1522443Y-8791150D02*
X1541491Y-8800674D01*
X1541491Y-8800674D02*
X1551015Y-8819722D01*
X1551015Y-8819722D02*
X1551015Y-8924484D01*
X1941491Y-8714960D02*
X1770063Y-8972103D01*
X2198634Y-8724484D02*
X2217682Y-8724484D01*
X2217682Y-8724484D02*
X2236729Y-8734008D01*
X2236729Y-8734008D02*
X2246253Y-8743531D01*
X2246253Y-8743531D02*
X2255777Y-8762579D01*
X2255777Y-8762579D02*
X2265301Y-8800674D01*
X2265301Y-8800674D02*
X2265301Y-8848293D01*
X2265301Y-8848293D02*
X2255777Y-8886389D01*
X2255777Y-8886389D02*
X2246253Y-8905436D01*
X2246253Y-8905436D02*
X2236729Y-8914960D01*
X2236729Y-8914960D02*
X2217682Y-8924484D01*
X2217682Y-8924484D02*
X2198634Y-8924484D01*
X2198634Y-8924484D02*
X2179587Y-8914960D01*
X2179587Y-8914960D02*
X2170063Y-8905436D01*
X2170063Y-8905436D02*
X2160539Y-8886389D01*
X2160539Y-8886389D02*
X2151015Y-8848293D01*
X2151015Y-8848293D02*
X2151015Y-8800674D01*
X2151015Y-8800674D02*
X2160539Y-8762579D01*
X2160539Y-8762579D02*
X2170063Y-8743531D01*
X2170063Y-8743531D02*
X2179587Y-8734008D01*
X2179587Y-8734008D02*
X2198634Y-8724484D01*
X2360539Y-8914960D02*
X2360539Y-8924484D01*
X2360539Y-8924484D02*
X2351015Y-8943531D01*
X2351015Y-8943531D02*
X2341491Y-8953055D01*
X2551015Y-8924484D02*
X2436729Y-8924484D01*
X2493872Y-8924484D02*
X2493872Y-8724484D01*
X2493872Y-8724484D02*
X2474825Y-8753055D01*
X2474825Y-8753055D02*
X2455777Y-8772103D01*
X2455777Y-8772103D02*
X2436729Y-8781627D01*
X2674825Y-8724484D02*
X2693872Y-8724484D01*
X2693872Y-8724484D02*
X2712920Y-8734008D01*
X2712920Y-8734008D02*
X2722444Y-8743531D01*
X2722444Y-8743531D02*
X2731968Y-8762579D01*
X2731968Y-8762579D02*
X2741491Y-8800674D01*
X2741491Y-8800674D02*
X2741491Y-8848293D01*
X2741491Y-8848293D02*
X2731968Y-8886389D01*
X2731968Y-8886389D02*
X2722444Y-8905436D01*
X2722444Y-8905436D02*
X2712920Y-8914960D01*
X2712920Y-8914960D02*
X2693872Y-8924484D01*
X2693872Y-8924484D02*
X2674825Y-8924484D01*
X2674825Y-8924484D02*
X2655777Y-8914960D01*
X2655777Y-8914960D02*
X2646253Y-8905436D01*
X2646253Y-8905436D02*
X2636729Y-8886389D01*
X2636729Y-8886389D02*
X2627206Y-8848293D01*
X2627206Y-8848293D02*
X2627206Y-8800674D01*
X2627206Y-8800674D02*
X2636729Y-8762579D01*
X2636729Y-8762579D02*
X2646253Y-8743531D01*
X2646253Y-8743531D02*
X2655777Y-8734008D01*
X2655777Y-8734008D02*
X2674825Y-8724484D01*
X2912920Y-8724484D02*
X2874825Y-8724484D01*
X2874825Y-8724484D02*
X2855777Y-8734008D01*
X2855777Y-8734008D02*
X2846253Y-8743531D01*
X2846253Y-8743531D02*
X2827206Y-8772103D01*
X2827206Y-8772103D02*
X2817682Y-8810198D01*
X2817682Y-8810198D02*
X2817682Y-8886389D01*
X2817682Y-8886389D02*
X2827206Y-8905436D01*
X2827206Y-8905436D02*
X2836729Y-8914960D01*
X2836729Y-8914960D02*
X2855777Y-8924484D01*
X2855777Y-8924484D02*
X2893872Y-8924484D01*
X2893872Y-8924484D02*
X2912920Y-8914960D01*
X2912920Y-8914960D02*
X2922444Y-8905436D01*
X2922444Y-8905436D02*
X2931967Y-8886389D01*
X2931967Y-8886389D02*
X2931967Y-8838770D01*
X2931967Y-8838770D02*
X2922444Y-8819722D01*
X2922444Y-8819722D02*
X2912920Y-8810198D01*
X2912920Y-8810198D02*
X2893872Y-8800674D01*
X2893872Y-8800674D02*
X2855777Y-8800674D01*
X2855777Y-8800674D02*
X2836729Y-8810198D01*
X2836729Y-8810198D02*
X2827206Y-8819722D01*
X2827206Y-8819722D02*
X2817682Y-8838770D01*
X2998634Y-8724484D02*
X3122444Y-8724484D01*
X3122444Y-8724484D02*
X3055777Y-8800674D01*
X3055777Y-8800674D02*
X3084348Y-8800674D01*
X3084348Y-8800674D02*
X3103396Y-8810198D01*
X3103396Y-8810198D02*
X3112920Y-8819722D01*
X3112920Y-8819722D02*
X3122444Y-8838770D01*
X3122444Y-8838770D02*
X3122444Y-8886389D01*
X3122444Y-8886389D02*
X3112920Y-8905436D01*
X3112920Y-8905436D02*
X3103396Y-8914960D01*
X3103396Y-8914960D02*
X3084348Y-8924484D01*
X3084348Y-8924484D02*
X3027206Y-8924484D01*
X3027206Y-8924484D02*
X3008158Y-8914960D01*
X3008158Y-8914960D02*
X2998634Y-8905436D01*
X3198634Y-8724484D02*
X3198634Y-8762579D01*
X3274825Y-8724484D02*
X3274825Y-8762579D01*
X3570063Y-9000674D02*
X3560539Y-8991150D01*
X3560539Y-8991150D02*
X3541491Y-8962579D01*
X3541491Y-8962579D02*
X3531968Y-8943531D01*
X3531968Y-8943531D02*
X3522444Y-8914960D01*
X3522444Y-8914960D02*
X3512920Y-8867341D01*
X3512920Y-8867341D02*
X3512920Y-8829246D01*
X3512920Y-8829246D02*
X3522444Y-8781627D01*
X3522444Y-8781627D02*
X3531968Y-8753055D01*
X3531968Y-8753055D02*
X3541491Y-8734008D01*
X3541491Y-8734008D02*
X3560539Y-8705436D01*
X3560539Y-8705436D02*
X3570063Y-8695912D01*
X3751015Y-8924484D02*
X3636729Y-8924484D01*
X3693872Y-8924484D02*
X3693872Y-8724484D01*
X3693872Y-8724484D02*
X3674825Y-8753055D01*
X3674825Y-8753055D02*
X3655777Y-8772103D01*
X3655777Y-8772103D02*
X3636729Y-8781627D01*
X3989110Y-8924484D02*
X3989110Y-8724484D01*
X4074825Y-8924484D02*
X4074825Y-8819722D01*
X4074825Y-8819722D02*
X4065301Y-8800674D01*
X4065301Y-8800674D02*
X4046253Y-8791150D01*
X4046253Y-8791150D02*
X4017682Y-8791150D01*
X4017682Y-8791150D02*
X3998634Y-8800674D01*
X3998634Y-8800674D02*
X3989110Y-8810198D01*
X4198634Y-8924484D02*
X4179587Y-8914960D01*
X4179587Y-8914960D02*
X4170063Y-8905436D01*
X4170063Y-8905436D02*
X4160539Y-8886389D01*
X4160539Y-8886389D02*
X4160539Y-8829246D01*
X4160539Y-8829246D02*
X4170063Y-8810198D01*
X4170063Y-8810198D02*
X4179587Y-8800674D01*
X4179587Y-8800674D02*
X4198634Y-8791150D01*
X4198634Y-8791150D02*
X4227206Y-8791150D01*
X4227206Y-8791150D02*
X4246253Y-8800674D01*
X4246253Y-8800674D02*
X4255777Y-8810198D01*
X4255777Y-8810198D02*
X4265301Y-8829246D01*
X4265301Y-8829246D02*
X4265301Y-8886389D01*
X4265301Y-8886389D02*
X4255777Y-8905436D01*
X4255777Y-8905436D02*
X4246253Y-8914960D01*
X4246253Y-8914960D02*
X4227206Y-8924484D01*
X4227206Y-8924484D02*
X4198634Y-8924484D01*
X4379587Y-8924484D02*
X4360539Y-8914960D01*
X4360539Y-8914960D02*
X4351015Y-8895912D01*
X4351015Y-8895912D02*
X4351015Y-8724484D01*
X4531968Y-8914960D02*
X4512920Y-8924484D01*
X4512920Y-8924484D02*
X4474825Y-8924484D01*
X4474825Y-8924484D02*
X4455777Y-8914960D01*
X4455777Y-8914960D02*
X4446253Y-8895912D01*
X4446253Y-8895912D02*
X4446253Y-8819722D01*
X4446253Y-8819722D02*
X4455777Y-8800674D01*
X4455777Y-8800674D02*
X4474825Y-8791150D01*
X4474825Y-8791150D02*
X4512920Y-8791150D01*
X4512920Y-8791150D02*
X4531968Y-8800674D01*
X4531968Y-8800674D02*
X4541492Y-8819722D01*
X4541492Y-8819722D02*
X4541492Y-8838770D01*
X4541492Y-8838770D02*
X4446253Y-8857817D01*
X4608158Y-9000674D02*
X4617682Y-8991150D01*
X4617682Y-8991150D02*
X4636730Y-8962579D01*
X4636730Y-8962579D02*
X4646253Y-8943531D01*
X4646253Y-8943531D02*
X4655777Y-8914960D01*
X4655777Y-8914960D02*
X4665301Y-8867341D01*
X4665301Y-8867341D02*
X4665301Y-8829246D01*
X4665301Y-8829246D02*
X4655777Y-8781627D01*
X4655777Y-8781627D02*
X4646253Y-8753055D01*
X4646253Y-8753055D02*
X4636730Y-8734008D01*
X4636730Y-8734008D02*
X4617682Y-8705436D01*
X4617682Y-8705436D02*
X4608158Y-8695912D01*
X4970063Y-9000674D02*
X4960539Y-8991150D01*
X4960539Y-8991150D02*
X4941492Y-8962579D01*
X4941492Y-8962579D02*
X4931968Y-8943531D01*
X4931968Y-8943531D02*
X4922444Y-8914960D01*
X4922444Y-8914960D02*
X4912920Y-8867341D01*
X4912920Y-8867341D02*
X4912920Y-8829246D01*
X4912920Y-8829246D02*
X4922444Y-8781627D01*
X4922444Y-8781627D02*
X4931968Y-8753055D01*
X4931968Y-8753055D02*
X4941492Y-8734008D01*
X4941492Y-8734008D02*
X4960539Y-8705436D01*
X4960539Y-8705436D02*
X4970063Y-8695912D01*
X5046253Y-8791150D02*
X5046253Y-8924484D01*
X5046253Y-8810198D02*
X5055777Y-8800674D01*
X5055777Y-8800674D02*
X5074825Y-8791150D01*
X5074825Y-8791150D02*
X5103396Y-8791150D01*
X5103396Y-8791150D02*
X5122444Y-8800674D01*
X5122444Y-8800674D02*
X5131968Y-8819722D01*
X5131968Y-8819722D02*
X5131968Y-8924484D01*
X5255777Y-8924484D02*
X5236730Y-8914960D01*
X5236730Y-8914960D02*
X5227206Y-8905436D01*
X5227206Y-8905436D02*
X5217682Y-8886389D01*
X5217682Y-8886389D02*
X5217682Y-8829246D01*
X5217682Y-8829246D02*
X5227206Y-8810198D01*
X5227206Y-8810198D02*
X5236730Y-8800674D01*
X5236730Y-8800674D02*
X5255777Y-8791150D01*
X5255777Y-8791150D02*
X5284349Y-8791150D01*
X5284349Y-8791150D02*
X5303396Y-8800674D01*
X5303396Y-8800674D02*
X5312920Y-8810198D01*
X5312920Y-8810198D02*
X5322444Y-8829246D01*
X5322444Y-8829246D02*
X5322444Y-8886389D01*
X5322444Y-8886389D02*
X5312920Y-8905436D01*
X5312920Y-8905436D02*
X5303396Y-8914960D01*
X5303396Y-8914960D02*
X5284349Y-8924484D01*
X5284349Y-8924484D02*
X5255777Y-8924484D01*
X5379587Y-8791150D02*
X5455777Y-8791150D01*
X5408158Y-8724484D02*
X5408158Y-8895912D01*
X5408158Y-8895912D02*
X5417682Y-8914960D01*
X5417682Y-8914960D02*
X5436730Y-8924484D01*
X5436730Y-8924484D02*
X5455777Y-8924484D01*
X5674825Y-8791150D02*
X5674825Y-8991150D01*
X5674825Y-8800674D02*
X5693872Y-8791150D01*
X5693872Y-8791150D02*
X5731968Y-8791150D01*
X5731968Y-8791150D02*
X5751015Y-8800674D01*
X5751015Y-8800674D02*
X5760539Y-8810198D01*
X5760539Y-8810198D02*
X5770063Y-8829246D01*
X5770063Y-8829246D02*
X5770063Y-8886389D01*
X5770063Y-8886389D02*
X5760539Y-8905436D01*
X5760539Y-8905436D02*
X5751015Y-8914960D01*
X5751015Y-8914960D02*
X5731968Y-8924484D01*
X5731968Y-8924484D02*
X5693872Y-8924484D01*
X5693872Y-8924484D02*
X5674825Y-8914960D01*
X5884349Y-8924484D02*
X5865301Y-8914960D01*
X5865301Y-8914960D02*
X5855777Y-8895912D01*
X5855777Y-8895912D02*
X5855777Y-8724484D01*
X6046253Y-8924484D02*
X6046253Y-8819722D01*
X6046253Y-8819722D02*
X6036730Y-8800674D01*
X6036730Y-8800674D02*
X6017682Y-8791150D01*
X6017682Y-8791150D02*
X5979587Y-8791150D01*
X5979587Y-8791150D02*
X5960539Y-8800674D01*
X6046253Y-8914960D02*
X6027206Y-8924484D01*
X6027206Y-8924484D02*
X5979587Y-8924484D01*
X5979587Y-8924484D02*
X5960539Y-8914960D01*
X5960539Y-8914960D02*
X5951015Y-8895912D01*
X5951015Y-8895912D02*
X5951015Y-8876865D01*
X5951015Y-8876865D02*
X5960539Y-8857817D01*
X5960539Y-8857817D02*
X5979587Y-8848293D01*
X5979587Y-8848293D02*
X6027206Y-8848293D01*
X6027206Y-8848293D02*
X6046253Y-8838770D01*
X6112920Y-8791150D02*
X6189111Y-8791150D01*
X6141492Y-8724484D02*
X6141492Y-8895912D01*
X6141492Y-8895912D02*
X6151015Y-8914960D01*
X6151015Y-8914960D02*
X6170063Y-8924484D01*
X6170063Y-8924484D02*
X6189111Y-8924484D01*
X6331968Y-8914960D02*
X6312920Y-8924484D01*
X6312920Y-8924484D02*
X6274825Y-8924484D01*
X6274825Y-8924484D02*
X6255777Y-8914960D01*
X6255777Y-8914960D02*
X6246253Y-8895912D01*
X6246253Y-8895912D02*
X6246253Y-8819722D01*
X6246253Y-8819722D02*
X6255777Y-8800674D01*
X6255777Y-8800674D02*
X6274825Y-8791150D01*
X6274825Y-8791150D02*
X6312920Y-8791150D01*
X6312920Y-8791150D02*
X6331968Y-8800674D01*
X6331968Y-8800674D02*
X6341492Y-8819722D01*
X6341492Y-8819722D02*
X6341492Y-8838770D01*
X6341492Y-8838770D02*
X6246253Y-8857817D01*
X6512920Y-8924484D02*
X6512920Y-8724484D01*
X6512920Y-8914960D02*
X6493873Y-8924484D01*
X6493873Y-8924484D02*
X6455777Y-8924484D01*
X6455777Y-8924484D02*
X6436730Y-8914960D01*
X6436730Y-8914960D02*
X6427206Y-8905436D01*
X6427206Y-8905436D02*
X6417682Y-8886389D01*
X6417682Y-8886389D02*
X6417682Y-8829246D01*
X6417682Y-8829246D02*
X6427206Y-8810198D01*
X6427206Y-8810198D02*
X6436730Y-8800674D01*
X6436730Y-8800674D02*
X6455777Y-8791150D01*
X6455777Y-8791150D02*
X6493873Y-8791150D01*
X6493873Y-8791150D02*
X6512920Y-8800674D01*
X6589111Y-9000674D02*
X6598634Y-8991150D01*
X6598634Y-8991150D02*
X6617682Y-8962579D01*
X6617682Y-8962579D02*
X6627206Y-8943531D01*
X6627206Y-8943531D02*
X6636730Y-8914960D01*
X6636730Y-8914960D02*
X6646253Y-8867341D01*
X6646253Y-8867341D02*
X6646253Y-8829246D01*
X6646253Y-8829246D02*
X6636730Y-8781627D01*
X6636730Y-8781627D02*
X6627206Y-8753055D01*
X6627206Y-8753055D02*
X6617682Y-8734008D01*
X6617682Y-8734008D02*
X6598634Y-8705436D01*
X6598634Y-8705436D02*
X6589111Y-8695912D01*
M02*
