%TF.GenerationSoftware,KiCad,Pcbnew,10.0.4*%
%TF.CreationDate,2026-07-28T23:09:51-03:00*%
%TF.ProjectId,tkmem128,746b6d65-6d31-4323-982e-6b696361645f,rev?*%
%TF.SameCoordinates,Original*%
%TF.FileFunction,Legend,Bot*%
%TF.FilePolarity,Positive*%
%FSLAX46Y46*%
G04 Gerber Fmt 4.6, Leading zero omitted, Abs format (unit mm)*
G04 Created by KiCad (PCBNEW 10.0.4) date 2026-07-28 23:09:51*
%MOMM*%
%LPD*%
G01*
G04 APERTURE LIST*
%ADD10C,0.180000*%
%ADD11C,0.200000*%
%ADD12C,0.160000*%
%ADD13C,0.150000*%
G04 APERTURE END LIST*
D10*
X39028569Y-47506997D02*
X39028569Y-48149854D01*
X39028569Y-48149854D02*
X39071426Y-48278425D01*
X39071426Y-48278425D02*
X39157140Y-48364140D01*
X39157140Y-48364140D02*
X39285712Y-48406997D01*
X39285712Y-48406997D02*
X39371426Y-48406997D01*
X38599998Y-48406997D02*
X38599998Y-47506997D01*
X38599998Y-47506997D02*
X38257141Y-47506997D01*
X38257141Y-47506997D02*
X38171426Y-47549854D01*
X38171426Y-47549854D02*
X38128569Y-47592711D01*
X38128569Y-47592711D02*
X38085712Y-47678425D01*
X38085712Y-47678425D02*
X38085712Y-47806997D01*
X38085712Y-47806997D02*
X38128569Y-47892711D01*
X38128569Y-47892711D02*
X38171426Y-47935568D01*
X38171426Y-47935568D02*
X38257141Y-47978425D01*
X38257141Y-47978425D02*
X38599998Y-47978425D01*
X37228569Y-48406997D02*
X37742855Y-48406997D01*
X37485712Y-48406997D02*
X37485712Y-47506997D01*
X37485712Y-47506997D02*
X37571426Y-47635568D01*
X37571426Y-47635568D02*
X37657141Y-47721282D01*
X37657141Y-47721282D02*
X37742855Y-47764140D01*
X34999998Y-48406997D02*
X35514284Y-48406997D01*
X35257141Y-48406997D02*
X35257141Y-47506997D01*
X35257141Y-47506997D02*
X35342855Y-47635568D01*
X35342855Y-47635568D02*
X35428570Y-47721282D01*
X35428570Y-47721282D02*
X35514284Y-47764140D01*
X34614284Y-48064140D02*
X33928570Y-48064140D01*
X33542855Y-47592711D02*
X33499998Y-47549854D01*
X33499998Y-47549854D02*
X33414284Y-47506997D01*
X33414284Y-47506997D02*
X33199998Y-47506997D01*
X33199998Y-47506997D02*
X33114284Y-47549854D01*
X33114284Y-47549854D02*
X33071426Y-47592711D01*
X33071426Y-47592711D02*
X33028569Y-47678425D01*
X33028569Y-47678425D02*
X33028569Y-47764140D01*
X33028569Y-47764140D02*
X33071426Y-47892711D01*
X33071426Y-47892711D02*
X33585712Y-48406997D01*
X33585712Y-48406997D02*
X33028569Y-48406997D01*
X31957141Y-47935568D02*
X31271427Y-47935568D01*
X31271427Y-48192711D02*
X31957141Y-48192711D01*
X29642855Y-48406997D02*
X29942855Y-47978425D01*
X30157141Y-48406997D02*
X30157141Y-47506997D01*
X30157141Y-47506997D02*
X29814284Y-47506997D01*
X29814284Y-47506997D02*
X29728569Y-47549854D01*
X29728569Y-47549854D02*
X29685712Y-47592711D01*
X29685712Y-47592711D02*
X29642855Y-47678425D01*
X29642855Y-47678425D02*
X29642855Y-47806997D01*
X29642855Y-47806997D02*
X29685712Y-47892711D01*
X29685712Y-47892711D02*
X29728569Y-47935568D01*
X29728569Y-47935568D02*
X29814284Y-47978425D01*
X29814284Y-47978425D02*
X30157141Y-47978425D01*
X29085712Y-47506997D02*
X28914284Y-47506997D01*
X28914284Y-47506997D02*
X28828569Y-47549854D01*
X28828569Y-47549854D02*
X28742855Y-47635568D01*
X28742855Y-47635568D02*
X28699998Y-47806997D01*
X28699998Y-47806997D02*
X28699998Y-48106997D01*
X28699998Y-48106997D02*
X28742855Y-48278425D01*
X28742855Y-48278425D02*
X28828569Y-48364140D01*
X28828569Y-48364140D02*
X28914284Y-48406997D01*
X28914284Y-48406997D02*
X29085712Y-48406997D01*
X29085712Y-48406997D02*
X29171427Y-48364140D01*
X29171427Y-48364140D02*
X29257141Y-48278425D01*
X29257141Y-48278425D02*
X29299998Y-48106997D01*
X29299998Y-48106997D02*
X29299998Y-47806997D01*
X29299998Y-47806997D02*
X29257141Y-47635568D01*
X29257141Y-47635568D02*
X29171427Y-47549854D01*
X29171427Y-47549854D02*
X29085712Y-47506997D01*
X28314284Y-48406997D02*
X28314284Y-47506997D01*
X28314284Y-47506997D02*
X28014284Y-48149854D01*
X28014284Y-48149854D02*
X27714284Y-47506997D01*
X27714284Y-47506997D02*
X27714284Y-48406997D01*
X26128570Y-48406997D02*
X26642856Y-48406997D01*
X26385713Y-48406997D02*
X26385713Y-47506997D01*
X26385713Y-47506997D02*
X26471427Y-47635568D01*
X26471427Y-47635568D02*
X26557142Y-47721282D01*
X26557142Y-47721282D02*
X26642856Y-47764140D01*
X25785713Y-47592711D02*
X25742856Y-47549854D01*
X25742856Y-47549854D02*
X25657142Y-47506997D01*
X25657142Y-47506997D02*
X25442856Y-47506997D01*
X25442856Y-47506997D02*
X25357142Y-47549854D01*
X25357142Y-47549854D02*
X25314284Y-47592711D01*
X25314284Y-47592711D02*
X25271427Y-47678425D01*
X25271427Y-47678425D02*
X25271427Y-47764140D01*
X25271427Y-47764140D02*
X25314284Y-47892711D01*
X25314284Y-47892711D02*
X25828570Y-48406997D01*
X25828570Y-48406997D02*
X25271427Y-48406997D01*
X24757141Y-47892711D02*
X24842856Y-47849854D01*
X24842856Y-47849854D02*
X24885713Y-47806997D01*
X24885713Y-47806997D02*
X24928570Y-47721282D01*
X24928570Y-47721282D02*
X24928570Y-47678425D01*
X24928570Y-47678425D02*
X24885713Y-47592711D01*
X24885713Y-47592711D02*
X24842856Y-47549854D01*
X24842856Y-47549854D02*
X24757141Y-47506997D01*
X24757141Y-47506997D02*
X24585713Y-47506997D01*
X24585713Y-47506997D02*
X24499999Y-47549854D01*
X24499999Y-47549854D02*
X24457141Y-47592711D01*
X24457141Y-47592711D02*
X24414284Y-47678425D01*
X24414284Y-47678425D02*
X24414284Y-47721282D01*
X24414284Y-47721282D02*
X24457141Y-47806997D01*
X24457141Y-47806997D02*
X24499999Y-47849854D01*
X24499999Y-47849854D02*
X24585713Y-47892711D01*
X24585713Y-47892711D02*
X24757141Y-47892711D01*
X24757141Y-47892711D02*
X24842856Y-47935568D01*
X24842856Y-47935568D02*
X24885713Y-47978425D01*
X24885713Y-47978425D02*
X24928570Y-48064140D01*
X24928570Y-48064140D02*
X24928570Y-48235568D01*
X24928570Y-48235568D02*
X24885713Y-48321282D01*
X24885713Y-48321282D02*
X24842856Y-48364140D01*
X24842856Y-48364140D02*
X24757141Y-48406997D01*
X24757141Y-48406997D02*
X24585713Y-48406997D01*
X24585713Y-48406997D02*
X24499999Y-48364140D01*
X24499999Y-48364140D02*
X24457141Y-48321282D01*
X24457141Y-48321282D02*
X24414284Y-48235568D01*
X24414284Y-48235568D02*
X24414284Y-48064140D01*
X24414284Y-48064140D02*
X24457141Y-47978425D01*
X24457141Y-47978425D02*
X24499999Y-47935568D01*
X24499999Y-47935568D02*
X24585713Y-47892711D01*
X21757142Y-48706997D02*
X21757142Y-47421282D01*
X19100000Y-47592711D02*
X19057143Y-47549854D01*
X19057143Y-47549854D02*
X18971429Y-47506997D01*
X18971429Y-47506997D02*
X18757143Y-47506997D01*
X18757143Y-47506997D02*
X18671429Y-47549854D01*
X18671429Y-47549854D02*
X18628571Y-47592711D01*
X18628571Y-47592711D02*
X18585714Y-47678425D01*
X18585714Y-47678425D02*
X18585714Y-47764140D01*
X18585714Y-47764140D02*
X18628571Y-47892711D01*
X18628571Y-47892711D02*
X19142857Y-48406997D01*
X19142857Y-48406997D02*
X18585714Y-48406997D01*
X18200000Y-48064140D02*
X17514286Y-48064140D01*
X17171428Y-47506997D02*
X16614285Y-47506997D01*
X16614285Y-47506997D02*
X16914285Y-47849854D01*
X16914285Y-47849854D02*
X16785714Y-47849854D01*
X16785714Y-47849854D02*
X16700000Y-47892711D01*
X16700000Y-47892711D02*
X16657142Y-47935568D01*
X16657142Y-47935568D02*
X16614285Y-48021282D01*
X16614285Y-48021282D02*
X16614285Y-48235568D01*
X16614285Y-48235568D02*
X16657142Y-48321282D01*
X16657142Y-48321282D02*
X16700000Y-48364140D01*
X16700000Y-48364140D02*
X16785714Y-48406997D01*
X16785714Y-48406997D02*
X17042857Y-48406997D01*
X17042857Y-48406997D02*
X17128571Y-48364140D01*
X17128571Y-48364140D02*
X17171428Y-48321282D01*
X15542857Y-47935568D02*
X14857143Y-47935568D01*
X14857143Y-48192711D02*
X15542857Y-48192711D01*
X13228571Y-48406997D02*
X13528571Y-47978425D01*
X13742857Y-48406997D02*
X13742857Y-47506997D01*
X13742857Y-47506997D02*
X13400000Y-47506997D01*
X13400000Y-47506997D02*
X13314285Y-47549854D01*
X13314285Y-47549854D02*
X13271428Y-47592711D01*
X13271428Y-47592711D02*
X13228571Y-47678425D01*
X13228571Y-47678425D02*
X13228571Y-47806997D01*
X13228571Y-47806997D02*
X13271428Y-47892711D01*
X13271428Y-47892711D02*
X13314285Y-47935568D01*
X13314285Y-47935568D02*
X13400000Y-47978425D01*
X13400000Y-47978425D02*
X13742857Y-47978425D01*
X12671428Y-47506997D02*
X12500000Y-47506997D01*
X12500000Y-47506997D02*
X12414285Y-47549854D01*
X12414285Y-47549854D02*
X12328571Y-47635568D01*
X12328571Y-47635568D02*
X12285714Y-47806997D01*
X12285714Y-47806997D02*
X12285714Y-48106997D01*
X12285714Y-48106997D02*
X12328571Y-48278425D01*
X12328571Y-48278425D02*
X12414285Y-48364140D01*
X12414285Y-48364140D02*
X12500000Y-48406997D01*
X12500000Y-48406997D02*
X12671428Y-48406997D01*
X12671428Y-48406997D02*
X12757143Y-48364140D01*
X12757143Y-48364140D02*
X12842857Y-48278425D01*
X12842857Y-48278425D02*
X12885714Y-48106997D01*
X12885714Y-48106997D02*
X12885714Y-47806997D01*
X12885714Y-47806997D02*
X12842857Y-47635568D01*
X12842857Y-47635568D02*
X12757143Y-47549854D01*
X12757143Y-47549854D02*
X12671428Y-47506997D01*
X11900000Y-48406997D02*
X11900000Y-47506997D01*
X11900000Y-47506997D02*
X11600000Y-48149854D01*
X11600000Y-48149854D02*
X11300000Y-47506997D01*
X11300000Y-47506997D02*
X11300000Y-48406997D01*
X9800001Y-48406997D02*
X9800001Y-47506997D01*
X9800001Y-48364140D02*
X9885715Y-48406997D01*
X9885715Y-48406997D02*
X10057143Y-48406997D01*
X10057143Y-48406997D02*
X10142858Y-48364140D01*
X10142858Y-48364140D02*
X10185715Y-48321282D01*
X10185715Y-48321282D02*
X10228572Y-48235568D01*
X10228572Y-48235568D02*
X10228572Y-47978425D01*
X10228572Y-47978425D02*
X10185715Y-47892711D01*
X10185715Y-47892711D02*
X10142858Y-47849854D01*
X10142858Y-47849854D02*
X10057143Y-47806997D01*
X10057143Y-47806997D02*
X9885715Y-47806997D01*
X9885715Y-47806997D02*
X9800001Y-47849854D01*
X9242857Y-48406997D02*
X9328572Y-48364140D01*
X9328572Y-48364140D02*
X9371429Y-48321282D01*
X9371429Y-48321282D02*
X9414286Y-48235568D01*
X9414286Y-48235568D02*
X9414286Y-47978425D01*
X9414286Y-47978425D02*
X9371429Y-47892711D01*
X9371429Y-47892711D02*
X9328572Y-47849854D01*
X9328572Y-47849854D02*
X9242857Y-47806997D01*
X9242857Y-47806997D02*
X9114286Y-47806997D01*
X9114286Y-47806997D02*
X9028572Y-47849854D01*
X9028572Y-47849854D02*
X8985715Y-47892711D01*
X8985715Y-47892711D02*
X8942857Y-47978425D01*
X8942857Y-47978425D02*
X8942857Y-48235568D01*
X8942857Y-48235568D02*
X8985715Y-48321282D01*
X8985715Y-48321282D02*
X9028572Y-48364140D01*
X9028572Y-48364140D02*
X9114286Y-48406997D01*
X9114286Y-48406997D02*
X9242857Y-48406997D01*
X8000000Y-47506997D02*
X7485715Y-47506997D01*
X7742857Y-48406997D02*
X7742857Y-47506997D01*
X7185715Y-48406997D02*
X7185715Y-47506997D01*
X6671429Y-48406997D02*
X7057143Y-47892711D01*
X6671429Y-47506997D02*
X7185715Y-48021282D01*
X44814285Y-49506997D02*
X44814285Y-50149854D01*
X44814285Y-50149854D02*
X44857142Y-50278425D01*
X44857142Y-50278425D02*
X44942856Y-50364140D01*
X44942856Y-50364140D02*
X45071428Y-50406997D01*
X45071428Y-50406997D02*
X45157142Y-50406997D01*
X44385714Y-50406997D02*
X44385714Y-49506997D01*
X44385714Y-49506997D02*
X44042857Y-49506997D01*
X44042857Y-49506997D02*
X43957142Y-49549854D01*
X43957142Y-49549854D02*
X43914285Y-49592711D01*
X43914285Y-49592711D02*
X43871428Y-49678425D01*
X43871428Y-49678425D02*
X43871428Y-49806997D01*
X43871428Y-49806997D02*
X43914285Y-49892711D01*
X43914285Y-49892711D02*
X43957142Y-49935568D01*
X43957142Y-49935568D02*
X44042857Y-49978425D01*
X44042857Y-49978425D02*
X44385714Y-49978425D01*
X43528571Y-49592711D02*
X43485714Y-49549854D01*
X43485714Y-49549854D02*
X43400000Y-49506997D01*
X43400000Y-49506997D02*
X43185714Y-49506997D01*
X43185714Y-49506997D02*
X43100000Y-49549854D01*
X43100000Y-49549854D02*
X43057142Y-49592711D01*
X43057142Y-49592711D02*
X43014285Y-49678425D01*
X43014285Y-49678425D02*
X43014285Y-49764140D01*
X43014285Y-49764140D02*
X43057142Y-49892711D01*
X43057142Y-49892711D02*
X43571428Y-50406997D01*
X43571428Y-50406997D02*
X43014285Y-50406997D01*
X40871429Y-50406997D02*
X40871429Y-49935568D01*
X40871429Y-49935568D02*
X40914286Y-49849854D01*
X40914286Y-49849854D02*
X41000000Y-49806997D01*
X41000000Y-49806997D02*
X41171429Y-49806997D01*
X41171429Y-49806997D02*
X41257143Y-49849854D01*
X40871429Y-50364140D02*
X40957143Y-50406997D01*
X40957143Y-50406997D02*
X41171429Y-50406997D01*
X41171429Y-50406997D02*
X41257143Y-50364140D01*
X41257143Y-50364140D02*
X41300000Y-50278425D01*
X41300000Y-50278425D02*
X41300000Y-50192711D01*
X41300000Y-50192711D02*
X41257143Y-50106997D01*
X41257143Y-50106997D02*
X41171429Y-50064140D01*
X41171429Y-50064140D02*
X40957143Y-50064140D01*
X40957143Y-50064140D02*
X40871429Y-50021282D01*
X40442857Y-50406997D02*
X40442857Y-49506997D01*
X40442857Y-49849854D02*
X40357143Y-49806997D01*
X40357143Y-49806997D02*
X40185714Y-49806997D01*
X40185714Y-49806997D02*
X40100000Y-49849854D01*
X40100000Y-49849854D02*
X40057143Y-49892711D01*
X40057143Y-49892711D02*
X40014285Y-49978425D01*
X40014285Y-49978425D02*
X40014285Y-50235568D01*
X40014285Y-50235568D02*
X40057143Y-50321282D01*
X40057143Y-50321282D02*
X40100000Y-50364140D01*
X40100000Y-50364140D02*
X40185714Y-50406997D01*
X40185714Y-50406997D02*
X40357143Y-50406997D01*
X40357143Y-50406997D02*
X40442857Y-50364140D01*
X39285714Y-50364140D02*
X39371428Y-50406997D01*
X39371428Y-50406997D02*
X39542857Y-50406997D01*
X39542857Y-50406997D02*
X39628571Y-50364140D01*
X39628571Y-50364140D02*
X39671428Y-50278425D01*
X39671428Y-50278425D02*
X39671428Y-49935568D01*
X39671428Y-49935568D02*
X39628571Y-49849854D01*
X39628571Y-49849854D02*
X39542857Y-49806997D01*
X39542857Y-49806997D02*
X39371428Y-49806997D01*
X39371428Y-49806997D02*
X39285714Y-49849854D01*
X39285714Y-49849854D02*
X39242857Y-49935568D01*
X39242857Y-49935568D02*
X39242857Y-50021282D01*
X39242857Y-50021282D02*
X39671428Y-50106997D01*
X38857142Y-50406997D02*
X38857142Y-49806997D01*
X38857142Y-49978425D02*
X38814285Y-49892711D01*
X38814285Y-49892711D02*
X38771428Y-49849854D01*
X38771428Y-49849854D02*
X38685713Y-49806997D01*
X38685713Y-49806997D02*
X38599999Y-49806997D01*
X38428570Y-49806997D02*
X38085713Y-49806997D01*
X38299999Y-49506997D02*
X38299999Y-50278425D01*
X38299999Y-50278425D02*
X38257142Y-50364140D01*
X38257142Y-50364140D02*
X38171427Y-50406997D01*
X38171427Y-50406997D02*
X38085713Y-50406997D01*
X37657141Y-50406997D02*
X37742856Y-50364140D01*
X37742856Y-50364140D02*
X37785713Y-50321282D01*
X37785713Y-50321282D02*
X37828570Y-50235568D01*
X37828570Y-50235568D02*
X37828570Y-49978425D01*
X37828570Y-49978425D02*
X37785713Y-49892711D01*
X37785713Y-49892711D02*
X37742856Y-49849854D01*
X37742856Y-49849854D02*
X37657141Y-49806997D01*
X37657141Y-49806997D02*
X37528570Y-49806997D01*
X37528570Y-49806997D02*
X37442856Y-49849854D01*
X37442856Y-49849854D02*
X37399999Y-49892711D01*
X37399999Y-49892711D02*
X37357141Y-49978425D01*
X37357141Y-49978425D02*
X37357141Y-50235568D01*
X37357141Y-50235568D02*
X37399999Y-50321282D01*
X37399999Y-50321282D02*
X37442856Y-50364140D01*
X37442856Y-50364140D02*
X37528570Y-50406997D01*
X37528570Y-50406997D02*
X37657141Y-50406997D01*
X36285713Y-49935568D02*
X35599999Y-49935568D01*
X35599999Y-50192711D02*
X36285713Y-50192711D01*
X33971427Y-50406997D02*
X34271427Y-49978425D01*
X34485713Y-50406997D02*
X34485713Y-49506997D01*
X34485713Y-49506997D02*
X34142856Y-49506997D01*
X34142856Y-49506997D02*
X34057141Y-49549854D01*
X34057141Y-49549854D02*
X34014284Y-49592711D01*
X34014284Y-49592711D02*
X33971427Y-49678425D01*
X33971427Y-49678425D02*
X33971427Y-49806997D01*
X33971427Y-49806997D02*
X34014284Y-49892711D01*
X34014284Y-49892711D02*
X34057141Y-49935568D01*
X34057141Y-49935568D02*
X34142856Y-49978425D01*
X34142856Y-49978425D02*
X34485713Y-49978425D01*
X33414284Y-49506997D02*
X33242856Y-49506997D01*
X33242856Y-49506997D02*
X33157141Y-49549854D01*
X33157141Y-49549854D02*
X33071427Y-49635568D01*
X33071427Y-49635568D02*
X33028570Y-49806997D01*
X33028570Y-49806997D02*
X33028570Y-50106997D01*
X33028570Y-50106997D02*
X33071427Y-50278425D01*
X33071427Y-50278425D02*
X33157141Y-50364140D01*
X33157141Y-50364140D02*
X33242856Y-50406997D01*
X33242856Y-50406997D02*
X33414284Y-50406997D01*
X33414284Y-50406997D02*
X33499999Y-50364140D01*
X33499999Y-50364140D02*
X33585713Y-50278425D01*
X33585713Y-50278425D02*
X33628570Y-50106997D01*
X33628570Y-50106997D02*
X33628570Y-49806997D01*
X33628570Y-49806997D02*
X33585713Y-49635568D01*
X33585713Y-49635568D02*
X33499999Y-49549854D01*
X33499999Y-49549854D02*
X33414284Y-49506997D01*
X32642856Y-50406997D02*
X32642856Y-49506997D01*
X32642856Y-49506997D02*
X32342856Y-50149854D01*
X32342856Y-50149854D02*
X32042856Y-49506997D01*
X32042856Y-49506997D02*
X32042856Y-50406997D01*
X30542857Y-50406997D02*
X30542857Y-49506997D01*
X30542857Y-50364140D02*
X30628571Y-50406997D01*
X30628571Y-50406997D02*
X30799999Y-50406997D01*
X30799999Y-50406997D02*
X30885714Y-50364140D01*
X30885714Y-50364140D02*
X30928571Y-50321282D01*
X30928571Y-50321282D02*
X30971428Y-50235568D01*
X30971428Y-50235568D02*
X30971428Y-49978425D01*
X30971428Y-49978425D02*
X30928571Y-49892711D01*
X30928571Y-49892711D02*
X30885714Y-49849854D01*
X30885714Y-49849854D02*
X30799999Y-49806997D01*
X30799999Y-49806997D02*
X30628571Y-49806997D01*
X30628571Y-49806997D02*
X30542857Y-49849854D01*
X29985713Y-50406997D02*
X30071428Y-50364140D01*
X30071428Y-50364140D02*
X30114285Y-50321282D01*
X30114285Y-50321282D02*
X30157142Y-50235568D01*
X30157142Y-50235568D02*
X30157142Y-49978425D01*
X30157142Y-49978425D02*
X30114285Y-49892711D01*
X30114285Y-49892711D02*
X30071428Y-49849854D01*
X30071428Y-49849854D02*
X29985713Y-49806997D01*
X29985713Y-49806997D02*
X29857142Y-49806997D01*
X29857142Y-49806997D02*
X29771428Y-49849854D01*
X29771428Y-49849854D02*
X29728571Y-49892711D01*
X29728571Y-49892711D02*
X29685713Y-49978425D01*
X29685713Y-49978425D02*
X29685713Y-50235568D01*
X29685713Y-50235568D02*
X29728571Y-50321282D01*
X29728571Y-50321282D02*
X29771428Y-50364140D01*
X29771428Y-50364140D02*
X29857142Y-50406997D01*
X29857142Y-50406997D02*
X29985713Y-50406997D01*
X28742856Y-49506997D02*
X28228571Y-49506997D01*
X28485713Y-50406997D02*
X28485713Y-49506997D01*
X27928571Y-50406997D02*
X27928571Y-49506997D01*
X27414285Y-50406997D02*
X27799999Y-49892711D01*
X27414285Y-49506997D02*
X27928571Y-50021282D01*
X25442857Y-50706997D02*
X25442857Y-49421282D01*
X22957143Y-50406997D02*
X23471429Y-50406997D01*
X23214286Y-50406997D02*
X23214286Y-49506997D01*
X23214286Y-49506997D02*
X23300000Y-49635568D01*
X23300000Y-49635568D02*
X23385715Y-49721282D01*
X23385715Y-49721282D02*
X23471429Y-49764140D01*
X22571429Y-50064140D02*
X21885715Y-50064140D01*
X21500000Y-49592711D02*
X21457143Y-49549854D01*
X21457143Y-49549854D02*
X21371429Y-49506997D01*
X21371429Y-49506997D02*
X21157143Y-49506997D01*
X21157143Y-49506997D02*
X21071429Y-49549854D01*
X21071429Y-49549854D02*
X21028571Y-49592711D01*
X21028571Y-49592711D02*
X20985714Y-49678425D01*
X20985714Y-49678425D02*
X20985714Y-49764140D01*
X20985714Y-49764140D02*
X21028571Y-49892711D01*
X21028571Y-49892711D02*
X21542857Y-50406997D01*
X21542857Y-50406997D02*
X20985714Y-50406997D01*
X19914286Y-49935568D02*
X19228572Y-49935568D01*
X19228572Y-50192711D02*
X19914286Y-50192711D01*
X18114286Y-49806997D02*
X18114286Y-50706997D01*
X18114286Y-49849854D02*
X18028572Y-49806997D01*
X18028572Y-49806997D02*
X17857143Y-49806997D01*
X17857143Y-49806997D02*
X17771429Y-49849854D01*
X17771429Y-49849854D02*
X17728572Y-49892711D01*
X17728572Y-49892711D02*
X17685714Y-49978425D01*
X17685714Y-49978425D02*
X17685714Y-50235568D01*
X17685714Y-50235568D02*
X17728572Y-50321282D01*
X17728572Y-50321282D02*
X17771429Y-50364140D01*
X17771429Y-50364140D02*
X17857143Y-50406997D01*
X17857143Y-50406997D02*
X18028572Y-50406997D01*
X18028572Y-50406997D02*
X18114286Y-50364140D01*
X16957143Y-50364140D02*
X17042857Y-50406997D01*
X17042857Y-50406997D02*
X17214286Y-50406997D01*
X17214286Y-50406997D02*
X17300000Y-50364140D01*
X17300000Y-50364140D02*
X17342857Y-50278425D01*
X17342857Y-50278425D02*
X17342857Y-49935568D01*
X17342857Y-49935568D02*
X17300000Y-49849854D01*
X17300000Y-49849854D02*
X17214286Y-49806997D01*
X17214286Y-49806997D02*
X17042857Y-49806997D01*
X17042857Y-49806997D02*
X16957143Y-49849854D01*
X16957143Y-49849854D02*
X16914286Y-49935568D01*
X16914286Y-49935568D02*
X16914286Y-50021282D01*
X16914286Y-50021282D02*
X17342857Y-50106997D01*
X16399999Y-50406997D02*
X16485714Y-50364140D01*
X16485714Y-50364140D02*
X16528571Y-50278425D01*
X16528571Y-50278425D02*
X16528571Y-49506997D01*
X15928570Y-50406997D02*
X16014285Y-50364140D01*
X16014285Y-50364140D02*
X16057142Y-50321282D01*
X16057142Y-50321282D02*
X16099999Y-50235568D01*
X16099999Y-50235568D02*
X16099999Y-49978425D01*
X16099999Y-49978425D02*
X16057142Y-49892711D01*
X16057142Y-49892711D02*
X16014285Y-49849854D01*
X16014285Y-49849854D02*
X15928570Y-49806997D01*
X15928570Y-49806997D02*
X15799999Y-49806997D01*
X15799999Y-49806997D02*
X15714285Y-49849854D01*
X15714285Y-49849854D02*
X15671428Y-49892711D01*
X15671428Y-49892711D02*
X15628570Y-49978425D01*
X15628570Y-49978425D02*
X15628570Y-50235568D01*
X15628570Y-50235568D02*
X15671428Y-50321282D01*
X15671428Y-50321282D02*
X15714285Y-50364140D01*
X15714285Y-50364140D02*
X15799999Y-50406997D01*
X15799999Y-50406997D02*
X15928570Y-50406997D01*
X14085713Y-49549854D02*
X14171428Y-49506997D01*
X14171428Y-49506997D02*
X14299999Y-49506997D01*
X14299999Y-49506997D02*
X14428570Y-49549854D01*
X14428570Y-49549854D02*
X14514285Y-49635568D01*
X14514285Y-49635568D02*
X14557142Y-49721282D01*
X14557142Y-49721282D02*
X14599999Y-49892711D01*
X14599999Y-49892711D02*
X14599999Y-50021282D01*
X14599999Y-50021282D02*
X14557142Y-50192711D01*
X14557142Y-50192711D02*
X14514285Y-50278425D01*
X14514285Y-50278425D02*
X14428570Y-50364140D01*
X14428570Y-50364140D02*
X14299999Y-50406997D01*
X14299999Y-50406997D02*
X14214285Y-50406997D01*
X14214285Y-50406997D02*
X14085713Y-50364140D01*
X14085713Y-50364140D02*
X14042856Y-50321282D01*
X14042856Y-50321282D02*
X14042856Y-50021282D01*
X14042856Y-50021282D02*
X14214285Y-50021282D01*
X13699999Y-50149854D02*
X13271428Y-50149854D01*
X13785713Y-50406997D02*
X13485713Y-49506997D01*
X13485713Y-49506997D02*
X13185713Y-50406997D01*
X12457141Y-50406997D02*
X12885713Y-50406997D01*
X12885713Y-50406997D02*
X12885713Y-49506997D01*
X10571428Y-50706997D02*
X10571428Y-49421282D01*
X8600000Y-49592711D02*
X8557143Y-49549854D01*
X8557143Y-49549854D02*
X8471429Y-49506997D01*
X8471429Y-49506997D02*
X8257143Y-49506997D01*
X8257143Y-49506997D02*
X8171429Y-49549854D01*
X8171429Y-49549854D02*
X8128571Y-49592711D01*
X8128571Y-49592711D02*
X8085714Y-49678425D01*
X8085714Y-49678425D02*
X8085714Y-49764140D01*
X8085714Y-49764140D02*
X8128571Y-49892711D01*
X8128571Y-49892711D02*
X8642857Y-50406997D01*
X8642857Y-50406997D02*
X8085714Y-50406997D01*
X7700000Y-50064140D02*
X7014286Y-50064140D01*
X6671428Y-49506997D02*
X6114285Y-49506997D01*
X6114285Y-49506997D02*
X6414285Y-49849854D01*
X6414285Y-49849854D02*
X6285714Y-49849854D01*
X6285714Y-49849854D02*
X6200000Y-49892711D01*
X6200000Y-49892711D02*
X6157142Y-49935568D01*
X6157142Y-49935568D02*
X6114285Y-50021282D01*
X6114285Y-50021282D02*
X6114285Y-50235568D01*
X6114285Y-50235568D02*
X6157142Y-50321282D01*
X6157142Y-50321282D02*
X6200000Y-50364140D01*
X6200000Y-50364140D02*
X6285714Y-50406997D01*
X6285714Y-50406997D02*
X6542857Y-50406997D01*
X6542857Y-50406997D02*
X6628571Y-50364140D01*
X6628571Y-50364140D02*
X6671428Y-50321282D01*
X5042857Y-49935568D02*
X4357143Y-49935568D01*
X4357143Y-50192711D02*
X5042857Y-50192711D01*
X3242857Y-50064140D02*
X2557143Y-50064140D01*
X2900000Y-50406997D02*
X2900000Y-49721282D01*
X1699999Y-49506997D02*
X2128571Y-49506997D01*
X2128571Y-49506997D02*
X2171428Y-49935568D01*
X2171428Y-49935568D02*
X2128571Y-49892711D01*
X2128571Y-49892711D02*
X2042857Y-49849854D01*
X2042857Y-49849854D02*
X1828571Y-49849854D01*
X1828571Y-49849854D02*
X1742857Y-49892711D01*
X1742857Y-49892711D02*
X1699999Y-49935568D01*
X1699999Y-49935568D02*
X1657142Y-50021282D01*
X1657142Y-50021282D02*
X1657142Y-50235568D01*
X1657142Y-50235568D02*
X1699999Y-50321282D01*
X1699999Y-50321282D02*
X1742857Y-50364140D01*
X1742857Y-50364140D02*
X1828571Y-50406997D01*
X1828571Y-50406997D02*
X2042857Y-50406997D01*
X2042857Y-50406997D02*
X2128571Y-50364140D01*
X2128571Y-50364140D02*
X2171428Y-50321282D01*
X1399999Y-49506997D02*
X1099999Y-50406997D01*
X1099999Y-50406997D02*
X799999Y-49506997D01*
X34421429Y-51506997D02*
X34421429Y-52149854D01*
X34421429Y-52149854D02*
X34464286Y-52278425D01*
X34464286Y-52278425D02*
X34550000Y-52364140D01*
X34550000Y-52364140D02*
X34678572Y-52406997D01*
X34678572Y-52406997D02*
X34764286Y-52406997D01*
X33992858Y-52406997D02*
X33992858Y-51506997D01*
X33992858Y-51506997D02*
X33650001Y-51506997D01*
X33650001Y-51506997D02*
X33564286Y-51549854D01*
X33564286Y-51549854D02*
X33521429Y-51592711D01*
X33521429Y-51592711D02*
X33478572Y-51678425D01*
X33478572Y-51678425D02*
X33478572Y-51806997D01*
X33478572Y-51806997D02*
X33521429Y-51892711D01*
X33521429Y-51892711D02*
X33564286Y-51935568D01*
X33564286Y-51935568D02*
X33650001Y-51978425D01*
X33650001Y-51978425D02*
X33992858Y-51978425D01*
X33178572Y-51506997D02*
X32621429Y-51506997D01*
X32621429Y-51506997D02*
X32921429Y-51849854D01*
X32921429Y-51849854D02*
X32792858Y-51849854D01*
X32792858Y-51849854D02*
X32707144Y-51892711D01*
X32707144Y-51892711D02*
X32664286Y-51935568D01*
X32664286Y-51935568D02*
X32621429Y-52021282D01*
X32621429Y-52021282D02*
X32621429Y-52235568D01*
X32621429Y-52235568D02*
X32664286Y-52321282D01*
X32664286Y-52321282D02*
X32707144Y-52364140D01*
X32707144Y-52364140D02*
X32792858Y-52406997D01*
X32792858Y-52406997D02*
X33050001Y-52406997D01*
X33050001Y-52406997D02*
X33135715Y-52364140D01*
X33135715Y-52364140D02*
X33178572Y-52321282D01*
X30992858Y-51806997D02*
X30650001Y-51806997D01*
X30864287Y-52406997D02*
X30864287Y-51635568D01*
X30864287Y-51635568D02*
X30821430Y-51549854D01*
X30821430Y-51549854D02*
X30735715Y-51506997D01*
X30735715Y-51506997D02*
X30650001Y-51506997D01*
X30007144Y-52364140D02*
X30092858Y-52406997D01*
X30092858Y-52406997D02*
X30264287Y-52406997D01*
X30264287Y-52406997D02*
X30350001Y-52364140D01*
X30350001Y-52364140D02*
X30392858Y-52278425D01*
X30392858Y-52278425D02*
X30392858Y-51935568D01*
X30392858Y-51935568D02*
X30350001Y-51849854D01*
X30350001Y-51849854D02*
X30264287Y-51806997D01*
X30264287Y-51806997D02*
X30092858Y-51806997D01*
X30092858Y-51806997D02*
X30007144Y-51849854D01*
X30007144Y-51849854D02*
X29964287Y-51935568D01*
X29964287Y-51935568D02*
X29964287Y-52021282D01*
X29964287Y-52021282D02*
X30392858Y-52106997D01*
X29192858Y-52364140D02*
X29278572Y-52406997D01*
X29278572Y-52406997D02*
X29450000Y-52406997D01*
X29450000Y-52406997D02*
X29535715Y-52364140D01*
X29535715Y-52364140D02*
X29578572Y-52321282D01*
X29578572Y-52321282D02*
X29621429Y-52235568D01*
X29621429Y-52235568D02*
X29621429Y-51978425D01*
X29621429Y-51978425D02*
X29578572Y-51892711D01*
X29578572Y-51892711D02*
X29535715Y-51849854D01*
X29535715Y-51849854D02*
X29450000Y-51806997D01*
X29450000Y-51806997D02*
X29278572Y-51806997D01*
X29278572Y-51806997D02*
X29192858Y-51849854D01*
X28807143Y-52406997D02*
X28807143Y-51506997D01*
X28421429Y-52406997D02*
X28421429Y-51935568D01*
X28421429Y-51935568D02*
X28464286Y-51849854D01*
X28464286Y-51849854D02*
X28550000Y-51806997D01*
X28550000Y-51806997D02*
X28678571Y-51806997D01*
X28678571Y-51806997D02*
X28764286Y-51849854D01*
X28764286Y-51849854D02*
X28807143Y-51892711D01*
X27607143Y-52406997D02*
X27607143Y-51935568D01*
X27607143Y-51935568D02*
X27650000Y-51849854D01*
X27650000Y-51849854D02*
X27735714Y-51806997D01*
X27735714Y-51806997D02*
X27907143Y-51806997D01*
X27907143Y-51806997D02*
X27992857Y-51849854D01*
X27607143Y-52364140D02*
X27692857Y-52406997D01*
X27692857Y-52406997D02*
X27907143Y-52406997D01*
X27907143Y-52406997D02*
X27992857Y-52364140D01*
X27992857Y-52364140D02*
X28035714Y-52278425D01*
X28035714Y-52278425D02*
X28035714Y-52192711D01*
X28035714Y-52192711D02*
X27992857Y-52106997D01*
X27992857Y-52106997D02*
X27907143Y-52064140D01*
X27907143Y-52064140D02*
X27692857Y-52064140D01*
X27692857Y-52064140D02*
X27607143Y-52021282D01*
X26792857Y-52406997D02*
X26792857Y-51506997D01*
X26792857Y-52364140D02*
X26878571Y-52406997D01*
X26878571Y-52406997D02*
X27049999Y-52406997D01*
X27049999Y-52406997D02*
X27135714Y-52364140D01*
X27135714Y-52364140D02*
X27178571Y-52321282D01*
X27178571Y-52321282D02*
X27221428Y-52235568D01*
X27221428Y-52235568D02*
X27221428Y-51978425D01*
X27221428Y-51978425D02*
X27178571Y-51892711D01*
X27178571Y-51892711D02*
X27135714Y-51849854D01*
X27135714Y-51849854D02*
X27049999Y-51806997D01*
X27049999Y-51806997D02*
X26878571Y-51806997D01*
X26878571Y-51806997D02*
X26792857Y-51849854D01*
X26235713Y-52406997D02*
X26321428Y-52364140D01*
X26321428Y-52364140D02*
X26364285Y-52321282D01*
X26364285Y-52321282D02*
X26407142Y-52235568D01*
X26407142Y-52235568D02*
X26407142Y-51978425D01*
X26407142Y-51978425D02*
X26364285Y-51892711D01*
X26364285Y-51892711D02*
X26321428Y-51849854D01*
X26321428Y-51849854D02*
X26235713Y-51806997D01*
X26235713Y-51806997D02*
X26107142Y-51806997D01*
X26107142Y-51806997D02*
X26021428Y-51849854D01*
X26021428Y-51849854D02*
X25978571Y-51892711D01*
X25978571Y-51892711D02*
X25935713Y-51978425D01*
X25935713Y-51978425D02*
X25935713Y-52235568D01*
X25935713Y-52235568D02*
X25978571Y-52321282D01*
X25978571Y-52321282D02*
X26021428Y-52364140D01*
X26021428Y-52364140D02*
X26107142Y-52406997D01*
X26107142Y-52406997D02*
X26235713Y-52406997D01*
X24864285Y-51935568D02*
X24178571Y-51935568D01*
X24178571Y-52192711D02*
X24864285Y-52192711D01*
X22635713Y-51506997D02*
X23064285Y-51506997D01*
X23064285Y-51506997D02*
X23107142Y-51935568D01*
X23107142Y-51935568D02*
X23064285Y-51892711D01*
X23064285Y-51892711D02*
X22978571Y-51849854D01*
X22978571Y-51849854D02*
X22764285Y-51849854D01*
X22764285Y-51849854D02*
X22678571Y-51892711D01*
X22678571Y-51892711D02*
X22635713Y-51935568D01*
X22635713Y-51935568D02*
X22592856Y-52021282D01*
X22592856Y-52021282D02*
X22592856Y-52235568D01*
X22592856Y-52235568D02*
X22635713Y-52321282D01*
X22635713Y-52321282D02*
X22678571Y-52364140D01*
X22678571Y-52364140D02*
X22764285Y-52406997D01*
X22764285Y-52406997D02*
X22978571Y-52406997D01*
X22978571Y-52406997D02*
X23064285Y-52364140D01*
X23064285Y-52364140D02*
X23107142Y-52321282D01*
X21735713Y-52406997D02*
X22249999Y-52406997D01*
X21992856Y-52406997D02*
X21992856Y-51506997D01*
X21992856Y-51506997D02*
X22078570Y-51635568D01*
X22078570Y-51635568D02*
X22164285Y-51721282D01*
X22164285Y-51721282D02*
X22249999Y-51764140D01*
X21392856Y-51592711D02*
X21349999Y-51549854D01*
X21349999Y-51549854D02*
X21264285Y-51506997D01*
X21264285Y-51506997D02*
X21049999Y-51506997D01*
X21049999Y-51506997D02*
X20964285Y-51549854D01*
X20964285Y-51549854D02*
X20921427Y-51592711D01*
X20921427Y-51592711D02*
X20878570Y-51678425D01*
X20878570Y-51678425D02*
X20878570Y-51764140D01*
X20878570Y-51764140D02*
X20921427Y-51892711D01*
X20921427Y-51892711D02*
X21435713Y-52406997D01*
X21435713Y-52406997D02*
X20878570Y-52406997D01*
X20492856Y-52406997D02*
X20492856Y-51506997D01*
X19978570Y-52406997D02*
X20364284Y-51892711D01*
X19978570Y-51506997D02*
X20492856Y-52021282D01*
X18649999Y-52749854D02*
X18692856Y-52706997D01*
X18692856Y-52706997D02*
X18778570Y-52578425D01*
X18778570Y-52578425D02*
X18821428Y-52492711D01*
X18821428Y-52492711D02*
X18864285Y-52364140D01*
X18864285Y-52364140D02*
X18907142Y-52149854D01*
X18907142Y-52149854D02*
X18907142Y-51978425D01*
X18907142Y-51978425D02*
X18864285Y-51764140D01*
X18864285Y-51764140D02*
X18821428Y-51635568D01*
X18821428Y-51635568D02*
X18778570Y-51549854D01*
X18778570Y-51549854D02*
X18692856Y-51421282D01*
X18692856Y-51421282D02*
X18649999Y-51378425D01*
X18349999Y-52149854D02*
X17921428Y-52149854D01*
X18435713Y-52406997D02*
X18135713Y-51506997D01*
X18135713Y-51506997D02*
X17835713Y-52406997D01*
X17578570Y-52364140D02*
X17449999Y-52406997D01*
X17449999Y-52406997D02*
X17235713Y-52406997D01*
X17235713Y-52406997D02*
X17149999Y-52364140D01*
X17149999Y-52364140D02*
X17107141Y-52321282D01*
X17107141Y-52321282D02*
X17064284Y-52235568D01*
X17064284Y-52235568D02*
X17064284Y-52149854D01*
X17064284Y-52149854D02*
X17107141Y-52064140D01*
X17107141Y-52064140D02*
X17149999Y-52021282D01*
X17149999Y-52021282D02*
X17235713Y-51978425D01*
X17235713Y-51978425D02*
X17407141Y-51935568D01*
X17407141Y-51935568D02*
X17492856Y-51892711D01*
X17492856Y-51892711D02*
X17535713Y-51849854D01*
X17535713Y-51849854D02*
X17578570Y-51764140D01*
X17578570Y-51764140D02*
X17578570Y-51678425D01*
X17578570Y-51678425D02*
X17535713Y-51592711D01*
X17535713Y-51592711D02*
X17492856Y-51549854D01*
X17492856Y-51549854D02*
X17407141Y-51506997D01*
X17407141Y-51506997D02*
X17192856Y-51506997D01*
X17192856Y-51506997D02*
X17064284Y-51549854D01*
X16292856Y-51506997D02*
X16464284Y-51506997D01*
X16464284Y-51506997D02*
X16549998Y-51549854D01*
X16549998Y-51549854D02*
X16592856Y-51592711D01*
X16592856Y-51592711D02*
X16678570Y-51721282D01*
X16678570Y-51721282D02*
X16721427Y-51892711D01*
X16721427Y-51892711D02*
X16721427Y-52235568D01*
X16721427Y-52235568D02*
X16678570Y-52321282D01*
X16678570Y-52321282D02*
X16635713Y-52364140D01*
X16635713Y-52364140D02*
X16549998Y-52406997D01*
X16549998Y-52406997D02*
X16378570Y-52406997D01*
X16378570Y-52406997D02*
X16292856Y-52364140D01*
X16292856Y-52364140D02*
X16249998Y-52321282D01*
X16249998Y-52321282D02*
X16207141Y-52235568D01*
X16207141Y-52235568D02*
X16207141Y-52021282D01*
X16207141Y-52021282D02*
X16249998Y-51935568D01*
X16249998Y-51935568D02*
X16292856Y-51892711D01*
X16292856Y-51892711D02*
X16378570Y-51849854D01*
X16378570Y-51849854D02*
X16549998Y-51849854D01*
X16549998Y-51849854D02*
X16635713Y-51892711D01*
X16635713Y-51892711D02*
X16678570Y-51935568D01*
X16678570Y-51935568D02*
X16721427Y-52021282D01*
X15307141Y-52321282D02*
X15349998Y-52364140D01*
X15349998Y-52364140D02*
X15478570Y-52406997D01*
X15478570Y-52406997D02*
X15564284Y-52406997D01*
X15564284Y-52406997D02*
X15692855Y-52364140D01*
X15692855Y-52364140D02*
X15778570Y-52278425D01*
X15778570Y-52278425D02*
X15821427Y-52192711D01*
X15821427Y-52192711D02*
X15864284Y-52021282D01*
X15864284Y-52021282D02*
X15864284Y-51892711D01*
X15864284Y-51892711D02*
X15821427Y-51721282D01*
X15821427Y-51721282D02*
X15778570Y-51635568D01*
X15778570Y-51635568D02*
X15692855Y-51549854D01*
X15692855Y-51549854D02*
X15564284Y-51506997D01*
X15564284Y-51506997D02*
X15478570Y-51506997D01*
X15478570Y-51506997D02*
X15349998Y-51549854D01*
X15349998Y-51549854D02*
X15307141Y-51592711D01*
X14535713Y-51806997D02*
X14535713Y-52406997D01*
X14749998Y-51464140D02*
X14964284Y-52106997D01*
X14964284Y-52106997D02*
X14407141Y-52106997D01*
X13892855Y-51506997D02*
X13807141Y-51506997D01*
X13807141Y-51506997D02*
X13721427Y-51549854D01*
X13721427Y-51549854D02*
X13678570Y-51592711D01*
X13678570Y-51592711D02*
X13635712Y-51678425D01*
X13635712Y-51678425D02*
X13592855Y-51849854D01*
X13592855Y-51849854D02*
X13592855Y-52064140D01*
X13592855Y-52064140D02*
X13635712Y-52235568D01*
X13635712Y-52235568D02*
X13678570Y-52321282D01*
X13678570Y-52321282D02*
X13721427Y-52364140D01*
X13721427Y-52364140D02*
X13807141Y-52406997D01*
X13807141Y-52406997D02*
X13892855Y-52406997D01*
X13892855Y-52406997D02*
X13978570Y-52364140D01*
X13978570Y-52364140D02*
X14021427Y-52321282D01*
X14021427Y-52321282D02*
X14064284Y-52235568D01*
X14064284Y-52235568D02*
X14107141Y-52064140D01*
X14107141Y-52064140D02*
X14107141Y-51849854D01*
X14107141Y-51849854D02*
X14064284Y-51678425D01*
X14064284Y-51678425D02*
X14021427Y-51592711D01*
X14021427Y-51592711D02*
X13978570Y-51549854D01*
X13978570Y-51549854D02*
X13892855Y-51506997D01*
X13035712Y-51506997D02*
X12949998Y-51506997D01*
X12949998Y-51506997D02*
X12864284Y-51549854D01*
X12864284Y-51549854D02*
X12821427Y-51592711D01*
X12821427Y-51592711D02*
X12778569Y-51678425D01*
X12778569Y-51678425D02*
X12735712Y-51849854D01*
X12735712Y-51849854D02*
X12735712Y-52064140D01*
X12735712Y-52064140D02*
X12778569Y-52235568D01*
X12778569Y-52235568D02*
X12821427Y-52321282D01*
X12821427Y-52321282D02*
X12864284Y-52364140D01*
X12864284Y-52364140D02*
X12949998Y-52406997D01*
X12949998Y-52406997D02*
X13035712Y-52406997D01*
X13035712Y-52406997D02*
X13121427Y-52364140D01*
X13121427Y-52364140D02*
X13164284Y-52321282D01*
X13164284Y-52321282D02*
X13207141Y-52235568D01*
X13207141Y-52235568D02*
X13249998Y-52064140D01*
X13249998Y-52064140D02*
X13249998Y-51849854D01*
X13249998Y-51849854D02*
X13207141Y-51678425D01*
X13207141Y-51678425D02*
X13164284Y-51592711D01*
X13164284Y-51592711D02*
X13121427Y-51549854D01*
X13121427Y-51549854D02*
X13035712Y-51506997D01*
X12221426Y-51892711D02*
X12307141Y-51849854D01*
X12307141Y-51849854D02*
X12349998Y-51806997D01*
X12349998Y-51806997D02*
X12392855Y-51721282D01*
X12392855Y-51721282D02*
X12392855Y-51678425D01*
X12392855Y-51678425D02*
X12349998Y-51592711D01*
X12349998Y-51592711D02*
X12307141Y-51549854D01*
X12307141Y-51549854D02*
X12221426Y-51506997D01*
X12221426Y-51506997D02*
X12049998Y-51506997D01*
X12049998Y-51506997D02*
X11964284Y-51549854D01*
X11964284Y-51549854D02*
X11921426Y-51592711D01*
X11921426Y-51592711D02*
X11878569Y-51678425D01*
X11878569Y-51678425D02*
X11878569Y-51721282D01*
X11878569Y-51721282D02*
X11921426Y-51806997D01*
X11921426Y-51806997D02*
X11964284Y-51849854D01*
X11964284Y-51849854D02*
X12049998Y-51892711D01*
X12049998Y-51892711D02*
X12221426Y-51892711D01*
X12221426Y-51892711D02*
X12307141Y-51935568D01*
X12307141Y-51935568D02*
X12349998Y-51978425D01*
X12349998Y-51978425D02*
X12392855Y-52064140D01*
X12392855Y-52064140D02*
X12392855Y-52235568D01*
X12392855Y-52235568D02*
X12349998Y-52321282D01*
X12349998Y-52321282D02*
X12307141Y-52364140D01*
X12307141Y-52364140D02*
X12221426Y-52406997D01*
X12221426Y-52406997D02*
X12049998Y-52406997D01*
X12049998Y-52406997D02*
X11964284Y-52364140D01*
X11964284Y-52364140D02*
X11921426Y-52321282D01*
X11921426Y-52321282D02*
X11878569Y-52235568D01*
X11878569Y-52235568D02*
X11878569Y-52064140D01*
X11878569Y-52064140D02*
X11921426Y-51978425D01*
X11921426Y-51978425D02*
X11964284Y-51935568D01*
X11964284Y-51935568D02*
X12049998Y-51892711D01*
X11578569Y-52749854D02*
X11535712Y-52706997D01*
X11535712Y-52706997D02*
X11449998Y-52578425D01*
X11449998Y-52578425D02*
X11407141Y-52492711D01*
X11407141Y-52492711D02*
X11364283Y-52364140D01*
X11364283Y-52364140D02*
X11321426Y-52149854D01*
X11321426Y-52149854D02*
X11321426Y-51978425D01*
X11321426Y-51978425D02*
X11364283Y-51764140D01*
X11364283Y-51764140D02*
X11407141Y-51635568D01*
X11407141Y-51635568D02*
X11449998Y-51549854D01*
X11449998Y-51549854D02*
X11535712Y-51421282D01*
X11535712Y-51421282D02*
X11578569Y-51378425D01*
X40678572Y-53506997D02*
X40678572Y-54149854D01*
X40678572Y-54149854D02*
X40721429Y-54278425D01*
X40721429Y-54278425D02*
X40807143Y-54364140D01*
X40807143Y-54364140D02*
X40935715Y-54406997D01*
X40935715Y-54406997D02*
X41021429Y-54406997D01*
X40250001Y-54406997D02*
X40250001Y-53506997D01*
X40250001Y-53506997D02*
X39907144Y-53506997D01*
X39907144Y-53506997D02*
X39821429Y-53549854D01*
X39821429Y-53549854D02*
X39778572Y-53592711D01*
X39778572Y-53592711D02*
X39735715Y-53678425D01*
X39735715Y-53678425D02*
X39735715Y-53806997D01*
X39735715Y-53806997D02*
X39778572Y-53892711D01*
X39778572Y-53892711D02*
X39821429Y-53935568D01*
X39821429Y-53935568D02*
X39907144Y-53978425D01*
X39907144Y-53978425D02*
X40250001Y-53978425D01*
X38964287Y-53806997D02*
X38964287Y-54406997D01*
X39178572Y-53464140D02*
X39392858Y-54106997D01*
X39392858Y-54106997D02*
X38835715Y-54106997D01*
X37250001Y-53806997D02*
X36907144Y-53806997D01*
X37121430Y-54406997D02*
X37121430Y-53635568D01*
X37121430Y-53635568D02*
X37078573Y-53549854D01*
X37078573Y-53549854D02*
X36992858Y-53506997D01*
X36992858Y-53506997D02*
X36907144Y-53506997D01*
X36264287Y-54364140D02*
X36350001Y-54406997D01*
X36350001Y-54406997D02*
X36521430Y-54406997D01*
X36521430Y-54406997D02*
X36607144Y-54364140D01*
X36607144Y-54364140D02*
X36650001Y-54278425D01*
X36650001Y-54278425D02*
X36650001Y-53935568D01*
X36650001Y-53935568D02*
X36607144Y-53849854D01*
X36607144Y-53849854D02*
X36521430Y-53806997D01*
X36521430Y-53806997D02*
X36350001Y-53806997D01*
X36350001Y-53806997D02*
X36264287Y-53849854D01*
X36264287Y-53849854D02*
X36221430Y-53935568D01*
X36221430Y-53935568D02*
X36221430Y-54021282D01*
X36221430Y-54021282D02*
X36650001Y-54106997D01*
X35450001Y-54364140D02*
X35535715Y-54406997D01*
X35535715Y-54406997D02*
X35707143Y-54406997D01*
X35707143Y-54406997D02*
X35792858Y-54364140D01*
X35792858Y-54364140D02*
X35835715Y-54321282D01*
X35835715Y-54321282D02*
X35878572Y-54235568D01*
X35878572Y-54235568D02*
X35878572Y-53978425D01*
X35878572Y-53978425D02*
X35835715Y-53892711D01*
X35835715Y-53892711D02*
X35792858Y-53849854D01*
X35792858Y-53849854D02*
X35707143Y-53806997D01*
X35707143Y-53806997D02*
X35535715Y-53806997D01*
X35535715Y-53806997D02*
X35450001Y-53849854D01*
X35064286Y-54406997D02*
X35064286Y-53506997D01*
X34678572Y-54406997D02*
X34678572Y-53935568D01*
X34678572Y-53935568D02*
X34721429Y-53849854D01*
X34721429Y-53849854D02*
X34807143Y-53806997D01*
X34807143Y-53806997D02*
X34935714Y-53806997D01*
X34935714Y-53806997D02*
X35021429Y-53849854D01*
X35021429Y-53849854D02*
X35064286Y-53892711D01*
X33864286Y-54406997D02*
X33864286Y-53935568D01*
X33864286Y-53935568D02*
X33907143Y-53849854D01*
X33907143Y-53849854D02*
X33992857Y-53806997D01*
X33992857Y-53806997D02*
X34164286Y-53806997D01*
X34164286Y-53806997D02*
X34250000Y-53849854D01*
X33864286Y-54364140D02*
X33950000Y-54406997D01*
X33950000Y-54406997D02*
X34164286Y-54406997D01*
X34164286Y-54406997D02*
X34250000Y-54364140D01*
X34250000Y-54364140D02*
X34292857Y-54278425D01*
X34292857Y-54278425D02*
X34292857Y-54192711D01*
X34292857Y-54192711D02*
X34250000Y-54106997D01*
X34250000Y-54106997D02*
X34164286Y-54064140D01*
X34164286Y-54064140D02*
X33950000Y-54064140D01*
X33950000Y-54064140D02*
X33864286Y-54021282D01*
X33050000Y-54406997D02*
X33050000Y-53506997D01*
X33050000Y-54364140D02*
X33135714Y-54406997D01*
X33135714Y-54406997D02*
X33307142Y-54406997D01*
X33307142Y-54406997D02*
X33392857Y-54364140D01*
X33392857Y-54364140D02*
X33435714Y-54321282D01*
X33435714Y-54321282D02*
X33478571Y-54235568D01*
X33478571Y-54235568D02*
X33478571Y-53978425D01*
X33478571Y-53978425D02*
X33435714Y-53892711D01*
X33435714Y-53892711D02*
X33392857Y-53849854D01*
X33392857Y-53849854D02*
X33307142Y-53806997D01*
X33307142Y-53806997D02*
X33135714Y-53806997D01*
X33135714Y-53806997D02*
X33050000Y-53849854D01*
X32492856Y-54406997D02*
X32578571Y-54364140D01*
X32578571Y-54364140D02*
X32621428Y-54321282D01*
X32621428Y-54321282D02*
X32664285Y-54235568D01*
X32664285Y-54235568D02*
X32664285Y-53978425D01*
X32664285Y-53978425D02*
X32621428Y-53892711D01*
X32621428Y-53892711D02*
X32578571Y-53849854D01*
X32578571Y-53849854D02*
X32492856Y-53806997D01*
X32492856Y-53806997D02*
X32364285Y-53806997D01*
X32364285Y-53806997D02*
X32278571Y-53849854D01*
X32278571Y-53849854D02*
X32235714Y-53892711D01*
X32235714Y-53892711D02*
X32192856Y-53978425D01*
X32192856Y-53978425D02*
X32192856Y-54235568D01*
X32192856Y-54235568D02*
X32235714Y-54321282D01*
X32235714Y-54321282D02*
X32278571Y-54364140D01*
X32278571Y-54364140D02*
X32364285Y-54406997D01*
X32364285Y-54406997D02*
X32492856Y-54406997D01*
X31121428Y-53935568D02*
X30435714Y-53935568D01*
X30435714Y-54192711D02*
X31121428Y-54192711D01*
X28935714Y-54406997D02*
X28935714Y-53935568D01*
X28935714Y-53935568D02*
X28978571Y-53849854D01*
X28978571Y-53849854D02*
X29064285Y-53806997D01*
X29064285Y-53806997D02*
X29235714Y-53806997D01*
X29235714Y-53806997D02*
X29321428Y-53849854D01*
X28935714Y-54364140D02*
X29021428Y-54406997D01*
X29021428Y-54406997D02*
X29235714Y-54406997D01*
X29235714Y-54406997D02*
X29321428Y-54364140D01*
X29321428Y-54364140D02*
X29364285Y-54278425D01*
X29364285Y-54278425D02*
X29364285Y-54192711D01*
X29364285Y-54192711D02*
X29321428Y-54106997D01*
X29321428Y-54106997D02*
X29235714Y-54064140D01*
X29235714Y-54064140D02*
X29021428Y-54064140D01*
X29021428Y-54064140D02*
X28935714Y-54021282D01*
X28121428Y-53806997D02*
X28121428Y-54406997D01*
X28507142Y-53806997D02*
X28507142Y-54278425D01*
X28507142Y-54278425D02*
X28464285Y-54364140D01*
X28464285Y-54364140D02*
X28378570Y-54406997D01*
X28378570Y-54406997D02*
X28249999Y-54406997D01*
X28249999Y-54406997D02*
X28164285Y-54364140D01*
X28164285Y-54364140D02*
X28121428Y-54321282D01*
X27821427Y-53806997D02*
X27478570Y-53806997D01*
X27692856Y-53506997D02*
X27692856Y-54278425D01*
X27692856Y-54278425D02*
X27649999Y-54364140D01*
X27649999Y-54364140D02*
X27564284Y-54406997D01*
X27564284Y-54406997D02*
X27478570Y-54406997D01*
X27049998Y-54406997D02*
X27135713Y-54364140D01*
X27135713Y-54364140D02*
X27178570Y-54321282D01*
X27178570Y-54321282D02*
X27221427Y-54235568D01*
X27221427Y-54235568D02*
X27221427Y-53978425D01*
X27221427Y-53978425D02*
X27178570Y-53892711D01*
X27178570Y-53892711D02*
X27135713Y-53849854D01*
X27135713Y-53849854D02*
X27049998Y-53806997D01*
X27049998Y-53806997D02*
X26921427Y-53806997D01*
X26921427Y-53806997D02*
X26835713Y-53849854D01*
X26835713Y-53849854D02*
X26792856Y-53892711D01*
X26792856Y-53892711D02*
X26749998Y-53978425D01*
X26749998Y-53978425D02*
X26749998Y-54235568D01*
X26749998Y-54235568D02*
X26792856Y-54321282D01*
X26792856Y-54321282D02*
X26835713Y-54364140D01*
X26835713Y-54364140D02*
X26921427Y-54406997D01*
X26921427Y-54406997D02*
X27049998Y-54406997D01*
X26364284Y-54064140D02*
X25678570Y-54064140D01*
X24864284Y-54406997D02*
X24864284Y-53506997D01*
X24864284Y-54364140D02*
X24949998Y-54406997D01*
X24949998Y-54406997D02*
X25121426Y-54406997D01*
X25121426Y-54406997D02*
X25207141Y-54364140D01*
X25207141Y-54364140D02*
X25249998Y-54321282D01*
X25249998Y-54321282D02*
X25292855Y-54235568D01*
X25292855Y-54235568D02*
X25292855Y-53978425D01*
X25292855Y-53978425D02*
X25249998Y-53892711D01*
X25249998Y-53892711D02*
X25207141Y-53849854D01*
X25207141Y-53849854D02*
X25121426Y-53806997D01*
X25121426Y-53806997D02*
X24949998Y-53806997D01*
X24949998Y-53806997D02*
X24864284Y-53849854D01*
X24092855Y-54364140D02*
X24178569Y-54406997D01*
X24178569Y-54406997D02*
X24349998Y-54406997D01*
X24349998Y-54406997D02*
X24435712Y-54364140D01*
X24435712Y-54364140D02*
X24478569Y-54278425D01*
X24478569Y-54278425D02*
X24478569Y-53935568D01*
X24478569Y-53935568D02*
X24435712Y-53849854D01*
X24435712Y-53849854D02*
X24349998Y-53806997D01*
X24349998Y-53806997D02*
X24178569Y-53806997D01*
X24178569Y-53806997D02*
X24092855Y-53849854D01*
X24092855Y-53849854D02*
X24049998Y-53935568D01*
X24049998Y-53935568D02*
X24049998Y-54021282D01*
X24049998Y-54021282D02*
X24478569Y-54106997D01*
X23707140Y-54364140D02*
X23621426Y-54406997D01*
X23621426Y-54406997D02*
X23449997Y-54406997D01*
X23449997Y-54406997D02*
X23364283Y-54364140D01*
X23364283Y-54364140D02*
X23321426Y-54278425D01*
X23321426Y-54278425D02*
X23321426Y-54235568D01*
X23321426Y-54235568D02*
X23364283Y-54149854D01*
X23364283Y-54149854D02*
X23449997Y-54106997D01*
X23449997Y-54106997D02*
X23578569Y-54106997D01*
X23578569Y-54106997D02*
X23664283Y-54064140D01*
X23664283Y-54064140D02*
X23707140Y-53978425D01*
X23707140Y-53978425D02*
X23707140Y-53935568D01*
X23707140Y-53935568D02*
X23664283Y-53849854D01*
X23664283Y-53849854D02*
X23578569Y-53806997D01*
X23578569Y-53806997D02*
X23449997Y-53806997D01*
X23449997Y-53806997D02*
X23364283Y-53849854D01*
X22549998Y-54406997D02*
X22549998Y-53935568D01*
X22549998Y-53935568D02*
X22592855Y-53849854D01*
X22592855Y-53849854D02*
X22678569Y-53806997D01*
X22678569Y-53806997D02*
X22849998Y-53806997D01*
X22849998Y-53806997D02*
X22935712Y-53849854D01*
X22549998Y-54364140D02*
X22635712Y-54406997D01*
X22635712Y-54406997D02*
X22849998Y-54406997D01*
X22849998Y-54406997D02*
X22935712Y-54364140D01*
X22935712Y-54364140D02*
X22978569Y-54278425D01*
X22978569Y-54278425D02*
X22978569Y-54192711D01*
X22978569Y-54192711D02*
X22935712Y-54106997D01*
X22935712Y-54106997D02*
X22849998Y-54064140D01*
X22849998Y-54064140D02*
X22635712Y-54064140D01*
X22635712Y-54064140D02*
X22549998Y-54021282D01*
X22249997Y-53806997D02*
X21907140Y-53806997D01*
X22121426Y-53506997D02*
X22121426Y-54278425D01*
X22121426Y-54278425D02*
X22078569Y-54364140D01*
X22078569Y-54364140D02*
X21992854Y-54406997D01*
X21992854Y-54406997D02*
X21907140Y-54406997D01*
X21607140Y-54406997D02*
X21607140Y-53806997D01*
X21607140Y-53506997D02*
X21649997Y-53549854D01*
X21649997Y-53549854D02*
X21607140Y-53592711D01*
X21607140Y-53592711D02*
X21564283Y-53549854D01*
X21564283Y-53549854D02*
X21607140Y-53506997D01*
X21607140Y-53506997D02*
X21607140Y-53592711D01*
X21264283Y-53806997D02*
X21049997Y-54406997D01*
X21049997Y-54406997D02*
X20835712Y-53806997D01*
X20107141Y-54406997D02*
X20107141Y-53935568D01*
X20107141Y-53935568D02*
X20149998Y-53849854D01*
X20149998Y-53849854D02*
X20235712Y-53806997D01*
X20235712Y-53806997D02*
X20407141Y-53806997D01*
X20407141Y-53806997D02*
X20492855Y-53849854D01*
X20107141Y-54364140D02*
X20192855Y-54406997D01*
X20192855Y-54406997D02*
X20407141Y-54406997D01*
X20407141Y-54406997D02*
X20492855Y-54364140D01*
X20492855Y-54364140D02*
X20535712Y-54278425D01*
X20535712Y-54278425D02*
X20535712Y-54192711D01*
X20535712Y-54192711D02*
X20492855Y-54106997D01*
X20492855Y-54106997D02*
X20407141Y-54064140D01*
X20407141Y-54064140D02*
X20192855Y-54064140D01*
X20192855Y-54064140D02*
X20107141Y-54021282D01*
X18607141Y-54406997D02*
X18607141Y-53935568D01*
X18607141Y-53935568D02*
X18649998Y-53849854D01*
X18649998Y-53849854D02*
X18735712Y-53806997D01*
X18735712Y-53806997D02*
X18907141Y-53806997D01*
X18907141Y-53806997D02*
X18992855Y-53849854D01*
X18607141Y-54364140D02*
X18692855Y-54406997D01*
X18692855Y-54406997D02*
X18907141Y-54406997D01*
X18907141Y-54406997D02*
X18992855Y-54364140D01*
X18992855Y-54364140D02*
X19035712Y-54278425D01*
X19035712Y-54278425D02*
X19035712Y-54192711D01*
X19035712Y-54192711D02*
X18992855Y-54106997D01*
X18992855Y-54106997D02*
X18907141Y-54064140D01*
X18907141Y-54064140D02*
X18692855Y-54064140D01*
X18692855Y-54064140D02*
X18607141Y-54021282D01*
X16978569Y-54406997D02*
X17278569Y-53978425D01*
X17492855Y-54406997D02*
X17492855Y-53506997D01*
X17492855Y-53506997D02*
X17149998Y-53506997D01*
X17149998Y-53506997D02*
X17064283Y-53549854D01*
X17064283Y-53549854D02*
X17021426Y-53592711D01*
X17021426Y-53592711D02*
X16978569Y-53678425D01*
X16978569Y-53678425D02*
X16978569Y-53806997D01*
X16978569Y-53806997D02*
X17021426Y-53892711D01*
X17021426Y-53892711D02*
X17064283Y-53935568D01*
X17064283Y-53935568D02*
X17149998Y-53978425D01*
X17149998Y-53978425D02*
X17492855Y-53978425D01*
X16635712Y-54149854D02*
X16207141Y-54149854D01*
X16721426Y-54406997D02*
X16421426Y-53506997D01*
X16421426Y-53506997D02*
X16121426Y-54406997D01*
X15821426Y-54406997D02*
X15821426Y-53506997D01*
X15821426Y-53506997D02*
X15521426Y-54149854D01*
X15521426Y-54149854D02*
X15221426Y-53506997D01*
X15221426Y-53506997D02*
X15221426Y-54406997D01*
X13721427Y-54406997D02*
X13721427Y-53506997D01*
X13721427Y-54364140D02*
X13807141Y-54406997D01*
X13807141Y-54406997D02*
X13978569Y-54406997D01*
X13978569Y-54406997D02*
X14064284Y-54364140D01*
X14064284Y-54364140D02*
X14107141Y-54321282D01*
X14107141Y-54321282D02*
X14149998Y-54235568D01*
X14149998Y-54235568D02*
X14149998Y-53978425D01*
X14149998Y-53978425D02*
X14107141Y-53892711D01*
X14107141Y-53892711D02*
X14064284Y-53849854D01*
X14064284Y-53849854D02*
X13978569Y-53806997D01*
X13978569Y-53806997D02*
X13807141Y-53806997D01*
X13807141Y-53806997D02*
X13721427Y-53849854D01*
X12949998Y-54364140D02*
X13035712Y-54406997D01*
X13035712Y-54406997D02*
X13207141Y-54406997D01*
X13207141Y-54406997D02*
X13292855Y-54364140D01*
X13292855Y-54364140D02*
X13335712Y-54278425D01*
X13335712Y-54278425D02*
X13335712Y-53935568D01*
X13335712Y-53935568D02*
X13292855Y-53849854D01*
X13292855Y-53849854D02*
X13207141Y-53806997D01*
X13207141Y-53806997D02*
X13035712Y-53806997D01*
X13035712Y-53806997D02*
X12949998Y-53849854D01*
X12949998Y-53849854D02*
X12907141Y-53935568D01*
X12907141Y-53935568D02*
X12907141Y-54021282D01*
X12907141Y-54021282D02*
X13335712Y-54106997D01*
X11921426Y-53506997D02*
X11364283Y-53506997D01*
X11364283Y-53506997D02*
X11664283Y-53849854D01*
X11664283Y-53849854D02*
X11535712Y-53849854D01*
X11535712Y-53849854D02*
X11449998Y-53892711D01*
X11449998Y-53892711D02*
X11407140Y-53935568D01*
X11407140Y-53935568D02*
X11364283Y-54021282D01*
X11364283Y-54021282D02*
X11364283Y-54235568D01*
X11364283Y-54235568D02*
X11407140Y-54321282D01*
X11407140Y-54321282D02*
X11449998Y-54364140D01*
X11449998Y-54364140D02*
X11535712Y-54406997D01*
X11535712Y-54406997D02*
X11792855Y-54406997D01*
X11792855Y-54406997D02*
X11878569Y-54364140D01*
X11878569Y-54364140D02*
X11921426Y-54321282D01*
X11021426Y-53592711D02*
X10978569Y-53549854D01*
X10978569Y-53549854D02*
X10892855Y-53506997D01*
X10892855Y-53506997D02*
X10678569Y-53506997D01*
X10678569Y-53506997D02*
X10592855Y-53549854D01*
X10592855Y-53549854D02*
X10549997Y-53592711D01*
X10549997Y-53592711D02*
X10507140Y-53678425D01*
X10507140Y-53678425D02*
X10507140Y-53764140D01*
X10507140Y-53764140D02*
X10549997Y-53892711D01*
X10549997Y-53892711D02*
X11064283Y-54406997D01*
X11064283Y-54406997D02*
X10507140Y-54406997D01*
X10121426Y-54406997D02*
X10121426Y-53506997D01*
X9607140Y-54406997D02*
X9992854Y-53892711D01*
X9607140Y-53506997D02*
X10121426Y-54021282D01*
X8149998Y-54406997D02*
X8149998Y-53506997D01*
X8149998Y-54364140D02*
X8235712Y-54406997D01*
X8235712Y-54406997D02*
X8407140Y-54406997D01*
X8407140Y-54406997D02*
X8492855Y-54364140D01*
X8492855Y-54364140D02*
X8535712Y-54321282D01*
X8535712Y-54321282D02*
X8578569Y-54235568D01*
X8578569Y-54235568D02*
X8578569Y-53978425D01*
X8578569Y-53978425D02*
X8535712Y-53892711D01*
X8535712Y-53892711D02*
X8492855Y-53849854D01*
X8492855Y-53849854D02*
X8407140Y-53806997D01*
X8407140Y-53806997D02*
X8235712Y-53806997D01*
X8235712Y-53806997D02*
X8149998Y-53849854D01*
X7592854Y-54406997D02*
X7678569Y-54364140D01*
X7678569Y-54364140D02*
X7721426Y-54321282D01*
X7721426Y-54321282D02*
X7764283Y-54235568D01*
X7764283Y-54235568D02*
X7764283Y-53978425D01*
X7764283Y-53978425D02*
X7721426Y-53892711D01*
X7721426Y-53892711D02*
X7678569Y-53849854D01*
X7678569Y-53849854D02*
X7592854Y-53806997D01*
X7592854Y-53806997D02*
X7464283Y-53806997D01*
X7464283Y-53806997D02*
X7378569Y-53849854D01*
X7378569Y-53849854D02*
X7335712Y-53892711D01*
X7335712Y-53892711D02*
X7292854Y-53978425D01*
X7292854Y-53978425D02*
X7292854Y-54235568D01*
X7292854Y-54235568D02*
X7335712Y-54321282D01*
X7335712Y-54321282D02*
X7378569Y-54364140D01*
X7378569Y-54364140D02*
X7464283Y-54406997D01*
X7464283Y-54406997D02*
X7592854Y-54406997D01*
X6349997Y-53506997D02*
X5835712Y-53506997D01*
X6092854Y-54406997D02*
X6092854Y-53506997D01*
X5535712Y-54406997D02*
X5535712Y-53506997D01*
X5021426Y-54406997D02*
X5407140Y-53892711D01*
X5021426Y-53506997D02*
X5535712Y-54021282D01*
X34785715Y-56406997D02*
X34785715Y-55506997D01*
X34785715Y-55506997D02*
X34271429Y-56406997D01*
X34271429Y-56406997D02*
X34271429Y-55506997D01*
X33842858Y-55506997D02*
X33842858Y-56235568D01*
X33842858Y-56235568D02*
X33800001Y-56321282D01*
X33800001Y-56321282D02*
X33757144Y-56364140D01*
X33757144Y-56364140D02*
X33671429Y-56406997D01*
X33671429Y-56406997D02*
X33500001Y-56406997D01*
X33500001Y-56406997D02*
X33414286Y-56364140D01*
X33414286Y-56364140D02*
X33371429Y-56321282D01*
X33371429Y-56321282D02*
X33328572Y-56235568D01*
X33328572Y-56235568D02*
X33328572Y-55506997D01*
X32900001Y-56406997D02*
X32900001Y-55506997D01*
X32900001Y-55506997D02*
X32385715Y-56406997D01*
X32385715Y-56406997D02*
X32385715Y-55506997D01*
X31442858Y-56321282D02*
X31485715Y-56364140D01*
X31485715Y-56364140D02*
X31614287Y-56406997D01*
X31614287Y-56406997D02*
X31700001Y-56406997D01*
X31700001Y-56406997D02*
X31828572Y-56364140D01*
X31828572Y-56364140D02*
X31914287Y-56278425D01*
X31914287Y-56278425D02*
X31957144Y-56192711D01*
X31957144Y-56192711D02*
X32000001Y-56021282D01*
X32000001Y-56021282D02*
X32000001Y-55892711D01*
X32000001Y-55892711D02*
X31957144Y-55721282D01*
X31957144Y-55721282D02*
X31914287Y-55635568D01*
X31914287Y-55635568D02*
X31828572Y-55549854D01*
X31828572Y-55549854D02*
X31700001Y-55506997D01*
X31700001Y-55506997D02*
X31614287Y-55506997D01*
X31614287Y-55506997D02*
X31485715Y-55549854D01*
X31485715Y-55549854D02*
X31442858Y-55592711D01*
X31100001Y-56149854D02*
X30671430Y-56149854D01*
X31185715Y-56406997D02*
X30885715Y-55506997D01*
X30885715Y-55506997D02*
X30585715Y-56406997D01*
X29728572Y-55806997D02*
X29385715Y-55806997D01*
X29600001Y-56406997D02*
X29600001Y-55635568D01*
X29600001Y-55635568D02*
X29557144Y-55549854D01*
X29557144Y-55549854D02*
X29471429Y-55506997D01*
X29471429Y-55506997D02*
X29385715Y-55506997D01*
X28742858Y-56364140D02*
X28828572Y-56406997D01*
X28828572Y-56406997D02*
X29000001Y-56406997D01*
X29000001Y-56406997D02*
X29085715Y-56364140D01*
X29085715Y-56364140D02*
X29128572Y-56278425D01*
X29128572Y-56278425D02*
X29128572Y-55935568D01*
X29128572Y-55935568D02*
X29085715Y-55849854D01*
X29085715Y-55849854D02*
X29000001Y-55806997D01*
X29000001Y-55806997D02*
X28828572Y-55806997D01*
X28828572Y-55806997D02*
X28742858Y-55849854D01*
X28742858Y-55849854D02*
X28700001Y-55935568D01*
X28700001Y-55935568D02*
X28700001Y-56021282D01*
X28700001Y-56021282D02*
X29128572Y-56106997D01*
X27928572Y-56364140D02*
X28014286Y-56406997D01*
X28014286Y-56406997D02*
X28185714Y-56406997D01*
X28185714Y-56406997D02*
X28271429Y-56364140D01*
X28271429Y-56364140D02*
X28314286Y-56321282D01*
X28314286Y-56321282D02*
X28357143Y-56235568D01*
X28357143Y-56235568D02*
X28357143Y-55978425D01*
X28357143Y-55978425D02*
X28314286Y-55892711D01*
X28314286Y-55892711D02*
X28271429Y-55849854D01*
X28271429Y-55849854D02*
X28185714Y-55806997D01*
X28185714Y-55806997D02*
X28014286Y-55806997D01*
X28014286Y-55806997D02*
X27928572Y-55849854D01*
X27542857Y-56406997D02*
X27542857Y-55506997D01*
X27157143Y-56406997D02*
X27157143Y-55935568D01*
X27157143Y-55935568D02*
X27200000Y-55849854D01*
X27200000Y-55849854D02*
X27285714Y-55806997D01*
X27285714Y-55806997D02*
X27414285Y-55806997D01*
X27414285Y-55806997D02*
X27500000Y-55849854D01*
X27500000Y-55849854D02*
X27542857Y-55892711D01*
X26385714Y-56364140D02*
X26471428Y-56406997D01*
X26471428Y-56406997D02*
X26642857Y-56406997D01*
X26642857Y-56406997D02*
X26728571Y-56364140D01*
X26728571Y-56364140D02*
X26771428Y-56278425D01*
X26771428Y-56278425D02*
X26771428Y-55935568D01*
X26771428Y-55935568D02*
X26728571Y-55849854D01*
X26728571Y-55849854D02*
X26642857Y-55806997D01*
X26642857Y-55806997D02*
X26471428Y-55806997D01*
X26471428Y-55806997D02*
X26385714Y-55849854D01*
X26385714Y-55849854D02*
X26342857Y-55935568D01*
X26342857Y-55935568D02*
X26342857Y-56021282D01*
X26342857Y-56021282D02*
X26771428Y-56106997D01*
X25014285Y-55506997D02*
X25014285Y-56149854D01*
X25014285Y-56149854D02*
X25057142Y-56278425D01*
X25057142Y-56278425D02*
X25142856Y-56364140D01*
X25142856Y-56364140D02*
X25271428Y-56406997D01*
X25271428Y-56406997D02*
X25357142Y-56406997D01*
X24585714Y-56406997D02*
X24585714Y-55506997D01*
X24585714Y-55506997D02*
X24242857Y-55506997D01*
X24242857Y-55506997D02*
X24157142Y-55549854D01*
X24157142Y-55549854D02*
X24114285Y-55592711D01*
X24114285Y-55592711D02*
X24071428Y-55678425D01*
X24071428Y-55678425D02*
X24071428Y-55806997D01*
X24071428Y-55806997D02*
X24114285Y-55892711D01*
X24114285Y-55892711D02*
X24157142Y-55935568D01*
X24157142Y-55935568D02*
X24242857Y-55978425D01*
X24242857Y-55978425D02*
X24585714Y-55978425D01*
X23300000Y-55806997D02*
X23300000Y-56406997D01*
X23514285Y-55464140D02*
X23728571Y-56106997D01*
X23728571Y-56106997D02*
X23171428Y-56106997D01*
X21800000Y-56364140D02*
X21885714Y-56406997D01*
X21885714Y-56406997D02*
X22057143Y-56406997D01*
X22057143Y-56406997D02*
X22142857Y-56364140D01*
X22142857Y-56364140D02*
X22185714Y-56278425D01*
X22185714Y-56278425D02*
X22185714Y-55935568D01*
X22185714Y-55935568D02*
X22142857Y-55849854D01*
X22142857Y-55849854D02*
X22057143Y-55806997D01*
X22057143Y-55806997D02*
X21885714Y-55806997D01*
X21885714Y-55806997D02*
X21800000Y-55849854D01*
X21800000Y-55849854D02*
X21757143Y-55935568D01*
X21757143Y-55935568D02*
X21757143Y-56021282D01*
X21757143Y-56021282D02*
X22185714Y-56106997D01*
X21371428Y-56406997D02*
X21371428Y-55806997D01*
X21371428Y-55892711D02*
X21328571Y-55849854D01*
X21328571Y-55849854D02*
X21242856Y-55806997D01*
X21242856Y-55806997D02*
X21114285Y-55806997D01*
X21114285Y-55806997D02*
X21028571Y-55849854D01*
X21028571Y-55849854D02*
X20985714Y-55935568D01*
X20985714Y-55935568D02*
X20985714Y-56406997D01*
X20985714Y-55935568D02*
X20942856Y-55849854D01*
X20942856Y-55849854D02*
X20857142Y-55806997D01*
X20857142Y-55806997D02*
X20728571Y-55806997D01*
X20728571Y-55806997D02*
X20642856Y-55849854D01*
X20642856Y-55849854D02*
X20599999Y-55935568D01*
X20599999Y-55935568D02*
X20599999Y-56406997D01*
X19571428Y-55506997D02*
X18971428Y-55506997D01*
X18971428Y-55506997D02*
X19571428Y-56406997D01*
X19571428Y-56406997D02*
X18971428Y-56406997D01*
X18714285Y-55506997D02*
X18114285Y-56406997D01*
X18114285Y-55506997D02*
X18714285Y-56406997D01*
X17128571Y-56364140D02*
X17000000Y-56406997D01*
X17000000Y-56406997D02*
X16785714Y-56406997D01*
X16785714Y-56406997D02*
X16700000Y-56364140D01*
X16700000Y-56364140D02*
X16657142Y-56321282D01*
X16657142Y-56321282D02*
X16614285Y-56235568D01*
X16614285Y-56235568D02*
X16614285Y-56149854D01*
X16614285Y-56149854D02*
X16657142Y-56064140D01*
X16657142Y-56064140D02*
X16700000Y-56021282D01*
X16700000Y-56021282D02*
X16785714Y-55978425D01*
X16785714Y-55978425D02*
X16957142Y-55935568D01*
X16957142Y-55935568D02*
X17042857Y-55892711D01*
X17042857Y-55892711D02*
X17085714Y-55849854D01*
X17085714Y-55849854D02*
X17128571Y-55764140D01*
X17128571Y-55764140D02*
X17128571Y-55678425D01*
X17128571Y-55678425D02*
X17085714Y-55592711D01*
X17085714Y-55592711D02*
X17042857Y-55549854D01*
X17042857Y-55549854D02*
X16957142Y-55506997D01*
X16957142Y-55506997D02*
X16742857Y-55506997D01*
X16742857Y-55506997D02*
X16614285Y-55549854D01*
X16228571Y-55806997D02*
X16228571Y-56706997D01*
X16228571Y-55849854D02*
X16142857Y-55806997D01*
X16142857Y-55806997D02*
X15971428Y-55806997D01*
X15971428Y-55806997D02*
X15885714Y-55849854D01*
X15885714Y-55849854D02*
X15842857Y-55892711D01*
X15842857Y-55892711D02*
X15799999Y-55978425D01*
X15799999Y-55978425D02*
X15799999Y-56235568D01*
X15799999Y-56235568D02*
X15842857Y-56321282D01*
X15842857Y-56321282D02*
X15885714Y-56364140D01*
X15885714Y-56364140D02*
X15971428Y-56406997D01*
X15971428Y-56406997D02*
X16142857Y-56406997D01*
X16142857Y-56406997D02*
X16228571Y-56364140D01*
X15071428Y-56364140D02*
X15157142Y-56406997D01*
X15157142Y-56406997D02*
X15328571Y-56406997D01*
X15328571Y-56406997D02*
X15414285Y-56364140D01*
X15414285Y-56364140D02*
X15457142Y-56278425D01*
X15457142Y-56278425D02*
X15457142Y-55935568D01*
X15457142Y-55935568D02*
X15414285Y-55849854D01*
X15414285Y-55849854D02*
X15328571Y-55806997D01*
X15328571Y-55806997D02*
X15157142Y-55806997D01*
X15157142Y-55806997D02*
X15071428Y-55849854D01*
X15071428Y-55849854D02*
X15028571Y-55935568D01*
X15028571Y-55935568D02*
X15028571Y-56021282D01*
X15028571Y-56021282D02*
X15457142Y-56106997D01*
X14257142Y-56364140D02*
X14342856Y-56406997D01*
X14342856Y-56406997D02*
X14514284Y-56406997D01*
X14514284Y-56406997D02*
X14599999Y-56364140D01*
X14599999Y-56364140D02*
X14642856Y-56321282D01*
X14642856Y-56321282D02*
X14685713Y-56235568D01*
X14685713Y-56235568D02*
X14685713Y-55978425D01*
X14685713Y-55978425D02*
X14642856Y-55892711D01*
X14642856Y-55892711D02*
X14599999Y-55849854D01*
X14599999Y-55849854D02*
X14514284Y-55806997D01*
X14514284Y-55806997D02*
X14342856Y-55806997D01*
X14342856Y-55806997D02*
X14257142Y-55849854D01*
X13999998Y-55806997D02*
X13657141Y-55806997D01*
X13871427Y-55506997D02*
X13871427Y-56278425D01*
X13871427Y-56278425D02*
X13828570Y-56364140D01*
X13828570Y-56364140D02*
X13742855Y-56406997D01*
X13742855Y-56406997D02*
X13657141Y-56406997D01*
X13357141Y-56406997D02*
X13357141Y-55806997D01*
X13357141Y-55978425D02*
X13314284Y-55892711D01*
X13314284Y-55892711D02*
X13271427Y-55849854D01*
X13271427Y-55849854D02*
X13185712Y-55806997D01*
X13185712Y-55806997D02*
X13099998Y-55806997D01*
X12414284Y-55806997D02*
X12414284Y-56406997D01*
X12799998Y-55806997D02*
X12799998Y-56278425D01*
X12799998Y-56278425D02*
X12757141Y-56364140D01*
X12757141Y-56364140D02*
X12671426Y-56406997D01*
X12671426Y-56406997D02*
X12542855Y-56406997D01*
X12542855Y-56406997D02*
X12457141Y-56364140D01*
X12457141Y-56364140D02*
X12414284Y-56321282D01*
X11985712Y-56406997D02*
X11985712Y-55806997D01*
X11985712Y-55892711D02*
X11942855Y-55849854D01*
X11942855Y-55849854D02*
X11857140Y-55806997D01*
X11857140Y-55806997D02*
X11728569Y-55806997D01*
X11728569Y-55806997D02*
X11642855Y-55849854D01*
X11642855Y-55849854D02*
X11599998Y-55935568D01*
X11599998Y-55935568D02*
X11599998Y-56406997D01*
X11599998Y-55935568D02*
X11557140Y-55849854D01*
X11557140Y-55849854D02*
X11471426Y-55806997D01*
X11471426Y-55806997D02*
X11342855Y-55806997D01*
X11342855Y-55806997D02*
X11257140Y-55849854D01*
X11257140Y-55849854D02*
X11214283Y-55935568D01*
X11214283Y-55935568D02*
X11214283Y-56406997D01*
X35014285Y-23821282D02*
X35057142Y-23864140D01*
X35057142Y-23864140D02*
X35185714Y-23906997D01*
X35185714Y-23906997D02*
X35271428Y-23906997D01*
X35271428Y-23906997D02*
X35399999Y-23864140D01*
X35399999Y-23864140D02*
X35485714Y-23778425D01*
X35485714Y-23778425D02*
X35528571Y-23692711D01*
X35528571Y-23692711D02*
X35571428Y-23521282D01*
X35571428Y-23521282D02*
X35571428Y-23392711D01*
X35571428Y-23392711D02*
X35528571Y-23221282D01*
X35528571Y-23221282D02*
X35485714Y-23135568D01*
X35485714Y-23135568D02*
X35399999Y-23049854D01*
X35399999Y-23049854D02*
X35271428Y-23006997D01*
X35271428Y-23006997D02*
X35185714Y-23006997D01*
X35185714Y-23006997D02*
X35057142Y-23049854D01*
X35057142Y-23049854D02*
X35014285Y-23092711D01*
X34628571Y-23435568D02*
X34328571Y-23435568D01*
X34199999Y-23906997D02*
X34628571Y-23906997D01*
X34628571Y-23906997D02*
X34628571Y-23006997D01*
X34628571Y-23006997D02*
X34199999Y-23006997D01*
X33299999Y-23906997D02*
X33599999Y-23478425D01*
X33814285Y-23906997D02*
X33814285Y-23006997D01*
X33814285Y-23006997D02*
X33471428Y-23006997D01*
X33471428Y-23006997D02*
X33385713Y-23049854D01*
X33385713Y-23049854D02*
X33342856Y-23092711D01*
X33342856Y-23092711D02*
X33299999Y-23178425D01*
X33299999Y-23178425D02*
X33299999Y-23306997D01*
X33299999Y-23306997D02*
X33342856Y-23392711D01*
X33342856Y-23392711D02*
X33385713Y-23435568D01*
X33385713Y-23435568D02*
X33471428Y-23478425D01*
X33471428Y-23478425D02*
X33814285Y-23478425D01*
X32914285Y-23906997D02*
X32914285Y-23006997D01*
X32914285Y-23006997D02*
X32399999Y-23906997D01*
X32399999Y-23906997D02*
X32399999Y-23006997D01*
X31971428Y-23564140D02*
X31285714Y-23564140D01*
X30685713Y-23006997D02*
X30514285Y-23006997D01*
X30514285Y-23006997D02*
X30428570Y-23049854D01*
X30428570Y-23049854D02*
X30342856Y-23135568D01*
X30342856Y-23135568D02*
X30299999Y-23306997D01*
X30299999Y-23306997D02*
X30299999Y-23606997D01*
X30299999Y-23606997D02*
X30342856Y-23778425D01*
X30342856Y-23778425D02*
X30428570Y-23864140D01*
X30428570Y-23864140D02*
X30514285Y-23906997D01*
X30514285Y-23906997D02*
X30685713Y-23906997D01*
X30685713Y-23906997D02*
X30771428Y-23864140D01*
X30771428Y-23864140D02*
X30857142Y-23778425D01*
X30857142Y-23778425D02*
X30899999Y-23606997D01*
X30899999Y-23606997D02*
X30899999Y-23306997D01*
X30899999Y-23306997D02*
X30857142Y-23135568D01*
X30857142Y-23135568D02*
X30771428Y-23049854D01*
X30771428Y-23049854D02*
X30685713Y-23006997D01*
X29914285Y-23906997D02*
X29914285Y-23006997D01*
X29914285Y-23435568D02*
X29399999Y-23435568D01*
X29399999Y-23906997D02*
X29399999Y-23006997D01*
X28542856Y-23906997D02*
X28971428Y-23906997D01*
X28971428Y-23906997D02*
X28971428Y-23006997D01*
X28242857Y-23564140D02*
X27557143Y-23564140D01*
X27171428Y-23864140D02*
X27042857Y-23906997D01*
X27042857Y-23906997D02*
X26828571Y-23906997D01*
X26828571Y-23906997D02*
X26742857Y-23864140D01*
X26742857Y-23864140D02*
X26699999Y-23821282D01*
X26699999Y-23821282D02*
X26657142Y-23735568D01*
X26657142Y-23735568D02*
X26657142Y-23649854D01*
X26657142Y-23649854D02*
X26699999Y-23564140D01*
X26699999Y-23564140D02*
X26742857Y-23521282D01*
X26742857Y-23521282D02*
X26828571Y-23478425D01*
X26828571Y-23478425D02*
X26999999Y-23435568D01*
X26999999Y-23435568D02*
X27085714Y-23392711D01*
X27085714Y-23392711D02*
X27128571Y-23349854D01*
X27128571Y-23349854D02*
X27171428Y-23264140D01*
X27171428Y-23264140D02*
X27171428Y-23178425D01*
X27171428Y-23178425D02*
X27128571Y-23092711D01*
X27128571Y-23092711D02*
X27085714Y-23049854D01*
X27085714Y-23049854D02*
X26999999Y-23006997D01*
X26999999Y-23006997D02*
X26785714Y-23006997D01*
X26785714Y-23006997D02*
X26657142Y-23049854D01*
X25671428Y-23306997D02*
X25457142Y-23906997D01*
X25457142Y-23906997D02*
X25242857Y-23306997D01*
X24942857Y-23092711D02*
X24900000Y-23049854D01*
X24900000Y-23049854D02*
X24814286Y-23006997D01*
X24814286Y-23006997D02*
X24600000Y-23006997D01*
X24600000Y-23006997D02*
X24514286Y-23049854D01*
X24514286Y-23049854D02*
X24471428Y-23092711D01*
X24471428Y-23092711D02*
X24428571Y-23178425D01*
X24428571Y-23178425D02*
X24428571Y-23264140D01*
X24428571Y-23264140D02*
X24471428Y-23392711D01*
X24471428Y-23392711D02*
X24985714Y-23906997D01*
X24985714Y-23906997D02*
X24428571Y-23906997D01*
X41850001Y-25306997D02*
X41850001Y-26035568D01*
X41850001Y-26035568D02*
X41892858Y-26121282D01*
X41892858Y-26121282D02*
X41935715Y-26164140D01*
X41935715Y-26164140D02*
X42021429Y-26206997D01*
X42021429Y-26206997D02*
X42150001Y-26206997D01*
X42150001Y-26206997D02*
X42235715Y-26164140D01*
X41850001Y-25864140D02*
X41935715Y-25906997D01*
X41935715Y-25906997D02*
X42107143Y-25906997D01*
X42107143Y-25906997D02*
X42192858Y-25864140D01*
X42192858Y-25864140D02*
X42235715Y-25821282D01*
X42235715Y-25821282D02*
X42278572Y-25735568D01*
X42278572Y-25735568D02*
X42278572Y-25478425D01*
X42278572Y-25478425D02*
X42235715Y-25392711D01*
X42235715Y-25392711D02*
X42192858Y-25349854D01*
X42192858Y-25349854D02*
X42107143Y-25306997D01*
X42107143Y-25306997D02*
X41935715Y-25306997D01*
X41935715Y-25306997D02*
X41850001Y-25349854D01*
X41421429Y-25906997D02*
X41421429Y-25306997D01*
X41421429Y-25006997D02*
X41464286Y-25049854D01*
X41464286Y-25049854D02*
X41421429Y-25092711D01*
X41421429Y-25092711D02*
X41378572Y-25049854D01*
X41378572Y-25049854D02*
X41421429Y-25006997D01*
X41421429Y-25006997D02*
X41421429Y-25092711D01*
X41121429Y-25306997D02*
X40778572Y-25306997D01*
X40992858Y-25006997D02*
X40992858Y-25778425D01*
X40992858Y-25778425D02*
X40950001Y-25864140D01*
X40950001Y-25864140D02*
X40864286Y-25906997D01*
X40864286Y-25906997D02*
X40778572Y-25906997D01*
X40478572Y-25906997D02*
X40478572Y-25006997D01*
X40092858Y-25906997D02*
X40092858Y-25435568D01*
X40092858Y-25435568D02*
X40135715Y-25349854D01*
X40135715Y-25349854D02*
X40221429Y-25306997D01*
X40221429Y-25306997D02*
X40350000Y-25306997D01*
X40350000Y-25306997D02*
X40435715Y-25349854D01*
X40435715Y-25349854D02*
X40478572Y-25392711D01*
X39278572Y-25306997D02*
X39278572Y-25906997D01*
X39664286Y-25306997D02*
X39664286Y-25778425D01*
X39664286Y-25778425D02*
X39621429Y-25864140D01*
X39621429Y-25864140D02*
X39535714Y-25906997D01*
X39535714Y-25906997D02*
X39407143Y-25906997D01*
X39407143Y-25906997D02*
X39321429Y-25864140D01*
X39321429Y-25864140D02*
X39278572Y-25821282D01*
X38850000Y-25906997D02*
X38850000Y-25006997D01*
X38850000Y-25349854D02*
X38764286Y-25306997D01*
X38764286Y-25306997D02*
X38592857Y-25306997D01*
X38592857Y-25306997D02*
X38507143Y-25349854D01*
X38507143Y-25349854D02*
X38464286Y-25392711D01*
X38464286Y-25392711D02*
X38421428Y-25478425D01*
X38421428Y-25478425D02*
X38421428Y-25735568D01*
X38421428Y-25735568D02*
X38464286Y-25821282D01*
X38464286Y-25821282D02*
X38507143Y-25864140D01*
X38507143Y-25864140D02*
X38592857Y-25906997D01*
X38592857Y-25906997D02*
X38764286Y-25906997D01*
X38764286Y-25906997D02*
X38850000Y-25864140D01*
X38035714Y-25821282D02*
X37992857Y-25864140D01*
X37992857Y-25864140D02*
X38035714Y-25906997D01*
X38035714Y-25906997D02*
X38078571Y-25864140D01*
X38078571Y-25864140D02*
X38035714Y-25821282D01*
X38035714Y-25821282D02*
X38035714Y-25906997D01*
X37221429Y-25864140D02*
X37307143Y-25906997D01*
X37307143Y-25906997D02*
X37478571Y-25906997D01*
X37478571Y-25906997D02*
X37564286Y-25864140D01*
X37564286Y-25864140D02*
X37607143Y-25821282D01*
X37607143Y-25821282D02*
X37650000Y-25735568D01*
X37650000Y-25735568D02*
X37650000Y-25478425D01*
X37650000Y-25478425D02*
X37607143Y-25392711D01*
X37607143Y-25392711D02*
X37564286Y-25349854D01*
X37564286Y-25349854D02*
X37478571Y-25306997D01*
X37478571Y-25306997D02*
X37307143Y-25306997D01*
X37307143Y-25306997D02*
X37221429Y-25349854D01*
X36707142Y-25906997D02*
X36792857Y-25864140D01*
X36792857Y-25864140D02*
X36835714Y-25821282D01*
X36835714Y-25821282D02*
X36878571Y-25735568D01*
X36878571Y-25735568D02*
X36878571Y-25478425D01*
X36878571Y-25478425D02*
X36835714Y-25392711D01*
X36835714Y-25392711D02*
X36792857Y-25349854D01*
X36792857Y-25349854D02*
X36707142Y-25306997D01*
X36707142Y-25306997D02*
X36578571Y-25306997D01*
X36578571Y-25306997D02*
X36492857Y-25349854D01*
X36492857Y-25349854D02*
X36450000Y-25392711D01*
X36450000Y-25392711D02*
X36407142Y-25478425D01*
X36407142Y-25478425D02*
X36407142Y-25735568D01*
X36407142Y-25735568D02*
X36450000Y-25821282D01*
X36450000Y-25821282D02*
X36492857Y-25864140D01*
X36492857Y-25864140D02*
X36578571Y-25906997D01*
X36578571Y-25906997D02*
X36707142Y-25906997D01*
X36021428Y-25906997D02*
X36021428Y-25306997D01*
X36021428Y-25392711D02*
X35978571Y-25349854D01*
X35978571Y-25349854D02*
X35892856Y-25306997D01*
X35892856Y-25306997D02*
X35764285Y-25306997D01*
X35764285Y-25306997D02*
X35678571Y-25349854D01*
X35678571Y-25349854D02*
X35635714Y-25435568D01*
X35635714Y-25435568D02*
X35635714Y-25906997D01*
X35635714Y-25435568D02*
X35592856Y-25349854D01*
X35592856Y-25349854D02*
X35507142Y-25306997D01*
X35507142Y-25306997D02*
X35378571Y-25306997D01*
X35378571Y-25306997D02*
X35292856Y-25349854D01*
X35292856Y-25349854D02*
X35249999Y-25435568D01*
X35249999Y-25435568D02*
X35249999Y-25906997D01*
X34178571Y-24964140D02*
X34949999Y-26121282D01*
X33749999Y-25906997D02*
X33835714Y-25864140D01*
X33835714Y-25864140D02*
X33878571Y-25778425D01*
X33878571Y-25778425D02*
X33878571Y-25006997D01*
X33407142Y-25906997D02*
X33407142Y-25306997D01*
X33407142Y-25478425D02*
X33364285Y-25392711D01*
X33364285Y-25392711D02*
X33321428Y-25349854D01*
X33321428Y-25349854D02*
X33235713Y-25306997D01*
X33235713Y-25306997D02*
X33149999Y-25306997D01*
X32849999Y-25906997D02*
X32849999Y-25306997D01*
X32849999Y-25478425D02*
X32807142Y-25392711D01*
X32807142Y-25392711D02*
X32764285Y-25349854D01*
X32764285Y-25349854D02*
X32678570Y-25306997D01*
X32678570Y-25306997D02*
X32592856Y-25306997D01*
X32164284Y-25906997D02*
X32249999Y-25864140D01*
X32249999Y-25864140D02*
X32292856Y-25821282D01*
X32292856Y-25821282D02*
X32335713Y-25735568D01*
X32335713Y-25735568D02*
X32335713Y-25478425D01*
X32335713Y-25478425D02*
X32292856Y-25392711D01*
X32292856Y-25392711D02*
X32249999Y-25349854D01*
X32249999Y-25349854D02*
X32164284Y-25306997D01*
X32164284Y-25306997D02*
X32035713Y-25306997D01*
X32035713Y-25306997D02*
X31949999Y-25349854D01*
X31949999Y-25349854D02*
X31907142Y-25392711D01*
X31907142Y-25392711D02*
X31864284Y-25478425D01*
X31864284Y-25478425D02*
X31864284Y-25735568D01*
X31864284Y-25735568D02*
X31907142Y-25821282D01*
X31907142Y-25821282D02*
X31949999Y-25864140D01*
X31949999Y-25864140D02*
X32035713Y-25906997D01*
X32035713Y-25906997D02*
X32164284Y-25906997D01*
X31521427Y-25864140D02*
X31435713Y-25906997D01*
X31435713Y-25906997D02*
X31264284Y-25906997D01*
X31264284Y-25906997D02*
X31178570Y-25864140D01*
X31178570Y-25864140D02*
X31135713Y-25778425D01*
X31135713Y-25778425D02*
X31135713Y-25735568D01*
X31135713Y-25735568D02*
X31178570Y-25649854D01*
X31178570Y-25649854D02*
X31264284Y-25606997D01*
X31264284Y-25606997D02*
X31392856Y-25606997D01*
X31392856Y-25606997D02*
X31478570Y-25564140D01*
X31478570Y-25564140D02*
X31521427Y-25478425D01*
X31521427Y-25478425D02*
X31521427Y-25435568D01*
X31521427Y-25435568D02*
X31478570Y-25349854D01*
X31478570Y-25349854D02*
X31392856Y-25306997D01*
X31392856Y-25306997D02*
X31264284Y-25306997D01*
X31264284Y-25306997D02*
X31178570Y-25349854D01*
X30364285Y-25906997D02*
X30364285Y-25435568D01*
X30364285Y-25435568D02*
X30407142Y-25349854D01*
X30407142Y-25349854D02*
X30492856Y-25306997D01*
X30492856Y-25306997D02*
X30664285Y-25306997D01*
X30664285Y-25306997D02*
X30749999Y-25349854D01*
X30364285Y-25864140D02*
X30449999Y-25906997D01*
X30449999Y-25906997D02*
X30664285Y-25906997D01*
X30664285Y-25906997D02*
X30749999Y-25864140D01*
X30749999Y-25864140D02*
X30792856Y-25778425D01*
X30792856Y-25778425D02*
X30792856Y-25692711D01*
X30792856Y-25692711D02*
X30749999Y-25606997D01*
X30749999Y-25606997D02*
X30664285Y-25564140D01*
X30664285Y-25564140D02*
X30449999Y-25564140D01*
X30449999Y-25564140D02*
X30364285Y-25521282D01*
X29292856Y-24964140D02*
X30064284Y-26121282D01*
X29121427Y-25306997D02*
X28778570Y-25306997D01*
X28992856Y-25006997D02*
X28992856Y-25778425D01*
X28992856Y-25778425D02*
X28949999Y-25864140D01*
X28949999Y-25864140D02*
X28864284Y-25906997D01*
X28864284Y-25906997D02*
X28778570Y-25906997D01*
X28478570Y-25906997D02*
X28478570Y-25006997D01*
X28392856Y-25564140D02*
X28135713Y-25906997D01*
X28135713Y-25306997D02*
X28478570Y-25649854D01*
X27749999Y-25906997D02*
X27749999Y-25306997D01*
X27749999Y-25392711D02*
X27707142Y-25349854D01*
X27707142Y-25349854D02*
X27621427Y-25306997D01*
X27621427Y-25306997D02*
X27492856Y-25306997D01*
X27492856Y-25306997D02*
X27407142Y-25349854D01*
X27407142Y-25349854D02*
X27364285Y-25435568D01*
X27364285Y-25435568D02*
X27364285Y-25906997D01*
X27364285Y-25435568D02*
X27321427Y-25349854D01*
X27321427Y-25349854D02*
X27235713Y-25306997D01*
X27235713Y-25306997D02*
X27107142Y-25306997D01*
X27107142Y-25306997D02*
X27021427Y-25349854D01*
X27021427Y-25349854D02*
X26978570Y-25435568D01*
X26978570Y-25435568D02*
X26978570Y-25906997D01*
X26207142Y-25864140D02*
X26292856Y-25906997D01*
X26292856Y-25906997D02*
X26464285Y-25906997D01*
X26464285Y-25906997D02*
X26549999Y-25864140D01*
X26549999Y-25864140D02*
X26592856Y-25778425D01*
X26592856Y-25778425D02*
X26592856Y-25435568D01*
X26592856Y-25435568D02*
X26549999Y-25349854D01*
X26549999Y-25349854D02*
X26464285Y-25306997D01*
X26464285Y-25306997D02*
X26292856Y-25306997D01*
X26292856Y-25306997D02*
X26207142Y-25349854D01*
X26207142Y-25349854D02*
X26164285Y-25435568D01*
X26164285Y-25435568D02*
X26164285Y-25521282D01*
X26164285Y-25521282D02*
X26592856Y-25606997D01*
X25778570Y-25906997D02*
X25778570Y-25306997D01*
X25778570Y-25392711D02*
X25735713Y-25349854D01*
X25735713Y-25349854D02*
X25649998Y-25306997D01*
X25649998Y-25306997D02*
X25521427Y-25306997D01*
X25521427Y-25306997D02*
X25435713Y-25349854D01*
X25435713Y-25349854D02*
X25392856Y-25435568D01*
X25392856Y-25435568D02*
X25392856Y-25906997D01*
X25392856Y-25435568D02*
X25349998Y-25349854D01*
X25349998Y-25349854D02*
X25264284Y-25306997D01*
X25264284Y-25306997D02*
X25135713Y-25306997D01*
X25135713Y-25306997D02*
X25049998Y-25349854D01*
X25049998Y-25349854D02*
X25007141Y-25435568D01*
X25007141Y-25435568D02*
X25007141Y-25906997D01*
X24107141Y-25906997D02*
X24621427Y-25906997D01*
X24364284Y-25906997D02*
X24364284Y-25006997D01*
X24364284Y-25006997D02*
X24449998Y-25135568D01*
X24449998Y-25135568D02*
X24535713Y-25221282D01*
X24535713Y-25221282D02*
X24621427Y-25264140D01*
X23764284Y-25092711D02*
X23721427Y-25049854D01*
X23721427Y-25049854D02*
X23635713Y-25006997D01*
X23635713Y-25006997D02*
X23421427Y-25006997D01*
X23421427Y-25006997D02*
X23335713Y-25049854D01*
X23335713Y-25049854D02*
X23292855Y-25092711D01*
X23292855Y-25092711D02*
X23249998Y-25178425D01*
X23249998Y-25178425D02*
X23249998Y-25264140D01*
X23249998Y-25264140D02*
X23292855Y-25392711D01*
X23292855Y-25392711D02*
X23807141Y-25906997D01*
X23807141Y-25906997D02*
X23249998Y-25906997D01*
X22735712Y-25392711D02*
X22821427Y-25349854D01*
X22821427Y-25349854D02*
X22864284Y-25306997D01*
X22864284Y-25306997D02*
X22907141Y-25221282D01*
X22907141Y-25221282D02*
X22907141Y-25178425D01*
X22907141Y-25178425D02*
X22864284Y-25092711D01*
X22864284Y-25092711D02*
X22821427Y-25049854D01*
X22821427Y-25049854D02*
X22735712Y-25006997D01*
X22735712Y-25006997D02*
X22564284Y-25006997D01*
X22564284Y-25006997D02*
X22478570Y-25049854D01*
X22478570Y-25049854D02*
X22435712Y-25092711D01*
X22435712Y-25092711D02*
X22392855Y-25178425D01*
X22392855Y-25178425D02*
X22392855Y-25221282D01*
X22392855Y-25221282D02*
X22435712Y-25306997D01*
X22435712Y-25306997D02*
X22478570Y-25349854D01*
X22478570Y-25349854D02*
X22564284Y-25392711D01*
X22564284Y-25392711D02*
X22735712Y-25392711D01*
X22735712Y-25392711D02*
X22821427Y-25435568D01*
X22821427Y-25435568D02*
X22864284Y-25478425D01*
X22864284Y-25478425D02*
X22907141Y-25564140D01*
X22907141Y-25564140D02*
X22907141Y-25735568D01*
X22907141Y-25735568D02*
X22864284Y-25821282D01*
X22864284Y-25821282D02*
X22821427Y-25864140D01*
X22821427Y-25864140D02*
X22735712Y-25906997D01*
X22735712Y-25906997D02*
X22564284Y-25906997D01*
X22564284Y-25906997D02*
X22478570Y-25864140D01*
X22478570Y-25864140D02*
X22435712Y-25821282D01*
X22435712Y-25821282D02*
X22392855Y-25735568D01*
X22392855Y-25735568D02*
X22392855Y-25564140D01*
X22392855Y-25564140D02*
X22435712Y-25478425D01*
X22435712Y-25478425D02*
X22478570Y-25435568D01*
X22478570Y-25435568D02*
X22564284Y-25392711D01*
X22007141Y-25564140D02*
X21321427Y-25564140D01*
X20892855Y-25906997D02*
X20892855Y-25006997D01*
X20807141Y-25564140D02*
X20549998Y-25906997D01*
X20549998Y-25306997D02*
X20892855Y-25649854D01*
X20164284Y-25906997D02*
X20164284Y-25306997D01*
X20164284Y-25006997D02*
X20207141Y-25049854D01*
X20207141Y-25049854D02*
X20164284Y-25092711D01*
X20164284Y-25092711D02*
X20121427Y-25049854D01*
X20121427Y-25049854D02*
X20164284Y-25006997D01*
X20164284Y-25006997D02*
X20164284Y-25092711D01*
X19349999Y-25864140D02*
X19435713Y-25906997D01*
X19435713Y-25906997D02*
X19607141Y-25906997D01*
X19607141Y-25906997D02*
X19692856Y-25864140D01*
X19692856Y-25864140D02*
X19735713Y-25821282D01*
X19735713Y-25821282D02*
X19778570Y-25735568D01*
X19778570Y-25735568D02*
X19778570Y-25478425D01*
X19778570Y-25478425D02*
X19735713Y-25392711D01*
X19735713Y-25392711D02*
X19692856Y-25349854D01*
X19692856Y-25349854D02*
X19607141Y-25306997D01*
X19607141Y-25306997D02*
X19435713Y-25306997D01*
X19435713Y-25306997D02*
X19349999Y-25349854D01*
X18578570Y-25906997D02*
X18578570Y-25435568D01*
X18578570Y-25435568D02*
X18621427Y-25349854D01*
X18621427Y-25349854D02*
X18707141Y-25306997D01*
X18707141Y-25306997D02*
X18878570Y-25306997D01*
X18878570Y-25306997D02*
X18964284Y-25349854D01*
X18578570Y-25864140D02*
X18664284Y-25906997D01*
X18664284Y-25906997D02*
X18878570Y-25906997D01*
X18878570Y-25906997D02*
X18964284Y-25864140D01*
X18964284Y-25864140D02*
X19007141Y-25778425D01*
X19007141Y-25778425D02*
X19007141Y-25692711D01*
X19007141Y-25692711D02*
X18964284Y-25606997D01*
X18964284Y-25606997D02*
X18878570Y-25564140D01*
X18878570Y-25564140D02*
X18664284Y-25564140D01*
X18664284Y-25564140D02*
X18578570Y-25521282D01*
X17764284Y-25906997D02*
X17764284Y-25006997D01*
X17764284Y-25864140D02*
X17849998Y-25906997D01*
X17849998Y-25906997D02*
X18021426Y-25906997D01*
X18021426Y-25906997D02*
X18107141Y-25864140D01*
X18107141Y-25864140D02*
X18149998Y-25821282D01*
X18149998Y-25821282D02*
X18192855Y-25735568D01*
X18192855Y-25735568D02*
X18192855Y-25478425D01*
X18192855Y-25478425D02*
X18149998Y-25392711D01*
X18149998Y-25392711D02*
X18107141Y-25349854D01*
X18107141Y-25349854D02*
X18021426Y-25306997D01*
X18021426Y-25306997D02*
X17849998Y-25306997D01*
X17849998Y-25306997D02*
X17764284Y-25349854D01*
X48064288Y-46406997D02*
X48064288Y-45506997D01*
X48064288Y-45506997D02*
X47850002Y-45506997D01*
X47850002Y-45506997D02*
X47721431Y-45549854D01*
X47721431Y-45549854D02*
X47635716Y-45635568D01*
X47635716Y-45635568D02*
X47592859Y-45721282D01*
X47592859Y-45721282D02*
X47550002Y-45892711D01*
X47550002Y-45892711D02*
X47550002Y-46021282D01*
X47550002Y-46021282D02*
X47592859Y-46192711D01*
X47592859Y-46192711D02*
X47635716Y-46278425D01*
X47635716Y-46278425D02*
X47721431Y-46364140D01*
X47721431Y-46364140D02*
X47850002Y-46406997D01*
X47850002Y-46406997D02*
X48064288Y-46406997D01*
X46821431Y-46364140D02*
X46907145Y-46406997D01*
X46907145Y-46406997D02*
X47078574Y-46406997D01*
X47078574Y-46406997D02*
X47164288Y-46364140D01*
X47164288Y-46364140D02*
X47207145Y-46278425D01*
X47207145Y-46278425D02*
X47207145Y-45935568D01*
X47207145Y-45935568D02*
X47164288Y-45849854D01*
X47164288Y-45849854D02*
X47078574Y-45806997D01*
X47078574Y-45806997D02*
X46907145Y-45806997D01*
X46907145Y-45806997D02*
X46821431Y-45849854D01*
X46821431Y-45849854D02*
X46778574Y-45935568D01*
X46778574Y-45935568D02*
X46778574Y-46021282D01*
X46778574Y-46021282D02*
X47207145Y-46106997D01*
X46392859Y-46406997D02*
X46392859Y-45806997D01*
X46392859Y-45978425D02*
X46350002Y-45892711D01*
X46350002Y-45892711D02*
X46307145Y-45849854D01*
X46307145Y-45849854D02*
X46221430Y-45806997D01*
X46221430Y-45806997D02*
X46135716Y-45806997D01*
X45835716Y-46406997D02*
X45835716Y-45806997D01*
X45835716Y-45506997D02*
X45878573Y-45549854D01*
X45878573Y-45549854D02*
X45835716Y-45592711D01*
X45835716Y-45592711D02*
X45792859Y-45549854D01*
X45792859Y-45549854D02*
X45835716Y-45506997D01*
X45835716Y-45506997D02*
X45835716Y-45592711D01*
X45492859Y-45806997D02*
X45278573Y-46406997D01*
X45278573Y-46406997D02*
X45064288Y-45806997D01*
X44335717Y-46406997D02*
X44335717Y-45935568D01*
X44335717Y-45935568D02*
X44378574Y-45849854D01*
X44378574Y-45849854D02*
X44464288Y-45806997D01*
X44464288Y-45806997D02*
X44635717Y-45806997D01*
X44635717Y-45806997D02*
X44721431Y-45849854D01*
X44335717Y-46364140D02*
X44421431Y-46406997D01*
X44421431Y-46406997D02*
X44635717Y-46406997D01*
X44635717Y-46406997D02*
X44721431Y-46364140D01*
X44721431Y-46364140D02*
X44764288Y-46278425D01*
X44764288Y-46278425D02*
X44764288Y-46192711D01*
X44764288Y-46192711D02*
X44721431Y-46106997D01*
X44721431Y-46106997D02*
X44635717Y-46064140D01*
X44635717Y-46064140D02*
X44421431Y-46064140D01*
X44421431Y-46064140D02*
X44335717Y-46021282D01*
X43521431Y-46406997D02*
X43521431Y-45506997D01*
X43521431Y-46364140D02*
X43607145Y-46406997D01*
X43607145Y-46406997D02*
X43778573Y-46406997D01*
X43778573Y-46406997D02*
X43864288Y-46364140D01*
X43864288Y-46364140D02*
X43907145Y-46321282D01*
X43907145Y-46321282D02*
X43950002Y-46235568D01*
X43950002Y-46235568D02*
X43950002Y-45978425D01*
X43950002Y-45978425D02*
X43907145Y-45892711D01*
X43907145Y-45892711D02*
X43864288Y-45849854D01*
X43864288Y-45849854D02*
X43778573Y-45806997D01*
X43778573Y-45806997D02*
X43607145Y-45806997D01*
X43607145Y-45806997D02*
X43521431Y-45849854D01*
X42964287Y-46406997D02*
X43050002Y-46364140D01*
X43050002Y-46364140D02*
X43092859Y-46321282D01*
X43092859Y-46321282D02*
X43135716Y-46235568D01*
X43135716Y-46235568D02*
X43135716Y-45978425D01*
X43135716Y-45978425D02*
X43092859Y-45892711D01*
X43092859Y-45892711D02*
X43050002Y-45849854D01*
X43050002Y-45849854D02*
X42964287Y-45806997D01*
X42964287Y-45806997D02*
X42835716Y-45806997D01*
X42835716Y-45806997D02*
X42750002Y-45849854D01*
X42750002Y-45849854D02*
X42707145Y-45892711D01*
X42707145Y-45892711D02*
X42664287Y-45978425D01*
X42664287Y-45978425D02*
X42664287Y-46235568D01*
X42664287Y-46235568D02*
X42707145Y-46321282D01*
X42707145Y-46321282D02*
X42750002Y-46364140D01*
X42750002Y-46364140D02*
X42835716Y-46406997D01*
X42835716Y-46406997D02*
X42964287Y-46406997D01*
X41207145Y-46406997D02*
X41207145Y-45506997D01*
X41207145Y-46364140D02*
X41292859Y-46406997D01*
X41292859Y-46406997D02*
X41464287Y-46406997D01*
X41464287Y-46406997D02*
X41550002Y-46364140D01*
X41550002Y-46364140D02*
X41592859Y-46321282D01*
X41592859Y-46321282D02*
X41635716Y-46235568D01*
X41635716Y-46235568D02*
X41635716Y-45978425D01*
X41635716Y-45978425D02*
X41592859Y-45892711D01*
X41592859Y-45892711D02*
X41550002Y-45849854D01*
X41550002Y-45849854D02*
X41464287Y-45806997D01*
X41464287Y-45806997D02*
X41292859Y-45806997D01*
X41292859Y-45806997D02*
X41207145Y-45849854D01*
X40435716Y-46364140D02*
X40521430Y-46406997D01*
X40521430Y-46406997D02*
X40692859Y-46406997D01*
X40692859Y-46406997D02*
X40778573Y-46364140D01*
X40778573Y-46364140D02*
X40821430Y-46278425D01*
X40821430Y-46278425D02*
X40821430Y-45935568D01*
X40821430Y-45935568D02*
X40778573Y-45849854D01*
X40778573Y-45849854D02*
X40692859Y-45806997D01*
X40692859Y-45806997D02*
X40521430Y-45806997D01*
X40521430Y-45806997D02*
X40435716Y-45849854D01*
X40435716Y-45849854D02*
X40392859Y-45935568D01*
X40392859Y-45935568D02*
X40392859Y-46021282D01*
X40392859Y-46021282D02*
X40821430Y-46106997D01*
X39450001Y-45506997D02*
X39150001Y-46406997D01*
X39150001Y-46406997D02*
X38850001Y-45506997D01*
X38207144Y-46364140D02*
X38292858Y-46406997D01*
X38292858Y-46406997D02*
X38464287Y-46406997D01*
X38464287Y-46406997D02*
X38550001Y-46364140D01*
X38550001Y-46364140D02*
X38592858Y-46278425D01*
X38592858Y-46278425D02*
X38592858Y-45935568D01*
X38592858Y-45935568D02*
X38550001Y-45849854D01*
X38550001Y-45849854D02*
X38464287Y-45806997D01*
X38464287Y-45806997D02*
X38292858Y-45806997D01*
X38292858Y-45806997D02*
X38207144Y-45849854D01*
X38207144Y-45849854D02*
X38164287Y-45935568D01*
X38164287Y-45935568D02*
X38164287Y-46021282D01*
X38164287Y-46021282D02*
X38592858Y-46106997D01*
X37650000Y-46406997D02*
X37735715Y-46364140D01*
X37735715Y-46364140D02*
X37778572Y-46278425D01*
X37778572Y-46278425D02*
X37778572Y-45506997D01*
X36964286Y-46364140D02*
X37050000Y-46406997D01*
X37050000Y-46406997D02*
X37221429Y-46406997D01*
X37221429Y-46406997D02*
X37307143Y-46364140D01*
X37307143Y-46364140D02*
X37350000Y-46278425D01*
X37350000Y-46278425D02*
X37350000Y-45935568D01*
X37350000Y-45935568D02*
X37307143Y-45849854D01*
X37307143Y-45849854D02*
X37221429Y-45806997D01*
X37221429Y-45806997D02*
X37050000Y-45806997D01*
X37050000Y-45806997D02*
X36964286Y-45849854D01*
X36964286Y-45849854D02*
X36921429Y-45935568D01*
X36921429Y-45935568D02*
X36921429Y-46021282D01*
X36921429Y-46021282D02*
X37350000Y-46106997D01*
X36578571Y-46364140D02*
X36492857Y-46406997D01*
X36492857Y-46406997D02*
X36321428Y-46406997D01*
X36321428Y-46406997D02*
X36235714Y-46364140D01*
X36235714Y-46364140D02*
X36192857Y-46278425D01*
X36192857Y-46278425D02*
X36192857Y-46235568D01*
X36192857Y-46235568D02*
X36235714Y-46149854D01*
X36235714Y-46149854D02*
X36321428Y-46106997D01*
X36321428Y-46106997D02*
X36450000Y-46106997D01*
X36450000Y-46106997D02*
X36535714Y-46064140D01*
X36535714Y-46064140D02*
X36578571Y-45978425D01*
X36578571Y-45978425D02*
X36578571Y-45935568D01*
X36578571Y-45935568D02*
X36535714Y-45849854D01*
X36535714Y-45849854D02*
X36450000Y-45806997D01*
X36450000Y-45806997D02*
X36321428Y-45806997D01*
X36321428Y-45806997D02*
X36235714Y-45849854D01*
X35678571Y-46406997D02*
X35764286Y-46364140D01*
X35764286Y-46364140D02*
X35807143Y-46321282D01*
X35807143Y-46321282D02*
X35850000Y-46235568D01*
X35850000Y-46235568D02*
X35850000Y-45978425D01*
X35850000Y-45978425D02*
X35807143Y-45892711D01*
X35807143Y-45892711D02*
X35764286Y-45849854D01*
X35764286Y-45849854D02*
X35678571Y-45806997D01*
X35678571Y-45806997D02*
X35550000Y-45806997D01*
X35550000Y-45806997D02*
X35464286Y-45849854D01*
X35464286Y-45849854D02*
X35421429Y-45892711D01*
X35421429Y-45892711D02*
X35378571Y-45978425D01*
X35378571Y-45978425D02*
X35378571Y-46235568D01*
X35378571Y-46235568D02*
X35421429Y-46321282D01*
X35421429Y-46321282D02*
X35464286Y-46364140D01*
X35464286Y-46364140D02*
X35550000Y-46406997D01*
X35550000Y-46406997D02*
X35678571Y-46406997D01*
X35121428Y-45806997D02*
X34778571Y-45806997D01*
X34992857Y-46406997D02*
X34992857Y-45635568D01*
X34992857Y-45635568D02*
X34950000Y-45549854D01*
X34950000Y-45549854D02*
X34864285Y-45506997D01*
X34864285Y-45506997D02*
X34778571Y-45506997D01*
X34607142Y-45806997D02*
X34264285Y-45806997D01*
X34478571Y-45506997D02*
X34478571Y-46278425D01*
X34478571Y-46278425D02*
X34435714Y-46364140D01*
X34435714Y-46364140D02*
X34349999Y-46406997D01*
X34349999Y-46406997D02*
X34264285Y-46406997D01*
X33321428Y-45592711D02*
X33278571Y-45549854D01*
X33278571Y-45549854D02*
X33192857Y-45506997D01*
X33192857Y-45506997D02*
X32978571Y-45506997D01*
X32978571Y-45506997D02*
X32892857Y-45549854D01*
X32892857Y-45549854D02*
X32849999Y-45592711D01*
X32849999Y-45592711D02*
X32807142Y-45678425D01*
X32807142Y-45678425D02*
X32807142Y-45764140D01*
X32807142Y-45764140D02*
X32849999Y-45892711D01*
X32849999Y-45892711D02*
X33364285Y-46406997D01*
X33364285Y-46406997D02*
X32807142Y-46406997D01*
X32249999Y-45506997D02*
X32164285Y-45506997D01*
X32164285Y-45506997D02*
X32078571Y-45549854D01*
X32078571Y-45549854D02*
X32035714Y-45592711D01*
X32035714Y-45592711D02*
X31992856Y-45678425D01*
X31992856Y-45678425D02*
X31949999Y-45849854D01*
X31949999Y-45849854D02*
X31949999Y-46064140D01*
X31949999Y-46064140D02*
X31992856Y-46235568D01*
X31992856Y-46235568D02*
X32035714Y-46321282D01*
X32035714Y-46321282D02*
X32078571Y-46364140D01*
X32078571Y-46364140D02*
X32164285Y-46406997D01*
X32164285Y-46406997D02*
X32249999Y-46406997D01*
X32249999Y-46406997D02*
X32335714Y-46364140D01*
X32335714Y-46364140D02*
X32378571Y-46321282D01*
X32378571Y-46321282D02*
X32421428Y-46235568D01*
X32421428Y-46235568D02*
X32464285Y-46064140D01*
X32464285Y-46064140D02*
X32464285Y-45849854D01*
X32464285Y-45849854D02*
X32421428Y-45678425D01*
X32421428Y-45678425D02*
X32378571Y-45592711D01*
X32378571Y-45592711D02*
X32335714Y-45549854D01*
X32335714Y-45549854D02*
X32249999Y-45506997D01*
X31392856Y-45506997D02*
X31307142Y-45506997D01*
X31307142Y-45506997D02*
X31221428Y-45549854D01*
X31221428Y-45549854D02*
X31178571Y-45592711D01*
X31178571Y-45592711D02*
X31135713Y-45678425D01*
X31135713Y-45678425D02*
X31092856Y-45849854D01*
X31092856Y-45849854D02*
X31092856Y-46064140D01*
X31092856Y-46064140D02*
X31135713Y-46235568D01*
X31135713Y-46235568D02*
X31178571Y-46321282D01*
X31178571Y-46321282D02*
X31221428Y-46364140D01*
X31221428Y-46364140D02*
X31307142Y-46406997D01*
X31307142Y-46406997D02*
X31392856Y-46406997D01*
X31392856Y-46406997D02*
X31478571Y-46364140D01*
X31478571Y-46364140D02*
X31521428Y-46321282D01*
X31521428Y-46321282D02*
X31564285Y-46235568D01*
X31564285Y-46235568D02*
X31607142Y-46064140D01*
X31607142Y-46064140D02*
X31607142Y-45849854D01*
X31607142Y-45849854D02*
X31564285Y-45678425D01*
X31564285Y-45678425D02*
X31521428Y-45592711D01*
X31521428Y-45592711D02*
X31478571Y-45549854D01*
X31478571Y-45549854D02*
X31392856Y-45506997D01*
X30664285Y-46406997D02*
X30492856Y-46406997D01*
X30492856Y-46406997D02*
X30407142Y-46364140D01*
X30407142Y-46364140D02*
X30364285Y-46321282D01*
X30364285Y-46321282D02*
X30278570Y-46192711D01*
X30278570Y-46192711D02*
X30235713Y-46021282D01*
X30235713Y-46021282D02*
X30235713Y-45678425D01*
X30235713Y-45678425D02*
X30278570Y-45592711D01*
X30278570Y-45592711D02*
X30321428Y-45549854D01*
X30321428Y-45549854D02*
X30407142Y-45506997D01*
X30407142Y-45506997D02*
X30578570Y-45506997D01*
X30578570Y-45506997D02*
X30664285Y-45549854D01*
X30664285Y-45549854D02*
X30707142Y-45592711D01*
X30707142Y-45592711D02*
X30749999Y-45678425D01*
X30749999Y-45678425D02*
X30749999Y-45892711D01*
X30749999Y-45892711D02*
X30707142Y-45978425D01*
X30707142Y-45978425D02*
X30664285Y-46021282D01*
X30664285Y-46021282D02*
X30578570Y-46064140D01*
X30578570Y-46064140D02*
X30407142Y-46064140D01*
X30407142Y-46064140D02*
X30321428Y-46021282D01*
X30321428Y-46021282D02*
X30278570Y-45978425D01*
X30278570Y-45978425D02*
X30235713Y-45892711D01*
X28821428Y-46364140D02*
X28907142Y-46406997D01*
X28907142Y-46406997D02*
X29078571Y-46406997D01*
X29078571Y-46406997D02*
X29164285Y-46364140D01*
X29164285Y-46364140D02*
X29207142Y-46278425D01*
X29207142Y-46278425D02*
X29207142Y-45935568D01*
X29207142Y-45935568D02*
X29164285Y-45849854D01*
X29164285Y-45849854D02*
X29078571Y-45806997D01*
X29078571Y-45806997D02*
X28907142Y-45806997D01*
X28907142Y-45806997D02*
X28821428Y-45849854D01*
X28821428Y-45849854D02*
X28778571Y-45935568D01*
X28778571Y-45935568D02*
X28778571Y-46021282D01*
X28778571Y-46021282D02*
X29207142Y-46106997D01*
X27278570Y-46406997D02*
X27707142Y-46406997D01*
X27707142Y-46406997D02*
X27707142Y-45506997D01*
X26592857Y-45806997D02*
X26592857Y-46406997D01*
X26978571Y-45806997D02*
X26978571Y-46278425D01*
X26978571Y-46278425D02*
X26935714Y-46364140D01*
X26935714Y-46364140D02*
X26849999Y-46406997D01*
X26849999Y-46406997D02*
X26721428Y-46406997D01*
X26721428Y-46406997D02*
X26635714Y-46364140D01*
X26635714Y-46364140D02*
X26592857Y-46321282D01*
X25778571Y-46364140D02*
X25864285Y-46406997D01*
X25864285Y-46406997D02*
X26035713Y-46406997D01*
X26035713Y-46406997D02*
X26121428Y-46364140D01*
X26121428Y-46364140D02*
X26164285Y-46321282D01*
X26164285Y-46321282D02*
X26207142Y-46235568D01*
X26207142Y-46235568D02*
X26207142Y-45978425D01*
X26207142Y-45978425D02*
X26164285Y-45892711D01*
X26164285Y-45892711D02*
X26121428Y-45849854D01*
X26121428Y-45849854D02*
X26035713Y-45806997D01*
X26035713Y-45806997D02*
X25864285Y-45806997D01*
X25864285Y-45806997D02*
X25778571Y-45849854D01*
X25007142Y-46364140D02*
X25092856Y-46406997D01*
X25092856Y-46406997D02*
X25264284Y-46406997D01*
X25264284Y-46406997D02*
X25349999Y-46364140D01*
X25349999Y-46364140D02*
X25392856Y-46321282D01*
X25392856Y-46321282D02*
X25435713Y-46235568D01*
X25435713Y-46235568D02*
X25435713Y-45978425D01*
X25435713Y-45978425D02*
X25392856Y-45892711D01*
X25392856Y-45892711D02*
X25349999Y-45849854D01*
X25349999Y-45849854D02*
X25264284Y-45806997D01*
X25264284Y-45806997D02*
X25092856Y-45806997D01*
X25092856Y-45806997D02*
X25007142Y-45849854D01*
X24235713Y-46406997D02*
X24235713Y-45935568D01*
X24235713Y-45935568D02*
X24278570Y-45849854D01*
X24278570Y-45849854D02*
X24364284Y-45806997D01*
X24364284Y-45806997D02*
X24535713Y-45806997D01*
X24535713Y-45806997D02*
X24621427Y-45849854D01*
X24235713Y-46364140D02*
X24321427Y-46406997D01*
X24321427Y-46406997D02*
X24535713Y-46406997D01*
X24535713Y-46406997D02*
X24621427Y-46364140D01*
X24621427Y-46364140D02*
X24664284Y-46278425D01*
X24664284Y-46278425D02*
X24664284Y-46192711D01*
X24664284Y-46192711D02*
X24621427Y-46106997D01*
X24621427Y-46106997D02*
X24535713Y-46064140D01*
X24535713Y-46064140D02*
X24321427Y-46064140D01*
X24321427Y-46064140D02*
X24235713Y-46021282D01*
X23849998Y-46364140D02*
X23764284Y-46406997D01*
X23764284Y-46406997D02*
X23592855Y-46406997D01*
X23592855Y-46406997D02*
X23507141Y-46364140D01*
X23507141Y-46364140D02*
X23464284Y-46278425D01*
X23464284Y-46278425D02*
X23464284Y-46235568D01*
X23464284Y-46235568D02*
X23507141Y-46149854D01*
X23507141Y-46149854D02*
X23592855Y-46106997D01*
X23592855Y-46106997D02*
X23721427Y-46106997D01*
X23721427Y-46106997D02*
X23807141Y-46064140D01*
X23807141Y-46064140D02*
X23849998Y-45978425D01*
X23849998Y-45978425D02*
X23849998Y-45935568D01*
X23849998Y-45935568D02*
X23807141Y-45849854D01*
X23807141Y-45849854D02*
X23721427Y-45806997D01*
X23721427Y-45806997D02*
X23592855Y-45806997D01*
X23592855Y-45806997D02*
X23507141Y-45849854D01*
X22392856Y-45935568D02*
X22092856Y-45935568D01*
X21964284Y-46406997D02*
X22392856Y-46406997D01*
X22392856Y-46406997D02*
X22392856Y-45506997D01*
X22392856Y-45506997D02*
X21964284Y-45506997D01*
X21449998Y-46406997D02*
X21535713Y-46364140D01*
X21535713Y-46364140D02*
X21578570Y-46278425D01*
X21578570Y-46278425D02*
X21578570Y-45506997D01*
X20764284Y-46364140D02*
X20849998Y-46406997D01*
X20849998Y-46406997D02*
X21021427Y-46406997D01*
X21021427Y-46406997D02*
X21107141Y-46364140D01*
X21107141Y-46364140D02*
X21149998Y-46278425D01*
X21149998Y-46278425D02*
X21149998Y-45935568D01*
X21149998Y-45935568D02*
X21107141Y-45849854D01*
X21107141Y-45849854D02*
X21021427Y-45806997D01*
X21021427Y-45806997D02*
X20849998Y-45806997D01*
X20849998Y-45806997D02*
X20764284Y-45849854D01*
X20764284Y-45849854D02*
X20721427Y-45935568D01*
X20721427Y-45935568D02*
X20721427Y-46021282D01*
X20721427Y-46021282D02*
X21149998Y-46106997D01*
X20464283Y-45806997D02*
X20121426Y-45806997D01*
X20335712Y-45506997D02*
X20335712Y-46278425D01*
X20335712Y-46278425D02*
X20292855Y-46364140D01*
X20292855Y-46364140D02*
X20207140Y-46406997D01*
X20207140Y-46406997D02*
X20121426Y-46406997D01*
X19821426Y-46406997D02*
X19821426Y-45806997D01*
X19821426Y-45978425D02*
X19778569Y-45892711D01*
X19778569Y-45892711D02*
X19735712Y-45849854D01*
X19735712Y-45849854D02*
X19649997Y-45806997D01*
X19649997Y-45806997D02*
X19564283Y-45806997D01*
X19135711Y-46406997D02*
X19221426Y-46364140D01*
X19221426Y-46364140D02*
X19264283Y-46321282D01*
X19264283Y-46321282D02*
X19307140Y-46235568D01*
X19307140Y-46235568D02*
X19307140Y-45978425D01*
X19307140Y-45978425D02*
X19264283Y-45892711D01*
X19264283Y-45892711D02*
X19221426Y-45849854D01*
X19221426Y-45849854D02*
X19135711Y-45806997D01*
X19135711Y-45806997D02*
X19007140Y-45806997D01*
X19007140Y-45806997D02*
X18921426Y-45849854D01*
X18921426Y-45849854D02*
X18878569Y-45892711D01*
X18878569Y-45892711D02*
X18835711Y-45978425D01*
X18835711Y-45978425D02*
X18835711Y-46235568D01*
X18835711Y-46235568D02*
X18878569Y-46321282D01*
X18878569Y-46321282D02*
X18921426Y-46364140D01*
X18921426Y-46364140D02*
X19007140Y-46406997D01*
X19007140Y-46406997D02*
X19135711Y-46406997D01*
X19221426Y-45592711D02*
X19049997Y-45464140D01*
X19049997Y-45464140D02*
X18878569Y-45592711D01*
X18449997Y-45806997D02*
X18449997Y-46406997D01*
X18449997Y-45892711D02*
X18407140Y-45849854D01*
X18407140Y-45849854D02*
X18321425Y-45806997D01*
X18321425Y-45806997D02*
X18192854Y-45806997D01*
X18192854Y-45806997D02*
X18107140Y-45849854D01*
X18107140Y-45849854D02*
X18064283Y-45935568D01*
X18064283Y-45935568D02*
X18064283Y-46406997D01*
X17635711Y-46406997D02*
X17635711Y-45806997D01*
X17635711Y-45506997D02*
X17678568Y-45549854D01*
X17678568Y-45549854D02*
X17635711Y-45592711D01*
X17635711Y-45592711D02*
X17592854Y-45549854D01*
X17592854Y-45549854D02*
X17635711Y-45506997D01*
X17635711Y-45506997D02*
X17635711Y-45592711D01*
X16821426Y-46364140D02*
X16907140Y-46406997D01*
X16907140Y-46406997D02*
X17078568Y-46406997D01*
X17078568Y-46406997D02*
X17164283Y-46364140D01*
X17164283Y-46364140D02*
X17207140Y-46321282D01*
X17207140Y-46321282D02*
X17249997Y-46235568D01*
X17249997Y-46235568D02*
X17249997Y-45978425D01*
X17249997Y-45978425D02*
X17207140Y-45892711D01*
X17207140Y-45892711D02*
X17164283Y-45849854D01*
X17164283Y-45849854D02*
X17078568Y-45806997D01*
X17078568Y-45806997D02*
X16907140Y-45806997D01*
X16907140Y-45806997D02*
X16821426Y-45849854D01*
X16049997Y-46406997D02*
X16049997Y-45935568D01*
X16049997Y-45935568D02*
X16092854Y-45849854D01*
X16092854Y-45849854D02*
X16178568Y-45806997D01*
X16178568Y-45806997D02*
X16349997Y-45806997D01*
X16349997Y-45806997D02*
X16435711Y-45849854D01*
X16049997Y-46364140D02*
X16135711Y-46406997D01*
X16135711Y-46406997D02*
X16349997Y-46406997D01*
X16349997Y-46406997D02*
X16435711Y-46364140D01*
X16435711Y-46364140D02*
X16478568Y-46278425D01*
X16478568Y-46278425D02*
X16478568Y-46192711D01*
X16478568Y-46192711D02*
X16435711Y-46106997D01*
X16435711Y-46106997D02*
X16349997Y-46064140D01*
X16349997Y-46064140D02*
X16135711Y-46064140D01*
X16135711Y-46064140D02*
X16049997Y-46021282D01*
X14978568Y-45592711D02*
X14935711Y-45549854D01*
X14935711Y-45549854D02*
X14849997Y-45506997D01*
X14849997Y-45506997D02*
X14635711Y-45506997D01*
X14635711Y-45506997D02*
X14549997Y-45549854D01*
X14549997Y-45549854D02*
X14507139Y-45592711D01*
X14507139Y-45592711D02*
X14464282Y-45678425D01*
X14464282Y-45678425D02*
X14464282Y-45764140D01*
X14464282Y-45764140D02*
X14507139Y-45892711D01*
X14507139Y-45892711D02*
X15021425Y-46406997D01*
X15021425Y-46406997D02*
X14464282Y-46406997D01*
X13907139Y-45506997D02*
X13821425Y-45506997D01*
X13821425Y-45506997D02*
X13735711Y-45549854D01*
X13735711Y-45549854D02*
X13692854Y-45592711D01*
X13692854Y-45592711D02*
X13649996Y-45678425D01*
X13649996Y-45678425D02*
X13607139Y-45849854D01*
X13607139Y-45849854D02*
X13607139Y-46064140D01*
X13607139Y-46064140D02*
X13649996Y-46235568D01*
X13649996Y-46235568D02*
X13692854Y-46321282D01*
X13692854Y-46321282D02*
X13735711Y-46364140D01*
X13735711Y-46364140D02*
X13821425Y-46406997D01*
X13821425Y-46406997D02*
X13907139Y-46406997D01*
X13907139Y-46406997D02*
X13992854Y-46364140D01*
X13992854Y-46364140D02*
X14035711Y-46321282D01*
X14035711Y-46321282D02*
X14078568Y-46235568D01*
X14078568Y-46235568D02*
X14121425Y-46064140D01*
X14121425Y-46064140D02*
X14121425Y-45849854D01*
X14121425Y-45849854D02*
X14078568Y-45678425D01*
X14078568Y-45678425D02*
X14035711Y-45592711D01*
X14035711Y-45592711D02*
X13992854Y-45549854D01*
X13992854Y-45549854D02*
X13907139Y-45506997D01*
X12749996Y-46406997D02*
X13264282Y-46406997D01*
X13007139Y-46406997D02*
X13007139Y-45506997D01*
X13007139Y-45506997D02*
X13092853Y-45635568D01*
X13092853Y-45635568D02*
X13178568Y-45721282D01*
X13178568Y-45721282D02*
X13264282Y-45764140D01*
X12407139Y-45592711D02*
X12364282Y-45549854D01*
X12364282Y-45549854D02*
X12278568Y-45506997D01*
X12278568Y-45506997D02*
X12064282Y-45506997D01*
X12064282Y-45506997D02*
X11978568Y-45549854D01*
X11978568Y-45549854D02*
X11935710Y-45592711D01*
X11935710Y-45592711D02*
X11892853Y-45678425D01*
X11892853Y-45678425D02*
X11892853Y-45764140D01*
X11892853Y-45764140D02*
X11935710Y-45892711D01*
X11935710Y-45892711D02*
X12449996Y-46406997D01*
X12449996Y-46406997D02*
X11892853Y-46406997D01*
D11*
X39703333Y-55452219D02*
X39703333Y-56166504D01*
X39703333Y-56166504D02*
X39750952Y-56309361D01*
X39750952Y-56309361D02*
X39846190Y-56404600D01*
X39846190Y-56404600D02*
X39989047Y-56452219D01*
X39989047Y-56452219D02*
X40084285Y-56452219D01*
X38703333Y-56452219D02*
X39274761Y-56452219D01*
X38989047Y-56452219D02*
X38989047Y-55452219D01*
X38989047Y-55452219D02*
X39084285Y-55595076D01*
X39084285Y-55595076D02*
X39179523Y-55690314D01*
X39179523Y-55690314D02*
X39274761Y-55737933D01*
X2261904Y-59047457D02*
X2214285Y-58999838D01*
X2214285Y-58999838D02*
X2119047Y-58952219D01*
X2119047Y-58952219D02*
X1880952Y-58952219D01*
X1880952Y-58952219D02*
X1785714Y-58999838D01*
X1785714Y-58999838D02*
X1738095Y-59047457D01*
X1738095Y-59047457D02*
X1690476Y-59142695D01*
X1690476Y-59142695D02*
X1690476Y-59237933D01*
X1690476Y-59237933D02*
X1738095Y-59380790D01*
X1738095Y-59380790D02*
X2309523Y-59952219D01*
X2309523Y-59952219D02*
X1690476Y-59952219D01*
X1214285Y-59952219D02*
X1023809Y-59952219D01*
X1023809Y-59952219D02*
X928571Y-59904600D01*
X928571Y-59904600D02*
X880952Y-59856980D01*
X880952Y-59856980D02*
X785714Y-59714123D01*
X785714Y-59714123D02*
X738095Y-59523647D01*
X738095Y-59523647D02*
X738095Y-59142695D01*
X738095Y-59142695D02*
X785714Y-59047457D01*
X785714Y-59047457D02*
X833333Y-58999838D01*
X833333Y-58999838D02*
X928571Y-58952219D01*
X928571Y-58952219D02*
X1119047Y-58952219D01*
X1119047Y-58952219D02*
X1214285Y-58999838D01*
X1214285Y-58999838D02*
X1261904Y-59047457D01*
X1261904Y-59047457D02*
X1309523Y-59142695D01*
X1309523Y-59142695D02*
X1309523Y-59380790D01*
X1309523Y-59380790D02*
X1261904Y-59476028D01*
X1261904Y-59476028D02*
X1214285Y-59523647D01*
X1214285Y-59523647D02*
X1119047Y-59571266D01*
X1119047Y-59571266D02*
X928571Y-59571266D01*
X928571Y-59571266D02*
X833333Y-59523647D01*
X833333Y-59523647D02*
X785714Y-59476028D01*
X785714Y-59476028D02*
X738095Y-59380790D01*
X2261904Y-64047457D02*
X2214285Y-63999838D01*
X2214285Y-63999838D02*
X2119047Y-63952219D01*
X2119047Y-63952219D02*
X1880952Y-63952219D01*
X1880952Y-63952219D02*
X1785714Y-63999838D01*
X1785714Y-63999838D02*
X1738095Y-64047457D01*
X1738095Y-64047457D02*
X1690476Y-64142695D01*
X1690476Y-64142695D02*
X1690476Y-64237933D01*
X1690476Y-64237933D02*
X1738095Y-64380790D01*
X1738095Y-64380790D02*
X2309523Y-64952219D01*
X2309523Y-64952219D02*
X1690476Y-64952219D01*
X1119047Y-64380790D02*
X1214285Y-64333171D01*
X1214285Y-64333171D02*
X1261904Y-64285552D01*
X1261904Y-64285552D02*
X1309523Y-64190314D01*
X1309523Y-64190314D02*
X1309523Y-64142695D01*
X1309523Y-64142695D02*
X1261904Y-64047457D01*
X1261904Y-64047457D02*
X1214285Y-63999838D01*
X1214285Y-63999838D02*
X1119047Y-63952219D01*
X1119047Y-63952219D02*
X928571Y-63952219D01*
X928571Y-63952219D02*
X833333Y-63999838D01*
X833333Y-63999838D02*
X785714Y-64047457D01*
X785714Y-64047457D02*
X738095Y-64142695D01*
X738095Y-64142695D02*
X738095Y-64190314D01*
X738095Y-64190314D02*
X785714Y-64285552D01*
X785714Y-64285552D02*
X833333Y-64333171D01*
X833333Y-64333171D02*
X928571Y-64380790D01*
X928571Y-64380790D02*
X1119047Y-64380790D01*
X1119047Y-64380790D02*
X1214285Y-64428409D01*
X1214285Y-64428409D02*
X1261904Y-64476028D01*
X1261904Y-64476028D02*
X1309523Y-64571266D01*
X1309523Y-64571266D02*
X1309523Y-64761742D01*
X1309523Y-64761742D02*
X1261904Y-64856980D01*
X1261904Y-64856980D02*
X1214285Y-64904600D01*
X1214285Y-64904600D02*
X1119047Y-64952219D01*
X1119047Y-64952219D02*
X928571Y-64952219D01*
X928571Y-64952219D02*
X833333Y-64904600D01*
X833333Y-64904600D02*
X785714Y-64856980D01*
X785714Y-64856980D02*
X738095Y-64761742D01*
X738095Y-64761742D02*
X738095Y-64571266D01*
X738095Y-64571266D02*
X785714Y-64476028D01*
X785714Y-64476028D02*
X833333Y-64428409D01*
X833333Y-64428409D02*
X928571Y-64380790D01*
D12*
X66109523Y-56099870D02*
X66185713Y-56061775D01*
X66185713Y-56061775D02*
X66299999Y-56061775D01*
X66299999Y-56061775D02*
X66414285Y-56099870D01*
X66414285Y-56099870D02*
X66490475Y-56176060D01*
X66490475Y-56176060D02*
X66528570Y-56252251D01*
X66528570Y-56252251D02*
X66566666Y-56404632D01*
X66566666Y-56404632D02*
X66566666Y-56518918D01*
X66566666Y-56518918D02*
X66528570Y-56671299D01*
X66528570Y-56671299D02*
X66490475Y-56747489D01*
X66490475Y-56747489D02*
X66414285Y-56823680D01*
X66414285Y-56823680D02*
X66299999Y-56861775D01*
X66299999Y-56861775D02*
X66223808Y-56861775D01*
X66223808Y-56861775D02*
X66109523Y-56823680D01*
X66109523Y-56823680D02*
X66071427Y-56785584D01*
X66071427Y-56785584D02*
X66071427Y-56518918D01*
X66071427Y-56518918D02*
X66223808Y-56518918D01*
X65728570Y-56061775D02*
X65728570Y-56709394D01*
X65728570Y-56709394D02*
X65690475Y-56785584D01*
X65690475Y-56785584D02*
X65652380Y-56823680D01*
X65652380Y-56823680D02*
X65576189Y-56861775D01*
X65576189Y-56861775D02*
X65423808Y-56861775D01*
X65423808Y-56861775D02*
X65347618Y-56823680D01*
X65347618Y-56823680D02*
X65309523Y-56785584D01*
X65309523Y-56785584D02*
X65271427Y-56709394D01*
X65271427Y-56709394D02*
X65271427Y-56061775D01*
X64890475Y-56861775D02*
X64890475Y-56061775D01*
X64547619Y-56633203D02*
X64166666Y-56633203D01*
X64623809Y-56861775D02*
X64357142Y-56061775D01*
X64357142Y-56061775D02*
X64090476Y-56861775D01*
X62833333Y-56061775D02*
X63214285Y-56061775D01*
X63214285Y-56061775D02*
X63252381Y-56442727D01*
X63252381Y-56442727D02*
X63214285Y-56404632D01*
X63214285Y-56404632D02*
X63138095Y-56366537D01*
X63138095Y-56366537D02*
X62947619Y-56366537D01*
X62947619Y-56366537D02*
X62871428Y-56404632D01*
X62871428Y-56404632D02*
X62833333Y-56442727D01*
X62833333Y-56442727D02*
X62795238Y-56518918D01*
X62795238Y-56518918D02*
X62795238Y-56709394D01*
X62795238Y-56709394D02*
X62833333Y-56785584D01*
X62833333Y-56785584D02*
X62871428Y-56823680D01*
X62871428Y-56823680D02*
X62947619Y-56861775D01*
X62947619Y-56861775D02*
X63138095Y-56861775D01*
X63138095Y-56861775D02*
X63214285Y-56823680D01*
X63214285Y-56823680D02*
X63252381Y-56785584D01*
X61880952Y-56023680D02*
X62566666Y-57052251D01*
X61233333Y-56061775D02*
X61614285Y-56061775D01*
X61614285Y-56061775D02*
X61652381Y-56442727D01*
X61652381Y-56442727D02*
X61614285Y-56404632D01*
X61614285Y-56404632D02*
X61538095Y-56366537D01*
X61538095Y-56366537D02*
X61347619Y-56366537D01*
X61347619Y-56366537D02*
X61271428Y-56404632D01*
X61271428Y-56404632D02*
X61233333Y-56442727D01*
X61233333Y-56442727D02*
X61195238Y-56518918D01*
X61195238Y-56518918D02*
X61195238Y-56709394D01*
X61195238Y-56709394D02*
X61233333Y-56785584D01*
X61233333Y-56785584D02*
X61271428Y-56823680D01*
X61271428Y-56823680D02*
X61347619Y-56861775D01*
X61347619Y-56861775D02*
X61538095Y-56861775D01*
X61538095Y-56861775D02*
X61614285Y-56823680D01*
X61614285Y-56823680D02*
X61652381Y-56785584D01*
X60890476Y-56137965D02*
X60852380Y-56099870D01*
X60852380Y-56099870D02*
X60776190Y-56061775D01*
X60776190Y-56061775D02*
X60585714Y-56061775D01*
X60585714Y-56061775D02*
X60509523Y-56099870D01*
X60509523Y-56099870D02*
X60471428Y-56137965D01*
X60471428Y-56137965D02*
X60433333Y-56214156D01*
X60433333Y-56214156D02*
X60433333Y-56290346D01*
X60433333Y-56290346D02*
X60471428Y-56404632D01*
X60471428Y-56404632D02*
X60928571Y-56861775D01*
X60928571Y-56861775D02*
X60433333Y-56861775D01*
D11*
X76214285Y-64952219D02*
X76785713Y-64952219D01*
X76499999Y-64952219D02*
X76499999Y-63952219D01*
X76499999Y-63952219D02*
X76595237Y-64095076D01*
X76595237Y-64095076D02*
X76690475Y-64190314D01*
X76690475Y-64190314D02*
X76785713Y-64237933D01*
X77238095Y-58952219D02*
X77714285Y-58952219D01*
X77714285Y-58952219D02*
X77761904Y-59428409D01*
X77761904Y-59428409D02*
X77714285Y-59380790D01*
X77714285Y-59380790D02*
X77619047Y-59333171D01*
X77619047Y-59333171D02*
X77380952Y-59333171D01*
X77380952Y-59333171D02*
X77285714Y-59380790D01*
X77285714Y-59380790D02*
X77238095Y-59428409D01*
X77238095Y-59428409D02*
X77190476Y-59523647D01*
X77190476Y-59523647D02*
X77190476Y-59761742D01*
X77190476Y-59761742D02*
X77238095Y-59856980D01*
X77238095Y-59856980D02*
X77285714Y-59904600D01*
X77285714Y-59904600D02*
X77380952Y-59952219D01*
X77380952Y-59952219D02*
X77619047Y-59952219D01*
X77619047Y-59952219D02*
X77714285Y-59904600D01*
X77714285Y-59904600D02*
X77761904Y-59856980D01*
X76333333Y-58952219D02*
X76523809Y-58952219D01*
X76523809Y-58952219D02*
X76619047Y-58999838D01*
X76619047Y-58999838D02*
X76666666Y-59047457D01*
X76666666Y-59047457D02*
X76761904Y-59190314D01*
X76761904Y-59190314D02*
X76809523Y-59380790D01*
X76809523Y-59380790D02*
X76809523Y-59761742D01*
X76809523Y-59761742D02*
X76761904Y-59856980D01*
X76761904Y-59856980D02*
X76714285Y-59904600D01*
X76714285Y-59904600D02*
X76619047Y-59952219D01*
X76619047Y-59952219D02*
X76428571Y-59952219D01*
X76428571Y-59952219D02*
X76333333Y-59904600D01*
X76333333Y-59904600D02*
X76285714Y-59856980D01*
X76285714Y-59856980D02*
X76238095Y-59761742D01*
X76238095Y-59761742D02*
X76238095Y-59523647D01*
X76238095Y-59523647D02*
X76285714Y-59428409D01*
X76285714Y-59428409D02*
X76333333Y-59380790D01*
X76333333Y-59380790D02*
X76428571Y-59333171D01*
X76428571Y-59333171D02*
X76619047Y-59333171D01*
X76619047Y-59333171D02*
X76714285Y-59380790D01*
X76714285Y-59380790D02*
X76761904Y-59428409D01*
X76761904Y-59428409D02*
X76809523Y-59523647D01*
%TO.C,J1*%
D13*
X2880000Y-57230000D02*
X2880000Y-65739999D01*
X2880000Y-57230000D02*
X2880000Y-65739999D01*
X63500000Y-57230000D02*
X63500000Y-65739999D01*
X63500000Y-57230000D02*
X63500000Y-65739999D01*
X75860000Y-57230000D02*
X2880000Y-57230000D01*
X75860000Y-57230000D02*
X2880000Y-57230000D01*
X75860000Y-65739999D02*
X75860000Y-57230000D01*
X75860000Y-65739999D02*
X75860000Y-57230000D01*
%TD*%
M02*
