%TF.GenerationSoftware,KiCad,Pcbnew,10.0.4*%
%TF.CreationDate,2026-07-27T02:08:22-03:00*%
%TF.ProjectId,tkmem128,746b6d65-6d31-4323-982e-6b696361645f,rev?*%
%TF.SameCoordinates,Original*%
%TF.FileFunction,Copper,L1,Top*%
%TF.FilePolarity,Positive*%
%FSLAX46Y46*%
G04 Gerber Fmt 4.6, Leading zero omitted, Abs format (unit mm)*
G04 Created by KiCad (PCBNEW 10.0.4) date 2026-07-27 02:08:22*
%MOMM*%
%LPD*%
G01*
G04 APERTURE LIST*
G04 Aperture macros list*
%AMRoundRect*
0 Rectangle with rounded corners*
0 $1 Rounding radius*
0 $2 $3 $4 $5 $6 $7 $8 $9 X,Y pos of 4 corners*
0 Add a 4 corners polygon primitive as box body*
4,1,4,$2,$3,$4,$5,$6,$7,$8,$9,$2,$3,0*
0 Add four circle primitives for the rounded corners*
1,1,$1+$1,$2,$3*
1,1,$1+$1,$4,$5*
1,1,$1+$1,$6,$7*
1,1,$1+$1,$8,$9*
0 Add four rect primitives between the rounded corners*
20,1,$1+$1,$2,$3,$4,$5,0*
20,1,$1+$1,$4,$5,$6,$7,0*
20,1,$1+$1,$6,$7,$8,$9,0*
20,1,$1+$1,$8,$9,$2,$3,0*%
%AMFreePoly0*
4,1,23,0.500000,-0.750000,0.000000,-0.750000,0.000000,-0.745722,-0.065263,-0.745722,-0.191342,-0.711940,-0.304381,-0.646677,-0.396677,-0.554381,-0.461940,-0.441342,-0.495722,-0.315263,-0.495722,-0.250000,-0.500000,-0.250000,-0.500000,0.250000,-0.495722,0.250000,-0.495722,0.315263,-0.461940,0.441342,-0.396677,0.554381,-0.304381,0.646677,-0.191342,0.711940,-0.065263,0.745722,0.000000,0.745722,
0.000000,0.750000,0.500000,0.750000,0.500000,-0.750000,0.500000,-0.750000,$1*%
%AMFreePoly1*
4,1,23,0.000000,0.745722,0.065263,0.745722,0.191342,0.711940,0.304381,0.646677,0.396677,0.554381,0.461940,0.441342,0.495722,0.315263,0.495722,0.250000,0.500000,0.250000,0.500000,-0.250000,0.495722,-0.250000,0.495722,-0.315263,0.461940,-0.441342,0.396677,-0.554381,0.304381,-0.646677,0.191342,-0.711940,0.065263,-0.745722,0.000000,-0.745722,0.000000,-0.750000,-0.500000,-0.750000,
-0.500000,0.750000,0.000000,0.750000,0.000000,0.745722,0.000000,0.745722,$1*%
G04 Aperture macros list end*
%TA.AperFunction,ComponentPad*%
%ADD10RoundRect,0.250000X-0.950000X-0.550000X0.950000X-0.550000X0.950000X0.550000X-0.950000X0.550000X0*%
%TD*%
%TA.AperFunction,ComponentPad*%
%ADD11O,2.400000X1.600000*%
%TD*%
%TA.AperFunction,ComponentPad*%
%ADD12R,1.700000X1.700000*%
%TD*%
%TA.AperFunction,ComponentPad*%
%ADD13C,1.700000*%
%TD*%
%TA.AperFunction,ComponentPad*%
%ADD14C,1.500000*%
%TD*%
%TA.AperFunction,ComponentPad*%
%ADD15C,1.600000*%
%TD*%
%TA.AperFunction,ComponentPad*%
%ADD16RoundRect,0.250000X-0.550000X-0.550000X0.550000X-0.550000X0.550000X0.550000X-0.550000X0.550000X0*%
%TD*%
%TA.AperFunction,ComponentPad*%
%ADD17R,1.800000X1.800000*%
%TD*%
%TA.AperFunction,ComponentPad*%
%ADD18C,1.800000*%
%TD*%
%TA.AperFunction,SMDPad,CuDef*%
%ADD19FreePoly0,0.000000*%
%TD*%
%TA.AperFunction,SMDPad,CuDef*%
%ADD20FreePoly1,0.000000*%
%TD*%
%TA.AperFunction,ComponentPad*%
%ADD21R,1.750000X1.750000*%
%TD*%
%TA.AperFunction,ComponentPad*%
%ADD22C,1.750000*%
%TD*%
%TA.AperFunction,ViaPad*%
%ADD23C,0.700000*%
%TD*%
%TA.AperFunction,ViaPad*%
%ADD24C,0.900000*%
%TD*%
%TA.AperFunction,Conductor*%
%ADD25C,0.250000*%
%TD*%
%TA.AperFunction,Conductor*%
%ADD26C,0.600000*%
%TD*%
G04 APERTURE END LIST*
D10*
%TO.P,U3,1*%
%TO.N,SA18*%
X6350000Y-5080000D03*
D11*
%TO.P,U3,2*%
%TO.N,SA16*%
X6350000Y-7620000D03*
%TO.P,U3,3*%
%TO.N,SA14*%
X6350000Y-10160000D03*
%TO.P,U3,4*%
%TO.N,A12*%
X6350000Y-12700000D03*
%TO.P,U3,5*%
%TO.N,A7*%
X6350000Y-15240000D03*
%TO.P,U3,6*%
%TO.N,A6*%
X6350000Y-17780000D03*
%TO.P,U3,7*%
%TO.N,A5*%
X6350000Y-20320000D03*
%TO.P,U3,8*%
%TO.N,A4*%
X6350000Y-22860000D03*
%TO.P,U3,9*%
%TO.N,A3*%
X6350000Y-25400000D03*
%TO.P,U3,10*%
%TO.N,A2*%
X6350000Y-27940000D03*
%TO.P,U3,11*%
%TO.N,A1*%
X6350000Y-30480000D03*
%TO.P,U3,12*%
%TO.N,A0*%
X6350000Y-33020000D03*
%TO.P,U3,13*%
%TO.N,D0*%
X6350000Y-35560000D03*
%TO.P,U3,14*%
%TO.N,D1*%
X6350000Y-38100000D03*
%TO.P,U3,15*%
%TO.N,D2*%
X6350000Y-40640000D03*
%TO.P,U3,16*%
%TO.N,GND*%
X6350000Y-43180000D03*
%TO.P,U3,17*%
%TO.N,D3*%
X21590000Y-43180000D03*
%TO.P,U3,18*%
%TO.N,D4*%
X21590000Y-40640000D03*
%TO.P,U3,19*%
%TO.N,D5*%
X21590000Y-38100000D03*
%TO.P,U3,20*%
%TO.N,D6*%
X21590000Y-35560000D03*
%TO.P,U3,21*%
%TO.N,D7*%
X21590000Y-33020000D03*
%TO.P,U3,22*%
%TO.N,RAMCS_N*%
X21590000Y-30480000D03*
%TO.P,U3,23*%
%TO.N,A10*%
X21590000Y-27940000D03*
%TO.P,U3,24*%
%TO.N,RD_N*%
X21590000Y-25400000D03*
%TO.P,U3,25*%
%TO.N,A11*%
X21590000Y-22860000D03*
%TO.P,U3,26*%
%TO.N,A9*%
X21590000Y-20320000D03*
%TO.P,U3,27*%
%TO.N,A8*%
X21590000Y-17780000D03*
%TO.P,U3,28*%
%TO.N,A13*%
X21590000Y-15240000D03*
%TO.P,U3,29*%
%TO.N,WR_N*%
X21590000Y-12700000D03*
%TO.P,U3,30*%
%TO.N,SA17_CE2*%
X21590000Y-10160000D03*
%TO.P,U3,31*%
%TO.N,SA15*%
X21590000Y-7620000D03*
%TO.P,U3,32*%
%TO.N,+5V*%
X21590000Y-5080000D03*
%TD*%
D12*
%TO.P,JP2,1*%
%TO.N,ROMCS_N*%
X71500000Y-17000000D03*
D13*
%TO.P,JP2,2*%
%TO.N,ROMCS_DRV*%
X71500000Y-19540000D03*
%TO.P,JP2,3*%
%TO.N,+5V*%
X71500000Y-22080000D03*
%TD*%
D14*
%TO.P,TP2,1*%
%TO.N,CLK7FFD*%
X64000000Y-47200000D03*
%TD*%
D12*
%TO.P,JP1,1*%
%TO.N,ROMCS_N*%
X71500000Y-8000000D03*
D13*
%TO.P,JP1,2*%
%TO.N,ROMCE_N*%
X71500000Y-10540000D03*
%TO.P,JP1,3*%
%TO.N,+5V*%
X71500000Y-13080000D03*
%TD*%
D15*
%TO.P,C5,1*%
%TO.N,+5V*%
X36000000Y-47200000D03*
%TO.P,C5,2*%
%TO.N,GND*%
X41000000Y-47200000D03*
%TD*%
%TO.P,C4,1*%
%TO.N,+5V*%
X12000000Y-47200000D03*
%TO.P,C4,2*%
%TO.N,GND*%
X17000000Y-47200000D03*
%TD*%
D10*
%TO.P,U2,1*%
%TO.N,RESET_N*%
X59690000Y-12700000D03*
D11*
%TO.P,U2,2*%
%TO.N,BANK0*%
X59690000Y-15240000D03*
%TO.P,U2,3*%
%TO.N,D0*%
X59690000Y-17780000D03*
%TO.P,U2,4*%
%TO.N,D1*%
X59690000Y-20320000D03*
%TO.P,U2,5*%
%TO.N,BANK1*%
X59690000Y-22860000D03*
%TO.P,U2,6*%
%TO.N,BANK2*%
X59690000Y-25400000D03*
%TO.P,U2,7*%
%TO.N,D2*%
X59690000Y-27940000D03*
%TO.P,U2,8*%
%TO.N,D3*%
X59690000Y-30480000D03*
%TO.P,U2,9*%
%TO.N,VRAM*%
X59690000Y-33020000D03*
%TO.P,U2,10*%
%TO.N,GND*%
X59690000Y-35560000D03*
%TO.P,U2,11*%
%TO.N,CLK7FFD*%
X67310000Y-35560000D03*
%TO.P,U2,12*%
%TO.N,ROMA14*%
X67310000Y-33020000D03*
%TO.P,U2,13*%
%TO.N,D4*%
X67310000Y-30480000D03*
%TO.P,U2,14*%
%TO.N,D5*%
X67310000Y-27940000D03*
%TO.P,U2,15*%
%TO.N,DIS128*%
X67310000Y-25400000D03*
%TO.P,U2,16*%
%TO.N,BANK3*%
X67310000Y-22860000D03*
%TO.P,U2,17*%
%TO.N,D6*%
X67310000Y-20320000D03*
%TO.P,U2,18*%
%TO.N,D7*%
X67310000Y-17780000D03*
%TO.P,U2,19*%
%TO.N,BANK4*%
X67310000Y-15240000D03*
%TO.P,U2,20*%
%TO.N,+5V*%
X67310000Y-12700000D03*
%TD*%
D15*
%TO.P,R3,1*%
%TO.N,+5V*%
X23000000Y-53300000D03*
%TO.P,R3,2*%
%TO.N,LED_A*%
X25540000Y-53300000D03*
%TD*%
D14*
%TO.P,TP1,1*%
%TO.N,VRAM*%
X60000000Y-47200000D03*
%TD*%
D10*
%TO.P,U4,1*%
%TO.N,+5V*%
X26670000Y-7620000D03*
D11*
%TO.P,U4,2*%
%TO.N,A12*%
X26670000Y-10160000D03*
%TO.P,U4,3*%
%TO.N,A7*%
X26670000Y-12700000D03*
%TO.P,U4,4*%
%TO.N,A6*%
X26670000Y-15240000D03*
%TO.P,U4,5*%
%TO.N,A5*%
X26670000Y-17780000D03*
%TO.P,U4,6*%
%TO.N,A4*%
X26670000Y-20320000D03*
%TO.P,U4,7*%
%TO.N,A3*%
X26670000Y-22860000D03*
%TO.P,U4,8*%
%TO.N,A2*%
X26670000Y-25400000D03*
%TO.P,U4,9*%
%TO.N,A1*%
X26670000Y-27940000D03*
%TO.P,U4,10*%
%TO.N,A0*%
X26670000Y-30480000D03*
%TO.P,U4,11*%
%TO.N,D0*%
X26670000Y-33020000D03*
%TO.P,U4,12*%
%TO.N,D1*%
X26670000Y-35560000D03*
%TO.P,U4,13*%
%TO.N,D2*%
X26670000Y-38100000D03*
%TO.P,U4,14*%
%TO.N,GND*%
X26670000Y-40640000D03*
%TO.P,U4,15*%
%TO.N,D3*%
X41910000Y-40640000D03*
%TO.P,U4,16*%
%TO.N,D4*%
X41910000Y-38100000D03*
%TO.P,U4,17*%
%TO.N,D5*%
X41910000Y-35560000D03*
%TO.P,U4,18*%
%TO.N,D6*%
X41910000Y-33020000D03*
%TO.P,U4,19*%
%TO.N,D7*%
X41910000Y-30480000D03*
%TO.P,U4,20*%
%TO.N,ROMCE_N*%
X41910000Y-27940000D03*
%TO.P,U4,21*%
%TO.N,A10*%
X41910000Y-25400000D03*
%TO.P,U4,22*%
%TO.N,RD_N*%
X41910000Y-22860000D03*
%TO.P,U4,23*%
%TO.N,A11*%
X41910000Y-20320000D03*
%TO.P,U4,24*%
%TO.N,A9*%
X41910000Y-17780000D03*
%TO.P,U4,25*%
%TO.N,A8*%
X41910000Y-15240000D03*
%TO.P,U4,26*%
%TO.N,A13*%
X41910000Y-12700000D03*
%TO.P,U4,27*%
%TO.N,ROMA14*%
X41910000Y-10160000D03*
%TO.P,U4,28*%
%TO.N,+5V*%
X41910000Y-7620000D03*
%TD*%
D15*
%TO.P,C2,1*%
%TO.N,+5V*%
X28000000Y-47200000D03*
%TO.P,C2,2*%
%TO.N,GND*%
X33000000Y-47200000D03*
%TD*%
D12*
%TO.P,JP4,1*%
%TO.N,RAMDIS_DRV*%
X71500000Y-33500000D03*
D13*
%TO.P,JP4,2*%
%TO.N,RAMDIS*%
X71500000Y-36040000D03*
%TD*%
D15*
%TO.P,R5,1*%
%TO.N,ROMCS_DRV*%
X17000000Y-53300000D03*
%TO.P,R5,2*%
%TO.N,ROMCS_BUS*%
X19540000Y-53300000D03*
%TD*%
D16*
%TO.P,C6,1*%
%TO.N,+5V*%
X44000000Y-47200000D03*
D15*
%TO.P,C6,2*%
%TO.N,GND*%
X46000000Y-47200000D03*
%TD*%
D17*
%TO.P,D1,1*%
%TO.N,GND*%
X52000000Y-47200000D03*
D18*
%TO.P,D1,2*%
%TO.N,LED_A*%
X54540000Y-47200000D03*
%TD*%
D10*
%TO.P,U1,1*%
%TO.N,MREQ_N*%
X46990000Y-10160000D03*
D11*
%TO.P,U1,2*%
%TO.N,ZX512*%
X46990000Y-12700000D03*
%TO.P,U1,3*%
%TO.N,A1*%
X46990000Y-15240000D03*
%TO.P,U1,4*%
%TO.N,WR_N*%
X46990000Y-17780000D03*
%TO.P,U1,5*%
%TO.N,DIS128*%
X46990000Y-20320000D03*
%TO.P,U1,6*%
%TO.N,BANK2*%
X46990000Y-22860000D03*
%TO.P,U1,7*%
%TO.N,A5*%
X46990000Y-25400000D03*
%TO.P,U1,8*%
%TO.N,BANK0*%
X46990000Y-27940000D03*
%TO.P,U1,9*%
%TO.N,BANK4*%
X46990000Y-30480000D03*
%TO.P,U1,10*%
%TO.N,BANK3*%
X46990000Y-33020000D03*
%TO.P,U1,11*%
%TO.N,BANK1*%
X46990000Y-35560000D03*
%TO.P,U1,12*%
%TO.N,GND*%
X46990000Y-38100000D03*
%TO.P,U1,13*%
%TO.N,A15*%
X54610000Y-38100000D03*
%TO.P,U1,14*%
%TO.N,A14*%
X54610000Y-35560000D03*
%TO.P,U1,15*%
%TO.N,ROMCS_N*%
X54610000Y-33020000D03*
%TO.P,U1,16*%
%TO.N,CLK7FFD*%
X54610000Y-30480000D03*
%TO.P,U1,17*%
%TO.N,SA18*%
X54610000Y-27940000D03*
%TO.P,U1,18*%
%TO.N,SA17_CE2*%
X54610000Y-25400000D03*
%TO.P,U1,19*%
%TO.N,RAMCS_N*%
X54610000Y-22860000D03*
%TO.P,U1,20*%
%TO.N,SA16*%
X54610000Y-20320000D03*
%TO.P,U1,21*%
%TO.N,SA15*%
X54610000Y-17780000D03*
%TO.P,U1,22*%
%TO.N,SA14*%
X54610000Y-15240000D03*
%TO.P,U1,23*%
%TO.N,IORQ_N*%
X54610000Y-12700000D03*
%TO.P,U1,24*%
%TO.N,+5V*%
X54610000Y-10160000D03*
%TD*%
D19*
%TO.P,SJ1,1*%
%TO.N,BUS_P07*%
X30350000Y-53300000D03*
D20*
%TO.P,SJ1,2*%
%TO.N,GND*%
X31650000Y-53300000D03*
%TD*%
D15*
%TO.P,C1,1*%
%TO.N,+5V*%
X20000000Y-47200000D03*
%TO.P,C1,2*%
%TO.N,GND*%
X25000000Y-47200000D03*
%TD*%
%TO.P,C3,1*%
%TO.N,+5V*%
X4000000Y-47200000D03*
%TO.P,C3,2*%
%TO.N,GND*%
X9000000Y-47200000D03*
%TD*%
%TO.P,R4,1*%
%TO.N,+5V*%
X11000000Y-53300000D03*
%TO.P,R4,2*%
%TO.N,RAMDIS_DRV*%
X13540000Y-53300000D03*
%TD*%
D19*
%TO.P,SJ2,1*%
%TO.N,BUS_P15*%
X36350000Y-53300000D03*
D20*
%TO.P,SJ2,2*%
%TO.N,GND*%
X37650000Y-53300000D03*
%TD*%
D15*
%TO.P,R2,1*%
%TO.N,+5V*%
X5000000Y-53300000D03*
%TO.P,R2,2*%
%TO.N,ZX512*%
X7540000Y-53300000D03*
%TD*%
D12*
%TO.P,JP3,1*%
%TO.N,ZX512*%
X71500000Y-26000000D03*
D13*
%TO.P,JP3,2*%
%TO.N,GND*%
X71500000Y-28540000D03*
%TD*%
D21*
%TO.P,J1,1*%
%TO.N,A14*%
X73660000Y-59805000D03*
D22*
%TO.P,J1,2*%
%TO.N,A12*%
X71120000Y-59805000D03*
%TO.P,J1,3*%
%TO.N,+5V*%
X68580000Y-59805000D03*
%TO.P,J1,4*%
%TO.N,BUS_9V*%
X66040000Y-59805000D03*
%TO.P,J1,6*%
%TO.N,GND*%
X60960000Y-59805000D03*
%TO.P,J1,7*%
%TO.N,BUS_P07*%
X58420000Y-59805000D03*
%TO.P,J1,8*%
%TO.N,BUS_CLK*%
X55880000Y-59805000D03*
%TO.P,J1,9*%
%TO.N,A0*%
X53340000Y-59805000D03*
%TO.P,J1,10*%
%TO.N,A1*%
X50800000Y-59805000D03*
%TO.P,J1,11*%
%TO.N,A2*%
X48260000Y-59805000D03*
%TO.P,J1,12*%
%TO.N,A3*%
X45720000Y-59805000D03*
%TO.P,J1,13*%
%TO.N,BUS_IORQGE*%
X43180000Y-59805000D03*
%TO.P,J1,14*%
%TO.N,GND*%
X40640000Y-59805000D03*
%TO.P,J1,15*%
%TO.N,BUS_P15*%
X38100000Y-59805000D03*
%TO.P,J1,16*%
%TO.N,BUS_P16*%
X35560000Y-59805000D03*
%TO.P,J1,17*%
%TO.N,RAMDIS*%
X33020000Y-59805000D03*
%TO.P,J1,18*%
%TO.N,BUS_P18*%
X30480000Y-59805000D03*
%TO.P,J1,19*%
%TO.N,BUS_BUSREQ*%
X27940000Y-59805000D03*
%TO.P,J1,20*%
%TO.N,RESET_N*%
X25400000Y-59805000D03*
%TO.P,J1,21*%
%TO.N,A7*%
X22860000Y-59805000D03*
%TO.P,J1,22*%
%TO.N,A6*%
X20320000Y-59805000D03*
%TO.P,J1,23*%
%TO.N,A5*%
X17780000Y-59805000D03*
%TO.P,J1,24*%
%TO.N,A4*%
X15240000Y-59805000D03*
%TO.P,J1,25*%
%TO.N,ROMCS_BUS*%
X12700000Y-59805000D03*
%TO.P,J1,26*%
%TO.N,BUS_BUSACK*%
X10160000Y-59805000D03*
%TO.P,J1,27*%
%TO.N,A9*%
X7620000Y-59805000D03*
%TO.P,J1,28*%
%TO.N,A11*%
X5080000Y-59805000D03*
%TO.P,J1,29*%
%TO.N,BUS_P29*%
X5080000Y-64655000D03*
%TO.P,J1,30*%
%TO.N,A10*%
X7620000Y-64655000D03*
%TO.P,J1,31*%
%TO.N,A8*%
X10160000Y-64655000D03*
%TO.P,J1,32*%
%TO.N,BUS_RFSH*%
X12700000Y-64655000D03*
%TO.P,J1,33*%
%TO.N,BUS_M1*%
X15240000Y-64655000D03*
%TO.P,J1,34*%
%TO.N,BUS_P34*%
X17780000Y-64655000D03*
%TO.P,J1,35*%
%TO.N,BUS_P35*%
X20320000Y-64655000D03*
%TO.P,J1,36*%
%TO.N,BUS_WAIT*%
X22860000Y-64655000D03*
%TO.P,J1,37*%
%TO.N,BUS_P37*%
X25400000Y-64655000D03*
%TO.P,J1,38*%
%TO.N,WR_N*%
X27940000Y-64655000D03*
%TO.P,J1,39*%
%TO.N,RD_N*%
X30480000Y-64655000D03*
%TO.P,J1,40*%
%TO.N,IORQ_N*%
X33020000Y-64655000D03*
%TO.P,J1,41*%
%TO.N,MREQ_N*%
X35560000Y-64655000D03*
%TO.P,J1,42*%
%TO.N,BUS_HALT*%
X38100000Y-64655000D03*
%TO.P,J1,43*%
%TO.N,BUS_NMI*%
X40640000Y-64655000D03*
%TO.P,J1,44*%
%TO.N,BUS_INT*%
X43180000Y-64655000D03*
%TO.P,J1,45*%
%TO.N,D4*%
X45720000Y-64655000D03*
%TO.P,J1,46*%
%TO.N,D3*%
X48260000Y-64655000D03*
%TO.P,J1,47*%
%TO.N,D5*%
X50800000Y-64655000D03*
%TO.P,J1,48*%
%TO.N,D6*%
X53340000Y-64655000D03*
%TO.P,J1,49*%
%TO.N,D2*%
X55880000Y-64655000D03*
%TO.P,J1,50*%
%TO.N,D1*%
X58420000Y-64655000D03*
%TO.P,J1,51*%
%TO.N,D0*%
X60960000Y-64655000D03*
%TO.P,J1,53*%
%TO.N,BUS_SOUNDIN*%
X66040000Y-64655000D03*
%TO.P,J1,54*%
%TO.N,D7*%
X68580000Y-64655000D03*
%TO.P,J1,55*%
%TO.N,A13*%
X71120000Y-64655000D03*
%TO.P,J1,56*%
%TO.N,A15*%
X73660000Y-64655000D03*
%TD*%
D23*
%TO.N,A7*%
X26726500Y-57774100D03*
%TO.N,A6*%
X1586500Y-51992500D03*
%TO.N,A5*%
X2211500Y-55299300D03*
%TO.N,A4*%
X2864500Y-56234000D03*
%TO.N,A1*%
X39068500Y-28465200D03*
%TO.N,D1*%
X30646900Y-39517800D03*
X61900700Y-36895900D03*
%TO.N,D3*%
X36763600Y-59040600D03*
%TO.N,D6*%
X55531800Y-62267700D03*
X57540100Y-23897300D03*
%TO.N,D7*%
X63437800Y-19388500D03*
%TO.N,A8*%
X3508500Y-63286900D03*
%TO.N,A13*%
X42351800Y-56423400D03*
X24539800Y-14675900D03*
%TO.N,WR_N*%
X12448900Y-49374100D03*
%TO.N,SA17_CE2*%
X35720300Y-34546700D03*
%TO.N,SA15*%
X57713900Y-12575100D03*
D24*
%TO.N,+5V*%
X41648100Y-45244300D03*
D23*
%TO.N,ROMCS_N*%
X61673300Y-22798500D03*
%TO.N,CLK7FFD*%
X63597400Y-31816400D03*
%TO.N,ROMCE_N*%
X57014000Y-14269900D03*
%TO.N,RESET_N*%
X67956400Y-39072700D03*
%TO.N,BANK2*%
X50966900Y-22860000D03*
%TO.N,BANK4*%
X51788300Y-26670000D03*
%TO.N,LED_A*%
X50710200Y-43769000D03*
%TO.N,RAMDIS_DRV*%
X37734000Y-58316300D03*
X36210200Y-56913300D03*
%TO.N,MREQ_N*%
X47306400Y-57845800D03*
X39457300Y-61160600D03*
%TO.N,ZX512*%
X60693400Y-11400000D03*
%TO.N,A15*%
X61751300Y-57166200D03*
%TO.N,A14*%
X58026600Y-50654600D03*
%TO.N,IORQ_N*%
X43383600Y-52022100D03*
%TO.N,BUS_P07*%
X39601500Y-57227500D03*
X36021600Y-54564500D03*
%TO.N,BUS_P15*%
X35185900Y-55490600D03*
%TD*%
%TO.N,SA18*%
D25*
X71253100Y-18131900D02*
X72518500Y-18131900D01*
X54610000Y-27940000D02*
X56076700Y-27940000D01*
X67980000Y-21590000D02*
X69855000Y-19715000D01*
X57150300Y-26866400D02*
X60427800Y-26866400D01*
X56063800Y-9151200D02*
X50530900Y-3618300D01*
X56076700Y-27940000D02*
X57150300Y-26866400D01*
X7811700Y-3618300D02*
X6350000Y-5080000D01*
X69855000Y-19715000D02*
X69855000Y-19530000D01*
X71694400Y-9151200D02*
X56063800Y-9151200D01*
X60427800Y-26866400D02*
X65704200Y-21590000D01*
X69855000Y-19530000D02*
X71253100Y-18131900D01*
X72616700Y-18033700D02*
X72616700Y-10073500D01*
X72616700Y-10073500D02*
X71694400Y-9151200D01*
X65704200Y-21590000D02*
X67980000Y-21590000D01*
X50530900Y-3618300D02*
X7811700Y-3618300D01*
%TO.N,SA16*%
X47652000Y-13970000D02*
X46310200Y-13970000D01*
X5508300Y-11250600D02*
X4883300Y-10625600D01*
X53143300Y-19461300D02*
X47652000Y-13970000D01*
X45523300Y-11837000D02*
X42759400Y-9073100D01*
X45523300Y-13183100D02*
X45523300Y-11837000D01*
X54610000Y-20320000D02*
X53143300Y-20320000D01*
X7399400Y-11250600D02*
X5508300Y-11250600D01*
X53143300Y-20320000D02*
X53143300Y-19461300D01*
X9576900Y-9073100D02*
X7399400Y-11250600D01*
X4883300Y-10625600D02*
X4883300Y-7620000D01*
X6350000Y-7620000D02*
X4883300Y-7620000D01*
X42759400Y-9073100D02*
X9576900Y-9073100D01*
X46310200Y-13970000D02*
X45523300Y-13183100D01*
%TO.N,SA14*%
X13966700Y-4010000D02*
X7816700Y-10160000D01*
X56076700Y-14334800D02*
X56769300Y-13642200D01*
X50368500Y-4010000D02*
X13966700Y-4010000D01*
X55926500Y-9568000D02*
X50368500Y-4010000D01*
X56076700Y-15240000D02*
X56076700Y-14334800D01*
X66122900Y-9568000D02*
X55926500Y-9568000D01*
X68816300Y-12261400D02*
X66122900Y-9568000D01*
X68146100Y-13773600D02*
X68816300Y-13103400D01*
X58419100Y-13773600D02*
X68146100Y-13773600D01*
X68816300Y-13103400D02*
X68816300Y-12261400D01*
X58287700Y-13642200D02*
X58419100Y-13773600D01*
X56769300Y-13642200D02*
X58287700Y-13642200D01*
X6350000Y-10160000D02*
X7816700Y-10160000D01*
X54610000Y-15240000D02*
X56076700Y-15240000D01*
%TO.N,A12*%
X22459700Y-11276300D02*
X23576000Y-10160000D01*
X6350000Y-12700000D02*
X7816700Y-12700000D01*
X23576000Y-10160000D02*
X25203300Y-10160000D01*
X9240400Y-11276300D02*
X22459700Y-11276300D01*
X7816700Y-12700000D02*
X9240400Y-11276300D01*
X26670000Y-10160000D02*
X25203300Y-10160000D01*
%TO.N,A7*%
X24890900Y-57774100D02*
X26726500Y-57774100D01*
X25203300Y-12700000D02*
X24087000Y-13816300D01*
X26670000Y-12700000D02*
X25203300Y-12700000D01*
X6350000Y-15240000D02*
X7816700Y-15240000D01*
X9240400Y-13816300D02*
X7816700Y-15240000D01*
X22860000Y-59805000D02*
X24890900Y-57774100D01*
X24087000Y-13816300D02*
X9240400Y-13816300D01*
%TO.N,A6*%
X24077200Y-16366100D02*
X9230600Y-16366100D01*
X19766000Y-59805000D02*
X20320000Y-59805000D01*
X4501600Y-54907600D02*
X14868600Y-54907600D01*
X14868600Y-54907600D02*
X19766000Y-59805000D01*
X6350000Y-17780000D02*
X7816700Y-17780000D01*
X9230600Y-16366100D02*
X7816700Y-17780000D01*
X25203300Y-15240000D02*
X24077200Y-16366100D01*
X1586500Y-51992500D02*
X4501600Y-54907600D01*
X26670000Y-15240000D02*
X25203300Y-15240000D01*
%TO.N,A5*%
X9240400Y-18896300D02*
X7816700Y-20320000D01*
X45523300Y-19428200D02*
X45523300Y-25400000D01*
X6350000Y-20320000D02*
X7816700Y-20320000D01*
X25203300Y-17780000D02*
X24087000Y-18896300D01*
X26670000Y-17780000D02*
X25203300Y-17780000D01*
X40838500Y-16711500D02*
X42806600Y-16711500D01*
X46990000Y-25400000D02*
X45523300Y-25400000D01*
X26670000Y-17780000D02*
X39770000Y-17780000D01*
X24087000Y-18896300D02*
X9240400Y-18896300D01*
X2211500Y-55299300D02*
X13274300Y-55299300D01*
X39770000Y-17780000D02*
X40838500Y-16711500D01*
X42806600Y-16711500D02*
X45523300Y-19428200D01*
X13274300Y-55299300D02*
X17780000Y-59805000D01*
%TO.N,A4*%
X9240400Y-21436300D02*
X7816700Y-22860000D01*
X6350000Y-22860000D02*
X7816700Y-22860000D01*
X23349600Y-21436300D02*
X9240400Y-21436300D01*
X26670000Y-20320000D02*
X24465900Y-20320000D01*
X11669000Y-56234000D02*
X2864500Y-56234000D01*
X24465900Y-20320000D02*
X23349600Y-21436300D01*
X15240000Y-59805000D02*
X11669000Y-56234000D01*
%TO.N,A3*%
X24105500Y-22860000D02*
X22940800Y-24024700D01*
X6350000Y-25400000D02*
X7816700Y-25400000D01*
X9192000Y-24024700D02*
X7816700Y-25400000D01*
X26670000Y-22860000D02*
X24105500Y-22860000D01*
X22940800Y-24024700D02*
X9192000Y-24024700D01*
%TO.N,A2*%
X8932500Y-26824200D02*
X23041700Y-26824200D01*
X6350000Y-27940000D02*
X7816700Y-27940000D01*
X23041700Y-26824200D02*
X24465900Y-25400000D01*
X7816700Y-27940000D02*
X8932500Y-26824200D01*
X24465900Y-25400000D02*
X26670000Y-25400000D01*
%TO.N,A1*%
X9240400Y-29056300D02*
X7816700Y-30480000D01*
X6350000Y-30480000D02*
X7816700Y-30480000D01*
X28661900Y-28465200D02*
X28136700Y-27940000D01*
X24465900Y-27940000D02*
X23349600Y-29056300D01*
X39068500Y-28465200D02*
X28661900Y-28465200D01*
X26670000Y-27940000D02*
X24465900Y-27940000D01*
X26670000Y-27940000D02*
X28136700Y-27940000D01*
X23349600Y-29056300D02*
X9240400Y-29056300D01*
%TO.N,A0*%
X23349600Y-31596300D02*
X9240400Y-31596300D01*
X24465900Y-30480000D02*
X23349600Y-31596300D01*
X26670000Y-30480000D02*
X24465900Y-30480000D01*
X6350000Y-33020000D02*
X7816700Y-33020000D01*
X9240400Y-31596300D02*
X7816700Y-33020000D01*
%TO.N,D0*%
X55275800Y-24130000D02*
X52902200Y-24130000D01*
X23349600Y-34136300D02*
X9240400Y-34136300D01*
X59690000Y-17780000D02*
X58223300Y-17780000D01*
X47833300Y-31554700D02*
X41235300Y-31554700D01*
X39770000Y-33020000D02*
X26670000Y-33020000D01*
X58223300Y-21182500D02*
X55275800Y-24130000D01*
X52902200Y-24130000D02*
X50242300Y-26789900D01*
X50242300Y-29145700D02*
X47833300Y-31554700D01*
X9240400Y-34136300D02*
X7816700Y-35560000D01*
X50242300Y-26789900D02*
X50242300Y-29145700D01*
X58223300Y-17780000D02*
X58223300Y-21182500D01*
X24465900Y-33020000D02*
X23349600Y-34136300D01*
X41235300Y-31554700D02*
X39770000Y-33020000D01*
X26670000Y-33020000D02*
X24465900Y-33020000D01*
X6350000Y-35560000D02*
X7816700Y-35560000D01*
%TO.N,D1*%
X24087000Y-36676300D02*
X9240400Y-36676300D01*
X59278800Y-39517800D02*
X30646900Y-39517800D01*
X61900700Y-36895900D02*
X59278800Y-39517800D01*
X6350000Y-38100000D02*
X7816700Y-38100000D01*
X9240400Y-36676300D02*
X7816700Y-38100000D01*
X25203300Y-35560000D02*
X24087000Y-36676300D01*
X26670000Y-35560000D02*
X25203300Y-35560000D01*
%TO.N,D2*%
X6350000Y-40640000D02*
X7816700Y-40640000D01*
X23282200Y-38781800D02*
X22892000Y-39172000D01*
X9284700Y-39172000D02*
X7816700Y-40640000D01*
X25203300Y-38100000D02*
X24521500Y-38781800D01*
X22892000Y-39172000D02*
X9284700Y-39172000D01*
X26670000Y-38100000D02*
X25203300Y-38100000D01*
X24521500Y-38781800D02*
X23282200Y-38781800D01*
%TO.N,GND*%
D26*
X61684500Y-35560000D02*
X61331700Y-35560000D01*
X26282700Y-45917300D02*
X31717300Y-45917300D01*
X33000000Y-52107400D02*
X33000000Y-47200000D01*
X9000000Y-45957200D02*
X9000000Y-44188300D01*
X41000000Y-48757400D02*
X41000000Y-47200000D01*
X31650000Y-53300000D02*
X32842600Y-52107400D01*
X37650000Y-52107400D02*
X41000000Y-48757400D01*
X20620900Y-41910000D02*
X16165500Y-46365400D01*
X59690000Y-35560000D02*
X58048300Y-35560000D01*
X40640000Y-59805000D02*
X41993300Y-61158300D01*
X48631700Y-38100000D02*
X49901800Y-36829900D01*
X15757200Y-45957200D02*
X9000000Y-45957200D01*
X56778400Y-36829900D02*
X58048300Y-35560000D01*
X9000000Y-44188300D02*
X7991700Y-43180000D01*
X69329700Y-30710300D02*
X69329700Y-35714800D01*
X33000000Y-52107400D02*
X37650000Y-52107400D01*
X31717300Y-45917300D02*
X33000000Y-47200000D01*
X26670000Y-40640000D02*
X24155900Y-40640000D01*
X59606700Y-61158300D02*
X60960000Y-59805000D01*
X16165500Y-46365400D02*
X15757200Y-45957200D01*
X32842600Y-52107400D02*
X33000000Y-52107400D01*
X9000000Y-47200000D02*
X9000000Y-45957200D01*
X42284600Y-45915400D02*
X41000000Y-47200000D01*
X17000000Y-47200000D02*
X16165500Y-46365400D01*
X68188800Y-36855700D02*
X62980200Y-36855700D01*
X25000000Y-47200000D02*
X26282700Y-45917300D01*
X37650000Y-52107400D02*
X37650000Y-53300000D01*
X71500000Y-28540000D02*
X69329700Y-30710300D01*
X69329700Y-35714800D02*
X68188800Y-36855700D01*
X46000000Y-47100900D02*
X44814500Y-45915400D01*
X6350000Y-43180000D02*
X7991700Y-43180000D01*
X46990000Y-38100000D02*
X48631700Y-38100000D01*
X41993300Y-61158300D02*
X59606700Y-61158300D01*
X62980200Y-36855700D02*
X61684500Y-35560000D01*
X22885900Y-41910000D02*
X20620900Y-41910000D01*
X44814500Y-45915400D02*
X42284600Y-45915400D01*
X59690000Y-35560000D02*
X61331700Y-35560000D01*
X24155900Y-40640000D02*
X22885900Y-41910000D01*
X49901800Y-36829900D02*
X56778400Y-36829900D01*
%TO.N,D3*%
D25*
X41910000Y-40640000D02*
X40443300Y-40640000D01*
X40186500Y-63513300D02*
X47118300Y-63513300D01*
X37903300Y-43180000D02*
X40443300Y-40640000D01*
X47118300Y-63513300D02*
X48260000Y-64655000D01*
X36763600Y-60090400D02*
X40186500Y-63513300D01*
X21590000Y-43180000D02*
X23056700Y-43180000D01*
X23056700Y-43180000D02*
X37903300Y-43180000D01*
X36763600Y-59040600D02*
X36763600Y-60090400D01*
%TO.N,D4*%
X62392300Y-34485000D02*
X65843300Y-31034000D01*
X48621000Y-37026500D02*
X51162500Y-34485000D01*
X43376700Y-38100000D02*
X44450200Y-37026500D01*
X21590000Y-40640000D02*
X23056700Y-40640000D01*
X65843300Y-31034000D02*
X65843300Y-30480000D01*
X41910000Y-38100000D02*
X40443300Y-38100000D01*
X28102500Y-39565300D02*
X29567800Y-38100000D01*
X23056700Y-40640000D02*
X24131400Y-39565300D01*
X67310000Y-30480000D02*
X65843300Y-30480000D01*
X41910000Y-38100000D02*
X43376700Y-38100000D01*
X44450200Y-37026500D02*
X48621000Y-37026500D01*
X51162500Y-34485000D02*
X62392300Y-34485000D01*
X29567800Y-38100000D02*
X40443300Y-38100000D01*
X24131400Y-39565300D02*
X28102500Y-39565300D01*
%TO.N,D5*%
X39067500Y-36935800D02*
X24847700Y-36935800D01*
X24847700Y-36935800D02*
X23683500Y-38100000D01*
X64376800Y-29406500D02*
X53767800Y-29406500D01*
X44452900Y-34483800D02*
X43376700Y-35560000D01*
X48690500Y-34483800D02*
X44452900Y-34483800D01*
X41910000Y-35560000D02*
X40443300Y-35560000D01*
X41910000Y-35560000D02*
X43376700Y-35560000D01*
X67310000Y-27940000D02*
X65843300Y-27940000D01*
X53767800Y-29406500D02*
X48690500Y-34483800D01*
X23683500Y-38100000D02*
X21590000Y-38100000D01*
X65843300Y-27940000D02*
X64376800Y-29406500D01*
X40443300Y-35560000D02*
X39067500Y-36935800D01*
%TO.N,D6*%
X39533300Y-33930000D02*
X35464900Y-33930000D01*
X35464900Y-33930000D02*
X35302800Y-34092100D01*
X40443300Y-33020000D02*
X39533300Y-33930000D01*
X24524600Y-34092100D02*
X23056700Y-35560000D01*
X35302800Y-34092100D02*
X24524600Y-34092100D01*
X55531800Y-62463200D02*
X55531800Y-62267700D01*
X41910000Y-33020000D02*
X40443300Y-33020000D01*
X62193700Y-23969600D02*
X65843300Y-20320000D01*
X57612400Y-23969600D02*
X62193700Y-23969600D01*
X67310000Y-20320000D02*
X65843300Y-20320000D01*
X53340000Y-64655000D02*
X55531800Y-62463200D01*
X21590000Y-35560000D02*
X23056700Y-35560000D01*
%TO.N,D7*%
X63437800Y-19388500D02*
X65046300Y-17780000D01*
X65046300Y-17780000D02*
X67310000Y-17780000D01*
X40443300Y-30480000D02*
X39371200Y-31552100D01*
X39371200Y-31552100D02*
X24524600Y-31552100D01*
X21590000Y-33020000D02*
X23056700Y-33020000D01*
X41910000Y-30480000D02*
X40443300Y-30480000D01*
X24524600Y-31552100D02*
X23056700Y-33020000D01*
%TO.N,RAMCS_N*%
X47710000Y-29210000D02*
X24326700Y-29210000D01*
X24326700Y-29210000D02*
X23056700Y-30480000D01*
X53143300Y-22860000D02*
X49850600Y-26152700D01*
X49850600Y-26152700D02*
X49850600Y-27069400D01*
X21590000Y-30480000D02*
X23056700Y-30480000D01*
X49850600Y-27069400D02*
X47710000Y-29210000D01*
X54610000Y-22860000D02*
X53143300Y-22860000D01*
%TO.N,A10*%
X21590000Y-27940000D02*
X23056700Y-27940000D01*
X24523100Y-26473600D02*
X23056700Y-27940000D01*
X39369700Y-26473600D02*
X24523100Y-26473600D01*
X41910000Y-25400000D02*
X40443300Y-25400000D01*
X40443300Y-25400000D02*
X39369700Y-26473600D01*
%TO.N,RD_N*%
X38978000Y-24325300D02*
X40443300Y-22860000D01*
X24131400Y-24325300D02*
X38978000Y-24325300D01*
X21590000Y-25400000D02*
X23056700Y-25400000D01*
X23056700Y-25400000D02*
X24131400Y-24325300D01*
X41910000Y-22860000D02*
X40443300Y-22860000D01*
%TO.N,A11*%
X40443300Y-20320000D02*
X39371200Y-21392100D01*
X41910000Y-20320000D02*
X40443300Y-20320000D01*
X21590000Y-22860000D02*
X23056700Y-22860000D01*
X39371200Y-21392100D02*
X24524600Y-21392100D01*
X24524600Y-21392100D02*
X23056700Y-22860000D01*
%TO.N,A9*%
X23794100Y-20320000D02*
X24910400Y-19203700D01*
X41910000Y-17780000D02*
X40443300Y-17780000D01*
X21590000Y-20320000D02*
X23794100Y-20320000D01*
X39019600Y-19203700D02*
X40443300Y-17780000D01*
X24910400Y-19203700D02*
X39019600Y-19203700D01*
%TO.N,A8*%
X21590000Y-17780000D02*
X23794100Y-17780000D01*
X39019600Y-16663700D02*
X40443300Y-15240000D01*
X8791900Y-63286900D02*
X3508500Y-63286900D01*
X10160000Y-64655000D02*
X8791900Y-63286900D01*
X23794100Y-17780000D02*
X24910400Y-16663700D01*
X41910000Y-15240000D02*
X40443300Y-15240000D01*
X24910400Y-16663700D02*
X39019600Y-16663700D01*
%TO.N,A13*%
X68385700Y-61920700D02*
X65635800Y-61920700D01*
X24539800Y-14675900D02*
X23620800Y-14675900D01*
X65635800Y-61920700D02*
X61661400Y-57946300D01*
X41910000Y-12700000D02*
X40443300Y-12700000D01*
X56837100Y-57946300D02*
X55314200Y-56423400D01*
X25245700Y-13970000D02*
X39173300Y-13970000D01*
X39173300Y-13970000D02*
X40443300Y-12700000D01*
X55314200Y-56423400D02*
X42351800Y-56423400D01*
X61661400Y-57946300D02*
X56837100Y-57946300D01*
X24539800Y-14675900D02*
X25245700Y-13970000D01*
X71120000Y-64655000D02*
X68385700Y-61920700D01*
X23620800Y-14675900D02*
X23056700Y-15240000D01*
X21590000Y-15240000D02*
X23056700Y-15240000D01*
%TO.N,WR_N*%
X46990000Y-17780000D02*
X45523300Y-17780000D01*
X45523300Y-17780000D02*
X45523300Y-13899200D01*
X13194600Y-54514400D02*
X15029400Y-54514400D01*
X21590000Y-60155700D02*
X22921700Y-61487400D01*
X21590000Y-12700000D02*
X23056700Y-12700000D01*
X20843000Y-58663300D02*
X21590000Y-59410300D01*
X12448900Y-49374100D02*
X12448900Y-53768700D01*
X24772400Y-61487400D02*
X27940000Y-64655000D01*
X15029400Y-54514400D02*
X19178300Y-58663300D01*
X22921700Y-61487400D02*
X24772400Y-61487400D01*
X45523300Y-13899200D02*
X43197000Y-11572900D01*
X12448900Y-53768700D02*
X13194600Y-54514400D01*
X43197000Y-11572900D02*
X24183800Y-11572900D01*
X21590000Y-59410300D02*
X21590000Y-60155700D01*
X24183800Y-11572900D02*
X23056700Y-12700000D01*
X19178300Y-58663300D02*
X20843000Y-58663300D01*
%TO.N,SA17_CE2*%
X47995600Y-31946400D02*
X45923600Y-31946400D01*
X43387700Y-34482300D02*
X35784700Y-34482300D01*
X54610000Y-25400000D02*
X52186200Y-25400000D01*
X50772100Y-29169900D02*
X47995600Y-31946400D01*
X50772100Y-26814100D02*
X50772100Y-29169900D01*
X45923600Y-31946400D02*
X43387700Y-34482300D01*
X52186200Y-25400000D02*
X50772100Y-26814100D01*
%TO.N,SA15*%
X53143300Y-14785000D02*
X54028900Y-13899400D01*
X54610000Y-17780000D02*
X53143300Y-17780000D01*
X54028900Y-13899400D02*
X55900900Y-13899400D01*
X57225200Y-12575100D02*
X57713900Y-12575100D01*
X53143300Y-17780000D02*
X53143300Y-14785000D01*
X55900900Y-13899400D02*
X57225200Y-12575100D01*
%TO.N,+5V*%
D26*
X33956500Y-45156500D02*
X36000000Y-47200000D01*
X9755700Y-52055700D02*
X11000000Y-53300000D01*
X6083900Y-49283900D02*
X4000000Y-47200000D01*
X5000000Y-53300000D02*
X6083900Y-52216100D01*
X23000000Y-52200000D02*
X28000000Y-47200000D01*
X67310000Y-12700000D02*
X65668300Y-12700000D01*
X54610000Y-10160000D02*
X52968300Y-10160000D01*
X6083900Y-52055700D02*
X6083900Y-49283900D01*
X20000000Y-47200000D02*
X18758300Y-48441700D01*
X13241700Y-48441700D02*
X12000000Y-47200000D01*
X6083900Y-52055700D02*
X9755700Y-52055700D01*
X50428300Y-7620000D02*
X52968300Y-10160000D01*
X23000000Y-53300000D02*
X23000000Y-52200000D01*
X37955700Y-45244300D02*
X41648100Y-45244300D01*
X65668300Y-12700000D02*
X63128300Y-10160000D01*
X20000000Y-47200000D02*
X22043500Y-45156500D01*
X63128300Y-10160000D02*
X54610000Y-10160000D01*
X6083900Y-52216100D02*
X6083900Y-52055700D01*
X6083900Y-49283900D02*
X9916100Y-49283900D01*
X9916100Y-49283900D02*
X12000000Y-47200000D01*
X36000000Y-47200000D02*
X37955700Y-45244300D01*
X22043500Y-45156500D02*
X33956500Y-45156500D01*
X41910000Y-7620000D02*
X50428300Y-7620000D01*
X41910000Y-7620000D02*
X26670000Y-7620000D01*
X24130000Y-5080000D02*
X21590000Y-5080000D01*
X18758300Y-48441700D02*
X13241700Y-48441700D01*
X26670000Y-7620000D02*
X24130000Y-5080000D01*
%TO.N,ROMCS_N*%
D25*
X71500000Y-17000000D02*
X70383300Y-17000000D01*
X68195300Y-19188000D02*
X65283800Y-19188000D01*
X65283800Y-19188000D02*
X61673300Y-22798500D01*
X70383300Y-17000000D02*
X68195300Y-19188000D01*
%TO.N,ROMCS_DRV*%
X46606000Y-48745600D02*
X44357600Y-48745600D01*
X72620200Y-29046200D02*
X70304300Y-31362100D01*
X35954800Y-56296600D02*
X35752300Y-56499100D01*
X36806600Y-56296600D02*
X35954800Y-56296600D01*
X70304300Y-31362100D02*
X70304300Y-35611500D01*
X70304300Y-35611500D02*
X65991200Y-39924600D01*
X55427000Y-39924600D02*
X46606000Y-48745600D01*
X65991200Y-39924600D02*
X55427000Y-39924600D01*
X44357600Y-48745600D02*
X36806600Y-56296600D01*
X35752300Y-56499100D02*
X20199100Y-56499100D01*
X72620200Y-20660200D02*
X72620200Y-29046200D01*
X71500000Y-19540000D02*
X72620200Y-20660200D01*
X20199100Y-56499100D02*
X17000000Y-53300000D01*
%TO.N,CLK7FFD*%
X54610000Y-30480000D02*
X56076700Y-30480000D01*
X57413100Y-31816400D02*
X63597400Y-31816400D01*
X56076700Y-30480000D02*
X57413100Y-31816400D01*
%TO.N,ROMCE_N*%
X71500000Y-11012900D02*
X68347600Y-14165300D01*
X68347600Y-14165300D02*
X57118600Y-14165300D01*
X71500000Y-10540000D02*
X71500000Y-11012900D01*
%TO.N,RESET_N*%
X26541700Y-58663300D02*
X29723200Y-58663300D01*
X29723200Y-58663300D02*
X30856500Y-57530000D01*
X30856500Y-57530000D02*
X36465700Y-57530000D01*
X44382100Y-49529000D02*
X46930600Y-49529000D01*
X66561900Y-40467200D02*
X67956400Y-39072700D01*
X46930600Y-49529000D02*
X55992400Y-40467200D01*
X36465700Y-57530000D02*
X36826900Y-57168800D01*
X36826900Y-57084200D02*
X44382100Y-49529000D01*
X25400000Y-59805000D02*
X26541700Y-58663300D01*
X55992400Y-40467200D02*
X66561900Y-40467200D01*
%TO.N,BANK0*%
X53340000Y-21590000D02*
X55375000Y-21590000D01*
X55375000Y-21590000D02*
X57449600Y-19515400D01*
X59690000Y-15240000D02*
X58223300Y-15240000D01*
X46990000Y-27940000D02*
X53340000Y-21590000D01*
X57449600Y-19515400D02*
X57449600Y-16013700D01*
X57449600Y-16013700D02*
X58223300Y-15240000D01*
%TO.N,BANK2*%
X46990000Y-22860000D02*
X50966900Y-22860000D01*
%TO.N,BANK3*%
X52461900Y-29014800D02*
X48456700Y-33020000D01*
X46990000Y-33020000D02*
X48456700Y-33020000D01*
X67310000Y-22860000D02*
X65843300Y-22860000D01*
X65843300Y-22860000D02*
X65843300Y-23776700D01*
X60605200Y-29014800D02*
X52461900Y-29014800D01*
X65843300Y-23776700D02*
X60605200Y-29014800D01*
%TO.N,BANK4*%
X55276500Y-26670000D02*
X51788300Y-26670000D01*
X56923400Y-25023100D02*
X55276500Y-26670000D01*
X60364300Y-21590000D02*
X58975300Y-21590000D01*
X65843300Y-15240000D02*
X65843300Y-16111000D01*
X67310000Y-15240000D02*
X65843300Y-15240000D01*
X58975300Y-21590000D02*
X56923400Y-23641900D01*
X65843300Y-16111000D02*
X60364300Y-21590000D01*
X56923400Y-23641900D02*
X56923400Y-25023100D01*
%TO.N,LED_A*%
X50710200Y-43769000D02*
X50710200Y-44007800D01*
X28347400Y-56107400D02*
X25540000Y-53300000D01*
X36644300Y-55904900D02*
X35792500Y-55904900D01*
X50710200Y-44007800D02*
X46364100Y-48353900D01*
X46364100Y-48353900D02*
X44195300Y-48353900D01*
X35792500Y-55904900D02*
X35590000Y-56107400D01*
X44195300Y-48353900D02*
X36644300Y-55904900D01*
X35590000Y-56107400D02*
X28347400Y-56107400D01*
%TO.N,RAMDIS_DRV*%
X71500000Y-33500000D02*
X71500000Y-34616700D01*
X72623100Y-36555000D02*
X60812900Y-48365200D01*
X49797700Y-55619300D02*
X40294100Y-55619300D01*
X40294100Y-55619300D02*
X37734000Y-58179400D01*
X18723900Y-56913300D02*
X15110600Y-53300000D01*
X57051800Y-48365200D02*
X49797700Y-55619300D01*
X71500000Y-34616700D02*
X71779200Y-34616700D01*
X36210200Y-56913300D02*
X18723900Y-56913300D01*
X72623100Y-35460600D02*
X72623100Y-36555000D01*
X71779200Y-34616700D02*
X72623100Y-35460600D01*
X60812900Y-48365200D02*
X57051800Y-48365200D01*
X15110600Y-53300000D02*
X13540000Y-53300000D01*
%TO.N,RAMDIS*%
X66993200Y-40908100D02*
X71500000Y-36401300D01*
X44544400Y-49920700D02*
X47092900Y-49920700D01*
X34903300Y-57921700D02*
X36628000Y-57921700D01*
X71500000Y-36401300D02*
X71500000Y-36040000D01*
X56105500Y-40908100D02*
X66993200Y-40908100D01*
X47092900Y-49920700D02*
X56105500Y-40908100D01*
X37218600Y-57246500D02*
X44544400Y-49920700D01*
X36628000Y-57921700D02*
X37218600Y-57331100D01*
X33020000Y-59805000D02*
X34903300Y-57921700D01*
%TO.N,MREQ_N*%
X39457300Y-59365400D02*
X40978500Y-57844200D01*
X39457300Y-61160600D02*
X39457300Y-59365400D01*
X40978500Y-57844200D02*
X47306400Y-57844200D01*
%TO.N,ZX512*%
X9585900Y-39569100D02*
X7227900Y-41927100D01*
X64703600Y-31619700D02*
X62230000Y-34093300D01*
X66464800Y-29250800D02*
X64703600Y-31012000D01*
X40727600Y-37373900D02*
X29717500Y-37373900D01*
X6470800Y-54369200D02*
X7540000Y-53300000D01*
X70383300Y-26837500D02*
X67970000Y-29250800D01*
X2914100Y-44673400D02*
X2914100Y-52744300D01*
X64703600Y-31012000D02*
X64703600Y-31619700D01*
X48339600Y-36630600D02*
X41470900Y-36630600D01*
X27917900Y-39173500D02*
X23639700Y-39173500D01*
X67970000Y-29250800D02*
X66464800Y-29250800D01*
X71500000Y-26000000D02*
X70383300Y-26000000D01*
X50876900Y-34093300D02*
X48339600Y-36630600D01*
X49756700Y-11400000D02*
X60693400Y-11400000D01*
X41470900Y-36630600D02*
X40727600Y-37373900D01*
X23639700Y-39173500D02*
X23244100Y-39569100D01*
X5660400Y-41927100D02*
X2914100Y-44673400D01*
X29717500Y-37373900D02*
X27917900Y-39173500D01*
X4539000Y-54369200D02*
X6470800Y-54369200D01*
X23244100Y-39569100D02*
X9585900Y-39569100D01*
X2914100Y-52744300D02*
X4539000Y-54369200D01*
X62230000Y-34093300D02*
X50876900Y-34093300D01*
X48456700Y-12700000D02*
X49756700Y-11400000D01*
X46990000Y-12700000D02*
X48456700Y-12700000D01*
X70383300Y-26000000D02*
X70383300Y-26837500D01*
X7227900Y-41927100D02*
X5660400Y-41927100D01*
%TO.N,A15*%
X67310000Y-60155000D02*
X67310000Y-59409900D01*
X69292400Y-62135300D02*
X68548100Y-61391000D01*
X65066300Y-57166200D02*
X61751300Y-57166200D01*
X68546000Y-61391000D02*
X67310000Y-60155000D01*
X67310000Y-59409900D02*
X65066300Y-57166200D01*
X71140300Y-62135300D02*
X69292400Y-62135300D01*
X73660000Y-64655000D02*
X71140300Y-62135300D01*
%TO.N,A14*%
X63653300Y-50654600D02*
X58026600Y-50654600D01*
X72518300Y-59805000D02*
X72518300Y-59519600D01*
X72518300Y-59519600D02*
X63653300Y-50654600D01*
X73660000Y-59805000D02*
X72518300Y-59805000D01*
%TO.N,IORQ_N*%
X34289900Y-63385100D02*
X34289900Y-59441500D01*
X43156200Y-52022100D02*
X43383600Y-52022100D01*
X36760400Y-58417900D02*
X43156200Y-52022100D01*
X34289900Y-59441500D02*
X35313500Y-58417900D01*
X33020000Y-64655000D02*
X34289900Y-63385100D01*
X35313500Y-58417900D02*
X36760400Y-58417900D01*
%TO.N,BUS_P07*%
X55336400Y-57275400D02*
X56536800Y-58475800D01*
X42603400Y-57229000D02*
X55336400Y-57229000D01*
X30350000Y-53300000D02*
X30350000Y-53686700D01*
X56976200Y-58361100D02*
X58420000Y-59805000D01*
X39601500Y-57227500D02*
X42601900Y-57227500D01*
X56861500Y-58475800D02*
X56976200Y-58361100D01*
X31227800Y-54564500D02*
X36021600Y-54564500D01*
X30350000Y-53686700D02*
X31227800Y-54564500D01*
X56536800Y-58475800D02*
X56861500Y-58475800D01*
%TO.N,BUS_P15*%
X36350000Y-53300000D02*
X36638300Y-53588300D01*
X35985000Y-55490600D02*
X35185900Y-55490600D01*
X36638300Y-54837300D02*
X35985000Y-55490600D01*
X36638300Y-53588300D02*
X36638300Y-54837300D01*
%TD*%
%TA.AperFunction,Conductor*%
%TO.N,GND*%
G36*
X62329099Y-59228620D02*
G01*
X62368511Y-59255159D01*
X63832351Y-60718998D01*
X65295313Y-62181960D01*
X65295315Y-62181963D01*
X65374537Y-62261185D01*
X65440965Y-62299537D01*
X65471563Y-62317203D01*
X65579781Y-62346200D01*
X65579782Y-62346200D01*
X68158090Y-62346200D01*
X68225129Y-62365885D01*
X68245771Y-62382519D01*
X69288358Y-63425106D01*
X69321843Y-63486429D01*
X69316859Y-63556121D01*
X69274987Y-63612054D01*
X69209523Y-63636471D01*
X69144382Y-63623272D01*
X69031235Y-63565621D01*
X69031232Y-63565619D01*
X68855265Y-63508445D01*
X68763889Y-63493972D01*
X68672514Y-63479500D01*
X68487486Y-63479500D01*
X68426569Y-63489148D01*
X68304734Y-63508445D01*
X68128767Y-63565619D01*
X68128764Y-63565620D01*
X67963903Y-63649622D01*
X67892405Y-63701569D01*
X67814213Y-63758379D01*
X67814211Y-63758381D01*
X67814210Y-63758381D01*
X67683381Y-63889210D01*
X67683381Y-63889211D01*
X67683379Y-63889213D01*
X67642953Y-63944854D01*
X67574622Y-64038903D01*
X67490620Y-64203764D01*
X67490619Y-64203767D01*
X67433445Y-64379734D01*
X67432473Y-64385872D01*
X67402544Y-64449007D01*
X67343232Y-64485938D01*
X67273370Y-64484940D01*
X67215137Y-64446330D01*
X67187527Y-64385872D01*
X67187356Y-64384798D01*
X67186555Y-64379736D01*
X67129379Y-64203765D01*
X67129379Y-64203764D01*
X67071727Y-64090617D01*
X67045378Y-64038904D01*
X66936621Y-63889213D01*
X66805787Y-63758379D01*
X66656096Y-63649622D01*
X66629695Y-63636170D01*
X66491235Y-63565620D01*
X66491232Y-63565619D01*
X66315265Y-63508445D01*
X66223889Y-63493972D01*
X66132514Y-63479500D01*
X65947486Y-63479500D01*
X65886569Y-63489148D01*
X65764734Y-63508445D01*
X65588767Y-63565619D01*
X65588764Y-63565620D01*
X65423903Y-63649622D01*
X65352405Y-63701569D01*
X65274213Y-63758379D01*
X65274211Y-63758381D01*
X65274210Y-63758381D01*
X65143381Y-63889210D01*
X65143381Y-63889211D01*
X65143379Y-63889213D01*
X65102953Y-63944854D01*
X65034622Y-64038903D01*
X64950620Y-64203764D01*
X64950619Y-64203767D01*
X64893445Y-64379734D01*
X64864500Y-64562486D01*
X64864500Y-64747513D01*
X64893445Y-64930265D01*
X64950619Y-65106232D01*
X64950620Y-65106235D01*
X65034622Y-65271096D01*
X65143379Y-65420787D01*
X65143381Y-65420789D01*
X65250411Y-65527819D01*
X65283896Y-65589142D01*
X65278912Y-65658834D01*
X65237040Y-65714767D01*
X65171576Y-65739184D01*
X65162730Y-65739500D01*
X61837270Y-65739500D01*
X61770231Y-65719815D01*
X61724476Y-65667011D01*
X61714532Y-65597853D01*
X61743557Y-65534297D01*
X61749589Y-65527819D01*
X61856621Y-65420787D01*
X61965378Y-65271096D01*
X62049379Y-65106235D01*
X62106555Y-64930264D01*
X62135500Y-64747514D01*
X62135500Y-64562486D01*
X62106555Y-64379736D01*
X62049379Y-64203765D01*
X62049379Y-64203764D01*
X61991727Y-64090617D01*
X61965378Y-64038904D01*
X61856621Y-63889213D01*
X61725787Y-63758379D01*
X61576096Y-63649622D01*
X61549695Y-63636170D01*
X61411235Y-63565620D01*
X61411232Y-63565619D01*
X61235265Y-63508445D01*
X61143889Y-63493972D01*
X61052514Y-63479500D01*
X60867486Y-63479500D01*
X60806569Y-63489148D01*
X60684734Y-63508445D01*
X60508767Y-63565619D01*
X60508764Y-63565620D01*
X60343903Y-63649622D01*
X60272405Y-63701569D01*
X60194213Y-63758379D01*
X60194211Y-63758381D01*
X60194210Y-63758381D01*
X60063381Y-63889210D01*
X60063381Y-63889211D01*
X60063379Y-63889213D01*
X60022953Y-63944854D01*
X59954622Y-64038903D01*
X59870620Y-64203764D01*
X59870619Y-64203767D01*
X59813445Y-64379734D01*
X59812473Y-64385872D01*
X59782544Y-64449007D01*
X59723232Y-64485938D01*
X59653370Y-64484940D01*
X59595137Y-64446330D01*
X59567527Y-64385872D01*
X59567356Y-64384798D01*
X59566555Y-64379736D01*
X59509379Y-64203765D01*
X59509379Y-64203764D01*
X59451727Y-64090617D01*
X59425378Y-64038904D01*
X59316621Y-63889213D01*
X59185787Y-63758379D01*
X59036096Y-63649622D01*
X59009695Y-63636170D01*
X58871235Y-63565620D01*
X58871232Y-63565619D01*
X58695265Y-63508445D01*
X58603889Y-63493972D01*
X58512514Y-63479500D01*
X58327486Y-63479500D01*
X58266569Y-63489148D01*
X58144734Y-63508445D01*
X57968767Y-63565619D01*
X57968764Y-63565620D01*
X57803903Y-63649622D01*
X57732405Y-63701569D01*
X57654213Y-63758379D01*
X57654211Y-63758381D01*
X57654210Y-63758381D01*
X57523381Y-63889210D01*
X57523381Y-63889211D01*
X57523379Y-63889213D01*
X57482953Y-63944854D01*
X57414622Y-64038903D01*
X57330620Y-64203764D01*
X57330619Y-64203767D01*
X57273445Y-64379734D01*
X57272473Y-64385872D01*
X57242544Y-64449007D01*
X57183232Y-64485938D01*
X57113370Y-64484940D01*
X57055137Y-64446330D01*
X57027527Y-64385872D01*
X57027356Y-64384798D01*
X57026555Y-64379736D01*
X56969379Y-64203765D01*
X56969379Y-64203764D01*
X56911727Y-64090617D01*
X56885378Y-64038904D01*
X56776621Y-63889213D01*
X56645787Y-63758379D01*
X56496096Y-63649622D01*
X56469695Y-63636170D01*
X56331235Y-63565620D01*
X56331232Y-63565619D01*
X56155265Y-63508445D01*
X56063889Y-63493972D01*
X55972514Y-63479500D01*
X55787486Y-63479500D01*
X55726569Y-63489148D01*
X55604734Y-63508445D01*
X55428767Y-63565619D01*
X55428759Y-63565623D01*
X55315612Y-63623274D01*
X55246943Y-63636170D01*
X55182203Y-63609893D01*
X55141946Y-63552787D01*
X55138954Y-63482981D01*
X55171635Y-63425110D01*
X55673746Y-62922999D01*
X55716646Y-62897295D01*
X55715916Y-62895532D01*
X55728313Y-62890397D01*
X55839927Y-62844165D01*
X55946469Y-62772976D01*
X56037076Y-62682369D01*
X56108265Y-62575827D01*
X56157301Y-62457444D01*
X56175514Y-62365885D01*
X56182300Y-62331771D01*
X56182300Y-62203628D01*
X56157302Y-62077961D01*
X56157301Y-62077960D01*
X56157301Y-62077956D01*
X56108265Y-61959573D01*
X56108264Y-61959572D01*
X56108261Y-61959566D01*
X56037076Y-61853031D01*
X56037073Y-61853027D01*
X55946472Y-61762426D01*
X55946468Y-61762423D01*
X55839933Y-61691238D01*
X55839924Y-61691233D01*
X55721544Y-61642199D01*
X55721538Y-61642197D01*
X55595871Y-61617200D01*
X55595869Y-61617200D01*
X55467731Y-61617200D01*
X55467729Y-61617200D01*
X55342061Y-61642197D01*
X55342055Y-61642199D01*
X55223675Y-61691233D01*
X55223666Y-61691238D01*
X55117131Y-61762423D01*
X55117127Y-61762426D01*
X55026526Y-61853027D01*
X55026523Y-61853031D01*
X54955338Y-61959566D01*
X54955333Y-61959575D01*
X54906299Y-62077955D01*
X54906297Y-62077961D01*
X54881300Y-62203628D01*
X54881300Y-62331773D01*
X54898263Y-62417052D01*
X54892036Y-62486644D01*
X54864327Y-62528924D01*
X53872436Y-63520815D01*
X53811113Y-63554300D01*
X53746437Y-63551065D01*
X53615265Y-63508445D01*
X53523889Y-63493972D01*
X53432514Y-63479500D01*
X53247486Y-63479500D01*
X53186569Y-63489148D01*
X53064734Y-63508445D01*
X52888767Y-63565619D01*
X52888764Y-63565620D01*
X52723903Y-63649622D01*
X52652405Y-63701569D01*
X52574213Y-63758379D01*
X52574211Y-63758381D01*
X52574210Y-63758381D01*
X52443381Y-63889210D01*
X52443381Y-63889211D01*
X52443379Y-63889213D01*
X52402953Y-63944854D01*
X52334622Y-64038903D01*
X52250620Y-64203764D01*
X52250619Y-64203767D01*
X52193445Y-64379734D01*
X52192473Y-64385872D01*
X52162544Y-64449007D01*
X52103232Y-64485938D01*
X52033370Y-64484940D01*
X51975137Y-64446330D01*
X51947527Y-64385872D01*
X51947356Y-64384798D01*
X51946555Y-64379736D01*
X51889379Y-64203765D01*
X51889379Y-64203764D01*
X51831727Y-64090617D01*
X51805378Y-64038904D01*
X51696621Y-63889213D01*
X51565787Y-63758379D01*
X51416096Y-63649622D01*
X51389695Y-63636170D01*
X51251235Y-63565620D01*
X51251232Y-63565619D01*
X51075265Y-63508445D01*
X50983889Y-63493972D01*
X50892514Y-63479500D01*
X50707486Y-63479500D01*
X50646569Y-63489148D01*
X50524734Y-63508445D01*
X50348767Y-63565619D01*
X50348764Y-63565620D01*
X50183903Y-63649622D01*
X50112405Y-63701569D01*
X50034213Y-63758379D01*
X50034211Y-63758381D01*
X50034210Y-63758381D01*
X49903381Y-63889210D01*
X49903381Y-63889211D01*
X49903379Y-63889213D01*
X49862953Y-63944854D01*
X49794622Y-64038903D01*
X49710620Y-64203764D01*
X49710619Y-64203767D01*
X49653445Y-64379734D01*
X49652473Y-64385872D01*
X49622544Y-64449007D01*
X49563232Y-64485938D01*
X49493370Y-64484940D01*
X49435137Y-64446330D01*
X49407527Y-64385872D01*
X49407356Y-64384798D01*
X49406555Y-64379736D01*
X49349379Y-64203765D01*
X49349379Y-64203764D01*
X49291727Y-64090617D01*
X49265378Y-64038904D01*
X49156621Y-63889213D01*
X49025787Y-63758379D01*
X48876096Y-63649622D01*
X48849695Y-63636170D01*
X48711235Y-63565620D01*
X48711232Y-63565619D01*
X48535265Y-63508445D01*
X48443889Y-63493972D01*
X48352514Y-63479500D01*
X48167486Y-63479500D01*
X48106569Y-63489148D01*
X47984734Y-63508445D01*
X47853562Y-63551065D01*
X47783720Y-63553060D01*
X47727563Y-63520815D01*
X47379565Y-63172817D01*
X47379563Y-63172815D01*
X47282537Y-63116797D01*
X47174318Y-63087800D01*
X47174317Y-63087800D01*
X40414110Y-63087800D01*
X40347071Y-63068115D01*
X40326429Y-63051481D01*
X39297540Y-62022592D01*
X39264055Y-61961269D01*
X39269039Y-61891577D01*
X39310911Y-61835644D01*
X39376375Y-61811227D01*
X39387139Y-61811371D01*
X39387139Y-61811100D01*
X39521371Y-61811100D01*
X39605915Y-61794282D01*
X39647044Y-61786101D01*
X39765427Y-61737065D01*
X39871969Y-61665876D01*
X39962576Y-61575269D01*
X40033765Y-61468727D01*
X40082801Y-61350344D01*
X40090982Y-61309215D01*
X40107800Y-61224671D01*
X40107800Y-61143363D01*
X40127485Y-61076324D01*
X40180289Y-61030569D01*
X40249447Y-61020625D01*
X40270119Y-61025432D01*
X40341442Y-61048606D01*
X40539650Y-61080000D01*
X40740350Y-61080000D01*
X40938559Y-61048606D01*
X41129432Y-60986587D01*
X41308246Y-60895477D01*
X41348022Y-60866576D01*
X40777574Y-60296128D01*
X40836853Y-60280245D01*
X40953147Y-60213102D01*
X41048102Y-60118147D01*
X41115245Y-60001853D01*
X41131128Y-59942574D01*
X41701576Y-60513022D01*
X41730477Y-60473246D01*
X41821588Y-60294431D01*
X41844378Y-60224290D01*
X41883814Y-60166614D01*
X41948173Y-60139415D01*
X42017019Y-60151329D01*
X42068496Y-60198573D01*
X42080239Y-60224287D01*
X42090617Y-60256227D01*
X42090620Y-60256235D01*
X42162382Y-60397073D01*
X42174622Y-60421096D01*
X42283379Y-60570787D01*
X42414213Y-60701621D01*
X42563904Y-60810378D01*
X42619829Y-60838873D01*
X42728764Y-60894379D01*
X42728767Y-60894380D01*
X42813879Y-60922034D01*
X42904736Y-60951555D01*
X43087486Y-60980500D01*
X43087487Y-60980500D01*
X43272513Y-60980500D01*
X43272514Y-60980500D01*
X43455264Y-60951555D01*
X43631235Y-60894379D01*
X43796096Y-60810378D01*
X43945787Y-60701621D01*
X44076621Y-60570787D01*
X44185378Y-60421096D01*
X44269379Y-60256235D01*
X44326555Y-60080264D01*
X44327527Y-60074126D01*
X44357455Y-60010994D01*
X44416766Y-59974062D01*
X44486629Y-59975058D01*
X44544862Y-60013667D01*
X44572472Y-60074126D01*
X44573445Y-60080264D01*
X44573446Y-60080269D01*
X44630619Y-60256232D01*
X44630620Y-60256235D01*
X44702382Y-60397073D01*
X44714622Y-60421096D01*
X44823379Y-60570787D01*
X44954213Y-60701621D01*
X45103904Y-60810378D01*
X45159829Y-60838873D01*
X45268764Y-60894379D01*
X45268767Y-60894380D01*
X45353879Y-60922034D01*
X45444736Y-60951555D01*
X45627486Y-60980500D01*
X45627487Y-60980500D01*
X45812513Y-60980500D01*
X45812514Y-60980500D01*
X45995264Y-60951555D01*
X46171235Y-60894379D01*
X46336096Y-60810378D01*
X46485787Y-60701621D01*
X46616621Y-60570787D01*
X46725378Y-60421096D01*
X46809379Y-60256235D01*
X46866555Y-60080264D01*
X46867527Y-60074126D01*
X46897455Y-60010994D01*
X46956766Y-59974062D01*
X47026629Y-59975058D01*
X47084862Y-60013667D01*
X47112472Y-60074126D01*
X47113445Y-60080264D01*
X47113446Y-60080269D01*
X47170619Y-60256232D01*
X47170620Y-60256235D01*
X47242382Y-60397073D01*
X47254622Y-60421096D01*
X47363379Y-60570787D01*
X47494213Y-60701621D01*
X47643904Y-60810378D01*
X47699829Y-60838873D01*
X47808764Y-60894379D01*
X47808767Y-60894380D01*
X47893879Y-60922034D01*
X47984736Y-60951555D01*
X48167486Y-60980500D01*
X48167487Y-60980500D01*
X48352513Y-60980500D01*
X48352514Y-60980500D01*
X48535264Y-60951555D01*
X48711235Y-60894379D01*
X48876096Y-60810378D01*
X49025787Y-60701621D01*
X49156621Y-60570787D01*
X49265378Y-60421096D01*
X49349379Y-60256235D01*
X49406555Y-60080264D01*
X49407527Y-60074126D01*
X49437455Y-60010994D01*
X49496766Y-59974062D01*
X49566629Y-59975058D01*
X49624862Y-60013667D01*
X49652472Y-60074126D01*
X49653445Y-60080264D01*
X49653446Y-60080269D01*
X49710619Y-60256232D01*
X49710620Y-60256235D01*
X49782382Y-60397073D01*
X49794622Y-60421096D01*
X49903379Y-60570787D01*
X50034213Y-60701621D01*
X50183904Y-60810378D01*
X50239829Y-60838873D01*
X50348764Y-60894379D01*
X50348767Y-60894380D01*
X50433879Y-60922034D01*
X50524736Y-60951555D01*
X50707486Y-60980500D01*
X50707487Y-60980500D01*
X50892513Y-60980500D01*
X50892514Y-60980500D01*
X51075264Y-60951555D01*
X51251235Y-60894379D01*
X51416096Y-60810378D01*
X51565787Y-60701621D01*
X51696621Y-60570787D01*
X51805378Y-60421096D01*
X51889379Y-60256235D01*
X51946555Y-60080264D01*
X51947527Y-60074126D01*
X51977455Y-60010994D01*
X52036766Y-59974062D01*
X52106629Y-59975058D01*
X52164862Y-60013667D01*
X52192472Y-60074126D01*
X52193445Y-60080264D01*
X52193446Y-60080269D01*
X52250619Y-60256232D01*
X52250620Y-60256235D01*
X52322382Y-60397073D01*
X52334622Y-60421096D01*
X52443379Y-60570787D01*
X52574213Y-60701621D01*
X52723904Y-60810378D01*
X52779829Y-60838873D01*
X52888764Y-60894379D01*
X52888767Y-60894380D01*
X52973879Y-60922034D01*
X53064736Y-60951555D01*
X53247486Y-60980500D01*
X53247487Y-60980500D01*
X53432513Y-60980500D01*
X53432514Y-60980500D01*
X53615264Y-60951555D01*
X53791235Y-60894379D01*
X53956096Y-60810378D01*
X54105787Y-60701621D01*
X54236621Y-60570787D01*
X54345378Y-60421096D01*
X54429379Y-60256235D01*
X54486555Y-60080264D01*
X54487527Y-60074126D01*
X54517455Y-60010994D01*
X54576766Y-59974062D01*
X54646629Y-59975058D01*
X54704862Y-60013667D01*
X54732472Y-60074126D01*
X54733445Y-60080264D01*
X54733446Y-60080269D01*
X54790619Y-60256232D01*
X54790620Y-60256235D01*
X54862382Y-60397073D01*
X54874622Y-60421096D01*
X54983379Y-60570787D01*
X55114213Y-60701621D01*
X55263904Y-60810378D01*
X55319829Y-60838873D01*
X55428764Y-60894379D01*
X55428767Y-60894380D01*
X55513879Y-60922034D01*
X55604736Y-60951555D01*
X55787486Y-60980500D01*
X55787487Y-60980500D01*
X55972513Y-60980500D01*
X55972514Y-60980500D01*
X56155264Y-60951555D01*
X56331235Y-60894379D01*
X56496096Y-60810378D01*
X56645787Y-60701621D01*
X56776621Y-60570787D01*
X56885378Y-60421096D01*
X56969379Y-60256235D01*
X57026555Y-60080264D01*
X57027527Y-60074126D01*
X57057455Y-60010994D01*
X57116766Y-59974062D01*
X57186629Y-59975058D01*
X57244862Y-60013667D01*
X57272472Y-60074126D01*
X57273445Y-60080264D01*
X57273446Y-60080269D01*
X57330619Y-60256232D01*
X57330620Y-60256235D01*
X57402382Y-60397073D01*
X57414622Y-60421096D01*
X57523379Y-60570787D01*
X57654213Y-60701621D01*
X57803904Y-60810378D01*
X57859829Y-60838873D01*
X57968764Y-60894379D01*
X57968767Y-60894380D01*
X58053879Y-60922034D01*
X58144736Y-60951555D01*
X58327486Y-60980500D01*
X58327487Y-60980500D01*
X58512513Y-60980500D01*
X58512514Y-60980500D01*
X58695264Y-60951555D01*
X58871235Y-60894379D01*
X59036096Y-60810378D01*
X59185787Y-60701621D01*
X59316621Y-60570787D01*
X59425378Y-60421096D01*
X59509379Y-60256235D01*
X59517741Y-60230500D01*
X59519759Y-60224290D01*
X59559196Y-60166614D01*
X59623554Y-60139415D01*
X59692401Y-60151329D01*
X59743877Y-60198573D01*
X59755621Y-60224289D01*
X59778412Y-60294432D01*
X59869522Y-60473246D01*
X59898422Y-60513022D01*
X59898423Y-60513023D01*
X60468871Y-59942574D01*
X60484755Y-60001853D01*
X60551898Y-60118147D01*
X60646853Y-60213102D01*
X60763147Y-60280245D01*
X60822425Y-60296128D01*
X60251975Y-60866576D01*
X60291754Y-60895478D01*
X60470567Y-60986587D01*
X60661440Y-61048606D01*
X60859650Y-61080000D01*
X61060350Y-61080000D01*
X61258559Y-61048606D01*
X61449432Y-60986587D01*
X61628246Y-60895477D01*
X61668022Y-60866576D01*
X61097574Y-60296128D01*
X61156853Y-60280245D01*
X61273147Y-60213102D01*
X61368102Y-60118147D01*
X61435245Y-60001853D01*
X61451128Y-59942574D01*
X62021576Y-60513022D01*
X62050477Y-60473246D01*
X62141587Y-60294432D01*
X62203606Y-60103559D01*
X62235000Y-59905350D01*
X62235000Y-59704649D01*
X62203606Y-59506442D01*
X62162899Y-59381159D01*
X62160904Y-59311318D01*
X62196984Y-59251485D01*
X62259684Y-59220656D01*
X62329099Y-59228620D01*
G37*
%TD.AperFunction*%
%TA.AperFunction,Conductor*%
G36*
X60529084Y-58391485D02*
G01*
X60574839Y-58444289D01*
X60584783Y-58513447D01*
X60555758Y-58577003D01*
X60500363Y-58613731D01*
X60470567Y-58623412D01*
X60291755Y-58714521D01*
X60251976Y-58743422D01*
X60822425Y-59313871D01*
X60763147Y-59329755D01*
X60646853Y-59396898D01*
X60551898Y-59491853D01*
X60484755Y-59608147D01*
X60468871Y-59667425D01*
X59898422Y-59096976D01*
X59869521Y-59136755D01*
X59778412Y-59315565D01*
X59755621Y-59385711D01*
X59716183Y-59443386D01*
X59651824Y-59470584D01*
X59582978Y-59458669D01*
X59531502Y-59411425D01*
X59519759Y-59385710D01*
X59509380Y-59353767D01*
X59509379Y-59353764D01*
X59451727Y-59240617D01*
X59425378Y-59188904D01*
X59316621Y-59039213D01*
X59185787Y-58908379D01*
X59036096Y-58799622D01*
X59008596Y-58785610D01*
X58871235Y-58715620D01*
X58871232Y-58715619D01*
X58695265Y-58658445D01*
X58603889Y-58643972D01*
X58512514Y-58629500D01*
X58327486Y-58629500D01*
X58309082Y-58632415D01*
X58144732Y-58658445D01*
X58013605Y-58701050D01*
X57943764Y-58703045D01*
X57887604Y-58670797D01*
X57800291Y-58583478D01*
X57766808Y-58522154D01*
X57771795Y-58452462D01*
X57813668Y-58396530D01*
X57879133Y-58372116D01*
X57887975Y-58371800D01*
X60462045Y-58371800D01*
X60529084Y-58391485D01*
G37*
%TD.AperFunction*%
%TA.AperFunction,Conductor*%
G36*
X55129429Y-57674185D02*
G01*
X55150071Y-57690819D01*
X55877071Y-58417819D01*
X55910556Y-58479142D01*
X55905572Y-58548834D01*
X55863700Y-58604767D01*
X55798236Y-58629184D01*
X55789390Y-58629500D01*
X55787486Y-58629500D01*
X55734666Y-58637866D01*
X55604734Y-58658445D01*
X55428767Y-58715619D01*
X55428764Y-58715620D01*
X55263903Y-58799622D01*
X55180784Y-58860012D01*
X55114213Y-58908379D01*
X55114211Y-58908381D01*
X55114210Y-58908381D01*
X54983381Y-59039210D01*
X54983381Y-59039211D01*
X54983379Y-59039213D01*
X54942953Y-59094854D01*
X54874622Y-59188903D01*
X54790620Y-59353764D01*
X54790619Y-59353767D01*
X54733445Y-59529734D01*
X54732473Y-59535872D01*
X54702544Y-59599007D01*
X54643232Y-59635938D01*
X54573370Y-59634940D01*
X54515137Y-59596330D01*
X54487527Y-59535872D01*
X54487356Y-59534798D01*
X54486555Y-59529736D01*
X54442624Y-59394528D01*
X54429380Y-59353767D01*
X54429379Y-59353764D01*
X54371727Y-59240617D01*
X54345378Y-59188904D01*
X54236621Y-59039213D01*
X54105787Y-58908379D01*
X53956096Y-58799622D01*
X53928596Y-58785610D01*
X53791235Y-58715620D01*
X53791232Y-58715619D01*
X53615265Y-58658445D01*
X53523889Y-58643972D01*
X53432514Y-58629500D01*
X53247486Y-58629500D01*
X53194666Y-58637866D01*
X53064734Y-58658445D01*
X52888767Y-58715619D01*
X52888764Y-58715620D01*
X52723903Y-58799622D01*
X52640784Y-58860012D01*
X52574213Y-58908379D01*
X52574211Y-58908381D01*
X52574210Y-58908381D01*
X52443381Y-59039210D01*
X52443381Y-59039211D01*
X52443379Y-59039213D01*
X52402953Y-59094854D01*
X52334622Y-59188903D01*
X52250620Y-59353764D01*
X52250619Y-59353767D01*
X52193445Y-59529734D01*
X52192473Y-59535872D01*
X52162544Y-59599007D01*
X52103232Y-59635938D01*
X52033370Y-59634940D01*
X51975137Y-59596330D01*
X51947527Y-59535872D01*
X51947356Y-59534798D01*
X51946555Y-59529736D01*
X51902624Y-59394528D01*
X51889380Y-59353767D01*
X51889379Y-59353764D01*
X51831727Y-59240617D01*
X51805378Y-59188904D01*
X51696621Y-59039213D01*
X51565787Y-58908379D01*
X51416096Y-58799622D01*
X51388596Y-58785610D01*
X51251235Y-58715620D01*
X51251232Y-58715619D01*
X51075265Y-58658445D01*
X50983889Y-58643972D01*
X50892514Y-58629500D01*
X50707486Y-58629500D01*
X50654666Y-58637866D01*
X50524734Y-58658445D01*
X50348767Y-58715619D01*
X50348764Y-58715620D01*
X50183903Y-58799622D01*
X50100784Y-58860012D01*
X50034213Y-58908379D01*
X50034211Y-58908381D01*
X50034210Y-58908381D01*
X49903381Y-59039210D01*
X49903381Y-59039211D01*
X49903379Y-59039213D01*
X49862953Y-59094854D01*
X49794622Y-59188903D01*
X49710620Y-59353764D01*
X49710619Y-59353767D01*
X49653445Y-59529734D01*
X49652473Y-59535872D01*
X49622544Y-59599007D01*
X49563232Y-59635938D01*
X49493370Y-59634940D01*
X49435137Y-59596330D01*
X49407527Y-59535872D01*
X49407356Y-59534798D01*
X49406555Y-59529736D01*
X49362624Y-59394528D01*
X49349380Y-59353767D01*
X49349379Y-59353764D01*
X49291727Y-59240617D01*
X49265378Y-59188904D01*
X49156621Y-59039213D01*
X49025787Y-58908379D01*
X48876096Y-58799622D01*
X48848596Y-58785610D01*
X48711235Y-58715620D01*
X48711232Y-58715619D01*
X48535265Y-58658445D01*
X48443889Y-58643972D01*
X48352514Y-58629500D01*
X48167486Y-58629500D01*
X48114666Y-58637866D01*
X47984734Y-58658445D01*
X47808767Y-58715619D01*
X47808764Y-58715620D01*
X47643903Y-58799622D01*
X47560784Y-58860012D01*
X47494213Y-58908379D01*
X47494211Y-58908381D01*
X47494210Y-58908381D01*
X47363381Y-59039210D01*
X47363381Y-59039211D01*
X47363379Y-59039213D01*
X47322953Y-59094854D01*
X47254622Y-59188903D01*
X47170620Y-59353764D01*
X47170619Y-59353767D01*
X47113445Y-59529734D01*
X47112473Y-59535872D01*
X47082544Y-59599007D01*
X47023232Y-59635938D01*
X46953370Y-59634940D01*
X46895137Y-59596330D01*
X46867527Y-59535872D01*
X46867356Y-59534798D01*
X46866555Y-59529736D01*
X46822624Y-59394528D01*
X46809380Y-59353767D01*
X46809379Y-59353764D01*
X46751727Y-59240617D01*
X46725378Y-59188904D01*
X46616621Y-59039213D01*
X46485787Y-58908379D01*
X46336096Y-58799622D01*
X46308596Y-58785610D01*
X46171235Y-58715620D01*
X46171232Y-58715619D01*
X45995265Y-58658445D01*
X45903889Y-58643972D01*
X45812514Y-58629500D01*
X45627486Y-58629500D01*
X45574666Y-58637866D01*
X45444734Y-58658445D01*
X45268767Y-58715619D01*
X45268764Y-58715620D01*
X45103903Y-58799622D01*
X45020784Y-58860012D01*
X44954213Y-58908379D01*
X44954211Y-58908381D01*
X44954210Y-58908381D01*
X44823381Y-59039210D01*
X44823381Y-59039211D01*
X44823379Y-59039213D01*
X44782953Y-59094854D01*
X44714622Y-59188903D01*
X44630620Y-59353764D01*
X44630619Y-59353767D01*
X44573445Y-59529734D01*
X44572473Y-59535872D01*
X44542544Y-59599007D01*
X44483232Y-59635938D01*
X44413370Y-59634940D01*
X44355137Y-59596330D01*
X44327527Y-59535872D01*
X44327356Y-59534798D01*
X44326555Y-59529736D01*
X44282624Y-59394528D01*
X44269380Y-59353767D01*
X44269379Y-59353764D01*
X44211727Y-59240617D01*
X44185378Y-59188904D01*
X44076621Y-59039213D01*
X43945787Y-58908379D01*
X43796096Y-58799622D01*
X43768596Y-58785610D01*
X43631235Y-58715620D01*
X43631232Y-58715619D01*
X43455265Y-58658445D01*
X43363889Y-58643972D01*
X43272514Y-58629500D01*
X43087486Y-58629500D01*
X43034666Y-58637866D01*
X42904734Y-58658445D01*
X42728767Y-58715619D01*
X42728764Y-58715620D01*
X42563903Y-58799622D01*
X42480784Y-58860012D01*
X42414213Y-58908379D01*
X42414211Y-58908381D01*
X42414210Y-58908381D01*
X42283381Y-59039210D01*
X42283381Y-59039211D01*
X42283379Y-59039213D01*
X42242953Y-59094854D01*
X42174622Y-59188903D01*
X42090620Y-59353764D01*
X42090619Y-59353769D01*
X42080239Y-59385713D01*
X42040800Y-59443388D01*
X41976441Y-59470584D01*
X41907595Y-59458668D01*
X41856120Y-59411422D01*
X41844378Y-59385709D01*
X41821588Y-59315569D01*
X41730478Y-59136754D01*
X41701576Y-59096976D01*
X41701576Y-59096975D01*
X41131128Y-59667424D01*
X41115245Y-59608147D01*
X41048102Y-59491853D01*
X40953147Y-59396898D01*
X40836853Y-59329755D01*
X40777574Y-59313871D01*
X41348023Y-58743422D01*
X41308246Y-58714522D01*
X41129434Y-58623413D01*
X41074015Y-58605406D01*
X41071744Y-58603853D01*
X41069000Y-58603657D01*
X41043070Y-58584245D01*
X41016340Y-58565968D01*
X41015269Y-58563434D01*
X41013066Y-58561785D01*
X41001749Y-58531442D01*
X40989142Y-58501610D01*
X40989611Y-58498897D01*
X40988650Y-58496320D01*
X40995534Y-58464673D01*
X41001057Y-58432763D01*
X41003096Y-58429913D01*
X41003502Y-58428048D01*
X41024647Y-58399800D01*
X41118431Y-58306016D01*
X41179753Y-58272534D01*
X41206110Y-58269700D01*
X46758993Y-58269700D01*
X46826032Y-58289385D01*
X46846675Y-58306020D01*
X46891727Y-58351073D01*
X46891731Y-58351076D01*
X46998266Y-58422261D01*
X46998272Y-58422264D01*
X46998273Y-58422265D01*
X47116656Y-58471301D01*
X47116660Y-58471301D01*
X47116661Y-58471302D01*
X47242328Y-58496300D01*
X47242331Y-58496300D01*
X47370471Y-58496300D01*
X47456726Y-58479142D01*
X47496144Y-58471301D01*
X47614527Y-58422265D01*
X47721069Y-58351076D01*
X47811676Y-58260469D01*
X47882865Y-58153927D01*
X47931901Y-58035544D01*
X47940599Y-57991819D01*
X47956900Y-57909871D01*
X47956900Y-57778500D01*
X47976585Y-57711461D01*
X48029389Y-57665706D01*
X48080900Y-57654500D01*
X55062390Y-57654500D01*
X55129429Y-57674185D01*
G37*
%TD.AperFunction*%
%TA.AperFunction,Conductor*%
G36*
X40430299Y-38529787D02*
G01*
X40445505Y-38529136D01*
X40463143Y-38539431D01*
X40482736Y-38545185D01*
X40493632Y-38557229D01*
X40505847Y-38564359D01*
X40526179Y-38593203D01*
X40534843Y-38610205D01*
X40568766Y-38676784D01*
X40568770Y-38676792D01*
X40585352Y-38699614D01*
X40670586Y-38816928D01*
X40670588Y-38816930D01*
X40734277Y-38880619D01*
X40767762Y-38941942D01*
X40762778Y-39011634D01*
X40720906Y-39067567D01*
X40655442Y-39091984D01*
X40646596Y-39092300D01*
X31192707Y-39092300D01*
X31125668Y-39072615D01*
X31105025Y-39055980D01*
X31061572Y-39012526D01*
X31061568Y-39012523D01*
X30955033Y-38941338D01*
X30955024Y-38941333D01*
X30836644Y-38892299D01*
X30836638Y-38892297D01*
X30710971Y-38867300D01*
X30710969Y-38867300D01*
X30582831Y-38867300D01*
X30582829Y-38867300D01*
X30457161Y-38892297D01*
X30457155Y-38892299D01*
X30338775Y-38941333D01*
X30338766Y-38941338D01*
X30232231Y-39012523D01*
X30232227Y-39012526D01*
X30141626Y-39103127D01*
X30141623Y-39103131D01*
X30070438Y-39209666D01*
X30070433Y-39209675D01*
X30021399Y-39328055D01*
X30021397Y-39328061D01*
X29996400Y-39453728D01*
X29996400Y-39453731D01*
X29996400Y-39581869D01*
X29996400Y-39581871D01*
X29996399Y-39581871D01*
X30021397Y-39707538D01*
X30021399Y-39707544D01*
X30070433Y-39825924D01*
X30070438Y-39825933D01*
X30141623Y-39932468D01*
X30141626Y-39932472D01*
X30232227Y-40023073D01*
X30232231Y-40023076D01*
X30338766Y-40094261D01*
X30338772Y-40094264D01*
X30338773Y-40094265D01*
X30457156Y-40143301D01*
X30457160Y-40143301D01*
X30457161Y-40143302D01*
X30582828Y-40168300D01*
X30582831Y-40168300D01*
X30710971Y-40168300D01*
X30819099Y-40146791D01*
X30836644Y-40143301D01*
X30955027Y-40094265D01*
X31061569Y-40023076D01*
X31105025Y-39979620D01*
X31166348Y-39946134D01*
X31192707Y-39943300D01*
X40427517Y-39943300D01*
X40430155Y-39944074D01*
X40432823Y-39943414D01*
X40463480Y-39953860D01*
X40494556Y-39962985D01*
X40496355Y-39965061D01*
X40498959Y-39965949D01*
X40519105Y-39991317D01*
X40540311Y-40015789D01*
X40540702Y-40018510D01*
X40542412Y-40020663D01*
X40545644Y-40052883D01*
X40550255Y-40084947D01*
X40549196Y-40088285D01*
X40549387Y-40090183D01*
X40538004Y-40123589D01*
X40526181Y-40146793D01*
X40478211Y-40197589D01*
X40415697Y-40214500D01*
X40387281Y-40214500D01*
X40279063Y-40243497D01*
X40279061Y-40243498D01*
X40279060Y-40243498D01*
X40182040Y-40299513D01*
X40182034Y-40299517D01*
X37763371Y-42718181D01*
X37702048Y-42751666D01*
X37675690Y-42754500D01*
X23084303Y-42754500D01*
X23017264Y-42734815D01*
X22973819Y-42686795D01*
X22931232Y-42603212D01*
X22931230Y-42603209D01*
X22931229Y-42603207D01*
X22901672Y-42562526D01*
X22829414Y-42463072D01*
X22706928Y-42340586D01*
X22566788Y-42238768D01*
X22412445Y-42160127D01*
X22247701Y-42106598D01*
X22247699Y-42106597D01*
X22247698Y-42106597D01*
X22116271Y-42085781D01*
X22076611Y-42079500D01*
X21103389Y-42079500D01*
X21063728Y-42085781D01*
X20932302Y-42106597D01*
X20767552Y-42160128D01*
X20613211Y-42238768D01*
X20568572Y-42271201D01*
X20473072Y-42340586D01*
X20473070Y-42340588D01*
X20473069Y-42340588D01*
X20350588Y-42463069D01*
X20350588Y-42463070D01*
X20350586Y-42463072D01*
X20306859Y-42523256D01*
X20248768Y-42603211D01*
X20170128Y-42757552D01*
X20116597Y-42922302D01*
X20089500Y-43093389D01*
X20089500Y-43266610D01*
X20109067Y-43390156D01*
X20116598Y-43437701D01*
X20170127Y-43602445D01*
X20248768Y-43756788D01*
X20350586Y-43896928D01*
X20473072Y-44019414D01*
X20613212Y-44121232D01*
X20767555Y-44199873D01*
X20932299Y-44253402D01*
X21103389Y-44280500D01*
X21103390Y-44280500D01*
X22076610Y-44280500D01*
X22076611Y-44280500D01*
X22247701Y-44253402D01*
X22412445Y-44199873D01*
X22566788Y-44121232D01*
X22706928Y-44019414D01*
X22829414Y-43896928D01*
X22931232Y-43756788D01*
X22973819Y-43673204D01*
X23021792Y-43622410D01*
X23084303Y-43605500D01*
X37959316Y-43605500D01*
X37959318Y-43605500D01*
X38067537Y-43576503D01*
X38164563Y-43520485D01*
X40423813Y-41261233D01*
X40485134Y-41227750D01*
X40554826Y-41232734D01*
X40610759Y-41274606D01*
X40611808Y-41276027D01*
X40670586Y-41356928D01*
X40793072Y-41479414D01*
X40933212Y-41581232D01*
X41087555Y-41659873D01*
X41252299Y-41713402D01*
X41423389Y-41740500D01*
X41423390Y-41740500D01*
X42396610Y-41740500D01*
X42396611Y-41740500D01*
X42567701Y-41713402D01*
X42732445Y-41659873D01*
X42886788Y-41581232D01*
X43026928Y-41479414D01*
X43149414Y-41356928D01*
X43251232Y-41216788D01*
X43329873Y-41062445D01*
X43383402Y-40897701D01*
X43410500Y-40726611D01*
X43410500Y-40553389D01*
X43383402Y-40382299D01*
X43329873Y-40217555D01*
X43281997Y-40123593D01*
X43269102Y-40054926D01*
X43295378Y-39990185D01*
X43352485Y-39949928D01*
X43392483Y-39943300D01*
X54507190Y-39943300D01*
X54574229Y-39962985D01*
X54619984Y-40015789D01*
X54629928Y-40084947D01*
X54600903Y-40148503D01*
X54594871Y-40154981D01*
X51393179Y-43356671D01*
X51331856Y-43390156D01*
X51262164Y-43385172D01*
X51217817Y-43356671D01*
X51124872Y-43263726D01*
X51124868Y-43263723D01*
X51018333Y-43192538D01*
X51018324Y-43192533D01*
X50899944Y-43143499D01*
X50899938Y-43143497D01*
X50774271Y-43118500D01*
X50774269Y-43118500D01*
X50646131Y-43118500D01*
X50646129Y-43118500D01*
X50520461Y-43143497D01*
X50520455Y-43143499D01*
X50402075Y-43192533D01*
X50402066Y-43192538D01*
X50295531Y-43263723D01*
X50295527Y-43263726D01*
X50204926Y-43354327D01*
X50204923Y-43354331D01*
X50133738Y-43460866D01*
X50133733Y-43460875D01*
X50084699Y-43579255D01*
X50084697Y-43579261D01*
X50059700Y-43704928D01*
X50059700Y-43833073D01*
X50083847Y-43954467D01*
X50077620Y-44024058D01*
X50049911Y-44066339D01*
X47320107Y-46796143D01*
X47258784Y-46829628D01*
X47189092Y-46824644D01*
X47133159Y-46782772D01*
X47114493Y-46746775D01*
X47112083Y-46739359D01*
X47026329Y-46571059D01*
X47007883Y-46545670D01*
X47007882Y-46545669D01*
X46400000Y-47153551D01*
X46400000Y-47147339D01*
X46372741Y-47045606D01*
X46320080Y-46954394D01*
X46245606Y-46879920D01*
X46154394Y-46827259D01*
X46052661Y-46800000D01*
X46046447Y-46800000D01*
X46654328Y-46192116D01*
X46628933Y-46173666D01*
X46460637Y-46087914D01*
X46281002Y-46029548D01*
X46094447Y-46000000D01*
X45905553Y-46000000D01*
X45718997Y-46029548D01*
X45539362Y-46087914D01*
X45371060Y-46173669D01*
X45345670Y-46192116D01*
X45345669Y-46192116D01*
X45953554Y-46800000D01*
X45947339Y-46800000D01*
X45845606Y-46827259D01*
X45754394Y-46879920D01*
X45679920Y-46954394D01*
X45627259Y-47045606D01*
X45600000Y-47147339D01*
X45600000Y-47153554D01*
X45136787Y-46690341D01*
X45103302Y-46629018D01*
X45100690Y-46610068D01*
X45100501Y-46606913D01*
X45100500Y-46606903D01*
X45100500Y-46606898D01*
X45089877Y-46518436D01*
X45034361Y-46377658D01*
X44986314Y-46314299D01*
X44986314Y-46314298D01*
X44942922Y-46257077D01*
X44822343Y-46165639D01*
X44711712Y-46122012D01*
X44681564Y-46110123D01*
X44681563Y-46110122D01*
X44681561Y-46110122D01*
X44635926Y-46104642D01*
X44593102Y-46099500D01*
X43406898Y-46099500D01*
X43367853Y-46104188D01*
X43318438Y-46110122D01*
X43177656Y-46165639D01*
X43057077Y-46257077D01*
X42965639Y-46377656D01*
X42910122Y-46518438D01*
X42904188Y-46567853D01*
X42899500Y-46606898D01*
X42899500Y-47793102D01*
X42902912Y-47821515D01*
X42910122Y-47881561D01*
X42965639Y-48022343D01*
X43057077Y-48142922D01*
X43177656Y-48234360D01*
X43177657Y-48234360D01*
X43177658Y-48234361D01*
X43318436Y-48289877D01*
X43367938Y-48295821D01*
X43432150Y-48323356D01*
X43471284Y-48381238D01*
X43472912Y-48451088D01*
X43440834Y-48506617D01*
X37275481Y-54671971D01*
X37214158Y-54705456D01*
X37144466Y-54700472D01*
X37088533Y-54658600D01*
X37064116Y-54593136D01*
X37063800Y-54584290D01*
X37063800Y-54310422D01*
X37082372Y-54245145D01*
X37134870Y-54160359D01*
X37155500Y-54050000D01*
X37155500Y-52550000D01*
X37154197Y-52521812D01*
X37123472Y-52413827D01*
X37055814Y-52324233D01*
X37055813Y-52324232D01*
X36960360Y-52265130D01*
X36960361Y-52265130D01*
X36905179Y-52254815D01*
X36850000Y-52244500D01*
X36284174Y-52244500D01*
X36284166Y-52244500D01*
X36205106Y-52254909D01*
X36077932Y-52288986D01*
X36004265Y-52319499D01*
X36004249Y-52319507D01*
X35890250Y-52385325D01*
X35890232Y-52385337D01*
X35826971Y-52433880D01*
X35733880Y-52526971D01*
X35685337Y-52590232D01*
X35685325Y-52590250D01*
X35619507Y-52704249D01*
X35619499Y-52704265D01*
X35588986Y-52777932D01*
X35554909Y-52905106D01*
X35544500Y-52984166D01*
X35544500Y-53615833D01*
X35552473Y-53676387D01*
X35554910Y-53694897D01*
X35581252Y-53793206D01*
X35588986Y-53822067D01*
X35619498Y-53895731D01*
X35619507Y-53895748D01*
X35627166Y-53909015D01*
X35633729Y-53936072D01*
X35643462Y-53962164D01*
X35641853Y-53969560D01*
X35643637Y-53976915D01*
X35634531Y-54003223D01*
X35628612Y-54030437D01*
X35622102Y-54039133D01*
X35620784Y-54042942D01*
X35607461Y-54058692D01*
X35563476Y-54102679D01*
X35502154Y-54136166D01*
X35475793Y-54139000D01*
X31455410Y-54139000D01*
X31388371Y-54119315D01*
X31367729Y-54102681D01*
X31191819Y-53926771D01*
X31158334Y-53865448D01*
X31155500Y-53839090D01*
X31155500Y-52550002D01*
X31154454Y-52527373D01*
X31154197Y-52521812D01*
X31123472Y-52413827D01*
X31055814Y-52324233D01*
X31055813Y-52324232D01*
X30960360Y-52265130D01*
X30960361Y-52265130D01*
X30905179Y-52254815D01*
X30850000Y-52244500D01*
X30284174Y-52244500D01*
X30284166Y-52244500D01*
X30205106Y-52254909D01*
X30077932Y-52288986D01*
X30004265Y-52319499D01*
X30004249Y-52319507D01*
X29890250Y-52385325D01*
X29890232Y-52385337D01*
X29826971Y-52433880D01*
X29733880Y-52526971D01*
X29685337Y-52590232D01*
X29685325Y-52590250D01*
X29619507Y-52704249D01*
X29619499Y-52704265D01*
X29588986Y-52777932D01*
X29554909Y-52905106D01*
X29544500Y-52984166D01*
X29544500Y-53615833D01*
X29552473Y-53676387D01*
X29554910Y-53694897D01*
X29581252Y-53793206D01*
X29588986Y-53822067D01*
X29619499Y-53895734D01*
X29619507Y-53895750D01*
X29685325Y-54009749D01*
X29685337Y-54009767D01*
X29733880Y-54073028D01*
X29733888Y-54073037D01*
X29826963Y-54166112D01*
X29826971Y-54166119D01*
X29890232Y-54214662D01*
X29890236Y-54214664D01*
X29890243Y-54214670D01*
X29890250Y-54214674D01*
X30004249Y-54280492D01*
X30004265Y-54280500D01*
X30053376Y-54300842D01*
X30077936Y-54311015D01*
X30205103Y-54345090D01*
X30284174Y-54355500D01*
X30365690Y-54355500D01*
X30432729Y-54375185D01*
X30453371Y-54391819D01*
X30966537Y-54904985D01*
X31063563Y-54961003D01*
X31171782Y-54990000D01*
X31283819Y-54990000D01*
X34506053Y-54990000D01*
X34573092Y-55009685D01*
X34618847Y-55062489D01*
X34628791Y-55131647D01*
X34611533Y-55176683D01*
X34612308Y-55177098D01*
X34609433Y-55182475D01*
X34560399Y-55300855D01*
X34560397Y-55300861D01*
X34535400Y-55426528D01*
X34535400Y-55557900D01*
X34515715Y-55624939D01*
X34462911Y-55670694D01*
X34411400Y-55681900D01*
X28575010Y-55681900D01*
X28507971Y-55662215D01*
X28487329Y-55645581D01*
X26614663Y-53772915D01*
X26581178Y-53711592D01*
X26584412Y-53646918D01*
X26613402Y-53557701D01*
X26640500Y-53386611D01*
X26640500Y-53213389D01*
X26613402Y-53042299D01*
X26559873Y-52877555D01*
X26481232Y-52723212D01*
X26379414Y-52583072D01*
X26256928Y-52460586D01*
X26116788Y-52358768D01*
X25962445Y-52280127D01*
X25797701Y-52226598D01*
X25797699Y-52226597D01*
X25797698Y-52226597D01*
X25649801Y-52203173D01*
X25626611Y-52199500D01*
X25453389Y-52199500D01*
X25430199Y-52203173D01*
X25282302Y-52226597D01*
X25117552Y-52280128D01*
X24963211Y-52358768D01*
X24897370Y-52406605D01*
X24823072Y-52460586D01*
X24823070Y-52460588D01*
X24823069Y-52460588D01*
X24700588Y-52583069D01*
X24700588Y-52583070D01*
X24700586Y-52583072D01*
X24675209Y-52618000D01*
X24598768Y-52723211D01*
X24520128Y-52877552D01*
X24520127Y-52877554D01*
X24520127Y-52877555D01*
X24516600Y-52888409D01*
X24466597Y-53042302D01*
X24452129Y-53133652D01*
X24439500Y-53213389D01*
X24439500Y-53386611D01*
X24466598Y-53557701D01*
X24519067Y-53719184D01*
X24520128Y-53722447D01*
X24572237Y-53824718D01*
X24598768Y-53876788D01*
X24700586Y-54016928D01*
X24823072Y-54139414D01*
X24963212Y-54241232D01*
X25117555Y-54319873D01*
X25282299Y-54373402D01*
X25453389Y-54400500D01*
X25453390Y-54400500D01*
X25626610Y-54400500D01*
X25626611Y-54400500D01*
X25797701Y-54373402D01*
X25886918Y-54344412D01*
X25956756Y-54342418D01*
X26012915Y-54374663D01*
X27500171Y-55861919D01*
X27533656Y-55923242D01*
X27528672Y-55992934D01*
X27486800Y-56048867D01*
X27421336Y-56073284D01*
X27412490Y-56073600D01*
X20426710Y-56073600D01*
X20359671Y-56053915D01*
X20339029Y-56037281D01*
X18074663Y-53772915D01*
X18041178Y-53711592D01*
X18044412Y-53646918D01*
X18073402Y-53557701D01*
X18100500Y-53386611D01*
X18100500Y-53213389D01*
X18439500Y-53213389D01*
X18439500Y-53386611D01*
X18466598Y-53557701D01*
X18519067Y-53719184D01*
X18520128Y-53722447D01*
X18572237Y-53824718D01*
X18598768Y-53876788D01*
X18700586Y-54016928D01*
X18823072Y-54139414D01*
X18963212Y-54241232D01*
X19117555Y-54319873D01*
X19282299Y-54373402D01*
X19453389Y-54400500D01*
X19453390Y-54400500D01*
X19626610Y-54400500D01*
X19626611Y-54400500D01*
X19797701Y-54373402D01*
X19962445Y-54319873D01*
X20116788Y-54241232D01*
X20256928Y-54139414D01*
X20379414Y-54016928D01*
X20481232Y-53876788D01*
X20559873Y-53722445D01*
X20613402Y-53557701D01*
X20640500Y-53386611D01*
X20640500Y-53213389D01*
X21899500Y-53213389D01*
X21899500Y-53386611D01*
X21926598Y-53557701D01*
X21979067Y-53719184D01*
X21980128Y-53722447D01*
X22032237Y-53824718D01*
X22058768Y-53876788D01*
X22160586Y-54016928D01*
X22283072Y-54139414D01*
X22423212Y-54241232D01*
X22577555Y-54319873D01*
X22742299Y-54373402D01*
X22913389Y-54400500D01*
X22913390Y-54400500D01*
X23086610Y-54400500D01*
X23086611Y-54400500D01*
X23257701Y-54373402D01*
X23422445Y-54319873D01*
X23576788Y-54241232D01*
X23716928Y-54139414D01*
X23839414Y-54016928D01*
X23941232Y-53876788D01*
X24019873Y-53722445D01*
X24073402Y-53557701D01*
X24100500Y-53386611D01*
X24100500Y-53213389D01*
X24073402Y-53042299D01*
X24019873Y-52877555D01*
X23941232Y-52723212D01*
X23839414Y-52583072D01*
X23740469Y-52484127D01*
X23706984Y-52422804D01*
X23711968Y-52353112D01*
X23740469Y-52308765D01*
X25732033Y-50317201D01*
X27726573Y-48322660D01*
X27787894Y-48289177D01*
X27833646Y-48287870D01*
X27883841Y-48295820D01*
X27913386Y-48300500D01*
X27913389Y-48300500D01*
X28086610Y-48300500D01*
X28086611Y-48300500D01*
X28257701Y-48273402D01*
X28422445Y-48219873D01*
X28576788Y-48141232D01*
X28716928Y-48039414D01*
X28839414Y-47916928D01*
X28941232Y-47776788D01*
X29019873Y-47622445D01*
X29073402Y-47457701D01*
X29100500Y-47286611D01*
X29100500Y-47113389D01*
X29073402Y-46942299D01*
X29019873Y-46777555D01*
X28941232Y-46623212D01*
X28839414Y-46483072D01*
X28716928Y-46360586D01*
X28576788Y-46258768D01*
X28422445Y-46180127D01*
X28257701Y-46126598D01*
X28257699Y-46126597D01*
X28257698Y-46126597D01*
X28109801Y-46103173D01*
X28086611Y-46099500D01*
X27913389Y-46099500D01*
X27890199Y-46103173D01*
X27742302Y-46126597D01*
X27577552Y-46180128D01*
X27423211Y-46258768D01*
X27346782Y-46314298D01*
X27283072Y-46360586D01*
X27283070Y-46360588D01*
X27283069Y-46360588D01*
X27160588Y-46483069D01*
X27160588Y-46483070D01*
X27160586Y-46483072D01*
X27134891Y-46518438D01*
X27058768Y-46623211D01*
X26980128Y-46777552D01*
X26926597Y-46942302D01*
X26899500Y-47113389D01*
X26899500Y-47286616D01*
X26912128Y-47366349D01*
X26903173Y-47435642D01*
X26877336Y-47473427D01*
X22633719Y-51717044D01*
X22633710Y-51717053D01*
X22631286Y-51719478D01*
X22631284Y-51719480D01*
X22519480Y-51831284D01*
X22504135Y-51857863D01*
X22440423Y-51968215D01*
X22399499Y-52120943D01*
X22399499Y-52120945D01*
X22399499Y-52289046D01*
X22399500Y-52289059D01*
X22399500Y-52312814D01*
X22379815Y-52379853D01*
X22348387Y-52413131D01*
X22283072Y-52460585D01*
X22160588Y-52583069D01*
X22160588Y-52583070D01*
X22160586Y-52583072D01*
X22135209Y-52618000D01*
X22058768Y-52723211D01*
X21980128Y-52877552D01*
X21980127Y-52877554D01*
X21980127Y-52877555D01*
X21976600Y-52888409D01*
X21926597Y-53042302D01*
X21912129Y-53133652D01*
X21899500Y-53213389D01*
X20640500Y-53213389D01*
X20613402Y-53042299D01*
X20559873Y-52877555D01*
X20481232Y-52723212D01*
X20379414Y-52583072D01*
X20256928Y-52460586D01*
X20116788Y-52358768D01*
X19962445Y-52280127D01*
X19797701Y-52226598D01*
X19797699Y-52226597D01*
X19797698Y-52226597D01*
X19649801Y-52203173D01*
X19626611Y-52199500D01*
X19453389Y-52199500D01*
X19430199Y-52203173D01*
X19282302Y-52226597D01*
X19117552Y-52280128D01*
X18963211Y-52358768D01*
X18897370Y-52406605D01*
X18823072Y-52460586D01*
X18823070Y-52460588D01*
X18823069Y-52460588D01*
X18700588Y-52583069D01*
X18700588Y-52583070D01*
X18700586Y-52583072D01*
X18675209Y-52618000D01*
X18598768Y-52723211D01*
X18520128Y-52877552D01*
X18520127Y-52877554D01*
X18520127Y-52877555D01*
X18516600Y-52888409D01*
X18466597Y-53042302D01*
X18452129Y-53133652D01*
X18439500Y-53213389D01*
X18100500Y-53213389D01*
X18073402Y-53042299D01*
X18019873Y-52877555D01*
X17941232Y-52723212D01*
X17839414Y-52583072D01*
X17716928Y-52460586D01*
X17576788Y-52358768D01*
X17422445Y-52280127D01*
X17257701Y-52226598D01*
X17257699Y-52226597D01*
X17257698Y-52226597D01*
X17109801Y-52203173D01*
X17086611Y-52199500D01*
X16913389Y-52199500D01*
X16890199Y-52203173D01*
X16742302Y-52226597D01*
X16577552Y-52280128D01*
X16423211Y-52358768D01*
X16357370Y-52406605D01*
X16283072Y-52460586D01*
X16283070Y-52460588D01*
X16283069Y-52460588D01*
X16160588Y-52583069D01*
X16160588Y-52583070D01*
X16160586Y-52583072D01*
X16135209Y-52618000D01*
X16058768Y-52723211D01*
X15980128Y-52877552D01*
X15980127Y-52877554D01*
X15980127Y-52877555D01*
X15976600Y-52888409D01*
X15926597Y-53042302D01*
X15900139Y-53209354D01*
X15870210Y-53272489D01*
X15810898Y-53309420D01*
X15741036Y-53308422D01*
X15689985Y-53277637D01*
X15371865Y-52959517D01*
X15371863Y-52959515D01*
X15274837Y-52903497D01*
X15166618Y-52874500D01*
X15166617Y-52874500D01*
X14634303Y-52874500D01*
X14567264Y-52854815D01*
X14523819Y-52806795D01*
X14481232Y-52723212D01*
X14481230Y-52723209D01*
X14481229Y-52723207D01*
X14437256Y-52662685D01*
X14379414Y-52583072D01*
X14256928Y-52460586D01*
X14116788Y-52358768D01*
X13962445Y-52280127D01*
X13797701Y-52226598D01*
X13797699Y-52226597D01*
X13797698Y-52226597D01*
X13649801Y-52203173D01*
X13626611Y-52199500D01*
X13453389Y-52199500D01*
X13430199Y-52203173D01*
X13282302Y-52226597D01*
X13117549Y-52280129D01*
X13054694Y-52312155D01*
X12986025Y-52325051D01*
X12921284Y-52298774D01*
X12881028Y-52241667D01*
X12874400Y-52201670D01*
X12874400Y-49919907D01*
X12894085Y-49852868D01*
X12910720Y-49832225D01*
X12954173Y-49788772D01*
X12954176Y-49788769D01*
X13025365Y-49682227D01*
X13074401Y-49563844D01*
X13099400Y-49438169D01*
X13099400Y-49310031D01*
X13099400Y-49310028D01*
X13075602Y-49190393D01*
X13077479Y-49169409D01*
X13074481Y-49148555D01*
X13080531Y-49135306D01*
X13081829Y-49120802D01*
X13094752Y-49104165D01*
X13103505Y-49084999D01*
X13115757Y-49077124D01*
X13124691Y-49065624D01*
X13144558Y-49058615D01*
X13162283Y-49047224D01*
X13186866Y-49043689D01*
X13190581Y-49042379D01*
X13197218Y-49042201D01*
X13320757Y-49042201D01*
X13320760Y-49042200D01*
X13328368Y-49042200D01*
X18671631Y-49042200D01*
X18671647Y-49042201D01*
X18679243Y-49042201D01*
X18837354Y-49042201D01*
X18837357Y-49042201D01*
X18990085Y-49001277D01*
X19062564Y-48959431D01*
X19127016Y-48922220D01*
X19238820Y-48810416D01*
X19238820Y-48810414D01*
X19249024Y-48800211D01*
X19249028Y-48800206D01*
X19726573Y-48322660D01*
X19787894Y-48289177D01*
X19833646Y-48287870D01*
X19883841Y-48295820D01*
X19913386Y-48300500D01*
X19913389Y-48300500D01*
X20086610Y-48300500D01*
X20086611Y-48300500D01*
X20257701Y-48273402D01*
X20422445Y-48219873D01*
X20576788Y-48141232D01*
X20716928Y-48039414D01*
X20839414Y-47916928D01*
X20941232Y-47776788D01*
X21019873Y-47622445D01*
X21073402Y-47457701D01*
X21100500Y-47286611D01*
X21100500Y-47113389D01*
X21087837Y-47033440D01*
X21092361Y-46998895D01*
X21096824Y-46964358D01*
X21096898Y-46964249D01*
X21096909Y-46964166D01*
X21097151Y-46963878D01*
X21122659Y-46926574D01*
X22255916Y-45793319D01*
X22317239Y-45759834D01*
X22343597Y-45757000D01*
X24864228Y-45757000D01*
X24931267Y-45776685D01*
X24977022Y-45829489D01*
X24986966Y-45898647D01*
X24957941Y-45962203D01*
X24899163Y-45999977D01*
X24883626Y-46003473D01*
X24718997Y-46029548D01*
X24539362Y-46087914D01*
X24371060Y-46173669D01*
X24345670Y-46192116D01*
X24345669Y-46192116D01*
X24953554Y-46800000D01*
X24947339Y-46800000D01*
X24845606Y-46827259D01*
X24754394Y-46879920D01*
X24679920Y-46954394D01*
X24627259Y-47045606D01*
X24600000Y-47147339D01*
X24600000Y-47153553D01*
X23992116Y-46545669D01*
X23992116Y-46545670D01*
X23973669Y-46571060D01*
X23887914Y-46739362D01*
X23829548Y-46918997D01*
X23800000Y-47105552D01*
X23800000Y-47294447D01*
X23829548Y-47481002D01*
X23887914Y-47660637D01*
X23973666Y-47828933D01*
X23992116Y-47854328D01*
X24600000Y-47246445D01*
X24600000Y-47252661D01*
X24627259Y-47354394D01*
X24679920Y-47445606D01*
X24754394Y-47520080D01*
X24845606Y-47572741D01*
X24947339Y-47600000D01*
X24953554Y-47600000D01*
X24345669Y-48207882D01*
X24345670Y-48207883D01*
X24371059Y-48226329D01*
X24539362Y-48312085D01*
X24718997Y-48370451D01*
X24905553Y-48400000D01*
X25094447Y-48400000D01*
X25281002Y-48370451D01*
X25460637Y-48312085D01*
X25628937Y-48226331D01*
X25654328Y-48207883D01*
X25654328Y-48207882D01*
X25046447Y-47600000D01*
X25052661Y-47600000D01*
X25154394Y-47572741D01*
X25245606Y-47520080D01*
X25320080Y-47445606D01*
X25372741Y-47354394D01*
X25400000Y-47252661D01*
X25400000Y-47246446D01*
X26007882Y-47854328D01*
X26007883Y-47854328D01*
X26026331Y-47828937D01*
X26112085Y-47660637D01*
X26170451Y-47481002D01*
X26200000Y-47294447D01*
X26200000Y-47105552D01*
X26170451Y-46918997D01*
X26112085Y-46739362D01*
X26026329Y-46571059D01*
X26007883Y-46545670D01*
X26007882Y-46545669D01*
X25400000Y-47153552D01*
X25400000Y-47147339D01*
X25372741Y-47045606D01*
X25320080Y-46954394D01*
X25245606Y-46879920D01*
X25154394Y-46827259D01*
X25052661Y-46800000D01*
X25046447Y-46800000D01*
X25654328Y-46192116D01*
X25628933Y-46173666D01*
X25460637Y-46087914D01*
X25281002Y-46029548D01*
X25116374Y-46003473D01*
X25053239Y-45973544D01*
X25016308Y-45914232D01*
X25017306Y-45844369D01*
X25055916Y-45786137D01*
X25119880Y-45758023D01*
X25135772Y-45757000D01*
X32864228Y-45757000D01*
X32931267Y-45776685D01*
X32977022Y-45829489D01*
X32986966Y-45898647D01*
X32957941Y-45962203D01*
X32899163Y-45999977D01*
X32883626Y-46003473D01*
X32718997Y-46029548D01*
X32539362Y-46087914D01*
X32371060Y-46173669D01*
X32345670Y-46192116D01*
X32345669Y-46192116D01*
X32953554Y-46800000D01*
X32947339Y-46800000D01*
X32845606Y-46827259D01*
X32754394Y-46879920D01*
X32679920Y-46954394D01*
X32627259Y-47045606D01*
X32600000Y-47147339D01*
X32600000Y-47153553D01*
X31992116Y-46545669D01*
X31992116Y-46545670D01*
X31973669Y-46571060D01*
X31887914Y-46739362D01*
X31829548Y-46918997D01*
X31800000Y-47105552D01*
X31800000Y-47294447D01*
X31829548Y-47481002D01*
X31887914Y-47660637D01*
X31973666Y-47828933D01*
X31992116Y-47854328D01*
X32600000Y-47246445D01*
X32600000Y-47252661D01*
X32627259Y-47354394D01*
X32679920Y-47445606D01*
X32754394Y-47520080D01*
X32845606Y-47572741D01*
X32947339Y-47600000D01*
X32953554Y-47600000D01*
X32345669Y-48207882D01*
X32345670Y-48207883D01*
X32371059Y-48226329D01*
X32539362Y-48312085D01*
X32718997Y-48370451D01*
X32905553Y-48400000D01*
X33094447Y-48400000D01*
X33281002Y-48370451D01*
X33460637Y-48312085D01*
X33628937Y-48226331D01*
X33654328Y-48207883D01*
X33654328Y-48207882D01*
X33046447Y-47600000D01*
X33052661Y-47600000D01*
X33154394Y-47572741D01*
X33245606Y-47520080D01*
X33320080Y-47445606D01*
X33372741Y-47354394D01*
X33400000Y-47252661D01*
X33400000Y-47246446D01*
X34007882Y-47854328D01*
X34007883Y-47854328D01*
X34026331Y-47828937D01*
X34112085Y-47660637D01*
X34170451Y-47481002D01*
X34200000Y-47294447D01*
X34200000Y-47105552D01*
X34170451Y-46918997D01*
X34112085Y-46739362D01*
X34026329Y-46571059D01*
X34007883Y-46545670D01*
X34007882Y-46545669D01*
X33400000Y-47153552D01*
X33400000Y-47147339D01*
X33372741Y-47045606D01*
X33320080Y-46954394D01*
X33245606Y-46879920D01*
X33154394Y-46827259D01*
X33052661Y-46800000D01*
X33046447Y-46800000D01*
X33654328Y-46192116D01*
X33628933Y-46173666D01*
X33460637Y-46087914D01*
X33281002Y-46029548D01*
X33116374Y-46003473D01*
X33053239Y-45973544D01*
X33016308Y-45914232D01*
X33017306Y-45844369D01*
X33055916Y-45786137D01*
X33119880Y-45758023D01*
X33135772Y-45757000D01*
X33656403Y-45757000D01*
X33723442Y-45776685D01*
X33744084Y-45793319D01*
X34877336Y-46926571D01*
X34910821Y-46987894D01*
X34912128Y-47033648D01*
X34899500Y-47113389D01*
X34899500Y-47286611D01*
X34902170Y-47303466D01*
X34922012Y-47428751D01*
X34926598Y-47457701D01*
X34980127Y-47622445D01*
X35058768Y-47776788D01*
X35160586Y-47916928D01*
X35283072Y-48039414D01*
X35423212Y-48141232D01*
X35577555Y-48219873D01*
X35742299Y-48273402D01*
X35913389Y-48300500D01*
X35913390Y-48300500D01*
X36086610Y-48300500D01*
X36086611Y-48300500D01*
X36257701Y-48273402D01*
X36422445Y-48219873D01*
X36576788Y-48141232D01*
X36716928Y-48039414D01*
X36839414Y-47916928D01*
X36941232Y-47776788D01*
X37019873Y-47622445D01*
X37073402Y-47457701D01*
X37100500Y-47286611D01*
X37100500Y-47113389D01*
X37087837Y-47033440D01*
X37092361Y-46998895D01*
X37096824Y-46964358D01*
X37096898Y-46964249D01*
X37096909Y-46964166D01*
X37097151Y-46963878D01*
X37122659Y-46926574D01*
X38168116Y-45881119D01*
X38229439Y-45847634D01*
X38255797Y-45844800D01*
X40504687Y-45844800D01*
X40571726Y-45864485D01*
X40617481Y-45917289D01*
X40627425Y-45986447D01*
X40598400Y-46050003D01*
X40543005Y-46086731D01*
X40539362Y-46087914D01*
X40371060Y-46173669D01*
X40345670Y-46192116D01*
X40345669Y-46192116D01*
X40953554Y-46800000D01*
X40947339Y-46800000D01*
X40845606Y-46827259D01*
X40754394Y-46879920D01*
X40679920Y-46954394D01*
X40627259Y-47045606D01*
X40600000Y-47147339D01*
X40600000Y-47153553D01*
X39992116Y-46545669D01*
X39992116Y-46545670D01*
X39973669Y-46571060D01*
X39887914Y-46739362D01*
X39829548Y-46918997D01*
X39800000Y-47105552D01*
X39800000Y-47294447D01*
X39829548Y-47481002D01*
X39887914Y-47660637D01*
X39973666Y-47828933D01*
X39992116Y-47854328D01*
X40600000Y-47246445D01*
X40600000Y-47252661D01*
X40627259Y-47354394D01*
X40679920Y-47445606D01*
X40754394Y-47520080D01*
X40845606Y-47572741D01*
X40947339Y-47600000D01*
X40953554Y-47600000D01*
X40345669Y-48207882D01*
X40345670Y-48207883D01*
X40371059Y-48226329D01*
X40539362Y-48312085D01*
X40718997Y-48370451D01*
X40905553Y-48400000D01*
X41094447Y-48400000D01*
X41281002Y-48370451D01*
X41460637Y-48312085D01*
X41628937Y-48226331D01*
X41654328Y-48207883D01*
X41654328Y-48207882D01*
X41046447Y-47600000D01*
X41052661Y-47600000D01*
X41154394Y-47572741D01*
X41245606Y-47520080D01*
X41320080Y-47445606D01*
X41372741Y-47354394D01*
X41400000Y-47252661D01*
X41400000Y-47246446D01*
X42007882Y-47854328D01*
X42007883Y-47854328D01*
X42026331Y-47828937D01*
X42112085Y-47660637D01*
X42170451Y-47481002D01*
X42200000Y-47294447D01*
X42200000Y-47105552D01*
X42170451Y-46918997D01*
X42112085Y-46739362D01*
X42026329Y-46571059D01*
X42007883Y-46545670D01*
X42007882Y-46545669D01*
X41400000Y-47153552D01*
X41400000Y-47147339D01*
X41372741Y-47045606D01*
X41320080Y-46954394D01*
X41245606Y-46879920D01*
X41154394Y-46827259D01*
X41052661Y-46800000D01*
X41046447Y-46800000D01*
X41654328Y-46192116D01*
X41652794Y-46172627D01*
X41642349Y-46159082D01*
X41636368Y-46089469D01*
X41668973Y-46027673D01*
X41729811Y-45993315D01*
X41733707Y-45992475D01*
X41790399Y-45981197D01*
X41867013Y-45965958D01*
X42003595Y-45909384D01*
X42126516Y-45827251D01*
X42231051Y-45722716D01*
X42313184Y-45599795D01*
X42369758Y-45463213D01*
X42398600Y-45318218D01*
X42398600Y-45170382D01*
X42398600Y-45170379D01*
X42369759Y-45025392D01*
X42369758Y-45025391D01*
X42369758Y-45025387D01*
X42369756Y-45025382D01*
X42313187Y-44888811D01*
X42313180Y-44888798D01*
X42231051Y-44765884D01*
X42231048Y-44765880D01*
X42126519Y-44661351D01*
X42126515Y-44661348D01*
X42003601Y-44579219D01*
X42003588Y-44579212D01*
X41867017Y-44522643D01*
X41867007Y-44522640D01*
X41722020Y-44493800D01*
X41722018Y-44493800D01*
X41574182Y-44493800D01*
X41574180Y-44493800D01*
X41429192Y-44522640D01*
X41429182Y-44522643D01*
X41292611Y-44579212D01*
X41292598Y-44579219D01*
X41227224Y-44622902D01*
X41160547Y-44643780D01*
X41158333Y-44643800D01*
X37876640Y-44643800D01*
X37835719Y-44654764D01*
X37835719Y-44654765D01*
X37811148Y-44661349D01*
X37723914Y-44684723D01*
X37723909Y-44684726D01*
X37586990Y-44763775D01*
X37586982Y-44763781D01*
X37475178Y-44875586D01*
X36273427Y-46077336D01*
X36212104Y-46110821D01*
X36166349Y-46112128D01*
X36086617Y-46099500D01*
X36086611Y-46099500D01*
X35913389Y-46099500D01*
X35833649Y-46112129D01*
X35764355Y-46103173D01*
X35726571Y-46077336D01*
X34444090Y-44794855D01*
X34444088Y-44794852D01*
X34325217Y-44675981D01*
X34325216Y-44675980D01*
X34238404Y-44625860D01*
X34238404Y-44625859D01*
X34238400Y-44625858D01*
X34188285Y-44596923D01*
X34035557Y-44555999D01*
X33877443Y-44555999D01*
X33869847Y-44555999D01*
X33869831Y-44556000D01*
X21964440Y-44556000D01*
X21923519Y-44566964D01*
X21923519Y-44566965D01*
X21886251Y-44576951D01*
X21811714Y-44596923D01*
X21811709Y-44596926D01*
X21674790Y-44675975D01*
X21674782Y-44675981D01*
X21562978Y-44787786D01*
X20273427Y-46077336D01*
X20212104Y-46110821D01*
X20166349Y-46112128D01*
X20086617Y-46099500D01*
X20086611Y-46099500D01*
X19913389Y-46099500D01*
X19890199Y-46103173D01*
X19742302Y-46126597D01*
X19577552Y-46180128D01*
X19423211Y-46258768D01*
X19346782Y-46314298D01*
X19283072Y-46360586D01*
X19283070Y-46360588D01*
X19283069Y-46360588D01*
X19160588Y-46483069D01*
X19160588Y-46483070D01*
X19160586Y-46483072D01*
X19134891Y-46518438D01*
X19058768Y-46623211D01*
X18980128Y-46777552D01*
X18926597Y-46942302D01*
X18899500Y-47113389D01*
X18899500Y-47286616D01*
X18912128Y-47366349D01*
X18903173Y-47435642D01*
X18877338Y-47473426D01*
X18545882Y-47804882D01*
X18518953Y-47819586D01*
X18493138Y-47836177D01*
X18486937Y-47837068D01*
X18484561Y-47838366D01*
X18458203Y-47841200D01*
X18222434Y-47841200D01*
X18155395Y-47821515D01*
X18109640Y-47768711D01*
X18099696Y-47699553D01*
X18110562Y-47665280D01*
X18110221Y-47665139D01*
X18111866Y-47661167D01*
X18111950Y-47660903D01*
X18112085Y-47660636D01*
X18170451Y-47481002D01*
X18200000Y-47294447D01*
X18200000Y-47105552D01*
X18170451Y-46918997D01*
X18112085Y-46739362D01*
X18026329Y-46571059D01*
X18007883Y-46545670D01*
X18007882Y-46545669D01*
X17400000Y-47153551D01*
X17400000Y-47147339D01*
X17372741Y-47045606D01*
X17320080Y-46954394D01*
X17245606Y-46879920D01*
X17154394Y-46827259D01*
X17052661Y-46800000D01*
X17046447Y-46800000D01*
X17654328Y-46192116D01*
X17628933Y-46173666D01*
X17460637Y-46087914D01*
X17281002Y-46029548D01*
X17094447Y-46000000D01*
X16905553Y-46000000D01*
X16718997Y-46029548D01*
X16539362Y-46087914D01*
X16371060Y-46173669D01*
X16345670Y-46192116D01*
X16345669Y-46192116D01*
X16953554Y-46800000D01*
X16947339Y-46800000D01*
X16845606Y-46827259D01*
X16754394Y-46879920D01*
X16679920Y-46954394D01*
X16627259Y-47045606D01*
X16600000Y-47147339D01*
X16600000Y-47153553D01*
X15992116Y-46545669D01*
X15992116Y-46545670D01*
X15973669Y-46571060D01*
X15887914Y-46739362D01*
X15829548Y-46918997D01*
X15800000Y-47105552D01*
X15800000Y-47294447D01*
X15829548Y-47481002D01*
X15887914Y-47660636D01*
X15888050Y-47660903D01*
X15888071Y-47661016D01*
X15889779Y-47665139D01*
X15888912Y-47665497D01*
X15900947Y-47729572D01*
X15874672Y-47794313D01*
X15817567Y-47834571D01*
X15777566Y-47841200D01*
X13541797Y-47841200D01*
X13474758Y-47821515D01*
X13454116Y-47804881D01*
X13122662Y-47473427D01*
X13089177Y-47412104D01*
X13087870Y-47366352D01*
X13100500Y-47286611D01*
X13100500Y-47113389D01*
X13073402Y-46942299D01*
X13019873Y-46777555D01*
X12941232Y-46623212D01*
X12839414Y-46483072D01*
X12716928Y-46360586D01*
X12715325Y-46359421D01*
X12688194Y-46339708D01*
X12688171Y-46339693D01*
X12576788Y-46258768D01*
X12422447Y-46180128D01*
X12422446Y-46180127D01*
X12422445Y-46180127D01*
X12257701Y-46126598D01*
X12257699Y-46126597D01*
X12257698Y-46126597D01*
X12109801Y-46103173D01*
X12086611Y-46099500D01*
X11913389Y-46099500D01*
X11890199Y-46103173D01*
X11742302Y-46126597D01*
X11577552Y-46180128D01*
X11423211Y-46258768D01*
X11346782Y-46314298D01*
X11283072Y-46360586D01*
X11283070Y-46360588D01*
X11283069Y-46360588D01*
X11160588Y-46483069D01*
X11160588Y-46483070D01*
X11160586Y-46483072D01*
X11134891Y-46518438D01*
X11058768Y-46623211D01*
X10980128Y-46777552D01*
X10926597Y-46942302D01*
X10899500Y-47113389D01*
X10899500Y-47286615D01*
X10912128Y-47366347D01*
X10903173Y-47435641D01*
X10877336Y-47473426D01*
X9703684Y-48647081D01*
X9642361Y-48680566D01*
X9616003Y-48683400D01*
X6383998Y-48683400D01*
X6316959Y-48663715D01*
X6296317Y-48647081D01*
X5122662Y-47473426D01*
X5089177Y-47412103D01*
X5087870Y-47366351D01*
X5100500Y-47286611D01*
X5100500Y-47113389D01*
X5099259Y-47105552D01*
X7800000Y-47105552D01*
X7800000Y-47294447D01*
X7829548Y-47481002D01*
X7887914Y-47660637D01*
X7973666Y-47828933D01*
X7992116Y-47854328D01*
X8600000Y-47246445D01*
X8600000Y-47252661D01*
X8627259Y-47354394D01*
X8679920Y-47445606D01*
X8754394Y-47520080D01*
X8845606Y-47572741D01*
X8947339Y-47600000D01*
X8953554Y-47600000D01*
X8345669Y-48207882D01*
X8345670Y-48207883D01*
X8371059Y-48226329D01*
X8539362Y-48312085D01*
X8718997Y-48370451D01*
X8905553Y-48400000D01*
X9094447Y-48400000D01*
X9281002Y-48370451D01*
X9460637Y-48312085D01*
X9628937Y-48226331D01*
X9654328Y-48207883D01*
X9654328Y-48207882D01*
X9046447Y-47600000D01*
X9052661Y-47600000D01*
X9154394Y-47572741D01*
X9245606Y-47520080D01*
X9320080Y-47445606D01*
X9372741Y-47354394D01*
X9400000Y-47252661D01*
X9400000Y-47246446D01*
X10007882Y-47854328D01*
X10007883Y-47854328D01*
X10026331Y-47828937D01*
X10112085Y-47660637D01*
X10170451Y-47481002D01*
X10200000Y-47294447D01*
X10200000Y-47105552D01*
X10170451Y-46918997D01*
X10112085Y-46739362D01*
X10026329Y-46571059D01*
X10007883Y-46545670D01*
X10007882Y-46545669D01*
X9400000Y-47153552D01*
X9400000Y-47147339D01*
X9372741Y-47045606D01*
X9320080Y-46954394D01*
X9245606Y-46879920D01*
X9154394Y-46827259D01*
X9052661Y-46800000D01*
X9046447Y-46800000D01*
X9654328Y-46192116D01*
X9628933Y-46173666D01*
X9460637Y-46087914D01*
X9281002Y-46029548D01*
X9094447Y-46000000D01*
X8905553Y-46000000D01*
X8718997Y-46029548D01*
X8539362Y-46087914D01*
X8371060Y-46173669D01*
X8345670Y-46192116D01*
X8345669Y-46192116D01*
X8953554Y-46800000D01*
X8947339Y-46800000D01*
X8845606Y-46827259D01*
X8754394Y-46879920D01*
X8679920Y-46954394D01*
X8627259Y-47045606D01*
X8600000Y-47147339D01*
X8600000Y-47153553D01*
X7992116Y-46545669D01*
X7992116Y-46545670D01*
X7973669Y-46571060D01*
X7887914Y-46739362D01*
X7829548Y-46918997D01*
X7800000Y-47105552D01*
X5099259Y-47105552D01*
X5073402Y-46942299D01*
X5019873Y-46777555D01*
X4941232Y-46623212D01*
X4839414Y-46483072D01*
X4716928Y-46360586D01*
X4715325Y-46359421D01*
X4688194Y-46339708D01*
X4688171Y-46339693D01*
X4576788Y-46258768D01*
X4422447Y-46180128D01*
X4422446Y-46180127D01*
X4422445Y-46180127D01*
X4257701Y-46126598D01*
X4257699Y-46126597D01*
X4257698Y-46126597D01*
X4109801Y-46103173D01*
X4086611Y-46099500D01*
X3913389Y-46099500D01*
X3890199Y-46103173D01*
X3742302Y-46126597D01*
X3577552Y-46180128D01*
X3519895Y-46209506D01*
X3451225Y-46222402D01*
X3386485Y-46196126D01*
X3346228Y-46139019D01*
X3339600Y-46099021D01*
X3339600Y-44901009D01*
X3359285Y-44833970D01*
X3375914Y-44813333D01*
X4623887Y-43565360D01*
X4685206Y-43531878D01*
X4754898Y-43536862D01*
X4810831Y-43578734D01*
X4829495Y-43614725D01*
X4837915Y-43640638D01*
X4923670Y-43808940D01*
X5034685Y-43961741D01*
X5034689Y-43961746D01*
X5168253Y-44095310D01*
X5168258Y-44095314D01*
X5321059Y-44206329D01*
X5489362Y-44292085D01*
X5668997Y-44350451D01*
X5855553Y-44380000D01*
X6100000Y-44380000D01*
X6100000Y-43495686D01*
X6104394Y-43500080D01*
X6195606Y-43552741D01*
X6297339Y-43580000D01*
X6402661Y-43580000D01*
X6504394Y-43552741D01*
X6595606Y-43500080D01*
X6600000Y-43495686D01*
X6600000Y-44380000D01*
X6844447Y-44380000D01*
X7031002Y-44350451D01*
X7210637Y-44292085D01*
X7378940Y-44206329D01*
X7531741Y-44095314D01*
X7531746Y-44095310D01*
X7665310Y-43961746D01*
X7665314Y-43961741D01*
X7776329Y-43808940D01*
X7862085Y-43640637D01*
X7920451Y-43461002D01*
X7925362Y-43430000D01*
X6665686Y-43430000D01*
X6670080Y-43425606D01*
X6722741Y-43334394D01*
X6750000Y-43232661D01*
X6750000Y-43127339D01*
X6722741Y-43025606D01*
X6670080Y-42934394D01*
X6665686Y-42930000D01*
X7925362Y-42930000D01*
X7920451Y-42898997D01*
X7862085Y-42719362D01*
X7776329Y-42551059D01*
X7665315Y-42398259D01*
X7599582Y-42332525D01*
X7566098Y-42271201D01*
X7571083Y-42201510D01*
X7599579Y-42157168D01*
X9725829Y-40030919D01*
X9787152Y-39997434D01*
X9813510Y-39994600D01*
X20081378Y-39994600D01*
X20148417Y-40014285D01*
X20194172Y-40067089D01*
X20204116Y-40136247D01*
X20191863Y-40174894D01*
X20170129Y-40217549D01*
X20116597Y-40382302D01*
X20115378Y-40390000D01*
X20089500Y-40553389D01*
X20089500Y-40726611D01*
X20116598Y-40897701D01*
X20170127Y-41062445D01*
X20248768Y-41216788D01*
X20350586Y-41356928D01*
X20473072Y-41479414D01*
X20613212Y-41581232D01*
X20767555Y-41659873D01*
X20932299Y-41713402D01*
X21103389Y-41740500D01*
X21103390Y-41740500D01*
X22076610Y-41740500D01*
X22076611Y-41740500D01*
X22247701Y-41713402D01*
X22412445Y-41659873D01*
X22566788Y-41581232D01*
X22706928Y-41479414D01*
X22829414Y-41356928D01*
X22931232Y-41216788D01*
X22973819Y-41133204D01*
X23021792Y-41082410D01*
X23084303Y-41065500D01*
X23112716Y-41065500D01*
X23112718Y-41065500D01*
X23220937Y-41036503D01*
X23317963Y-40980485D01*
X23812842Y-40485606D01*
X24271328Y-40027119D01*
X24332651Y-39993634D01*
X24359009Y-39990800D01*
X25051642Y-39990800D01*
X25118681Y-40010485D01*
X25164436Y-40063289D01*
X25174380Y-40132447D01*
X25162127Y-40171094D01*
X25157915Y-40179359D01*
X25099548Y-40358997D01*
X25094638Y-40390000D01*
X26354314Y-40390000D01*
X26349920Y-40394394D01*
X26297259Y-40485606D01*
X26270000Y-40587339D01*
X26270000Y-40692661D01*
X26297259Y-40794394D01*
X26349920Y-40885606D01*
X26354314Y-40890000D01*
X25094638Y-40890000D01*
X25099548Y-40921002D01*
X25157914Y-41100637D01*
X25243670Y-41268940D01*
X25354685Y-41421741D01*
X25354689Y-41421746D01*
X25488253Y-41555310D01*
X25488258Y-41555314D01*
X25641059Y-41666329D01*
X25809362Y-41752085D01*
X25988997Y-41810451D01*
X26175553Y-41840000D01*
X26420000Y-41840000D01*
X26420000Y-40955686D01*
X26424394Y-40960080D01*
X26515606Y-41012741D01*
X26617339Y-41040000D01*
X26722661Y-41040000D01*
X26824394Y-41012741D01*
X26915606Y-40960080D01*
X26920000Y-40955686D01*
X26920000Y-41840000D01*
X27164447Y-41840000D01*
X27351002Y-41810451D01*
X27530637Y-41752085D01*
X27698940Y-41666329D01*
X27851741Y-41555314D01*
X27851746Y-41555310D01*
X27985310Y-41421746D01*
X27985314Y-41421741D01*
X28096329Y-41268940D01*
X28182085Y-41100637D01*
X28240451Y-40921002D01*
X28245362Y-40890000D01*
X26985686Y-40890000D01*
X26990080Y-40885606D01*
X27042741Y-40794394D01*
X27070000Y-40692661D01*
X27070000Y-40587339D01*
X27042741Y-40485606D01*
X26990080Y-40394394D01*
X26985686Y-40390000D01*
X28245362Y-40390000D01*
X28240451Y-40358997D01*
X28182084Y-40179360D01*
X28164237Y-40144333D01*
X28151340Y-40075664D01*
X28177616Y-40010923D01*
X28234722Y-39970666D01*
X28242618Y-39968265D01*
X28266737Y-39961803D01*
X28363763Y-39905785D01*
X29707729Y-38561819D01*
X29769052Y-38528334D01*
X29795410Y-38525500D01*
X40387282Y-38525500D01*
X40415697Y-38525500D01*
X40430299Y-38529787D01*
G37*
%TD.AperFunction*%
%TA.AperFunction,Conductor*%
G36*
X67010428Y-41353285D02*
G01*
X67056183Y-41406089D01*
X67066127Y-41475247D01*
X67037102Y-41538803D01*
X67031070Y-41545281D01*
X61262181Y-47314170D01*
X61200858Y-47347655D01*
X61131166Y-47342671D01*
X61075233Y-47300799D01*
X61050816Y-47235335D01*
X61050500Y-47226489D01*
X61050500Y-47096534D01*
X61050499Y-47096530D01*
X61037991Y-47033649D01*
X61010130Y-46893580D01*
X60930941Y-46702402D01*
X60815977Y-46530345D01*
X60815975Y-46530342D01*
X60669657Y-46384024D01*
X60520423Y-46284310D01*
X60497598Y-46269059D01*
X60483279Y-46263128D01*
X60306420Y-46189870D01*
X60306412Y-46189868D01*
X60103469Y-46149500D01*
X60103465Y-46149500D01*
X59896535Y-46149500D01*
X59896530Y-46149500D01*
X59693587Y-46189868D01*
X59693579Y-46189870D01*
X59502403Y-46269058D01*
X59330342Y-46384024D01*
X59184024Y-46530342D01*
X59069058Y-46702403D01*
X58989870Y-46893579D01*
X58989868Y-46893587D01*
X58949500Y-47096530D01*
X58949500Y-47303469D01*
X58989868Y-47506412D01*
X58989870Y-47506420D01*
X59053831Y-47660836D01*
X59069059Y-47697598D01*
X59090423Y-47729572D01*
X59101941Y-47746810D01*
X59122818Y-47813488D01*
X59104333Y-47880868D01*
X59052353Y-47927557D01*
X58998838Y-47939700D01*
X56995782Y-47939700D01*
X56887563Y-47968697D01*
X56887560Y-47968698D01*
X56790540Y-48024713D01*
X56790534Y-48024717D01*
X49657771Y-55157481D01*
X49596448Y-55190966D01*
X49570090Y-55193800D01*
X40885610Y-55193800D01*
X40818571Y-55174115D01*
X40772816Y-55121311D01*
X40762872Y-55052153D01*
X40791897Y-54988597D01*
X40797929Y-54982119D01*
X41370437Y-54409611D01*
X43095769Y-52684277D01*
X43157090Y-52650794D01*
X43207640Y-52650343D01*
X43319528Y-52672600D01*
X43319531Y-52672600D01*
X43447671Y-52672600D01*
X43559559Y-52650343D01*
X43573344Y-52647601D01*
X43691727Y-52598565D01*
X43798269Y-52527376D01*
X43888876Y-52436769D01*
X43960065Y-52330227D01*
X44009101Y-52211844D01*
X44017282Y-52170715D01*
X44034100Y-52086171D01*
X44034100Y-51958028D01*
X44009102Y-51832361D01*
X44009101Y-51832360D01*
X44009101Y-51832356D01*
X43960065Y-51713973D01*
X43960064Y-51713972D01*
X43960061Y-51713966D01*
X43888876Y-51607431D01*
X43888873Y-51607427D01*
X43798272Y-51516826D01*
X43798268Y-51516823D01*
X43775086Y-51501333D01*
X43730281Y-51447720D01*
X43721574Y-51378395D01*
X43751729Y-51315368D01*
X43756275Y-51310571D01*
X44684329Y-50382519D01*
X44745652Y-50349034D01*
X44772010Y-50346200D01*
X47148916Y-50346200D01*
X47148918Y-50346200D01*
X47257137Y-50317203D01*
X47354163Y-50261185D01*
X50629030Y-46986317D01*
X50690351Y-46952834D01*
X50716709Y-46950000D01*
X51624722Y-46950000D01*
X51580667Y-47026306D01*
X51550000Y-47140756D01*
X51550000Y-47259244D01*
X51580667Y-47373694D01*
X51624722Y-47450000D01*
X50700001Y-47450000D01*
X50700001Y-48131479D01*
X50714835Y-48225149D01*
X50714837Y-48225155D01*
X50772356Y-48338041D01*
X50772363Y-48338050D01*
X50861949Y-48427636D01*
X50861953Y-48427639D01*
X50974855Y-48485166D01*
X51068514Y-48499999D01*
X51749999Y-48499999D01*
X51750000Y-48499998D01*
X51750000Y-47575277D01*
X51826306Y-47619333D01*
X51940756Y-47650000D01*
X52059244Y-47650000D01*
X52173694Y-47619333D01*
X52250000Y-47575277D01*
X52250000Y-48499999D01*
X52931479Y-48499999D01*
X53025149Y-48485164D01*
X53025155Y-48485162D01*
X53138041Y-48427643D01*
X53138050Y-48427636D01*
X53227636Y-48338050D01*
X53227639Y-48338046D01*
X53285166Y-48225144D01*
X53299999Y-48131485D01*
X53299999Y-47917333D01*
X53319683Y-47850293D01*
X53372487Y-47804538D01*
X53441645Y-47794594D01*
X53505201Y-47823619D01*
X53524316Y-47844446D01*
X53585314Y-47928400D01*
X53624310Y-47982073D01*
X53757927Y-48115690D01*
X53910801Y-48226760D01*
X53957392Y-48250499D01*
X54079163Y-48312545D01*
X54079165Y-48312545D01*
X54079168Y-48312547D01*
X54157658Y-48338050D01*
X54258881Y-48370940D01*
X54445514Y-48400500D01*
X54445519Y-48400500D01*
X54634486Y-48400500D01*
X54821118Y-48370940D01*
X54822623Y-48370451D01*
X55000832Y-48312547D01*
X55169199Y-48226760D01*
X55322073Y-48115690D01*
X55455690Y-47982073D01*
X55566760Y-47829199D01*
X55652547Y-47660832D01*
X55710940Y-47481118D01*
X55714649Y-47457701D01*
X55740500Y-47294486D01*
X55740500Y-47105513D01*
X55710940Y-46918881D01*
X55665019Y-46777552D01*
X55652547Y-46739168D01*
X55652545Y-46739165D01*
X55652545Y-46739163D01*
X55596423Y-46629018D01*
X55566760Y-46570801D01*
X55455690Y-46417927D01*
X55322073Y-46284310D01*
X55169199Y-46173240D01*
X55154281Y-46165639D01*
X55000836Y-46087454D01*
X54821118Y-46029059D01*
X54634486Y-45999500D01*
X54634481Y-45999500D01*
X54445519Y-45999500D01*
X54445514Y-45999500D01*
X54258881Y-46029059D01*
X54079163Y-46087454D01*
X53910800Y-46173240D01*
X53823579Y-46236610D01*
X53757927Y-46284310D01*
X53757925Y-46284312D01*
X53757924Y-46284312D01*
X53624312Y-46417924D01*
X53624305Y-46417933D01*
X53524316Y-46555554D01*
X53468986Y-46598220D01*
X53399373Y-46604198D01*
X53337578Y-46571592D01*
X53303221Y-46510753D01*
X53299999Y-46482668D01*
X53299999Y-46268520D01*
X53285164Y-46174850D01*
X53285162Y-46174844D01*
X53227643Y-46061958D01*
X53227636Y-46061949D01*
X53138050Y-45972363D01*
X53138046Y-45972360D01*
X53025144Y-45914833D01*
X52931486Y-45900000D01*
X52250000Y-45900000D01*
X52250000Y-46824722D01*
X52173694Y-46780667D01*
X52059244Y-46750000D01*
X51940756Y-46750000D01*
X51826306Y-46780667D01*
X51750000Y-46824722D01*
X51750000Y-45916709D01*
X51758644Y-45887268D01*
X51765168Y-45857282D01*
X51768922Y-45852266D01*
X51769685Y-45849670D01*
X51786314Y-45829033D01*
X56245429Y-41369919D01*
X56306752Y-41336434D01*
X56333110Y-41333600D01*
X66943389Y-41333600D01*
X67010428Y-41353285D01*
G37*
%TD.AperFunction*%
%TA.AperFunction,Conductor*%
G36*
X70963304Y-27152293D02*
G01*
X70969566Y-27151118D01*
X70996423Y-27162018D01*
X71024230Y-27170184D01*
X71028401Y-27174998D01*
X71034306Y-27177395D01*
X71051008Y-27201087D01*
X71069985Y-27222988D01*
X71070891Y-27229292D01*
X71074563Y-27234501D01*
X71075804Y-27263458D01*
X71079929Y-27292146D01*
X71077282Y-27297941D01*
X71077555Y-27304307D01*
X71062944Y-27329336D01*
X71050904Y-27355702D01*
X71044738Y-27360527D01*
X71042332Y-27364649D01*
X71013485Y-27384984D01*
X70844863Y-27470899D01*
X70844859Y-27470902D01*
X70809873Y-27496320D01*
X70809872Y-27496320D01*
X71370590Y-28057037D01*
X71307007Y-28074075D01*
X71192993Y-28139901D01*
X71099901Y-28232993D01*
X71034075Y-28347007D01*
X71017037Y-28410590D01*
X70456320Y-27849872D01*
X70456320Y-27849873D01*
X70430902Y-27884859D01*
X70430899Y-27884863D01*
X70341582Y-28060161D01*
X70280778Y-28247294D01*
X70250000Y-28441617D01*
X70250000Y-28638382D01*
X70280778Y-28832705D01*
X70341581Y-29019835D01*
X70430905Y-29195145D01*
X70456319Y-29230125D01*
X70456320Y-29230125D01*
X71017037Y-28669408D01*
X71034075Y-28732993D01*
X71099901Y-28847007D01*
X71192993Y-28940099D01*
X71307007Y-29005925D01*
X71370589Y-29022962D01*
X70809873Y-29583677D01*
X70809873Y-29583678D01*
X70844858Y-29609096D01*
X71020164Y-29698418D01*
X71088917Y-29720758D01*
X71146593Y-29760196D01*
X71173791Y-29824554D01*
X71161876Y-29893401D01*
X71138280Y-29926370D01*
X70043037Y-31021615D01*
X69963817Y-31100834D01*
X69963813Y-31100840D01*
X69907798Y-31197860D01*
X69907797Y-31197863D01*
X69878800Y-31306082D01*
X69878800Y-35383890D01*
X69859115Y-35450929D01*
X69842481Y-35471571D01*
X65851271Y-39462781D01*
X65789948Y-39496266D01*
X65763590Y-39499100D01*
X60198610Y-39499100D01*
X60131571Y-39479415D01*
X60085816Y-39426611D01*
X60075872Y-39357453D01*
X60104897Y-39293897D01*
X60110929Y-39287419D01*
X61815629Y-37582719D01*
X61876952Y-37549234D01*
X61903310Y-37546400D01*
X61964771Y-37546400D01*
X62049315Y-37529582D01*
X62090444Y-37521401D01*
X62208827Y-37472365D01*
X62315369Y-37401176D01*
X62405976Y-37310569D01*
X62477165Y-37204027D01*
X62526201Y-37085644D01*
X62543337Y-36999500D01*
X62551200Y-36959971D01*
X62551200Y-36831828D01*
X62526202Y-36706161D01*
X62526201Y-36706160D01*
X62526201Y-36706156D01*
X62477165Y-36587773D01*
X62477164Y-36587772D01*
X62477161Y-36587766D01*
X62405976Y-36481231D01*
X62405973Y-36481227D01*
X62315372Y-36390626D01*
X62315368Y-36390623D01*
X62208833Y-36319438D01*
X62208824Y-36319433D01*
X62090444Y-36270399D01*
X62090438Y-36270397D01*
X61964771Y-36245400D01*
X61964769Y-36245400D01*
X61836631Y-36245400D01*
X61836629Y-36245400D01*
X61710961Y-36270397D01*
X61710955Y-36270399D01*
X61592575Y-36319433D01*
X61592566Y-36319438D01*
X61486031Y-36390623D01*
X61486027Y-36390626D01*
X61395426Y-36481227D01*
X61395423Y-36481231D01*
X61324238Y-36587766D01*
X61324233Y-36587775D01*
X61275199Y-36706155D01*
X61275197Y-36706161D01*
X61250200Y-36831828D01*
X61250200Y-36893290D01*
X61230515Y-36960329D01*
X61213881Y-36980971D01*
X59138871Y-39055981D01*
X59077548Y-39089466D01*
X59051190Y-39092300D01*
X55873404Y-39092300D01*
X55806365Y-39072615D01*
X55760610Y-39019811D01*
X55750666Y-38950653D01*
X55779691Y-38887097D01*
X55785723Y-38880619D01*
X55799042Y-38867300D01*
X55849414Y-38816928D01*
X55951232Y-38676788D01*
X56029873Y-38522445D01*
X56083402Y-38357701D01*
X56110500Y-38186611D01*
X56110500Y-38013389D01*
X56083402Y-37842299D01*
X56029873Y-37677555D01*
X55951232Y-37523212D01*
X55849414Y-37383072D01*
X55726928Y-37260586D01*
X55586788Y-37158768D01*
X55432445Y-37080127D01*
X55267701Y-37026598D01*
X55267699Y-37026597D01*
X55267698Y-37026597D01*
X55136271Y-37005781D01*
X55096611Y-36999500D01*
X54123389Y-36999500D01*
X54083728Y-37005781D01*
X53952302Y-37026597D01*
X53787552Y-37080128D01*
X53633211Y-37158768D01*
X53553256Y-37216859D01*
X53493072Y-37260586D01*
X53493070Y-37260588D01*
X53493069Y-37260588D01*
X53370588Y-37383069D01*
X53370588Y-37383070D01*
X53370586Y-37383072D01*
X53333738Y-37433789D01*
X53268768Y-37523211D01*
X53190128Y-37677552D01*
X53136597Y-37842302D01*
X53109500Y-38013389D01*
X53109500Y-38186610D01*
X53130337Y-38318174D01*
X53136598Y-38357701D01*
X53181697Y-38496501D01*
X53190128Y-38522447D01*
X53207850Y-38557229D01*
X53268768Y-38676788D01*
X53370586Y-38816928D01*
X53370588Y-38816930D01*
X53434277Y-38880619D01*
X53467762Y-38941942D01*
X53462778Y-39011634D01*
X53420906Y-39067567D01*
X53355442Y-39091984D01*
X53346596Y-39092300D01*
X48394119Y-39092300D01*
X48327080Y-39072615D01*
X48281325Y-39019811D01*
X48271381Y-38950653D01*
X48300406Y-38887097D01*
X48304448Y-38882755D01*
X48305314Y-38881741D01*
X48416329Y-38728940D01*
X48502085Y-38560637D01*
X48560451Y-38381002D01*
X48565362Y-38350000D01*
X47305686Y-38350000D01*
X47310080Y-38345606D01*
X47362741Y-38254394D01*
X47390000Y-38152661D01*
X47390000Y-38047339D01*
X47362741Y-37945606D01*
X47310080Y-37854394D01*
X47305686Y-37850000D01*
X48565362Y-37850000D01*
X48560451Y-37818997D01*
X48502084Y-37639360D01*
X48498486Y-37632298D01*
X48485588Y-37563629D01*
X48511862Y-37498888D01*
X48568968Y-37458629D01*
X48608969Y-37452000D01*
X48677016Y-37452000D01*
X48677018Y-37452000D01*
X48785237Y-37423003D01*
X48882263Y-37366985D01*
X51302429Y-34946819D01*
X51363752Y-34913334D01*
X51390110Y-34910500D01*
X53103467Y-34910500D01*
X53170506Y-34930185D01*
X53216261Y-34982989D01*
X53226205Y-35052147D01*
X53213952Y-35090794D01*
X53190129Y-35137549D01*
X53136597Y-35302302D01*
X53120236Y-35405606D01*
X53109500Y-35473389D01*
X53109500Y-35646611D01*
X53136598Y-35817701D01*
X53190127Y-35982445D01*
X53268768Y-36136788D01*
X53370586Y-36276928D01*
X53493072Y-36399414D01*
X53633212Y-36501232D01*
X53787555Y-36579873D01*
X53952299Y-36633402D01*
X54123389Y-36660500D01*
X54123390Y-36660500D01*
X55096610Y-36660500D01*
X55096611Y-36660500D01*
X55267701Y-36633402D01*
X55432445Y-36579873D01*
X55586788Y-36501232D01*
X55726928Y-36399414D01*
X55849414Y-36276928D01*
X55951232Y-36136788D01*
X56029873Y-35982445D01*
X56083402Y-35817701D01*
X56110500Y-35646611D01*
X56110500Y-35473389D01*
X56083402Y-35302299D01*
X56029873Y-35137555D01*
X56029870Y-35137549D01*
X56006048Y-35090794D01*
X55993152Y-35022125D01*
X56019429Y-34957385D01*
X56076535Y-34917128D01*
X56116533Y-34910500D01*
X58071795Y-34910500D01*
X58138834Y-34930185D01*
X58184589Y-34982989D01*
X58194533Y-35052147D01*
X58182280Y-35090795D01*
X58177914Y-35099362D01*
X58119548Y-35278997D01*
X58114638Y-35310000D01*
X59374314Y-35310000D01*
X59369920Y-35314394D01*
X59317259Y-35405606D01*
X59290000Y-35507339D01*
X59290000Y-35612661D01*
X59317259Y-35714394D01*
X59369920Y-35805606D01*
X59374314Y-35810000D01*
X58114638Y-35810000D01*
X58119548Y-35841002D01*
X58177914Y-36020637D01*
X58263670Y-36188940D01*
X58374685Y-36341741D01*
X58374689Y-36341746D01*
X58508253Y-36475310D01*
X58508258Y-36475314D01*
X58661059Y-36586329D01*
X58829362Y-36672085D01*
X59008997Y-36730451D01*
X59195553Y-36760000D01*
X59440000Y-36760000D01*
X59440000Y-35875686D01*
X59444394Y-35880080D01*
X59535606Y-35932741D01*
X59637339Y-35960000D01*
X59742661Y-35960000D01*
X59844394Y-35932741D01*
X59935606Y-35880080D01*
X59940000Y-35875686D01*
X59940000Y-36760000D01*
X60184447Y-36760000D01*
X60371002Y-36730451D01*
X60550637Y-36672085D01*
X60718940Y-36586329D01*
X60871741Y-36475314D01*
X60871746Y-36475310D01*
X61005310Y-36341746D01*
X61005314Y-36341741D01*
X61116329Y-36188940D01*
X61202085Y-36020637D01*
X61260451Y-35841002D01*
X61265362Y-35810000D01*
X60005686Y-35810000D01*
X60010080Y-35805606D01*
X60062741Y-35714394D01*
X60090000Y-35612661D01*
X60090000Y-35507339D01*
X60080903Y-35473389D01*
X65809500Y-35473389D01*
X65809500Y-35646611D01*
X65836598Y-35817701D01*
X65890127Y-35982445D01*
X65968768Y-36136788D01*
X66070586Y-36276928D01*
X66193072Y-36399414D01*
X66333212Y-36501232D01*
X66487555Y-36579873D01*
X66652299Y-36633402D01*
X66823389Y-36660500D01*
X66823390Y-36660500D01*
X67796610Y-36660500D01*
X67796611Y-36660500D01*
X67967701Y-36633402D01*
X68132445Y-36579873D01*
X68286788Y-36501232D01*
X68426928Y-36399414D01*
X68549414Y-36276928D01*
X68651232Y-36136788D01*
X68729873Y-35982445D01*
X68783402Y-35817701D01*
X68810500Y-35646611D01*
X68810500Y-35473389D01*
X68783402Y-35302299D01*
X68729873Y-35137555D01*
X68651232Y-34983212D01*
X68549414Y-34843072D01*
X68426928Y-34720586D01*
X68286788Y-34618768D01*
X68132445Y-34540127D01*
X67967701Y-34486598D01*
X67967699Y-34486597D01*
X67967698Y-34486597D01*
X67836271Y-34465781D01*
X67796611Y-34459500D01*
X66823389Y-34459500D01*
X66783728Y-34465781D01*
X66652302Y-34486597D01*
X66487552Y-34540128D01*
X66333211Y-34618768D01*
X66265508Y-34667958D01*
X66193072Y-34720586D01*
X66193070Y-34720588D01*
X66193069Y-34720588D01*
X66070588Y-34843069D01*
X66070588Y-34843070D01*
X66070586Y-34843072D01*
X66043537Y-34880302D01*
X65968768Y-34983211D01*
X65890128Y-35137552D01*
X65836597Y-35302302D01*
X65820236Y-35405606D01*
X65809500Y-35473389D01*
X60080903Y-35473389D01*
X60062741Y-35405606D01*
X60010080Y-35314394D01*
X60005686Y-35310000D01*
X61265362Y-35310000D01*
X61260451Y-35278997D01*
X61202085Y-35099362D01*
X61197720Y-35090795D01*
X61184824Y-35022126D01*
X61211100Y-34957386D01*
X61268206Y-34917128D01*
X61308205Y-34910500D01*
X62448316Y-34910500D01*
X62448318Y-34910500D01*
X62556537Y-34881503D01*
X62653563Y-34825485D01*
X64545658Y-32933389D01*
X65809500Y-32933389D01*
X65809500Y-33106611D01*
X65836598Y-33277701D01*
X65890127Y-33442445D01*
X65968768Y-33596788D01*
X66070586Y-33736928D01*
X66193072Y-33859414D01*
X66333212Y-33961232D01*
X66487555Y-34039873D01*
X66652299Y-34093402D01*
X66823389Y-34120500D01*
X66823390Y-34120500D01*
X67796610Y-34120500D01*
X67796611Y-34120500D01*
X67967701Y-34093402D01*
X68132445Y-34039873D01*
X68286788Y-33961232D01*
X68426928Y-33859414D01*
X68549414Y-33736928D01*
X68651232Y-33596788D01*
X68729873Y-33442445D01*
X68783402Y-33277701D01*
X68810500Y-33106611D01*
X68810500Y-32933389D01*
X68783402Y-32762299D01*
X68729873Y-32597555D01*
X68651232Y-32443212D01*
X68549414Y-32303072D01*
X68426928Y-32180586D01*
X68286788Y-32078768D01*
X68132445Y-32000127D01*
X67967701Y-31946598D01*
X67967699Y-31946597D01*
X67967698Y-31946597D01*
X67836271Y-31925781D01*
X67796611Y-31919500D01*
X66823389Y-31919500D01*
X66783728Y-31925781D01*
X66652302Y-31946597D01*
X66652299Y-31946598D01*
X66556889Y-31977599D01*
X66487552Y-32000128D01*
X66333211Y-32078768D01*
X66273919Y-32121847D01*
X66193072Y-32180586D01*
X66193070Y-32180588D01*
X66193069Y-32180588D01*
X66070588Y-32303069D01*
X66070588Y-32303070D01*
X66070586Y-32303072D01*
X66051156Y-32329815D01*
X65968768Y-32443211D01*
X65890128Y-32597552D01*
X65890127Y-32597554D01*
X65890127Y-32597555D01*
X65881698Y-32623497D01*
X65836597Y-32762302D01*
X65809500Y-32933389D01*
X64545658Y-32933389D01*
X66098820Y-31380227D01*
X66160141Y-31346744D01*
X66229833Y-31351728D01*
X66259380Y-31367589D01*
X66291032Y-31390586D01*
X66333210Y-31421231D01*
X66333212Y-31421232D01*
X66487555Y-31499873D01*
X66652299Y-31553402D01*
X66823389Y-31580500D01*
X66823390Y-31580500D01*
X67796610Y-31580500D01*
X67796611Y-31580500D01*
X67967701Y-31553402D01*
X68132445Y-31499873D01*
X68286788Y-31421232D01*
X68426928Y-31319414D01*
X68549414Y-31196928D01*
X68651232Y-31056788D01*
X68729873Y-30902445D01*
X68783402Y-30737701D01*
X68810500Y-30566611D01*
X68810500Y-30393389D01*
X68783402Y-30222299D01*
X68729873Y-30057555D01*
X68651232Y-29903212D01*
X68549414Y-29763072D01*
X68426928Y-29640586D01*
X68422859Y-29637630D01*
X68402501Y-29622838D01*
X68359835Y-29567508D01*
X68353857Y-29497895D01*
X68386464Y-29436100D01*
X68387637Y-29434910D01*
X70635729Y-27186818D01*
X70697052Y-27153333D01*
X70723410Y-27150499D01*
X70957191Y-27150499D01*
X70963304Y-27152293D01*
G37*
%TD.AperFunction*%
%TA.AperFunction,Conductor*%
G36*
X45438070Y-37471685D02*
G01*
X45483825Y-37524489D01*
X45493769Y-37593647D01*
X45481514Y-37632298D01*
X45477915Y-37639360D01*
X45419548Y-37818997D01*
X45414638Y-37850000D01*
X46674314Y-37850000D01*
X46669920Y-37854394D01*
X46617259Y-37945606D01*
X46590000Y-38047339D01*
X46590000Y-38152661D01*
X46617259Y-38254394D01*
X46669920Y-38345606D01*
X46674314Y-38350000D01*
X45414638Y-38350000D01*
X45419548Y-38381002D01*
X45477914Y-38560637D01*
X45563670Y-38728940D01*
X45674685Y-38881741D01*
X45677848Y-38885444D01*
X45676721Y-38886405D01*
X45707047Y-38941942D01*
X45702063Y-39011634D01*
X45660191Y-39067567D01*
X45594727Y-39091984D01*
X45585881Y-39092300D01*
X43173404Y-39092300D01*
X43106365Y-39072615D01*
X43060610Y-39019811D01*
X43050666Y-38950653D01*
X43079691Y-38887097D01*
X43085723Y-38880619D01*
X43099042Y-38867300D01*
X43149414Y-38816928D01*
X43251232Y-38676788D01*
X43293819Y-38593204D01*
X43341792Y-38542410D01*
X43404303Y-38525500D01*
X43432716Y-38525500D01*
X43432718Y-38525500D01*
X43540937Y-38496503D01*
X43637963Y-38440485D01*
X44590128Y-37488318D01*
X44651451Y-37454834D01*
X44677809Y-37452000D01*
X45371031Y-37452000D01*
X45438070Y-37471685D01*
G37*
%TD.AperFunction*%
%TD*%
M02*
