M48
; DRILL file KiCad 10.0.4 date 2026-07-26T22:00:25
; FORMAT={-:-/ absolute / metric / decimal}
; #@! TF.CreationDate,2026-07-26T22:00:25-03:00
; #@! TF.GenerationSoftware,Kicad,Pcbnew,10.0.4
; #@! TF.FileFunction,MixedPlating,1,2
FMAT,2
METRIC
; #@! TA.AperFunction,Plated,PTH,ViaDrill
T1C0.350
; #@! TA.AperFunction,Plated,PTH,ComponentDrill
T2C0.700
; #@! TA.AperFunction,Plated,PTH,ComponentDrill
T3C0.800
; #@! TA.AperFunction,Plated,PTH,ComponentDrill
T4C0.900
; #@! TA.AperFunction,Plated,PTH,ComponentDrill
T5C1.000
%
G90
G05
T1
X4.65Y-59.4
X7.2Y-56.9
X9.865Y-49.944
X10.299Y-44.859
X11.092Y-9.046
X12.353Y-57.872
X14.635Y-34.43
X16.385Y-49.944
X18.399Y-46.955
X19.421Y-16.876
X22.298Y-51.417
X23.838Y-58.666
X24.256Y-43.631
X28.368Y-40.052
X29.566Y-22.961
X30.103Y-16.585
X30.798Y-14.163
X37.21Y-43.619
X37.863Y-37.475
X38.367Y-20.111
X38.367Y-33.02
X39.516Y-40.597
X39.595Y-27.983
X39.757Y-34.247
X43.192Y-42.07
X45.219Y-27.181
X45.238Y-14.374
X47.956Y-13.97
X48.219Y-26.506
X48.628Y-15.874
X49.203Y-42.997
X49.962Y-23.502
X50.221Y-34.895
X50.37Y-8.758
X50.462Y-36.037
X50.843Y-43.618
X51.319Y-42.07
X52.828Y-29.467
X52.869Y-18.466
X52.901Y-26.804
X53.085Y-34.558
X53.56Y-41.44
X56.75Y-32.125
X56.75Y-38.976
X57.377Y-24.582
X57.748Y-45.618
X60.176Y-45.731
X60.649Y-58.058
X61.444Y-22.021
X62.458Y-23.821
X63.677Y-30.812
X63.768Y-33.015
X64.311Y-59.687
X64.786Y-34.036
X65.243Y-35.015
X68.87Y-18.898
T2
X60.0Y-47.2
X64.0Y-47.2
T3
X4.0Y-47.2
X5.0Y-53.3
X6.35Y-5.08
X6.35Y-7.62
X6.35Y-10.16
X6.35Y-12.7
X6.35Y-15.24
X6.35Y-17.78
X6.35Y-20.32
X6.35Y-22.86
X6.35Y-25.4
X6.35Y-27.94
X6.35Y-30.48
X6.35Y-33.02
X6.35Y-35.56
X6.35Y-38.1
X6.35Y-40.64
X6.35Y-43.18
X7.54Y-53.3
X9.0Y-47.2
X11.0Y-53.3
X12.0Y-47.2
X13.54Y-53.3
X17.0Y-47.2
X17.0Y-53.3
X19.54Y-53.3
X20.0Y-47.2
X21.59Y-5.08
X21.59Y-7.62
X21.59Y-10.16
X21.59Y-12.7
X21.59Y-15.24
X21.59Y-17.78
X21.59Y-20.32
X21.59Y-22.86
X21.59Y-25.4
X21.59Y-27.94
X21.59Y-30.48
X21.59Y-33.02
X21.59Y-35.56
X21.59Y-38.1
X21.59Y-40.64
X21.59Y-43.18
X23.0Y-53.3
X25.0Y-47.2
X25.54Y-53.3
X26.67Y-7.62
X26.67Y-10.16
X26.67Y-12.7
X26.67Y-15.24
X26.67Y-17.78
X26.67Y-20.32
X26.67Y-22.86
X26.67Y-25.4
X26.67Y-27.94
X26.67Y-30.48
X26.67Y-33.02
X26.67Y-35.56
X26.67Y-38.1
X26.67Y-40.64
X28.0Y-47.2
X33.0Y-47.2
X36.0Y-47.2
X41.0Y-47.2
X41.91Y-7.62
X41.91Y-10.16
X41.91Y-12.7
X41.91Y-15.24
X41.91Y-17.78
X41.91Y-20.32
X41.91Y-22.86
X41.91Y-25.4
X41.91Y-27.94
X41.91Y-30.48
X41.91Y-33.02
X41.91Y-35.56
X41.91Y-38.1
X41.91Y-40.64
X44.0Y-47.2
X46.0Y-47.2
X46.99Y-10.16
X46.99Y-12.7
X46.99Y-15.24
X46.99Y-17.78
X46.99Y-20.32
X46.99Y-22.86
X46.99Y-25.4
X46.99Y-27.94
X46.99Y-30.48
X46.99Y-33.02
X46.99Y-35.56
X46.99Y-38.1
X54.61Y-10.16
X54.61Y-12.7
X54.61Y-15.24
X54.61Y-17.78
X54.61Y-20.32
X54.61Y-22.86
X54.61Y-25.4
X54.61Y-27.94
X54.61Y-30.48
X54.61Y-33.02
X54.61Y-35.56
X54.61Y-38.1
X59.69Y-12.7
X59.69Y-15.24
X59.69Y-17.78
X59.69Y-20.32
X59.69Y-22.86
X59.69Y-25.4
X59.69Y-27.94
X59.69Y-30.48
X59.69Y-33.02
X59.69Y-35.56
X67.31Y-12.7
X67.31Y-15.24
X67.31Y-17.78
X67.31Y-20.32
X67.31Y-22.86
X67.31Y-25.4
X67.31Y-27.94
X67.31Y-30.48
X67.31Y-33.02
X67.31Y-35.56
T4
X52.0Y-47.2
X54.54Y-47.2
T5
X5.08Y-60.96
X5.08Y-63.5
X7.62Y-60.96
X7.62Y-63.5
X10.16Y-60.96
X10.16Y-63.5
X12.7Y-60.96
X12.7Y-63.5
X15.24Y-60.96
X15.24Y-63.5
X17.78Y-60.96
X17.78Y-63.5
X20.32Y-60.96
X20.32Y-63.5
X22.86Y-60.96
X22.86Y-63.5
X25.4Y-60.96
X25.4Y-63.5
X27.94Y-60.96
X27.94Y-63.5
X30.48Y-60.96
X30.48Y-63.5
X33.02Y-60.96
X33.02Y-63.5
X35.56Y-60.96
X35.56Y-63.5
X38.1Y-60.96
X38.1Y-63.5
X40.64Y-60.96
X40.64Y-63.5
X43.18Y-60.96
X43.18Y-63.5
X45.72Y-60.96
X45.72Y-63.5
X48.26Y-60.96
X48.26Y-63.5
X50.8Y-60.96
X50.8Y-63.5
X53.34Y-60.96
X53.34Y-63.5
X55.88Y-60.96
X55.88Y-63.5
X58.42Y-60.96
X58.42Y-63.5
X60.96Y-60.96
X60.96Y-63.5
X63.5Y-60.96
X63.5Y-63.5
X66.04Y-60.96
X66.04Y-63.5
X68.58Y-60.96
X68.58Y-63.5
X71.12Y-60.96
X71.12Y-63.5
X71.5Y-8.0
X71.5Y-10.54
X71.5Y-13.08
X71.5Y-17.0
X71.5Y-19.54
X71.5Y-22.08
X71.5Y-26.0
X71.5Y-28.54
X71.5Y-33.5
X71.5Y-36.04
X73.66Y-60.96
X73.66Y-63.5
M30
