%TF.GenerationSoftware,KiCad,Pcbnew,10.0.4*%
%TF.CreationDate,2026-07-27T01:33:31-03:00*%
%TF.ProjectId,tkmem128,746b6d65-6d31-4323-982e-6b696361645f,rev?*%
%TF.SameCoordinates,Original*%
%TF.FileFunction,Drillmap*%
%TF.FilePolarity,Positive*%
%FSLAX45Y45*%
G04 Gerber Fmt 4.5, Leading zero omitted, Abs format (unit mm)*
G04 Created by KiCad (PCBNEW 10.0.4) date 2026-07-27 01:33:31*
%MOMM*%
%LPD*%
G01*
G04 APERTURE LIST*
%ADD10C,0.100000*%
%ADD11C,0.200000*%
%ADD12C,0.102000*%
G04 APERTURE END LIST*
D10*
X0Y0D02*
X0Y-6604000D01*
X0Y0D02*
X7874000Y0D01*
X0Y-6604000D02*
X7874000Y-6604000D01*
X7874000Y0D02*
X7874000Y-6604000D01*
D11*
D10*
X974460Y-4558860D02*
X1009460Y-4593860D01*
X1009460Y-4558860D02*
X974460Y-4593860D01*
X1421970Y-4472930D02*
X1456970Y-4507930D01*
X1456970Y-4472930D02*
X1421970Y-4507930D01*
X1642790Y-6244000D02*
X1677790Y-6279000D01*
X1677790Y-6244000D02*
X1642790Y-6279000D01*
X2903340Y-3676450D02*
X2938340Y-3711450D01*
X2938340Y-3676450D02*
X2903340Y-3711450D01*
X2957960Y-5699120D02*
X2992960Y-5734120D01*
X2992960Y-5699120D02*
X2957960Y-5734120D01*
X3156400Y-6266510D02*
X3191400Y-6301510D01*
X3191400Y-6266510D02*
X3156400Y-6301510D01*
X3168690Y-1461140D02*
X3203690Y-1496140D01*
X3203690Y-1461140D02*
X3168690Y-1496140D01*
X3184630Y-1771440D02*
X3219630Y-1806440D01*
X3219630Y-1771440D02*
X3184630Y-1806440D01*
X3257320Y-3421500D02*
X3292320Y-3456500D01*
X3292320Y-3421500D02*
X3257320Y-3456500D01*
X3271460Y-5662030D02*
X3306460Y-5697030D01*
X3306460Y-5662030D02*
X3271460Y-5697030D01*
X3296460Y-4337200D02*
X3331460Y-4372200D01*
X3331460Y-4337200D02*
X3296460Y-4372200D01*
X3298250Y-5374400D02*
X3333250Y-5409400D01*
X3333250Y-5374400D02*
X3298250Y-5409400D01*
X3641500Y-5454500D02*
X3676500Y-5489500D01*
X3676500Y-5454500D02*
X3641500Y-5489500D01*
X3647030Y-6183990D02*
X3682030Y-6218990D01*
X3682030Y-6183990D02*
X3647030Y-6218990D01*
X3871690Y-1901130D02*
X3906690Y-1936130D01*
X3906690Y-1901130D02*
X3871690Y-1936130D01*
X3883250Y-6221220D02*
X3918250Y-6256220D01*
X3918250Y-6221220D02*
X3883250Y-6256220D01*
X3941240Y-4091940D02*
X3976240Y-4126940D01*
X3976240Y-4091940D02*
X3941240Y-4126940D01*
X4268640Y-4345650D02*
X4303640Y-4380650D01*
X4303640Y-4345650D02*
X4268640Y-4380650D01*
X4458340Y-4161030D02*
X4493340Y-4196030D01*
X4493340Y-4161030D02*
X4458340Y-4196030D01*
X4458970Y-3540440D02*
X4493970Y-3575440D01*
X4493970Y-3540440D02*
X4458970Y-3575440D01*
X4508830Y-1079460D02*
X4543830Y-1114460D01*
X4543830Y-1079460D02*
X4508830Y-1114460D01*
X4688940Y-4967130D02*
X4723940Y-5002130D01*
X4723940Y-4967130D02*
X4688940Y-5002130D01*
X4800130Y-4096510D02*
X4835130Y-4131510D01*
X4835130Y-4096510D02*
X4800130Y-4131510D01*
X4896730Y-3211470D02*
X4931730Y-3246470D01*
X4931730Y-3211470D02*
X4896730Y-3246470D01*
X4910460Y-1588290D02*
X4945460Y-1623290D01*
X4945460Y-1588290D02*
X4910460Y-1623290D01*
X4910460Y-2203130D02*
X4945460Y-2238130D01*
X4945460Y-2203130D02*
X4910460Y-2238130D01*
X5034910Y-4967130D02*
X5069910Y-5002130D01*
X5069910Y-4967130D02*
X5034910Y-5002130D01*
X5245140Y-3555110D02*
X5280140Y-3590110D01*
X5280140Y-3555110D02*
X5245140Y-3590110D01*
X5275980Y-4219920D02*
X5310980Y-4254920D01*
X5310980Y-4219920D02*
X5275980Y-4254920D01*
X5545810Y-876150D02*
X5580810Y-911150D01*
X5580810Y-876150D02*
X5545810Y-911150D01*
X5624150Y-1968200D02*
X5659150Y-2003200D01*
X5659150Y-1968200D02*
X5624150Y-2003200D01*
X5644240Y-2219460D02*
X5679240Y-2254460D01*
X5679240Y-2219460D02*
X5644240Y-2254460D01*
X5691970Y-3017570D02*
X5726970Y-3052570D01*
X5726970Y-3017570D02*
X5691970Y-3052570D01*
X5951990Y-794530D02*
X5986990Y-829530D01*
X5986990Y-794530D02*
X5951990Y-829530D01*
X6015290Y-736920D02*
X6050290Y-771920D01*
X6050290Y-736920D02*
X6015290Y-771920D01*
X6254710Y-6329890D02*
X6289710Y-6364890D01*
X6289710Y-6329890D02*
X6254710Y-6364890D01*
X6368270Y-6134850D02*
X6403270Y-6169850D01*
X6403270Y-6134850D02*
X6368270Y-6169850D01*
X6448700Y-2121000D02*
X6483700Y-2156000D01*
X6483700Y-2121000D02*
X6448700Y-2156000D01*
X6459300Y-3197200D02*
X6494300Y-3232200D01*
X6494300Y-3197200D02*
X6459300Y-3232200D01*
X6521630Y-3136710D02*
X6556630Y-3171710D01*
X6556630Y-3136710D02*
X6521630Y-3171710D01*
X6527130Y-6122530D02*
X6562130Y-6157530D01*
X6562130Y-6122530D02*
X6527130Y-6157530D01*
X6812690Y-1887500D02*
X6847690Y-1922500D01*
X6847690Y-1887500D02*
X6812690Y-1922500D01*
X6971480Y-2120710D02*
X7006480Y-2155710D01*
X7006480Y-2120710D02*
X6971480Y-2155710D01*
X7267960Y-3474330D02*
X7302960Y-3509330D01*
X7302960Y-3474330D02*
X7267960Y-3509330D01*
X3709350Y-4544470D02*
G75*
G02*
X3664350Y-4544470I-22500J0D01*
G01*
X3664350Y-4544470D02*
G75*
G02*
X3709350Y-4544470I22500J0D01*
G01*
X6000000Y-4685000D02*
X6000000Y-4755000D01*
X5965000Y-4720000D02*
X6035000Y-4720000D01*
X6400000Y-4685000D02*
X6400000Y-4755000D01*
X6365000Y-4720000D02*
X6435000Y-4720000D01*
X428284Y-4748285D02*
X428284Y-4691716D01*
X371715Y-4691716D01*
X371715Y-4748285D01*
X428284Y-4748285D01*
X528285Y-5358285D02*
X528285Y-5301716D01*
X471715Y-5301716D01*
X471715Y-5358285D01*
X528285Y-5358285D01*
X663285Y-536285D02*
X663285Y-479715D01*
X606716Y-479715D01*
X606716Y-536285D01*
X663285Y-536285D01*
X663285Y-790284D02*
X663285Y-733715D01*
X606716Y-733715D01*
X606716Y-790284D01*
X663285Y-790284D01*
X663285Y-1044284D02*
X663285Y-987715D01*
X606716Y-987715D01*
X606716Y-1044284D01*
X663285Y-1044284D01*
X663285Y-1298285D02*
X663285Y-1241716D01*
X606716Y-1241716D01*
X606716Y-1298285D01*
X663285Y-1298285D01*
X663285Y-1552284D02*
X663285Y-1495715D01*
X606716Y-1495715D01*
X606716Y-1552284D01*
X663285Y-1552284D01*
X663285Y-1806284D02*
X663285Y-1749715D01*
X606716Y-1749715D01*
X606716Y-1806284D01*
X663285Y-1806284D01*
X663285Y-2060284D02*
X663285Y-2003715D01*
X606716Y-2003715D01*
X606716Y-2060284D01*
X663285Y-2060284D01*
X663285Y-2314285D02*
X663285Y-2257716D01*
X606716Y-2257716D01*
X606716Y-2314285D01*
X663285Y-2314285D01*
X663285Y-2568285D02*
X663285Y-2511716D01*
X606716Y-2511716D01*
X606716Y-2568285D01*
X663285Y-2568285D01*
X663285Y-2822284D02*
X663285Y-2765716D01*
X606716Y-2765716D01*
X606716Y-2822284D01*
X663285Y-2822284D01*
X663285Y-3076284D02*
X663285Y-3019715D01*
X606716Y-3019715D01*
X606716Y-3076284D01*
X663285Y-3076284D01*
X663285Y-3330284D02*
X663285Y-3273715D01*
X606716Y-3273715D01*
X606716Y-3330284D01*
X663285Y-3330284D01*
X663285Y-3584284D02*
X663285Y-3527715D01*
X606716Y-3527715D01*
X606716Y-3584284D01*
X663285Y-3584284D01*
X663285Y-3838284D02*
X663285Y-3781715D01*
X606716Y-3781715D01*
X606716Y-3838284D01*
X663285Y-3838284D01*
X663285Y-4092284D02*
X663285Y-4035715D01*
X606716Y-4035715D01*
X606716Y-4092284D01*
X663285Y-4092284D01*
X663285Y-4346285D02*
X663285Y-4289716D01*
X606716Y-4289716D01*
X606716Y-4346285D01*
X663285Y-4346285D01*
X782284Y-5358285D02*
X782284Y-5301716D01*
X725715Y-5301716D01*
X725715Y-5358285D01*
X782284Y-5358285D01*
X928284Y-4748285D02*
X928284Y-4691716D01*
X871715Y-4691716D01*
X871715Y-4748285D01*
X928284Y-4748285D01*
X1128285Y-5358285D02*
X1128285Y-5301716D01*
X1071716Y-5301716D01*
X1071716Y-5358285D01*
X1128285Y-5358285D01*
X1228285Y-4748285D02*
X1228285Y-4691716D01*
X1171716Y-4691716D01*
X1171716Y-4748285D01*
X1228285Y-4748285D01*
X1382285Y-5358285D02*
X1382285Y-5301716D01*
X1325716Y-5301716D01*
X1325716Y-5358285D01*
X1382285Y-5358285D01*
X1728284Y-4748285D02*
X1728284Y-4691716D01*
X1671715Y-4691716D01*
X1671715Y-4748285D01*
X1728284Y-4748285D01*
X1728284Y-5358285D02*
X1728284Y-5301716D01*
X1671715Y-5301716D01*
X1671715Y-5358285D01*
X1728284Y-5358285D01*
X1982284Y-5358285D02*
X1982284Y-5301716D01*
X1925715Y-5301716D01*
X1925715Y-5358285D01*
X1982284Y-5358285D01*
X2028284Y-4748285D02*
X2028284Y-4691716D01*
X1971715Y-4691716D01*
X1971715Y-4748285D01*
X2028284Y-4748285D01*
X2187285Y-536285D02*
X2187285Y-479715D01*
X2130716Y-479715D01*
X2130716Y-536285D01*
X2187285Y-536285D01*
X2187285Y-790284D02*
X2187285Y-733715D01*
X2130716Y-733715D01*
X2130716Y-790284D01*
X2187285Y-790284D01*
X2187285Y-1044284D02*
X2187285Y-987715D01*
X2130716Y-987715D01*
X2130716Y-1044284D01*
X2187285Y-1044284D01*
X2187285Y-1298285D02*
X2187285Y-1241716D01*
X2130716Y-1241716D01*
X2130716Y-1298285D01*
X2187285Y-1298285D01*
X2187285Y-1552284D02*
X2187285Y-1495715D01*
X2130716Y-1495715D01*
X2130716Y-1552284D01*
X2187285Y-1552284D01*
X2187285Y-1806284D02*
X2187285Y-1749715D01*
X2130716Y-1749715D01*
X2130716Y-1806284D01*
X2187285Y-1806284D01*
X2187285Y-2060284D02*
X2187285Y-2003715D01*
X2130716Y-2003715D01*
X2130716Y-2060284D01*
X2187285Y-2060284D01*
X2187285Y-2314285D02*
X2187285Y-2257716D01*
X2130716Y-2257716D01*
X2130716Y-2314285D01*
X2187285Y-2314285D01*
X2187285Y-2568285D02*
X2187285Y-2511716D01*
X2130716Y-2511716D01*
X2130716Y-2568285D01*
X2187285Y-2568285D01*
X2187285Y-2822284D02*
X2187285Y-2765716D01*
X2130716Y-2765716D01*
X2130716Y-2822284D01*
X2187285Y-2822284D01*
X2187285Y-3076284D02*
X2187285Y-3019715D01*
X2130716Y-3019715D01*
X2130716Y-3076284D01*
X2187285Y-3076284D01*
X2187285Y-3330284D02*
X2187285Y-3273715D01*
X2130716Y-3273715D01*
X2130716Y-3330284D01*
X2187285Y-3330284D01*
X2187285Y-3584284D02*
X2187285Y-3527715D01*
X2130716Y-3527715D01*
X2130716Y-3584284D01*
X2187285Y-3584284D01*
X2187285Y-3838284D02*
X2187285Y-3781715D01*
X2130716Y-3781715D01*
X2130716Y-3838284D01*
X2187285Y-3838284D01*
X2187285Y-4092284D02*
X2187285Y-4035715D01*
X2130716Y-4035715D01*
X2130716Y-4092284D01*
X2187285Y-4092284D01*
X2187285Y-4346285D02*
X2187285Y-4289716D01*
X2130716Y-4289716D01*
X2130716Y-4346285D01*
X2187285Y-4346285D01*
X2328285Y-5358285D02*
X2328285Y-5301716D01*
X2271716Y-5301716D01*
X2271716Y-5358285D01*
X2328285Y-5358285D01*
X2528285Y-4748285D02*
X2528285Y-4691716D01*
X2471716Y-4691716D01*
X2471716Y-4748285D01*
X2528285Y-4748285D01*
X2582285Y-5358285D02*
X2582285Y-5301716D01*
X2525716Y-5301716D01*
X2525716Y-5358285D01*
X2582285Y-5358285D01*
X2695285Y-790284D02*
X2695285Y-733715D01*
X2638716Y-733715D01*
X2638716Y-790284D01*
X2695285Y-790284D01*
X2695285Y-1044284D02*
X2695285Y-987715D01*
X2638716Y-987715D01*
X2638716Y-1044284D01*
X2695285Y-1044284D01*
X2695285Y-1298285D02*
X2695285Y-1241716D01*
X2638716Y-1241716D01*
X2638716Y-1298285D01*
X2695285Y-1298285D01*
X2695285Y-1552284D02*
X2695285Y-1495715D01*
X2638716Y-1495715D01*
X2638716Y-1552284D01*
X2695285Y-1552284D01*
X2695285Y-1806284D02*
X2695285Y-1749715D01*
X2638716Y-1749715D01*
X2638716Y-1806284D01*
X2695285Y-1806284D01*
X2695285Y-2060284D02*
X2695285Y-2003715D01*
X2638716Y-2003715D01*
X2638716Y-2060284D01*
X2695285Y-2060284D01*
X2695285Y-2314285D02*
X2695285Y-2257716D01*
X2638716Y-2257716D01*
X2638716Y-2314285D01*
X2695285Y-2314285D01*
X2695285Y-2568285D02*
X2695285Y-2511716D01*
X2638716Y-2511716D01*
X2638716Y-2568285D01*
X2695285Y-2568285D01*
X2695285Y-2822284D02*
X2695285Y-2765716D01*
X2638716Y-2765716D01*
X2638716Y-2822284D01*
X2695285Y-2822284D01*
X2695285Y-3076284D02*
X2695285Y-3019715D01*
X2638716Y-3019715D01*
X2638716Y-3076284D01*
X2695285Y-3076284D01*
X2695285Y-3330284D02*
X2695285Y-3273715D01*
X2638716Y-3273715D01*
X2638716Y-3330284D01*
X2695285Y-3330284D01*
X2695285Y-3584284D02*
X2695285Y-3527715D01*
X2638716Y-3527715D01*
X2638716Y-3584284D01*
X2695285Y-3584284D01*
X2695285Y-3838284D02*
X2695285Y-3781715D01*
X2638716Y-3781715D01*
X2638716Y-3838284D01*
X2695285Y-3838284D01*
X2695285Y-4092284D02*
X2695285Y-4035715D01*
X2638716Y-4035715D01*
X2638716Y-4092284D01*
X2695285Y-4092284D01*
X2828284Y-4748285D02*
X2828284Y-4691716D01*
X2771716Y-4691716D01*
X2771716Y-4748285D01*
X2828284Y-4748285D01*
X3328284Y-4748285D02*
X3328284Y-4691716D01*
X3271715Y-4691716D01*
X3271715Y-4748285D01*
X3328284Y-4748285D01*
X3628284Y-4748285D02*
X3628284Y-4691716D01*
X3571715Y-4691716D01*
X3571715Y-4748285D01*
X3628284Y-4748285D01*
X4128284Y-4748285D02*
X4128284Y-4691716D01*
X4071715Y-4691716D01*
X4071715Y-4748285D01*
X4128284Y-4748285D01*
X4219285Y-790284D02*
X4219285Y-733715D01*
X4162715Y-733715D01*
X4162715Y-790284D01*
X4219285Y-790284D01*
X4219285Y-1044284D02*
X4219285Y-987715D01*
X4162715Y-987715D01*
X4162715Y-1044284D01*
X4219285Y-1044284D01*
X4219285Y-1298285D02*
X4219285Y-1241716D01*
X4162715Y-1241716D01*
X4162715Y-1298285D01*
X4219285Y-1298285D01*
X4219285Y-1552284D02*
X4219285Y-1495715D01*
X4162715Y-1495715D01*
X4162715Y-1552284D01*
X4219285Y-1552284D01*
X4219285Y-1806284D02*
X4219285Y-1749715D01*
X4162715Y-1749715D01*
X4162715Y-1806284D01*
X4219285Y-1806284D01*
X4219285Y-2060284D02*
X4219285Y-2003715D01*
X4162715Y-2003715D01*
X4162715Y-2060284D01*
X4219285Y-2060284D01*
X4219285Y-2314285D02*
X4219285Y-2257716D01*
X4162715Y-2257716D01*
X4162715Y-2314285D01*
X4219285Y-2314285D01*
X4219285Y-2568285D02*
X4219285Y-2511716D01*
X4162715Y-2511716D01*
X4162715Y-2568285D01*
X4219285Y-2568285D01*
X4219285Y-2822284D02*
X4219285Y-2765716D01*
X4162715Y-2765716D01*
X4162715Y-2822284D01*
X4219285Y-2822284D01*
X4219285Y-3076284D02*
X4219285Y-3019715D01*
X4162715Y-3019715D01*
X4162715Y-3076284D01*
X4219285Y-3076284D01*
X4219285Y-3330284D02*
X4219285Y-3273715D01*
X4162715Y-3273715D01*
X4162715Y-3330284D01*
X4219285Y-3330284D01*
X4219285Y-3584284D02*
X4219285Y-3527715D01*
X4162715Y-3527715D01*
X4162715Y-3584284D01*
X4219285Y-3584284D01*
X4219285Y-3838284D02*
X4219285Y-3781715D01*
X4162715Y-3781715D01*
X4162715Y-3838284D01*
X4219285Y-3838284D01*
X4219285Y-4092284D02*
X4219285Y-4035715D01*
X4162715Y-4035715D01*
X4162715Y-4092284D01*
X4219285Y-4092284D01*
X4428285Y-4748285D02*
X4428285Y-4691716D01*
X4371716Y-4691716D01*
X4371716Y-4748285D01*
X4428285Y-4748285D01*
X4628285Y-4748285D02*
X4628285Y-4691716D01*
X4571716Y-4691716D01*
X4571716Y-4748285D01*
X4628285Y-4748285D01*
X4727285Y-1044284D02*
X4727285Y-987715D01*
X4670716Y-987715D01*
X4670716Y-1044284D01*
X4727285Y-1044284D01*
X4727285Y-1298285D02*
X4727285Y-1241716D01*
X4670716Y-1241716D01*
X4670716Y-1298285D01*
X4727285Y-1298285D01*
X4727285Y-1552284D02*
X4727285Y-1495715D01*
X4670716Y-1495715D01*
X4670716Y-1552284D01*
X4727285Y-1552284D01*
X4727285Y-1806284D02*
X4727285Y-1749715D01*
X4670716Y-1749715D01*
X4670716Y-1806284D01*
X4727285Y-1806284D01*
X4727285Y-2060284D02*
X4727285Y-2003715D01*
X4670716Y-2003715D01*
X4670716Y-2060284D01*
X4727285Y-2060284D01*
X4727285Y-2314285D02*
X4727285Y-2257716D01*
X4670716Y-2257716D01*
X4670716Y-2314285D01*
X4727285Y-2314285D01*
X4727285Y-2568285D02*
X4727285Y-2511716D01*
X4670716Y-2511716D01*
X4670716Y-2568285D01*
X4727285Y-2568285D01*
X4727285Y-2822284D02*
X4727285Y-2765716D01*
X4670716Y-2765716D01*
X4670716Y-2822284D01*
X4727285Y-2822284D01*
X4727285Y-3076284D02*
X4727285Y-3019715D01*
X4670716Y-3019715D01*
X4670716Y-3076284D01*
X4727285Y-3076284D01*
X4727285Y-3330284D02*
X4727285Y-3273715D01*
X4670716Y-3273715D01*
X4670716Y-3330284D01*
X4727285Y-3330284D01*
X4727285Y-3584284D02*
X4727285Y-3527715D01*
X4670716Y-3527715D01*
X4670716Y-3584284D01*
X4727285Y-3584284D01*
X4727285Y-3838284D02*
X4727285Y-3781715D01*
X4670716Y-3781715D01*
X4670716Y-3838284D01*
X4727285Y-3838284D01*
X5489285Y-1044284D02*
X5489285Y-987715D01*
X5432716Y-987715D01*
X5432716Y-1044284D01*
X5489285Y-1044284D01*
X5489285Y-1298285D02*
X5489285Y-1241716D01*
X5432716Y-1241716D01*
X5432716Y-1298285D01*
X5489285Y-1298285D01*
X5489285Y-1552284D02*
X5489285Y-1495715D01*
X5432716Y-1495715D01*
X5432716Y-1552284D01*
X5489285Y-1552284D01*
X5489285Y-1806284D02*
X5489285Y-1749715D01*
X5432716Y-1749715D01*
X5432716Y-1806284D01*
X5489285Y-1806284D01*
X5489285Y-2060284D02*
X5489285Y-2003715D01*
X5432716Y-2003715D01*
X5432716Y-2060284D01*
X5489285Y-2060284D01*
X5489285Y-2314285D02*
X5489285Y-2257716D01*
X5432716Y-2257716D01*
X5432716Y-2314285D01*
X5489285Y-2314285D01*
X5489285Y-2568285D02*
X5489285Y-2511716D01*
X5432716Y-2511716D01*
X5432716Y-2568285D01*
X5489285Y-2568285D01*
X5489285Y-2822284D02*
X5489285Y-2765716D01*
X5432716Y-2765716D01*
X5432716Y-2822284D01*
X5489285Y-2822284D01*
X5489285Y-3076284D02*
X5489285Y-3019715D01*
X5432716Y-3019715D01*
X5432716Y-3076284D01*
X5489285Y-3076284D01*
X5489285Y-3330284D02*
X5489285Y-3273715D01*
X5432716Y-3273715D01*
X5432716Y-3330284D01*
X5489285Y-3330284D01*
X5489285Y-3584284D02*
X5489285Y-3527715D01*
X5432716Y-3527715D01*
X5432716Y-3584284D01*
X5489285Y-3584284D01*
X5489285Y-3838284D02*
X5489285Y-3781715D01*
X5432716Y-3781715D01*
X5432716Y-3838284D01*
X5489285Y-3838284D01*
X5997284Y-1298285D02*
X5997284Y-1241716D01*
X5940715Y-1241716D01*
X5940715Y-1298285D01*
X5997284Y-1298285D01*
X5997284Y-1552284D02*
X5997284Y-1495715D01*
X5940715Y-1495715D01*
X5940715Y-1552284D01*
X5997284Y-1552284D01*
X5997284Y-1806284D02*
X5997284Y-1749715D01*
X5940715Y-1749715D01*
X5940715Y-1806284D01*
X5997284Y-1806284D01*
X5997284Y-2060284D02*
X5997284Y-2003715D01*
X5940715Y-2003715D01*
X5940715Y-2060284D01*
X5997284Y-2060284D01*
X5997284Y-2314285D02*
X5997284Y-2257716D01*
X5940715Y-2257716D01*
X5940715Y-2314285D01*
X5997284Y-2314285D01*
X5997284Y-2568285D02*
X5997284Y-2511716D01*
X5940715Y-2511716D01*
X5940715Y-2568285D01*
X5997284Y-2568285D01*
X5997284Y-2822284D02*
X5997284Y-2765716D01*
X5940715Y-2765716D01*
X5940715Y-2822284D01*
X5997284Y-2822284D01*
X5997284Y-3076284D02*
X5997284Y-3019715D01*
X5940715Y-3019715D01*
X5940715Y-3076284D01*
X5997284Y-3076284D01*
X5997284Y-3330284D02*
X5997284Y-3273715D01*
X5940715Y-3273715D01*
X5940715Y-3330284D01*
X5997284Y-3330284D01*
X5997284Y-3584284D02*
X5997284Y-3527715D01*
X5940715Y-3527715D01*
X5940715Y-3584284D01*
X5997284Y-3584284D01*
X6759284Y-1298285D02*
X6759284Y-1241716D01*
X6702715Y-1241716D01*
X6702715Y-1298285D01*
X6759284Y-1298285D01*
X6759284Y-1552284D02*
X6759284Y-1495715D01*
X6702715Y-1495715D01*
X6702715Y-1552284D01*
X6759284Y-1552284D01*
X6759284Y-1806284D02*
X6759284Y-1749715D01*
X6702715Y-1749715D01*
X6702715Y-1806284D01*
X6759284Y-1806284D01*
X6759284Y-2060284D02*
X6759284Y-2003715D01*
X6702715Y-2003715D01*
X6702715Y-2060284D01*
X6759284Y-2060284D01*
X6759284Y-2314285D02*
X6759284Y-2257716D01*
X6702715Y-2257716D01*
X6702715Y-2314285D01*
X6759284Y-2314285D01*
X6759284Y-2568285D02*
X6759284Y-2511716D01*
X6702715Y-2511716D01*
X6702715Y-2568285D01*
X6759284Y-2568285D01*
X6759284Y-2822284D02*
X6759284Y-2765716D01*
X6702715Y-2765716D01*
X6702715Y-2822284D01*
X6759284Y-2822284D01*
X6759284Y-3076284D02*
X6759284Y-3019715D01*
X6702715Y-3019715D01*
X6702715Y-3076284D01*
X6759284Y-3076284D01*
X6759284Y-3330284D02*
X6759284Y-3273715D01*
X6702715Y-3273715D01*
X6702715Y-3330284D01*
X6759284Y-3330284D01*
X6759284Y-3584284D02*
X6759284Y-3527715D01*
X6702715Y-3527715D01*
X6702715Y-3584284D01*
X6759284Y-3584284D01*
X5200000Y-4765000D02*
X5245000Y-4720000D01*
X5200000Y-4675000D01*
X5155000Y-4720000D01*
X5200000Y-4765000D01*
X5454000Y-4765000D02*
X5499000Y-4720000D01*
X5454000Y-4675000D01*
X5409000Y-4720000D01*
X5454000Y-4765000D01*
X7100000Y-750000D02*
X7200000Y-850000D01*
X7200000Y-750000D02*
X7100000Y-850000D01*
X7200000Y-800000D02*
G75*
G02*
X7100000Y-800000I-50000J0D01*
G01*
X7100000Y-800000D02*
G75*
G02*
X7200000Y-800000I50000J0D01*
G01*
X7100000Y-1004000D02*
X7200000Y-1104000D01*
X7200000Y-1004000D02*
X7100000Y-1104000D01*
X7200000Y-1054000D02*
G75*
G02*
X7100000Y-1054000I-50000J0D01*
G01*
X7100000Y-1054000D02*
G75*
G02*
X7200000Y-1054000I50000J0D01*
G01*
X7100000Y-1258000D02*
X7200000Y-1358000D01*
X7200000Y-1258000D02*
X7100000Y-1358000D01*
X7200000Y-1308000D02*
G75*
G02*
X7100000Y-1308000I-50000J0D01*
G01*
X7100000Y-1308000D02*
G75*
G02*
X7200000Y-1308000I50000J0D01*
G01*
X7100000Y-1650000D02*
X7200000Y-1750000D01*
X7200000Y-1650000D02*
X7100000Y-1750000D01*
X7200000Y-1700000D02*
G75*
G02*
X7100000Y-1700000I-50000J0D01*
G01*
X7100000Y-1700000D02*
G75*
G02*
X7200000Y-1700000I50000J0D01*
G01*
X7100000Y-1904000D02*
X7200000Y-2004000D01*
X7200000Y-1904000D02*
X7100000Y-2004000D01*
X7200000Y-1954000D02*
G75*
G02*
X7100000Y-1954000I-50000J0D01*
G01*
X7100000Y-1954000D02*
G75*
G02*
X7200000Y-1954000I50000J0D01*
G01*
X7100000Y-2158000D02*
X7200000Y-2258000D01*
X7200000Y-2158000D02*
X7100000Y-2258000D01*
X7200000Y-2208000D02*
G75*
G02*
X7100000Y-2208000I-50000J0D01*
G01*
X7100000Y-2208000D02*
G75*
G02*
X7200000Y-2208000I50000J0D01*
G01*
X7100000Y-2550000D02*
X7200000Y-2650000D01*
X7200000Y-2550000D02*
X7100000Y-2650000D01*
X7200000Y-2600000D02*
G75*
G02*
X7100000Y-2600000I-50000J0D01*
G01*
X7100000Y-2600000D02*
G75*
G02*
X7200000Y-2600000I50000J0D01*
G01*
X7100000Y-2804000D02*
X7200000Y-2904000D01*
X7200000Y-2804000D02*
X7100000Y-2904000D01*
X7200000Y-2854000D02*
G75*
G02*
X7100000Y-2854000I-50000J0D01*
G01*
X7100000Y-2854000D02*
G75*
G02*
X7200000Y-2854000I50000J0D01*
G01*
X7100000Y-3300000D02*
X7200000Y-3400000D01*
X7200000Y-3300000D02*
X7100000Y-3400000D01*
X7200000Y-3350000D02*
G75*
G02*
X7100000Y-3350000I-50000J0D01*
G01*
X7100000Y-3350000D02*
G75*
G02*
X7200000Y-3350000I50000J0D01*
G01*
X7100000Y-3554000D02*
X7200000Y-3654000D01*
X7200000Y-3554000D02*
X7100000Y-3654000D01*
X7200000Y-3604000D02*
G75*
G02*
X7100000Y-3604000I-50000J0D01*
G01*
X7100000Y-3604000D02*
G75*
G02*
X7200000Y-3604000I50000J0D01*
G01*
D12*
X457000Y-5929500D02*
X559000Y-6031500D01*
X559000Y-5929500D02*
X457000Y-6031500D01*
X508000Y-5929500D02*
X508000Y-6031500D01*
X457000Y-5980500D02*
X559000Y-5980500D01*
X457000Y-6414500D02*
X559000Y-6516500D01*
X559000Y-6414500D02*
X457000Y-6516500D01*
X508000Y-6414500D02*
X508000Y-6516500D01*
X457000Y-6465500D02*
X559000Y-6465500D01*
X711000Y-5929500D02*
X813000Y-6031500D01*
X813000Y-5929500D02*
X711000Y-6031500D01*
X762000Y-5929500D02*
X762000Y-6031500D01*
X711000Y-5980500D02*
X813000Y-5980500D01*
X711000Y-6414500D02*
X813000Y-6516500D01*
X813000Y-6414500D02*
X711000Y-6516500D01*
X762000Y-6414500D02*
X762000Y-6516500D01*
X711000Y-6465500D02*
X813000Y-6465500D01*
X965000Y-5929500D02*
X1067000Y-6031500D01*
X1067000Y-5929500D02*
X965000Y-6031500D01*
X1016000Y-5929500D02*
X1016000Y-6031500D01*
X965000Y-5980500D02*
X1067000Y-5980500D01*
X965000Y-6414500D02*
X1067000Y-6516500D01*
X1067000Y-6414500D02*
X965000Y-6516500D01*
X1016000Y-6414500D02*
X1016000Y-6516500D01*
X965000Y-6465500D02*
X1067000Y-6465500D01*
X1219000Y-5929500D02*
X1321000Y-6031500D01*
X1321000Y-5929500D02*
X1219000Y-6031500D01*
X1270000Y-5929500D02*
X1270000Y-6031500D01*
X1219000Y-5980500D02*
X1321000Y-5980500D01*
X1219000Y-6414500D02*
X1321000Y-6516500D01*
X1321000Y-6414500D02*
X1219000Y-6516500D01*
X1270000Y-6414500D02*
X1270000Y-6516500D01*
X1219000Y-6465500D02*
X1321000Y-6465500D01*
X1473000Y-5929500D02*
X1575000Y-6031500D01*
X1575000Y-5929500D02*
X1473000Y-6031500D01*
X1524000Y-5929500D02*
X1524000Y-6031500D01*
X1473000Y-5980500D02*
X1575000Y-5980500D01*
X1473000Y-6414500D02*
X1575000Y-6516500D01*
X1575000Y-6414500D02*
X1473000Y-6516500D01*
X1524000Y-6414500D02*
X1524000Y-6516500D01*
X1473000Y-6465500D02*
X1575000Y-6465500D01*
X1727000Y-5929500D02*
X1829000Y-6031500D01*
X1829000Y-5929500D02*
X1727000Y-6031500D01*
X1778000Y-5929500D02*
X1778000Y-6031500D01*
X1727000Y-5980500D02*
X1829000Y-5980500D01*
X1727000Y-6414500D02*
X1829000Y-6516500D01*
X1829000Y-6414500D02*
X1727000Y-6516500D01*
X1778000Y-6414500D02*
X1778000Y-6516500D01*
X1727000Y-6465500D02*
X1829000Y-6465500D01*
X1981000Y-5929500D02*
X2083000Y-6031500D01*
X2083000Y-5929500D02*
X1981000Y-6031500D01*
X2032000Y-5929500D02*
X2032000Y-6031500D01*
X1981000Y-5980500D02*
X2083000Y-5980500D01*
X1981000Y-6414500D02*
X2083000Y-6516500D01*
X2083000Y-6414500D02*
X1981000Y-6516500D01*
X2032000Y-6414500D02*
X2032000Y-6516500D01*
X1981000Y-6465500D02*
X2083000Y-6465500D01*
X2235000Y-5929500D02*
X2337000Y-6031500D01*
X2337000Y-5929500D02*
X2235000Y-6031500D01*
X2286000Y-5929500D02*
X2286000Y-6031500D01*
X2235000Y-5980500D02*
X2337000Y-5980500D01*
X2235000Y-6414500D02*
X2337000Y-6516500D01*
X2337000Y-6414500D02*
X2235000Y-6516500D01*
X2286000Y-6414500D02*
X2286000Y-6516500D01*
X2235000Y-6465500D02*
X2337000Y-6465500D01*
X2489000Y-5929500D02*
X2591000Y-6031500D01*
X2591000Y-5929500D02*
X2489000Y-6031500D01*
X2540000Y-5929500D02*
X2540000Y-6031500D01*
X2489000Y-5980500D02*
X2591000Y-5980500D01*
X2489000Y-6414500D02*
X2591000Y-6516500D01*
X2591000Y-6414500D02*
X2489000Y-6516500D01*
X2540000Y-6414500D02*
X2540000Y-6516500D01*
X2489000Y-6465500D02*
X2591000Y-6465500D01*
X2743000Y-5929500D02*
X2845000Y-6031500D01*
X2845000Y-5929500D02*
X2743000Y-6031500D01*
X2794000Y-5929500D02*
X2794000Y-6031500D01*
X2743000Y-5980500D02*
X2845000Y-5980500D01*
X2743000Y-6414500D02*
X2845000Y-6516500D01*
X2845000Y-6414500D02*
X2743000Y-6516500D01*
X2794000Y-6414500D02*
X2794000Y-6516500D01*
X2743000Y-6465500D02*
X2845000Y-6465500D01*
X2997000Y-5929500D02*
X3099000Y-6031500D01*
X3099000Y-5929500D02*
X2997000Y-6031500D01*
X3048000Y-5929500D02*
X3048000Y-6031500D01*
X2997000Y-5980500D02*
X3099000Y-5980500D01*
X2997000Y-6414500D02*
X3099000Y-6516500D01*
X3099000Y-6414500D02*
X2997000Y-6516500D01*
X3048000Y-6414500D02*
X3048000Y-6516500D01*
X2997000Y-6465500D02*
X3099000Y-6465500D01*
X3251000Y-5929500D02*
X3353000Y-6031500D01*
X3353000Y-5929500D02*
X3251000Y-6031500D01*
X3302000Y-5929500D02*
X3302000Y-6031500D01*
X3251000Y-5980500D02*
X3353000Y-5980500D01*
X3251000Y-6414500D02*
X3353000Y-6516500D01*
X3353000Y-6414500D02*
X3251000Y-6516500D01*
X3302000Y-6414500D02*
X3302000Y-6516500D01*
X3251000Y-6465500D02*
X3353000Y-6465500D01*
X3505000Y-5929500D02*
X3607000Y-6031500D01*
X3607000Y-5929500D02*
X3505000Y-6031500D01*
X3556000Y-5929500D02*
X3556000Y-6031500D01*
X3505000Y-5980500D02*
X3607000Y-5980500D01*
X3505000Y-6414500D02*
X3607000Y-6516500D01*
X3607000Y-6414500D02*
X3505000Y-6516500D01*
X3556000Y-6414500D02*
X3556000Y-6516500D01*
X3505000Y-6465500D02*
X3607000Y-6465500D01*
X3759000Y-5929500D02*
X3861000Y-6031500D01*
X3861000Y-5929500D02*
X3759000Y-6031500D01*
X3810000Y-5929500D02*
X3810000Y-6031500D01*
X3759000Y-5980500D02*
X3861000Y-5980500D01*
X3759000Y-6414500D02*
X3861000Y-6516500D01*
X3861000Y-6414500D02*
X3759000Y-6516500D01*
X3810000Y-6414500D02*
X3810000Y-6516500D01*
X3759000Y-6465500D02*
X3861000Y-6465500D01*
X4013000Y-5929500D02*
X4115000Y-6031500D01*
X4115000Y-5929500D02*
X4013000Y-6031500D01*
X4064000Y-5929500D02*
X4064000Y-6031500D01*
X4013000Y-5980500D02*
X4115000Y-5980500D01*
X4013000Y-6414500D02*
X4115000Y-6516500D01*
X4115000Y-6414500D02*
X4013000Y-6516500D01*
X4064000Y-6414500D02*
X4064000Y-6516500D01*
X4013000Y-6465500D02*
X4115000Y-6465500D01*
X4267000Y-5929500D02*
X4369000Y-6031500D01*
X4369000Y-5929500D02*
X4267000Y-6031500D01*
X4318000Y-5929500D02*
X4318000Y-6031500D01*
X4267000Y-5980500D02*
X4369000Y-5980500D01*
X4267000Y-6414500D02*
X4369000Y-6516500D01*
X4369000Y-6414500D02*
X4267000Y-6516500D01*
X4318000Y-6414500D02*
X4318000Y-6516500D01*
X4267000Y-6465500D02*
X4369000Y-6465500D01*
X4521000Y-5929500D02*
X4623000Y-6031500D01*
X4623000Y-5929500D02*
X4521000Y-6031500D01*
X4572000Y-5929500D02*
X4572000Y-6031500D01*
X4521000Y-5980500D02*
X4623000Y-5980500D01*
X4521000Y-6414500D02*
X4623000Y-6516500D01*
X4623000Y-6414500D02*
X4521000Y-6516500D01*
X4572000Y-6414500D02*
X4572000Y-6516500D01*
X4521000Y-6465500D02*
X4623000Y-6465500D01*
X4775000Y-5929500D02*
X4877000Y-6031500D01*
X4877000Y-5929500D02*
X4775000Y-6031500D01*
X4826000Y-5929500D02*
X4826000Y-6031500D01*
X4775000Y-5980500D02*
X4877000Y-5980500D01*
X4775000Y-6414500D02*
X4877000Y-6516500D01*
X4877000Y-6414500D02*
X4775000Y-6516500D01*
X4826000Y-6414500D02*
X4826000Y-6516500D01*
X4775000Y-6465500D02*
X4877000Y-6465500D01*
X5029000Y-5929500D02*
X5131000Y-6031500D01*
X5131000Y-5929500D02*
X5029000Y-6031500D01*
X5080000Y-5929500D02*
X5080000Y-6031500D01*
X5029000Y-5980500D02*
X5131000Y-5980500D01*
X5029000Y-6414500D02*
X5131000Y-6516500D01*
X5131000Y-6414500D02*
X5029000Y-6516500D01*
X5080000Y-6414500D02*
X5080000Y-6516500D01*
X5029000Y-6465500D02*
X5131000Y-6465500D01*
X5283000Y-5929500D02*
X5385000Y-6031500D01*
X5385000Y-5929500D02*
X5283000Y-6031500D01*
X5334000Y-5929500D02*
X5334000Y-6031500D01*
X5283000Y-5980500D02*
X5385000Y-5980500D01*
X5283000Y-6414500D02*
X5385000Y-6516500D01*
X5385000Y-6414500D02*
X5283000Y-6516500D01*
X5334000Y-6414500D02*
X5334000Y-6516500D01*
X5283000Y-6465500D02*
X5385000Y-6465500D01*
X5537000Y-5929500D02*
X5639000Y-6031500D01*
X5639000Y-5929500D02*
X5537000Y-6031500D01*
X5588000Y-5929500D02*
X5588000Y-6031500D01*
X5537000Y-5980500D02*
X5639000Y-5980500D01*
X5537000Y-6414500D02*
X5639000Y-6516500D01*
X5639000Y-6414500D02*
X5537000Y-6516500D01*
X5588000Y-6414500D02*
X5588000Y-6516500D01*
X5537000Y-6465500D02*
X5639000Y-6465500D01*
X5791000Y-5929500D02*
X5893000Y-6031500D01*
X5893000Y-5929500D02*
X5791000Y-6031500D01*
X5842000Y-5929500D02*
X5842000Y-6031500D01*
X5791000Y-5980500D02*
X5893000Y-5980500D01*
X5791000Y-6414500D02*
X5893000Y-6516500D01*
X5893000Y-6414500D02*
X5791000Y-6516500D01*
X5842000Y-6414500D02*
X5842000Y-6516500D01*
X5791000Y-6465500D02*
X5893000Y-6465500D01*
X6045000Y-5929500D02*
X6147000Y-6031500D01*
X6147000Y-5929500D02*
X6045000Y-6031500D01*
X6096000Y-5929500D02*
X6096000Y-6031500D01*
X6045000Y-5980500D02*
X6147000Y-5980500D01*
X6045000Y-6414500D02*
X6147000Y-6516500D01*
X6147000Y-6414500D02*
X6045000Y-6516500D01*
X6096000Y-6414500D02*
X6096000Y-6516500D01*
X6045000Y-6465500D02*
X6147000Y-6465500D01*
X6299000Y-5929500D02*
X6401000Y-6031500D01*
X6401000Y-5929500D02*
X6299000Y-6031500D01*
X6350000Y-5929500D02*
X6350000Y-6031500D01*
X6299000Y-5980500D02*
X6401000Y-5980500D01*
X6299000Y-6414500D02*
X6401000Y-6516500D01*
X6401000Y-6414500D02*
X6299000Y-6516500D01*
X6350000Y-6414500D02*
X6350000Y-6516500D01*
X6299000Y-6465500D02*
X6401000Y-6465500D01*
X6553000Y-5929500D02*
X6655000Y-6031500D01*
X6655000Y-5929500D02*
X6553000Y-6031500D01*
X6604000Y-5929500D02*
X6604000Y-6031500D01*
X6553000Y-5980500D02*
X6655000Y-5980500D01*
X6553000Y-6414500D02*
X6655000Y-6516500D01*
X6655000Y-6414500D02*
X6553000Y-6516500D01*
X6604000Y-6414500D02*
X6604000Y-6516500D01*
X6553000Y-6465500D02*
X6655000Y-6465500D01*
X6807000Y-5929500D02*
X6909000Y-6031500D01*
X6909000Y-5929500D02*
X6807000Y-6031500D01*
X6858000Y-5929500D02*
X6858000Y-6031500D01*
X6807000Y-5980500D02*
X6909000Y-5980500D01*
X6807000Y-6414500D02*
X6909000Y-6516500D01*
X6909000Y-6414500D02*
X6807000Y-6516500D01*
X6858000Y-6414500D02*
X6858000Y-6516500D01*
X6807000Y-6465500D02*
X6909000Y-6465500D01*
X7061000Y-5929500D02*
X7163000Y-6031500D01*
X7163000Y-5929500D02*
X7061000Y-6031500D01*
X7112000Y-5929500D02*
X7112000Y-6031500D01*
X7061000Y-5980500D02*
X7163000Y-5980500D01*
X7061000Y-6414500D02*
X7163000Y-6516500D01*
X7163000Y-6414500D02*
X7061000Y-6516500D01*
X7112000Y-6414500D02*
X7112000Y-6516500D01*
X7061000Y-6465500D02*
X7163000Y-6465500D01*
X7315000Y-5929500D02*
X7417000Y-6031500D01*
X7417000Y-5929500D02*
X7315000Y-6031500D01*
X7366000Y-5929500D02*
X7366000Y-6031500D01*
X7315000Y-5980500D02*
X7417000Y-5980500D01*
X7315000Y-6414500D02*
X7417000Y-6516500D01*
X7417000Y-6414500D02*
X7315000Y-6516500D01*
X7366000Y-6414500D02*
X7366000Y-6516500D01*
X7315000Y-6465500D02*
X7417000Y-6465500D01*
D11*
X255777Y-6920484D02*
X255777Y-6720484D01*
X255777Y-6720484D02*
X303396Y-6720484D01*
X303396Y-6720484D02*
X331967Y-6730008D01*
X331967Y-6730008D02*
X351015Y-6749055D01*
X351015Y-6749055D02*
X360539Y-6768103D01*
X360539Y-6768103D02*
X370062Y-6806198D01*
X370062Y-6806198D02*
X370062Y-6834769D01*
X370062Y-6834769D02*
X360539Y-6872865D01*
X360539Y-6872865D02*
X351015Y-6891912D01*
X351015Y-6891912D02*
X331967Y-6910960D01*
X331967Y-6910960D02*
X303396Y-6920484D01*
X303396Y-6920484D02*
X255777Y-6920484D01*
X455777Y-6920484D02*
X455777Y-6787150D01*
X455777Y-6825246D02*
X465301Y-6806198D01*
X465301Y-6806198D02*
X474824Y-6796674D01*
X474824Y-6796674D02*
X493872Y-6787150D01*
X493872Y-6787150D02*
X512920Y-6787150D01*
X579586Y-6920484D02*
X579586Y-6787150D01*
X579586Y-6720484D02*
X570063Y-6730008D01*
X570063Y-6730008D02*
X579586Y-6739531D01*
X579586Y-6739531D02*
X589110Y-6730008D01*
X589110Y-6730008D02*
X579586Y-6720484D01*
X579586Y-6720484D02*
X579586Y-6739531D01*
X703396Y-6920484D02*
X684348Y-6910960D01*
X684348Y-6910960D02*
X674824Y-6891912D01*
X674824Y-6891912D02*
X674824Y-6720484D01*
X808158Y-6920484D02*
X789110Y-6910960D01*
X789110Y-6910960D02*
X779586Y-6891912D01*
X779586Y-6891912D02*
X779586Y-6720484D01*
X1036729Y-6920484D02*
X1036729Y-6720484D01*
X1036729Y-6720484D02*
X1103396Y-6863341D01*
X1103396Y-6863341D02*
X1170063Y-6720484D01*
X1170063Y-6720484D02*
X1170063Y-6920484D01*
X1351015Y-6920484D02*
X1351015Y-6815722D01*
X1351015Y-6815722D02*
X1341491Y-6796674D01*
X1341491Y-6796674D02*
X1322444Y-6787150D01*
X1322444Y-6787150D02*
X1284348Y-6787150D01*
X1284348Y-6787150D02*
X1265301Y-6796674D01*
X1351015Y-6910960D02*
X1331967Y-6920484D01*
X1331967Y-6920484D02*
X1284348Y-6920484D01*
X1284348Y-6920484D02*
X1265301Y-6910960D01*
X1265301Y-6910960D02*
X1255777Y-6891912D01*
X1255777Y-6891912D02*
X1255777Y-6872865D01*
X1255777Y-6872865D02*
X1265301Y-6853817D01*
X1265301Y-6853817D02*
X1284348Y-6844293D01*
X1284348Y-6844293D02*
X1331967Y-6844293D01*
X1331967Y-6844293D02*
X1351015Y-6834769D01*
X1446253Y-6787150D02*
X1446253Y-6987150D01*
X1446253Y-6796674D02*
X1465301Y-6787150D01*
X1465301Y-6787150D02*
X1503396Y-6787150D01*
X1503396Y-6787150D02*
X1522443Y-6796674D01*
X1522443Y-6796674D02*
X1531967Y-6806198D01*
X1531967Y-6806198D02*
X1541491Y-6825246D01*
X1541491Y-6825246D02*
X1541491Y-6882388D01*
X1541491Y-6882388D02*
X1531967Y-6901436D01*
X1531967Y-6901436D02*
X1522443Y-6910960D01*
X1522443Y-6910960D02*
X1503396Y-6920484D01*
X1503396Y-6920484D02*
X1465301Y-6920484D01*
X1465301Y-6920484D02*
X1446253Y-6910960D01*
X1627205Y-6901436D02*
X1636729Y-6910960D01*
X1636729Y-6910960D02*
X1627205Y-6920484D01*
X1627205Y-6920484D02*
X1617682Y-6910960D01*
X1617682Y-6910960D02*
X1627205Y-6901436D01*
X1627205Y-6901436D02*
X1627205Y-6920484D01*
X1627205Y-6796674D02*
X1636729Y-6806198D01*
X1636729Y-6806198D02*
X1627205Y-6815722D01*
X1627205Y-6815722D02*
X1617682Y-6806198D01*
X1617682Y-6806198D02*
X1627205Y-6796674D01*
X1627205Y-6796674D02*
X1627205Y-6815722D01*
D10*
X-40000Y-7231500D02*
X-5000Y-7266500D01*
X-5000Y-7231500D02*
X-40000Y-7266500D01*
D11*
X293872Y-7140484D02*
X312920Y-7140484D01*
X312920Y-7140484D02*
X331967Y-7150008D01*
X331967Y-7150008D02*
X341491Y-7159531D01*
X341491Y-7159531D02*
X351015Y-7178579D01*
X351015Y-7178579D02*
X360539Y-7216674D01*
X360539Y-7216674D02*
X360539Y-7264293D01*
X360539Y-7264293D02*
X351015Y-7302388D01*
X351015Y-7302388D02*
X341491Y-7321436D01*
X341491Y-7321436D02*
X331967Y-7330960D01*
X331967Y-7330960D02*
X312920Y-7340484D01*
X312920Y-7340484D02*
X293872Y-7340484D01*
X293872Y-7340484D02*
X274824Y-7330960D01*
X274824Y-7330960D02*
X265301Y-7321436D01*
X265301Y-7321436D02*
X255777Y-7302388D01*
X255777Y-7302388D02*
X246253Y-7264293D01*
X246253Y-7264293D02*
X246253Y-7216674D01*
X246253Y-7216674D02*
X255777Y-7178579D01*
X255777Y-7178579D02*
X265301Y-7159531D01*
X265301Y-7159531D02*
X274824Y-7150008D01*
X274824Y-7150008D02*
X293872Y-7140484D01*
X455777Y-7330960D02*
X455777Y-7340484D01*
X455777Y-7340484D02*
X446253Y-7359531D01*
X446253Y-7359531D02*
X436729Y-7369055D01*
X522443Y-7140484D02*
X646253Y-7140484D01*
X646253Y-7140484D02*
X579586Y-7216674D01*
X579586Y-7216674D02*
X608158Y-7216674D01*
X608158Y-7216674D02*
X627205Y-7226198D01*
X627205Y-7226198D02*
X636729Y-7235722D01*
X636729Y-7235722D02*
X646253Y-7254769D01*
X646253Y-7254769D02*
X646253Y-7302388D01*
X646253Y-7302388D02*
X636729Y-7321436D01*
X636729Y-7321436D02*
X627205Y-7330960D01*
X627205Y-7330960D02*
X608158Y-7340484D01*
X608158Y-7340484D02*
X551015Y-7340484D01*
X551015Y-7340484D02*
X531967Y-7330960D01*
X531967Y-7330960D02*
X522443Y-7321436D01*
X827205Y-7140484D02*
X731967Y-7140484D01*
X731967Y-7140484D02*
X722443Y-7235722D01*
X722443Y-7235722D02*
X731967Y-7226198D01*
X731967Y-7226198D02*
X751015Y-7216674D01*
X751015Y-7216674D02*
X798634Y-7216674D01*
X798634Y-7216674D02*
X817682Y-7226198D01*
X817682Y-7226198D02*
X827205Y-7235722D01*
X827205Y-7235722D02*
X836729Y-7254769D01*
X836729Y-7254769D02*
X836729Y-7302388D01*
X836729Y-7302388D02*
X827205Y-7321436D01*
X827205Y-7321436D02*
X817682Y-7330960D01*
X817682Y-7330960D02*
X798634Y-7340484D01*
X798634Y-7340484D02*
X751015Y-7340484D01*
X751015Y-7340484D02*
X731967Y-7330960D01*
X731967Y-7330960D02*
X722443Y-7321436D01*
X960539Y-7140484D02*
X979586Y-7140484D01*
X979586Y-7140484D02*
X998634Y-7150008D01*
X998634Y-7150008D02*
X1008158Y-7159531D01*
X1008158Y-7159531D02*
X1017682Y-7178579D01*
X1017682Y-7178579D02*
X1027205Y-7216674D01*
X1027205Y-7216674D02*
X1027205Y-7264293D01*
X1027205Y-7264293D02*
X1017682Y-7302388D01*
X1017682Y-7302388D02*
X1008158Y-7321436D01*
X1008158Y-7321436D02*
X998634Y-7330960D01*
X998634Y-7330960D02*
X979586Y-7340484D01*
X979586Y-7340484D02*
X960539Y-7340484D01*
X960539Y-7340484D02*
X941491Y-7330960D01*
X941491Y-7330960D02*
X931967Y-7321436D01*
X931967Y-7321436D02*
X922443Y-7302388D01*
X922443Y-7302388D02*
X912920Y-7264293D01*
X912920Y-7264293D02*
X912920Y-7216674D01*
X912920Y-7216674D02*
X922443Y-7178579D01*
X922443Y-7178579D02*
X931967Y-7159531D01*
X931967Y-7159531D02*
X941491Y-7150008D01*
X941491Y-7150008D02*
X960539Y-7140484D01*
X1112920Y-7340484D02*
X1112920Y-7207150D01*
X1112920Y-7226198D02*
X1122444Y-7216674D01*
X1122444Y-7216674D02*
X1141491Y-7207150D01*
X1141491Y-7207150D02*
X1170063Y-7207150D01*
X1170063Y-7207150D02*
X1189110Y-7216674D01*
X1189110Y-7216674D02*
X1198634Y-7235722D01*
X1198634Y-7235722D02*
X1198634Y-7340484D01*
X1198634Y-7235722D02*
X1208158Y-7216674D01*
X1208158Y-7216674D02*
X1227205Y-7207150D01*
X1227205Y-7207150D02*
X1255777Y-7207150D01*
X1255777Y-7207150D02*
X1274825Y-7216674D01*
X1274825Y-7216674D02*
X1284348Y-7235722D01*
X1284348Y-7235722D02*
X1284348Y-7340484D01*
X1379586Y-7340484D02*
X1379586Y-7207150D01*
X1379586Y-7226198D02*
X1389110Y-7216674D01*
X1389110Y-7216674D02*
X1408158Y-7207150D01*
X1408158Y-7207150D02*
X1436729Y-7207150D01*
X1436729Y-7207150D02*
X1455777Y-7216674D01*
X1455777Y-7216674D02*
X1465301Y-7235722D01*
X1465301Y-7235722D02*
X1465301Y-7340484D01*
X1465301Y-7235722D02*
X1474824Y-7216674D01*
X1474824Y-7216674D02*
X1493872Y-7207150D01*
X1493872Y-7207150D02*
X1522443Y-7207150D01*
X1522443Y-7207150D02*
X1541491Y-7216674D01*
X1541491Y-7216674D02*
X1551015Y-7235722D01*
X1551015Y-7235722D02*
X1551015Y-7340484D01*
X1941491Y-7130960D02*
X1770063Y-7388103D01*
X2198634Y-7140484D02*
X2217682Y-7140484D01*
X2217682Y-7140484D02*
X2236729Y-7150008D01*
X2236729Y-7150008D02*
X2246253Y-7159531D01*
X2246253Y-7159531D02*
X2255777Y-7178579D01*
X2255777Y-7178579D02*
X2265301Y-7216674D01*
X2265301Y-7216674D02*
X2265301Y-7264293D01*
X2265301Y-7264293D02*
X2255777Y-7302388D01*
X2255777Y-7302388D02*
X2246253Y-7321436D01*
X2246253Y-7321436D02*
X2236729Y-7330960D01*
X2236729Y-7330960D02*
X2217682Y-7340484D01*
X2217682Y-7340484D02*
X2198634Y-7340484D01*
X2198634Y-7340484D02*
X2179587Y-7330960D01*
X2179587Y-7330960D02*
X2170063Y-7321436D01*
X2170063Y-7321436D02*
X2160539Y-7302388D01*
X2160539Y-7302388D02*
X2151015Y-7264293D01*
X2151015Y-7264293D02*
X2151015Y-7216674D01*
X2151015Y-7216674D02*
X2160539Y-7178579D01*
X2160539Y-7178579D02*
X2170063Y-7159531D01*
X2170063Y-7159531D02*
X2179587Y-7150008D01*
X2179587Y-7150008D02*
X2198634Y-7140484D01*
X2360539Y-7330960D02*
X2360539Y-7340484D01*
X2360539Y-7340484D02*
X2351015Y-7359531D01*
X2351015Y-7359531D02*
X2341491Y-7369055D01*
X2484348Y-7140484D02*
X2503396Y-7140484D01*
X2503396Y-7140484D02*
X2522444Y-7150008D01*
X2522444Y-7150008D02*
X2531968Y-7159531D01*
X2531968Y-7159531D02*
X2541491Y-7178579D01*
X2541491Y-7178579D02*
X2551015Y-7216674D01*
X2551015Y-7216674D02*
X2551015Y-7264293D01*
X2551015Y-7264293D02*
X2541491Y-7302388D01*
X2541491Y-7302388D02*
X2531968Y-7321436D01*
X2531968Y-7321436D02*
X2522444Y-7330960D01*
X2522444Y-7330960D02*
X2503396Y-7340484D01*
X2503396Y-7340484D02*
X2484348Y-7340484D01*
X2484348Y-7340484D02*
X2465301Y-7330960D01*
X2465301Y-7330960D02*
X2455777Y-7321436D01*
X2455777Y-7321436D02*
X2446253Y-7302388D01*
X2446253Y-7302388D02*
X2436729Y-7264293D01*
X2436729Y-7264293D02*
X2436729Y-7216674D01*
X2436729Y-7216674D02*
X2446253Y-7178579D01*
X2446253Y-7178579D02*
X2455777Y-7159531D01*
X2455777Y-7159531D02*
X2465301Y-7150008D01*
X2465301Y-7150008D02*
X2484348Y-7140484D01*
X2741491Y-7340484D02*
X2627206Y-7340484D01*
X2684348Y-7340484D02*
X2684348Y-7140484D01*
X2684348Y-7140484D02*
X2665301Y-7169055D01*
X2665301Y-7169055D02*
X2646253Y-7188103D01*
X2646253Y-7188103D02*
X2627206Y-7197627D01*
X2808158Y-7140484D02*
X2931967Y-7140484D01*
X2931967Y-7140484D02*
X2865301Y-7216674D01*
X2865301Y-7216674D02*
X2893872Y-7216674D01*
X2893872Y-7216674D02*
X2912920Y-7226198D01*
X2912920Y-7226198D02*
X2922444Y-7235722D01*
X2922444Y-7235722D02*
X2931967Y-7254769D01*
X2931967Y-7254769D02*
X2931967Y-7302388D01*
X2931967Y-7302388D02*
X2922444Y-7321436D01*
X2922444Y-7321436D02*
X2912920Y-7330960D01*
X2912920Y-7330960D02*
X2893872Y-7340484D01*
X2893872Y-7340484D02*
X2836729Y-7340484D01*
X2836729Y-7340484D02*
X2817682Y-7330960D01*
X2817682Y-7330960D02*
X2808158Y-7321436D01*
X3046253Y-7226198D02*
X3027206Y-7216674D01*
X3027206Y-7216674D02*
X3017682Y-7207150D01*
X3017682Y-7207150D02*
X3008158Y-7188103D01*
X3008158Y-7188103D02*
X3008158Y-7178579D01*
X3008158Y-7178579D02*
X3017682Y-7159531D01*
X3017682Y-7159531D02*
X3027206Y-7150008D01*
X3027206Y-7150008D02*
X3046253Y-7140484D01*
X3046253Y-7140484D02*
X3084348Y-7140484D01*
X3084348Y-7140484D02*
X3103396Y-7150008D01*
X3103396Y-7150008D02*
X3112920Y-7159531D01*
X3112920Y-7159531D02*
X3122444Y-7178579D01*
X3122444Y-7178579D02*
X3122444Y-7188103D01*
X3122444Y-7188103D02*
X3112920Y-7207150D01*
X3112920Y-7207150D02*
X3103396Y-7216674D01*
X3103396Y-7216674D02*
X3084348Y-7226198D01*
X3084348Y-7226198D02*
X3046253Y-7226198D01*
X3046253Y-7226198D02*
X3027206Y-7235722D01*
X3027206Y-7235722D02*
X3017682Y-7245246D01*
X3017682Y-7245246D02*
X3008158Y-7264293D01*
X3008158Y-7264293D02*
X3008158Y-7302388D01*
X3008158Y-7302388D02*
X3017682Y-7321436D01*
X3017682Y-7321436D02*
X3027206Y-7330960D01*
X3027206Y-7330960D02*
X3046253Y-7340484D01*
X3046253Y-7340484D02*
X3084348Y-7340484D01*
X3084348Y-7340484D02*
X3103396Y-7330960D01*
X3103396Y-7330960D02*
X3112920Y-7321436D01*
X3112920Y-7321436D02*
X3122444Y-7302388D01*
X3122444Y-7302388D02*
X3122444Y-7264293D01*
X3122444Y-7264293D02*
X3112920Y-7245246D01*
X3112920Y-7245246D02*
X3103396Y-7235722D01*
X3103396Y-7235722D02*
X3084348Y-7226198D01*
X3198634Y-7140484D02*
X3198634Y-7178579D01*
X3274825Y-7140484D02*
X3274825Y-7178579D01*
X3570063Y-7416674D02*
X3560539Y-7407150D01*
X3560539Y-7407150D02*
X3541491Y-7378579D01*
X3541491Y-7378579D02*
X3531968Y-7359531D01*
X3531968Y-7359531D02*
X3522444Y-7330960D01*
X3522444Y-7330960D02*
X3512920Y-7283341D01*
X3512920Y-7283341D02*
X3512920Y-7245246D01*
X3512920Y-7245246D02*
X3522444Y-7197627D01*
X3522444Y-7197627D02*
X3531968Y-7169055D01*
X3531968Y-7169055D02*
X3541491Y-7150008D01*
X3541491Y-7150008D02*
X3560539Y-7121436D01*
X3560539Y-7121436D02*
X3570063Y-7111912D01*
X3731968Y-7207150D02*
X3731968Y-7340484D01*
X3684348Y-7130960D02*
X3636729Y-7273817D01*
X3636729Y-7273817D02*
X3760539Y-7273817D01*
X3922444Y-7207150D02*
X3922444Y-7340484D01*
X3874825Y-7130960D02*
X3827206Y-7273817D01*
X3827206Y-7273817D02*
X3951015Y-7273817D01*
X4179587Y-7340484D02*
X4179587Y-7140484D01*
X4265301Y-7340484D02*
X4265301Y-7235722D01*
X4265301Y-7235722D02*
X4255777Y-7216674D01*
X4255777Y-7216674D02*
X4236730Y-7207150D01*
X4236730Y-7207150D02*
X4208158Y-7207150D01*
X4208158Y-7207150D02*
X4189110Y-7216674D01*
X4189110Y-7216674D02*
X4179587Y-7226198D01*
X4389111Y-7340484D02*
X4370063Y-7330960D01*
X4370063Y-7330960D02*
X4360539Y-7321436D01*
X4360539Y-7321436D02*
X4351015Y-7302388D01*
X4351015Y-7302388D02*
X4351015Y-7245246D01*
X4351015Y-7245246D02*
X4360539Y-7226198D01*
X4360539Y-7226198D02*
X4370063Y-7216674D01*
X4370063Y-7216674D02*
X4389111Y-7207150D01*
X4389111Y-7207150D02*
X4417682Y-7207150D01*
X4417682Y-7207150D02*
X4436730Y-7216674D01*
X4436730Y-7216674D02*
X4446253Y-7226198D01*
X4446253Y-7226198D02*
X4455777Y-7245246D01*
X4455777Y-7245246D02*
X4455777Y-7302388D01*
X4455777Y-7302388D02*
X4446253Y-7321436D01*
X4446253Y-7321436D02*
X4436730Y-7330960D01*
X4436730Y-7330960D02*
X4417682Y-7340484D01*
X4417682Y-7340484D02*
X4389111Y-7340484D01*
X4570063Y-7340484D02*
X4551015Y-7330960D01*
X4551015Y-7330960D02*
X4541492Y-7311912D01*
X4541492Y-7311912D02*
X4541492Y-7140484D01*
X4722444Y-7330960D02*
X4703396Y-7340484D01*
X4703396Y-7340484D02*
X4665301Y-7340484D01*
X4665301Y-7340484D02*
X4646253Y-7330960D01*
X4646253Y-7330960D02*
X4636730Y-7311912D01*
X4636730Y-7311912D02*
X4636730Y-7235722D01*
X4636730Y-7235722D02*
X4646253Y-7216674D01*
X4646253Y-7216674D02*
X4665301Y-7207150D01*
X4665301Y-7207150D02*
X4703396Y-7207150D01*
X4703396Y-7207150D02*
X4722444Y-7216674D01*
X4722444Y-7216674D02*
X4731968Y-7235722D01*
X4731968Y-7235722D02*
X4731968Y-7254769D01*
X4731968Y-7254769D02*
X4636730Y-7273817D01*
X4808158Y-7330960D02*
X4827206Y-7340484D01*
X4827206Y-7340484D02*
X4865301Y-7340484D01*
X4865301Y-7340484D02*
X4884349Y-7330960D01*
X4884349Y-7330960D02*
X4893873Y-7311912D01*
X4893873Y-7311912D02*
X4893873Y-7302388D01*
X4893873Y-7302388D02*
X4884349Y-7283341D01*
X4884349Y-7283341D02*
X4865301Y-7273817D01*
X4865301Y-7273817D02*
X4836730Y-7273817D01*
X4836730Y-7273817D02*
X4817682Y-7264293D01*
X4817682Y-7264293D02*
X4808158Y-7245246D01*
X4808158Y-7245246D02*
X4808158Y-7235722D01*
X4808158Y-7235722D02*
X4817682Y-7216674D01*
X4817682Y-7216674D02*
X4836730Y-7207150D01*
X4836730Y-7207150D02*
X4865301Y-7207150D01*
X4865301Y-7207150D02*
X4884349Y-7216674D01*
X4960539Y-7416674D02*
X4970063Y-7407150D01*
X4970063Y-7407150D02*
X4989111Y-7378579D01*
X4989111Y-7378579D02*
X4998634Y-7359531D01*
X4998634Y-7359531D02*
X5008158Y-7330960D01*
X5008158Y-7330960D02*
X5017682Y-7283341D01*
X5017682Y-7283341D02*
X5017682Y-7245246D01*
X5017682Y-7245246D02*
X5008158Y-7197627D01*
X5008158Y-7197627D02*
X4998634Y-7169055D01*
X4998634Y-7169055D02*
X4989111Y-7150008D01*
X4989111Y-7150008D02*
X4970063Y-7121436D01*
X4970063Y-7121436D02*
X4960539Y-7111912D01*
D10*
X-5000Y-7513000D02*
G75*
G02*
X-50000Y-7513000I-22500J0D01*
G01*
X-50000Y-7513000D02*
G75*
G02*
X-5000Y-7513000I22500J0D01*
G01*
D11*
X293872Y-7404484D02*
X312920Y-7404484D01*
X312920Y-7404484D02*
X331967Y-7414008D01*
X331967Y-7414008D02*
X341491Y-7423531D01*
X341491Y-7423531D02*
X351015Y-7442579D01*
X351015Y-7442579D02*
X360539Y-7480674D01*
X360539Y-7480674D02*
X360539Y-7528293D01*
X360539Y-7528293D02*
X351015Y-7566388D01*
X351015Y-7566388D02*
X341491Y-7585436D01*
X341491Y-7585436D02*
X331967Y-7594960D01*
X331967Y-7594960D02*
X312920Y-7604484D01*
X312920Y-7604484D02*
X293872Y-7604484D01*
X293872Y-7604484D02*
X274824Y-7594960D01*
X274824Y-7594960D02*
X265301Y-7585436D01*
X265301Y-7585436D02*
X255777Y-7566388D01*
X255777Y-7566388D02*
X246253Y-7528293D01*
X246253Y-7528293D02*
X246253Y-7480674D01*
X246253Y-7480674D02*
X255777Y-7442579D01*
X255777Y-7442579D02*
X265301Y-7423531D01*
X265301Y-7423531D02*
X274824Y-7414008D01*
X274824Y-7414008D02*
X293872Y-7404484D01*
X455777Y-7594960D02*
X455777Y-7604484D01*
X455777Y-7604484D02*
X446253Y-7623531D01*
X446253Y-7623531D02*
X436729Y-7633055D01*
X627205Y-7471150D02*
X627205Y-7604484D01*
X579586Y-7394960D02*
X531967Y-7537817D01*
X531967Y-7537817D02*
X655777Y-7537817D01*
X827205Y-7404484D02*
X731967Y-7404484D01*
X731967Y-7404484D02*
X722443Y-7499722D01*
X722443Y-7499722D02*
X731967Y-7490198D01*
X731967Y-7490198D02*
X751015Y-7480674D01*
X751015Y-7480674D02*
X798634Y-7480674D01*
X798634Y-7480674D02*
X817682Y-7490198D01*
X817682Y-7490198D02*
X827205Y-7499722D01*
X827205Y-7499722D02*
X836729Y-7518769D01*
X836729Y-7518769D02*
X836729Y-7566388D01*
X836729Y-7566388D02*
X827205Y-7585436D01*
X827205Y-7585436D02*
X817682Y-7594960D01*
X817682Y-7594960D02*
X798634Y-7604484D01*
X798634Y-7604484D02*
X751015Y-7604484D01*
X751015Y-7604484D02*
X731967Y-7594960D01*
X731967Y-7594960D02*
X722443Y-7585436D01*
X960539Y-7404484D02*
X979586Y-7404484D01*
X979586Y-7404484D02*
X998634Y-7414008D01*
X998634Y-7414008D02*
X1008158Y-7423531D01*
X1008158Y-7423531D02*
X1017682Y-7442579D01*
X1017682Y-7442579D02*
X1027205Y-7480674D01*
X1027205Y-7480674D02*
X1027205Y-7528293D01*
X1027205Y-7528293D02*
X1017682Y-7566388D01*
X1017682Y-7566388D02*
X1008158Y-7585436D01*
X1008158Y-7585436D02*
X998634Y-7594960D01*
X998634Y-7594960D02*
X979586Y-7604484D01*
X979586Y-7604484D02*
X960539Y-7604484D01*
X960539Y-7604484D02*
X941491Y-7594960D01*
X941491Y-7594960D02*
X931967Y-7585436D01*
X931967Y-7585436D02*
X922443Y-7566388D01*
X922443Y-7566388D02*
X912920Y-7528293D01*
X912920Y-7528293D02*
X912920Y-7480674D01*
X912920Y-7480674D02*
X922443Y-7442579D01*
X922443Y-7442579D02*
X931967Y-7423531D01*
X931967Y-7423531D02*
X941491Y-7414008D01*
X941491Y-7414008D02*
X960539Y-7404484D01*
X1112920Y-7604484D02*
X1112920Y-7471150D01*
X1112920Y-7490198D02*
X1122444Y-7480674D01*
X1122444Y-7480674D02*
X1141491Y-7471150D01*
X1141491Y-7471150D02*
X1170063Y-7471150D01*
X1170063Y-7471150D02*
X1189110Y-7480674D01*
X1189110Y-7480674D02*
X1198634Y-7499722D01*
X1198634Y-7499722D02*
X1198634Y-7604484D01*
X1198634Y-7499722D02*
X1208158Y-7480674D01*
X1208158Y-7480674D02*
X1227205Y-7471150D01*
X1227205Y-7471150D02*
X1255777Y-7471150D01*
X1255777Y-7471150D02*
X1274825Y-7480674D01*
X1274825Y-7480674D02*
X1284348Y-7499722D01*
X1284348Y-7499722D02*
X1284348Y-7604484D01*
X1379586Y-7604484D02*
X1379586Y-7471150D01*
X1379586Y-7490198D02*
X1389110Y-7480674D01*
X1389110Y-7480674D02*
X1408158Y-7471150D01*
X1408158Y-7471150D02*
X1436729Y-7471150D01*
X1436729Y-7471150D02*
X1455777Y-7480674D01*
X1455777Y-7480674D02*
X1465301Y-7499722D01*
X1465301Y-7499722D02*
X1465301Y-7604484D01*
X1465301Y-7499722D02*
X1474824Y-7480674D01*
X1474824Y-7480674D02*
X1493872Y-7471150D01*
X1493872Y-7471150D02*
X1522443Y-7471150D01*
X1522443Y-7471150D02*
X1541491Y-7480674D01*
X1541491Y-7480674D02*
X1551015Y-7499722D01*
X1551015Y-7499722D02*
X1551015Y-7604484D01*
X1941491Y-7394960D02*
X1770063Y-7652103D01*
X2198634Y-7404484D02*
X2217682Y-7404484D01*
X2217682Y-7404484D02*
X2236729Y-7414008D01*
X2236729Y-7414008D02*
X2246253Y-7423531D01*
X2246253Y-7423531D02*
X2255777Y-7442579D01*
X2255777Y-7442579D02*
X2265301Y-7480674D01*
X2265301Y-7480674D02*
X2265301Y-7528293D01*
X2265301Y-7528293D02*
X2255777Y-7566388D01*
X2255777Y-7566388D02*
X2246253Y-7585436D01*
X2246253Y-7585436D02*
X2236729Y-7594960D01*
X2236729Y-7594960D02*
X2217682Y-7604484D01*
X2217682Y-7604484D02*
X2198634Y-7604484D01*
X2198634Y-7604484D02*
X2179587Y-7594960D01*
X2179587Y-7594960D02*
X2170063Y-7585436D01*
X2170063Y-7585436D02*
X2160539Y-7566388D01*
X2160539Y-7566388D02*
X2151015Y-7528293D01*
X2151015Y-7528293D02*
X2151015Y-7480674D01*
X2151015Y-7480674D02*
X2160539Y-7442579D01*
X2160539Y-7442579D02*
X2170063Y-7423531D01*
X2170063Y-7423531D02*
X2179587Y-7414008D01*
X2179587Y-7414008D02*
X2198634Y-7404484D01*
X2360539Y-7594960D02*
X2360539Y-7604484D01*
X2360539Y-7604484D02*
X2351015Y-7623531D01*
X2351015Y-7623531D02*
X2341491Y-7633055D01*
X2484348Y-7404484D02*
X2503396Y-7404484D01*
X2503396Y-7404484D02*
X2522444Y-7414008D01*
X2522444Y-7414008D02*
X2531968Y-7423531D01*
X2531968Y-7423531D02*
X2541491Y-7442579D01*
X2541491Y-7442579D02*
X2551015Y-7480674D01*
X2551015Y-7480674D02*
X2551015Y-7528293D01*
X2551015Y-7528293D02*
X2541491Y-7566388D01*
X2541491Y-7566388D02*
X2531968Y-7585436D01*
X2531968Y-7585436D02*
X2522444Y-7594960D01*
X2522444Y-7594960D02*
X2503396Y-7604484D01*
X2503396Y-7604484D02*
X2484348Y-7604484D01*
X2484348Y-7604484D02*
X2465301Y-7594960D01*
X2465301Y-7594960D02*
X2455777Y-7585436D01*
X2455777Y-7585436D02*
X2446253Y-7566388D01*
X2446253Y-7566388D02*
X2436729Y-7528293D01*
X2436729Y-7528293D02*
X2436729Y-7480674D01*
X2436729Y-7480674D02*
X2446253Y-7442579D01*
X2446253Y-7442579D02*
X2455777Y-7423531D01*
X2455777Y-7423531D02*
X2465301Y-7414008D01*
X2465301Y-7414008D02*
X2484348Y-7404484D01*
X2741491Y-7604484D02*
X2627206Y-7604484D01*
X2684348Y-7604484D02*
X2684348Y-7404484D01*
X2684348Y-7404484D02*
X2665301Y-7433055D01*
X2665301Y-7433055D02*
X2646253Y-7452103D01*
X2646253Y-7452103D02*
X2627206Y-7461627D01*
X2808158Y-7404484D02*
X2941491Y-7404484D01*
X2941491Y-7404484D02*
X2855777Y-7604484D01*
X2998634Y-7404484D02*
X3131967Y-7404484D01*
X3131967Y-7404484D02*
X3046253Y-7604484D01*
X3198634Y-7404484D02*
X3198634Y-7442579D01*
X3274825Y-7404484D02*
X3274825Y-7442579D01*
X3570063Y-7680674D02*
X3560539Y-7671150D01*
X3560539Y-7671150D02*
X3541491Y-7642579D01*
X3541491Y-7642579D02*
X3531968Y-7623531D01*
X3531968Y-7623531D02*
X3522444Y-7594960D01*
X3522444Y-7594960D02*
X3512920Y-7547341D01*
X3512920Y-7547341D02*
X3512920Y-7509246D01*
X3512920Y-7509246D02*
X3522444Y-7461627D01*
X3522444Y-7461627D02*
X3531968Y-7433055D01*
X3531968Y-7433055D02*
X3541491Y-7414008D01*
X3541491Y-7414008D02*
X3560539Y-7385436D01*
X3560539Y-7385436D02*
X3570063Y-7375912D01*
X3751015Y-7604484D02*
X3636729Y-7604484D01*
X3693872Y-7604484D02*
X3693872Y-7404484D01*
X3693872Y-7404484D02*
X3674825Y-7433055D01*
X3674825Y-7433055D02*
X3655777Y-7452103D01*
X3655777Y-7452103D02*
X3636729Y-7461627D01*
X3989110Y-7604484D02*
X3989110Y-7404484D01*
X4074825Y-7604484D02*
X4074825Y-7499722D01*
X4074825Y-7499722D02*
X4065301Y-7480674D01*
X4065301Y-7480674D02*
X4046253Y-7471150D01*
X4046253Y-7471150D02*
X4017682Y-7471150D01*
X4017682Y-7471150D02*
X3998634Y-7480674D01*
X3998634Y-7480674D02*
X3989110Y-7490198D01*
X4198634Y-7604484D02*
X4179587Y-7594960D01*
X4179587Y-7594960D02*
X4170063Y-7585436D01*
X4170063Y-7585436D02*
X4160539Y-7566388D01*
X4160539Y-7566388D02*
X4160539Y-7509246D01*
X4160539Y-7509246D02*
X4170063Y-7490198D01*
X4170063Y-7490198D02*
X4179587Y-7480674D01*
X4179587Y-7480674D02*
X4198634Y-7471150D01*
X4198634Y-7471150D02*
X4227206Y-7471150D01*
X4227206Y-7471150D02*
X4246253Y-7480674D01*
X4246253Y-7480674D02*
X4255777Y-7490198D01*
X4255777Y-7490198D02*
X4265301Y-7509246D01*
X4265301Y-7509246D02*
X4265301Y-7566388D01*
X4265301Y-7566388D02*
X4255777Y-7585436D01*
X4255777Y-7585436D02*
X4246253Y-7594960D01*
X4246253Y-7594960D02*
X4227206Y-7604484D01*
X4227206Y-7604484D02*
X4198634Y-7604484D01*
X4379587Y-7604484D02*
X4360539Y-7594960D01*
X4360539Y-7594960D02*
X4351015Y-7575912D01*
X4351015Y-7575912D02*
X4351015Y-7404484D01*
X4531968Y-7594960D02*
X4512920Y-7604484D01*
X4512920Y-7604484D02*
X4474825Y-7604484D01*
X4474825Y-7604484D02*
X4455777Y-7594960D01*
X4455777Y-7594960D02*
X4446253Y-7575912D01*
X4446253Y-7575912D02*
X4446253Y-7499722D01*
X4446253Y-7499722D02*
X4455777Y-7480674D01*
X4455777Y-7480674D02*
X4474825Y-7471150D01*
X4474825Y-7471150D02*
X4512920Y-7471150D01*
X4512920Y-7471150D02*
X4531968Y-7480674D01*
X4531968Y-7480674D02*
X4541492Y-7499722D01*
X4541492Y-7499722D02*
X4541492Y-7518769D01*
X4541492Y-7518769D02*
X4446253Y-7537817D01*
X4608158Y-7680674D02*
X4617682Y-7671150D01*
X4617682Y-7671150D02*
X4636730Y-7642579D01*
X4636730Y-7642579D02*
X4646253Y-7623531D01*
X4646253Y-7623531D02*
X4655777Y-7594960D01*
X4655777Y-7594960D02*
X4665301Y-7547341D01*
X4665301Y-7547341D02*
X4665301Y-7509246D01*
X4665301Y-7509246D02*
X4655777Y-7461627D01*
X4655777Y-7461627D02*
X4646253Y-7433055D01*
X4646253Y-7433055D02*
X4636730Y-7414008D01*
X4636730Y-7414008D02*
X4617682Y-7385436D01*
X4617682Y-7385436D02*
X4608158Y-7375912D01*
D10*
X-40000Y-7742000D02*
X-40000Y-7812000D01*
X-75000Y-7777000D02*
X-5000Y-7777000D01*
D11*
X293872Y-7668484D02*
X312920Y-7668484D01*
X312920Y-7668484D02*
X331967Y-7678008D01*
X331967Y-7678008D02*
X341491Y-7687531D01*
X341491Y-7687531D02*
X351015Y-7706579D01*
X351015Y-7706579D02*
X360539Y-7744674D01*
X360539Y-7744674D02*
X360539Y-7792293D01*
X360539Y-7792293D02*
X351015Y-7830388D01*
X351015Y-7830388D02*
X341491Y-7849436D01*
X341491Y-7849436D02*
X331967Y-7858960D01*
X331967Y-7858960D02*
X312920Y-7868484D01*
X312920Y-7868484D02*
X293872Y-7868484D01*
X293872Y-7868484D02*
X274824Y-7858960D01*
X274824Y-7858960D02*
X265301Y-7849436D01*
X265301Y-7849436D02*
X255777Y-7830388D01*
X255777Y-7830388D02*
X246253Y-7792293D01*
X246253Y-7792293D02*
X246253Y-7744674D01*
X246253Y-7744674D02*
X255777Y-7706579D01*
X255777Y-7706579D02*
X265301Y-7687531D01*
X265301Y-7687531D02*
X274824Y-7678008D01*
X274824Y-7678008D02*
X293872Y-7668484D01*
X455777Y-7858960D02*
X455777Y-7868484D01*
X455777Y-7868484D02*
X446253Y-7887531D01*
X446253Y-7887531D02*
X436729Y-7897055D01*
X522443Y-7668484D02*
X655777Y-7668484D01*
X655777Y-7668484D02*
X570063Y-7868484D01*
X770062Y-7668484D02*
X789110Y-7668484D01*
X789110Y-7668484D02*
X808158Y-7678008D01*
X808158Y-7678008D02*
X817682Y-7687531D01*
X817682Y-7687531D02*
X827205Y-7706579D01*
X827205Y-7706579D02*
X836729Y-7744674D01*
X836729Y-7744674D02*
X836729Y-7792293D01*
X836729Y-7792293D02*
X827205Y-7830388D01*
X827205Y-7830388D02*
X817682Y-7849436D01*
X817682Y-7849436D02*
X808158Y-7858960D01*
X808158Y-7858960D02*
X789110Y-7868484D01*
X789110Y-7868484D02*
X770062Y-7868484D01*
X770062Y-7868484D02*
X751015Y-7858960D01*
X751015Y-7858960D02*
X741491Y-7849436D01*
X741491Y-7849436D02*
X731967Y-7830388D01*
X731967Y-7830388D02*
X722443Y-7792293D01*
X722443Y-7792293D02*
X722443Y-7744674D01*
X722443Y-7744674D02*
X731967Y-7706579D01*
X731967Y-7706579D02*
X741491Y-7687531D01*
X741491Y-7687531D02*
X751015Y-7678008D01*
X751015Y-7678008D02*
X770062Y-7668484D01*
X960539Y-7668484D02*
X979586Y-7668484D01*
X979586Y-7668484D02*
X998634Y-7678008D01*
X998634Y-7678008D02*
X1008158Y-7687531D01*
X1008158Y-7687531D02*
X1017682Y-7706579D01*
X1017682Y-7706579D02*
X1027205Y-7744674D01*
X1027205Y-7744674D02*
X1027205Y-7792293D01*
X1027205Y-7792293D02*
X1017682Y-7830388D01*
X1017682Y-7830388D02*
X1008158Y-7849436D01*
X1008158Y-7849436D02*
X998634Y-7858960D01*
X998634Y-7858960D02*
X979586Y-7868484D01*
X979586Y-7868484D02*
X960539Y-7868484D01*
X960539Y-7868484D02*
X941491Y-7858960D01*
X941491Y-7858960D02*
X931967Y-7849436D01*
X931967Y-7849436D02*
X922443Y-7830388D01*
X922443Y-7830388D02*
X912920Y-7792293D01*
X912920Y-7792293D02*
X912920Y-7744674D01*
X912920Y-7744674D02*
X922443Y-7706579D01*
X922443Y-7706579D02*
X931967Y-7687531D01*
X931967Y-7687531D02*
X941491Y-7678008D01*
X941491Y-7678008D02*
X960539Y-7668484D01*
X1112920Y-7868484D02*
X1112920Y-7735150D01*
X1112920Y-7754198D02*
X1122444Y-7744674D01*
X1122444Y-7744674D02*
X1141491Y-7735150D01*
X1141491Y-7735150D02*
X1170063Y-7735150D01*
X1170063Y-7735150D02*
X1189110Y-7744674D01*
X1189110Y-7744674D02*
X1198634Y-7763722D01*
X1198634Y-7763722D02*
X1198634Y-7868484D01*
X1198634Y-7763722D02*
X1208158Y-7744674D01*
X1208158Y-7744674D02*
X1227205Y-7735150D01*
X1227205Y-7735150D02*
X1255777Y-7735150D01*
X1255777Y-7735150D02*
X1274825Y-7744674D01*
X1274825Y-7744674D02*
X1284348Y-7763722D01*
X1284348Y-7763722D02*
X1284348Y-7868484D01*
X1379586Y-7868484D02*
X1379586Y-7735150D01*
X1379586Y-7754198D02*
X1389110Y-7744674D01*
X1389110Y-7744674D02*
X1408158Y-7735150D01*
X1408158Y-7735150D02*
X1436729Y-7735150D01*
X1436729Y-7735150D02*
X1455777Y-7744674D01*
X1455777Y-7744674D02*
X1465301Y-7763722D01*
X1465301Y-7763722D02*
X1465301Y-7868484D01*
X1465301Y-7763722D02*
X1474824Y-7744674D01*
X1474824Y-7744674D02*
X1493872Y-7735150D01*
X1493872Y-7735150D02*
X1522443Y-7735150D01*
X1522443Y-7735150D02*
X1541491Y-7744674D01*
X1541491Y-7744674D02*
X1551015Y-7763722D01*
X1551015Y-7763722D02*
X1551015Y-7868484D01*
X1941491Y-7658960D02*
X1770063Y-7916103D01*
X2198634Y-7668484D02*
X2217682Y-7668484D01*
X2217682Y-7668484D02*
X2236729Y-7678008D01*
X2236729Y-7678008D02*
X2246253Y-7687531D01*
X2246253Y-7687531D02*
X2255777Y-7706579D01*
X2255777Y-7706579D02*
X2265301Y-7744674D01*
X2265301Y-7744674D02*
X2265301Y-7792293D01*
X2265301Y-7792293D02*
X2255777Y-7830388D01*
X2255777Y-7830388D02*
X2246253Y-7849436D01*
X2246253Y-7849436D02*
X2236729Y-7858960D01*
X2236729Y-7858960D02*
X2217682Y-7868484D01*
X2217682Y-7868484D02*
X2198634Y-7868484D01*
X2198634Y-7868484D02*
X2179587Y-7858960D01*
X2179587Y-7858960D02*
X2170063Y-7849436D01*
X2170063Y-7849436D02*
X2160539Y-7830388D01*
X2160539Y-7830388D02*
X2151015Y-7792293D01*
X2151015Y-7792293D02*
X2151015Y-7744674D01*
X2151015Y-7744674D02*
X2160539Y-7706579D01*
X2160539Y-7706579D02*
X2170063Y-7687531D01*
X2170063Y-7687531D02*
X2179587Y-7678008D01*
X2179587Y-7678008D02*
X2198634Y-7668484D01*
X2360539Y-7858960D02*
X2360539Y-7868484D01*
X2360539Y-7868484D02*
X2351015Y-7887531D01*
X2351015Y-7887531D02*
X2341491Y-7897055D01*
X2484348Y-7668484D02*
X2503396Y-7668484D01*
X2503396Y-7668484D02*
X2522444Y-7678008D01*
X2522444Y-7678008D02*
X2531968Y-7687531D01*
X2531968Y-7687531D02*
X2541491Y-7706579D01*
X2541491Y-7706579D02*
X2551015Y-7744674D01*
X2551015Y-7744674D02*
X2551015Y-7792293D01*
X2551015Y-7792293D02*
X2541491Y-7830388D01*
X2541491Y-7830388D02*
X2531968Y-7849436D01*
X2531968Y-7849436D02*
X2522444Y-7858960D01*
X2522444Y-7858960D02*
X2503396Y-7868484D01*
X2503396Y-7868484D02*
X2484348Y-7868484D01*
X2484348Y-7868484D02*
X2465301Y-7858960D01*
X2465301Y-7858960D02*
X2455777Y-7849436D01*
X2455777Y-7849436D02*
X2446253Y-7830388D01*
X2446253Y-7830388D02*
X2436729Y-7792293D01*
X2436729Y-7792293D02*
X2436729Y-7744674D01*
X2436729Y-7744674D02*
X2446253Y-7706579D01*
X2446253Y-7706579D02*
X2455777Y-7687531D01*
X2455777Y-7687531D02*
X2465301Y-7678008D01*
X2465301Y-7678008D02*
X2484348Y-7668484D01*
X2627206Y-7687531D02*
X2636729Y-7678008D01*
X2636729Y-7678008D02*
X2655777Y-7668484D01*
X2655777Y-7668484D02*
X2703396Y-7668484D01*
X2703396Y-7668484D02*
X2722444Y-7678008D01*
X2722444Y-7678008D02*
X2731968Y-7687531D01*
X2731968Y-7687531D02*
X2741491Y-7706579D01*
X2741491Y-7706579D02*
X2741491Y-7725627D01*
X2741491Y-7725627D02*
X2731968Y-7754198D01*
X2731968Y-7754198D02*
X2617682Y-7868484D01*
X2617682Y-7868484D02*
X2741491Y-7868484D01*
X2808158Y-7668484D02*
X2941491Y-7668484D01*
X2941491Y-7668484D02*
X2855777Y-7868484D01*
X3103396Y-7668484D02*
X3065301Y-7668484D01*
X3065301Y-7668484D02*
X3046253Y-7678008D01*
X3046253Y-7678008D02*
X3036729Y-7687531D01*
X3036729Y-7687531D02*
X3017682Y-7716103D01*
X3017682Y-7716103D02*
X3008158Y-7754198D01*
X3008158Y-7754198D02*
X3008158Y-7830388D01*
X3008158Y-7830388D02*
X3017682Y-7849436D01*
X3017682Y-7849436D02*
X3027206Y-7858960D01*
X3027206Y-7858960D02*
X3046253Y-7868484D01*
X3046253Y-7868484D02*
X3084348Y-7868484D01*
X3084348Y-7868484D02*
X3103396Y-7858960D01*
X3103396Y-7858960D02*
X3112920Y-7849436D01*
X3112920Y-7849436D02*
X3122444Y-7830388D01*
X3122444Y-7830388D02*
X3122444Y-7782769D01*
X3122444Y-7782769D02*
X3112920Y-7763722D01*
X3112920Y-7763722D02*
X3103396Y-7754198D01*
X3103396Y-7754198D02*
X3084348Y-7744674D01*
X3084348Y-7744674D02*
X3046253Y-7744674D01*
X3046253Y-7744674D02*
X3027206Y-7754198D01*
X3027206Y-7754198D02*
X3017682Y-7763722D01*
X3017682Y-7763722D02*
X3008158Y-7782769D01*
X3198634Y-7668484D02*
X3198634Y-7706579D01*
X3274825Y-7668484D02*
X3274825Y-7706579D01*
X3570063Y-7944674D02*
X3560539Y-7935150D01*
X3560539Y-7935150D02*
X3541491Y-7906579D01*
X3541491Y-7906579D02*
X3531968Y-7887531D01*
X3531968Y-7887531D02*
X3522444Y-7858960D01*
X3522444Y-7858960D02*
X3512920Y-7811341D01*
X3512920Y-7811341D02*
X3512920Y-7773246D01*
X3512920Y-7773246D02*
X3522444Y-7725627D01*
X3522444Y-7725627D02*
X3531968Y-7697055D01*
X3531968Y-7697055D02*
X3541491Y-7678008D01*
X3541491Y-7678008D02*
X3560539Y-7649436D01*
X3560539Y-7649436D02*
X3570063Y-7639912D01*
X3636729Y-7687531D02*
X3646253Y-7678008D01*
X3646253Y-7678008D02*
X3665301Y-7668484D01*
X3665301Y-7668484D02*
X3712920Y-7668484D01*
X3712920Y-7668484D02*
X3731968Y-7678008D01*
X3731968Y-7678008D02*
X3741491Y-7687531D01*
X3741491Y-7687531D02*
X3751015Y-7706579D01*
X3751015Y-7706579D02*
X3751015Y-7725627D01*
X3751015Y-7725627D02*
X3741491Y-7754198D01*
X3741491Y-7754198D02*
X3627206Y-7868484D01*
X3627206Y-7868484D02*
X3751015Y-7868484D01*
X3989110Y-7868484D02*
X3989110Y-7668484D01*
X4074825Y-7868484D02*
X4074825Y-7763722D01*
X4074825Y-7763722D02*
X4065301Y-7744674D01*
X4065301Y-7744674D02*
X4046253Y-7735150D01*
X4046253Y-7735150D02*
X4017682Y-7735150D01*
X4017682Y-7735150D02*
X3998634Y-7744674D01*
X3998634Y-7744674D02*
X3989110Y-7754198D01*
X4198634Y-7868484D02*
X4179587Y-7858960D01*
X4179587Y-7858960D02*
X4170063Y-7849436D01*
X4170063Y-7849436D02*
X4160539Y-7830388D01*
X4160539Y-7830388D02*
X4160539Y-7773246D01*
X4160539Y-7773246D02*
X4170063Y-7754198D01*
X4170063Y-7754198D02*
X4179587Y-7744674D01*
X4179587Y-7744674D02*
X4198634Y-7735150D01*
X4198634Y-7735150D02*
X4227206Y-7735150D01*
X4227206Y-7735150D02*
X4246253Y-7744674D01*
X4246253Y-7744674D02*
X4255777Y-7754198D01*
X4255777Y-7754198D02*
X4265301Y-7773246D01*
X4265301Y-7773246D02*
X4265301Y-7830388D01*
X4265301Y-7830388D02*
X4255777Y-7849436D01*
X4255777Y-7849436D02*
X4246253Y-7858960D01*
X4246253Y-7858960D02*
X4227206Y-7868484D01*
X4227206Y-7868484D02*
X4198634Y-7868484D01*
X4379587Y-7868484D02*
X4360539Y-7858960D01*
X4360539Y-7858960D02*
X4351015Y-7839912D01*
X4351015Y-7839912D02*
X4351015Y-7668484D01*
X4531968Y-7858960D02*
X4512920Y-7868484D01*
X4512920Y-7868484D02*
X4474825Y-7868484D01*
X4474825Y-7868484D02*
X4455777Y-7858960D01*
X4455777Y-7858960D02*
X4446253Y-7839912D01*
X4446253Y-7839912D02*
X4446253Y-7763722D01*
X4446253Y-7763722D02*
X4455777Y-7744674D01*
X4455777Y-7744674D02*
X4474825Y-7735150D01*
X4474825Y-7735150D02*
X4512920Y-7735150D01*
X4512920Y-7735150D02*
X4531968Y-7744674D01*
X4531968Y-7744674D02*
X4541492Y-7763722D01*
X4541492Y-7763722D02*
X4541492Y-7782769D01*
X4541492Y-7782769D02*
X4446253Y-7801817D01*
X4617682Y-7858960D02*
X4636730Y-7868484D01*
X4636730Y-7868484D02*
X4674825Y-7868484D01*
X4674825Y-7868484D02*
X4693873Y-7858960D01*
X4693873Y-7858960D02*
X4703396Y-7839912D01*
X4703396Y-7839912D02*
X4703396Y-7830388D01*
X4703396Y-7830388D02*
X4693873Y-7811341D01*
X4693873Y-7811341D02*
X4674825Y-7801817D01*
X4674825Y-7801817D02*
X4646253Y-7801817D01*
X4646253Y-7801817D02*
X4627206Y-7792293D01*
X4627206Y-7792293D02*
X4617682Y-7773246D01*
X4617682Y-7773246D02*
X4617682Y-7763722D01*
X4617682Y-7763722D02*
X4627206Y-7744674D01*
X4627206Y-7744674D02*
X4646253Y-7735150D01*
X4646253Y-7735150D02*
X4674825Y-7735150D01*
X4674825Y-7735150D02*
X4693873Y-7744674D01*
X4770063Y-7944674D02*
X4779587Y-7935150D01*
X4779587Y-7935150D02*
X4798634Y-7906579D01*
X4798634Y-7906579D02*
X4808158Y-7887531D01*
X4808158Y-7887531D02*
X4817682Y-7858960D01*
X4817682Y-7858960D02*
X4827206Y-7811341D01*
X4827206Y-7811341D02*
X4827206Y-7773246D01*
X4827206Y-7773246D02*
X4817682Y-7725627D01*
X4817682Y-7725627D02*
X4808158Y-7697055D01*
X4808158Y-7697055D02*
X4798634Y-7678008D01*
X4798634Y-7678008D02*
X4779587Y-7649436D01*
X4779587Y-7649436D02*
X4770063Y-7639912D01*
D10*
X-16716Y-8069284D02*
X-16716Y-8012715D01*
X-73285Y-8012715D01*
X-73285Y-8069284D01*
X-16716Y-8069284D01*
D11*
X293872Y-7932484D02*
X312920Y-7932484D01*
X312920Y-7932484D02*
X331967Y-7942008D01*
X331967Y-7942008D02*
X341491Y-7951531D01*
X341491Y-7951531D02*
X351015Y-7970579D01*
X351015Y-7970579D02*
X360539Y-8008674D01*
X360539Y-8008674D02*
X360539Y-8056293D01*
X360539Y-8056293D02*
X351015Y-8094388D01*
X351015Y-8094388D02*
X341491Y-8113436D01*
X341491Y-8113436D02*
X331967Y-8122960D01*
X331967Y-8122960D02*
X312920Y-8132484D01*
X312920Y-8132484D02*
X293872Y-8132484D01*
X293872Y-8132484D02*
X274824Y-8122960D01*
X274824Y-8122960D02*
X265301Y-8113436D01*
X265301Y-8113436D02*
X255777Y-8094388D01*
X255777Y-8094388D02*
X246253Y-8056293D01*
X246253Y-8056293D02*
X246253Y-8008674D01*
X246253Y-8008674D02*
X255777Y-7970579D01*
X255777Y-7970579D02*
X265301Y-7951531D01*
X265301Y-7951531D02*
X274824Y-7942008D01*
X274824Y-7942008D02*
X293872Y-7932484D01*
X455777Y-8122960D02*
X455777Y-8132484D01*
X455777Y-8132484D02*
X446253Y-8151531D01*
X446253Y-8151531D02*
X436729Y-8161055D01*
X570063Y-8018198D02*
X551015Y-8008674D01*
X551015Y-8008674D02*
X541491Y-7999150D01*
X541491Y-7999150D02*
X531967Y-7980103D01*
X531967Y-7980103D02*
X531967Y-7970579D01*
X531967Y-7970579D02*
X541491Y-7951531D01*
X541491Y-7951531D02*
X551015Y-7942008D01*
X551015Y-7942008D02*
X570063Y-7932484D01*
X570063Y-7932484D02*
X608158Y-7932484D01*
X608158Y-7932484D02*
X627205Y-7942008D01*
X627205Y-7942008D02*
X636729Y-7951531D01*
X636729Y-7951531D02*
X646253Y-7970579D01*
X646253Y-7970579D02*
X646253Y-7980103D01*
X646253Y-7980103D02*
X636729Y-7999150D01*
X636729Y-7999150D02*
X627205Y-8008674D01*
X627205Y-8008674D02*
X608158Y-8018198D01*
X608158Y-8018198D02*
X570063Y-8018198D01*
X570063Y-8018198D02*
X551015Y-8027722D01*
X551015Y-8027722D02*
X541491Y-8037246D01*
X541491Y-8037246D02*
X531967Y-8056293D01*
X531967Y-8056293D02*
X531967Y-8094388D01*
X531967Y-8094388D02*
X541491Y-8113436D01*
X541491Y-8113436D02*
X551015Y-8122960D01*
X551015Y-8122960D02*
X570063Y-8132484D01*
X570063Y-8132484D02*
X608158Y-8132484D01*
X608158Y-8132484D02*
X627205Y-8122960D01*
X627205Y-8122960D02*
X636729Y-8113436D01*
X636729Y-8113436D02*
X646253Y-8094388D01*
X646253Y-8094388D02*
X646253Y-8056293D01*
X646253Y-8056293D02*
X636729Y-8037246D01*
X636729Y-8037246D02*
X627205Y-8027722D01*
X627205Y-8027722D02*
X608158Y-8018198D01*
X770062Y-7932484D02*
X789110Y-7932484D01*
X789110Y-7932484D02*
X808158Y-7942008D01*
X808158Y-7942008D02*
X817682Y-7951531D01*
X817682Y-7951531D02*
X827205Y-7970579D01*
X827205Y-7970579D02*
X836729Y-8008674D01*
X836729Y-8008674D02*
X836729Y-8056293D01*
X836729Y-8056293D02*
X827205Y-8094388D01*
X827205Y-8094388D02*
X817682Y-8113436D01*
X817682Y-8113436D02*
X808158Y-8122960D01*
X808158Y-8122960D02*
X789110Y-8132484D01*
X789110Y-8132484D02*
X770062Y-8132484D01*
X770062Y-8132484D02*
X751015Y-8122960D01*
X751015Y-8122960D02*
X741491Y-8113436D01*
X741491Y-8113436D02*
X731967Y-8094388D01*
X731967Y-8094388D02*
X722443Y-8056293D01*
X722443Y-8056293D02*
X722443Y-8008674D01*
X722443Y-8008674D02*
X731967Y-7970579D01*
X731967Y-7970579D02*
X741491Y-7951531D01*
X741491Y-7951531D02*
X751015Y-7942008D01*
X751015Y-7942008D02*
X770062Y-7932484D01*
X960539Y-7932484D02*
X979586Y-7932484D01*
X979586Y-7932484D02*
X998634Y-7942008D01*
X998634Y-7942008D02*
X1008158Y-7951531D01*
X1008158Y-7951531D02*
X1017682Y-7970579D01*
X1017682Y-7970579D02*
X1027205Y-8008674D01*
X1027205Y-8008674D02*
X1027205Y-8056293D01*
X1027205Y-8056293D02*
X1017682Y-8094388D01*
X1017682Y-8094388D02*
X1008158Y-8113436D01*
X1008158Y-8113436D02*
X998634Y-8122960D01*
X998634Y-8122960D02*
X979586Y-8132484D01*
X979586Y-8132484D02*
X960539Y-8132484D01*
X960539Y-8132484D02*
X941491Y-8122960D01*
X941491Y-8122960D02*
X931967Y-8113436D01*
X931967Y-8113436D02*
X922443Y-8094388D01*
X922443Y-8094388D02*
X912920Y-8056293D01*
X912920Y-8056293D02*
X912920Y-8008674D01*
X912920Y-8008674D02*
X922443Y-7970579D01*
X922443Y-7970579D02*
X931967Y-7951531D01*
X931967Y-7951531D02*
X941491Y-7942008D01*
X941491Y-7942008D02*
X960539Y-7932484D01*
X1112920Y-8132484D02*
X1112920Y-7999150D01*
X1112920Y-8018198D02*
X1122444Y-8008674D01*
X1122444Y-8008674D02*
X1141491Y-7999150D01*
X1141491Y-7999150D02*
X1170063Y-7999150D01*
X1170063Y-7999150D02*
X1189110Y-8008674D01*
X1189110Y-8008674D02*
X1198634Y-8027722D01*
X1198634Y-8027722D02*
X1198634Y-8132484D01*
X1198634Y-8027722D02*
X1208158Y-8008674D01*
X1208158Y-8008674D02*
X1227205Y-7999150D01*
X1227205Y-7999150D02*
X1255777Y-7999150D01*
X1255777Y-7999150D02*
X1274825Y-8008674D01*
X1274825Y-8008674D02*
X1284348Y-8027722D01*
X1284348Y-8027722D02*
X1284348Y-8132484D01*
X1379586Y-8132484D02*
X1379586Y-7999150D01*
X1379586Y-8018198D02*
X1389110Y-8008674D01*
X1389110Y-8008674D02*
X1408158Y-7999150D01*
X1408158Y-7999150D02*
X1436729Y-7999150D01*
X1436729Y-7999150D02*
X1455777Y-8008674D01*
X1455777Y-8008674D02*
X1465301Y-8027722D01*
X1465301Y-8027722D02*
X1465301Y-8132484D01*
X1465301Y-8027722D02*
X1474824Y-8008674D01*
X1474824Y-8008674D02*
X1493872Y-7999150D01*
X1493872Y-7999150D02*
X1522443Y-7999150D01*
X1522443Y-7999150D02*
X1541491Y-8008674D01*
X1541491Y-8008674D02*
X1551015Y-8027722D01*
X1551015Y-8027722D02*
X1551015Y-8132484D01*
X1941491Y-7922960D02*
X1770063Y-8180103D01*
X2198634Y-7932484D02*
X2217682Y-7932484D01*
X2217682Y-7932484D02*
X2236729Y-7942008D01*
X2236729Y-7942008D02*
X2246253Y-7951531D01*
X2246253Y-7951531D02*
X2255777Y-7970579D01*
X2255777Y-7970579D02*
X2265301Y-8008674D01*
X2265301Y-8008674D02*
X2265301Y-8056293D01*
X2265301Y-8056293D02*
X2255777Y-8094388D01*
X2255777Y-8094388D02*
X2246253Y-8113436D01*
X2246253Y-8113436D02*
X2236729Y-8122960D01*
X2236729Y-8122960D02*
X2217682Y-8132484D01*
X2217682Y-8132484D02*
X2198634Y-8132484D01*
X2198634Y-8132484D02*
X2179587Y-8122960D01*
X2179587Y-8122960D02*
X2170063Y-8113436D01*
X2170063Y-8113436D02*
X2160539Y-8094388D01*
X2160539Y-8094388D02*
X2151015Y-8056293D01*
X2151015Y-8056293D02*
X2151015Y-8008674D01*
X2151015Y-8008674D02*
X2160539Y-7970579D01*
X2160539Y-7970579D02*
X2170063Y-7951531D01*
X2170063Y-7951531D02*
X2179587Y-7942008D01*
X2179587Y-7942008D02*
X2198634Y-7932484D01*
X2360539Y-8122960D02*
X2360539Y-8132484D01*
X2360539Y-8132484D02*
X2351015Y-8151531D01*
X2351015Y-8151531D02*
X2341491Y-8161055D01*
X2484348Y-7932484D02*
X2503396Y-7932484D01*
X2503396Y-7932484D02*
X2522444Y-7942008D01*
X2522444Y-7942008D02*
X2531968Y-7951531D01*
X2531968Y-7951531D02*
X2541491Y-7970579D01*
X2541491Y-7970579D02*
X2551015Y-8008674D01*
X2551015Y-8008674D02*
X2551015Y-8056293D01*
X2551015Y-8056293D02*
X2541491Y-8094388D01*
X2541491Y-8094388D02*
X2531968Y-8113436D01*
X2531968Y-8113436D02*
X2522444Y-8122960D01*
X2522444Y-8122960D02*
X2503396Y-8132484D01*
X2503396Y-8132484D02*
X2484348Y-8132484D01*
X2484348Y-8132484D02*
X2465301Y-8122960D01*
X2465301Y-8122960D02*
X2455777Y-8113436D01*
X2455777Y-8113436D02*
X2446253Y-8094388D01*
X2446253Y-8094388D02*
X2436729Y-8056293D01*
X2436729Y-8056293D02*
X2436729Y-8008674D01*
X2436729Y-8008674D02*
X2446253Y-7970579D01*
X2446253Y-7970579D02*
X2455777Y-7951531D01*
X2455777Y-7951531D02*
X2465301Y-7942008D01*
X2465301Y-7942008D02*
X2484348Y-7932484D01*
X2617682Y-7932484D02*
X2741491Y-7932484D01*
X2741491Y-7932484D02*
X2674825Y-8008674D01*
X2674825Y-8008674D02*
X2703396Y-8008674D01*
X2703396Y-8008674D02*
X2722444Y-8018198D01*
X2722444Y-8018198D02*
X2731968Y-8027722D01*
X2731968Y-8027722D02*
X2741491Y-8046769D01*
X2741491Y-8046769D02*
X2741491Y-8094388D01*
X2741491Y-8094388D02*
X2731968Y-8113436D01*
X2731968Y-8113436D02*
X2722444Y-8122960D01*
X2722444Y-8122960D02*
X2703396Y-8132484D01*
X2703396Y-8132484D02*
X2646253Y-8132484D01*
X2646253Y-8132484D02*
X2627206Y-8122960D01*
X2627206Y-8122960D02*
X2617682Y-8113436D01*
X2931967Y-8132484D02*
X2817682Y-8132484D01*
X2874825Y-8132484D02*
X2874825Y-7932484D01*
X2874825Y-7932484D02*
X2855777Y-7961055D01*
X2855777Y-7961055D02*
X2836729Y-7980103D01*
X2836729Y-7980103D02*
X2817682Y-7989627D01*
X3112920Y-7932484D02*
X3017682Y-7932484D01*
X3017682Y-7932484D02*
X3008158Y-8027722D01*
X3008158Y-8027722D02*
X3017682Y-8018198D01*
X3017682Y-8018198D02*
X3036729Y-8008674D01*
X3036729Y-8008674D02*
X3084348Y-8008674D01*
X3084348Y-8008674D02*
X3103396Y-8018198D01*
X3103396Y-8018198D02*
X3112920Y-8027722D01*
X3112920Y-8027722D02*
X3122444Y-8046769D01*
X3122444Y-8046769D02*
X3122444Y-8094388D01*
X3122444Y-8094388D02*
X3112920Y-8113436D01*
X3112920Y-8113436D02*
X3103396Y-8122960D01*
X3103396Y-8122960D02*
X3084348Y-8132484D01*
X3084348Y-8132484D02*
X3036729Y-8132484D01*
X3036729Y-8132484D02*
X3017682Y-8122960D01*
X3017682Y-8122960D02*
X3008158Y-8113436D01*
X3198634Y-7932484D02*
X3198634Y-7970579D01*
X3274825Y-7932484D02*
X3274825Y-7970579D01*
X3570063Y-8208674D02*
X3560539Y-8199150D01*
X3560539Y-8199150D02*
X3541491Y-8170579D01*
X3541491Y-8170579D02*
X3531968Y-8151531D01*
X3531968Y-8151531D02*
X3522444Y-8122960D01*
X3522444Y-8122960D02*
X3512920Y-8075341D01*
X3512920Y-8075341D02*
X3512920Y-8037246D01*
X3512920Y-8037246D02*
X3522444Y-7989627D01*
X3522444Y-7989627D02*
X3531968Y-7961055D01*
X3531968Y-7961055D02*
X3541491Y-7942008D01*
X3541491Y-7942008D02*
X3560539Y-7913436D01*
X3560539Y-7913436D02*
X3570063Y-7903912D01*
X3751015Y-8132484D02*
X3636729Y-8132484D01*
X3693872Y-8132484D02*
X3693872Y-7932484D01*
X3693872Y-7932484D02*
X3674825Y-7961055D01*
X3674825Y-7961055D02*
X3655777Y-7980103D01*
X3655777Y-7980103D02*
X3636729Y-7989627D01*
X3827206Y-7951531D02*
X3836729Y-7942008D01*
X3836729Y-7942008D02*
X3855777Y-7932484D01*
X3855777Y-7932484D02*
X3903396Y-7932484D01*
X3903396Y-7932484D02*
X3922444Y-7942008D01*
X3922444Y-7942008D02*
X3931968Y-7951531D01*
X3931968Y-7951531D02*
X3941491Y-7970579D01*
X3941491Y-7970579D02*
X3941491Y-7989627D01*
X3941491Y-7989627D02*
X3931968Y-8018198D01*
X3931968Y-8018198D02*
X3817682Y-8132484D01*
X3817682Y-8132484D02*
X3941491Y-8132484D01*
X4112920Y-7999150D02*
X4112920Y-8132484D01*
X4065301Y-7922960D02*
X4017682Y-8065817D01*
X4017682Y-8065817D02*
X4141491Y-8065817D01*
X4370063Y-8132484D02*
X4370063Y-7932484D01*
X4455777Y-8132484D02*
X4455777Y-8027722D01*
X4455777Y-8027722D02*
X4446253Y-8008674D01*
X4446253Y-8008674D02*
X4427206Y-7999150D01*
X4427206Y-7999150D02*
X4398634Y-7999150D01*
X4398634Y-7999150D02*
X4379587Y-8008674D01*
X4379587Y-8008674D02*
X4370063Y-8018198D01*
X4579587Y-8132484D02*
X4560539Y-8122960D01*
X4560539Y-8122960D02*
X4551015Y-8113436D01*
X4551015Y-8113436D02*
X4541492Y-8094388D01*
X4541492Y-8094388D02*
X4541492Y-8037246D01*
X4541492Y-8037246D02*
X4551015Y-8018198D01*
X4551015Y-8018198D02*
X4560539Y-8008674D01*
X4560539Y-8008674D02*
X4579587Y-7999150D01*
X4579587Y-7999150D02*
X4608158Y-7999150D01*
X4608158Y-7999150D02*
X4627206Y-8008674D01*
X4627206Y-8008674D02*
X4636730Y-8018198D01*
X4636730Y-8018198D02*
X4646253Y-8037246D01*
X4646253Y-8037246D02*
X4646253Y-8094388D01*
X4646253Y-8094388D02*
X4636730Y-8113436D01*
X4636730Y-8113436D02*
X4627206Y-8122960D01*
X4627206Y-8122960D02*
X4608158Y-8132484D01*
X4608158Y-8132484D02*
X4579587Y-8132484D01*
X4760539Y-8132484D02*
X4741492Y-8122960D01*
X4741492Y-8122960D02*
X4731968Y-8103912D01*
X4731968Y-8103912D02*
X4731968Y-7932484D01*
X4912920Y-8122960D02*
X4893873Y-8132484D01*
X4893873Y-8132484D02*
X4855777Y-8132484D01*
X4855777Y-8132484D02*
X4836730Y-8122960D01*
X4836730Y-8122960D02*
X4827206Y-8103912D01*
X4827206Y-8103912D02*
X4827206Y-8027722D01*
X4827206Y-8027722D02*
X4836730Y-8008674D01*
X4836730Y-8008674D02*
X4855777Y-7999150D01*
X4855777Y-7999150D02*
X4893873Y-7999150D01*
X4893873Y-7999150D02*
X4912920Y-8008674D01*
X4912920Y-8008674D02*
X4922444Y-8027722D01*
X4922444Y-8027722D02*
X4922444Y-8046769D01*
X4922444Y-8046769D02*
X4827206Y-8065817D01*
X4998634Y-8122960D02*
X5017682Y-8132484D01*
X5017682Y-8132484D02*
X5055777Y-8132484D01*
X5055777Y-8132484D02*
X5074825Y-8122960D01*
X5074825Y-8122960D02*
X5084349Y-8103912D01*
X5084349Y-8103912D02*
X5084349Y-8094388D01*
X5084349Y-8094388D02*
X5074825Y-8075341D01*
X5074825Y-8075341D02*
X5055777Y-8065817D01*
X5055777Y-8065817D02*
X5027206Y-8065817D01*
X5027206Y-8065817D02*
X5008158Y-8056293D01*
X5008158Y-8056293D02*
X4998634Y-8037246D01*
X4998634Y-8037246D02*
X4998634Y-8027722D01*
X4998634Y-8027722D02*
X5008158Y-8008674D01*
X5008158Y-8008674D02*
X5027206Y-7999150D01*
X5027206Y-7999150D02*
X5055777Y-7999150D01*
X5055777Y-7999150D02*
X5074825Y-8008674D01*
X5151015Y-8208674D02*
X5160539Y-8199150D01*
X5160539Y-8199150D02*
X5179587Y-8170579D01*
X5179587Y-8170579D02*
X5189111Y-8151531D01*
X5189111Y-8151531D02*
X5198634Y-8122960D01*
X5198634Y-8122960D02*
X5208158Y-8075341D01*
X5208158Y-8075341D02*
X5208158Y-8037246D01*
X5208158Y-8037246D02*
X5198634Y-7989627D01*
X5198634Y-7989627D02*
X5189111Y-7961055D01*
X5189111Y-7961055D02*
X5179587Y-7942008D01*
X5179587Y-7942008D02*
X5160539Y-7913436D01*
X5160539Y-7913436D02*
X5151015Y-7903912D01*
D10*
X-50000Y-8350000D02*
X-5000Y-8305000D01*
X-50000Y-8260000D01*
X-95000Y-8305000D01*
X-50000Y-8350000D01*
D11*
X293872Y-8196484D02*
X312920Y-8196484D01*
X312920Y-8196484D02*
X331967Y-8206008D01*
X331967Y-8206008D02*
X341491Y-8215531D01*
X341491Y-8215531D02*
X351015Y-8234579D01*
X351015Y-8234579D02*
X360539Y-8272674D01*
X360539Y-8272674D02*
X360539Y-8320293D01*
X360539Y-8320293D02*
X351015Y-8358388D01*
X351015Y-8358388D02*
X341491Y-8377436D01*
X341491Y-8377436D02*
X331967Y-8386960D01*
X331967Y-8386960D02*
X312920Y-8396484D01*
X312920Y-8396484D02*
X293872Y-8396484D01*
X293872Y-8396484D02*
X274824Y-8386960D01*
X274824Y-8386960D02*
X265301Y-8377436D01*
X265301Y-8377436D02*
X255777Y-8358388D01*
X255777Y-8358388D02*
X246253Y-8320293D01*
X246253Y-8320293D02*
X246253Y-8272674D01*
X246253Y-8272674D02*
X255777Y-8234579D01*
X255777Y-8234579D02*
X265301Y-8215531D01*
X265301Y-8215531D02*
X274824Y-8206008D01*
X274824Y-8206008D02*
X293872Y-8196484D01*
X455777Y-8386960D02*
X455777Y-8396484D01*
X455777Y-8396484D02*
X446253Y-8415531D01*
X446253Y-8415531D02*
X436729Y-8425055D01*
X551015Y-8396484D02*
X589110Y-8396484D01*
X589110Y-8396484D02*
X608158Y-8386960D01*
X608158Y-8386960D02*
X617682Y-8377436D01*
X617682Y-8377436D02*
X636729Y-8348865D01*
X636729Y-8348865D02*
X646253Y-8310769D01*
X646253Y-8310769D02*
X646253Y-8234579D01*
X646253Y-8234579D02*
X636729Y-8215531D01*
X636729Y-8215531D02*
X627205Y-8206008D01*
X627205Y-8206008D02*
X608158Y-8196484D01*
X608158Y-8196484D02*
X570063Y-8196484D01*
X570063Y-8196484D02*
X551015Y-8206008D01*
X551015Y-8206008D02*
X541491Y-8215531D01*
X541491Y-8215531D02*
X531967Y-8234579D01*
X531967Y-8234579D02*
X531967Y-8282198D01*
X531967Y-8282198D02*
X541491Y-8301246D01*
X541491Y-8301246D02*
X551015Y-8310769D01*
X551015Y-8310769D02*
X570063Y-8320293D01*
X570063Y-8320293D02*
X608158Y-8320293D01*
X608158Y-8320293D02*
X627205Y-8310769D01*
X627205Y-8310769D02*
X636729Y-8301246D01*
X636729Y-8301246D02*
X646253Y-8282198D01*
X770062Y-8196484D02*
X789110Y-8196484D01*
X789110Y-8196484D02*
X808158Y-8206008D01*
X808158Y-8206008D02*
X817682Y-8215531D01*
X817682Y-8215531D02*
X827205Y-8234579D01*
X827205Y-8234579D02*
X836729Y-8272674D01*
X836729Y-8272674D02*
X836729Y-8320293D01*
X836729Y-8320293D02*
X827205Y-8358388D01*
X827205Y-8358388D02*
X817682Y-8377436D01*
X817682Y-8377436D02*
X808158Y-8386960D01*
X808158Y-8386960D02*
X789110Y-8396484D01*
X789110Y-8396484D02*
X770062Y-8396484D01*
X770062Y-8396484D02*
X751015Y-8386960D01*
X751015Y-8386960D02*
X741491Y-8377436D01*
X741491Y-8377436D02*
X731967Y-8358388D01*
X731967Y-8358388D02*
X722443Y-8320293D01*
X722443Y-8320293D02*
X722443Y-8272674D01*
X722443Y-8272674D02*
X731967Y-8234579D01*
X731967Y-8234579D02*
X741491Y-8215531D01*
X741491Y-8215531D02*
X751015Y-8206008D01*
X751015Y-8206008D02*
X770062Y-8196484D01*
X960539Y-8196484D02*
X979586Y-8196484D01*
X979586Y-8196484D02*
X998634Y-8206008D01*
X998634Y-8206008D02*
X1008158Y-8215531D01*
X1008158Y-8215531D02*
X1017682Y-8234579D01*
X1017682Y-8234579D02*
X1027205Y-8272674D01*
X1027205Y-8272674D02*
X1027205Y-8320293D01*
X1027205Y-8320293D02*
X1017682Y-8358388D01*
X1017682Y-8358388D02*
X1008158Y-8377436D01*
X1008158Y-8377436D02*
X998634Y-8386960D01*
X998634Y-8386960D02*
X979586Y-8396484D01*
X979586Y-8396484D02*
X960539Y-8396484D01*
X960539Y-8396484D02*
X941491Y-8386960D01*
X941491Y-8386960D02*
X931967Y-8377436D01*
X931967Y-8377436D02*
X922443Y-8358388D01*
X922443Y-8358388D02*
X912920Y-8320293D01*
X912920Y-8320293D02*
X912920Y-8272674D01*
X912920Y-8272674D02*
X922443Y-8234579D01*
X922443Y-8234579D02*
X931967Y-8215531D01*
X931967Y-8215531D02*
X941491Y-8206008D01*
X941491Y-8206008D02*
X960539Y-8196484D01*
X1112920Y-8396484D02*
X1112920Y-8263150D01*
X1112920Y-8282198D02*
X1122444Y-8272674D01*
X1122444Y-8272674D02*
X1141491Y-8263150D01*
X1141491Y-8263150D02*
X1170063Y-8263150D01*
X1170063Y-8263150D02*
X1189110Y-8272674D01*
X1189110Y-8272674D02*
X1198634Y-8291722D01*
X1198634Y-8291722D02*
X1198634Y-8396484D01*
X1198634Y-8291722D02*
X1208158Y-8272674D01*
X1208158Y-8272674D02*
X1227205Y-8263150D01*
X1227205Y-8263150D02*
X1255777Y-8263150D01*
X1255777Y-8263150D02*
X1274825Y-8272674D01*
X1274825Y-8272674D02*
X1284348Y-8291722D01*
X1284348Y-8291722D02*
X1284348Y-8396484D01*
X1379586Y-8396484D02*
X1379586Y-8263150D01*
X1379586Y-8282198D02*
X1389110Y-8272674D01*
X1389110Y-8272674D02*
X1408158Y-8263150D01*
X1408158Y-8263150D02*
X1436729Y-8263150D01*
X1436729Y-8263150D02*
X1455777Y-8272674D01*
X1455777Y-8272674D02*
X1465301Y-8291722D01*
X1465301Y-8291722D02*
X1465301Y-8396484D01*
X1465301Y-8291722D02*
X1474824Y-8272674D01*
X1474824Y-8272674D02*
X1493872Y-8263150D01*
X1493872Y-8263150D02*
X1522443Y-8263150D01*
X1522443Y-8263150D02*
X1541491Y-8272674D01*
X1541491Y-8272674D02*
X1551015Y-8291722D01*
X1551015Y-8291722D02*
X1551015Y-8396484D01*
X1941491Y-8186960D02*
X1770063Y-8444103D01*
X2198634Y-8196484D02*
X2217682Y-8196484D01*
X2217682Y-8196484D02*
X2236729Y-8206008D01*
X2236729Y-8206008D02*
X2246253Y-8215531D01*
X2246253Y-8215531D02*
X2255777Y-8234579D01*
X2255777Y-8234579D02*
X2265301Y-8272674D01*
X2265301Y-8272674D02*
X2265301Y-8320293D01*
X2265301Y-8320293D02*
X2255777Y-8358388D01*
X2255777Y-8358388D02*
X2246253Y-8377436D01*
X2246253Y-8377436D02*
X2236729Y-8386960D01*
X2236729Y-8386960D02*
X2217682Y-8396484D01*
X2217682Y-8396484D02*
X2198634Y-8396484D01*
X2198634Y-8396484D02*
X2179587Y-8386960D01*
X2179587Y-8386960D02*
X2170063Y-8377436D01*
X2170063Y-8377436D02*
X2160539Y-8358388D01*
X2160539Y-8358388D02*
X2151015Y-8320293D01*
X2151015Y-8320293D02*
X2151015Y-8272674D01*
X2151015Y-8272674D02*
X2160539Y-8234579D01*
X2160539Y-8234579D02*
X2170063Y-8215531D01*
X2170063Y-8215531D02*
X2179587Y-8206008D01*
X2179587Y-8206008D02*
X2198634Y-8196484D01*
X2360539Y-8386960D02*
X2360539Y-8396484D01*
X2360539Y-8396484D02*
X2351015Y-8415531D01*
X2351015Y-8415531D02*
X2341491Y-8425055D01*
X2484348Y-8196484D02*
X2503396Y-8196484D01*
X2503396Y-8196484D02*
X2522444Y-8206008D01*
X2522444Y-8206008D02*
X2531968Y-8215531D01*
X2531968Y-8215531D02*
X2541491Y-8234579D01*
X2541491Y-8234579D02*
X2551015Y-8272674D01*
X2551015Y-8272674D02*
X2551015Y-8320293D01*
X2551015Y-8320293D02*
X2541491Y-8358388D01*
X2541491Y-8358388D02*
X2531968Y-8377436D01*
X2531968Y-8377436D02*
X2522444Y-8386960D01*
X2522444Y-8386960D02*
X2503396Y-8396484D01*
X2503396Y-8396484D02*
X2484348Y-8396484D01*
X2484348Y-8396484D02*
X2465301Y-8386960D01*
X2465301Y-8386960D02*
X2455777Y-8377436D01*
X2455777Y-8377436D02*
X2446253Y-8358388D01*
X2446253Y-8358388D02*
X2436729Y-8320293D01*
X2436729Y-8320293D02*
X2436729Y-8272674D01*
X2436729Y-8272674D02*
X2446253Y-8234579D01*
X2446253Y-8234579D02*
X2455777Y-8215531D01*
X2455777Y-8215531D02*
X2465301Y-8206008D01*
X2465301Y-8206008D02*
X2484348Y-8196484D01*
X2617682Y-8196484D02*
X2741491Y-8196484D01*
X2741491Y-8196484D02*
X2674825Y-8272674D01*
X2674825Y-8272674D02*
X2703396Y-8272674D01*
X2703396Y-8272674D02*
X2722444Y-8282198D01*
X2722444Y-8282198D02*
X2731968Y-8291722D01*
X2731968Y-8291722D02*
X2741491Y-8310769D01*
X2741491Y-8310769D02*
X2741491Y-8358388D01*
X2741491Y-8358388D02*
X2731968Y-8377436D01*
X2731968Y-8377436D02*
X2722444Y-8386960D01*
X2722444Y-8386960D02*
X2703396Y-8396484D01*
X2703396Y-8396484D02*
X2646253Y-8396484D01*
X2646253Y-8396484D02*
X2627206Y-8386960D01*
X2627206Y-8386960D02*
X2617682Y-8377436D01*
X2922444Y-8196484D02*
X2827206Y-8196484D01*
X2827206Y-8196484D02*
X2817682Y-8291722D01*
X2817682Y-8291722D02*
X2827206Y-8282198D01*
X2827206Y-8282198D02*
X2846253Y-8272674D01*
X2846253Y-8272674D02*
X2893872Y-8272674D01*
X2893872Y-8272674D02*
X2912920Y-8282198D01*
X2912920Y-8282198D02*
X2922444Y-8291722D01*
X2922444Y-8291722D02*
X2931967Y-8310769D01*
X2931967Y-8310769D02*
X2931967Y-8358388D01*
X2931967Y-8358388D02*
X2922444Y-8377436D01*
X2922444Y-8377436D02*
X2912920Y-8386960D01*
X2912920Y-8386960D02*
X2893872Y-8396484D01*
X2893872Y-8396484D02*
X2846253Y-8396484D01*
X2846253Y-8396484D02*
X2827206Y-8386960D01*
X2827206Y-8386960D02*
X2817682Y-8377436D01*
X3103396Y-8263150D02*
X3103396Y-8396484D01*
X3055777Y-8186960D02*
X3008158Y-8329817D01*
X3008158Y-8329817D02*
X3131967Y-8329817D01*
X3198634Y-8196484D02*
X3198634Y-8234579D01*
X3274825Y-8196484D02*
X3274825Y-8234579D01*
X3570063Y-8472674D02*
X3560539Y-8463150D01*
X3560539Y-8463150D02*
X3541491Y-8434579D01*
X3541491Y-8434579D02*
X3531968Y-8415531D01*
X3531968Y-8415531D02*
X3522444Y-8386960D01*
X3522444Y-8386960D02*
X3512920Y-8339341D01*
X3512920Y-8339341D02*
X3512920Y-8301246D01*
X3512920Y-8301246D02*
X3522444Y-8253627D01*
X3522444Y-8253627D02*
X3531968Y-8225055D01*
X3531968Y-8225055D02*
X3541491Y-8206008D01*
X3541491Y-8206008D02*
X3560539Y-8177436D01*
X3560539Y-8177436D02*
X3570063Y-8167912D01*
X3636729Y-8215531D02*
X3646253Y-8206008D01*
X3646253Y-8206008D02*
X3665301Y-8196484D01*
X3665301Y-8196484D02*
X3712920Y-8196484D01*
X3712920Y-8196484D02*
X3731968Y-8206008D01*
X3731968Y-8206008D02*
X3741491Y-8215531D01*
X3741491Y-8215531D02*
X3751015Y-8234579D01*
X3751015Y-8234579D02*
X3751015Y-8253627D01*
X3751015Y-8253627D02*
X3741491Y-8282198D01*
X3741491Y-8282198D02*
X3627206Y-8396484D01*
X3627206Y-8396484D02*
X3751015Y-8396484D01*
X3989110Y-8396484D02*
X3989110Y-8196484D01*
X4074825Y-8396484D02*
X4074825Y-8291722D01*
X4074825Y-8291722D02*
X4065301Y-8272674D01*
X4065301Y-8272674D02*
X4046253Y-8263150D01*
X4046253Y-8263150D02*
X4017682Y-8263150D01*
X4017682Y-8263150D02*
X3998634Y-8272674D01*
X3998634Y-8272674D02*
X3989110Y-8282198D01*
X4198634Y-8396484D02*
X4179587Y-8386960D01*
X4179587Y-8386960D02*
X4170063Y-8377436D01*
X4170063Y-8377436D02*
X4160539Y-8358388D01*
X4160539Y-8358388D02*
X4160539Y-8301246D01*
X4160539Y-8301246D02*
X4170063Y-8282198D01*
X4170063Y-8282198D02*
X4179587Y-8272674D01*
X4179587Y-8272674D02*
X4198634Y-8263150D01*
X4198634Y-8263150D02*
X4227206Y-8263150D01*
X4227206Y-8263150D02*
X4246253Y-8272674D01*
X4246253Y-8272674D02*
X4255777Y-8282198D01*
X4255777Y-8282198D02*
X4265301Y-8301246D01*
X4265301Y-8301246D02*
X4265301Y-8358388D01*
X4265301Y-8358388D02*
X4255777Y-8377436D01*
X4255777Y-8377436D02*
X4246253Y-8386960D01*
X4246253Y-8386960D02*
X4227206Y-8396484D01*
X4227206Y-8396484D02*
X4198634Y-8396484D01*
X4379587Y-8396484D02*
X4360539Y-8386960D01*
X4360539Y-8386960D02*
X4351015Y-8367912D01*
X4351015Y-8367912D02*
X4351015Y-8196484D01*
X4531968Y-8386960D02*
X4512920Y-8396484D01*
X4512920Y-8396484D02*
X4474825Y-8396484D01*
X4474825Y-8396484D02*
X4455777Y-8386960D01*
X4455777Y-8386960D02*
X4446253Y-8367912D01*
X4446253Y-8367912D02*
X4446253Y-8291722D01*
X4446253Y-8291722D02*
X4455777Y-8272674D01*
X4455777Y-8272674D02*
X4474825Y-8263150D01*
X4474825Y-8263150D02*
X4512920Y-8263150D01*
X4512920Y-8263150D02*
X4531968Y-8272674D01*
X4531968Y-8272674D02*
X4541492Y-8291722D01*
X4541492Y-8291722D02*
X4541492Y-8310769D01*
X4541492Y-8310769D02*
X4446253Y-8329817D01*
X4617682Y-8386960D02*
X4636730Y-8396484D01*
X4636730Y-8396484D02*
X4674825Y-8396484D01*
X4674825Y-8396484D02*
X4693873Y-8386960D01*
X4693873Y-8386960D02*
X4703396Y-8367912D01*
X4703396Y-8367912D02*
X4703396Y-8358388D01*
X4703396Y-8358388D02*
X4693873Y-8339341D01*
X4693873Y-8339341D02*
X4674825Y-8329817D01*
X4674825Y-8329817D02*
X4646253Y-8329817D01*
X4646253Y-8329817D02*
X4627206Y-8320293D01*
X4627206Y-8320293D02*
X4617682Y-8301246D01*
X4617682Y-8301246D02*
X4617682Y-8291722D01*
X4617682Y-8291722D02*
X4627206Y-8272674D01*
X4627206Y-8272674D02*
X4646253Y-8263150D01*
X4646253Y-8263150D02*
X4674825Y-8263150D01*
X4674825Y-8263150D02*
X4693873Y-8272674D01*
X4770063Y-8472674D02*
X4779587Y-8463150D01*
X4779587Y-8463150D02*
X4798634Y-8434579D01*
X4798634Y-8434579D02*
X4808158Y-8415531D01*
X4808158Y-8415531D02*
X4817682Y-8386960D01*
X4817682Y-8386960D02*
X4827206Y-8339341D01*
X4827206Y-8339341D02*
X4827206Y-8301246D01*
X4827206Y-8301246D02*
X4817682Y-8253627D01*
X4817682Y-8253627D02*
X4808158Y-8225055D01*
X4808158Y-8225055D02*
X4798634Y-8206008D01*
X4798634Y-8206008D02*
X4779587Y-8177436D01*
X4779587Y-8177436D02*
X4770063Y-8167912D01*
D10*
X-105000Y-8519000D02*
X-5000Y-8619000D01*
X-5000Y-8519000D02*
X-105000Y-8619000D01*
X-5000Y-8569000D02*
G75*
G02*
X-105000Y-8569000I-50000J0D01*
G01*
X-105000Y-8569000D02*
G75*
G02*
X-5000Y-8569000I50000J0D01*
G01*
D11*
X360539Y-8660484D02*
X246253Y-8660484D01*
X303396Y-8660484D02*
X303396Y-8460484D01*
X303396Y-8460484D02*
X284348Y-8489055D01*
X284348Y-8489055D02*
X265301Y-8508103D01*
X265301Y-8508103D02*
X246253Y-8517627D01*
X455777Y-8650960D02*
X455777Y-8660484D01*
X455777Y-8660484D02*
X446253Y-8679531D01*
X446253Y-8679531D02*
X436729Y-8689055D01*
X579586Y-8460484D02*
X598634Y-8460484D01*
X598634Y-8460484D02*
X617682Y-8470008D01*
X617682Y-8470008D02*
X627205Y-8479531D01*
X627205Y-8479531D02*
X636729Y-8498579D01*
X636729Y-8498579D02*
X646253Y-8536674D01*
X646253Y-8536674D02*
X646253Y-8584293D01*
X646253Y-8584293D02*
X636729Y-8622389D01*
X636729Y-8622389D02*
X627205Y-8641436D01*
X627205Y-8641436D02*
X617682Y-8650960D01*
X617682Y-8650960D02*
X598634Y-8660484D01*
X598634Y-8660484D02*
X579586Y-8660484D01*
X579586Y-8660484D02*
X560539Y-8650960D01*
X560539Y-8650960D02*
X551015Y-8641436D01*
X551015Y-8641436D02*
X541491Y-8622389D01*
X541491Y-8622389D02*
X531967Y-8584293D01*
X531967Y-8584293D02*
X531967Y-8536674D01*
X531967Y-8536674D02*
X541491Y-8498579D01*
X541491Y-8498579D02*
X551015Y-8479531D01*
X551015Y-8479531D02*
X560539Y-8470008D01*
X560539Y-8470008D02*
X579586Y-8460484D01*
X770062Y-8460484D02*
X789110Y-8460484D01*
X789110Y-8460484D02*
X808158Y-8470008D01*
X808158Y-8470008D02*
X817682Y-8479531D01*
X817682Y-8479531D02*
X827205Y-8498579D01*
X827205Y-8498579D02*
X836729Y-8536674D01*
X836729Y-8536674D02*
X836729Y-8584293D01*
X836729Y-8584293D02*
X827205Y-8622389D01*
X827205Y-8622389D02*
X817682Y-8641436D01*
X817682Y-8641436D02*
X808158Y-8650960D01*
X808158Y-8650960D02*
X789110Y-8660484D01*
X789110Y-8660484D02*
X770062Y-8660484D01*
X770062Y-8660484D02*
X751015Y-8650960D01*
X751015Y-8650960D02*
X741491Y-8641436D01*
X741491Y-8641436D02*
X731967Y-8622389D01*
X731967Y-8622389D02*
X722443Y-8584293D01*
X722443Y-8584293D02*
X722443Y-8536674D01*
X722443Y-8536674D02*
X731967Y-8498579D01*
X731967Y-8498579D02*
X741491Y-8479531D01*
X741491Y-8479531D02*
X751015Y-8470008D01*
X751015Y-8470008D02*
X770062Y-8460484D01*
X960539Y-8460484D02*
X979586Y-8460484D01*
X979586Y-8460484D02*
X998634Y-8470008D01*
X998634Y-8470008D02*
X1008158Y-8479531D01*
X1008158Y-8479531D02*
X1017682Y-8498579D01*
X1017682Y-8498579D02*
X1027205Y-8536674D01*
X1027205Y-8536674D02*
X1027205Y-8584293D01*
X1027205Y-8584293D02*
X1017682Y-8622389D01*
X1017682Y-8622389D02*
X1008158Y-8641436D01*
X1008158Y-8641436D02*
X998634Y-8650960D01*
X998634Y-8650960D02*
X979586Y-8660484D01*
X979586Y-8660484D02*
X960539Y-8660484D01*
X960539Y-8660484D02*
X941491Y-8650960D01*
X941491Y-8650960D02*
X931967Y-8641436D01*
X931967Y-8641436D02*
X922443Y-8622389D01*
X922443Y-8622389D02*
X912920Y-8584293D01*
X912920Y-8584293D02*
X912920Y-8536674D01*
X912920Y-8536674D02*
X922443Y-8498579D01*
X922443Y-8498579D02*
X931967Y-8479531D01*
X931967Y-8479531D02*
X941491Y-8470008D01*
X941491Y-8470008D02*
X960539Y-8460484D01*
X1112920Y-8660484D02*
X1112920Y-8527150D01*
X1112920Y-8546198D02*
X1122444Y-8536674D01*
X1122444Y-8536674D02*
X1141491Y-8527150D01*
X1141491Y-8527150D02*
X1170063Y-8527150D01*
X1170063Y-8527150D02*
X1189110Y-8536674D01*
X1189110Y-8536674D02*
X1198634Y-8555722D01*
X1198634Y-8555722D02*
X1198634Y-8660484D01*
X1198634Y-8555722D02*
X1208158Y-8536674D01*
X1208158Y-8536674D02*
X1227205Y-8527150D01*
X1227205Y-8527150D02*
X1255777Y-8527150D01*
X1255777Y-8527150D02*
X1274825Y-8536674D01*
X1274825Y-8536674D02*
X1284348Y-8555722D01*
X1284348Y-8555722D02*
X1284348Y-8660484D01*
X1379586Y-8660484D02*
X1379586Y-8527150D01*
X1379586Y-8546198D02*
X1389110Y-8536674D01*
X1389110Y-8536674D02*
X1408158Y-8527150D01*
X1408158Y-8527150D02*
X1436729Y-8527150D01*
X1436729Y-8527150D02*
X1455777Y-8536674D01*
X1455777Y-8536674D02*
X1465301Y-8555722D01*
X1465301Y-8555722D02*
X1465301Y-8660484D01*
X1465301Y-8555722D02*
X1474824Y-8536674D01*
X1474824Y-8536674D02*
X1493872Y-8527150D01*
X1493872Y-8527150D02*
X1522443Y-8527150D01*
X1522443Y-8527150D02*
X1541491Y-8536674D01*
X1541491Y-8536674D02*
X1551015Y-8555722D01*
X1551015Y-8555722D02*
X1551015Y-8660484D01*
X1941491Y-8450960D02*
X1770063Y-8708103D01*
X2198634Y-8460484D02*
X2217682Y-8460484D01*
X2217682Y-8460484D02*
X2236729Y-8470008D01*
X2236729Y-8470008D02*
X2246253Y-8479531D01*
X2246253Y-8479531D02*
X2255777Y-8498579D01*
X2255777Y-8498579D02*
X2265301Y-8536674D01*
X2265301Y-8536674D02*
X2265301Y-8584293D01*
X2265301Y-8584293D02*
X2255777Y-8622389D01*
X2255777Y-8622389D02*
X2246253Y-8641436D01*
X2246253Y-8641436D02*
X2236729Y-8650960D01*
X2236729Y-8650960D02*
X2217682Y-8660484D01*
X2217682Y-8660484D02*
X2198634Y-8660484D01*
X2198634Y-8660484D02*
X2179587Y-8650960D01*
X2179587Y-8650960D02*
X2170063Y-8641436D01*
X2170063Y-8641436D02*
X2160539Y-8622389D01*
X2160539Y-8622389D02*
X2151015Y-8584293D01*
X2151015Y-8584293D02*
X2151015Y-8536674D01*
X2151015Y-8536674D02*
X2160539Y-8498579D01*
X2160539Y-8498579D02*
X2170063Y-8479531D01*
X2170063Y-8479531D02*
X2179587Y-8470008D01*
X2179587Y-8470008D02*
X2198634Y-8460484D01*
X2360539Y-8650960D02*
X2360539Y-8660484D01*
X2360539Y-8660484D02*
X2351015Y-8679531D01*
X2351015Y-8679531D02*
X2341491Y-8689055D01*
X2484348Y-8460484D02*
X2503396Y-8460484D01*
X2503396Y-8460484D02*
X2522444Y-8470008D01*
X2522444Y-8470008D02*
X2531968Y-8479531D01*
X2531968Y-8479531D02*
X2541491Y-8498579D01*
X2541491Y-8498579D02*
X2551015Y-8536674D01*
X2551015Y-8536674D02*
X2551015Y-8584293D01*
X2551015Y-8584293D02*
X2541491Y-8622389D01*
X2541491Y-8622389D02*
X2531968Y-8641436D01*
X2531968Y-8641436D02*
X2522444Y-8650960D01*
X2522444Y-8650960D02*
X2503396Y-8660484D01*
X2503396Y-8660484D02*
X2484348Y-8660484D01*
X2484348Y-8660484D02*
X2465301Y-8650960D01*
X2465301Y-8650960D02*
X2455777Y-8641436D01*
X2455777Y-8641436D02*
X2446253Y-8622389D01*
X2446253Y-8622389D02*
X2436729Y-8584293D01*
X2436729Y-8584293D02*
X2436729Y-8536674D01*
X2436729Y-8536674D02*
X2446253Y-8498579D01*
X2446253Y-8498579D02*
X2455777Y-8479531D01*
X2455777Y-8479531D02*
X2465301Y-8470008D01*
X2465301Y-8470008D02*
X2484348Y-8460484D01*
X2617682Y-8460484D02*
X2741491Y-8460484D01*
X2741491Y-8460484D02*
X2674825Y-8536674D01*
X2674825Y-8536674D02*
X2703396Y-8536674D01*
X2703396Y-8536674D02*
X2722444Y-8546198D01*
X2722444Y-8546198D02*
X2731968Y-8555722D01*
X2731968Y-8555722D02*
X2741491Y-8574770D01*
X2741491Y-8574770D02*
X2741491Y-8622389D01*
X2741491Y-8622389D02*
X2731968Y-8641436D01*
X2731968Y-8641436D02*
X2722444Y-8650960D01*
X2722444Y-8650960D02*
X2703396Y-8660484D01*
X2703396Y-8660484D02*
X2646253Y-8660484D01*
X2646253Y-8660484D02*
X2627206Y-8650960D01*
X2627206Y-8650960D02*
X2617682Y-8641436D01*
X2836729Y-8660484D02*
X2874825Y-8660484D01*
X2874825Y-8660484D02*
X2893872Y-8650960D01*
X2893872Y-8650960D02*
X2903396Y-8641436D01*
X2903396Y-8641436D02*
X2922444Y-8612865D01*
X2922444Y-8612865D02*
X2931967Y-8574770D01*
X2931967Y-8574770D02*
X2931967Y-8498579D01*
X2931967Y-8498579D02*
X2922444Y-8479531D01*
X2922444Y-8479531D02*
X2912920Y-8470008D01*
X2912920Y-8470008D02*
X2893872Y-8460484D01*
X2893872Y-8460484D02*
X2855777Y-8460484D01*
X2855777Y-8460484D02*
X2836729Y-8470008D01*
X2836729Y-8470008D02*
X2827206Y-8479531D01*
X2827206Y-8479531D02*
X2817682Y-8498579D01*
X2817682Y-8498579D02*
X2817682Y-8546198D01*
X2817682Y-8546198D02*
X2827206Y-8565246D01*
X2827206Y-8565246D02*
X2836729Y-8574770D01*
X2836729Y-8574770D02*
X2855777Y-8584293D01*
X2855777Y-8584293D02*
X2893872Y-8584293D01*
X2893872Y-8584293D02*
X2912920Y-8574770D01*
X2912920Y-8574770D02*
X2922444Y-8565246D01*
X2922444Y-8565246D02*
X2931967Y-8546198D01*
X3103396Y-8527150D02*
X3103396Y-8660484D01*
X3055777Y-8450960D02*
X3008158Y-8593817D01*
X3008158Y-8593817D02*
X3131967Y-8593817D01*
X3198634Y-8460484D02*
X3198634Y-8498579D01*
X3274825Y-8460484D02*
X3274825Y-8498579D01*
X3570063Y-8736674D02*
X3560539Y-8727150D01*
X3560539Y-8727150D02*
X3541491Y-8698579D01*
X3541491Y-8698579D02*
X3531968Y-8679531D01*
X3531968Y-8679531D02*
X3522444Y-8650960D01*
X3522444Y-8650960D02*
X3512920Y-8603341D01*
X3512920Y-8603341D02*
X3512920Y-8565246D01*
X3512920Y-8565246D02*
X3522444Y-8517627D01*
X3522444Y-8517627D02*
X3531968Y-8489055D01*
X3531968Y-8489055D02*
X3541491Y-8470008D01*
X3541491Y-8470008D02*
X3560539Y-8441436D01*
X3560539Y-8441436D02*
X3570063Y-8431912D01*
X3751015Y-8660484D02*
X3636729Y-8660484D01*
X3693872Y-8660484D02*
X3693872Y-8460484D01*
X3693872Y-8460484D02*
X3674825Y-8489055D01*
X3674825Y-8489055D02*
X3655777Y-8508103D01*
X3655777Y-8508103D02*
X3636729Y-8517627D01*
X3874825Y-8460484D02*
X3893872Y-8460484D01*
X3893872Y-8460484D02*
X3912920Y-8470008D01*
X3912920Y-8470008D02*
X3922444Y-8479531D01*
X3922444Y-8479531D02*
X3931968Y-8498579D01*
X3931968Y-8498579D02*
X3941491Y-8536674D01*
X3941491Y-8536674D02*
X3941491Y-8584293D01*
X3941491Y-8584293D02*
X3931968Y-8622389D01*
X3931968Y-8622389D02*
X3922444Y-8641436D01*
X3922444Y-8641436D02*
X3912920Y-8650960D01*
X3912920Y-8650960D02*
X3893872Y-8660484D01*
X3893872Y-8660484D02*
X3874825Y-8660484D01*
X3874825Y-8660484D02*
X3855777Y-8650960D01*
X3855777Y-8650960D02*
X3846253Y-8641436D01*
X3846253Y-8641436D02*
X3836729Y-8622389D01*
X3836729Y-8622389D02*
X3827206Y-8584293D01*
X3827206Y-8584293D02*
X3827206Y-8536674D01*
X3827206Y-8536674D02*
X3836729Y-8498579D01*
X3836729Y-8498579D02*
X3846253Y-8479531D01*
X3846253Y-8479531D02*
X3855777Y-8470008D01*
X3855777Y-8470008D02*
X3874825Y-8460484D01*
X4179587Y-8660484D02*
X4179587Y-8460484D01*
X4265301Y-8660484D02*
X4265301Y-8555722D01*
X4265301Y-8555722D02*
X4255777Y-8536674D01*
X4255777Y-8536674D02*
X4236730Y-8527150D01*
X4236730Y-8527150D02*
X4208158Y-8527150D01*
X4208158Y-8527150D02*
X4189110Y-8536674D01*
X4189110Y-8536674D02*
X4179587Y-8546198D01*
X4389111Y-8660484D02*
X4370063Y-8650960D01*
X4370063Y-8650960D02*
X4360539Y-8641436D01*
X4360539Y-8641436D02*
X4351015Y-8622389D01*
X4351015Y-8622389D02*
X4351015Y-8565246D01*
X4351015Y-8565246D02*
X4360539Y-8546198D01*
X4360539Y-8546198D02*
X4370063Y-8536674D01*
X4370063Y-8536674D02*
X4389111Y-8527150D01*
X4389111Y-8527150D02*
X4417682Y-8527150D01*
X4417682Y-8527150D02*
X4436730Y-8536674D01*
X4436730Y-8536674D02*
X4446253Y-8546198D01*
X4446253Y-8546198D02*
X4455777Y-8565246D01*
X4455777Y-8565246D02*
X4455777Y-8622389D01*
X4455777Y-8622389D02*
X4446253Y-8641436D01*
X4446253Y-8641436D02*
X4436730Y-8650960D01*
X4436730Y-8650960D02*
X4417682Y-8660484D01*
X4417682Y-8660484D02*
X4389111Y-8660484D01*
X4570063Y-8660484D02*
X4551015Y-8650960D01*
X4551015Y-8650960D02*
X4541492Y-8631912D01*
X4541492Y-8631912D02*
X4541492Y-8460484D01*
X4722444Y-8650960D02*
X4703396Y-8660484D01*
X4703396Y-8660484D02*
X4665301Y-8660484D01*
X4665301Y-8660484D02*
X4646253Y-8650960D01*
X4646253Y-8650960D02*
X4636730Y-8631912D01*
X4636730Y-8631912D02*
X4636730Y-8555722D01*
X4636730Y-8555722D02*
X4646253Y-8536674D01*
X4646253Y-8536674D02*
X4665301Y-8527150D01*
X4665301Y-8527150D02*
X4703396Y-8527150D01*
X4703396Y-8527150D02*
X4722444Y-8536674D01*
X4722444Y-8536674D02*
X4731968Y-8555722D01*
X4731968Y-8555722D02*
X4731968Y-8574770D01*
X4731968Y-8574770D02*
X4636730Y-8593817D01*
X4808158Y-8650960D02*
X4827206Y-8660484D01*
X4827206Y-8660484D02*
X4865301Y-8660484D01*
X4865301Y-8660484D02*
X4884349Y-8650960D01*
X4884349Y-8650960D02*
X4893873Y-8631912D01*
X4893873Y-8631912D02*
X4893873Y-8622389D01*
X4893873Y-8622389D02*
X4884349Y-8603341D01*
X4884349Y-8603341D02*
X4865301Y-8593817D01*
X4865301Y-8593817D02*
X4836730Y-8593817D01*
X4836730Y-8593817D02*
X4817682Y-8584293D01*
X4817682Y-8584293D02*
X4808158Y-8565246D01*
X4808158Y-8565246D02*
X4808158Y-8555722D01*
X4808158Y-8555722D02*
X4817682Y-8536674D01*
X4817682Y-8536674D02*
X4836730Y-8527150D01*
X4836730Y-8527150D02*
X4865301Y-8527150D01*
X4865301Y-8527150D02*
X4884349Y-8536674D01*
X4960539Y-8736674D02*
X4970063Y-8727150D01*
X4970063Y-8727150D02*
X4989111Y-8698579D01*
X4989111Y-8698579D02*
X4998634Y-8679531D01*
X4998634Y-8679531D02*
X5008158Y-8650960D01*
X5008158Y-8650960D02*
X5017682Y-8603341D01*
X5017682Y-8603341D02*
X5017682Y-8565246D01*
X5017682Y-8565246D02*
X5008158Y-8517627D01*
X5008158Y-8517627D02*
X4998634Y-8489055D01*
X4998634Y-8489055D02*
X4989111Y-8470008D01*
X4989111Y-8470008D02*
X4970063Y-8441436D01*
X4970063Y-8441436D02*
X4960539Y-8431912D01*
D12*
X-107000Y-8782000D02*
X-5000Y-8884000D01*
X-5000Y-8782000D02*
X-107000Y-8884000D01*
X-56000Y-8782000D02*
X-56000Y-8884000D01*
X-107000Y-8833000D02*
X-5000Y-8833000D01*
D11*
X360539Y-8924484D02*
X246253Y-8924484D01*
X303396Y-8924484D02*
X303396Y-8724484D01*
X303396Y-8724484D02*
X284348Y-8753055D01*
X284348Y-8753055D02*
X265301Y-8772103D01*
X265301Y-8772103D02*
X246253Y-8781627D01*
X455777Y-8914960D02*
X455777Y-8924484D01*
X455777Y-8924484D02*
X446253Y-8943531D01*
X446253Y-8943531D02*
X436729Y-8953055D01*
X579586Y-8724484D02*
X598634Y-8724484D01*
X598634Y-8724484D02*
X617682Y-8734008D01*
X617682Y-8734008D02*
X627205Y-8743531D01*
X627205Y-8743531D02*
X636729Y-8762579D01*
X636729Y-8762579D02*
X646253Y-8800674D01*
X646253Y-8800674D02*
X646253Y-8848293D01*
X646253Y-8848293D02*
X636729Y-8886389D01*
X636729Y-8886389D02*
X627205Y-8905436D01*
X627205Y-8905436D02*
X617682Y-8914960D01*
X617682Y-8914960D02*
X598634Y-8924484D01*
X598634Y-8924484D02*
X579586Y-8924484D01*
X579586Y-8924484D02*
X560539Y-8914960D01*
X560539Y-8914960D02*
X551015Y-8905436D01*
X551015Y-8905436D02*
X541491Y-8886389D01*
X541491Y-8886389D02*
X531967Y-8848293D01*
X531967Y-8848293D02*
X531967Y-8800674D01*
X531967Y-8800674D02*
X541491Y-8762579D01*
X541491Y-8762579D02*
X551015Y-8743531D01*
X551015Y-8743531D02*
X560539Y-8734008D01*
X560539Y-8734008D02*
X579586Y-8724484D01*
X722443Y-8743531D02*
X731967Y-8734008D01*
X731967Y-8734008D02*
X751015Y-8724484D01*
X751015Y-8724484D02*
X798634Y-8724484D01*
X798634Y-8724484D02*
X817682Y-8734008D01*
X817682Y-8734008D02*
X827205Y-8743531D01*
X827205Y-8743531D02*
X836729Y-8762579D01*
X836729Y-8762579D02*
X836729Y-8781627D01*
X836729Y-8781627D02*
X827205Y-8810198D01*
X827205Y-8810198D02*
X712920Y-8924484D01*
X712920Y-8924484D02*
X836729Y-8924484D01*
X960539Y-8724484D02*
X979586Y-8724484D01*
X979586Y-8724484D02*
X998634Y-8734008D01*
X998634Y-8734008D02*
X1008158Y-8743531D01*
X1008158Y-8743531D02*
X1017682Y-8762579D01*
X1017682Y-8762579D02*
X1027205Y-8800674D01*
X1027205Y-8800674D02*
X1027205Y-8848293D01*
X1027205Y-8848293D02*
X1017682Y-8886389D01*
X1017682Y-8886389D02*
X1008158Y-8905436D01*
X1008158Y-8905436D02*
X998634Y-8914960D01*
X998634Y-8914960D02*
X979586Y-8924484D01*
X979586Y-8924484D02*
X960539Y-8924484D01*
X960539Y-8924484D02*
X941491Y-8914960D01*
X941491Y-8914960D02*
X931967Y-8905436D01*
X931967Y-8905436D02*
X922443Y-8886389D01*
X922443Y-8886389D02*
X912920Y-8848293D01*
X912920Y-8848293D02*
X912920Y-8800674D01*
X912920Y-8800674D02*
X922443Y-8762579D01*
X922443Y-8762579D02*
X931967Y-8743531D01*
X931967Y-8743531D02*
X941491Y-8734008D01*
X941491Y-8734008D02*
X960539Y-8724484D01*
X1112920Y-8924484D02*
X1112920Y-8791150D01*
X1112920Y-8810198D02*
X1122444Y-8800674D01*
X1122444Y-8800674D02*
X1141491Y-8791150D01*
X1141491Y-8791150D02*
X1170063Y-8791150D01*
X1170063Y-8791150D02*
X1189110Y-8800674D01*
X1189110Y-8800674D02*
X1198634Y-8819722D01*
X1198634Y-8819722D02*
X1198634Y-8924484D01*
X1198634Y-8819722D02*
X1208158Y-8800674D01*
X1208158Y-8800674D02*
X1227205Y-8791150D01*
X1227205Y-8791150D02*
X1255777Y-8791150D01*
X1255777Y-8791150D02*
X1274825Y-8800674D01*
X1274825Y-8800674D02*
X1284348Y-8819722D01*
X1284348Y-8819722D02*
X1284348Y-8924484D01*
X1379586Y-8924484D02*
X1379586Y-8791150D01*
X1379586Y-8810198D02*
X1389110Y-8800674D01*
X1389110Y-8800674D02*
X1408158Y-8791150D01*
X1408158Y-8791150D02*
X1436729Y-8791150D01*
X1436729Y-8791150D02*
X1455777Y-8800674D01*
X1455777Y-8800674D02*
X1465301Y-8819722D01*
X1465301Y-8819722D02*
X1465301Y-8924484D01*
X1465301Y-8819722D02*
X1474824Y-8800674D01*
X1474824Y-8800674D02*
X1493872Y-8791150D01*
X1493872Y-8791150D02*
X1522443Y-8791150D01*
X1522443Y-8791150D02*
X1541491Y-8800674D01*
X1541491Y-8800674D02*
X1551015Y-8819722D01*
X1551015Y-8819722D02*
X1551015Y-8924484D01*
X1941491Y-8714960D02*
X1770063Y-8972103D01*
X2198634Y-8724484D02*
X2217682Y-8724484D01*
X2217682Y-8724484D02*
X2236729Y-8734008D01*
X2236729Y-8734008D02*
X2246253Y-8743531D01*
X2246253Y-8743531D02*
X2255777Y-8762579D01*
X2255777Y-8762579D02*
X2265301Y-8800674D01*
X2265301Y-8800674D02*
X2265301Y-8848293D01*
X2265301Y-8848293D02*
X2255777Y-8886389D01*
X2255777Y-8886389D02*
X2246253Y-8905436D01*
X2246253Y-8905436D02*
X2236729Y-8914960D01*
X2236729Y-8914960D02*
X2217682Y-8924484D01*
X2217682Y-8924484D02*
X2198634Y-8924484D01*
X2198634Y-8924484D02*
X2179587Y-8914960D01*
X2179587Y-8914960D02*
X2170063Y-8905436D01*
X2170063Y-8905436D02*
X2160539Y-8886389D01*
X2160539Y-8886389D02*
X2151015Y-8848293D01*
X2151015Y-8848293D02*
X2151015Y-8800674D01*
X2151015Y-8800674D02*
X2160539Y-8762579D01*
X2160539Y-8762579D02*
X2170063Y-8743531D01*
X2170063Y-8743531D02*
X2179587Y-8734008D01*
X2179587Y-8734008D02*
X2198634Y-8724484D01*
X2360539Y-8914960D02*
X2360539Y-8924484D01*
X2360539Y-8924484D02*
X2351015Y-8943531D01*
X2351015Y-8943531D02*
X2341491Y-8953055D01*
X2484348Y-8724484D02*
X2503396Y-8724484D01*
X2503396Y-8724484D02*
X2522444Y-8734008D01*
X2522444Y-8734008D02*
X2531968Y-8743531D01*
X2531968Y-8743531D02*
X2541491Y-8762579D01*
X2541491Y-8762579D02*
X2551015Y-8800674D01*
X2551015Y-8800674D02*
X2551015Y-8848293D01*
X2551015Y-8848293D02*
X2541491Y-8886389D01*
X2541491Y-8886389D02*
X2531968Y-8905436D01*
X2531968Y-8905436D02*
X2522444Y-8914960D01*
X2522444Y-8914960D02*
X2503396Y-8924484D01*
X2503396Y-8924484D02*
X2484348Y-8924484D01*
X2484348Y-8924484D02*
X2465301Y-8914960D01*
X2465301Y-8914960D02*
X2455777Y-8905436D01*
X2455777Y-8905436D02*
X2446253Y-8886389D01*
X2446253Y-8886389D02*
X2436729Y-8848293D01*
X2436729Y-8848293D02*
X2436729Y-8800674D01*
X2436729Y-8800674D02*
X2446253Y-8762579D01*
X2446253Y-8762579D02*
X2455777Y-8743531D01*
X2455777Y-8743531D02*
X2465301Y-8734008D01*
X2465301Y-8734008D02*
X2484348Y-8724484D01*
X2722444Y-8791150D02*
X2722444Y-8924484D01*
X2674825Y-8714960D02*
X2627206Y-8857817D01*
X2627206Y-8857817D02*
X2751015Y-8857817D01*
X2865301Y-8724484D02*
X2884348Y-8724484D01*
X2884348Y-8724484D02*
X2903396Y-8734008D01*
X2903396Y-8734008D02*
X2912920Y-8743531D01*
X2912920Y-8743531D02*
X2922444Y-8762579D01*
X2922444Y-8762579D02*
X2931967Y-8800674D01*
X2931967Y-8800674D02*
X2931967Y-8848293D01*
X2931967Y-8848293D02*
X2922444Y-8886389D01*
X2922444Y-8886389D02*
X2912920Y-8905436D01*
X2912920Y-8905436D02*
X2903396Y-8914960D01*
X2903396Y-8914960D02*
X2884348Y-8924484D01*
X2884348Y-8924484D02*
X2865301Y-8924484D01*
X2865301Y-8924484D02*
X2846253Y-8914960D01*
X2846253Y-8914960D02*
X2836729Y-8905436D01*
X2836729Y-8905436D02*
X2827206Y-8886389D01*
X2827206Y-8886389D02*
X2817682Y-8848293D01*
X2817682Y-8848293D02*
X2817682Y-8800674D01*
X2817682Y-8800674D02*
X2827206Y-8762579D01*
X2827206Y-8762579D02*
X2836729Y-8743531D01*
X2836729Y-8743531D02*
X2846253Y-8734008D01*
X2846253Y-8734008D02*
X2865301Y-8724484D01*
X3008158Y-8743531D02*
X3017682Y-8734008D01*
X3017682Y-8734008D02*
X3036729Y-8724484D01*
X3036729Y-8724484D02*
X3084348Y-8724484D01*
X3084348Y-8724484D02*
X3103396Y-8734008D01*
X3103396Y-8734008D02*
X3112920Y-8743531D01*
X3112920Y-8743531D02*
X3122444Y-8762579D01*
X3122444Y-8762579D02*
X3122444Y-8781627D01*
X3122444Y-8781627D02*
X3112920Y-8810198D01*
X3112920Y-8810198D02*
X2998634Y-8924484D01*
X2998634Y-8924484D02*
X3122444Y-8924484D01*
X3198634Y-8724484D02*
X3198634Y-8762579D01*
X3274825Y-8724484D02*
X3274825Y-8762579D01*
X3570063Y-9000674D02*
X3560539Y-8991150D01*
X3560539Y-8991150D02*
X3541491Y-8962579D01*
X3541491Y-8962579D02*
X3531968Y-8943531D01*
X3531968Y-8943531D02*
X3522444Y-8914960D01*
X3522444Y-8914960D02*
X3512920Y-8867341D01*
X3512920Y-8867341D02*
X3512920Y-8829246D01*
X3512920Y-8829246D02*
X3522444Y-8781627D01*
X3522444Y-8781627D02*
X3531968Y-8753055D01*
X3531968Y-8753055D02*
X3541491Y-8734008D01*
X3541491Y-8734008D02*
X3560539Y-8705436D01*
X3560539Y-8705436D02*
X3570063Y-8695912D01*
X3741491Y-8724484D02*
X3646253Y-8724484D01*
X3646253Y-8724484D02*
X3636729Y-8819722D01*
X3636729Y-8819722D02*
X3646253Y-8810198D01*
X3646253Y-8810198D02*
X3665301Y-8800674D01*
X3665301Y-8800674D02*
X3712920Y-8800674D01*
X3712920Y-8800674D02*
X3731968Y-8810198D01*
X3731968Y-8810198D02*
X3741491Y-8819722D01*
X3741491Y-8819722D02*
X3751015Y-8838770D01*
X3751015Y-8838770D02*
X3751015Y-8886389D01*
X3751015Y-8886389D02*
X3741491Y-8905436D01*
X3741491Y-8905436D02*
X3731968Y-8914960D01*
X3731968Y-8914960D02*
X3712920Y-8924484D01*
X3712920Y-8924484D02*
X3665301Y-8924484D01*
X3665301Y-8924484D02*
X3646253Y-8914960D01*
X3646253Y-8914960D02*
X3636729Y-8905436D01*
X3922444Y-8724484D02*
X3884348Y-8724484D01*
X3884348Y-8724484D02*
X3865301Y-8734008D01*
X3865301Y-8734008D02*
X3855777Y-8743531D01*
X3855777Y-8743531D02*
X3836729Y-8772103D01*
X3836729Y-8772103D02*
X3827206Y-8810198D01*
X3827206Y-8810198D02*
X3827206Y-8886389D01*
X3827206Y-8886389D02*
X3836729Y-8905436D01*
X3836729Y-8905436D02*
X3846253Y-8914960D01*
X3846253Y-8914960D02*
X3865301Y-8924484D01*
X3865301Y-8924484D02*
X3903396Y-8924484D01*
X3903396Y-8924484D02*
X3922444Y-8914960D01*
X3922444Y-8914960D02*
X3931968Y-8905436D01*
X3931968Y-8905436D02*
X3941491Y-8886389D01*
X3941491Y-8886389D02*
X3941491Y-8838770D01*
X3941491Y-8838770D02*
X3931968Y-8819722D01*
X3931968Y-8819722D02*
X3922444Y-8810198D01*
X3922444Y-8810198D02*
X3903396Y-8800674D01*
X3903396Y-8800674D02*
X3865301Y-8800674D01*
X3865301Y-8800674D02*
X3846253Y-8810198D01*
X3846253Y-8810198D02*
X3836729Y-8819722D01*
X3836729Y-8819722D02*
X3827206Y-8838770D01*
X4179587Y-8924484D02*
X4179587Y-8724484D01*
X4265301Y-8924484D02*
X4265301Y-8819722D01*
X4265301Y-8819722D02*
X4255777Y-8800674D01*
X4255777Y-8800674D02*
X4236730Y-8791150D01*
X4236730Y-8791150D02*
X4208158Y-8791150D01*
X4208158Y-8791150D02*
X4189110Y-8800674D01*
X4189110Y-8800674D02*
X4179587Y-8810198D01*
X4389111Y-8924484D02*
X4370063Y-8914960D01*
X4370063Y-8914960D02*
X4360539Y-8905436D01*
X4360539Y-8905436D02*
X4351015Y-8886389D01*
X4351015Y-8886389D02*
X4351015Y-8829246D01*
X4351015Y-8829246D02*
X4360539Y-8810198D01*
X4360539Y-8810198D02*
X4370063Y-8800674D01*
X4370063Y-8800674D02*
X4389111Y-8791150D01*
X4389111Y-8791150D02*
X4417682Y-8791150D01*
X4417682Y-8791150D02*
X4436730Y-8800674D01*
X4436730Y-8800674D02*
X4446253Y-8810198D01*
X4446253Y-8810198D02*
X4455777Y-8829246D01*
X4455777Y-8829246D02*
X4455777Y-8886389D01*
X4455777Y-8886389D02*
X4446253Y-8905436D01*
X4446253Y-8905436D02*
X4436730Y-8914960D01*
X4436730Y-8914960D02*
X4417682Y-8924484D01*
X4417682Y-8924484D02*
X4389111Y-8924484D01*
X4570063Y-8924484D02*
X4551015Y-8914960D01*
X4551015Y-8914960D02*
X4541492Y-8895912D01*
X4541492Y-8895912D02*
X4541492Y-8724484D01*
X4722444Y-8914960D02*
X4703396Y-8924484D01*
X4703396Y-8924484D02*
X4665301Y-8924484D01*
X4665301Y-8924484D02*
X4646253Y-8914960D01*
X4646253Y-8914960D02*
X4636730Y-8895912D01*
X4636730Y-8895912D02*
X4636730Y-8819722D01*
X4636730Y-8819722D02*
X4646253Y-8800674D01*
X4646253Y-8800674D02*
X4665301Y-8791150D01*
X4665301Y-8791150D02*
X4703396Y-8791150D01*
X4703396Y-8791150D02*
X4722444Y-8800674D01*
X4722444Y-8800674D02*
X4731968Y-8819722D01*
X4731968Y-8819722D02*
X4731968Y-8838770D01*
X4731968Y-8838770D02*
X4636730Y-8857817D01*
X4808158Y-8914960D02*
X4827206Y-8924484D01*
X4827206Y-8924484D02*
X4865301Y-8924484D01*
X4865301Y-8924484D02*
X4884349Y-8914960D01*
X4884349Y-8914960D02*
X4893873Y-8895912D01*
X4893873Y-8895912D02*
X4893873Y-8886389D01*
X4893873Y-8886389D02*
X4884349Y-8867341D01*
X4884349Y-8867341D02*
X4865301Y-8857817D01*
X4865301Y-8857817D02*
X4836730Y-8857817D01*
X4836730Y-8857817D02*
X4817682Y-8848293D01*
X4817682Y-8848293D02*
X4808158Y-8829246D01*
X4808158Y-8829246D02*
X4808158Y-8819722D01*
X4808158Y-8819722D02*
X4817682Y-8800674D01*
X4817682Y-8800674D02*
X4836730Y-8791150D01*
X4836730Y-8791150D02*
X4865301Y-8791150D01*
X4865301Y-8791150D02*
X4884349Y-8800674D01*
X4960539Y-9000674D02*
X4970063Y-8991150D01*
X4970063Y-8991150D02*
X4989111Y-8962579D01*
X4989111Y-8962579D02*
X4998634Y-8943531D01*
X4998634Y-8943531D02*
X5008158Y-8914960D01*
X5008158Y-8914960D02*
X5017682Y-8867341D01*
X5017682Y-8867341D02*
X5017682Y-8829246D01*
X5017682Y-8829246D02*
X5008158Y-8781627D01*
X5008158Y-8781627D02*
X4998634Y-8753055D01*
X4998634Y-8753055D02*
X4989111Y-8734008D01*
X4989111Y-8734008D02*
X4970063Y-8705436D01*
X4970063Y-8705436D02*
X4960539Y-8695912D01*
M02*
