%TF.GenerationSoftware,KiCad,Pcbnew,10.0.4*%
%TF.CreationDate,2026-08-07T19:41:11-03:00*%
%TF.ProjectId,tkmem128-ii,746b6d65-6d31-4323-982d-69692e6b6963,rev?*%
%TF.SameCoordinates,Original*%
%TF.FileFunction,Copper,L4,Bot*%
%TF.FilePolarity,Positive*%
%FSLAX46Y46*%
G04 Gerber Fmt 4.6, Leading zero omitted, Abs format (unit mm)*
G04 Created by KiCad (PCBNEW 10.0.4) date 2026-08-07 19:41:11*
%MOMM*%
%LPD*%
G01*
G04 APERTURE LIST*
G04 Aperture macros list*
%AMRoundRect*
0 Rectangle with rounded corners*
0 $1 Rounding radius*
0 $2 $3 $4 $5 $6 $7 $8 $9 X,Y pos of 4 corners*
0 Add a 4 corners polygon primitive as box body*
4,1,4,$2,$3,$4,$5,$6,$7,$8,$9,$2,$3,0*
0 Add four circle primitives for the rounded corners*
1,1,$1+$1,$2,$3*
1,1,$1+$1,$4,$5*
1,1,$1+$1,$6,$7*
1,1,$1+$1,$8,$9*
0 Add four rect primitives between the rounded corners*
20,1,$1+$1,$2,$3,$4,$5,0*
20,1,$1+$1,$4,$5,$6,$7,0*
20,1,$1+$1,$6,$7,$8,$9,0*
20,1,$1+$1,$8,$9,$2,$3,0*%
G04 Aperture macros list end*
%TA.AperFunction,ComponentPad*%
%ADD10RoundRect,0.250000X0.550000X-0.950000X0.550000X0.950000X-0.550000X0.950000X-0.550000X-0.950000X0*%
%TD*%
%TA.AperFunction,ComponentPad*%
%ADD11O,1.600000X2.400000*%
%TD*%
%TA.AperFunction,ComponentPad*%
%ADD12R,1.700000X1.700000*%
%TD*%
%TA.AperFunction,ComponentPad*%
%ADD13C,1.700000*%
%TD*%
%TA.AperFunction,ComponentPad*%
%ADD14C,1.500000*%
%TD*%
%TA.AperFunction,ComponentPad*%
%ADD15C,1.600000*%
%TD*%
%TA.AperFunction,ComponentPad*%
%ADD16RoundRect,0.250000X-0.550000X-0.550000X0.550000X-0.550000X0.550000X0.550000X-0.550000X0.550000X0*%
%TD*%
%TA.AperFunction,ComponentPad*%
%ADD17R,1.800000X1.800000*%
%TD*%
%TA.AperFunction,ComponentPad*%
%ADD18C,1.800000*%
%TD*%
%TA.AperFunction,ComponentPad*%
%ADD19R,1.500000X1.500000*%
%TD*%
%TA.AperFunction,ViaPad*%
%ADD20C,0.800000*%
%TD*%
%TA.AperFunction,Conductor*%
%ADD21C,0.500000*%
%TD*%
G04 APERTURE END LIST*
D10*
%TO.P,U3,1*%
%TO.N,SA18*%
X3300000Y-43440000D03*
D11*
%TO.P,U3,2*%
%TO.N,SA16*%
X5840000Y-43440000D03*
%TO.P,U3,3*%
%TO.N,SA14*%
X8380000Y-43440000D03*
%TO.P,U3,4*%
%TO.N,A12*%
X10920000Y-43440000D03*
%TO.P,U3,5*%
%TO.N,A7*%
X13460000Y-43440000D03*
%TO.P,U3,6*%
%TO.N,A6*%
X16000000Y-43440000D03*
%TO.P,U3,7*%
%TO.N,A5*%
X18540000Y-43440000D03*
%TO.P,U3,8*%
%TO.N,A4*%
X21080000Y-43440000D03*
%TO.P,U3,9*%
%TO.N,A3*%
X23620000Y-43440000D03*
%TO.P,U3,10*%
%TO.N,A2*%
X26160000Y-43440000D03*
%TO.P,U3,11*%
%TO.N,A1*%
X28700000Y-43440000D03*
%TO.P,U3,12*%
%TO.N,A0*%
X31240000Y-43440000D03*
%TO.P,U3,13*%
%TO.N,D0*%
X33780000Y-43440000D03*
%TO.P,U3,14*%
%TO.N,D1*%
X36320000Y-43440000D03*
%TO.P,U3,15*%
%TO.N,D2*%
X38860000Y-43440000D03*
%TO.P,U3,16*%
%TO.N,GND*%
X41400000Y-43440000D03*
%TO.P,U3,17*%
%TO.N,D3*%
X41400000Y-28200000D03*
%TO.P,U3,18*%
%TO.N,D4*%
X38860000Y-28200000D03*
%TO.P,U3,19*%
%TO.N,D5*%
X36320000Y-28200000D03*
%TO.P,U3,20*%
%TO.N,D6*%
X33780000Y-28200000D03*
%TO.P,U3,21*%
%TO.N,D7*%
X31240000Y-28200000D03*
%TO.P,U3,22*%
%TO.N,RAMCS_N*%
X28700000Y-28200000D03*
%TO.P,U3,23*%
%TO.N,A10*%
X26160000Y-28200000D03*
%TO.P,U3,24*%
%TO.N,RD_N*%
X23620000Y-28200000D03*
%TO.P,U3,25*%
%TO.N,A11*%
X21080000Y-28200000D03*
%TO.P,U3,26*%
%TO.N,A9*%
X18540000Y-28200000D03*
%TO.P,U3,27*%
%TO.N,A8*%
X16000000Y-28200000D03*
%TO.P,U3,28*%
%TO.N,A13*%
X13460000Y-28200000D03*
%TO.P,U3,29*%
%TO.N,WR_N*%
X10920000Y-28200000D03*
%TO.P,U3,30*%
%TO.N,SA17_CE2*%
X8380000Y-28200000D03*
%TO.P,U3,31*%
%TO.N,SA15*%
X5840000Y-28200000D03*
%TO.P,U3,32*%
%TO.N,+5V*%
X3300000Y-28200000D03*
%TD*%
D12*
%TO.P,JP2,1*%
%TO.N,ROMCS_N*%
X55000000Y-4000000D03*
D13*
%TO.P,JP2,2*%
%TO.N,ROMCS_DRV*%
X55000000Y-6540000D03*
%TO.P,JP2,3*%
%TO.N,+5V*%
X55000000Y-9080000D03*
%TD*%
D14*
%TO.P,TP2,1*%
%TO.N,CLK7FFD*%
X56000000Y-19500000D03*
%TD*%
D12*
%TO.P,JP1,1*%
%TO.N,ROMCS_N*%
X46500000Y-4000000D03*
D13*
%TO.P,JP1,2*%
%TO.N,ROMCE_N*%
X46500000Y-6540000D03*
%TO.P,JP1,3*%
%TO.N,+5V*%
X46500000Y-9080000D03*
%TD*%
D15*
%TO.P,C5,1*%
%TO.N,+5V*%
X58000000Y-53000000D03*
%TO.P,C5,2*%
%TO.N,GND*%
X63000000Y-53000000D03*
%TD*%
%TO.P,C4,1*%
%TO.N,+5V*%
X12000000Y-24000000D03*
%TO.P,C4,2*%
%TO.N,GND*%
X17000000Y-24000000D03*
%TD*%
D10*
%TO.P,U2,1*%
%TO.N,RESET_N*%
X50800000Y-49320000D03*
D11*
%TO.P,U2,2*%
%TO.N,BANK0*%
X53340000Y-49320000D03*
%TO.P,U2,3*%
%TO.N,D0*%
X55880000Y-49320000D03*
%TO.P,U2,4*%
%TO.N,D1*%
X58420000Y-49320000D03*
%TO.P,U2,5*%
%TO.N,BANK1*%
X60960000Y-49320000D03*
%TO.P,U2,6*%
%TO.N,BANK2*%
X63500000Y-49320000D03*
%TO.P,U2,7*%
%TO.N,D2*%
X66040000Y-49320000D03*
%TO.P,U2,8*%
%TO.N,D3*%
X68580000Y-49320000D03*
%TO.P,U2,9*%
%TO.N,VRAM*%
X71120000Y-49320000D03*
%TO.P,U2,10*%
%TO.N,GND*%
X73660000Y-49320000D03*
%TO.P,U2,11*%
%TO.N,CLK7FFD*%
X73660000Y-41700000D03*
%TO.P,U2,12*%
%TO.N,ROMA14*%
X71120000Y-41700000D03*
%TO.P,U2,13*%
%TO.N,D4*%
X68580000Y-41700000D03*
%TO.P,U2,14*%
%TO.N,D5*%
X66040000Y-41700000D03*
%TO.P,U2,15*%
%TO.N,DIS128*%
X63500000Y-41700000D03*
%TO.P,U2,16*%
%TO.N,BANK3*%
X60960000Y-41700000D03*
%TO.P,U2,17*%
%TO.N,D6*%
X58420000Y-41700000D03*
%TO.P,U2,18*%
%TO.N,D7*%
X55880000Y-41700000D03*
%TO.P,U2,19*%
%TO.N,BANK4*%
X53340000Y-41700000D03*
%TO.P,U2,20*%
%TO.N,+5V*%
X50800000Y-41700000D03*
%TD*%
D15*
%TO.P,R3,1*%
%TO.N,+5V*%
X63000000Y-14500000D03*
%TO.P,R3,2*%
%TO.N,LED_A*%
X65540000Y-14500000D03*
%TD*%
D14*
%TO.P,TP1,1*%
%TO.N,VRAM*%
X52000000Y-19500000D03*
%TD*%
D10*
%TO.P,U4,1*%
%TO.N,+5V*%
X1800000Y-20440000D03*
D11*
%TO.P,U4,2*%
%TO.N,A12*%
X4340000Y-20440000D03*
%TO.P,U4,3*%
%TO.N,A7*%
X6880000Y-20440000D03*
%TO.P,U4,4*%
%TO.N,A6*%
X9420000Y-20440000D03*
%TO.P,U4,5*%
%TO.N,A5*%
X11960000Y-20440000D03*
%TO.P,U4,6*%
%TO.N,A4*%
X14500000Y-20440000D03*
%TO.P,U4,7*%
%TO.N,A3*%
X17040000Y-20440000D03*
%TO.P,U4,8*%
%TO.N,A2*%
X19580000Y-20440000D03*
%TO.P,U4,9*%
%TO.N,A1*%
X22120000Y-20440000D03*
%TO.P,U4,10*%
%TO.N,A0*%
X24660000Y-20440000D03*
%TO.P,U4,11*%
%TO.N,D0*%
X27200000Y-20440000D03*
%TO.P,U4,12*%
%TO.N,D1*%
X29740000Y-20440000D03*
%TO.P,U4,13*%
%TO.N,D2*%
X32280000Y-20440000D03*
%TO.P,U4,14*%
%TO.N,GND*%
X34820000Y-20440000D03*
%TO.P,U4,15*%
%TO.N,D3*%
X34820000Y-5200000D03*
%TO.P,U4,16*%
%TO.N,D4*%
X32280000Y-5200000D03*
%TO.P,U4,17*%
%TO.N,D5*%
X29740000Y-5200000D03*
%TO.P,U4,18*%
%TO.N,D6*%
X27200000Y-5200000D03*
%TO.P,U4,19*%
%TO.N,D7*%
X24660000Y-5200000D03*
%TO.P,U4,20*%
%TO.N,ROMCE_N*%
X22120000Y-5200000D03*
%TO.P,U4,21*%
%TO.N,A10*%
X19580000Y-5200000D03*
%TO.P,U4,22*%
%TO.N,RD_N*%
X17040000Y-5200000D03*
%TO.P,U4,23*%
%TO.N,A11*%
X14500000Y-5200000D03*
%TO.P,U4,24*%
%TO.N,A9*%
X11960000Y-5200000D03*
%TO.P,U4,25*%
%TO.N,A8*%
X9420000Y-5200000D03*
%TO.P,U4,26*%
%TO.N,A13*%
X6880000Y-5200000D03*
%TO.P,U4,27*%
%TO.N,ROMA14*%
X4340000Y-5200000D03*
%TO.P,U4,28*%
%TO.N,+5V*%
X1800000Y-5200000D03*
%TD*%
D15*
%TO.P,C2,1*%
%TO.N,+5V*%
X47300000Y-53000000D03*
%TO.P,C2,2*%
%TO.N,GND*%
X52300000Y-53000000D03*
%TD*%
%TO.P,R5,1*%
%TO.N,ROMCS_DRV*%
X57500000Y-14500000D03*
%TO.P,R5,2*%
%TO.N,ROMCS_BUS*%
X60040000Y-14500000D03*
%TD*%
D16*
%TO.P,C6,1*%
%TO.N,+5V*%
X67200000Y-54300000D03*
D15*
%TO.P,C6,2*%
%TO.N,GND*%
X69200000Y-54300000D03*
%TD*%
D17*
%TO.P,D1,1*%
%TO.N,GND*%
X46500000Y-19500000D03*
D18*
%TO.P,D1,2*%
%TO.N,LED_A*%
X49040000Y-19500000D03*
%TD*%
D10*
%TO.P,U1,1*%
%TO.N,MREQ_N*%
X48300000Y-35820000D03*
D11*
%TO.P,U1,2*%
%TO.N,ZX512*%
X50840000Y-35820000D03*
%TO.P,U1,3*%
%TO.N,A1*%
X53380000Y-35820000D03*
%TO.P,U1,4*%
%TO.N,WR_N*%
X55920000Y-35820000D03*
%TO.P,U1,5*%
%TO.N,DIS128*%
X58460000Y-35820000D03*
%TO.P,U1,6*%
%TO.N,BANK2*%
X61000000Y-35820000D03*
%TO.P,U1,7*%
%TO.N,A5*%
X63540000Y-35820000D03*
%TO.P,U1,8*%
%TO.N,BANK0*%
X66080000Y-35820000D03*
%TO.P,U1,9*%
%TO.N,BANK4*%
X68620000Y-35820000D03*
%TO.P,U1,10*%
%TO.N,BANK3*%
X71160000Y-35820000D03*
%TO.P,U1,11*%
%TO.N,BANK1*%
X73700000Y-35820000D03*
%TO.P,U1,12*%
%TO.N,GND*%
X76240000Y-35820000D03*
%TO.P,U1,13*%
%TO.N,A15*%
X76240000Y-28200000D03*
%TO.P,U1,14*%
%TO.N,A14*%
X73700000Y-28200000D03*
%TO.P,U1,15*%
%TO.N,ROMCS_N*%
X71160000Y-28200000D03*
%TO.P,U1,16*%
%TO.N,CLK7FFD*%
X68620000Y-28200000D03*
%TO.P,U1,17*%
%TO.N,SA18*%
X66080000Y-28200000D03*
%TO.P,U1,18*%
%TO.N,SA17_CE2*%
X63540000Y-28200000D03*
%TO.P,U1,19*%
%TO.N,RAMCS_N*%
X61000000Y-28200000D03*
%TO.P,U1,20*%
%TO.N,SA16*%
X58460000Y-28200000D03*
%TO.P,U1,21*%
%TO.N,SA15*%
X55920000Y-28200000D03*
%TO.P,U1,22*%
%TO.N,SA14*%
X53380000Y-28200000D03*
%TO.P,U1,23*%
%TO.N,IORQ_N*%
X50840000Y-28200000D03*
%TO.P,U1,24*%
%TO.N,+5V*%
X48300000Y-28200000D03*
%TD*%
D15*
%TO.P,C1,1*%
%TO.N,+5V*%
X48300000Y-23500000D03*
%TO.P,C1,2*%
%TO.N,GND*%
X53300000Y-23500000D03*
%TD*%
%TO.P,C3,1*%
%TO.N,+5V*%
X3300000Y-24000000D03*
%TO.P,C3,2*%
%TO.N,GND*%
X8300000Y-24000000D03*
%TD*%
%TO.P,R4,1*%
%TO.N,+5V*%
X4000000Y-52500000D03*
%TO.P,R4,2*%
%TO.N,RAMDIS*%
X6540000Y-52500000D03*
%TD*%
%TO.P,R2,1*%
%TO.N,+5V*%
X46500000Y-14500000D03*
%TO.P,R2,2*%
%TO.N,ZX512*%
X49040000Y-14500000D03*
%TD*%
D12*
%TO.P,JP3,1*%
%TO.N,ZX512*%
X63500000Y-4000000D03*
D13*
%TO.P,JP3,2*%
%TO.N,GND*%
X63500000Y-6540000D03*
%TD*%
D19*
%TO.P,J1,1*%
%TO.N,A14*%
X73660000Y-63155000D03*
D14*
%TO.P,J1,2*%
%TO.N,A12*%
X71120000Y-63155000D03*
%TO.P,J1,3*%
%TO.N,+5V*%
X68580000Y-63155000D03*
%TO.P,J1,4*%
%TO.N,BUS_9V*%
X66040000Y-63155000D03*
%TO.P,J1,6*%
%TO.N,GND*%
X60960000Y-63155000D03*
%TO.P,J1,7*%
%TO.N,BUS_P07*%
X58420000Y-63155000D03*
%TO.P,J1,8*%
%TO.N,BUS_CLK*%
X55880000Y-63155000D03*
%TO.P,J1,9*%
%TO.N,A0*%
X53340000Y-63155000D03*
%TO.P,J1,10*%
%TO.N,A1*%
X50800000Y-63155000D03*
%TO.P,J1,11*%
%TO.N,A2*%
X48260000Y-63155000D03*
%TO.P,J1,12*%
%TO.N,A3*%
X45720000Y-63155000D03*
%TO.P,J1,13*%
%TO.N,BUS_IORQGE*%
X43180000Y-63155000D03*
%TO.P,J1,14*%
%TO.N,GND*%
X40640000Y-63155000D03*
%TO.P,J1,15*%
%TO.N,BUS_P15*%
X38100000Y-63155000D03*
%TO.P,J1,16*%
%TO.N,BUS_P16*%
X35560000Y-63155000D03*
%TO.P,J1,17*%
%TO.N,BUS_P17*%
X33020000Y-63155000D03*
%TO.P,J1,18*%
%TO.N,BUS_P18*%
X30480000Y-63155000D03*
%TO.P,J1,19*%
%TO.N,BUS_BUSREQ*%
X27940000Y-63155000D03*
%TO.P,J1,20*%
%TO.N,RESET_N*%
X25400000Y-63155000D03*
%TO.P,J1,21*%
%TO.N,A7*%
X22860000Y-63155000D03*
%TO.P,J1,22*%
%TO.N,A6*%
X20320000Y-63155000D03*
%TO.P,J1,23*%
%TO.N,A5*%
X17780000Y-63155000D03*
%TO.P,J1,24*%
%TO.N,A4*%
X15240000Y-63155000D03*
%TO.P,J1,25*%
%TO.N,ROMCS_BUS*%
X12700000Y-63155000D03*
%TO.P,J1,26*%
%TO.N,BUS_BUSACK*%
X10160000Y-63155000D03*
%TO.P,J1,27*%
%TO.N,A9*%
X7620000Y-63155000D03*
%TO.P,J1,28*%
%TO.N,A11*%
X5080000Y-63155000D03*
%TO.P,J1,29*%
%TO.N,RAMDIS*%
X5080000Y-58305000D03*
%TO.P,J1,30*%
%TO.N,A10*%
X7620000Y-58305000D03*
%TO.P,J1,31*%
%TO.N,A8*%
X10160000Y-58305000D03*
%TO.P,J1,32*%
%TO.N,BUS_RFSH*%
X12700000Y-58305000D03*
%TO.P,J1,33*%
%TO.N,BUS_M1*%
X15240000Y-58305000D03*
%TO.P,J1,34*%
%TO.N,BUS_P34*%
X17780000Y-58305000D03*
%TO.P,J1,35*%
%TO.N,BUS_P35*%
X20320000Y-58305000D03*
%TO.P,J1,36*%
%TO.N,BUS_WAIT*%
X22860000Y-58305000D03*
%TO.P,J1,37*%
%TO.N,BUS_P37*%
X25400000Y-58305000D03*
%TO.P,J1,38*%
%TO.N,WR_N*%
X27940000Y-58305000D03*
%TO.P,J1,39*%
%TO.N,RD_N*%
X30480000Y-58305000D03*
%TO.P,J1,40*%
%TO.N,IORQ_N*%
X33020000Y-58305000D03*
%TO.P,J1,41*%
%TO.N,MREQ_N*%
X35560000Y-58305000D03*
%TO.P,J1,42*%
%TO.N,BUS_HALT*%
X38100000Y-58305000D03*
%TO.P,J1,43*%
%TO.N,BUS_NMI*%
X40640000Y-58305000D03*
%TO.P,J1,44*%
%TO.N,BUS_INT*%
X43180000Y-58305000D03*
%TO.P,J1,45*%
%TO.N,D4*%
X45720000Y-58305000D03*
%TO.P,J1,46*%
%TO.N,D3*%
X48260000Y-58305000D03*
%TO.P,J1,47*%
%TO.N,D5*%
X50800000Y-58305000D03*
%TO.P,J1,48*%
%TO.N,D6*%
X53340000Y-58305000D03*
%TO.P,J1,49*%
%TO.N,D2*%
X55880000Y-58305000D03*
%TO.P,J1,50*%
%TO.N,D1*%
X58420000Y-58305000D03*
%TO.P,J1,51*%
%TO.N,D0*%
X60960000Y-58305000D03*
%TO.P,J1,53*%
%TO.N,BUS_SOUNDIN*%
X66040000Y-58305000D03*
%TO.P,J1,54*%
%TO.N,D7*%
X68580000Y-58305000D03*
%TO.P,J1,55*%
%TO.N,A13*%
X71120000Y-58305000D03*
%TO.P,J1,56*%
%TO.N,A15*%
X73660000Y-58305000D03*
%TD*%
D20*
%TO.N,A12*%
X10920000Y-48018300D03*
%TO.N,A5*%
X19490000Y-40125700D03*
%TO.N,A4*%
X42310000Y-20240400D03*
X43188800Y-36072400D03*
%TO.N,A0*%
X46984900Y-57636300D03*
%TO.N,D1*%
X51113500Y-45709200D03*
%TO.N,D3*%
X31788600Y-32712100D03*
%TO.N,D4*%
X38860000Y-20754000D03*
X68856800Y-39099600D03*
%TO.N,D7*%
X38817400Y-31907800D03*
%TO.N,RD_N*%
X24890100Y-39462600D03*
%TO.N,A11*%
X3244800Y-38714800D03*
X1101700Y-22643700D03*
X16438800Y-32901900D03*
%TO.N,A9*%
X12190000Y-38500800D03*
%TO.N,A13*%
X49083300Y-50351200D03*
X38685600Y-33053200D03*
%TO.N,WR_N*%
X17952800Y-31525100D03*
X22173200Y-38668200D03*
%TO.N,ROMA14*%
X49533500Y-12401000D03*
%TO.N,IORQ_N*%
X45626800Y-37859800D03*
%TD*%
%TO.N,A12*%
D21*
X4340000Y-20440000D02*
X4340000Y-22140000D01*
X4573300Y-22373300D02*
X4573300Y-35393300D01*
X10920000Y-43440000D02*
X10920000Y-48018300D01*
X4340000Y-22140000D02*
X4573300Y-22373300D01*
X4573300Y-35393300D02*
X10920000Y-41740000D01*
X10920000Y-43440000D02*
X10920000Y-41740000D01*
%TO.N,A7*%
X13460000Y-43440000D02*
X13460000Y-45140000D01*
X7110000Y-24924500D02*
X6880000Y-24694500D01*
X14705000Y-64383000D02*
X21632000Y-64383000D01*
X13460000Y-38272200D02*
X7110000Y-31922200D01*
X13970000Y-45650000D02*
X13970000Y-63648000D01*
X13460000Y-43440000D02*
X13460000Y-38272200D01*
X6880000Y-24694500D02*
X6880000Y-20440000D01*
X21632000Y-64383000D02*
X22860000Y-63155000D01*
X13460000Y-45140000D02*
X13970000Y-45650000D01*
X7110000Y-31922200D02*
X7110000Y-24924500D01*
X13970000Y-63648000D02*
X14705000Y-64383000D01*
%TO.N,A6*%
X16716700Y-41023300D02*
X16000000Y-41740000D01*
X24076700Y-57800900D02*
X22350000Y-56074200D01*
X9420000Y-20440000D02*
X9420000Y-22140000D01*
X16716700Y-40009700D02*
X9651600Y-32944600D01*
X16716700Y-41023300D02*
X16716700Y-40009700D01*
X22350000Y-42503500D02*
X20869800Y-41023300D01*
X22350000Y-56074200D02*
X22350000Y-42503500D01*
X16000000Y-43440000D02*
X16000000Y-42590000D01*
X9651600Y-32944600D02*
X9651600Y-22371600D01*
X9651600Y-22371600D02*
X9420000Y-22140000D01*
X20320000Y-63155000D02*
X24076700Y-59398300D01*
X24076700Y-59398300D02*
X24076700Y-57800900D01*
X16000000Y-41740000D02*
X16000000Y-42590000D01*
X20869800Y-41023300D02*
X16716700Y-41023300D01*
%TO.N,A5*%
X18996700Y-45596700D02*
X18996700Y-61938300D01*
X11960000Y-20440000D02*
X11960000Y-22140000D01*
X14726700Y-24906700D02*
X14726700Y-35362400D01*
X11960000Y-22140000D02*
X14726700Y-24906700D01*
X18540000Y-43440000D02*
X18540000Y-45140000D01*
X18996700Y-61938300D02*
X17780000Y-63155000D01*
X18540000Y-45140000D02*
X18996700Y-45596700D01*
X14726700Y-35362400D02*
X19490000Y-40125700D01*
%TO.N,A4*%
X16495500Y-61899500D02*
X16495500Y-51666100D01*
X16495500Y-51666100D02*
X17270000Y-50891600D01*
X17270000Y-42514100D02*
X18044100Y-41740000D01*
X19380000Y-41740000D02*
X21080000Y-43440000D01*
X15240000Y-63155000D02*
X16495500Y-61899500D01*
X18044100Y-41740000D02*
X19380000Y-41740000D01*
X17270000Y-50891600D02*
X17270000Y-42514100D01*
X43188800Y-21119200D02*
X42310000Y-20240400D01*
X43188800Y-36072400D02*
X43188800Y-21119200D01*
%TO.N,A3*%
X18288300Y-23430800D02*
X18288300Y-25762500D01*
X43551800Y-60986800D02*
X45720000Y-63155000D01*
X28876200Y-60986800D02*
X43551800Y-60986800D01*
X15570700Y-30955600D02*
X15570700Y-33690700D01*
X23620000Y-43440000D02*
X23620000Y-41740000D01*
X17269900Y-26780900D02*
X17269900Y-29256400D01*
X26670000Y-58780600D02*
X28876200Y-60986800D01*
X15570700Y-33690700D02*
X23620000Y-41740000D01*
X18288300Y-25762500D02*
X17269900Y-26780900D01*
X17269900Y-29256400D02*
X15570700Y-30955600D01*
X26670000Y-48190000D02*
X26670000Y-58780600D01*
X23620000Y-43440000D02*
X23620000Y-45140000D01*
X23620000Y-45140000D02*
X26670000Y-48190000D01*
X17040000Y-20440000D02*
X17040000Y-22182500D01*
X17040000Y-22182500D02*
X18288300Y-23430800D01*
%TO.N,A2*%
X47637000Y-63155000D02*
X48260000Y-63155000D01*
X26661000Y-43941000D02*
X26661000Y-45140000D01*
X19580000Y-20440000D02*
X19580000Y-22140000D01*
X25914000Y-41740000D02*
X26160000Y-41986000D01*
X40081000Y-59538000D02*
X44020000Y-59538000D01*
X23040000Y-38309000D02*
X23040000Y-38866000D01*
X26661000Y-45140000D02*
X39370000Y-57849000D01*
X19744000Y-22304000D02*
X19744000Y-23136000D01*
X19580000Y-22140000D02*
X19744000Y-22304000D01*
X39370000Y-58827000D02*
X40081000Y-59538000D01*
X22350000Y-37619000D02*
X23040000Y-38309000D01*
X26160000Y-41986000D02*
X26160000Y-43440000D01*
X19744000Y-23136000D02*
X22350000Y-25742000D01*
X23040000Y-38866000D02*
X25914000Y-41740000D01*
X39370000Y-57849000D02*
X39370000Y-58827000D01*
X22350000Y-25742000D02*
X22350000Y-37619000D01*
X44020000Y-59538000D02*
X47637000Y-63155000D01*
X26160000Y-43440000D02*
X26661000Y-43941000D01*
%TO.N,A1*%
X22120000Y-20440000D02*
X22120000Y-22203400D01*
X48878000Y-61233000D02*
X50800000Y-63155000D01*
X44450000Y-57795000D02*
X44450000Y-58758000D01*
X22120000Y-22203400D02*
X24890000Y-24973400D01*
X46925000Y-61233000D02*
X48878000Y-61233000D01*
X44450000Y-58758000D02*
X46925000Y-61233000D01*
X28700000Y-43440000D02*
X30400000Y-45140000D01*
X24890000Y-24973400D02*
X24890000Y-37930000D01*
X28700000Y-43440000D02*
X28700000Y-41740000D01*
X30400000Y-45140000D02*
X31795000Y-45140000D01*
X24890000Y-37930000D02*
X28700000Y-41740000D01*
X31795000Y-45140000D02*
X44450000Y-57795000D01*
%TO.N,A0*%
X24660000Y-22140000D02*
X27429900Y-24909900D01*
X27429900Y-37929900D02*
X31240000Y-41740000D01*
X24660000Y-20440000D02*
X24660000Y-22140000D01*
X40699100Y-51350500D02*
X46984900Y-57636300D01*
X39150500Y-51350500D02*
X40699100Y-51350500D01*
X27429900Y-24909900D02*
X27429900Y-37929900D01*
X31240000Y-43440000D02*
X31240000Y-41740000D01*
X31240000Y-43440000D02*
X39150500Y-51350500D01*
%TO.N,D0*%
X60960000Y-58305000D02*
X55880000Y-53225000D01*
X33780000Y-43440000D02*
X33780000Y-41740000D01*
X55880000Y-53225000D02*
X55880000Y-49320000D01*
X27200000Y-23633400D02*
X29970000Y-26403400D01*
X29970000Y-37930000D02*
X33780000Y-41740000D01*
X27200000Y-20440000D02*
X27200000Y-23633400D01*
X29970000Y-26403400D02*
X29970000Y-37930000D01*
%TO.N,D1*%
X29740000Y-20440000D02*
X29740000Y-22140000D01*
X32510000Y-32118600D02*
X36320000Y-35928600D01*
X29740000Y-22140000D02*
X29740000Y-22559400D01*
X36320000Y-43440000D02*
X36320000Y-41740000D01*
X58420000Y-58305000D02*
X54610000Y-54495000D01*
X54610000Y-48375000D02*
X51944200Y-45709200D01*
X32510000Y-25329400D02*
X32510000Y-32118600D01*
X58420000Y-49320000D02*
X56720000Y-47620000D01*
X55365000Y-47620000D02*
X54610000Y-48375000D01*
X29740000Y-22559400D02*
X32510000Y-25329400D01*
X51944200Y-45709200D02*
X51113500Y-45709200D01*
X56720000Y-47620000D02*
X55365000Y-47620000D01*
X54610000Y-54495000D02*
X54610000Y-48375000D01*
X36320000Y-35928600D02*
X36320000Y-41740000D01*
%TO.N,D2*%
X40560000Y-45140000D02*
X42585000Y-45140000D01*
X42585000Y-45140000D02*
X55750000Y-58305000D01*
X35050100Y-30725800D02*
X38860000Y-34535700D01*
X38860000Y-43440000D02*
X40560000Y-45140000D01*
X32280000Y-22140000D02*
X35050100Y-24910100D01*
X38860000Y-34535700D02*
X38860000Y-43440000D01*
X32280000Y-20440000D02*
X32280000Y-22140000D01*
X35050100Y-24910100D02*
X35050100Y-30725800D01*
%TO.N,D3*%
X35050000Y-44369900D02*
X35050000Y-35973500D01*
X34820000Y-5200000D02*
X34820000Y-6900000D01*
X35050000Y-35973500D02*
X31788600Y-32712100D01*
X48260000Y-57579900D02*
X35050000Y-44369900D01*
X48260000Y-58305000D02*
X48260000Y-57579900D01*
X41400000Y-13480000D02*
X41400000Y-28200000D01*
X34820000Y-6900000D02*
X41400000Y-13480000D01*
%TO.N,D4*%
X68856800Y-39723200D02*
X68856800Y-39099600D01*
X38860000Y-20754000D02*
X38860000Y-13480000D01*
X70832300Y-60317300D02*
X47732300Y-60317300D01*
X68580000Y-40000000D02*
X68856800Y-39723200D01*
X68580000Y-41700000D02*
X68580000Y-43400000D01*
X72390000Y-58759600D02*
X70832300Y-60317300D01*
X38860000Y-13480000D02*
X32280000Y-6900000D01*
X38860000Y-28200000D02*
X38860000Y-20754000D01*
X72390000Y-47210000D02*
X72390000Y-58759600D01*
X32280000Y-5200000D02*
X32280000Y-6900000D01*
X68580000Y-43400000D02*
X72390000Y-47210000D01*
X68580000Y-41700000D02*
X68580000Y-40000000D01*
X47732300Y-60317300D02*
X45720000Y-58305000D01*
%TO.N,D5*%
X69070600Y-59570800D02*
X52065800Y-59570800D01*
X57190000Y-34375000D02*
X58204000Y-33362000D01*
X66040000Y-43400000D02*
X69850000Y-47210000D01*
X69850000Y-57854300D02*
X69850000Y-58791400D01*
X42322000Y-34202000D02*
X42322000Y-36431000D01*
X71284100Y-52047400D02*
X71284100Y-56420200D01*
X36320000Y-28200000D02*
X36320000Y-13576600D01*
X36320000Y-28200000D02*
X42322000Y-34202000D01*
X69850000Y-50613300D02*
X71284100Y-52047400D01*
X63312000Y-33362000D02*
X64810000Y-34860000D01*
X52065800Y-59570800D02*
X50800000Y-58305000D01*
X66040000Y-41700000D02*
X66040000Y-43400000D01*
X58204000Y-33362000D02*
X63312000Y-33362000D01*
X57190000Y-36805000D02*
X57190000Y-34375000D01*
X29740000Y-6996600D02*
X29740000Y-5200000D01*
X64810000Y-38770000D02*
X66040000Y-40000000D01*
X64810000Y-34860000D02*
X64810000Y-38770000D01*
X69850000Y-58791400D02*
X69070600Y-59570800D01*
X42322000Y-36431000D02*
X44660000Y-38770000D01*
X36320000Y-13576600D02*
X29740000Y-6996600D01*
X71284100Y-56420200D02*
X69850000Y-57854300D01*
X44660000Y-38770000D02*
X55225000Y-38770000D01*
X69850000Y-47210000D02*
X69850000Y-50613300D01*
X66040000Y-40000000D02*
X66040000Y-41700000D01*
X55225000Y-38770000D02*
X57190000Y-36805000D01*
%TO.N,D6*%
X33780000Y-28200000D02*
X33780000Y-25168500D01*
X50486400Y-55451400D02*
X53340000Y-58305000D01*
X33780000Y-25168500D02*
X31010000Y-22398500D01*
X33780000Y-30469500D02*
X37590100Y-34279600D01*
X37590100Y-34279600D02*
X37590100Y-45144000D01*
X37590100Y-45144000D02*
X47897500Y-55451400D01*
X31010000Y-22398500D02*
X31010000Y-10806600D01*
X31010000Y-10806600D02*
X27200000Y-6996600D01*
X33780000Y-28200000D02*
X33780000Y-29900000D01*
X33780000Y-29900000D02*
X33780000Y-30469500D01*
X47897500Y-55451400D02*
X50486400Y-55451400D01*
X27200000Y-6996600D02*
X27200000Y-5200000D01*
%TO.N,D7*%
X40609000Y-33700000D02*
X38817000Y-31908000D01*
X62230000Y-48340000D02*
X62230000Y-50433000D01*
X24660000Y-6900000D02*
X28470000Y-10710000D01*
X31240000Y-28200000D02*
X31240000Y-26500000D01*
X55880000Y-41700000D02*
X54180000Y-40000000D01*
X57290000Y-43110000D02*
X57290000Y-43400000D01*
X28470000Y-23730000D02*
X31240000Y-26500000D01*
X24660000Y-5200000D02*
X24660000Y-6900000D01*
X40609000Y-35732000D02*
X40609000Y-33700000D01*
X65148000Y-53352000D02*
X65148000Y-54873000D01*
X65148000Y-54873000D02*
X68580000Y-58305000D01*
X54180000Y-40000000D02*
X44877000Y-40000000D01*
X57290000Y-43400000D02*
X62230000Y-48340000D01*
X44877000Y-40000000D02*
X40609000Y-35732000D01*
X28470000Y-10710000D02*
X28470000Y-23730000D01*
X55880000Y-41700000D02*
X57290000Y-43110000D01*
X62230000Y-50433000D02*
X65148000Y-53352000D01*
%TO.N,A10*%
X7828000Y-58097000D02*
X7828000Y-45080000D01*
X7113000Y-44365000D02*
X7113000Y-40202000D01*
X23390000Y-22268300D02*
X23390000Y-10710000D01*
X3071000Y-21752000D02*
X3071000Y-8684000D01*
X3071000Y-8684000D02*
X5610000Y-6145000D01*
X17880000Y-3500000D02*
X19580000Y-5200000D01*
X6379000Y-3500000D02*
X17880000Y-3500000D01*
X5610000Y-4269000D02*
X6379000Y-3500000D01*
X7113000Y-40202000D02*
X1984000Y-35072000D01*
X7828000Y-45080000D02*
X7113000Y-44365000D01*
X7620000Y-58305000D02*
X7828000Y-58097000D01*
X1984000Y-35072000D02*
X1984000Y-22839000D01*
X23390000Y-10710000D02*
X19580000Y-6900000D01*
X26160000Y-25038300D02*
X23390000Y-22268300D01*
X26160000Y-28200000D02*
X26160000Y-25038300D01*
X19580000Y-5200000D02*
X19580000Y-6900000D01*
X5610000Y-6145000D02*
X5610000Y-4269000D01*
X1984000Y-22839000D02*
X3071000Y-21752000D01*
%TO.N,RD_N*%
X23620000Y-29900000D02*
X23756600Y-30036600D01*
X23620000Y-28200000D02*
X23620000Y-25263600D01*
X20850000Y-10710000D02*
X17040000Y-6900000D01*
X23620000Y-25263600D02*
X20850000Y-22493600D01*
X17040000Y-5200000D02*
X17040000Y-6900000D01*
X20850000Y-22493600D02*
X20850000Y-10710000D01*
X23620000Y-28200000D02*
X23620000Y-29900000D01*
X23756600Y-30036600D02*
X23756600Y-38329100D01*
X23756600Y-38329100D02*
X24890100Y-39462600D01*
%TO.N,A11*%
X19380000Y-29900000D02*
X18316000Y-29900000D01*
X21080000Y-28200000D02*
X19380000Y-29900000D01*
X1101700Y-36571700D02*
X1101700Y-22643700D01*
X18316000Y-29900000D02*
X16439000Y-31777000D01*
X16439000Y-31777000D02*
X16439000Y-32902000D01*
X5080000Y-63155000D02*
X1997900Y-60072900D01*
X3244800Y-38714800D02*
X1101700Y-36571700D01*
X1997900Y-60072900D02*
X1997900Y-39961700D01*
X1997900Y-39961700D02*
X3244800Y-38714800D01*
%TO.N,A9*%
X8891500Y-51333600D02*
X12190000Y-48035100D01*
X11960000Y-5200000D02*
X11960000Y-6900000D01*
X12190000Y-48035100D02*
X12190000Y-38500800D01*
X7620000Y-63155000D02*
X8891500Y-61883500D01*
X19005100Y-22771500D02*
X19005100Y-27734900D01*
X18310100Y-22076500D02*
X19005100Y-22771500D01*
X8891500Y-61883500D02*
X8891500Y-51333600D01*
X19005100Y-27734900D02*
X18540000Y-28200000D01*
X18310100Y-13250100D02*
X18310100Y-22076500D01*
X11960000Y-6900000D02*
X18310100Y-13250100D01*
%TO.N,A8*%
X16000000Y-28200000D02*
X16000000Y-26500000D01*
X9420000Y-5200000D02*
X9420000Y-6900000D01*
X16000000Y-25006600D02*
X16000000Y-26500000D01*
X13230000Y-10710000D02*
X13230000Y-22236600D01*
X13230000Y-22236600D02*
X16000000Y-25006600D01*
X9420000Y-6900000D02*
X13230000Y-10710000D01*
%TO.N,A13*%
X10691000Y-24488000D02*
X10691000Y-25431000D01*
X6880000Y-6900000D02*
X10691000Y-10711000D01*
X39576700Y-33944300D02*
X38685600Y-33053200D01*
X49083300Y-47771300D02*
X39576700Y-38264700D01*
X6880000Y-5200000D02*
X6880000Y-6900000D01*
X39576700Y-38264700D02*
X39576700Y-33944300D01*
X10691000Y-10711000D02*
X10691000Y-24488000D01*
X49083300Y-50351200D02*
X49083300Y-47771300D01*
X10691000Y-25431000D02*
X13460000Y-28200000D01*
%TO.N,WR_N*%
X17952800Y-31525100D02*
X17952800Y-34447800D01*
X22173200Y-38668200D02*
X22173200Y-39259400D01*
X22173200Y-39259400D02*
X24890000Y-41976200D01*
X24890000Y-41976200D02*
X24890000Y-45244700D01*
X27940000Y-48294700D02*
X27940000Y-58305000D01*
X17952800Y-34447800D02*
X22173200Y-38668200D01*
X24890000Y-45244700D02*
X27940000Y-48294700D01*
%TO.N,ROMCS_N*%
X56852500Y-4000000D02*
X55000000Y-4000000D01*
X71160000Y-28200000D02*
X71160000Y-18307500D01*
X71160000Y-18307500D02*
X56852500Y-4000000D01*
%TO.N,ROMCS_DRV*%
X57500000Y-14500000D02*
X57500000Y-9040000D01*
X57500000Y-9040000D02*
X55000000Y-6540000D01*
%TO.N,CLK7FFD*%
X68620000Y-29900000D02*
X72429900Y-33709900D01*
X68620000Y-28200000D02*
X68620000Y-29900000D01*
X72429900Y-33709900D02*
X72429900Y-38769900D01*
X73660000Y-41700000D02*
X73660000Y-40000000D01*
X72429900Y-38769900D02*
X73660000Y-40000000D01*
%TO.N,BANK2*%
X63500000Y-46087500D02*
X63500000Y-49320000D01*
X61000000Y-37520000D02*
X62229900Y-38749900D01*
X62229900Y-44817400D02*
X63500000Y-46087500D01*
X61000000Y-35820000D02*
X61000000Y-37520000D01*
X62229900Y-38749900D02*
X62229900Y-44817400D01*
%TO.N,ROMA14*%
X49533000Y-12401000D02*
X52931000Y-15799000D01*
X67350000Y-36761000D02*
X68822000Y-38233000D01*
X52931000Y-15799000D02*
X62484000Y-15799000D01*
X69353000Y-38233000D02*
X71120000Y-40000000D01*
X67350000Y-20665000D02*
X67350000Y-36761000D01*
X62484000Y-15799000D02*
X67350000Y-20665000D01*
X71120000Y-40000000D02*
X71120000Y-41700000D01*
X68822000Y-38233000D02*
X69353000Y-38233000D01*
%TO.N,DIS128*%
X61506000Y-34120000D02*
X60160000Y-34120000D01*
X62270000Y-37117000D02*
X62270000Y-34884000D01*
X62270000Y-34884000D02*
X61506000Y-34120000D01*
X63500000Y-38347000D02*
X62270000Y-37117000D01*
X63500000Y-41700000D02*
X63500000Y-38347000D01*
X60160000Y-34120000D02*
X58460000Y-35820000D01*
%TO.N,ZX512*%
X50840000Y-35820000D02*
X50840000Y-34120000D01*
X54650000Y-30310000D02*
X54650000Y-20110000D01*
X54650000Y-20110000D02*
X49040000Y-14500000D01*
X50840000Y-34120000D02*
X54650000Y-30310000D01*
%TO.N,A15*%
X76240000Y-28200000D02*
X76240000Y-29900000D01*
X74970000Y-31170000D02*
X76240000Y-29900000D01*
X73660000Y-58305000D02*
X74970000Y-56995000D01*
X74970000Y-56995000D02*
X74970000Y-31170000D01*
%TO.N,IORQ_N*%
X45626800Y-35113200D02*
X45626800Y-37859800D01*
X50840000Y-28200000D02*
X50840000Y-29900000D01*
X50840000Y-29900000D02*
X45626800Y-35113200D01*
%TO.N,RAMDIS*%
X5080000Y-53960000D02*
X6540000Y-52500000D01*
X5080000Y-58305000D02*
X5080000Y-53960000D01*
%TD*%
M02*
