%TF.GenerationSoftware,KiCad,Pcbnew,10.0.4*%
%TF.CreationDate,2026-07-27T01:33:31-03:00*%
%TF.ProjectId,tkmem128,746b6d65-6d31-4323-982e-6b696361645f,rev?*%
%TF.SameCoordinates,Original*%
%TF.FileFunction,Copper,L1,Top*%
%TF.FilePolarity,Positive*%
%FSLAX46Y46*%
G04 Gerber Fmt 4.6, Leading zero omitted, Abs format (unit mm)*
G04 Created by KiCad (PCBNEW 10.0.4) date 2026-07-27 01:33:31*
%MOMM*%
%LPD*%
G01*
G04 APERTURE LIST*
G04 Aperture macros list*
%AMRoundRect*
0 Rectangle with rounded corners*
0 $1 Rounding radius*
0 $2 $3 $4 $5 $6 $7 $8 $9 X,Y pos of 4 corners*
0 Add a 4 corners polygon primitive as box body*
4,1,4,$2,$3,$4,$5,$6,$7,$8,$9,$2,$3,0*
0 Add four circle primitives for the rounded corners*
1,1,$1+$1,$2,$3*
1,1,$1+$1,$4,$5*
1,1,$1+$1,$6,$7*
1,1,$1+$1,$8,$9*
0 Add four rect primitives between the rounded corners*
20,1,$1+$1,$2,$3,$4,$5,0*
20,1,$1+$1,$4,$5,$6,$7,0*
20,1,$1+$1,$6,$7,$8,$9,0*
20,1,$1+$1,$8,$9,$2,$3,0*%
%AMFreePoly0*
4,1,23,0.500000,-0.750000,0.000000,-0.750000,0.000000,-0.745722,-0.065263,-0.745722,-0.191342,-0.711940,-0.304381,-0.646677,-0.396677,-0.554381,-0.461940,-0.441342,-0.495722,-0.315263,-0.495722,-0.250000,-0.500000,-0.250000,-0.500000,0.250000,-0.495722,0.250000,-0.495722,0.315263,-0.461940,0.441342,-0.396677,0.554381,-0.304381,0.646677,-0.191342,0.711940,-0.065263,0.745722,0.000000,0.745722,
0.000000,0.750000,0.500000,0.750000,0.500000,-0.750000,0.500000,-0.750000,$1*%
%AMFreePoly1*
4,1,23,0.000000,0.745722,0.065263,0.745722,0.191342,0.711940,0.304381,0.646677,0.396677,0.554381,0.461940,0.441342,0.495722,0.315263,0.495722,0.250000,0.500000,0.250000,0.500000,-0.250000,0.495722,-0.250000,0.495722,-0.315263,0.461940,-0.441342,0.396677,-0.554381,0.304381,-0.646677,0.191342,-0.711940,0.065263,-0.745722,0.000000,-0.745722,0.000000,-0.750000,-0.500000,-0.750000,
-0.500000,0.750000,0.000000,0.750000,0.000000,0.745722,0.000000,0.745722,$1*%
G04 Aperture macros list end*
%TA.AperFunction,ComponentPad*%
%ADD10RoundRect,0.250000X-0.950000X-0.550000X0.950000X-0.550000X0.950000X0.550000X-0.950000X0.550000X0*%
%TD*%
%TA.AperFunction,ComponentPad*%
%ADD11O,2.400000X1.600000*%
%TD*%
%TA.AperFunction,ComponentPad*%
%ADD12R,1.700000X1.700000*%
%TD*%
%TA.AperFunction,ComponentPad*%
%ADD13C,1.700000*%
%TD*%
%TA.AperFunction,ComponentPad*%
%ADD14C,1.500000*%
%TD*%
%TA.AperFunction,ComponentPad*%
%ADD15C,1.600000*%
%TD*%
%TA.AperFunction,ComponentPad*%
%ADD16R,1.750000X1.750000*%
%TD*%
%TA.AperFunction,ComponentPad*%
%ADD17C,1.750000*%
%TD*%
%TA.AperFunction,ComponentPad*%
%ADD18RoundRect,0.250000X-0.550000X-0.550000X0.550000X-0.550000X0.550000X0.550000X-0.550000X0.550000X0*%
%TD*%
%TA.AperFunction,ComponentPad*%
%ADD19R,1.800000X1.800000*%
%TD*%
%TA.AperFunction,ComponentPad*%
%ADD20C,1.800000*%
%TD*%
%TA.AperFunction,SMDPad,CuDef*%
%ADD21FreePoly0,0.000000*%
%TD*%
%TA.AperFunction,SMDPad,CuDef*%
%ADD22FreePoly1,0.000000*%
%TD*%
%TA.AperFunction,ViaPad*%
%ADD23C,0.700000*%
%TD*%
%TA.AperFunction,ViaPad*%
%ADD24C,0.900000*%
%TD*%
%TA.AperFunction,Conductor*%
%ADD25C,0.250000*%
%TD*%
%TA.AperFunction,Conductor*%
%ADD26C,0.600000*%
%TD*%
G04 APERTURE END LIST*
D10*
%TO.P,U3,1*%
%TO.N,SA18*%
X6350000Y-5080000D03*
D11*
%TO.P,U3,2*%
%TO.N,SA16*%
X6350000Y-7620000D03*
%TO.P,U3,3*%
%TO.N,SA14*%
X6350000Y-10160000D03*
%TO.P,U3,4*%
%TO.N,A12*%
X6350000Y-12700000D03*
%TO.P,U3,5*%
%TO.N,A7*%
X6350000Y-15240000D03*
%TO.P,U3,6*%
%TO.N,A6*%
X6350000Y-17780000D03*
%TO.P,U3,7*%
%TO.N,A5*%
X6350000Y-20320000D03*
%TO.P,U3,8*%
%TO.N,A4*%
X6350000Y-22860000D03*
%TO.P,U3,9*%
%TO.N,A3*%
X6350000Y-25400000D03*
%TO.P,U3,10*%
%TO.N,A2*%
X6350000Y-27940000D03*
%TO.P,U3,11*%
%TO.N,A1*%
X6350000Y-30480000D03*
%TO.P,U3,12*%
%TO.N,A0*%
X6350000Y-33020000D03*
%TO.P,U3,13*%
%TO.N,D0*%
X6350000Y-35560000D03*
%TO.P,U3,14*%
%TO.N,D1*%
X6350000Y-38100000D03*
%TO.P,U3,15*%
%TO.N,D2*%
X6350000Y-40640000D03*
%TO.P,U3,16*%
%TO.N,GND*%
X6350000Y-43180000D03*
%TO.P,U3,17*%
%TO.N,D3*%
X21590000Y-43180000D03*
%TO.P,U3,18*%
%TO.N,D4*%
X21590000Y-40640000D03*
%TO.P,U3,19*%
%TO.N,D5*%
X21590000Y-38100000D03*
%TO.P,U3,20*%
%TO.N,D6*%
X21590000Y-35560000D03*
%TO.P,U3,21*%
%TO.N,D7*%
X21590000Y-33020000D03*
%TO.P,U3,22*%
%TO.N,RAMCS_N*%
X21590000Y-30480000D03*
%TO.P,U3,23*%
%TO.N,A10*%
X21590000Y-27940000D03*
%TO.P,U3,24*%
%TO.N,RD_N*%
X21590000Y-25400000D03*
%TO.P,U3,25*%
%TO.N,A11*%
X21590000Y-22860000D03*
%TO.P,U3,26*%
%TO.N,A9*%
X21590000Y-20320000D03*
%TO.P,U3,27*%
%TO.N,A8*%
X21590000Y-17780000D03*
%TO.P,U3,28*%
%TO.N,A13*%
X21590000Y-15240000D03*
%TO.P,U3,29*%
%TO.N,WR_N*%
X21590000Y-12700000D03*
%TO.P,U3,30*%
%TO.N,SA17_CE2*%
X21590000Y-10160000D03*
%TO.P,U3,31*%
%TO.N,SA15*%
X21590000Y-7620000D03*
%TO.P,U3,32*%
%TO.N,+5V*%
X21590000Y-5080000D03*
%TD*%
D12*
%TO.P,JP2,1*%
%TO.N,ROMCS_N*%
X71500000Y-17000000D03*
D13*
%TO.P,JP2,2*%
%TO.N,ROMCS_DRV*%
X71500000Y-19540000D03*
%TO.P,JP2,3*%
%TO.N,+5V*%
X71500000Y-22080000D03*
%TD*%
D14*
%TO.P,TP2,1*%
%TO.N,CLK7FFD*%
X64000000Y-47200000D03*
%TD*%
D12*
%TO.P,JP1,1*%
%TO.N,ROMCS_N*%
X71500000Y-8000000D03*
D13*
%TO.P,JP1,2*%
%TO.N,ROMCE_N*%
X71500000Y-10540000D03*
%TO.P,JP1,3*%
%TO.N,+5V*%
X71500000Y-13080000D03*
%TD*%
D15*
%TO.P,C5,1*%
%TO.N,+5V*%
X36000000Y-47200000D03*
%TO.P,C5,2*%
%TO.N,GND*%
X41000000Y-47200000D03*
%TD*%
%TO.P,C4,1*%
%TO.N,+5V*%
X12000000Y-47200000D03*
%TO.P,C4,2*%
%TO.N,GND*%
X17000000Y-47200000D03*
%TD*%
D10*
%TO.P,U2,1*%
%TO.N,RESET_N*%
X59690000Y-12700000D03*
D11*
%TO.P,U2,2*%
%TO.N,BANK0*%
X59690000Y-15240000D03*
%TO.P,U2,3*%
%TO.N,D0*%
X59690000Y-17780000D03*
%TO.P,U2,4*%
%TO.N,D1*%
X59690000Y-20320000D03*
%TO.P,U2,5*%
%TO.N,BANK1*%
X59690000Y-22860000D03*
%TO.P,U2,6*%
%TO.N,BANK2*%
X59690000Y-25400000D03*
%TO.P,U2,7*%
%TO.N,D2*%
X59690000Y-27940000D03*
%TO.P,U2,8*%
%TO.N,D3*%
X59690000Y-30480000D03*
%TO.P,U2,9*%
%TO.N,VRAM*%
X59690000Y-33020000D03*
%TO.P,U2,10*%
%TO.N,GND*%
X59690000Y-35560000D03*
%TO.P,U2,11*%
%TO.N,CLK7FFD*%
X67310000Y-35560000D03*
%TO.P,U2,12*%
%TO.N,ROMA14*%
X67310000Y-33020000D03*
%TO.P,U2,13*%
%TO.N,D4*%
X67310000Y-30480000D03*
%TO.P,U2,14*%
%TO.N,D5*%
X67310000Y-27940000D03*
%TO.P,U2,15*%
%TO.N,DIS128*%
X67310000Y-25400000D03*
%TO.P,U2,16*%
%TO.N,BANK3*%
X67310000Y-22860000D03*
%TO.P,U2,17*%
%TO.N,D6*%
X67310000Y-20320000D03*
%TO.P,U2,18*%
%TO.N,D7*%
X67310000Y-17780000D03*
%TO.P,U2,19*%
%TO.N,BANK4*%
X67310000Y-15240000D03*
%TO.P,U2,20*%
%TO.N,+5V*%
X67310000Y-12700000D03*
%TD*%
D15*
%TO.P,R3,1*%
%TO.N,+5V*%
X23000000Y-53300000D03*
%TO.P,R3,2*%
%TO.N,LED_A*%
X25540000Y-53300000D03*
%TD*%
D14*
%TO.P,TP1,1*%
%TO.N,VRAM*%
X60000000Y-47200000D03*
%TD*%
D10*
%TO.P,U4,1*%
%TO.N,+5V*%
X26670000Y-7620000D03*
D11*
%TO.P,U4,2*%
%TO.N,A12*%
X26670000Y-10160000D03*
%TO.P,U4,3*%
%TO.N,A7*%
X26670000Y-12700000D03*
%TO.P,U4,4*%
%TO.N,A6*%
X26670000Y-15240000D03*
%TO.P,U4,5*%
%TO.N,A5*%
X26670000Y-17780000D03*
%TO.P,U4,6*%
%TO.N,A4*%
X26670000Y-20320000D03*
%TO.P,U4,7*%
%TO.N,A3*%
X26670000Y-22860000D03*
%TO.P,U4,8*%
%TO.N,A2*%
X26670000Y-25400000D03*
%TO.P,U4,9*%
%TO.N,A1*%
X26670000Y-27940000D03*
%TO.P,U4,10*%
%TO.N,A0*%
X26670000Y-30480000D03*
%TO.P,U4,11*%
%TO.N,D0*%
X26670000Y-33020000D03*
%TO.P,U4,12*%
%TO.N,D1*%
X26670000Y-35560000D03*
%TO.P,U4,13*%
%TO.N,D2*%
X26670000Y-38100000D03*
%TO.P,U4,14*%
%TO.N,GND*%
X26670000Y-40640000D03*
%TO.P,U4,15*%
%TO.N,D3*%
X41910000Y-40640000D03*
%TO.P,U4,16*%
%TO.N,D4*%
X41910000Y-38100000D03*
%TO.P,U4,17*%
%TO.N,D5*%
X41910000Y-35560000D03*
%TO.P,U4,18*%
%TO.N,D6*%
X41910000Y-33020000D03*
%TO.P,U4,19*%
%TO.N,D7*%
X41910000Y-30480000D03*
%TO.P,U4,20*%
%TO.N,ROMCE_N*%
X41910000Y-27940000D03*
%TO.P,U4,21*%
%TO.N,A10*%
X41910000Y-25400000D03*
%TO.P,U4,22*%
%TO.N,RD_N*%
X41910000Y-22860000D03*
%TO.P,U4,23*%
%TO.N,A11*%
X41910000Y-20320000D03*
%TO.P,U4,24*%
%TO.N,A9*%
X41910000Y-17780000D03*
%TO.P,U4,25*%
%TO.N,A8*%
X41910000Y-15240000D03*
%TO.P,U4,26*%
%TO.N,A13*%
X41910000Y-12700000D03*
%TO.P,U4,27*%
%TO.N,ROMA14*%
X41910000Y-10160000D03*
%TO.P,U4,28*%
%TO.N,+5V*%
X41910000Y-7620000D03*
%TD*%
D15*
%TO.P,C2,1*%
%TO.N,+5V*%
X28000000Y-47200000D03*
%TO.P,C2,2*%
%TO.N,GND*%
X33000000Y-47200000D03*
%TD*%
D12*
%TO.P,JP4,1*%
%TO.N,RAMDIS_DRV*%
X71500000Y-33500000D03*
D13*
%TO.P,JP4,2*%
%TO.N,RAMDIS*%
X71500000Y-36040000D03*
%TD*%
D15*
%TO.P,R5,1*%
%TO.N,ROMCS_DRV*%
X17000000Y-53300000D03*
%TO.P,R5,2*%
%TO.N,ROMCS_BUS*%
X19540000Y-53300000D03*
%TD*%
D16*
%TO.P,J1,1*%
%TO.N,A14*%
X5080000Y-59805000D03*
D17*
%TO.P,J1,2*%
%TO.N,A12*%
X7620000Y-59805000D03*
%TO.P,J1,3*%
%TO.N,+5V*%
X10160000Y-59805000D03*
%TO.P,J1,4*%
%TO.N,BUS_9V*%
X12700000Y-59805000D03*
%TO.P,J1,5*%
%TO.N,GND*%
X15240000Y-59805000D03*
%TO.P,J1,6*%
X17780000Y-59805000D03*
%TO.P,J1,7*%
%TO.N,BUS_P07*%
X20320000Y-59805000D03*
%TO.P,J1,8*%
%TO.N,BUS_CLK*%
X22860000Y-59805000D03*
%TO.P,J1,9*%
%TO.N,A0*%
X25400000Y-59805000D03*
%TO.P,J1,10*%
%TO.N,A1*%
X27940000Y-59805000D03*
%TO.P,J1,11*%
%TO.N,A2*%
X30480000Y-59805000D03*
%TO.P,J1,12*%
%TO.N,A3*%
X33020000Y-59805000D03*
%TO.P,J1,13*%
%TO.N,BUS_IORQGE*%
X35560000Y-59805000D03*
%TO.P,J1,14*%
%TO.N,GND*%
X38100000Y-59805000D03*
%TO.P,J1,15*%
%TO.N,BUS_P15*%
X40640000Y-59805000D03*
%TO.P,J1,16*%
%TO.N,BUS_P16*%
X43180000Y-59805000D03*
%TO.P,J1,17*%
%TO.N,RAMDIS*%
X45720000Y-59805000D03*
%TO.P,J1,18*%
%TO.N,BUS_P18*%
X48260000Y-59805000D03*
%TO.P,J1,19*%
%TO.N,BUS_BUSREQ*%
X50800000Y-59805000D03*
%TO.P,J1,20*%
%TO.N,RESET_N*%
X53340000Y-59805000D03*
%TO.P,J1,21*%
%TO.N,A7*%
X55880000Y-59805000D03*
%TO.P,J1,22*%
%TO.N,A6*%
X58420000Y-59805000D03*
%TO.P,J1,23*%
%TO.N,A5*%
X60960000Y-59805000D03*
%TO.P,J1,24*%
%TO.N,A4*%
X63500000Y-59805000D03*
%TO.P,J1,25*%
%TO.N,ROMCS_BUS*%
X66040000Y-59805000D03*
%TO.P,J1,26*%
%TO.N,BUS_BUSACK*%
X68580000Y-59805000D03*
%TO.P,J1,27*%
%TO.N,A9*%
X71120000Y-59805000D03*
%TO.P,J1,28*%
%TO.N,A11*%
X73660000Y-59805000D03*
%TO.P,J1,29*%
%TO.N,BUS_P29*%
X73660000Y-64655000D03*
%TO.P,J1,30*%
%TO.N,A10*%
X71120000Y-64655000D03*
%TO.P,J1,31*%
%TO.N,A8*%
X68580000Y-64655000D03*
%TO.P,J1,32*%
%TO.N,BUS_RFSH*%
X66040000Y-64655000D03*
%TO.P,J1,33*%
%TO.N,BUS_M1*%
X63500000Y-64655000D03*
%TO.P,J1,34*%
%TO.N,BUS_P34*%
X60960000Y-64655000D03*
%TO.P,J1,35*%
%TO.N,BUS_P35*%
X58420000Y-64655000D03*
%TO.P,J1,36*%
%TO.N,BUS_WAIT*%
X55880000Y-64655000D03*
%TO.P,J1,37*%
%TO.N,BUS_P37*%
X53340000Y-64655000D03*
%TO.P,J1,38*%
%TO.N,WR_N*%
X50800000Y-64655000D03*
%TO.P,J1,39*%
%TO.N,RD_N*%
X48260000Y-64655000D03*
%TO.P,J1,40*%
%TO.N,IORQ_N*%
X45720000Y-64655000D03*
%TO.P,J1,41*%
%TO.N,MREQ_N*%
X43180000Y-64655000D03*
%TO.P,J1,42*%
%TO.N,BUS_HALT*%
X40640000Y-64655000D03*
%TO.P,J1,43*%
%TO.N,BUS_NMI*%
X38100000Y-64655000D03*
%TO.P,J1,44*%
%TO.N,BUS_INT*%
X35560000Y-64655000D03*
%TO.P,J1,45*%
%TO.N,D4*%
X33020000Y-64655000D03*
%TO.P,J1,46*%
%TO.N,D3*%
X30480000Y-64655000D03*
%TO.P,J1,47*%
%TO.N,D5*%
X27940000Y-64655000D03*
%TO.P,J1,48*%
%TO.N,D6*%
X25400000Y-64655000D03*
%TO.P,J1,49*%
%TO.N,D2*%
X22860000Y-64655000D03*
%TO.P,J1,50*%
%TO.N,D1*%
X20320000Y-64655000D03*
%TO.P,J1,51*%
%TO.N,D0*%
X17780000Y-64655000D03*
%TO.P,J1,52*%
%TO.N,GND*%
X15240000Y-64655000D03*
%TO.P,J1,53*%
%TO.N,BUS_SOUNDIN*%
X12700000Y-64655000D03*
%TO.P,J1,54*%
%TO.N,D7*%
X10160000Y-64655000D03*
%TO.P,J1,55*%
%TO.N,A13*%
X7620000Y-64655000D03*
%TO.P,J1,56*%
%TO.N,A15*%
X5080000Y-64655000D03*
%TD*%
D18*
%TO.P,C6,1*%
%TO.N,+5V*%
X44000000Y-47200000D03*
D15*
%TO.P,C6,2*%
%TO.N,GND*%
X46000000Y-47200000D03*
%TD*%
D19*
%TO.P,D1,1*%
%TO.N,GND*%
X52000000Y-47200000D03*
D20*
%TO.P,D1,2*%
%TO.N,LED_A*%
X54540000Y-47200000D03*
%TD*%
D10*
%TO.P,U1,1*%
%TO.N,MREQ_N*%
X46990000Y-10160000D03*
D11*
%TO.P,U1,2*%
%TO.N,ZX512*%
X46990000Y-12700000D03*
%TO.P,U1,3*%
%TO.N,A1*%
X46990000Y-15240000D03*
%TO.P,U1,4*%
%TO.N,WR_N*%
X46990000Y-17780000D03*
%TO.P,U1,5*%
%TO.N,DIS128*%
X46990000Y-20320000D03*
%TO.P,U1,6*%
%TO.N,BANK2*%
X46990000Y-22860000D03*
%TO.P,U1,7*%
%TO.N,A5*%
X46990000Y-25400000D03*
%TO.P,U1,8*%
%TO.N,BANK0*%
X46990000Y-27940000D03*
%TO.P,U1,9*%
%TO.N,BANK4*%
X46990000Y-30480000D03*
%TO.P,U1,10*%
%TO.N,BANK3*%
X46990000Y-33020000D03*
%TO.P,U1,11*%
%TO.N,BANK1*%
X46990000Y-35560000D03*
%TO.P,U1,12*%
%TO.N,GND*%
X46990000Y-38100000D03*
%TO.P,U1,13*%
%TO.N,A15*%
X54610000Y-38100000D03*
%TO.P,U1,14*%
%TO.N,A14*%
X54610000Y-35560000D03*
%TO.P,U1,15*%
%TO.N,ROMCS_N*%
X54610000Y-33020000D03*
%TO.P,U1,16*%
%TO.N,CLK7FFD*%
X54610000Y-30480000D03*
%TO.P,U1,17*%
%TO.N,SA18*%
X54610000Y-27940000D03*
%TO.P,U1,18*%
%TO.N,SA17_CE2*%
X54610000Y-25400000D03*
%TO.P,U1,19*%
%TO.N,RAMCS_N*%
X54610000Y-22860000D03*
%TO.P,U1,20*%
%TO.N,SA16*%
X54610000Y-20320000D03*
%TO.P,U1,21*%
%TO.N,SA15*%
X54610000Y-17780000D03*
%TO.P,U1,22*%
%TO.N,SA14*%
X54610000Y-15240000D03*
%TO.P,U1,23*%
%TO.N,IORQ_N*%
X54610000Y-12700000D03*
%TO.P,U1,24*%
%TO.N,+5V*%
X54610000Y-10160000D03*
%TD*%
D21*
%TO.P,SJ1,1*%
%TO.N,BUS_P07*%
X30350000Y-53300000D03*
D22*
%TO.P,SJ1,2*%
%TO.N,GND*%
X31650000Y-53300000D03*
%TD*%
D15*
%TO.P,C1,1*%
%TO.N,+5V*%
X20000000Y-47200000D03*
%TO.P,C1,2*%
%TO.N,GND*%
X25000000Y-47200000D03*
%TD*%
%TO.P,C3,1*%
%TO.N,+5V*%
X4000000Y-47200000D03*
%TO.P,C3,2*%
%TO.N,GND*%
X9000000Y-47200000D03*
%TD*%
%TO.P,R4,1*%
%TO.N,+5V*%
X11000000Y-53300000D03*
%TO.P,R4,2*%
%TO.N,RAMDIS_DRV*%
X13540000Y-53300000D03*
%TD*%
D21*
%TO.P,SJ2,1*%
%TO.N,BUS_P15*%
X36350000Y-53300000D03*
D22*
%TO.P,SJ2,2*%
%TO.N,GND*%
X37650000Y-53300000D03*
%TD*%
D15*
%TO.P,R2,1*%
%TO.N,+5V*%
X5000000Y-53300000D03*
%TO.P,R2,2*%
%TO.N,ZX512*%
X7540000Y-53300000D03*
%TD*%
D12*
%TO.P,JP3,1*%
%TO.N,ZX512*%
X71500000Y-26000000D03*
D13*
%TO.P,JP3,2*%
%TO.N,GND*%
X71500000Y-28540000D03*
%TD*%
D23*
%TO.N,SA18*%
X44764700Y-35579400D03*
%TO.N,SA16*%
X60327900Y-7544200D03*
%TO.N,SA14*%
X59694900Y-8120300D03*
%TO.N,A7*%
X36590000Y-54720000D03*
%TO.N,A6*%
X33157500Y-53919000D03*
%TO.N,A5*%
X32021300Y-17889400D03*
X39587400Y-41094400D03*
X52934800Y-42374200D03*
%TO.N,A4*%
X32889600Y-56795300D03*
%TO.N,A1*%
X49279600Y-16057900D03*
X49279600Y-22206300D03*
%TO.N,D0*%
X56617400Y-22369600D03*
%TO.N,D2*%
X57094700Y-30350700D03*
X52626400Y-35726100D03*
%TO.N,D4*%
X42861400Y-43631500D03*
%TO.N,D5*%
X29208400Y-36939500D03*
%TO.N,D6*%
X65391300Y-31542100D03*
X32748200Y-34390000D03*
X16602900Y-62615000D03*
X33139600Y-43547000D03*
%TO.N,D7*%
X64768000Y-32147000D03*
X44758400Y-41785300D03*
%TO.N,A10*%
X29754600Y-57166200D03*
X65446300Y-61400300D03*
X63857700Y-61523500D03*
%TO.N,A9*%
X38891900Y-19186300D03*
%TO.N,A8*%
X31739000Y-62840100D03*
%TO.N,SA17_CE2*%
X31861900Y-14786400D03*
D24*
%TO.N,+5V*%
X36868500Y-45444700D03*
D23*
%TO.N,ROMCS_N*%
X68301900Y-19050000D03*
%TO.N,ROMCE_N*%
X55633100Y-8936500D03*
%TO.N,BANK2*%
X56416500Y-19857000D03*
%TO.N,ROMA14*%
X45263300Y-10969600D03*
%TO.N,BANK3*%
X64662000Y-21385000D03*
X49142300Y-32289700D03*
%TO.N,RAMDIS_DRV*%
X14394700Y-44904300D03*
%TO.N,A14*%
X50524100Y-49846300D03*
X47064400Y-49846300D03*
X36645300Y-62014900D03*
%TO.N,IORQ_N*%
X69889800Y-21382100D03*
X62722100Y-63473900D03*
%TO.N,A15*%
X48176300Y-41140100D03*
X39007500Y-62387200D03*
%TO.N,ZX512*%
X72854600Y-34918300D03*
X9919600Y-45763600D03*
%TD*%
%TO.N,SA18*%
D25*
X48168100Y-34150200D02*
X46193900Y-34150200D01*
X46193900Y-34150200D02*
X44764700Y-35579400D01*
X53138300Y-27940000D02*
X53138300Y-29180000D01*
X54610000Y-27940000D02*
X53138300Y-27940000D01*
X53138300Y-29180000D02*
X48168100Y-34150200D01*
%TO.N,SA16*%
X6350000Y-7620000D02*
X7821700Y-7620000D01*
X11866600Y-3575100D02*
X7821700Y-7620000D01*
X56358800Y-3575100D02*
X11866600Y-3575100D01*
X60327900Y-7544200D02*
X56358800Y-3575100D01*
%TO.N,SA14*%
X7821700Y-10160000D02*
X13979800Y-4001900D01*
X13979800Y-4001900D02*
X55576500Y-4001900D01*
X55576500Y-4001900D02*
X59694900Y-8120300D01*
X6350000Y-10160000D02*
X7821700Y-10160000D01*
%TO.N,A12*%
X26670000Y-10160000D02*
X25198300Y-10160000D01*
X6350000Y-12700000D02*
X7821700Y-12700000D01*
X23568900Y-10160000D02*
X25198300Y-10160000D01*
X19181000Y-11625200D02*
X22103700Y-11625200D01*
X18106200Y-12700000D02*
X19181000Y-11625200D01*
X7821700Y-12700000D02*
X18106200Y-12700000D01*
X22103700Y-11625200D02*
X23568900Y-10160000D01*
%TO.N,A7*%
X6350000Y-15240000D02*
X7821700Y-15240000D01*
X9191700Y-13870000D02*
X7821700Y-15240000D01*
X44450000Y-59411300D02*
X39758700Y-54720000D01*
X45257800Y-60970500D02*
X44450000Y-60162700D01*
X54714500Y-60970500D02*
X45257800Y-60970500D01*
X44450000Y-60162700D02*
X44450000Y-59411300D01*
X25198300Y-12700000D02*
X24028300Y-13870000D01*
X55880000Y-59805000D02*
X54714500Y-60970500D01*
X39758700Y-54720000D02*
X36590000Y-54720000D01*
X26670000Y-12700000D02*
X25198300Y-12700000D01*
X24028300Y-13870000D02*
X9191700Y-13870000D01*
%TO.N,A6*%
X33157500Y-53919000D02*
X33889600Y-53919000D01*
X9191700Y-16410000D02*
X23302900Y-16410000D01*
X40574500Y-61367200D02*
X56857800Y-61367200D01*
X23302900Y-16410000D02*
X24472900Y-15240000D01*
X7821700Y-17780000D02*
X9191700Y-16410000D01*
X39246700Y-59276100D02*
X39246700Y-60039400D01*
X24472900Y-15240000D02*
X26670000Y-15240000D01*
X39246700Y-60039400D02*
X40574500Y-61367200D01*
X6350000Y-17780000D02*
X7821700Y-17780000D01*
X33889600Y-53919000D02*
X39246700Y-59276100D01*
X56857800Y-61367200D02*
X58420000Y-59805000D01*
%TO.N,A5*%
X23300900Y-18950000D02*
X9191700Y-18950000D01*
X24470900Y-17780000D02*
X23300900Y-18950000D01*
X6350000Y-20320000D02*
X7821700Y-20320000D01*
X40880600Y-16702200D02*
X39802800Y-17780000D01*
X39802800Y-17780000D02*
X32021300Y-17780000D01*
X44253000Y-18158500D02*
X42796700Y-16702200D01*
X44253000Y-24134700D02*
X44253000Y-18158500D01*
X46990000Y-25400000D02*
X45518300Y-25400000D01*
X39587400Y-41094400D02*
X40923400Y-42430400D01*
X32021300Y-17780000D02*
X26670000Y-17780000D01*
X40923400Y-42430400D02*
X52878600Y-42430400D01*
X9191700Y-18950000D02*
X7821700Y-20320000D01*
X42796700Y-16702200D02*
X40880600Y-16702200D01*
X26670000Y-17780000D02*
X24470900Y-17780000D01*
X45518300Y-25400000D02*
X44253000Y-24134700D01*
%TO.N,A4*%
X23300900Y-21490000D02*
X9191700Y-21490000D01*
X61937800Y-61367200D02*
X60508300Y-61367200D01*
X60508300Y-61367200D02*
X60111600Y-61763900D01*
X24470900Y-20320000D02*
X23300900Y-21490000D01*
X60111600Y-61763900D02*
X40410100Y-61763900D01*
X9191700Y-21490000D02*
X7821700Y-22860000D01*
X34201200Y-56795300D02*
X32889600Y-56795300D01*
X26670000Y-20320000D02*
X24470900Y-20320000D01*
X6350000Y-22860000D02*
X7821700Y-22860000D01*
X40410100Y-61763900D02*
X39618200Y-60972000D01*
X36830100Y-60198200D02*
X36830100Y-59424200D01*
X63500000Y-59805000D02*
X61937800Y-61367200D01*
X36830100Y-59424200D02*
X34201200Y-56795300D01*
X37603900Y-60972000D02*
X36830100Y-60198200D01*
X39618200Y-60972000D02*
X37603900Y-60972000D01*
%TO.N,A3*%
X6350000Y-25400000D02*
X7821700Y-25400000D01*
X9191700Y-24030000D02*
X7821700Y-25400000D01*
X23300900Y-24030000D02*
X9191700Y-24030000D01*
X24470900Y-22860000D02*
X23300900Y-24030000D01*
X26670000Y-22860000D02*
X24470900Y-22860000D01*
%TO.N,A2*%
X6350000Y-27940000D02*
X7821700Y-27940000D01*
X23300900Y-26570000D02*
X9191700Y-26570000D01*
X24470900Y-25400000D02*
X23300900Y-26570000D01*
X26670000Y-25400000D02*
X24470900Y-25400000D01*
X9191700Y-26570000D02*
X7821700Y-27940000D01*
%TO.N,A1*%
X29214000Y-26867700D02*
X47507000Y-26867700D01*
X26670000Y-27940000D02*
X25198300Y-27940000D01*
X47507000Y-26867700D02*
X49279600Y-25095100D01*
X6350000Y-30480000D02*
X7821700Y-30480000D01*
X26670000Y-27940000D02*
X28141700Y-27940000D01*
X48461700Y-15240000D02*
X49279600Y-16057900D01*
X25198300Y-27940000D02*
X24029800Y-29108500D01*
X24029800Y-29108500D02*
X9193200Y-29108500D01*
X9193200Y-29108500D02*
X7821700Y-30480000D01*
X49279600Y-25095100D02*
X49279600Y-22206300D01*
X46990000Y-15240000D02*
X48461700Y-15240000D01*
X28141700Y-27940000D02*
X29214000Y-26867700D01*
%TO.N,A0*%
X25198300Y-30480000D02*
X24028300Y-31650000D01*
X9191700Y-31650000D02*
X7821700Y-33020000D01*
X26670000Y-30480000D02*
X25198300Y-30480000D01*
X6350000Y-33020000D02*
X7821700Y-33020000D01*
X24028300Y-31650000D02*
X9191700Y-31650000D01*
%TO.N,D0*%
X39453200Y-33020000D02*
X40816600Y-31656600D01*
X26670000Y-33020000D02*
X25198300Y-33020000D01*
X55198700Y-24258700D02*
X56617400Y-22840000D01*
X25198300Y-33020000D02*
X24028300Y-34190000D01*
X52525700Y-25565800D02*
X53832800Y-24258700D01*
X52525700Y-26932400D02*
X52525700Y-25565800D01*
X53832800Y-24258700D02*
X55198700Y-24258700D01*
X56617400Y-22840000D02*
X56617400Y-22369600D01*
X6350000Y-35560000D02*
X7821700Y-35560000D01*
X26670000Y-33020000D02*
X39453200Y-33020000D01*
X24028300Y-34190000D02*
X9191700Y-34190000D01*
X9191700Y-34190000D02*
X7821700Y-35560000D01*
X47801500Y-31656600D02*
X52525700Y-26932400D01*
X40816600Y-31656600D02*
X47801500Y-31656600D01*
%TO.N,D1*%
X7821700Y-38100000D02*
X9191700Y-36730000D01*
X56081700Y-28945100D02*
X56081700Y-30924000D01*
X23302900Y-36730000D02*
X24472900Y-35560000D01*
X6350000Y-38100000D02*
X7821700Y-38100000D01*
X55454000Y-31551700D02*
X53066700Y-31551700D01*
X53066700Y-31551700D02*
X47942400Y-36676000D01*
X58438600Y-26588200D02*
X56081700Y-28945100D01*
X47942400Y-36676000D02*
X44963900Y-36676000D01*
X39765000Y-35560000D02*
X26670000Y-35560000D01*
X42738500Y-34450600D02*
X40874400Y-34450600D01*
X56081700Y-30924000D02*
X55454000Y-31551700D01*
X40874400Y-34450600D02*
X39765000Y-35560000D01*
X61606700Y-25420200D02*
X60438800Y-26588100D01*
X60438800Y-26588100D02*
X58438600Y-26588100D01*
X44963900Y-36676000D02*
X42738500Y-34450600D01*
X59690000Y-20320000D02*
X61606700Y-22236700D01*
X9191700Y-36730000D02*
X23302900Y-36730000D01*
X24472900Y-35560000D02*
X26670000Y-35560000D01*
X61606700Y-22236700D02*
X61606700Y-25420200D01*
%TO.N,D2*%
X23200900Y-39370000D02*
X9091700Y-39370000D01*
X47964400Y-39619800D02*
X51858100Y-35726100D01*
X58218300Y-29227100D02*
X57094700Y-30350700D01*
X6350000Y-40640000D02*
X7821700Y-40640000D01*
X26670000Y-38100000D02*
X39649600Y-38100000D01*
X45345500Y-39619800D02*
X47964400Y-39619800D01*
X39649600Y-38100000D02*
X40721300Y-37028300D01*
X51858100Y-35726100D02*
X52626400Y-35726100D01*
X24470900Y-38100000D02*
X23200900Y-39370000D01*
X9091700Y-39370000D02*
X7821700Y-40640000D01*
X40721300Y-37028300D02*
X42754000Y-37028300D01*
X26670000Y-38100000D02*
X24470900Y-38100000D01*
X42754000Y-37028300D02*
X45345500Y-39619800D01*
X59690000Y-27940000D02*
X58218300Y-27940000D01*
X58218300Y-27940000D02*
X58218300Y-29227100D01*
%TO.N,GND*%
D26*
X37650000Y-53300000D02*
X37650000Y-52096500D01*
X31650000Y-52096500D02*
X33000000Y-52096500D01*
X21713300Y-48496200D02*
X21713300Y-53826100D01*
X27445400Y-54564900D02*
X29913800Y-52096500D01*
X9268300Y-41908400D02*
X7996700Y-43180000D01*
X37650000Y-52096500D02*
X41234100Y-52096500D01*
X23754900Y-41908400D02*
X9268300Y-41908400D01*
X33000000Y-52096500D02*
X33000000Y-47200000D01*
X21713300Y-53826100D02*
X22452100Y-54564900D01*
X25023300Y-40640000D02*
X23754900Y-41908400D01*
X17780000Y-59805000D02*
X15240000Y-59805000D01*
X18296200Y-48496200D02*
X17000000Y-47200000D01*
X66040000Y-29210000D02*
X59690000Y-35560000D01*
X22452100Y-54564900D02*
X27445400Y-54564900D01*
X31650000Y-52096500D02*
X31650000Y-53300000D01*
X23703800Y-48496200D02*
X21713300Y-48496200D01*
X21713300Y-48496200D02*
X18296200Y-48496200D01*
X70830000Y-29210000D02*
X66040000Y-29210000D01*
X71500000Y-28540000D02*
X70830000Y-29210000D01*
X33000000Y-52096500D02*
X37650000Y-52096500D01*
X25000000Y-47200000D02*
X23703800Y-48496200D01*
X52000000Y-47200000D02*
X46000000Y-47200000D01*
X29913800Y-52096500D02*
X31650000Y-52096500D01*
X26670000Y-40640000D02*
X25023300Y-40640000D01*
X41234100Y-52096500D02*
X46000000Y-47330600D01*
X6350000Y-43180000D02*
X7996700Y-43180000D01*
%TO.N,D3*%
D25*
X21590000Y-43180000D02*
X23061700Y-43180000D01*
X36142900Y-40472700D02*
X33690300Y-42925300D01*
X58218300Y-30480000D02*
X58218300Y-33867400D01*
X55454000Y-36631700D02*
X51515700Y-36631700D01*
X51515700Y-36631700D02*
X47507400Y-40640000D01*
X58218300Y-33867400D02*
X55454000Y-36631700D01*
X59690000Y-30480000D02*
X58218300Y-30480000D01*
X23316400Y-42925300D02*
X23061700Y-43180000D01*
X47507400Y-40640000D02*
X43381700Y-40640000D01*
X41910000Y-40640000D02*
X43381700Y-40640000D01*
X41910000Y-40640000D02*
X40438300Y-40640000D01*
X33690300Y-42925300D02*
X23316400Y-42925300D01*
X40271000Y-40472700D02*
X36142900Y-40472700D01*
X40438300Y-40640000D02*
X40271000Y-40472700D01*
%TO.N,D4*%
X66013000Y-30692100D02*
X65838300Y-30517400D01*
X21590000Y-40640000D02*
X23061700Y-40640000D01*
X42861400Y-43631500D02*
X54728800Y-43631500D01*
X67310000Y-30480000D02*
X65838300Y-30480000D01*
X40438300Y-38100000D02*
X39168300Y-39370000D01*
X41910000Y-38100000D02*
X40438300Y-38100000D01*
X66013000Y-32347300D02*
X66013000Y-30692100D01*
X24331700Y-39370000D02*
X23061700Y-40640000D01*
X54728800Y-43631500D02*
X66013000Y-32347300D01*
X39168300Y-39370000D02*
X24331700Y-39370000D01*
%TO.N,D5*%
X40438300Y-35560000D02*
X39058800Y-36939500D01*
X24222200Y-36939500D02*
X23061700Y-38100000D01*
X41910000Y-35560000D02*
X40438300Y-35560000D01*
X39058800Y-36939500D02*
X29208400Y-36939500D01*
X57716400Y-31847100D02*
X55273500Y-34290000D01*
X52733100Y-34290000D02*
X47817100Y-39206000D01*
X55273500Y-34290000D02*
X52733100Y-34290000D01*
X47817100Y-39206000D02*
X45556000Y-39206000D01*
X58983200Y-29152100D02*
X57716400Y-30418900D01*
X21590000Y-38100000D02*
X23061700Y-38100000D01*
X29208400Y-36939500D02*
X24222200Y-36939500D01*
X65838300Y-27940000D02*
X64626200Y-29152100D01*
X67310000Y-27940000D02*
X65838300Y-27940000D01*
X45556000Y-39206000D02*
X41910000Y-35560000D01*
X64626200Y-29152100D02*
X58983200Y-29152100D01*
X57716400Y-30418900D02*
X57716400Y-31847100D01*
%TO.N,D6*%
X33139600Y-43547000D02*
X33961600Y-43547000D01*
X39068300Y-34390000D02*
X40438300Y-33020000D01*
X32748200Y-34390000D02*
X39068300Y-34390000D01*
X34512700Y-42995900D02*
X54803300Y-42995900D01*
X25400000Y-64655000D02*
X23360000Y-62615000D01*
X24959100Y-34390000D02*
X32748200Y-34390000D01*
X23360000Y-62615000D02*
X16602900Y-62615000D01*
X23789100Y-35560000D02*
X24959100Y-34390000D01*
X54803300Y-42995900D02*
X65391300Y-32407900D01*
X33961600Y-43547000D02*
X34512700Y-42995900D01*
X21590000Y-35560000D02*
X23789100Y-35560000D01*
X65391300Y-32407900D02*
X65391300Y-31542100D01*
X41910000Y-33020000D02*
X40438300Y-33020000D01*
%TO.N,D7*%
X40438300Y-30480000D02*
X39169800Y-31748500D01*
X55417000Y-41752500D02*
X52677300Y-41752500D01*
X39169800Y-31748500D02*
X25060600Y-31748500D01*
X52644500Y-41785300D02*
X44758400Y-41785300D01*
X64768000Y-32147000D02*
X64768000Y-32401500D01*
X23789100Y-33020000D02*
X21590000Y-33020000D01*
X41910000Y-30480000D02*
X40438300Y-30480000D01*
X25060600Y-31748500D02*
X23789100Y-33020000D01*
X64768000Y-32401500D02*
X55417000Y-41752500D01*
%TO.N,RAMCS_N*%
X25059100Y-29210000D02*
X47708100Y-29210000D01*
X21590000Y-30480000D02*
X23789100Y-30480000D01*
X53138300Y-23779800D02*
X53138300Y-22860000D01*
X47708100Y-29210000D02*
X53138300Y-23779800D01*
X54610000Y-22860000D02*
X53138300Y-22860000D01*
X23789100Y-30480000D02*
X25059100Y-29210000D01*
%TO.N,A10*%
X32030200Y-57166200D02*
X29754600Y-57166200D01*
X40245700Y-62160600D02*
X39453800Y-61368700D01*
X40438300Y-25400000D02*
X28648800Y-25400000D01*
X60277800Y-62160600D02*
X40245700Y-62160600D01*
X39453800Y-61368700D02*
X37439500Y-61368700D01*
X41910000Y-25400000D02*
X40438300Y-25400000D01*
X37044300Y-60973500D02*
X35067700Y-60973500D01*
X24529200Y-26472500D02*
X23061700Y-27940000D01*
X60674500Y-61763900D02*
X60277800Y-62160600D01*
X35067700Y-60973500D02*
X34166700Y-60072500D01*
X37439500Y-61368700D02*
X37044300Y-60973500D01*
X63857700Y-61523500D02*
X63617300Y-61763900D01*
X63617300Y-61763900D02*
X60674500Y-61763900D01*
X34166700Y-60072500D02*
X34166700Y-59302700D01*
X28648800Y-25400000D02*
X27576300Y-26472500D01*
X67865300Y-61400300D02*
X65446300Y-61400300D01*
X27576300Y-26472500D02*
X24529200Y-26472500D01*
X71120000Y-64655000D02*
X67865300Y-61400300D01*
X34166700Y-59302700D02*
X32030200Y-57166200D01*
X21590000Y-27940000D02*
X23061700Y-27940000D01*
%TO.N,RD_N*%
X39168300Y-24130000D02*
X24331700Y-24130000D01*
X24331700Y-24130000D02*
X23061700Y-25400000D01*
X40438300Y-22860000D02*
X39168300Y-24130000D01*
X41910000Y-22860000D02*
X40438300Y-22860000D01*
X21590000Y-25400000D02*
X23061700Y-25400000D01*
%TO.N,A11*%
X21590000Y-22860000D02*
X23061700Y-22860000D01*
X39168300Y-21590000D02*
X24331700Y-21590000D01*
X41910000Y-20320000D02*
X40438300Y-20320000D01*
X40438300Y-20320000D02*
X39168300Y-21590000D01*
X24331700Y-21590000D02*
X23061700Y-22860000D01*
%TO.N,A9*%
X38891900Y-19186300D02*
X24195400Y-19186300D01*
X24195400Y-19186300D02*
X23061700Y-20320000D01*
X41910000Y-17780000D02*
X40438300Y-17780000D01*
X39032000Y-19186300D02*
X40438300Y-17780000D01*
X21590000Y-20320000D02*
X23061700Y-20320000D01*
%TO.N,A8*%
X40438300Y-15240000D02*
X39017200Y-16661100D01*
X60749100Y-63008900D02*
X60924400Y-62833600D01*
X24180600Y-16661100D02*
X23061700Y-17780000D01*
X21590000Y-17780000D02*
X23061700Y-17780000D01*
X31739000Y-62840100D02*
X31993600Y-63094700D01*
X39017200Y-16661100D02*
X24180600Y-16661100D01*
X66758600Y-62833600D02*
X68580000Y-64655000D01*
X60924400Y-62833600D02*
X66758600Y-62833600D01*
X41910000Y-15240000D02*
X40438300Y-15240000D01*
X31993600Y-63094700D02*
X37357000Y-63094700D01*
X37442800Y-63008900D02*
X60749100Y-63008900D01*
%TO.N,A13*%
X38694500Y-13970000D02*
X25059100Y-13970000D01*
X41910000Y-12700000D02*
X40438300Y-12700000D01*
X23789100Y-15240000D02*
X21590000Y-15240000D01*
X39964500Y-12700000D02*
X38694500Y-13970000D01*
X25059100Y-13970000D02*
X23789100Y-15240000D01*
X40438300Y-12700000D02*
X39964500Y-12700000D01*
%TO.N,WR_N*%
X45518300Y-14390400D02*
X42749000Y-11621100D01*
X45518300Y-17780000D02*
X45518300Y-14390400D01*
X24140600Y-11621100D02*
X23061700Y-12700000D01*
X42749000Y-11621100D02*
X24140600Y-11621100D01*
X46990000Y-17780000D02*
X45518300Y-17780000D01*
X21590000Y-12700000D02*
X23061700Y-12700000D01*
%TO.N,SA17_CE2*%
X43487500Y-16704100D02*
X43487500Y-14841500D01*
X45320700Y-18537300D02*
X43487500Y-16704100D01*
X45320700Y-20633500D02*
X45320700Y-18537300D01*
X38636900Y-14786400D02*
X31861900Y-14786400D01*
X54723900Y-25400000D02*
X57279900Y-22844000D01*
X39255800Y-14167500D02*
X38636900Y-14786400D01*
X57279900Y-22134400D02*
X56644500Y-21499000D01*
X42813500Y-14167500D02*
X39255800Y-14167500D01*
X57279900Y-22844000D02*
X57279900Y-22134400D01*
X43487500Y-14841500D02*
X42813500Y-14167500D01*
X46186200Y-21499000D02*
X45320700Y-20633500D01*
X56644500Y-21499000D02*
X46186200Y-21499000D01*
%TO.N,SA15*%
X24318800Y-8877100D02*
X42570700Y-8877100D01*
X21590000Y-7620000D02*
X23061700Y-7620000D01*
X23061700Y-7620000D02*
X24318800Y-8877100D01*
X46342200Y-13970000D02*
X48600900Y-13970000D01*
X52410900Y-17780000D02*
X54610000Y-17780000D01*
X48600900Y-13970000D02*
X52410900Y-17780000D01*
X42570700Y-8877100D02*
X44582200Y-10888600D01*
X44582200Y-10888600D02*
X44582200Y-12210000D01*
X44582200Y-12210000D02*
X46342200Y-13970000D01*
%TO.N,+5V*%
D26*
X63123300Y-10160000D02*
X65663300Y-12700000D01*
X4000000Y-47200000D02*
X5262900Y-48462900D01*
X50423300Y-7620000D02*
X41910000Y-7620000D01*
X6254000Y-54554000D02*
X5000000Y-53300000D01*
X67310000Y-12700000D02*
X65663300Y-12700000D01*
X52963300Y-10160000D02*
X50423300Y-7620000D01*
X41910000Y-7620000D02*
X26670000Y-7620000D01*
X12000000Y-47200000D02*
X13786900Y-47200000D01*
X28000000Y-47200000D02*
X29666200Y-45533800D01*
X11000000Y-53300000D02*
X9746000Y-54554000D01*
X42723500Y-48476500D02*
X37276500Y-48476500D01*
X56256700Y-10160000D02*
X63123300Y-10160000D01*
X13786900Y-47200000D02*
X15062100Y-45924800D01*
X26670000Y-7620000D02*
X25776700Y-7620000D01*
X20000000Y-47200000D02*
X20000000Y-45924800D01*
X54610000Y-10160000D02*
X52963300Y-10160000D01*
X20000000Y-45924800D02*
X26724800Y-45924800D01*
X23000000Y-52200000D02*
X28000000Y-47200000D01*
X21590000Y-5080000D02*
X23236700Y-5080000D01*
X29666200Y-45533800D02*
X36779400Y-45533800D01*
X26724800Y-45924800D02*
X28000000Y-47200000D01*
X15062100Y-45924800D02*
X20000000Y-45924800D01*
X25776700Y-7620000D02*
X23236700Y-5080000D01*
X5262900Y-48462900D02*
X10737100Y-48462900D01*
X23000000Y-53300000D02*
X23000000Y-52200000D01*
X10737100Y-48462900D02*
X12000000Y-47200000D01*
X44000000Y-47200000D02*
X42723500Y-48476500D01*
X37276500Y-48476500D02*
X36000000Y-47200000D01*
X9746000Y-54554000D02*
X6254000Y-54554000D01*
X54610000Y-10160000D02*
X56256700Y-10160000D01*
%TO.N,ROMCS_N*%
D25*
X71500000Y-17000000D02*
X70378300Y-17000000D01*
X70378300Y-17000000D02*
X68328300Y-19050000D01*
%TO.N,ROMCS_DRV*%
X33901100Y-44168700D02*
X34155700Y-43914100D01*
X73029700Y-21069700D02*
X71500000Y-19540000D01*
X17000000Y-53300000D02*
X15531600Y-51831600D01*
X28265000Y-44168700D02*
X33901100Y-44168700D01*
X15531600Y-51831600D02*
X7022600Y-51831600D01*
X5372200Y-44253300D02*
X28180400Y-44253300D01*
X38534800Y-43914100D02*
X38874000Y-44253300D01*
X38874000Y-44253300D02*
X54668100Y-44253300D01*
X54668100Y-44253300D02*
X64433100Y-34488300D01*
X2918200Y-47727200D02*
X2918200Y-46707300D01*
X64433100Y-34488300D02*
X67830700Y-34488300D01*
X67830700Y-34488300D02*
X73029700Y-29289300D01*
X2918200Y-46707300D02*
X5372200Y-44253300D01*
X34155700Y-43914100D02*
X38534800Y-43914100D01*
X7022600Y-51831600D02*
X2918200Y-47727200D01*
X73029700Y-29289300D02*
X73029700Y-21069700D01*
%TO.N,ROMCE_N*%
X71500000Y-10540000D02*
X69896500Y-8936500D01*
X69896500Y-8936500D02*
X55633100Y-8936500D01*
%TO.N,BANK1*%
X59690000Y-22860000D02*
X58218300Y-22860000D01*
X56081700Y-24996600D02*
X58218300Y-22860000D01*
X55454000Y-29011700D02*
X56081700Y-28384000D01*
X46990000Y-35560000D02*
X48461700Y-35560000D01*
X48461700Y-34627100D02*
X54077100Y-29011700D01*
X54077100Y-29011700D02*
X55454000Y-29011700D01*
X48461700Y-35560000D02*
X48461700Y-34627100D01*
X56081700Y-28384000D02*
X56081700Y-24996600D01*
%TO.N,BANK2*%
X58009700Y-21450200D02*
X60227500Y-21450200D01*
X61161700Y-23928300D02*
X59690000Y-25400000D01*
X60227500Y-21450200D02*
X61161700Y-22384400D01*
X61161700Y-22384400D02*
X61161700Y-23928300D01*
X56416500Y-19857000D02*
X58009700Y-21450200D01*
%TO.N,ROMA14*%
X45263300Y-10969600D02*
X45665700Y-11372000D01*
X63325000Y-16919600D02*
X63325000Y-18264300D01*
X50616500Y-11372000D02*
X53266400Y-14021900D01*
X72628200Y-29022100D02*
X68630300Y-33020000D01*
X45665700Y-11372000D02*
X50616500Y-11372000D01*
X72628200Y-25028500D02*
X72628200Y-29022100D01*
X60427300Y-14021900D02*
X63325000Y-16919600D01*
X63325000Y-18264300D02*
X66650700Y-21590000D01*
X66650700Y-21590000D02*
X69189700Y-21590000D01*
X69189700Y-21590000D02*
X72628200Y-25028500D01*
X68630300Y-33020000D02*
X67310000Y-33020000D01*
X53266400Y-14021900D02*
X60427300Y-14021900D01*
%TO.N,DIS128*%
X67310000Y-25400000D02*
X65838300Y-25400000D01*
X60568700Y-19210600D02*
X65838300Y-24480200D01*
X48461700Y-20320000D02*
X49571100Y-19210600D01*
X65838300Y-24480200D02*
X65838300Y-25400000D01*
X46990000Y-20320000D02*
X48461700Y-20320000D01*
X49571100Y-19210600D02*
X60568700Y-19210600D01*
%TO.N,BANK3*%
X65838300Y-22860000D02*
X65838300Y-22561300D01*
X65838300Y-22561300D02*
X64662000Y-21385000D01*
X48461700Y-32970300D02*
X49142300Y-32289700D01*
X46990000Y-33020000D02*
X48461700Y-33020000D01*
X67310000Y-22860000D02*
X65838300Y-22860000D01*
%TO.N,LED_A*%
X38734600Y-46014700D02*
X53354700Y-46014700D01*
X25540000Y-53049400D02*
X32475900Y-46113500D01*
X32475900Y-46113500D02*
X36516700Y-46113500D01*
X53354700Y-46014700D02*
X54540000Y-47200000D01*
X25540000Y-53300000D02*
X25540000Y-53049400D01*
X38537000Y-46212300D02*
X38734600Y-46014700D01*
X36615500Y-46212300D02*
X38537000Y-46212300D01*
%TO.N,RAMDIS_DRV*%
X64816500Y-40050700D02*
X70378300Y-34488900D01*
X34320100Y-44310800D02*
X38370400Y-44310800D01*
X59700400Y-40050700D02*
X64816500Y-40050700D01*
X14593000Y-44706000D02*
X28288800Y-44706000D01*
X14394700Y-44904300D02*
X14593000Y-44706000D01*
X55082700Y-44668400D02*
X59700400Y-40050700D01*
X71500000Y-33500000D02*
X70378300Y-33500000D01*
X38370400Y-44310800D02*
X38728000Y-44668400D01*
X70378300Y-34488900D02*
X70378300Y-33500000D01*
X34065500Y-44565400D02*
X34320100Y-44310800D01*
X28429400Y-44565400D02*
X34065500Y-44565400D01*
X38728000Y-44668400D02*
X55082700Y-44668400D01*
X28288800Y-44706000D02*
X28429400Y-44565400D01*
%TO.N,RAMDIS*%
X66556100Y-40983900D02*
X71500000Y-36040000D01*
X45722100Y-59805000D02*
X64543200Y-40983900D01*
X64543200Y-40983900D02*
X66556100Y-40983900D01*
%TO.N,ROMCS_BUS*%
X40081300Y-62557300D02*
X39289400Y-61765400D01*
X64788400Y-61056600D02*
X64788400Y-61472100D01*
X19159400Y-60266200D02*
X19159400Y-53680600D01*
X19159400Y-53680600D02*
X19540000Y-53300000D01*
X66040000Y-59805000D02*
X64788400Y-61056600D01*
X39289400Y-61765400D02*
X37275100Y-61765400D01*
X60639500Y-62557300D02*
X40081300Y-62557300D01*
X64099900Y-62160600D02*
X61036200Y-62160600D01*
X61036200Y-62160600D02*
X60639500Y-62557300D01*
X37275100Y-61765400D02*
X36879900Y-61370200D01*
X20263400Y-61370200D02*
X19159400Y-60266200D01*
X64788400Y-61472100D02*
X64099900Y-62160600D01*
X36879900Y-61370200D02*
X20263400Y-61370200D01*
%TO.N,A14*%
X7086600Y-60951700D02*
X6226700Y-60091800D01*
X6226700Y-60091800D02*
X6226700Y-59805000D01*
X36645300Y-62014900D02*
X36452000Y-61821600D01*
X5080000Y-59805000D02*
X6226700Y-59805000D01*
X18055100Y-60951700D02*
X7086600Y-60951700D01*
X47064400Y-49846300D02*
X50524100Y-49846300D01*
X36452000Y-61821600D02*
X18925000Y-61821600D01*
X18925000Y-61821600D02*
X18055100Y-60951700D01*
%TO.N,BUS_P07*%
X20320000Y-59805000D02*
X23390200Y-56734800D01*
X23390200Y-56734800D02*
X26915200Y-56734800D01*
X26915200Y-56734800D02*
X30350000Y-53300000D01*
%TO.N,BUS_P15*%
X35968300Y-54977500D02*
X36349900Y-55359100D01*
X35968300Y-53681700D02*
X35968300Y-54977500D01*
X36350000Y-55515000D02*
X40640000Y-59805000D01*
X36350000Y-55359100D02*
X36350000Y-55515000D01*
X36350000Y-53300000D02*
X35968300Y-53681700D01*
%TO.N,IORQ_N*%
X64618100Y-13830200D02*
X70483400Y-13830200D01*
X45720000Y-64655000D02*
X46901100Y-63473900D01*
X72484600Y-18130200D02*
X71300600Y-18130200D01*
X72621700Y-17993100D02*
X72484600Y-18130200D01*
X62398300Y-11610400D02*
X64618100Y-13830200D01*
X58350700Y-11610400D02*
X62398300Y-11610400D01*
X70483400Y-13830200D02*
X72621700Y-15968500D01*
X46901100Y-63473900D02*
X62722100Y-63473900D01*
X69889800Y-19541000D02*
X69889800Y-21382100D01*
X56081700Y-12700000D02*
X57261100Y-12700000D01*
X54610000Y-12700000D02*
X56081700Y-12700000D01*
X72621700Y-15968500D02*
X72621700Y-17993100D01*
X57261100Y-12700000D02*
X58350700Y-11610400D01*
X71300600Y-18130200D02*
X69889800Y-19541000D01*
%TO.N,A15*%
X36379700Y-62667700D02*
X37222800Y-62667700D01*
X54610000Y-38100000D02*
X53138300Y-38100000D01*
X35930300Y-62218300D02*
X36379700Y-62667700D01*
X37222800Y-62667700D02*
X37503300Y-62387200D01*
X7814200Y-61920800D02*
X18265400Y-61920800D01*
X53138300Y-38100000D02*
X50098200Y-41140100D01*
X18562900Y-62218300D02*
X35930300Y-62218300D01*
X5080000Y-64655000D02*
X7814200Y-61920800D01*
X18265400Y-61920800D02*
X18562900Y-62218300D01*
X37503300Y-62387200D02*
X39007500Y-62387200D01*
X50098200Y-41140100D02*
X48176300Y-41140100D01*
%TO.N,ZX512*%
X15075500Y-45102700D02*
X28650900Y-45102700D01*
X64939800Y-40587200D02*
X70608700Y-34918300D01*
X59858300Y-45107700D02*
X64378800Y-40587200D01*
X28650900Y-45102700D02*
X28791500Y-44962100D01*
X71500000Y-26000000D02*
X70939200Y-26000000D01*
X64040300Y-21642500D02*
X66527800Y-24130000D01*
X48461700Y-12700000D02*
X52077200Y-16315500D01*
X64378800Y-40587200D02*
X64939800Y-40587200D01*
X14414700Y-45763600D02*
X15075500Y-45102800D01*
X70608700Y-34918300D02*
X72854600Y-34918300D01*
X28791500Y-44962100D02*
X34229900Y-44962100D01*
X66527800Y-24130000D02*
X69069200Y-24130000D01*
X60163300Y-16315500D02*
X64040300Y-20192500D01*
X46990000Y-12700000D02*
X48461700Y-12700000D01*
X69069200Y-24130000D02*
X70939200Y-26000000D01*
X64040300Y-20192500D02*
X64040300Y-21642500D01*
X34484500Y-44707500D02*
X38008600Y-44707500D01*
X9919600Y-45763600D02*
X14414700Y-45763600D01*
X52077200Y-16315500D02*
X60163300Y-16315500D01*
X34229900Y-44962100D02*
X34484500Y-44707500D01*
X38408800Y-45107700D02*
X59858300Y-45107700D01*
X38008600Y-44707500D02*
X38408800Y-45107700D01*
%TD*%
%TA.AperFunction,Conductor*%
%TO.N,GND*%
G36*
X78382539Y-320185D02*
G01*
X78428294Y-372989D01*
X78439500Y-424500D01*
X78439500Y-65615500D01*
X78419815Y-65682539D01*
X78367011Y-65728294D01*
X78315500Y-65739500D01*
X74537270Y-65739500D01*
X74470231Y-65719815D01*
X74424476Y-65667011D01*
X74414532Y-65597853D01*
X74443557Y-65534297D01*
X74449589Y-65527819D01*
X74556621Y-65420787D01*
X74665378Y-65271096D01*
X74749379Y-65106235D01*
X74806555Y-64930264D01*
X74835500Y-64747514D01*
X74835500Y-64562486D01*
X74806555Y-64379736D01*
X74762624Y-64244528D01*
X74749380Y-64203767D01*
X74749379Y-64203764D01*
X74691727Y-64090617D01*
X74665378Y-64038904D01*
X74556621Y-63889213D01*
X74425787Y-63758379D01*
X74276096Y-63649622D01*
X74256433Y-63639603D01*
X74111235Y-63565620D01*
X74111232Y-63565619D01*
X73935265Y-63508445D01*
X73799008Y-63486864D01*
X73752514Y-63479500D01*
X73567486Y-63479500D01*
X73520992Y-63486864D01*
X73384734Y-63508445D01*
X73208767Y-63565619D01*
X73208764Y-63565620D01*
X73043903Y-63649622D01*
X72989446Y-63689188D01*
X72894213Y-63758379D01*
X72894211Y-63758381D01*
X72894210Y-63758381D01*
X72763381Y-63889210D01*
X72763381Y-63889211D01*
X72763379Y-63889213D01*
X72743227Y-63916950D01*
X72654622Y-64038903D01*
X72570620Y-64203764D01*
X72570619Y-64203767D01*
X72513445Y-64379734D01*
X72512473Y-64385872D01*
X72482544Y-64449007D01*
X72423232Y-64485938D01*
X72353370Y-64484940D01*
X72295137Y-64446330D01*
X72267527Y-64385872D01*
X72267356Y-64384798D01*
X72266555Y-64379736D01*
X72222624Y-64244528D01*
X72209380Y-64203767D01*
X72209379Y-64203764D01*
X72151727Y-64090617D01*
X72125378Y-64038904D01*
X72016621Y-63889213D01*
X71885787Y-63758379D01*
X71736096Y-63649622D01*
X71716433Y-63639603D01*
X71571235Y-63565620D01*
X71571232Y-63565619D01*
X71395265Y-63508445D01*
X71259008Y-63486864D01*
X71212514Y-63479500D01*
X71027486Y-63479500D01*
X70980992Y-63486864D01*
X70844734Y-63508445D01*
X70713562Y-63551065D01*
X70643720Y-63553060D01*
X70587563Y-63520815D01*
X68234253Y-61167505D01*
X68200768Y-61106182D01*
X68205752Y-61036490D01*
X68247624Y-60980557D01*
X68313088Y-60956140D01*
X68341329Y-60957350D01*
X68487486Y-60980500D01*
X68487487Y-60980500D01*
X68672513Y-60980500D01*
X68672514Y-60980500D01*
X68855264Y-60951555D01*
X69031235Y-60894379D01*
X69196096Y-60810378D01*
X69345787Y-60701621D01*
X69476621Y-60570787D01*
X69585378Y-60421096D01*
X69669379Y-60256235D01*
X69726555Y-60080264D01*
X69727527Y-60074126D01*
X69757455Y-60010994D01*
X69816766Y-59974062D01*
X69886629Y-59975058D01*
X69944862Y-60013667D01*
X69972472Y-60074126D01*
X69973445Y-60080264D01*
X69973446Y-60080269D01*
X70030619Y-60256232D01*
X70030620Y-60256235D01*
X70096002Y-60384553D01*
X70114622Y-60421096D01*
X70223379Y-60570787D01*
X70354213Y-60701621D01*
X70503904Y-60810378D01*
X70567648Y-60842857D01*
X70668764Y-60894379D01*
X70668767Y-60894380D01*
X70756750Y-60922967D01*
X70844736Y-60951555D01*
X71027486Y-60980500D01*
X71027487Y-60980500D01*
X71212513Y-60980500D01*
X71212514Y-60980500D01*
X71395264Y-60951555D01*
X71571235Y-60894379D01*
X71736096Y-60810378D01*
X71885787Y-60701621D01*
X72016621Y-60570787D01*
X72125378Y-60421096D01*
X72209379Y-60256235D01*
X72266555Y-60080264D01*
X72267527Y-60074126D01*
X72297455Y-60010994D01*
X72356766Y-59974062D01*
X72426629Y-59975058D01*
X72484862Y-60013667D01*
X72512472Y-60074126D01*
X72513445Y-60080264D01*
X72513446Y-60080269D01*
X72570619Y-60256232D01*
X72570620Y-60256235D01*
X72636002Y-60384553D01*
X72654622Y-60421096D01*
X72763379Y-60570787D01*
X72894213Y-60701621D01*
X73043904Y-60810378D01*
X73107648Y-60842857D01*
X73208764Y-60894379D01*
X73208767Y-60894380D01*
X73296750Y-60922967D01*
X73384736Y-60951555D01*
X73567486Y-60980500D01*
X73567487Y-60980500D01*
X73752513Y-60980500D01*
X73752514Y-60980500D01*
X73935264Y-60951555D01*
X74111235Y-60894379D01*
X74276096Y-60810378D01*
X74425787Y-60701621D01*
X74556621Y-60570787D01*
X74665378Y-60421096D01*
X74749379Y-60256235D01*
X74806555Y-60080264D01*
X74835500Y-59897514D01*
X74835500Y-59712486D01*
X74806555Y-59529736D01*
X74768618Y-59412976D01*
X74749380Y-59353767D01*
X74749379Y-59353764D01*
X74693907Y-59244896D01*
X74665378Y-59188904D01*
X74556621Y-59039213D01*
X74425787Y-58908379D01*
X74276096Y-58799622D01*
X74235655Y-58779016D01*
X74111235Y-58715620D01*
X74111232Y-58715619D01*
X73935265Y-58658445D01*
X73783356Y-58634385D01*
X73752514Y-58629500D01*
X73567486Y-58629500D01*
X73538279Y-58634126D01*
X73384734Y-58658445D01*
X73208767Y-58715619D01*
X73208764Y-58715620D01*
X73043903Y-58799622D01*
X72960784Y-58860012D01*
X72894213Y-58908379D01*
X72894211Y-58908381D01*
X72894210Y-58908381D01*
X72763381Y-59039210D01*
X72763381Y-59039211D01*
X72763379Y-59039213D01*
X72727259Y-59088928D01*
X72654622Y-59188903D01*
X72570620Y-59353764D01*
X72570619Y-59353767D01*
X72513445Y-59529734D01*
X72512473Y-59535872D01*
X72482544Y-59599007D01*
X72423232Y-59635938D01*
X72353370Y-59634940D01*
X72295137Y-59596330D01*
X72267527Y-59535872D01*
X72267356Y-59534798D01*
X72266555Y-59529736D01*
X72228618Y-59412976D01*
X72209380Y-59353767D01*
X72209379Y-59353764D01*
X72153907Y-59244896D01*
X72125378Y-59188904D01*
X72016621Y-59039213D01*
X71885787Y-58908379D01*
X71736096Y-58799622D01*
X71695655Y-58779016D01*
X71571235Y-58715620D01*
X71571232Y-58715619D01*
X71395265Y-58658445D01*
X71243356Y-58634385D01*
X71212514Y-58629500D01*
X71027486Y-58629500D01*
X70998279Y-58634126D01*
X70844734Y-58658445D01*
X70668767Y-58715619D01*
X70668764Y-58715620D01*
X70503903Y-58799622D01*
X70420784Y-58860012D01*
X70354213Y-58908379D01*
X70354211Y-58908381D01*
X70354210Y-58908381D01*
X70223381Y-59039210D01*
X70223381Y-59039211D01*
X70223379Y-59039213D01*
X70187259Y-59088928D01*
X70114622Y-59188903D01*
X70030620Y-59353764D01*
X70030619Y-59353767D01*
X69973445Y-59529734D01*
X69972473Y-59535872D01*
X69942544Y-59599007D01*
X69883232Y-59635938D01*
X69813370Y-59634940D01*
X69755137Y-59596330D01*
X69727527Y-59535872D01*
X69727356Y-59534798D01*
X69726555Y-59529736D01*
X69688618Y-59412976D01*
X69669380Y-59353767D01*
X69669379Y-59353764D01*
X69613907Y-59244896D01*
X69585378Y-59188904D01*
X69476621Y-59039213D01*
X69345787Y-58908379D01*
X69196096Y-58799622D01*
X69155655Y-58779016D01*
X69031235Y-58715620D01*
X69031232Y-58715619D01*
X68855265Y-58658445D01*
X68703356Y-58634385D01*
X68672514Y-58629500D01*
X68487486Y-58629500D01*
X68458279Y-58634126D01*
X68304734Y-58658445D01*
X68128767Y-58715619D01*
X68128764Y-58715620D01*
X67963903Y-58799622D01*
X67880784Y-58860012D01*
X67814213Y-58908379D01*
X67814211Y-58908381D01*
X67814210Y-58908381D01*
X67683381Y-59039210D01*
X67683381Y-59039211D01*
X67683379Y-59039213D01*
X67647259Y-59088928D01*
X67574622Y-59188903D01*
X67490620Y-59353764D01*
X67490619Y-59353767D01*
X67433445Y-59529734D01*
X67432473Y-59535872D01*
X67402544Y-59599007D01*
X67343232Y-59635938D01*
X67273370Y-59634940D01*
X67215137Y-59596330D01*
X67187527Y-59535872D01*
X67187356Y-59534798D01*
X67186555Y-59529736D01*
X67148618Y-59412976D01*
X67129380Y-59353767D01*
X67129379Y-59353764D01*
X67073907Y-59244896D01*
X67045378Y-59188904D01*
X66936621Y-59039213D01*
X66805787Y-58908379D01*
X66656096Y-58799622D01*
X66615655Y-58779016D01*
X66491235Y-58715620D01*
X66491232Y-58715619D01*
X66315265Y-58658445D01*
X66163356Y-58634385D01*
X66132514Y-58629500D01*
X65947486Y-58629500D01*
X65918279Y-58634126D01*
X65764734Y-58658445D01*
X65588767Y-58715619D01*
X65588764Y-58715620D01*
X65423903Y-58799622D01*
X65340784Y-58860012D01*
X65274213Y-58908379D01*
X65274211Y-58908381D01*
X65274210Y-58908381D01*
X65143381Y-59039210D01*
X65143381Y-59039211D01*
X65143379Y-59039213D01*
X65107259Y-59088928D01*
X65034622Y-59188903D01*
X64950620Y-59353764D01*
X64950619Y-59353767D01*
X64893445Y-59529734D01*
X64892473Y-59535872D01*
X64862544Y-59599007D01*
X64803232Y-59635938D01*
X64733370Y-59634940D01*
X64675137Y-59596330D01*
X64647527Y-59535872D01*
X64647356Y-59534798D01*
X64646555Y-59529736D01*
X64608618Y-59412976D01*
X64589380Y-59353767D01*
X64589379Y-59353764D01*
X64533907Y-59244896D01*
X64505378Y-59188904D01*
X64396621Y-59039213D01*
X64265787Y-58908379D01*
X64116096Y-58799622D01*
X64075655Y-58779016D01*
X63951235Y-58715620D01*
X63951232Y-58715619D01*
X63775265Y-58658445D01*
X63623356Y-58634385D01*
X63592514Y-58629500D01*
X63407486Y-58629500D01*
X63378279Y-58634126D01*
X63224734Y-58658445D01*
X63048767Y-58715619D01*
X63048764Y-58715620D01*
X62883903Y-58799622D01*
X62800784Y-58860012D01*
X62734213Y-58908379D01*
X62734211Y-58908381D01*
X62734210Y-58908381D01*
X62603381Y-59039210D01*
X62603381Y-59039211D01*
X62603379Y-59039213D01*
X62567259Y-59088928D01*
X62494622Y-59188903D01*
X62410620Y-59353764D01*
X62410619Y-59353767D01*
X62353445Y-59529734D01*
X62352473Y-59535872D01*
X62322544Y-59599007D01*
X62263232Y-59635938D01*
X62193370Y-59634940D01*
X62135137Y-59596330D01*
X62107527Y-59535872D01*
X62107356Y-59534798D01*
X62106555Y-59529736D01*
X62068618Y-59412976D01*
X62049380Y-59353767D01*
X62049379Y-59353764D01*
X61993907Y-59244896D01*
X61965378Y-59188904D01*
X61856621Y-59039213D01*
X61725787Y-58908379D01*
X61576096Y-58799622D01*
X61535655Y-58779016D01*
X61411235Y-58715620D01*
X61411232Y-58715619D01*
X61235265Y-58658445D01*
X61083356Y-58634385D01*
X61052514Y-58629500D01*
X60867486Y-58629500D01*
X60838279Y-58634126D01*
X60684734Y-58658445D01*
X60508767Y-58715619D01*
X60508764Y-58715620D01*
X60343903Y-58799622D01*
X60260784Y-58860012D01*
X60194213Y-58908379D01*
X60194211Y-58908381D01*
X60194210Y-58908381D01*
X60063381Y-59039210D01*
X60063381Y-59039211D01*
X60063379Y-59039213D01*
X60027259Y-59088928D01*
X59954622Y-59188903D01*
X59870620Y-59353764D01*
X59870619Y-59353767D01*
X59813445Y-59529734D01*
X59812473Y-59535872D01*
X59782544Y-59599007D01*
X59723232Y-59635938D01*
X59653370Y-59634940D01*
X59595137Y-59596330D01*
X59567527Y-59535872D01*
X59567356Y-59534798D01*
X59566555Y-59529736D01*
X59528618Y-59412976D01*
X59509380Y-59353767D01*
X59509379Y-59353764D01*
X59453907Y-59244896D01*
X59425378Y-59188904D01*
X59316621Y-59039213D01*
X59185787Y-58908379D01*
X59036096Y-58799622D01*
X58995655Y-58779016D01*
X58871235Y-58715620D01*
X58871232Y-58715619D01*
X58695265Y-58658445D01*
X58543356Y-58634385D01*
X58512514Y-58629500D01*
X58327486Y-58629500D01*
X58298279Y-58634126D01*
X58144734Y-58658445D01*
X57968767Y-58715619D01*
X57968764Y-58715620D01*
X57803903Y-58799622D01*
X57720784Y-58860012D01*
X57654213Y-58908379D01*
X57654211Y-58908381D01*
X57654210Y-58908381D01*
X57523381Y-59039210D01*
X57523381Y-59039211D01*
X57523379Y-59039213D01*
X57487259Y-59088928D01*
X57414622Y-59188903D01*
X57330620Y-59353764D01*
X57330619Y-59353767D01*
X57273445Y-59529734D01*
X57272473Y-59535872D01*
X57242544Y-59599007D01*
X57183232Y-59635938D01*
X57113370Y-59634940D01*
X57055137Y-59596330D01*
X57027527Y-59535872D01*
X57027356Y-59534798D01*
X57026555Y-59529736D01*
X56988618Y-59412976D01*
X56969380Y-59353767D01*
X56969379Y-59353764D01*
X56913907Y-59244896D01*
X56885378Y-59188904D01*
X56776621Y-59039213D01*
X56645787Y-58908379D01*
X56496096Y-58799622D01*
X56455655Y-58779016D01*
X56331235Y-58715620D01*
X56331232Y-58715619D01*
X56155265Y-58658445D01*
X56003356Y-58634385D01*
X55972514Y-58629500D01*
X55787486Y-58629500D01*
X55758279Y-58634126D01*
X55604734Y-58658445D01*
X55428767Y-58715619D01*
X55428764Y-58715620D01*
X55263903Y-58799622D01*
X55180784Y-58860012D01*
X55114213Y-58908379D01*
X55114211Y-58908381D01*
X55114210Y-58908381D01*
X54983381Y-59039210D01*
X54983381Y-59039211D01*
X54983379Y-59039213D01*
X54947259Y-59088928D01*
X54874622Y-59188903D01*
X54790620Y-59353764D01*
X54790619Y-59353767D01*
X54733445Y-59529734D01*
X54732473Y-59535872D01*
X54702544Y-59599007D01*
X54643232Y-59635938D01*
X54573370Y-59634940D01*
X54515137Y-59596330D01*
X54487527Y-59535872D01*
X54487356Y-59534798D01*
X54486555Y-59529736D01*
X54448618Y-59412976D01*
X54429380Y-59353767D01*
X54429379Y-59353764D01*
X54373907Y-59244896D01*
X54345378Y-59188904D01*
X54236621Y-59039213D01*
X54105787Y-58908379D01*
X53956096Y-58799622D01*
X53915655Y-58779016D01*
X53791235Y-58715620D01*
X53791232Y-58715619D01*
X53615265Y-58658445D01*
X53463356Y-58634385D01*
X53432514Y-58629500D01*
X53247486Y-58629500D01*
X53218279Y-58634126D01*
X53064734Y-58658445D01*
X52888767Y-58715619D01*
X52888764Y-58715620D01*
X52723903Y-58799622D01*
X52640784Y-58860012D01*
X52574213Y-58908379D01*
X52574211Y-58908381D01*
X52574210Y-58908381D01*
X52443381Y-59039210D01*
X52443381Y-59039211D01*
X52443379Y-59039213D01*
X52407259Y-59088928D01*
X52334622Y-59188903D01*
X52250620Y-59353764D01*
X52250619Y-59353767D01*
X52193445Y-59529734D01*
X52192473Y-59535872D01*
X52162544Y-59599007D01*
X52103232Y-59635938D01*
X52033370Y-59634940D01*
X51975137Y-59596330D01*
X51947527Y-59535872D01*
X51947356Y-59534798D01*
X51946555Y-59529736D01*
X51908618Y-59412976D01*
X51889380Y-59353767D01*
X51889379Y-59353764D01*
X51833907Y-59244896D01*
X51805378Y-59188904D01*
X51696621Y-59039213D01*
X51565787Y-58908379D01*
X51416096Y-58799622D01*
X51375655Y-58779016D01*
X51251235Y-58715620D01*
X51251232Y-58715619D01*
X51075265Y-58658445D01*
X50923356Y-58634385D01*
X50892514Y-58629500D01*
X50707486Y-58629500D01*
X50678279Y-58634126D01*
X50524734Y-58658445D01*
X50348767Y-58715619D01*
X50348764Y-58715620D01*
X50183903Y-58799622D01*
X50100784Y-58860012D01*
X50034213Y-58908379D01*
X50034211Y-58908381D01*
X50034210Y-58908381D01*
X49903381Y-59039210D01*
X49903381Y-59039211D01*
X49903379Y-59039213D01*
X49867259Y-59088928D01*
X49794622Y-59188903D01*
X49710620Y-59353764D01*
X49710619Y-59353767D01*
X49653445Y-59529734D01*
X49652473Y-59535872D01*
X49622544Y-59599007D01*
X49563232Y-59635938D01*
X49493370Y-59634940D01*
X49435137Y-59596330D01*
X49407527Y-59535872D01*
X49407356Y-59534798D01*
X49406555Y-59529736D01*
X49368618Y-59412976D01*
X49349380Y-59353767D01*
X49349379Y-59353764D01*
X49293907Y-59244896D01*
X49265378Y-59188904D01*
X49156621Y-59039213D01*
X49025787Y-58908379D01*
X48876096Y-58799622D01*
X48835655Y-58779016D01*
X48711235Y-58715620D01*
X48711232Y-58715619D01*
X48535265Y-58658445D01*
X48383356Y-58634385D01*
X48352514Y-58629500D01*
X48167486Y-58629500D01*
X48138279Y-58634126D01*
X47984734Y-58658445D01*
X47808767Y-58715619D01*
X47808764Y-58715621D01*
X47699896Y-58771092D01*
X47631226Y-58783988D01*
X47566486Y-58757711D01*
X47526229Y-58700605D01*
X47523237Y-58630799D01*
X47555918Y-58572928D01*
X58764869Y-47363978D01*
X58826190Y-47330495D01*
X58895882Y-47335479D01*
X58951815Y-47377351D01*
X58974165Y-47427469D01*
X58989868Y-47506414D01*
X58989870Y-47506420D01*
X59069058Y-47697596D01*
X59184024Y-47869657D01*
X59330342Y-48015975D01*
X59330345Y-48015977D01*
X59502402Y-48130941D01*
X59693580Y-48210130D01*
X59896530Y-48250499D01*
X59896534Y-48250500D01*
X59896535Y-48250500D01*
X60103466Y-48250500D01*
X60103467Y-48250499D01*
X60306420Y-48210130D01*
X60497598Y-48130941D01*
X60669655Y-48015977D01*
X60815977Y-47869655D01*
X60930941Y-47697598D01*
X61010130Y-47506420D01*
X61050500Y-47303465D01*
X61050500Y-47096535D01*
X61050499Y-47096530D01*
X62949500Y-47096530D01*
X62949500Y-47303469D01*
X62989868Y-47506412D01*
X62989870Y-47506420D01*
X63069058Y-47697596D01*
X63184024Y-47869657D01*
X63330342Y-48015975D01*
X63330345Y-48015977D01*
X63502402Y-48130941D01*
X63693580Y-48210130D01*
X63896530Y-48250499D01*
X63896534Y-48250500D01*
X63896535Y-48250500D01*
X64103466Y-48250500D01*
X64103467Y-48250499D01*
X64306420Y-48210130D01*
X64497598Y-48130941D01*
X64669655Y-48015977D01*
X64815977Y-47869655D01*
X64930941Y-47697598D01*
X65010130Y-47506420D01*
X65050500Y-47303465D01*
X65050500Y-47096535D01*
X65010130Y-46893580D01*
X64930941Y-46702402D01*
X64815977Y-46530345D01*
X64815975Y-46530342D01*
X64669657Y-46384024D01*
X64520423Y-46284310D01*
X64497598Y-46269059D01*
X64497156Y-46268876D01*
X64306420Y-46189870D01*
X64306412Y-46189868D01*
X64103469Y-46149500D01*
X64103465Y-46149500D01*
X63896535Y-46149500D01*
X63896530Y-46149500D01*
X63693587Y-46189868D01*
X63693579Y-46189870D01*
X63502403Y-46269058D01*
X63330342Y-46384024D01*
X63184024Y-46530342D01*
X63069058Y-46702403D01*
X62989870Y-46893579D01*
X62989868Y-46893587D01*
X62949500Y-47096530D01*
X61050499Y-47096530D01*
X61010130Y-46893580D01*
X60930941Y-46702402D01*
X60815977Y-46530345D01*
X60815975Y-46530342D01*
X60669657Y-46384024D01*
X60520423Y-46284310D01*
X60497598Y-46269059D01*
X60497156Y-46268876D01*
X60306420Y-46189870D01*
X60306414Y-46189868D01*
X60227469Y-46174165D01*
X60165558Y-46141780D01*
X60130984Y-46081064D01*
X60134724Y-46011295D01*
X60163978Y-45964869D01*
X64683129Y-41445719D01*
X64744452Y-41412234D01*
X64770810Y-41409400D01*
X66612116Y-41409400D01*
X66612118Y-41409400D01*
X66720337Y-41380403D01*
X66817363Y-41324385D01*
X70987404Y-37154342D01*
X71048725Y-37120859D01*
X71113399Y-37124093D01*
X71158763Y-37138833D01*
X71230590Y-37162171D01*
X71409449Y-37190500D01*
X71409454Y-37190500D01*
X71590551Y-37190500D01*
X71677259Y-37176765D01*
X71769409Y-37162171D01*
X71941639Y-37106211D01*
X72102994Y-37023996D01*
X72249501Y-36917553D01*
X72377553Y-36789501D01*
X72483996Y-36642994D01*
X72566211Y-36481639D01*
X72622171Y-36309409D01*
X72640972Y-36190703D01*
X72650500Y-36130551D01*
X72650500Y-35949448D01*
X72629632Y-35817697D01*
X72622171Y-35770591D01*
X72605819Y-35720263D01*
X72603824Y-35650421D01*
X72639905Y-35590589D01*
X72702606Y-35559761D01*
X72747940Y-35560327D01*
X72790531Y-35568800D01*
X72918671Y-35568800D01*
X73003215Y-35551982D01*
X73044344Y-35543801D01*
X73162727Y-35494765D01*
X73269269Y-35423576D01*
X73359876Y-35332969D01*
X73431065Y-35226427D01*
X73480101Y-35108044D01*
X73490412Y-35056210D01*
X73505100Y-34982371D01*
X73505100Y-34854228D01*
X73480102Y-34728561D01*
X73480101Y-34728560D01*
X73480101Y-34728556D01*
X73434625Y-34618768D01*
X73431066Y-34610175D01*
X73431061Y-34610166D01*
X73359876Y-34503631D01*
X73359873Y-34503627D01*
X73269272Y-34413026D01*
X73269268Y-34413023D01*
X73162733Y-34341838D01*
X73162724Y-34341833D01*
X73044344Y-34292799D01*
X73044338Y-34292797D01*
X72918671Y-34267800D01*
X72918669Y-34267800D01*
X72790531Y-34267800D01*
X72790523Y-34267800D01*
X72786641Y-34268182D01*
X72784628Y-34267800D01*
X72784439Y-34267800D01*
X72784439Y-34267764D01*
X72717996Y-34255156D01*
X72667291Y-34207086D01*
X72650499Y-34144778D01*
X72650499Y-32605143D01*
X72650499Y-32605136D01*
X72649620Y-32597555D01*
X72647586Y-32580012D01*
X72647585Y-32580010D01*
X72647585Y-32580009D01*
X72602206Y-32477235D01*
X72522765Y-32397794D01*
X72498011Y-32386864D01*
X72419992Y-32352415D01*
X72394868Y-32349500D01*
X70870607Y-32349500D01*
X70803568Y-32329815D01*
X70757813Y-32277011D01*
X70747869Y-32207853D01*
X70776894Y-32144297D01*
X70782912Y-32137833D01*
X73280753Y-29639993D01*
X73280758Y-29639989D01*
X73290961Y-29629785D01*
X73290963Y-29629785D01*
X73370185Y-29550563D01*
X73426203Y-29453537D01*
X73429262Y-29442120D01*
X73430580Y-29437202D01*
X73430580Y-29437200D01*
X73446041Y-29379500D01*
X73455200Y-29345319D01*
X73455200Y-29233282D01*
X73455200Y-21013682D01*
X73435190Y-20939005D01*
X73426203Y-20905463D01*
X73420025Y-20894763D01*
X73370185Y-20808437D01*
X73290963Y-20729215D01*
X72614344Y-20052596D01*
X72580859Y-19991273D01*
X72584093Y-19926600D01*
X72622171Y-19809409D01*
X72630265Y-19758305D01*
X72650500Y-19630551D01*
X72650500Y-19449448D01*
X72624361Y-19284421D01*
X72622171Y-19270591D01*
X72587063Y-19162539D01*
X72566212Y-19098363D01*
X72566211Y-19098360D01*
X72518386Y-19004500D01*
X72483996Y-18937006D01*
X72435394Y-18870111D01*
X72377558Y-18790505D01*
X72377554Y-18790500D01*
X72354435Y-18767381D01*
X72320950Y-18706058D01*
X72325934Y-18636366D01*
X72367806Y-18580433D01*
X72433270Y-18556016D01*
X72442116Y-18555700D01*
X72540616Y-18555700D01*
X72540618Y-18555700D01*
X72648837Y-18526703D01*
X72745863Y-18470685D01*
X72962185Y-18254363D01*
X73018203Y-18157337D01*
X73047200Y-18049118D01*
X73047200Y-17937081D01*
X73047200Y-15912482D01*
X73018203Y-15804263D01*
X72962185Y-15707237D01*
X72882963Y-15628015D01*
X71671901Y-14416953D01*
X71638416Y-14355630D01*
X71643400Y-14285938D01*
X71685272Y-14230005D01*
X71740182Y-14206800D01*
X71769409Y-14202171D01*
X71941639Y-14146211D01*
X72102994Y-14063996D01*
X72249501Y-13957553D01*
X72377553Y-13829501D01*
X72483996Y-13682994D01*
X72566211Y-13521639D01*
X72622171Y-13349409D01*
X72643229Y-13216456D01*
X72650500Y-13170551D01*
X72650500Y-12989448D01*
X72631736Y-12870984D01*
X72622171Y-12810591D01*
X72594191Y-12724476D01*
X72566212Y-12638363D01*
X72566211Y-12638360D01*
X72510452Y-12528929D01*
X72483996Y-12477006D01*
X72456192Y-12438737D01*
X72377558Y-12330505D01*
X72377554Y-12330500D01*
X72249499Y-12202445D01*
X72249494Y-12202441D01*
X72102997Y-12096006D01*
X72102996Y-12096005D01*
X72102994Y-12096004D01*
X72023668Y-12055585D01*
X71941639Y-12013788D01*
X71941636Y-12013787D01*
X71769410Y-11957829D01*
X71609321Y-11932473D01*
X71546186Y-11902544D01*
X71509255Y-11843232D01*
X71510253Y-11773370D01*
X71548863Y-11715137D01*
X71609321Y-11687527D01*
X71679425Y-11676422D01*
X71769409Y-11662171D01*
X71941639Y-11606211D01*
X72102994Y-11523996D01*
X72249501Y-11417553D01*
X72377553Y-11289501D01*
X72483996Y-11142994D01*
X72566211Y-10981639D01*
X72622171Y-10809409D01*
X72636765Y-10717259D01*
X72650500Y-10630551D01*
X72650500Y-10449448D01*
X72633813Y-10344097D01*
X72622171Y-10270591D01*
X72566211Y-10098361D01*
X72566211Y-10098360D01*
X72530056Y-10027403D01*
X72483996Y-9937006D01*
X72433644Y-9867702D01*
X72377558Y-9790505D01*
X72377554Y-9790500D01*
X72249499Y-9662445D01*
X72249494Y-9662441D01*
X72102997Y-9556006D01*
X72102996Y-9556005D01*
X72102994Y-9556004D01*
X72018526Y-9512965D01*
X71941639Y-9473788D01*
X71941636Y-9473787D01*
X71769410Y-9417829D01*
X71637727Y-9396972D01*
X71574592Y-9367043D01*
X71537661Y-9307731D01*
X71538659Y-9237868D01*
X71577269Y-9179636D01*
X71641233Y-9151522D01*
X71657125Y-9150499D01*
X72394856Y-9150499D01*
X72394864Y-9150499D01*
X72394879Y-9150497D01*
X72394882Y-9150497D01*
X72419987Y-9147586D01*
X72419988Y-9147585D01*
X72419991Y-9147585D01*
X72522765Y-9102206D01*
X72602206Y-9022765D01*
X72647585Y-8919991D01*
X72650500Y-8894865D01*
X72650499Y-7105136D01*
X72650497Y-7105117D01*
X72647586Y-7080012D01*
X72647585Y-7080010D01*
X72647585Y-7080009D01*
X72602206Y-6977235D01*
X72522765Y-6897794D01*
X72468911Y-6874015D01*
X72419992Y-6852415D01*
X72394865Y-6849500D01*
X70605143Y-6849500D01*
X70605117Y-6849502D01*
X70580012Y-6852413D01*
X70580008Y-6852415D01*
X70477235Y-6897793D01*
X70397794Y-6977234D01*
X70352415Y-7080006D01*
X70352415Y-7080008D01*
X70349500Y-7105131D01*
X70349500Y-8491940D01*
X70329815Y-8558979D01*
X70277011Y-8604734D01*
X70207853Y-8614678D01*
X70163500Y-8599327D01*
X70060739Y-8539998D01*
X70060738Y-8539997D01*
X70060737Y-8539997D01*
X69952518Y-8511000D01*
X69952517Y-8511000D01*
X60422741Y-8511000D01*
X60396356Y-8503252D01*
X60369208Y-8498849D01*
X60363309Y-8493548D01*
X60355702Y-8491315D01*
X60337695Y-8470533D01*
X60317236Y-8452151D01*
X60315139Y-8444502D01*
X60309947Y-8438511D01*
X60306033Y-8411291D01*
X60298761Y-8384768D01*
X60300807Y-8374944D01*
X60300003Y-8369353D01*
X60304412Y-8349929D01*
X60306063Y-8344658D01*
X60320401Y-8310044D01*
X60326477Y-8279495D01*
X60328465Y-8273152D01*
X60344330Y-8249416D01*
X60357560Y-8224123D01*
X60363495Y-8220742D01*
X60367291Y-8215064D01*
X60393466Y-8203674D01*
X60418274Y-8189547D01*
X60422583Y-8188610D01*
X60517644Y-8169701D01*
X60636027Y-8120665D01*
X60742569Y-8049476D01*
X60833176Y-7958869D01*
X60904365Y-7852327D01*
X60953401Y-7733944D01*
X60978400Y-7608269D01*
X60978400Y-7480131D01*
X60978400Y-7480128D01*
X60953402Y-7354461D01*
X60953401Y-7354460D01*
X60953401Y-7354456D01*
X60913593Y-7258352D01*
X60904366Y-7236075D01*
X60904361Y-7236066D01*
X60833176Y-7129531D01*
X60833173Y-7129527D01*
X60742572Y-7038926D01*
X60742568Y-7038923D01*
X60636033Y-6967738D01*
X60636024Y-6967733D01*
X60517644Y-6918699D01*
X60517638Y-6918697D01*
X60391971Y-6893700D01*
X60391969Y-6893700D01*
X60330510Y-6893700D01*
X60263471Y-6874015D01*
X60242829Y-6857381D01*
X56620065Y-3234617D01*
X56620063Y-3234615D01*
X56523037Y-3178597D01*
X56414818Y-3149600D01*
X11922618Y-3149600D01*
X11810581Y-3149600D01*
X11702363Y-3178597D01*
X11702361Y-3178598D01*
X11702360Y-3178598D01*
X11605340Y-3234613D01*
X11605334Y-3234617D01*
X7838291Y-7001659D01*
X7776968Y-7035144D01*
X7707276Y-7030160D01*
X7651343Y-6988288D01*
X7650333Y-6986920D01*
X7589414Y-6903072D01*
X7466928Y-6780586D01*
X7326788Y-6678768D01*
X7172445Y-6600127D01*
X7007701Y-6546598D01*
X7007699Y-6546597D01*
X7007698Y-6546597D01*
X6876271Y-6525781D01*
X6836611Y-6519500D01*
X5863389Y-6519500D01*
X5823728Y-6525781D01*
X5692302Y-6546597D01*
X5527552Y-6600128D01*
X5373211Y-6678768D01*
X5293256Y-6736859D01*
X5233072Y-6780586D01*
X5233070Y-6780588D01*
X5233069Y-6780588D01*
X5110588Y-6903069D01*
X5110588Y-6903070D01*
X5110586Y-6903072D01*
X5083037Y-6940990D01*
X5008768Y-7043211D01*
X4930128Y-7197552D01*
X4876597Y-7362302D01*
X4849500Y-7533389D01*
X4849500Y-7706610D01*
X4874116Y-7862035D01*
X4876598Y-7877701D01*
X4930127Y-8042445D01*
X5008768Y-8196788D01*
X5110586Y-8336928D01*
X5233072Y-8459414D01*
X5373212Y-8561232D01*
X5527555Y-8639873D01*
X5692299Y-8693402D01*
X5863389Y-8720500D01*
X5863390Y-8720500D01*
X6836610Y-8720500D01*
X6836611Y-8720500D01*
X7007701Y-8693402D01*
X7172445Y-8639873D01*
X7326788Y-8561232D01*
X7466928Y-8459414D01*
X7589414Y-8336928D01*
X7691232Y-8196788D01*
X7733819Y-8113204D01*
X7781792Y-8062410D01*
X7844303Y-8045500D01*
X7877716Y-8045500D01*
X7877718Y-8045500D01*
X7985937Y-8016503D01*
X8082963Y-7960485D01*
X12006529Y-4036919D01*
X12067852Y-4003434D01*
X12094210Y-4000600D01*
X13079990Y-4000600D01*
X13147029Y-4020285D01*
X13192784Y-4073089D01*
X13202728Y-4142247D01*
X13173703Y-4205803D01*
X13167671Y-4212281D01*
X7838291Y-9541659D01*
X7776968Y-9575144D01*
X7707276Y-9570160D01*
X7651343Y-9528288D01*
X7650333Y-9526920D01*
X7589414Y-9443072D01*
X7466928Y-9320586D01*
X7326788Y-9218768D01*
X7172445Y-9140127D01*
X7007701Y-9086598D01*
X7007699Y-9086597D01*
X7007698Y-9086597D01*
X6876271Y-9065781D01*
X6836611Y-9059500D01*
X5863389Y-9059500D01*
X5823728Y-9065781D01*
X5692302Y-9086597D01*
X5527552Y-9140128D01*
X5373211Y-9218768D01*
X5346923Y-9237868D01*
X5233072Y-9320586D01*
X5233070Y-9320588D01*
X5233069Y-9320588D01*
X5110588Y-9443069D01*
X5110588Y-9443070D01*
X5110586Y-9443072D01*
X5081078Y-9483686D01*
X5008768Y-9583211D01*
X4930128Y-9737552D01*
X4876597Y-9902302D01*
X4849500Y-10073389D01*
X4849500Y-10246610D01*
X4864940Y-10344099D01*
X4876598Y-10417701D01*
X4921697Y-10556501D01*
X4930128Y-10582447D01*
X4950189Y-10621819D01*
X5008768Y-10736788D01*
X5110586Y-10876928D01*
X5233072Y-10999414D01*
X5373212Y-11101232D01*
X5527555Y-11179873D01*
X5692299Y-11233402D01*
X5863389Y-11260500D01*
X5863390Y-11260500D01*
X6836610Y-11260500D01*
X6836611Y-11260500D01*
X7007701Y-11233402D01*
X7172445Y-11179873D01*
X7326788Y-11101232D01*
X7466928Y-10999414D01*
X7589414Y-10876928D01*
X7691232Y-10736788D01*
X7733819Y-10653204D01*
X7781792Y-10602410D01*
X7844303Y-10585500D01*
X7877716Y-10585500D01*
X7877718Y-10585500D01*
X7985937Y-10556503D01*
X8082963Y-10500485D01*
X14119729Y-4463719D01*
X14181052Y-4430234D01*
X14207410Y-4427400D01*
X20085047Y-4427400D01*
X20152086Y-4447085D01*
X20197841Y-4499889D01*
X20207785Y-4569047D01*
X20195532Y-4607695D01*
X20170128Y-4657552D01*
X20116597Y-4822302D01*
X20089500Y-4993389D01*
X20089500Y-5166611D01*
X20116598Y-5337701D01*
X20170127Y-5502445D01*
X20248768Y-5656788D01*
X20350586Y-5796928D01*
X20473072Y-5919414D01*
X20613212Y-6021232D01*
X20767555Y-6099873D01*
X20932299Y-6153402D01*
X21103389Y-6180500D01*
X21103390Y-6180500D01*
X22076610Y-6180500D01*
X22076611Y-6180500D01*
X22247701Y-6153402D01*
X22412445Y-6099873D01*
X22566788Y-6021232D01*
X22706928Y-5919414D01*
X22829414Y-5796928D01*
X22859791Y-5755117D01*
X22915117Y-5712454D01*
X22984730Y-5706473D01*
X23046526Y-5739078D01*
X23047788Y-5740323D01*
X25133181Y-7825716D01*
X25166666Y-7887039D01*
X25169500Y-7913397D01*
X25169500Y-8213102D01*
X25176711Y-8273152D01*
X25181071Y-8309459D01*
X25178544Y-8309762D01*
X25176370Y-8367025D01*
X25136392Y-8424327D01*
X25071780Y-8450919D01*
X25058804Y-8451600D01*
X24546410Y-8451600D01*
X24479371Y-8431915D01*
X24458729Y-8415281D01*
X23322965Y-7279517D01*
X23322963Y-7279515D01*
X23225937Y-7223497D01*
X23117718Y-7194500D01*
X23117717Y-7194500D01*
X23084303Y-7194500D01*
X23017264Y-7174815D01*
X22973819Y-7126795D01*
X22931232Y-7043212D01*
X22931230Y-7043209D01*
X22931229Y-7043207D01*
X22891327Y-6988288D01*
X22829414Y-6903072D01*
X22706928Y-6780586D01*
X22566788Y-6678768D01*
X22412445Y-6600127D01*
X22247701Y-6546598D01*
X22247699Y-6546597D01*
X22247698Y-6546597D01*
X22116271Y-6525781D01*
X22076611Y-6519500D01*
X21103389Y-6519500D01*
X21063728Y-6525781D01*
X20932302Y-6546597D01*
X20767552Y-6600128D01*
X20613211Y-6678768D01*
X20533256Y-6736859D01*
X20473072Y-6780586D01*
X20473070Y-6780588D01*
X20473069Y-6780588D01*
X20350588Y-6903069D01*
X20350588Y-6903070D01*
X20350586Y-6903072D01*
X20323037Y-6940990D01*
X20248768Y-7043211D01*
X20170128Y-7197552D01*
X20116597Y-7362302D01*
X20089500Y-7533389D01*
X20089500Y-7706610D01*
X20114116Y-7862035D01*
X20116598Y-7877701D01*
X20170127Y-8042445D01*
X20248768Y-8196788D01*
X20350586Y-8336928D01*
X20473072Y-8459414D01*
X20613212Y-8561232D01*
X20767555Y-8639873D01*
X20932299Y-8693402D01*
X21103389Y-8720500D01*
X21103390Y-8720500D01*
X22076610Y-8720500D01*
X22076611Y-8720500D01*
X22247701Y-8693402D01*
X22412445Y-8639873D01*
X22566788Y-8561232D01*
X22706928Y-8459414D01*
X22829414Y-8336928D01*
X22890294Y-8253133D01*
X22945621Y-8210469D01*
X23015234Y-8204490D01*
X23077029Y-8237095D01*
X23078291Y-8238339D01*
X24057537Y-9217585D01*
X24154563Y-9273603D01*
X24262782Y-9302600D01*
X24374819Y-9302600D01*
X25289281Y-9302600D01*
X25296894Y-9304835D01*
X25304727Y-9303566D01*
X25329938Y-9314538D01*
X25356320Y-9322285D01*
X25361515Y-9328281D01*
X25368792Y-9331448D01*
X25384070Y-9354310D01*
X25402075Y-9375089D01*
X25403204Y-9382942D01*
X25407613Y-9389540D01*
X25408105Y-9417030D01*
X25412019Y-9444247D01*
X25408754Y-9453244D01*
X25408865Y-9459399D01*
X25399302Y-9479294D01*
X25394780Y-9491761D01*
X25392334Y-9495720D01*
X25328768Y-9583212D01*
X25283866Y-9671336D01*
X25281196Y-9675661D01*
X25258838Y-9695746D01*
X25238208Y-9717590D01*
X25232935Y-9719016D01*
X25229220Y-9722354D01*
X25207703Y-9725841D01*
X25175697Y-9734500D01*
X23512882Y-9734500D01*
X23404663Y-9763497D01*
X23404660Y-9763498D01*
X23307637Y-9819515D01*
X23246078Y-9881074D01*
X23184754Y-9914558D01*
X23115063Y-9909573D01*
X23059129Y-9867702D01*
X23040466Y-9831711D01*
X23009873Y-9737555D01*
X22931232Y-9583212D01*
X22829414Y-9443072D01*
X22706928Y-9320586D01*
X22566788Y-9218768D01*
X22412445Y-9140127D01*
X22247701Y-9086598D01*
X22247699Y-9086597D01*
X22247698Y-9086597D01*
X22116271Y-9065781D01*
X22076611Y-9059500D01*
X21103389Y-9059500D01*
X21063728Y-9065781D01*
X20932302Y-9086597D01*
X20767552Y-9140128D01*
X20613211Y-9218768D01*
X20586923Y-9237868D01*
X20473072Y-9320586D01*
X20473070Y-9320588D01*
X20473069Y-9320588D01*
X20350588Y-9443069D01*
X20350588Y-9443070D01*
X20350586Y-9443072D01*
X20321078Y-9483686D01*
X20248768Y-9583211D01*
X20170128Y-9737552D01*
X20116597Y-9902302D01*
X20089500Y-10073389D01*
X20089500Y-10246610D01*
X20104940Y-10344099D01*
X20116598Y-10417701D01*
X20161697Y-10556501D01*
X20170128Y-10582447D01*
X20190189Y-10621819D01*
X20248768Y-10736788D01*
X20350586Y-10876928D01*
X20350588Y-10876930D01*
X20461677Y-10988019D01*
X20495162Y-11049342D01*
X20490178Y-11119034D01*
X20448306Y-11174967D01*
X20382842Y-11199384D01*
X20373996Y-11199700D01*
X19124982Y-11199700D01*
X19016763Y-11228697D01*
X19016760Y-11228698D01*
X18919740Y-11284713D01*
X18919734Y-11284717D01*
X17966271Y-12238181D01*
X17904948Y-12271666D01*
X17878590Y-12274500D01*
X7844303Y-12274500D01*
X7777264Y-12254815D01*
X7733819Y-12206795D01*
X7691232Y-12123212D01*
X7691230Y-12123209D01*
X7691229Y-12123207D01*
X7652851Y-12070385D01*
X7589414Y-11983072D01*
X7466928Y-11860586D01*
X7326788Y-11758768D01*
X7172445Y-11680127D01*
X7007701Y-11626598D01*
X7007699Y-11626597D01*
X7007698Y-11626597D01*
X6876271Y-11605781D01*
X6836611Y-11599500D01*
X5863389Y-11599500D01*
X5823728Y-11605781D01*
X5692302Y-11626597D01*
X5527552Y-11680128D01*
X5373211Y-11758768D01*
X5319902Y-11797500D01*
X5233072Y-11860586D01*
X5233070Y-11860588D01*
X5233069Y-11860588D01*
X5110588Y-11983069D01*
X5110588Y-11983070D01*
X5110586Y-11983072D01*
X5088269Y-12013789D01*
X5008768Y-12123211D01*
X4930128Y-12277552D01*
X4930127Y-12277554D01*
X4930127Y-12277555D01*
X4921698Y-12303497D01*
X4876597Y-12442302D01*
X4849500Y-12613389D01*
X4849500Y-12786610D01*
X4876597Y-12957697D01*
X4876597Y-12957699D01*
X4876598Y-12957701D01*
X4929248Y-13119741D01*
X4930128Y-13122447D01*
X4954638Y-13170551D01*
X5008768Y-13276788D01*
X5110586Y-13416928D01*
X5233072Y-13539414D01*
X5373212Y-13641232D01*
X5527555Y-13719873D01*
X5692299Y-13773402D01*
X5863389Y-13800500D01*
X5863390Y-13800500D01*
X6836610Y-13800500D01*
X6836611Y-13800500D01*
X7007701Y-13773402D01*
X7172445Y-13719873D01*
X7326788Y-13641232D01*
X7466928Y-13539414D01*
X7589414Y-13416928D01*
X7691232Y-13276788D01*
X7733819Y-13193204D01*
X7781792Y-13142410D01*
X7844303Y-13125500D01*
X18162216Y-13125500D01*
X18162218Y-13125500D01*
X18270437Y-13096503D01*
X18367463Y-13040485D01*
X19320929Y-12087019D01*
X19382252Y-12053534D01*
X19408610Y-12050700D01*
X20083365Y-12050700D01*
X20150404Y-12070385D01*
X20196159Y-12123189D01*
X20206103Y-12192347D01*
X20193850Y-12230994D01*
X20170129Y-12277549D01*
X20170127Y-12277554D01*
X20170127Y-12277555D01*
X20161698Y-12303497D01*
X20116597Y-12442302D01*
X20089500Y-12613389D01*
X20089500Y-12786610D01*
X20116597Y-12957697D01*
X20116597Y-12957699D01*
X20116598Y-12957701D01*
X20170127Y-13122445D01*
X20199717Y-13180520D01*
X20242357Y-13264205D01*
X20255253Y-13332874D01*
X20228977Y-13397615D01*
X20171870Y-13437872D01*
X20131872Y-13444500D01*
X9135682Y-13444500D01*
X9027463Y-13473497D01*
X9027460Y-13473498D01*
X8930440Y-13529513D01*
X8930434Y-13529517D01*
X7838291Y-14621659D01*
X7776968Y-14655144D01*
X7707276Y-14650160D01*
X7651343Y-14608288D01*
X7650333Y-14606920D01*
X7589414Y-14523072D01*
X7466928Y-14400586D01*
X7326788Y-14298768D01*
X7172445Y-14220127D01*
X7007701Y-14166598D01*
X7007699Y-14166597D01*
X7007698Y-14166597D01*
X6876271Y-14145781D01*
X6836611Y-14139500D01*
X5863389Y-14139500D01*
X5823728Y-14145781D01*
X5692302Y-14166597D01*
X5527552Y-14220128D01*
X5373211Y-14298768D01*
X5321463Y-14336366D01*
X5233072Y-14400586D01*
X5233070Y-14400588D01*
X5233069Y-14400588D01*
X5110588Y-14523069D01*
X5110588Y-14523070D01*
X5110586Y-14523072D01*
X5078926Y-14566648D01*
X5008768Y-14663211D01*
X4930128Y-14817552D01*
X4876597Y-14982302D01*
X4849500Y-15153389D01*
X4849500Y-15326610D01*
X4865948Y-15430463D01*
X4876598Y-15497701D01*
X4922125Y-15637819D01*
X4930128Y-15662447D01*
X4948825Y-15699142D01*
X5008768Y-15816788D01*
X5110586Y-15956928D01*
X5233072Y-16079414D01*
X5373212Y-16181232D01*
X5527555Y-16259873D01*
X5692299Y-16313402D01*
X5863389Y-16340500D01*
X5863390Y-16340500D01*
X6836610Y-16340500D01*
X6836611Y-16340500D01*
X7007701Y-16313402D01*
X7172445Y-16259873D01*
X7326788Y-16181232D01*
X7466928Y-16079414D01*
X7589414Y-15956928D01*
X7691232Y-15816788D01*
X7733819Y-15733204D01*
X7781792Y-15682410D01*
X7844303Y-15665500D01*
X7877716Y-15665500D01*
X7877718Y-15665500D01*
X7985937Y-15636503D01*
X8082963Y-15580485D01*
X9331629Y-14331819D01*
X9392952Y-14298334D01*
X9419310Y-14295500D01*
X20278796Y-14295500D01*
X20345835Y-14315185D01*
X20391590Y-14367989D01*
X20401534Y-14437147D01*
X20372509Y-14500703D01*
X20366477Y-14507181D01*
X20350588Y-14523069D01*
X20350588Y-14523070D01*
X20350586Y-14523072D01*
X20318926Y-14566648D01*
X20248768Y-14663211D01*
X20170128Y-14817552D01*
X20116597Y-14982302D01*
X20089500Y-15153389D01*
X20089500Y-15326610D01*
X20105948Y-15430463D01*
X20116598Y-15497701D01*
X20170127Y-15662445D01*
X20229195Y-15778374D01*
X20242357Y-15804205D01*
X20255253Y-15872874D01*
X20228977Y-15937615D01*
X20171870Y-15977872D01*
X20131872Y-15984500D01*
X9135682Y-15984500D01*
X9027463Y-16013497D01*
X9027460Y-16013498D01*
X8930440Y-16069513D01*
X8930434Y-16069517D01*
X7838291Y-17161659D01*
X7776968Y-17195144D01*
X7707276Y-17190160D01*
X7651343Y-17148288D01*
X7650333Y-17146920D01*
X7589414Y-17063072D01*
X7466928Y-16940586D01*
X7326788Y-16838768D01*
X7189642Y-16768889D01*
X7172447Y-16760128D01*
X7172446Y-16760127D01*
X7172445Y-16760127D01*
X7007701Y-16706598D01*
X7007699Y-16706597D01*
X7007698Y-16706597D01*
X6861241Y-16683401D01*
X6836611Y-16679500D01*
X5863389Y-16679500D01*
X5838759Y-16683401D01*
X5692302Y-16706597D01*
X5527552Y-16760128D01*
X5373211Y-16838768D01*
X5327721Y-16871819D01*
X5233072Y-16940586D01*
X5233070Y-16940588D01*
X5233069Y-16940588D01*
X5110588Y-17063069D01*
X5110588Y-17063070D01*
X5110586Y-17063072D01*
X5088677Y-17093227D01*
X5008768Y-17203211D01*
X4930128Y-17357552D01*
X4876597Y-17522302D01*
X4875215Y-17531028D01*
X4849500Y-17693389D01*
X4849500Y-17866611D01*
X4876598Y-18037701D01*
X4921697Y-18176501D01*
X4930128Y-18202447D01*
X4945132Y-18231894D01*
X5008768Y-18356788D01*
X5110586Y-18496928D01*
X5233072Y-18619414D01*
X5373212Y-18721232D01*
X5527555Y-18799873D01*
X5692299Y-18853402D01*
X5863389Y-18880500D01*
X5863390Y-18880500D01*
X6836610Y-18880500D01*
X6836611Y-18880500D01*
X7007701Y-18853402D01*
X7172445Y-18799873D01*
X7326788Y-18721232D01*
X7466928Y-18619414D01*
X7589414Y-18496928D01*
X7691232Y-18356788D01*
X7733819Y-18273204D01*
X7781792Y-18222410D01*
X7844303Y-18205500D01*
X7877716Y-18205500D01*
X7877718Y-18205500D01*
X7985937Y-18176503D01*
X8082963Y-18120485D01*
X9331629Y-16871819D01*
X9392952Y-16838334D01*
X9419310Y-16835500D01*
X20278796Y-16835500D01*
X20345835Y-16855185D01*
X20391590Y-16907989D01*
X20401534Y-16977147D01*
X20372509Y-17040703D01*
X20366477Y-17047181D01*
X20350588Y-17063069D01*
X20350588Y-17063070D01*
X20350586Y-17063072D01*
X20328677Y-17093227D01*
X20248768Y-17203211D01*
X20170128Y-17357552D01*
X20116597Y-17522302D01*
X20115215Y-17531028D01*
X20089500Y-17693389D01*
X20089500Y-17866611D01*
X20116598Y-18037701D01*
X20170127Y-18202445D01*
X20219032Y-18298428D01*
X20242357Y-18344205D01*
X20255253Y-18412874D01*
X20228977Y-18477615D01*
X20171870Y-18517872D01*
X20131872Y-18524500D01*
X9135682Y-18524500D01*
X9027463Y-18553497D01*
X9027460Y-18553498D01*
X8930440Y-18609513D01*
X8930434Y-18609517D01*
X7838291Y-19701659D01*
X7776968Y-19735144D01*
X7707276Y-19730160D01*
X7651343Y-19688288D01*
X7650333Y-19686920D01*
X7589414Y-19603072D01*
X7466928Y-19480586D01*
X7326788Y-19378768D01*
X7172445Y-19300127D01*
X7007701Y-19246598D01*
X7007699Y-19246597D01*
X7007698Y-19246597D01*
X6876271Y-19225781D01*
X6836611Y-19219500D01*
X5863389Y-19219500D01*
X5823728Y-19225781D01*
X5692302Y-19246597D01*
X5527552Y-19300128D01*
X5373211Y-19378768D01*
X5293256Y-19436859D01*
X5233072Y-19480586D01*
X5233070Y-19480588D01*
X5233069Y-19480588D01*
X5110588Y-19603069D01*
X5110588Y-19603070D01*
X5110586Y-19603072D01*
X5078915Y-19646663D01*
X5008768Y-19743211D01*
X4930128Y-19897552D01*
X4876597Y-20062302D01*
X4849500Y-20233389D01*
X4849500Y-20406610D01*
X4875584Y-20571304D01*
X4876598Y-20577701D01*
X4927545Y-20734500D01*
X4930128Y-20742447D01*
X4945884Y-20773370D01*
X5008768Y-20896788D01*
X5110586Y-21036928D01*
X5233072Y-21159414D01*
X5373212Y-21261232D01*
X5527555Y-21339873D01*
X5692299Y-21393402D01*
X5863389Y-21420500D01*
X5863390Y-21420500D01*
X6836610Y-21420500D01*
X6836611Y-21420500D01*
X7007701Y-21393402D01*
X7172445Y-21339873D01*
X7326788Y-21261232D01*
X7466928Y-21159414D01*
X7589414Y-21036928D01*
X7691232Y-20896788D01*
X7733819Y-20813204D01*
X7781792Y-20762410D01*
X7844303Y-20745500D01*
X7877716Y-20745500D01*
X7877718Y-20745500D01*
X7985937Y-20716503D01*
X8082963Y-20660485D01*
X9331629Y-19411819D01*
X9392952Y-19378334D01*
X9419310Y-19375500D01*
X20278796Y-19375500D01*
X20345835Y-19395185D01*
X20391590Y-19447989D01*
X20401534Y-19517147D01*
X20372509Y-19580703D01*
X20366477Y-19587181D01*
X20350588Y-19603069D01*
X20350588Y-19603070D01*
X20350586Y-19603072D01*
X20318915Y-19646663D01*
X20248768Y-19743211D01*
X20170128Y-19897552D01*
X20116597Y-20062302D01*
X20089500Y-20233389D01*
X20089500Y-20406610D01*
X20115584Y-20571304D01*
X20116598Y-20577701D01*
X20170127Y-20742445D01*
X20230350Y-20860641D01*
X20242357Y-20884205D01*
X20255253Y-20952874D01*
X20228977Y-21017615D01*
X20171870Y-21057872D01*
X20131872Y-21064500D01*
X9135682Y-21064500D01*
X9027463Y-21093497D01*
X9027460Y-21093498D01*
X8930440Y-21149513D01*
X8930434Y-21149517D01*
X7838291Y-22241659D01*
X7776968Y-22275144D01*
X7707276Y-22270160D01*
X7651343Y-22228288D01*
X7650333Y-22226920D01*
X7589414Y-22143072D01*
X7466928Y-22020586D01*
X7326788Y-21918768D01*
X7172445Y-21840127D01*
X7007701Y-21786598D01*
X7007699Y-21786597D01*
X7007698Y-21786597D01*
X6841428Y-21760263D01*
X6836611Y-21759500D01*
X5863389Y-21759500D01*
X5858572Y-21760263D01*
X5692302Y-21786597D01*
X5527552Y-21840128D01*
X5373211Y-21918768D01*
X5328979Y-21950905D01*
X5233072Y-22020586D01*
X5233070Y-22020588D01*
X5233069Y-22020588D01*
X5110588Y-22143069D01*
X5110588Y-22143070D01*
X5110586Y-22143072D01*
X5083261Y-22180682D01*
X5008768Y-22283211D01*
X4930128Y-22437552D01*
X4876597Y-22602302D01*
X4852871Y-22752107D01*
X4849500Y-22773389D01*
X4849500Y-22946611D01*
X4876598Y-23117701D01*
X4921697Y-23256501D01*
X4930128Y-23282447D01*
X4945904Y-23313410D01*
X5008768Y-23436788D01*
X5110586Y-23576928D01*
X5233072Y-23699414D01*
X5373212Y-23801232D01*
X5527555Y-23879873D01*
X5692299Y-23933402D01*
X5863389Y-23960500D01*
X5863390Y-23960500D01*
X6836610Y-23960500D01*
X6836611Y-23960500D01*
X7007701Y-23933402D01*
X7172445Y-23879873D01*
X7326788Y-23801232D01*
X7466928Y-23699414D01*
X7589414Y-23576928D01*
X7691232Y-23436788D01*
X7733819Y-23353204D01*
X7781792Y-23302410D01*
X7844303Y-23285500D01*
X7877716Y-23285500D01*
X7877718Y-23285500D01*
X7985937Y-23256503D01*
X8082963Y-23200485D01*
X9331629Y-21951819D01*
X9392952Y-21918334D01*
X9419310Y-21915500D01*
X20278796Y-21915500D01*
X20345835Y-21935185D01*
X20391590Y-21987989D01*
X20401534Y-22057147D01*
X20372509Y-22120703D01*
X20366477Y-22127181D01*
X20350588Y-22143069D01*
X20350588Y-22143070D01*
X20350586Y-22143072D01*
X20323261Y-22180682D01*
X20248768Y-22283211D01*
X20170128Y-22437552D01*
X20116597Y-22602302D01*
X20092871Y-22752107D01*
X20089500Y-22773389D01*
X20089500Y-22946611D01*
X20116598Y-23117701D01*
X20161697Y-23256501D01*
X20170128Y-23282447D01*
X20242357Y-23424205D01*
X20255253Y-23492874D01*
X20228977Y-23557615D01*
X20171870Y-23597872D01*
X20131872Y-23604500D01*
X9135682Y-23604500D01*
X9027463Y-23633497D01*
X9027460Y-23633498D01*
X8930440Y-23689513D01*
X8930434Y-23689517D01*
X7838291Y-24781659D01*
X7776968Y-24815144D01*
X7707276Y-24810160D01*
X7651343Y-24768288D01*
X7650293Y-24766865D01*
X7589414Y-24683072D01*
X7466928Y-24560586D01*
X7326788Y-24458768D01*
X7172445Y-24380127D01*
X7007701Y-24326598D01*
X7007699Y-24326597D01*
X7007698Y-24326597D01*
X6876271Y-24305781D01*
X6836611Y-24299500D01*
X5863389Y-24299500D01*
X5823728Y-24305781D01*
X5692302Y-24326597D01*
X5527552Y-24380128D01*
X5373211Y-24458768D01*
X5327721Y-24491819D01*
X5233072Y-24560586D01*
X5233070Y-24560588D01*
X5233069Y-24560588D01*
X5110588Y-24683069D01*
X5110588Y-24683070D01*
X5110586Y-24683072D01*
X5092613Y-24707810D01*
X5008768Y-24823211D01*
X4930128Y-24977552D01*
X4876597Y-25142302D01*
X4849500Y-25313389D01*
X4849500Y-25486610D01*
X4874538Y-25644699D01*
X4876598Y-25657701D01*
X4921697Y-25796501D01*
X4930128Y-25822447D01*
X4942632Y-25846987D01*
X5008768Y-25976788D01*
X5110586Y-26116928D01*
X5233072Y-26239414D01*
X5373212Y-26341232D01*
X5527555Y-26419873D01*
X5692299Y-26473402D01*
X5863389Y-26500500D01*
X5863390Y-26500500D01*
X6836610Y-26500500D01*
X6836611Y-26500500D01*
X7007701Y-26473402D01*
X7172445Y-26419873D01*
X7326788Y-26341232D01*
X7466928Y-26239414D01*
X7589414Y-26116928D01*
X7691232Y-25976788D01*
X7733819Y-25893204D01*
X7781792Y-25842410D01*
X7844303Y-25825500D01*
X7877716Y-25825500D01*
X7877718Y-25825500D01*
X7985937Y-25796503D01*
X8082963Y-25740485D01*
X9331629Y-24491819D01*
X9392952Y-24458334D01*
X9419310Y-24455500D01*
X20278796Y-24455500D01*
X20345835Y-24475185D01*
X20391590Y-24527989D01*
X20401534Y-24597147D01*
X20372509Y-24660703D01*
X20366477Y-24667181D01*
X20350588Y-24683069D01*
X20350588Y-24683070D01*
X20350586Y-24683072D01*
X20332613Y-24707810D01*
X20248768Y-24823211D01*
X20170128Y-24977552D01*
X20116597Y-25142302D01*
X20089500Y-25313389D01*
X20089500Y-25486610D01*
X20114538Y-25644699D01*
X20116598Y-25657701D01*
X20161697Y-25796501D01*
X20170128Y-25822447D01*
X20242357Y-25964205D01*
X20255253Y-26032874D01*
X20228977Y-26097615D01*
X20171870Y-26137872D01*
X20131872Y-26144500D01*
X9135682Y-26144500D01*
X9027463Y-26173497D01*
X9027460Y-26173498D01*
X8930440Y-26229513D01*
X8930434Y-26229517D01*
X7838291Y-27321659D01*
X7776968Y-27355144D01*
X7707276Y-27350160D01*
X7651343Y-27308288D01*
X7650333Y-27306920D01*
X7589414Y-27223072D01*
X7466928Y-27100586D01*
X7326788Y-26998768D01*
X7172445Y-26920127D01*
X7007701Y-26866598D01*
X7007699Y-26866597D01*
X7007698Y-26866597D01*
X6876271Y-26845781D01*
X6836611Y-26839500D01*
X5863389Y-26839500D01*
X5823728Y-26845781D01*
X5692302Y-26866597D01*
X5692299Y-26866598D01*
X5605251Y-26894882D01*
X5527552Y-26920128D01*
X5373211Y-26998768D01*
X5327721Y-27031819D01*
X5233072Y-27100586D01*
X5233070Y-27100588D01*
X5233069Y-27100588D01*
X5110588Y-27223069D01*
X5110588Y-27223070D01*
X5110586Y-27223072D01*
X5110582Y-27223078D01*
X5008768Y-27363211D01*
X4930128Y-27517552D01*
X4876597Y-27682302D01*
X4861795Y-27775760D01*
X4849500Y-27853389D01*
X4849500Y-28026611D01*
X4876598Y-28197701D01*
X4930127Y-28362445D01*
X5008768Y-28516788D01*
X5110586Y-28656928D01*
X5233072Y-28779414D01*
X5373212Y-28881232D01*
X5527555Y-28959873D01*
X5692299Y-29013402D01*
X5863389Y-29040500D01*
X5863390Y-29040500D01*
X6836610Y-29040500D01*
X6836611Y-29040500D01*
X7007701Y-29013402D01*
X7172445Y-28959873D01*
X7326788Y-28881232D01*
X7466928Y-28779414D01*
X7589414Y-28656928D01*
X7691232Y-28516788D01*
X7733819Y-28433204D01*
X7781792Y-28382410D01*
X7844303Y-28365500D01*
X7877716Y-28365500D01*
X7877718Y-28365500D01*
X7985937Y-28336503D01*
X8082963Y-28280485D01*
X9331629Y-27031819D01*
X9392952Y-26998334D01*
X9419310Y-26995500D01*
X20278796Y-26995500D01*
X20345835Y-27015185D01*
X20391590Y-27067989D01*
X20401534Y-27137147D01*
X20372509Y-27200703D01*
X20366477Y-27207181D01*
X20350588Y-27223069D01*
X20350588Y-27223070D01*
X20350586Y-27223072D01*
X20350582Y-27223078D01*
X20248768Y-27363211D01*
X20170128Y-27517552D01*
X20116597Y-27682302D01*
X20101795Y-27775760D01*
X20089500Y-27853389D01*
X20089500Y-28026611D01*
X20116598Y-28197701D01*
X20170127Y-28362445D01*
X20241593Y-28502706D01*
X20254489Y-28571374D01*
X20228213Y-28636115D01*
X20171106Y-28676372D01*
X20131108Y-28683000D01*
X9137182Y-28683000D01*
X9028963Y-28711997D01*
X9028960Y-28711998D01*
X8931940Y-28768013D01*
X8931934Y-28768017D01*
X7838291Y-29861659D01*
X7776968Y-29895144D01*
X7707276Y-29890160D01*
X7651343Y-29848288D01*
X7650333Y-29846920D01*
X7589414Y-29763072D01*
X7466928Y-29640586D01*
X7326788Y-29538768D01*
X7283282Y-29516601D01*
X7172447Y-29460128D01*
X7172446Y-29460127D01*
X7172445Y-29460127D01*
X7007701Y-29406598D01*
X7007699Y-29406597D01*
X7007698Y-29406597D01*
X6876271Y-29385781D01*
X6836611Y-29379500D01*
X5863389Y-29379500D01*
X5823728Y-29385781D01*
X5692302Y-29406597D01*
X5527552Y-29460128D01*
X5373211Y-29538768D01*
X5311400Y-29583677D01*
X5233072Y-29640586D01*
X5233070Y-29640588D01*
X5233069Y-29640588D01*
X5110588Y-29763069D01*
X5110588Y-29763070D01*
X5110586Y-29763072D01*
X5089871Y-29791584D01*
X5008768Y-29903211D01*
X4930128Y-30057552D01*
X4876597Y-30222302D01*
X4849500Y-30393389D01*
X4849500Y-30566610D01*
X4872779Y-30713593D01*
X4876598Y-30737701D01*
X4930127Y-30902445D01*
X5008768Y-31056788D01*
X5110586Y-31196928D01*
X5233072Y-31319414D01*
X5373212Y-31421232D01*
X5527555Y-31499873D01*
X5692299Y-31553402D01*
X5863389Y-31580500D01*
X5863390Y-31580500D01*
X6836610Y-31580500D01*
X6836611Y-31580500D01*
X7007701Y-31553402D01*
X7172445Y-31499873D01*
X7326788Y-31421232D01*
X7466928Y-31319414D01*
X7589414Y-31196928D01*
X7691232Y-31056788D01*
X7733819Y-30973204D01*
X7781792Y-30922410D01*
X7844303Y-30905500D01*
X7877716Y-30905500D01*
X7877718Y-30905500D01*
X7985937Y-30876503D01*
X8082963Y-30820485D01*
X9333129Y-29570319D01*
X9394452Y-29536834D01*
X9420810Y-29534000D01*
X20280296Y-29534000D01*
X20347335Y-29553685D01*
X20393090Y-29606489D01*
X20403034Y-29675647D01*
X20374009Y-29739203D01*
X20367977Y-29745681D01*
X20350588Y-29763069D01*
X20350588Y-29763070D01*
X20350586Y-29763072D01*
X20329871Y-29791584D01*
X20248768Y-29903211D01*
X20170128Y-30057552D01*
X20116597Y-30222302D01*
X20089500Y-30393389D01*
X20089500Y-30566610D01*
X20112779Y-30713593D01*
X20116598Y-30737701D01*
X20170127Y-30902445D01*
X20238595Y-31036823D01*
X20242357Y-31044205D01*
X20255253Y-31112874D01*
X20228977Y-31177615D01*
X20171870Y-31217872D01*
X20131872Y-31224500D01*
X9135682Y-31224500D01*
X9027463Y-31253497D01*
X9027460Y-31253498D01*
X8930440Y-31309513D01*
X8930434Y-31309517D01*
X7838291Y-32401659D01*
X7776968Y-32435144D01*
X7707276Y-32430160D01*
X7651343Y-32388288D01*
X7650333Y-32386920D01*
X7589414Y-32303072D01*
X7466928Y-32180586D01*
X7326788Y-32078768D01*
X7172445Y-32000127D01*
X7007701Y-31946598D01*
X7007699Y-31946597D01*
X7007698Y-31946597D01*
X6876271Y-31925781D01*
X6836611Y-31919500D01*
X5863389Y-31919500D01*
X5823728Y-31925781D01*
X5692302Y-31946597D01*
X5527552Y-32000128D01*
X5373211Y-32078768D01*
X5327721Y-32111819D01*
X5233072Y-32180586D01*
X5233070Y-32180588D01*
X5233069Y-32180588D01*
X5110588Y-32303069D01*
X5110588Y-32303070D01*
X5110586Y-32303072D01*
X5081482Y-32343130D01*
X5008768Y-32443211D01*
X4930128Y-32597552D01*
X4930127Y-32597554D01*
X4930127Y-32597555D01*
X4921698Y-32623497D01*
X4876597Y-32762302D01*
X4849500Y-32933389D01*
X4849500Y-33106608D01*
X4849499Y-33106608D01*
X4876545Y-33277368D01*
X4876598Y-33277701D01*
X4921697Y-33416501D01*
X4930128Y-33442447D01*
X4943557Y-33468803D01*
X5008768Y-33596788D01*
X5110586Y-33736928D01*
X5233072Y-33859414D01*
X5373212Y-33961232D01*
X5527555Y-34039873D01*
X5692299Y-34093402D01*
X5863389Y-34120500D01*
X5863390Y-34120500D01*
X6836610Y-34120500D01*
X6836611Y-34120500D01*
X7007701Y-34093402D01*
X7172445Y-34039873D01*
X7326788Y-33961232D01*
X7466928Y-33859414D01*
X7589414Y-33736928D01*
X7691232Y-33596788D01*
X7733819Y-33513204D01*
X7781792Y-33462410D01*
X7844303Y-33445500D01*
X7877716Y-33445500D01*
X7877718Y-33445500D01*
X7985937Y-33416503D01*
X8082963Y-33360485D01*
X9331629Y-32111819D01*
X9392952Y-32078334D01*
X9419310Y-32075500D01*
X20278796Y-32075500D01*
X20345835Y-32095185D01*
X20391590Y-32147989D01*
X20401534Y-32217147D01*
X20372509Y-32280703D01*
X20366477Y-32287181D01*
X20350588Y-32303069D01*
X20350588Y-32303070D01*
X20350586Y-32303072D01*
X20321482Y-32343130D01*
X20248768Y-32443211D01*
X20170128Y-32597552D01*
X20170127Y-32597554D01*
X20170127Y-32597555D01*
X20161698Y-32623497D01*
X20116597Y-32762302D01*
X20089500Y-32933389D01*
X20089500Y-33106608D01*
X20089499Y-33106608D01*
X20116545Y-33277368D01*
X20116598Y-33277701D01*
X20170127Y-33442445D01*
X20195089Y-33491437D01*
X20242357Y-33584205D01*
X20255253Y-33652874D01*
X20228977Y-33717615D01*
X20171870Y-33757872D01*
X20131872Y-33764500D01*
X9135682Y-33764500D01*
X9027463Y-33793497D01*
X9027460Y-33793498D01*
X8930440Y-33849513D01*
X8930434Y-33849517D01*
X7838291Y-34941659D01*
X7776968Y-34975144D01*
X7707276Y-34970160D01*
X7651343Y-34928288D01*
X7650333Y-34926920D01*
X7589414Y-34843072D01*
X7466928Y-34720586D01*
X7326788Y-34618768D01*
X7172445Y-34540127D01*
X7007701Y-34486598D01*
X7007699Y-34486597D01*
X7007698Y-34486597D01*
X6876271Y-34465781D01*
X6836611Y-34459500D01*
X5863389Y-34459500D01*
X5823728Y-34465781D01*
X5692302Y-34486597D01*
X5692299Y-34486598D01*
X5547428Y-34533670D01*
X5527552Y-34540128D01*
X5373211Y-34618768D01*
X5303801Y-34669198D01*
X5233072Y-34720586D01*
X5233070Y-34720588D01*
X5233069Y-34720588D01*
X5110588Y-34843069D01*
X5110588Y-34843070D01*
X5110586Y-34843072D01*
X5066859Y-34903256D01*
X5008768Y-34983211D01*
X4930128Y-35137552D01*
X4876597Y-35302302D01*
X4852707Y-35453141D01*
X4849500Y-35473389D01*
X4849500Y-35646611D01*
X4855739Y-35686000D01*
X4869136Y-35770591D01*
X4876598Y-35817701D01*
X4924723Y-35965814D01*
X4930128Y-35982447D01*
X4948984Y-36019454D01*
X5008768Y-36136788D01*
X5110586Y-36276928D01*
X5233072Y-36399414D01*
X5373212Y-36501232D01*
X5527555Y-36579873D01*
X5692299Y-36633402D01*
X5863389Y-36660500D01*
X5863390Y-36660500D01*
X6836610Y-36660500D01*
X6836611Y-36660500D01*
X7007701Y-36633402D01*
X7172445Y-36579873D01*
X7326788Y-36501232D01*
X7466928Y-36399414D01*
X7589414Y-36276928D01*
X7691232Y-36136788D01*
X7733819Y-36053204D01*
X7781792Y-36002410D01*
X7844303Y-35985500D01*
X7877716Y-35985500D01*
X7877718Y-35985500D01*
X7985937Y-35956503D01*
X8082963Y-35900485D01*
X9331629Y-34651819D01*
X9392952Y-34618334D01*
X9419310Y-34615500D01*
X20278796Y-34615500D01*
X20345835Y-34635185D01*
X20391590Y-34687989D01*
X20401534Y-34757147D01*
X20372509Y-34820703D01*
X20366477Y-34827181D01*
X20350588Y-34843069D01*
X20350588Y-34843070D01*
X20350586Y-34843072D01*
X20306859Y-34903256D01*
X20248768Y-34983211D01*
X20170128Y-35137552D01*
X20116597Y-35302302D01*
X20092707Y-35453141D01*
X20089500Y-35473389D01*
X20089500Y-35646611D01*
X20095739Y-35686000D01*
X20109136Y-35770591D01*
X20116598Y-35817701D01*
X20164723Y-35965814D01*
X20170128Y-35982447D01*
X20242357Y-36124205D01*
X20255253Y-36192874D01*
X20228977Y-36257615D01*
X20171870Y-36297872D01*
X20131872Y-36304500D01*
X9135682Y-36304500D01*
X9027463Y-36333497D01*
X9027460Y-36333498D01*
X8930440Y-36389513D01*
X8930434Y-36389517D01*
X7838291Y-37481659D01*
X7776968Y-37515144D01*
X7707276Y-37510160D01*
X7651343Y-37468288D01*
X7650333Y-37466920D01*
X7589414Y-37383072D01*
X7466928Y-37260586D01*
X7326788Y-37158768D01*
X7172445Y-37080127D01*
X7007701Y-37026598D01*
X7007699Y-37026597D01*
X7007698Y-37026597D01*
X6876271Y-37005781D01*
X6836611Y-36999500D01*
X5863389Y-36999500D01*
X5823728Y-37005781D01*
X5692302Y-37026597D01*
X5527552Y-37080128D01*
X5373211Y-37158768D01*
X5327721Y-37191819D01*
X5233072Y-37260586D01*
X5233070Y-37260588D01*
X5233069Y-37260588D01*
X5110588Y-37383069D01*
X5110588Y-37383070D01*
X5110586Y-37383072D01*
X5097328Y-37401320D01*
X5008768Y-37523211D01*
X4930128Y-37677552D01*
X4876597Y-37842302D01*
X4849500Y-38013389D01*
X4849500Y-38186610D01*
X4874953Y-38347319D01*
X4876598Y-38357701D01*
X4921697Y-38496501D01*
X4930128Y-38522447D01*
X4945904Y-38553410D01*
X5008768Y-38676788D01*
X5110586Y-38816928D01*
X5233072Y-38939414D01*
X5373212Y-39041232D01*
X5527555Y-39119873D01*
X5692299Y-39173402D01*
X5863389Y-39200500D01*
X5863390Y-39200500D01*
X6836610Y-39200500D01*
X6836611Y-39200500D01*
X7007701Y-39173402D01*
X7172445Y-39119873D01*
X7326788Y-39041232D01*
X7466928Y-38939414D01*
X7589414Y-38816928D01*
X7691232Y-38676788D01*
X7733819Y-38593204D01*
X7781792Y-38542410D01*
X7844303Y-38525500D01*
X7877716Y-38525500D01*
X7877718Y-38525500D01*
X7985937Y-38496503D01*
X8082963Y-38440485D01*
X9331629Y-37191819D01*
X9392952Y-37158334D01*
X9419310Y-37155500D01*
X20278796Y-37155500D01*
X20345835Y-37175185D01*
X20391590Y-37227989D01*
X20401534Y-37297147D01*
X20372509Y-37360703D01*
X20366477Y-37367181D01*
X20350588Y-37383069D01*
X20350588Y-37383070D01*
X20350586Y-37383072D01*
X20337328Y-37401320D01*
X20248768Y-37523211D01*
X20170128Y-37677552D01*
X20116597Y-37842302D01*
X20089500Y-38013389D01*
X20089500Y-38186610D01*
X20114953Y-38347319D01*
X20116598Y-38357701D01*
X20161697Y-38496501D01*
X20170128Y-38522447D01*
X20185904Y-38553410D01*
X20248768Y-38676788D01*
X20300227Y-38747615D01*
X20323707Y-38813420D01*
X20307882Y-38881474D01*
X20257777Y-38930169D01*
X20199909Y-38944500D01*
X9147718Y-38944500D01*
X9035681Y-38944500D01*
X9034797Y-38944737D01*
X8927461Y-38973497D01*
X8927460Y-38973498D01*
X8830440Y-39029513D01*
X8830434Y-39029517D01*
X8751213Y-39108739D01*
X7838292Y-40021659D01*
X7776969Y-40055144D01*
X7707277Y-40050160D01*
X7651344Y-40008288D01*
X7650294Y-40006864D01*
X7599640Y-39937147D01*
X7589414Y-39923072D01*
X7466928Y-39800586D01*
X7326788Y-39698768D01*
X7172445Y-39620127D01*
X7007701Y-39566598D01*
X7007699Y-39566597D01*
X7007698Y-39566597D01*
X6876271Y-39545781D01*
X6836611Y-39539500D01*
X5863389Y-39539500D01*
X5823728Y-39545781D01*
X5692302Y-39566597D01*
X5527552Y-39620128D01*
X5373211Y-39698768D01*
X5293256Y-39756859D01*
X5233072Y-39800586D01*
X5233070Y-39800588D01*
X5233069Y-39800588D01*
X5110588Y-39923069D01*
X5110588Y-39923070D01*
X5110586Y-39923072D01*
X5066964Y-39983113D01*
X5008768Y-40063211D01*
X4930128Y-40217552D01*
X4876597Y-40382302D01*
X4860236Y-40485606D01*
X4849500Y-40553389D01*
X4849500Y-40726611D01*
X4876598Y-40897701D01*
X4921697Y-41036501D01*
X4930128Y-41062447D01*
X4944285Y-41090232D01*
X5008768Y-41216788D01*
X5110586Y-41356928D01*
X5233072Y-41479414D01*
X5373212Y-41581232D01*
X5527555Y-41659873D01*
X5692299Y-41713402D01*
X5692302Y-41713402D01*
X5692303Y-41713403D01*
X5791615Y-41729132D01*
X5842277Y-41737156D01*
X5905412Y-41767085D01*
X5942344Y-41826396D01*
X5941346Y-41896259D01*
X5902737Y-41954492D01*
X5842279Y-41982102D01*
X5668997Y-42009548D01*
X5489362Y-42067914D01*
X5321059Y-42153670D01*
X5168258Y-42264685D01*
X5168253Y-42264689D01*
X5034689Y-42398253D01*
X5034685Y-42398258D01*
X4923670Y-42551059D01*
X4837914Y-42719362D01*
X4779548Y-42898997D01*
X4774638Y-42930000D01*
X6034314Y-42930000D01*
X6029920Y-42934394D01*
X5977259Y-43025606D01*
X5950000Y-43127339D01*
X5950000Y-43232661D01*
X5977259Y-43334394D01*
X6029920Y-43425606D01*
X6034314Y-43430000D01*
X4774638Y-43430000D01*
X4779548Y-43461002D01*
X4837914Y-43640637D01*
X4923670Y-43808940D01*
X4983934Y-43891887D01*
X5007414Y-43957693D01*
X4991589Y-44025747D01*
X4971297Y-44052453D01*
X2656937Y-46366815D01*
X2577717Y-46446034D01*
X2577713Y-46446040D01*
X2521698Y-46543060D01*
X2521697Y-46543063D01*
X2492700Y-46651282D01*
X2492700Y-47671182D01*
X2492700Y-47783218D01*
X2521697Y-47891437D01*
X2577715Y-47988463D01*
X6761337Y-52172085D01*
X6847077Y-52221587D01*
X6851636Y-52224219D01*
X6899852Y-52274786D01*
X6913075Y-52343393D01*
X6887107Y-52408258D01*
X6862522Y-52431923D01*
X6823078Y-52460581D01*
X6823069Y-52460588D01*
X6700588Y-52583069D01*
X6700588Y-52583070D01*
X6700586Y-52583072D01*
X6695384Y-52590232D01*
X6598768Y-52723211D01*
X6520128Y-52877552D01*
X6466597Y-53042302D01*
X6439500Y-53213389D01*
X6439500Y-53386610D01*
X6466597Y-53557698D01*
X6466598Y-53557702D01*
X6480099Y-53599254D01*
X6480280Y-53605621D01*
X6483334Y-53611213D01*
X6481266Y-53640123D01*
X6482094Y-53669095D01*
X6478804Y-53674550D01*
X6478350Y-53680905D01*
X6460980Y-53704106D01*
X6446013Y-53728928D01*
X6440294Y-53731739D01*
X6436478Y-53736838D01*
X6409325Y-53746965D01*
X6383312Y-53759755D01*
X6376982Y-53759028D01*
X6371014Y-53761255D01*
X6342693Y-53755094D01*
X6313898Y-53751790D01*
X6307404Y-53747417D01*
X6302741Y-53746403D01*
X6274487Y-53725252D01*
X6122662Y-53573427D01*
X6089177Y-53512104D01*
X6087870Y-53466352D01*
X6100500Y-53386611D01*
X6100500Y-53213389D01*
X6073402Y-53042299D01*
X6019873Y-52877555D01*
X5941232Y-52723212D01*
X5839414Y-52583072D01*
X5716928Y-52460586D01*
X5576788Y-52358768D01*
X5535569Y-52337766D01*
X5422447Y-52280128D01*
X5422446Y-52280127D01*
X5422445Y-52280127D01*
X5257701Y-52226598D01*
X5257699Y-52226597D01*
X5257698Y-52226597D01*
X5126271Y-52205781D01*
X5086611Y-52199500D01*
X4913389Y-52199500D01*
X4873728Y-52205781D01*
X4742302Y-52226597D01*
X4577552Y-52280128D01*
X4423211Y-52358768D01*
X4357370Y-52406605D01*
X4283072Y-52460586D01*
X4283070Y-52460588D01*
X4283069Y-52460588D01*
X4160588Y-52583069D01*
X4160588Y-52583070D01*
X4160586Y-52583072D01*
X4155384Y-52590232D01*
X4058768Y-52723211D01*
X3980128Y-52877552D01*
X3926597Y-53042302D01*
X3899500Y-53213389D01*
X3899500Y-53386610D01*
X3926597Y-53557697D01*
X3926597Y-53557699D01*
X3926598Y-53557701D01*
X3974168Y-53704106D01*
X3980128Y-53722447D01*
X4005991Y-53773206D01*
X4058768Y-53876788D01*
X4160586Y-54016928D01*
X4283072Y-54139414D01*
X4423212Y-54241232D01*
X4577555Y-54319873D01*
X4742299Y-54373402D01*
X4913389Y-54400500D01*
X4913390Y-54400500D01*
X5086609Y-54400500D01*
X5086611Y-54400500D01*
X5166350Y-54387870D01*
X5235641Y-54396824D01*
X5273427Y-54422662D01*
X5769139Y-54918374D01*
X5769149Y-54918385D01*
X5773479Y-54922715D01*
X5773480Y-54922716D01*
X5885284Y-55034520D01*
X5972095Y-55084639D01*
X5972097Y-55084641D01*
X6010151Y-55106611D01*
X6022215Y-55113577D01*
X6174943Y-55154501D01*
X6174946Y-55154501D01*
X6340654Y-55154501D01*
X6340670Y-55154500D01*
X9659331Y-55154500D01*
X9659347Y-55154501D01*
X9666943Y-55154501D01*
X9825054Y-55154501D01*
X9825057Y-55154501D01*
X9977785Y-55113577D01*
X10027904Y-55084639D01*
X10114716Y-55034520D01*
X10226520Y-54922716D01*
X10226520Y-54922714D01*
X10236728Y-54912507D01*
X10236730Y-54912504D01*
X10726573Y-54422660D01*
X10787894Y-54389177D01*
X10833646Y-54387870D01*
X10886715Y-54396275D01*
X10913386Y-54400500D01*
X10913389Y-54400500D01*
X11086610Y-54400500D01*
X11086611Y-54400500D01*
X11257701Y-54373402D01*
X11422445Y-54319873D01*
X11576788Y-54241232D01*
X11716928Y-54139414D01*
X11839414Y-54016928D01*
X11941232Y-53876788D01*
X12019873Y-53722445D01*
X12073402Y-53557701D01*
X12100500Y-53386611D01*
X12100500Y-53213389D01*
X12073402Y-53042299D01*
X12019873Y-52877555D01*
X11941232Y-52723212D01*
X11839414Y-52583072D01*
X11725123Y-52468781D01*
X11691638Y-52407458D01*
X11696622Y-52337766D01*
X11738494Y-52281833D01*
X11803958Y-52257416D01*
X11812804Y-52257100D01*
X12727196Y-52257100D01*
X12794235Y-52276785D01*
X12839990Y-52329589D01*
X12849934Y-52398747D01*
X12820909Y-52462303D01*
X12814877Y-52468781D01*
X12700588Y-52583069D01*
X12700588Y-52583070D01*
X12700586Y-52583072D01*
X12695384Y-52590232D01*
X12598768Y-52723211D01*
X12520128Y-52877552D01*
X12466597Y-53042302D01*
X12439500Y-53213389D01*
X12439500Y-53386610D01*
X12466597Y-53557697D01*
X12466597Y-53557699D01*
X12466598Y-53557701D01*
X12514168Y-53704106D01*
X12520128Y-53722447D01*
X12545991Y-53773206D01*
X12598768Y-53876788D01*
X12700586Y-54016928D01*
X12823072Y-54139414D01*
X12963212Y-54241232D01*
X13117555Y-54319873D01*
X13282299Y-54373402D01*
X13453389Y-54400500D01*
X13453390Y-54400500D01*
X13626610Y-54400500D01*
X13626611Y-54400500D01*
X13797701Y-54373402D01*
X13962445Y-54319873D01*
X14116788Y-54241232D01*
X14256928Y-54139414D01*
X14379414Y-54016928D01*
X14481232Y-53876788D01*
X14559873Y-53722445D01*
X14613402Y-53557701D01*
X14640500Y-53386611D01*
X14640500Y-53213389D01*
X14613402Y-53042299D01*
X14559873Y-52877555D01*
X14481232Y-52723212D01*
X14379414Y-52583072D01*
X14265123Y-52468781D01*
X14231638Y-52407458D01*
X14236622Y-52337766D01*
X14278494Y-52281833D01*
X14343958Y-52257416D01*
X14352804Y-52257100D01*
X15303990Y-52257100D01*
X15371029Y-52276785D01*
X15391671Y-52293419D01*
X15925335Y-52827083D01*
X15958820Y-52888406D01*
X15955585Y-52953081D01*
X15926598Y-53042295D01*
X15899500Y-53213389D01*
X15899500Y-53386610D01*
X15926597Y-53557697D01*
X15926597Y-53557699D01*
X15926598Y-53557701D01*
X15974168Y-53704106D01*
X15980128Y-53722447D01*
X16005991Y-53773206D01*
X16058768Y-53876788D01*
X16160586Y-54016928D01*
X16283072Y-54139414D01*
X16423212Y-54241232D01*
X16577555Y-54319873D01*
X16742299Y-54373402D01*
X16913389Y-54400500D01*
X16913390Y-54400500D01*
X17086610Y-54400500D01*
X17086611Y-54400500D01*
X17257701Y-54373402D01*
X17422445Y-54319873D01*
X17576788Y-54241232D01*
X17716928Y-54139414D01*
X17839414Y-54016928D01*
X17941232Y-53876788D01*
X18019873Y-53722445D01*
X18073402Y-53557701D01*
X18100500Y-53386611D01*
X18100500Y-53213389D01*
X18073402Y-53042299D01*
X18019873Y-52877555D01*
X17941232Y-52723212D01*
X17839414Y-52583072D01*
X17716928Y-52460586D01*
X17576788Y-52358768D01*
X17535569Y-52337766D01*
X17422447Y-52280128D01*
X17422446Y-52280127D01*
X17422445Y-52280127D01*
X17257701Y-52226598D01*
X17257699Y-52226597D01*
X17257698Y-52226597D01*
X17126271Y-52205781D01*
X17086611Y-52199500D01*
X16913389Y-52199500D01*
X16879171Y-52204919D01*
X16742295Y-52226598D01*
X16653081Y-52255585D01*
X16583240Y-52257580D01*
X16527083Y-52225335D01*
X15792865Y-51491117D01*
X15792863Y-51491115D01*
X15695837Y-51435097D01*
X15587618Y-51406100D01*
X15587617Y-51406100D01*
X7250210Y-51406100D01*
X7183171Y-51386415D01*
X7162529Y-51369781D01*
X5063433Y-49270685D01*
X5029948Y-49209362D01*
X5034932Y-49139670D01*
X5076804Y-49083737D01*
X5142268Y-49059320D01*
X5175762Y-49062519D01*
X5175786Y-49062339D01*
X5180833Y-49063003D01*
X5183209Y-49063230D01*
X5183842Y-49063400D01*
X5183843Y-49063400D01*
X10650431Y-49063400D01*
X10650447Y-49063401D01*
X10658043Y-49063401D01*
X10816154Y-49063401D01*
X10816157Y-49063401D01*
X10968885Y-49022477D01*
X11019004Y-48993539D01*
X11105816Y-48943420D01*
X11217620Y-48831616D01*
X11217620Y-48831614D01*
X11227828Y-48821407D01*
X11227830Y-48821404D01*
X11726573Y-48322660D01*
X11787894Y-48289177D01*
X11833646Y-48287870D01*
X11886715Y-48296275D01*
X11913386Y-48300500D01*
X11913389Y-48300500D01*
X12086610Y-48300500D01*
X12086611Y-48300500D01*
X12257701Y-48273402D01*
X12422445Y-48219873D01*
X12576788Y-48141232D01*
X12716928Y-48039414D01*
X12839414Y-47916928D01*
X12886868Y-47851613D01*
X12942197Y-47808949D01*
X12987185Y-47800500D01*
X13700231Y-47800500D01*
X13700247Y-47800501D01*
X13707843Y-47800501D01*
X13865954Y-47800501D01*
X13865957Y-47800501D01*
X14018685Y-47759577D01*
X14068804Y-47730639D01*
X14155616Y-47680520D01*
X14267420Y-47568716D01*
X14267420Y-47568714D01*
X14277628Y-47558507D01*
X14277629Y-47558504D01*
X15274516Y-46561619D01*
X15335839Y-46528134D01*
X15362197Y-46525300D01*
X15794635Y-46525300D01*
X15861674Y-46544985D01*
X15907429Y-46597789D01*
X15917373Y-46666947D01*
X15905120Y-46705595D01*
X15887914Y-46739362D01*
X15829548Y-46918997D01*
X15800000Y-47105552D01*
X15800000Y-47294447D01*
X15829548Y-47481002D01*
X15887914Y-47660637D01*
X15973666Y-47828933D01*
X15992116Y-47854328D01*
X16600000Y-47246444D01*
X16600000Y-47252661D01*
X16627259Y-47354394D01*
X16679920Y-47445606D01*
X16754394Y-47520080D01*
X16845606Y-47572741D01*
X16947339Y-47600000D01*
X16953554Y-47600000D01*
X16345669Y-48207882D01*
X16345670Y-48207883D01*
X16371059Y-48226329D01*
X16539362Y-48312085D01*
X16718997Y-48370451D01*
X16905553Y-48400000D01*
X17094447Y-48400000D01*
X17281002Y-48370451D01*
X17460637Y-48312085D01*
X17628937Y-48226331D01*
X17654328Y-48207883D01*
X17654328Y-48207882D01*
X17046447Y-47600000D01*
X17052661Y-47600000D01*
X17154394Y-47572741D01*
X17245606Y-47520080D01*
X17320080Y-47445606D01*
X17372741Y-47354394D01*
X17400000Y-47252661D01*
X17400000Y-47246446D01*
X18007882Y-47854328D01*
X18007883Y-47854328D01*
X18026331Y-47828937D01*
X18112085Y-47660637D01*
X18170451Y-47481002D01*
X18200000Y-47294447D01*
X18200000Y-47105552D01*
X18170451Y-46918997D01*
X18112085Y-46739362D01*
X18094880Y-46705595D01*
X18081984Y-46636926D01*
X18108260Y-46572185D01*
X18165367Y-46531928D01*
X18205365Y-46525300D01*
X18906307Y-46525300D01*
X18973346Y-46544985D01*
X19019101Y-46597789D01*
X19029045Y-46666947D01*
X19016792Y-46705594D01*
X18980129Y-46777549D01*
X18926597Y-46942302D01*
X18905197Y-47077418D01*
X18899500Y-47113389D01*
X18899500Y-47286611D01*
X18902170Y-47303466D01*
X18922012Y-47428751D01*
X18926598Y-47457701D01*
X18980127Y-47622445D01*
X19058768Y-47776788D01*
X19160586Y-47916928D01*
X19283072Y-48039414D01*
X19423212Y-48141232D01*
X19577555Y-48219873D01*
X19742299Y-48273402D01*
X19913389Y-48300500D01*
X19913390Y-48300500D01*
X20086610Y-48300500D01*
X20086611Y-48300500D01*
X20257701Y-48273402D01*
X20422445Y-48219873D01*
X20576788Y-48141232D01*
X20716928Y-48039414D01*
X20839414Y-47916928D01*
X20941232Y-47776788D01*
X21019873Y-47622445D01*
X21073402Y-47457701D01*
X21100500Y-47286611D01*
X21100500Y-47113389D01*
X21073402Y-46942299D01*
X21019873Y-46777555D01*
X21005833Y-46750000D01*
X20983208Y-46705594D01*
X20970312Y-46636925D01*
X20996589Y-46572185D01*
X21053695Y-46531928D01*
X21093693Y-46525300D01*
X23794635Y-46525300D01*
X23861674Y-46544985D01*
X23907429Y-46597789D01*
X23917373Y-46666947D01*
X23905120Y-46705595D01*
X23887914Y-46739362D01*
X23829548Y-46918997D01*
X23800000Y-47105552D01*
X23800000Y-47294447D01*
X23829548Y-47481002D01*
X23887914Y-47660637D01*
X23973666Y-47828933D01*
X23992116Y-47854328D01*
X24600000Y-47246444D01*
X24600000Y-47252661D01*
X24627259Y-47354394D01*
X24679920Y-47445606D01*
X24754394Y-47520080D01*
X24845606Y-47572741D01*
X24947339Y-47600000D01*
X24953554Y-47600000D01*
X24345669Y-48207882D01*
X24345670Y-48207883D01*
X24371059Y-48226329D01*
X24539362Y-48312085D01*
X24718997Y-48370451D01*
X24905553Y-48400000D01*
X25094447Y-48400000D01*
X25281002Y-48370451D01*
X25460637Y-48312085D01*
X25628937Y-48226331D01*
X25654328Y-48207883D01*
X25654328Y-48207882D01*
X25046447Y-47600000D01*
X25052661Y-47600000D01*
X25154394Y-47572741D01*
X25245606Y-47520080D01*
X25320080Y-47445606D01*
X25372741Y-47354394D01*
X25400000Y-47252661D01*
X25400000Y-47246446D01*
X26007882Y-47854328D01*
X26007883Y-47854328D01*
X26026331Y-47828937D01*
X26112085Y-47660637D01*
X26170451Y-47481002D01*
X26200000Y-47294447D01*
X26200000Y-47105552D01*
X26170451Y-46918997D01*
X26112085Y-46739362D01*
X26094880Y-46705595D01*
X26094371Y-46702889D01*
X26092571Y-46700811D01*
X26087962Y-46668761D01*
X26081984Y-46636926D01*
X26083018Y-46634376D01*
X26082627Y-46631653D01*
X26096080Y-46602194D01*
X26108260Y-46572185D01*
X26110509Y-46570599D01*
X26111652Y-46568097D01*
X26138895Y-46550588D01*
X26165367Y-46531928D01*
X26168823Y-46531355D01*
X26170430Y-46530323D01*
X26205365Y-46525300D01*
X26424703Y-46525300D01*
X26491742Y-46544985D01*
X26512384Y-46561619D01*
X26877336Y-46926571D01*
X26910821Y-46987894D01*
X26912128Y-47033648D01*
X26910235Y-47045606D01*
X26899500Y-47113389D01*
X26899500Y-47286616D01*
X26912128Y-47366349D01*
X26903173Y-47435642D01*
X26877336Y-47473427D01*
X22631286Y-51719478D01*
X22519481Y-51831282D01*
X22519479Y-51831284D01*
X22496618Y-51870881D01*
X22486956Y-51887618D01*
X22440423Y-51968215D01*
X22399499Y-52120943D01*
X22399499Y-52120945D01*
X22399499Y-52289046D01*
X22399500Y-52289059D01*
X22399500Y-52312814D01*
X22379815Y-52379853D01*
X22348387Y-52413131D01*
X22283072Y-52460585D01*
X22160588Y-52583069D01*
X22160588Y-52583070D01*
X22160586Y-52583072D01*
X22155384Y-52590232D01*
X22058768Y-52723211D01*
X21980128Y-52877552D01*
X21926597Y-53042302D01*
X21899500Y-53213389D01*
X21899500Y-53386610D01*
X21926597Y-53557697D01*
X21926597Y-53557699D01*
X21926598Y-53557701D01*
X21974168Y-53704106D01*
X21980128Y-53722447D01*
X22005991Y-53773206D01*
X22058768Y-53876788D01*
X22160586Y-54016928D01*
X22283072Y-54139414D01*
X22423212Y-54241232D01*
X22577555Y-54319873D01*
X22742299Y-54373402D01*
X22913389Y-54400500D01*
X22913390Y-54400500D01*
X23086610Y-54400500D01*
X23086611Y-54400500D01*
X23257701Y-54373402D01*
X23422445Y-54319873D01*
X23576788Y-54241232D01*
X23716928Y-54139414D01*
X23839414Y-54016928D01*
X23941232Y-53876788D01*
X24019873Y-53722445D01*
X24073402Y-53557701D01*
X24100500Y-53386611D01*
X24100500Y-53213389D01*
X24073402Y-53042299D01*
X24019873Y-52877555D01*
X23941232Y-52723212D01*
X23839414Y-52583072D01*
X23740469Y-52484127D01*
X23706984Y-52422804D01*
X23711968Y-52353112D01*
X23740469Y-52308765D01*
X25697661Y-50351573D01*
X27726573Y-48322660D01*
X27787894Y-48289177D01*
X27833646Y-48287870D01*
X27886715Y-48296275D01*
X27913386Y-48300500D01*
X27913389Y-48300500D01*
X28086610Y-48300500D01*
X28086611Y-48300500D01*
X28257701Y-48273402D01*
X28422445Y-48219873D01*
X28576788Y-48141232D01*
X28716928Y-48039414D01*
X28839414Y-47916928D01*
X28941232Y-47776788D01*
X29019873Y-47622445D01*
X29073402Y-47457701D01*
X29100500Y-47286611D01*
X29100500Y-47113389D01*
X29087870Y-47033649D01*
X29096824Y-46964358D01*
X29122659Y-46926575D01*
X29878617Y-46170619D01*
X29939940Y-46137134D01*
X29966298Y-46134300D01*
X31553990Y-46134300D01*
X31621029Y-46153985D01*
X31666784Y-46206789D01*
X31676728Y-46275947D01*
X31647703Y-46339503D01*
X31641671Y-46345981D01*
X25810739Y-52176911D01*
X25749416Y-52210396D01*
X25703659Y-52211703D01*
X25626615Y-52199500D01*
X25626611Y-52199500D01*
X25453389Y-52199500D01*
X25413728Y-52205781D01*
X25282302Y-52226597D01*
X25117552Y-52280128D01*
X24963211Y-52358768D01*
X24897370Y-52406605D01*
X24823072Y-52460586D01*
X24823070Y-52460588D01*
X24823069Y-52460588D01*
X24700588Y-52583069D01*
X24700588Y-52583070D01*
X24700586Y-52583072D01*
X24695384Y-52590232D01*
X24598768Y-52723211D01*
X24520128Y-52877552D01*
X24466597Y-53042302D01*
X24439500Y-53213389D01*
X24439500Y-53386610D01*
X24466597Y-53557697D01*
X24466597Y-53557699D01*
X24466598Y-53557701D01*
X24514168Y-53704106D01*
X24520128Y-53722447D01*
X24545991Y-53773206D01*
X24598768Y-53876788D01*
X24700586Y-54016928D01*
X24823072Y-54139414D01*
X24963212Y-54241232D01*
X25117555Y-54319873D01*
X25282299Y-54373402D01*
X25453389Y-54400500D01*
X25453390Y-54400500D01*
X25626610Y-54400500D01*
X25626611Y-54400500D01*
X25797701Y-54373402D01*
X25962445Y-54319873D01*
X26116788Y-54241232D01*
X26256928Y-54139414D01*
X26379414Y-54016928D01*
X26481232Y-53876788D01*
X26559873Y-53722445D01*
X26613402Y-53557701D01*
X26640500Y-53386611D01*
X26640500Y-53213389D01*
X26613402Y-53042299D01*
X26559873Y-52877555D01*
X26559871Y-52877552D01*
X26559871Y-52877550D01*
X26517644Y-52794676D01*
X26504747Y-52726006D01*
X26531023Y-52661266D01*
X26540438Y-52650708D01*
X29280776Y-49910371D01*
X46413899Y-49910371D01*
X46438897Y-50036038D01*
X46438899Y-50036044D01*
X46487933Y-50154424D01*
X46487938Y-50154433D01*
X46559123Y-50260968D01*
X46559126Y-50260972D01*
X46649727Y-50351573D01*
X46649731Y-50351576D01*
X46756266Y-50422761D01*
X46756272Y-50422764D01*
X46756273Y-50422765D01*
X46874656Y-50471801D01*
X46874660Y-50471801D01*
X46874661Y-50471802D01*
X47000328Y-50496800D01*
X47000331Y-50496800D01*
X47128471Y-50496800D01*
X47213015Y-50479982D01*
X47254144Y-50471801D01*
X47372527Y-50422765D01*
X47479069Y-50351576D01*
X47522525Y-50308120D01*
X47583848Y-50274634D01*
X47610207Y-50271800D01*
X49978293Y-50271800D01*
X50045332Y-50291485D01*
X50065975Y-50308120D01*
X50109427Y-50351573D01*
X50109431Y-50351576D01*
X50215966Y-50422761D01*
X50215972Y-50422764D01*
X50215973Y-50422765D01*
X50334356Y-50471801D01*
X50334360Y-50471801D01*
X50334361Y-50471802D01*
X50460028Y-50496800D01*
X50460031Y-50496800D01*
X50588171Y-50496800D01*
X50672715Y-50479982D01*
X50713844Y-50471801D01*
X50832227Y-50422765D01*
X50938769Y-50351576D01*
X51029376Y-50260969D01*
X51100565Y-50154427D01*
X51149601Y-50036044D01*
X51174600Y-49910369D01*
X51174600Y-49782231D01*
X51174600Y-49782228D01*
X51149602Y-49656561D01*
X51149601Y-49656560D01*
X51149601Y-49656556D01*
X51100565Y-49538173D01*
X51100564Y-49538172D01*
X51100561Y-49538166D01*
X51029376Y-49431631D01*
X51029373Y-49431627D01*
X50938772Y-49341026D01*
X50938768Y-49341023D01*
X50832233Y-49269838D01*
X50832224Y-49269833D01*
X50713844Y-49220799D01*
X50713838Y-49220797D01*
X50588171Y-49195800D01*
X50588169Y-49195800D01*
X50460031Y-49195800D01*
X50460029Y-49195800D01*
X50334361Y-49220797D01*
X50334355Y-49220799D01*
X50215975Y-49269833D01*
X50215966Y-49269838D01*
X50109431Y-49341023D01*
X50109427Y-49341026D01*
X50065975Y-49384480D01*
X50004652Y-49417966D01*
X49978293Y-49420800D01*
X47610207Y-49420800D01*
X47543168Y-49401115D01*
X47522525Y-49384480D01*
X47479072Y-49341026D01*
X47479068Y-49341023D01*
X47372533Y-49269838D01*
X47372524Y-49269833D01*
X47254144Y-49220799D01*
X47254138Y-49220797D01*
X47128471Y-49195800D01*
X47128469Y-49195800D01*
X47000331Y-49195800D01*
X47000329Y-49195800D01*
X46874661Y-49220797D01*
X46874655Y-49220799D01*
X46756275Y-49269833D01*
X46756266Y-49269838D01*
X46649731Y-49341023D01*
X46649727Y-49341026D01*
X46559126Y-49431627D01*
X46559123Y-49431631D01*
X46487938Y-49538166D01*
X46487933Y-49538175D01*
X46438899Y-49656555D01*
X46438897Y-49656561D01*
X46413900Y-49782228D01*
X46413900Y-49782231D01*
X46413900Y-49910369D01*
X46413900Y-49910371D01*
X46413899Y-49910371D01*
X29280776Y-49910371D01*
X31657186Y-47533961D01*
X31718505Y-47500479D01*
X31788197Y-47505463D01*
X31844130Y-47547335D01*
X31862794Y-47583326D01*
X31887915Y-47660638D01*
X31973666Y-47828933D01*
X31992116Y-47854328D01*
X32600000Y-47246444D01*
X32600000Y-47252661D01*
X32627259Y-47354394D01*
X32679920Y-47445606D01*
X32754394Y-47520080D01*
X32845606Y-47572741D01*
X32947339Y-47600000D01*
X32953554Y-47600000D01*
X32345669Y-48207882D01*
X32345670Y-48207883D01*
X32371059Y-48226329D01*
X32539362Y-48312085D01*
X32718997Y-48370451D01*
X32905553Y-48400000D01*
X33094447Y-48400000D01*
X33281002Y-48370451D01*
X33460637Y-48312085D01*
X33628937Y-48226331D01*
X33654328Y-48207883D01*
X33654328Y-48207882D01*
X33046447Y-47600000D01*
X33052661Y-47600000D01*
X33154394Y-47572741D01*
X33245606Y-47520080D01*
X33320080Y-47445606D01*
X33372741Y-47354394D01*
X33400000Y-47252661D01*
X33400000Y-47246446D01*
X34007882Y-47854328D01*
X34007883Y-47854328D01*
X34026331Y-47828937D01*
X34112085Y-47660637D01*
X34170451Y-47481002D01*
X34200000Y-47294447D01*
X34200000Y-47105552D01*
X34170451Y-46918997D01*
X34112085Y-46739363D01*
X34101861Y-46719297D01*
X34088964Y-46650628D01*
X34115239Y-46585887D01*
X34172345Y-46545629D01*
X34212345Y-46539000D01*
X34899327Y-46539000D01*
X34966366Y-46558685D01*
X35012121Y-46611489D01*
X35022065Y-46680647D01*
X35009812Y-46719295D01*
X34980128Y-46777552D01*
X34926597Y-46942302D01*
X34905197Y-47077418D01*
X34899500Y-47113389D01*
X34899500Y-47286611D01*
X34902170Y-47303466D01*
X34922012Y-47428751D01*
X34926598Y-47457701D01*
X34980127Y-47622445D01*
X35058768Y-47776788D01*
X35160586Y-47916928D01*
X35283072Y-48039414D01*
X35423212Y-48141232D01*
X35577555Y-48219873D01*
X35742299Y-48273402D01*
X35913389Y-48300500D01*
X35913390Y-48300500D01*
X36086609Y-48300500D01*
X36086611Y-48300500D01*
X36166349Y-48287870D01*
X36235639Y-48296824D01*
X36273426Y-48322662D01*
X36907784Y-48957020D01*
X36907786Y-48957021D01*
X36907790Y-48957024D01*
X37021158Y-49022476D01*
X37044716Y-49036077D01*
X37197443Y-49077001D01*
X37197445Y-49077001D01*
X37363154Y-49077001D01*
X37363170Y-49077000D01*
X42636831Y-49077000D01*
X42636847Y-49077001D01*
X42644443Y-49077001D01*
X42802554Y-49077001D01*
X42802557Y-49077001D01*
X42955285Y-49036077D01*
X43005404Y-49007139D01*
X43092216Y-48957020D01*
X43204020Y-48845216D01*
X43204020Y-48845214D01*
X43214228Y-48835007D01*
X43214229Y-48835004D01*
X43712416Y-48336819D01*
X43773739Y-48303334D01*
X43800097Y-48300500D01*
X44593097Y-48300500D01*
X44593102Y-48300500D01*
X44681564Y-48289877D01*
X44822342Y-48234361D01*
X44942922Y-48142922D01*
X44963575Y-48115687D01*
X44986317Y-48085698D01*
X45034360Y-48022343D01*
X45034359Y-48022343D01*
X45034361Y-48022342D01*
X45089877Y-47881564D01*
X45100500Y-47793102D01*
X45100500Y-47793085D01*
X45100689Y-47789932D01*
X45124344Y-47724188D01*
X45136787Y-47709658D01*
X45600000Y-47246445D01*
X45600000Y-47252661D01*
X45627259Y-47354394D01*
X45679920Y-47445606D01*
X45754394Y-47520080D01*
X45845606Y-47572741D01*
X45947339Y-47600000D01*
X45953554Y-47600000D01*
X45345669Y-48207882D01*
X45345670Y-48207883D01*
X45371059Y-48226329D01*
X45539362Y-48312085D01*
X45718997Y-48370451D01*
X45905553Y-48400000D01*
X46094447Y-48400000D01*
X46281002Y-48370451D01*
X46460637Y-48312085D01*
X46628937Y-48226331D01*
X46654328Y-48207883D01*
X46654328Y-48207882D01*
X46046447Y-47600000D01*
X46052661Y-47600000D01*
X46154394Y-47572741D01*
X46245606Y-47520080D01*
X46320080Y-47445606D01*
X46372741Y-47354394D01*
X46400000Y-47252661D01*
X46400000Y-47246446D01*
X47007882Y-47854328D01*
X47007883Y-47854328D01*
X47026331Y-47828937D01*
X47112085Y-47660637D01*
X47170452Y-47481002D01*
X47186570Y-47379240D01*
X47200000Y-47294447D01*
X47200000Y-47105552D01*
X47170451Y-46918997D01*
X47112085Y-46739362D01*
X47051519Y-46620495D01*
X47038623Y-46551826D01*
X47064899Y-46487085D01*
X47122005Y-46446828D01*
X47162004Y-46440200D01*
X50576000Y-46440200D01*
X50643039Y-46459885D01*
X50688794Y-46512689D01*
X50700000Y-46564200D01*
X50700000Y-46950000D01*
X51624722Y-46950000D01*
X51580667Y-47026306D01*
X51550000Y-47140756D01*
X51550000Y-47259244D01*
X51580667Y-47373694D01*
X51624722Y-47450000D01*
X50700001Y-47450000D01*
X50700001Y-48131479D01*
X50714835Y-48225149D01*
X50714837Y-48225155D01*
X50772356Y-48338041D01*
X50772363Y-48338050D01*
X50861949Y-48427636D01*
X50861953Y-48427639D01*
X50974855Y-48485166D01*
X51068514Y-48499999D01*
X51749999Y-48499999D01*
X51750000Y-48499998D01*
X51750000Y-47575277D01*
X51826306Y-47619333D01*
X51940756Y-47650000D01*
X52059244Y-47650000D01*
X52173694Y-47619333D01*
X52250000Y-47575277D01*
X52250000Y-48499999D01*
X52931479Y-48499999D01*
X53025149Y-48485164D01*
X53025155Y-48485162D01*
X53138041Y-48427643D01*
X53138050Y-48427636D01*
X53227636Y-48338050D01*
X53227639Y-48338046D01*
X53285166Y-48225144D01*
X53299999Y-48131485D01*
X53299999Y-47917333D01*
X53319683Y-47850293D01*
X53372487Y-47804538D01*
X53441645Y-47794594D01*
X53505201Y-47823619D01*
X53524316Y-47844446D01*
X53577273Y-47917333D01*
X53624310Y-47982073D01*
X53757927Y-48115690D01*
X53910801Y-48226760D01*
X53957392Y-48250499D01*
X54079163Y-48312545D01*
X54079165Y-48312545D01*
X54079168Y-48312547D01*
X54157658Y-48338050D01*
X54258881Y-48370940D01*
X54445514Y-48400500D01*
X54445519Y-48400500D01*
X54634486Y-48400500D01*
X54821118Y-48370940D01*
X54822623Y-48370451D01*
X55000832Y-48312547D01*
X55169199Y-48226760D01*
X55322073Y-48115690D01*
X55455690Y-47982073D01*
X55566760Y-47829199D01*
X55652547Y-47660832D01*
X55710940Y-47481118D01*
X55714649Y-47457701D01*
X55740500Y-47294486D01*
X55740500Y-47105513D01*
X55710940Y-46918881D01*
X55665018Y-46777549D01*
X55652547Y-46739168D01*
X55652545Y-46739165D01*
X55652545Y-46739163D01*
X55599153Y-46634376D01*
X55566760Y-46570801D01*
X55455690Y-46417927D01*
X55322073Y-46284310D01*
X55169199Y-46173240D01*
X55124789Y-46150612D01*
X55000836Y-46087454D01*
X54821118Y-46029059D01*
X54634486Y-45999500D01*
X54634481Y-45999500D01*
X54445519Y-45999500D01*
X54445514Y-45999500D01*
X54258880Y-46029060D01*
X54258877Y-46029060D01*
X54113722Y-46076225D01*
X54043881Y-46078220D01*
X53987723Y-46045975D01*
X53686629Y-45744881D01*
X53653144Y-45683558D01*
X53658128Y-45613866D01*
X53700000Y-45557933D01*
X53765464Y-45533516D01*
X53774310Y-45533200D01*
X59092790Y-45533200D01*
X59159829Y-45552885D01*
X59205584Y-45605689D01*
X59215528Y-45674847D01*
X59186503Y-45738403D01*
X59180471Y-45744881D01*
X46254020Y-58671330D01*
X46192697Y-58704815D01*
X46128021Y-58701580D01*
X45995265Y-58658445D01*
X45843356Y-58634385D01*
X45812514Y-58629500D01*
X45627486Y-58629500D01*
X45598279Y-58634126D01*
X45444734Y-58658445D01*
X45268767Y-58715619D01*
X45268764Y-58715620D01*
X45103903Y-58799622D01*
X45020784Y-58860012D01*
X44954213Y-58908379D01*
X44954211Y-58908381D01*
X44954210Y-58908381D01*
X44839201Y-59023391D01*
X44777878Y-59056876D01*
X44708186Y-59051892D01*
X44663839Y-59023391D01*
X40019965Y-54379517D01*
X40019963Y-54379515D01*
X39940561Y-54333672D01*
X39922939Y-54323498D01*
X39922938Y-54323497D01*
X39922937Y-54323497D01*
X39814718Y-54294500D01*
X39814717Y-54294500D01*
X37259122Y-54294500D01*
X37192083Y-54274815D01*
X37146328Y-54222011D01*
X37136384Y-54152853D01*
X37137226Y-54147750D01*
X37155500Y-54050000D01*
X37155500Y-52550000D01*
X37154197Y-52521812D01*
X37123472Y-52413827D01*
X37055814Y-52324233D01*
X37055813Y-52324232D01*
X36960360Y-52265130D01*
X36960361Y-52265130D01*
X36905179Y-52254815D01*
X36850000Y-52244500D01*
X36284174Y-52244500D01*
X36284166Y-52244500D01*
X36205106Y-52254909D01*
X36077932Y-52288986D01*
X36004265Y-52319499D01*
X36004249Y-52319507D01*
X35890250Y-52385325D01*
X35890232Y-52385337D01*
X35826971Y-52433880D01*
X35733880Y-52526971D01*
X35685337Y-52590232D01*
X35685325Y-52590250D01*
X35619507Y-52704249D01*
X35619499Y-52704265D01*
X35588986Y-52777932D01*
X35554909Y-52905106D01*
X35544500Y-52984166D01*
X35544500Y-53604636D01*
X35543441Y-53620809D01*
X35542800Y-53625681D01*
X35542800Y-54671090D01*
X35523115Y-54738129D01*
X35470311Y-54783884D01*
X35401153Y-54793828D01*
X35337597Y-54764803D01*
X35331119Y-54758771D01*
X34150865Y-53578517D01*
X34150863Y-53578515D01*
X34053837Y-53522497D01*
X33945618Y-53493500D01*
X33945617Y-53493500D01*
X33703307Y-53493500D01*
X33636268Y-53473815D01*
X33615625Y-53457180D01*
X33572172Y-53413726D01*
X33572168Y-53413723D01*
X33465633Y-53342538D01*
X33465624Y-53342533D01*
X33347244Y-53293499D01*
X33347238Y-53293497D01*
X33221571Y-53268500D01*
X33221569Y-53268500D01*
X33093431Y-53268500D01*
X33093429Y-53268500D01*
X32967761Y-53293497D01*
X32967755Y-53293499D01*
X32849375Y-53342533D01*
X32849366Y-53342538D01*
X32742831Y-53413723D01*
X32742827Y-53413726D01*
X32652226Y-53504327D01*
X32652223Y-53504331D01*
X32581038Y-53610866D01*
X32581033Y-53610875D01*
X32531999Y-53729255D01*
X32531997Y-53729261D01*
X32507000Y-53854928D01*
X32507000Y-53854931D01*
X32507000Y-53983069D01*
X32507000Y-53983071D01*
X32506999Y-53983071D01*
X32531997Y-54108738D01*
X32531999Y-54108744D01*
X32581033Y-54227124D01*
X32581038Y-54227133D01*
X32652223Y-54333668D01*
X32652226Y-54333672D01*
X32742827Y-54424273D01*
X32742831Y-54424276D01*
X32849366Y-54495461D01*
X32849372Y-54495464D01*
X32849373Y-54495465D01*
X32967756Y-54544501D01*
X32967760Y-54544501D01*
X32967761Y-54544502D01*
X33093428Y-54569500D01*
X33093431Y-54569500D01*
X33221571Y-54569500D01*
X33306115Y-54552682D01*
X33347244Y-54544501D01*
X33465627Y-54495465D01*
X33572169Y-54424276D01*
X33594966Y-54401478D01*
X33656285Y-54367993D01*
X33725977Y-54372975D01*
X33770329Y-54401477D01*
X37755575Y-58386723D01*
X37789060Y-58448046D01*
X37784076Y-58517738D01*
X37742204Y-58573671D01*
X37706212Y-58592335D01*
X37610567Y-58623412D01*
X37431755Y-58714521D01*
X37391976Y-58743422D01*
X37962425Y-59313871D01*
X37903147Y-59329755D01*
X37786853Y-59396898D01*
X37691898Y-59491853D01*
X37624755Y-59608147D01*
X37608871Y-59667425D01*
X37259319Y-59317873D01*
X37230124Y-59267305D01*
X37229715Y-59267475D01*
X37228425Y-59264361D01*
X37227224Y-59262280D01*
X37226603Y-59259963D01*
X37170585Y-59162937D01*
X37091363Y-59083715D01*
X34462463Y-56454815D01*
X34365437Y-56398797D01*
X34257218Y-56369800D01*
X34257217Y-56369800D01*
X33435407Y-56369800D01*
X33368368Y-56350115D01*
X33347725Y-56333480D01*
X33304272Y-56290026D01*
X33304268Y-56290023D01*
X33197733Y-56218838D01*
X33197724Y-56218833D01*
X33079344Y-56169799D01*
X33079338Y-56169797D01*
X32953671Y-56144800D01*
X32953669Y-56144800D01*
X32825531Y-56144800D01*
X32825529Y-56144800D01*
X32699861Y-56169797D01*
X32699855Y-56169799D01*
X32581475Y-56218833D01*
X32581466Y-56218838D01*
X32474931Y-56290023D01*
X32474927Y-56290026D01*
X32384326Y-56380627D01*
X32384323Y-56380631D01*
X32313138Y-56487166D01*
X32313133Y-56487175D01*
X32264099Y-56605555D01*
X32264097Y-56605560D01*
X32255404Y-56649265D01*
X32223018Y-56711175D01*
X32162302Y-56745749D01*
X32101694Y-56744847D01*
X32086218Y-56740700D01*
X32086217Y-56740700D01*
X30300407Y-56740700D01*
X30233368Y-56721015D01*
X30212725Y-56704380D01*
X30169272Y-56660926D01*
X30169268Y-56660923D01*
X30062733Y-56589738D01*
X30062724Y-56589733D01*
X29944344Y-56540699D01*
X29944338Y-56540697D01*
X29818671Y-56515700D01*
X29818669Y-56515700D01*
X29690531Y-56515700D01*
X29690529Y-56515700D01*
X29564861Y-56540697D01*
X29564855Y-56540699D01*
X29446475Y-56589733D01*
X29446466Y-56589738D01*
X29339931Y-56660923D01*
X29339927Y-56660926D01*
X29249326Y-56751527D01*
X29249323Y-56751531D01*
X29178138Y-56858066D01*
X29178133Y-56858075D01*
X29129099Y-56976455D01*
X29129097Y-56976461D01*
X29104100Y-57102128D01*
X29104100Y-57102131D01*
X29104100Y-57230269D01*
X29104100Y-57230271D01*
X29104099Y-57230271D01*
X29129097Y-57355938D01*
X29129099Y-57355944D01*
X29178133Y-57474324D01*
X29178138Y-57474333D01*
X29249323Y-57580868D01*
X29249326Y-57580872D01*
X29339927Y-57671473D01*
X29339931Y-57671476D01*
X29446466Y-57742661D01*
X29446472Y-57742664D01*
X29446473Y-57742665D01*
X29564856Y-57791701D01*
X29564860Y-57791701D01*
X29564861Y-57791702D01*
X29690528Y-57816700D01*
X29690531Y-57816700D01*
X29818671Y-57816700D01*
X29903215Y-57799882D01*
X29944344Y-57791701D01*
X30062727Y-57742665D01*
X30169269Y-57671476D01*
X30212725Y-57628020D01*
X30274048Y-57594534D01*
X30300407Y-57591700D01*
X31802590Y-57591700D01*
X31869629Y-57611385D01*
X31890271Y-57628019D01*
X32734462Y-58472209D01*
X32767947Y-58533532D01*
X32762963Y-58603223D01*
X32721091Y-58659157D01*
X32685099Y-58677821D01*
X32568767Y-58715619D01*
X32568764Y-58715620D01*
X32403903Y-58799622D01*
X32320784Y-58860012D01*
X32254213Y-58908379D01*
X32254211Y-58908381D01*
X32254210Y-58908381D01*
X32123381Y-59039210D01*
X32123381Y-59039211D01*
X32123379Y-59039213D01*
X32087259Y-59088928D01*
X32014622Y-59188903D01*
X31930620Y-59353764D01*
X31930619Y-59353767D01*
X31873445Y-59529734D01*
X31872473Y-59535872D01*
X31842544Y-59599007D01*
X31783232Y-59635938D01*
X31713370Y-59634940D01*
X31655137Y-59596330D01*
X31627527Y-59535872D01*
X31627356Y-59534798D01*
X31626555Y-59529736D01*
X31588618Y-59412976D01*
X31569380Y-59353767D01*
X31569379Y-59353764D01*
X31513907Y-59244896D01*
X31485378Y-59188904D01*
X31376621Y-59039213D01*
X31245787Y-58908379D01*
X31096096Y-58799622D01*
X31055655Y-58779016D01*
X30931235Y-58715620D01*
X30931232Y-58715619D01*
X30755265Y-58658445D01*
X30603356Y-58634385D01*
X30572514Y-58629500D01*
X30387486Y-58629500D01*
X30358279Y-58634126D01*
X30204734Y-58658445D01*
X30028767Y-58715619D01*
X30028764Y-58715620D01*
X29863903Y-58799622D01*
X29780784Y-58860012D01*
X29714213Y-58908379D01*
X29714211Y-58908381D01*
X29714210Y-58908381D01*
X29583381Y-59039210D01*
X29583381Y-59039211D01*
X29583379Y-59039213D01*
X29547259Y-59088928D01*
X29474622Y-59188903D01*
X29390620Y-59353764D01*
X29390619Y-59353767D01*
X29333445Y-59529734D01*
X29332473Y-59535872D01*
X29302544Y-59599007D01*
X29243232Y-59635938D01*
X29173370Y-59634940D01*
X29115137Y-59596330D01*
X29087527Y-59535872D01*
X29087356Y-59534798D01*
X29086555Y-59529736D01*
X29048618Y-59412976D01*
X29029380Y-59353767D01*
X29029379Y-59353764D01*
X28973907Y-59244896D01*
X28945378Y-59188904D01*
X28836621Y-59039213D01*
X28705787Y-58908379D01*
X28556096Y-58799622D01*
X28515655Y-58779016D01*
X28391235Y-58715620D01*
X28391232Y-58715619D01*
X28215265Y-58658445D01*
X28063356Y-58634385D01*
X28032514Y-58629500D01*
X27847486Y-58629500D01*
X27818279Y-58634126D01*
X27664734Y-58658445D01*
X27488767Y-58715619D01*
X27488764Y-58715620D01*
X27323903Y-58799622D01*
X27240784Y-58860012D01*
X27174213Y-58908379D01*
X27174211Y-58908381D01*
X27174210Y-58908381D01*
X27043381Y-59039210D01*
X27043381Y-59039211D01*
X27043379Y-59039213D01*
X27007259Y-59088928D01*
X26934622Y-59188903D01*
X26850620Y-59353764D01*
X26850619Y-59353767D01*
X26793445Y-59529734D01*
X26792473Y-59535872D01*
X26762544Y-59599007D01*
X26703232Y-59635938D01*
X26633370Y-59634940D01*
X26575137Y-59596330D01*
X26547527Y-59535872D01*
X26547356Y-59534798D01*
X26546555Y-59529736D01*
X26508618Y-59412976D01*
X26489380Y-59353767D01*
X26489379Y-59353764D01*
X26433907Y-59244896D01*
X26405378Y-59188904D01*
X26296621Y-59039213D01*
X26165787Y-58908379D01*
X26016096Y-58799622D01*
X25975655Y-58779016D01*
X25851235Y-58715620D01*
X25851232Y-58715619D01*
X25675265Y-58658445D01*
X25523356Y-58634385D01*
X25492514Y-58629500D01*
X25307486Y-58629500D01*
X25278279Y-58634126D01*
X25124734Y-58658445D01*
X24948767Y-58715619D01*
X24948764Y-58715620D01*
X24783903Y-58799622D01*
X24700784Y-58860012D01*
X24634213Y-58908379D01*
X24634211Y-58908381D01*
X24634210Y-58908381D01*
X24503381Y-59039210D01*
X24503381Y-59039211D01*
X24503379Y-59039213D01*
X24467259Y-59088928D01*
X24394622Y-59188903D01*
X24310620Y-59353764D01*
X24310619Y-59353767D01*
X24253445Y-59529734D01*
X24252473Y-59535872D01*
X24222544Y-59599007D01*
X24163232Y-59635938D01*
X24093370Y-59634940D01*
X24035137Y-59596330D01*
X24007527Y-59535872D01*
X24007356Y-59534798D01*
X24006555Y-59529736D01*
X23968618Y-59412976D01*
X23949380Y-59353767D01*
X23949379Y-59353764D01*
X23893907Y-59244896D01*
X23865378Y-59188904D01*
X23756621Y-59039213D01*
X23625787Y-58908379D01*
X23476096Y-58799622D01*
X23435655Y-58779016D01*
X23311235Y-58715620D01*
X23311232Y-58715619D01*
X23135265Y-58658445D01*
X22983356Y-58634385D01*
X22952514Y-58629500D01*
X22767486Y-58629500D01*
X22738279Y-58634126D01*
X22584734Y-58658445D01*
X22408767Y-58715619D01*
X22408759Y-58715623D01*
X22295614Y-58773273D01*
X22226945Y-58786169D01*
X22162205Y-58759892D01*
X22121948Y-58702786D01*
X22118956Y-58632980D01*
X22151637Y-58575110D01*
X23530129Y-57196619D01*
X23591452Y-57163134D01*
X23617810Y-57160300D01*
X26971216Y-57160300D01*
X26971218Y-57160300D01*
X27079437Y-57131303D01*
X27176463Y-57075285D01*
X29922333Y-54329413D01*
X29983654Y-54295930D01*
X30053346Y-54300914D01*
X30057417Y-54302515D01*
X30077936Y-54311015D01*
X30205103Y-54345090D01*
X30284174Y-54355500D01*
X30284181Y-54355500D01*
X30849998Y-54355500D01*
X30850000Y-54355500D01*
X30878188Y-54354197D01*
X30986173Y-54323472D01*
X31075767Y-54255814D01*
X31134870Y-54160359D01*
X31155500Y-54050000D01*
X31155500Y-52550000D01*
X31154197Y-52521812D01*
X31123472Y-52413827D01*
X31055814Y-52324233D01*
X31055813Y-52324232D01*
X30960360Y-52265130D01*
X30960361Y-52265130D01*
X30905179Y-52254815D01*
X30850000Y-52244500D01*
X30284174Y-52244500D01*
X30284166Y-52244500D01*
X30205106Y-52254909D01*
X30077932Y-52288986D01*
X30004265Y-52319499D01*
X30004249Y-52319507D01*
X29890250Y-52385325D01*
X29890232Y-52385337D01*
X29826971Y-52433880D01*
X29733880Y-52526971D01*
X29685337Y-52590232D01*
X29685325Y-52590250D01*
X29619507Y-52704249D01*
X29619499Y-52704265D01*
X29588986Y-52777932D01*
X29554909Y-52905106D01*
X29544500Y-52984166D01*
X29544500Y-53452390D01*
X29524815Y-53519429D01*
X29508181Y-53540071D01*
X26775271Y-56272981D01*
X26713948Y-56306466D01*
X26687590Y-56309300D01*
X23334179Y-56309300D01*
X23294994Y-56319799D01*
X23294995Y-56319800D01*
X23225961Y-56338297D01*
X23225960Y-56338298D01*
X23128940Y-56394313D01*
X23128934Y-56394317D01*
X20852435Y-58670815D01*
X20791112Y-58704300D01*
X20726436Y-58701065D01*
X20595265Y-58658445D01*
X20443356Y-58634385D01*
X20412514Y-58629500D01*
X20227486Y-58629500D01*
X20198279Y-58634126D01*
X20044734Y-58658445D01*
X19868767Y-58715619D01*
X19868759Y-58715623D01*
X19765194Y-58768392D01*
X19696525Y-58781288D01*
X19631785Y-58755011D01*
X19591528Y-58697905D01*
X19584900Y-58657907D01*
X19584900Y-54513012D01*
X19604585Y-54445973D01*
X19657389Y-54400218D01*
X19689502Y-54390539D01*
X19797701Y-54373402D01*
X19962445Y-54319873D01*
X20116788Y-54241232D01*
X20256928Y-54139414D01*
X20379414Y-54016928D01*
X20481232Y-53876788D01*
X20559873Y-53722445D01*
X20613402Y-53557701D01*
X20640500Y-53386611D01*
X20640500Y-53213389D01*
X20613402Y-53042299D01*
X20559873Y-52877555D01*
X20481232Y-52723212D01*
X20379414Y-52583072D01*
X20256928Y-52460586D01*
X20116788Y-52358768D01*
X20075569Y-52337766D01*
X19962447Y-52280128D01*
X19962446Y-52280127D01*
X19962445Y-52280127D01*
X19797701Y-52226598D01*
X19797699Y-52226597D01*
X19797698Y-52226597D01*
X19666271Y-52205781D01*
X19626611Y-52199500D01*
X19453389Y-52199500D01*
X19413728Y-52205781D01*
X19282302Y-52226597D01*
X19117552Y-52280128D01*
X18963211Y-52358768D01*
X18897370Y-52406605D01*
X18823072Y-52460586D01*
X18823070Y-52460588D01*
X18823069Y-52460588D01*
X18700588Y-52583069D01*
X18700588Y-52583070D01*
X18700586Y-52583072D01*
X18695384Y-52590232D01*
X18598768Y-52723211D01*
X18520128Y-52877552D01*
X18466597Y-53042302D01*
X18439500Y-53213389D01*
X18439500Y-53386610D01*
X18466597Y-53557697D01*
X18466597Y-53557699D01*
X18466598Y-53557701D01*
X18514168Y-53704106D01*
X18520128Y-53722447D01*
X18545991Y-53773206D01*
X18598768Y-53876788D01*
X18700586Y-54016928D01*
X18700593Y-54016935D01*
X18703750Y-54020632D01*
X18702041Y-54022091D01*
X18731066Y-54075246D01*
X18733900Y-54101604D01*
X18733900Y-58678698D01*
X18714215Y-58745737D01*
X18661411Y-58791492D01*
X18592253Y-58801436D01*
X18537014Y-58779016D01*
X18448246Y-58714522D01*
X18269432Y-58623412D01*
X18078559Y-58561393D01*
X17880350Y-58530000D01*
X17679650Y-58530000D01*
X17481440Y-58561393D01*
X17290567Y-58623412D01*
X17111755Y-58714521D01*
X17071976Y-58743422D01*
X17642425Y-59313871D01*
X17583147Y-59329755D01*
X17466853Y-59396898D01*
X17371898Y-59491853D01*
X17304755Y-59608147D01*
X17288871Y-59667425D01*
X16718422Y-59096976D01*
X16689521Y-59136755D01*
X16620485Y-59272247D01*
X16572510Y-59323043D01*
X16504689Y-59339838D01*
X16438554Y-59317300D01*
X16399515Y-59272247D01*
X16330478Y-59136754D01*
X16301576Y-59096976D01*
X16301576Y-59096975D01*
X15731127Y-59667423D01*
X15715245Y-59608147D01*
X15648102Y-59491853D01*
X15553147Y-59396898D01*
X15436853Y-59329755D01*
X15377574Y-59313871D01*
X15948023Y-58743423D01*
X15948022Y-58743422D01*
X15908246Y-58714522D01*
X15729432Y-58623412D01*
X15538559Y-58561393D01*
X15340350Y-58530000D01*
X15139650Y-58530000D01*
X14941440Y-58561393D01*
X14750567Y-58623412D01*
X14571755Y-58714521D01*
X14531976Y-58743422D01*
X15102425Y-59313871D01*
X15043147Y-59329755D01*
X14926853Y-59396898D01*
X14831898Y-59491853D01*
X14764755Y-59608147D01*
X14748871Y-59667425D01*
X14178422Y-59096976D01*
X14149521Y-59136755D01*
X14058412Y-59315565D01*
X14035621Y-59385711D01*
X13996183Y-59443386D01*
X13931824Y-59470584D01*
X13862978Y-59458669D01*
X13811502Y-59411425D01*
X13799759Y-59385710D01*
X13789380Y-59353767D01*
X13789379Y-59353764D01*
X13733907Y-59244896D01*
X13705378Y-59188904D01*
X13596621Y-59039213D01*
X13465787Y-58908379D01*
X13316096Y-58799622D01*
X13275655Y-58779016D01*
X13151235Y-58715620D01*
X13151232Y-58715619D01*
X12975265Y-58658445D01*
X12823356Y-58634385D01*
X12792514Y-58629500D01*
X12607486Y-58629500D01*
X12578279Y-58634126D01*
X12424734Y-58658445D01*
X12248767Y-58715619D01*
X12248764Y-58715620D01*
X12083903Y-58799622D01*
X12000784Y-58860012D01*
X11934213Y-58908379D01*
X11934211Y-58908381D01*
X11934210Y-58908381D01*
X11803381Y-59039210D01*
X11803381Y-59039211D01*
X11803379Y-59039213D01*
X11767259Y-59088928D01*
X11694622Y-59188903D01*
X11610620Y-59353764D01*
X11610619Y-59353767D01*
X11553445Y-59529734D01*
X11552473Y-59535872D01*
X11522544Y-59599007D01*
X11463232Y-59635938D01*
X11393370Y-59634940D01*
X11335137Y-59596330D01*
X11307527Y-59535872D01*
X11307356Y-59534798D01*
X11306555Y-59529736D01*
X11268618Y-59412976D01*
X11249380Y-59353767D01*
X11249379Y-59353764D01*
X11193907Y-59244896D01*
X11165378Y-59188904D01*
X11056621Y-59039213D01*
X10925787Y-58908379D01*
X10776096Y-58799622D01*
X10735655Y-58779016D01*
X10611235Y-58715620D01*
X10611232Y-58715619D01*
X10435265Y-58658445D01*
X10283356Y-58634385D01*
X10252514Y-58629500D01*
X10067486Y-58629500D01*
X10038279Y-58634126D01*
X9884734Y-58658445D01*
X9708767Y-58715619D01*
X9708764Y-58715620D01*
X9543903Y-58799622D01*
X9460784Y-58860012D01*
X9394213Y-58908379D01*
X9394211Y-58908381D01*
X9394210Y-58908381D01*
X9263381Y-59039210D01*
X9263381Y-59039211D01*
X9263379Y-59039213D01*
X9227259Y-59088928D01*
X9154622Y-59188903D01*
X9070620Y-59353764D01*
X9070619Y-59353767D01*
X9013445Y-59529734D01*
X9012473Y-59535872D01*
X8982544Y-59599007D01*
X8923232Y-59635938D01*
X8853370Y-59634940D01*
X8795137Y-59596330D01*
X8767527Y-59535872D01*
X8767356Y-59534798D01*
X8766555Y-59529736D01*
X8728618Y-59412976D01*
X8709380Y-59353767D01*
X8709379Y-59353764D01*
X8653907Y-59244896D01*
X8625378Y-59188904D01*
X8516621Y-59039213D01*
X8385787Y-58908379D01*
X8236096Y-58799622D01*
X8195655Y-58779016D01*
X8071235Y-58715620D01*
X8071232Y-58715619D01*
X7895265Y-58658445D01*
X7743356Y-58634385D01*
X7712514Y-58629500D01*
X7527486Y-58629500D01*
X7498279Y-58634126D01*
X7344734Y-58658445D01*
X7168767Y-58715619D01*
X7168764Y-58715620D01*
X7003903Y-58799622D01*
X6920784Y-58860012D01*
X6854213Y-58908379D01*
X6854211Y-58908381D01*
X6854210Y-58908381D01*
X6723381Y-59039210D01*
X6723381Y-59039211D01*
X6723379Y-59039213D01*
X6687259Y-59088928D01*
X6614622Y-59188903D01*
X6534890Y-59345385D01*
X6513625Y-59367899D01*
X6493909Y-59391780D01*
X6489844Y-59393079D01*
X6486915Y-59396181D01*
X6456858Y-59403624D01*
X6427357Y-59413055D01*
X6421569Y-59412363D01*
X6419094Y-59412976D01*
X6392313Y-59408865D01*
X6347407Y-59396833D01*
X6287746Y-59360469D01*
X6257216Y-59297622D01*
X6255499Y-59277058D01*
X6255499Y-58885143D01*
X6255499Y-58885136D01*
X6255497Y-58885117D01*
X6252586Y-58860012D01*
X6252585Y-58860010D01*
X6252585Y-58860009D01*
X6207206Y-58757235D01*
X6127765Y-58677794D01*
X6119662Y-58674216D01*
X6024992Y-58632415D01*
X5999865Y-58629500D01*
X4160143Y-58629500D01*
X4160117Y-58629502D01*
X4135012Y-58632413D01*
X4135008Y-58632415D01*
X4032235Y-58677793D01*
X3952794Y-58757234D01*
X3907415Y-58860006D01*
X3907415Y-58860008D01*
X3904500Y-58885131D01*
X3904500Y-60724856D01*
X3904502Y-60724882D01*
X3907413Y-60749987D01*
X3907415Y-60749991D01*
X3952793Y-60852764D01*
X3952794Y-60852765D01*
X4032235Y-60932206D01*
X4135009Y-60977585D01*
X4160135Y-60980500D01*
X5999864Y-60980499D01*
X5999879Y-60980497D01*
X5999882Y-60980497D01*
X6024987Y-60977586D01*
X6024988Y-60977585D01*
X6024991Y-60977585D01*
X6127765Y-60932206D01*
X6207206Y-60852765D01*
X6207207Y-60852761D01*
X6208879Y-60851090D01*
X6270202Y-60817605D01*
X6339894Y-60822589D01*
X6384242Y-60851090D01*
X6568249Y-61035096D01*
X6746113Y-61212960D01*
X6746115Y-61212963D01*
X6825337Y-61292185D01*
X6901627Y-61336231D01*
X6922363Y-61348203D01*
X7030581Y-61377200D01*
X7030582Y-61377200D01*
X7456690Y-61377200D01*
X7523729Y-61396885D01*
X7569484Y-61449689D01*
X7579428Y-61518847D01*
X7550403Y-61582403D01*
X7544371Y-61588881D01*
X5612435Y-63520815D01*
X5551112Y-63554300D01*
X5486436Y-63551065D01*
X5355265Y-63508445D01*
X5219008Y-63486864D01*
X5172514Y-63479500D01*
X4987486Y-63479500D01*
X4940992Y-63486864D01*
X4804734Y-63508445D01*
X4628767Y-63565619D01*
X4628764Y-63565620D01*
X4463903Y-63649622D01*
X4409446Y-63689188D01*
X4314213Y-63758379D01*
X4314211Y-63758381D01*
X4314210Y-63758381D01*
X4183381Y-63889210D01*
X4183381Y-63889211D01*
X4183379Y-63889213D01*
X4163227Y-63916950D01*
X4074622Y-64038903D01*
X3990620Y-64203764D01*
X3990619Y-64203767D01*
X3933445Y-64379734D01*
X3904500Y-64562486D01*
X3904500Y-64747513D01*
X3933445Y-64930265D01*
X3990619Y-65106232D01*
X3990620Y-65106235D01*
X4010083Y-65144432D01*
X4074622Y-65271096D01*
X4183379Y-65420787D01*
X4183381Y-65420789D01*
X4290411Y-65527819D01*
X4323896Y-65589142D01*
X4318912Y-65658834D01*
X4277040Y-65714767D01*
X4211576Y-65739184D01*
X4202730Y-65739500D01*
X424500Y-65739500D01*
X357461Y-65719815D01*
X311706Y-65667011D01*
X300500Y-65615500D01*
X300500Y-4486898D01*
X4849500Y-4486898D01*
X4849500Y-5673102D01*
X4854226Y-5712454D01*
X4860122Y-5761561D01*
X4915639Y-5902343D01*
X5007077Y-6022922D01*
X5127656Y-6114360D01*
X5127657Y-6114360D01*
X5127658Y-6114361D01*
X5268436Y-6169877D01*
X5356898Y-6180500D01*
X5356903Y-6180500D01*
X7343097Y-6180500D01*
X7343102Y-6180500D01*
X7431564Y-6169877D01*
X7572342Y-6114361D01*
X7692922Y-6022922D01*
X7784361Y-5902342D01*
X7839877Y-5761564D01*
X7850500Y-5673102D01*
X7850500Y-4486898D01*
X7839877Y-4398436D01*
X7784361Y-4257658D01*
X7784360Y-4257657D01*
X7784360Y-4257656D01*
X7692922Y-4137077D01*
X7572343Y-4045639D01*
X7465318Y-4003434D01*
X7431564Y-3990123D01*
X7431563Y-3990122D01*
X7431561Y-3990122D01*
X7385926Y-3984642D01*
X7343102Y-3979500D01*
X5356898Y-3979500D01*
X5317853Y-3984188D01*
X5268438Y-3990122D01*
X5127656Y-4045639D01*
X5007077Y-4137077D01*
X4915639Y-4257656D01*
X4860122Y-4398438D01*
X4856131Y-4431681D01*
X4849500Y-4486898D01*
X300500Y-4486898D01*
X300500Y-424500D01*
X320185Y-357461D01*
X372989Y-311706D01*
X424500Y-300500D01*
X78315500Y-300500D01*
X78382539Y-320185D01*
G37*
%TD.AperFunction*%
%TA.AperFunction,Conductor*%
G36*
X14764755Y-64851853D02*
G01*
X14831898Y-64968147D01*
X14926853Y-65063102D01*
X15043147Y-65130245D01*
X15102425Y-65146128D01*
X14545371Y-65703181D01*
X14484048Y-65736666D01*
X14457690Y-65739500D01*
X13577270Y-65739500D01*
X13510231Y-65719815D01*
X13464476Y-65667011D01*
X13454532Y-65597853D01*
X13483557Y-65534297D01*
X13489589Y-65527819D01*
X13596621Y-65420787D01*
X13705378Y-65271096D01*
X13789379Y-65106235D01*
X13789382Y-65106227D01*
X13799759Y-65074290D01*
X13839196Y-65016614D01*
X13903554Y-64989415D01*
X13972401Y-65001329D01*
X14023877Y-65048573D01*
X14035621Y-65074289D01*
X14058412Y-65144432D01*
X14149522Y-65323246D01*
X14178422Y-65363022D01*
X14178423Y-65363023D01*
X14748871Y-64792574D01*
X14764755Y-64851853D01*
G37*
%TD.AperFunction*%
%TA.AperFunction,Conductor*%
G36*
X16301576Y-65363022D02*
G01*
X16330477Y-65323246D01*
X16421588Y-65144431D01*
X16444378Y-65074290D01*
X16483814Y-65016614D01*
X16548173Y-64989415D01*
X16617019Y-65001329D01*
X16668496Y-65048573D01*
X16680239Y-65074287D01*
X16690617Y-65106227D01*
X16690620Y-65106235D01*
X16710083Y-65144432D01*
X16774622Y-65271096D01*
X16883379Y-65420787D01*
X16883381Y-65420789D01*
X16990411Y-65527819D01*
X17023896Y-65589142D01*
X17018912Y-65658834D01*
X16977040Y-65714767D01*
X16911576Y-65739184D01*
X16902730Y-65739500D01*
X16022308Y-65739500D01*
X15955269Y-65719815D01*
X15934627Y-65703181D01*
X15377574Y-65146128D01*
X15436853Y-65130245D01*
X15553147Y-65063102D01*
X15648102Y-64968147D01*
X15715245Y-64851853D01*
X15731128Y-64792574D01*
X16301576Y-65363022D01*
G37*
%TD.AperFunction*%
%TA.AperFunction,Conductor*%
G36*
X15862222Y-62352235D02*
G01*
X15883262Y-62353363D01*
X15895076Y-62361882D01*
X15909048Y-62365985D01*
X15922843Y-62381905D01*
X15939934Y-62394230D01*
X15945266Y-62407783D01*
X15954803Y-62418789D01*
X15957801Y-62439643D01*
X15965515Y-62459248D01*
X15964185Y-62484044D01*
X15964747Y-62487947D01*
X15963626Y-62494491D01*
X15952400Y-62550926D01*
X15952400Y-62550931D01*
X15952400Y-62679069D01*
X15952400Y-62679071D01*
X15952399Y-62679071D01*
X15977397Y-62804738D01*
X15977399Y-62804744D01*
X16026433Y-62923124D01*
X16026438Y-62923133D01*
X16097623Y-63029668D01*
X16097626Y-63029672D01*
X16188227Y-63120273D01*
X16188231Y-63120276D01*
X16294766Y-63191461D01*
X16294772Y-63191464D01*
X16294773Y-63191465D01*
X16413156Y-63240501D01*
X16413160Y-63240501D01*
X16413161Y-63240502D01*
X16538828Y-63265500D01*
X16538831Y-63265500D01*
X16666971Y-63265500D01*
X16751515Y-63248682D01*
X16792644Y-63240501D01*
X16911027Y-63191465D01*
X17017569Y-63120276D01*
X17061025Y-63076820D01*
X17122348Y-63043334D01*
X17148707Y-63040500D01*
X23132390Y-63040500D01*
X23199429Y-63060185D01*
X23220071Y-63076819D01*
X23568358Y-63425106D01*
X23601843Y-63486429D01*
X23596859Y-63556121D01*
X23554987Y-63612054D01*
X23489523Y-63636471D01*
X23424382Y-63623272D01*
X23311235Y-63565621D01*
X23311232Y-63565619D01*
X23135265Y-63508445D01*
X22999008Y-63486864D01*
X22952514Y-63479500D01*
X22767486Y-63479500D01*
X22720992Y-63486864D01*
X22584734Y-63508445D01*
X22408767Y-63565619D01*
X22408764Y-63565620D01*
X22243903Y-63649622D01*
X22189446Y-63689188D01*
X22094213Y-63758379D01*
X22094211Y-63758381D01*
X22094210Y-63758381D01*
X21963381Y-63889210D01*
X21963381Y-63889211D01*
X21963379Y-63889213D01*
X21943227Y-63916950D01*
X21854622Y-64038903D01*
X21770620Y-64203764D01*
X21770619Y-64203767D01*
X21713445Y-64379734D01*
X21712473Y-64385872D01*
X21682544Y-64449007D01*
X21623232Y-64485938D01*
X21553370Y-64484940D01*
X21495137Y-64446330D01*
X21467527Y-64385872D01*
X21467356Y-64384798D01*
X21466555Y-64379736D01*
X21422624Y-64244528D01*
X21409380Y-64203767D01*
X21409379Y-64203764D01*
X21351727Y-64090617D01*
X21325378Y-64038904D01*
X21216621Y-63889213D01*
X21085787Y-63758379D01*
X20936096Y-63649622D01*
X20916433Y-63639603D01*
X20771235Y-63565620D01*
X20771232Y-63565619D01*
X20595265Y-63508445D01*
X20459008Y-63486864D01*
X20412514Y-63479500D01*
X20227486Y-63479500D01*
X20180992Y-63486864D01*
X20044734Y-63508445D01*
X19868767Y-63565619D01*
X19868764Y-63565620D01*
X19703903Y-63649622D01*
X19649446Y-63689188D01*
X19554213Y-63758379D01*
X19554211Y-63758381D01*
X19554210Y-63758381D01*
X19423381Y-63889210D01*
X19423381Y-63889211D01*
X19423379Y-63889213D01*
X19403227Y-63916950D01*
X19314622Y-64038903D01*
X19230620Y-64203764D01*
X19230619Y-64203767D01*
X19173445Y-64379734D01*
X19172473Y-64385872D01*
X19142544Y-64449007D01*
X19083232Y-64485938D01*
X19013370Y-64484940D01*
X18955137Y-64446330D01*
X18927527Y-64385872D01*
X18927356Y-64384798D01*
X18926555Y-64379736D01*
X18882624Y-64244528D01*
X18869380Y-64203767D01*
X18869379Y-64203764D01*
X18811727Y-64090617D01*
X18785378Y-64038904D01*
X18676621Y-63889213D01*
X18545787Y-63758379D01*
X18396096Y-63649622D01*
X18376433Y-63639603D01*
X18231235Y-63565620D01*
X18231232Y-63565619D01*
X18055265Y-63508445D01*
X17919008Y-63486864D01*
X17872514Y-63479500D01*
X17687486Y-63479500D01*
X17640992Y-63486864D01*
X17504734Y-63508445D01*
X17328767Y-63565619D01*
X17328764Y-63565620D01*
X17163903Y-63649622D01*
X17109446Y-63689188D01*
X17014213Y-63758379D01*
X17014211Y-63758381D01*
X17014210Y-63758381D01*
X16883381Y-63889210D01*
X16883381Y-63889211D01*
X16883379Y-63889213D01*
X16863227Y-63916950D01*
X16774622Y-64038903D01*
X16690620Y-64203764D01*
X16690619Y-64203769D01*
X16680239Y-64235713D01*
X16640800Y-64293388D01*
X16576441Y-64320584D01*
X16507595Y-64308668D01*
X16456120Y-64261422D01*
X16444378Y-64235709D01*
X16421588Y-64165569D01*
X16330478Y-63986754D01*
X16301576Y-63946976D01*
X16301576Y-63946975D01*
X15731128Y-64517424D01*
X15715245Y-64458147D01*
X15648102Y-64341853D01*
X15553147Y-64246898D01*
X15436853Y-64179755D01*
X15377574Y-64163871D01*
X15948023Y-63593423D01*
X15948022Y-63593422D01*
X15908246Y-63564522D01*
X15729432Y-63473412D01*
X15538559Y-63411393D01*
X15340350Y-63380000D01*
X15139650Y-63380000D01*
X14941440Y-63411393D01*
X14750567Y-63473412D01*
X14571755Y-63564521D01*
X14531976Y-63593422D01*
X15102425Y-64163871D01*
X15043147Y-64179755D01*
X14926853Y-64246898D01*
X14831898Y-64341853D01*
X14764755Y-64458147D01*
X14748871Y-64517425D01*
X14178422Y-63946976D01*
X14149521Y-63986755D01*
X14058412Y-64165565D01*
X14035621Y-64235711D01*
X13996183Y-64293386D01*
X13931824Y-64320584D01*
X13862978Y-64308669D01*
X13811502Y-64261425D01*
X13799759Y-64235710D01*
X13789380Y-64203767D01*
X13789379Y-64203764D01*
X13731727Y-64090617D01*
X13705378Y-64038904D01*
X13596621Y-63889213D01*
X13465787Y-63758379D01*
X13316096Y-63649622D01*
X13296433Y-63639603D01*
X13151235Y-63565620D01*
X13151232Y-63565619D01*
X12975265Y-63508445D01*
X12839008Y-63486864D01*
X12792514Y-63479500D01*
X12607486Y-63479500D01*
X12560992Y-63486864D01*
X12424734Y-63508445D01*
X12248767Y-63565619D01*
X12248764Y-63565620D01*
X12083903Y-63649622D01*
X12029446Y-63689188D01*
X11934213Y-63758379D01*
X11934211Y-63758381D01*
X11934210Y-63758381D01*
X11803381Y-63889210D01*
X11803381Y-63889211D01*
X11803379Y-63889213D01*
X11783227Y-63916950D01*
X11694622Y-64038903D01*
X11610620Y-64203764D01*
X11610619Y-64203767D01*
X11553445Y-64379734D01*
X11552473Y-64385872D01*
X11522544Y-64449007D01*
X11463232Y-64485938D01*
X11393370Y-64484940D01*
X11335137Y-64446330D01*
X11307527Y-64385872D01*
X11307356Y-64384798D01*
X11306555Y-64379736D01*
X11262624Y-64244528D01*
X11249380Y-64203767D01*
X11249379Y-64203764D01*
X11191727Y-64090617D01*
X11165378Y-64038904D01*
X11056621Y-63889213D01*
X10925787Y-63758379D01*
X10776096Y-63649622D01*
X10756433Y-63639603D01*
X10611235Y-63565620D01*
X10611232Y-63565619D01*
X10435265Y-63508445D01*
X10299008Y-63486864D01*
X10252514Y-63479500D01*
X10067486Y-63479500D01*
X10020992Y-63486864D01*
X9884734Y-63508445D01*
X9708767Y-63565619D01*
X9708764Y-63565620D01*
X9543903Y-63649622D01*
X9489446Y-63689188D01*
X9394213Y-63758379D01*
X9394211Y-63758381D01*
X9394210Y-63758381D01*
X9263381Y-63889210D01*
X9263381Y-63889211D01*
X9263379Y-63889213D01*
X9243227Y-63916950D01*
X9154622Y-64038903D01*
X9070620Y-64203764D01*
X9070619Y-64203767D01*
X9013445Y-64379734D01*
X9012473Y-64385872D01*
X8982544Y-64449007D01*
X8923232Y-64485938D01*
X8853370Y-64484940D01*
X8795137Y-64446330D01*
X8767527Y-64385872D01*
X8767356Y-64384798D01*
X8766555Y-64379736D01*
X8722624Y-64244528D01*
X8709380Y-64203767D01*
X8709379Y-64203764D01*
X8651727Y-64090617D01*
X8625378Y-64038904D01*
X8516621Y-63889213D01*
X8385787Y-63758379D01*
X8236096Y-63649622D01*
X8216433Y-63639603D01*
X8071235Y-63565620D01*
X8071232Y-63565619D01*
X7895265Y-63508445D01*
X7759008Y-63486864D01*
X7712514Y-63479500D01*
X7527486Y-63479500D01*
X7480992Y-63486864D01*
X7344734Y-63508445D01*
X7168767Y-63565619D01*
X7168759Y-63565623D01*
X7055614Y-63623273D01*
X6986945Y-63636169D01*
X6922205Y-63609892D01*
X6881948Y-63552786D01*
X6878956Y-63482980D01*
X6911637Y-63425110D01*
X7954129Y-62382619D01*
X8015452Y-62349134D01*
X8041810Y-62346300D01*
X15842009Y-62346300D01*
X15862222Y-62352235D01*
G37*
%TD.AperFunction*%
%TA.AperFunction,Conductor*%
G36*
X18756688Y-60428134D02*
G01*
X18776394Y-60453815D01*
X18795669Y-60487199D01*
X18818915Y-60527463D01*
X18818917Y-60527465D01*
X19475871Y-61184419D01*
X19486483Y-61203855D01*
X19500984Y-61220589D01*
X19502900Y-61233920D01*
X19509356Y-61245742D01*
X19507776Y-61267828D01*
X19510928Y-61289747D01*
X19505332Y-61301998D01*
X19504372Y-61315434D01*
X19491101Y-61333160D01*
X19481903Y-61353303D01*
X19470571Y-61360585D01*
X19462500Y-61371367D01*
X19441754Y-61379104D01*
X19423125Y-61391077D01*
X19401206Y-61394228D01*
X19397036Y-61395784D01*
X19388190Y-61396100D01*
X19152609Y-61396100D01*
X19085570Y-61376415D01*
X19064928Y-61359781D01*
X18705729Y-61000582D01*
X18316363Y-60611215D01*
X18232111Y-60562572D01*
X18219339Y-60555198D01*
X18219332Y-60555195D01*
X18193107Y-60548168D01*
X18137521Y-60516075D01*
X17917574Y-60296128D01*
X17976853Y-60280245D01*
X18093147Y-60213102D01*
X18188102Y-60118147D01*
X18255245Y-60001853D01*
X18271128Y-59942574D01*
X18756688Y-60428134D01*
G37*
%TD.AperFunction*%
%TA.AperFunction,Conductor*%
G36*
X13692255Y-44698485D02*
G01*
X13738010Y-44751289D01*
X13747954Y-44820447D01*
X13746833Y-44826992D01*
X13744200Y-44840228D01*
X13744200Y-44840231D01*
X13744200Y-44968369D01*
X13744200Y-44968371D01*
X13744199Y-44968371D01*
X13769197Y-45094038D01*
X13769200Y-45094048D01*
X13799272Y-45166648D01*
X13806741Y-45236117D01*
X13775466Y-45298596D01*
X13715377Y-45334248D01*
X13684711Y-45338100D01*
X10465407Y-45338100D01*
X10398368Y-45318415D01*
X10377725Y-45301780D01*
X10334272Y-45258326D01*
X10334268Y-45258323D01*
X10227733Y-45187138D01*
X10227724Y-45187133D01*
X10109344Y-45138099D01*
X10109338Y-45138097D01*
X9983671Y-45113100D01*
X9983669Y-45113100D01*
X9855531Y-45113100D01*
X9855529Y-45113100D01*
X9729861Y-45138097D01*
X9729855Y-45138099D01*
X9611475Y-45187133D01*
X9611466Y-45187138D01*
X9504931Y-45258323D01*
X9504927Y-45258326D01*
X9414326Y-45348927D01*
X9414323Y-45348931D01*
X9343138Y-45455466D01*
X9343133Y-45455475D01*
X9294099Y-45573855D01*
X9294097Y-45573861D01*
X9269100Y-45699528D01*
X9269100Y-45699531D01*
X9269100Y-45827669D01*
X9269100Y-45827671D01*
X9269099Y-45827671D01*
X9275465Y-45859670D01*
X9269238Y-45929262D01*
X9226375Y-45984439D01*
X9160485Y-46007684D01*
X9134452Y-46006336D01*
X9094444Y-46000000D01*
X8905553Y-46000000D01*
X8718997Y-46029548D01*
X8539362Y-46087914D01*
X8371060Y-46173669D01*
X8345670Y-46192116D01*
X8345669Y-46192116D01*
X8953553Y-46800000D01*
X8947339Y-46800000D01*
X8845606Y-46827259D01*
X8754394Y-46879920D01*
X8679920Y-46954394D01*
X8627259Y-47045606D01*
X8600000Y-47147339D01*
X8600000Y-47153553D01*
X7992116Y-46545669D01*
X7992116Y-46545670D01*
X7973669Y-46571060D01*
X7887914Y-46739362D01*
X7829548Y-46918997D01*
X7800000Y-47105552D01*
X7800000Y-47294447D01*
X7829548Y-47481002D01*
X7887915Y-47660640D01*
X7887917Y-47660644D01*
X7898852Y-47682105D01*
X7911749Y-47750774D01*
X7885473Y-47815514D01*
X7828367Y-47855772D01*
X7788368Y-47862400D01*
X5562997Y-47862400D01*
X5495958Y-47842715D01*
X5475316Y-47826081D01*
X5122662Y-47473427D01*
X5089177Y-47412104D01*
X5087870Y-47366352D01*
X5100500Y-47286611D01*
X5100500Y-47113389D01*
X5073402Y-46942299D01*
X5019873Y-46777555D01*
X4941232Y-46623212D01*
X4839414Y-46483072D01*
X4716928Y-46360586D01*
X4576788Y-46258768D01*
X4511531Y-46225518D01*
X4422449Y-46180128D01*
X4331608Y-46150612D01*
X4273933Y-46111174D01*
X4246735Y-46046815D01*
X4258650Y-45977969D01*
X4282243Y-45945003D01*
X5512129Y-44715119D01*
X5573452Y-44681634D01*
X5599810Y-44678800D01*
X13625216Y-44678800D01*
X13692255Y-44698485D01*
G37*
%TD.AperFunction*%
%TA.AperFunction,Conductor*%
G36*
X43517610Y-38403031D02*
G01*
X43550579Y-38426627D01*
X45005015Y-39881063D01*
X45084237Y-39960285D01*
X45117334Y-39979393D01*
X45123776Y-39983113D01*
X45171992Y-40033680D01*
X45185214Y-40102287D01*
X45159246Y-40167152D01*
X45102332Y-40207680D01*
X45061776Y-40214500D01*
X43404303Y-40214500D01*
X43337264Y-40194815D01*
X43293819Y-40146795D01*
X43251232Y-40063212D01*
X43251230Y-40063209D01*
X43251229Y-40063207D01*
X43221042Y-40021659D01*
X43149414Y-39923072D01*
X43026928Y-39800586D01*
X42886788Y-39698768D01*
X42732445Y-39620127D01*
X42567701Y-39566598D01*
X42567699Y-39566597D01*
X42567698Y-39566597D01*
X42436271Y-39545781D01*
X42396611Y-39539500D01*
X41423389Y-39539500D01*
X41383728Y-39545781D01*
X41252302Y-39566597D01*
X41087552Y-39620128D01*
X40933211Y-39698768D01*
X40853256Y-39756859D01*
X40793072Y-39800586D01*
X40793070Y-39800588D01*
X40793069Y-39800588D01*
X40670588Y-39923069D01*
X40670581Y-39923078D01*
X40588083Y-40036625D01*
X40532753Y-40079291D01*
X40463140Y-40085269D01*
X40440312Y-40078300D01*
X40435241Y-40076199D01*
X40435237Y-40076197D01*
X40327018Y-40047200D01*
X36198918Y-40047200D01*
X36086881Y-40047200D01*
X35978663Y-40076197D01*
X35978661Y-40076198D01*
X35978660Y-40076198D01*
X35881640Y-40132213D01*
X35881634Y-40132217D01*
X33550371Y-42463481D01*
X33489048Y-42496966D01*
X33462690Y-42499800D01*
X23372418Y-42499800D01*
X23260381Y-42499800D01*
X23206272Y-42514298D01*
X23152161Y-42528797D01*
X23055121Y-42584823D01*
X22987220Y-42601294D01*
X22921194Y-42578442D01*
X22892804Y-42550321D01*
X22888120Y-42543874D01*
X22829414Y-42463072D01*
X22706928Y-42340586D01*
X22566788Y-42238768D01*
X22412445Y-42160127D01*
X22247701Y-42106598D01*
X22247699Y-42106597D01*
X22247698Y-42106597D01*
X22116271Y-42085781D01*
X22076611Y-42079500D01*
X21103389Y-42079500D01*
X21063728Y-42085781D01*
X20932302Y-42106597D01*
X20932299Y-42106598D01*
X20787428Y-42153670D01*
X20767552Y-42160128D01*
X20613211Y-42238768D01*
X20564587Y-42274096D01*
X20473072Y-42340586D01*
X20473070Y-42340588D01*
X20473069Y-42340588D01*
X20350588Y-42463069D01*
X20350588Y-42463070D01*
X20350586Y-42463072D01*
X20310767Y-42517878D01*
X20248768Y-42603211D01*
X20170128Y-42757552D01*
X20116597Y-42922302D01*
X20089500Y-43093389D01*
X20089500Y-43266610D01*
X20114450Y-43424143D01*
X20116598Y-43437701D01*
X20164401Y-43584823D01*
X20170128Y-43602447D01*
X20193086Y-43647505D01*
X20205982Y-43716175D01*
X20179706Y-43780915D01*
X20122599Y-43821172D01*
X20082601Y-43827800D01*
X7969071Y-43827800D01*
X7902032Y-43808115D01*
X7856277Y-43755311D01*
X7846333Y-43686153D01*
X7858587Y-43647503D01*
X7862085Y-43640636D01*
X7920451Y-43461002D01*
X7925362Y-43430000D01*
X6665686Y-43430000D01*
X6670080Y-43425606D01*
X6722741Y-43334394D01*
X6750000Y-43232661D01*
X6750000Y-43127339D01*
X6722741Y-43025606D01*
X6670080Y-42934394D01*
X6665686Y-42930000D01*
X7925362Y-42930000D01*
X7920451Y-42898997D01*
X7862085Y-42719362D01*
X7776329Y-42551059D01*
X7665314Y-42398258D01*
X7665310Y-42398253D01*
X7531746Y-42264689D01*
X7531741Y-42264685D01*
X7378940Y-42153670D01*
X7210637Y-42067914D01*
X7031002Y-42009548D01*
X6857720Y-41982102D01*
X6794586Y-41952172D01*
X6757655Y-41892861D01*
X6758653Y-41822998D01*
X6797263Y-41764766D01*
X6857720Y-41737156D01*
X6966668Y-41719901D01*
X7007696Y-41713403D01*
X7007696Y-41713402D01*
X7007701Y-41713402D01*
X7172445Y-41659873D01*
X7326788Y-41581232D01*
X7466928Y-41479414D01*
X7589414Y-41356928D01*
X7691232Y-41216788D01*
X7733819Y-41133204D01*
X7781792Y-41082410D01*
X7844303Y-41065500D01*
X7877716Y-41065500D01*
X7877718Y-41065500D01*
X7985937Y-41036503D01*
X8082963Y-40980485D01*
X9231628Y-39831818D01*
X9292951Y-39798334D01*
X9319309Y-39795500D01*
X20199909Y-39795500D01*
X20266948Y-39815185D01*
X20312703Y-39867989D01*
X20322647Y-39937147D01*
X20300227Y-39992383D01*
X20278958Y-40021659D01*
X20248768Y-40063211D01*
X20170128Y-40217552D01*
X20116597Y-40382302D01*
X20100236Y-40485606D01*
X20089500Y-40553389D01*
X20089500Y-40726611D01*
X20116598Y-40897701D01*
X20161697Y-41036501D01*
X20170128Y-41062447D01*
X20184285Y-41090232D01*
X20248768Y-41216788D01*
X20350586Y-41356928D01*
X20473072Y-41479414D01*
X20613212Y-41581232D01*
X20767555Y-41659873D01*
X20932299Y-41713402D01*
X21103389Y-41740500D01*
X21103390Y-41740500D01*
X22076610Y-41740500D01*
X22076611Y-41740500D01*
X22247701Y-41713402D01*
X22412445Y-41659873D01*
X22566788Y-41581232D01*
X22706928Y-41479414D01*
X22829414Y-41356928D01*
X22931232Y-41216788D01*
X22973819Y-41133204D01*
X23021792Y-41082410D01*
X23084303Y-41065500D01*
X23117716Y-41065500D01*
X23117718Y-41065500D01*
X23225937Y-41036503D01*
X23322963Y-40980485D01*
X23921146Y-40382302D01*
X24471628Y-39831819D01*
X24532951Y-39798334D01*
X24559309Y-39795500D01*
X25156920Y-39795500D01*
X25223959Y-39815185D01*
X25269714Y-39867989D01*
X25279658Y-39937147D01*
X25257237Y-39992386D01*
X25243670Y-40011058D01*
X25157914Y-40179362D01*
X25099548Y-40358997D01*
X25094638Y-40390000D01*
X26354314Y-40390000D01*
X26349920Y-40394394D01*
X26297259Y-40485606D01*
X26270000Y-40587339D01*
X26270000Y-40692661D01*
X26297259Y-40794394D01*
X26349920Y-40885606D01*
X26354314Y-40890000D01*
X25094638Y-40890000D01*
X25099548Y-40921002D01*
X25157914Y-41100637D01*
X25243670Y-41268940D01*
X25354685Y-41421741D01*
X25354689Y-41421746D01*
X25488253Y-41555310D01*
X25488258Y-41555314D01*
X25641059Y-41666329D01*
X25809362Y-41752085D01*
X25988997Y-41810451D01*
X26175553Y-41840000D01*
X26420000Y-41840000D01*
X26420000Y-40955686D01*
X26424394Y-40960080D01*
X26515606Y-41012741D01*
X26617339Y-41040000D01*
X26722661Y-41040000D01*
X26824394Y-41012741D01*
X26915606Y-40960080D01*
X26920000Y-40955686D01*
X26920000Y-41840000D01*
X27164447Y-41840000D01*
X27351002Y-41810451D01*
X27530637Y-41752085D01*
X27698940Y-41666329D01*
X27851741Y-41555314D01*
X27851746Y-41555310D01*
X27985310Y-41421746D01*
X27985314Y-41421741D01*
X28096329Y-41268940D01*
X28182085Y-41100637D01*
X28240451Y-40921002D01*
X28245362Y-40890000D01*
X26985686Y-40890000D01*
X26990080Y-40885606D01*
X27042741Y-40794394D01*
X27070000Y-40692661D01*
X27070000Y-40587339D01*
X27042741Y-40485606D01*
X26990080Y-40394394D01*
X26985686Y-40390000D01*
X28245362Y-40390000D01*
X28240451Y-40358997D01*
X28182085Y-40179362D01*
X28096329Y-40011058D01*
X28082763Y-39992386D01*
X28059282Y-39926580D01*
X28075107Y-39858526D01*
X28125212Y-39809831D01*
X28183080Y-39795500D01*
X39224316Y-39795500D01*
X39224318Y-39795500D01*
X39332537Y-39766503D01*
X39429563Y-39710485D01*
X40421709Y-38718336D01*
X40483030Y-38684853D01*
X40552721Y-38689837D01*
X40608655Y-38731708D01*
X40609698Y-38733124D01*
X40670586Y-38816928D01*
X40793072Y-38939414D01*
X40933212Y-39041232D01*
X41087555Y-39119873D01*
X41252299Y-39173402D01*
X41423389Y-39200500D01*
X41423390Y-39200500D01*
X42396610Y-39200500D01*
X42396611Y-39200500D01*
X42567701Y-39173402D01*
X42732445Y-39119873D01*
X42886788Y-39041232D01*
X43026928Y-38939414D01*
X43149414Y-38816928D01*
X43251232Y-38676788D01*
X43329873Y-38522445D01*
X43344967Y-38475989D01*
X43384405Y-38418314D01*
X43448763Y-38391116D01*
X43517610Y-38403031D01*
G37*
%TD.AperFunction*%
%TA.AperFunction,Conductor*%
G36*
X58773424Y-33991911D02*
G01*
X58867555Y-34039873D01*
X59032299Y-34093402D01*
X59032302Y-34093402D01*
X59032303Y-34093403D01*
X59131615Y-34109132D01*
X59182277Y-34117156D01*
X59245412Y-34147085D01*
X59282344Y-34206396D01*
X59281346Y-34276259D01*
X59242737Y-34334492D01*
X59182279Y-34362102D01*
X59008997Y-34389548D01*
X58829362Y-34447914D01*
X58661059Y-34533670D01*
X58508258Y-34644685D01*
X58508253Y-34644689D01*
X58374689Y-34778253D01*
X58374685Y-34778258D01*
X58263670Y-34931059D01*
X58177914Y-35099362D01*
X58119548Y-35278997D01*
X58114638Y-35310000D01*
X59374314Y-35310000D01*
X59369920Y-35314394D01*
X59317259Y-35405606D01*
X59290000Y-35507339D01*
X59290000Y-35612661D01*
X59317259Y-35714394D01*
X59369920Y-35805606D01*
X59374314Y-35810000D01*
X58114638Y-35810000D01*
X58119548Y-35841002D01*
X58177914Y-36020637D01*
X58263670Y-36188940D01*
X58374685Y-36341741D01*
X58374689Y-36341746D01*
X58508253Y-36475310D01*
X58508258Y-36475314D01*
X58661059Y-36586329D01*
X58829362Y-36672085D01*
X59008997Y-36730451D01*
X59195553Y-36760000D01*
X59508389Y-36760000D01*
X59575428Y-36779685D01*
X59621183Y-36832489D01*
X59631127Y-36901647D01*
X59602102Y-36965203D01*
X59596070Y-36971681D01*
X55277071Y-41290681D01*
X55215748Y-41324166D01*
X55189390Y-41327000D01*
X52621282Y-41327000D01*
X52514636Y-41355575D01*
X52482546Y-41359800D01*
X50779610Y-41359800D01*
X50712571Y-41340115D01*
X50666816Y-41287311D01*
X50656872Y-41218153D01*
X50685897Y-41154597D01*
X50691929Y-41148119D01*
X51292946Y-40547102D01*
X53121709Y-38718337D01*
X53183030Y-38684854D01*
X53252722Y-38689838D01*
X53308655Y-38731710D01*
X53309699Y-38733125D01*
X53370586Y-38816928D01*
X53493072Y-38939414D01*
X53633212Y-39041232D01*
X53787555Y-39119873D01*
X53952299Y-39173402D01*
X54123389Y-39200500D01*
X54123390Y-39200500D01*
X55096610Y-39200500D01*
X55096611Y-39200500D01*
X55267701Y-39173402D01*
X55432445Y-39119873D01*
X55586788Y-39041232D01*
X55726928Y-38939414D01*
X55849414Y-38816928D01*
X55951232Y-38676788D01*
X56029873Y-38522445D01*
X56083402Y-38357701D01*
X56110500Y-38186611D01*
X56110500Y-38013389D01*
X56083402Y-37842299D01*
X56029873Y-37677555D01*
X55951232Y-37523212D01*
X55849414Y-37383072D01*
X55726928Y-37260586D01*
X55655052Y-37208365D01*
X55612388Y-37153036D01*
X55606409Y-37083422D01*
X55639015Y-37021627D01*
X55665935Y-37000664D01*
X55715263Y-36972185D01*
X58558785Y-34128663D01*
X58609747Y-34040394D01*
X58660310Y-33992182D01*
X58728917Y-33978958D01*
X58773424Y-33991911D01*
G37*
%TD.AperFunction*%
%TA.AperFunction,Conductor*%
G36*
X43523053Y-35846274D02*
G01*
X43556023Y-35869871D01*
X44702637Y-37016485D01*
X44799663Y-37072503D01*
X44907882Y-37101500D01*
X44907884Y-37101500D01*
X45592081Y-37101500D01*
X45659120Y-37121185D01*
X45704875Y-37173989D01*
X45714819Y-37243147D01*
X45685794Y-37306703D01*
X45679762Y-37313181D01*
X45674689Y-37318253D01*
X45674685Y-37318258D01*
X45563670Y-37471059D01*
X45477914Y-37639362D01*
X45419548Y-37818997D01*
X45414638Y-37850000D01*
X46674314Y-37850000D01*
X46669920Y-37854394D01*
X46617259Y-37945606D01*
X46590000Y-38047339D01*
X46590000Y-38152661D01*
X46617259Y-38254394D01*
X46669920Y-38345606D01*
X46674314Y-38350000D01*
X45357473Y-38350000D01*
X45357473Y-38347319D01*
X45321368Y-38347574D01*
X45267782Y-38316034D01*
X43257655Y-36305907D01*
X43224170Y-36244584D01*
X43229154Y-36174892D01*
X43245020Y-36145338D01*
X43247100Y-36142475D01*
X43251232Y-36136788D01*
X43329873Y-35982445D01*
X43350412Y-35919232D01*
X43389848Y-35861559D01*
X43454207Y-35834360D01*
X43523053Y-35846274D01*
G37*
%TD.AperFunction*%
%TA.AperFunction,Conductor*%
G36*
X61315364Y-20568386D02*
G01*
X61348334Y-20591982D01*
X65376481Y-24620129D01*
X65409966Y-24681452D01*
X65412800Y-24707810D01*
X65412800Y-25456018D01*
X65441797Y-25564237D01*
X65497815Y-25661263D01*
X65577037Y-25740485D01*
X65674063Y-25796503D01*
X65782282Y-25825500D01*
X65815697Y-25825500D01*
X65882736Y-25845185D01*
X65926180Y-25893204D01*
X65962357Y-25964205D01*
X65968766Y-25976784D01*
X65968770Y-25976792D01*
X65994385Y-26012047D01*
X66070586Y-26116928D01*
X66193072Y-26239414D01*
X66333212Y-26341232D01*
X66487555Y-26419873D01*
X66652299Y-26473402D01*
X66823389Y-26500500D01*
X66823390Y-26500500D01*
X67796610Y-26500500D01*
X67796611Y-26500500D01*
X67967701Y-26473402D01*
X68132445Y-26419873D01*
X68286788Y-26341232D01*
X68426928Y-26239414D01*
X68549414Y-26116928D01*
X68651232Y-25976788D01*
X68729873Y-25822445D01*
X68783402Y-25657701D01*
X68810500Y-25486611D01*
X68810500Y-25313389D01*
X68783402Y-25142299D01*
X68729873Y-24977555D01*
X68651232Y-24823212D01*
X68599772Y-24752384D01*
X68595540Y-24740524D01*
X68587297Y-24731011D01*
X68584023Y-24708246D01*
X68576293Y-24686580D01*
X68579144Y-24674315D01*
X68577353Y-24661853D01*
X68586908Y-24640929D01*
X68592118Y-24618526D01*
X68601147Y-24609750D01*
X68606378Y-24598297D01*
X68625728Y-24585861D01*
X68642223Y-24569831D01*
X68655969Y-24566426D01*
X68665156Y-24560523D01*
X68700091Y-24555500D01*
X68841590Y-24555500D01*
X68908629Y-24575185D01*
X68929271Y-24591819D01*
X70313181Y-25975728D01*
X70346666Y-26037051D01*
X70349500Y-26063409D01*
X70349500Y-26894856D01*
X70349502Y-26894882D01*
X70352413Y-26919987D01*
X70352415Y-26919991D01*
X70397793Y-27022764D01*
X70397794Y-27022765D01*
X70477235Y-27102206D01*
X70580009Y-27147585D01*
X70605135Y-27150500D01*
X70957191Y-27150499D01*
X71024228Y-27170183D01*
X71069983Y-27222987D01*
X71079927Y-27292146D01*
X71050902Y-27355701D01*
X71013484Y-27384984D01*
X70844859Y-27470902D01*
X70809873Y-27496320D01*
X70809872Y-27496320D01*
X71370590Y-28057037D01*
X71307007Y-28074075D01*
X71192993Y-28139901D01*
X71099901Y-28232993D01*
X71034075Y-28347007D01*
X71017037Y-28410590D01*
X70456320Y-27849872D01*
X70456320Y-27849873D01*
X70430902Y-27884859D01*
X70430899Y-27884863D01*
X70341582Y-28060161D01*
X70280778Y-28247294D01*
X70250000Y-28441617D01*
X70250000Y-28638382D01*
X70280778Y-28832705D01*
X70341581Y-29019835D01*
X70430905Y-29195145D01*
X70456319Y-29230125D01*
X70456320Y-29230125D01*
X71017037Y-28669408D01*
X71034075Y-28732993D01*
X71099901Y-28847007D01*
X71192993Y-28940099D01*
X71307007Y-29005925D01*
X71370589Y-29022962D01*
X70809873Y-29583677D01*
X70809873Y-29583678D01*
X70844858Y-29609096D01*
X71020162Y-29698418D01*
X71076766Y-29716810D01*
X71134441Y-29756248D01*
X71161639Y-29820607D01*
X71149724Y-29889453D01*
X71126128Y-29922422D01*
X68734580Y-32313970D01*
X68673257Y-32347455D01*
X68603565Y-32342471D01*
X68554122Y-32305457D01*
X68552578Y-32306777D01*
X68549411Y-32303069D01*
X68426930Y-32180588D01*
X68426929Y-32180587D01*
X68426928Y-32180586D01*
X68286788Y-32078768D01*
X68132445Y-32000127D01*
X67967701Y-31946598D01*
X67967699Y-31946597D01*
X67967698Y-31946597D01*
X67836271Y-31925781D01*
X67796611Y-31919500D01*
X66823389Y-31919500D01*
X66791192Y-31924599D01*
X66652301Y-31946597D01*
X66652297Y-31946598D01*
X66600817Y-31963325D01*
X66572698Y-31964128D01*
X66544853Y-31968132D01*
X66538241Y-31965112D01*
X66530976Y-31965320D01*
X66506886Y-31950793D01*
X66481297Y-31939107D01*
X66477367Y-31932992D01*
X66471143Y-31929239D01*
X66458730Y-31903992D01*
X66443523Y-31880329D01*
X66442046Y-31870056D01*
X66440316Y-31866538D01*
X66438500Y-31845394D01*
X66438500Y-31654605D01*
X66458185Y-31587566D01*
X66510989Y-31541811D01*
X66580147Y-31531867D01*
X66600808Y-31536671D01*
X66652299Y-31553402D01*
X66823389Y-31580500D01*
X66823390Y-31580500D01*
X67796610Y-31580500D01*
X67796611Y-31580500D01*
X67967701Y-31553402D01*
X68132445Y-31499873D01*
X68286788Y-31421232D01*
X68426928Y-31319414D01*
X68549414Y-31196928D01*
X68651232Y-31056788D01*
X68729873Y-30902445D01*
X68783402Y-30737701D01*
X68810500Y-30566611D01*
X68810500Y-30393389D01*
X68783402Y-30222299D01*
X68729873Y-30057555D01*
X68651232Y-29903212D01*
X68549414Y-29763072D01*
X68426928Y-29640586D01*
X68286788Y-29538768D01*
X68243282Y-29516601D01*
X68132447Y-29460128D01*
X68132446Y-29460127D01*
X68132445Y-29460127D01*
X67967701Y-29406598D01*
X67967699Y-29406597D01*
X67967698Y-29406597D01*
X67836271Y-29385781D01*
X67796611Y-29379500D01*
X66823389Y-29379500D01*
X66783728Y-29385781D01*
X66652302Y-29406597D01*
X66487552Y-29460128D01*
X66333211Y-29538768D01*
X66271400Y-29583677D01*
X66193072Y-29640586D01*
X66193070Y-29640588D01*
X66193069Y-29640588D01*
X66070588Y-29763069D01*
X66070588Y-29763070D01*
X66070586Y-29763072D01*
X66049871Y-29791584D01*
X65968770Y-29903207D01*
X65968768Y-29903212D01*
X65926180Y-29986795D01*
X65878208Y-30037590D01*
X65815697Y-30054500D01*
X65782282Y-30054500D01*
X65674063Y-30083497D01*
X65674060Y-30083498D01*
X65577040Y-30139513D01*
X65577034Y-30139517D01*
X65497817Y-30218734D01*
X65497813Y-30218740D01*
X65441798Y-30315760D01*
X65441797Y-30315763D01*
X65412800Y-30423982D01*
X65412800Y-30573417D01*
X65441797Y-30681636D01*
X65441798Y-30681639D01*
X65455632Y-30705600D01*
X65472105Y-30773500D01*
X65449252Y-30839527D01*
X65394331Y-30882718D01*
X65348245Y-30891600D01*
X65327229Y-30891600D01*
X65201561Y-30916597D01*
X65201555Y-30916599D01*
X65083175Y-30965633D01*
X65083166Y-30965638D01*
X64976631Y-31036823D01*
X64976627Y-31036826D01*
X64886026Y-31127427D01*
X64886023Y-31127431D01*
X64814838Y-31233966D01*
X64814833Y-31233975D01*
X64765799Y-31352355D01*
X64765797Y-31352360D01*
X64754657Y-31408364D01*
X64722271Y-31470275D01*
X64661554Y-31504848D01*
X64657233Y-31505788D01*
X64578260Y-31521497D01*
X64578255Y-31521499D01*
X64459875Y-31570533D01*
X64459866Y-31570538D01*
X64353331Y-31641723D01*
X64353327Y-31641726D01*
X64262726Y-31732327D01*
X64262723Y-31732331D01*
X64191538Y-31838866D01*
X64191533Y-31838875D01*
X64142499Y-31957255D01*
X64142497Y-31957261D01*
X64117500Y-32082928D01*
X64117500Y-32082931D01*
X64117500Y-32211069D01*
X64117500Y-32211071D01*
X64117499Y-32211071D01*
X64143687Y-32342718D01*
X64141611Y-32343130D01*
X64142144Y-32403407D01*
X64110544Y-32457206D01*
X61410475Y-35157274D01*
X61349152Y-35190759D01*
X61279460Y-35185775D01*
X61223527Y-35143903D01*
X61204863Y-35107911D01*
X61202085Y-35099362D01*
X61116329Y-34931059D01*
X61005314Y-34778258D01*
X61005310Y-34778253D01*
X60871746Y-34644689D01*
X60871741Y-34644685D01*
X60718940Y-34533670D01*
X60550637Y-34447914D01*
X60371002Y-34389548D01*
X60197720Y-34362102D01*
X60134586Y-34332172D01*
X60097655Y-34272861D01*
X60098653Y-34202998D01*
X60137263Y-34144766D01*
X60197720Y-34117156D01*
X60291306Y-34102334D01*
X60347696Y-34093403D01*
X60347696Y-34093402D01*
X60347701Y-34093402D01*
X60512445Y-34039873D01*
X60666788Y-33961232D01*
X60806928Y-33859414D01*
X60929414Y-33736928D01*
X61031232Y-33596788D01*
X61109873Y-33442445D01*
X61163402Y-33277701D01*
X61190500Y-33106611D01*
X61190500Y-32933389D01*
X61163402Y-32762299D01*
X61109873Y-32597555D01*
X61031232Y-32443212D01*
X60929414Y-32303072D01*
X60806928Y-32180586D01*
X60666788Y-32078768D01*
X60512445Y-32000127D01*
X60347701Y-31946598D01*
X60347699Y-31946597D01*
X60347698Y-31946597D01*
X60216271Y-31925781D01*
X60176611Y-31919500D01*
X59203389Y-31919500D01*
X59163728Y-31925781D01*
X59032302Y-31946597D01*
X58867551Y-32000128D01*
X58824093Y-32022271D01*
X58755424Y-32035166D01*
X58690684Y-32008889D01*
X58650428Y-31951782D01*
X58643800Y-31911785D01*
X58643800Y-31588214D01*
X58663485Y-31521175D01*
X58716289Y-31475420D01*
X58785447Y-31465476D01*
X58824093Y-31477728D01*
X58867555Y-31499873D01*
X59032299Y-31553402D01*
X59203389Y-31580500D01*
X59203390Y-31580500D01*
X60176610Y-31580500D01*
X60176611Y-31580500D01*
X60347701Y-31553402D01*
X60512445Y-31499873D01*
X60666788Y-31421232D01*
X60806928Y-31319414D01*
X60929414Y-31196928D01*
X61031232Y-31056788D01*
X61109873Y-30902445D01*
X61163402Y-30737701D01*
X61190500Y-30566611D01*
X61190500Y-30393389D01*
X61163402Y-30222299D01*
X61109873Y-30057555D01*
X61031232Y-29903212D01*
X60937705Y-29774483D01*
X60914226Y-29708680D01*
X60930051Y-29640626D01*
X60980157Y-29591931D01*
X61038024Y-29577600D01*
X64682216Y-29577600D01*
X64682218Y-29577600D01*
X64790437Y-29548603D01*
X64887463Y-29492585D01*
X65821707Y-28558338D01*
X65883030Y-28524854D01*
X65952721Y-28529838D01*
X66008655Y-28571709D01*
X66009699Y-28573124D01*
X66070586Y-28656928D01*
X66193072Y-28779414D01*
X66333212Y-28881232D01*
X66487555Y-28959873D01*
X66652299Y-29013402D01*
X66823389Y-29040500D01*
X66823390Y-29040500D01*
X67796610Y-29040500D01*
X67796611Y-29040500D01*
X67967701Y-29013402D01*
X68132445Y-28959873D01*
X68286788Y-28881232D01*
X68426928Y-28779414D01*
X68549414Y-28656928D01*
X68651232Y-28516788D01*
X68729873Y-28362445D01*
X68783402Y-28197701D01*
X68810500Y-28026611D01*
X68810500Y-27853389D01*
X68783402Y-27682299D01*
X68729873Y-27517555D01*
X68651232Y-27363212D01*
X68549414Y-27223072D01*
X68426928Y-27100586D01*
X68286788Y-26998768D01*
X68132445Y-26920127D01*
X67967701Y-26866598D01*
X67967699Y-26866597D01*
X67967698Y-26866597D01*
X67836271Y-26845781D01*
X67796611Y-26839500D01*
X66823389Y-26839500D01*
X66783728Y-26845781D01*
X66652302Y-26866597D01*
X66652299Y-26866598D01*
X66565251Y-26894882D01*
X66487552Y-26920128D01*
X66333211Y-26998768D01*
X66287721Y-27031819D01*
X66193072Y-27100586D01*
X66193070Y-27100588D01*
X66193069Y-27100588D01*
X66070588Y-27223069D01*
X66070588Y-27223070D01*
X66070586Y-27223072D01*
X66070582Y-27223078D01*
X65968770Y-27363207D01*
X65968766Y-27363215D01*
X65957675Y-27384984D01*
X65926180Y-27446795D01*
X65878208Y-27497590D01*
X65815697Y-27514500D01*
X65782281Y-27514500D01*
X65674063Y-27543497D01*
X65674061Y-27543498D01*
X65674060Y-27543498D01*
X65577040Y-27599513D01*
X65577034Y-27599517D01*
X64486271Y-28690281D01*
X64424948Y-28723766D01*
X64398590Y-28726600D01*
X61122159Y-28726600D01*
X61055120Y-28706915D01*
X61009365Y-28654111D01*
X60999421Y-28584953D01*
X61021840Y-28529716D01*
X61031230Y-28516791D01*
X61038407Y-28502706D01*
X61109873Y-28362445D01*
X61163402Y-28197701D01*
X61190500Y-28026611D01*
X61190500Y-27853389D01*
X61163402Y-27682299D01*
X61109873Y-27517555D01*
X61031232Y-27363212D01*
X60929414Y-27223072D01*
X60806928Y-27100586D01*
X60762866Y-27068573D01*
X60720202Y-27013243D01*
X60714223Y-26943630D01*
X60746829Y-26881835D01*
X60747998Y-26880649D01*
X61947185Y-25681463D01*
X62003203Y-25584437D01*
X62032200Y-25476218D01*
X62032200Y-25364182D01*
X62032200Y-22180682D01*
X62026524Y-22159500D01*
X62003203Y-22072463D01*
X61947185Y-21975437D01*
X61037655Y-21065907D01*
X61004170Y-21004584D01*
X61009154Y-20934892D01*
X61025020Y-20905338D01*
X61031229Y-20896792D01*
X61031232Y-20896788D01*
X61109873Y-20742445D01*
X61142723Y-20641343D01*
X61182159Y-20583669D01*
X61246518Y-20556471D01*
X61315364Y-20568386D01*
G37*
%TD.AperFunction*%
%TD*%
M02*
